<svg id="_10Web_Logo_Dark" data-name="10Web Logo_Dark" xmlns="http://www.w3.org/2000/svg" xmlns:xlink="http://www.w3.org/1999/xlink" width="104" height="40" viewBox="0 0 104 40">
  <defs>
    <clipPath id="clip-path">
      <rect id="Rectangle_19210" data-name="Rectangle 19210" width="104" height="40" transform="translate(373 820)" fill="none"/>
    </clipPath>
  </defs>
  <g id="_10Web_Logo_Icon" data-name="10Web Logo Icon" transform="translate(-373 -820)" clip-path="url(#clip-path)">
    <path id="Union_645" data-name="Union 645" d="M12.67,25.836.164,13.259a.577.577,0,0,1,0-.811,2.634,2.634,0,0,1,3.729,0L12.6,21.2a.575.575,0,0,0,.807,0l4.9-4.924a2.634,2.634,0,0,1,3.729,0,.608.608,0,0,1,.074.877l-8.635,8.682a.56.56,0,0,1-.4.166A.574.574,0,0,1,12.67,25.836Zm-.66-8.09a1.563,1.563,0,0,1,0-2.281l1.973-1.985a.575.575,0,0,0-.069-.736L11.79,10.61a1.712,1.712,0,0,1,0-2.281l.074-.072a1.54,1.54,0,0,1,2.268,0l4.388,4.416a.572.572,0,0,1,0,.807l-4.241,4.266a1.54,1.54,0,0,1-2.268,0ZM8.282,14.071a1.7,1.7,0,0,1,0-2.281,1.54,1.54,0,0,1,2.268,0l.733.734a.583.583,0,0,1,0,.807l-.733.74a1.548,1.548,0,0,1-2.268,0Zm13.751-.445L13.256,4.8a.567.567,0,0,0-.807,0l-4.9,4.926a2.634,2.634,0,0,1-3.729,0,.935.935,0,0,1,.148-.883L12.6.166a.578.578,0,0,1,.807,0L25.836,12.743a.582.582,0,0,1,0,.807l-.074.076a2.634,2.634,0,0,1-3.729,0Z" transform="translate(380 827)" fill="#323a45"/>
    <g id="Group_94933" data-name="Group 94933" transform="translate(412.219 830.695)">
      <path id="Path_104672" data-name="Path 104672" d="M61.9,25.768c.368-.147.811-.368,1.179-.515.442-.221.811-.441,1.253-.662A9.558,9.558,0,0,0,66.469,22.9h2.137V36.8H65.584V26.725a7.68,7.68,0,0,1-1.326.736,12.3,12.3,0,0,1-1.474.588Z" transform="translate(-61.9 -21.135)" fill="#323a45"/>
      <path id="Path_104673" data-name="Path 104673" d="M86.521,29.581a9.172,9.172,0,0,1-1.326,5.369,4.61,4.61,0,0,1-7.369,0A9.172,9.172,0,0,1,76.5,29.581a12.68,12.68,0,0,1,.368-3.089,7.188,7.188,0,0,1,1.032-2.28,4.227,4.227,0,0,1,1.621-1.4,4.751,4.751,0,0,1,2.063-.515,4.26,4.26,0,0,1,3.684,1.839A9.614,9.614,0,0,1,86.521,29.581Zm-3.095,0a15.97,15.97,0,0,0-.074-1.912,7.406,7.406,0,0,0-.295-1.471,2.367,2.367,0,0,0-.59-.956,1.4,1.4,0,0,0-.958-.368,1.554,1.554,0,0,0-.958.368,2.367,2.367,0,0,0-.589.956,4.345,4.345,0,0,0-.295,1.471,15.36,15.36,0,0,0-.074,1.912,15.36,15.36,0,0,0,.074,1.912,6.446,6.446,0,0,0,.295,1.471,2.367,2.367,0,0,0,.589.956,1.4,1.4,0,0,0,.958.368,1.554,1.554,0,0,0,.958-.368,2.367,2.367,0,0,0,.59-.956,7.406,7.406,0,0,0,.295-1.471A14.774,14.774,0,0,0,83.427,29.581Z" transform="translate(-65.742 -20.976)" fill="#323a45"/>
      <path id="Path_104674" data-name="Path 104674" d="M102.085,24.371c.147.515.368,1.177.516,1.839.221.662.368,1.4.589,2.133l.663,2.207c.221.735.442,1.4.663,2.059.147-.662.368-1.4.516-2.207s.368-1.618.516-2.5.295-1.692.442-2.574.295-1.692.442-2.427h3.242c-.442,2.354-1.032,4.707-1.621,7.061-.59,2.427-1.253,4.634-1.99,6.84H103.19c-.442-1.25-.958-2.648-1.4-4.045s-.884-2.795-1.326-4.266c-.442,1.4-.884,2.795-1.253,4.266s-.884,2.721-1.326,4.045H95.011q-1.105-3.2-1.99-6.84c-.59-2.427-1.179-4.781-1.621-7.061h3.39l.442,2.427c.147.883.295,1.692.516,2.574.147.883.368,1.692.516,2.5a15.923,15.923,0,0,0,.59,2.207c.221-.662.442-1.324.737-2.059l.663-2.207c.221-.736.442-1.471.589-2.133s.368-1.324.516-1.839Z" transform="translate(-69.663 -21.135)" fill="#323a45"/>
      <path id="Path_104675" data-name="Path 104675" d="M117.2,32.69a6.035,6.035,0,0,1,1.547-4.192,4.684,4.684,0,0,1,1.621-1.03,5.475,5.475,0,0,1,1.842-.368,4.561,4.561,0,0,1,3.537,1.4,5.577,5.577,0,0,1,1.326,4.045v.588a1.616,1.616,0,0,1-.074.588h-6.779a2.085,2.085,0,0,0,.884,1.471,3.434,3.434,0,0,0,2.063.515,12.07,12.07,0,0,0,1.621-.147,5.722,5.722,0,0,0,1.326-.368l.368,2.427a3.43,3.43,0,0,1-.663.221l-.884.221a4.357,4.357,0,0,1-1.032.147,5.588,5.588,0,0,1-1.105.074,6.621,6.621,0,0,1-2.505-.441,4.968,4.968,0,0,1-1.768-1.177,4.664,4.664,0,0,1-1.032-1.765A7.58,7.58,0,0,1,117.2,32.69Zm7-1.177a2.609,2.609,0,0,0-.147-.736,2.979,2.979,0,0,0-.368-.662,1.146,1.146,0,0,0-.589-.441,1.6,1.6,0,0,0-.884-.147,3.172,3.172,0,0,0-.884.147,4.087,4.087,0,0,0-.589.441,1.927,1.927,0,0,0-.368.662c-.074.294-.147.515-.221.736Z" transform="translate(-76.451 -22.246)" fill="#323a45"/>
      <path id="Path_104676" data-name="Path 104676" d="M143.574,30.871a7.393,7.393,0,0,1-.368,2.28,4.471,4.471,0,0,1-1.105,1.765,4.23,4.23,0,0,1-1.695,1.1,7.553,7.553,0,0,1-2.358.368,5.587,5.587,0,0,1-1.105-.074c-.368-.074-.811-.074-1.179-.147l-1.105-.221c-.368-.074-.663-.147-.958-.221V21.015l3.021-.515v5.222a5.24,5.24,0,0,1,2.211-.515,5.635,5.635,0,0,1,1.99.368,5.519,5.519,0,0,1,1.474,1.1,5.663,5.663,0,0,1,.884,1.765A8.769,8.769,0,0,1,143.574,30.871Zm-3.021-.074c0-1.912-.737-2.868-2.137-2.868a3.7,3.7,0,0,0-.884.147,2.209,2.209,0,0,0-.737.294v5.443c.147,0,.368.074.589.074h.737a2.29,2.29,0,0,0,1.842-.809A4.559,4.559,0,0,0,140.553,30.8Z" transform="translate(-80.793 -20.5)" fill="#323a45"/>
    </g>
  </g>
</svg>
