<svg id="Close_Error_Icon" xmlns="http://www.w3.org/2000/svg" xmlns:xlink="http://www.w3.org/1999/xlink" width="20" height="20" viewBox="0 0 20 20">
  <defs>
    <clipPath id="clip-path">
      <rect id="Rectangle_47801" data-name="Rectangle 47801" width="20" height="20" fill="#fd3c31"/>
    </clipPath>
  </defs>
  <g id="Close_Error_Icon-2" data-name="Close_Error_Icon" clip-path="url(#clip-path)">
    <path id="Subtraction_23" data-name="Subtraction 23" d="M6.667,13.334a6.667,6.667,0,1,1,6.667-6.667A6.675,6.675,0,0,1,6.667,13.334ZM4.458,3.528a.731.731,0,0,0-.552.3.779.779,0,0,0,.122,1.026l1.62,1.621L3.841,8.285a.837.837,0,0,0-.228.577.84.84,0,0,0,.223.474l.043.043.032.032a.657.657,0,0,0,.416.14.838.838,0,0,0,.586-.243L6.671,7.55,8.416,9.3a.735.735,0,0,0,.541.2h.01a.769.769,0,0,0,.552-.3A.807.807,0,0,0,9.4,8.166L7.725,6.494,9.333,4.887a.84.84,0,0,0,.226-.576.831.831,0,0,0-.224-.474l-.049-.049-.026-.026a.647.647,0,0,0-.416-.14.832.832,0,0,0-.585.244L6.7,5.422,5.032,3.75a.828.828,0,0,0-.569-.222Z" transform="translate(3.333 3.332)" fill="rgba(50,58,69,0.5)"/>
  </g>
</svg>
