<svg id="Slack" xmlns="http://www.w3.org/2000/svg" xmlns:xlink="http://www.w3.org/1999/xlink" width="16" height="16" viewBox="0 0 16 16">
  <defs>
    <linearGradient id="linear-gradient" x1="0.15" y1="0.15" x2="0.915" y2="0.915" gradientUnits="objectBoundingBox">
      <stop offset="0" stop-color="#2aa4f4"/>
      <stop offset="1" stop-color="#007ad9"/>
    </linearGradient>
  </defs>
  <rect id="Rectangle_18723" data-name="Rectangle 18723" width="16" height="16" fill="none"/>
  <g id="icons8-facebook" transform="translate(-4 -4)">
    <path id="Path_170312" data-name="Path 170312" d="M12,4a8,8,0,1,0,8,8A8,8,0,0,0,12,4Z" fill="url(#linear-gradient)"/>
    <path id="Path_170313" data-name="Path 170313" d="M20.319,19.048h2.07l.325-2.1h-2.4v-1.15c0-.874.286-1.648,1.1-1.648h1.313V12.311a11.161,11.161,0,0,0-1.641-.1c-1.926,0-3.054,1.017-3.054,3.334v1.4H16.06v2.1h1.979v5.781a7.278,7.278,0,0,0,2.28.017Z" transform="translate(-7.236 -4.927)" fill="#fff"/>
  </g>
</svg>
