<svg xmlns="http://www.w3.org/2000/svg" width="16" height="16" viewBox="0 0 16 16">
  <g id="Group_101243" data-name="Group 101243" transform="translate(-80 -236)">
    <rect id="Rectangle_49998" data-name="Rectangle 49998" width="16" height="16" transform="translate(80 236)" fill="none"/>
    <g id="Layer_2" data-name="Layer 2" transform="translate(82.182 236.727)">
      <g id="Isolation_Mode" data-name="Isolation Mode" transform="translate(0 0)">
        <path id="Path_170865" data-name="Path 170865" d="M15587.974-14209.336a.517.517,0,0,1-.055-.677l4.24-5.8-2.052-.639a.521.521,0,0,1-.36-.415.508.508,0,0,1,.207-.509l9.895-7.239a.533.533,0,0,1,.325-.109.517.517,0,0,1,.371.156.52.52,0,0,1,.039.689l-4.232,5.791,2.067.642a.521.521,0,0,1,.349.411.528.528,0,0,1-.2.5l-.012.012-9.91,7.243a.484.484,0,0,1-.309.1A.522.522,0,0,1,15587.974-14209.336Z" transform="translate(-15588.319 14224.228)" fill="#22b339"/>
      </g>
    </g>
  </g>
</svg>
