<svg id="Information_Icon" xmlns="http://www.w3.org/2000/svg" xmlns:xlink="http://www.w3.org/1999/xlink" width="12" height="12" viewBox="0 0 12 12">
  <defs>
    <clipPath id="clip-path">
      <rect id="Rectangle_47798" data-name="Rectangle 47798" width="12" height="12" fill="#22b339"/>
    </clipPath>
  </defs>
  <g id="Information_Icon-2" data-name="Information_Icon" clip-path="url(#clip-path)">
    <g id="Info" transform="translate(0 0)">
      <path id="Path_169137" data-name="Path 169137" d="M17.5,23.5a6.014,6.014,0,0,1-6-6.032,5.913,5.913,0,0,1,1.751-4.216A5.838,5.838,0,0,1,17.435,11.5a6.127,6.127,0,0,1,6.065,6,5.952,5.952,0,0,1-5.935,6Z" transform="translate(-11.5 -11.5)" fill="#fd3c31"/>
    </g>
    <g id="Info-2" data-name="Info" transform="translate(5.221 2.724)">
      <path id="Path_169137-2" data-name="Path 169137" d="M18.37,14.678a.778.778,0,1,0,.778.778h0A.812.812,0,0,0,18.37,14.678Zm0,2.4h0a.789.789,0,0,0-.778.778v2.562a.789.789,0,0,0,.778.778h0a.789.789,0,0,0,.778-.778V17.857A.789.789,0,0,0,18.37,17.078Z" transform="translate(-17.592 -14.678)" fill="#fff"/>
    </g>
  </g>
</svg>
