<svg xmlns="http://www.w3.org/2000/svg" xmlns:xlink="http://www.w3.org/1999/xlink" width="16" height="16" viewBox="0 0 16 16">
  <defs>
    <clipPath id="clip-path">
      <rect id="Rectangle_47798" data-name="Rectangle 47798" width="16" height="16" fill="#323a45"/>
    </clipPath>
  </defs>
  <g id="Group_103203" data-name="Group 103203" transform="translate(-1064 -32)">
    <path id="design_system_icons-40" data-name="design system icons-40" d="M27.5,19.5a8,8,0,1,1-8-8A8.01,8.01,0,0,1,27.5,19.5Z" transform="translate(1052.5 20.5)" fill="#fd3c31" opacity="0.3"/>
    <g id="Information_Icon" transform="translate(1064 32)">
      <g id="Information_Icon-2" data-name="Information_Icon" clip-path="url(#clip-path)">
        <g id="Info" transform="translate(2.667 2.667)">
          <path id="Path_169137" data-name="Path 169137" d="M16.833,22.166A5.346,5.346,0,0,1,11.5,16.8a5.256,5.256,0,0,1,1.557-3.748A5.19,5.19,0,0,1,16.776,11.5a5.446,5.446,0,0,1,5.391,5.333,5.29,5.29,0,0,1-5.276,5.333Z" transform="translate(-11.5 -11.5)" fill="#fd3c31"/>
        </g>
        <g id="Info-2" data-name="Info" transform="translate(7.308 5.089)">
          <path id="Path_169137-2" data-name="Path 169137" d="M19.734,15.435a.692.692,0,1,0,.692.692h0A.722.722,0,0,0,19.734,15.435Zm0,2.133h0a.7.7,0,0,0-.692.692v2.277a.7.7,0,0,0,.692.692h0a.7.7,0,0,0,.692-.692V18.26A.7.7,0,0,0,19.734,17.568Z" transform="translate(-19.042 -15.435)" fill="#fff"/>
        </g>
      </g>
    </g>
  </g>
</svg>
