<svg xmlns="http://www.w3.org/2000/svg" xmlns:xlink="http://www.w3.org/1999/xlink" width="20" height="20" viewBox="0 0 20 20">
  <defs>
    <clipPath id="clip-path">
      <rect id="Rectangle_51336" data-name="Rectangle 51336" width="20" height="20" transform="translate(143 228)" fill="none"/>
    </clipPath>
  </defs>
  <g id="Group_102471" data-name="Group 102471" transform="translate(-34 -230)">
    <g id="Mask_Group_95425" data-name="Mask Group 95425" transform="translate(-109 2)" clip-path="url(#clip-path)">
      <g id="Group_102470" data-name="Group 102470" transform="translate(146 233)">
        <path id="Path_171070" data-name="Path 171070" d="M255.033,53.182a1.037,1.037,0,0,1-.74.991c-.015,0-.015.032,0,.032a1.024,1.024,0,0,1,0,2.046c-.544,0-1.329,0-1.993-.016-.408-.016-1.223-.016-1.782,0a.46.46,0,0,0-.423.6c.287.9.8,2.549.891,3.069a1.086,1.086,0,0,1-2.023.661c-.347-.944-1.721-3.761-3.352-4.8a.693.693,0,0,1-.317-.582l-.015-5.744c0-.331,1.3-1.322,3.141-1.322h5.149a1,1,0,0,1,.981,1.023,1.037,1.037,0,0,1-.74.991c-.015,0-.015.032,0,.032a1,1,0,0,1,.981,1.023,1.037,1.037,0,0,1-.74.991c-.015,0-.015.032,0,.032a.951.951,0,0,1,.982.976Z" transform="translate(-241.274 -48.115)" fill="#323a45"/>
        <path id="Path_171071" data-name="Path 171071" d="M86.6,239.971H84.668A.668.668,0,0,1,84,239.3v-5.117a.667.667,0,0,1,.667-.667H86.6a.668.668,0,0,1,.667.667V239.3a.668.668,0,0,1-.667.667Z" transform="translate(-84.001 -233.09)" fill="#323a45"/>
      </g>
    </g>
  </g>
</svg>
