<svg xmlns="http://www.w3.org/2000/svg" width="25" height="25" viewBox="0 0 25 25">
  <g id="Layer_2" data-name="Layer 2" transform="translate(0 0.029)">
    <g id="Isolation_Mode" data-name="Isolation Mode" transform="translate(0 0.045)">
      <rect id="Rectangle_51346" data-name="Rectangle 51346" width="25" height="25" transform="translate(0 -0.075)" fill="none"/>
      <path id="Path_171078" data-name="Path 171078" d="M.425,37.776h0a1.4,1.4,0,0,0,1.981-.035l7.6-5.7a.122.122,0,0,0-.12-.212L.862,35.6a1.335,1.335,0,0,0-.5,2.106Z" transform="translate(-0.029 -23.904)" fill="#121619"/>
      <path id="Path_171079" data-name="Path 171079" d="M5.214,47.72a1.4,1.4,0,0,1-1.981.035L.444,45.063l-.032-.027-.057-.06a1.332,1.332,0,0,1,.5-2.118L4.122,41.49l-.549.479a1.467,1.467,0,0,0-.065,2.166l1.669,1.6A1.4,1.4,0,0,1,5.214,47.72Z" transform="translate(-0.014 -31.164)" fill="#333b46"/>
      <path id="Path_171080" data-name="Path 171080" d="M69.462,43.119h0a1.4,1.4,0,0,0-1.981.035l-7.59,5.7a.122.122,0,0,0,.12.212l9.015-3.778a1.335,1.335,0,0,0,.5-2.106Z" transform="translate(-44.907 -32.092)" fill="#121619"/>
      <path id="Path_171081" data-name="Path 171081" d="M77.98,32.251a1.4,1.4,0,0,1,1.981-.035l2.79,2.692.032.027.057.06a1.332,1.332,0,0,1-.5,2.118l-3.269,1.367L79.622,38a1.467,1.467,0,0,0,.065-2.166L78.015,34.23A1.4,1.4,0,0,1,77.98,32.251Z" transform="translate(-58.228 -23.909)" fill="#333b46"/>
      <path id="Path_171082" data-name="Path 171082" d="M31.239,23.089,36.2,16.3a.117.117,0,1,0-.167-.165L23.369,25.6a.122.122,0,0,0,.072.222h3.975a.13.13,0,0,1,.1.2l-4.963,6.789a.117.117,0,0,0,.167.165l12.666-9.467a.122.122,0,0,0-.072-.222H31.344a.13.13,0,0,1-.1-.2Z" transform="translate(-16.904 -12.109)" fill="#22b339"/>
      <path id="Path_171083" data-name="Path 171083" d="M36.26,16.485l-8.3,8.144a.122.122,0,0,0,.085.21h2.994a.13.13,0,0,1,.09.222l-8.344,8.134a.052.052,0,0,0,.067.077L35.538,23.79a.122.122,0,0,0-.072-.22H31.474a.13.13,0,0,1-.1-.207l4.99-6.807a.062.062,0,0,0-.1-.072Z" transform="translate(-17.094 -12.384)" fill="#fff" opacity="0.2"/>
    </g>
  </g>
</svg>
