<svg xmlns="http://www.w3.org/2000/svg" xmlns:xlink="http://www.w3.org/1999/xlink" width="26" height="26" viewBox="0 0 26 26">
  <defs>
    <clipPath id="clip-path">
      <rect id="Rectangle_51264" data-name="Rectangle 51264" width="14.163" height="17.804" fill="#fff"/>
    </clipPath>
  </defs>
  <g id="Group_102205" data-name="Group 102205" transform="translate(0 -0.391)">
    <path id="Path_171039" data-name="Path 171039" d="M.441,38.127h0a1.445,1.445,0,0,0,2.065-.037l7.924-6.038a.131.131,0,0,0,.033-.18.126.126,0,0,0-.158-.045l-9.409,4a1.426,1.426,0,0,0-.52,2.23Z" transform="translate(-0.028 -23.443)" fill="#fff"/>
    <path id="Path_171040" data-name="Path 171040" d="M5.434,48.088a1.443,1.443,0,0,1-2.063.039l0,0L.462,45.274l-.034-.029-.06-.063a1.427,1.427,0,0,1,.12-1.992,1.393,1.393,0,0,1,.4-.252L4.295,41.49,3.723,42a1.571,1.571,0,0,0-.163,2.191q.045.054.095.1l1.74,1.7a1.5,1.5,0,0,1,.039,2.1" transform="translate(-0.014 -30.56)" fill="#9ea3a8"/>
    <path id="Path_171041" data-name="Path 171041" d="M69.869,43.142h0a1.445,1.445,0,0,0-2.065.037l-7.911,6.038a.131.131,0,0,0-.033.18.126.126,0,0,0,.158.045l9.4-4a1.426,1.426,0,0,0,.52-2.23Z" transform="translate(-44.277 -31.469)" fill="#fff"/>
    <path id="Path_171042" data-name="Path 171042" d="M78,32.276a1.443,1.443,0,0,1,2.063-.039l0,0,2.907,2.851L83,35.12l.06.063a1.427,1.427,0,0,1-.12,1.992,1.393,1.393,0,0,1-.4.252l-3.407,1.448.572-.507a1.571,1.571,0,0,0,.163-2.191q-.045-.054-.095-.1l-1.742-1.7a1.5,1.5,0,0,1-.036-2.1" transform="translate(-57.411 -23.446)" fill="#9ea3a8"/>
    <path id="Path_171043" data-name="Path 171043" d="M31.607,23.5l5.172-7.19a.126.126,0,0,0,0-.176.121.121,0,0,0-.173,0l-13.2,10.025a.131.131,0,0,0-.03.18.127.127,0,0,0,.106.055h4.143a.136.136,0,0,1,.134.139.138.138,0,0,1-.025.078L22.56,33.8a.126.126,0,0,0,0,.176.121.121,0,0,0,.173,0l13.2-10.025a.131.131,0,0,0,.03-.18.127.127,0,0,0-.106-.055H31.717a.136.136,0,0,1-.134-.139.138.138,0,0,1,.025-.078" transform="translate(-16.668 -11.879)" fill="#9ea3a8"/>
    <g id="Group_102198" data-name="Group 102198" transform="translate(5.924 4.318)">
      <g id="Group_102197" data-name="Group 102197" clip-path="url(#clip-path)">
        <path id="Path_171044" data-name="Path 171044" d="M36.829,16.486,28.182,25.11a.131.131,0,0,0,0,.183.127.127,0,0,0,.09.039h3.121a.136.136,0,0,1,.134.139.138.138,0,0,1-.04.1l-8.7,8.614a.056.056,0,0,0,.011.078.053.053,0,0,0,.06,0L36.077,24.222a.131.131,0,0,0,.024-.182.126.126,0,0,0-.1-.051H31.841a.136.136,0,0,1-.136-.137.138.138,0,0,1,.027-.083l5.2-7.208a.066.066,0,0,0-.028-.089.064.064,0,0,0-.076.012" transform="translate(-22.777 -16.466)" fill="#fff"/>
      </g>
    </g>
    <rect id="Rectangle_51265" data-name="Rectangle 51265" width="25.589" height="26" transform="translate(0 0.391)" fill="none"/>
  </g>
</svg>
