<svg id="reddit-logo" xmlns="http://www.w3.org/2000/svg" width="16" height="16" viewBox="0 0 16 16">
  <g id="Group_71864" data-name="Group 71864" transform="translate(0 0)">
    <g id="Group_71863" data-name="Group 71863">
      <path id="vor3h" d="M3.432,11.056a8,8,0,0,1,16-.386v.441a8,8,0,0,1-16-.055Z" transform="translate(-3.429 -2.89)" fill="#ff4500"/>
    </g>
  </g>
  <g id="Group_71866" data-name="Group 71866" transform="translate(2.576 3.39)">
    <g id="Group_71865" data-name="Group 71865" transform="translate(0 0)">
      <path id="vor3i" d="M61.527,72.1v.331c0,1.82-2.1,3.254-4.705,3.254s-4.705-1.434-4.705-3.254V72.1a1.2,1.2,0,0,1-.609-1.544A1.013,1.013,0,0,1,52.56,69.9a1.129,1.129,0,0,1,.83.331,5.919,5.919,0,0,1,3.155-.993l.609-2.758a.192.192,0,0,1,.055-.11.2.2,0,0,1,.166-.055l1.937.441a.829.829,0,1,1,.388,1.1.739.739,0,0,1-.443-.717l-1.716-.386-.554,2.482a5.9,5.9,0,0,1,3.1.993,1.207,1.207,0,0,1,1.661,0,1.121,1.121,0,0,1,.332.827A.848.848,0,0,1,61.527,72.1Zm-6.477.607a.827.827,0,1,0-.83-.827A.814.814,0,0,0,55.051,72.71Zm3.819,1.048c-.111-.11-.221-.11-.277,0a3.026,3.026,0,0,1-3.321,0c-.111-.11-.221-.11-.277,0-.111.11-.111.221,0,.276a3.156,3.156,0,0,0,1.993.607,3.247,3.247,0,0,0,1.993-.607C58.926,73.979,58.926,73.869,58.87,73.758Zm.664-1.875a.83.83,0,1,0-.83.827A.85.85,0,0,0,59.535,71.883Z" transform="translate(-51.424 -66.28)" fill="#fff"/>
    </g>
  </g>
</svg>
