<svg id="Restore_Points_Icon" xmlns="http://www.w3.org/2000/svg" xmlns:xlink="http://www.w3.org/1999/xlink" width="22" height="22" viewBox="0 0 22 22">
  <defs>
    <clipPath id="clip-path">
      <rect id="Rectangle_47830" data-name="Rectangle 47830" width="22" height="22" fill="#fff" stroke="#707070" stroke-width="1"/>
    </clipPath>
  </defs>
  <g id="Restore_Points_Icon-2" data-name="Restore_Points_Icon" clip-path="url(#clip-path)">
    <path id="Path_169292" data-name="Path 169292" d="M17.7,11.5h0a6.988,6.988,0,0,0-4.917,2.043,7.224,7.224,0,0,0-2.043,4.917H9.457A1.031,1.031,0,0,0,9,18.687a.866.866,0,0,0-.3.643.77.77,0,0,0,.227.567L10.97,22.2a.87.87,0,0,0,1.286,0l2-2.232a.921.921,0,0,0,.113-1.135.959.959,0,0,0-.681-.378H12.52a5.1,5.1,0,0,1,1.513-3.631,5.167,5.167,0,0,1,3.593-1.513h0a5.216,5.216,0,0,1,3.783,8.851,5.1,5.1,0,0,1-3.631,1.513H17.7a5.492,5.492,0,0,1-2.459-.605.9.9,0,0,0-.832,1.589A7.2,7.2,0,0,0,17.7,25.5h.076A6.974,6.974,0,0,0,24.7,18.46,7.023,7.023,0,0,0,17.7,11.5Z" transform="translate(-5.7 -7.5)" fill="#fff"/>
  </g>
</svg>
