<svg id="Twitter" xmlns="http://www.w3.org/2000/svg" width="16" height="16" viewBox="0 0 16 16">
  <rect id="Rectangle_18718" data-name="Rectangle 18718" width="16" height="16" fill="none"/>
  <g id="twitter-social-logotype" transform="translate(0.8 2)">
    <path id="Path_110999" data-name="Path 110999" d="M14.383,10.482a.07.07,0,0,0-.084-.02,5.664,5.664,0,0,1-1.35.419A3.062,3.062,0,0,0,14,9.367a.074.074,0,0,0-.023-.08.07.07,0,0,0-.081-.006,5.7,5.7,0,0,1-1.8.709,2.977,2.977,0,0,0-2.16-.938,3.035,3.035,0,0,0-3,3.066,3.156,3.156,0,0,0,.058.6A8.2,8.2,0,0,1,1.119,9.628.069.069,0,0,0,1.058,9.6.071.071,0,0,0,1,9.637a3.12,3.12,0,0,0,.722,3.94,2.819,2.819,0,0,1-1.046-.346.07.07,0,0,0-.07,0,.074.074,0,0,0-.036.062v.039a3.069,3.069,0,0,0,2.106,2.929,2.814,2.814,0,0,1-1-.015.071.071,0,0,0-.067.023.075.075,0,0,0-.015.071,3.011,3.011,0,0,0,2.6,2.119A5.673,5.673,0,0,1,.769,19.6a5.8,5.8,0,0,1-.689-.041A.072.072,0,0,0,0,19.611a.074.074,0,0,0,.029.086,8.225,8.225,0,0,0,4.522,1.356,8.415,8.415,0,0,0,8.394-8.588q0-.176-.007-.351a6.056,6.056,0,0,0,1.446-1.544A.075.075,0,0,0,14.383,10.482Z" transform="translate(0 -9.053)" fill="#03aaff"/>
  </g>
</svg>
