<svg xmlns="http://www.w3.org/2000/svg" xmlns:xlink="http://www.w3.org/1999/xlink" viewBox="0 0 841.9 595.3" xmlns:v="https://vecta.io/nano"><g fill="#697188"><path d="M6 364.7v-97.6h18.8v80.8h43.7v16.8zm87.5-29.8c0 9.1 5.5 15.7 15.4 15.7 7.7 0 11.5-2.2 16-6.6l10.7 10.4c-7.2 7.2-14.1 11.1-26.8 11.1-16.6 0-32.6-7.6-32.6-36.1 0-23 12.4-36 30.7-36 19.6 0 30.7 14.3 30.7 33.7v7.8H93.5zm25.2-19.6c-1.9-4.2-5.8-7.3-11.8-7.3s-9.9 3.1-11.8 7.3c-1.1 2.6-1.5 4.5-1.6 7.6h26.8c-.1-3.1-.5-5-1.6-7.6m63.2 49.4v-6.1c-4.7 4.7-9.2 6.8-17.3 6.8-8 0-13.8-2-18-6.2-3.8-3.9-5.8-9.6-5.8-15.8 0-11.2 7.7-20.4 24.1-20.4h16.6v-3.5c0-7.7-3.8-11.1-13.1-11.1-6.8 0-9.9 1.6-13.5 5.8l-11.2-11c6.9-7.6 13.7-9.7 25.4-9.7 19.8 0 30 8.4 30 24.9v46.4h-17.2zm-.4-29.8h-13.9c-6.4 0-9.9 3-9.9 8 0 4.9 3.2 8.1 10.1 8.1 4.9 0 8-.4 11.1-3.4 1.9-1.8 2.6-4.6 2.6-8.9v-3.8zm55.6 30.6c-11.1 0-21.1-1.2-30-10.1l11.5-11.5c5.8 5.8 13.4 6.6 18.8 6.6 6.1 0 12.4-2 12.4-7.3 0-3.5-1.9-6-7.4-6.5l-11.1-1.1c-12.7-1.2-20.6-6.8-20.6-19.8 0-14.6 12.9-22.5 27.2-22.5 11 0 20.2 1.9 26.9 8.3l-10.8 11c-4.1-3.7-10.3-4.7-16.4-4.7-7 0-10 3.2-10 6.8 0 2.6 1.1 5.5 7.3 6.1l11.1 1.1c13.9 1.4 21 8.8 21 20.7 0 15.5-13.3 22.9-29.9 22.9"/><use xlink:href="#B"/><path d="M388.3 364.7v-6.5c-4.6 4.9-11.1 7.3-17.6 7.3-7 0-12.7-2.3-16.6-6.2-5.7-5.7-7.2-12.3-7.2-20v-45.1h17.6v42.6c0 9.6 6.1 12.9 11.6 12.9s11.8-3.2 11.8-12.9v-42.6h17.6v70.5h-17.2zm69.9-51.3c-2.7-2.7-5-4.2-9.3-4.2-5.4 0-11.4 4.1-11.4 13v42.5h-17.6v-70.5h17.2v6.8c3.4-4.1 10.1-7.6 17.7-7.6 6.9 0 11.8 1.8 16.6 6.6l-13.2 13.4zm63.8 43.4c-4.3 4.6-11.5 8.7-21.9 8.7s-17.5-4.1-21.8-8.7c-6.4-6.6-8-14.6-8-27.5 0-12.7 1.6-20.7 8-27.3 4.3-4.6 11.4-8.7 21.8-8.7s17.6 4.1 21.9 8.7c6.4 6.6 8 14.6 8 27.3 0 12.9-1.6 20.9-8 27.5m-13.6-44.5c-2-2-4.7-3.1-8.2-3.1s-6.1 1.1-8.1 3.1c-3.7 3.7-4.1 9.7-4.1 17s.4 13.5 4.1 17.2c2 2 4.6 3.1 8.1 3.1s6.2-1.1 8.2-3.1c3.7-3.7 4.1-9.9 4.1-17.2-.1-7.2-.5-13.3-4.1-17m82.1 46.8c-3.9 3.9-10.3 6.4-17.2 6.4-7.2 0-12.5-1.9-17.1-7v32.1h-17.6v-96.3h17v6.6c4.9-5.4 10.2-7.4 17.6-7.4 6.9 0 13.3 2.4 17.2 6.4 7 7 7.2 19.1 7.2 29.6.1 10.4-.1 22.6-7.1 29.6m-22.3-49.9c-10.6 0-11.9 8.7-11.9 20.2s1.4 20.3 11.9 20.3c10.6 0 11.9-8.8 11.9-20.3s-1.4-20.2-11.9-20.2"/><use xlink:href="#B" x="330"/><path d="M745.8 229h-79.3v25h54.4v54.3h24.9z" opacity=".8"/><path d="M720.9 254h115.9v-36.5h-79.4V138h-36.5z" opacity=".88"/></g><path d="M745.8 254h-24.9 24.9z" fill="#569bbe"/><path d="M745.8 254h0-24.9v-25h24.9zm-37.2-37.2l.1-33h-10.4v22.6h-22.7v10.4zm49.5 49.4V335h21.6v-47.1h47.1v-21.7z" fill="#697188"/><defs ><path id="B" d="M292.8 334.9c0 9.1 5.5 15.7 15.4 15.7 7.7 0 11.5-2.2 16-6.6l10.7 10.4c-7.2 7.2-14.1 11.1-26.8 11.1-16.6 0-32.6-7.6-32.6-36.1 0-23 12.4-36 30.7-36 19.6 0 30.7 14.3 30.7 33.7v7.8h-44.1zm25.2-19.6c-1.9-4.2-5.8-7.3-11.8-7.3s-9.9 3.1-11.8 7.3c-1.1 2.6-1.5 4.5-1.6 7.6h26.8c-.1-3.1-.5-5-1.6-7.6"/></defs></svg>