<svg xmlns="http://www.w3.org/2000/svg" viewBox="0 0 21.31 24.31"><defs><style>.cls-1{fill:#0075a2;stroke:#0075a2;stroke-miterlimit:10;stroke-width:0.8px;}</style></defs><g id="Layer_2" data-name="Layer 2"><g id="Features"><path class="cls-1" d="M1.65,23.91A1.25,1.25,0,0,1,.4,22.65v-21A1.25,1.25,0,0,1,1.65.4H14.4a.48.48,0,0,1,.36.15l4.5,4.5a.47.47,0,0,1,.15.35V7.65a.51.51,0,1,1-1,0V6.9a.25.25,0,0,0-.25-.24H14.28a1.14,1.14,0,0,1-1.13-1.13V1.65a.25.25,0,0,0-.25-.24H1.65a.24.24,0,0,0-.24.24v21a.25.25,0,0,0,.24.25h16.5a.25.25,0,0,0,.25-.25V17.4a.51.51,0,0,1,1,0v5.25a1.25,1.25,0,0,1-1.26,1.26ZM14.4,1.72a.15.15,0,0,0-.09,0,.24.24,0,0,0-.15.22V5.4a.25.25,0,0,0,.24.25h3.44a.25.25,0,0,0,.23-.15A.25.25,0,0,0,18,5.23L14.58,1.79A.24.24,0,0,0,14.4,1.72Z"/><path class="cls-1" d="M8.4,8.16a.51.51,0,0,1,0-1h3a.51.51,0,1,1,0,1Z"/><path class="cls-1" d="M5.4,11.16a.51.51,0,0,1,0-1h8.25a.51.51,0,1,1,0,1Z"/><path class="cls-1" d="M5.4,14.16a.51.51,0,0,1,0-1h5.25a.51.51,0,1,1,0,1Z"/><path class="cls-1" d="M9.9,20.91a.51.51,0,0,1-.35-.15.48.48,0,0,1-.13-.48l.75-3a.41.41,0,0,1,.13-.23l7.5-7.5a.47.47,0,0,1,.35-.15.48.48,0,0,1,.36.15l2.25,2.25a.5.5,0,0,1,0,.71L13.26,20a.53.53,0,0,1-.23.13l-3,.75Zm2.25-4.19a.23.23,0,0,0-.17.07l-.82.82a.29.29,0,0,0-.07.12l-.39,1.58a.23.23,0,0,0,.06.24.28.28,0,0,0,.17.07H11l1.59-.39a.41.41,0,0,0,.11-.07l.83-.82a.29.29,0,0,0,.07-.18.28.28,0,0,0-.07-.17l-1.19-1.19A.24.24,0,0,0,12.15,16.72Zm1.5-1.5a.23.23,0,0,0-.17.07l-.44.44a.24.24,0,0,0,0,.35l1.19,1.19a.23.23,0,0,0,.17.07.24.24,0,0,0,.18-.07l.44-.44a.26.26,0,0,0,0-.35l-1.19-1.19A.24.24,0,0,0,13.65,15.22Zm4.5-4.5a.23.23,0,0,0-.17.07l-3.44,3.44a.24.24,0,0,0,0,.35l1.19,1.19a.23.23,0,0,0,.17.07.24.24,0,0,0,.18-.07l3.44-3.44a.26.26,0,0,0,0-.35l-1.19-1.19A.24.24,0,0,0,18.15,10.72Z"/></g></g></svg>