<svg width="120" height="120" viewBox="0 0 120 120" fill="none" xmlns="http://www.w3.org/2000/svg">
<g id="Frame 17">
<g id="Group">
<path id="Vector" d="M76.53 40.4904C72.8651 39.8806 63.4189 39.9209 57.1505 42.2004C50.8805 44.4797 39.4793 51.6045 36.0596 52.7466C32.6398 53.8854 32.3541 58.4471 40.0486 59.3007C47.7446 60.1571 54.5841 55.3097 56.2939 54.4564C58.0039 53.6 74.5343 56.1664 74.5343 56.1664L79.7351 57.4479L91.726 73.6559C93.83 71.8282 97.9913 67.9491 99.045 65.0011C99.4296 63.9275 100.001 62.9405 100.628 62.064L83.6377 38.6318C81.4702 39.8604 78.8543 40.8783 76.53 40.4904Z" fill="#00ABC8"/>
<path id="Vector_2" d="M76.531 59.8018L74.011 59.5475C70.7047 59.0353 61.3548 57.7041 57.845 57.7041C57.6898 57.7041 57.5673 57.7057 57.4756 57.7102C57.3345 57.7908 57.1714 57.8841 57.0116 57.9771C54.5213 59.4279 48.6856 62.8243 41.8897 62.8243C41.1448 62.8243 40.3986 62.7823 39.6725 62.7017C38.5709 62.5791 37.6025 62.3897 36.7461 62.1509C37.5575 62.5062 38.3054 63.0153 38.9448 63.6685C39.9502 64.6957 40.5723 65.9555 40.8191 67.2729C41.4041 67.1161 42.0106 67.0292 42.6313 67.0292C44.5334 67.0292 46.3133 67.7771 47.6413 69.1362C48.9509 70.4738 49.6599 72.2426 49.6398 74.1139C49.6398 74.1324 49.6367 74.1511 49.6367 74.1696C51.5312 74.1757 53.3033 74.9239 54.6282 76.2767C55.9377 77.6143 56.6469 79.3829 56.6267 81.2543C56.6204 81.8998 56.5213 82.5296 56.3459 83.135C57.6896 83.4157 58.9201 84.0844 59.9038 85.0899C62.6066 87.8534 62.5585 92.2986 59.7966 95.0016L58.4143 96.3547C58.4204 96.3547 58.4267 96.3547 58.4328 96.3547C60.7571 96.1871 62.7137 94.7534 63.2614 92.5934C64.2078 93.3397 65.3994 93.788 66.6983 93.788C69.7674 93.788 72.256 91.3008 72.256 88.2303C72.256 87.9075 72.2234 87.5942 72.1691 87.2867C73.1466 88.1386 74.4205 88.6582 75.8185 88.6582C78.8877 88.6582 81.3765 86.1694 81.3765 83.1005C82.0344 83.3752 82.7558 83.5287 83.513 83.5287C86.5836 83.5287 89.0708 81.0399 89.0708 77.971C89.0708 75.6404 87.932 74.123 85.2228 70.9887L76.531 59.8018Z" fill="#00ABC8"/>
<path id="Vector_3" d="M36.501 66.0604C35.1139 64.6438 32.8424 64.619 31.4258 66.0046L26.2977 71.024C24.8811 72.4096 24.8563 74.6812 26.2419 76.0977C27.6289 77.5143 29.9005 77.5391 31.3171 76.1519L36.4466 71.1339C37.8615 69.7485 37.8864 67.4769 36.501 66.0604Z" fill="#00ABC8"/>
<path id="Vector_4" d="M45.1943 71.5284C43.8087 70.1102 41.5371 70.0854 40.1206 71.4724L33.2827 78.1629C31.8645 79.5499 31.8413 81.8215 33.2267 83.2366C34.6123 84.6548 36.8855 84.6797 38.3021 83.2927L45.14 76.6019C46.5565 75.2166 46.5814 72.945 45.1943 71.5284Z" fill="#00ABC8"/>
<path id="Vector_5" d="M52.182 78.6684C50.7964 77.2519 48.5248 77.2254 47.1082 78.6126L40.2703 85.3048C38.8538 86.6901 38.8289 88.9617 40.2146 90.3799C41.6002 91.7951 43.8717 91.8199 45.2899 90.4326L52.1278 83.7422C53.5444 82.3549 53.5692 80.0833 52.182 78.6684Z" fill="#00ABC8"/>
<path id="Vector_6" d="M57.4601 87.4808C56.0745 86.0643 53.8029 86.038 52.3863 87.425L48.3973 91.329C46.9807 92.7144 46.9559 94.986 48.3415 96.4028C49.7285 97.8193 52.0001 97.8428 53.4167 96.4586L57.4057 92.5548C58.8225 91.1692 58.8457 88.8976 57.4601 87.4808Z" fill="#00ABC8"/>
<path id="Vector_7" d="M119.673 55.3165L96.7525 23.7073C96.1984 22.9408 95.1295 22.7719 94.3645 23.3257L84.2125 30.6879C83.4475 31.2417 83.2769 32.3109 83.8323 33.0757L106.752 64.6866C107.306 65.4516 108.375 65.6222 109.14 65.0667L119.294 57.7059C120.057 57.1502 120.228 56.0812 119.673 55.3165ZM111.874 58.1559C110.601 59.0805 108.818 58.7951 107.893 57.5212C106.97 56.2474 107.254 54.4662 108.529 53.5416C109.803 52.6167 111.584 52.9022 112.509 54.1746C113.432 55.4498 113.148 57.2327 111.874 58.1559Z" fill="#00ABC8"/>
<path id="Vector_8" d="M33.9335 61.5599C34.4735 61.5599 35.0011 61.6284 35.513 61.7446C31.2042 60.0923 30.4905 57.0698 30.3788 56.0038C30.0745 53.1332 31.9226 50.519 34.9777 49.5011C36.2065 49.0914 39.4275 47.335 42.5433 45.6377C45.8855 43.8145 49.5534 41.8145 52.7435 40.3434C48.7001 40.0162 44.9109 40.1542 42.8878 40.4908C40.7093 40.8538 38.2765 39.9836 36.1957 38.8633L19.0723 62.477C19.5858 63.2481 20.0466 64.0923 20.3707 65.0015C20.8502 66.3421 21.9736 67.8749 23.2535 69.321C23.4537 69.0634 23.6663 68.812 23.9053 68.5778L29.0332 63.5584C30.3509 62.2706 32.0918 61.5599 33.9335 61.5599Z" fill="#00ABC8"/>
<path id="Vector_9" d="M35.7879 30.6865L25.6341 23.3257C24.8707 22.7719 23.8017 22.9408 23.2463 23.7073L0.326021 55.3167C-0.229448 56.0815 -0.0571819 57.1505 0.706178 57.7062L10.8584 65.067C11.6234 65.6224 12.6924 65.4518 13.2464 64.6852L36.1667 33.0759C36.7219 32.3112 36.5513 31.2419 35.7879 30.6865ZM29.0027 34.218C28.0795 35.4902 26.2966 35.7757 25.0228 34.8511C23.7474 33.9276 23.4633 32.145 24.3881 30.8712C25.3113 29.5973 27.0942 29.3119 28.3681 30.2365C29.6435 31.1613 29.9259 32.9426 29.0027 34.218Z" fill="#00ABC8"/>
</g>
</g>
</svg>
