<svg width="126" height="109" viewBox="0 0 126 109" fill="none" xmlns="http://www.w3.org/2000/svg">
<g id="Isolation_Mode" clip-path="url(#clip0_586_857)">
<path id="Vector" d="M113.021 41.8912H107.695C106.152 18.5316 86.6969 0 63 0C39.3031 0 19.8478 18.5316 18.3052 41.8912H12.9794C5.82237 41.8912 0 47.7247 0 54.8954V68.3461C0 75.5168 5.82237 81.3503 12.9794 81.3503H19.0309C21.7108 81.3503 23.8921 79.1649 23.8921 76.4799V44.8845C23.8921 23.2788 41.4356 5.70171 63 5.70171C84.5644 5.70171 102.108 23.2788 102.108 44.8845V74.9492C102.108 93.4532 85.7802 97.569 76.4377 98.4044C75.2686 95.7513 72.6205 93.8996 69.5417 93.8996H56.174C52.0109 93.8996 48.6372 97.2798 48.6372 101.451C48.6372 105.622 52.0109 109.002 56.174 109.002H69.5417C72.7648 109.002 75.5126 106.976 76.5905 104.125C84.7214 103.507 91.7193 101.189 97.0091 97.316C102.401 93.3681 105.849 87.9215 107.177 81.3503H113.023C120.18 81.3503 126.002 75.5168 126.002 68.3461V54.8954C126.002 47.7247 120.18 41.8912 113.023 41.8912H113.021Z" fill="#00ABC8"/>
<path id="Vector_2" d="M63 18.542C44.6947 18.542 29.8545 33.4107 29.8545 51.7509C29.8545 61.1687 33.7672 69.6703 40.0543 75.7143L36.3941 83.2166C35.5135 85.0215 37.247 86.9923 39.144 86.346L50.4429 82.4917C54.3152 84.0819 58.5547 84.9599 62.9979 84.9599C81.3031 84.9599 96.1434 70.0912 96.1434 51.7509C96.1434 33.4107 81.3031 18.542 62.9979 18.542H63ZM47.381 55.9071C45.0894 55.9071 43.2328 54.0469 43.2328 51.7509C43.2328 49.4549 45.0894 47.5948 47.381 47.5948C49.6726 47.5948 51.5292 49.4549 51.5292 51.7509C51.5292 54.0469 49.6726 55.9071 47.381 55.9071ZM63 55.9071C60.7084 55.9071 58.8518 54.0469 58.8518 51.7509C58.8518 49.4549 60.7084 47.5948 63 47.5948C65.2916 47.5948 67.1482 49.4549 67.1482 51.7509C67.1482 54.0469 65.2916 55.9071 63 55.9071ZM78.619 55.9071C76.3274 55.9071 74.4707 54.0469 74.4707 51.7509C74.4707 49.4549 76.3274 47.5948 78.619 47.5948C80.9106 47.5948 82.7672 49.4549 82.7672 51.7509C82.7672 54.0469 80.9106 55.9071 78.619 55.9071Z" fill="#00ABC8"/>
</g>
<defs>
<clipPath id="clip0_586_857">
<rect width="126" height="109" fill="white"/>
</clipPath>
</defs>
</svg>
