<svg width="1920" height="354" viewBox="0 0 1920 354" fill="none" xmlns="http://www.w3.org/2000/svg">
<g opacity="0.4">
<g opacity="0.4" clip-path="url(#clip0_586_830)">
<path d="M1920 319.011V360H0V235.953H9.95417V220.772H25.9561V235.51H42.3993V351.727H55.8057V320.507H72.6771V310.959H89.9769V319.206H96.9072V303.154H124.589V293.619H135.841V301.853H142.759V250.262H150.117V229.006L154.439 225.546L159.202 229.006V247.66H163.952V237.683H184.834V247.868H190.674V335.674H193.594V265.104H206.896V251.771H227.012V262.503H230.257V354.537H280.547V338.276H284.44V189.656H289.631V184.127H299.365V165.265H310.721V167.867H318.183V183.152H323.374V301.528H334.081V292.422H346.086V287.544H367.175V349.008H378.531V280.714H392.158V269.332H410.976V278.763H416.492V354.537H426.874V247.543H438.555V231.608H458.671V246.242H461.915V302.503H470.351V279.413H479.111V264.779L484.951 261.202L489.818 264.779V277.787H506.689V310.633H510.583V227.38H547.246V348.032H560.224V320.064H567.686V301.528H574.5V287.544H588.451V302.503H603.7V352.91H611.163V279.413H646.852V352.91H659.831V191.607H675.729V166.566H693.898V190.957H698.116V353.236H701.36V279.739H740.943V348.683H753.272V337.3H774.686V342.504H790.584V356.813H797.398V278.438L808.585 267.225H828.87V333.073H837.63V345.431H884.026V354.537H890.84V319.739H908.685V310.633H926.53V317.463H933.667V245.592H942.428V238.437H959.624V197.162H991.199V283.017H1003.31V267.407H1034.9V342.426H1043.11V259.602H1078.15V324.214H1090.26V171.574H1107.57V146H1125.3V171.145H1129.64V299.498H1133.96V251.797H1173.32V329.417H1183.27V319.869H1225.67V260.031H1265.91V318.568H1283.63V310.334H1303.97V318.139H1314.78V355.434H1323.01V300.799H1361.07V232.284H1383.14V218.847H1391.35V209.299H1403.03V230.983H1407.79V318.568H1419.9V309.033H1431.16V201.936H1465.77V206.268H1468.36V338.081H1500.81V282.145L1509.89 273.039H1536.71L1546.44 282.796V336.78H1552.28V241.39H1571.75V230.554H1589.92V239.66H1594.68V335.922H1601.6V267.836H1638.8V318.568H1648.76V243.562H1664.33V250.496H1682.5V318.139H1688.55V222.749H1710.61V209.741H1731.38V221.878H1735.71V332.878H1741.76V282.587H1780.27V298.197H1785.46V250.067H1822.22V348.93H1827.86V270.008H1870.24V322.471H1877.17V261.774H1891.88V250.067H1910.92V260.031H1916.11V319.011H1920Z" fill="#1D1D1B"/>
</g>
<g clip-path="url(#clip1_586_830)">
<path d="M-0.00012207 319.011V360H1920V235.953H1910.05V220.772H1894.04V235.51H1877.6V351.727H1864.19V320.507H1847.32V310.959H1830.02V319.206H1823.09V303.154H1795.41V293.619H1784.16V301.853H1777.24V250.262H1769.88V229.006L1765.56 225.546L1760.8 229.006V247.66H1756.05V237.683H1735.17V247.868H1729.33V335.674H1726.41V265.104H1713.1V251.771H1692.99V262.503H1689.74V354.537H1639.45V338.276H1635.56V189.656H1630.37V184.127H1620.64V165.265H1609.28V167.867H1601.82V183.152H1596.63V301.528H1585.92V292.422H1573.91V287.544H1552.82V349.008H1541.47V280.714H1527.84V269.332H1509.02V278.763H1503.51V354.537H1493.13V247.543H1481.45V231.608H1461.33V246.242H1458.08V302.503H1449.65V279.413H1440.89V264.779L1435.05 261.202L1430.18 264.779V277.787H1413.31V310.633H1409.42V227.38H1372.75V348.032H1359.78V320.064H1352.31V301.528H1345.5V287.544H1331.55V302.503H1316.3V352.91H1308.84V279.413H1273.15V352.91H1260.17V191.607H1244.27V166.566H1226.1V190.957H1221.88V353.236H1218.64V279.739H1179.06V348.683H1166.73V337.3H1145.31V342.504H1129.42V356.813H1122.6V278.438L1111.42 267.225H1091.13V333.073H1082.37V345.431H1035.97V354.537H1029.16V319.739H1011.32V310.633H993.47V317.463H986.333V245.592H977.572V238.437H960.376V197.162H928.801V283.017H916.692V267.407H885.104V342.426H876.889V259.602H841.848V324.214H829.739V171.574H812.427V146H794.698V171.145H790.364V299.498H786.042V251.797H746.68V329.417H736.725V319.869H694.326V260.031H654.094V318.568H636.366V310.334H616.03V318.139H605.219V355.434H596.991V300.799H558.926V232.284H536.863V218.847H528.648V209.299H516.968V230.983H512.205V318.568H500.097V309.033H488.844V201.936H454.232V206.268H451.636V338.081H419.191V282.145L410.107 273.039H383.294L373.561 282.796V336.78H367.72V241.39H348.253V230.554H330.084V239.66H325.321V335.922H318.404V267.836H281.196V318.568H271.241V243.562H255.668V250.496H237.498V318.139H231.451V222.749H209.388V209.741H188.623V221.878H184.288V332.878H178.241V282.587H139.735V298.197H134.544V250.067H97.7767V348.93H92.1442V270.008H49.7579V322.471H42.8275V261.774H28.1234V250.067H9.08459V260.031H3.89331V319.011H-0.00012207Z" fill="#1D1D1B"/>
</g>
</g>
<rect opacity="0.5" x="269.059" y="165.141" width="25.6174" height="142.888" rx="12.7024" transform="rotate(-180 269.059 165.141)" fill="url(#paint0_linear_586_830)"/>
<path fill-rule="evenodd" clip-rule="evenodd" d="M256.25 26.5227C251.534 26.5227 247.711 30.2821 247.711 34.9195C247.711 39.557 251.534 43.3164 256.25 43.3164C260.966 43.3164 264.789 39.557 264.789 34.9195C264.789 30.2821 260.966 26.5227 256.25 26.5227ZM256.25 22.2531C249.136 22.2531 243.369 27.9241 243.369 34.9195C243.369 41.915 249.136 47.5859 256.25 47.5859C263.364 47.5859 269.131 41.915 269.131 34.9195C269.131 27.9241 263.364 22.2531 256.25 22.2531Z" fill="#00ABC8"/>
<rect opacity="0.5" x="105.492" y="222.732" width="11.9847" height="66.8478" rx="5.94261" transform="rotate(-180 105.492 222.732)" fill="url(#paint1_linear_586_830)"/>
<path fill-rule="evenodd" clip-rule="evenodd" d="M99.5002 157.88C97.2939 157.88 95.5053 159.639 95.5053 161.809C95.5053 163.978 97.2939 165.737 99.5002 165.737C101.706 165.737 103.495 163.978 103.495 161.809C103.495 159.639 101.706 157.88 99.5002 157.88ZM99.5002 155.883C96.172 155.883 93.474 158.536 93.474 161.809C93.474 165.081 96.172 167.734 99.5002 167.734C102.828 167.734 105.526 165.081 105.526 161.809C105.526 158.536 102.828 155.883 99.5002 155.883Z" fill="#00ABC8"/>
<rect opacity="0.5" x="1717.03" y="212.863" width="35.0554" height="195.531" rx="17.3823" transform="rotate(-180 1717.03 212.863)" fill="url(#paint2_linear_586_830)"/>
<path fill-rule="evenodd" clip-rule="evenodd" d="M1699.5 23.1747C1693.05 23.1747 1687.82 28.3191 1687.82 34.6651C1687.82 41.0111 1693.05 46.1555 1699.5 46.1555C1705.95 46.1555 1711.19 41.0111 1711.19 34.6651C1711.19 28.3191 1705.95 23.1747 1699.5 23.1747ZM1699.5 17.3321C1689.77 17.3321 1681.87 25.0924 1681.87 34.6651C1681.87 44.2378 1689.77 51.998 1699.5 51.998C1709.24 51.998 1717.13 44.2378 1717.13 34.6651C1717.13 25.0924 1709.24 17.3321 1699.5 17.3321Z" fill="#00ABC8"/>
<rect opacity="0.5" x="1555.59" y="233.947" width="19.1756" height="106.957" rx="9.50825" transform="rotate(-180 1555.59 233.947)" fill="url(#paint3_linear_586_830)"/>
<path fill-rule="evenodd" clip-rule="evenodd" d="M1546 130.185C1542.47 130.185 1539.61 132.999 1539.61 136.47C1539.61 139.941 1542.47 142.755 1546 142.755C1549.53 142.755 1552.39 139.941 1552.39 136.47C1552.39 132.999 1549.53 130.185 1546 130.185ZM1546 126.989C1540.67 126.989 1536.36 131.234 1536.36 136.47C1536.36 141.706 1540.67 145.951 1546 145.951C1551.32 145.951 1555.64 141.706 1555.64 136.47C1555.64 131.234 1551.32 126.989 1546 126.989Z" fill="white"/>
<rect opacity="0.5" x="450.69" y="195.004" width="14.3816" height="80.2172" rx="7.13111" transform="rotate(-180 450.69 195.004)" fill="url(#paint4_linear_586_830)"/>
<path fill-rule="evenodd" clip-rule="evenodd" d="M443.5 117.183C440.852 117.183 438.706 119.293 438.706 121.897C438.706 124.5 440.852 126.611 443.5 126.611C446.148 126.611 448.294 124.5 448.294 121.897C448.294 119.293 446.148 117.183 443.5 117.183ZM443.5 114.786C439.506 114.786 436.269 117.97 436.269 121.897C436.269 125.824 439.506 129.008 443.5 129.008C447.494 129.008 450.731 125.824 450.731 121.897C450.731 117.97 447.494 114.786 443.5 114.786Z" fill="white"/>
<defs>
<linearGradient id="paint0_linear_586_830" x1="281.867" y1="165.141" x2="281.867" y2="308.029" gradientUnits="userSpaceOnUse">
<stop stop-color="#213847" stop-opacity="0"/>
<stop offset="1" stop-color="#00ABC8"/>
</linearGradient>
<linearGradient id="paint1_linear_586_830" x1="111.485" y1="222.732" x2="111.485" y2="289.58" gradientUnits="userSpaceOnUse">
<stop stop-color="#213847" stop-opacity="0"/>
<stop offset="1" stop-color="#00ABC8"/>
</linearGradient>
<linearGradient id="paint2_linear_586_830" x1="1734.56" y1="212.863" x2="1734.56" y2="408.394" gradientUnits="userSpaceOnUse">
<stop stop-color="#213847" stop-opacity="0"/>
<stop offset="1" stop-color="#00ABC8"/>
</linearGradient>
<linearGradient id="paint3_linear_586_830" x1="1565.18" y1="233.947" x2="1565.18" y2="340.905" gradientUnits="userSpaceOnUse">
<stop stop-color="#213847" stop-opacity="0"/>
<stop offset="1" stop-color="white"/>
</linearGradient>
<linearGradient id="paint4_linear_586_830" x1="457.881" y1="195.004" x2="457.881" y2="275.221" gradientUnits="userSpaceOnUse">
<stop stop-color="#213847" stop-opacity="0"/>
<stop offset="1" stop-color="white"/>
</linearGradient>
<clipPath id="clip0_586_830">
<rect width="1920" height="210.433" fill="white" transform="translate(0 143.566)"/>
</clipPath>
<clipPath id="clip1_586_830">
<rect width="1920" height="210.433" fill="white" transform="matrix(-1 0 0 1 1920 143.566)"/>
</clipPath>
</defs>
</svg>
