<?xml version="1.0" encoding="UTF-8"?>
<svg id="fbb_front" xmlns="http://www.w3.org/2000/svg" viewBox="0 0 825 524">
  <defs>
    <style>
      .cls-1 {
        font-family: HelveticaNeue-ThinCond, 'Helvetica Neue';
        font-size: 13.76px;
        font-weight: 200;
      }

      .cls-1, .cls-2 {
        fill: #a4337d;
      }

      .cls-2, .cls-3, .cls-4, .cls-5 {
        fill-rule: evenodd;
      }

      .cls-3 {
        fill: #74295d;
      }

      .cls-4 {
        fill: #a5327e;
      }

      .cls-5 {
        fill: #702a59;
      }
    </style>
  </defs>
  <path class="cls-3" d="m335.95,261.4c0,83.28.06,91.79.91,91.79.45,0,2.61-.68,4.65-1.53,9.36-3.69,16.45-10.21,20.76-19,4.54-9.13,4.31-4.59,4.31-88.55v-74.43h-30.63v91.73Z"/>
  <path class="cls-4" d="m210.69,171.09c-6.58,1.76-11.63,4.71-17.19,10.21-3.97,3.91-5.33,5.73-7.2,9.64-4.71,9.59-4.31,2.38-4.54,87.48l-.17,75.9h109.54v-119.81l-2.1,1.25c-9.59,5.73-25.24,13.61-26.95,13.61-.4,0-1.53-1.99-2.55-4.42-1.02-2.38-4.65-11.01-8.11-19.12-3.4-8.11-6.24-14.92-6.24-15.15s.68-.57,1.59-.74c3.35-.74,10.27-3.35,15.03-5.73,11.63-5.79,19.12-12.65,24.39-22.41,1.76-3.18,4.37-10.04,4.37-11.4,0-.23-17.02-.45-37.84-.4-35.51,0-38.18.06-42.04,1.08Z"/>
  <path class="cls-5" d="m389.64,177.38c-.79,1.08-.37,4.55-.37,25.31v24h7.37v-22.69h22.69v-5.67h-22.69v-15.88h13.27c14.98,0,15.09-.06,15.09-4.03v-2.21h-16.96c-16.96,0-17.56-.06-18.41,1.18Z"/>
  <path class="cls-5" d="m430.51,182.33c-1.3,1.42-1.19,3.86.17,5.22,2.33,2.33,6.24.74,6.24-2.5,0-1.08-.45-2.27-1.02-2.78-1.42-1.25-4.25-1.19-5.39.06Z"/>
  <path class="cls-5" d="m506.69,184.53c-.17.51,0,2.62,0,4.77v3.91h-3.6c-3.29,0-3.21.4-3.21,3.46q0,1.65,3.4,1.65h3.4v11.06c0,11.91.28,13.61,2.95,16.05,3.06,2.78,9.47,2.33,13.05-.91l2.27-2.04-1.87-1.59c-2.1-1.76-3.12-1.93-4.71-.74-.62.45-1.82.85-2.61.85-2.44,0-2.84-1.76-2.84-12.76v-9.93h9.08v-5.11h-9.08v-9.64h-2.78c-1.99,0-3.24.27-3.46.96Z"/>
  <path class="cls-5" d="m455.2,193.22c1.71-.55,4.35-.81,7.64-.02,2.95.68,6.19,2.99,6.19,4.18,0,.45-.29,1.22-.91,2.13-1.25,1.76-2.28,1.94-4.38.07-2.72-2.44-7.46-2.07-10.47,1.05l-1.88,1.71-.17,12.2-.17,12.14h-6.47l-.23-16.39c-.17-16.05-.42-16.24.71-16.86.68-.34,2.46-.78,3.71-.78,1.93,0,2.33.17,2.33,1.13,0,1.2-.11,1.68,1.39.66.61-.42,2.71-1.22,2.71-1.22Z"/>
  <path class="cls-5" d="m479.24,192.88c-1.25.45-2.89,1.3-3.69,1.93-3.52,2.5-4.54,8.51-2.16,12.08,1.53,2.33,3.69,3.46,10.21,5.33,5.5,1.65,7.2,2.89,7.2,5.33,0,2.16-2.44,4.59-4.77,4.65-4.71.23-7.77-.57-9.36-2.55-1.13-1.36-3.06-1.08-4.82.74l-1.59,1.65,1.36,1.25c.74.68,2.67,1.93,4.25,2.67,7.09,3.29,15.94,1.87,19.74-3.12,1.7-2.33,1.87-8,.34-10.55-1.42-2.27-5.39-4.37-10.49-5.5-4.77-1.02-6.81-2.55-7.03-5.22-.17-1.82.06-2.21,1.7-3.23,2.84-1.7,6.47-1.53,9.7.57,1.47.91,2.89,1.7,3.12,1.7.57,0,3.52-2.78,3.52-3.35,0-.68-2.38-2.67-4.54-3.8-2.67-1.36-9.76-1.65-12.71-.57Z"/>
  <path class="cls-5" d="m430.91,193.71c-1.3.91-.79.75-.79,16.86v16.11h6.81l-.11-16.91-.17-16.85-1.99-.17c-1.13-.06-3.07.44-3.75.95Z"/>
  <path class="cls-5" d="m501.65,242.34c-.68.85-1.19,1.82-1.19,2.21s.51,1.36,1.19,2.21c2.21,2.84,6.75,1.36,6.75-2.21s-4.54-5.05-6.75-2.21Z"/>
  <path class="cls-5" d="m475.33,253.01c-4.99,1.87-7.66,5.84-7.03,10.55.57,4.37,3.06,6.35,10.61,8.45,6.13,1.7,7.6,2.78,7.83,5.5.23,2.78-.96,4.03-4.42,4.82-2.84.62-5.79-.06-8.74-2.04-2.61-1.76-3.23-1.76-5.45.06l-1.76,1.53,1.25,1.36c4.99,5.28,17.13,6.13,22.58,1.59,2.27-1.93,3.69-5.84,3.29-8.91-.62-4.54-3.57-6.86-11.52-8.96-5.5-1.42-7.6-2.84-7.6-4.99.06-5.33,7.32-6.24,13.73-1.7.79.57,1.25.51,2.55-.45,2.61-1.93,2.16-3.63-1.53-5.56-3.69-1.99-10.21-2.61-13.78-1.25Z"/>
  <path class="cls-5" d="m525.35,253.75c-3.29,1.65-3.33,2.1-3.33.45,0-1.08-4.9-.7-5.92.32-.51.51-.32,4.5-.32,16.24v16.05h6.13l.23-10.95c.17-9.3.34-11.18,1.25-12.88,1.99-3.69,4.25-5.11,8.06-5.11,2.1,0,3.35.34,4.42,1.19,2.95,2.33,3.18,3.46,3.18,16.11v11.63h6.81v-11.69c0-13.78-.4-15.88-3.63-19.23-2.72-2.84-5.16-3.69-10.61-3.69-2.84,0-4.1.46-6.25,1.53Z"/>
  <path class="cls-5" d="m562.12,253.01c-3.74,1.36-6.81,4.2-8.79,8-1.19,2.33-1.53,3.8-1.7,8.34-.23,4.88-.11,5.79,1.13,8.51,2.89,6.3,7.37,9.47,14.01,9.93,4.71.34,9.3-1.25,12.25-4.2,2.27-2.27,2.27-2.72.11-4.37-1.65-1.19-2.61-.96-5.62,1.42-1.82,1.47-6.3,2.04-9.08,1.13-2.72-.91-5.45-3.91-6.41-7.09l-.79-2.61h11.74c8.45,0,11.97-.17,12.48-.68.4-.4.68-2.27.68-4.42-.06-5.96-2.72-10.66-7.66-13.16-2.89-1.53-9.36-1.93-12.37-.79Zm9.87,5.56c2.21,1.25,4.48,4.88,4.48,7.26,0,1.08-.34,1.13-9.36,1.13h-9.36v-1.3c0-2.1,2.89-5.96,5.39-7.2,2.95-1.47,6.13-1.42,8.85.11Z"/>
  <path class="cls-5" d="m595.14,253.12c-5.79,1.76-8.68,7.83-6.24,12.88,1.47,3.01,3.8,4.42,9.98,6.07,6.86,1.82,8.96,3.69,7.72,6.92-1.47,3.97-7.54,4.77-12.54,1.7-1.59-1.02-3.18-1.82-3.52-1.82s-1.47.68-2.55,1.47l-1.93,1.47,1.25,1.36c4.71,5.05,15.77,6.24,21.5,2.38,3.01-2.1,4.14-4.03,4.42-7.66.4-5.79-2.55-8.57-11.69-10.95-7.09-1.87-9.08-4.37-6.18-7.66,2.27-2.67,8.96-2.5,11.46.28,1.36,1.47,2.67,1.42,4.14-.17,1.7-1.82,1.59-2.95-.51-4.42-3.8-2.67-10.15-3.46-15.32-1.87Z"/>
  <path class="cls-5" d="m625.71,253.01c-5.16,1.87-7.26,4.59-7.26,9.36,0,2.44.28,3.46,1.47,4.99,1.76,2.33,3.46,3.23,9.08,4.71,5.11,1.36,6.81,2.33,7.72,4.25.79,1.82-.23,4.37-2.21,5.45-3.01,1.59-9.42.51-11.46-1.99-1.13-1.36-3.06-1.08-4.77.68-1.65,1.7-1.53,2.1,1.3,4.2,4.08,3.06,10.89,4.08,16.22,2.44,5.16-1.59,7.6-4.88,7.6-10.15,0-3.23-.11-3.46-2.44-5.73-1.93-1.82-3.4-2.61-6.98-3.63-6.41-1.82-8.51-2.84-9.25-4.37-2.27-4.99,6.07-7.83,11.86-3.97,1.25.79,2.44,1.47,2.67,1.47.28,0,1.19-.68,2.04-1.47,1.47-1.36,1.53-1.59.79-2.67-.45-.68-2.04-1.87-3.57-2.67-3.29-1.7-9.53-2.16-12.82-.91Z"/>
  <path class="cls-5" d="m431.24,253.68c-.91.51-.55,1.43-.55,12.04,0,6.52.28,12.71.62,13.9.85,3.06,4.03,6.35,7.15,7.43,4.82,1.65,11.88,1.01,14.37-1.32,1.24-1.12,1.34-1.38,1.59.41.28.96.65.68,3.26.68h3.06v-34.21l-2.89.28c-1.59.17-3.53.73-3.82,1.13-.28.45-.1,5.34-.1,10.96,0,9.53-.11,10.38-1.3,12.48-2.44,4.37-7.6,6.13-11.69,3.97-3.23-1.65-3.74-3.86-3.91-16.91l-.17-11.74h-2.1c-1.13,0-3.02.55-3.53.9Z"/>
  <path class="cls-5" d="m501.99,253.99c-.51.51-.4,4.52-.4,16.49v16.34h6.24v-34.04h-2.44c-1.36,0-3,.81-3.4,1.21Z"/>
  <path class="cls-2" d="m503.75,296.52c-.96.51-1.02,2.33-1.02,25.47v24.96h6.18l.17-7.77.17-7.77,6.18,7.15c3.35,3.91,6.75,7.43,7.54,7.77.74.34,3.01.62,5.11.62h3.69l-5.84-6.3c-3.23-3.46-7.09-7.6-8.57-9.19l-2.67-2.95,7.66-7.37c4.2-4.08,7.66-7.49,7.6-7.66,0-.28-1.3-.34-6.47-.06-1.3.06-3.06,1.42-8.11,6.41l-6.41,6.35v-30.29h-2.1c-1.19,0-2.61.28-3.12.62Z"/>
  <path class="cls-2" d="m438.96,313.25c-2.95.91-7.15,3.35-7.15,4.08,0,.85,2.61,2.95,3.57,2.95.51,0,1.99-.57,3.29-1.25,4.59-2.38,10.84-1.7,13.16,1.36.62.85,1.13,2.44,1.19,3.69l.06,2.16-4.82.17c-8.74.28-15.66,2.78-17.59,6.3-1.02,1.93-1.3,6.01-.57,8.23.91,2.89,4.59,5.84,8.28,6.64,3.97.91,10.1-.11,13.05-2.1,1.13-.79,2.1-1.36,2.16-1.25.85,1.99,1.53,2.44,3.8,2.61l2.5.17-.28-12.65c-.28-12.2-.34-12.82-1.76-15.49-2.16-4.25-5.33-6.01-11.4-6.3-3.23-.17-5.56.06-7.49.68Zm14.41,19.34c0,6.64-5.22,11.06-11.8,10.1-7.15-1.08-6.92-9.02.28-10.95,1.19-.28,4.25-.57,6.86-.62l4.65-.06v1.53Z"/>
  <path class="cls-2" d="m477.03,313.14c-1.19.45-2.67,1.25-3.29,1.82-1.02.91-1.08.91-1.08-.23s-.34-1.25-2.44-1.25c-1.36,0-3.25.43-3.64.83-.51.51-.16,4.84-.16,16.58v16.05h6.24v-9.7c0-5.33.28-10.78.62-12.2,2.16-8.45,12.88-9.93,15.83-2.21.4,1.08.62,5.79.62,12.88l-.06,11.23h6.81v-11.06c0-6.01-.28-12.31-.62-13.9-.91-4.14-3.57-7.43-7.03-8.62-3.4-1.19-8.85-1.25-11.8-.23Z"/>
  <text class="cls-1" transform="translate(534.13 347.58)"><tspan x="0" y="0">® </tspan></text>
  <path class="cls-2" d="m388.95,298.91c0-1.58,1.8-1.8,1.8-1.8h19.92c2.92,0,11.84,3.27,11.84,12.71,0,8.33-7.02,10.94-8.68,11.43-.05.01-.04.08.01.08,1.92-.03,10.95.43,10.95,12.15,0,13.11-14.1,14.1-14.1,14.1h-18.88c-3.04,0-2.83-2.83-2.83-2.83v-42.73l-.04-3.11Zm7.38,3.72v15.78h12.05c.57,0,1.12-.11,1.65-.32,1.82-.74,5.79-2.86,5.79-7.25,0-5.69-4.13-8.22-6.99-8.22h-12.5Zm0,21.74v17.39h13.28c.62,0,1.24-.12,1.82-.35,2.01-.82,6.38-3.15,6.38-7.99,0-6.27-4.55-9.05-7.71-9.05h-13.77Z"/>
  <path class="cls-5" d="m388.45,238.89c0-1.58,1.8-1.8,1.8-1.8h19.92c2.92,0,11.84,3.27,11.84,12.71s-9.02,11.31-9.02,11.31c0,0,11.31-.76,11.31,12.35s-14.1,14.1-14.1,14.1h-18.88c-3.04,0-2.83-2.83-2.83-2.83v-42.73l-.04-3.11Zm7.38,3.72v15.78h12.05c.57,0,1.12-.11,1.65-.32,1.82-.74,5.79-2.86,5.79-7.25,0-5.69-4.13-8.22-6.99-8.22h-12.5Zm0,21.74v17.39h13.28c.62,0,1.24-.12,1.82-.35,2.01-.82,6.38-3.15,6.38-7.99,0-6.27-4.55-9.05-7.71-9.05h-13.77Z"/>
</svg>