<svg xmlns="http://www.w3.org/2000/svg" viewBox="0 0 27.35 22.14"><defs><style>.cls-1{fill:#1e4ca1;}</style></defs><g id="Layer_2" data-name="Layer 2"><g id="Integrate"><path class="cls-1" d="M16,11.73c-.13.35-.25.7-.39,1a7.83,7.83,0,0,1-3.12,3.61,10.61,10.61,0,0,1-3.42,1.34,11.86,11.86,0,0,1-2.3.21H0V0H.12C2.56,0,5,0,7.44,0a10.51,10.51,0,0,1,3.18.54,9,9,0,0,1,3.07,1.59.15.15,0,0,0,.18,0A20.68,20.68,0,0,1,19.21.33a15.55,15.55,0,0,1,3-.33A7.23,7.23,0,0,1,25,.48a3.48,3.48,0,0,1,1.85,1.57A4,4,0,0,1,27.23,5c0,.1-.07.2-.11.3a1,1,0,0,1-.9.64,1.85,1.85,0,0,1-.81-.11,1.55,1.55,0,0,1-.22-.12A.5.5,0,0,1,25,5a2,2,0,0,1,.55-.56.4.4,0,0,0,.09-.67,2.23,2.23,0,0,0-.93-.67,6.53,6.53,0,0,0-2.12-.52,13.83,13.83,0,0,0-4.92.54c-.76.21-1.51.48-2.26.72l-.17.07c.16.3.32.59.46.89A7.78,7.78,0,0,1,16.34,7a11.77,11.77,0,0,1,.09,2c0,.24,0,.49-.05.73,0,.09,0,.12.09.13a17.34,17.34,0,0,1,2.45.65,6.39,6.39,0,0,1,1.68.87,1.84,1.84,0,0,1,.77,1.2,3.58,3.58,0,0,1-.24,1.86,6.72,6.72,0,0,1-1.42,2.14,15.35,15.35,0,0,1-3.31,2.58,27.37,27.37,0,0,1-5,2.36,12.39,12.39,0,0,1-2.25.58,4.35,4.35,0,0,1-1.76,0A1.43,1.43,0,0,1,7,21.87a.41.41,0,0,1-.15-.56,2.08,2.08,0,0,1,.37-.46A4.86,4.86,0,0,1,8.79,20,43.26,43.26,0,0,0,13,18.26a24.23,24.23,0,0,0,3.58-2.09A7.48,7.48,0,0,0,18,14.82a2.86,2.86,0,0,0,.4-.64A1.21,1.21,0,0,0,18,12.65,3.46,3.46,0,0,0,17,12.06l-.88-.31ZM4,3.51V13.92H7a6.1,6.1,0,0,0,2-.35,4.55,4.55,0,0,0,2.56-2.12c.13-.25.23-.51.35-.78l-.16,0a20.18,20.18,0,0,1-2.44-.73A4.42,4.42,0,0,1,8,9.18,1.42,1.42,0,0,1,7.6,7.46a4.31,4.31,0,0,1,.61-1A13.69,13.69,0,0,1,10,4.68l.29-.25-.06,0a4.92,4.92,0,0,0-2.7-.87c-1.14,0-2.29,0-3.44,0ZM12.2,9.28a6.19,6.19,0,0,0-.69-3.53c-.25.2-.49.38-.72.58a3.81,3.81,0,0,0-.92,1.12,1,1,0,0,0,.43,1.41A4.55,4.55,0,0,0,12.2,9.28Z"/></g></g></svg>