<svg xmlns="http://www.w3.org/2000/svg" viewBox="0 0 38.88 22.39"><defs><style>.cls-1{fill:#4d823c;}.cls-2{fill:#4d4c47;}</style></defs><g id="Layer_2" data-name="Layer 2"><g id="Integrate"><path class="cls-1" d="M28.86.05a11,11,0,0,1,6.3,2.62,11.1,11.1,0,0,1,3.67,9.82,10.36,10.36,0,0,1-3.28,6.93,10.5,10.5,0,0,1-5.92,2.82,11.83,11.83,0,0,1-7.37-1.19,10.92,10.92,0,0,1-3.54-3.12l1.75-1.68a7.23,7.23,0,0,0,3,2.93,10.47,10.47,0,0,0,3.21,1.07,8.19,8.19,0,0,0,7.14-2.38,8.92,8.92,0,0,0,2.56-6.13,9.77,9.77,0,0,0-.79-4.56,8.24,8.24,0,0,0-5.86-4.86A8.59,8.59,0,0,0,23.89,3a8.35,8.35,0,0,0-4.54,6.11,8.78,8.78,0,0,0,0,4.11,1,1,0,0,1-.19.71,13.75,13.75,0,0,1-1,1.28,5.31,5.31,0,0,1-.56.49l-.24,0c-.2-1.17-.42-2.34-.59-3.52a10.51,10.51,0,0,1,.39-4.28A10.19,10.19,0,0,1,22,1.54,11.73,11.73,0,0,1,28.86.05Z"/><path class="cls-2" d="M2.43,18c-.6-.08-1.18-.1-1.75-.22s-.83-.4-.63-.88c.11-.25.54-.35.83-.51,0,0,.08,0,.13,0,1.15,0,1.15,0,1.42-1.13a12.46,12.46,0,0,1,1.95-4.27A11.05,11.05,0,0,1,8.73,7a4.06,4.06,0,0,1,3-.31A2.3,2.3,0,0,1,13.27,9.4a6.7,6.7,0,0,1-1.74,3.48,16,16,0,0,1-6,4,2,2,0,0,0-.29.15L5,17.19a3.83,3.83,0,0,0,3.18,3.27,8.15,8.15,0,0,0,3.14-.25,13.49,13.49,0,0,0,5.26-3,36,36,0,0,0,5.59-6.48,1.28,1.28,0,0,1,.58-.46.72.72,0,0,1,.67.16.87.87,0,0,1,0,.77,21.19,21.19,0,0,1-1.79,2.68A43.93,43.93,0,0,1,17.93,18a15.77,15.77,0,0,1-7,4.1A6.87,6.87,0,0,1,2.43,18Zm2.91-2.91a2.34,2.34,0,0,0,.36-.11,15.17,15.17,0,0,0,4-3.13,6.36,6.36,0,0,0,1.64-2.9c.13-.6-.21-.94-.77-.73a3.8,3.8,0,0,0-.91.49,13.58,13.58,0,0,0-4,5.35A8.28,8.28,0,0,0,5.34,15.05Z"/></g></g></svg>