<svg width="56" height="56" viewBox="0 0 56 56" fill="none" xmlns="http://www.w3.org/2000/svg">
<path d="M34.552 15.8405L32.76 17.6325" stroke="#0D2332" stroke-width="1.5" stroke-linecap="round" stroke-linejoin="round"/>
<path d="M28.0448 13.0667V15.6016" stroke="#0D2332" stroke-width="1.5" stroke-linecap="round" stroke-linejoin="round"/>
<path d="M21.5376 15.8405L23.3259 17.6325" stroke="#0D2332" stroke-width="1.5" stroke-linecap="round" stroke-linejoin="round"/>
<path d="M34.552 15.8405L32.76 17.6325" stroke="#0D2332" stroke-width="1.5" stroke-linecap="round" stroke-linejoin="round"/>
<path d="M28.0448 13.0667V15.6016" stroke="#0D2332" stroke-width="1.5" stroke-linecap="round" stroke-linejoin="round"/>
<path d="M21.5376 15.8405L23.3259 17.6325" stroke="#0D2332" stroke-width="1.5" stroke-linecap="round" stroke-linejoin="round"/>
<path d="M21.6571 25.297H19.4992C18.7861 25.297 18.1179 24.9461 17.7333 24.3488C16.4341 22.3328 13.9403 21.2912 11.4987 21.9445C9.42667 22.5008 7.94454 24.136 7.46667 26.0848L7.61974 26.656L11.6181 25.5845C12.1819 25.4314 12.7979 25.633 13.1339 26.1109C13.6043 26.7904 13.8357 27.6565 13.7685 28.4816C13.72 29.064 13.2869 29.5456 12.7232 29.6949L8.72481 30.7664L8.87787 31.3376C10.2629 32.7861 12.3685 33.4618 14.4405 32.9056C15.8704 32.521 17.024 31.625 17.7557 30.464C18.1291 29.8741 18.8123 29.5493 19.5104 29.5493H20.2421" stroke="#0D2332" stroke-width="1.5" stroke-linecap="round" stroke-linejoin="round"/>
<path d="M21.6571 38.0725V35.8213C21.6571 35.4443 21.5078 35.0821 21.2427 34.8171C20.5819 34.16 19.824 33.6187 19.0848 33.04C18.4278 32.5285 18.159 31.7221 18.3307 30.9157C18.5286 29.9899 19.335 29.5381 20.2384 29.5568C21.0224 29.5717 21.6571 28.9221 21.6571 28.1381V24.0165C21.6571 22.8032 22.6502 21.7093 23.8635 21.7541C24.3638 21.7728 24.8155 21.9707 25.1702 22.2768C25.5099 21.5488 26.2416 21.0411 27.0966 21.0411C27.9515 21.0411 28.6832 21.5488 29.023 22.2768C29.3963 21.9557 29.8779 21.7504 30.408 21.7504C31.472 21.7504 32.3456 22.5344 32.5024 23.5536C32.9392 23.2475 33.4955 23.0981 34.0891 23.2027C35.127 23.3819 35.8475 24.3451 35.8475 25.3979V32.9541C35.8475 33.5141 35.6832 34.0629 35.3696 34.5296L34.664 35.5861C34.5072 35.8176 34.4251 36.0939 34.4251 36.3739V38.0725" stroke="#0D2332" stroke-width="1.5" stroke-linecap="round" stroke-linejoin="round"/>
<path d="M35.8512 25.2971H36.5829C37.2811 25.2971 37.9643 24.9723 38.3376 24.3824C39.0731 23.2251 40.2229 22.3253 41.6528 21.9408C43.7248 21.3845 45.8267 22.0603 47.2155 23.5088L47.3685 24.08L43.3701 25.1515C42.8064 25.3045 42.3696 25.7824 42.3248 26.3648C42.2576 27.1899 42.4891 28.056 42.9595 28.7355C43.2917 29.2171 43.9077 29.4149 44.4752 29.2619L48.4736 28.1904L48.6267 28.7616C48.1488 30.7067 46.6667 32.3456 44.5947 32.9019C42.3397 33.5067 40.0549 32.6517 38.6923 30.9344L37.6955 29.5493L35.8512 29.6128" stroke="#0D2332" stroke-width="1.5" stroke-linecap="round" stroke-linejoin="round"/>
<path d="M20.2011 42.9333H35.8475V38.0725H20.2011V42.9333Z" stroke="#00AECB" stroke-width="1.5" stroke-linecap="round" stroke-linejoin="round"/>
</svg>
