<svg width="38" height="28" viewBox="0 0 38 28" fill="none" xmlns="http://www.w3.org/2000/svg">
<path d="M15.9027 6.32982L10.2734 4.7334" stroke="#0D2332" stroke-width="1.5" stroke-linecap="round" stroke-linejoin="round"/>
<path d="M29.8813 15.0757L32.5214 13.0393" stroke="#0D2332" stroke-width="1.5" stroke-linecap="round" stroke-linejoin="round"/>
<path d="M27.7179 4.71513L25.3651 5.43879C25.3651 5.43879 24.3178 5.72243 23.1068 5.11514C21.8959 4.50785 20.9286 3.88964 18.3103 5.14787L14.6811 6.92975C14.3756 7.07884 14.1029 7.28976 13.9029 7.56613C13.6083 7.97705 13.3865 8.62435 13.8738 9.46801C14.7611 10.999 17.2194 10.4753 18.3067 10.0717C19.394 9.66802 20.9286 8.25706 22.8632 9.62802C24.7978 10.999 25.9687 11.039 27.8633 10.2317" stroke="#0D2332" stroke-width="1.5" stroke-linecap="round" stroke-linejoin="round"/>
<path d="M21.2993 21.4104L22.4121 22.2795C23.1576 22.8614 23.2885 23.9378 22.7067 24.6832C22.1248 25.4287 21.0484 25.5596 20.3029 24.9778L18.4265 23.5087" stroke="#0D2332" stroke-width="1.5" stroke-linecap="round" stroke-linejoin="round"/>
<path d="M23.9464 19.134L25.6047 20.4323C26.3502 21.0141 26.4811 22.0905 25.8992 22.836C25.3174 23.5815 24.241 23.7124 23.4955 23.1305L21.2991 21.4105" stroke="#0D2332" stroke-width="1.5" stroke-linecap="round" stroke-linejoin="round"/>
<path d="M26.2194 16.5593L27.8776 17.8576C28.6231 18.4394 28.754 19.5158 28.1722 20.2613C27.5904 21.0067 26.514 21.1377 25.7685 20.5558L23.5066 18.7849" stroke="#0D2332" stroke-width="1.5" stroke-linecap="round" stroke-linejoin="round"/>
<path d="M23.2886 9.91528L29.9906 15.1591C30.7361 15.7409 30.867 16.8173 30.2852 17.5628C29.7033 18.3083 28.6269 18.4392 27.8815 17.8574L25.9068 16.3119" stroke="#0D2332" stroke-width="1.5" stroke-linecap="round" stroke-linejoin="round"/>
<path d="M8.13157 15.1882L5.49512 13.0063" stroke="#0D2332" stroke-width="1.5" stroke-linecap="round" stroke-linejoin="round"/>
<path d="M10.2283 17.9402C9.49705 18.5528 9.40097 19.6423 10.0137 20.3735C10.6264 21.1047 11.7158 21.2008 12.447 20.5881L15.8532 17.7341C16.5844 17.1214 16.6805 16.0319 16.0678 15.3007C15.4551 14.5695 14.3656 14.4734 13.6344 15.0861L10.2283 17.9402Z" stroke="#0D2332" stroke-width="1.5" stroke-linecap="round" stroke-linejoin="round"/>
<path d="M14.6631 23.2312C13.9319 23.8439 13.8358 24.9333 14.4485 25.6645C15.0612 26.3958 16.1506 26.4918 16.8818 25.8791L17.8017 25.1084C18.5329 24.4957 18.629 23.4063 18.0163 22.675C17.4036 21.9438 16.3141 21.8477 15.5829 22.4604L14.6631 23.2312Z" stroke="#0D2332" stroke-width="1.5" stroke-linecap="round" stroke-linejoin="round"/>
<path d="M12.4468 20.5854C11.7156 21.1981 11.6195 22.2876 12.2322 23.0188C12.8449 23.75 13.9343 23.8461 14.6655 23.2334L16.848 21.4047C17.5792 20.792 17.6753 19.7025 17.0626 18.9713C16.4499 18.2401 15.3605 18.144 14.6293 18.7567L12.4468 20.5854Z" stroke="#0D2332" stroke-width="1.5" stroke-linecap="round" stroke-linejoin="round"/>
<path d="M8.00854 15.2917C7.27732 15.9044 7.18124 16.9939 7.79394 17.7251C8.40663 18.4563 9.49609 18.5524 10.2273 17.9397L12.4098 16.111C13.141 15.4983 13.2371 14.4088 12.6244 13.6776C12.0117 12.9464 10.9222 12.8503 10.191 13.463L8.00854 15.2917Z" stroke="#0D2332" stroke-width="1.5" stroke-linecap="round" stroke-linejoin="round"/>
<path d="M7.65113 1.00041L1 12.5205L4.58074 14.5879L11.2319 3.06775L7.65113 1.00041Z" stroke="#00AECB" stroke-width="1.5" stroke-linecap="round" stroke-linejoin="round"/>
<path d="M26.7681 3.0673L33.4192 14.5874L36.9999 12.5201L30.3488 0.99996L26.7681 3.0673Z" stroke="#00AECB" stroke-width="1.5" stroke-linecap="round" stroke-linejoin="round"/>
</svg>
