<svg width="56" height="56" viewBox="0 0 56 56" fill="none" xmlns="http://www.w3.org/2000/svg">
<path d="M15.8144 29.2469H11.2V44.8075H15.8144V29.2469Z" stroke="#0D2332" stroke-width="1.5" stroke-linecap="round" stroke-linejoin="round"/>
<path d="M15.8144 34.1787C16.4901 33.7792 17.304 33.3088 18.0432 33.0512C20.104 32.3307 22.6128 32.3307 24.2181 34.0107C24.4085 34.2085 24.5803 34.3915 24.8155 34.5408C25.4277 34.9403 26.1595 35.1045 26.88 35.1381C28.4592 35.2091 32.3867 33.824 34.1675 38.0165" stroke="#0D2332" stroke-width="1.5" stroke-linecap="round" stroke-linejoin="round"/>
<path d="M15.8144 40.5664C15.8144 40.5664 23.6133 43.0155 28.4107 43.8032C28.9184 43.8854 29.4299 43.8704 29.9339 43.7622C31.9835 43.3216 37.8037 41.9552 41.9141 39.816C42.9557 39.2747 43.3328 37.9046 42.6272 36.9638C42.3397 36.583 41.9141 36.3515 41.2795 36.5083C37.9531 37.3334 35.2016 38.0315 30.0384 39.1739C29.4411 39.3046 28.8213 39.3046 28.2277 39.1664L22.6613 37.8822" stroke="#0D2332" stroke-width="1.5" stroke-linecap="round" stroke-linejoin="round"/>
<path d="M34.4885 31.3824C40.0618 31.3824 44.5797 26.8644 44.5797 21.2912C44.5797 15.718 40.0618 11.2 34.4885 11.2C28.9153 11.2 24.3973 15.718 24.3973 21.2912C24.3973 26.8644 28.9153 31.3824 34.4885 31.3824Z" stroke="#00ACC8" stroke-width="1.5" stroke-linecap="round" stroke-linejoin="round"/>
<path d="M36.7621 18.1888C36.568 17.6587 35.9968 16.6544 34.4923 16.6544C33.9285 16.6544 33.3648 16.8075 32.928 17.1696C32.4949 17.528 32.2261 17.9984 32.1925 18.5622C32.0955 20.1974 33.6224 20.7723 34.8656 21.28C35.8885 21.6982 36.8293 22.4896 36.7584 23.6955C36.7248 24.2592 36.456 24.7296 36.0229 25.088C35.5824 25.4502 35.0224 25.6032 34.4587 25.6032C32.9504 25.6032 32.3829 24.599 32.1888 24.0688" stroke="#00ACC8" stroke-width="1.5" stroke-linecap="round" stroke-linejoin="round"/>
<path d="M34.4773 15.4859V16.6544" stroke="#00ACC8" stroke-width="1.5" stroke-linecap="round" stroke-linejoin="round"/>
<path d="M34.4773 25.6032V26.7717" stroke="#00ACC8" stroke-width="1.5" stroke-linecap="round" stroke-linejoin="round"/>
</svg>
