<svg width="56" height="56" viewBox="0 0 56 56" fill="none" xmlns="http://www.w3.org/2000/svg">
<path d="M24.9125 20.3093L19.1333 18.6704" stroke="#0D2332" stroke-width="1.5" stroke-linecap="round" stroke-linejoin="round"/>
<path d="M39.2635 29.288L41.9739 27.1973" stroke="#0D2332" stroke-width="1.5" stroke-linecap="round" stroke-linejoin="round"/>
<path d="M37.0421 18.6518L34.6267 19.3947C34.6267 19.3947 33.5515 19.6859 32.3083 19.0624C31.0651 18.439 30.072 17.8043 27.384 19.096L23.6581 20.9254C23.3445 21.0784 23.0645 21.295 22.8592 21.5787C22.5568 22.0006 22.3291 22.6651 22.8293 23.5312C23.7403 25.103 26.264 24.5654 27.3803 24.151C28.4965 23.7366 30.072 22.288 32.0581 23.6955C34.0443 25.103 35.2464 25.144 37.1915 24.3152" stroke="#0D2332" stroke-width="1.5" stroke-linecap="round" stroke-linejoin="round"/>
<path d="M30.4528 35.7915L31.5952 36.6838C32.3605 37.2811 32.4949 38.3862 31.8976 39.1515C31.3002 39.9168 30.1952 40.0512 29.4298 39.4539L27.5034 37.9456" stroke="#0D2332" stroke-width="1.5" stroke-linecap="round" stroke-linejoin="round"/>
<path d="M33.1707 33.4544L34.8731 34.7872C35.6384 35.3845 35.7728 36.4896 35.1755 37.2549C34.5781 38.0203 33.4731 38.1547 32.7077 37.5573L30.4528 35.7915" stroke="#0D2332" stroke-width="1.5" stroke-linecap="round" stroke-linejoin="round"/>
<path d="M35.504 30.8112L37.2064 32.144C37.9717 32.7414 38.1061 33.8464 37.5088 34.6118C36.9115 35.3771 35.8064 35.5115 35.0411 34.9142L32.7189 33.096" stroke="#0D2332" stroke-width="1.5" stroke-linecap="round" stroke-linejoin="round"/>
<path d="M32.4949 23.9904L39.3755 29.3739C40.1408 29.9712 40.2752 31.0763 39.6779 31.8416C39.0805 32.607 37.9755 32.7414 37.2101 32.144L35.1829 30.5574" stroke="#0D2332" stroke-width="1.5" stroke-linecap="round" stroke-linejoin="round"/>
<path d="M16.9344 29.4038L14.2277 27.1638" stroke="#0D2332" stroke-width="1.5" stroke-linecap="round" stroke-linejoin="round"/>
<path d="M19.087 32.2288C18.3363 32.8578 18.2376 33.9763 18.8667 34.727C19.4957 35.4777 20.6141 35.5763 21.3648 34.9473L24.8617 32.0173C25.6124 31.3883 25.711 30.2698 25.082 29.5191C24.453 28.7684 23.3345 28.6698 22.5838 29.2988L19.087 32.2288Z" stroke="#0D2332" stroke-width="1.5" stroke-linecap="round" stroke-linejoin="round"/>
<path d="M23.6399 37.6609C22.8892 38.2899 22.7906 39.4084 23.4196 40.1591C24.0486 40.9098 25.1671 41.0084 25.9178 40.3794L26.8621 39.5881C27.6128 38.9591 27.7114 37.8406 27.0824 37.09C26.4534 36.3393 25.335 36.2406 24.5843 36.8696L23.6399 37.6609Z" stroke="#0D2332" stroke-width="1.5" stroke-linecap="round" stroke-linejoin="round"/>
<path d="M21.3646 34.9446C20.6139 35.5737 20.5152 36.6921 21.1442 37.4428C21.7733 38.1935 22.8917 38.2921 23.6424 37.6631L25.883 35.7857C26.6337 35.1567 26.7324 34.0382 26.1034 33.2875C25.4743 32.5368 24.3559 32.4382 23.6052 33.0672L21.3646 34.9446Z" stroke="#0D2332" stroke-width="1.5" stroke-linecap="round" stroke-linejoin="round"/>
<path d="M16.8082 29.5098C16.0575 30.1388 15.9588 31.2572 16.5878 32.0079C17.2168 32.7586 18.3353 32.8573 19.086 32.2283L21.3266 30.3508C22.0773 29.7218 22.176 28.6033 21.5469 27.8527C20.9179 27.102 19.7995 27.0033 19.0488 27.6323L16.8082 29.5098Z" stroke="#0D2332" stroke-width="1.5" stroke-linecap="round" stroke-linejoin="round"/>
<path d="M16.4412 14.8381L9.61292 26.665L13.289 28.7874L20.1173 16.9605L16.4412 14.8381Z" stroke="#00AECB" stroke-width="1.5" stroke-linecap="round" stroke-linejoin="round"/>
<path d="M36.0673 16.9599L42.8956 28.7868L46.5717 26.6644L39.7434 14.8375L36.0673 16.9599Z" stroke="#00AECB" stroke-width="1.5" stroke-linecap="round" stroke-linejoin="round"/>
</svg>
