<svg width="75" height="83" viewBox="0 0 75 83" fill="none" xmlns="http://www.w3.org/2000/svg">
<g clip-path="url(#clip0_2368_11400)">
<path d="M55.0661 61.1675L37.4947 83L19.9233 61.1675H27.3069C27.9358 61.1675 28.4478 60.6556 28.4478 60.021V33.0151C28.4478 29.7454 31.0858 27.0947 34.3396 27.0947H40.6472C43.9011 27.0947 46.539 29.7454 46.539 33.0151V60.021C46.539 60.653 47.0484 61.1675 47.6799 61.1675H55.0661Z" fill="#085B7B"/>
<path d="M75 37.4051C74.987 44.7697 69.0485 50.737 61.7195 50.7501H48.8236V33.0125C48.8236 28.4763 45.1643 24.7992 40.6499 24.7992H34.3423C29.828 24.7992 26.1687 28.4763 26.1687 33.0125V50.7501H13.2728C5.93597 50.7449 -0.00519446 44.7618 3.40807e-06 37.3895C0.00520127 30.8502 4.72486 25.2797 11.1468 24.2273C11.7602 24.128 12.1838 23.5561 12.098 22.9372C12.0279 22.4358 11.9915 21.9317 11.9915 21.4251C11.9863 15.4212 16.8255 10.5506 22.8004 10.5454C23.6529 10.5454 24.5001 10.6447 25.3292 10.8458C25.9426 10.992 26.5559 10.6107 26.7014 9.99439C26.7144 9.94216 26.7222 9.88993 26.7274 9.8377C27.2992 3.85727 32.5854 -0.524895 38.5344 0.049644C43.6959 0.545837 47.7814 4.65118 48.2752 9.8377C48.3376 10.4671 48.8937 10.9293 49.5227 10.8666C49.5695 10.8614 49.6136 10.8536 49.6604 10.8458C55.4716 9.45119 61.3088 13.0525 62.6967 18.8919C62.8942 19.7224 62.9929 20.5737 62.9929 21.4277C62.9929 21.9344 62.9566 22.4384 62.8864 22.9398C62.8006 23.5587 63.2242 24.1307 63.8376 24.2299C70.2855 25.2484 75.0286 30.8475 75 37.4051Z" fill="#B8E3ED"/>
</g>
<defs>
<clipPath id="clip0_2368_11400">
<rect width="75" height="83" fill="white"/>
</clipPath>
</defs>
</svg>
