<svg width="36" height="33" viewBox="0 0 36 33" fill="none" xmlns="http://www.w3.org/2000/svg">
<path d="M22.7968 29.0399C27.8752 29.0399 31.992 24.9231 31.992 19.8447C31.992 14.7664 27.8752 10.6495 22.7968 10.6495C17.7184 10.6495 13.6016 14.7664 13.6016 19.8447C13.6016 24.9231 17.7184 29.0399 22.7968 29.0399Z" stroke="#00AECB" stroke-width="1.5" stroke-linecap="round" stroke-linejoin="round"/>
<path d="M33.1195 8.51416L30.9429 10.687" stroke="#0D2332" stroke-width="1.5" stroke-linecap="round" stroke-linejoin="round"/>
<path d="M4.08533 23.6528H7.25119" stroke="#0D2332" stroke-width="1.5" stroke-linecap="round" stroke-linejoin="round"/>
<path d="M4.08533 15.9658H7.25119" stroke="#0D2332" stroke-width="1.5" stroke-linecap="round" stroke-linejoin="round"/>
<path d="M1.36 19.8112H8.22187" stroke="#0D2332" stroke-width="1.5" stroke-linecap="round" stroke-linejoin="round"/>
<path d="M24.6747 1.59998H20.5269C19.5496 1.59998 18.7573 2.39225 18.7573 3.36958V3.37331C18.7573 4.35063 19.5496 5.14291 20.5269 5.14291H24.6747C25.652 5.14291 26.4443 4.35063 26.4443 3.37331V3.36958C26.4443 2.39225 25.652 1.59998 24.6747 1.59998Z" stroke="#0D2332" stroke-width="1.5" stroke-linecap="round" stroke-linejoin="round"/>
<path d="M22.6475 5.14294V7.53974" stroke="#0D2332" stroke-width="1.5" stroke-linecap="round" stroke-linejoin="round"/>
<path d="M26.1269 17.1866L24.5477 18.4597" stroke="#00AECB" stroke-width="1.5" stroke-linecap="round" stroke-linejoin="round"/>
<path d="M22.7968 21.8944C23.9288 21.8944 24.8464 20.9767 24.8464 19.8448C24.8464 18.7128 23.9288 17.7952 22.7968 17.7952C21.6648 17.7952 20.7472 18.7128 20.7472 19.8448C20.7472 20.9767 21.6648 21.8944 22.7968 21.8944Z" stroke="#00AECB" stroke-width="1.5" stroke-linecap="round" stroke-linejoin="round"/>
<path d="M34.0603 24.6906C31.3872 30.9104 24.1744 33.785 17.9547 31.1082C11.7349 28.4352 8.86026 21.2224 11.5371 15.0026C14.2101 8.78289 21.4229 5.90822 27.6427 8.58502C33.8624 11.2581 36.7371 18.4709 34.0603 24.6906Z" stroke="#0D2332" stroke-width="1.5" stroke-linecap="round" stroke-linejoin="round"/>
<path d="M31.0251 6.91626C32.4736 7.83466 33.7243 8.96959 34.7584 10.2613" stroke="#0D2332" stroke-width="1.5" stroke-linecap="round" stroke-linejoin="round"/>
</svg>
