<svg width="141" height="156" viewBox="0 0 141 156" fill="none" xmlns="http://www.w3.org/2000/svg">
<g id="Layer_1" clip-path="url(#clip0_1516_283)">
<path id="Vector" d="M103.524 114.965L70.4903 156L37.4561 114.965H51.3372C52.5196 114.965 53.4821 114.003 53.4821 112.811V62.0525C53.4821 55.9071 58.4414 50.925 64.5587 50.925H76.417C82.5342 50.925 87.4935 55.9071 87.4935 62.0525V112.811C87.4935 113.998 88.4512 114.965 89.6385 114.965H103.524Z" fill="#0076A4"/>
<path id="Vector_2" d="M141 70.3036C140.976 84.1453 129.811 95.3611 116.033 95.3857H91.7883V62.0476C91.7883 53.5216 84.9088 46.6105 76.4218 46.6105H64.5635C56.0766 46.6105 49.1971 53.5216 49.1971 62.0476V95.3857H24.9528C11.1596 95.3759 -0.00976558 84.1306 6.40717e-06 70.2741C0.00977839 57.9834 8.88274 47.5137 20.956 45.5356C22.1091 45.3491 22.9055 44.2741 22.7443 43.1108C22.6124 42.1684 22.544 41.2211 22.544 40.2688C22.5342 28.9843 31.6319 19.8301 42.8648 19.8203C44.4674 19.8203 46.0603 20.0068 47.6189 20.3847C48.772 20.6596 49.9251 19.943 50.1987 18.7846C50.2231 18.6864 50.2378 18.5882 50.2476 18.4901C51.3225 7.24975 61.2606 -0.986606 72.4446 0.0932502C82.1482 1.02585 89.829 8.74192 90.7573 18.4901C90.8746 19.673 91.9202 20.5418 93.1026 20.424C93.1906 20.4142 93.2736 20.3995 93.3616 20.3847C104.287 17.7636 115.261 24.5324 117.87 35.5076C118.241 37.0685 118.427 38.6687 118.427 40.2737C118.427 41.226 118.358 42.1733 118.226 43.1157C118.065 44.279 118.862 45.354 120.015 45.5405C132.137 47.4548 141.054 57.9785 141 70.3036Z" fill="#B7E2EB"/>
</g>
<defs>
<clipPath id="clip0_1516_283">
<rect width="141" height="156" fill="white"/>
</clipPath>
</defs>
</svg>
