<svg width="892" height="485" viewBox="0 0 892 485" fill="none" xmlns="http://www.w3.org/2000/svg">
<path opacity="0.2" d="M69.5447 484.848L550.406 484.848C588.502 484.848 619.385 453.923 619.385 415.776V415.766C619.385 377.619 588.502 346.694 550.406 346.694L69.5447 346.694C31.4491 346.694 0.566467 377.619 0.566467 415.766V415.776C0.566467 453.923 31.4491 484.848 69.5447 484.848Z" fill="url(#paint0_linear_1313_4267)"/>
<g opacity="0.6">
<path d="M550.676 351.512C553.431 351.512 556.226 351.692 558.98 352.062C593.694 356.639 618.197 388.751 613.606 423.652C609.444 455.314 582.376 479.191 550.636 479.191C547.882 479.191 545.087 479.011 542.332 478.641C507.618 474.064 483.115 441.951 487.706 407.051C491.868 375.389 518.937 351.512 550.676 351.512ZM550.676 346.275C516.721 346.275 487.088 371.641 482.526 406.371C477.566 444.13 504.085 478.881 541.653 483.838C544.678 484.238 547.672 484.428 550.636 484.428C584.591 484.428 614.225 459.062 618.786 424.331C623.747 386.572 597.227 351.822 559.659 346.864C556.635 346.465 553.641 346.275 550.676 346.275Z" fill="#00ABC8"/>
</g>
<path opacity="0.2" d="M341.806 311.71L822.668 311.71C860.764 311.71 891.646 280.786 891.646 242.639V242.629C891.646 204.481 860.764 173.557 822.668 173.557L341.806 173.557C303.711 173.557 272.828 204.481 272.828 242.629V242.639C272.828 280.786 303.711 311.71 341.806 311.71Z" fill="url(#paint1_linear_1313_4267)"/>
<g opacity="0.6">
<path d="M822.938 178.374C825.693 178.374 828.487 178.554 831.242 178.924C865.956 183.502 890.459 215.614 885.868 250.514C881.706 282.177 854.637 306.053 822.898 306.053C820.143 306.053 817.349 305.873 814.594 305.504C779.88 300.926 755.377 268.814 759.968 233.914C764.13 202.251 791.198 178.374 822.938 178.374ZM822.938 173.137C788.983 173.137 759.349 198.503 754.788 233.234C749.828 270.993 776.347 305.744 813.915 310.701C816.939 311.101 819.934 311.291 822.898 311.291C856.853 311.291 886.487 285.925 891.048 251.194C896.008 213.435 869.489 178.684 831.921 173.727C828.896 173.327 825.902 173.137 822.938 173.137Z" fill="#00ABC8"/>
</g>
<path opacity="0.2" d="M401.021 138.573L676.401 138.573C714.612 138.573 745.589 107.555 745.589 69.2915V69.2815C745.589 31.0184 714.612 6.10352e-05 676.401 6.10352e-05L401.021 6.10352e-05C362.81 6.10352e-05 331.833 31.0184 331.833 69.2815V69.2915C331.833 107.555 362.81 138.573 401.021 138.573Z" fill="url(#paint2_linear_1313_4267)"/>
<g opacity="0.5">
<path d="M676.29 133.32C673.527 133.32 670.724 133.139 667.961 132.769C633.142 128.177 608.564 95.9675 613.169 60.9609C617.344 29.2023 644.494 5.253 676.33 5.253C679.093 5.253 681.897 5.43345 684.66 5.80436C719.479 10.3957 744.056 42.6054 739.451 77.6121C735.277 109.371 708.126 133.32 676.29 133.32ZM676.3 138.573C710.358 138.573 740.082 113.13 744.657 78.2938C749.633 40.42 723.033 5.56377 685.35 0.591464C682.317 0.190471 679.314 0 676.34 0C642.282 0 612.558 25.443 607.983 60.2792C603.008 98.1529 629.608 133.009 667.29 137.981C670.323 138.382 673.327 138.573 676.3 138.573Z" fill="#00ABC8"/>
</g>
<defs>
<linearGradient id="paint0_linear_1313_4267" x1="619.385" y1="415.766" x2="0.566467" y2="415.766" gradientUnits="userSpaceOnUse">
<stop stop-color="#00ABC8"/>
<stop offset="0.69" stop-color="#0D2332"/>
</linearGradient>
<linearGradient id="paint1_linear_1313_4267" x1="891.646" y1="242.629" x2="272.828" y2="242.629" gradientUnits="userSpaceOnUse">
<stop stop-color="#00ABC8"/>
<stop offset="0.69" stop-color="#0D2332"/>
</linearGradient>
<linearGradient id="paint2_linear_1313_4267" x1="745.589" y1="69.2815" x2="331.843" y2="69.2815" gradientUnits="userSpaceOnUse">
<stop stop-color="#00ACC8"/>
<stop offset="1" stop-color="#00ACC8" stop-opacity="0"/>
</linearGradient>
</defs>
</svg>
