<svg width="429" height="52" viewBox="0 0 429 52" fill="none" xmlns="http://www.w3.org/2000/svg">
<g clip-path="url(#clip0_1362_4045)">
<path d="M21.1175 26.4549C21.1175 20.8903 17.6362 18.0217 13.7156 18.0217C9.79497 18.0217 6.31362 20.8903 6.31362 26.4549C6.31362 32.0194 9.85398 34.9943 13.7156 34.9943C17.5772 34.9943 21.1175 32.0725 21.1175 26.4549ZM27.4836 26.4549C27.4836 34.722 21.6617 40.7315 13.7156 40.7315C5.76946 40.7315 0 34.722 0 26.4549C0 18.1877 5.82191 12.238 13.7156 12.238C21.6093 12.238 27.4836 18.2475 27.4836 26.4549Z" fill="#00ABC8"/>
<path d="M44.4051 34.9411C48.542 34.9411 51.4268 31.4683 51.4268 26.342C51.4268 21.2157 48.5945 18.0217 44.4641 18.0217C40.3337 18.0217 37.2785 21.2754 37.2785 26.4017C37.2785 31.528 40.1108 34.9411 44.4051 34.9411ZM57.524 34.9943C57.524 37.418 57.7404 39.4565 57.7928 39.9014H51.7546C51.6431 39.2972 51.4792 37.5308 51.4792 36.4286C50.227 38.6862 47.4537 40.5654 43.697 40.5654C36.0787 40.5654 30.9648 34.5029 30.9648 26.4017C30.9648 18.3006 36.1377 12.3509 43.5921 12.3509C48.2208 12.3509 50.5613 14.5024 51.3743 16.2089V0H57.524V34.9943Z" fill="#00ABC8"/>
<path d="M81.5722 23.5331C81.4608 20.3923 79.3956 17.5835 75.0423 17.5835C71.0692 17.5835 68.7876 20.6712 68.5647 23.5331H81.5722ZM87.6171 32.2452C86.2009 36.9332 82.0115 40.7315 75.6454 40.7315C68.4598 40.7315 62.0938 35.4392 62.0938 26.3486C62.0938 17.8624 68.2959 12.238 74.9898 12.238C83.1523 12.238 87.9383 17.6963 87.9383 26.1826C87.9383 27.2318 87.8334 28.1149 87.7744 28.2212H68.4008C68.5647 32.2983 71.7183 35.22 75.6389 35.22C79.5595 35.22 81.4083 33.1815 82.2803 30.532L87.6105 32.2385L87.6171 32.2452Z" fill="#00ABC8"/>
<path d="M97.1367 31.0831C97.3531 33.5068 99.1495 35.6583 102.526 35.6583C105.142 35.6583 106.499 34.224 106.499 32.5706C106.499 31.1362 105.522 30.034 103.398 29.5957L99.4773 28.7126C94.7961 27.6634 92.3507 24.5757 92.3507 20.8837C92.3507 16.2023 96.5926 12.2314 102.093 12.2314C109.495 12.2314 111.888 17.0788 112.321 19.7283L106.991 21.2754C106.774 19.7283 105.634 17.2514 102.093 17.2514C99.8641 17.2514 98.2841 18.6857 98.2841 20.3392C98.2841 21.7735 99.3199 22.8226 100.952 23.148L104.978 23.9714C109.987 25.0737 112.596 28.1614 112.596 32.1257C112.596 36.0899 109.331 40.7248 102.585 40.7248C94.9142 40.7248 91.9704 35.6516 91.6492 32.6237L97.1433 31.0831H97.1367Z" fill="#00ABC8"/>
<path d="M122.004 31.0831C122.221 33.5068 124.017 35.6583 127.394 35.6583C130.01 35.6583 131.367 34.224 131.367 32.5706C131.367 31.1362 130.39 30.034 128.266 29.5957L124.345 28.7126C119.664 27.6634 117.218 24.5757 117.218 20.8837C117.218 16.2023 121.46 12.2314 126.961 12.2314C134.363 12.2314 136.756 17.0788 137.189 19.7283L131.858 21.2754C131.642 19.7283 130.501 17.2514 126.961 17.2514C124.732 17.2514 123.152 18.6857 123.152 20.3392C123.152 21.7735 124.188 22.8226 125.82 23.148L129.846 23.9714C134.855 25.0737 137.464 28.1614 137.464 32.1257C137.464 36.0899 134.199 40.7248 127.453 40.7248C119.782 40.7248 116.838 35.6516 116.517 32.6237L122.011 31.0831H122.004Z" fill="#00ABC8"/>
<path d="M158.47 28.7723V27.5572L151.56 28.6063C149.6 28.9383 148.019 30.0406 148.019 32.2452C148.019 34.0646 149.383 35.7181 151.888 35.7181C155.421 35.7181 158.47 34.0115 158.47 28.7723ZM149.704 24.5292L156.51 23.48C158.031 23.2609 158.47 22.4906 158.47 21.5543C158.47 19.2966 156.942 17.4772 153.461 17.4772C149.98 17.4772 148.295 19.6287 148.019 22.3246L142.25 21.0032C142.742 16.3749 146.872 12.238 153.409 12.238C161.571 12.238 164.672 16.9194 164.672 22.2649V35.6052C164.672 38.0289 164.941 39.6292 165 39.9081H159.126C159.073 39.7421 158.85 38.6398 158.85 36.4883C157.598 38.5269 154.989 40.7315 150.688 40.7315C145.135 40.7315 141.712 36.8735 141.712 32.6303C141.712 27.836 145.194 25.1932 149.711 24.5292" fill="#00ABC8"/>
<path d="M25.8249 47.8232H1.03589V52H25.8249V47.8232Z" fill="#00ABC8"/>
</g>
<path d="M198 9H412.176L429 26L412.176 43H198V9Z" fill="#00ABC8"/>
<path d="M239.104 32V20.8H241.472V25.184H245.104V20.8H247.472V32H245.104V27.344H241.472V32H239.104ZM264.338 32L263.746 30.256H259.458L258.866 32H256.514L260.514 20.8H262.69L266.69 32H264.338ZM260.178 28.176H263.026L261.618 24.048H261.586L260.178 28.176ZM275.713 32V20.8H278.145L281.937 27.92H281.969V20.8H284.337V32H281.905L278.113 24.88H278.081V32H275.713ZM294.542 32V20.8H298.43C301.406 20.8 303.342 22.912 303.342 26.4C303.342 29.92 301.406 32 298.414 32H294.542ZM296.91 29.824H298.414C299.982 29.824 300.974 28.688 300.974 26.4C300.974 24.128 299.982 22.976 298.414 22.976H296.91V29.824ZM312.901 32V20.8H317.765C319.701 20.8 321.093 22.064 321.093 23.808C321.093 24.736 320.661 25.488 319.957 25.904V25.936C320.917 26.384 321.509 27.328 321.509 28.512C321.509 30.848 320.117 32 317.253 32H312.901ZM315.269 25.264H317.429C318.277 25.264 318.741 24.848 318.741 24.08C318.741 23.328 318.277 22.912 317.429 22.912H315.269V25.264ZM315.269 29.888H317.685C318.693 29.888 319.157 29.44 319.157 28.496C319.157 27.616 318.645 27.136 317.701 27.136H315.269V29.888ZM335.392 32.24C332.4 32.24 330.448 29.936 330.448 26.4C330.448 22.864 332.4 20.56 335.392 20.56C338.384 20.56 340.352 22.864 340.352 26.4C340.352 29.936 338.384 32.24 335.392 32.24ZM335.392 30.08C337.008 30.08 337.984 28.704 337.984 26.4C337.984 24.096 336.992 22.72 335.392 22.72C333.808 22.72 332.816 24.096 332.816 26.4C332.816 28.704 333.792 30.08 335.392 30.08ZM354.221 32.24C351.229 32.24 349.277 29.936 349.277 26.4C349.277 22.864 351.229 20.56 354.221 20.56C357.213 20.56 359.181 22.864 359.181 26.4C359.181 29.936 357.213 32.24 354.221 32.24ZM354.221 30.08C355.837 30.08 356.812 28.704 356.812 26.4C356.812 24.096 355.821 22.72 354.221 22.72C352.637 22.72 351.645 24.096 351.645 26.4C351.645 28.704 352.621 30.08 354.221 30.08ZM368.745 32V20.8H371.113V25.376H371.145L374.905 20.8H377.673L373.561 25.76L377.993 32H375.177L372.105 27.52H372.073L371.113 28.688V32H368.745Z" fill="white"/>
<defs>
<clipPath id="clip0_1362_4045">
<rect width="165" height="52" fill="white"/>
</clipPath>
</defs>
</svg>
