<svg width="28" height="31" viewBox="0 0 28 31" fill="none" xmlns="http://www.w3.org/2000/svg">
<path d="M10.8196 10.3542V13.8064" stroke="#00ACC8" stroke-width="1.5" stroke-miterlimit="10" stroke-linecap="round"/>
<path d="M14.0015 7.17212V13.8063" stroke="#00ACC8" stroke-width="1.5" stroke-miterlimit="10" stroke-linecap="round"/>
<path d="M17.1836 8.77295V13.8064" stroke="#00ACC8" stroke-width="1.5" stroke-miterlimit="10" stroke-linecap="round"/>
<path d="M16.9395 21.8298H11.0602C10.3432 21.8298 9.76196 22.4111 9.76196 23.128C9.76196 23.845 10.3432 24.4263 11.0602 24.4263H16.9395C17.6565 24.4263 18.2377 23.845 18.2377 23.128C18.2377 22.4111 17.6565 21.8298 16.9395 21.8298Z" stroke="#0D2332" stroke-width="1.5" stroke-linecap="round" stroke-linejoin="round"/>
<path d="M16.9395 24.4263H11.0602C10.3432 24.4263 9.76196 25.0075 9.76196 25.7245C9.76196 26.4415 10.3432 27.0227 11.0602 27.0227H16.9395C17.6565 27.0227 18.2377 26.4415 18.2377 25.7245C18.2377 25.0075 17.6565 24.4263 16.9395 24.4263Z" stroke="#0D2332" stroke-width="1.5" stroke-linecap="round" stroke-linejoin="round"/>
<path d="M15.8464 27.6475C15.8464 28.6659 15.02 29.4923 14.0016 29.4923C12.9832 29.4923 12.1567 28.6659 12.1567 27.6475" stroke="#0D2332" stroke-width="1.5" stroke-linecap="round" stroke-linejoin="round"/>
<path d="M24.9958 3.69403L27.0001 1.68652" stroke="#0D2332" stroke-width="1.5" stroke-linecap="round" stroke-linejoin="round"/>
<path d="M27.0001 20.1054L24.9958 18.0979" stroke="#0D2332" stroke-width="1.5" stroke-linecap="round" stroke-linejoin="round"/>
<path d="M3.00751 3.69403L1 1.68652" stroke="#0D2332" stroke-width="1.5" stroke-linecap="round" stroke-linejoin="round"/>
<path d="M1 20.1054L3.00751 18.0979" stroke="#0D2332" stroke-width="1.5" stroke-linecap="round" stroke-linejoin="round"/>
<path d="M23.5055 10.5072C23.5055 5.25579 19.2497 1 13.9983 1C8.74692 1 4.49438 5.25579 4.49438 10.5072C4.49438 14.545 7.01597 17.9971 10.569 19.3734C11.5743 19.7639 12.2251 20.7465 12.2251 21.8267H15.7781C15.7781 20.7465 16.4288 19.7639 17.4342 19.3734C20.9872 17.9971 23.5088 14.5482 23.5088 10.5072H23.5055Z" stroke="#0D2332" stroke-width="1.5" stroke-linecap="round" stroke-linejoin="round"/>
</svg>
