<svg width="56" height="56" viewBox="0 0 56 56" fill="none" xmlns="http://www.w3.org/2000/svg">
<path d="M28.545 31.5716L31.864 34.8756C32.5285 35.5401 32.8981 36.4697 32.76 37.3993C32.4464 39.5609 33.4469 41.7972 35.4629 42.9545C36.9749 43.8244 38.7221 43.8878 40.2304 43.3017L40.7269 42.4468L37.1578 40.3972C36.6986 40.1321 36.4522 39.602 36.5642 39.0868C36.7882 38.0713 37.3818 37.0409 38.1509 36.3316C38.5504 35.962 39.144 35.8873 39.6181 36.1598L43.1872 38.2094L43.6837 37.3545C43.4373 35.7604 42.5114 34.2857 40.9994 33.4158C39.8944 32.7812 38.6624 32.5721 37.4901 32.7326C36.5456 32.8633 35.601 32.5348 34.9253 31.8665L30.2885 27.2521" stroke="#0D2332" stroke-width="1.5" stroke-linecap="round" stroke-linejoin="round"/>
<path d="M28.3771 25.3481L23.7664 20.7561C23.1019 20.0916 22.7323 19.162 22.8704 18.2324C23.184 16.0708 22.1835 13.8345 20.1675 12.6772C18.6555 11.8073 16.9083 11.7438 15.4 12.33L14.9035 13.1849L18.4725 15.2345C18.9317 15.4996 19.1781 16.0297 19.0661 16.5449C18.8421 17.5604 18.2485 18.5908 17.4795 19.3001C17.08 19.6697 16.4864 19.7444 16.0123 19.4718L12.4432 17.4222L11.9467 18.2772C12.1931 19.8713 13.1189 21.346 14.6309 22.2158C15.736 22.8505 16.968 23.0596 18.1403 22.899C19.0848 22.7684 20.0293 23.0969 20.7051 23.7652L24.0464 27.0916" stroke="#0D2332" stroke-width="1.5" stroke-linecap="round" stroke-linejoin="round"/>
<path d="M29.5195 28.0137L37.3333 20.1998H39.2373L42.4107 15.1225L40.5067 13.2185L35.4293 16.3918V18.2958L27.6155 26.1097" stroke="#00AECB" stroke-width="1.5" stroke-linecap="round" stroke-linejoin="round"/>
<path d="M26.544 29.0852L16.3893 39.2398" stroke="#00AECB" stroke-width="1.5" stroke-linecap="round" stroke-linejoin="round"/>
<path d="M18.6331 41.4836C17.3936 42.723 15.3851 42.723 14.1456 41.4836C12.9061 40.2441 12.9061 38.2356 14.1456 36.9961L24.3003 26.8414C25.5397 25.602 27.5483 25.602 28.7877 26.8414C30.0272 28.0809 30.0272 30.0894 28.7877 31.3289L18.6331 41.4836Z" stroke="#00AECB" stroke-width="1.5" stroke-linecap="round" stroke-linejoin="round"/>
</svg>
