<svg width="36" height="36" viewBox="0 0 36 36" fill="none" xmlns="http://www.w3.org/2000/svg">
<path d="M7.81715 23.364L5.03345 26.1477" stroke="#0D2332" stroke-width="1.5" stroke-linecap="round" stroke-linejoin="round"/>
<path d="M12.6358 28.1829L9.85205 30.9666" stroke="#0D2332" stroke-width="1.5" stroke-linecap="round" stroke-linejoin="round"/>
<path d="M10.2265 25.7734L5.04736 30.9526" stroke="#0D2332" stroke-width="1.5" stroke-linecap="round" stroke-linejoin="round"/>
<path d="M23.1327 16.0601C24.896 16.0601 26.3255 14.6306 26.3255 12.8673C26.3255 11.104 24.896 9.67456 23.1327 9.67456C21.3694 9.67456 19.9399 11.104 19.9399 12.8673C19.9399 14.6306 21.3694 16.0601 23.1327 16.0601Z" stroke="#00AECB" stroke-width="1.5" stroke-linecap="round" stroke-linejoin="round"/>
<path d="M13.3395 12.3403L8.39609 12.6038L5.13052 17.3427C4.81506 17.8003 5.10279 18.4312 5.65745 18.4901L10.0878 18.9685" stroke="#0D2332" stroke-width="1.5" stroke-linecap="round" stroke-linejoin="round"/>
<path d="M10.9373 16.4724L19.5276 25.0627" stroke="#0D2332" stroke-width="1.5" stroke-linecap="round" stroke-linejoin="round"/>
<path d="M15.2358 26.2935C18.9937 25.6869 22.6024 23.9397 25.5005 21.0416C29.6154 16.9267 31.4181 11.3835 30.9189 6.01024C30.8738 5.51798 30.4821 5.12971 29.9898 5.08118C24.6165 4.58199 19.0699 6.38464 14.9585 10.4995C12.0604 13.3976 10.3167 17.0064 9.70654 20.7642L15.2358 26.2935Z" stroke="#0D2332" stroke-width="1.5" stroke-linecap="round" stroke-linejoin="round"/>
<path d="M23.6597 22.6604L23.3962 27.6038L18.6573 30.8694C18.1998 31.1849 17.5688 30.8971 17.5099 30.3425L17.0315 25.9121" stroke="#0D2332" stroke-width="1.5" stroke-linecap="round" stroke-linejoin="round"/>
</svg>
