<svg width="56" height="56" viewBox="0 0 56 56" fill="none" xmlns="http://www.w3.org/2000/svg">
<path d="M27.8768 34.8395V44.0533" stroke="#00AECB" stroke-width="1.5" stroke-linecap="round" stroke-linejoin="round"/>
<path d="M27.8133 32.8533C28.535 32.8533 29.12 32.2683 29.12 31.5467C29.12 30.825 28.535 30.24 27.8133 30.24C27.0917 30.24 26.5067 30.825 26.5067 31.5467C26.5067 32.2683 27.0917 32.8533 27.8133 32.8533Z" stroke="#00AECB" stroke-width="1.5" stroke-linecap="round" stroke-linejoin="round"/>
<path d="M21.3323 36.7808H23.5387" stroke="#0D2332" stroke-width="1.5" stroke-linecap="round" stroke-linejoin="round"/>
<path d="M22.5344 18.9205C22.5344 14.7877 24.528 12.32 27.8656 12.32C31.2517 12.32 33.1968 14.7243 33.1968 18.9205C33.1968 23.4491 30.7066 27.4176 27.8656 27.4176C25.0245 27.4176 22.5344 23.4453 22.5344 18.9205Z" stroke="#0D2332" stroke-width="1.5" stroke-linecap="round" stroke-linejoin="round"/>
<path d="M19.4843 39.8309V44.0533" stroke="#0D2332" stroke-width="1.5" stroke-linecap="round" stroke-linejoin="round"/>
<path d="M32.3493 30.2848C32.3493 30.2848 33.8426 33.0027 37.4938 33.2229C41.1413 33.4432 41.5669 35.3621 41.5669 37.0309V44.0533H14.1866V37.0309C14.1866 35.3621 14.6122 33.4432 18.2597 33.2229C21.9072 33.0027 23.4042 30.2848 23.4042 30.2848" stroke="#0D2332" stroke-width="1.5" stroke-linecap="round" stroke-linejoin="round"/>
<path d="M36.273 39.8309V44.0533" stroke="#0D2332" stroke-width="1.5" stroke-linecap="round" stroke-linejoin="round"/>
</svg>
