<svg width="56" height="56" viewBox="0 0 56 56" fill="none" xmlns="http://www.w3.org/2000/svg">
<path d="M12.2267 43.96H43.848" stroke="#0D2332" stroke-width="1.5" stroke-linecap="round" stroke-linejoin="round"/>
<path d="M33.8613 20.8096L39.9541 15.6091" stroke="#0D2332" stroke-width="1.5" stroke-linecap="round" stroke-linejoin="round"/>
<path d="M25.7077 20.1414L30.3371 21.5451" stroke="#0D2332" stroke-width="1.5" stroke-linecap="round" stroke-linejoin="round"/>
<path d="M16.3333 23.856L21.9333 20.5109" stroke="#0D2332" stroke-width="1.5" stroke-linecap="round" stroke-linejoin="round"/>
<path d="M41.5184 16.3334C42.6524 16.3334 43.5717 15.414 43.5717 14.28C43.5717 13.146 42.6524 12.2267 41.5184 12.2267C40.3844 12.2267 39.4651 13.146 39.4651 14.28C39.4651 15.414 40.3844 16.3334 41.5184 16.3334Z" stroke="#00AECB" stroke-width="1.5" stroke-linecap="round" stroke-linejoin="round"/>
<path d="M32.3008 24.1958C33.4348 24.1958 34.3541 23.2765 34.3541 22.1424C34.3541 21.0084 33.4348 20.0891 32.3008 20.0891C31.1668 20.0891 30.2475 21.0084 30.2475 22.1424C30.2475 23.2765 31.1668 24.1958 32.3008 24.1958Z" stroke="#00AECB" stroke-width="1.5" stroke-linecap="round" stroke-linejoin="round"/>
<path d="M23.744 21.5973C24.878 21.5973 25.7973 20.678 25.7973 19.544C25.7973 18.41 24.878 17.4907 23.744 17.4907C22.61 17.4907 21.6907 18.41 21.6907 19.544C21.6907 20.678 22.61 21.5973 23.744 21.5973Z" stroke="#00AECB" stroke-width="1.5" stroke-linecap="round" stroke-linejoin="round"/>
<path d="M14.56 26.9397C15.694 26.9397 16.6133 26.0204 16.6133 24.8864C16.6133 23.7524 15.694 22.8331 14.56 22.8331C13.426 22.8331 12.5067 23.7524 12.5067 24.8864C12.5067 26.0204 13.426 26.9397 14.56 26.9397Z" stroke="#00AECB" stroke-width="1.5" stroke-linecap="round" stroke-linejoin="round"/>
<path d="M25.8795 28.1083H21.2128V38.6437H25.8795V28.1083Z" stroke="#0D2332" stroke-width="1.5" stroke-linecap="round" stroke-linejoin="round"/>
<path d="M43.8517 22.8219H39.1851V38.6438H43.8517V22.8219Z" stroke="#0D2332" stroke-width="1.5" stroke-linecap="round" stroke-linejoin="round"/>
<path d="M34.8656 30.7328H30.1989V38.6438H34.8656V30.7328Z" stroke="#0D2332" stroke-width="1.5" stroke-linecap="round" stroke-linejoin="round"/>
<path d="M16.8933 33.2939H12.2267V38.64H16.8933V33.2939Z" stroke="#0D2332" stroke-width="1.5" stroke-linecap="round" stroke-linejoin="round"/>
</svg>
