<svg width="56" height="56" viewBox="0 0 56 56" fill="none" xmlns="http://www.w3.org/2000/svg">
<path d="M40.8688 33.2192H14.7579C13.2053 33.2192 11.9467 34.4778 11.9467 36.0304V40.8688C11.9467 42.4214 13.2053 43.68 14.7579 43.68H40.8688C42.4214 43.68 43.68 42.4214 43.68 40.8688V36.0304C43.68 34.4778 42.4214 33.2192 40.8688 33.2192Z" stroke="#0D2332" stroke-width="1.5" stroke-linecap="round" stroke-linejoin="round"/>
<path d="M16.688 37.1429L19.3013 39.7563" stroke="#00AECB" stroke-width="1.5" stroke-linecap="round" stroke-linejoin="round"/>
<path d="M19.3013 37.1429L16.688 39.7563" stroke="#00AECB" stroke-width="1.5" stroke-linecap="round" stroke-linejoin="round"/>
<path d="M23.2474 37.1429L25.8608 39.7563" stroke="#00AECB" stroke-width="1.5" stroke-linecap="round" stroke-linejoin="round"/>
<path d="M25.8608 37.1429L23.2474 39.7563" stroke="#00AECB" stroke-width="1.5" stroke-linecap="round" stroke-linejoin="round"/>
<path d="M29.8069 37.1429L32.424 39.7563" stroke="#00AECB" stroke-width="1.5" stroke-linecap="round" stroke-linejoin="round"/>
<path d="M32.424 37.1429L29.8069 39.7563" stroke="#00AECB" stroke-width="1.5" stroke-linecap="round" stroke-linejoin="round"/>
<path d="M36.3701 37.1429L38.9835 39.7563" stroke="#00AECB" stroke-width="1.5" stroke-linecap="round" stroke-linejoin="round"/>
<path d="M38.9835 37.1429L36.3701 39.7563" stroke="#00AECB" stroke-width="1.5" stroke-linecap="round" stroke-linejoin="round"/>
<path d="M20.7648 16.8373H34.8656V22.9152C34.8656 26.8053 31.7072 29.9637 27.817 29.9637C23.9269 29.9637 20.7685 26.8053 20.7685 22.9152V16.8373H20.7648Z" stroke="#0D2332" stroke-width="1.5" stroke-linecap="round" stroke-linejoin="round"/>
<path d="M27.8133 23.912C28.9206 23.912 29.8181 23.0144 29.8181 21.9072C29.8181 20.8 28.9206 19.9024 27.8133 19.9024C26.7061 19.9024 25.8085 20.8 25.8085 21.9072C25.8085 23.0144 26.7061 23.912 27.8133 23.912Z" stroke="#0D2332" stroke-width="1.5" stroke-linecap="round" stroke-linejoin="round"/>
<path d="M23.7328 16.8373V16.0272C23.7328 13.776 25.5584 11.9467 27.8133 11.9467C30.0683 11.9467 31.8939 13.7723 31.8939 16.0272V16.8373" stroke="#0D2332" stroke-width="1.5" stroke-linecap="round" stroke-linejoin="round"/>
<path d="M27.7872 23.912V25.9989" stroke="#0D2332" stroke-width="1.5" stroke-linecap="round" stroke-linejoin="round"/>
</svg>
