<svg width="56" height="70" viewBox="0 0 56 70" fill="none" xmlns="http://www.w3.org/2000/svg">
<g id="Frame">
<g id="Group">
<g id="Isolation Mode">
<g id="Group_2">
<path id="Vector" d="M23.2683 57.8276C20.9143 57.8276 18.8299 56.4375 17.9605 54.2874L16.1048 49.7021C16.0387 49.7021 15.9777 49.7021 15.9116 49.7021C15.0168 49.6821 14.127 49.5371 13.2729 49.267C12.7086 49.087 12.1595 48.857 11.6409 48.577C11.1173 48.297 10.6241 47.9619 10.1665 47.5869C8.98701 46.6219 8.06171 45.3618 7.49229 43.9517C6.57715 41.6865 6.61273 39.2113 7.59397 36.9712C8.5752 34.736 10.3801 33.0059 12.6832 32.1059L20.5127 29.0457L20.6347 29.3457C23.1208 27.8656 28.1134 24.2853 29.8166 18.615C30.4318 14.7047 32.3383 13.1846 33.8381 12.5995C34.4686 12.3545 35.1397 12.2295 35.8362 12.2295C41.3423 12.2295 46.8789 19.825 49.9243 27.3555C53.5747 36.3862 54.2712 46.7019 48.5363 48.947C47.911 49.192 47.2399 49.317 46.5433 49.317C44.9012 49.317 43.1777 48.637 41.4135 47.2869C38.9019 45.8518 35.9125 45.1217 32.5163 45.1217C30.1013 45.1217 28.0524 45.4918 26.817 45.7818L28.5761 50.1321C29.1404 51.5272 29.1201 53.0523 28.5151 54.4274C27.9101 55.8075 26.7967 56.8675 25.3833 57.4226C24.7071 57.6876 23.9953 57.8226 23.2734 57.8226L23.2683 57.8276Z" fill="white"/>
<g id="Group_3">
<path id="Vector_2" d="M24.4942 55.2522C22.786 55.9223 20.854 55.1022 20.1727 53.4221L16.7969 45.0815L22.9792 42.6614L26.355 51.0019C27.0363 52.682 26.2025 54.5822 24.4942 55.2522Z" fill="#FF495C"/>
<g id="Vector_3" style="mix-blend-mode:multiply" opacity="0.4">
<path d="M24.555 46.5467L19.0489 50.637L16.8018 45.0766L22.984 42.6564L24.555 46.5467Z" fill="#213847"/>
</g>
<path id="Vector_4" d="M24.265 44.6818L18.6572 46.8769C15.1238 48.262 11.1175 46.5619 9.7092 43.0867C8.3009 39.6114 10.0295 35.6712 13.563 34.2861L19.1707 32.0909L24.265 44.6818Z" fill="#213847"/>
<g id="Vector_5" style="mix-blend-mode:multiply" opacity="0.7">
<path d="M9.70919 43.0816C11.1175 46.5568 15.1238 48.2569 18.6572 46.8718L24.265 44.6767L21.7179 38.3813L9.7041 43.0816H9.70919Z" fill="#213847"/>
</g>
<path id="Vector_6" d="M24.2678 44.6811C25.6845 44.1269 25.694 40.861 24.2889 37.3866C22.8837 33.9121 20.5962 31.5447 19.1795 32.099C17.7627 32.6532 17.7533 35.9191 19.1584 39.3935C20.5635 42.868 22.8511 45.2354 24.2678 44.6811Z" fill="#FF495C"/>
<path id="Vector_7" d="M20.1114 32.291C18.8047 32.801 18.7946 35.8162 20.091 39.0214C21.3875 42.2266 23.4974 44.4118 24.804 43.9018C24.8599 43.8768 34.8451 40.5415 42.9848 45.4769L32.2268 18.8701C29.761 27.9507 20.1724 32.271 20.1114 32.296V32.291Z" fill="#DAE5EC"/>
<path id="Vector_8" d="M20.0918 39.021C21.3882 42.2263 23.4981 44.4114 24.8048 43.9014C24.8607 43.8764 34.8459 40.5412 42.9855 45.4765L37.6066 32.1706L20.0918 39.021Z" fill="#C0CBCD"/>
<path id="Vector_9" d="M47.6533 46.7676C51.2564 45.3581 51.2809 37.0533 47.7079 28.2183C44.135 19.3833 38.3176 13.3637 34.7145 14.7732C31.1113 16.1827 31.0869 24.4876 34.6599 33.3226C38.2328 42.1576 44.0502 48.1772 47.6533 46.7676Z" fill="#FF495C"/>
<path id="Vector_10" d="M45.4408 29.1054C48.2879 36.1409 48.6845 42.5863 46.3356 43.5064C43.9817 44.4264 39.772 39.4711 36.9249 32.4356C34.0778 25.4001 33.6813 18.9547 36.0301 18.0346C38.3841 17.1146 42.5937 22.0699 45.4408 29.1054Z" fill="#DAE5EC"/>
<path id="Vector_11" d="M35.013 19.0749C33.9148 21.35 34.6063 26.7004 36.9297 32.4358C39.248 38.1711 42.4815 42.5264 44.866 43.4415C45.9642 41.1663 45.2727 35.821 42.9493 30.0806C40.6309 24.3452 37.3974 19.9899 35.013 19.0749Z" fill="#C0CBCD"/>
<path id="Vector_12" d="M41.1852 30.7708C40.2803 28.5356 37.7636 27.4056 35.4707 28.1656C35.8469 29.5357 36.335 30.9758 36.9248 32.4409C37.5196 33.906 38.1704 35.2811 38.8516 36.5312C41.048 35.5361 42.0902 33.0109 41.1852 30.7758V30.7708Z" fill="#213847"/>
<g id="Vector_13" style="mix-blend-mode:multiply" opacity="0.7">
<path d="M36.9248 32.4359C37.5196 33.901 38.1704 35.2761 38.8517 36.5262C41.048 35.5311 42.0903 33.0059 41.1853 30.7708L36.9248 32.4359Z" fill="#213847"/>
</g>
</g>
</g>
</g>
</g>
</g>
</svg>
