<svg version="1.2" xmlns="http://www.w3.org/2000/svg" viewBox="0 0 56 70" width="56" height="70">
	<title>speaker-svg</title>
	<style>
		.s0 { fill: #ffffff } 
		.s1 { fill: #0075a2 } 
		.s2 { mix-blend-mode: multiply;fill: #213847 } 
		.s3 { fill: #213847 } 
		.s4 { fill: #dae5ec } 
		.s5 { fill: #c0cbcd } 
	</style>
	<g id="Frame">
		<g id="Group">
			<g id="Isolation Mode">
				<g id="Group_2">
					<path id="Vector" class="s0" d="m23.3 57.8c-2.4 0-4.5-1.4-5.3-3.5l-1.9-4.6q-0.1 0-0.2 0-1.3 0-2.6-0.4-0.9-0.3-1.7-0.7-0.7-0.4-1.4-1c-1.2-1-2.1-2.2-2.7-3.6-0.9-2.3-0.9-4.8 0.1-7 1-2.3 2.8-4 5.1-4.9l7.8-3.1 0.1 0.3c2.5-1.4 7.5-5 9.2-10.7 0.6-3.9 2.5-5.4 4-6q1-0.4 2-0.4c5.5 0 11.1 7.6 14.1 15.2 3.7 9 4.4 19.3-1.4 21.5q-0.9 0.4-2 0.4-2.4 0-5.1-2c-2.5-1.4-5.5-2.2-8.9-2.2-2.4 0-4.4 0.4-5.7 0.7l1.8 4.3c0.5 1.4 0.5 3-0.1 4.3-0.6 1.4-1.7 2.5-3.1 3q-1 0.4-2.1 0.4z"/>
					<g id="Group_3">
						<path id="Vector_2" class="s1" d="m24.5 55.3c-1.7 0.6-3.6-0.2-4.3-1.9l-3.4-8.3 6.2-2.4 3.4 8.3c0.6 1.7-0.2 3.6-1.9 4.3z"/>
						<g id="Vector_3" style="opacity: .4">
							<path id="Layer" class="s2" d="m24.6 46.5l-5.6 4.1-2.2-5.5 6.2-2.4z"/>
						</g>
						<path id="Vector_4" class="s3" d="m24.3 44.7l-5.6 2.2c-3.6 1.4-7.6-0.3-9-3.8-1.4-3.5 0.3-7.4 3.9-8.8l5.6-2.2z"/>
						<g id="Vector_5" style="opacity: .7">
							<path id="Layer" class="s2" d="m9.7 43.1c1.4 3.5 5.4 5.2 9 3.8l5.6-2.2-2.6-6.3-12 4.7z"/>
						</g>
						<path id="Vector_6" class="s1" d="m24.3 44.7c1.4-0.6 1.4-3.8 0-7.3-1.4-3.5-3.7-5.9-5.1-5.3-1.4 0.6-1.4 3.8 0 7.3 1.4 3.5 3.7 5.8 5.1 5.3z"/>
						<path id="Vector_7" class="s4" d="m20.1 32.3c-1.3 0.5-1.3 3.5 0 6.7 1.3 3.2 3.4 5.4 4.7 4.9 0.1 0 10-3.4 18.2 1.6l-10.8-26.6c-2.4 9.1-12 13.4-12.1 13.4z"/>
						<path id="Vector_8" class="s5" d="m20.1 39c1.3 3.2 3.4 5.4 4.7 4.9 0.1 0 10-3.4 18.2 1.6l-5.4-13.3z"/>
						<path id="Vector_9" class="s1" d="m47.7 46.8c3.6-1.4 3.6-9.7 0-18.6-3.6-8.8-9.4-14.8-13-13.4-3.6 1.4-3.6 9.7 0 18.5 3.5 8.9 9.4 14.9 13 13.5z"/>
						<path id="Vector_10" class="s4" d="m45.4 29.1c2.9 7 3.3 13.5 0.9 14.4-2.3 0.9-6.5-4-9.4-11.1-2.8-7-3.2-13.4-0.9-14.4 2.4-0.9 6.6 4.1 9.4 11.1z"/>
						<path id="Vector_11" class="s5" d="m35 19.1c-1.1 2.3-0.4 7.6 1.9 13.3 2.3 5.8 5.6 10.1 8 11 1.1-2.2 0.4-7.6-2-13.3-2.3-5.8-5.5-10.1-7.9-11z"/>
						<path id="Vector_12" class="s3" d="m41.2 30.8c-0.9-2.3-3.4-3.4-5.7-2.6q0.5 2 1.4 4.2 0.9 2.2 2 4.1c2.1-1 3.2-3.5 2.3-5.7z"/>
						<g id="Vector_13" style="opacity: .7">
							<path id="Layer" class="s2" d="m36.9 32.4q0.9 2.2 2 4.1c2.1-1 3.2-3.5 2.3-5.7z"/>
						</g>
					</g>
				</g>
			</g>
		</g>
	</g>
</svg>