<svg width="158" height="22" viewBox="0 0 158 22" fill="none" xmlns="http://www.w3.org/2000/svg">
<path d="M0.84613 0.538574H147.416L157.769 11.0001L147.416 21.4617H0.84613V0.538574Z" fill="#00ABC8"/>
<path d="M110.249 12.1127L111.648 14.6924H110.082L108.782 12.2702H107.896V14.6924H106.439V7.80005H109.245C110.702 7.80005 111.598 8.64682 111.598 10.0253C111.598 11.0296 111.096 11.7779 110.249 12.1028V12.1127ZM107.896 10.941H109.068C109.767 10.941 110.141 10.616 110.141 10.0154C110.141 9.42466 109.777 9.12928 109.068 9.12928H107.896V10.941Z" fill="white"/>
<path d="M98.4102 14.6924V7.80005H102.851V9.13913H99.8674V10.5373H102.585V11.8173H99.8674V13.3533H102.861V14.6924H98.4102Z" fill="white"/>
<path d="M89.8525 14.6924V7.80005H92.6783C94.1454 7.80005 95.0709 8.65666 95.0709 10.0745C95.0709 11.5022 94.1651 12.3391 92.6586 12.3391H91.3097V14.6924H89.8525ZM91.3097 11H92.6389C93.2199 11 93.6137 10.6456 93.6137 10.0647C93.6137 9.43451 93.2789 9.12928 92.6488 9.12928H91.3097V11Z" fill="white"/>
<path d="M85.2655 14.6924L84.9012 13.6191H82.2624L81.8981 14.6924H80.4507L82.9123 7.80005H84.2514L86.7129 14.6924H85.2655ZM82.7055 12.3391H84.4581L83.5917 9.79882H83.572L82.7055 12.3391Z" fill="white"/>
<path d="M72.6217 14.6924V7.80005H75.4475C76.9146 7.80005 77.8402 8.65666 77.8402 10.0745C77.8402 11.5022 76.9343 12.3391 75.4279 12.3391H74.0789V14.6924H72.6217ZM74.0789 11H75.4082C75.9891 11 76.3829 10.6456 76.3829 10.0647C76.3829 9.43451 76.0482 9.12928 75.418 9.12928H74.0789V11Z" fill="white"/>
<path d="M59.5736 14.6924V7.80005H64.0142V9.13913H61.0308V10.5373H63.7484V11.8173H61.0308V13.3533H64.0241V14.6924H59.5736Z" fill="white"/>
<path d="M52.7062 14.6924V9.13913H50.7075V7.80005H56.1524V9.13913H54.1635V14.6924H52.7062Z" fill="white"/>
<path d="M46.6025 14.6924V7.80005H48.0597V14.6924H46.6025Z" fill="white"/>
<path d="M37.5736 14.6924V7.80005H39.0308V10.4979H41.2659V7.80005H42.7231V14.6924H41.2659V11.8271H39.0308V14.6924H37.5736Z" fill="white"/>
<path d="M27.0271 14.6924L25.56 7.80005H27.0468L27.9723 12.3391H27.992L29.2523 7.80005H30.5914L31.8517 12.3391H31.8714L32.7969 7.80005H34.2837L32.8265 14.6924H31.2806L29.9317 9.9662H29.912L28.5631 14.6924H27.0271Z" fill="white"/>
</svg>
