<svg width="255" height="34" viewBox="0 0 255 34" fill="none" xmlns="http://www.w3.org/2000/svg">
<path d="M0 0H238.176L255 17L238.176 34H0V0Z" fill="#00ABC8"/>
<path d="M177.78 18.8079L180.052 22.9999H177.508L175.396 19.0639H173.956V22.9999H171.588V11.7999H176.148C178.516 11.7999 179.972 13.1759 179.972 15.4159C179.972 17.0479 179.156 18.2639 177.78 18.7919V18.8079ZM173.956 16.9039H175.86C176.996 16.9039 177.604 16.3759 177.604 15.3999C177.604 14.4399 177.012 13.9599 175.86 13.9599H173.956V16.9039Z" fill="white"/>
<path d="M158.542 22.9999V11.7999H165.757V13.9759H160.91V16.2479H165.326V18.3279H160.91V20.8239H165.773V22.9999H158.542Z" fill="white"/>
<path d="M144.635 22.9999V11.7999H149.227C151.611 11.7999 153.115 13.1919 153.115 15.4959C153.115 17.8159 151.643 19.1759 149.195 19.1759H147.003V22.9999H144.635ZM147.003 16.9999H149.163C150.107 16.9999 150.747 16.4239 150.747 15.4799C150.747 14.4559 150.203 13.9599 149.179 13.9599H147.003V16.9999Z" fill="white"/>
<path d="M137.181 22.9999L136.589 21.2559H132.301L131.709 22.9999H129.357L133.357 11.7999H135.533L139.533 22.9999H137.181ZM133.021 19.1759H135.869L134.461 15.0479H134.429L133.021 19.1759Z" fill="white"/>
<path d="M116.635 22.9999V11.7999H121.227C123.611 11.7999 125.115 13.1919 125.115 15.4959C125.115 17.8159 123.643 19.1759 121.195 19.1759H119.003V22.9999H116.635ZM119.003 16.9999H121.163C122.107 16.9999 122.747 16.4239 122.747 15.4799C122.747 14.4559 122.203 13.9599 121.179 13.9599H119.003V16.9999Z" fill="white"/>
<path d="M95.4321 22.9999V11.7999H102.648V13.9759H97.8001V16.2479H102.216V18.3279H97.8001V20.8239H102.664V22.9999H95.4321Z" fill="white"/>
<path d="M84.2726 22.9999V13.9759H81.0246V11.7999H89.8726V13.9759H86.6406V22.9999H84.2726Z" fill="white"/>
<path d="M74.354 22.9999V11.7999H76.722V22.9999H74.354Z" fill="white"/>
<path d="M59.6821 22.9999V11.7999H62.0501V16.1839H65.6821V11.7999H68.0501V22.9999H65.6821V18.3439H62.0501V22.9999H59.6821Z" fill="white"/>
<path d="M42.544 22.9999L40.16 11.7999H42.576L44.08 19.1759H44.112L46.16 11.7999H48.336L50.384 19.1759H50.416L51.92 11.7999H54.336L51.968 22.9999H49.456L47.264 15.3199H47.232L45.04 22.9999H42.544Z" fill="white"/>
</svg>
