<svg width="56" height="56" viewBox="0 0 56 56" fill="none" xmlns="http://www.w3.org/2000/svg">
<path d="M27.3803 19.9547C27.16 19.3573 26.5216 18.2261 24.8267 18.2261C24.192 18.2261 23.5611 18.3979 23.0646 18.8048C22.5792 19.208 22.2768 19.7381 22.2395 20.3728C22.1312 22.2133 23.8486 22.8592 25.2486 23.4304C26.3984 23.9008 27.4587 24.7931 27.3766 26.1483C27.3392 26.7829 27.0368 27.3131 26.5515 27.7163C26.0587 28.1232 25.424 28.2949 24.7894 28.2949C23.0944 28.2949 22.456 27.1675 22.2358 26.5664" stroke="#00AECB" stroke-width="1.5" stroke-linecap="round" stroke-linejoin="round"/>
<path d="M24.8118 16.912V18.2299" stroke="#00AECB" stroke-width="1.5" stroke-linecap="round" stroke-linejoin="round"/>
<path d="M24.8118 28.2986V29.6165" stroke="#00AECB" stroke-width="1.5" stroke-linecap="round" stroke-linejoin="round"/>
<path d="M39.2597 12.32C40.9659 12.32 42.3509 13.7051 42.3509 15.4112V23.2363C42.3509 23.2363 42.3397 23.2661 42.3211 23.2661H36.2021C36.2021 23.2661 36.1723 23.2549 36.1723 23.2363V15.4112C36.1723 13.7051 37.5573 12.32 39.2635 12.32H39.2597Z" stroke="#0D2332" stroke-width="1.5" stroke-linecap="round" stroke-linejoin="round"/>
<path d="M19.8576 36.3253H29.7547" stroke="#0D2332" stroke-width="1.5" stroke-linecap="round" stroke-linejoin="round"/>
<path d="M19.8576 33.1632H29.7547" stroke="#0D2332" stroke-width="1.5" stroke-linecap="round" stroke-linejoin="round"/>
<path d="M36.1685 23.2661V44.0533L30.4864 40.7456L24.8043 44.0533L19.1221 40.7456L13.44 44.0533V15.8965C13.4437 13.9216 15.0453 12.32 17.0203 12.32H39.2597" stroke="#0D2332" stroke-width="1.5" stroke-linecap="round" stroke-linejoin="round"/>
</svg>
