<svg width="453" height="52" viewBox="0 0 453 52" fill="none" xmlns="http://www.w3.org/2000/svg">
<g clip-path="url(#clip0_99_2167)">
<path d="M21.1175 26.4549C21.1175 20.8903 17.6362 18.0217 13.7156 18.0217C9.79497 18.0217 6.31362 20.8903 6.31362 26.4549C6.31362 32.0194 9.85397 34.9943 13.7156 34.9943C17.5772 34.9943 21.1175 32.0725 21.1175 26.4549ZM27.4836 26.4549C27.4836 34.722 21.6617 40.7315 13.7156 40.7315C5.76946 40.7315 0 34.722 0 26.4549C0 18.1877 5.82191 12.238 13.7156 12.238C21.6092 12.238 27.4836 18.2475 27.4836 26.4549Z" fill="#00ABC8"/>
<path d="M44.4052 34.9411C48.5421 34.9411 51.4269 31.4683 51.4269 26.342C51.4269 21.2157 48.5946 18.0217 44.4642 18.0217C40.3338 18.0217 37.2786 21.2754 37.2786 26.4017C37.2786 31.528 40.1109 34.9411 44.4052 34.9411ZM57.5241 34.9943C57.5241 37.418 57.7405 39.4565 57.7929 39.9014H51.7547C51.6432 39.2972 51.4793 37.5308 51.4793 36.4286C50.2271 38.6862 47.4538 40.5654 43.6971 40.5654C36.0788 40.5654 30.965 34.5029 30.965 26.4017C30.965 18.3006 36.1378 12.3509 43.5922 12.3509C48.2209 12.3509 50.5615 14.5024 51.3744 16.2089V0H57.5241V34.9943Z" fill="#00ABC8"/>
<path d="M81.5723 23.5331C81.4608 20.3923 79.3956 17.5835 75.0423 17.5835C71.0693 17.5835 68.7877 20.6712 68.5648 23.5331H81.5723ZM87.6171 32.2452C86.201 36.9332 82.0116 40.7315 75.6455 40.7315C68.4599 40.7315 62.0938 35.4392 62.0938 26.3486C62.0938 17.8624 68.296 12.238 74.9899 12.238C83.1523 12.238 87.9384 17.6963 87.9384 26.1826C87.9384 27.2318 87.8335 28.1149 87.7745 28.2212H68.4009C68.5648 32.2983 71.7183 35.22 75.6389 35.22C79.5595 35.22 81.4084 33.1815 82.2804 30.532L87.6106 32.2385L87.6171 32.2452Z" fill="#00ABC8"/>
<path d="M97.1367 31.0831C97.3531 33.5068 99.1495 35.6583 102.526 35.6583C105.142 35.6583 106.499 34.224 106.499 32.5706C106.499 31.1362 105.522 30.034 103.398 29.5957L99.4773 28.7126C94.7962 27.6634 92.3507 24.5757 92.3507 20.8837C92.3507 16.2023 96.5926 12.2314 102.093 12.2314C109.495 12.2314 111.888 17.0788 112.321 19.7283L106.991 21.2754C106.774 19.7283 105.634 17.2514 102.093 17.2514C99.8641 17.2514 98.2841 18.6857 98.2841 20.3392C98.2841 21.7735 99.3199 22.8226 100.952 23.148L104.978 23.9714C109.987 25.0737 112.596 28.1614 112.596 32.1257C112.596 36.0899 109.331 40.7248 102.585 40.7248C94.9142 40.7248 91.9704 35.6516 91.6492 32.6237L97.1433 31.0831H97.1367Z" fill="#00ABC8"/>
<path d="M122.004 31.0831C122.221 33.5068 124.017 35.6583 127.394 35.6583C130.01 35.6583 131.367 34.224 131.367 32.5706C131.367 31.1362 130.39 30.034 128.266 29.5957L124.345 28.7126C119.664 27.6634 117.218 24.5757 117.218 20.8837C117.218 16.2023 121.46 12.2314 126.961 12.2314C134.363 12.2314 136.756 17.0788 137.189 19.7283L131.858 21.2754C131.642 19.7283 130.501 17.2514 126.961 17.2514C124.732 17.2514 123.152 18.6857 123.152 20.3392C123.152 21.7735 124.188 22.8226 125.82 23.148L129.846 23.9714C134.855 25.0737 137.464 28.1614 137.464 32.1257C137.464 36.0899 134.199 40.7248 127.453 40.7248C119.782 40.7248 116.838 35.6516 116.517 32.6237L122.011 31.0831H122.004Z" fill="#00ABC8"/>
<path d="M158.47 28.7723V27.5572L151.56 28.6063C149.599 28.9383 148.019 30.0406 148.019 32.2452C148.019 34.0646 149.383 35.7181 151.888 35.7181C155.421 35.7181 158.47 34.0115 158.47 28.7723ZM149.704 24.5292L156.51 23.48C158.031 23.2609 158.47 22.4906 158.47 21.5543C158.47 19.2966 156.942 17.4772 153.461 17.4772C149.98 17.4772 148.295 19.6287 148.019 22.3246L142.25 21.0032C142.742 16.3749 146.872 12.238 153.409 12.238C161.571 12.238 164.672 16.9194 164.672 22.2649V35.6052C164.672 38.0289 164.941 39.6292 165 39.9081H159.126C159.073 39.7421 158.85 38.6398 158.85 36.4883C157.598 38.5269 154.989 40.7315 150.688 40.7315C145.135 40.7315 141.712 36.8735 141.712 32.6303C141.712 27.836 145.194 25.1932 149.711 24.5292" fill="#00ABC8"/>
<path d="M25.8249 47.8232H1.03588V52H25.8249V47.8232Z" fill="#00ABC8"/>
</g>
<path d="M198 9H436.176L453 26L436.176 43H198V9Z" fill="#00ABC8"/>
<path d="M375.78 27.808L378.052 32H375.508L373.396 28.064H371.956V32H369.588V20.8H374.148C376.516 20.8 377.972 22.176 377.972 24.416C377.972 26.048 377.156 27.264 375.78 27.792V27.808ZM371.956 25.904H373.86C374.996 25.904 375.604 25.376 375.604 24.4C375.604 23.44 375.012 22.96 373.86 22.96H371.956V25.904Z" fill="white"/>
<path d="M356.542 32V20.8H363.758V22.976H358.91V25.248H363.326V27.328H358.91V29.824H363.774V32H356.542Z" fill="white"/>
<path d="M342.635 32V20.8H347.227C349.611 20.8 351.115 22.192 351.115 24.496C351.115 26.816 349.643 28.176 347.195 28.176H345.003V32H342.635ZM345.003 26H347.163C348.107 26 348.747 25.424 348.747 24.48C348.747 23.456 348.203 22.96 347.179 22.96H345.003V26Z" fill="white"/>
<path d="M335.181 32L334.589 30.256H330.301L329.709 32H327.357L331.357 20.8H333.533L337.533 32H335.181ZM331.021 28.176H333.869L332.461 24.048H332.429L331.021 28.176Z" fill="white"/>
<path d="M314.635 32V20.8H319.227C321.611 20.8 323.115 22.192 323.115 24.496C323.115 26.816 321.643 28.176 319.195 28.176H317.003V32H314.635ZM317.003 26H319.163C320.107 26 320.747 25.424 320.747 24.48C320.747 23.456 320.203 22.96 319.179 22.96H317.003V26Z" fill="white"/>
<path d="M293.432 32V20.8H300.648V22.976H295.8V25.248H300.216V27.328H295.8V29.824H300.664V32H293.432Z" fill="white"/>
<path d="M282.273 32V22.976H279.025V20.8H287.873V22.976H284.641V32H282.273Z" fill="white"/>
<path d="M272.354 32V20.8H274.722V32H272.354Z" fill="white"/>
<path d="M257.682 32V20.8H260.05V25.184H263.682V20.8H266.05V32H263.682V27.344H260.05V32H257.682Z" fill="white"/>
<path d="M240.544 32L238.16 20.8H240.576L242.08 28.176H242.112L244.16 20.8H246.336L248.384 28.176H248.416L249.92 20.8H252.336L249.968 32H247.456L245.264 24.32H245.232L243.04 32H240.544Z" fill="white"/>
<defs>
<clipPath id="clip0_99_2167">
<rect width="165" height="52" fill="white"/>
</clipPath>
</defs>
</svg>
