<svg width="117" height="28" viewBox="0 0 117 28" fill="none" xmlns="http://www.w3.org/2000/svg">
<path fill-rule="evenodd" clip-rule="evenodd" d="M103.493 0.133352C114.7 0.152549 114.975 0.157348 115.459 0.382917C115.729 0.507699 116.068 0.752465 116.213 0.925241C116.357 1.09802 116.548 1.51076 116.641 1.84191C116.785 2.36024 116.808 4.04 116.813 14.013C116.813 23.2085 116.78 25.6898 116.664 26.0977C116.585 26.3809 116.417 26.7696 116.292 26.9568C116.166 27.1488 115.812 27.4319 114.961 27.8735H103.381C97.0143 27.8735 91.6155 27.8351 91.3828 27.7871C91.1548 27.7391 90.7778 27.5327 90.5544 27.3311C90.331 27.1248 90.0517 26.7504 89.94 26.5009C89.7492 26.0641 89.7399 25.3874 89.7399 14.013C89.7399 2.6386 89.7492 1.9619 89.94 1.52516C90.0517 1.27559 90.331 0.901244 90.5544 0.694873C90.7964 0.478903 91.1361 0.296529 91.3828 0.258134C91.6155 0.21974 91.8529 0.171746 91.9134 0.152549C91.9785 0.128552 97.1865 0.118954 103.493 0.133352ZM92.0856 12.698H98.7968V7.6539H101.482V20.3721H98.7968V15.328H92.0856V25.5266H114.458L114.402 15.3856H107.691L107.635 20.3721H104.95V7.6539H107.635V12.698L114.402 12.6404L114.444 2.49942H92.0856V12.698ZM63.109 5.71977C63.4441 5.71497 64.0631 5.76296 64.4773 5.82535C64.8915 5.88775 65.6362 6.07972 67.0277 6.56925V8.02825C67.0231 8.82973 66.9859 9.47284 66.9393 9.45365C66.8928 9.43445 66.5298 9.25688 66.1295 9.0601C65.7293 8.85853 65.0963 8.61376 64.7286 8.51778C64.3609 8.42179 63.7047 8.3402 63.2765 8.345C62.8437 8.345 62.3038 8.393 62.0711 8.46019C61.8431 8.52258 61.4707 8.73855 61.252 8.94492C61.0053 9.17529 60.8098 9.49204 60.74 9.7752C60.6795 10.0248 60.6562 10.3991 60.6935 10.6055C60.7261 10.8119 60.8936 11.1382 61.0658 11.335C61.2334 11.5366 61.6615 11.8437 62.0153 12.0261C62.369 12.2037 63.2253 12.5492 63.9188 12.794C64.6123 13.0387 65.4919 13.3987 65.8735 13.5955C66.2598 13.7922 66.809 14.1762 67.0929 14.4449C67.3768 14.7089 67.7212 15.1361 67.8608 15.3856C68.0005 15.64 68.1773 16.1295 68.2564 16.4751C68.3402 16.8398 68.3681 17.4205 68.3356 17.8525C68.2983 18.2604 68.1587 18.9035 68.0191 19.2827C67.8283 19.8058 67.5909 20.1514 67.0324 20.7225C66.4646 21.2984 66.1202 21.5432 65.5384 21.7831C65.1242 21.9511 64.347 22.1431 63.8071 22.2103C63.1229 22.2919 62.5412 22.2919 61.8756 22.2103C61.3544 22.1431 60.5957 21.9895 60.2001 21.8743C59.7999 21.7543 59.2321 21.548 58.4083 21.1736V19.681C58.4083 18.8651 58.4316 18.1932 58.4642 18.1932C58.4967 18.1932 58.7574 18.342 59.0506 18.5196C59.3438 18.6972 59.9349 18.9851 60.3677 19.1579C60.7959 19.3355 61.4242 19.5274 61.7639 19.5946C62.1037 19.657 62.732 19.6858 63.1648 19.6618C63.7047 19.633 64.1189 19.5274 64.5052 19.3307C64.9287 19.1147 65.1289 18.9227 65.3243 18.534C65.5012 18.1788 65.571 17.8813 65.5431 17.5645C65.5198 17.3101 65.4174 16.9646 65.3104 16.7918C65.208 16.619 64.9334 16.3503 64.7007 16.1919C64.4726 16.0335 63.4487 15.592 62.4341 15.2128C61.4195 14.8289 60.3398 14.3778 60.0373 14.205C59.7394 14.037 59.2693 13.6771 59.004 13.4131C58.7388 13.1443 58.4223 12.7316 58.3059 12.4964C58.1896 12.2613 58.0313 11.7285 57.9522 11.3206C57.8452 10.7447 57.8405 10.3991 57.9429 9.7752C58.0127 9.33366 58.1989 8.70015 58.3525 8.369C58.506 8.04264 58.8598 7.53871 59.1343 7.25555C59.4136 6.97239 59.9535 6.57885 60.3398 6.38208C60.7214 6.1853 61.3637 5.95494 61.7639 5.87815C62.1642 5.79656 62.7692 5.72457 63.109 5.71977ZM0.455078 6.05092H12.984V8.68575H8.17628L8.12043 21.9175L5.37915 21.9751V8.68575H0.455078V6.05092ZM16.6933 6.03653L20.4027 6.07972C23.9212 6.11811 24.1539 6.13251 24.7869 6.37728C25.1592 6.51646 25.6618 6.75642 25.9085 6.9004C26.1552 7.04918 26.5927 7.43313 26.8859 7.75948C27.1791 8.08104 27.5421 8.61376 27.6957 8.94492C27.8446 9.27607 28.0261 9.85679 28.096 10.2311C28.1658 10.6103 28.1937 11.2438 28.1565 11.6373C28.1192 12.0309 27.9889 12.6212 27.8632 12.9524C27.7376 13.2835 27.5002 13.7586 27.3327 14.0034C27.1651 14.253 26.723 14.6801 26.3553 14.9537C25.9876 15.232 25.4431 15.5296 24.6193 15.7888L24.9125 16.1631C25.0754 16.3647 25.471 17.0222 25.7922 17.6221C26.118 18.222 26.5275 18.8267 26.7044 18.9707C26.8812 19.1147 27.2024 19.2923 27.4165 19.3595C27.6352 19.4267 27.9749 19.4506 28.5381 19.3403V21.9751L28.0029 22.0375C27.7143 22.0759 27.1698 22.0567 26.8021 21.9943C26.4344 21.9367 25.8806 21.7783 25.5734 21.6391C25.243 21.4904 24.7915 21.1448 24.4704 20.7945C24.1306 20.4153 23.6699 19.6714 23.2231 18.7691C22.8321 17.9773 22.3435 17.171 22.1387 16.9694C21.9339 16.7678 21.6314 16.5519 21.4592 16.4847C21.2916 16.4175 20.775 16.3599 19.4765 16.3599V21.9751L16.7352 21.9175L16.6933 6.03653ZM19.4765 13.8402C21.9432 13.8354 22.9671 13.773 23.3394 13.6963C23.7118 13.6195 24.1911 13.4227 24.4052 13.2595C24.6147 13.1011 24.9125 12.7124 25.0615 12.4004C25.2476 12.0117 25.3361 11.6373 25.3361 11.2054C25.3361 10.7591 25.2569 10.4135 25.0568 10.0056C24.852 9.59283 24.624 9.33366 24.233 9.0889L23.6885 8.74335L19.4858 8.67136L19.4765 13.8402ZM32.5639 6.05092H35.3611L35.3564 11.2918C35.3564 16.1871 35.3704 16.5807 35.5751 17.2766C35.7194 17.7517 35.9521 18.2028 36.2221 18.5244C36.4548 18.8027 36.9016 19.1627 37.2087 19.3211C37.6835 19.5706 37.9162 19.6186 38.7725 19.6234C39.5963 19.6234 39.8849 19.5754 40.341 19.3643C40.6481 19.2155 41.0624 18.9323 41.2625 18.7308C41.4626 18.5292 41.7651 18.0588 42.2399 16.9934L42.2957 6.05092L45.037 6.10852L45.0696 10.8071C45.0928 13.4995 45.0556 15.9423 44.9904 16.5327C44.9299 17.099 44.7717 17.8717 44.646 18.2508C44.5204 18.63 44.1992 19.2731 43.9293 19.681C43.6594 20.0938 43.1707 20.6409 42.8402 20.9C42.5098 21.164 42.0258 21.4856 41.7651 21.6199C41.5045 21.7495 40.9739 21.9463 40.5923 22.0519C40.1641 22.1671 39.4613 22.2439 38.7725 22.2439C38.0279 22.2439 37.4321 22.1767 36.9853 22.0423C36.613 21.9319 36.0126 21.6775 35.6403 21.476C35.2726 21.2792 34.6909 20.8329 34.3511 20.4873C33.9602 20.089 33.5739 19.537 33.3086 18.9947C33.0526 18.4668 32.8292 17.7853 32.7315 17.219C32.6105 16.5183 32.5732 15.1073 32.5686 11.1766L32.5639 6.05092ZM50.352 6.05092H53.1491V21.9751L50.4079 21.9175L50.352 6.05092ZM70.4904 6.05092H83.0193V8.68575H78.0999V21.9751H75.4145V8.68575H70.4904V6.05092Z" fill="#0D2332"/>
</svg>
