<svg width="115" height="38" viewBox="0 0 115 38" fill="none" xmlns="http://www.w3.org/2000/svg">
<path d="M48.6724 23.23C49.0935 24.3942 49.8844 25.1904 50.953 25.7212C52.0305 26.2555 53.154 26.3616 54.3323 26.0272C54.1943 26.2236 54.0563 26.4182 53.9183 26.6146C53.2902 27.5099 52.7966 28.4688 52.4834 29.5198C52.2888 30.1708 52.2163 30.8343 52.2977 31.5049C52.4339 32.639 53.0921 33.3891 54.12 33.835C54.81 34.1358 55.5389 34.2702 56.2838 34.3658C57.2215 34.4861 58.161 34.4701 59.0987 34.4153C59.886 34.3693 60.6716 34.2561 61.4536 34.1464C62.0604 34.0614 62.6655 33.9588 63.2618 33.8244C64.1322 33.628 64.9956 33.4086 65.8573 33.175C66.5543 32.9875 67.2532 32.7911 67.9344 32.554C69.0543 32.1666 70.1796 31.7879 71.2676 31.3226C72.7149 30.7052 74.1445 30.0399 75.551 29.334C76.7258 28.7448 77.8581 28.0725 79.0046 27.4267C80.282 26.7066 81.501 25.8981 82.6688 25.0117C82.943 24.8047 82.9501 24.8064 83.2703 25.0241C83.1075 25.1585 82.9518 25.2912 82.7926 25.4204C80.7827 27.0534 78.6525 28.5166 76.464 29.8931C74.8398 30.9139 73.1466 31.818 71.4357 32.685C69.7709 33.5271 68.0671 34.2808 66.3243 34.9443C65.3937 35.2982 64.4684 35.6644 63.5236 35.9758C62.5169 36.3066 61.4978 36.6074 60.4716 36.8675C59.5056 37.1134 58.5219 37.2992 57.5435 37.4903C56.8393 37.6283 56.1316 37.7733 55.4186 37.8406C54.4208 37.9343 53.4176 37.9945 52.4162 37.9998C51.5705 38.0033 50.7177 37.9609 49.8809 37.8423C48.5804 37.6601 47.3207 37.2992 46.2079 36.572C45.2366 35.9369 44.5288 35.0841 44.2015 33.9411C43.9485 33.0618 43.922 32.1719 44.0405 31.2784C44.2458 29.7232 44.8579 28.3131 45.6523 26.9756C46.4556 25.6203 47.4587 24.4225 48.5628 23.3026C48.5911 23.2743 48.63 23.2583 48.6778 23.2283L48.6724 23.23Z" fill="#0D2332"/>
<path d="M92.096 12.8746C90.1745 10.9992 87.8834 10.8877 85.4259 11.4044C85.4665 11.323 85.5037 11.231 85.555 11.146C86.1212 10.219 86.6413 9.26886 87.0518 8.26215C87.2906 7.67476 87.4782 7.06967 87.526 6.43451C87.602 5.44019 87.1686 4.70771 86.3388 4.18401C85.7337 3.80362 85.0649 3.59308 84.3731 3.46039C83.2532 3.24807 82.1173 3.15961 80.9779 3.24631C79.9783 3.32238 78.9787 3.402 77.9843 3.53116C77.2041 3.632 76.4309 3.80008 75.6613 3.96109C74.8917 4.12209 74.1221 4.29371 73.363 4.49894C72.551 4.71833 71.7477 4.97133 70.948 5.22964C70.1536 5.48619 69.361 5.74804 68.5807 6.04173C67.7421 6.35666 66.9017 6.67867 66.0896 7.05906C64.7768 7.67122 63.4711 8.29931 62.1955 8.98401C61.118 9.56256 60.0812 10.219 59.0391 10.863C58.5331 11.1744 58.0466 11.5194 57.5706 11.8767C57.3495 12.0413 57.1708 12.0271 56.916 11.8343C56.9744 11.8007 57.0381 11.7724 57.0912 11.7317C58.6711 10.4773 60.3112 9.30425 62.0221 8.23208C63.8197 7.10329 65.6827 6.09481 67.6006 5.19072C68.9682 4.54494 70.3588 3.94516 71.7636 3.38431C72.9473 2.91192 74.1627 2.51737 75.3712 2.10336C76.0541 1.86982 76.7423 1.64866 77.4376 1.45582C78.1613 1.25412 78.8955 1.0825 79.628 0.91973C80.3622 0.756958 81.1 0.604802 81.8396 0.473877C82.4022 0.373029 82.9701 0.309336 83.5363 0.233257C85.0313 0.0297927 86.5334 -0.0392084 88.039 0.0209464C89.0688 0.0616394 90.0861 0.199642 91.091 0.440261C92.0906 0.68088 93.0284 1.05066 93.8705 1.64336C94.8737 2.35106 95.5425 3.28877 95.7725 4.50779C95.9299 5.33934 95.8751 6.16381 95.6557 6.98121C95.2293 8.5647 94.396 9.93587 93.4264 11.2327C93.0372 11.7547 92.6161 12.2518 92.2074 12.7596C92.1738 12.8021 92.1331 12.841 92.0977 12.8781L92.096 12.8746Z" fill="#0D2332"/>
<path d="M38.4609 23.5698V8.92212C38.5388 8.91858 38.6078 8.91151 38.6768 8.91151C40.3045 8.91151 41.9305 8.90266 43.5582 8.91505C44.5012 8.92212 45.423 9.05836 46.274 9.50421C47.1215 9.94652 47.7 10.6259 47.9265 11.5459C48.1812 12.5845 48.1229 13.6036 47.447 14.5041C47.0489 15.0331 46.5181 15.387 45.9148 15.64C45.8193 15.6807 45.722 15.7214 45.6264 15.7638C45.6017 15.7745 45.5769 15.7922 45.5238 15.824C45.8034 15.8948 46.0369 15.9514 46.2704 16.0133C46.964 16.1991 47.5018 16.6255 47.9282 17.1757C48.5546 17.9843 48.7934 18.9291 48.6837 19.934C48.5369 21.2839 47.8009 22.2535 46.6084 22.8816C45.9219 23.2425 45.1894 23.4548 44.4145 23.5026C43.9085 23.5327 43.4007 23.5663 42.8929 23.5698C41.5058 23.5787 40.1205 23.5734 38.7334 23.5734C38.6502 23.5734 38.5653 23.5734 38.4609 23.5734V23.5698ZM40.4425 19.2652C40.4425 20.0278 40.4496 20.7921 40.439 21.5546C40.4354 21.7705 40.508 21.8306 40.7203 21.8289C41.5837 21.8182 42.4453 21.8253 43.3087 21.8236C43.8165 21.8236 44.319 21.7811 44.809 21.6307C45.7485 21.3441 46.4084 20.785 46.5588 19.7712C46.6915 18.876 46.5199 18.0533 45.7998 17.434C45.3044 17.0094 44.6993 16.7953 44.0589 16.7688C42.9425 16.7228 41.8261 16.7316 40.7079 16.7069C40.4991 16.7016 40.439 16.7741 40.4407 16.974C40.4478 17.7366 40.4443 18.5009 40.4443 19.2634L40.4425 19.2652ZM40.4726 10.6454C40.462 10.7179 40.4443 10.7869 40.4425 10.8542C40.4407 12.1687 40.4425 13.4815 40.439 14.7961C40.439 14.9606 40.4885 15.0385 40.6707 15.0331C41.7075 15.0066 42.7479 15.0101 43.7829 14.9606C44.3667 14.9323 44.9134 14.7253 45.3469 14.3148C45.9254 13.7681 46.0068 13.0675 45.8918 12.3279C45.8246 11.8927 45.6176 11.5229 45.2938 11.2186C44.809 10.7657 44.2128 10.6418 43.5794 10.6365C42.6045 10.6295 41.6279 10.6348 40.653 10.6365C40.5964 10.6365 40.5416 10.6418 40.469 10.6454H40.4726Z" fill="#0D2332"/>
<path d="M103.088 22.2092V22.4569C103.088 24.6968 103.087 26.9384 103.092 29.1783C103.092 29.38 103.041 29.4472 102.832 29.4401C102.386 29.426 101.94 29.4366 101.496 29.4348C101.309 29.4348 101.215 29.3428 101.215 29.1588C101.215 26.7208 101.215 24.2828 101.215 21.843C101.215 19.2421 101.215 16.6413 101.215 14.0405C101.215 13.8518 101.312 13.7574 101.505 13.7574C102.02 13.7574 102.536 13.7574 103.083 13.7574V15.1127L103.142 15.141C103.182 15.0932 103.225 15.0437 103.265 14.9942C103.959 14.1343 104.868 13.6743 105.955 13.5487C106.27 13.5115 106.59 13.4637 106.903 13.485C108.718 13.6106 110.144 14.3944 111.018 16.0292C111.682 17.273 111.784 18.6034 111.5 19.9711C111.289 20.9796 110.817 21.8465 110.056 22.5489C109.453 23.1062 108.748 23.4742 107.945 23.6635C107.048 23.8741 106.151 23.9041 105.265 23.6441C104.477 23.4123 103.787 23.0089 103.269 22.3507C103.226 22.2976 103.186 22.2428 103.143 22.1897C103.126 22.195 103.106 22.2003 103.088 22.2074V22.2092ZM109.651 18.7291C109.668 18.7255 109.686 18.7237 109.704 18.7202C109.624 18.3239 109.587 17.9117 109.456 17.5313C109.031 16.3052 108.193 15.5019 106.896 15.2772C105.919 15.1074 105.026 15.3533 104.27 16.0221C103.602 16.6148 103.219 17.365 103.106 18.2443C103.042 18.7344 103.106 19.2227 103.242 19.7057C103.678 21.2556 105.362 22.425 107.05 22.0163C107.623 21.8783 108.131 21.6236 108.555 21.2237C109.272 20.5514 109.624 19.7092 109.651 18.7308V18.7291Z" fill="#0D2332"/>
<path d="M12.7836 8.92383H14.6484C14.6484 9.98008 14.6484 11.0292 14.6484 12.0784C14.6484 13.1276 14.6484 14.1803 14.6484 15.2312C14.6625 15.2348 14.6785 15.2365 14.6926 15.2401C14.774 15.1145 14.8483 14.9853 14.9385 14.865C15.4233 14.2174 16.0797 13.8371 16.8546 13.6531C17.7711 13.4354 18.6752 13.4744 19.5492 13.8441C20.4445 14.2228 21 14.911 21.3008 15.8222C21.4777 16.3583 21.5166 16.9156 21.522 17.4693C21.5396 19.4067 21.529 21.3423 21.529 23.2796C21.529 23.5591 21.5273 23.5609 21.2442 23.5609C20.7983 23.5609 20.3525 23.5503 19.9066 23.5662C19.6996 23.5733 19.6589 23.4972 19.6607 23.3114C19.666 21.5156 19.6713 19.7198 19.6607 17.9258C19.6572 17.3827 19.6076 16.8377 19.3528 16.3423C19.0432 15.7408 18.5372 15.3781 17.872 15.2861C16.9219 15.1534 15.8762 15.3728 15.2464 16.2645C14.8306 16.8554 14.6608 17.5242 14.6555 18.2319C14.6431 19.9145 14.6501 21.597 14.6501 23.2796C14.6501 23.4695 14.5528 23.5644 14.3582 23.5644C13.8982 23.5644 13.4382 23.5591 12.9782 23.568C12.826 23.5715 12.7712 23.5149 12.7854 23.3716C12.7889 23.3221 12.7854 23.2725 12.7854 23.223C12.7854 18.5574 12.7854 13.8919 12.7854 9.22637C12.7854 9.13614 12.7854 9.04414 12.7854 8.9256L12.7836 8.92383Z" fill="#0D2332"/>
<path d="M31.452 20.822C31.9279 21.1918 32.3826 21.5457 32.8461 21.9048C32.4162 22.4834 31.8996 22.9239 31.2945 23.2672C30.654 23.6316 29.9605 23.7962 29.2333 23.8917C28.3575 24.0067 27.5136 23.9076 26.6874 23.6405C25.571 23.2813 24.7359 22.5612 24.1485 21.5527C23.5522 20.5266 23.3523 19.4031 23.4425 18.2389C23.5646 16.659 24.2352 15.3373 25.5338 14.3961C26.169 13.9361 26.8944 13.6619 27.6835 13.5415C28.5115 13.4142 29.3236 13.4672 30.1109 13.7096C31.1583 14.0316 31.9774 14.6792 32.5294 15.6363C33.1717 16.7474 33.3238 17.9647 33.3026 19.2209C33.2991 19.4173 33.1735 19.3854 33.0567 19.3854C31.3529 19.3854 29.6473 19.3854 27.9435 19.3854C27.1721 19.3854 26.4025 19.3907 25.6311 19.3819C25.4613 19.3819 25.4029 19.4349 25.417 19.6013C25.4736 20.3036 25.755 20.907 26.2716 21.3776C27.0058 22.0446 27.8869 22.3507 28.883 22.2994C29.7093 22.2587 30.3904 21.896 30.9743 21.3298C31.1353 21.1724 31.2821 21.0025 31.4502 20.8238L31.452 20.822ZM31.3122 17.8798C31.2874 17.2464 31.1618 16.6678 30.8363 16.137C30.1816 15.0666 28.7344 14.8172 27.7118 15.0773C26.8324 15.302 26.192 15.8416 25.7585 16.6307C25.548 17.0146 25.4241 17.4251 25.4223 17.8815H31.3122V17.8798Z" fill="#0D2332"/>
<path d="M86.631 13.4779C89.5167 13.4938 91.8645 15.7549 91.868 18.7114C91.8716 21.597 89.5839 23.9413 86.6381 23.9325C83.6994 23.9236 81.4436 21.6767 81.4259 18.6901C81.4099 15.7903 83.7365 13.5381 86.6293 13.4797L86.631 13.4779ZM86.7106 15.2277C86.4895 15.2631 86.2666 15.2967 86.0454 15.3339C85.458 15.4312 84.9661 15.7231 84.5415 16.1229C83.9099 16.7156 83.5578 17.4552 83.4605 18.3151C83.3614 19.1873 83.556 19.9976 84.0444 20.7195C84.5398 21.452 85.2121 21.9456 86.1109 22.1101C86.7266 22.2234 87.3246 22.188 87.8925 21.9456C89.2283 21.3759 89.8599 20.2984 89.9962 18.8989C90.0439 18.4035 89.9395 17.917 89.7679 17.4517C89.2867 16.1424 88.1083 15.2401 86.7089 15.2259L86.7106 15.2277Z" fill="#0D2332"/>
<path d="M58.951 23.6688C58.4273 23.6688 57.9266 23.6723 57.4277 23.6617C57.3834 23.6617 57.3091 23.5573 57.3038 23.4954C57.2755 23.1433 57.2649 22.7895 57.2472 22.4374C57.2437 22.3613 57.2384 22.287 57.1888 22.1915C57.1057 22.2959 57.0225 22.3985 56.9411 22.5046C56.4103 23.1787 55.7398 23.6405 54.8888 23.7891C54.4128 23.8723 53.921 23.959 53.4433 23.9289C52.4844 23.867 51.5926 23.5821 50.9256 22.8319C50.4285 22.2729 50.2516 21.6041 50.2622 20.8645C50.2799 19.4827 51.0283 18.637 52.2349 18.1063C52.7409 17.8833 53.2734 17.7666 53.8148 17.671C54.8375 17.4906 55.869 17.5136 56.9004 17.5206C57.1057 17.5206 57.164 17.464 57.1587 17.2606C57.134 16.2698 56.6899 15.4966 55.7858 15.1728C55.2674 14.9871 54.7278 14.934 54.1652 15.0189C53.3513 15.1428 52.6631 15.4895 52.0491 16.015C51.9589 16.0928 51.881 16.1194 51.7837 16.0132C51.4847 15.6912 51.1822 15.3692 50.869 15.0614C50.777 14.9711 50.8018 14.9304 50.8796 14.865C51.4883 14.3696 52.157 13.9963 52.9125 13.761C53.6503 13.531 54.4005 13.4248 55.1648 13.4903C56.0671 13.5681 56.9411 13.7539 57.6895 14.3218C58.4255 14.8809 58.8325 15.6275 58.859 16.5316C58.9015 17.9364 58.8696 19.3447 58.882 20.7513C58.8908 21.6342 58.9262 22.517 58.9492 23.3999C58.951 23.476 58.9492 23.5538 58.9492 23.6688H58.951ZM56.3466 18.8777C56.3466 18.8777 56.3466 18.867 56.3466 18.8617C55.8459 18.8918 55.3452 18.906 54.8463 18.9537C54.2642 19.0104 53.6928 19.1254 53.1567 19.3713C52.3251 19.7517 51.9589 20.4895 52.1977 21.3086C52.3658 21.8854 52.9249 22.3277 53.599 22.379C54.0042 22.4091 54.4146 22.4162 54.818 22.3843C55.5062 22.3312 56.0706 22.0163 56.5077 21.4785C57.0915 20.7584 57.1747 19.9056 57.1446 19.028C57.1428 18.9767 57.0296 18.8918 56.9623 18.8865C56.7589 18.867 56.5536 18.8794 56.3484 18.8794L56.3466 18.8777Z" fill="#0D2332"/>
<path d="M6.84499 10.7726C6.84499 10.9 6.84499 10.9973 6.84499 11.0946C6.84499 15.1516 6.84499 19.2085 6.84499 23.2654C6.84499 23.4671 6.74709 23.5679 6.55129 23.5679C5.99221 23.5679 5.43489 23.5679 4.84396 23.5679V23.2441C4.84396 19.1943 4.84396 15.1445 4.84396 11.0946C4.84396 10.88 4.73603 10.7726 4.52018 10.7726C3.12601 10.7726 1.7336 10.7726 0.339424 10.7726C0.256269 10.7726 0.173113 10.7726 0.0722656 10.7726V8.91138H0.304038C3.9894 8.91138 7.67477 8.91138 11.3601 8.91138C11.5477 8.91138 11.6414 9.00574 11.6414 9.19446C11.6414 9.62616 11.6414 10.0561 11.6414 10.4878C11.6414 10.6777 11.5489 10.7726 11.3637 10.7726C9.95534 10.7726 8.54878 10.7726 7.14045 10.7726H6.84499Z" fill="#0D2332"/>
<path d="M63.0206 15.1817C63.3125 14.6103 63.7601 14.1856 64.3298 13.9273C64.7138 13.7522 65.1366 13.6566 65.5489 13.5505C66.1982 13.3859 66.8386 13.485 67.4685 13.669C68.5124 13.9769 69.2024 14.6598 69.5633 15.6789C69.7402 16.1814 69.8092 16.7033 69.811 17.2341C69.8145 19.2917 69.811 21.3476 69.811 23.4053C69.811 23.4477 69.8057 23.4884 69.8004 23.5486H67.9533C67.9533 23.4601 67.9533 23.3699 67.9533 23.2814C67.948 21.3299 67.9621 19.3802 67.9303 17.4287C67.9179 16.7051 67.6667 16.0487 67.0315 15.6081C66.6051 15.3127 66.1292 15.2012 65.6126 15.2313C65.1083 15.2614 64.6235 15.3463 64.1883 15.6276C63.6575 15.9708 63.3355 16.4662 63.1427 17.0554C62.9587 17.6198 62.941 18.2019 62.9427 18.7893C62.9463 20.2807 62.9427 21.7722 62.9427 23.2637C62.9427 23.4654 62.8384 23.5663 62.6296 23.5663C62.1271 23.5663 61.6264 23.5663 61.0992 23.5663C61.0921 23.4813 61.0815 23.407 61.0815 23.3345C61.0815 20.2241 61.0815 17.1138 61.0762 14.0034C61.0762 13.8123 61.1257 13.7451 61.3256 13.7504C61.7998 13.7646 62.274 13.7593 62.7481 13.7522C62.8967 13.7504 62.948 13.8035 62.9445 13.9503C62.9374 14.29 62.941 14.6297 62.9445 14.9677C62.9445 15.0349 62.9534 15.1004 62.9587 15.1676C62.9781 15.1711 62.9994 15.1764 63.0188 15.18L63.0206 15.1817Z" fill="#0D2332"/>
<path d="M80.7937 22.4126C80.1426 23.1468 79.3412 23.5821 78.407 23.8014C77.7948 23.9448 77.1738 23.9996 76.5581 23.9324C74.6332 23.7201 73.1664 22.8195 72.3632 20.9972C72.1332 20.4735 72.0182 19.9197 71.9598 19.3465C71.905 18.8139 71.9103 18.2849 71.9934 17.763C72.165 16.6855 72.5985 15.723 73.3805 14.9428C74.2015 14.1254 75.2046 13.7008 76.3476 13.5397C77.1296 13.4301 77.8904 13.492 78.6335 13.7078C79.4367 13.9414 80.1515 14.3607 80.7371 14.9711C80.7654 15.0012 80.7619 15.1144 80.7318 15.1445C80.3355 15.5231 79.9356 15.8946 79.5269 16.2591C79.4933 16.2892 79.3783 16.2821 79.3482 16.2485C78.9608 15.8186 78.4778 15.5408 77.9346 15.3727C77.4233 15.2152 76.896 15.2135 76.3653 15.3055C75.8433 15.3957 75.3851 15.6133 74.9976 15.9619C74.435 16.4679 74.1254 17.1225 73.9856 17.855C73.8564 18.5361 73.8529 19.2191 74.0564 19.8896C74.3678 20.9176 74.9976 21.6642 76.0379 22.0039C76.8323 22.264 77.6409 22.2923 78.4017 21.9101C78.7945 21.712 79.1359 21.4094 79.4986 21.1564C79.9002 21.5456 80.3408 21.972 80.7902 22.4073L80.7937 22.4126Z" fill="#0D2332"/>
<path d="M95.8377 23.561C95.2397 23.561 94.6753 23.5645 94.1109 23.5556C94.0649 23.5556 94.0101 23.4849 93.9817 23.4336C93.9605 23.3946 93.9764 23.3363 93.9764 23.2867C93.9764 20.1976 93.98 17.1085 93.9711 14.0211C93.9711 13.7964 94.0401 13.7486 94.2454 13.754C94.7673 13.7663 95.2892 13.7575 95.843 13.7575V15.1959C96.096 14.9075 96.326 14.6032 96.5985 14.3413C97.0603 13.8973 97.6335 13.669 98.2616 13.5416C98.6738 13.4585 99.0719 13.4567 99.4717 13.5629C99.5425 13.5823 99.6487 13.6637 99.6487 13.715C99.6381 14.3343 99.6097 14.9535 99.5885 15.5427C99.1356 15.525 98.7145 15.4825 98.297 15.5002C97.7786 15.5214 97.2938 15.6665 96.8621 15.9832C96.4021 16.3229 96.1526 16.7882 95.9987 17.3155C95.8554 17.8056 95.8306 18.3116 95.8342 18.8211C95.8412 20.3055 95.8359 21.7899 95.8359 23.2743V23.561H95.8377Z" fill="#0D2332"/>
<path d="M113.461 15.9425C112.89 15.9425 112.458 15.4984 112.444 14.9287C112.43 14.336 112.891 13.8849 113.475 13.8707C114.034 13.8583 114.5 14.3519 114.492 14.9199C114.485 15.5037 114.04 15.9443 113.459 15.9425H113.461ZM113.473 14.06C112.978 14.0105 112.594 14.5147 112.601 14.8969C112.61 15.4082 112.98 15.7762 113.463 15.778C113.948 15.778 114.305 15.4471 114.331 14.9287C114.354 14.4581 113.949 14.0282 113.475 14.06H113.473Z" fill="#0D2332"/>
<path d="M113.889 15.5108C113.817 15.4683 113.73 15.44 113.675 15.3798C113.606 15.3038 113.573 15.1958 113.507 15.118C113.461 15.0631 113.387 15.0348 113.279 14.9641V15.4701C113.127 15.5125 113.065 15.4771 113.069 15.3285C113.076 15.0401 113.074 14.75 113.069 14.4616C113.067 14.3413 113.116 14.2953 113.231 14.3006C113.316 14.3041 113.401 14.297 113.484 14.3006C113.682 14.313 113.874 14.3554 113.937 14.573C113.999 14.7854 113.872 14.9163 113.674 15.0065C113.76 15.1604 113.84 15.3055 113.921 15.4488C113.911 15.4701 113.898 15.4895 113.888 15.5108H113.889ZM113.268 14.8084C113.598 14.8473 113.744 14.796 113.727 14.6544C113.705 14.4793 113.553 14.4651 113.422 14.4687C113.15 14.4775 113.327 14.6845 113.268 14.8066V14.8084Z" fill="#0D2332"/>
</svg>
