<svg width="38" height="38" viewBox="0 0 38 38" fill="none" xmlns="http://www.w3.org/2000/svg">
<path d="M19.0012 2.05355C14.3231 2.05355 10.0866 3.95104 7.01936 7.02066C3.95091 10.0833 2.05459 14.3221 2.05459 19.0025C2.05459 23.6793 3.95091 27.9152 7.01936 30.979C10.0866 34.0445 14.3231 35.9455 19.0012 35.9455C23.6804 35.9455 27.9192 34.0445 30.9818 30.979C34.0491 27.9152 35.9413 23.6793 35.9413 19.0025C35.9413 14.3221 34.0491 10.0833 30.9818 7.02066C27.9192 3.95104 23.6804 2.05355 19.0012 2.05355ZM19.0012 0.00012207C29.4931 0.00012207 38 8.50816 38 19.0025C38 29.4933 29.4931 38.0001 19.0012 38.0001C8.51037 38.0001 0 29.4933 0 19.0025C0 8.50816 8.51037 0.00012207 19.0012 0.00012207Z" fill="#0D2332"/>
<path d="M10.014 18.8472C10.014 17.7399 9.27926 17.1109 8.23911 17.1109H7.60253V20.5847H8.22101C9.18815 20.5847 10.014 20.0591 10.014 18.8472ZM21.3376 20.097L16.6479 23.7898L12.3617 20.4153C11.7432 21.9011 10.2487 22.933 8.52762 22.933H4.85938V14.7614H8.52762C10.4508 14.7614 11.8367 15.9843 12.3606 17.2873L16.6479 13.9163L18.2358 15.1661L14.3065 18.2544L15.0617 18.8455L18.9898 15.7589L20.5801 17.0052L16.6514 20.097L17.4053 20.6892L21.3376 17.5968V14.7614H24.1882V20.5479H27.0318V22.943H21.3376V20.097ZM30.6428 20.5491H33.4852V22.943H27.7893V14.7614H30.6428V20.5491Z" fill="#0D2332"/>
</svg>
