<svg width="55" height="60" viewBox="0 0 55 60" fill="none" xmlns="http://www.w3.org/2000/svg">
<path d="M27.5928 43.5529C35.0762 43.5529 41.1427 37.4865 41.1427 30.0031C41.1427 22.5197 35.0762 16.4532 27.5928 16.4532C20.1094 16.4532 14.043 22.5197 14.043 30.0031C14.043 37.4865 20.1094 43.5529 27.5928 43.5529Z" stroke="#0D2332" stroke-width="2.5" stroke-linecap="round" stroke-linejoin="round"/>
<path d="M22.0781 29.9488L25.9504 33.815L33.5744 26.1849" stroke="#0D2332" stroke-width="2.5" stroke-linecap="round" stroke-linejoin="round"/>
<path d="M38.224 58.0001L31.6719 55.4889L34.1891 48.9368" stroke="#00AECB" stroke-width="2.5" stroke-linecap="round" stroke-linejoin="round"/>
<path d="M35.7599 5.99249C45.8651 9.22639 53.188 18.6932 53.188 29.8764C53.188 42.3001 44.1488 52.616 32.2852 54.6033" stroke="#00AECB" stroke-width="2.5" stroke-linecap="round" stroke-linejoin="round"/>
<path d="M16.9648 2L23.5169 4.51726L20.9997 11.0694" stroke="#00AECB" stroke-width="2.5" stroke-linecap="round" stroke-linejoin="round"/>
<path d="M19.4281 54.0073C9.31692 50.7794 2 41.3066 2 30.1295C2 17.6998 11.0393 7.38382 22.9029 5.40253" stroke="#00AECB" stroke-width="2.5" stroke-linecap="round" stroke-linejoin="round"/>
</svg>
