<svg width="60" height="60" viewBox="0 0 60 60" fill="none" xmlns="http://www.w3.org/2000/svg">
<path d="M2 58H57.8024" stroke="#0D2332" stroke-width="2.5" stroke-linecap="round" stroke-linejoin="round"/>
<path d="M40.1797 17.1466L50.9317 7.96924" stroke="#0D2332" stroke-width="2.5" stroke-linecap="round" stroke-linejoin="round"/>
<path d="M25.7891 15.9673L33.9585 18.4445" stroke="#0D2332" stroke-width="2.5" stroke-linecap="round" stroke-linejoin="round"/>
<path d="M9.24805 22.5224L19.1304 16.6194" stroke="#0D2332" stroke-width="2.5" stroke-linecap="round" stroke-linejoin="round"/>
<path d="M53.6919 9.24706C55.6931 9.24706 57.3154 7.62475 57.3154 5.62353C57.3154 3.62231 55.6931 2 53.6919 2C51.6907 2 50.0684 3.62231 50.0684 5.62353C50.0684 7.62475 51.6907 9.24706 53.6919 9.24706Z" stroke="#00AECB" stroke-width="2.5" stroke-linecap="round" stroke-linejoin="round"/>
<path d="M37.4263 23.1217C39.4275 23.1217 41.0498 21.4994 41.0498 19.4982C41.0498 17.4969 39.4275 15.8746 37.4263 15.8746C35.425 15.8746 33.8027 17.4969 33.8027 19.4982C33.8027 21.4994 35.425 23.1217 37.4263 23.1217Z" stroke="#00AECB" stroke-width="2.5" stroke-linecap="round" stroke-linejoin="round"/>
<path d="M22.3247 18.5368C24.3259 18.5368 25.9482 16.9145 25.9482 14.9133C25.9482 12.912 24.3259 11.2897 22.3247 11.2897C20.3235 11.2897 18.7012 12.912 18.7012 14.9133C18.7012 16.9145 20.3235 18.5368 22.3247 18.5368Z" stroke="#00AECB" stroke-width="2.5" stroke-linecap="round" stroke-linejoin="round"/>
<path d="M6.11767 27.9643C8.11889 27.9643 9.7412 26.342 9.7412 24.3408C9.7412 22.3396 8.11889 20.7173 6.11767 20.7173C4.11645 20.7173 2.49414 22.3396 2.49414 24.3408C2.49414 26.342 4.11645 27.9643 6.11767 27.9643Z" stroke="#00AECB" stroke-width="2.5" stroke-linecap="round" stroke-linejoin="round"/>
<path d="M26.0927 30.0261H17.8574V48.6181H26.0927V30.0261Z" stroke="#0D2332" stroke-width="2.5" stroke-linecap="round" stroke-linejoin="round"/>
<path d="M57.8095 20.6971H49.5742V48.6181H57.8095V20.6971Z" stroke="#0D2332" stroke-width="2.5" stroke-linecap="round" stroke-linejoin="round"/>
<path d="M41.9521 34.658H33.7168V48.6184H41.9521V34.658Z" stroke="#0D2332" stroke-width="2.5" stroke-linecap="round" stroke-linejoin="round"/>
<path d="M10.2353 39.1774H2V48.6117H10.2353V39.1774Z" stroke="#0D2332" stroke-width="2.5" stroke-linecap="round" stroke-linejoin="round"/>
</svg>
