<svg width="115" height="36" viewBox="0 0 115 36" fill="none" xmlns="http://www.w3.org/2000/svg">
<g clip-path="url(#clip0_2002_543)">
<path d="M14.6198 18.315C14.6198 14.4626 12.2097 12.4766 9.4954 12.4766C6.78113 12.4766 4.37097 14.4626 4.37097 18.315C4.37097 22.1673 6.82198 24.2268 9.4954 24.2268C12.1688 24.2268 14.6198 22.2041 14.6198 18.315ZM19.0271 18.315C19.0271 24.0384 14.9966 28.1987 9.4954 28.1987C3.99424 28.1987 0 24.0384 0 18.315C0 12.5915 4.03055 8.47253 9.4954 8.47253C14.9602 8.47253 19.0271 12.6329 19.0271 18.315Z" fill="#00ABC8"/>
<path d="M30.7423 24.19C33.6063 24.19 35.6034 21.7857 35.6034 18.2367C35.6034 14.6878 33.6426 12.4766 30.7831 12.4766C27.9236 12.4766 25.8085 14.7292 25.8085 18.2781C25.8085 21.8271 27.7693 24.19 30.7423 24.19ZM39.8246 24.2268C39.8246 25.9047 39.9744 27.3161 40.0107 27.6241H35.8304C35.7532 27.2057 35.6398 25.9829 35.6398 25.2198C34.7728 26.7828 32.8529 28.0838 30.2521 28.0838C24.9779 28.0838 21.4375 23.8866 21.4375 18.2781C21.4375 12.6696 25.0187 8.55063 30.1794 8.55063C33.3839 8.55063 35.0043 10.0401 35.5671 11.2216V0H39.8246V24.2268Z" fill="#00ABC8"/>
<path d="M56.4734 16.2922C56.3962 14.1178 54.9665 12.1732 51.9526 12.1732C49.2021 12.1732 47.6225 14.3109 47.4682 16.2922H56.4734ZM60.6583 22.3236C59.6779 25.5692 56.7775 28.1987 52.3702 28.1987C47.3956 28.1987 42.9883 24.5348 42.9883 18.2414C42.9883 12.3663 47.2821 8.47253 51.9163 8.47253C57.5673 8.47253 60.8807 12.2514 60.8807 18.1265C60.8807 18.8528 60.808 19.4642 60.7672 19.5378H47.3547C47.4682 22.3604 49.6514 24.3831 52.3657 24.3831C55.0799 24.3831 56.3599 22.9718 56.9636 21.1376L60.6537 22.319L60.6583 22.3236Z" fill="#00ABC8"/>
<path d="M67.2483 21.5191C67.3981 23.1971 68.6417 24.6865 70.9793 24.6865C72.7903 24.6865 73.7299 23.6935 73.7299 22.5489C73.7299 21.5559 73.0536 20.7928 71.583 20.4893L68.8687 19.8779C65.6279 19.1516 63.9349 17.0139 63.9349 14.4579C63.9349 11.217 66.8716 8.4679 70.6797 8.4679C75.8041 8.4679 77.4608 11.8238 77.7604 13.658L74.0703 14.7292C73.9205 13.658 73.1307 11.9433 70.6797 11.9433C69.1365 11.9433 68.0426 12.9363 68.0426 14.081C68.0426 15.0739 68.7597 15.8003 69.8899 16.0256L72.6768 16.5956C76.1446 17.3587 77.951 19.4964 77.951 22.2409C77.951 24.9853 75.6907 28.1941 71.0201 28.1941C65.7096 28.1941 63.6716 24.6819 63.4492 22.5856L67.2528 21.5191H67.2483Z" fill="#00ABC8"/>
<path d="M84.4631 21.5191C84.6129 23.1971 85.8566 24.6865 88.1941 24.6865C90.0051 24.6865 90.9447 23.6935 90.9447 22.5489C90.9447 21.5559 90.2684 20.7928 88.7978 20.4893L86.0835 19.8779C82.8427 19.1516 81.1497 17.0139 81.1497 14.4579C81.1497 11.217 84.0864 8.4679 87.8945 8.4679C93.019 8.4679 94.6757 11.8238 94.9752 13.658L91.2851 14.7292C91.1353 13.658 90.3456 11.9433 87.8945 11.9433C86.3513 11.9433 85.2574 12.9363 85.2574 14.081C85.2574 15.0739 85.9746 15.8003 87.1048 16.0256L89.8917 16.5956C93.3594 17.3587 95.1659 19.4964 95.1659 22.2409C95.1659 24.9853 92.9055 28.1941 88.235 28.1941C82.9244 28.1941 80.8865 24.6819 80.6641 22.5856L84.4677 21.5191H84.4631Z" fill="#00ABC8"/>
<path d="M109.711 19.9193V19.0781L104.927 19.8044C103.57 20.0343 102.476 20.7974 102.476 22.3236C102.476 23.5832 103.42 24.7279 105.154 24.7279C107.6 24.7279 109.711 23.5465 109.711 19.9193ZM103.642 16.9818L108.354 16.2554C109.407 16.1037 109.711 15.5705 109.711 14.9223C109.711 13.3593 108.653 12.0997 106.243 12.0997C103.833 12.0997 102.666 13.5891 102.476 15.4555L98.4816 14.5407C98.822 11.3365 101.682 8.47253 106.207 8.47253C111.858 8.47253 114.005 11.7135 114.005 15.4142V24.6498C114.005 26.3277 114.191 27.4356 114.232 27.6287H110.165C110.128 27.5138 109.974 26.7507 109.974 25.2612C109.107 26.6725 107.301 28.1987 104.323 28.1987C100.479 28.1987 98.1094 25.5278 98.1094 22.5903C98.1094 19.2712 100.52 17.4415 103.647 16.9818" fill="#00ABC8"/>
<path d="M17.8784 33.1084H0.716797V36H17.8784V33.1084Z" fill="#00ABC8"/>
</g>
<defs>
<clipPath id="clip0_2002_543">
<rect width="114.231" height="36" fill="white"/>
</clipPath>
</defs>
</svg>
