<svg width="65" height="47" viewBox="0 0 65 47" fill="none" xmlns="http://www.w3.org/2000/svg">
<path d="M27.2319 11.0236L17.7012 8.3208" stroke="#0D2332" stroke-width="2.5" stroke-linecap="round" stroke-linejoin="round"/>
<path d="M50.8984 25.8307L55.3683 22.3829" stroke="#0D2332" stroke-width="2.5" stroke-linecap="round" stroke-linejoin="round"/>
<path d="M47.2355 8.29057L43.252 9.51577C43.252 9.51577 41.4788 9.996 39.4286 8.96781C37.3784 7.93963 35.7407 6.89297 31.3078 9.02322L25.1633 12.0401C24.6462 12.2925 24.1844 12.6496 23.8458 13.1175C23.3471 13.8132 22.9715 14.9091 23.7965 16.3375C25.2988 18.9295 29.4608 18.0429 31.3017 17.3595C33.1425 16.6761 35.7407 14.2873 39.0161 16.6084C42.2915 18.9295 44.274 18.9972 47.4817 17.6304" stroke="#0D2332" stroke-width="2.5" stroke-linecap="round" stroke-linejoin="round"/>
<path d="M36.3678 36.5562L38.2518 38.0276C39.5139 39.0127 39.7355 40.8351 38.7505 42.0973C37.7654 43.3594 35.943 43.5811 34.6808 42.596L31.5039 40.1086" stroke="#0D2332" stroke-width="2.5" stroke-linecap="round" stroke-linejoin="round"/>
<path d="M40.8493 32.7024L43.6568 34.9004C44.919 35.8855 45.1406 37.7079 44.1555 38.97C43.1704 40.2322 41.348 40.4538 40.0859 39.4687L36.3672 36.5565" stroke="#0D2332" stroke-width="2.5" stroke-linecap="round" stroke-linejoin="round"/>
<path d="M44.6965 28.343L47.504 30.541C48.7661 31.5261 48.9878 33.3485 48.0027 34.6106C47.0176 35.8728 45.1952 36.0944 43.933 35.1093L40.1035 32.111" stroke="#0D2332" stroke-width="2.5" stroke-linecap="round" stroke-linejoin="round"/>
<path d="M39.7363 17.0946L51.0833 25.9727C52.3454 26.9578 52.5671 28.7802 51.582 30.0423C50.5969 31.3045 48.7745 31.5261 47.5124 30.541L44.1692 27.9244" stroke="#0D2332" stroke-width="2.5" stroke-linecap="round" stroke-linejoin="round"/>
<path d="M14.075 26.022L9.61133 22.3279" stroke="#0D2332" stroke-width="2.5" stroke-linecap="round" stroke-linejoin="round"/>
<path d="M17.6257 30.6806C16.3877 31.7179 16.225 33.5624 17.2624 34.8004C18.2997 36.0384 20.1442 36.2011 21.3822 35.1637L27.149 30.3317C28.387 29.2944 28.5497 27.4498 27.5123 26.2118C26.475 24.9738 24.6305 24.8112 23.3925 25.8485L17.6257 30.6806Z" stroke="#0D2332" stroke-width="2.5" stroke-linecap="round" stroke-linejoin="round"/>
<path d="M25.1316 39.6388C23.8936 40.6761 23.7309 42.5207 24.7682 43.7587C25.8056 44.9966 27.6501 45.1593 28.8881 44.122L30.4454 42.8171C31.6834 41.7798 31.8461 39.9353 30.8087 38.6973C29.7714 37.4593 27.9269 37.2966 26.6889 38.3339L25.1316 39.6388Z" stroke="#0D2332" stroke-width="2.5" stroke-linecap="round" stroke-linejoin="round"/>
<path d="M21.3796 35.1596C20.1416 36.1969 19.9789 38.0414 21.0163 39.2794C22.0536 40.5174 23.8981 40.6801 25.1361 39.6427L28.8312 36.5466C30.0692 35.5093 30.2319 33.6647 29.1945 32.4267C28.1572 31.1888 26.3127 31.0261 25.0747 32.0634L21.3796 35.1596Z" stroke="#0D2332" stroke-width="2.5" stroke-linecap="round" stroke-linejoin="round"/>
<path d="M13.864 26.1967C12.626 27.234 12.4633 29.0785 13.5007 30.3165C14.538 31.5545 16.3825 31.7172 17.6205 30.6799L21.3156 27.5837C22.5536 26.5464 22.7163 24.7019 21.6789 23.4639C20.6416 22.2259 18.7971 22.0632 17.5591 23.1005L13.864 26.1967Z" stroke="#0D2332" stroke-width="2.5" stroke-linecap="round" stroke-linejoin="round"/>
<path d="M13.2608 2.00077L2 21.505L8.06242 25.0051L19.3232 5.50091L13.2608 2.00077Z" stroke="#00AECB" stroke-width="2.5" stroke-linecap="round" stroke-linejoin="round"/>
<path d="M45.6259 5.50022L56.8867 25.0045L62.9491 21.5043L51.6884 2.00008L45.6259 5.50022Z" stroke="#00AECB" stroke-width="2.5" stroke-linecap="round" stroke-linejoin="round"/>
</svg>
