<svg width="81" height="24" viewBox="0 0 81 24" fill="none" xmlns="http://www.w3.org/2000/svg">
<path d="M21.5382 21.693H21.7286C21.8636 21.693 21.9496 21.7626 21.9496 21.9396C21.9496 22.0614 21.8984 22.2169 21.7286 22.2169H21.5382V21.693ZM21.5382 22.482H21.6457C21.9762 22.482 21.9414 22.6733 21.9414 22.8954C21.9414 23.0212 21.9414 23.1461 21.9977 23.2597H22.4152C22.3753 23.1819 22.3671 22.8299 22.3671 22.7081C22.3671 22.3714 22.0888 22.3479 21.9977 22.3438V22.3346C22.276 22.2927 22.3753 22.1136 22.3753 21.8752C22.3753 21.5538 22.189 21.3799 21.8984 21.3799H21.1126V23.2597H21.5382V22.482ZM21.7419 20.7117C20.8434 20.7117 20.123 21.428 20.123 22.3264C20.123 23.2249 20.8434 23.9493 21.7419 23.9493C22.6362 23.9493 23.3525 23.2249 23.3525 22.3264C23.3525 21.428 22.6362 20.7117 21.7419 20.7117ZM21.7419 23.6465C21.0123 23.6465 20.4259 23.0519 20.4259 22.3264C20.4259 21.6019 21.0123 21.0146 21.7419 21.0146C22.4571 21.0146 23.0486 21.6019 23.0486 22.3264C23.0486 23.0519 22.4571 23.6465 21.7419 23.6465Z" fill="#0D2332"/>
<path d="M12.002 0.000123978C5.37324 0.000123978 0 5.37336 0 12.0001C0 18.6279 5.37324 24.0001 12.002 24.0001C18.6288 24.0001 24.002 18.6279 24.002 12.0001C24.002 5.37336 18.6288 0.000123978 12.002 0.000123978ZM5.5472 5.82054L5.55129 5.41634C5.55641 4.09631 6.10489 2.98912 6.85904 2.78958C7.84446 2.52762 9.17268 3.7003 10.504 6.00575L11.7411 8.1485C11.3809 8.21092 11.077 8.45037 10.8416 8.85968L6.80276 15.8579C6.21233 16.876 5.80404 17.7939 5.5738 18.5972C5.57278 18.5849 5.57278 18.5726 5.57278 18.5583C5.53185 16.7113 5.49501 13.0029 5.5472 5.82054ZM9.87567 20.6765L9.52366 20.8771C8.37657 21.535 7.14658 21.6128 6.59504 21.0582C5.87567 20.3358 6.22666 18.5993 7.55794 16.2948L8.79816 14.147C9.03453 14.4314 9.39166 14.5726 9.86237 14.5726H17.9401C19.119 14.5726 20.1167 14.4693 20.9281 14.2687C20.9158 14.2749 20.9066 14.279 20.8943 14.2882C19.3164 15.2449 16.1207 17.136 9.87567 20.6765ZM17.9401 13.6998H15.4628C15.5886 13.3529 15.5354 12.9722 15.3001 12.566L11.2602 5.56983C10.6708 4.5486 10.0814 3.73612 9.50013 3.13545C9.51343 3.14159 9.52366 3.14773 9.53492 3.15489C11.1527 4.04003 14.3822 5.86147 20.573 9.4982L20.9281 9.70491C22.0701 10.3711 22.7516 11.3974 22.548 12.1516C22.2829 13.1349 20.6037 13.6998 17.9401 13.6998Z" fill="#0D2332"/>
<path d="M35.1559 11.7267H33.9525V6.03313C33.9525 4.69672 33.9525 4.49207 36.5046 4.49207C39.3718 4.49207 40.9507 5.7814 40.9507 8.12266C40.9507 11.2979 38.0211 11.7267 35.1559 11.7267ZM35.5417 3.14031H27.7903H27.6133V3.91084L27.7698 3.92926C30.5296 4.2649 30.81 4.62714 30.81 6.03517V20.7059H33.9525V13.0784H35.2203C38.2063 13.0784 44.4196 13.0784 44.4196 8.12266C44.4196 3.14031 38.6442 3.14031 35.5417 3.14031Z" fill="#0D2332"/>
<path d="M62.1958 3.14224H60.3488V16.8337C59.8617 16.1553 50.5212 3.14224 50.5212 3.14224H43.8535V3.9097L44.008 3.93017C46.7054 4.28115 47.0502 4.40088 47.0502 6.33897V20.7058H49.0743V5.98082C49.5644 6.6613 59.6683 20.7058 59.6683 20.7058H62.3728V3.14224H62.1958Z" fill="#0D2332"/>
<path d="M64.7812 11.3482C64.7812 16.1433 67.7078 20.9824 74.2456 20.9824C77.3502 20.9824 78.88 20.6406 80.3003 20.26L80.4313 20.2252V18.7844L80.1908 18.8489C78.6815 19.2541 77.1977 19.4772 76.0138 19.4772C70.7899 19.4772 68.2502 16.6018 68.2502 10.6841C68.2502 6.72916 70.131 4.36948 73.2806 4.36948C75.3937 4.36948 76.6329 5.19833 76.9654 6.83456L76.9941 6.97577H80.4548L80.4292 6.77623C80.3116 5.85835 79.4633 2.86423 73.474 2.86423C67.7058 2.86423 64.7812 5.71816 64.7812 11.3482Z" fill="#0D2332"/>
</svg>
