<svg width="60" height="60" viewBox="0 0 60 60" fill="none" xmlns="http://www.w3.org/2000/svg">
<path d="M44.3652 17.0543H50.5359V23.1879" stroke="#00AECB" stroke-width="2.5" stroke-linecap="round" stroke-linejoin="round"/>
<path d="M27.6445 27.8128L33.7023 33.8344L50.5355 17.0542" stroke="#00AECB" stroke-width="2.5" stroke-linecap="round" stroke-linejoin="round"/>
<path d="M9.46484 39.2896L21.0165 27.8129" stroke="#00AECB" stroke-width="2.5" stroke-linecap="round" stroke-linejoin="round"/>
<path d="M24.3599 29.888C26.3643 29.888 27.9892 28.2745 27.9892 26.2842C27.9892 24.2939 26.3643 22.6805 24.3599 22.6805C22.3554 22.6805 20.7305 24.2939 20.7305 26.2842C20.7305 28.2745 22.3554 29.888 24.3599 29.888Z" stroke="#00AECB" stroke-width="2.5" stroke-linecap="round" stroke-linejoin="round"/>
<path d="M57.9934 3.87106C57.9934 2.83671 57.1507 2 56.109 2H3.88436C2.84265 2 2 2.83671 2 3.87106V44.6061C2 45.6405 2.84265 46.4772 3.88436 46.4772H46.7137H56.1156C57.1573 46.4772 58 45.6405 58 44.6061V3.87106H57.9934Z" stroke="#0D2332" stroke-width="2.5" stroke-linecap="round" stroke-linejoin="round"/>
<path d="M9.46484 9.5697H26.1919" stroke="#0D2332" stroke-width="2.5" stroke-linecap="round" stroke-linejoin="round"/>
<path d="M9.46484 16.6389H18.9795" stroke="#0D2332" stroke-width="2.5" stroke-linecap="round" stroke-linejoin="round"/>
<path d="M50.533 38.9072H41.0117" stroke="#0D2332" stroke-width="2.5" stroke-linecap="round" stroke-linejoin="round"/>
<path d="M50.5362 31.8314H44.8301" stroke="#0D2332" stroke-width="2.5" stroke-linecap="round" stroke-linejoin="round"/>
<path d="M12.9805 58H47.0184" stroke="#0D2332" stroke-width="2.5" stroke-linecap="round" stroke-linejoin="round"/>
<path d="M22.2422 46.5299C22.2422 46.5299 23.7948 53.777 18.9844 58" stroke="#0D2332" stroke-width="2.5" stroke-linecap="round" stroke-linejoin="round"/>
<path d="M37.7546 46.5299C37.7546 46.5299 36.2019 53.777 41.0124 58" stroke="#0D2332" stroke-width="2.5" stroke-linecap="round" stroke-linejoin="round"/>
</svg>
