<svg width="60" height="60" viewBox="0 0 60 60" fill="none" xmlns="http://www.w3.org/2000/svg">
<path d="M34.1251 20.8887H25.8711V39.395H34.1251V20.8887Z" stroke="#00AECB" stroke-width="2.5" stroke-linecap="round" stroke-linejoin="round"/>
<path d="M50.5372 11.606H42.2832V39.3951H50.5372V11.606Z" stroke="#00AECB" stroke-width="2.5" stroke-linecap="round" stroke-linejoin="round"/>
<path d="M17.7169 30H9.46289V39.3882H17.7169V30Z" stroke="#00AECB" stroke-width="2.5" stroke-linecap="round" stroke-linejoin="round"/>
<path d="M57.9934 3.87106C57.9934 2.83671 57.1507 2 56.109 2H3.88436C2.84265 2 2 2.83671 2 3.87106V44.6061C2 45.6405 2.84265 46.4772 3.88436 46.4772H46.7137H56.1156C57.1573 46.4772 58 45.6405 58 44.6061V3.87106H57.9934Z" stroke="#0D2332" stroke-width="2.5" stroke-linecap="round" stroke-linejoin="round"/>
<path d="M9.46289 9.57007H26.1899" stroke="#0D2332" stroke-width="2.5" stroke-linecap="round" stroke-linejoin="round"/>
<path d="M9.46289 16.6389H18.9776" stroke="#0D2332" stroke-width="2.5" stroke-linecap="round" stroke-linejoin="round"/>
<path d="M12.9805 58H47.0184" stroke="#0D2332" stroke-width="2.5" stroke-linecap="round" stroke-linejoin="round"/>
<path d="M22.2422 46.5298C22.2422 46.5298 23.7948 53.7768 18.9844 57.9999" stroke="#0D2332" stroke-width="2.5" stroke-linecap="round" stroke-linejoin="round"/>
<path d="M37.7565 46.5298C37.7565 46.5298 36.2039 53.7768 41.0143 57.9999" stroke="#0D2332" stroke-width="2.5" stroke-linecap="round" stroke-linejoin="round"/>
</svg>
