<svg width="115" height="38" viewBox="0 0 115 38" fill="none" xmlns="http://www.w3.org/2000/svg">
<path d="M0.8125 24.2549C0.887657 23.9962 0.95058 23.734 1.03972 23.4806C1.37181 22.5175 2.0325 21.8516 2.93264 21.4076C3.63527 21.0616 4.3816 20.8868 5.1594 20.8169C6.1679 20.726 7.16942 20.7522 8.1587 20.9637C8.51876 21.0406 8.87008 21.1577 9.22664 21.2538C9.26509 21.2643 9.30529 21.2678 9.34724 21.2748C9.42764 20.1037 8.90329 19.1459 7.67455 18.847C6.71323 18.6128 5.74667 18.6792 4.79235 18.8855C4.19633 19.0148 3.6108 19.2018 3.02527 19.3766C2.90293 19.4133 2.85748 19.3819 2.82427 19.2805C2.64424 18.7334 2.46422 18.1846 2.28419 17.6358C2.16708 17.2792 2.05347 16.9227 1.92588 16.5346C2.13387 16.442 2.32788 16.3319 2.53588 16.269C3.28046 16.047 4.02504 15.8145 4.78186 15.638C5.21358 15.5384 5.66627 15.5156 6.11197 15.4982C6.72547 15.4754 7.34071 15.458 7.95246 15.5017C9.32626 15.5995 10.6004 15.9736 11.6072 16.9856C12.1613 17.5414 12.5021 18.2213 12.7258 18.9659C12.953 19.721 13.0072 20.4988 13.0107 21.28C13.0195 23.7165 13.0142 26.1548 13.0142 28.5913C13.0142 28.7707 12.9222 28.8605 12.7381 28.8605C11.6754 28.8605 10.6127 28.857 9.54999 28.8639C9.3752 28.8639 9.31927 28.8133 9.32626 28.6402C9.3385 28.2854 9.32976 27.9289 9.32976 27.5164C9.21265 27.6195 9.12701 27.6911 9.04486 27.768C8.28105 28.4794 7.37392 28.9024 6.34793 29.0457C5.02306 29.231 3.74189 29.1017 2.57433 28.3833C1.65321 27.8152 1.09041 26.992 0.871927 25.9328C0.859692 25.8751 0.833474 25.8192 0.8125 25.7615C0.8125 25.2581 0.8125 24.7565 0.8125 24.2531L0.8125 24.2549ZM6.52621 26.4991C6.75518 26.4764 6.98415 26.4589 7.21312 26.4292C7.33721 26.4135 7.45956 26.3785 7.58016 26.3453C8.57644 26.0674 9.45386 25.3403 9.41541 24.0224C9.39793 23.4019 9.49406 23.5994 8.95048 23.3495C8.92601 23.339 8.89629 23.339 8.87008 23.3303C8.11675 23.0926 7.3477 23.0122 6.56117 23.0751C6.09624 23.1118 5.65404 23.2132 5.25028 23.4544C4.68748 23.7917 4.44802 24.3003 4.46725 24.9453C4.48473 25.5203 4.75215 25.9415 5.25378 26.2107C5.64879 26.4222 6.08051 26.4939 6.52796 26.4991H6.52621Z" fill="#0D2332"/>
<path d="M114.074 13.2767C113.792 13.5441 113.507 13.8081 113.231 14.0807C112.943 14.3639 112.663 14.6575 112.38 14.9459C112.327 14.9983 112.271 15.049 112.179 15.1347C111.843 14.7851 111.525 14.4425 111.195 14.1139C109.716 12.6318 108.232 11.1548 106.754 9.67265C106.649 9.56778 106.596 9.56254 106.49 9.67265C105.845 10.3281 105.187 10.9748 104.539 11.6285C104.445 11.7246 104.383 11.7351 104.284 11.6337C103.719 11.0622 103.149 10.4976 102.583 9.92959C102.564 9.91036 102.553 9.88414 102.543 9.86841C103.906 8.50859 105.264 7.15575 106.642 5.78369C106.864 6.00042 107.101 6.23114 107.336 6.46535C109.536 8.66589 111.735 10.8664 113.935 13.067C113.979 13.1107 114.028 13.1526 114.074 13.1946V13.2785V13.2767Z" fill="#0D2332"/>
<path d="M68.6008 38C68.5396 37.9721 68.4819 37.9284 68.419 37.9196C67.3004 37.7466 66.36 36.808 66.1817 35.6929C66.0192 34.6826 66.2551 33.793 66.9875 33.0659C67.594 32.4628 68.3526 32.2584 69.1915 32.2881C69.8697 32.3125 70.478 32.5135 70.9953 32.9645C71.0425 33.0047 71.0879 33.0484 71.1614 33.1148C70.9289 33.3805 70.7052 33.6444 70.4675 33.8926C70.4412 33.9188 70.3154 33.8838 70.2612 33.8454C69.9833 33.6409 69.6984 33.4644 69.3523 33.3927C68.37 33.1865 67.4245 33.9223 67.372 34.9273C67.3353 35.6299 67.5258 36.2277 68.1288 36.6367C68.7284 37.044 69.5691 36.974 70.1983 36.4794C70.2525 36.4357 70.2997 36.3693 70.3608 36.3501C70.4255 36.3291 70.5304 36.3238 70.5688 36.3605C70.7803 36.5615 70.9761 36.7783 71.2208 37.0335C70.9569 37.2362 70.7261 37.4652 70.4517 37.6085C70.1668 37.7571 69.8382 37.82 69.5289 37.9214C69.4572 37.9441 69.3873 37.9738 69.3174 38H68.6043H68.6008Z" fill="#0D2332"/>
<path d="M99.3396 28.8605V28.5825C99.3396 26.2859 99.3413 23.9875 99.3396 21.6908C99.3396 21.1175 99.3064 20.5494 99.0757 20.0094C98.7558 19.2613 98.1808 18.8715 97.3802 18.8138C96.7965 18.7719 96.2372 18.8558 95.7565 19.2298C95.2636 19.6143 95.0346 20.1474 94.9507 20.7417C94.8983 21.1122 94.8931 21.4933 94.8913 21.8691C94.8861 24.1028 94.8896 26.3383 94.8878 28.5721C94.8878 28.6612 94.8791 28.7503 94.8721 28.8605C94.7655 28.8605 94.6781 28.8605 94.5889 28.8605C93.5262 28.8605 92.4635 28.8605 91.4009 28.8605C91.1072 28.8605 91.1055 28.8605 91.1055 28.5581C91.1055 24.982 91.1072 21.4076 91.109 17.8315C91.109 17.1674 91.1072 16.5049 91.1072 15.8407C91.1072 15.7796 91.1142 15.7166 91.1195 15.638H94.8843V17.4383C95.0696 17.232 95.2129 17.0695 95.3597 16.9104C96.0484 16.1606 96.8664 15.6188 97.8836 15.4492C99.233 15.2255 100.507 15.4055 101.591 16.3127C101.886 16.5591 102.108 16.8929 102.358 17.1901C102.416 17.2582 102.456 17.3404 102.498 17.4086C102.851 17.087 103.178 16.7496 103.545 16.4647C104.718 15.5541 106.06 15.2465 107.525 15.4038C108.273 15.4842 108.972 15.6922 109.592 16.1291C110.48 16.7566 110.942 17.6463 111.178 18.6792C111.314 19.277 111.321 19.8818 111.321 20.49C111.319 23.1642 111.321 25.8384 111.321 28.5126C111.321 28.9059 111.342 28.8535 110.989 28.8535C109.933 28.8535 108.878 28.8482 107.822 28.8605C107.609 28.8622 107.551 28.8063 107.551 28.5948C107.558 26.1723 107.558 23.748 107.551 21.3255C107.551 20.8204 107.467 20.324 107.236 19.866C106.936 19.2683 106.452 18.9152 105.786 18.8313C105.107 18.7474 104.459 18.8173 103.912 19.2823C103.51 19.6231 103.3 20.074 103.202 20.5774C103.153 20.8291 103.125 21.0878 103.125 21.3447C103.12 23.7602 103.118 26.1775 103.125 28.593C103.125 28.8063 103.071 28.8622 102.858 28.8605C101.774 28.85 100.691 28.8552 99.607 28.857C99.5318 28.857 99.4549 28.857 99.3413 28.857L99.3396 28.8605Z" fill="#0D2332"/>
<path d="M39.914 23.582C40.1324 24.8369 41.0431 25.7878 42.2386 26.0255C43.7033 26.3156 44.9862 25.9381 46.0961 24.9506C46.3163 24.7548 46.3146 24.7548 46.533 24.9471C47.1098 25.4557 47.6866 25.9626 48.2617 26.4694C48.3333 26.5324 48.4032 26.5988 48.4836 26.6722C48.1463 27.1406 47.7443 27.5146 47.3021 27.8432C46.2639 28.6158 45.0928 29.0213 43.8029 29.1314C42.9028 29.2083 42.0149 29.1611 41.1462 28.9374C39.0697 28.4008 37.5509 27.1773 36.6839 25.197C36.2609 24.2304 36.0897 23.208 36.1159 22.1627C36.1596 20.4027 36.6892 18.8069 37.8829 17.4785C38.9561 16.2847 40.2985 15.5926 41.8995 15.4178C43.0845 15.2885 44.2381 15.4056 45.3445 15.867C46.8284 16.4857 47.8247 17.5834 48.4627 19.0323C48.973 20.1912 49.1548 21.4164 49.1548 22.6731C49.1548 22.93 49.1286 23.1887 49.0954 23.4439C49.0884 23.4963 49.001 23.5715 48.9451 23.5785C48.786 23.5977 48.6235 23.5855 48.4627 23.5855C45.7151 23.5855 42.9674 23.5855 40.2198 23.5855C40.1237 23.5855 40.0258 23.5855 39.914 23.5855V23.582ZM39.858 21.1839C39.9402 21.1874 39.9874 21.1909 40.0363 21.1909C41.6915 21.1909 43.3467 21.1909 45.0019 21.1909C45.3014 21.1909 45.4232 21.0476 45.3672 20.761C45.3637 20.747 45.3655 20.733 45.362 20.719C45.2292 20.1545 44.9984 19.6371 44.5947 19.2141C43.4603 18.0256 41.4748 18.1724 40.517 19.5113C40.1621 20.0076 39.9524 20.5565 39.858 21.1839Z" fill="#0D2332"/>
<path d="M62.1837 28.864C60.9567 28.864 59.763 28.8623 58.5674 28.8658C58.4049 28.8658 58.4119 28.7731 58.4119 28.6613C58.4119 27.845 58.4119 27.027 58.4119 26.2108C58.4119 24.5766 58.4171 22.9423 58.4066 21.3098C58.4031 20.7191 58.293 20.1458 57.9434 19.6441C57.5729 19.1145 57.0503 18.8663 56.4176 18.8261C55.687 18.779 55.0123 18.9031 54.4862 19.4711C54.0999 19.8888 53.8919 20.3975 53.8814 20.948C53.8465 22.7763 53.8447 24.6045 53.8343 26.4328C53.829 27.1721 53.829 27.9132 53.8378 28.6525C53.8378 28.8168 53.7906 28.8658 53.6228 28.8658C52.5111 28.8588 51.3995 28.857 50.2879 28.8658C50.0886 28.8675 50.0449 28.8064 50.0449 28.6193C50.0502 24.8842 50.0484 21.149 50.0484 17.4121C50.0484 16.8266 50.0484 16.2411 50.0484 15.6363H53.829V17.4174C54.0667 17.1622 54.2537 16.9525 54.4477 16.7497C55.0927 16.0785 55.8583 15.5979 56.7829 15.4476C58.1759 15.2203 59.499 15.3986 60.6369 16.318C61.3273 16.8755 61.7363 17.6201 61.974 18.4643C62.1435 19.0656 62.1995 19.6773 62.1977 20.3013C62.1907 23.0874 62.1977 25.8735 62.1977 28.6595C62.1977 28.7207 62.189 28.7819 62.1837 28.8623V28.864Z" fill="#0D2332"/>
<path d="M85.8481 15.6328H89.6077C89.6129 15.708 89.6199 15.7761 89.6199 15.8425C89.6199 20.0811 89.6199 24.3196 89.6199 28.5564C89.6199 28.7591 89.5186 28.8605 89.3158 28.8605C88.2601 28.8605 87.2044 28.8605 86.1487 28.8605C85.9483 28.8605 85.8481 28.7568 85.8481 28.5494C85.8481 28.0757 85.8481 27.6021 85.8481 27.0637C85.7537 27.1581 85.696 27.2088 85.6471 27.2665C85.1157 27.8975 84.5127 28.4428 83.7402 28.7661C83.0113 29.072 82.251 29.1611 81.4645 29.0842C80.8038 29.0196 80.1728 28.864 79.5943 28.5337C78.591 27.9604 77.9828 27.0777 77.7136 25.9801C77.5773 25.4225 77.4969 24.8387 77.4934 24.2654C77.4724 21.4654 77.4829 18.6653 77.4846 15.8653C77.4846 15.7954 77.4846 15.7272 77.4846 15.6398H81.2547C81.2547 15.7167 81.2547 15.7831 81.2547 15.8513C81.2547 18.2109 81.2512 20.5705 81.2547 22.9318C81.2547 23.4422 81.3019 23.9508 81.5047 24.4262C81.8245 25.1691 82.3926 25.5851 83.2053 25.6567C84.053 25.7336 84.8099 25.5553 85.3464 24.837C85.7345 24.3196 85.8446 23.7079 85.8463 23.0769C85.8516 20.6823 85.8463 18.2878 85.8463 15.8915C85.8463 15.8093 85.8463 15.7272 85.8463 15.6276L85.8481 15.6328Z" fill="#0D2332"/>
<path d="M22.3651 19.5531C21.8198 19.2962 21.3199 19.0358 20.799 18.8208C20.0947 18.5289 19.3676 18.3069 18.5898 18.3506C18.2839 18.3681 17.992 18.4328 17.7228 18.6128C17.3418 18.868 17.2649 19.5514 17.6861 19.8136C18.0776 20.0583 18.4989 20.268 18.9289 20.4393C19.8849 20.8221 20.8655 21.1419 21.8128 21.5404C22.5137 21.8358 23.1149 22.3007 23.5519 22.9422C24.0221 23.6309 24.1304 24.4017 24.0675 25.2162C24.0308 25.7003 23.9417 26.1652 23.7547 26.6127C23.3037 27.6859 22.477 28.3535 21.4073 28.7328C20.1698 29.1715 18.8991 29.203 17.611 28.9985C16.0921 28.759 14.7288 28.1648 13.4948 27.2594C13.4336 27.2139 13.3777 27.1633 13.3008 27.1003C13.8409 26.2719 14.374 25.4504 14.9175 24.6166C15.2391 24.8159 15.5398 25.0117 15.8491 25.1952C16.55 25.6094 17.2981 25.917 18.0916 26.0831C18.6859 26.2072 19.2959 26.2561 19.8972 26.0971C20.2939 25.9922 20.6977 25.7143 20.6575 25.1427C20.6365 24.8369 20.4705 24.6166 20.2188 24.5013C19.7486 24.2828 19.2644 24.0835 18.7715 23.9227C17.7735 23.5976 16.744 23.3599 15.8264 22.8233C14.9892 22.334 14.3425 21.6768 14.103 20.7102C13.6591 18.9099 14.2656 16.9558 16.1742 16.0032C17.3296 15.4265 18.5548 15.3233 19.822 15.4789C20.9564 15.6187 22.019 15.963 23.0258 16.4926C23.2827 16.629 23.5292 16.7863 23.8036 16.9471C23.3142 17.8315 22.837 18.6932 22.3634 19.5514L22.3651 19.5531Z" fill="#0D2332"/>
<path d="M34.3534 24.5084C34.8568 25.0013 35.3479 25.4767 35.8338 25.9574C36.0523 26.1724 36.2586 26.4013 36.4771 26.6163C36.5662 26.7055 36.5627 26.7666 36.4771 26.8593C35.7674 27.6126 34.9774 28.2575 34.0073 28.6526C33.3641 28.913 32.6965 29.0598 32.0043 29.1245C31.3384 29.1857 30.6812 29.1734 30.0223 29.0755C28.7516 28.8868 27.6207 28.3851 26.6367 27.5567C25.4639 26.5674 24.7088 25.3177 24.4082 23.8233C23.9782 21.6804 24.3592 19.6896 25.7208 17.9418C26.6367 16.7672 27.8357 15.9999 29.2812 15.6154C30.5414 15.2798 31.8086 15.292 33.0723 15.5489C34.4006 15.8199 35.5053 16.4945 36.4176 17.4873C36.4945 17.5712 36.4945 17.6394 36.4176 17.7198C35.8251 18.3507 35.2343 18.9817 34.6436 19.6127C34.5334 19.7298 34.4146 19.8399 34.3167 19.9658C34.2206 20.0899 34.1507 20.0759 34.051 19.971C33.6473 19.5393 33.1998 19.1635 32.651 18.931C31.1514 18.2931 29.4542 18.6496 28.5383 20.1877C27.9371 21.1962 27.8392 22.2834 28.1363 23.3933C28.4317 24.4997 29.0976 25.3351 30.211 25.7074C31.3786 26.099 32.4832 25.8962 33.4917 25.1971C33.7382 25.0258 33.9584 24.8213 34.1926 24.6325C34.2503 24.5853 34.3097 24.5399 34.3534 24.5067V24.5084Z" fill="#0D2332"/>
<path d="M67.9722 12.228C67.9722 12.3312 67.9722 12.4063 67.9722 12.4815C67.9722 13.4445 67.9757 14.4076 67.9687 15.3724C67.9687 15.5524 68.0019 15.6276 68.2081 15.6241C69.0891 15.6119 69.97 15.6206 70.8491 15.6206C70.9173 15.6206 70.9855 15.6206 71.0851 15.6206C71.0851 15.7202 71.0851 15.8006 71.0851 15.881C71.0851 16.7952 71.0799 17.7093 71.0886 18.6251C71.0886 18.8069 71.0449 18.8646 70.8544 18.8611C69.9665 18.8506 69.0786 18.8611 68.1924 18.8524C68.0159 18.8524 67.9669 18.9066 67.9687 19.0796C67.9739 20.8729 67.9687 22.6679 67.9774 24.4612C67.9774 24.6867 68.0281 24.9209 68.0998 25.1359C68.2221 25.5029 68.514 25.683 68.8898 25.7214C69.5854 25.7931 70.2444 25.6532 70.8736 25.3544C70.9156 25.3351 70.961 25.3246 71.0466 25.2967C71.0466 25.4103 71.0466 25.4977 71.0466 25.5851C71.0466 26.4293 71.0397 27.2752 71.0466 28.1195C71.0466 28.2768 70.989 28.3589 70.8579 28.4288C70.0696 28.8553 69.2271 29.0703 68.334 29.0808C67.7694 29.0878 67.2049 29.0843 66.6491 28.9462C65.4937 28.6595 64.7055 27.9901 64.3664 26.6792C64.2056 26.0605 64.1863 25.4278 64.1881 24.7916C64.1916 22.9004 64.1846 21.0075 64.1933 19.1163C64.1933 18.8978 64.1217 18.8419 63.9154 18.8506C63.5449 18.8664 63.1743 18.8541 62.8038 18.8576C62.6954 18.8576 62.6133 18.8506 62.6133 18.7073C62.6168 17.7023 62.6168 16.6973 62.6185 15.6923C62.6185 15.68 62.6273 15.666 62.6395 15.6346C62.6902 15.6293 62.7496 15.6206 62.809 15.6206C63.1866 15.6206 63.5641 15.6119 63.9416 15.6241C64.1304 15.6311 64.1951 15.5769 64.1933 15.3794C64.1828 14.4303 64.1881 13.4812 64.1898 12.5304C64.1898 12.3288 64.293 12.228 64.4992 12.228C65.5689 12.228 66.6386 12.228 67.7065 12.228C67.7834 12.228 67.8586 12.228 67.9704 12.228H67.9722Z" fill="#0D2332"/>
<path d="M79.041 11.6179C78.611 11.1757 78.2178 10.7702 77.8228 10.3665C77.6462 10.1865 77.4749 10.0029 77.2879 9.83514C77.1708 9.72852 77.1743 9.66035 77.2862 9.55024C78.0465 8.80041 78.7998 8.04359 79.5566 7.28852C81.2311 5.61583 82.9055 3.9414 84.5799 2.26871C85.321 1.52762 86.0621 0.788279 86.8032 0.0489397C86.8224 0.0297134 86.8451 0.0157306 86.8644 0C90.0996 3.23527 93.3297 6.46529 96.5509 9.68832C95.9409 10.2966 95.3187 10.9153 94.6615 11.5707C94.3731 11.2719 94.0725 10.952 93.7649 10.6426C91.6727 8.54872 89.5788 6.45655 87.4849 4.36437C87.3275 4.20707 87.165 4.05326 87.0094 3.89246C86.9151 3.79458 86.8381 3.80157 86.7455 3.8942C84.6131 6.02658 82.4773 8.1572 80.3449 10.2896C79.9202 10.7143 79.5042 11.146 79.0427 11.6179H79.041Z" fill="#0D2332"/>
<path d="M76.1214 22.1419C76.1214 24.2638 76.1197 26.3856 76.1249 28.5075C76.1249 28.698 76.076 28.761 75.8802 28.7592C74.8175 28.7505 73.7566 28.7522 72.6939 28.7592C72.5279 28.7592 72.4824 28.7033 72.4824 28.5407C72.4859 24.269 72.4859 19.9955 72.4824 15.7238C72.4824 15.5525 72.5488 15.5088 72.7044 15.5088C73.7671 15.5123 74.828 15.5158 75.8907 15.5088C76.0777 15.5088 76.1249 15.5752 76.1232 15.7552C76.1179 17.8841 76.1197 20.013 76.1197 22.1419H76.1214Z" fill="#0D2332"/>
<path d="M72.0507 14.1663C71.4162 13.5336 70.801 12.9201 70.1875 12.3101C71.5456 10.9572 72.9071 9.6009 74.2879 8.22534C74.5361 8.46829 74.8088 8.73397 75.0797 9.00313C76.1267 10.0483 77.1701 11.0971 78.2206 12.1388C78.336 12.2541 78.3482 12.3136 78.2241 12.4359C77.67 12.976 77.1247 13.5248 76.5846 14.0771C76.4693 14.1942 76.4063 14.1261 76.3294 14.0492C75.6932 13.413 75.0535 12.7802 74.4243 12.137C74.2932 12.0042 74.2198 12.0042 74.0904 12.137C73.47 12.7697 72.8407 13.392 72.2133 14.0177C72.1643 14.0666 72.1136 14.1121 72.0524 14.168L72.0507 14.1663Z" fill="#0D2332"/>
<path d="M95.4453 7.16273C95.7844 6.83238 96.141 6.49155 96.4923 6.14198C97.4414 5.1964 98.3922 4.25256 99.3343 3.29998C99.4811 3.15142 99.558 3.12695 99.7223 3.29474C100.986 4.57591 102.262 5.8431 103.534 7.11554C103.562 7.1435 103.585 7.17846 103.604 7.20293C102.98 7.8304 102.362 8.45089 101.694 9.12206C101.528 8.93504 101.365 8.73579 101.187 8.55401C100.698 8.05762 100.194 7.57347 99.7101 7.07009C99.565 6.91978 99.4863 6.93551 99.3483 7.07533C98.733 7.70281 98.1055 8.3198 97.4833 8.94029C97.4344 8.98923 97.3819 9.03467 97.3365 9.07662C96.7143 8.44565 96.099 7.82341 95.4488 7.16447L95.4453 7.16273Z" fill="#0D2332"/>
<path d="M104.216 37.8637C103.807 37.8637 103.443 37.8689 103.082 37.8567C103.031 37.8549 102.965 37.771 102.938 37.7116C102.812 37.4249 102.694 37.1348 102.582 36.8429C102.522 36.6874 102.438 36.6157 102.257 36.6192C101.62 36.6297 100.984 36.6297 100.348 36.6192C100.161 36.6157 100.072 36.6873 100.011 36.8551C99.9058 37.1435 99.7835 37.4249 99.6698 37.7098C99.6279 37.8165 99.572 37.8741 99.4391 37.8689C99.1123 37.8567 98.7837 37.8654 98.4219 37.8654C98.4813 37.7133 98.525 37.5857 98.5792 37.4616C99.2766 35.8274 99.9792 34.1949 100.673 32.5572C100.736 32.4069 100.811 32.3387 100.981 32.3492C101.224 32.3649 101.47 32.3422 101.713 32.3597C101.788 32.3649 101.897 32.4348 101.926 32.503C102.631 34.1425 103.325 35.7855 104.022 37.4267C104.078 37.5595 104.139 37.6906 104.216 37.8654V37.8637ZM100.53 35.588C101.065 35.6194 101.549 35.6334 102.068 35.5775C101.811 34.9587 101.573 34.3837 101.334 33.8086C101.308 33.8139 101.281 33.8191 101.255 33.8244C101.021 34.3942 100.787 34.964 100.53 35.5897V35.588Z" fill="#0D2332"/>
<path d="M79.1798 37.8619C78.7795 37.8619 78.4247 37.8706 78.0717 37.8549C78.007 37.8514 77.9196 37.7622 77.8881 37.6923C77.7571 37.4004 77.6382 37.1016 77.5228 36.8027C77.4739 36.6768 77.4075 36.6192 77.2607 36.6209C76.5895 36.6279 75.9201 36.6244 75.2489 36.6209C75.1231 36.6209 75.0479 36.6559 74.999 36.7869C74.8853 37.1016 74.7525 37.4092 74.6214 37.7151C74.5969 37.771 74.5393 37.8496 74.4938 37.8514C74.1338 37.8619 73.772 37.8584 73.377 37.8584C73.5482 37.4494 73.7055 37.0736 73.8646 36.6978C74.4536 35.3205 75.0461 33.945 75.6282 32.5642C75.6963 32.4016 75.7802 32.3369 75.9533 32.3474C76.1683 32.3614 76.3867 32.3614 76.6017 32.3474C76.766 32.3369 76.8499 32.3929 76.9146 32.5484C77.418 33.7509 77.9318 34.9482 78.4422 36.1472C78.6799 36.7048 78.9194 37.2606 79.1781 37.8636L79.1798 37.8619ZM77.023 35.5704C76.7555 34.9622 76.5615 34.3679 76.2504 33.8209C75.997 34.3592 75.7767 34.8888 75.5583 35.4201C75.5006 35.5582 75.553 35.6106 75.6981 35.6106C76.0669 35.6072 76.4374 35.6106 76.8062 35.6072C76.8657 35.6072 76.9251 35.5879 77.023 35.5722V35.5704Z" fill="#0D2332"/>
<path d="M81.7031 32.3632C81.794 32.3632 81.8622 32.3632 81.9303 32.3632C82.6015 32.3632 83.2709 32.3509 83.9421 32.3667C84.4053 32.3772 84.8545 32.4698 85.2583 32.7267C85.905 33.1375 86.1304 33.917 86.0238 34.6092C85.863 35.6544 84.9961 36.1298 84.1554 36.1822C83.8145 36.2032 83.4719 36.2014 83.1294 36.2084C82.9476 36.2131 82.8567 36.3092 82.8567 36.4968C82.8567 36.8744 82.8497 37.2502 82.8602 37.6259C82.8654 37.8025 82.8218 37.8811 82.6295 37.8654C82.4215 37.8497 82.21 37.8619 82.002 37.8602C81.8039 37.8602 81.7043 37.7634 81.7031 37.57C81.7031 35.9096 81.7031 34.2491 81.7031 32.5886C81.7031 32.5257 81.7031 32.4645 81.7031 32.3597V32.3632ZM82.8602 34.2893C82.8602 34.2893 82.8585 34.2893 82.8567 34.2893C82.8567 34.52 82.8462 34.7507 82.8619 34.9797C82.8672 35.0496 82.9441 35.1755 82.9878 35.1737C83.3985 35.1702 83.8128 35.179 84.2165 35.1178C84.6098 35.0566 84.8737 34.6703 84.8667 34.2806C84.8597 33.8873 84.6046 33.5377 84.2043 33.48C83.8075 33.4224 83.3985 33.4364 82.9965 33.4346C82.9511 33.4346 82.8707 33.5395 82.8672 33.6007C82.8515 33.8296 82.8602 34.0603 82.8602 34.2911V34.2893Z" fill="#0D2332"/>
<path d="M95.3132 37.8584C94.9427 37.8584 94.6088 37.8566 94.275 37.8584C94.1352 37.8584 94.1422 37.7658 94.1422 37.6731C94.1422 37.2117 94.1439 36.752 94.1439 36.2906C94.1439 35.4184 94.1387 34.5462 94.1439 33.674C94.1439 33.4853 94.074 33.4328 93.8975 33.4363C93.4308 33.4451 92.9641 33.4398 92.4625 33.4398C92.4625 33.1042 92.4555 32.7861 92.4712 32.468C92.473 32.4296 92.5883 32.3684 92.653 32.3666C93.1844 32.3579 93.7157 32.3614 94.247 32.3614C95.093 32.3614 95.939 32.3649 96.7832 32.3579C96.9475 32.3579 97.0069 32.4016 96.9982 32.5711C96.9859 32.8001 96.9894 33.0326 96.9982 33.2615C97.0034 33.4084 96.951 33.4556 96.8041 33.4521C96.3847 33.4416 95.9652 33.4521 95.5457 33.4398C95.3604 33.4346 95.3062 33.5028 95.308 33.6828C95.3132 34.9954 95.3115 36.308 95.3115 37.6207C95.3115 37.6888 95.3115 37.757 95.3115 37.8566L95.3132 37.8584Z" fill="#0D2332"/>
<path d="M106.742 35.0881C106.742 34.2509 106.745 33.4137 106.74 32.5747C106.74 32.4191 106.773 32.3457 106.95 32.3562C107.193 32.372 107.439 32.3702 107.684 32.3562C107.864 32.3457 107.906 32.4174 107.906 32.5852C107.901 33.8978 107.903 35.2087 107.903 36.5213C107.903 36.794 107.903 36.7958 108.18 36.7958C108.936 36.7958 109.689 36.7993 110.444 36.7923C110.615 36.7905 110.683 36.8395 110.673 37.016C110.661 37.231 110.668 37.4477 110.673 37.6644C110.675 37.8008 110.629 37.8619 110.477 37.8619C109.303 37.8567 108.13 37.855 106.955 37.8619C106.779 37.8619 106.744 37.7903 106.744 37.6382C106.747 36.787 106.744 35.9358 106.744 35.0846L106.742 35.0881Z" fill="#0D2332"/>
<path d="M89.8108 35.1056C89.8108 35.9428 89.8055 36.78 89.8143 37.6172C89.816 37.806 89.7653 37.8794 89.5661 37.8654C89.3301 37.8479 89.0907 37.8514 88.8547 37.8654C88.6922 37.8742 88.6502 37.813 88.6502 37.6627C88.6555 37.0212 88.6502 36.3797 88.6502 35.7365C88.6502 34.6966 88.6572 33.6566 88.6485 32.6184C88.6467 32.4121 88.7131 32.3492 88.9106 32.3614C89.1396 32.3754 89.3721 32.3719 89.601 32.3614C89.7636 32.3545 89.816 32.4051 89.8143 32.5747C89.8055 33.4189 89.8108 34.2631 89.8108 35.1073V35.1056Z" fill="#0D2332"/>
</svg>
