<svg width="72" height="72" viewBox="0 0 72 72" fill="none" xmlns="http://www.w3.org/2000/svg">
<g clip-path="url(#clip0_2558_542)">
<path d="M35.64 56.2896C33.6864 56.2896 32.0928 54.7008 32.0928 52.7424C32.0928 50.784 33.6816 49.1952 35.64 49.1952C37.5984 49.1952 39.1872 50.784 39.1872 52.7424C39.1872 54.7008 37.5984 56.2896 35.64 56.2896ZM35.64 50.88C34.6128 50.88 33.7728 51.7152 33.7728 52.7472C33.7728 53.7792 34.608 54.6144 35.64 54.6144C36.672 54.6144 37.5072 53.7792 37.5072 52.7472C37.5072 51.7152 36.672 50.88 35.64 50.88Z" fill="#00AECB"/>
<path d="M47.64 22.8576C47.5536 22.8576 47.4624 22.8432 47.376 22.8144C46.9344 22.6704 46.6992 22.1904 46.8432 21.7536L48.0288 18.1872L44.4624 17.0016C44.0208 16.8576 43.7856 16.3776 43.9296 15.9408C44.0736 15.4992 44.5488 15.2592 44.9904 15.408L49.3536 16.8576C49.7952 17.0016 50.0304 17.4816 49.8864 17.9184L48.4368 22.2816C48.3216 22.632 47.9904 22.8576 47.64 22.8576Z" fill="#00AECB"/>
<path d="M34.968 50.9664C34.5792 50.9664 34.2336 50.6976 34.1472 50.304C33.4608 47.112 32.5152 40.7952 33.9216 34.3824C35.6304 26.5968 40.1904 20.9328 47.4672 17.5584C47.8848 17.3616 48.3888 17.544 48.5808 17.9664C48.7776 18.3888 48.5952 18.888 48.1728 19.08C42.9696 21.4944 31.344 29.3328 35.784 49.9488C35.88 50.4 35.592 50.8512 35.1408 50.9472C35.0832 50.9616 35.0208 50.9664 34.9632 50.9664H34.968Z" fill="#00AECB"/>
<path d="M19.6944 51.5232C19.536 51.5232 19.3776 51.48 19.2336 51.384C18.8448 51.1296 18.7392 50.6112 18.9936 50.2224C19.4016 49.5984 19.752 48.9312 20.0352 48.2448C20.2128 47.8176 20.6976 47.6064 21.1296 47.784C21.5568 47.9616 21.7632 48.4512 21.5904 48.8784C21.2688 49.6656 20.8704 50.4288 20.4 51.1392C20.2368 51.384 19.968 51.5184 19.6944 51.5184V51.5232ZM21.7248 45.6864C21.696 45.6864 21.6672 45.6864 21.6384 45.6864C21.1776 45.6384 20.8416 45.2304 20.8848 44.7648C20.9328 44.2992 20.9568 43.8192 20.9568 43.3344C20.9568 43.056 20.9472 42.7728 20.9328 42.4944C20.9088 42.0288 21.264 41.6352 21.7248 41.6112C22.176 41.5824 22.584 41.9424 22.608 42.4032C22.6272 42.7152 22.632 43.0224 22.632 43.3344C22.632 43.872 22.608 44.4096 22.5552 44.9328C22.512 45.3648 22.1472 45.6912 21.72 45.6912L21.7248 45.6864ZM21.1584 39.504C20.7888 39.504 20.448 39.2544 20.3472 38.88L20.256 38.5536C20.1072 38.0304 19.9008 37.4688 19.584 36.7392C19.4016 36.312 19.5936 35.8176 20.0208 35.6352C20.448 35.4528 20.9424 35.6448 21.1248 36.072C21.4704 36.8736 21.7008 37.4976 21.8736 38.0976C21.9072 38.2128 21.936 38.3328 21.9696 38.448C22.0896 38.8944 21.8208 39.3552 21.3744 39.4752C21.3024 39.4944 21.2304 39.504 21.1584 39.504ZM18.8928 33.696C18.5328 33.696 18.1968 33.4608 18.0912 33.1008C18.0384 32.928 17.9904 32.76 17.952 32.5872C17.808 31.9968 17.7312 31.3536 17.7312 30.6864V30.4752C17.7456 30.0192 18.12 29.6544 18.5712 29.6544C18.576 29.6544 18.5856 29.6544 18.5904 29.6544C19.056 29.664 19.4208 30.048 19.4112 30.5136V30.6912C19.4112 31.224 19.4688 31.728 19.5792 32.1888C19.6128 32.3328 19.656 32.4768 19.6992 32.6208C19.8336 33.0672 19.5792 33.5328 19.1376 33.6672C19.056 33.6912 18.9744 33.7056 18.8928 33.7056V33.696ZM19.3104 27.576C19.224 27.576 19.1328 27.5616 19.0416 27.5328C18.6 27.384 18.3648 26.9088 18.5136 26.4672C18.6384 26.0928 18.7728 25.7232 18.912 25.3728L19.4496 24.1728C19.6416 23.7504 20.136 23.5632 20.5584 23.7504C20.9808 23.9424 21.168 24.4368 20.9808 24.8592L20.4576 26.0208C20.3424 26.3136 20.2176 26.6544 20.1024 27C19.9824 27.3504 19.656 27.5712 19.3056 27.5712L19.3104 27.576Z" fill="#0D2332"/>
<path d="M17.9472 56.2896C15.9936 56.2896 14.4 54.7008 14.4 52.7424C14.4 50.784 15.9888 49.1952 17.9472 49.1952C19.9056 49.1952 21.4944 50.784 21.4944 52.7424C21.4944 54.7008 19.9056 56.2896 17.9472 56.2896ZM17.9472 50.88C16.92 50.88 16.08 51.7152 16.08 52.7472C16.08 53.7792 16.9152 54.6144 17.9472 54.6144C18.9792 54.6144 19.8144 53.7792 19.8144 52.7472C19.8144 51.7152 18.9792 50.88 17.9472 50.88Z" fill="#0D2332"/>
<path d="M54.5136 33.9024C54.2976 33.9024 54.0816 33.8208 53.9184 33.6576L49.0512 28.7904C48.7248 28.464 48.7248 27.9312 49.0512 27.6048C49.3776 27.2784 49.9104 27.2784 50.2368 27.6048L55.104 32.472C55.4304 32.7984 55.4304 33.3312 55.104 33.6576C54.9408 33.8208 54.7248 33.9024 54.5088 33.9024H54.5136Z" fill="#0D2332"/>
<path d="M49.6464 33.9024C49.4304 33.9024 49.2144 33.8208 49.0512 33.6576C48.7248 33.3312 48.7248 32.7984 49.0512 32.472L53.9184 27.6048C54.2448 27.2784 54.7776 27.2784 55.104 27.6048C55.4304 27.9312 55.4304 28.464 55.104 28.7904L50.2368 33.6576C50.0736 33.8208 49.8576 33.9024 49.6416 33.9024H49.6464Z" fill="#0D2332"/>
<path d="M51.5856 51.5232C51.3216 51.5232 51.0624 51.3984 50.8992 51.168C50.8752 51.1344 50.2992 50.304 49.7424 48.8352C49.5792 48.4032 49.7952 47.9184 50.2272 47.7504C50.6592 47.5872 51.1488 47.8032 51.312 48.2352C51.7872 49.4928 52.272 50.1936 52.2768 50.2032C52.5408 50.5824 52.4496 51.1056 52.0656 51.3696C51.9216 51.4704 51.7536 51.5232 51.5856 51.5232ZM49.6224 45.648C49.2 45.648 48.84 45.336 48.7872 44.9088C48.7056 44.2176 48.6624 43.512 48.6624 42.8064C48.6624 42.672 48.6624 42.5328 48.6624 42.3984C48.672 41.9328 49.0464 41.5776 49.5216 41.5776C49.9872 41.5872 50.352 41.9712 50.3424 42.4368C50.3424 42.5616 50.3424 42.6864 50.3424 42.8112C50.3424 43.4496 50.3808 44.088 50.4528 44.7168C50.5056 45.1776 50.1792 45.5952 49.7184 45.648C49.6848 45.648 49.6512 45.6528 49.6176 45.6528L49.6224 45.648ZM49.9968 39.4512C49.9344 39.4512 49.872 39.4464 49.8048 39.432C49.3536 39.3264 49.0704 38.8752 49.176 38.424C49.3584 37.632 49.5984 36.8256 49.8768 36.0288C50.0304 35.592 50.5104 35.3616 50.952 35.52C51.3888 35.6736 51.6192 36.1536 51.4608 36.5904C51.2016 37.3248 50.9808 38.0688 50.8128 38.7984C50.7216 39.1872 50.376 39.4464 49.9968 39.4464V39.4512Z" fill="#0D2332"/>
<path d="M53.3328 56.2896C51.3792 56.2896 49.7856 54.7008 49.7856 52.7424C49.7856 50.784 51.3744 49.1952 53.3328 49.1952C55.2912 49.1952 56.88 50.784 56.88 52.7424C56.88 54.7008 55.2912 56.2896 53.3328 56.2896ZM53.3328 50.88C52.3056 50.88 51.4656 51.7152 51.4656 52.7472C51.4656 53.7792 52.3008 54.6144 53.3328 54.6144C54.3648 54.6144 55.2 53.7792 55.2 52.7472C55.2 51.7152 54.3648 50.88 53.3328 50.88Z" fill="#0D2332"/>
<path d="M23.7504 22.2336C23.5344 22.2336 23.3184 22.152 23.1552 21.9888L18.288 17.1216C17.9616 16.7952 17.9616 16.2624 18.288 15.936C18.6144 15.6096 19.1472 15.6096 19.4736 15.936L24.3408 20.8032C24.6672 21.1296 24.6672 21.6624 24.3408 21.9888C24.1776 22.152 23.9616 22.2336 23.7456 22.2336H23.7504Z" fill="#0D2332"/>
<path d="M18.8832 22.2336C18.6672 22.2336 18.4512 22.152 18.288 21.9888C17.9616 21.6624 17.9616 21.1296 18.288 20.8032L23.1552 15.9312C23.4816 15.6048 24.0144 15.6048 24.3408 15.9312C24.6672 16.2576 24.6672 16.7904 24.3408 17.1168L19.4736 21.984C19.3104 22.1472 19.0944 22.2288 18.8784 22.2288L18.8832 22.2336Z" fill="#0D2332"/>
</g>
<defs>
<clipPath id="clip0_2558_542">
<rect width="42.48" height="40.9296" fill="white" transform="translate(14.4 15.36)"/>
</clipPath>
</defs>
</svg>
