<?xml version="1.0" encoding="utf-8"?>
<!-- Generator: Adobe Illustrator 24.1.2, SVG Export Plug-In . SVG Version: 6.00 Build 0)  -->
<svg version="1.1" id="Layer_1" xmlns="http://www.w3.org/2000/svg" xmlns:xlink="http://www.w3.org/1999/xlink" x="0px" y="0px"
	 viewBox="0 0 310 310" style="enable-background:new 0 0 310 310;" xml:space="preserve">
<style type="text/css">
	.st0{clip-path:url(#SVGID_2_);fill:#0075A3;}
	.st1{fill:#0075A3;}
</style>
<g>
	<g>
		<defs>
			<path id="SVGID_1_" d="M164.1,219.9c0-36.9,29.9-66.8,66.8-66.8v-30.4v0V68.1c0-30.2-48.9-54.6-109.3-54.6
				C61.2,13.5,12.3,38,12.3,68.1v54.6v0v54.6v54.6c0,30.2,48.9,54.6,109.3,54.6c26.7,0,51.2-4.8,70.1-12.8
				C175,261.8,164.1,242.2,164.1,219.9z"/>
		</defs>
		<clipPath id="SVGID_2_">
			<use xlink:href="#SVGID_1_"  style="overflow:visible;"/>
		</clipPath>
		<path class="st0" d="M121.6,232.1v-10.3c-28.8,0-54.8-5.9-72.7-14.9c-9-4.5-15.8-9.7-20.2-14.8c-4.3-5.2-6.1-9.9-6.1-14.6H2v54.6
			c0,10.4,4.3,20,11,27.9c10.1,11.9,25.5,20.8,44.2,27.2c18.7,6.3,40.7,9.9,64.4,9.9c31.6,0,60.2-6.3,81.9-17.1
			c10.8-5.4,19.9-12,26.7-19.9c6.7-7.9,11-17.5,11-27.9v-54.6h-20.6c0,4.7-1.8,9.4-6.1,14.6c-6.5,7.7-18.8,15.5-35,20.9
			c-16.2,5.5-36.2,8.8-57.8,8.8V232.1v10.3c31.6,0,60.2-6.3,81.9-17.1c10.8-5.4,19.9-12,26.7-19.9c6.7-7.9,11-17.5,11-27.9h-20.6
			v54.6c0,4.7-1.8,9.4-6.1,14.6c-6.5,7.7-18.8,15.5-35,20.9c-16.2,5.5-36.2,8.8-57.8,8.8c-28.8,0-54.8-5.9-72.7-14.9
			c-9-4.5-15.8-9.7-20.2-14.8c-4.3-5.2-6.1-9.9-6.1-14.6v-54.6H2c0,10.4,4.3,20,11,27.9c10.1,11.9,25.5,20.8,44.2,27.1
			c18.7,6.3,40.7,9.9,64.4,9.9V232.1z"/>
		<path class="st0" d="M121.6,177.4v-10.3c-28.8,0-54.8-5.9-72.7-14.9c-9-4.5-15.8-9.7-20.2-14.8c-4.3-5.2-6.1-9.9-6.1-14.6H2v54.6
			c0,10.4,4.3,20,11,27.9c10.1,11.9,25.5,20.8,44.2,27.1c18.7,6.3,40.7,9.9,64.4,9.9c31.6,0,60.2-6.3,81.9-17.1
			c10.8-5.4,19.9-12,26.7-19.9c6.7-7.9,11-17.5,11-27.9v-54.6h-20.6c0,4.7-1.8,9.4-6.1,14.6c-6.5,7.7-18.8,15.5-35,20.9
			c-16.2,5.5-36.2,8.8-57.8,8.8V177.4v10.3c31.6,0,60.2-6.3,81.9-17.1c10.8-5.4,19.9-12,26.7-19.9c6.7-7.9,11-17.5,11-27.9h-20.6
			v54.6c0,4.7-1.8,9.4-6.1,14.6c-6.5,7.7-18.8,15.5-35,20.9c-16.2,5.5-36.2,8.8-57.8,8.8c-28.8,0-54.8-5.9-72.7-14.9
			c-9-4.5-15.8-9.7-20.2-14.8c-4.3-5.2-6.1-9.9-6.1-14.6v-54.6H2c0,10.4,4.3,20,11,27.9c10.1,11.9,25.5,20.8,44.2,27.1
			c18.7,6.3,40.7,9.9,64.4,9.9V177.4z"/>
		<path class="st0" d="M121.6,122.8v-10.3c-28.8,0-54.8-5.9-72.7-14.9c-9-4.5-15.8-9.7-20.2-14.8c-4.3-5.2-6.1-9.9-6.1-14.6H2v54.6
			c0,10.4,4.3,20,11,27.9c10.1,11.9,25.5,20.8,44.2,27.1c18.7,6.3,40.7,9.9,64.4,9.9c31.6,0,60.2-6.3,81.9-17.1
			c10.8-5.4,19.9-12,26.7-19.9c6.7-7.9,11-17.5,11-27.9V68.1h-20.6c0,4.7-1.8,9.4-6.1,14.6c-6.5,7.7-18.8,15.5-35,20.9
			c-16.2,5.5-36.2,8.8-57.8,8.8V122.8v10.3c31.6,0,60.2-6.3,81.9-17.1c10.8-5.4,19.9-12,26.7-19.9c6.7-7.9,11-17.5,11-27.9h-20.6
			v54.6c0,4.7-1.8,9.4-6.1,14.6c-6.5,7.7-18.8,15.5-35,20.9c-16.2,5.5-36.2,8.8-57.8,8.8c-28.8,0-54.8-5.9-72.7-14.9
			c-9-4.5-15.8-9.7-20.2-14.8c-4.3-5.2-6.1-9.9-6.1-14.6V68.1H2c0,10.4,4.3,20,11,27.9c10.1,11.9,25.5,20.8,44.2,27.1
			c18.7,6.3,40.7,9.9,64.4,9.9V122.8z"/>
		<path class="st0" d="M230.9,68.1h-10.3c0,4.7-1.8,9.4-6.1,14.6c-6.5,7.7-18.8,15.5-35,20.9c-16.2,5.5-36.2,8.8-57.8,8.8
			c-28.8,0-54.8-5.9-72.7-14.9c-9-4.5-15.8-9.7-20.2-14.8c-4.3-5.2-6.1-9.9-6.1-14.6c0-4.7,1.8-9.4,6.1-14.6
			c6.5-7.7,18.8-15.5,35-20.9c16.2-5.5,36.2-8.8,57.8-8.8c28.8,0,54.8,5.9,72.7,14.9c9,4.5,15.8,9.7,20.2,14.8
			c4.3,5.2,6.1,9.9,6.1,14.6H230.9h10.3c0-10.4-4.3-20-11-27.9C220,28.3,204.6,19.4,186,13.1c-18.7-6.3-40.7-9.9-64.4-9.9
			C90,3.2,61.3,9.5,39.7,20.3c-10.8,5.4-19.9,12-26.7,19.9C6.3,48.1,2,57.7,2,68.1c0,10.4,4.3,20,11,27.9
			c10.1,11.9,25.5,20.8,44.2,27.1c18.7,6.3,40.7,9.9,64.4,9.9c31.6,0,60.2-6.3,81.9-17.1c10.8-5.4,19.9-12,26.7-19.9
			c6.7-7.9,11-17.5,11-27.9H230.9z"/>
	</g>
	<path class="st1" d="M164.1,219.9h10.3c0-15.6,6.3-29.7,16.5-39.9c10.3-10.2,24.3-16.5,39.9-16.5h10.3v-40.7v0V68.1
		c0-10.4-4.3-20-11-27.9C220,28.3,204.6,19.4,186,13.1c-18.7-6.3-40.7-9.9-64.4-9.9C90,3.2,61.3,9.5,39.7,20.3
		c-10.8,5.4-19.9,12-26.7,19.9C6.3,48.1,2,57.7,2,68.1v54.6v0v54.6v54.6c0,10.4,4.3,20,11,27.9c10.1,11.9,25.5,20.8,44.2,27.2
		c18.7,6.3,40.7,9.9,64.4,9.9c27.9,0,53.6-5,74.1-13.6l16.9-7.1l-14.8-10.8c-14.2-10.3-23.4-26.9-23.4-45.7H164.1h-10.3
		c0,25.7,12.6,48.4,31.9,62.4l6.1-8.3l-4-9.5c-17.4,7.3-40.7,12-66.1,12c-28.8,0-54.8-5.9-72.7-14.9c-9-4.5-15.8-9.7-20.2-14.8
		c-4.3-5.2-6.1-9.9-6.1-14.6v-54.6v-54.6v0V68.1c0-4.7,1.8-9.4,6.1-14.6c6.5-7.7,18.8-15.5,35-20.9c16.2-5.5,36.2-8.8,57.8-8.8
		c28.8,0,54.8,5.9,72.7,14.9c9,4.5,15.8,9.7,20.2,14.8c4.3,5.2,6.1,9.9,6.1,14.6v54.6v0v30.4h10.3v-10.3
		c-42.6,0-77.1,34.5-77.1,77.1H164.1z"/>
	<path class="st1" d="M224.7,245.9c-1.5,0-3-0.6-4-1.7l-17-17c-2.2-2.2-2.2-5.9,0-8.1c1.1-1.1,2.5-1.7,4-1.7s3,0.6,4,1.7l11,11
		l2,0.8l2-0.8l28.1-28.1c1.1-1.1,2.5-1.7,4-1.7c1.5,0,3,0.6,4,1.7c2.2,2.2,2.2,5.9,0,8.1l-34.1,34.1
		C227.7,245.3,226.3,245.9,224.7,245.9z"/>
	<path class="st1" d="M224.7,245.9v-4.1l-1.1-0.5l-17.1-17.1l-0.5-1.1l0.5-1.1l0,0l0,0l1.1-0.5l1.1,0.5l11.6,11.6l2.7,1.1l1.6,0.6
		l3.5-1.5l0.8-0.3l28.6-28.6l1.1-0.5l1.1,0.5l0,0l0,0l0.5,1.1l-0.5,1.1l-34.1,34.1l-1.1,0.5V245.9v4.1c2.6,0,5.1-1,7-2.9l34.1-34.1
		c1.9-1.9,2.9-4.5,2.9-7c0-2.5-1-5.1-2.9-7l0,0c-1.8-1.9-4.4-2.9-7-2.9c-2.6,0-5.1,1-7,2.9l-27.5,27.5l-1.2,0.5l1.6,3.8l1.6-3.8
		l-1.2-0.5l-10.4-10.4c-1.8-1.8-4.4-2.9-7-2.9c-2.6,0-5.1,1-7,2.9l0,0c-1.9,1.9-2.9,4.5-2.9,7c0,2.5,1,5.1,2.9,7l17,17l0,0
		c1.8,1.9,4.4,2.9,7,2.9V245.9z"/>
	<path class="st1" d="M230.9,146.1c-40.7,0-73.9,33.2-73.9,73.9s33.2,73.9,73.9,73.9s73.9-33.2,73.9-73.9S271.7,146.1,230.9,146.1z
		 M230.9,282.5c-34.4,0-62.4-28-62.4-62.5s28-62.5,62.4-62.5s62.5,28,62.5,62.5S265.4,282.5,230.9,282.5z"/>
	<path class="st1" d="M230.9,146.1V142c-43,0-78,35-78,78c0,43,35,78,78,78c43,0,78-35,78-78c0-43-35-78-78-78V146.1v4.1
		c19.2,0,36.7,7.8,49.3,20.5c12.6,12.7,20.5,30.1,20.5,49.3c0,19.2-7.8,36.7-20.5,49.3c-12.7,12.6-30.1,20.5-49.3,20.5
		c-19.2,0-36.7-7.8-49.3-20.5c-12.6-12.7-20.5-30.1-20.5-49.3c0-19.2,7.8-36.7,20.5-49.3c12.7-12.6,30.1-20.5,49.3-20.5V146.1z
		 M230.9,282.5v-4.1c-16.1,0-30.6-6.5-41.2-17.1c-10.6-10.6-17.1-25.1-17.1-41.2c0-16.1,6.5-30.6,17.1-41.2
		c10.6-10.6,25.1-17.1,41.2-17.1c16.1,0,30.6,6.5,41.2,17.1c10.6,10.6,17.1,25.1,17.1,41.2c0,16.1-6.5,30.6-17.1,41.2
		c-10.6,10.6-25.1,17.1-41.2,17.1V282.5v4.1c36.7,0,66.6-29.9,66.6-66.6c0-36.7-29.9-66.6-66.6-66.6c-36.7,0-66.6,29.9-66.6,66.6
		c0,36.7,29.8,66.6,66.6,66.6V282.5z"/>
</g>
</svg>
