<?xml version="1.0" encoding="utf-8"?>
<!-- Generator: Adobe Illustrator 24.2.0, SVG Export Plug-In . SVG Version: 6.00 Build 0)  -->
<svg version="1.1" id="Layer_1" xmlns="http://www.w3.org/2000/svg" xmlns:xlink="http://www.w3.org/1999/xlink" x="0px" y="0px"
	 viewBox="0 0 1027.9 380" style="enable-background:new 0 0 1027.9 380;" xml:space="preserve">
<style type="text/css">
	.st0{fill:url(#SVGID_1_);}
	.st1{clip-path:url(#SVGID_3_);}
	.st2{fill:url(#SVGID_4_);}
	.st3{fill:#0075A2;}
	.st4{fill:#00ACC8;}
	.st5{fill:#4CE5ED;}
	.st6{fill:none;}
	.st7{fill:#F9FBFC;}
</style>
<g>
	<g id="Layer_2_1_">
		<g id="Section_5">
			
				<linearGradient id="SVGID_1_" gradientUnits="userSpaceOnUse" x1="0" y1="256.62" x2="1027.5" y2="256.62" gradientTransform="matrix(1 0 0 -1 0 446.62)">
				<stop  offset="0" style="stop-color:#0075A2"/>
				<stop  offset="1" style="stop-color:#0F6FC6"/>
			</linearGradient>
			<rect class="st0" width="1027.5" height="380"/>
			<g>
				<g>
					<defs>
						<rect id="SVGID_2_" width="1027.5" height="380"/>
					</defs>
					<clipPath id="SVGID_3_">
						<use xlink:href="#SVGID_2_"  style="overflow:visible;"/>
					</clipPath>
					<g class="st1">
						
							<linearGradient id="SVGID_4_" gradientUnits="userSpaceOnUse" x1="-29.1" y1="263.62" x2="1027.9" y2="263.62" gradientTransform="matrix(1 0 0 -1 0 446.62)">
							<stop  offset="0" style="stop-color:#0075A2"/>
							<stop  offset="1" style="stop-color:#0F6FC6"/>
						</linearGradient>
						<rect x="-29.1" y="-42" class="st2" width="1057" height="450"/>
						<path class="st3" d="M664.9,356.6c7-59.1-16.6-107.4-24.5-123.1c-40.5-80.3-99.5-77-129.1-135.6c-33.8-67-4.7-166.5,42-218.3
							C678.5-259,1065.9-206.3,1186.9,17c45.2,83.4,54.3,180-6.8,267.6c-58.8,84.4-128.6,86.9-262.5,204.6
							c-75,65.9-105.6,117.5-160.4,133.6c-102,30.1-160.8-53.3-144.9-129.5C622.2,445.8,656,431.3,664.9,356.6z"/>
						<path class="st4" d="M534.9,356.6c7-59.1-16.6-107.4-24.5-123.1c-40.5-80.3-99.5-77-129.1-135.6c-33.8-67-4.7-166.5,42-218.3
							C548.5-259,935.9-206.3,1056.9,17c45.2,83.4,54.3,180-6.8,267.6c-58.8,84.4-128.6,86.9-262.5,204.6
							c-75,65.9-105.6,117.5-160.4,133.6c-102,30.1-160.8-53.3-144.9-129.5C492.2,445.8,526,431.3,534.9,356.6z"/>
						<path class="st5" d="M342.9,371.6c7-59.1-16.6-107.4-24.5-123.1c-40.5-80.3-99.6-77-129.1-135.6c-33.8-67-4.7-166.5,42-218.3
							C356.5-243.9,743.9-191.3,864.9,32c45.2,83.4,54.3,180-6.8,267.6c-58.8,84.4-128.6,86.9-262.5,204.6
							c-75,65.9-105.6,117.5-160.4,133.6c-102,30.1-160.8-53.3-144.9-129.5C300.2,460.8,334,446.3,342.9,371.6z"/>
						<circle class="st6" cx="1080.3" cy="353.4" r="135.5"/>
						<path class="st7" d="M25.7,62.9c0,1.4-1.2,2.6-2.6,2.6s-2.6-1.2-2.6-2.6c0-1.4,1.2-2.6,2.6-2.6l0,0
							C24.5,60.3,25.7,61.5,25.7,62.9z"/>
						<path class="st7" d="M59.1,62.9c0,1.4-1.2,2.6-2.6,2.6s-2.6-1.2-2.6-2.6c0-1.4,1.2-2.6,2.6-2.6l0,0
							C57.9,60.3,59.1,61.5,59.1,62.9z"/>
						<path class="st7" d="M92.4,62.9c0,1.4-1.2,2.6-2.6,2.6s-2.6-1.2-2.6-2.6c0-1.4,1.2-2.6,2.6-2.6l0,0
							C91.3,60.3,92.4,61.5,92.4,62.9z"/>
						<path class="st7" d="M125.8,62.9c0,1.4-1.2,2.6-2.6,2.6s-2.6-1.2-2.6-2.6c0-1.4,1.2-2.6,2.6-2.6l0,0
							C124.7,60.3,125.8,61.5,125.8,62.9z"/>
						<path class="st7" d="M159.2,62.9c0,1.4-1.2,2.6-2.6,2.6c-1.4,0-2.6-1.2-2.6-2.6s1.2-2.6,2.6-2.6
							C158.1,60.3,159.2,61.5,159.2,62.9z"/>
						<path class="st7" d="M192.6,62.9c0,1.4-1.2,2.6-2.6,2.6s-2.6-1.2-2.6-2.6c0-1.4,1.1-2.6,2.6-2.6
							C191.4,60.3,192.6,61.4,192.6,62.9C192.6,62.9,192.6,62.9,192.6,62.9z"/>
						<path class="st7" d="M226,62.9c0,1.4-1.2,2.6-2.6,2.6c-1.4,0-2.6-1.2-2.6-2.6s1.2-2.6,2.6-2.6S226,61.5,226,62.9
							C226,62.9,226,62.9,226,62.9z"/>
						<path class="st7" d="M259.3,62.9c0,1.4-1.2,2.6-2.6,2.6c-1.4,0-2.6-1.2-2.6-2.6s1.2-2.6,2.6-2.6S259.3,61.5,259.3,62.9
							C259.3,62.9,259.3,62.9,259.3,62.9z"/>
						<path class="st7" d="M292.7,62.9c0,1.4-1.2,2.6-2.6,2.6s-2.6-1.2-2.6-2.6s1.2-2.6,2.6-2.6S292.7,61.5,292.7,62.9
							C292.7,62.9,292.7,62.9,292.7,62.9z"/>
						<path class="st7" d="M326.1,62.9c0,1.4-1.2,2.6-2.6,2.6s-2.6-1.2-2.6-2.6s1.2-2.6,2.6-2.6S326.1,61.5,326.1,62.9
							C326.1,62.9,326.1,62.9,326.1,62.9z"/>
						<path class="st7" d="M359.5,62.9c0,1.4-1.2,2.6-2.6,2.6s-2.6-1.2-2.6-2.6s1.2-2.6,2.6-2.6S359.5,61.5,359.5,62.9
							C359.5,62.9,359.5,62.9,359.5,62.9z"/>
						<path class="st7" d="M392.9,62.9c0,1.4-1.2,2.6-2.6,2.6s-2.6-1.2-2.6-2.6s1.2-2.6,2.6-2.6S392.9,61.5,392.9,62.9
							C392.9,62.9,392.9,62.9,392.9,62.9z"/>
						<path class="st7" d="M426.2,62.9c0,1.4-1.2,2.6-2.6,2.6s-2.6-1.2-2.6-2.6s1.2-2.6,2.6-2.6S426.2,61.5,426.2,62.9
							C426.2,62.9,426.2,62.9,426.2,62.9z"/>
						<path class="st7" d="M459.6,62.9c0,1.4-1.2,2.6-2.6,2.6s-2.6-1.2-2.6-2.6s1.2-2.6,2.6-2.6S459.6,61.5,459.6,62.9
							C459.6,62.9,459.6,62.9,459.6,62.9z"/>
						<path class="st7" d="M493,62.9c0,1.4-1.2,2.6-2.6,2.6s-2.6-1.2-2.6-2.6s1.2-2.6,2.6-2.6S493,61.5,493,62.9
							C493,62.9,493,62.9,493,62.9z"/>
						<path class="st7" d="M526.4,62.9c0,1.4-1.2,2.6-2.6,2.6s-2.6-1.2-2.6-2.6s1.2-2.6,2.6-2.6C525.2,60.3,526.4,61.5,526.4,62.9z"
							/>
						<path class="st7" d="M25.7,95.4c0,1.4-1.2,2.6-2.6,2.6s-2.6-1.2-2.6-2.6s1.2-2.6,2.6-2.6l0,0C24.5,92.8,25.7,94,25.7,95.4z"/>
						<path class="st7" d="M59.1,95.4c0,1.4-1.2,2.6-2.6,2.6s-2.6-1.2-2.6-2.6s1.2-2.6,2.6-2.6l0,0C57.9,92.8,59.1,94,59.1,95.4z"/>
						<path class="st7" d="M92.4,95.4c0,1.4-1.2,2.6-2.6,2.6s-2.6-1.2-2.6-2.6s1.2-2.6,2.6-2.6l0,0C91.3,92.8,92.4,94,92.4,95.4z"/>
						<path class="st7" d="M125.8,95.4c0,1.4-1.2,2.6-2.6,2.6s-2.6-1.2-2.6-2.6s1.2-2.6,2.6-2.6l0,0C124.7,92.8,125.8,94,125.8,95.4
							z"/>
						<path class="st7" d="M159.2,95.4c0,1.4-1.2,2.6-2.6,2.6c-1.4,0-2.6-1.2-2.6-2.6c0-1.4,1.2-2.6,2.6-2.6
							C158.1,92.8,159.2,94,159.2,95.4z"/>
						<path class="st7" d="M192.6,95.4c0,1.4-1.2,2.6-2.6,2.6c-1.4,0-2.6-1.2-2.6-2.6c0-1.4,1.1-2.6,2.6-2.6
							C191.4,92.8,192.6,94,192.6,95.4C192.6,95.4,192.6,95.4,192.6,95.4z"/>
						<path class="st7" d="M226,95.4c0,1.4-1.2,2.6-2.6,2.6c-1.4,0-2.6-1.2-2.6-2.6c0-1.4,1.2-2.6,2.6-2.6S226,94,226,95.4L226,95.4
							z"/>
						<path class="st7" d="M259.3,95.4c0,1.4-1.2,2.6-2.6,2.6c-1.4,0-2.6-1.2-2.6-2.6c0-1.4,1.2-2.6,2.6-2.6S259.3,94,259.3,95.4
							L259.3,95.4z"/>
						<path class="st7" d="M292.7,95.4c0,1.4-1.2,2.6-2.6,2.6s-2.6-1.2-2.6-2.6c0-1.4,1.2-2.6,2.6-2.6S292.7,94,292.7,95.4
							L292.7,95.4z"/>
						<path class="st7" d="M326.1,95.4c0,1.4-1.2,2.6-2.6,2.6s-2.6-1.2-2.6-2.6c0-1.4,1.2-2.6,2.6-2.6S326.1,94,326.1,95.4
							L326.1,95.4z"/>
						<path class="st7" d="M359.5,95.4c0,1.4-1.2,2.6-2.6,2.6s-2.6-1.2-2.6-2.6c0-1.4,1.2-2.6,2.6-2.6S359.5,94,359.5,95.4
							L359.5,95.4z"/>
						<path class="st7" d="M392.9,95.4c0,1.4-1.2,2.6-2.6,2.6s-2.6-1.2-2.6-2.6c0-1.4,1.2-2.6,2.6-2.6S392.9,94,392.9,95.4
							L392.9,95.4z"/>
						<path class="st7" d="M426.2,95.4c0,1.4-1.2,2.6-2.6,2.6s-2.6-1.2-2.6-2.6c0-1.4,1.2-2.6,2.6-2.6S426.2,94,426.2,95.4
							L426.2,95.4z"/>
						<path class="st7" d="M459.6,95.4c0,1.4-1.2,2.6-2.6,2.6s-2.6-1.2-2.6-2.6c0-1.4,1.2-2.6,2.6-2.6S459.6,94,459.6,95.4
							L459.6,95.4z"/>
						<path class="st7" d="M493,95.4c0,1.4-1.2,2.6-2.6,2.6s-2.6-1.2-2.6-2.6c0-1.4,1.2-2.6,2.6-2.6S493,94,493,95.4L493,95.4z"/>
						<path class="st7" d="M526.4,95.4c0,1.4-1.2,2.6-2.6,2.6s-2.6-1.2-2.6-2.6c0-1.4,1.2-2.6,2.6-2.6
							C525.2,92.8,526.4,94,526.4,95.4z"/>
						<circle class="st7" cx="23.1" cy="127.9" r="2.6"/>
						<circle class="st7" cx="56.5" cy="127.9" r="2.6"/>
						<circle class="st7" cx="89.9" cy="127.9" r="2.6"/>
						<path class="st7" d="M125.8,127.9c0,1.4-1.2,2.6-2.6,2.6s-2.6-1.2-2.6-2.6s1.2-2.6,2.6-2.6l0,0
							C124.7,125.3,125.8,126.5,125.8,127.9z"/>
						<path class="st7" d="M159.2,127.9c0,1.4-1.2,2.6-2.6,2.6c-1.4,0-2.6-1.2-2.6-2.6c0-1.4,1.2-2.6,2.6-2.6
							C158.1,125.4,159.2,126.5,159.2,127.9z"/>
						<path class="st7" d="M192.6,127.9c0,1.4-1.2,2.6-2.6,2.6c-1.4,0-2.6-1.2-2.6-2.6c0-1.4,1.2-2.6,2.6-2.6
							S192.6,126.5,192.6,127.9L192.6,127.9z"/>
						<circle class="st7" cx="223.4" cy="127.9" r="2.6"/>
						<circle class="st7" cx="256.8" cy="127.9" r="2.6"/>
						<path class="st7" d="M292.7,127.9c0,1.4-1.2,2.6-2.6,2.6s-2.6-1.2-2.6-2.6c0-1.4,1.2-2.6,2.6-2.6S292.7,126.5,292.7,127.9
							L292.7,127.9z"/>
						<path class="st7" d="M326.1,127.9c0,1.4-1.2,2.6-2.6,2.6s-2.6-1.2-2.6-2.6c0-1.4,1.2-2.6,2.6-2.6S326.1,126.5,326.1,127.9
							L326.1,127.9z"/>
						<path class="st7" d="M359.5,127.9c0,1.4-1.2,2.6-2.6,2.6s-2.6-1.2-2.6-2.6c0-1.4,1.2-2.6,2.6-2.6S359.5,126.5,359.5,127.9
							L359.5,127.9z"/>
						<path class="st7" d="M392.9,127.9c0,1.4-1.2,2.6-2.6,2.6s-2.6-1.2-2.6-2.6c0-1.4,1.2-2.6,2.6-2.6S392.9,126.5,392.9,127.9
							L392.9,127.9z"/>
						<path class="st7" d="M426.2,127.9c0,1.4-1.2,2.6-2.6,2.6s-2.6-1.2-2.6-2.6c0-1.4,1.2-2.6,2.6-2.6S426.2,126.5,426.2,127.9
							L426.2,127.9z"/>
						<circle class="st7" cx="457" cy="127.9" r="2.6"/>
						<path class="st7" d="M493,127.9c0,1.4-1.2,2.6-2.6,2.6s-2.6-1.2-2.6-2.6c0-1.4,1.2-2.6,2.6-2.6S493,126.5,493,127.9L493,127.9
							z"/>
						<path class="st7" d="M526.4,127.9c0,1.4-1.2,2.6-2.6,2.6s-2.6-1.2-2.6-2.6c0-1.4,1.2-2.6,2.6-2.6
							C525.2,125.4,526.4,126.5,526.4,127.9z"/>
						<path class="st7" d="M25.7,160.4c0,1.4-1.2,2.6-2.6,2.6s-2.6-1.2-2.6-2.6s1.2-2.6,2.6-2.6C24.5,157.9,25.7,159,25.7,160.4
							L25.7,160.4z"/>
						<path class="st7" d="M59.1,160.4c0,1.4-1.2,2.6-2.6,2.6s-2.6-1.2-2.6-2.6s1.2-2.6,2.6-2.6C57.9,157.9,59.1,159,59.1,160.4
							L59.1,160.4z"/>
						<path class="st7" d="M92.4,160.4c0,1.4-1.2,2.6-2.6,2.6s-2.6-1.2-2.6-2.6c0-1.4,1.2-2.6,2.6-2.6S92.4,159,92.4,160.4
							L92.4,160.4z"/>
						<path class="st7" d="M125.8,160.4c0,1.4-1.2,2.6-2.6,2.6s-2.6-1.2-2.6-2.6c0-1.4,1.2-2.6,2.6-2.6S125.8,159,125.8,160.4
							L125.8,160.4z"/>
						<path class="st7" d="M159.2,160.4c0,1.4-1.2,2.6-2.6,2.6s-2.6-1.2-2.6-2.6s1.2-2.6,2.6-2.6C158.1,157.9,159.2,159,159.2,160.4
							z"/>
						<path class="st7" d="M192.6,160.4c0,1.4-1.2,2.6-2.6,2.6s-2.6-1.2-2.6-2.6s1.2-2.6,2.6-2.6S192.6,159,192.6,160.4L192.6,160.4
							z"/>
						<path class="st7" d="M226,160.4c0,1.4-1.2,2.6-2.6,2.6s-2.6-1.2-2.6-2.6s1.2-2.6,2.6-2.6S226,159,226,160.4L226,160.4z"/>
						<path class="st7" d="M259.3,160.4c0,1.4-1.2,2.6-2.6,2.6s-2.6-1.2-2.6-2.6s1.2-2.6,2.6-2.6S259.3,159,259.3,160.4L259.3,160.4
							z"/>
						<path class="st7" d="M292.7,160.4c0,1.4-1.2,2.6-2.6,2.6s-2.6-1.2-2.6-2.6c0-1.4,1.2-2.6,2.6-2.6S292.7,159,292.7,160.4
							L292.7,160.4z"/>
						<path class="st7" d="M326.1,160.4c0,1.4-1.2,2.6-2.6,2.6s-2.6-1.2-2.6-2.6c0-1.4,1.2-2.6,2.6-2.6S326.1,159,326.1,160.4
							L326.1,160.4z"/>
						<path class="st7" d="M359.5,160.4c0,1.4-1.2,2.6-2.6,2.6s-2.6-1.2-2.6-2.6c0-1.4,1.2-2.6,2.6-2.6S359.5,159,359.5,160.4
							L359.5,160.4z"/>
						<path class="st7" d="M392.9,160.4c0,1.4-1.2,2.6-2.6,2.6s-2.6-1.2-2.6-2.6c0-1.4,1.2-2.6,2.6-2.6S392.9,159,392.9,160.4
							L392.9,160.4z"/>
						<path class="st7" d="M426.2,160.4c0,1.4-1.2,2.6-2.6,2.6s-2.6-1.2-2.6-2.6c0-1.4,1.2-2.6,2.6-2.6S426.2,159,426.2,160.4
							L426.2,160.4z"/>
						<path class="st7" d="M459.6,160.4c0,1.4-1.2,2.6-2.6,2.6s-2.6-1.2-2.6-2.6c0-1.4,1.2-2.6,2.6-2.6S459.6,159,459.6,160.4
							L459.6,160.4z"/>
						<path class="st7" d="M493,160.4c0,1.4-1.2,2.6-2.6,2.6s-2.6-1.2-2.6-2.6c0-1.4,1.2-2.6,2.6-2.6S493,159,493,160.4L493,160.4z"
							/>
						<path class="st7" d="M526.4,160.4c0,1.4-1.2,2.6-2.6,2.6s-2.6-1.2-2.6-2.6s1.2-2.6,2.6-2.6C525.2,157.9,526.4,159,526.4,160.4
							z"/>
						<path class="st7" d="M25.7,193c0,1.4-1.2,2.6-2.6,2.6s-2.6-1.2-2.6-2.6s1.2-2.6,2.6-2.6C24.5,190.4,25.7,191.6,25.7,193
							L25.7,193z"/>
						<path class="st7" d="M59.1,193c0,1.4-1.2,2.6-2.6,2.6s-2.6-1.2-2.6-2.6s1.2-2.6,2.6-2.6C57.9,190.4,59.1,191.6,59.1,193
							L59.1,193z"/>
						<path class="st7" d="M92.4,193c0,1.4-1.2,2.6-2.6,2.6s-2.6-1.2-2.6-2.6c0-1.4,1.2-2.6,2.6-2.6S92.4,191.6,92.4,193L92.4,193z"
							/>
						<path class="st7" d="M125.8,193c0,1.4-1.2,2.6-2.6,2.6s-2.6-1.2-2.6-2.6c0-1.4,1.2-2.6,2.6-2.6S125.8,191.6,125.8,193
							L125.8,193z"/>
						<path class="st7" d="M159.2,193c0,1.4-1.2,2.6-2.6,2.6s-2.6-1.2-2.6-2.6s1.2-2.6,2.6-2.6C158.1,190.4,159.2,191.6,159.2,193z"
							/>
						<path class="st7" d="M192.6,193c0,1.4-1.2,2.6-2.6,2.5c-1.4,0-2.6-1.2-2.5-2.6c0-1.4,1.2-2.5,2.6-2.5
							C191.4,190.4,192.6,191.5,192.6,193C192.6,193,192.6,193,192.6,193z"/>
						<path class="st7" d="M226,193c0,1.4-1.2,2.6-2.6,2.6s-2.6-1.2-2.6-2.6s1.2-2.6,2.6-2.6S226,191.6,226,193L226,193z"/>
						<path class="st7" d="M259.3,193c0,1.4-1.2,2.6-2.6,2.6s-2.6-1.2-2.6-2.6s1.2-2.6,2.6-2.6S259.3,191.6,259.3,193L259.3,193z"/>
						<path class="st7" d="M292.7,193c0,1.4-1.2,2.6-2.6,2.6s-2.6-1.2-2.6-2.6c0-1.4,1.2-2.6,2.6-2.6S292.7,191.6,292.7,193
							L292.7,193z"/>
						<path class="st7" d="M326.1,193c0,1.4-1.2,2.6-2.6,2.6s-2.6-1.2-2.6-2.6c0-1.4,1.2-2.6,2.6-2.6S326.1,191.6,326.1,193
							L326.1,193z"/>
						<path class="st7" d="M359.5,193c0,1.4-1.2,2.6-2.6,2.6s-2.6-1.2-2.6-2.6c0-1.4,1.2-2.6,2.6-2.6S359.5,191.6,359.5,193
							L359.5,193z"/>
						<path class="st7" d="M392.9,193c0,1.4-1.2,2.6-2.6,2.6s-2.6-1.2-2.6-2.6c0-1.4,1.2-2.6,2.6-2.6S392.9,191.6,392.9,193
							L392.9,193z"/>
						<path class="st7" d="M426.2,193c0,1.4-1.2,2.6-2.6,2.6s-2.6-1.2-2.6-2.6c0-1.4,1.2-2.6,2.6-2.6S426.2,191.6,426.2,193
							L426.2,193z"/>
						<path class="st7" d="M459.6,193c0,1.4-1.2,2.6-2.6,2.6s-2.6-1.2-2.6-2.6c0-1.4,1.2-2.6,2.6-2.6S459.6,191.6,459.6,193
							L459.6,193z"/>
						<path class="st7" d="M493,193c0,1.4-1.2,2.6-2.6,2.6s-2.6-1.2-2.6-2.6c0-1.4,1.2-2.6,2.6-2.6S493,191.6,493,193L493,193z"/>
						<path class="st7" d="M526.4,193c0,1.4-1.2,2.6-2.6,2.6s-2.6-1.2-2.6-2.6s1.2-2.6,2.6-2.6C525.2,190.4,526.4,191.6,526.4,193z"
							/>
						<circle class="st7" cx="23.1" cy="225.5" r="2.6"/>
						<circle class="st7" cx="56.5" cy="225.5" r="2.6"/>
						<circle class="st7" cx="89.9" cy="225.5" r="2.6"/>
						<path class="st7" d="M125.8,225.5c0,1.4-1.2,2.6-2.6,2.6s-2.6-1.2-2.6-2.6c0-1.4,1.2-2.6,2.6-2.6
							C124.7,222.9,125.8,224.1,125.8,225.5z"/>
						<path class="st7" d="M159.2,225.5c0,1.4-1.2,2.6-2.6,2.6s-2.6-1.2-2.6-2.6s1.2-2.6,2.6-2.6
							C158.1,222.9,159.2,224.1,159.2,225.5z"/>
						<path class="st7" d="M192.6,225.5c0,1.4-1.2,2.6-2.6,2.6s-2.6-1.2-2.6-2.6s1.2-2.6,2.6-2.6
							C191.4,222.9,192.6,224.1,192.6,225.5z"/>
						<circle class="st7" cx="223.4" cy="225.5" r="2.6"/>
						<circle class="st7" cx="256.8" cy="225.5" r="2.6"/>
						<path class="st7" d="M292.7,225.5c0,1.4-1.2,2.6-2.6,2.6s-2.6-1.2-2.6-2.6c0-1.4,1.2-2.6,2.6-2.6
							C291.6,222.9,292.7,224.1,292.7,225.5z"/>
						<path class="st7" d="M326.1,225.5c0,1.4-1.2,2.6-2.6,2.6s-2.6-1.2-2.6-2.6c0-1.4,1.2-2.6,2.6-2.6
							C324.9,222.9,326.1,224.1,326.1,225.5z"/>
						<path class="st7" d="M359.5,225.5c0,1.4-1.2,2.6-2.6,2.6s-2.6-1.2-2.6-2.6c0-1.4,1.2-2.6,2.6-2.6
							C358.3,222.9,359.5,224.1,359.5,225.5z"/>
						<path class="st7" d="M392.9,225.5c0,1.4-1.2,2.6-2.6,2.6s-2.6-1.2-2.6-2.6c0-1.4,1.2-2.6,2.6-2.6
							C391.7,222.9,392.9,224.1,392.9,225.5z"/>
						<path class="st7" d="M426.2,225.5c0,1.4-1.2,2.6-2.6,2.6s-2.6-1.2-2.6-2.6c0-1.4,1.2-2.6,2.6-2.6
							C425.1,222.9,426.2,224.1,426.2,225.5z"/>
						<circle class="st7" cx="457" cy="225.5" r="2.6"/>
						<path class="st7" d="M493,225.5c0,1.4-1.2,2.6-2.6,2.6s-2.6-1.2-2.6-2.6c0-1.4,1.2-2.6,2.6-2.6
							C491.8,222.9,493,224.1,493,225.5z"/>
						<path class="st7" d="M526.4,225.5c0,1.4-1.2,2.6-2.6,2.6s-2.6-1.2-2.6-2.6s1.2-2.6,2.6-2.6
							C525.2,222.9,526.4,224.1,526.4,225.5z"/>
						<path class="st7" d="M941.9,217.3c-0.1,0.8-0.8,1.4-1.6,1.3c-0.7-0.1-1.3-0.6-1.3-1.3c-0.1-0.8,0.5-1.5,1.3-1.6
							c0.8-0.1,1.5,0.5,1.6,1.3C941.9,217.1,941.9,217.2,941.9,217.3z"/>
						<path class="st7" d="M960.6,217.3c0,0.8-0.6,1.4-1.4,1.4s-1.4-0.6-1.4-1.4s0.6-1.4,1.4-1.4
							C959.9,215.8,960.6,216.4,960.6,217.3C960.6,217.2,960.6,217.2,960.6,217.3z"/>
						<path class="st7" d="M979.2,217.3c-0.1,0.8-0.8,1.4-1.6,1.3c-0.7-0.1-1.3-0.6-1.3-1.3c-0.1-0.8,0.5-1.5,1.3-1.6
							c0.8-0.1,1.5,0.5,1.6,1.3C979.2,217.1,979.2,217.2,979.2,217.3z"/>
						<path class="st7" d="M997.8,217.3c0,0.8-0.6,1.4-1.4,1.4s-1.4-0.6-1.4-1.4s0.6-1.4,1.4-1.4S997.8,216.5,997.8,217.3
							L997.8,217.3z"/>
						<path class="st7" d="M1016.5,217.3c0,0.8-0.6,1.4-1.4,1.4c-0.8,0-1.4-0.6-1.4-1.4s0.6-1.4,1.4-1.4c0,0,0,0,0,0
							C1015.8,215.8,1016.5,216.5,1016.5,217.3C1016.5,217.2,1016.5,217.2,1016.5,217.3z"/>
						<path class="st7" d="M1035.1,217.3c0,0.8-0.6,1.4-1.4,1.4c-0.8,0-1.4-0.6-1.4-1.4s0.6-1.4,1.4-1.4l0,0
							C1034.5,215.8,1035.1,216.5,1035.1,217.3z"/>
						<path class="st7" d="M1053.7,217.3c0,0.8-0.6,1.4-1.4,1.4c-0.8,0-1.4-0.6-1.4-1.4s0.6-1.4,1.4-1.4c0,0,0,0,0,0
							C1053.1,215.8,1053.7,216.5,1053.7,217.3C1053.7,217.2,1053.7,217.2,1053.7,217.3z"/>
						<path class="st7" d="M1072.4,217.3c0,0.8-0.6,1.4-1.4,1.4c-0.8,0-1.4-0.6-1.4-1.4s0.6-1.4,1.4-1.4l0,0
							C1071.7,215.8,1072.4,216.5,1072.4,217.3z"/>
						<path class="st7" d="M1091,217.3c0,0.8-0.6,1.4-1.4,1.4c-0.8,0-1.4-0.6-1.4-1.4s0.6-1.4,1.4-1.4c0,0,0,0,0,0
							C1090.4,215.8,1091,216.5,1091,217.3C1091,217.2,1091,217.2,1091,217.3z"/>
						<path class="st7" d="M1109.6,217.3c0,0.8-0.7,1.4-1.4,1.4c-0.8,0-1.4-0.7-1.4-1.4c0-0.8,0.6-1.4,1.4-1.4
							C1109,215.8,1109.6,216.5,1109.6,217.3C1109.6,217.2,1109.6,217.2,1109.6,217.3z"/>
						<path class="st7" d="M1128.3,217.3c0,0.8-0.6,1.4-1.4,1.4c-0.8,0-1.4-0.6-1.4-1.4s0.6-1.4,1.4-1.4l0,0
							C1127.6,215.8,1128.3,216.4,1128.3,217.3C1128.3,217.2,1128.3,217.2,1128.3,217.3z"/>
						<path class="st7" d="M1146.9,217.3c-0.1,0.8-0.8,1.4-1.6,1.3c-0.7-0.1-1.3-0.6-1.3-1.3c-0.1-0.8,0.5-1.5,1.3-1.6
							c0.8-0.1,1.5,0.5,1.6,1.3C1146.9,217.1,1146.9,217.2,1146.9,217.3z"/>
						<path class="st7" d="M1165.6,217.3c0,0.8-0.6,1.4-1.4,1.4c-0.8,0-1.4-0.6-1.4-1.4s0.6-1.4,1.4-1.4l0,0
							C1164.9,215.8,1165.5,216.4,1165.6,217.3C1165.6,217.2,1165.6,217.2,1165.6,217.3z"/>
						<path class="st7" d="M1184.2,217.3c-0.1,0.8-0.8,1.4-1.6,1.3c-0.7-0.1-1.3-0.6-1.3-1.3c-0.1-0.8,0.5-1.5,1.3-1.6
							c0.8-0.1,1.5,0.5,1.6,1.3C1184.2,217.1,1184.2,217.2,1184.2,217.3z"/>
						<path class="st7" d="M1202.8,217.3c0,0.8-0.6,1.4-1.4,1.4c-0.8,0-1.4-0.6-1.4-1.4s0.6-1.4,1.4-1.4l0,0
							C1202.2,215.8,1202.8,216.5,1202.8,217.3z"/>
						<path class="st7" d="M1221.4,217.3c0,0.8-0.6,1.4-1.4,1.4c-0.8,0-1.4-0.6-1.4-1.4s0.6-1.4,1.4-1.4c0,0,0,0,0,0
							C1220.8,215.8,1221.4,216.5,1221.4,217.3C1221.4,217.2,1221.4,217.2,1221.4,217.3z"/>
						<path class="st7" d="M941.9,235.4c0,0.8-0.6,1.5-1.4,1.5c-0.8,0-1.5-0.6-1.5-1.4c0-0.8,0.6-1.5,1.4-1.5c0,0,0,0,0,0
							C941.3,234,941.9,234.6,941.9,235.4z"/>
						<path class="st7" d="M960.6,235.4c0,0.8-0.6,1.4-1.4,1.4s-1.4-0.6-1.4-1.4s0.6-1.4,1.4-1.4C959.9,234,960.6,234.6,960.6,235.4
							C960.6,235.4,960.6,235.4,960.6,235.4z"/>
						<path class="st7" d="M979.2,235.4c0,0.8-0.6,1.4-1.4,1.4c-0.8,0-1.4-0.6-1.4-1.4s0.6-1.4,1.4-1.4c0,0,0,0,0,0
							C978.6,234,979.2,234.6,979.2,235.4C979.2,235.4,979.2,235.4,979.2,235.4z"/>
						<path class="st7" d="M997.8,235.4c0,0.8-0.6,1.5-1.4,1.5c-0.8,0-1.5-0.6-1.5-1.4c0-0.8,0.6-1.5,1.4-1.5c0,0,0,0,0,0
							C997.2,234,997.8,234.6,997.8,235.4z"/>
						<path class="st7" d="M1016.5,235.4c0,0.8-0.6,1.5-1.4,1.5c-0.8,0-1.5-0.6-1.5-1.4c0-0.8,0.6-1.5,1.4-1.5
							C1015.8,234,1016.4,234.6,1016.5,235.4C1016.5,235.4,1016.5,235.4,1016.5,235.4z"/>
						<path class="st7" d="M1035.1,235.4c0,0.8-0.6,1.4-1.4,1.4c-0.8,0-1.4-0.6-1.4-1.4s0.6-1.4,1.4-1.4l0,0
							C1034.5,234,1035.1,234.6,1035.1,235.4z"/>
						<path class="st7" d="M1053.7,235.4c0,0.8-0.6,1.4-1.4,1.4c-0.8,0-1.4-0.6-1.4-1.4s0.6-1.4,1.4-1.4c0,0,0,0,0,0
							C1053.1,234,1053.7,234.6,1053.7,235.4C1053.7,235.4,1053.7,235.4,1053.7,235.4z"/>
						<path class="st7" d="M1072.4,235.4c0,0.8-0.6,1.4-1.4,1.4c-0.8,0-1.4-0.6-1.4-1.4s0.6-1.4,1.4-1.4l0,0
							C1071.7,234,1072.4,234.6,1072.4,235.4z"/>
						<path class="st7" d="M1091,235.4c0,0.8-0.6,1.4-1.4,1.4c-0.8,0-1.4-0.6-1.4-1.4s0.6-1.4,1.4-1.4c0,0,0,0,0,0
							C1090.4,234,1091,234.6,1091,235.4C1091,235.4,1091,235.4,1091,235.4z"/>
						<path class="st7" d="M1109.6,235.4c0,0.8-0.7,1.4-1.4,1.4c-0.8,0-1.4-0.7-1.4-1.4c0-0.8,0.6-1.4,1.4-1.4
							C1109,234,1109.6,234.6,1109.6,235.4C1109.6,235.4,1109.6,235.4,1109.6,235.4z"/>
						<path class="st7" d="M1128.3,235.4c0,0.8-0.6,1.4-1.4,1.4c-0.8,0-1.4-0.6-1.4-1.4s0.6-1.4,1.4-1.4l0,0
							C1127.6,234,1128.3,234.6,1128.3,235.4C1128.3,235.4,1128.3,235.4,1128.3,235.4z"/>
						<path class="st7" d="M1146.9,235.4c0,0.8-0.6,1.4-1.4,1.4c-0.8,0-1.4-0.6-1.4-1.4s0.6-1.4,1.4-1.4c0,0,0,0,0,0
							C1146.3,234,1146.9,234.6,1146.9,235.4C1146.9,235.4,1146.9,235.4,1146.9,235.4z"/>
						<path class="st7" d="M1165.6,235.4c0,0.8-0.6,1.4-1.4,1.4c-0.8,0-1.4-0.6-1.4-1.4s0.6-1.4,1.4-1.4l0,0
							C1164.9,234,1165.5,234.6,1165.6,235.4C1165.6,235.4,1165.6,235.4,1165.6,235.4z"/>
						<path class="st7" d="M1184.2,235.4c0,0.8-0.6,1.4-1.4,1.4c-0.8,0-1.4-0.6-1.4-1.4s0.6-1.4,1.4-1.4c0,0,0,0,0,0
							C1183.5,234,1184.2,234.6,1184.2,235.4C1184.2,235.4,1184.2,235.4,1184.2,235.4z"/>
						<path class="st7" d="M1202.8,235.4c0,0.8-0.6,1.4-1.4,1.4c-0.8,0-1.4-0.6-1.4-1.4s0.6-1.4,1.4-1.4l0,0
							C1202.2,234,1202.8,234.6,1202.8,235.4z"/>
						<path class="st7" d="M1221.4,235.4c0,0.8-0.6,1.5-1.4,1.5c-0.8,0-1.5-0.6-1.5-1.4c0-0.8,0.6-1.5,1.4-1.5c0,0,0,0,0,0
							C1220.8,234,1221.4,234.6,1221.4,235.4C1221.4,235.4,1221.4,235.4,1221.4,235.4z"/>
						<path class="st7" d="M941.9,253.6c0,0.8-0.6,1.4-1.4,1.4c-0.8,0-1.4-0.6-1.4-1.4s0.6-1.4,1.4-1.4c0,0,0,0,0,0
							C941.3,252.1,941.9,252.8,941.9,253.6C941.9,253.6,941.9,253.6,941.9,253.6z"/>
						<path class="st7" d="M960.6,253.6c0,0.8-0.6,1.4-1.4,1.4s-1.4-0.6-1.4-1.4s0.6-1.4,1.4-1.4
							C959.9,252.1,960.6,252.8,960.6,253.6C960.6,253.6,960.6,253.6,960.6,253.6z"/>
						<path class="st7" d="M979.2,253.6c0,0.8-0.6,1.4-1.4,1.4c-0.8,0-1.4-0.6-1.4-1.4s0.6-1.4,1.4-1.4c0,0,0,0,0,0
							C978.6,252.1,979.2,252.8,979.2,253.6C979.2,253.6,979.2,253.6,979.2,253.6z"/>
						<path class="st7" d="M997.8,253.6c0,0.8-0.6,1.4-1.4,1.4s-1.4-0.6-1.4-1.4s0.6-1.4,1.4-1.4S997.8,252.8,997.8,253.6
							L997.8,253.6z"/>
						<path class="st7" d="M1016.5,253.6c0,0.8-0.6,1.4-1.4,1.4c-0.8,0-1.4-0.6-1.4-1.4s0.6-1.4,1.4-1.4c0,0,0,0,0,0
							C1015.8,252.1,1016.5,252.8,1016.5,253.6C1016.5,253.6,1016.5,253.6,1016.5,253.6z"/>
						<path class="st7" d="M1035.1,253.6c0,0.8-0.6,1.4-1.4,1.4c-0.8,0-1.4-0.6-1.4-1.4s0.6-1.4,1.4-1.4l0,0
							C1034.5,252.1,1035.1,252.8,1035.1,253.6z"/>
						<path class="st7" d="M1053.7,253.6c0,0.8-0.6,1.4-1.4,1.4c-0.8,0-1.4-0.6-1.4-1.4s0.6-1.4,1.4-1.4c0,0,0,0,0,0
							C1053.1,252.1,1053.7,252.8,1053.7,253.6C1053.7,253.6,1053.7,253.6,1053.7,253.6z"/>
						<path class="st7" d="M1072.4,253.6c0,0.8-0.6,1.4-1.4,1.4c-0.8,0-1.4-0.6-1.4-1.4s0.6-1.4,1.4-1.4l0,0
							C1071.7,252.1,1072.4,252.8,1072.4,253.6z"/>
						<path class="st7" d="M1091,253.6c0,0.8-0.6,1.4-1.4,1.4c-0.8,0-1.4-0.6-1.4-1.4s0.6-1.4,1.4-1.4c0,0,0,0,0,0
							C1090.4,252.1,1091,252.8,1091,253.6C1091,253.6,1091,253.6,1091,253.6z"/>
						<path class="st7" d="M1109.6,253.6c0,0.8-0.7,1.4-1.4,1.4c-0.8,0-1.4-0.7-1.4-1.4c0-0.8,0.6-1.4,1.4-1.4
							C1109,252.1,1109.6,252.8,1109.6,253.6C1109.6,253.6,1109.6,253.6,1109.6,253.6z"/>
						<path class="st7" d="M1128.3,253.6c0,0.8-0.6,1.4-1.4,1.4c-0.8,0-1.4-0.6-1.4-1.4s0.6-1.4,1.4-1.4l0,0
							C1127.6,252.1,1128.3,252.8,1128.3,253.6C1128.3,253.6,1128.3,253.6,1128.3,253.6z"/>
						<path class="st7" d="M1146.9,253.6c0,0.8-0.6,1.4-1.4,1.4c-0.8,0-1.4-0.6-1.4-1.4s0.6-1.4,1.4-1.4c0,0,0,0,0,0
							C1146.3,252.1,1146.9,252.8,1146.9,253.6C1146.9,253.6,1146.9,253.6,1146.9,253.6z"/>
						<path class="st7" d="M1165.6,253.6c0,0.8-0.6,1.4-1.4,1.4c-0.8,0-1.4-0.6-1.4-1.4s0.6-1.4,1.4-1.4l0,0
							C1164.9,252.1,1165.5,252.8,1165.6,253.6C1165.6,253.6,1165.6,253.6,1165.6,253.6z"/>
						<path class="st7" d="M1184.2,253.6c0,0.8-0.6,1.4-1.4,1.4c-0.8,0-1.4-0.6-1.4-1.4s0.6-1.4,1.4-1.4c0,0,0,0,0,0
							C1183.5,252.1,1184.2,252.8,1184.2,253.6C1184.2,253.6,1184.2,253.6,1184.2,253.6z"/>
						<path class="st7" d="M1202.8,253.6c0,0.8-0.6,1.4-1.4,1.4c-0.8,0-1.4-0.6-1.4-1.4s0.6-1.4,1.4-1.4l0,0
							C1202.2,252.1,1202.8,252.8,1202.8,253.6z"/>
						<path class="st7" d="M1221.4,253.6c0,0.8-0.6,1.4-1.4,1.4c-0.8,0-1.4-0.6-1.4-1.4s0.6-1.4,1.4-1.4c0,0,0,0,0,0
							C1220.8,252.1,1221.4,252.8,1221.4,253.6C1221.4,253.6,1221.4,253.6,1221.4,253.6z"/>
						<path class="st7" d="M941.9,271.7c0,0.8-0.6,1.4-1.4,1.4c-0.8,0-1.4-0.6-1.4-1.4c0-0.8,0.6-1.4,1.4-1.4c0,0,0,0,0,0
							C941.3,270.3,941.9,270.9,941.9,271.7z"/>
						<path class="st7" d="M960.6,271.7c0,0.8-0.6,1.4-1.4,1.4c-0.8,0-1.4-0.6-1.5-1.4c0-0.8,0.6-1.4,1.4-1.4c0,0,0,0,0,0
							C959.9,270.3,960.6,270.9,960.6,271.7C960.6,271.7,960.6,271.7,960.6,271.7z"/>
						<path class="st7" d="M979.2,271.7c0,0.8-0.6,1.4-1.4,1.4c-0.8,0-1.4-0.6-1.4-1.4c0-0.8,0.6-1.4,1.4-1.4c0,0,0,0,0,0
							C978.6,270.3,979.2,270.9,979.2,271.7z"/>
						<path class="st7" d="M997.8,271.7c0,0.8-0.6,1.4-1.4,1.4c-0.8,0-1.4-0.6-1.5-1.4c0-0.8,0.6-1.4,1.4-1.4c0,0,0,0,0,0
							C997.2,270.3,997.8,270.9,997.8,271.7z"/>
						<path class="st7" d="M1016.5,271.7c0,0.8-0.6,1.4-1.4,1.4c-0.8,0-1.4-0.6-1.4-1.4c0-0.8,0.6-1.4,1.4-1.4c0,0,0,0,0,0
							C1015.8,270.3,1016.5,270.9,1016.5,271.7z"/>
						<path class="st7" d="M1035.1,271.7c0,0.8-0.6,1.4-1.4,1.4s-1.4-0.6-1.4-1.4c0-0.8,0.6-1.4,1.4-1.4c0,0,0,0,0,0
							C1034.5,270.3,1035.1,270.9,1035.1,271.7z"/>
						<path class="st7" d="M1053.7,271.7c0,0.8-0.6,1.4-1.4,1.4c-0.8,0-1.4-0.6-1.4-1.4c0-0.8,0.6-1.4,1.4-1.4c0,0,0,0,0,0
							C1053.1,270.3,1053.7,270.9,1053.7,271.7C1053.7,271.7,1053.7,271.7,1053.7,271.7z"/>
						<path class="st7" d="M1072.4,271.7c0,0.8-0.6,1.4-1.4,1.4s-1.4-0.6-1.4-1.4c0-0.8,0.6-1.4,1.4-1.4c0,0,0,0,0,0
							C1071.7,270.3,1072.4,270.9,1072.4,271.7z"/>
						<path class="st7" d="M1091,271.7c0,0.8-0.6,1.4-1.4,1.4c-0.8,0-1.4-0.6-1.4-1.4c0-0.8,0.6-1.4,1.4-1.4c0,0,0,0,0,0
							C1090.4,270.3,1091,270.9,1091,271.7C1091,271.7,1091,271.7,1091,271.7z"/>
						<path class="st7" d="M1109.6,271.7c0,0.8-0.6,1.4-1.4,1.4c-0.8,0-1.4-0.6-1.4-1.4c0-0.8,0.6-1.4,1.4-1.4
							S1109.6,270.9,1109.6,271.7C1109.6,271.7,1109.6,271.7,1109.6,271.7z"/>
						<path class="st7" d="M1128.3,271.7c0,0.8-0.6,1.4-1.4,1.4s-1.4-0.6-1.4-1.4c0-0.8,0.6-1.4,1.4-1.4c0,0,0,0,0,0
							C1127.6,270.3,1128.3,270.9,1128.3,271.7C1128.3,271.7,1128.3,271.7,1128.3,271.7z"/>
						<path class="st7" d="M1146.9,271.7c0,0.8-0.6,1.4-1.4,1.4c-0.8,0-1.4-0.6-1.4-1.4c0-0.8,0.6-1.4,1.4-1.4c0,0,0,0,0,0
							C1146.3,270.3,1146.9,270.9,1146.9,271.7C1146.9,271.7,1146.9,271.7,1146.9,271.7z"/>
						<path class="st7" d="M1165.6,271.7c0,0.8-0.6,1.4-1.4,1.4s-1.4-0.6-1.4-1.4c0-0.8,0.6-1.4,1.4-1.4c0,0,0,0,0,0
							C1164.9,270.3,1165.5,270.9,1165.6,271.7C1165.6,271.7,1165.6,271.7,1165.6,271.7z"/>
						<path class="st7" d="M1184.2,271.7c0,0.8-0.6,1.4-1.4,1.4c-0.8,0-1.4-0.6-1.4-1.4c0-0.8,0.6-1.4,1.4-1.4c0,0,0,0,0,0
							C1183.5,270.3,1184.2,270.9,1184.2,271.7C1184.2,271.7,1184.2,271.7,1184.2,271.7z"/>
						<path class="st7" d="M1202.8,271.7c0,0.8-0.6,1.4-1.4,1.4s-1.4-0.6-1.4-1.4c0-0.8,0.6-1.4,1.4-1.4c0,0,0,0,0,0
							C1202.2,270.3,1202.8,270.9,1202.8,271.7z"/>
						<path class="st7" d="M1221.4,271.7c0,0.8-0.6,1.4-1.4,1.4c-0.8,0-1.4-0.6-1.4-1.4c0-0.8,0.6-1.4,1.4-1.4c0,0,0,0,0,0
							C1220.8,270.3,1221.4,270.9,1221.4,271.7C1221.4,271.7,1221.4,271.7,1221.4,271.7z"/>
						<path class="st7" d="M941.9,289.9c0,0.8-0.6,1.4-1.4,1.4c-0.8,0-1.4-0.6-1.4-1.4c0-0.8,0.6-1.4,1.4-1.4c0,0,0,0,0,0
							C941.3,288.5,941.9,289.1,941.9,289.9z"/>
						<path class="st7" d="M960.6,289.9c0,0.8-0.6,1.4-1.4,1.4c-0.8,0-1.4-0.6-1.5-1.4c0-0.8,0.6-1.4,1.4-1.4c0,0,0,0,0,0
							C959.9,288.4,960.6,289.1,960.6,289.9z"/>
						<path class="st7" d="M979.2,289.9c0,0.8-0.6,1.4-1.4,1.4c-0.8,0-1.4-0.6-1.4-1.4c0-0.8,0.6-1.4,1.4-1.4c0,0,0,0,0,0
							C978.6,288.5,979.2,289.1,979.2,289.9z"/>
						<path class="st7" d="M997.8,289.9c0.1,0.8-0.5,1.5-1.3,1.6c-0.8,0.1-1.5-0.5-1.6-1.3c0-0.1,0-0.2,0-0.2
							c0.1-0.8,0.8-1.4,1.6-1.3C997.2,288.6,997.8,289.2,997.8,289.9z"/>
						<path class="st7" d="M1016.5,289.9c0,0.8-0.6,1.4-1.4,1.4c-0.8,0-1.4-0.6-1.4-1.4c0-0.8,0.6-1.4,1.4-1.4c0,0,0,0,0,0
							C1015.8,288.5,1016.5,289.1,1016.5,289.9z"/>
						<path class="st7" d="M1035.1,289.9c0.1,0.8-0.5,1.5-1.3,1.6c-0.8,0.1-1.5-0.5-1.6-1.3c0-0.1,0-0.2,0-0.2
							c0.1-0.8,0.8-1.4,1.6-1.3C1034.5,288.6,1035.1,289.2,1035.1,289.9z"/>
						<path class="st7" d="M1053.7,289.9c0,0.8-0.6,1.4-1.4,1.4c-0.8,0-1.4-0.6-1.4-1.4c0-0.8,0.6-1.4,1.4-1.4c0,0,0,0,0,0
							C1053.1,288.5,1053.7,289.1,1053.7,289.9z"/>
						<path class="st7" d="M1072.4,289.9c0.1,0.8-0.5,1.5-1.3,1.6c-0.8,0.1-1.5-0.5-1.6-1.3c0-0.1,0-0.2,0-0.2
							c0.1-0.8,0.8-1.4,1.6-1.3C1071.8,288.6,1072.3,289.2,1072.4,289.9z"/>
						<path class="st7" d="M1091,289.9c0,0.8-0.6,1.4-1.4,1.4c-0.8,0-1.4-0.6-1.4-1.4c0-0.8,0.6-1.4,1.4-1.4c0,0,0,0,0,0
							C1090.4,288.5,1091,289.1,1091,289.9z"/>
						<path class="st7" d="M1109.6,289.9c0,0.8-0.6,1.4-1.4,1.4c-0.8,0-1.4-0.6-1.4-1.4c0-0.8,0.6-1.4,1.4-1.4
							C1109,288.5,1109.6,289.1,1109.6,289.9z"/>
						<path class="st7" d="M1128.3,289.9c0,0.8-0.6,1.4-1.4,1.4s-1.4-0.6-1.4-1.4c0-0.8,0.6-1.4,1.4-1.4c0,0,0,0,0,0
							C1127.6,288.5,1128.3,289.1,1128.3,289.9z"/>
						<path class="st7" d="M1146.9,289.9c0,0.8-0.6,1.4-1.4,1.4c-0.8,0-1.4-0.6-1.4-1.4c0-0.8,0.6-1.4,1.4-1.4c0,0,0,0,0,0
							C1146.3,288.5,1146.9,289.1,1146.9,289.9z"/>
						<path class="st7" d="M1165.6,289.9c0,0.8-0.6,1.4-1.4,1.4s-1.4-0.6-1.4-1.4c0-0.8,0.6-1.4,1.4-1.4c0,0,0,0,0,0
							C1164.9,288.5,1165.5,289.1,1165.6,289.9z"/>
						<path class="st7" d="M1184.2,289.9c0,0.8-0.6,1.4-1.4,1.4c-0.8,0-1.4-0.6-1.4-1.4c0-0.8,0.6-1.4,1.4-1.4c0,0,0,0,0,0
							C1183.5,288.5,1184.2,289.1,1184.2,289.9z"/>
						<path class="st7" d="M1202.8,289.9c0.1,0.8-0.5,1.5-1.3,1.6c-0.8,0.1-1.5-0.5-1.6-1.3c0-0.1,0-0.2,0-0.2
							c0.1-0.8,0.8-1.4,1.6-1.3C1202.2,288.6,1202.8,289.2,1202.8,289.9z"/>
						<path class="st7" d="M1221.4,289.9c0,0.8-0.6,1.4-1.4,1.4c-0.8,0-1.4-0.6-1.4-1.4c0-0.8,0.6-1.4,1.4-1.4c0,0,0,0,0,0
							C1220.8,288.5,1221.4,289.1,1221.4,289.9z"/>
						<path class="st7" d="M941.9,308c0,0.8-0.6,1.4-1.4,1.4c-0.8,0-1.4-0.6-1.4-1.4c0-0.8,0.6-1.4,1.4-1.4c0,0,0,0,0,0
							C941.3,306.6,941.9,307.2,941.9,308z"/>
						<path class="st7" d="M960.6,308c0,0.8-0.6,1.4-1.4,1.4c-0.8,0-1.4-0.6-1.5-1.4c0-0.8,0.6-1.4,1.4-1.4c0,0,0,0,0,0
							C959.9,306.6,960.6,307.2,960.6,308C960.6,308,960.6,308,960.6,308z"/>
						<path class="st7" d="M979.2,308c0,0.8-0.6,1.4-1.4,1.4c-0.8,0-1.4-0.6-1.4-1.4c0-0.8,0.6-1.4,1.4-1.4c0,0,0,0,0,0
							C978.6,306.6,979.2,307.2,979.2,308z"/>
						<path class="st7" d="M997.8,308c0,0.8-0.6,1.4-1.4,1.4c-0.8,0-1.4-0.6-1.5-1.4c0-0.8,0.6-1.4,1.4-1.4c0,0,0,0,0,0
							C997.2,306.6,997.8,307.2,997.8,308z"/>
						<path class="st7" d="M1016.5,308c0,0.8-0.6,1.4-1.4,1.4c-0.8,0-1.4-0.6-1.4-1.4c0-0.8,0.6-1.4,1.4-1.4c0,0,0,0,0,0
							C1015.8,306.6,1016.5,307.2,1016.5,308z"/>
						<path class="st7" d="M1035.1,308c0,0.8-0.6,1.4-1.4,1.4s-1.4-0.6-1.4-1.4c0-0.8,0.6-1.4,1.4-1.4c0,0,0,0,0,0
							C1034.5,306.6,1035.1,307.2,1035.1,308z"/>
						<path class="st7" d="M1053.7,308c0,0.8-0.6,1.4-1.4,1.4c-0.8,0-1.4-0.6-1.4-1.4c0-0.8,0.6-1.4,1.4-1.4c0,0,0,0,0,0
							C1053.1,306.6,1053.7,307.2,1053.7,308C1053.7,308,1053.7,308,1053.7,308z"/>
						<path class="st7" d="M1072.4,308c0,0.8-0.6,1.4-1.4,1.4s-1.4-0.6-1.4-1.4c0-0.8,0.6-1.4,1.4-1.4c0,0,0,0,0,0
							C1071.7,306.6,1072.4,307.2,1072.4,308z"/>
						<path class="st7" d="M1091,308c0,0.8-0.6,1.4-1.4,1.4c-0.8,0-1.4-0.6-1.4-1.4c0-0.8,0.6-1.4,1.4-1.4c0,0,0,0,0,0
							C1090.4,306.6,1091,307.2,1091,308C1091,308,1091,308,1091,308z"/>
						<path class="st7" d="M1109.6,308c0,0.8-0.6,1.4-1.4,1.4c-0.8,0-1.4-0.6-1.4-1.4c0-0.8,0.6-1.4,1.4-1.4
							S1109.6,307.2,1109.6,308C1109.6,308,1109.6,308,1109.6,308z"/>
						<path class="st7" d="M1128.3,308c0,0.8-0.6,1.4-1.4,1.4s-1.4-0.6-1.4-1.4c0-0.8,0.6-1.4,1.4-1.4c0,0,0,0,0,0
							C1127.6,306.6,1128.3,307.2,1128.3,308C1128.3,308,1128.3,308,1128.3,308z"/>
						<path class="st7" d="M1146.9,308c0,0.8-0.6,1.4-1.4,1.4c-0.8,0-1.4-0.6-1.4-1.4c0-0.8,0.6-1.4,1.4-1.4c0,0,0,0,0,0
							C1146.3,306.6,1146.9,307.2,1146.9,308C1146.9,308,1146.9,308,1146.9,308z"/>
						<path class="st7" d="M1165.6,308c0,0.8-0.6,1.4-1.4,1.4s-1.4-0.6-1.4-1.4c0-0.8,0.6-1.4,1.4-1.4c0,0,0,0,0,0
							C1164.9,306.6,1165.5,307.2,1165.6,308C1165.6,308,1165.6,308,1165.6,308z"/>
						<path class="st7" d="M1184.2,308c0,0.8-0.6,1.4-1.4,1.4c-0.8,0-1.4-0.6-1.4-1.4c0-0.8,0.6-1.4,1.4-1.4c0,0,0,0,0,0
							C1183.5,306.6,1184.2,307.2,1184.2,308C1184.2,308,1184.2,308,1184.2,308z"/>
						<path class="st7" d="M1202.8,308c0,0.8-0.6,1.4-1.4,1.4s-1.4-0.6-1.4-1.4c0-0.8,0.6-1.4,1.4-1.4c0,0,0,0,0,0
							C1202.2,306.6,1202.8,307.2,1202.8,308z"/>
						<path class="st7" d="M1221.4,308c0,0.8-0.6,1.4-1.4,1.4c-0.8,0-1.4-0.6-1.4-1.4c0-0.8,0.6-1.4,1.4-1.4c0,0,0,0,0,0
							C1220.8,306.6,1221.4,307.2,1221.4,308C1221.4,308,1221.4,308,1221.4,308z"/>
						<path class="st7" d="M941.9,326.2c-0.1,0.8-0.8,1.4-1.6,1.3c-0.7-0.1-1.3-0.6-1.3-1.3c-0.1-0.8,0.5-1.5,1.3-1.6
							c0.8-0.1,1.5,0.5,1.6,1.3C941.9,326,941.9,326.1,941.9,326.2z"/>
						<path class="st7" d="M960.6,326.2c0,0.8-0.6,1.4-1.4,1.4s-1.4-0.6-1.4-1.4s0.6-1.4,1.4-1.4
							C959.9,324.8,960.6,325.4,960.6,326.2C960.6,326.2,960.6,326.2,960.6,326.2z"/>
						<path class="st7" d="M979.2,326.2c-0.1,0.8-0.8,1.4-1.6,1.3c-0.7-0.1-1.3-0.6-1.3-1.3c-0.1-0.8,0.5-1.5,1.3-1.6
							c0.8-0.1,1.5,0.5,1.6,1.3C979.2,326,979.2,326.1,979.2,326.2z"/>
						<path class="st7" d="M997.8,326.2c0,0.8-0.6,1.4-1.4,1.4s-1.4-0.6-1.4-1.4s0.6-1.4,1.4-1.4S997.8,325.4,997.8,326.2
							L997.8,326.2z"/>
						<path class="st7" d="M1016.5,326.2c0,0.8-0.6,1.4-1.4,1.4c-0.8,0-1.4-0.6-1.4-1.4c0-0.8,0.6-1.4,1.4-1.4c0,0,0,0,0,0
							C1015.8,324.8,1016.5,325.4,1016.5,326.2C1016.5,326.2,1016.5,326.2,1016.5,326.2z"/>
						<path class="st7" d="M1035.1,326.2c0,0.8-0.6,1.4-1.4,1.4c-0.8,0-1.4-0.6-1.4-1.4s0.6-1.4,1.4-1.4l0,0
							C1034.5,324.8,1035.1,325.4,1035.1,326.2z"/>
						<path class="st7" d="M1053.7,326.2c0,0.8-0.6,1.4-1.4,1.4c-0.8,0-1.4-0.6-1.4-1.4s0.6-1.4,1.4-1.4c0,0,0,0,0,0
							C1053.1,324.8,1053.7,325.4,1053.7,326.2C1053.7,326.2,1053.7,326.2,1053.7,326.2z"/>
						<path class="st7" d="M1072.4,326.2c0,0.8-0.6,1.4-1.4,1.4c-0.8,0-1.4-0.6-1.4-1.4s0.6-1.4,1.4-1.4l0,0
							C1071.7,324.8,1072.4,325.4,1072.4,326.2z"/>
						<path class="st7" d="M1091,326.2c0,0.8-0.6,1.4-1.4,1.4c-0.8,0-1.4-0.6-1.4-1.4s0.6-1.4,1.4-1.4c0,0,0,0,0,0
							C1090.4,324.8,1091,325.4,1091,326.2C1091,326.2,1091,326.2,1091,326.2z"/>
						<path class="st7" d="M1109.6,326.2c0,0.8-0.7,1.4-1.4,1.4c-0.8,0-1.4-0.7-1.4-1.4c0-0.8,0.6-1.4,1.4-1.4
							C1109,324.8,1109.6,325.4,1109.6,326.2C1109.6,326.2,1109.6,326.2,1109.6,326.2z"/>
						<path class="st7" d="M1128.3,326.2c0,0.8-0.6,1.4-1.4,1.4c-0.8,0-1.4-0.6-1.4-1.4s0.6-1.4,1.4-1.4l0,0
							C1127.6,324.8,1128.3,325.4,1128.3,326.2C1128.3,326.2,1128.3,326.2,1128.3,326.2z"/>
						<path class="st7" d="M1146.9,326.2c-0.1,0.8-0.8,1.4-1.6,1.3c-0.7-0.1-1.3-0.6-1.3-1.3c-0.1-0.8,0.5-1.5,1.3-1.6
							c0.8-0.1,1.5,0.5,1.6,1.3C1146.9,326,1146.9,326.1,1146.9,326.2z"/>
						<path class="st7" d="M1165.6,326.2c0,0.8-0.6,1.4-1.4,1.4c-0.8,0-1.4-0.6-1.4-1.4s0.6-1.4,1.4-1.4l0,0
							C1164.9,324.8,1165.5,325.4,1165.6,326.2C1165.6,326.2,1165.6,326.2,1165.6,326.2z"/>
						<path class="st7" d="M1184.2,326.2c-0.1,0.8-0.8,1.4-1.6,1.3c-0.7-0.1-1.3-0.6-1.3-1.3c-0.1-0.8,0.5-1.5,1.3-1.6
							c0.8-0.1,1.5,0.5,1.6,1.3C1184.2,326,1184.2,326.1,1184.2,326.2z"/>
						<path class="st7" d="M1202.8,326.2c0,0.8-0.6,1.4-1.4,1.4c-0.8,0-1.4-0.6-1.4-1.4s0.6-1.4,1.4-1.4l0,0
							C1202.2,324.8,1202.8,325.4,1202.8,326.2z"/>
						<path class="st7" d="M1221.4,326.2c0,0.8-0.6,1.4-1.4,1.4c-0.8,0-1.4-0.6-1.4-1.4s0.6-1.4,1.4-1.4c0,0,0,0,0,0
							C1220.8,324.8,1221.4,325.4,1221.4,326.2C1221.4,326.2,1221.4,326.2,1221.4,326.2z"/>
						<circle class="st7" cx="940.5" cy="344.4" r="1.4"/>
						<circle class="st7" cx="959.1" cy="344.4" r="1.4"/>
						<circle class="st7" cx="977.8" cy="344.4" r="1.4"/>
						<path class="st7" d="M997.8,344.4c0,0.8-0.6,1.4-1.4,1.4s-1.4-0.6-1.4-1.4s0.6-1.4,1.4-1.4S997.8,343.6,997.8,344.4
							L997.8,344.4z"/>
						<path class="st7" d="M1016.5,344.4c0,0.8-0.6,1.4-1.4,1.4c-0.8,0-1.4-0.6-1.4-1.4c0-0.8,0.6-1.4,1.4-1.4c0,0,0,0,0,0
							C1015.8,342.9,1016.5,343.6,1016.5,344.4C1016.5,344.4,1016.5,344.4,1016.5,344.4z"/>
						<path class="st7" d="M1035.1,344.4c0,0.8-0.6,1.4-1.4,1.4c-0.8,0-1.4-0.6-1.4-1.4s0.6-1.4,1.4-1.4l0,0
							C1034.5,342.9,1035.1,343.6,1035.1,344.4z"/>
						<circle class="st7" cx="1052.3" cy="344.4" r="1.4"/>
						<circle class="st7" cx="1070.9" cy="344.4" r="1.4"/>
						<path class="st7" d="M1091,344.4c0,0.8-0.6,1.4-1.4,1.4c-0.8,0-1.4-0.6-1.4-1.4s0.6-1.4,1.4-1.4c0,0,0,0,0,0
							C1090.4,342.9,1091,343.6,1091,344.4C1091,344.4,1091,344.4,1091,344.4z"/>
						<path class="st7" d="M1109.6,344.4c0,0.8-0.7,1.4-1.4,1.4c-0.8,0-1.4-0.7-1.4-1.4c0-0.8,0.6-1.4,1.4-1.4
							C1109,342.9,1109.6,343.6,1109.6,344.4C1109.6,344.4,1109.6,344.4,1109.6,344.4z"/>
						<path class="st7" d="M1128.3,344.4c0,0.8-0.6,1.4-1.4,1.4c-0.8,0-1.4-0.6-1.4-1.4s0.6-1.4,1.4-1.4l0,0
							C1127.6,342.9,1128.3,343.6,1128.3,344.4C1128.3,344.3,1128.3,344.4,1128.3,344.4z"/>
						<path class="st7" d="M1146.9,344.4c0,0.8-0.6,1.4-1.4,1.4c-0.8,0-1.4-0.6-1.4-1.4s0.6-1.4,1.4-1.4c0,0,0,0,0,0
							C1146.3,342.9,1146.9,343.6,1146.9,344.4C1146.9,344.4,1146.9,344.4,1146.9,344.4z"/>
						<path class="st7" d="M1165.6,344.4c0,0.8-0.6,1.4-1.4,1.4c-0.8,0-1.4-0.6-1.4-1.4s0.6-1.4,1.4-1.4l0,0
							C1164.9,342.9,1165.5,343.6,1165.6,344.4C1165.6,344.3,1165.6,344.4,1165.6,344.4z"/>
						<circle class="st7" cx="1182.8" cy="344.4" r="1.4"/>
						<path class="st7" d="M1202.8,344.4c0,0.8-0.6,1.4-1.4,1.4c-0.8,0-1.4-0.6-1.4-1.4s0.6-1.4,1.4-1.4l0,0
							C1202.2,342.9,1202.8,343.6,1202.8,344.4z"/>
						<path class="st7" d="M1221.4,344.4c0,0.8-0.6,1.4-1.4,1.4c-0.8,0-1.4-0.6-1.4-1.4s0.6-1.4,1.4-1.4c0,0,0,0,0,0
							C1220.8,342.9,1221.4,343.6,1221.4,344.4C1221.4,344.4,1221.4,344.4,1221.4,344.4z"/>
						<path class="st7" d="M941.9,362.5c0,0.8-0.6,1.4-1.4,1.4c-0.8,0-1.4-0.6-1.4-1.4c0-0.8,0.6-1.4,1.4-1.4c0,0,0,0,0,0
							C941.3,361.1,941.9,361.7,941.9,362.5z"/>
						<path class="st7" d="M960.6,362.5c0,0.8-0.6,1.4-1.4,1.4c-0.8,0-1.4-0.6-1.5-1.4c0-0.8,0.6-1.4,1.4-1.4c0,0,0,0,0,0
							C959.9,361.1,960.6,361.7,960.6,362.5C960.6,362.5,960.6,362.5,960.6,362.5z"/>
						<path class="st7" d="M979.2,362.5c0,0.8-0.6,1.4-1.4,1.4c-0.8,0-1.4-0.6-1.4-1.4c0-0.8,0.6-1.4,1.4-1.4c0,0,0,0,0,0
							C978.6,361.1,979.2,361.7,979.2,362.5z"/>
						<path class="st7" d="M997.8,362.5c0,0.8-0.6,1.4-1.4,1.4c-0.8,0-1.4-0.6-1.5-1.4c0-0.8,0.6-1.4,1.4-1.4c0,0,0,0,0,0
							C997.2,361.1,997.8,361.7,997.8,362.5z"/>
						<path class="st7" d="M1016.5,362.5c0,0.8-0.6,1.4-1.4,1.4c-0.8,0-1.4-0.6-1.4-1.4c0-0.8,0.6-1.4,1.4-1.4c0,0,0,0,0,0
							C1015.8,361.1,1016.5,361.7,1016.5,362.5z"/>
						<path class="st7" d="M1035.1,362.5c0,0.8-0.6,1.4-1.4,1.4s-1.4-0.6-1.4-1.4c0-0.8,0.6-1.4,1.4-1.4c0,0,0,0,0,0
							C1034.5,361.1,1035.1,361.7,1035.1,362.5z"/>
						<path class="st7" d="M1053.7,362.5c0,0.8-0.6,1.4-1.4,1.4c-0.8,0-1.4-0.6-1.4-1.4c0-0.8,0.6-1.4,1.4-1.4c0,0,0,0,0,0
							C1053.1,361.1,1053.7,361.7,1053.7,362.5C1053.7,362.5,1053.7,362.5,1053.7,362.5z"/>
						<path class="st7" d="M1072.4,362.5c0,0.8-0.6,1.4-1.4,1.4s-1.4-0.6-1.4-1.4c0-0.8,0.6-1.4,1.4-1.4c0,0,0,0,0,0
							C1071.7,361.1,1072.4,361.7,1072.4,362.5z"/>
						<path class="st7" d="M1091,362.5c0,0.8-0.6,1.4-1.4,1.4c-0.8,0-1.4-0.6-1.4-1.4c0-0.8,0.6-1.4,1.4-1.4c0,0,0,0,0,0
							C1090.4,361.1,1091,361.7,1091,362.5C1091,362.5,1091,362.5,1091,362.5z"/>
						<path class="st7" d="M1109.6,362.5c0,0.8-0.6,1.4-1.4,1.4c-0.8,0-1.4-0.6-1.4-1.4c0-0.8,0.6-1.4,1.4-1.4
							S1109.6,361.7,1109.6,362.5C1109.6,362.5,1109.6,362.5,1109.6,362.5z"/>
						<path class="st7" d="M1128.3,362.5c0,0.8-0.6,1.4-1.4,1.4s-1.4-0.6-1.4-1.4c0-0.8,0.6-1.4,1.4-1.4c0,0,0,0,0,0
							C1127.6,361.1,1128.3,361.7,1128.3,362.5C1128.3,362.5,1128.3,362.5,1128.3,362.5z"/>
						<path class="st7" d="M1146.9,362.5c0,0.8-0.6,1.4-1.4,1.4c-0.8,0-1.4-0.6-1.4-1.4c0-0.8,0.6-1.4,1.4-1.4c0,0,0,0,0,0
							C1146.3,361.1,1146.9,361.7,1146.9,362.5C1146.9,362.5,1146.9,362.5,1146.9,362.5z"/>
						<path class="st7" d="M1165.6,362.5c0,0.8-0.6,1.4-1.4,1.4s-1.4-0.6-1.4-1.4c0-0.8,0.6-1.4,1.4-1.4c0,0,0,0,0,0
							C1164.9,361.1,1165.5,361.7,1165.6,362.5C1165.6,362.5,1165.6,362.5,1165.6,362.5z"/>
						<path class="st7" d="M1184.2,362.5c0,0.8-0.6,1.4-1.4,1.4c-0.8,0-1.4-0.6-1.4-1.4c0-0.8,0.6-1.4,1.4-1.4c0,0,0,0,0,0
							C1183.5,361.1,1184.2,361.7,1184.2,362.5C1184.2,362.5,1184.2,362.5,1184.2,362.5z"/>
						<path class="st7" d="M1202.8,362.5c0,0.8-0.6,1.4-1.4,1.4s-1.4-0.6-1.4-1.4c0-0.8,0.6-1.4,1.4-1.4c0,0,0,0,0,0
							C1202.2,361.1,1202.8,361.7,1202.8,362.5z"/>
						<path class="st7" d="M1221.4,362.5c0,0.8-0.6,1.4-1.4,1.4c-0.8,0-1.4-0.6-1.4-1.4c0-0.8,0.6-1.4,1.4-1.4c0,0,0,0,0,0
							C1220.8,361.1,1221.4,361.7,1221.4,362.5C1221.4,362.5,1221.4,362.5,1221.4,362.5z"/>
						<path class="st7" d="M941.9,380.7c0,0.8-0.6,1.4-1.4,1.4c-0.8,0-1.4-0.6-1.4-1.4c0-0.8,0.6-1.4,1.4-1.4c0,0,0,0,0,0
							C941.3,379.2,941.9,379.9,941.9,380.7z"/>
						<path class="st7" d="M960.6,380.7c0,0.8-0.6,1.4-1.4,1.4c-0.8,0-1.4-0.6-1.5-1.4c0-0.8,0.6-1.4,1.4-1.4c0,0,0,0,0,0
							C959.9,379.2,960.6,379.9,960.6,380.7C960.6,380.7,960.6,380.7,960.6,380.7z"/>
						<path class="st7" d="M979.2,380.7c0,0.8-0.6,1.4-1.4,1.4c-0.8,0-1.4-0.6-1.4-1.4c0-0.8,0.6-1.4,1.4-1.4c0,0,0,0,0,0
							C978.6,379.2,979.2,379.9,979.2,380.7z"/>
						<path class="st7" d="M997.8,380.7c0,0.8-0.6,1.4-1.4,1.4c-0.8,0-1.4-0.6-1.5-1.4c0-0.8,0.6-1.4,1.4-1.4c0,0,0,0,0,0
							C997.2,379.2,997.8,379.9,997.8,380.7z"/>
						<path class="st7" d="M1016.5,380.7c0,0.8-0.6,1.4-1.4,1.4c-0.8,0-1.4-0.6-1.4-1.4c0-0.8,0.6-1.4,1.4-1.4c0,0,0,0,0,0
							C1015.8,379.2,1016.5,379.9,1016.5,380.7z"/>
						<path class="st7" d="M1035.1,380.7c0,0.8-0.6,1.4-1.4,1.4s-1.4-0.6-1.4-1.4c0-0.8,0.6-1.4,1.4-1.4c0,0,0,0,0,0
							C1034.5,379.2,1035.1,379.9,1035.1,380.7z"/>
						<path class="st7" d="M1053.7,380.7c0,0.8-0.6,1.4-1.4,1.4c-0.8,0-1.4-0.6-1.4-1.4c0-0.8,0.6-1.4,1.4-1.4c0,0,0,0,0,0
							C1053.1,379.2,1053.7,379.9,1053.7,380.7C1053.7,380.7,1053.7,380.7,1053.7,380.7z"/>
						<path class="st7" d="M1072.4,380.7c0,0.8-0.6,1.4-1.4,1.4s-1.4-0.6-1.4-1.4c0-0.8,0.6-1.4,1.4-1.4c0,0,0,0,0,0
							C1071.7,379.2,1072.4,379.9,1072.4,380.7z"/>
						<path class="st7" d="M1091,380.7c0,0.8-0.6,1.4-1.4,1.4c-0.8,0-1.4-0.6-1.4-1.4c0-0.8,0.6-1.4,1.4-1.4c0,0,0,0,0,0
							C1090.4,379.2,1091,379.9,1091,380.7C1091,380.7,1091,380.7,1091,380.7z"/>
						<path class="st7" d="M1109.6,380.7c0,0.8-0.6,1.4-1.4,1.4c-0.8,0-1.4-0.6-1.4-1.4c0-0.8,0.6-1.4,1.4-1.4
							S1109.6,379.9,1109.6,380.7C1109.6,380.7,1109.6,380.7,1109.6,380.7z"/>
						<path class="st7" d="M1128.3,380.7c0,0.8-0.6,1.4-1.4,1.4s-1.4-0.6-1.4-1.4c0-0.8,0.6-1.4,1.4-1.4c0,0,0,0,0,0
							C1127.6,379.2,1128.3,379.9,1128.3,380.7C1128.3,380.7,1128.3,380.7,1128.3,380.7z"/>
						<path class="st7" d="M1146.9,380.7c0,0.8-0.6,1.4-1.4,1.4c-0.8,0-1.4-0.6-1.4-1.4c0-0.8,0.6-1.4,1.4-1.4c0,0,0,0,0,0
							C1146.3,379.2,1146.9,379.9,1146.9,380.7C1146.9,380.7,1146.9,380.7,1146.9,380.7z"/>
						<path class="st7" d="M1165.6,380.7c0,0.8-0.6,1.4-1.4,1.4s-1.4-0.6-1.4-1.4c0-0.8,0.6-1.4,1.4-1.4c0,0,0,0,0,0
							C1164.9,379.2,1165.5,379.9,1165.6,380.7C1165.6,380.7,1165.6,380.7,1165.6,380.7z"/>
						<path class="st7" d="M1184.2,380.7c0,0.8-0.6,1.4-1.4,1.4c-0.8,0-1.4-0.6-1.4-1.4c0-0.8,0.6-1.4,1.4-1.4c0,0,0,0,0,0
							C1183.5,379.2,1184.2,379.9,1184.2,380.7C1184.2,380.7,1184.2,380.7,1184.2,380.7z"/>
						<path class="st7" d="M1202.8,380.7c0,0.8-0.6,1.4-1.4,1.4s-1.4-0.6-1.4-1.4c0-0.8,0.6-1.4,1.4-1.4c0,0,0,0,0,0
							C1202.2,379.2,1202.8,379.9,1202.8,380.7z"/>
						<path class="st7" d="M1221.4,380.7c0,0.8-0.6,1.4-1.4,1.4c-0.8,0-1.4-0.6-1.4-1.4c0-0.8,0.6-1.4,1.4-1.4c0,0,0,0,0,0
							C1220.8,379.2,1221.4,379.9,1221.4,380.7C1221.4,380.7,1221.4,380.7,1221.4,380.7z"/>
						<circle class="st7" cx="940.5" cy="398.8" r="1.4"/>
						<circle class="st7" cx="959.1" cy="398.8" r="1.4"/>
						<circle class="st7" cx="977.8" cy="398.8" r="1.4"/>
						<path class="st7" d="M997.8,398.8c0.1,0.8-0.5,1.5-1.3,1.6c-0.8,0.1-1.5-0.5-1.6-1.3c0-0.1,0-0.2,0-0.2
							c0.1-0.8,0.8-1.4,1.6-1.3C997.2,397.6,997.8,398.1,997.8,398.8z"/>
						<path class="st7" d="M1016.5,398.8c0,0.8-0.6,1.4-1.4,1.4c-0.8,0-1.4-0.6-1.4-1.4c0-0.8,0.6-1.4,1.4-1.4c0,0,0,0,0,0
							C1015.8,397.4,1016.5,398,1016.5,398.8z"/>
						<path class="st7" d="M1035.1,398.8c0.1,0.8-0.5,1.5-1.3,1.6c-0.8,0.1-1.5-0.5-1.6-1.3c0-0.1,0-0.2,0-0.2
							c0.1-0.8,0.8-1.4,1.6-1.3C1034.5,397.6,1035.1,398.1,1035.1,398.8z"/>
						<circle class="st7" cx="1052.3" cy="398.8" r="1.4"/>
						<circle class="st7" cx="1070.9" cy="398.8" r="1.4"/>
						<path class="st7" d="M1091,398.8c0,0.8-0.6,1.4-1.4,1.4c-0.8,0-1.4-0.6-1.4-1.4c0-0.8,0.6-1.4,1.4-1.4c0,0,0,0,0,0
							C1090.4,397.4,1091,398,1091,398.8z"/>
						<path class="st7" d="M1109.6,398.8c0,0.8-0.6,1.4-1.4,1.4c-0.8,0-1.4-0.6-1.4-1.4c0-0.8,0.6-1.4,1.4-1.4
							C1109,397.4,1109.6,398,1109.6,398.8z"/>
						<path class="st7" d="M1128.3,398.8c0,0.8-0.6,1.4-1.4,1.4s-1.4-0.6-1.4-1.4c0-0.8,0.6-1.4,1.4-1.4c0,0,0,0,0,0
							C1127.6,397.4,1128.3,398,1128.3,398.8z"/>
						<path class="st7" d="M1146.9,398.8c0,0.8-0.6,1.4-1.4,1.4c-0.8,0-1.4-0.6-1.4-1.4c0-0.8,0.6-1.4,1.4-1.4c0,0,0,0,0,0
							C1146.3,397.4,1146.9,398,1146.9,398.8z"/>
						<path class="st7" d="M1165.6,398.8c0,0.8-0.6,1.4-1.4,1.4s-1.4-0.6-1.4-1.4c0-0.8,0.6-1.4,1.4-1.4c0,0,0,0,0,0
							C1164.9,397.4,1165.5,398,1165.6,398.8z"/>
						<circle class="st7" cx="1182.8" cy="398.8" r="1.4"/>
						<path class="st7" d="M1202.8,398.8c0.1,0.8-0.5,1.5-1.3,1.6c-0.8,0.1-1.5-0.5-1.6-1.3c0-0.1,0-0.2,0-0.2
							c0.1-0.8,0.8-1.4,1.6-1.3C1202.2,397.6,1202.8,398.1,1202.8,398.8z"/>
						<path class="st7" d="M1221.4,398.8c0,0.8-0.6,1.4-1.4,1.4c-0.8,0-1.4-0.6-1.4-1.4c0-0.8,0.6-1.4,1.4-1.4c0,0,0,0,0,0
							C1220.8,397.4,1221.4,398,1221.4,398.8z"/>
						<path class="st7" d="M941.9,417c0,0.8-0.6,1.4-1.4,1.4c-0.8,0-1.4-0.6-1.4-1.4c0-0.8,0.6-1.4,1.4-1.4c0,0,0,0,0,0
							C941.3,415.6,941.9,416.2,941.9,417z"/>
						<path class="st7" d="M960.6,417c0,0.8-0.6,1.4-1.4,1.4c-0.8,0-1.4-0.6-1.5-1.4c0-0.8,0.6-1.4,1.4-1.4c0,0,0,0,0,0
							C959.9,415.6,960.6,416.2,960.6,417C960.6,417,960.6,417,960.6,417z"/>
						<path class="st7" d="M979.2,417c0,0.8-0.6,1.4-1.4,1.4c-0.8,0-1.4-0.6-1.4-1.4c0-0.8,0.6-1.4,1.4-1.4c0,0,0,0,0,0
							C978.6,415.6,979.2,416.2,979.2,417z"/>
						<path class="st7" d="M997.8,417c0,0.8-0.6,1.4-1.4,1.4c-0.8,0-1.4-0.6-1.5-1.4c0-0.8,0.6-1.4,1.4-1.4c0,0,0,0,0,0
							C997.2,415.6,997.8,416.2,997.8,417z"/>
						<path class="st7" d="M1016.5,417c0,0.8-0.6,1.4-1.4,1.4c-0.8,0-1.4-0.6-1.4-1.4c0-0.8,0.6-1.4,1.4-1.4c0,0,0,0,0,0
							C1015.8,415.6,1016.5,416.2,1016.5,417z"/>
						<path class="st7" d="M1035.1,417c0,0.8-0.6,1.4-1.4,1.4s-1.4-0.6-1.4-1.4c0-0.8,0.6-1.4,1.4-1.4c0,0,0,0,0,0
							C1034.5,415.6,1035.1,416.2,1035.1,417z"/>
						<path class="st7" d="M1053.7,417c0,0.8-0.6,1.4-1.4,1.4c-0.8,0-1.4-0.6-1.4-1.4c0-0.8,0.6-1.4,1.4-1.4c0,0,0,0,0,0
							C1053.1,415.6,1053.7,416.2,1053.7,417C1053.7,417,1053.7,417,1053.7,417z"/>
						<path class="st7" d="M1072.4,417c0,0.8-0.6,1.4-1.4,1.4s-1.4-0.6-1.4-1.4c0-0.8,0.6-1.4,1.4-1.4c0,0,0,0,0,0
							C1071.7,415.6,1072.4,416.2,1072.4,417z"/>
						<path class="st7" d="M1091,417c0,0.8-0.6,1.4-1.4,1.4c-0.8,0-1.4-0.6-1.4-1.4c0-0.8,0.6-1.4,1.4-1.4c0,0,0,0,0,0
							C1090.4,415.6,1091,416.2,1091,417C1091,417,1091,417,1091,417z"/>
						<path class="st7" d="M1109.6,417c0,0.8-0.6,1.4-1.4,1.4c-0.8,0-1.4-0.6-1.4-1.4c0-0.8,0.6-1.4,1.4-1.4
							S1109.6,416.2,1109.6,417C1109.6,417,1109.6,417,1109.6,417z"/>
						<path class="st7" d="M1128.3,417c0,0.8-0.6,1.4-1.4,1.4s-1.4-0.6-1.4-1.4c0-0.8,0.6-1.4,1.4-1.4c0,0,0,0,0,0
							C1127.6,415.6,1128.3,416.2,1128.3,417C1128.3,417,1128.3,417,1128.3,417z"/>
						<path class="st7" d="M1146.9,417c0,0.8-0.6,1.4-1.4,1.4c-0.8,0-1.4-0.6-1.4-1.4c0-0.8,0.6-1.4,1.4-1.4c0,0,0,0,0,0
							C1146.3,415.6,1146.9,416.2,1146.9,417C1146.9,417,1146.9,417,1146.9,417z"/>
						<path class="st7" d="M1165.6,417c0,0.8-0.6,1.4-1.4,1.4s-1.4-0.6-1.4-1.4c0-0.8,0.6-1.4,1.4-1.4c0,0,0,0,0,0
							C1164.9,415.6,1165.5,416.2,1165.6,417C1165.6,417,1165.6,417,1165.6,417z"/>
						<path class="st7" d="M1184.2,417c0,0.8-0.6,1.4-1.4,1.4c-0.8,0-1.4-0.6-1.4-1.4c0-0.8,0.6-1.4,1.4-1.4c0,0,0,0,0,0
							C1183.5,415.6,1184.2,416.2,1184.2,417C1184.2,417,1184.2,417,1184.2,417z"/>
						<path class="st7" d="M1202.8,417c0,0.8-0.6,1.4-1.4,1.4s-1.4-0.6-1.4-1.4c0-0.8,0.6-1.4,1.4-1.4c0,0,0,0,0,0
							C1202.2,415.6,1202.8,416.2,1202.8,417z"/>
						<path class="st7" d="M1221.4,417c0,0.8-0.6,1.4-1.4,1.4c-0.8,0-1.4-0.6-1.4-1.4c0-0.8,0.6-1.4,1.4-1.4c0,0,0,0,0,0
							C1220.8,415.6,1221.4,416.2,1221.4,417C1221.4,417,1221.4,417,1221.4,417z"/>
						<path class="st7" d="M941.9,435.1c-0.1,0.8-0.8,1.4-1.6,1.3c-0.7-0.1-1.3-0.6-1.3-1.3c-0.1-0.8,0.5-1.5,1.3-1.6
							c0.8-0.1,1.5,0.5,1.6,1.3C941.9,435,941.9,435.1,941.9,435.1z"/>
						<path class="st7" d="M960.6,435.1c0,0.8-0.6,1.4-1.4,1.4s-1.4-0.6-1.4-1.4s0.6-1.4,1.4-1.4
							C959.9,433.7,960.6,434.3,960.6,435.1C960.6,435.1,960.6,435.1,960.6,435.1z"/>
						<path class="st7" d="M979.2,435.1c-0.1,0.8-0.8,1.4-1.6,1.3c-0.7-0.1-1.3-0.6-1.3-1.3c-0.1-0.8,0.5-1.5,1.3-1.6
							c0.8-0.1,1.5,0.5,1.6,1.3C979.2,435,979.2,435.1,979.2,435.1z"/>
						<path class="st7" d="M997.8,435.1c0,0.8-0.6,1.4-1.4,1.4s-1.4-0.6-1.4-1.4s0.6-1.4,1.4-1.4S997.8,434.4,997.8,435.1
							L997.8,435.1z"/>
						<path class="st7" d="M1016.5,435.1c0,0.8-0.6,1.4-1.4,1.4c-0.8,0-1.4-0.6-1.4-1.4c0-0.8,0.6-1.4,1.4-1.4c0,0,0,0,0,0
							C1015.8,433.7,1016.5,434.4,1016.5,435.1C1016.5,435.1,1016.5,435.1,1016.5,435.1z"/>
						<path class="st7" d="M1035.1,435.1c0,0.8-0.6,1.4-1.4,1.4c-0.8,0-1.4-0.6-1.4-1.4s0.6-1.4,1.4-1.4l0,0
							C1034.5,433.7,1035.1,434.4,1035.1,435.1z"/>
						<path class="st7" d="M1053.7,435.1c0,0.8-0.6,1.4-1.4,1.4c-0.8,0-1.4-0.6-1.4-1.4s0.6-1.4,1.4-1.4c0,0,0,0,0,0
							C1053.1,433.7,1053.7,434.4,1053.7,435.1C1053.7,435.1,1053.7,435.1,1053.7,435.1z"/>
						<path class="st7" d="M1072.4,435.1c0,0.8-0.6,1.4-1.4,1.4c-0.8,0-1.4-0.6-1.4-1.4s0.6-1.4,1.4-1.4l0,0
							C1071.7,433.7,1072.4,434.4,1072.4,435.1z"/>
						<path class="st7" d="M1091,435.1c0,0.8-0.6,1.4-1.4,1.4c-0.8,0-1.4-0.6-1.4-1.4s0.6-1.4,1.4-1.4c0,0,0,0,0,0
							C1090.4,433.7,1091,434.4,1091,435.1C1091,435.1,1091,435.1,1091,435.1z"/>
						<path class="st7" d="M1109.6,435.1c0,0.8-0.7,1.4-1.4,1.4c-0.8,0-1.4-0.7-1.4-1.4c0-0.8,0.6-1.4,1.4-1.4
							C1109,433.7,1109.6,434.4,1109.6,435.1C1109.6,435.1,1109.6,435.1,1109.6,435.1z"/>
						<path class="st7" d="M1128.3,435.1c0,0.8-0.6,1.4-1.4,1.4c-0.8,0-1.4-0.6-1.4-1.4s0.6-1.4,1.4-1.4l0,0
							C1127.6,433.7,1128.3,434.3,1128.3,435.1C1128.3,435.1,1128.3,435.1,1128.3,435.1z"/>
						<path class="st7" d="M1146.9,435.1c-0.1,0.8-0.8,1.4-1.6,1.3c-0.7-0.1-1.3-0.6-1.3-1.3c-0.1-0.8,0.5-1.5,1.3-1.6
							c0.8-0.1,1.5,0.5,1.6,1.3C1146.9,435,1146.9,435.1,1146.9,435.1z"/>
						<path class="st7" d="M1165.6,435.1c0,0.8-0.6,1.4-1.4,1.4c-0.8,0-1.4-0.6-1.4-1.4s0.6-1.4,1.4-1.4l0,0
							C1164.9,433.7,1165.5,434.3,1165.6,435.1C1165.6,435.1,1165.6,435.1,1165.6,435.1z"/>
						<path class="st7" d="M1184.2,435.1c-0.1,0.8-0.8,1.4-1.6,1.3c-0.7-0.1-1.3-0.6-1.3-1.3c-0.1-0.8,0.5-1.5,1.3-1.6
							c0.8-0.1,1.5,0.5,1.6,1.3C1184.2,435,1184.2,435.1,1184.2,435.1z"/>
						<path class="st7" d="M1202.8,435.1c0,0.8-0.6,1.4-1.4,1.4c-0.8,0-1.4-0.6-1.4-1.4s0.6-1.4,1.4-1.4l0,0
							C1202.2,433.7,1202.8,434.4,1202.8,435.1z"/>
						<path class="st7" d="M1221.4,435.1c0,0.8-0.6,1.4-1.4,1.4c-0.8,0-1.4-0.6-1.4-1.4s0.6-1.4,1.4-1.4c0,0,0,0,0,0
							C1220.8,433.7,1221.4,434.4,1221.4,435.1C1221.4,435.1,1221.4,435.1,1221.4,435.1z"/>
						<circle class="st7" cx="940.5" cy="453.3" r="1.4"/>
						<circle class="st7" cx="959.1" cy="453.3" r="1.4"/>
						<circle class="st7" cx="977.8" cy="453.3" r="1.4"/>
						<path class="st7" d="M997.8,453.3c0,0.8-0.6,1.4-1.4,1.4s-1.4-0.6-1.4-1.4s0.6-1.4,1.4-1.4S997.8,452.5,997.8,453.3
							L997.8,453.3z"/>
						<path class="st7" d="M1016.5,453.3c0,0.8-0.6,1.4-1.4,1.4c-0.8,0-1.4-0.6-1.4-1.4c0-0.8,0.6-1.4,1.4-1.4c0,0,0,0,0,0
							C1015.8,451.9,1016.5,452.5,1016.5,453.3C1016.5,453.3,1016.5,453.3,1016.5,453.3z"/>
						<path class="st7" d="M1035.1,453.3c0,0.8-0.6,1.4-1.4,1.4c-0.8,0-1.4-0.6-1.4-1.4s0.6-1.4,1.4-1.4l0,0
							C1034.5,451.9,1035.1,452.5,1035.1,453.3z"/>
						<circle class="st7" cx="1052.3" cy="453.3" r="1.4"/>
						<circle class="st7" cx="1070.9" cy="453.3" r="1.4"/>
						<path class="st7" d="M1091,453.3c0,0.8-0.6,1.4-1.4,1.4c-0.8,0-1.4-0.6-1.4-1.4s0.6-1.4,1.4-1.4c0,0,0,0,0,0
							C1090.4,451.9,1091,452.5,1091,453.3C1091,453.3,1091,453.3,1091,453.3z"/>
						<path class="st7" d="M1109.6,453.3c0,0.8-0.7,1.4-1.4,1.4c-0.8,0-1.4-0.7-1.4-1.4c0-0.8,0.6-1.4,1.4-1.4
							C1109,451.9,1109.6,452.5,1109.6,453.3C1109.6,453.3,1109.6,453.3,1109.6,453.3z"/>
						<path class="st7" d="M1128.3,453.3c0,0.8-0.6,1.4-1.4,1.4c-0.8,0-1.4-0.6-1.4-1.4s0.6-1.4,1.4-1.4l0,0
							C1127.6,451.9,1128.3,452.5,1128.3,453.3C1128.3,453.3,1128.3,453.3,1128.3,453.3z"/>
						<path class="st7" d="M1146.9,453.3c0,0.8-0.6,1.4-1.4,1.4c-0.8,0-1.4-0.6-1.4-1.4s0.6-1.4,1.4-1.4c0,0,0,0,0,0
							C1146.3,451.9,1146.9,452.5,1146.9,453.3C1146.9,453.3,1146.9,453.3,1146.9,453.3z"/>
						<path class="st7" d="M1165.6,453.3c0,0.8-0.6,1.4-1.4,1.4c-0.8,0-1.4-0.6-1.4-1.4s0.6-1.4,1.4-1.4l0,0
							C1164.9,451.9,1165.5,452.5,1165.6,453.3C1165.6,453.3,1165.6,453.3,1165.6,453.3z"/>
						<circle class="st7" cx="1182.8" cy="453.3" r="1.4"/>
						<path class="st7" d="M1202.8,453.3c0,0.8-0.6,1.4-1.4,1.4c-0.8,0-1.4-0.6-1.4-1.4s0.6-1.4,1.4-1.4l0,0
							C1202.2,451.9,1202.8,452.5,1202.8,453.3z"/>
						<path class="st7" d="M1221.4,453.3c0,0.8-0.6,1.4-1.4,1.4c-0.8,0-1.4-0.6-1.4-1.4s0.6-1.4,1.4-1.4c0,0,0,0,0,0
							C1220.8,451.9,1221.4,452.5,1221.4,453.3C1221.4,453.3,1221.4,453.3,1221.4,453.3z"/>
						<path class="st7" d="M941.9,471.5c0,0.8-0.7,1.4-1.5,1.4c-0.8,0-1.4-0.7-1.4-1.5c0-0.8,0.7-1.4,1.4-1.4
							C941.3,470,941.9,470.6,941.9,471.5C941.9,471.4,941.9,471.4,941.9,471.5z"/>
						<path class="st7" d="M960.6,471.5c0,0.8-0.6,1.4-1.4,1.4c-0.8,0-1.4-0.6-1.5-1.4c0-0.8,0.6-1.4,1.4-1.4c0,0,0,0,0,0
							C959.9,470,960.6,470.7,960.6,471.5C960.6,471.5,960.6,471.5,960.6,471.5z"/>
						<path class="st7" d="M979.2,471.5c0,0.8-0.6,1.4-1.4,1.4c-0.8,0-1.4-0.6-1.4-1.4c0-0.8,0.6-1.4,1.4-1.4c0,0,0,0,0,0
							C978.6,470,979.2,470.7,979.2,471.5z"/>
						<path class="st7" d="M997.8,471.5c0,0.8-0.7,1.4-1.5,1.4c-0.8,0-1.4-0.7-1.4-1.5c0-0.8,0.7-1.4,1.4-1.4
							C997.2,470,997.8,470.6,997.8,471.5C997.8,471.4,997.8,471.5,997.8,471.5z"/>
						<path class="st7" d="M1016.5,471.5c0,0.8-0.7,1.4-1.5,1.4c-0.8,0-1.4-0.7-1.4-1.5c0-0.8,0.6-1.4,1.4-1.4
							C1015.8,470,1016.4,470.6,1016.5,471.5C1016.5,471.4,1016.5,471.4,1016.5,471.5z"/>
						<path class="st7" d="M1035.1,471.5c0,0.8-0.6,1.4-1.4,1.4s-1.4-0.6-1.4-1.4c0-0.8,0.6-1.4,1.4-1.4c0,0,0,0,0,0
							C1034.5,470,1035.1,470.7,1035.1,471.5z"/>
						<path class="st7" d="M1053.7,471.5c0,0.8-0.6,1.4-1.4,1.4c-0.8,0-1.4-0.6-1.4-1.4c0-0.8,0.6-1.4,1.4-1.4c0,0,0,0,0,0
							C1053.1,470,1053.7,470.7,1053.7,471.5C1053.7,471.5,1053.7,471.5,1053.7,471.5z"/>
						<path class="st7" d="M1072.4,471.5c0,0.8-0.6,1.4-1.4,1.4s-1.4-0.6-1.4-1.4c0-0.8,0.6-1.4,1.4-1.4c0,0,0,0,0,0
							C1071.7,470,1072.4,470.7,1072.4,471.5z"/>
						<path class="st7" d="M1091,471.5c0,0.8-0.6,1.4-1.4,1.4c-0.8,0-1.4-0.6-1.4-1.4c0-0.8,0.6-1.4,1.4-1.4c0,0,0,0,0,0
							C1090.4,470,1091,470.7,1091,471.5C1091,471.5,1091,471.5,1091,471.5z"/>
						<path class="st7" d="M1109.6,471.5c0,0.8-0.6,1.4-1.4,1.4c-0.8,0-1.4-0.6-1.4-1.4c0-0.8,0.6-1.4,1.4-1.4
							S1109.6,470.7,1109.6,471.5C1109.6,471.5,1109.6,471.5,1109.6,471.5z"/>
						<path class="st7" d="M1128.3,471.5c0,0.8-0.6,1.4-1.4,1.4s-1.4-0.6-1.4-1.4c0-0.8,0.6-1.4,1.4-1.4c0,0,0,0,0,0
							C1127.6,470,1128.3,470.7,1128.3,471.5C1128.3,471.5,1128.3,471.5,1128.3,471.5z"/>
						<path class="st7" d="M1146.9,471.5c0,0.8-0.6,1.4-1.4,1.4c-0.8,0-1.4-0.6-1.4-1.4c0-0.8,0.6-1.4,1.4-1.4c0,0,0,0,0,0
							C1146.3,470,1146.9,470.7,1146.9,471.5C1146.9,471.5,1146.9,471.5,1146.9,471.5z"/>
						<path class="st7" d="M1165.6,471.5c0,0.8-0.6,1.4-1.4,1.4s-1.4-0.6-1.4-1.4c0-0.8,0.6-1.4,1.4-1.4c0,0,0,0,0,0
							C1164.9,470,1165.5,470.7,1165.6,471.5C1165.6,471.5,1165.6,471.5,1165.6,471.5z"/>
						<path class="st7" d="M1184.2,471.5c0,0.8-0.6,1.4-1.4,1.4c-0.8,0-1.4-0.6-1.4-1.4c0-0.8,0.6-1.4,1.4-1.4c0,0,0,0,0,0
							C1183.5,470,1184.2,470.7,1184.2,471.5C1184.2,471.5,1184.2,471.5,1184.2,471.5z"/>
						<path class="st7" d="M1202.8,471.5c0,0.8-0.6,1.4-1.4,1.4s-1.4-0.6-1.4-1.4c0-0.8,0.6-1.4,1.4-1.4c0,0,0,0,0,0
							C1202.2,470,1202.8,470.7,1202.8,471.5z"/>
						<path class="st7" d="M1221.4,471.5c0,0.8-0.7,1.4-1.5,1.4c-0.8,0-1.4-0.7-1.4-1.5c0-0.8,0.6-1.4,1.4-1.4
							C1220.8,470,1221.4,470.6,1221.4,471.5C1221.5,471.4,1221.5,471.4,1221.4,471.5z"/>
						<path class="st7" d="M941.9,489.6c0,0.8-0.6,1.4-1.4,1.4c-0.8,0-1.4-0.6-1.4-1.4c0-0.8,0.6-1.4,1.4-1.4c0,0,0,0,0,0
							C941.3,488.2,941.9,488.8,941.9,489.6z"/>
						<path class="st7" d="M960.6,489.6c0,0.8-0.6,1.4-1.4,1.4c-0.8,0-1.4-0.6-1.5-1.4c0-0.8,0.6-1.4,1.4-1.4c0,0,0,0,0,0
							C959.9,488.2,960.6,488.8,960.6,489.6C960.6,489.6,960.6,489.6,960.6,489.6z"/>
						<path class="st7" d="M979.2,489.6c0,0.8-0.6,1.4-1.4,1.4c-0.8,0-1.4-0.6-1.4-1.4c0-0.8,0.6-1.4,1.4-1.4c0,0,0,0,0,0
							C978.6,488.2,979.2,488.8,979.2,489.6z"/>
						<path class="st7" d="M997.8,489.6c0,0.8-0.6,1.4-1.4,1.4c-0.8,0-1.4-0.6-1.5-1.4c0-0.8,0.6-1.4,1.4-1.4c0,0,0,0,0,0
							C997.2,488.2,997.8,488.8,997.8,489.6z"/>
						<path class="st7" d="M1016.5,489.6c0,0.8-0.6,1.4-1.4,1.4c-0.8,0-1.4-0.6-1.4-1.4c0-0.8,0.6-1.4,1.4-1.4c0,0,0,0,0,0
							C1015.8,488.2,1016.5,488.8,1016.5,489.6z"/>
						<path class="st7" d="M1035.1,489.6c0,0.8-0.6,1.4-1.4,1.4s-1.4-0.6-1.4-1.4c0-0.8,0.6-1.4,1.4-1.4c0,0,0,0,0,0
							C1034.5,488.2,1035.1,488.8,1035.1,489.6z"/>
						<path class="st7" d="M1053.7,489.6c0,0.8-0.6,1.4-1.4,1.4c-0.8,0-1.4-0.6-1.4-1.4c0-0.8,0.6-1.4,1.4-1.4c0,0,0,0,0,0
							C1053.1,488.2,1053.7,488.8,1053.7,489.6C1053.7,489.6,1053.7,489.6,1053.7,489.6z"/>
						<path class="st7" d="M1072.4,489.6c0,0.8-0.6,1.4-1.4,1.4s-1.4-0.6-1.4-1.4c0-0.8,0.6-1.4,1.4-1.4c0,0,0,0,0,0
							C1071.7,488.2,1072.4,488.8,1072.4,489.6z"/>
						<path class="st7" d="M1091,489.6c0,0.8-0.6,1.4-1.4,1.4c-0.8,0-1.4-0.6-1.4-1.4c0-0.8,0.6-1.4,1.4-1.4c0,0,0,0,0,0
							C1090.4,488.2,1091,488.8,1091,489.6C1091,489.6,1091,489.6,1091,489.6z"/>
						<path class="st7" d="M1109.6,489.6c0,0.8-0.6,1.4-1.4,1.4c-0.8,0-1.4-0.6-1.4-1.4c0-0.8,0.6-1.4,1.4-1.4
							S1109.6,488.8,1109.6,489.6C1109.6,489.6,1109.6,489.6,1109.6,489.6z"/>
						<path class="st7" d="M1128.3,489.6c0,0.8-0.6,1.4-1.4,1.4s-1.4-0.6-1.4-1.4c0-0.8,0.6-1.4,1.4-1.4c0,0,0,0,0,0
							C1127.6,488.2,1128.3,488.8,1128.3,489.6C1128.3,489.6,1128.3,489.6,1128.3,489.6z"/>
						<path class="st7" d="M1146.9,489.6c0,0.8-0.6,1.4-1.4,1.4c-0.8,0-1.4-0.6-1.4-1.4c0-0.8,0.6-1.4,1.4-1.4c0,0,0,0,0,0
							C1146.3,488.2,1146.9,488.8,1146.9,489.6C1146.9,489.6,1146.9,489.6,1146.9,489.6z"/>
						<path class="st7" d="M1165.6,489.6c0,0.8-0.6,1.4-1.4,1.4s-1.4-0.6-1.4-1.4c0-0.8,0.6-1.4,1.4-1.4c0,0,0,0,0,0
							C1164.9,488.2,1165.5,488.8,1165.6,489.6C1165.6,489.6,1165.6,489.6,1165.6,489.6z"/>
						<path class="st7" d="M1184.2,489.6c0,0.8-0.6,1.4-1.4,1.4c-0.8,0-1.4-0.6-1.4-1.4c0-0.8,0.6-1.4,1.4-1.4c0,0,0,0,0,0
							C1183.5,488.2,1184.2,488.8,1184.2,489.6C1184.2,489.6,1184.2,489.6,1184.2,489.6z"/>
						<path class="st7" d="M1202.8,489.6c0,0.8-0.6,1.4-1.4,1.4s-1.4-0.6-1.4-1.4c0-0.8,0.6-1.4,1.4-1.4c0,0,0,0,0,0
							C1202.2,488.2,1202.8,488.8,1202.8,489.6z"/>
						<path class="st7" d="M1221.4,489.6c0,0.8-0.6,1.4-1.4,1.4c-0.8,0-1.4-0.6-1.4-1.4c0-0.8,0.6-1.4,1.4-1.4c0,0,0,0,0,0
							C1220.8,488.2,1221.4,488.8,1221.4,489.6C1221.4,489.6,1221.4,489.6,1221.4,489.6z"/>
						<path class="st7" d="M25.7-34.7c0,1.4-1.2,2.6-2.6,2.6s-2.6-1.2-2.6-2.6s1.2-2.6,2.6-2.6S25.7-36.1,25.7-34.7z"/>
						<path class="st7" d="M59.1-34.7c0,1.4-1.2,2.6-2.6,2.6s-2.6-1.2-2.6-2.6s1.2-2.6,2.6-2.6S59.1-36.1,59.1-34.7z"/>
						<path class="st7" d="M92.4-34.7c0,1.4-1.2,2.6-2.6,2.6s-2.6-1.2-2.6-2.6s1.2-2.6,2.6-2.6S92.4-36.1,92.4-34.7z"/>
						<path class="st7" d="M125.8-34.7c0,1.4-1.2,2.6-2.6,2.6s-2.6-1.2-2.6-2.6s1.2-2.6,2.6-2.6S125.8-36.1,125.8-34.7z"/>
						<path class="st7" d="M159.2-34.7c0,1.4-1.2,2.6-2.6,2.6c-1.4,0-2.6-1.2-2.6-2.6c0,0,0,0,0,0c0-1.4,1.2-2.6,2.6-2.6l0,0
							C158.1-37.3,159.2-36.1,159.2-34.7z"/>
						<path class="st7" d="M192.6-34.7c0,1.4-1.2,2.6-2.6,2.6c0,0,0,0,0,0c-1.4,0-2.6-1.2-2.6-2.6c0-1.4,1.2-2.6,2.6-2.6
							C191.4-37.3,192.6-36.1,192.6-34.7C192.6-34.7,192.6-34.7,192.6-34.7z"/>
						<path class="st7" d="M226-34.7c0,1.4-1.2,2.6-2.6,2.6l0,0c-1.4,0-2.6-1.2-2.6-2.6c0,0,0,0,0,0c0-1.4,1.2-2.6,2.6-2.6l0,0
							C224.8-37.3,226-36.1,226-34.7C226-34.7,226-34.7,226-34.7z"/>
						<path class="st7" d="M259.3-34.7c0,1.4-1.2,2.6-2.6,2.6l0,0c-1.4,0-2.6-1.2-2.6-2.6c0,0,0,0,0,0c0-1.4,1.2-2.6,2.6-2.6l0,0
							C258.2-37.3,259.3-36.1,259.3-34.7C259.3-34.7,259.3-34.7,259.3-34.7z"/>
						<path class="st7" d="M292.7-34.7c0,1.4-1.2,2.6-2.6,2.6l0,0c-1.4,0-2.6-1.2-2.6-2.6c0,0,0,0,0,0c0-1.4,1.2-2.6,2.6-2.6l0,0
							C291.6-37.3,292.7-36.1,292.7-34.7C292.7-34.7,292.7-34.7,292.7-34.7z"/>
						<path class="st7" d="M326.1-34.7c0,1.4-1.2,2.6-2.6,2.6l0,0c-1.4,0-2.5-1.2-2.5-2.6c0-1.4,1.2-2.6,2.6-2.6l0,0
							C325-37.3,326.1-36.1,326.1-34.7z"/>
						<path class="st7" d="M359.5-34.7c0,1.4-1.2,2.6-2.6,2.6l0,0c-1.4,0-2.6-1.2-2.6-2.6c0,0,0,0,0,0c0-1.4,1.2-2.6,2.6-2.6l0,0
							C358.3-37.3,359.5-36.1,359.5-34.7C359.5-34.7,359.5-34.7,359.5-34.7z"/>
						<path class="st7" d="M392.9-34.7c0,1.4-1.2,2.6-2.6,2.6l0,0c-1.4,0-2.6-1.2-2.6-2.6c0,0,0,0,0,0c0-1.4,1.2-2.6,2.6-2.6l0,0
							C391.7-37.3,392.9-36.1,392.9-34.7C392.9-34.7,392.9-34.7,392.9-34.7z"/>
						<path class="st7" d="M426.2-34.7c0,1.4-1.2,2.6-2.6,2.6l0,0c-1.4,0-2.6-1.2-2.6-2.6c0,0,0,0,0,0c0-1.4,1.2-2.6,2.6-2.6l0,0
							C425.1-37.3,426.2-36.1,426.2-34.7C426.2-34.7,426.2-34.7,426.2-34.7z"/>
						<path class="st7" d="M459.6-34.7c0,1.4-1.2,2.6-2.6,2.6l0,0c-1.4,0-2.6-1.2-2.6-2.6c0,0,0,0,0,0c0-1.4,1.2-2.6,2.6-2.6l0,0
							C458.5-37.3,459.6-36.1,459.6-34.7C459.6-34.7,459.6-34.7,459.6-34.7z"/>
						<path class="st7" d="M493-34.7c0,1.4-1.2,2.6-2.6,2.6l0,0c-1.4,0-2.6-1.2-2.6-2.6c0,0,0,0,0,0c0-1.4,1.2-2.6,2.6-2.6l0,0
							C491.8-37.3,493-36.1,493-34.7C493-34.7,493-34.7,493-34.7z"/>
						<path class="st7" d="M526.4-34.7c0,1.4-1.2,2.6-2.6,2.6c-1.4,0-2.6-1.2-2.6-2.6c0,0,0,0,0,0c0-1.4,1.2-2.6,2.6-2.6l0,0
							C525.2-37.3,526.4-36.1,526.4-34.7z"/>
						<path class="st7" d="M25.7-2.2c0,1.4-1.2,2.6-2.6,2.6c-1.4,0-2.6-1.2-2.6-2.6s1.2-2.6,2.6-2.6S25.7-3.6,25.7-2.2z"/>
						<path class="st7" d="M59.1-2.2c0,1.4-1.2,2.6-2.6,2.6c-1.4,0-2.6-1.2-2.6-2.6s1.2-2.6,2.6-2.6S59.1-3.6,59.1-2.2z"/>
						<path class="st7" d="M92.4-2.2c0,1.4-1.2,2.6-2.6,2.6c-1.4,0-2.6-1.2-2.6-2.6s1.2-2.6,2.6-2.6S92.4-3.6,92.4-2.2z"/>
						<path class="st7" d="M125.8-2.2c0,1.4-1.2,2.6-2.6,2.6c-1.4,0-2.6-1.2-2.6-2.6s1.2-2.6,2.6-2.6S125.8-3.6,125.8-2.2z"/>
						<path class="st7" d="M159.2-2.2c0,1.4-1.2,2.6-2.6,2.6c-1.4,0-2.6-1.2-2.6-2.6c0,0,0,0,0,0c0-1.4,1.2-2.6,2.6-2.6l0,0
							C158.1-4.8,159.2-3.6,159.2-2.2z"/>
						<path class="st7" d="M192.6-2.2c0,1.4-1.2,2.6-2.6,2.6c0,0,0,0,0,0c-1.4,0-2.6-1.2-2.6-2.6c0-1.4,1.2-2.6,2.6-2.6
							C191.4-4.8,192.6-3.6,192.6-2.2C192.6-2.2,192.6-2.2,192.6-2.2z"/>
						<path class="st7" d="M226-2.2c0,1.4-1.2,2.6-2.6,2.6c0,0,0,0,0,0c-1.4,0-2.6-1.2-2.6-2.6c0,0,0,0,0,0c0-1.4,1.2-2.6,2.6-2.6
							l0,0C224.8-4.8,226-3.6,226-2.2C226-2.2,226-2.2,226-2.2z"/>
						<path class="st7" d="M259.3-2.2c0,1.4-1.2,2.6-2.6,2.6c0,0,0,0,0,0c-1.4,0-2.6-1.2-2.6-2.6c0,0,0,0,0,0c0-1.4,1.2-2.6,2.6-2.6
							l0,0C258.2-4.8,259.3-3.6,259.3-2.2C259.3-2.2,259.3-2.2,259.3-2.2z"/>
						<path class="st7" d="M292.7-2.2c0,1.4-1.2,2.6-2.6,2.6c0,0,0,0,0,0c-1.4,0-2.6-1.2-2.6-2.6c0,0,0,0,0,0c0-1.4,1.2-2.6,2.6-2.6
							l0,0C291.6-4.8,292.7-3.6,292.7-2.2C292.7-2.2,292.7-2.2,292.7-2.2z"/>
						<path class="st7" d="M326.1-2.2c0,1.4-1.2,2.6-2.6,2.6c0,0,0,0,0,0c-1.4,0-2.5-1.2-2.5-2.6c0-1.4,1.2-2.6,2.6-2.6l0,0
							C325-4.7,326.1-3.6,326.1-2.2z"/>
						<path class="st7" d="M359.5-2.2c0,1.4-1.2,2.6-2.6,2.6c0,0,0,0,0,0c-1.4,0-2.6-1.2-2.6-2.6c0,0,0,0,0,0c0-1.4,1.2-2.6,2.6-2.6
							l0,0C358.3-4.8,359.5-3.6,359.5-2.2C359.5-2.2,359.5-2.2,359.5-2.2z"/>
						<path class="st7" d="M392.9-2.2c0,1.4-1.2,2.6-2.6,2.6c-1.4,0-2.6-1.2-2.6-2.6c0,0,0,0,0,0c0-1.4,1.2-2.6,2.6-2.6l0,0
							C391.7-4.8,392.9-3.6,392.9-2.2z"/>
						<path class="st7" d="M426.2-2.2c0,1.4-1.2,2.6-2.6,2.6c-1.4,0-2.6-1.2-2.6-2.6c0,0,0,0,0,0c0-1.4,1.2-2.6,2.6-2.6l0,0
							C425.1-4.8,426.2-3.6,426.2-2.2z"/>
						<path class="st7" d="M459.6-2.2c0,1.4-1.2,2.6-2.6,2.6c0,0,0,0,0,0c-1.4,0-2.6-1.2-2.6-2.6c0,0,0,0,0,0c0-1.4,1.2-2.6,2.6-2.6
							l0,0C458.5-4.8,459.6-3.6,459.6-2.2C459.6-2.2,459.6-2.2,459.6-2.2z"/>
						<path class="st7" d="M493-2.2c0,1.4-1.2,2.6-2.6,2.6c0,0,0,0,0,0c-1.4,0-2.6-1.2-2.6-2.6c0,0,0,0,0,0c0-1.4,1.2-2.6,2.6-2.6
							l0,0C491.8-4.8,493-3.6,493-2.2C493-2.2,493-2.2,493-2.2z"/>
						<path class="st7" d="M526.4-2.2c0,1.4-1.2,2.6-2.6,2.6c-1.4,0-2.6-1.2-2.6-2.6c0,0,0,0,0,0c0-1.4,1.2-2.6,2.6-2.6l0,0
							C525.2-4.8,526.4-3.6,526.4-2.2z"/>
						<circle class="st7" cx="23.1" cy="30.3" r="2.6"/>
						<circle class="st7" cx="56.5" cy="30.3" r="2.6"/>
						<circle class="st7" cx="89.9" cy="30.3" r="2.6"/>
						<path class="st7" d="M125.8,30.3c0,1.4-1.2,2.6-2.6,2.6s-2.6-1.2-2.6-2.6c0-1.4,1.2-2.6,2.6-2.6l0,0
							C124.7,27.8,125.8,28.9,125.8,30.3z"/>
						<path class="st7" d="M159.2,30.3c0,1.4-1.2,2.6-2.6,2.6c-1.4,0-2.6-1.2-2.6-2.6c0-1.4,1.2-2.6,2.6-2.6
							C158.1,27.8,159.2,28.9,159.2,30.3z"/>
						<path class="st7" d="M192.6,30.3c0,1.4-1.2,2.6-2.6,2.6s-2.6-1.2-2.6-2.6c0-1.4,1.1-2.6,2.6-2.6
							C191.4,27.8,192.6,28.9,192.6,30.3C192.6,30.3,192.6,30.3,192.6,30.3z"/>
						<circle class="st7" cx="223.4" cy="30.3" r="2.6"/>
						<circle class="st7" cx="256.8" cy="30.3" r="2.6"/>
						<path class="st7" d="M292.7,30.3c0,1.4-1.2,2.6-2.6,2.6s-2.6-1.2-2.6-2.6c0-1.4,1.2-2.6,2.6-2.6S292.7,28.9,292.7,30.3
							C292.7,30.3,292.7,30.3,292.7,30.3z"/>
						<path class="st7" d="M326.1,30.3c0,1.4-1.2,2.6-2.6,2.6s-2.6-1.2-2.6-2.6c0-1.4,1.2-2.6,2.6-2.6S326.1,28.9,326.1,30.3
							C326.1,30.3,326.1,30.3,326.1,30.3z"/>
						<path class="st7" d="M359.5,30.3c0,1.4-1.2,2.6-2.6,2.6s-2.6-1.2-2.6-2.6c0-1.4,1.2-2.6,2.6-2.6S359.5,28.9,359.5,30.3
							C359.5,30.3,359.5,30.3,359.5,30.3z"/>
						<path class="st7" d="M392.9,30.3c0,1.4-1.2,2.6-2.6,2.6s-2.6-1.2-2.6-2.6c0-1.4,1.2-2.6,2.6-2.6S392.9,28.9,392.9,30.3
							C392.9,30.3,392.9,30.3,392.9,30.3z"/>
						<path class="st7" d="M426.2,30.3c0,1.4-1.2,2.6-2.6,2.6s-2.6-1.2-2.6-2.6c0-1.4,1.2-2.6,2.6-2.6S426.2,28.9,426.2,30.3
							C426.2,30.3,426.2,30.3,426.2,30.3z"/>
						<circle class="st7" cx="457" cy="30.3" r="2.6"/>
						<path class="st7" d="M493,30.3c0,1.4-1.2,2.6-2.6,2.6s-2.6-1.2-2.6-2.6c0-1.4,1.2-2.6,2.6-2.6S493,28.9,493,30.3
							C493,30.3,493,30.3,493,30.3z"/>
						<path class="st7" d="M526.4,30.3c0,1.4-1.2,2.6-2.6,2.6s-2.6-1.2-2.6-2.6c0-1.4,1.2-2.6,2.6-2.6
							C525.2,27.8,526.4,28.9,526.4,30.3z"/>
					</g>
				</g>
			</g>
		</g>
	</g>
</g>
</svg>
