<svg xmlns="http://www.w3.org/2000/svg" viewBox="0 0 26.52 34.65"><defs><style>.cls-1{fill:#632678;}.cls-2{fill:#406eb3;}.cls-3{fill:#26478d;}.cls-4{fill:#ba2f7d;}.cls-5{fill:#982881;}</style></defs><g id="Layer_2" data-name="Layer 2"><g id="Integrate"><path class="cls-1" d="M0,9.82a7.24,7.24,0,0,1,1-1.5,2.18,2.18,0,0,1,1.33-.45c1.5-.06,3,0,4.5,0a2.21,2.21,0,0,1,2.28,2c.08,1.72,0,3.44,0,5.15A2.3,2.3,0,0,1,7.09,17H2.46A2.27,2.27,0,0,1,.13,15.28,1.85,1.85,0,0,0,0,15Z"/><path class="cls-2" d="M17.11,0c1.64.59,2,1.06,2,2.81v3a2.13,2.13,0,0,1-2.39,2.4H13.25A2.12,2.12,0,0,1,10.93,6c0-1.25,0-2.51,0-3.77A2.29,2.29,0,0,1,12.87,0Z"/><path class="cls-3" d="M14.24,19.86a4,4,0,0,0,3.28,3.37,4.17,4.17,0,0,0,3.83-1.11,1,1,0,0,1,1.48,0,1,1,0,0,1-.08,1.53,6,6,0,0,1-6.36,1.44,6,6,0,0,1-4.31-5.19A6.28,6.28,0,0,1,16.52,13a6.35,6.35,0,0,1,7.54,3.26,7,7,0,0,1,.58,2.28c.1.88-.38,1.3-1.33,1.3H14.24Zm.19-2.15H22.3A4.06,4.06,0,0,0,18,14.84C16.32,14.94,14.58,16.35,14.43,17.71Z"/><path class="cls-4" d="M8.77,31.34V29.89a1.61,1.61,0,0,1,1.69-1.76h3.25a1.61,1.61,0,0,1,1.65,1.61c0,1.08,0,2.16,0,3.24a1.75,1.75,0,0,1-1.65,1.66c-1.1,0-2.21,0-3.31,0a1.59,1.59,0,0,1-1.63-1.7V31.34Z"/><path class="cls-5" d="M2.27,23.34c0-.44,0-.88,0-1.32a1.39,1.39,0,0,1,1.46-1.44H6.39A1.37,1.37,0,0,1,7.84,22c0,.9,0,1.81,0,2.72a1.4,1.4,0,0,1-1.47,1.45c-.88,0-1.77,0-2.65,0A1.4,1.4,0,0,1,2.27,24.6Z"/><path class="cls-4" d="M24.34,9.78c-2.28.15-2.54-.51-2.41-2.29,0-.35,0-.71,0-1.06a1.22,1.22,0,0,1,1.23-1.21,17.9,17.9,0,0,1,2.43.13,1,1,0,0,1,.89,1.06c0,.73,0,1.46,0,2.19a1.16,1.16,0,0,1-1.18,1.17C25,9.79,24.57,9.78,24.34,9.78Z"/></g></g></svg>