<?xml version="1.0" standalone="no"?>
<!DOCTYPE svg PUBLIC "-//W3C//DTD SVG 1.1//EN" "http://www.w3.org/Graphics/SVG/1.1/DTD/svg11.dtd" >
<svg xmlns="http://www.w3.org/2000/svg">
<metadata>Generated by IcoMoon</metadata>
<defs>
<font id="iconmeta" horiz-adv-x="1024">
<font-face units-per-em="1024" ascent="960" descent="-64" />
<missing-glyph horiz-adv-x="1024" />
<glyph unicode="&#x20;" horiz-adv-x="512" d="" />
<glyph unicode="&#xe000;" glyph-name="eye" d="M512 831.999q69.667 0 135.5-21.167t115.5-55 93.5-74.833 73.667-82 51.667-74.833 32.167-54.833l10-21.333q-2.333-5-6.333-13.5t-18.833-34.667-31.667-51.667-44.333-60-56.833-64.333-69.5-60.167-82.333-51.5-94.833-34.667-107.333-13.5q-69.667 0-135.5 21.167t-115.5 54.833-93.5 74.333-73.667 81.5-51.667 74.5-32.167 55l-10 21q2.333 5 6.333 13.5t18.833 34.833 31.667 51.833 44.333 60.333 56.833 64.667 69.5 60.333 82.333 51.833 94.833 34.833 107.333 13.5zM512 746.666q-46.667 0-91.667-12.333t-81.167-31.833-70.667-47.167-59.667-54.5-48.833-57.667-37.667-52.833-26.333-44q12.333-21.667 26.333-43.5t37.667-52.333 48.833-57 59.667-53.833 70.667-46.667 81.167-31.5 91.667-12.167 91.667 12.333 81.167 31.667 70.667 46.833 59.667 54.167 48.833 57.333 37.667 52.667 26.333 43.667q-12.333 21.667-26.333 43.667t-37.667 52.667-48.833 57.333-59.667 54.167-70.667 46.833-81.167 31.667-91.667 12.333zM512 618.666q70.667 0 120.667-50t50-120.667-50-120.667-120.667-50-120.667 50-50 120.667 50 120.667 120.667 50zM512 533.332q-35.333 0-60.333-25t-25-60.333 25-60.333 60.333-25 60.333 25 25 60.333-25 60.333-60.333 25z" />
<glyph unicode="&#xe005;" glyph-name="link" d="M725.333 917.332q50.333 0 97.167-19t83.833-56 56-83.833 19-97.167q0-50-19.167-97.167t-55.833-83.833l-128-128q-3.667-3.667-11-10.333-35.667-31.667-79.667-48.167t-90.333-16.5q-58.333 0-110.333 25-39 18.333-70.667 50t-50 70.667q25 25 60.333 25 12.333 0 25-3.667 21.667-35 56.667-56.667 41-25 89-25 33.333 0 64.667 12.667t56 37.333l128 128q24.667 24.667 37.333 56t12.667 64.667-12.667 64.667-37.333 56-56 37.333-64.667 12.667-64.667-12.667-56-37.333l-89.667-89.667q-42.667 11.667-88.333 11.667-7.333 0-20.667-0.667 6.667 7.333 10.333 11l128 128q36.667 36.667 83.833 55.833t97.167 19.167zM426.667 618.666q58.333 0 110.333-25 39-18.333 70.667-50t50-70.667q-25-25-60.333-25-12.333 0-25 3.667-21.667 35-56.667 56.667-41 25-89 25-33.333 0-64.667-12.667t-56-37.333l-128-128q-24.667-24.667-37.333-56t-12.667-64.667 12.667-64.667 37.333-56 56-37.333 64.667-12.667 64.667 12.667 56 37.333l89.667 89.667q42.667-11.667 88.333-11.667 7.333 0 20.667 0.667-6.667-7.333-10.333-11l-128-128q-37-37-83.833-56t-97.167-19q-50 0-97.167 19.167t-83.833 55.833q-37 37-56 83.833t-19 97.167 19 97.167 56 83.833l128 128q3.667 3.667 11 10.333 35.667 31.667 79.667 48.167t90.333 16.5z" />
<glyph unicode="&#xe009;" glyph-name="ribbon" d="M298.667 917.332h426.667q53 0 90.5-37.5t37.5-90.5v-810.667l-341.333 256-341.333-256v810.667q0 53 37.5 90.5t90.5 37.5zM725.333 831.999h-426.667q-17.667 0-30.167-12.5t-12.5-30.167v-640l256 192 256-192v640q0 17.667-12.5 30.167t-30.167 12.5z" />
<glyph unicode="&#xe010;" glyph-name="image" d="M170.667 917.332h682.667q53 0 90.5-37.5t37.5-90.5v-682.667q0-53-37.5-90.5t-90.5-37.5h-682.667q-53 0-90.5 37.5t-37.5 90.5v682.667q0 53 37.5 90.5t90.5 37.5zM896 216.999l-213.333 213.333-366.333-366.333h537q17.667 0 30.167 12.5t12.5 30.167v110.333zM853.333 831.999h-682.667q-17.667 0-30.167-12.5t-12.5-30.167v-682.667q0-17.667 12.5-30.167t30.167-12.5h25l487 487 213.333-213.333v451.667q0 17.667-12.5 30.167t-30.167 12.5zM341.333 746.666q53 0 90.5-37.5t37.5-90.5-37.5-90.5-90.5-37.5-90.5 37.5-37.5 90.5 37.5 90.5 90.5 37.5zM341.333 661.332q-17.667 0-30.167-12.5t-12.5-30.167 12.5-30.167 30.167-12.5 30.167 12.5 12.5 30.167-12.5 30.167-30.167 12.5z" />
<glyph unicode="&#xe014;" glyph-name="clock" d="M512 917.332q95.667 0 182.5-37.167t149.667-100 100-149.667 37.167-182.5-37.167-182.5-100-149.667-149.667-100-182.5-37.167-182.5 37.167-149.667 100-100 149.667-37.167 182.5 37.167 182.5 100 149.667 149.667 100 182.5 37.167zM512 831.999q-78 0-149.167-30.5t-122.5-81.833-81.833-122.5-30.5-149.167 30.5-149.167 81.833-122.5 122.5-81.833 149.167-30.5 149.167 30.5 122.5 81.833 81.833 122.5 30.5 149.167-30.5 149.167-81.833 122.5-122.5 81.833-149.167 30.5zM512 746.666q17.667 0 30.167-12.5t12.5-30.167v-238.333l115.667-115.333q12.333-12.333 12.333-30.333t-12.333-30.333-30.333-12.333-30.333 12.333l-128 128q-12.333 12.333-12.333 30.333v256q0 17.667 12.5 30.167t30.167 12.5z" />
<glyph unicode="&#xe015;" glyph-name="watch" d="M384 959.999h256q53 0 90.5-37.5t37.5-90.5v-98q60-53.333 94-127.833t34-158.167-34-158-94-128v-98q0-53-37.5-90.5t-90.5-37.5h-256q-53 0-90.5 37.5t-37.5 90.5v98q-60 53.667-94 128t-34 158 34 158.167 94 127.833v98q0 53 37.5 90.5t90.5 37.5zM682.667 63.999v40q-80-40-170.667-40t-170.667 40v-40q0-17.667 12.5-30.167t30.167-12.5h256q17.667 0 30.167 12.5t12.5 30.167zM512 746.666q-60.667 0-116-23.667t-95.333-63.667-63.667-95.333-23.667-116 23.667-116 63.667-95.333 95.333-63.667 116-23.667 116 23.667 95.333 63.667 63.667 95.333 23.667 116-23.667 116-63.667 95.333-95.333 63.667-116 23.667zM512 661.332q17.667 0 30.167-12.5t12.5-30.167v-153l73-72.667q12.333-12.333 12.333-30.333t-12.333-30.333-30.333-12.333-30.333 12.333l-85.333 85.333q-12.333 12.333-12.333 30.333v170.667q0 17.667 12.5 30.167t30.167 12.5zM640 874.666h-256q-17.667 0-30.167-12.5t-12.5-30.167v-40q80 40 170.667 40t170.667-40v40q0 17.667-12.5 30.167t-30.167 12.5z" />
<glyph unicode="&#xe017;" glyph-name="camera" d="M341.333 874.666h341.333l85.333-128h128q53 0 90.5-38.167t37.5-91.167v-468.667q0-53-37.5-90.167t-90.5-37.167h-768q-53 0-90.5 37.5t-37.5 90.5v468.667q0 53 37.5 90.833t90.5 37.833h128zM512 618.666q43.333 0 82.833-17t68-45.5 45.5-68 17-82.833-17-82.833-45.5-68-68-45.5-82.833-17-82.833 17-68 45.5-45.5 68-17 82.833 17 82.833 45.5 68 68 45.5 82.833 17zM512 533.332q-53 0-90.5-37.5t-37.5-90.5 37.5-90.5 90.5-37.5 90.5 37.5 37.5 90.5-37.5 90.5-90.5 37.5zM722.333 661.332l-83.667 128h-251.667l-85.333-128h-173.667q-17.667 0-30.167-12.667t-12.5-30.667v-468.667q0-17.667 12.5-30.167t30.167-12.5h768q18 0 30.333 12.167t12.333 29.833v468.667q0 18-12.667 31t-30 13h-173.667z" />
<glyph unicode="&#xe018;" glyph-name="video" d="M128 746.666h469.333q53 0 90.5-37.5t37.5-90.5v-77.667l298.667 163v-512l-298.667 163v-77.667q0-53-37.5-90.5t-90.5-37.5h-469.333q-53 0-90.5 37.5t-37.5 90.5v341.333q0 53 37.5 90.5t90.5 37.5zM597.333 661.332h-469.333q-17.667 0-30.167-12.5t-12.5-30.167v-341.333q0-17.667 12.5-30.167t30.167-12.5h469.333q17.667 0 30.167 12.5t12.5 30.167v341.333q0 17.667-12.5 30.167t-30.167 12.5zM938.667 335.666v224.667l-205.667-112.333z" />
<glyph unicode="&#xe019;" glyph-name="disc" d="M512 917.332q95.667 0 182.5-37.167t149.667-100 100-149.667 37.167-182.5-37.167-182.5-100-149.667-149.667-100-182.5-37.167-182.5 37.167-149.667 100-100 149.667-37.167 182.5 37.167 182.5 100 149.667 149.667 100 182.5 37.167zM512 831.999q-78 0-149.167-30.5t-122.5-81.833-81.833-122.5-30.5-149.167 30.5-149.167 81.833-122.5 122.5-81.833 149.167-30.5 149.167 30.5 122.5 81.833 81.833 122.5 30.5 149.167-30.5 149.167-81.833 122.5-122.5 81.833-149.167 30.5zM512 618.666q70.667 0 120.667-50t50-120.667-50-120.667-120.667-50-120.667 50-50 120.667 50 120.667 120.667 50zM512 533.332q-35.333 0-60.333-25t-25-60.333 25-60.333 60.333-25 60.333 25 25 60.333-25 60.333-60.333 25z" />
<glyph unicode="&#xe024;" glyph-name="heart" d="M753.333 874.666q69.667 0 128.5-34.333t93.167-93.167 34.333-128.5q0-50-19.167-97.167t-55.833-83.833l-422.333-422.333-422.333 422.333q-36.667 36.667-55.833 83.833t-19.167 97.167q0 69.667 34.333 128.5t93.167 93.167 128.5 34.333q50.333 0 97.167-19t83.833-56l60.333-60.333 60.333 60.333q36.667 36.667 83.833 55.833t97.167 19.167zM753.333 789.332q-33.333 0-64.667-12.667t-56-37.333l-120.667-120.667-120.667 120.667q-24.667 24.667-56 37.333t-64.667 12.667q-46.667 0-85.833-22.833t-62-62-22.833-85.833q0-33.333 12.667-64.667t37.333-56l362-362 362 362q24.667 24.667 37.333 56t12.667 64.667q0 46.667-22.833 85.833t-62 62-85.833 22.833z" />
<glyph unicode="&#xe030;" glyph-name="book" d="M213.333 917.332h682.667v-938.667h-682.667q-53 0-90.5 37.5t-37.5 90.5v682.667q0 53 37.5 90.5t90.5 37.5zM810.667 63.999v85.333h-597.333q-17.667 0-30.167-12.5t-12.5-30.167 12.5-30.167 30.167-12.5h597.333zM810.667 234.666v597.333h-597.333q-17.667 0-30.167-12.5t-12.5-30.167v-562q21 7.333 42.667 7.333h597.333z" />
<glyph unicode="&#xe031;" glyph-name="layers" d="M0 661.332l512 256 512-256-512-256zM512 138.332l416 208.333 96-48-512-256.333-512 256.333 96 48zM512 319.666l416 208 96-48-512-256-512 256 96 48zM833.333 661.332l-321.333 160.667-321.333-160.667 321.333-160.667z" />
<glyph unicode="&#xe034;" glyph-name="paper" d="M213.333 959.999h597.333q53 0 90.5-37.5t37.5-90.5v-768q0-53-37.5-90.5t-90.5-37.5h-597.333q-53 0-90.5 37.5t-37.5 90.5v768q0 53 37.5 90.5t90.5 37.5zM341.333 234.666h341.333q17.667 0 30.167-12.5t12.5-30.167-12.5-30.167-30.167-12.5h-341.333q-17.667 0-30.167 12.5t-12.5 30.167 12.5 30.167 30.167 12.5zM341.333 405.332h341.333q17.667 0 30.167-12.5t12.5-30.167-12.5-30.167-30.167-12.5h-341.333q-17.667 0-30.167 12.5t-12.5 30.167 12.5 30.167 30.167 12.5zM810.667 874.666h-597.333q-17.667 0-30.167-12.5t-12.5-30.167v-768q0-17.667 12.5-30.167t30.167-12.5h597.333q17.667 0 30.167 12.5t12.5 30.167v768q0 17.667-12.5 30.167t-30.167 12.5zM341.333 575.999h341.333q17.667 0 30.167-12.5t12.5-30.167-12.5-30.167-30.167-12.5h-341.333q-17.667 0-30.167 12.5t-12.5 30.167 12.5 30.167 30.167 12.5zM341.333 746.666h170.667q17.667 0 30.167-12.5t12.5-30.167-12.5-30.167-30.167-12.5h-170.667q-17.667 0-30.167 12.5t-12.5 30.167 12.5 30.167 30.167 12.5z" />
<glyph unicode="&#xe036;" glyph-name="search2" d="M426.667 917.332q78 0 149.167-30.5t122.5-81.833 81.833-122.5 30.5-149.167q0-67-21.833-128.333t-62.167-111.333l242.333-242q12.333-12.333 12.333-30.333 0-18.333-12.167-30.5t-30.5-12.167q-18 0-30.333 12.333l-242 242.333q-50-40.333-111.333-62.167t-128.333-21.833q-78 0-149.167 30.5t-122.5 81.833-81.833 122.5-30.5 149.167 30.5 149.167 81.833 122.5 122.5 81.833 149.167 30.5zM426.667 831.999q-60.667 0-116-23.667t-95.333-63.667-63.667-95.333-23.667-116 23.667-116 63.667-95.333 95.333-63.667 116-23.667 116 23.667 95.333 63.667 63.667 95.333 23.667 116-23.667 116-63.667 95.333-95.333 63.667-116 23.667z" />
<glyph unicode="&#xe037;" glyph-name="zoom-in" d="M426.667 917.332q78 0 149.167-30.5t122.5-81.833 81.833-122.5 30.5-149.167q0-67-21.833-128.333t-62.167-111.333l242.333-242q12.333-12.333 12.333-30.333 0-18.333-12.167-30.5t-30.5-12.167q-18 0-30.333 12.333l-242 242.333q-50-40.333-111.333-62.167t-128.333-21.833q-78 0-149.167 30.5t-122.5 81.833-81.833 122.5-30.5 149.167 30.5 149.167 81.833 122.5 122.5 81.833 149.167 30.5zM426.667 831.999q-60.667 0-116-23.667t-95.333-63.667-63.667-95.333-23.667-116 23.667-116 63.667-95.333 95.333-63.667 116-23.667 116 23.667 95.333 63.667 63.667 95.333 23.667 116-23.667 116-63.667 95.333-95.333 63.667-116 23.667zM426.667 703.999q17.667 0 30.167-12.5t12.5-30.167v-85.333h85.333q17.667 0 30.167-12.5t12.5-30.167-12.5-30.167-30.167-12.5h-85.333v-85.333q0-17.667-12.5-30.167t-30.167-12.5-30.167 12.5-12.5 30.167v85.333h-85.333q-17.667 0-30.167 12.5t-12.5 30.167 12.5 30.167 30.167 12.5h85.333v85.333q0 17.667 12.5 30.167t30.167 12.5z" />
<glyph unicode="&#xe038;" glyph-name="zoom-out" d="M426.667 917.332q78 0 149.167-30.5t122.5-81.833 81.833-122.5 30.5-149.167q0-67-21.833-128.333t-62.167-111.333l242.333-242q12.333-12.333 12.333-30.333 0-18.333-12.167-30.5t-30.5-12.167q-18 0-30.333 12.333l-242 242.333q-50-40.333-111.333-62.167t-128.333-21.833q-78 0-149.167 30.5t-122.5 81.833-81.833 122.5-30.5 149.167 30.5 149.167 81.833 122.5 122.5 81.833 149.167 30.5zM426.667 831.999q-60.667 0-116-23.667t-95.333-63.667-63.667-95.333-23.667-116 23.667-116 63.667-95.333 95.333-63.667 116-23.667 116 23.667 95.333 63.667 63.667 95.333 23.667 116-23.667 116-63.667 95.333-95.333 63.667-116 23.667zM298.667 575.999h256q17.667 0 30.167-12.5t12.5-30.167-12.5-30.167-30.167-12.5h-256q-17.667 0-30.167 12.5t-12.5 30.167 12.5 30.167 30.167 12.5z" />
<glyph unicode="&#xe039;" glyph-name="reply" d="M356.667 804.999q17.333 0 30-12.5t12.667-30.167-12.667-30.333l-198.667-198.667h409.333q78 0 149.167-30.333t122.5-81.833 81.833-122.5 30.5-149.333v-42.667q0-17.667-12.5-30.167t-30.167-12.5q-17.333 0-30 12.667t-12.667 30v42.667q0 60.667-23.667 116t-63.667 95.333-95.333 63.667-116 23.667h-409.333l198.667-199q12.667-12.667 12.667-30 0-17.667-12.5-30.333t-30.167-12.667-30.333 12.667l-271.333 271.667q-12.333 12.333-12.333 30.333 0 17.667 12.333 30l271.333 271.667q12.667 12.667 30.333 12.667z" />
<glyph unicode="&#xe040;" glyph-name="circle-plus" d="M512 917.332q95.667 0 182.5-37.167t149.667-100 100-149.667 37.167-182.5-37.167-182.5-100-149.667-149.667-100-182.5-37.167-182.5 37.167-149.667 100-100 149.667-37.167 182.5 37.167 182.5 100 149.667 149.667 100 182.5 37.167zM512 831.999q-78 0-149.167-30.5t-122.5-81.833-81.833-122.5-30.5-149.167 30.5-149.167 81.833-122.5 122.5-81.833 149.167-30.5 149.167 30.5 122.5 81.833 81.833 122.5 30.5 149.167-30.5 149.167-81.833 122.5-122.5 81.833-149.167 30.5zM512 661.332q17.667 0 30.167-12.5t12.5-30.167v-128h128q17.667 0 30.167-12.5t12.5-30.167-12.5-30.167-30.167-12.5h-128v-128q0-17.667-12.5-30.167t-30.167-12.5-30.167 12.5-12.5 30.167v128h-128q-17.667 0-30.167 12.5t-12.5 30.167 12.5 30.167 30.167 12.5h128v128q0 17.667 12.5 30.167t30.167 12.5z" />
<glyph unicode="&#xe044;" glyph-name="square-plus" d="M170.667 917.332h682.667q53 0 90.5-37.5t37.5-90.5v-682.667q0-53-37.5-90.5t-90.5-37.5h-682.667q-53 0-90.5 37.5t-37.5 90.5v682.667q0 53 37.5 90.5t90.5 37.5zM853.333 831.999h-682.667q-17.667 0-30.167-12.5t-12.5-30.167v-682.667q0-17.667 12.5-30.167t30.167-12.5h682.667q17.667 0 30.167 12.5t12.5 30.167v682.667q0 17.667-12.5 30.167t-30.167 12.5zM512 661.332q17.667 0 30.167-12.5t12.5-30.167v-128h128q17.667 0 30.167-12.5t12.5-30.167-12.5-30.167-30.167-12.5h-128v-128q0-17.667-12.5-30.167t-30.167-12.5-30.167 12.5-12.5 30.167v128h-128q-17.667 0-30.167 12.5t-12.5 30.167 12.5 30.167 30.167 12.5h128v128q0 17.667 12.5 30.167t30.167 12.5z" />
<glyph unicode="&#xe048;" glyph-name="microphone" d="M810.667 575.999q17.667 0 30.167-12.5t12.5-30.167v-85.333q0-64-23.167-123.167t-63-103.667-95-74.333-117.5-37.5v-88h128q17.667 0 30.167-12.5t12.5-30.167-12.5-30.167-30.167-12.5h-341.333q-17.667 0-30.167 12.5t-12.5 30.167 12.5 30.167 30.167 12.5h128v88q-62.333 7.667-117.5 37.5t-95 74.333-63 103.667-23.167 123.167v85.333q0 17.667 12.5 30.167t30.167 12.5 30.167-12.5 12.5-30.167v-85.333q0-69.667 34.333-128.5t93.167-93.167 128.5-34.333 128.5 34.333 93.167 93.167 34.333 128.5v85.333q0 17.667 12.5 30.167t30.167 12.5zM512 959.999q70.667 0 120.667-50t50-120.667v-341.333q0-70.667-50-120.667t-120.667-50-120.667 50-50 120.667v341.333q0 70.667 50 120.667t120.667 50zM512 874.666q-35.333 0-60.333-25t-25-60.333v-341.333q0-35.333 25-60.333t60.333-25 60.333 25 25 60.333v341.333q0 35.333-25 60.333t-60.333 25z" />
<glyph unicode="&#xe049;" glyph-name="record" d="M512 831.999q78 0 149.167-30.5t122.5-81.833 81.833-122.5 30.5-149.167-30.5-149.167-81.833-122.5-122.5-81.833-149.167-30.5-149.167 30.5-122.5 81.833-81.833 122.5-30.5 149.167 30.5 149.167 81.833 122.5 122.5 81.833 149.167 30.5zM512 746.666q-60.667 0-116-23.667t-95.333-63.667-63.667-95.333-23.667-116 23.667-116 63.667-95.333 95.333-63.667 116-23.667 116 23.667 95.333 63.667 63.667 95.333 23.667 116-23.667 116-63.667 95.333-95.333 63.667-116 23.667z" />
<glyph unicode="&#xe051;" glyph-name="rewind" d="M768 789.332q17.667 0 30.167-12.5t12.5-30.167-12.667-30.333l-268.333-268.333 268.333-268.333q12.667-12.667 12.667-30.333t-12.5-30.167-30.167-12.5q-18 0-30.333 12.333l-298.667 298.667q-12.333 12.333-12.333 30.333t12.333 30.333l298.667 298.667q12.333 12.333 30.333 12.333zM512 789.332q17.667 0 30.167-12.5t12.5-30.167-12.667-30.333l-268.333-268.333 268.333-268.333q12.667-12.667 12.667-30.333t-12.5-30.167-30.167-12.5q-18 0-30.333 12.333l-298.667 298.667q-12.333 12.333-12.333 30.333t12.333 30.333l298.667 298.667q12.333 12.333 30.333 12.333z" />
<glyph unicode="&#xe052;" glyph-name="play" d="M170.667 63.999v768l640-384zM644.667 447.999l-388.667 233.333v-466.667z" />
<glyph unicode="&#xe054;" glyph-name="stop" d="M256 831.999h512q53 0 90.5-37.5t37.5-90.5v-512q0-53-37.5-90.5t-90.5-37.5h-512q-53 0-90.5 37.5t-37.5 90.5v512q0 53 37.5 90.5t90.5 37.5zM768 746.666h-512q-17.667 0-30.167-12.5t-12.5-30.167v-512q0-17.667 12.5-30.167t30.167-12.5h512q17.667 0 30.167 12.5t12.5 30.167v512q0 17.667-12.5 30.167t-30.167 12.5z" />
<glyph unicode="&#xe055;" glyph-name="fast-forward" d="M469.333 789.332q17.667 0 30-12.333l298.667-298.667q12.667-12.667 12.667-30.333t-12.667-30.333l-298.667-298.667q-12.333-12.333-30-12.333t-30.167 12.5-12.5 30.167q0 18 12.333 30.333l268.333 268.333-268.333 268.333q-12.333 12.333-12.333 30.333 0 18.333 12.167 30.5t30.5 12.167zM213.333 789.332q17.667 0 30-12.333l298.667-298.667q12.667-12.667 12.667-30.333t-12.667-30.333l-298.667-298.667q-12.333-12.333-30-12.333t-30.167 12.5-12.5 30.167q0 18 12.333 30.333l268.333 268.333-268.333 268.333q-12.333 12.333-12.333 30.333 0 18.333 12.167 30.5t30.5 12.167z" />
<glyph unicode="&#xe058;" glyph-name="repeat" d="M42.667 405.332h256q17.667 0 30.167-12.5t12.5-30.167-12.5-30.167-30.167-12.5h-144l116-113.333q49.333-49.667 113-75 61-25 128.333-25t128.333 25q33.333 13.667 62.5 33.5t49.667 40.667 37.333 44.667 27 43.833 17.167 40q6 16.667 22 24.167t32.333 1.833q16.667-6 24.167-21.833t1.833-32.167q-14-42.667-40.667-84.667t-60-75.333q-61.333-61.333-141-93.667-77.333-31.333-160.667-31.333-83 0-160.667 31.333-79.667 32.333-141 93.667l-125 122.333v-162q0-17.667-12.5-30.167t-30.167-12.5-30.167 12.5-12.5 30.167v256q0 17.667 12.5 30.167t30.167 12.5zM512 874.666q83 0 160.667-31.333 79.667-32.333 141-93.667l0.667-0.667 124.333-121.667v162q0 17.667 12.5 30.167t30.167 12.5 30.167-12.5 12.5-30.167v-256q0-17.667-12.5-30.167t-30.167-12.5h-256q-17.667 0-30.167 12.5t-12.5 30.167 12.5 30.167 30.167 12.5h144l-116 113.333q-48.667 48.667-110.833 74.333t-130.5 25.667q-67.333 0-128.333-25-63.667-25.333-113-75-20-17.667-43.833-53.833t-36.833-73.833q-6-16.667-22-24.167t-32.333-1.833q-16.667 6-24.167 21.833t-1.833 32.167q14 42.667 40.667 84.667t60 75.333q61.333 61.333 141 93.667 77.667 31.333 160.667 31.333z" />
<glyph unicode="&#xe059;" glyph-name="folder" d="M170.667 874.666h213.333l85.333-128h384q53 0 90.5-37.5t37.5-90.5v-469.333q0-53-37.5-90.5t-90.5-37.5h-682.667q-53 0-90.5 37.5t-37.5 90.5v597.333q0 53 37.5 90.5t90.5 37.5zM423.667 661.332l-82.333 128h-170.667q-17.667 0-30.167-12.5t-12.5-30.167v-597.333q0-17.667 12.5-30.167t30.167-12.5h682.667q17.667 0 30.167 12.5t12.5 30.167v469.333q0 17.667-12.5 30.167t-30.167 12.5h-429.667z" />
<glyph unicode="&#xe074;" glyph-name="head" d="M512 959.999q69.667 0 128.5-34.333t93.167-93.167 34.333-128.5v-128q0-53.333-20.667-101t-57.667-83q97.333-15.333 173-45.167t118.5-70.5 42.833-85.667v-84q0-53-37.5-90.5t-90.5-37.5h-768q-53 0-90.5 37.5t-37.5 90.5v84.333q0 45 42.833 85.667t118.333 70.5 172.833 44.833q-36.667 35.667-57.333 83.167t-20.667 100.833v128q0 69.667 34.333 128.5t93.167 93.167 128.5 34.333zM512 319.999q-92.667 0-178.833-14.833t-150.167-41.5q-25.667-10.667-45.833-22.667t-30.667-21.667-15.833-16.833-5.333-11.5v-84.333q0-17.667 12.5-30.167t30.167-12.5h768q17.667 0 30.167 12.5t12.5 30.167v84q0 4.333-5.333 11.5t-15.833 16.833-30.667 21.667-45.833 23q-64 26.667-150.167 41.5t-178.833 14.833zM512 874.666q-70.667 0-120.667-50t-50-120.667v-128q0-70.667 50-120.667t120.667-50 120.667 50 50 120.667v128q0 70.667-50 120.667t-120.667 50z" />
<glyph unicode="&#xe076;" glyph-name="speech-bubble" d="M170.667 917.332h682.667q53 0 90.5-37.5t37.5-90.5v-469.333q0-53-37.5-90.5t-90.5-37.5h-341.333l-298.667-213.333v213.333h-42.667q-53 0-90.5 37.5t-37.5 90.5v469.333q0 53 37.5 90.5t90.5 37.5zM853.333 831.999h-682.667q-17.667 0-30.167-12.5t-12.5-30.167v-469.333q0-17.667 12.5-30.167t30.167-12.5h128v-133l186 133h368.667q17.667 0 30.167 12.5t12.5 30.167v469.333q0 17.667-12.5 30.167t-30.167 12.5z" />
<glyph unicode="&#xe080;" glyph-name="reload" d="M469.333 874.666q83 0 160.667-31.333 79.667-32.333 141-93.667 0.333-0.333 125-122.333v162q0 17.667 12.5 30.167t30.167 12.5 30.167-12.5 12.5-30.167v-256q0-17.667-12.5-30.167t-30.167-12.5h-256q-17.667 0-30.167 12.5t-12.5 30.167 12.5 30.167 30.167 12.5h144q-92.667 90-116 113.333-49.667 49.667-113 75-61 25-128.333 25t-128.333-25q-63.667-25.333-113-75-49.333-49.333-75-113-25-61-25-128.333t25-128.333q25.667-63.667 75-113 49.333-49.667 113-75 61-25 128.333-25t128.333 25q63.333 25.333 113 75 55.333 55.333 80.667 127.667 5.667 16.667 21.667 24.167t32.667 1.833q16.667-6 24.333-22t1.667-32.667q-15.333-43.667-41.5-85.333t-59.167-74q-61.333-61.333-141-93.667-77.667-31.333-160.667-31.333t-160.667 31.333q-79.667 32.333-141 93.667t-93.667 141q-31.333 77.667-31.333 160.667t31.333 160.667q32.333 79.667 93.667 141t141 93.667q77.667 31.333 160.667 31.333z" />
<glyph unicode="&#xe085;" glyph-name="tag" d="M42.667 917.332h482.667l418.667-418.333q37.333-37.333 37.333-90.333 0-53.333-37.333-90.667l-302-302q-37.333-37.333-90.333-37.333-53.333 0-90.667 37.333l-418.333 418.667v482.667zM883.667 438.666l-393.667 393.333h-362v-362l393.333-393.667q12.667-12.333 30.333-12.333t30 12.333l302 302q12.333 12.333 12.333 30t-12.333 30.333zM362.667 703.999q44.333 0 75.5-31.167t31.167-75.5-31.167-75.5-75.5-31.167-75.5 31.167-31.167 75.5 31.167 75.5 75.5 31.167zM362.667 618.666q-8.667 0-15-6.333t-6.333-15 6.333-15 15-6.333 15 6.333 6.333 15-6.333 15-15 6.333z" />
<glyph unicode="&#xe092;" glyph-name="pie-graph" d="M512 917.332q95.667 0 182.5-37.167t149.667-100 100-149.667 37.167-182.5-37.167-182.5-100-149.667-149.667-100-182.5-37.167-182.5 37.167-149.667 100-100 149.667-37.167 182.5 37.167 182.5 100 149.667 149.667 100 182.5 37.167zM469.333 405.332v424.333q-71-8-134.167-41.167t-108.667-83.5-72-117.333-26.5-139.667q0-78 30.5-149.167t81.833-122.5 122.5-81.833 149.167-30.5q72.667 0 139.667 26.5t117.333 72 83.5 108.667 41.167 134.167h-424.333zM554.667 829.666v-339h339q-7.333 66-36.333 125.167t-73.667 103.833-103.833 73.667-125.167 36.333z" />
<glyph unicode="&#xe093;" glyph-name="star" d="M396.667 575.999l115.333 355 115.333-355h373.333l-302-209.667 115.333-348.667-302 221-302-219.333 115.333 347-302 209.667h373.333zM565.333 490.666l-53.333 169.667-53.333-169.667h-165.667l133.333-88.333-52.333-157.667 138.333 100 137.667-101-52.333 157.667 133 89.333h-165.333z" />
<glyph unicode="&#xe094;" glyph-name="arrow-left" d="M426.667 789.332q17.667 0 30.167-12.5t12.5-30.167q0-18-12.667-30.333l-225.667-225.667h665q17.667 0 30.167-12.5t12.5-30.167-12.5-30.167-30.167-12.5h-665l225.667-225.667q12.667-12.333 12.667-30.333 0-17.667-12.5-30.167t-30.167-12.5q-18 0-30.333 12.333l-298.667 298.667q-12.333 13-12.333 30.333t12.333 30.333l298.667 298.667q12.667 12.333 30.333 12.333z" />
<glyph unicode="&#xe095;" glyph-name="arrow-right" d="M597.333 789.332q18 0 30.333-12.333l298.667-298.667q12.333-12.333 12.333-30.333t-12.333-30.333l-298.667-298.667q-12.333-12.333-30.333-12.333-18.333 0-30.5 12.167t-12.167 30.5q0 18 12.333 30.333l226 225.667h-665q-17.667 0-30.167 12.5t-12.5 30.167 12.5 30.167 30.167 12.5h665l-226 225.667q-12.333 12.333-12.333 30.333 0 18.333 12.167 30.5t30.5 12.167z" />
<glyph unicode="&#xe096;" glyph-name="arrow-up" d="M512 874.666q18 0 30.333-12.333l298.667-298.667q12.333-12.333 12.333-30.333 0-18.333-12.167-30.5t-30.5-12.167q-18 0-30.333 12.333l-225.667 226v-665q0-17.667-12.5-30.167t-30.167-12.5-30.167 12.5-12.5 30.167v665l-225.667-226q-12.333-12.333-30.333-12.333-18.333 0-30.5 12.167t-12.167 30.5q0 18 12.333 30.333l298.667 298.667q12.333 12.333 30.333 12.333z" />
<glyph unicode="&#xe097;" glyph-name="arrow-down" d="M512 874.666q17.667 0 30.167-12.5t12.5-30.167v-665l225.667 226q12.333 12.333 30.333 12.333 18.333 0 30.5-12.167t12.167-30.5q0-18-12.333-30.333l-298.667-298.667q-12.333-12.333-30.333-12.333t-30.333 12.333l-298.667 298.667q-12.333 12.333-12.333 30.333 0 18.333 12.167 30.5t30.5 12.167q18 0 30.333-12.333l225.667-226v665q0 17.667 12.5 30.167t30.167 12.5z" />
<glyph unicode="&#xe098;" glyph-name="volume" d="M213.333 618.666l213.333 213.333v-768l-213.333 213.333h-85.333q-53 0-90.5 37.5t-37.5 90.5v83.667q0 53 37.5 91.333t90.5 38.333h85.333zM341.333 269.999v357.667l-92.667-94.333h-120.667q-17.333 0-30-13.167t-12.667-31.167v-83.667q0-17.667 12.5-30.167t30.167-12.5h120.667zM620 590.332q12.333 0 23.167-7t16.167-19q23.333-56.333 23.333-116.333 0-61-23.333-115.667-5-12-15.833-19.167t-23.5-7.167q-15.667 0-29.167 11.833t-13.5 30.833q0 7.667 3.333 16.667 16.667 39.333 16.667 82.667 0 43-16.667 83-3.333 7.667-3.333 16.667 0 19 12.833 30.833t29.833 11.833zM750.333 709.332q24 0 36.667-21 33-55 49-113.667 17.333-62.667 17.333-126.667 0-63.667-17.333-127-16.333-59.333-49-113.667-12.333-20.667-36.667-20.667-16.667 0-29.667 12t-13 30.667q0 11.667 6.333 22 26 43.333 39.667 92.667 14.333 50 14.333 104 0 53.667-14.333 103.667-13.667 49.333-39.667 93-6.333 9.667-6.333 21.667 0 18 13.167 30.5t29.5 12.5zM878 826.332q23 0 35.333-18.667 54.333-79.667 82.5-171.333t28.167-188.333-28.167-188.333-82.5-171.333q-12-18.667-35.333-18.667-17.333 0-29.833 12t-12.5 30.667q0 13.333 7.333 24 95.667 140.333 95.667 311.667 0 84-24.333 163.333t-71.333 148.333q-7.333 10.667-7.333 24 0 18.667 12.5 30.667t29.833 12z" />
<glyph unicode="&#xe114;" glyph-name="plus" d="M512 874.666q17.667 0 30.167-12.5t12.5-30.167v-341.333h341.333q17.667 0 30.167-12.5t12.5-30.167-12.5-30.167-30.167-12.5h-341.333v-341.333q0-17.667-12.5-30.167t-30.167-12.5-30.167 12.5-12.5 30.167v341.333h-341.333q-17.667 0-30.167 12.5t-12.5 30.167 12.5 30.167 30.167 12.5h341.333v341.333q0 17.667 12.5 30.167t30.167 12.5z" />
<glyph unicode="&#xe115;" glyph-name="minus" d="M128 490.666h768q17.667 0 30.167-12.5t12.5-30.167-12.5-30.167-30.167-12.5h-768q-17.667 0-30.167 12.5t-12.5 30.167 12.5 30.167 30.167 12.5z" />
<glyph unicode="&#xe116;" glyph-name="check" d="M896 746.666q18.333 0 30.5-12.167t12.167-30.5q0-18-12.333-30.333l-512-512q-12.333-12.333-30.333-12.333t-30.333 12.333l-256 256q-12.333 12.333-12.333 30.333 0 18.333 12.167 30.5t30.5 12.167q18 0 30.333-12.333l225.667-226 481.667 482q12.333 12.333 30.333 12.333z" />
<glyph unicode="&#xe117;" glyph-name="cross" d="M810.667 789.332q18.333 0 30.5-12.167t12.167-30.5q0-18-12.333-30.333l-268.667-268.333 268.667-268.333q12.333-12.333 12.333-30.333 0-18.333-12.167-30.5t-30.5-12.167q-18 0-30.333 12.333l-268.333 268.667-268.333-268.667q-12.333-12.333-30.333-12.333-18.333 0-30.5 12.167t-12.167 30.5q0 18 12.333 30.333l268.667 268.333-268.667 268.333q-12.333 12.333-12.333 30.333 0 18.333 12.167 30.5t30.5 12.167q18 0 30.333-12.333l268.333-268.667 268.333 268.667q12.333 12.333 30.333 12.333z" />
<glyph unicode="&#xe120;" glyph-name="menu2" d="M128 746.666h768q17.667 0 30.167-12.5t12.5-30.167-12.5-30.167-30.167-12.5h-768q-17.667 0-30.167 12.5t-12.5 30.167 12.5 30.167 30.167 12.5zM128 234.666h768q17.667 0 30.167-12.5t12.5-30.167-12.5-30.167-30.167-12.5h-768q-17.667 0-30.167 12.5t-12.5 30.167 12.5 30.167 30.167 12.5zM128 490.666h768q17.667 0 30.167-12.5t12.5-30.167-12.5-30.167-30.167-12.5h-768q-17.667 0-30.167 12.5t-12.5 30.167 12.5 30.167 30.167 12.5z" />
<glyph unicode="&#xe129;" glyph-name="ellipsis" d="M853.333 575.999q53 0 90.5-37.5t37.5-90.5-37.5-90.5-90.5-37.5-90.5 37.5-37.5 90.5 37.5 90.5 90.5 37.5zM170.667 575.999q53 0 90.5-37.5t37.5-90.5-37.5-90.5-90.5-37.5-90.5 37.5-37.5 90.5 37.5 90.5 90.5 37.5zM170.667 490.666q-17.667 0-30.167-12.5t-12.5-30.167 12.5-30.167 30.167-12.5 30.167 12.5 12.5 30.167-12.5 30.167-30.167 12.5zM512 575.999q53 0 90.5-37.5t37.5-90.5-37.5-90.5-90.5-37.5-90.5 37.5-37.5 90.5 37.5 90.5 90.5 37.5zM512 490.666q-17.667 0-30.167-12.5t-12.5-30.167 12.5-30.167 30.167-12.5 30.167 12.5 12.5 30.167-12.5 30.167-30.167 12.5zM853.333 490.666q-17.667 0-30.167-12.5t-12.5-30.167 12.5-30.167 30.167-12.5 30.167 12.5 12.5 30.167-12.5 30.167-30.167 12.5z" />
<glyph unicode="&#xe618;" glyph-name="search" d="M914.926 108.61l-232.41 232.434c46.716 56.178 74.838 128.334 74.838 207.086 0 179.030-145.108 324.14-324.14 324.14-178.996 0-324.14-145.11-324.14-324.14 0-178.996 145.144-324.14 324.14-324.14 78.77 0 150.908 28.122 207.086 74.838l232.41-232.434 42.216 42.216zM143.194 548.13c0 159.92 130.082 290.020 290.020 290.020 159.906 0 290.020-130.1 290.020-290.020s-130.114-290.020-290.020-290.020c-159.938 0-290.020 130.1-290.020 290.020z" />
<glyph unicode="&#xe61c;" glyph-name="refresh" d="M887.32 384.074c0-206.954-168.366-375.32-375.32-375.32-206.952 0-375.32 168.366-375.32 375.32 0 206.468 167.6 374.502 373.904 375.286v-170.65l324.14 187.678-324.14 187.642v-170.55c-225.512-0.766-408.024-183.71-408.024-409.406 0-226.094 183.278-409.44 409.44-409.44 226.128 0 409.44 183.346 409.44 409.44h-34.12zM544.704 904.854l221.914-128.466-221.914-128.5v256.966z" />
<glyph unicode="&#xe636;" glyph-name="menu" d="M102.56 759.352v-136.48h818.88v136.48h-818.88zM887.32 656.992h-750.64v68.24h750.64v-68.24zM102.56 401.092h818.88v136.48h-818.88v-136.48zM136.68 503.452h750.64v-68.24h-750.64v68.24zM102.56 179.312h818.88v136.48h-818.88v-136.48zM136.68 281.672h750.64v-68.24h-750.64v68.24z" />
<glyph unicode="&#xe648;" glyph-name="home" d="M512 895.832l-170.6-170.6v68.24h-136.48v-204.72l-120.154-120.154 24.124-24.124 403.11 403.108 403.11-403.11 24.124 24.124-427.234 427.236zM239.040 759.352h68.24v-68.24l-68.24-68.24v136.48zM204.92 452.272v-409.44h238.84v238.84h136.48v-238.84h238.84v409.44l-307.080 307.080-307.080-307.080zM784.96 76.952h-170.6v238.84h-204.72v-238.84h-170.6v361.19l272.96 272.96 272.96-272.96v-361.19z" />
<glyph unicode="&#xe680;" glyph-name="close" d="M343.118 662.34l-24.126-24.126 168.884-168.884-168.084-168.086 24.126-24.126 168.084 168.084 168.086-168.084 24.126 24.126-168.084 168.086 168.884 168.884-24.126 24.126-168.886-168.884z" />
<glyph unicode="&#xe682;" glyph-name="angle-up" d="M536.542 571.434l-24.142 24.142-193.13-193.132 24.138-24.138 168.992 168.99 168.192-168.192 24.138 24.142-96.406 96.406z" />
<glyph unicode="&#xe684;" glyph-name="angle-right" d="M613.076 444.79l24.14 24.142-193.132 193.13-24.138-24.138 168.992-168.992-168.194-168.192 24.142-24.138 96.406 96.406z" />
<glyph unicode="&#xe686;" glyph-name="angle-left" d="M409.358 493.874l-24.142-24.142 193.134-193.13 24.138 24.138-168.992 168.992 168.192 168.192-24.14 24.138-96.406-96.406z" />
<glyph unicode="&#xe688;" glyph-name="angle-down" d="M487.458 367.718l24.142-24.142 193.13 193.134-24.138 24.138-168.992-168.992-168.192 168.192-24.138-24.142 96.406-96.406z" />
<glyph unicode="&#xe6c2;" glyph-name="refresh-2" horiz-adv-x="862" d="M655.36 385.705l-35.84-250.88 244.053 37.547-95.573 97.28c32.427 59.733 51.2 126.293 51.2 199.68 0 226.987-182.613 409.6-409.6 409.6v-34.133c206.507 0 375.467-168.96 375.467-375.467 0-63.147-15.36-121.173-42.667-174.080l-87.040 90.453zM658.773 175.785l20.48 136.533 112.64-116.053-133.12-20.48zM34.133 469.332c0 90.453 32.427 172.373 85.333 237.227l104.107-105.813 35.84 250.88-244.053-39.253 78.507-81.92c-58.027-69.973-93.867-162.133-93.867-261.12 0-226.987 182.613-409.6 409.6-409.6v34.133c-206.507 0-375.467 168.96-375.467 375.467zM218.453 808.959l-20.48-136.533-112.64 116.053 133.12 20.48z" />
<glyph unicode="&#xe800;" glyph-name="el-comment" d="M0 174.376v731.54h1026.003v-731.54h-485.299l-328.321-210.33v210.33h-212.382z" />
<glyph unicode="&#xe801;" glyph-name="el-user" d="M0-78.021v160.056q0 24.624 59.508 59.508t163.134 72.846q101.574 35.91 140.562 74.898t37.962 103.626q0 29.754-27.702 73.872t-32.832 60.534q-12.312 35.91-29.754 138.51-10.26 53.352-14.364 95.418-2.052 22.572 6.156 51.3t28.728 61.56 68.742 52.326 112.86 21.546 112.86-21.546 68.742-52.326 28.728-61.56 6.156-51.3q-4.104-42.066-14.364-95.418-17.442-102.6-29.754-138.51-6.156-16.416-32.832-60.534t-27.702-73.872q0-65.664 37.962-103.626t140.562-74.898q222.642-82.080 222.642-132.354v-160.056h-1026.003z" />
<glyph unicode="&#xe802;" glyph-name="el-tag" horiz-adv-x="966" d="M0 571.44v294.463q2.052 31.806 24.624 55.404t53.352 22.572h294.463q90.288-6.156 136.458-56.43l437.077-484.273q19.494-28.728 19.494-59.508t-19.494-53.352l-342.685-342.685q-25.65-21.546-58.482-21.546t-53.352 21.546l-435.025 487.351q-56.43 65.664-56.43 136.458zM128.25 739.704q2.052-31.806 23.598-53.352t52.326-20.52q32.832 0 53.352 22.572t21.546 51.3q0 33.858-23.598 55.404t-51.3 20.52q-33.858-2.052-54.378-23.598t-21.546-52.326z" />
<glyph unicode="&#xe803;" glyph-name="el-down-dir" horiz-adv-x="587" d="M585.848 544.763q0-14.364-10.26-25.65l-256.5-256.5q-11.286-11.286-25.65-11.286t-25.65 11.286l-256.5 256.5q-11.286 11.286-11.286 25.65t11.286 25.65 25.65 11.286h513.001q14.364 0 25.65-11.286t10.26-25.65z" />
<glyph unicode="&#xe804;" glyph-name="el-edit" horiz-adv-x="1015" d="M0-70.839l69.768 351.919 281.125-280.099zM140.562 331.355l432.973 432.973 265.735-266.761-431.947-432.973zM685.37 838.2q2.052 40.014 31.806 70.794t70.794 31.806 67.716-26.676l134.406-133.38q25.65-26.676 24.624-67.716t-30.78-70.794-70.794-30.78-67.716 24.624l-134.406 134.406q-27.702 27.702-25.65 67.716z" />
<glyph unicode="&#xe805;" glyph-name="el-category" d="M0-78.021v449.389h449.389v-449.389h-449.389zM0 499.619v448.363h449.389v-448.363h-449.389zM577.64-78.021v449.389h448.363v-449.389h-448.363zM577.64 499.619v448.363h448.363v-448.363h-448.363z" />
<glyph unicode="&#xe806;" glyph-name="el-right-dir" horiz-adv-x="366" d="M329.347 434.981q0-14.364-10.26-25.65l-256.5-256.5q-11.286-11.286-25.65-11.286t-25.65 11.286-11.286 25.65v513.001q0 15.39 11.286 25.65t25.65 11.286 25.65-11.286l256.5-256.5q10.26-10.26 10.26-25.65z" />
<glyph unicode="&#xe807;" glyph-name="el-angle-left" horiz-adv-x="366" d="M359.101 636.078q0-7.182-6.156-12.312l-224.694-225.72 224.694-224.694q6.156-6.156 6.156-13.338t-6.156-13.338l-28.728-28.728q-5.13-5.13-12.312-5.13t-13.338 5.13l-266.761 266.761q-6.156 6.156-6.156 13.338t6.156 13.338l266.761 266.761q5.13 6.156 13.338 6.156t12.312-6.156l28.728-28.728q6.156-5.13 6.156-13.338z" />
<glyph unicode="&#xe808;" glyph-name="el-angle-right" horiz-adv-x="366" d="M340.633 398.045q0-7.182-6.156-13.338l-266.761-266.761q-5.13-5.13-12.312-5.13t-13.338 5.13l-28.728 28.728q-6.156 6.156-6.156 13.338t6.156 13.338l224.694 224.694-224.694 225.72q-6.156 5.13-6.156 12.312t6.156 13.338l28.728 28.728q5.13 6.156 13.338 6.156t12.312-6.156l266.761-266.761q6.156-5.13 6.156-13.338z" />
<glyph unicode="&#xe809;" glyph-name="el-angle-up" horiz-adv-x="659" d="M615.602 269.794q0-7.182-6.156-13.338l-28.728-27.702q-5.13-6.156-12.312-6.156t-13.338 6.156l-225.72 224.694-224.694-224.694q-5.13-6.156-13.338-6.156t-13.338 6.156l-27.702 27.702q-6.156 6.156-6.156 13.338t6.156 13.338l266.761 266.761q5.13 6.156 12.312 6.156t13.338-6.156l266.761-266.761q6.156-5.13 6.156-13.338z" />
<glyph unicode="&#xe80a;" glyph-name="el-angle-down" horiz-adv-x="659" d="M615.602 526.295q0-7.182-6.156-13.338l-266.761-266.761q-5.13-5.13-13.338-5.13t-12.312 5.13l-266.761 266.761q-6.156 6.156-6.156 13.338t6.156 13.338l27.702 28.728q6.156 6.156 13.338 6.156t13.338-6.156l224.694-224.694 225.72 224.694q5.13 6.156 13.338 6.156t12.312-6.156l28.728-28.728q6.156-5.13 6.156-13.338z" />
<glyph unicode="&#xe80b;" glyph-name="el-minus" d="M0 290.315v289.333h1026.003v-289.333h-1026.003z" />
<glyph unicode="&#xe80c;" glyph-name="el-left-open" horiz-adv-x="666" d="M0 434.981l151.848 152.874 361.153 360.127 151.848-151.848-360.127-361.153 360.127-361.153-151.848-151.848-361.153 361.153z" />
<glyph unicode="&#xe80d;" glyph-name="el-time" horiz-adv-x="934" d="M0 433.955q0 192.888 137.484 330.373t330.373 137.484 329.347-137.484 136.458-330.373-136.458-329.347-329.347-136.458-330.373 136.458-137.484 329.347zM122.094 433.955q0-143.64 101.574-244.188t244.188-101.574 244.188 101.574 101.574 244.188-101.574 244.188-244.188 101.574-244.188-101.574-101.574-244.188zM298.567 363.161v120.042h120.042v218.538h120.042v-338.581h-240.084z" />
<glyph unicode="&#xe80e;" glyph-name="el-up" horiz-adv-x="802" d="M0 346.745l401.167 601.238 400.141-601.238h-216.486v-424.765h-368.335v424.765h-216.486z" />
<glyph unicode="&#xe80f;" glyph-name="el-quote" d="M0 12.267v448.363q0 72.846 15.39 132.354t38.988 99.522 62.586 68.742 73.872 46.17 85.158 28.728 84.132 14.364 83.106 7.182l37.962-180.576q-50.274-9.234-83.106-20.52t-67.716-31.806-49.248-54.378-10.26-79.002h134.406v-479.143h-405.271zM542.756 12.267v448.363q0 72.846 16.416 132.354t38.988 99.522 62.586 68.742 73.872 46.17 85.158 28.728 83.106 14.364 83.106 7.182l40.014-180.576q-52.326-9.234-85.158-20.52t-66.69-31.806-48.222-54.378-12.312-79.002h134.406v-479.143h-405.271z" />
<glyph unicode="&#xe810;" glyph-name="el-bookmark" horiz-adv-x="626" d="M0 18.423v929.559h624.836v-1026.003l-311.905 312.931-312.931-312.931v96.444z" />
<glyph unicode="&#xe811;" glyph-name="el-left-dir" horiz-adv-x="366" d="M366.283 691.482v-513.001q0-14.364-10.26-25.65t-26.676-11.286-25.65 11.286l-256.5 256.5q-10.26 11.286-10.26 25.65t10.26 25.65l256.5 256.5q11.286 11.286 25.65 11.286t26.676-11.286 10.26-25.65z" />
<glyph unicode="&#xe812;" glyph-name="el-up-open" d="M0 254.404l513.001 513.001 513.001-513.001-151.848-151.848-361.153 360.127-361.153-360.127z" />
<glyph unicode="&#xe813;" glyph-name="el-ok" d="M0 342.641l166.212 166.212 170.316-168.264 521.209 523.261 168.264-168.264-689.474-689.474-166.212 168.264z" />
<glyph unicode="&#xe814;" glyph-name="el-cancel" d="M0 148.726l286.255 286.255-286.255 286.255 226.746 226.746 286.255-286.255 286.255 286.255 226.746-226.746-286.255-286.255 286.255-286.255-226.746-226.746-286.255 286.255-286.255-286.255z" />
<glyph unicode="&#xe815;" glyph-name="el-comments" d="M0 272.872v622.784h876.207v-622.784h-415.531l-280.099-180.576v180.576h-180.576zM357.049 157.96l122.094 79.002h132.354l9.234-6.156 174.42-114.912v121.068h152.874v444.259h-31.806v77.976h109.782v-601.238h-151.848v-183.654l-60.534 37.962-226.746 145.692h-229.824z" />
<glyph unicode="&#xe816;" glyph-name="el-search" horiz-adv-x="952" d="M343.711 328.277l25.65-25.65q-28.728-28.728-87.21-88.236t-74.898-75.924l-27.702 27.702q16.416 15.39 75.924 74.898t88.236 87.21zM595.082 893.604q139.536 0 240.084-99.522t99.522-240.084-99.522-240.084-240.084-98.496q-65.664 0-126.198 24.624l-261.63-263.683-188.784 189.81 262.657 261.63q-26.676 64.638-26.676 126.198 0 140.562 100.548 240.084t240.084 99.522zM595.082 328.277q93.366 0 159.030 65.664t65.664 160.056-65.664 159.030-159.030 65.664-160.056-65.664-65.664-159.030 65.664-160.056 160.056-65.664z" />
<glyph unicode="&#xe817;" glyph-name="el-category2" d="M0-78.021v256.5h256.5v-256.5h-256.5zM0 306.731v256.5h256.5v-256.5h-256.5zM0 691.482v256.5h256.5v-256.5h-256.5zM401.167-78.021v256.5h624.836v-256.5h-624.836zM401.167 306.731v256.5h624.836v-256.5h-624.836zM401.167 691.482v256.5h624.836v-256.5h-624.836z" />
<glyph unicode="&#xe818;" glyph-name="el-link" horiz-adv-x="952" d="M833.115 251.326q0 23.598-15.39 38.988l-119.016 119.016q-16.416 16.416-38.988 16.416-24.624 0-41.040-18.468 1.026-1.026 10.26-10.26t12.312-12.312 9.234-11.286 7.182-14.364 2.052-15.39q0-23.598-16.416-38.988t-38.988-16.416q-8.208 0-15.39 2.052t-14.364 7.182-11.286 9.234-12.312 12.312-10.26 10.26q-19.494-17.442-19.494-41.040t16.416-38.988l117.99-119.016q15.39-15.39 38.988-15.39 22.572 0 38.988 15.39l84.132 83.106q15.39 16.416 15.39 37.962zM430.921 655.572q0 22.572-15.39 38.988l-117.99 117.99q-16.416 16.416-38.988 16.416t-38.988-15.39l-84.132-84.132q-16.416-15.39-16.416-37.962t16.416-38.988l119.016-119.016q15.39-15.39 38.988-15.39t41.040 17.442q-2.052 2.052-11.286 11.286t-12.312 12.312-8.208 10.26-7.182 14.364-2.052 16.416q0 22.572 15.39 38.988t38.988 15.39q9.234 0 16.416-2.052t14.364-7.182 10.26-8.208 12.312-12.312 11.286-11.286q18.468 17.442 18.468 42.066zM943.923 251.326q0-68.742-49.248-115.938l-84.132-83.106q-47.196-48.222-115.938-48.222-69.768 0-116.964 49.248l-117.99 117.99q-47.196 48.222-47.196 116.964 0 69.768 50.274 119.016l-50.274 50.274q-49.248-50.274-119.016-50.274-68.742 0-116.964 48.222l-119.016 119.016q-48.222 48.222-48.222 116.964t48.222 115.938l84.132 84.132q48.222 47.196 116.964 47.196t116.964-48.222l116.964-119.016q48.222-47.196 48.222-115.938 0-70.794-50.274-120.042l50.274-50.274q49.248 50.274 119.016 50.274 68.742 0 116.964-48.222l119.016-119.016q48.222-48.222 48.222-116.964z" />
<glyph unicode="&#xe819;" glyph-name="el-up-dir" horiz-adv-x="587" d="M585.848 251.326q0-14.364-10.26-25.65t-25.65-10.26h-513.001q-15.39 0-25.65 10.26t-11.286 25.65 11.286 26.676l256.5 256.5q10.26 10.26 25.65 10.26t25.65-10.26l256.5-256.5q10.26-11.286 10.26-26.676z" />
<glyph unicode="&#xe81a;" glyph-name="el-info" horiz-adv-x="366" d="M366.283 178.48v-72.846q0-15.39-10.26-25.65t-26.676-11.286h-292.411q-15.39 0-25.65 11.286t-11.286 25.65v72.846q0 15.39 11.286 25.65t25.65 11.286h35.91v219.564h-35.91q-15.39 0-25.65 11.286t-11.286 25.65v72.846q0 15.39 11.286 25.65t25.65 11.286h219.564q15.39 0 25.65-11.286t11.286-25.65v-329.347h35.91q15.39 0 26.676-11.286t10.26-25.65zM293.437 838.2v-109.782q0-15.39-11.286-25.65t-25.65-11.286h-146.718q-14.364 0-25.65 11.286t-11.286 25.65v109.782q0 14.364 11.286 25.65t25.65 11.286h146.718q15.39 0 25.65-11.286t11.286-25.65z" />
<glyph unicode="&#xe81b;" glyph-name="el-share" d="M0-48.267q0 146.718 24.624 262.657t61.56 190.836 97.47 127.224 109.782 77.976 125.172 38.988 116.964 15.39 109.782 2.052v251.37l380.647-381.673-380.647-380.647v274.969q-104.652 0-154.926-1.026t-129.276-10.26-116.964-26.676-88.236-52.326-75.924-85.158-48.222-127.224-31.806-176.472z" />
<glyph unicode="&#xe81c;" glyph-name="el-folder-close" d="M0 22.527v574.562h1026.003v-574.562h-1026.003zM0 631.974v124.146h142.614l69.768 92.34h222.642l69.768-92.34h521.209v-124.146h-1026.003z" />
<glyph unicode="&#xe81d;" glyph-name="el-folder-open" d="M0 22.527v56.43l150.822 518.131h875.181l-176.472-574.562h-849.531zM0 232.858v523.261h142.614l69.768 92.34h222.642l69.768-92.34h344.737v-124.146h-742.826z" />
<glyph unicode="&#xe81e;" glyph-name="el-right-open" horiz-adv-x="666" d="M0 73.828l361.153 361.153-361.153 361.153 151.848 151.848 361.153-360.127 151.848-152.874-513.001-513.001z" />
<glyph unicode="&#xe81f;" glyph-name="el-home" horiz-adv-x="952" d="M806.439 379.577v-273.943q0-15.39-11.286-26.676t-25.65-10.26h-219.564v219.564h-146.718v-219.564h-219.564q-15.39 0-25.65 10.26t-11.286 26.676v273.943q0 1.026 0 2.052t0 2.052l329.347 270.865 329.347-270.865q1.026-1.026 1.026-4.104zM933.663 419.591l-34.884-42.066q-5.13-5.13-12.312-6.156h-2.052q-7.182 0-12.312 3.078l-396.037 330.373-396.037-330.373q-7.182-4.104-13.338-4.104-7.182 2.052-12.312 7.182l-35.91 42.066q-4.104 5.13-3.078 13.338t6.156 12.312l411.427 342.685q18.468 15.39 43.092 15.39t44.118-15.39l139.536-116.964v111.834q0 8.208 5.13 13.338t13.338 5.13h109.782q8.208 0 13.338-5.13t5.13-13.338v-232.902l125.172-104.652q5.13-5.13 6.156-12.312t-4.104-13.338z" />
<glyph unicode="&#xe820;" glyph-name="el-menu" d="M0 947.982v-205.2h1026.003v205.2h-1026.003zM0 537.581v-205.2h1026.003v205.2h-1026.003zM0 127.18v-205.2h1026.003v205.2h-1026.003z" />
<glyph unicode="&#xe821;" glyph-name="el-plus" d="M0 290.315v289.333h368.335v368.335h289.333v-368.335h368.335v-289.333h-368.335v-368.335h-289.333v368.335h-368.335z" />
<glyph unicode="&#xe822;" glyph-name="el-down-open" d="M0 615.558l151.848 151.848 361.153-360.127 361.153 360.127 151.848-151.848-513.001-513.001-151.848 151.848z" />
<glyph unicode="&#xe823;" glyph-name="el-audio" horiz-adv-x="1017" d="M1.026 59.464q-8.208 58.482 38.988 105.678t121.068 58.482q65.664 10.26 122.094-17.442l25.65 668.954 707.942 54.378q-32.832-745.904-34.884-775.658-1.026-52.326-46.17-93.366t-111.834-51.3q-73.872-10.26-132.354 22.572t-65.664 91.314 37.962 107.73 120.042 59.508q69.768 9.234 128.25-22.572l25.65 477.091-553.016-56.43-5.13-134.406q-6.156-134.406-12.312-284.203t-8.208-180.576v-6.156q-6.156-51.3-50.274-91.314t-109.782-48.222q-71.82-10.26-130.302 23.598t-67.716 92.34z" />
<glyph unicode="&#xe824;" glyph-name="el-image" d="M0 6.111v857.739h1026.003v-857.739h-1026.003zM77.976 86.14h870.051v697.682h-870.051v-697.682zM170.316 168.22v60.534l153.9 200.070 104.652-88.236 198.018 298.567 228.798-233.928v-237.006h-685.37zM170.316 595.038q0 37.962 24.624 63.612t63.612 24.624q33.858 0 59.508-24.624t24.624-63.612q0-33.858-24.624-58.482t-59.508-25.65q-37.962 0-63.612 25.65t-24.624 58.482z" />
<glyph unicode="&#xe825;" glyph-name="el-camera" d="M0 48.178v643.304h302.671l31.806 130.302h371.413l31.806-130.302h288.307v-643.304h-1026.003zM226.746 403.175q0-120.042 85.158-204.174t204.174-84.132 203.148 84.132 84.132 204.174-84.132 204.174-203.148 84.132-204.174-84.132-85.158-204.174zM312.931 403.175q0 84.132 58.482 143.64t143.64 60.534 144.666-60.534 59.508-143.64-59.508-143.64-144.666-58.482-143.64 58.482-58.482 143.64zM853.635 545.789h146.718v84.132h-146.718v-84.132z" />
<glyph unicode="&#xe826;" glyph-name="el-down" horiz-adv-x="802" d="M0 523.217h216.486v424.765h368.335v-424.765h216.486l-400.141-601.238z" />
<glyph unicode="&#xe827;" glyph-name="el-left" d="M0 434.981l601.238 401.167v-216.486h424.765v-369.361h-424.765v-216.486z" />
<glyph unicode="&#xe828;" glyph-name="el-right" d="M0 250.3v369.361h424.765v216.486l601.238-401.167-601.238-401.167v216.486h-424.765z" />
<glyph unicode="&#xe829;" glyph-name="el-video" horiz-adv-x="906" d="M0-78.021v1026.003h905.961v-1026.003h-905.961zM46.17 44.074h111.834v84.132h-111.834v-84.132zM46.17 232.858h111.834v86.184h-111.834v-86.184zM46.17 422.669h111.834v84.132h-111.834v-84.132zM46.17 613.506h111.834v84.132h-111.834v-84.132zM46.17 801.264h111.834v85.158h-111.834v-85.158zM206.226-46.215h493.507v447.337h-493.507v-447.337zM206.226 432.929h493.507v447.337h-493.507v-447.337zM747.956 44.074h111.834v84.132h-111.834v-84.132zM747.956 232.858h111.834v86.184h-111.834v-86.184zM747.956 422.669h111.834v84.132h-111.834v-84.132zM747.956 613.506h111.834v84.132h-111.834v-84.132zM747.956 801.264h111.834v85.158h-111.834v-85.158z" />
<glyph unicode="&#xe82a;" glyph-name="el-aside" d="M0 428.825v126.198q2.052 35.91 26.676 61.56t59.508 24.624h277.021q141.588 8.208 279.073 66.69t234.954 155.952q36.936-2.052 60.534-26.676t23.598-59.508v-204.174q28.728-8.208 46.17-30.78t18.468-51.3q-2.052-30.78-19.494-52.326t-45.144-27.702v-206.226q-1.026-36.936-26.676-60.534t-57.456-24.624q-212.382 188.784-460.675 216.486-67.716-33.858-54.378-130.302t79.002-145.692q-28.728-48.222-98.496-53.352t-107.73 30.78q-16.416 46.17-25.65 77.976t-16.416 72.846-7.182 80.028 10.26 73.872h-109.782q-35.91 2.052-61.56 27.702t-24.624 58.482zM449.389 418.565q246.24-45.144 429.895-187.758v521.209q-208.278-154.926-429.895-186.732v-146.718z" />
<glyph unicode="&#xe82b;" glyph-name="el-date" horiz-adv-x="916" d="M0-78.021v665.876h916.221v-665.876h-916.221zM0 645.312v226.746h111.834v-144.666h205.2v144.666h282.151v-144.666h204.174v144.666h112.86v-226.746h-916.221zM172.368 787.926v160.056h84.132v-160.056h-84.132zM232.902 152.83q0-114.912 126.198-114.912 48.222 0 86.184 32.832 40.014 31.806 40.014 82.080 0 69.768-80.028 92.34 49.248 15.39 65.664 49.248 12.312 28.728-2.052 74.898-27.702 63.612-109.782 63.612-52.326 0-88.236-26.676t-37.962-79.002h73.872q0 46.17 50.274 47.196 44.118 0 46.17-53.352 0-50.274-86.184-48.222v-58.482q49.248 0 69.768-8.208 23.598-11.286 23.598-47.196 0-58.482-55.404-62.586-44.118 0-48.222 56.43h-73.872zM521.209 302.627q50.274 14.364 90.288 48.222v-304.723h71.82v380.647h-65.664q-38.988-37.962-96.444-59.508v-64.638zM659.72 787.926v160.056h84.132v-160.056h-84.132z" />
<glyph unicode="&#xe82c;" glyph-name="el-star-empty" d="M0 559.128h96.444l292.411-2.052 98.496 277.021 29.754 92.34 29.754-94.392 90.288-279.073 388.855-8.208-77.976-55.404-239.058-170.316 84.132-281.125 28.728-93.366-77.976 57.456-237.006 172.368-238.032-166.212-80.028-54.378 29.754 92.34 92.34 277.021-232.902 178.524zM193.914 493.463l172.368-132.354 20.52-14.364-8.208-21.546-67.716-208.278 180.576 126.198 17.442 11.286 18.468-13.338 176.472-128.25-62.586 208.278-6.156 21.546 18.468 14.364 178.524 128.25-220.59 4.104-22.572 2.052-8.208 21.546-65.664 206.226-71.82-204.174-8.208-21.546h-241.11z" />
<glyph unicode="&#xe82d;" glyph-name="el-star" d="M0 559.128l388.855-2.052 128.25 369.361 120.042-373.465 388.855-8.208-317.035-225.72 112.86-375.517-314.983 230.85-318.061-220.59 122.094 369.361z" />
<glyph unicode="&#xe82e;" glyph-name="el-mail" d="M0 46.126l332.425 350.893 180.576-102.6 180.576 102.6 332.425-350.893h-1026.003zM0 163.090v424.765l260.604-150.822zM0 679.17v144.666h1026.003v-144.666l-513.001-292.411zM765.398 437.033l260.604 150.822v-424.765z" />
<glyph unicode="&#xe82f;" glyph-name="el-home-1" horiz-adv-x="930" d="M0-78.021v665.876l464.779 360.127 464.779-360.127v-665.876h-320.113v401.167h-288.307v-401.167h-321.139z" />
<glyph unicode="&#xe830;" glyph-name="el-attach" horiz-adv-x="920" d="M0 142.57q8.208 69.768 68.742 130.302l392.959 392.959q120.042 117.99 216.486 33.858 86.184-88.236-36.936-214.434l-362.179-360.127-67.716 71.82 358.075 358.075q2.052 0 8.208 6.156l8.208 8.208t7.182 9.234 6.156 10.26 6.156 9.234 4.104 11.286v10.26t-2.052 12.312q-19.494 17.442-75.924-37.962l-390.907-390.907q-37.962-35.91-42.066-70.794-4.104-40.014 35.91-80.028 42.066-33.858 71.82-28.728t72.846 47.196q84.132 82.080 223.668 220.59t199.044 200.070q2.052 2.052 18.468 17.442t17.442 17.442 15.39 16.416 15.39 17.442 12.312 17.442 13.338 19.494 11.286 20.52 10.26 25.65q16.416 58.482-33.858 126.198t-117.99 76.95q-69.768 7.182-155.952-74.898l-428.869-428.869-70.794 68.742 428.869 430.921q100.548 97.47 204.174 102.6t194.94-85.158q107.73-109.782 75.924-242.136-19.494-75.924-96.444-154.926-88.236-85.158-252.396-250.344l-214.434-214.434q-71.82-71.82-153.9-73.872-69.768 0-128.25 58.482-71.82 71.82-65.664 160.056z" />
<glyph unicode="&#xe831;" glyph-name="el-eye" d="M0 434.981q6.156 50.274 65.664 112.86 81.054 82.080 180.576 132.354 132.354 61.56 266.761 61.56 140.562-2.052 266.761-61.56 105.678-54.378 180.576-132.354 65.664-74.898 65.664-112.86-6.156-50.274-65.664-111.834-81.054-82.080-180.576-132.354-132.354-62.586-266.761-62.586-140.562 2.052-266.761 62.586-105.678 54.378-180.576 132.354-65.664 73.872-65.664 111.834zM270.865 434.981q0-96.444 70.794-163.134t171.342-66.69 171.342 66.69 70.794 163.134-70.794 163.134-171.342 67.716-171.342-67.716-70.794-163.134zM359.101 436.007q0 61.56 45.144 104.652t108.756 43.092 108.756-43.092 45.144-104.652-45.144-104.652-108.756-44.118-108.756 44.118-45.144 104.652z" />
<glyph unicode="&#xe832;" glyph-name="el-eye-off" d="M0 410.357q6.156 50.274 65.664 112.86 81.054 82.080 180.576 131.328 132.354 62.586 266.761 62.586 29.754 0 60.534-2.052l75.924 132.354q10.26 16.416 23.598 18.468 4.104 0 8.208-2.052l52.326-32.832q17.442-7.182 2.052-33.858l-58.482-104.652-48.222-80.028-42.066-73.872-147.744-256.5-42.066-73.872-48.222-82.080-58.482-102.6q-15.39-25.65-31.806-15.39l-54.378 31.806q-15.39 8.208 0 33.858l50.274 88.236-8.208 4.104q-105.678 54.378-180.576 132.354-65.664 73.872-65.664 111.834zM270.865 410.357q0-75.924 48.222-136.458l49.248 86.184q-9.234 24.624-9.234 50.274 0 52.326 34.884 93.366t87.21 51.3l50.274 86.184h-18.468q-100.548 0-171.342-67.716t-70.794-163.134zM452.467 107.686l42.066 72.846h18.468q100.548 0 171.342 66.69t70.794 163.134q0 75.924-48.222 136.458l64.638 111.834q2.052-2.052 4.104-3.078t4.104-1.026q105.678-53.352 180.576-132.354 65.664-73.872 65.664-111.834-6.156-50.274-65.664-111.834-81.054-82.080-180.576-132.354-132.354-62.586-266.761-62.586-25.65 0-60.534 4.104zM544.808 266.716l112.86 193.914q9.234-25.65 9.234-50.274 0-52.326-34.884-92.34t-87.21-51.3z" />
<glyph unicode="&#xe833;" glyph-name="el-tags" horiz-adv-x="1020" d="M0 547.842v246.24q2.052 27.702 21.546 47.196t44.118 19.494h247.266q44.118 0 90.288-28.728l386.803-424.765q17.442-23.598 17.442-49.248t-17.442-45.144l-287.281-284.203q-21.546-18.468-48.222-18.468t-44.118 18.468l-364.231 407.323q-46.17 55.404-46.17 111.834zM106.704 689.43q0-25.65 17.442-43.092 22.572-20.52 47.196-19.494t43.092 19.494q18.468 19.494 18.468 45.144t-18.468 44.118q-20.52 18.468-46.17 17.442t-44.118-17.442q-17.442-21.546-17.442-46.17zM430.921 858.72h94.392q73.872-4.104 111.834-46.17l365.257-407.323q17.442-21.546 17.442-49.248t-17.442-45.144l-287.281-284.203q-61.56-35.91-97.47 8.208l278.047 278.047q18.468 22.572 18.468 48.222t-18.468 46.17l-326.269 365.257q-24.624 31.806-72.846 57.456t-65.664 28.728z" />
<glyph unicode="&#xe834;" glyph-name="el-flag" horiz-adv-x="882" d="M0-5.175v823.881q69.768 42.066 139.536 52.326t127.224-3.078 114.912-35.91 114.912-44.118 116.964-31.806 127.224 2.052 140.562 60.534v-470.935q-53.352-54.378-111.834-68.742t-112.86 1.026-120.042 41.040-127.224 52.326-138.51 35.91-154.926-11.286v-403.219h-115.938z" />
<glyph unicode="&#xe835;" glyph-name="el-warning" d="M0-78.021l513.001 1026.003 513.001-1026.003h-1026.003zM472.987 106.66h80.028v84.132h-80.028v-84.132zM472.987 457.553l19.494-190.836h41.040l19.494 190.836v133.38h-80.028v-133.38z" />
<glyph unicode="&#xe836;" glyph-name="el-location" horiz-adv-x="774" d="M0 561.18q0 160.056 112.86 273.943t273.943 112.86 273.943-112.86 112.86-273.943q0-126.198-54.378-198.018l-332.425-441.181-332.425 441.181q-54.378 71.82-54.378 198.018zM224.694 561.18q0-67.716 47.196-114.912t114.912-47.196 114.912 47.196 47.196 114.912-47.196 114.912-114.912 47.196-114.912-47.196-47.196-114.912z" />
<glyph unicode="&#xe837;" glyph-name="el-trash" horiz-adv-x="846" d="M0 725.34v144.666h296.515v77.976h252.396v-77.976h296.515v-144.666h-845.427zM44.118-78.021v693.578h757.19v-693.578h-757.19z" />
<glyph unicode="&#xe838;" glyph-name="el-doc" horiz-adv-x="728" d="M0-78.021v691.526h346.789v334.477h380.647v-1026.003h-727.436zM0 697.638v63.612l193.914 186.732h66.69v-250.344h-260.604z" />
<glyph unicode="&#xe839;" glyph-name="el-phone" horiz-adv-x="1014" d="M0 706.872q0 51.3 28.728 77.976l141.588 141.588q46.17 37.962 79.002-13.338l115.938-216.486q18.468-40.014-14.364-72.846l-52.326-53.352q-5.13-6.156-5.13-14.364 25.65-100.548 135.432-200.070l31.806-30.78t36.936-34.884 34.884-26.676 42.066-25.65 41.040-14.364q20.52-6.156 27.702 2.052l62.586 61.56q40.014 30.78 73.872 12.312l208.278-124.146q22.572-14.364 25.65-37.962t-13.338-40.014l-144.666-142.614q-27.702-27.702-75.924-27.702-143.64 4.104-326.269 124.146-264.709 189.81-384.751 416.557-73.872 154.926-68.742 239.058z" />
<glyph unicode="&#xe83a;" glyph-name="el-cog" d="M0 354.953v160.056l153.9 16.416q14.364 46.17 38.988 90.288l-98.496 120.042 111.834 111.834 120.042-97.47q42.066 23.598 90.288 37.962l16.416 153.9h160.056l16.416-153.9q46.17-14.364 90.288-37.962l120.042 97.47 111.834-111.834-98.496-120.042q24.624-44.118 38.988-90.288l153.9-16.416v-160.056l-153.9-16.416q-14.364-48.222-38.988-90.288l98.496-120.042-111.834-111.834-120.042 98.496q-44.118-24.624-90.288-38.988l-16.416-153.9h-160.056l-16.416 153.9q-48.222 14.364-90.288 38.988l-120.042-98.496-111.834 111.834 98.496 120.042q-24.624 42.066-38.988 90.288zM364.231 434.981q0-61.56 43.092-104.652t105.678-43.092 105.678 43.092 43.092 104.652-43.092 105.678-105.678 43.092-105.678-43.092-43.092-105.678z" />
<glyph unicode="&#xe83b;" glyph-name="el-basket" horiz-adv-x="1019" d="M2.052 887.448q8.208 20.52 27.702 29.754t38.988 4.104l153.9-49.248q32.832-10.26 35.91-44.118l10.26-86.184 703.838-79.002q23.598-5.13 35.91-22.572t10.26-38.988l-44.118-244.188q-8.208-44.118-50.274-44.118h-623.81l-11.286-70.794h593.030q21.546 0 36.936-14.364t15.39-36.936q-2.052-22.572-17.442-37.962t-34.884-14.364h-657.668q-25.65 2.052-40.014 19.494t-12.312 42.066l28.728 152.874-42.066 428.869-122.094 40.014q-46.17 17.442-34.884 65.664zM224.694 26.632q0 32.832 24.624 57.456t56.43 23.598 57.456-23.598 23.598-57.456-23.598-56.43-57.456-24.624-56.43 24.624-24.624 56.43zM705.89 26.632q0 32.832 23.598 57.456t57.456 23.598 57.456-23.598 23.598-57.456-23.598-56.43-57.456-24.624-57.456 24.624-23.598 56.43z" />
<glyph unicode="&#xe83c;" glyph-name="el-basket-circled" d="M0 434.981q0 212.382 150.822 363.205t362.179 149.796 363.205-149.796 149.796-363.205-149.796-363.205-363.205-149.796-362.179 149.796-150.822 363.205zM218.538 687.378q6.156-12.312 18.468-15.39l69.768-22.572 25.65-252.396-15.39-90.288q-2.052-14.364 6.156-23.598t23.598-12.312h386.803q12.312 0 20.52 9.234t9.234 20.52-9.234 21.546-20.52 10.26h-350.893l8.208 41.040h366.283q24.624 0 30.78 25.65l25.65 144.666q2.052 11.286-6.156 22.572t-21.546 13.338l-413.479 46.17-6.156 49.248q-2.052 20.52-19.494 28.728l-92.34 27.702q-12.312 4.104-23.598-2.052-26.676-15.39-12.312-42.066zM344.737 204.13q0-19.494 14.364-33.858t33.858-13.338 33.858 13.338 14.364 33.858-14.364 34.884-33.858 13.338-33.858-13.338-14.364-34.884zM626.888 204.13q0-19.494 14.364-33.858t33.858-13.338 33.858 13.338 14.364 33.858-14.364 34.884-33.858 13.338-33.858-13.338-14.364-34.884z" />
<glyph unicode="&#xe83d;" glyph-name="el-wrench" horiz-adv-x="1008" d="M0 97.426l475.039 475.039q-25.65 69.768-10.26 148.77t73.872 137.484 136.458 73.872 150.822-10.26l-166.212-166.212 46.17-120.042 117.99-46.17 168.264 168.264q25.65-71.82 9.234-150.822t-74.898-136.458-135.432-73.872-151.848 8.208l-475.039-474.013zM115.938 95.374q0-20.52 14.364-34.884t33.858-13.338 33.858 13.338 14.364 34.884-14.364 33.858-33.858 14.364-33.858-14.364-14.364-33.858z" />
<glyph unicode="&#xe83e;" glyph-name="el-wrench-circled" d="M0 434.981q0 212.382 150.822 363.205t362.179 149.796 363.205-149.796 149.796-363.205-149.796-363.205-363.205-149.796-362.179 149.796-150.822 363.205zM204.174 228.754l102.6-102.6 290.359 291.385q42.066-16.416 91.314-6.156t84.132 45.144 45.144 83.106-6.156 91.314l-102.6-101.574-73.872 27.702-27.702 73.872 101.574 102.6q-25.65 10.26-55.404 10.26-70.794 0-117.99-50.274-36.936-33.858-46.17-83.106t5.13-91.314zM283.177 205.156q-20.52 21.546 1.026 43.092 20.52 20.52 42.066 0 20.52-21.546-1.026-43.092t-42.066 0z" />
<glyph unicode="&#xe83f;" glyph-name="el-mic" horiz-adv-x="686" d="M0 210.286v289.333h65.664v-254.448q123.12-98.496 277.021-98.496t277.021 98.496v254.448h65.664v-289.333q-31.806-27.702-65.664-51.3-84.132-54.378-182.628-72.846v32.832h-188.784v-32.832q-97.47 18.468-182.628 72.846-33.858 23.598-65.664 51.3zM111.834 302.627v563.276q30.78 25.65 70.794 46.17v-115.938h55.404v137.484q38.988 12.312 76.95 14.364v-151.848h55.404v151.848q37.962-4.104 79.002-14.364v-137.484h55.404v113.886q37.962-18.468 68.742-44.118v-563.276q-100.548-82.080-230.85-82.080t-230.85 82.080zM138.51-8.253h109.782v94.392q46.17-8.208 94.392-8.208t94.392 8.208v-94.392h109.782v-69.768h-408.349v69.768z" />
<glyph unicode="&#xe840;" glyph-name="el-volume" d="M0 221.572v426.817h242.136l363.205 296.515v-1019.847l-363.205 296.515h-242.136zM668.954 257.482q74.898 75.924 74.898 180.576t-74.898 182.628l72.846 75.924q107.73-108.756 109.782-260.604 0-148.77-109.782-252.396zM790.023 135.388q126.198 122.094 126.198 302.671t-126.198 306.775l77.976 75.924q158.004-158.004 158.004-381.673t-158.004-381.673z" />
<glyph unicode="&#xe841;" glyph-name="el-volume-down" horiz-adv-x="858" d="M0 220.546v428.869h242.136l367.309 298.567v-1026.003l-367.309 298.567h-242.136zM673.058 258.508q75.924 75.924 75.924 178.524 0 106.704-75.924 184.68l74.898 75.924q105.678-108.756 109.782-262.657 0-147.744-109.782-252.396z" />
<glyph unicode="&#xe842;" glyph-name="el-volume-off" d="M0 641.208h312.931l353.971 289.333v-990.093l-353.971 286.255h-234.954zM731.54 350.849q0 4.104 2.052 6.156l77.976 77.976-77.976 77.976q-2.052 2.052-2.052 6.156t2.052 6.156l54.378 54.378q2.052 2.052 5.13 2.052t6.156-2.052l77.976-77.976 79.002 77.976q4.104 2.052 6.156 2.052t5.13-2.052l56.43-54.378q2.052-2.052 2.052-6.156t-2.052-6.156l-77.976-77.976 77.976-77.976q2.052-4.104 2.052-7.182t-2.052-5.13l-56.43-56.43q-2.052-1.026-5.13-1.026t-6.156 1.026l-79.002 81.054-77.976-81.054q-2.052-1.026-5.13-1.026t-6.156 1.026l-54.378 56.43q-2.052 2.052-2.052 6.156z" />
<glyph unicode="&#xe843;" glyph-name="el-headphones" d="M0 146.674v256.5q0 212.382 150.822 362.179t362.179 150.822 363.205-150.822 149.796-362.179v-256.5q-4.104-42.066-35.91-55.404t-62.586 5.13-29.754 50.274v256.5q0 160.056-111.834 271.891t-272.917 112.86-272.917-112.86-111.834-271.891v-256.5q-4.104-42.066-35.91-55.404t-62.586 5.13-29.754 50.274zM192.888-14.409v321.139q0 14.364 8.208 22.572t23.598 9.234h63.612q14.364 0 23.598-9.234t9.234-22.572v-321.139q0-13.338-9.234-22.572t-23.598-9.234h-63.612q-14.364 0-23.598 9.234t-8.208 22.572zM705.89-14.409v321.139q0 14.364 8.208 22.572t23.598 9.234h63.612q14.364 0 23.598-9.234t9.234-22.572v-321.139q0-13.338-9.234-22.572t-23.598-9.234h-63.612q-14.364 0-23.598 9.234t-8.208 22.572z" />
<glyph unicode="&#xe844;" glyph-name="el-lightbulb" horiz-adv-x="904" d="M1.026 392.915q-2.052 12.312 7.182 22.572t22.572 11.286l92.34 16.416q14.364 2.052 26.676-5.13t13.338-20.52-7.182-23.598-24.624-13.338l-90.288-13.338q-14.364-2.052-25.65 5.13t-14.364 20.52zM3.078 650.442q-6.156 13.338 0 24.624t19.494 16.416 26.676-4.104l84.132-35.91q14.364-6.156 19.494-18.468t0-23.598-18.468-16.416-26.676 0l-84.132 40.014q-14.364 4.104-20.52 17.442zM167.238 862.824q2.052 13.338 14.364 21.546 10.26 5.13 22.572 2.052t21.546-16.416l50.274-77.976q7.182-12.312 5.13-26.676t-11.286-19.494-23.598-3.078-20.52 15.39l-52.326 77.976q-8.208 13.338-6.156 26.676zM225.72 615.558q17.442 40.014 50.274 67.716t76.95 42.066 96.444 14.364h4.104q52.326 0 96.444-14.364t76.95-42.066 51.3-67.716q44.118-106.704-15.39-232.902-22.572-44.118-48.222-94.392-14.364-25.65-25.65-74.898t-16.416-62.586q-4.104-12.312-16.416-14.364h-208.278q-12.312 2.052-18.468 14.364-29.754 113.886-40.014 137.484-25.65 50.274-48.222 94.392-59.508 134.406-15.39 232.902zM327.295-23.643q0 8.208 5.13 12.312t13.338 5.13h214.434q6.156 0 11.286-5.13t5.13-12.312v-35.91q0-8.208-5.13-13.338t-11.286-5.13h-214.434q-18.468 0-18.468 18.468v35.91zM327.295 46.126v35.91q0 18.468 18.468 18.468h214.434q6.156 0 11.286-5.13t5.13-13.338v-35.91q0-8.208-5.13-13.338t-11.286-4.104h-214.434q-8.208 0-13.338 4.104t-5.13 13.338zM423.739 819.732v92.34q0 16.416 8.208 25.65t21.546 10.26q12.312 0 21.546-10.26t9.234-25.65v-92.34q0-14.364-9.234-23.598t-21.546-10.26q-13.338 0-21.546 10.26t-8.208 23.598zM621.758 765.354q-1.026 14.364 6.156 26.676l50.274 77.976q10.26 12.312 22.572 16.416t23.598-2.052q10.26-8.208 12.312-21.546t-6.156-26.676l-50.274-77.976q-10.26-12.312-21.546-15.39t-23.598 3.078-13.338 19.494zM742.826 417.539q2.052 13.338 12.312 20.52t25.65 5.13l92.34-16.416q13.338-2.052 22.572-12.312t7.182-21.546q-2.052-14.364-13.338-21.546t-26.676-4.104l-92.34 13.338q-14.364 2.052-22.572 13.338t-5.13 23.598zM751.034 609.402q-4.104 12.312 1.026 23.598t18.468 18.468l86.184 35.91q12.312 8.208 24.624 4.104t19.494-16.416 0-24.624-20.52-17.442l-84.132-40.014q-13.338-4.104-26.676 0t-18.468 16.416z" />
<glyph unicode="&#xe845;" glyph-name="el-resize-full" d="M0-78.021v452.467l151.848-151.848 207.252 206.226 147.744-147.744-206.226-207.252 151.848-151.848h-452.467zM519.157 588.882l206.226 207.252-151.848 151.848h452.467v-452.467l-151.848 151.848-207.252-206.226z" />
<glyph unicode="&#xe846;" glyph-name="el-resize-full-alt" d="M0-78.021v350.893l122.094-122.094 285.229 284.203-283.177 282.151-124.146-124.146v354.997h350.893l-122.094-122.094 284.203-284.203 282.151 282.151-124.146 124.146h354.997v-350.893l-122.094 122.094-284.203-284.203 282.151-282.151 124.146 124.146v-354.997h-350.893l122.094 122.094-284.203 285.229-282.151-283.177 124.146-124.146h-354.997z" />
<glyph unicode="&#xe847;" glyph-name="el-resize-small" d="M0 71.776l206.226 207.252-151.848 149.796h452.467v-452.467l-149.796 151.848-206.226-206.226zM519.157 441.137v452.467l149.796-151.848 207.252 206.226 149.796-149.796-206.226-207.252 151.848-149.796h-452.467z" />
<glyph unicode="&#xe848;" glyph-name="el-resize-vertical" horiz-adv-x="522" d="M0 182.584h174.42v504.793h-174.42l260.604 260.604 260.604-260.604h-174.42v-504.793h174.42l-260.604-260.604z" />
<glyph unicode="&#xe849;" glyph-name="el-resize-horizontal" d="M0 434.981l260.604 260.604v-174.42h504.793v174.42l260.604-260.604-260.604-260.604v174.42h-504.793v-174.42z" />
<glyph unicode="&#xe84a;" glyph-name="el-move" d="M0 434.981l176.472 176.472v-122.094h282.151v282.151h-122.094l176.472 176.472 176.472-176.472h-122.094v-282.151h282.151v122.094l176.472-176.472-176.472-176.472v122.094h-282.151v-282.151h122.094l-176.472-176.472-176.472 176.472h122.094v282.151h-282.151v-122.094z" />
<glyph unicode="&#xe84b;" glyph-name="el-zoom-in" d="M0 489.359q0 189.81 134.406 324.217t324.217 134.406 326.269-134.406 134.406-324.217q0-144.666-84.132-262.657l190.836-190.836-113.886-113.886-190.836 190.836q-117.99-84.132-262.657-84.132-189.81 0-324.217 134.406t-134.406 326.269zM130.302 489.359q0-136.458 96.444-232.902t231.876-95.418 232.902 95.418 96.444 232.902-96.444 230.85-232.902 95.418-231.876-95.418-96.444-230.85zM262.657 422.669v130.302h132.354v132.354h130.302v-132.354h132.354v-130.302h-132.354v-132.354h-130.302v132.354h-132.354z" />
<glyph unicode="&#xe84c;" glyph-name="el-zoom-out" d="M0 489.359q0 189.81 134.406 324.217t324.217 134.406 326.269-134.406 134.406-324.217q0-144.666-84.132-262.657l190.836-190.836-113.886-113.886-190.836 190.836q-117.99-84.132-262.657-84.132-189.81 0-324.217 134.406t-134.406 326.269zM130.302 489.359q0-136.458 96.444-232.902t231.876-95.418 232.902 95.418 96.444 232.902-96.444 230.85-232.902 95.418-231.876-95.418-96.444-230.85zM262.657 422.669v130.302h395.011v-130.302h-395.011z" />
<glyph unicode="&#xe84d;" glyph-name="el-arrows-cw" d="M0-78.021v412.453h412.453l-164.16-164.16q110.808-109.782 264.709-109.782 128.25 0 227.772 76.95t133.38 196.992h141.588q-35.91-177.498-177.498-295.489t-325.243-116.964q-212.382 0-362.179 149.796zM10.26 535.529q35.91 178.524 177.498 295.489t325.243 116.964q212.382 0 363.205-149.796l149.796 149.796v-412.453h-412.453l164.16 164.16q-110.808 109.782-264.709 109.782-128.25 0-227.772-76.95t-133.38-196.992h-141.588z" />
<glyph unicode="&#xe84e;" glyph-name="el-desktop" d="M0 182.584v677.162h1026.003v-677.162h-372.439v-98.496h90.288v-73.872h-461.701v73.872h90.288v98.496h-372.439zM126.198 310.835h773.606v420.661h-773.606v-420.661z" />
<glyph unicode="&#xe84f;" glyph-name="el-inbox" d="M0-78.021v495.559h336.529q0-74.898 52.326-126.198t124.146-50.274 124.146 50.274 52.326 126.198h336.529v-495.559h-1026.003zM286.255 709.95h122.094v238.032h209.304v-238.032h122.094l-226.746-340.633z" />
<glyph unicode="&#xe850;" glyph-name="el-cloud" horiz-adv-x="900" d="M0 323.147q4.104 70.794 33.858 128.25t89.262 87.21 127.224 14.364q54.378 87.21 131.328 116.964t148.77 6.156 129.276-83.106 80.028-140.562q50.274 6.156 91.314-22.572t57.456-69.768 9.234-92.34-48.222-84.132h-811.569q-42.066 68.742-37.962 139.536z" />
<glyph unicode="&#xe851;" glyph-name="el-book" horiz-adv-x="722" d="M0 226.702v557.12q0 31.806 14.364 54.378 29.754 46.17 104.652 79.002t119.016 9.234l483.247-248.292v-605.342l-88.236-48.222v605.342l-430.921 229.824q-29.754 10.26-66.69-9.234t-59.508-48.222l481.195-277.021v-542.756l-88.236-48.222z" />
<glyph unicode="&#xe852;" glyph-name="el-certificate" horiz-adv-x="1018" d="M0 300.575l96.444 142.614-88.236 149.796 158.004 68.742 6.156 172.368 170.316-28.728 98.496 142.614 128.25-115.938 160.056 65.664 44.118-166.212 170.316-29.754-52.326-164.16 126.198-119.016-132.354-109.782 44.118-168.264-172.368-20.52-53.352-164.16-156.978 76.95-134.406-110.808-90.288 148.77-171.342-20.52 3.078 174.42z" />
<glyph unicode="&#xe853;" glyph-name="el-tasks" d="M0 33.814v201.096h1026.003v-201.096h-1026.003zM0 334.433v201.096h1026.003v-201.096h-1026.003zM0 635.052v201.096h1026.003v-201.096h-1026.003zM416.557 384.707h557.12v102.6h-557.12v-102.6zM643.304 685.326h330.373v102.6h-330.373v-102.6zM765.398 84.088h208.278v102.6h-208.278v-102.6z" />
<glyph unicode="&#xe854;" glyph-name="el-thumbs-up" d="M0 11.241v566.354q0 16.416 10.26 25.65t25.65 11.286h150.822q33.858 0 35.91-36.936v-566.354q0-14.364-10.26-24.624t-25.65-12.312h-150.822q-13.338 0-23.598 10.26t-12.312 26.676zM284.203 38.944v513.001q0 22.572 14.364 35.91t37.962 16.416h115.938l116.964 258.552q13.338 31.806 42.066 31.806 37.962 2.052 95.418-62.586 18.468-25.65 25.65-56.43t6.156-49.248-9.234-65.664-10.26-56.43h254.448q26.676 0 38.988-17.442t11.286-45.144l-71.82-440.155q-12.312-43.092-54.378-75.924t-90.288-38.988h-470.935q-21.546 0-35.91 14.364t-16.416 37.962z" />
<glyph unicode="&#xe855;" glyph-name="el-thumbs-down" horiz-adv-x="1022" d="M0 293.393v566.354q2.052 34.884 35.91 34.884h150.822q35.91-2.052 35.91-34.884v-566.354q-2.052-16.416-12.312-26.676t-23.598-10.26h-150.822q-13.338 2.052-24.624 12.312t-11.286 24.624zM284.203 316.991v515.053q2.052 21.546 16.416 35.91t33.858 14.364h470.935q35.91-2.052 71.82-22.572 56.43-33.858 72.846-90.288l71.82-440.155q2.052-26.676-13.338-44.118t-36.936-18.468h-254.448q8.208-59.508 22.572-120.042 6.156-92.34-96.444-162.108-20.52-14.364-44.118-6.156-20.52 6.156-31.806 29.754l-114.912 258.552h-117.99q-21.546 2.052-35.91 16.416t-14.364 33.858z" />
<glyph unicode="&#xe856;" glyph-name="el-help-circled" d="M0 434.981q0 212.382 150.822 363.205t362.179 149.796 363.205-149.796 149.796-363.205-149.796-363.205-363.205-149.796-362.179 149.796-150.822 363.205zM324.217 705.846q-3.078-50.274 12.312-58.482h58.482q21.546 48.222 71.82 46.17 33.858 0 59.508-32.832t10.26-67.716q-9.234-23.598-29.754-56.43t-31.806-57.456q-20.52-42.066-21.546-92.34t21.546-99.522l71.82-2.052q-8.208 42.066 9.234 81.054t59.508 91.314 46.17 57.456q25.65 40.014 32.832 63.612t7.182 60.534q0 72.846-50.274 124.146-54.378 56.43-148.77 56.43-48.222 0-111.834-37.962t-66.69-75.924zM420.661 138.466q0-35.91 25.65-62.586t60.534-25.65 62.586 25.65 25.65 62.586-25.65 61.56-62.586 24.624-60.534-24.624-25.65-61.56z" />
<glyph unicode="&#xe857;" glyph-name="el-star-circled" d="M0 434.981q0 212.382 150.822 363.205t362.179 149.796 363.205-149.796 149.796-363.205-149.796-363.205-363.205-149.796-362.179 149.796-150.822 363.205zM164.16 519.113l210.33-160.056-82.080-252.396 216.486 151.848 214.434-155.952-75.924 252.396 214.434 155.952-264.709 4.104-80.028 252.396-88.236-248.292h-264.709z" />
<glyph unicode="&#xe858;" glyph-name="el-bell" d="M0 86.14v46.17l202.122 174.42v272.917q0 109.782 69.768 194.94t175.446 107.73v63.612h133.38v-63.612q104.652-22.572 174.42-107.73t70.794-194.94v-272.917l200.070-174.42v-46.17h-1026.003zM439.129-3.123q0 30.78 21.546 53.352t53.352 21.546 53.352-21.546 21.546-53.352-21.546-52.326-53.352-20.52-53.352 20.52-21.546 52.326z" />
<glyph unicode="&#xe859;" glyph-name="el-rss" d="M0-78.021v204.174q84.132 0 144.666-59.508t59.508-144.666h-204.174zM0 332.381v205.2q254.448 0 435.025-180.576t180.576-435.025h-205.2q0 170.316-120.042 290.359t-290.359 120.042zM0 743.808v204.174q208.278 0 399.115-81.054t327.295-218.538 218.538-327.295 81.054-399.115h-204.174q0 222.642-110.808 411.427t-299.593 299.593-411.427 110.808z" />
<glyph unicode="&#xe85a;" glyph-name="el-trash-circled" d="M0 434.981q0 212.382 150.822 363.205t362.179 149.796 363.205-149.796 149.796-363.205-149.796-363.205-363.205-149.796-362.179 149.796-150.822 363.205zM248.292 617.61h529.418v90.288h-184.68v47.196h-160.056v-47.196h-184.68v-90.288zM277.021 114.868h471.961v431.947h-471.961v-431.947z" />
<glyph unicode="&#xe85b;" glyph-name="el-cogs" d="M0 327.251v99.522l96.444 8.208q8.208 30.78 23.598 56.43l-61.56 75.924 69.768 70.794 75.924-62.586q26.676 16.416 56.43 23.598l8.208 96.444h99.522l10.26-96.444q29.754-7.182 56.43-23.598l75.924 62.586 69.768-70.794-61.56-75.924q16.416-25.65 23.598-56.43l96.444-8.208v-99.522l-96.444-10.26q-7.182-29.754-23.598-56.43l61.56-73.872-69.768-71.82-75.924 61.56q-26.676-15.39-56.43-23.598l-10.26-96.444h-99.522l-8.208 96.444q-29.754 8.208-56.43 23.598l-75.924-61.56-69.768 71.82 61.56 73.872q-15.39 26.676-23.598 56.43zM226.746 377.525q0-37.962 26.676-65.664t65.664-26.676 64.638 26.676 26.676 65.664-26.676 64.638-64.638 26.676-65.664-26.676-26.676-64.638zM553.016 621.714l8.208 73.872 71.82-2.052q8.208 22.572 20.52 40.014l-37.962 58.482 55.404 46.17 50.274-50.274q20.52 10.26 42.066 14.364l14.364 67.716 73.872-8.208-2.052-69.768q22.572-8.208 40.014-22.572l58.482 40.014 46.17-55.404-50.274-50.274q10.26-20.52 12.312-44.118l69.768-14.364-8.208-71.82h-69.768q-8.208-20.52-22.572-37.962l40.014-60.534-57.456-46.17-48.222 50.274q-22.572-8.208-44.118-12.312l-14.364-67.716-71.82 6.156v71.82q-20.52 8.208-37.962 20.52l-60.534-37.962-46.17 55.404 50.274 50.274q-8.208 20.52-12.312 42.066zM584.822 164.116l6.156 52.326h50.274q6.156 16.416 14.364 28.728l-26.676 44.118 37.962 33.858 36.936-37.962q13.338 7.182 29.754 9.234l10.26 50.274 49.248-6.156v-49.248q16.416-6.156 28.728-16.416l42.066 27.702 31.806-42.066-35.91-35.91q6.156-14.364 10.26-29.754l48.222-12.312-6.156-52.326h-50.274q-4.104-15.39-14.364-27.702l28.728-44.118-41.040-33.858-35.91 37.962q-13.338-8.208-29.754-10.26l-10.26-50.274-50.274 6.156v52.326q-13.338 4.104-27.702 14.364l-42.066-28.728-31.806 42.066 35.91 35.91q-6.156 14.364-8.208 30.78zM705.89 178.48q-4.104-21.546 8.208-36.936t32.832-18.468 34.884 10.26 17.442 33.858-10.26 36.936-31.806 18.468h-6.156q-17.442 0-31.806-13.338t-13.338-30.78zM723.332 641.208q-4.104-27.702 14.364-50.274t46.17-24.624 49.248 15.39 23.598 46.17-14.364 48.222-45.144 25.65h-7.182q-26.676 0-45.144-17.442t-21.546-43.092z" />
<glyph unicode="&#xe85c;" glyph-name="el-cog-circled" d="M0 434.981q0 212.382 150.822 363.205t362.179 149.796 363.205-149.796 149.796-363.205-149.796-363.205-363.205-149.796-362.179 149.796-150.822 363.205zM200.070 386.759l94.392-10.26q8.208-29.754 22.572-53.352l-60.534-74.898 69.768-69.768 74.898 60.534q23.598-14.364 53.352-22.572l10.26-94.392h96.444l10.26 94.392q29.754 8.208 53.352 22.572l74.898-60.534 69.768 69.768-60.534 74.898q14.364 23.598 22.572 53.352l94.392 10.26v96.444l-94.392 10.26q-8.208 29.754-22.572 53.352l60.534 74.898-69.768 69.768-74.898-60.534q-23.598 14.364-53.352 22.572l-10.26 94.392h-96.444l-10.26-94.392q-29.754-8.208-53.352-22.572l-74.898 60.534-69.768-69.768 60.534-74.898q-14.364-23.598-22.572-53.352l-94.392-10.26v-96.444zM422.713 434.981q0 37.962 26.676 64.638t63.612 25.65 64.638-25.65 25.65-64.638-25.65-63.612-64.638-26.676-63.612 26.676-26.676 63.612z" />
<glyph unicode="&#xe85d;" glyph-name="el-calendar-circled" d="M0 434.981q0 212.382 150.822 363.205t362.179 149.796 363.205-149.796 149.796-363.205-149.796-363.205-363.205-149.796-362.179 149.796-150.822 363.205zM224.694 112.816h576.614v418.609h-576.614v-418.609zM224.694 567.336h576.614v142.614h-69.768v-90.288h-130.302v90.288h-176.472v-90.288h-130.302v90.288h-69.768v-142.614zM332.425 657.624h54.378v100.548h-54.378v-100.548zM370.387 256.456h48.222q2.052-35.91 30.78-35.91 33.858 2.052 33.858 40.014 0 24.624-16.416 29.754-12.312 6.156-44.118 6.156v35.91q54.378-2.052 54.378 30.78 0 33.858-27.702 33.858-32.832-2.052-32.832-29.754h-46.17q2.052 31.806 25.65 48.222t54.378 17.442q52.326 0 68.742-40.014 10.26-27.702 2.052-46.17-10.26-21.546-40.014-31.806 50.274-14.364 50.274-58.482-2.052-31.806-26.676-52.326t-54.378-19.494q-80.028 0-80.028 71.82zM553.016 350.849v40.014q35.91 16.416 60.534 37.962h42.066v-240.084h-46.17v193.914q-24.624-21.546-56.43-31.806zM639.2 657.624h54.378v100.548h-54.378v-100.548z" />
<glyph unicode="&#xe85e;" glyph-name="el-mic-circled" d="M0 434.981q0 212.382 150.822 363.205t362.179 149.796 363.205-149.796 149.796-363.205-149.796-363.205-363.205-149.796-362.179 149.796-150.822 363.205zM290.359 289.289q20.52-18.468 44.118-32.832 54.378-35.91 117.99-48.222v22.572h121.068v-22.572q63.612 12.312 117.99 48.222 23.598 14.364 44.118 32.832v187.758h-44.118v-166.212q-77.976-64.638-178.524-64.638t-178.524 64.638v166.212h-44.118v-187.758zM363.205 348.797q65.664-54.378 149.796-54.378t149.796 54.378v367.309q-19.494 15.39-45.144 27.702v-73.872h-36.936v89.262q-23.598 6.156-49.248 8.208v-97.47h-36.936v97.47q-25.65 0-49.248-8.208v-89.262h-36.936v75.924q-25.65-14.364-45.144-29.754v-367.309zM378.595 102.556h268.813v44.118h-73.872v61.56q-30.78-5.13-60.534-5.13t-60.534 5.13v-61.56h-73.872v-44.118z" />
<glyph unicode="&#xe85f;" glyph-name="el-volume-up" d="M0 249.274v369.361h208.278l314.983 256.5v-880.311l-314.983 254.448h-208.278zM577.64 283.133q63.612 64.638 63.612 154.926t-63.612 155.952l61.56 66.69q92.34-92.34 94.392-224.694 0-128.25-94.392-218.538zM681.266 175.402q108.756 107.73 108.756 262.657t-108.756 264.709l67.716 63.612q134.406-136.458 134.406-327.295t-134.406-329.347zM783.866 74.854q149.796 150.822 149.796 363.205t-149.796 362.179l63.612 66.69q84.132-84.132 131.328-194.94t47.196-232.902-47.196-234.954-131.328-194.94z" />
<glyph unicode="&#xe860;" glyph-name="el-print" d="M0 256.456v312.931h1026.003v-312.931h-158.004l55.404-271.891h-820.803l55.404 271.891h-158.004zM33.858 627.87l241.11 101.574h40.014v156.978h396.037v-156.978h40.014l241.11-101.574h-958.287zM168.264 60.49h689.474l-80.028 390.907h-529.418z" />
<glyph unicode="&#xe861;" glyph-name="el-edit-alt" d="M0-78.021v1026.003h662.798l-168.264-168.264h-326.269v-689.474h689.474v327.295l168.264 168.264v-663.824h-1026.003zM372.439 294.419v121.068h6.156q40.014 2.052 73.872-30.78 40.014-40.014 40.014-90.288h-120.042zM424.765 474.995l376.543 376.543 128.25-128.25-376.543-376.543zM832.089 882.318l65.664 65.664 128.25-128.25-65.664-65.664z" />
<glyph unicode="&#xe862;" glyph-name="el-edit-2" horiz-adv-x="926" d="M0-78.021v839.271l192.888 186.732h534.548v-231.876l31.806 31.806 166.212-164.16-389.881-390.907-245.214-80.028 77.976 244.188 268.813 268.813v231.876h-378.595v-160.056h-168.264v-685.37h546.86v146.718l90.288 89.262v-326.269h-727.436zM370.387 192.844l122.094 40.014-82.080 84.132z" />
<glyph unicode="&#xe863;" glyph-name="el-block" horiz-adv-x="934" d="M0 433.955q0 192.888 137.484 330.373t330.373 137.484 329.347-137.484 136.458-330.373-136.458-329.347-329.347-136.458-330.373 136.458-137.484 329.347zM117.99 461.657q-9.234-129.276 64.638-230.85l488.377 488.377q-101.574 74.898-230.85 64.638t-220.59-101.574-101.574-220.59zM264.709 148.726q101.574-74.898 229.824-64.638t220.59 102.6 102.6 220.59-64.638 229.824z" />
<glyph unicode="&#xe900;" glyph-name="chevron-down" d="M231.219 607.674c22.323 22.835 53.402 24.627 80.691 0l200.090-191.846 200.090 191.846c27.29 24.627 58.419 22.835 80.589 0 22.323-22.784 20.89-61.286 0-82.688-20.787-21.402-240.384-230.502-240.384-230.502-11.11-11.418-25.702-17.152-40.294-17.152s-29.184 5.734-40.397 17.152c0 0-219.494 209.101-240.384 230.502-20.941 21.402-22.323 59.904 0 82.688z" />
<glyph unicode="&#xe901;" glyph-name="chevron-left" d="M637.542 762.913c22.835-22.323 24.627-53.402 0-80.691l-191.846-200.090 191.846-200.090c24.627-27.29 22.835-58.419 0-80.589-22.784-22.323-61.286-20.89-82.688 0-21.402 20.787-230.502 240.384-230.502 240.384-11.418 11.11-17.152 25.702-17.152 40.294s5.734 29.184 17.152 40.397c0 0 209.101 219.494 230.502 240.384 21.402 20.941 59.904 22.323 82.688 0z" />
<glyph unicode="&#xe902;" glyph-name="chevron-right" d="M469.146 762.913c21.402-20.89 230.502-240.384 230.502-240.384 11.418-11.213 17.152-25.805 17.152-40.397s-5.734-29.184-17.152-40.294c0 0-209.101-219.597-230.502-240.384-21.402-20.89-59.904-22.323-82.688 0-22.835 22.221-24.627 53.299 0 80.589l191.846 200.090-191.846 200.090c-24.627 27.29-22.835 58.419 0 80.691 22.784 22.323 61.286 20.941 82.688 0z" />
<glyph unicode="&#xe903;" glyph-name="chevron-small-down" d="M687.002 591.751c13.875 13.722 36.301 13.722 50.074 0 13.824-13.722 13.926-35.891 0-49.613l-200.090-196.096c-13.824-13.722-36.198-13.722-50.125 0l-200.090 196.096c-13.824 13.67-13.824 35.891 0 49.613 13.875 13.722 36.301 13.722 50.074 0l175.155-160.819 175.002 160.819z" />
<glyph unicode="&#xe904;" glyph-name="chevron-small-left" d="M621.619 307.13c13.722-13.875 13.722-36.301 0-50.074-13.722-13.824-35.891-13.926-49.613 0l-196.096 200.090c-13.722 13.824-13.722 36.198 0 50.125l196.096 200.090c13.67 13.824 35.891 13.824 49.613 0 13.722-13.875 13.722-36.301 0-50.074l-160.819-175.155 160.819-175.002z" />
<glyph unicode="&#xe905;" glyph-name="chevron-small-right" d="M563.2 482.132l-160.819 175.104c-13.722 13.824-13.722 36.198 0 50.074 13.722 13.824 35.891 13.824 49.613 0l196.096-200.090c13.722-13.875 13.722-36.301 0-50.125l-196.096-200.090c-13.67-13.926-35.891-13.824-49.613 0-13.722 13.773-13.722 36.198 0 50.074l160.819 175.053z" />
<glyph unicode="&#xe906;" glyph-name="chevron-small-up" d="M336.998 372.513c-13.875-13.722-36.301-13.722-50.074 0s-13.926 35.891 0 49.613l200.090 196.096c13.824 13.722 36.198 13.722 50.125 0l200.090-196.096c13.824-13.67 13.824-35.891 0-49.613-13.875-13.722-36.301-13.722-50.125 0l-175.104 160.819-175.002-160.819z" />
<glyph unicode="&#xe907;" glyph-name="chevron-thin-down" d="M891.802 681.351c13.926 13.722 36.301 13.722 50.125 0s13.875-35.891 0-49.613l-404.89-400.896c-13.824-13.722-36.198-13.722-50.125 0l-404.89 400.896c-13.824 13.722-13.824 35.891 0 49.613 13.875 13.722 36.301 13.722 50.125 0l379.853-365.619 379.802 365.619z" />
<glyph unicode="&#xe908;" glyph-name="chevron-thin-left" d="M711.219 102.33c13.722-13.926 13.722-36.301 0-50.125s-35.891-13.875-49.613 0l-400.896 404.89c-13.722 13.824-13.722 36.198 0 50.125l400.896 404.89c13.722 13.824 35.891 13.824 49.613 0 13.722-13.875 13.722-36.301 0-50.125l-365.619-379.853 365.619-379.802z" />
<glyph unicode="&#xe909;" glyph-name="chevron-thin-right" d="M678.4 482.132l-365.619 379.904c-13.722 13.824-13.722 36.198 0 50.125 13.722 13.824 35.891 13.824 49.613 0l400.896-404.89c13.722-13.875 13.722-36.301 0-50.125l-400.896-404.89c-13.722-13.875-35.891-13.824-49.613 0-13.722 13.773-13.722 36.198 0 50.125l365.619 379.75z" />
<glyph unicode="&#xe90a;" glyph-name="chevron-thin-up" d="M132.198 282.913c-13.926-13.722-36.301-13.722-50.125 0s-13.875 35.891 0 49.613l404.89 400.896c13.824 13.722 36.198 13.722 50.125 0l404.89-400.896c13.824-13.722 13.824-35.891 0-49.613-13.875-13.722-36.301-13.722-50.074 0l-379.904 365.619-379.802-365.619z" />
<glyph unicode="&#xe90b;" glyph-name="chevron-up" d="M792.781 356.59c-22.323-22.835-53.402-24.627-80.691 0l-200.090 191.846-200.090-191.846c-27.29-24.627-58.419-22.835-80.589 0-22.323 22.784-20.89 61.286 0 82.688 20.787 21.402 240.384 230.502 240.384 230.502 11.11 11.418 25.702 17.152 40.294 17.152s29.184-5.734 40.397-17.152c0 0 219.494-209.101 240.384-230.502 20.941-21.402 22.323-59.904 0-82.688z" />
<glyph unicode="&#xe90c;" glyph-name="circular-graph" d="M900.301 514.286h102.4c-3.328 53.709-15.002 105.114-34.202 152.781l-89.907-51.917c11.469-31.898 18.995-65.69 21.709-100.864zM721.971 927.828c-48.896 23.091-101.888 38.758-158.003 44.544v-103.475c37.53-4.966 73.37-15.104 106.701-29.952l51.302 88.883zM831.59 706.286l89.139 51.456c-30.259 44.954-68.096 84.224-111.206 116.992l-51.507-89.19c28.109-22.835 52.787-49.562 73.574-79.258zM512.717 94.497c-214.886 0-389.12 174.182-389.12 389.12 0 197.53 147.302 360.243 337.971 385.331v103.475c-247.45-25.6-440.371-234.65-440.371-488.806 0-271.514 220.058-491.571 491.571-491.571 246.989 0 450.918 182.426 485.683 419.84h-103.475c-33.69-180.582-191.898-317.389-382.259-317.389z" />
<glyph unicode="&#xe90d;" glyph-name="cross2" d="M734.618 233.863c-24.013-24.013-62.925-24.013-86.886 0l-135.731 155.136-135.731-155.085c-24.013-24.013-62.925-24.013-86.886 0-24.013 24.013-24.013 62.925 0 86.886l141.21 161.28-141.261 161.382c-24.013 24.013-24.013 62.874 0 86.886s62.874 24.013 86.886 0l135.782-155.187 135.731 155.187c24.013 24.013 62.874 24.013 86.886 0s24.013-62.925 0-86.886l-141.21-161.382 141.21-161.28c24.013-24.013 24.013-62.925 0-86.938z" />
<glyph unicode="&#xe90e;" glyph-name="edit" d="M899.123 869.255c-73.83 73.882-129.28 62.822-129.28 62.822l-656.691-656.64-51.712-243.814 243.866 51.712 656.691 656.538c-0.051 0 11.059 55.45-62.874 129.382zM290.816 112.622l-83.149-17.92c-7.987 15.002-17.664 30.003-35.328 47.718-17.715 17.715-32.717 27.29-47.718 35.379l17.92 83.098 24.064 24.013c0 0 45.21-0.922 96.307-52.019 51.046-50.995 52.019-96.307 52.019-96.307l-24.115-23.962z" />
<glyph unicode="&#xe90f;" glyph-name="home2" d="M956.006 430.932h-85.606v-307.2c0-22.784-9.933-51.2-51.2-51.2h-204.8v307.2h-204.8v-307.2h-204.8c-41.267 0-51.2 28.416-51.2 51.2v307.2h-85.606c-30.618 0-24.064 16.589-3.072 38.298l410.829 411.238c9.984 10.342 23.091 15.462 36.25 15.974 13.158-0.512 26.266-5.581 36.25-15.974l410.778-411.187c21.043-21.76 27.597-38.349-3.021-38.349z" />
<glyph unicode="&#xe910;" glyph-name="info" d="M636.518 994.132c68.608 0 102.912-46.694 102.912-100.198 0-66.816-59.597-128.614-137.165-128.614-64.973 0-102.861 38.4-101.069 101.888 0 53.402 45.107 126.925 135.322 126.925zM425.421-29.868c-54.17 0-93.85 33.382-55.962 180.429l62.157 260.71c10.803 41.677 12.595 58.419 0 58.419-16.23 0-86.477-28.774-128.102-57.19l-27.034 45.056c131.686 111.923 283.187 177.51 348.211 177.51 54.118 0 63.13-65.178 36.096-165.376l-71.219-274.022c-12.595-48.384-7.219-65.075 5.427-65.075 16.23 0 69.478 20.070 121.805 61.798l30.72-41.677c-128.102-130.406-268.032-180.582-322.099-180.582z" />
<glyph unicode="&#xe911;" glyph-name="magnifying-glass" d="M898.304 202.222l-193.485 193.485c29.184 47.872 45.978 104.192 45.978 164.352 0 174.95-151.603 326.502-326.554 326.502-174.95 0.051-316.723-141.773-316.723-316.723 0-174.899 151.603-326.502 326.502-326.502 58.214 0 112.64 15.821 159.488 43.213l194.509-194.611c19.046-18.995 49.92-18.995 68.915 0l48.282 48.282c18.995 18.995 12.083 43.008-6.912 62.003zM205.005 569.838c0 121.139 98.15 219.29 219.238 219.29 121.139 0 229.069-107.878 229.069-229.069 0-121.088-98.202-219.29-219.29-219.29-121.139 0.051-229.018 107.981-229.018 229.069z" />
<glyph unicode="&#xe912;" glyph-name="menu3" d="M839.68 533.332h-655.36c-28.262 0-30.72-22.886-30.72-51.2s2.458-51.2 30.72-51.2h655.36c28.262 0 30.72 22.886 30.72 51.2s-2.458 51.2-30.72 51.2zM839.68 328.532h-655.36c-28.262 0-30.72-22.886-30.72-51.2s2.458-51.2 30.72-51.2h655.36c28.262 0 30.72 22.886 30.72 51.2s-2.458 51.2-30.72 51.2zM184.32 635.732h655.36c28.262 0 30.72 22.886 30.72 51.2s-2.458 51.2-30.72 51.2h-655.36c-28.262 0-30.72-22.886-30.72-51.2s2.458-51.2 30.72-51.2z" />
<glyph unicode="&#xe913;" glyph-name="pencil" d="M752.128 857.889c-96.973 70.605-165.99 69.069-192.205 64.819-7.373-1.178-13.568-5.427-17.92-11.418l-352.41-486.246c-14.182-19.558-22.374-42.803-23.654-66.918l-15.155-287.949c-1.075-20.736 19.558-35.738 38.912-28.314l269.107 102.912c22.682 8.704 42.394 23.808 56.627 43.469l352.256 486.093c4.557 6.298 6.4 13.978 5.12 21.658-4.301 26.931-24.934 92.262-120.678 161.894zM459.622 202.324l-104.602-40.397c-4.096-1.587-8.653-0.307-11.315 3.174-13.466 17.152-29.491 34.15-55.040 52.736-25.549 18.534-46.643 28.57-67.072 36.147-4.096 1.536-6.707 5.427-6.451 9.83l6.246 111.923 28.109 38.656c0 0 62.925 8.653 145.050-51.098 82.022-59.699 93.235-122.266 93.235-122.266l-28.16-38.707z" />
<glyph unicode="&#xe914;" glyph-name="plus2" d="M819.2 482.132c0-28.314-2.458-51.2-30.771-51.2h-225.229v-225.229c0-28.262-22.886-30.771-51.2-30.771s-51.2 2.509-51.2 30.771v225.229h-225.229c-28.262 0-30.771 22.886-30.771 51.2s2.509 51.2 30.771 51.2h225.229v225.229c0 28.314 22.886 30.771 51.2 30.771s51.2-2.458 51.2-30.771v-225.229h225.229c28.314 0 30.771-22.886 30.771-51.2z" />
<glyph unicode="&#xe915;" glyph-name="quote" d="M272.128 820.001c-82.432 0-149.299-68.762-149.299-153.6 0-84.787 66.867-153.6 149.299-153.6 149.248 0 49.766-296.909-149.299-296.909v-71.68c355.277-0.051 494.49 675.789 149.299 675.789zM702.208 820.001c-82.381 0-149.248-68.762-149.248-153.6 0-84.787 66.867-153.6 149.248-153.6 149.299 0 49.818-296.909-149.248-296.909v-71.68c355.226-0.051 494.438 675.789 149.248 675.789z" />
<glyph unicode="&#xe916;" glyph-name="open-book" d="M386.863 340.167l-227.599 91.044v-77.027l227.599-91.044v77.027zM386.863 576.481l-227.599 91.033v-77.027l227.599-91.033v77.027zM998.992 971.547c-15.622 10.581-35.487 12.72-53.020 5.712l-433.978-173.6-434.001 173.6c-17.533 7.009-37.376 4.858-53.020-5.712-15.622-10.581-24.974-28.228-24.974-47.115v-728.17c0-23.267 14.154-44.179 35.737-52.826l454.15-181.644c0 0 9.307-3.004 11.070-3.356 3.641-0.705 7.327-1.104 11.036-1.104 3.686 0 7.373 0.398 11.048 1.115 1.729 0.353 11.093 3.379 11.093 3.379l454.105 181.621c21.595 8.636 35.749 29.548 35.749 52.815v728.17c0 18.887-9.375 36.534-24.997 47.115zM455.106 73.725l-364.085 145.623v637.604l364.085-145.657v-637.569zM932.967 219.348l-364.085-145.623v637.581l364.085 145.657v-637.615zM864.724 431.211l-227.599-91.044v-77.027l227.599 91.044v77.027zM864.724 667.514l-227.599-91.033v-77.027l227.599 91.033v77.027z" />
<glyph unicode="&#xe990;" glyph-name="office" d="M0-64h512v1024h-512v-1024zM320 832h128v-128h-128v128zM320 576h128v-128h-128v128zM320 320h128v-128h-128v128zM64 832h128v-128h-128v128zM64 576h128v-128h-128v128zM64 320h128v-128h-128v128zM576 640h448v-64h-448zM576-64h128v256h192v-256h128v576h-448z" />
<glyph unicode="&#xe991;" glyph-name="library" horiz-adv-x="1088" d="M1024 0v64h-64v384h64v64h-192v-64h64v-384h-192v384h64v64h-192v-64h64v-384h-192v384h64v64h-192v-64h64v-384h-192v384h64v64h-192v-64h64v-384h-64v-64h-64v-64h1088v64h-64zM512 960h64l512-320v-64h-1088v64l512 320z" />
<glyph unicode="&#xe992;" glyph-name="location2" d="M512 960c-176.732 0-320-143.268-320-320 0-320 320-704 320-704s320 384 320 704c0 176.732-143.27 320-320 320zM512 444c-108.248 0-196 87.752-196 196s87.752 196 196 196 196-87.752 196-196-87.752-196-196-196zM388 640c0 68.483 55.517 124 124 124s124-55.517 124-124c0-68.483-55.517-124-124-124s-124 55.517-124 124z" />
<glyph unicode="&#xe993;" glyph-name="compass" d="M544.010-64.004c-2.296 0-4.622 0.25-6.94 0.764-14.648 3.25-25.070 16.238-25.070 31.24v480h-480c-15.002 0-27.992 10.422-31.24 25.070-3.25 14.646 4.114 29.584 17.708 35.928l960 448c12.196 5.688 26.644 3.144 36.16-6.372 9.516-9.514 12.060-23.966 6.372-36.16l-448-960c-5.342-11.44-16.772-18.47-28.99-18.47zM176.242 512h367.758c17.674 0 32-14.328 32-32v-367.758l349.79 749.546-749.548-349.788z" />
<glyph unicode="&#xe994;" glyph-name="printer" d="M256 896h512v-128h-512v128zM960 704h-896c-35.2 0-64-28.8-64-64v-320c0-35.2 28.794-64 64-64h192v-256h512v256h192c35.2 0 64 28.8 64 64v320c0 35.2-28.8 64-64 64zM128 512c-35.346 0-64 28.654-64 64s28.654 64 64 64 64-28.654 64-64-28.652-64-64-64zM704 64h-384v320h384v-320z" />
<glyph unicode="&#xe995;" glyph-name="display" d="M0 896v-640h1024v640h-1024zM960 320h-896v512h896v-512zM672 192h-320l-32-128-64-64h512l-64 64z" />
<glyph unicode="&#xe996;" glyph-name="mobile" d="M736 960h-448c-52.8 0-96-43.2-96-96v-832c0-52.8 43.2-96 96-96h448c52.8 0 96 43.2 96 96v832c0 52.8-43.2 96-96 96zM384 912h256v-32h-256v32zM512 0c-35.346 0-64 28.654-64 64s28.654 64 64 64 64-28.654 64-64-28.654-64-64-64zM768 192h-512v640h512v-640z" />
<glyph unicode="&#xe997;" glyph-name="mobile2" d="M768 960h-576c-35.2 0-64-28.798-64-64v-896c0-35.2 28.798-64 64-64h576c35.2 0 64 28.8 64 64v896c0 35.202-28.8 64-64 64zM480-17.782c-27.492 0-49.782 22.29-49.782 49.782s22.29 49.782 49.782 49.782 49.782-22.29 49.782-49.782-22.29-49.782-49.782-49.782zM768 128h-576v704h576v-704z" />
<glyph unicode="&#xe998;" glyph-name="tablet" d="M800 960h-640c-52.8 0-96-43.2-96-96v-832c0-52.8 43.2-96 96-96h640c52.8 0 96 43.2 96 96v832c0 52.8-43.2 96-96 96zM480-32c-17.672 0-32 14.326-32 32s14.328 32 32 32 32-14.326 32-32-14.328-32-32-32zM768 64h-576v768h576v-768z" />
<glyph unicode="&#xe999;" glyph-name="hour-glass" d="M728.992 448c137.754 87.334 231.008 255.208 231.008 448 0 21.676-1.192 43.034-3.478 64h-889.042c-2.29-20.968-3.48-42.326-3.48-64 0-192.792 93.254-360.666 231.006-448-137.752-87.334-231.006-255.208-231.006-448 0-21.676 1.19-43.034 3.478-64h889.042c2.288 20.966 3.478 42.324 3.478 64 0.002 192.792-93.252 360.666-231.006 448zM160 0c0 186.912 80.162 345.414 224 397.708v100.586c-143.838 52.29-224 210.792-224 397.706v0h704c0-186.914-80.162-345.416-224-397.706v-100.586c143.838-52.294 224-210.796 224-397.708h-704zM619.626 290.406c-71.654 40.644-75.608 93.368-75.626 125.366v64.228c0 31.994 3.804 84.914 75.744 125.664 38.504 22.364 71.808 56.348 97.048 98.336h-409.582c25.266-42.032 58.612-76.042 97.166-98.406 71.654-40.644 75.606-93.366 75.626-125.366v-64.228c0-31.992-3.804-84.914-75.744-125.664-72.622-42.18-126.738-125.684-143.090-226.336h501.67c-16.364 100.708-70.53 184.248-143.212 226.406z" />
<glyph unicode="&#xe99a;" glyph-name="sphere" d="M480 896c-265.096 0-480-214.904-480-480 0-265.098 214.904-480 480-480 265.098 0 480 214.902 480 480 0 265.096-214.902 480-480 480zM751.59 256c8.58 40.454 13.996 83.392 15.758 128h127.446c-3.336-44.196-13.624-87.114-30.68-128h-112.524zM208.41 576c-8.58-40.454-13.996-83.392-15.758-128h-127.444c3.336 44.194 13.622 87.114 30.678 128h112.524zM686.036 576c9.614-40.962 15.398-83.854 17.28-128h-191.316v128h174.036zM512 640v187.338c14.59-4.246 29.044-11.37 43.228-21.37 26.582-18.74 52.012-47.608 73.54-83.486 14.882-24.802 27.752-52.416 38.496-82.484h-155.264zM331.232 722.484c21.528 35.878 46.956 64.748 73.54 83.486 14.182 10 28.638 17.124 43.228 21.37v-187.34h-155.264c10.746 30.066 23.616 57.68 38.496 82.484zM448 576v-128h-191.314c1.88 44.146 7.666 87.038 17.278 128h174.036zM95.888 256c-17.056 40.886-27.342 83.804-30.678 128h127.444c1.762-44.608 7.178-87.546 15.758-128h-112.524zM256.686 384h191.314v-128h-174.036c-9.612 40.96-15.398 83.854-17.278 128zM448 192v-187.34c-14.588 4.246-29.044 11.372-43.228 21.37-26.584 18.74-52.014 47.61-73.54 83.486-14.882 24.804-27.75 52.418-38.498 82.484h155.266zM628.768 109.516c-21.528-35.876-46.958-64.746-73.54-83.486-14.184-9.998-28.638-17.124-43.228-21.37v187.34h155.266c-10.746-30.066-23.616-57.68-38.498-82.484zM512 256v128h191.314c-1.88-44.146-7.666-87.040-17.28-128h-174.034zM767.348 448c-1.762 44.608-7.178 87.546-15.758 128h112.524c17.056-40.886 27.344-83.806 30.68-128h-127.446zM830.658 640h-95.9c-18.638 58.762-44.376 110.294-75.316 151.428 42.536-20.34 81.058-47.616 114.714-81.272 21.48-21.478 40.362-44.938 56.502-70.156zM185.844 710.156c33.658 33.658 72.18 60.932 114.714 81.272-30.942-41.134-56.676-92.666-75.316-151.428h-95.898c16.138 25.218 35.022 48.678 56.5 70.156zM129.344 192h95.898c18.64-58.762 44.376-110.294 75.318-151.43-42.536 20.34-81.058 47.616-114.714 81.274-21.48 21.478-40.364 44.938-56.502 70.156zM774.156 121.844c-33.656-33.658-72.18-60.934-114.714-81.274 30.942 41.134 56.678 92.668 75.316 151.43h95.9c-16.14-25.218-35.022-48.678-56.502-70.156z" />
<glyph unicode="&#xe99b;" glyph-name="earth" d="M512 960c-282.77 0-512-229.23-512-512s229.23-512 512-512 512 229.23 512 512-229.23 512-512 512zM512-0.002c-62.958 0-122.872 13.012-177.23 36.452l233.148 262.29c5.206 5.858 8.082 13.422 8.082 21.26v96c0 17.674-14.326 32-32 32-112.99 0-232.204 117.462-233.374 118.626-6 6.002-14.14 9.374-22.626 9.374h-128c-17.672 0-32-14.328-32-32v-192c0-12.122 6.848-23.202 17.69-28.622l110.31-55.156v-187.886c-116.052 80.956-192 215.432-192 367.664 0 68.714 15.49 133.806 43.138 192h116.862c8.488 0 16.626 3.372 22.628 9.372l128 128c6 6.002 9.372 14.14 9.372 22.628v77.412c40.562 12.074 83.518 18.588 128 18.588 70.406 0 137.004-16.26 196.282-45.2-4.144-3.502-8.176-7.164-12.046-11.036-36.266-36.264-56.236-84.478-56.236-135.764s19.97-99.5 56.236-135.764c36.434-36.432 85.218-56.264 135.634-56.26 3.166 0 6.342 0.080 9.518 0.236 13.814-51.802 38.752-186.656-8.404-372.334-0.444-1.744-0.696-3.488-0.842-5.224-81.324-83.080-194.7-134.656-320.142-134.656z" />
<glyph unicode="&#xe99c;" glyph-name="attachment" d="M665.832 632.952l-64.952 64.922-324.81-324.742c-53.814-53.792-53.814-141.048 0-194.844 53.804-53.792 141.060-53.792 194.874 0l389.772 389.708c89.714 89.662 89.714 235.062 0 324.726-89.666 89.704-235.112 89.704-324.782 0l-409.23-409.178c-0.29-0.304-0.612-0.576-0.876-0.846-125.102-125.096-125.102-327.856 0-452.906 125.054-125.056 327.868-125.056 452.988 0 0.274 0.274 0.516 0.568 0.82 0.876l0.032-0.034 279.332 279.292-64.986 64.92-279.33-279.262c-0.296-0.268-0.564-0.57-0.846-0.844-89.074-89.058-233.98-89.058-323.076 0-89.062 89.042-89.062 233.922 0 322.978 0.304 0.304 0.604 0.582 0.888 0.846l-0.046 0.060 409.28 409.166c53.712 53.738 141.144 53.738 194.886 0 53.712-53.734 53.712-141.148 0-194.84l-389.772-389.7c-17.936-17.922-47.054-17.922-64.972 0-17.894 17.886-17.894 47.032 0 64.92l324.806 324.782z" />
</font>
</defs>
</svg>
