<?xml version="1.0" encoding="utf-8"?>
<!-- Generator: Adobe Illustrator 24.1.2, SVG Export Plug-In . SVG Version: 6.00 Build 0)  -->
<svg version="1.1" id="Layer_1" xmlns="http://www.w3.org/2000/svg" xmlns:xlink="http://www.w3.org/1999/xlink" x="0px" y="0px"
	 viewBox="0 0 310 310" style="enable-background:new 0 0 310 310;" xml:space="preserve">
<style type="text/css">
	.st0{fill:#0075A3;}
</style>
<g>
	<path class="st0" d="M50.3,217.8l-1.3-0.1c-25.4-5-43.1-27.9-43.1-55.8c0-26.1,17.6-48.7,42.8-55.1c1.4-0.3,2.4-1.6,2.4-3v-0.2
		c0-27.4,22.4-49.8,49.9-49.8c3.8,0,7.7,0.4,11.4,1.3l0.7,0.1c1.1,0,2.1-0.5,2.6-1.5c14.8-23.7,40.4-37.8,68.4-37.8
		c44.6,0,80.8,36.1,80.8,80.5c0,2.9-0.2,5.9-0.5,8.8c-0.2,1.4,0.7,2.8,2,3.3c22.3,8.2,37.2,29.7,37.2,53.3
		c0,27.9-17.4,49.9-43.2,54.7l-1.1,0.1c-3.1,0-5.8-2.2-6.3-5.2c-0.6-3.5,1.7-6.8,5.1-7.5c19.6-3.7,32.8-20.6,32.8-42.1
		c0-20.9-14.9-39.1-35.4-43.2c-1.7-0.3-3.2-1.4-4.1-2.8c-0.9-1.4-1.3-3.2-0.9-4.9c1.1-4.9,1.6-9.8,1.6-14.6
		c0-37.4-30.5-67.7-68.1-67.7c-25.9,0-49.2,14.4-60.9,37.6c-1.1,2.1-3.3,3.5-5.7,3.5l-2.4-0.5c-4.5-1.9-9.3-2.8-14.2-2.8
		c-20.5,0-37.2,16.6-37.2,37c0,2.3,0.2,4.6,0.7,6.9c0.3,1.7-0.1,3.6-1.2,5c-1.1,1.4-2.7,2.4-4.5,2.5c-22.9,2.1-40.2,21-40.2,43.9
		c0,22,13.2,39.4,32.8,43.3c3.5,0.7,5.7,4,5,7.5C56,215.6,53.4,217.8,50.3,217.8z"/>
	<path class="st0" d="M50.3,217.8l0.4-4.2l-1.3-0.1l-0.4,4.2l0.8-4.1c-23.3-4.6-39.7-25.6-39.8-51.7c0-24.1,16.3-45.1,39.7-51l0,0
		c3.3-0.8,5.5-3.7,5.5-7.1v-0.2c0-12.6,5.1-23.9,13.4-32.2C77,63,88.4,57.9,101,57.9c3.5,0,7,0.4,10.4,1.2l0.2,0.1l1,0.1l0.2,0h0.2
		c2.5,0,4.8-1.3,6.2-3.4l0,0c14.1-22.4,38.3-35.8,64.9-35.8c21.1,0,40.3,8.6,54.2,22.4c13.9,13.8,22.5,32.9,22.5,53.9
		c0,2.8-0.2,5.6-0.5,8.4l0,0.8c0,3,1.9,5.8,4.8,6.8c20.6,7.6,34.5,27.5,34.5,49.4c-0.1,26.1-16,46.1-39.8,50.6l0.8,4.1l-0.4-4.2
		l-1.1,0.1l0.4,4.2v-4.2c-1.1,0-2-0.8-2.2-1.8l0,0l0-0.4c0-1,0.8-2,1.8-2.2c21.7-4,36.3-23,36.2-46.2c0-22.9-16.3-42.7-38.8-47.3
		l0,0l-1.4-1l-0.4-1.2l0-0.5c1.1-5.1,1.7-10.4,1.7-15.5c0-39.7-32.4-71.9-72.2-71.9c-27.5,0-52.3,15.3-64.6,39.9l-2,1.2v4.2l0.8-4.1
		l-2.4-0.5l-0.8,4.1l1.6-3.9c-5-2.1-10.3-3.1-15.7-3.1c-22.8,0-41.3,18.4-41.3,41.2c0,2.5,0.3,5.1,0.8,7.7l0,0l0,0.4l-0.4,1.3
		l-1.6,0.9l0,0c-25,2.3-44,23-43.9,48C14.4,185.5,29,205,50.7,209.2l0,0c1,0.2,1.8,1.1,1.8,2.2l0,0.4c-0.2,1-1.1,1.8-2.2,1.8V217.8
		l0.4-4.2L50.3,217.8v4.2c5.1,0,9.4-3.6,10.4-8.5l0.2-2c0-5-3.5-9.4-8.5-10.4l0,0c-17.5-3.5-29.4-18.8-29.5-39.2
		c0-20.8,15.6-37.8,36.4-39.7l0,0c3-0.3,5.7-1.8,7.5-4.2c1.4-1.8,2.1-4.1,2.1-6.3l-0.2-2l0,0c-0.4-2.1-0.6-4.1-0.6-6.1
		c0-9,3.7-17.2,9.7-23.2c6-6,14.2-9.6,23.3-9.6c4.3,0,8.5,0.8,12.6,2.5l0.4,0.2l2.8,0.6l0.4,0.1h0.4c4,0,7.6-2.2,9.4-5.8
		c10.9-21.8,32.8-35.3,57.1-35.3c17.6,0,33.6,7.1,45.2,18.6c11.6,11.5,18.7,27.4,18.7,44.9c0,4.5-0.5,9.1-1.5,13.7l-0.2,2.3
		c0,2,0.6,4,1.7,5.8c1.6,2.4,4,4,6.7,4.6l0,0c18.6,3.7,32.1,20.2,32.1,39.1c-0.1,19.9-11.8,34.7-29.4,38c-5.1,1-8.6,5.4-8.6,10.4
		l0.2,1.9l0,0c1,5,5.3,8.6,10.4,8.6h0.2l1.3-0.1l0.2,0l0.2,0c27.9-5.1,46.7-29.2,46.7-58.8c0-25.4-16-48.4-40-57.2l-0.4,1l1.1,0
		l-0.7-1l-0.4,1l1.1,0h-1.1l1.1,0.1l0-0.1h-1.1l1.1,0.1c0.4-3.1,0.5-6.2,0.5-9.3c0-46.7-38.1-84.7-85-84.7
		c-29.4,0-56.4,14.9-72,39.7l0,0.1l0.1-0.1l0.9,0.6v-1.1l-0.9,0.5l0.9,0.6v-1.1v4.2l0.5-4.2l-0.7-0.1l-0.5,4.2l1-4.1
		c-4-0.9-8.2-1.4-12.3-1.4c-29.8,0-54.1,24.2-54.1,53.9v0.2H48l-0.3-1l-0.8,1H48l-0.3-1l0,0c-27.1,6.8-46,31.2-46,59.1
		c0,29.6,19,54.5,46.5,59.9l0.2,0l1.5,0.1l0.2,0h0.2V217.8z"/>
	<path class="st0" d="M228.2,199.3l-0.8,0.2l-1.5-0.6l-14.4-14.4c-0.8-0.8-1.9-1.2-3-1.2c-1.1,0-2.2,0.4-3,1.2l-43.9,43.9
		c-1.6,1.6-1.6,4.3,0,6c0.8,0.8,1.9,1.2,3,1.2c1.1,0,2.2-0.4,3-1.2l39.5-39.5l1.5-0.6l1.5,0.6l20.7,20.7c0.8,0.8,1.9,1.2,3,1.2
		l1.6-0.3c1.6-0.7,2.6-2.2,2.6-3.9v-69c0-2.3-1.9-4.2-4.2-4.2h-69c-1.7,0-3.2,1-3.9,2.6c-0.7,1.6-0.3,3.4,0.9,4.6l20.7,20.7v2.9
		l-20.7,20.7c-1.6,1.6-1.6,4.3,0,6c0.8,0.8,1.9,1.2,3,1.2c1.1,0,2.2-0.4,3-1.2l25.1-25.1c1.6-1.6,1.6-4.3,0-6l-14.4-14.4l-0.4-2.2
		l1.9-1.3h47.6c1.1,0,2.1,0.9,2.1,2.1v47.6L228.2,199.3z"/>
	<path class="st0" d="M228.2,199.3l-0.8-4.1l-0.8,0.2l0.8,4.1l1.6-3.9l-0.7-0.3l-13.8-13.8l0,0c-1.6-1.6-3.7-2.5-5.9-2.5
		c-2.2,0-4.4,0.9-5.9,2.5l0,0l-43.9,43.9c-1.6,1.6-2.5,3.8-2.5,5.9c0,2.1,0.8,4.3,2.5,5.9c1.6,1.6,3.7,2.5,5.9,2.5
		c2.2,0,4.4-0.9,5.9-2.4l38.9-38.9l0.7-0.3l-1.6-3.9l-1.6,3.9l0.7,0.3l20.1,20.1c1.5,1.6,3.7,2.5,5.9,2.5h0.4l2-0.4l0.4-0.1l0.4-0.2
		c3.1-1.3,5.2-4.4,5.2-7.8v-69c0-4.6-3.7-8.4-8.4-8.4h-69c-3.4,0-6.5,2-7.8,5.2l0,0c-0.4,1-0.6,2.1-0.6,3.2c0,2.2,0.9,4.3,2.5,5.9
		l19.4,19.4l0,1.2h4.2l-3-3l-20.7,20.7c-1.6,1.6-2.5,3.8-2.5,5.9c0,2.1,0.8,4.3,2.5,5.9c1.6,1.6,3.7,2.5,5.9,2.5
		c2.2,0,4.4-0.9,5.9-2.4l0,0l25.1-25.1c1.6-1.6,2.5-3.8,2.5-5.9c0-2.1-0.8-4.3-2.5-5.9l-13.5-13.5l-0.2-1l-4.1,0.8l2.3,3.5l0.9-0.6
		h46.3v-2.1l-2.1,0c0,1.2,0.9,2.1,2.1,2.1v-2.1l-2.1,0v46.3l-0.6,0.8L228.2,199.3l-0.8-4.1L228.2,199.3l3.5,2.3l1.3-1.9l0.7-1.1
		v-48.9c0-3.5-2.8-6.2-6.2-6.2h-48.9l-3,2l-2.3,1.6l1,5l0.2,1.2l15.3,15.3l0,0l0,0l-25.1,25.1l0,0l-0.1,0l0,0l0,0l0,0l21.9-21.9
		v-4.6v-1.7l-21.9-21.9l0,0l0,0l0,0l0,0l0,0h69l0,0v69l0,0l1.6,3.9l-0.8-4.1l-1.6,0.3l0.8,4.1v-4.2v0l0,0l0,0v0l0,0l0,0l-21.2-21.2
		l-2.2-0.9l-1.6-0.7l-3.1,1.3l-0.8,0.3l-40.1,40.1l0,0l-0.1,0l0,0l0,0l0,0l43.9-43.9l0,0l0,0l0,0l15,15l2.2,0.9l1.2,0.5l2-0.4
		l1.7-0.3l1-1.4L228.2,199.3z"/>
	<path class="st0" d="M83.3,204.3l0.8-0.2l1.5,0.6l14.4,14.4c0.8,0.8,1.9,1.2,3,1.2c1.1,0,2.2-0.4,3-1.2l43.9-43.9
		c1.6-1.6,1.6-4.3,0-6c-0.8-0.8-1.9-1.2-3-1.2c-1.1,0-2.2,0.4-3,1.2l-39.5,39.5l-1.5,0.6l-1.5-0.6l-20.7-20.7
		c-0.8-0.8-1.9-1.2-3-1.2l-1.6,0.3c-1.6,0.7-2.6,2.2-2.6,3.9v69c0,2.3,1.9,4.2,4.2,4.2h69c1.7,0,3.2-1,3.9-2.6
		c0.7-1.6,0.3-3.4-0.9-4.6l-20.7-20.7v-2.9l20.7-20.7c1.6-1.6,1.6-4.3,0-6c-0.8-0.8-1.9-1.2-3-1.2c-1.1,0-2.2,0.4-3,1.2L118.8,232
		c-1.6,1.6-1.6,4.3,0,6l14.4,14.4l0.4,2.2l-1.9,1.3H84.1c-1.1,0-2.1-0.9-2.1-2.1v-47.6L83.3,204.3z"/>
	<path class="st0" d="M83.3,204.3l0.8,4.1l0.8-0.2l-0.8-4.1l-1.6,3.9l0.7,0.3L97,222.1c1.6,1.6,3.7,2.5,5.9,2.5
		c2.2,0,4.4-0.9,5.9-2.5l43.9-43.9c1.6-1.6,2.5-3.8,2.5-5.9c0-2.1-0.8-4.3-2.5-5.9l0,0c-1.6-1.6-3.7-2.5-5.9-2.5
		c-2.2,0-4.4,0.9-5.9,2.5l0,0L102,205.2l-0.7,0.3l1.6,3.9l1.6-3.9l-0.7-0.3l-20.1-20.1l0,0c-1.6-1.6-3.7-2.5-5.9-2.5h-0.4l-2,0.4
		l-0.4,0.1l-0.4,0.2c-3.1,1.3-5.2,4.4-5.2,7.8v69c0,4.6,3.8,8.4,8.4,8.4h69c3.4,0,6.5-2.1,7.8-5.2l0,0c0.4-1,0.6-2.1,0.6-3.2
		c0-2.2-0.9-4.3-2.5-5.9l0,0l-19.4-19.4l0-1.2h-4.2l3,3l20.7-20.7c1.6-1.6,2.5-3.8,2.5-5.9c0-2.1-0.8-4.3-2.5-5.9
		c-1.6-1.6-3.7-2.5-5.9-2.5c-2.2,0-4.4,0.9-5.9,2.5l-25.1,25.1c-1.6,1.6-2.5,3.8-2.5,5.9c0,2.1,0.8,4.3,2.5,5.9l13.5,13.5l0.2,1
		l4.1-0.8l-2.3-3.5l-0.8,0.6H84.1v2.1l2.1,0c0-1.2-0.9-2.1-2.1-2.1v2.1l2.1,0v-46.3l0.6-0.8L83.3,204.3l0.8,4.1L83.3,204.3l-3.5-2.3
		l-1.3,1.9l-0.7,1.1v48.9c0,3.4,2.8,6.2,6.2,6.2H133l3-2l2.3-1.5l-1-5l-0.2-1.2L121.7,235l0,0l0,0l25.1-25.1l0,0l0,0l0,0l0,0
		L125,231.8v4.6v1.7l21.9,21.9l0,0l0,0l0,0l0,0l0,0h-69l0,0v-69l0,0l-1.6-3.9l0.8,4.1l1.6-0.3l-0.8-4.1v4.2l0,0l21.2,21.2l2.2,0.9
		l1.6,0.7l3-1.3l0.8-0.3l40.1-40.1l0,0l0,0l0,0l0,0l0,0l0,0l-43.9,43.9l0,0l0,0l-15-15l-2.2-0.9l-1.2-0.5l-2,0.4l-1.7,0.3l-1,1.4
		L83.3,204.3z"/>
</g>
</svg>
