<svg version="1.2" xmlns="http://www.w3.org/2000/svg" viewBox="0 0 122 62" width="122" height="62"><defs><clipPath clipPathUnits="userSpaceOnUse" id="cp1"><path d="m100.83 52.96v-35.23l-9.98 8.66v-11.48l9.98-8.66h10.76v46.72c0 0-10.76 0-10.76-0.01z"/></clipPath><clipPath clipPathUnits="userSpaceOnUse" id="cp2"><path d="m100.83 52.96v-35.23l-9.98 8.66v-11.48l9.98-8.66h10.76v46.72c0 0-10.76 0-10.76-0.01z"/></clipPath><clipPath clipPathUnits="userSpaceOnUse" id="cp3"><path d="m100.83 52.96v-35.23l-9.98 8.66v-11.48l9.98-8.66h10.76v46.72c0 0-10.76 0-10.76-0.01z"/></clipPath><clipPath clipPathUnits="userSpaceOnUse" id="cp4"><path d="m100.83 52.96v-35.23l-9.98 8.66v-11.48l9.98-8.66h10.76v46.72c0 0-10.76 0-10.76-0.01z"/></clipPath><clipPath clipPathUnits="userSpaceOnUse" id="cp5"><path d="m100.83 52.96v-35.23l-9.98 8.66v-11.48l9.98-8.66h10.76v46.72c0 0-10.76 0-10.76-0.01z"/></clipPath><clipPath clipPathUnits="userSpaceOnUse" id="cp6"><path d="m100.83 52.96v-35.23l-9.98 8.66v-11.48l9.98-8.66h10.76v46.72c0 0-10.76 0-10.76-0.01z"/></clipPath><clipPath clipPathUnits="userSpaceOnUse" id="cp7"><path d="m100.83 52.96v-35.23l-9.98 8.66v-11.48l9.98-8.66h10.76v46.72c0 0-10.76 0-10.76-0.01z"/></clipPath><clipPath clipPathUnits="userSpaceOnUse" id="cp8"><path d="m100.83 52.96v-35.23l-9.98 8.66v-11.48l9.98-8.66h10.76v46.72c0 0-10.76 0-10.76-0.01z"/></clipPath><clipPath clipPathUnits="userSpaceOnUse" id="cp9"><path d="m100.83 52.96v-35.23l-9.98 8.66v-11.48l9.98-8.66h10.76v46.72c0 0-10.76 0-10.76-0.01z"/></clipPath><clipPath clipPathUnits="userSpaceOnUse" id="cp10"><path d="m100.83 52.96v-35.23l-9.98 8.66v-11.48l9.98-8.66h10.76v46.72c0 0-10.76 0-10.76-0.01z"/></clipPath><clipPath clipPathUnits="userSpaceOnUse" id="cp11"><path d="m100.83 52.96v-35.23l-9.98 8.66v-11.48l9.98-8.66h10.76v46.72c0 0-10.76 0-10.76-0.01z"/></clipPath><clipPath clipPathUnits="userSpaceOnUse" id="cp12"><path d="m100.83 52.96v-35.23l-9.98 8.66v-11.48l9.98-8.66h10.76v46.72c0 0-10.76 0-10.76-0.01z"/></clipPath><clipPath clipPathUnits="userSpaceOnUse" id="cp13"><path d="m100.83 52.96v-35.23l-9.98 8.66v-11.48l9.98-8.66h10.76v46.72c0 0-10.76 0-10.76-0.01z"/></clipPath><clipPath clipPathUnits="userSpaceOnUse" id="cp14"><path d="m100.83 52.96v-35.23l-9.98 8.66v-11.48l9.98-8.66h10.76v46.72c0 0-10.76 0-10.76-0.01z"/></clipPath><clipPath clipPathUnits="userSpaceOnUse" id="cp15"><path d="m100.83 52.96v-35.23l-9.98 8.66v-11.48l9.98-8.66h10.76v46.72c0 0-10.76 0-10.76-0.01z"/></clipPath><clipPath clipPathUnits="userSpaceOnUse" id="cp16"><path d="m100.83 52.96v-35.23l-9.98 8.66v-11.48l9.98-8.66h10.76v46.72c0 0-10.76 0-10.76-0.01z"/></clipPath><clipPath clipPathUnits="userSpaceOnUse" id="cp17"><path d="m100.83 52.96v-35.23l-9.98 8.66v-11.48l9.98-8.66h10.76v46.72c0 0-10.76 0-10.76-0.01z"/></clipPath><clipPath clipPathUnits="userSpaceOnUse" id="cp18"><path d="m100.83 52.96v-35.23l-9.98 8.66v-11.48l9.98-8.66h10.76v46.72c0 0-10.76 0-10.76-0.01z"/></clipPath><clipPath clipPathUnits="userSpaceOnUse" id="cp19"><path d="m100.83 52.96v-35.23l-9.98 8.66v-11.48l9.98-8.66h10.76v46.72c0 0-10.76 0-10.76-0.01z"/></clipPath><clipPath clipPathUnits="userSpaceOnUse" id="cp20"><path d="m100.83 52.96v-35.23l-9.98 8.66v-11.48l9.98-8.66h10.76v46.72c0 0-10.76 0-10.76-0.01z"/></clipPath><clipPath clipPathUnits="userSpaceOnUse" id="cp21"><path d="m100.83 52.96v-35.23l-9.98 8.66v-11.48l9.98-8.66h10.76v46.72c0 0-10.76 0-10.76-0.01z"/></clipPath><clipPath clipPathUnits="userSpaceOnUse" id="cp22"><path d="m100.83 52.96v-35.23l-9.98 8.66v-11.48l9.98-8.66h10.76v46.72c0 0-10.76 0-10.76-0.01z"/></clipPath><clipPath clipPathUnits="userSpaceOnUse" id="cp23"><path d="m100.83 52.96v-35.23l-9.98 8.66v-11.48l9.98-8.66h10.76v46.72c0 0-10.76 0-10.76-0.01z"/></clipPath><clipPath clipPathUnits="userSpaceOnUse" id="cp24"><path d="m100.83 52.96v-35.23l-9.98 8.66v-11.48l9.98-8.66h10.76v46.72c0 0-10.76 0-10.76-0.01z"/></clipPath><clipPath clipPathUnits="userSpaceOnUse" id="cp25"><path d="m100.83 52.96v-35.23l-9.98 8.66v-11.48l9.98-8.66h10.76v46.72c0 0-10.76 0-10.76-0.01z"/></clipPath><clipPath clipPathUnits="userSpaceOnUse" id="cp26"><path d="m100.83 52.96v-35.23l-9.98 8.66v-11.48l9.98-8.66h10.76v46.72c0 0-10.76 0-10.76-0.01z"/></clipPath><clipPath clipPathUnits="userSpaceOnUse" id="cp27"><path d="m100.83 52.96v-35.23l-9.98 8.66v-11.48l9.98-8.66h10.76v46.72c0 0-10.76 0-10.76-0.01z"/></clipPath><clipPath clipPathUnits="userSpaceOnUse" id="cp28"><path d="m100.83 52.96v-35.23l-9.98 8.66v-11.48l9.98-8.66h10.76v46.72c0 0-10.76 0-10.76-0.01z"/></clipPath><clipPath clipPathUnits="userSpaceOnUse" id="cp29"><path d="m100.83 52.96v-35.23l-9.98 8.66v-11.48l9.98-8.66h10.76v46.72c0 0-10.76 0-10.76-0.01z"/></clipPath><clipPath clipPathUnits="userSpaceOnUse" id="cp30"><path d="m100.83 52.96v-35.23l-9.98 8.66v-11.48l9.98-8.66h10.76v46.72c0 0-10.76 0-10.76-0.01z"/></clipPath><clipPath clipPathUnits="userSpaceOnUse" id="cp31"><path d="m100.83 52.96v-35.23l-9.98 8.66v-11.48l9.98-8.66h10.76v46.72c0 0-10.76 0-10.76-0.01z"/></clipPath><clipPath clipPathUnits="userSpaceOnUse" id="cp32"><path d="m100.83 52.96v-35.23l-9.98 8.66v-11.48l9.98-8.66h10.76v46.72c0 0-10.76 0-10.76-0.01z"/></clipPath><clipPath clipPathUnits="userSpaceOnUse" id="cp33"><path d="m100.83 52.96v-35.23l-9.98 8.66v-11.48l9.98-8.66h10.76v46.72c0 0-10.76 0-10.76-0.01z"/></clipPath><clipPath clipPathUnits="userSpaceOnUse" id="cp34"><path d="m100.83 52.96v-35.23l-9.98 8.66v-11.48l9.98-8.66h10.76v46.72c0 0-10.76 0-10.76-0.01z"/></clipPath><clipPath clipPathUnits="userSpaceOnUse" id="cp35"><path d="m100.83 52.96v-35.23l-9.98 8.66v-11.48l9.98-8.66h10.76v46.72c0 0-10.76 0-10.76-0.01z"/></clipPath><clipPath clipPathUnits="userSpaceOnUse" id="cp36"><path d="m100.83 52.96v-35.23l-9.98 8.66v-11.48l9.98-8.66h10.76v46.72c0 0-10.76 0-10.76-0.01z"/></clipPath><clipPath clipPathUnits="userSpaceOnUse" id="cp37"><path d="m100.83 52.96v-35.23l-9.98 8.66v-11.48l9.98-8.66h10.76v46.72c0 0-10.76 0-10.76-0.01z"/></clipPath><clipPath clipPathUnits="userSpaceOnUse" id="cp38"><path d="m100.83 52.96v-35.23l-9.98 8.66v-11.48l9.98-8.66h10.76v46.72c0 0-10.76 0-10.76-0.01z"/></clipPath><clipPath clipPathUnits="userSpaceOnUse" id="cp39"><path d="m100.83 52.96v-35.23l-9.98 8.66v-11.48l9.98-8.66h10.76v46.72c0 0-10.76 0-10.76-0.01z"/></clipPath><clipPath clipPathUnits="userSpaceOnUse" id="cp40"><path d="m100.83 52.96v-35.23l-9.98 8.66v-11.48l9.98-8.66h10.76v46.72c0 0-10.76 0-10.76-0.01z"/></clipPath><clipPath clipPathUnits="userSpaceOnUse" id="cp41"><path d="m100.83 52.96v-35.23l-9.98 8.66v-11.48l9.98-8.66h10.76v46.72c0 0-10.76 0-10.76-0.01z"/></clipPath><clipPath clipPathUnits="userSpaceOnUse" id="cp42"><path d="m100.83 52.96v-35.23l-9.98 8.66v-11.48l9.98-8.66h10.76v46.72c0 0-10.76 0-10.76-0.01z"/></clipPath><clipPath clipPathUnits="userSpaceOnUse" id="cp43"><path d="m100.83 52.96v-35.23l-9.98 8.66v-11.48l9.98-8.66h10.76v46.72c0 0-10.76 0-10.76-0.01z"/></clipPath><clipPath clipPathUnits="userSpaceOnUse" id="cp44"><path d="m100.83 52.96v-35.23l-9.98 8.66v-11.48l9.98-8.66h10.76v46.72c0 0-10.76 0-10.76-0.01z"/></clipPath><clipPath clipPathUnits="userSpaceOnUse" id="cp45"><path d="m100.83 52.96v-35.23l-9.98 8.66v-11.48l9.98-8.66h10.76v46.72c0 0-10.76 0-10.76-0.01z"/></clipPath><clipPath clipPathUnits="userSpaceOnUse" id="cp46"><path d="m100.83 52.96v-35.23l-9.98 8.66v-11.48l9.98-8.66h10.76v46.72c0 0-10.76 0-10.76-0.01z"/></clipPath><clipPath clipPathUnits="userSpaceOnUse" id="cp47"><path d="m100.83 52.96v-35.23l-9.98 8.66v-11.48l9.98-8.66h10.76v46.72c0 0-10.76 0-10.76-0.01z"/></clipPath><clipPath clipPathUnits="userSpaceOnUse" id="cp48"><path d="m100.83 52.96v-35.23l-9.98 8.66v-11.48l9.98-8.66h10.76v46.72c0 0-10.76 0-10.76-0.01z"/></clipPath><clipPath clipPathUnits="userSpaceOnUse" id="cp49"><path d="m100.83 52.96v-35.23l-9.98 8.66v-11.48l9.98-8.66h10.76v46.72c0 0-10.76 0-10.76-0.01z"/></clipPath><clipPath clipPathUnits="userSpaceOnUse" id="cp50"><path d="m100.83 52.96v-35.23l-9.98 8.66v-11.48l9.98-8.66h10.76v46.72c0 0-10.76 0-10.76-0.01z"/></clipPath></defs><style>.a{fill:#f3f3f5}.b{fill:#00abc8}.c{fill:#0075a3}</style><path class="a" d="m105.2 57.3v-35.2l-10 8.6v-11.5l10-8.6h10.7v46.7z"/><g clip-path="url(#cp1)"><path class="b" d="m111.5 2.7h5.5v5.5h-5.5z"/><path class="b" d="m112 2.7c0 0.3-0.2 0.5-0.5 0.5v-0.5z"/><path class="b" d="m117 2.7v0.5c-0.4 0-0.6-0.2-0.6-0.5z"/><path class="b" d="m112 8.2h-0.5v-0.6c0.3 0 0.5 0.3 0.5 0.6z"/><path class="b" d="m117 7.6v0.6h-0.6c0-0.3 0.2-0.6 0.6-0.6z"/><path class="b" d="m114.8 5.4c0 0.3-0.3 0.6-0.6 0.6-0.3 0-0.5-0.3-0.5-0.6 0-0.3 0.2-0.5 0.5-0.5 0.3 0 0.6 0.2 0.6 0.5z"/></g><g clip-path="url(#cp2)"><path class="b" d="m111.5 8.2h5.5v5.4h-5.5z"/><path class="b" d="m112 8.2c0 0.2-0.2 0.5-0.5 0.5v-0.5z"/><path class="b" d="m117 8.2v0.5c-0.4 0-0.6-0.2-0.6-0.5z"/><path class="b" d="m112 13.7h-0.5v-0.6c0.3 0 0.5 0.2 0.5 0.6z"/><path class="b" d="m117 13.1v0.6h-0.6c0-0.4 0.2-0.6 0.6-0.6z"/><path class="b" d="m114.8 10.9c0 0.3-0.3 0.6-0.6 0.6-0.3 0-0.5-0.3-0.5-0.6 0-0.3 0.2-0.6 0.5-0.6 0.3 0 0.6 0.3 0.6 0.6z"/></g><g clip-path="url(#cp3)"><path class="b" d="m111.5 13.7h5.5v5.4h-5.5z"/><path class="b" d="m112 13.7c0 0.2-0.2 0.5-0.5 0.5v-0.5z"/><path class="b" d="m117 13.7v0.5c-0.4 0-0.6-0.3-0.6-0.5z"/><path class="b" d="m112 19.1h-0.5v-0.5c0.3 0 0.5 0.2 0.5 0.5z"/><path class="b" d="m117 18.6v0.5h-0.6c0-0.3 0.2-0.5 0.6-0.5z"/><path class="b" d="m114.8 16.4c0 0.3-0.3 0.5-0.6 0.5-0.3 0-0.5-0.2-0.5-0.5 0-0.3 0.2-0.6 0.5-0.6 0.3 0 0.6 0.3 0.6 0.6z"/></g><g clip-path="url(#cp4)"><path class="b" d="m111.5 19.1h5.5v5.5h-5.5z"/><path class="b" d="m112 19.1c0 0.3-0.2 0.6-0.5 0.6v-0.6z"/><path class="b" d="m117 19.1v0.6c-0.4 0-0.6-0.3-0.6-0.6z"/><path class="b" d="m112 24.6h-0.5v-0.6c0.3 0 0.5 0.3 0.5 0.6z"/><path class="b" d="m117 24v0.6h-0.6c0-0.3 0.2-0.6 0.6-0.6z"/><path class="b" d="m114.8 21.8c0 0.3-0.3 0.6-0.6 0.6-0.3 0-0.5-0.2-0.5-0.6 0-0.3 0.2-0.5 0.5-0.5 0.3 0 0.6 0.2 0.6 0.5z"/></g><g clip-path="url(#cp5)"><path class="b" d="m111.5 24.6h5.5v5.5h-5.5z"/><path class="b" d="m112 24.6c0 0.3-0.2 0.5-0.5 0.5v-0.5z"/><path class="b" d="m117 24.6v0.5c-0.4 0-0.6-0.2-0.6-0.5z"/><path class="b" d="m112 30.1h-0.5v-0.6c0.3 0 0.5 0.2 0.5 0.6z"/><path class="b" d="m117 29.5v0.6h-0.6c0-0.4 0.2-0.6 0.6-0.6z"/><path class="b" d="m114.8 27.3c0 0.3-0.3 0.6-0.6 0.6-0.3 0-0.5-0.3-0.5-0.6 0-0.3 0.2-0.5 0.5-0.5 0.3 0 0.6 0.2 0.6 0.5z"/></g><g clip-path="url(#cp6)"><path class="b" d="m111.5 30.1h5.5v5.4h-5.5z"/><path class="b" d="m112 30.1c0 0.2-0.2 0.5-0.5 0.5v-0.5z"/><path class="b" d="m117 30.1v0.5c-0.4 0-0.6-0.3-0.6-0.5z"/><path class="b" d="m112 35.5h-0.5v-0.5c0.3 0 0.5 0.2 0.5 0.5z"/><path class="b" d="m117 35v0.5h-0.6c0-0.3 0.2-0.5 0.6-0.5z"/><path class="b" d="m114.8 32.8c0 0.3-0.3 0.5-0.6 0.5-0.3 0-0.5-0.2-0.5-0.5 0-0.3 0.2-0.6 0.5-0.6 0.3 0 0.6 0.3 0.6 0.6z"/></g><g clip-path="url(#cp7)"><path class="b" d="m111.5 35.5h5.5v5.5h-5.5z"/><path class="b" d="m112 35.5c0 0.3-0.2 0.6-0.5 0.6v-0.6z"/><path class="b" d="m117 35.5v0.6c-0.4 0-0.6-0.3-0.6-0.6z"/><path class="b" d="m112 41h-0.5v-0.5c0.3 0 0.5 0.2 0.5 0.5z"/><path class="b" d="m117 40.5v0.5h-0.6c0-0.3 0.2-0.5 0.6-0.5z"/><path class="b" d="m114.8 38.3c0 0.3-0.3 0.5-0.6 0.5-0.3 0-0.5-0.2-0.5-0.5 0-0.3 0.2-0.6 0.5-0.6 0.3 0 0.6 0.3 0.6 0.6z"/></g><g clip-path="url(#cp8)"><path class="b" d="m111.5 41h5.5v5.5h-5.5z"/><path class="b" d="m112 41c0 0.3-0.2 0.5-0.5 0.5v-0.5z"/><path class="b" d="m117 41v0.5c-0.4 0-0.6-0.2-0.6-0.5z"/><path class="b" d="m112 46.5h-0.5v-0.6c0.3 0 0.5 0.2 0.5 0.6z"/><path class="b" d="m117 45.9v0.6h-0.6c0-0.4 0.2-0.6 0.6-0.6z"/><path class="b" d="m114.8 43.7c0 0.3-0.3 0.6-0.6 0.6-0.3 0-0.5-0.3-0.5-0.6 0-0.3 0.2-0.5 0.5-0.5 0.3 0 0.6 0.2 0.6 0.5z"/></g><g clip-path="url(#cp9)"><path class="b" d="m111.5 46.5h5.5v5.4h-5.5z"/><path class="b" d="m112 46.5c0 0.2-0.2 0.5-0.5 0.5v-0.5z"/><path class="b" d="m117 46.5v0.5c-0.4 0-0.6-0.3-0.6-0.5z"/><path class="b" d="m112 51.9h-0.5v-0.5c0.3 0 0.5 0.2 0.5 0.5z"/><path class="b" d="m117 51.4v0.5h-0.6c0-0.3 0.2-0.5 0.6-0.5z"/><path class="b" d="m114.8 49.2c0 0.3-0.3 0.5-0.6 0.5-0.3 0-0.5-0.2-0.5-0.5 0-0.3 0.2-0.6 0.5-0.6 0.3 0 0.6 0.3 0.6 0.6z"/></g><g clip-path="url(#cp10)"><path class="b" d="m111.5 51.9h5.5v5.5h-5.5z"/><path class="b" d="m112 51.9c0 0.3-0.2 0.6-0.5 0.6v-0.6z"/><path class="b" d="m117 51.9v0.6c-0.4 0-0.6-0.3-0.6-0.6z"/><path class="b" d="m112 57.4h-0.5v-0.5c0.3 0 0.5 0.2 0.5 0.5z"/><path class="b" d="m117 56.9v0.5h-0.6c0-0.3 0.2-0.5 0.6-0.5z"/><path class="b" d="m114.8 54.7c0 0.3-0.3 0.5-0.6 0.5-0.3 0-0.5-0.2-0.5-0.5 0-0.3 0.2-0.6 0.5-0.6 0.3 0 0.6 0.3 0.6 0.6z"/></g><g clip-path="url(#cp11)"><path class="b" d="m106 2.7h5.5v5.5h-5.5z"/><path class="b" d="m106.6 2.7c0 0.3-0.3 0.5-0.6 0.5v-0.5z"/><path class="b" d="m111.5 2.7v0.5c-0.3 0-0.6-0.2-0.6-0.5z"/><path class="b" d="m106.6 8.2h-0.6v-0.6c0.3 0 0.6 0.3 0.6 0.6z"/><path class="b" d="m111.5 7.6v0.6h-0.6c0-0.3 0.3-0.6 0.6-0.6z"/><path class="b" d="m109.3 5.4c0 0.3-0.2 0.6-0.6 0.6-0.3 0-0.5-0.3-0.5-0.6 0-0.3 0.2-0.5 0.5-0.5 0.3 0 0.6 0.2 0.6 0.5z"/></g><g clip-path="url(#cp12)"><path class="b" d="m106 8.2h5.5v5.4h-5.5z"/><path class="b" d="m106.6 8.2c0 0.2-0.3 0.5-0.6 0.5v-0.5z"/><path class="b" d="m111.5 8.2v0.5c-0.3 0-0.6-0.2-0.6-0.5z"/><path class="b" d="m106.6 13.7h-0.6v-0.6c0.3 0 0.6 0.2 0.6 0.6z"/><path class="b" d="m111.5 13.1v0.6h-0.6c0-0.4 0.3-0.6 0.6-0.6z"/><path class="b" d="m108.7 11.4c-0.3 0-0.5-0.2-0.5-0.5 0-0.3 0.2-0.6 0.5-0.6 0.3 0 0.6 0.3 0.6 0.6 0 0.3-0.3 0.5-0.6 0.5z"/></g><g clip-path="url(#cp13)"><path class="b" d="m106 13.7h5.5v5.4h-5.5z"/><path class="b" d="m106.6 13.7c0 0.2-0.3 0.5-0.6 0.5v-0.5z"/><path class="b" d="m111.5 13.7v0.5c-0.3 0-0.6-0.3-0.6-0.5z"/><path class="b" d="m106.6 19.1h-0.6v-0.5c0.3 0 0.6 0.2 0.6 0.5z"/><path class="b" d="m111.5 18.6v0.5h-0.6c0-0.3 0.3-0.5 0.6-0.5z"/><path class="b" d="m109.3 16.4c0 0.3-0.2 0.5-0.6 0.5-0.3 0-0.5-0.2-0.5-0.5 0-0.3 0.2-0.6 0.5-0.6 0.3 0 0.6 0.3 0.6 0.6z"/></g><g clip-path="url(#cp14)"><path class="b" d="m106 19.1h5.5v5.5h-5.5z"/><path class="b" d="m106.6 19.1c0 0.3-0.3 0.6-0.6 0.6v-0.6z"/><path class="b" d="m111.5 19.1v0.6c-0.3 0-0.6-0.3-0.6-0.6z"/><path class="b" d="m106.6 24.6h-0.6v-0.6c0.3 0 0.6 0.3 0.6 0.6z"/><path class="b" d="m111.5 24v0.6h-0.6c0-0.3 0.3-0.6 0.6-0.6z"/><path class="b" d="m109.3 21.8c0 0.3-0.2 0.6-0.6 0.6-0.3 0-0.5-0.2-0.5-0.6 0-0.3 0.2-0.5 0.5-0.5 0.3 0 0.6 0.2 0.6 0.5z"/></g><g clip-path="url(#cp15)"><path class="b" d="m106 24.6h5.5v5.5h-5.5z"/><path class="b" d="m106.6 24.6c0 0.3-0.3 0.5-0.6 0.5v-0.5z"/><path class="b" d="m111.5 24.6v0.5c-0.3 0-0.6-0.2-0.6-0.5z"/><path class="b" d="m106.6 30.1h-0.6v-0.6c0.3 0 0.6 0.2 0.6 0.6z"/><path class="b" d="m111.5 29.5v0.6h-0.6c0-0.4 0.3-0.6 0.6-0.6z"/><path class="b" d="m109.3 27.3c0 0.3-0.2 0.6-0.6 0.6-0.3 0-0.5-0.3-0.5-0.6 0-0.3 0.2-0.5 0.5-0.5 0.3 0 0.6 0.2 0.6 0.5z"/></g><g clip-path="url(#cp16)"><path class="b" d="m106 30.1h5.5v5.4h-5.5z"/><path class="b" d="m106.6 30.1c0 0.2-0.3 0.5-0.6 0.5v-0.5z"/><path class="b" d="m111.5 30.1v0.5c-0.3 0-0.6-0.3-0.6-0.5z"/><path class="b" d="m106.6 35.5h-0.6v-0.5c0.3 0 0.6 0.2 0.6 0.5z"/><path class="b" d="m111.5 35v0.5h-0.6c0-0.3 0.3-0.5 0.6-0.5z"/><path class="b" d="m109.3 32.8c0 0.3-0.2 0.5-0.6 0.5-0.3 0-0.5-0.2-0.5-0.5 0-0.3 0.2-0.6 0.5-0.6 0.3 0 0.6 0.3 0.6 0.6z"/></g><g clip-path="url(#cp17)"><path class="b" d="m106 35.5h5.5v5.5h-5.5z"/><path class="b" d="m106.6 35.5c0 0.3-0.3 0.6-0.6 0.6v-0.6z"/><path class="b" d="m111.5 35.5v0.6c-0.3 0-0.6-0.3-0.6-0.6z"/><path class="b" d="m106.6 41h-0.6v-0.5c0.3 0 0.6 0.2 0.6 0.5z"/><path class="b" d="m111.5 40.5v0.5h-0.6c0-0.3 0.3-0.5 0.6-0.5z"/><path class="b" d="m108.7 38.8c-0.3 0-0.5-0.2-0.5-0.5 0-0.4 0.2-0.6 0.5-0.6 0.3 0 0.6 0.2 0.6 0.6 0 0.3-0.3 0.5-0.6 0.5z"/></g><g clip-path="url(#cp18)"><path class="b" d="m106 41h5.5v5.5h-5.5z"/><path class="b" d="m106.6 41c0 0.3-0.3 0.5-0.6 0.5v-0.5z"/><path class="b" d="m111.5 41v0.5c-0.3 0-0.6-0.2-0.6-0.5z"/><path class="b" d="m106.6 46.5h-0.6v-0.6c0.3 0 0.6 0.2 0.6 0.6z"/><path class="b" d="m111.5 45.9v0.6h-0.6c0-0.4 0.3-0.6 0.6-0.6z"/><path class="b" d="m109.3 43.7c0 0.3-0.2 0.6-0.6 0.6-0.3 0-0.5-0.3-0.5-0.6 0-0.3 0.2-0.5 0.5-0.5 0.3 0 0.6 0.2 0.6 0.5z"/></g><g clip-path="url(#cp19)"><path class="b" d="m106 46.5h5.5v5.4h-5.5z"/><path class="b" d="m106.6 46.5c0 0.2-0.3 0.5-0.6 0.5v-0.5z"/><path class="b" d="m111.5 46.5v0.5c-0.3 0-0.6-0.3-0.6-0.5z"/><path class="b" d="m106.6 51.9h-0.6v-0.5c0.3 0 0.6 0.2 0.6 0.5z"/><path class="b" d="m111.5 51.4v0.5h-0.6c0-0.3 0.3-0.5 0.6-0.5z"/><path class="b" d="m108.7 49.7c-0.3 0-0.5-0.2-0.5-0.5 0-0.3 0.2-0.6 0.5-0.6 0.3 0 0.6 0.3 0.6 0.6 0 0.3-0.3 0.5-0.6 0.5z"/></g><g clip-path="url(#cp20)"><path class="b" d="m106 51.9h5.5v5.5h-5.5z"/><path class="b" d="m106.6 51.9c0 0.3-0.3 0.6-0.6 0.6v-0.6z"/><path class="b" d="m111.5 51.9v0.6c-0.3 0-0.6-0.3-0.6-0.6z"/><path class="b" d="m106.6 57.4h-0.6v-0.5c0.3 0 0.6 0.2 0.6 0.5z"/><path class="b" d="m111.5 56.9v0.5h-0.6c0-0.3 0.3-0.5 0.6-0.5z"/><path class="b" d="m109.3 54.7c0 0.3-0.2 0.5-0.6 0.5-0.3 0-0.5-0.2-0.5-0.5 0-0.3 0.2-0.6 0.5-0.6 0.3 0 0.6 0.3 0.6 0.6z"/></g><g clip-path="url(#cp21)"><path class="b" d="m100.5 2.7h5.5v5.5h-5.5z"/><path class="b" d="m101.1 2.7c0 0.3-0.3 0.5-0.6 0.5v-0.5z"/><path class="b" d="m106 2.7v0.5c-0.3 0-0.5-0.2-0.5-0.5z"/><path class="b" d="m101.1 8.2h-0.6v-0.6c0.3 0 0.6 0.3 0.6 0.6z"/><path class="b" d="m106 7.6v0.6h-0.5c0-0.3 0.2-0.6 0.5-0.6z"/><path class="b" d="m103.8 5.4c0 0.3-0.2 0.6-0.5 0.6-0.3 0-0.6-0.3-0.6-0.6 0-0.3 0.3-0.5 0.6-0.5 0.3 0 0.5 0.2 0.5 0.5z"/></g><g clip-path="url(#cp22)"><path class="b" d="m100.5 8.2h5.5v5.4h-5.5z"/><path class="b" d="m101.1 8.2c0 0.2-0.3 0.5-0.6 0.5v-0.5z"/><path class="b" d="m106 8.2v0.5c-0.3 0-0.5-0.2-0.5-0.5z"/><path class="b" d="m101.1 13.7h-0.6v-0.6c0.3 0 0.6 0.2 0.6 0.6z"/><path class="b" d="m106 13.1v0.6h-0.5c0-0.4 0.2-0.6 0.5-0.6z"/><path class="b" d="m103.8 10.9c0 0.3-0.2 0.6-0.5 0.6-0.3 0-0.6-0.3-0.6-0.6 0-0.3 0.3-0.6 0.6-0.6 0.3 0 0.5 0.3 0.5 0.6z"/></g><g clip-path="url(#cp23)"><path class="b" d="m100.5 13.7h5.5v5.4h-5.5z"/><path class="b" d="m101.1 13.7c0 0.2-0.3 0.5-0.6 0.5v-0.5z"/><path class="b" d="m106 13.7v0.5c-0.3 0-0.5-0.3-0.5-0.5z"/><path class="b" d="m101.1 19.1h-0.6v-0.5c0.3 0 0.6 0.2 0.6 0.5z"/><path class="b" d="m106 18.6v0.5h-0.5c0-0.3 0.2-0.5 0.5-0.5z"/><path class="b" d="m103.8 16.4c0 0.3-0.2 0.5-0.5 0.5-0.3 0-0.6-0.2-0.6-0.5 0-0.3 0.3-0.6 0.6-0.6 0.3 0 0.5 0.3 0.5 0.6z"/></g><g clip-path="url(#cp24)"><path class="b" d="m100.5 19.1h5.5v5.5h-5.5z"/><path class="b" d="m101.1 19.1c0 0.3-0.3 0.6-0.6 0.6v-0.6z"/><path class="b" d="m106 19.1v0.6c-0.3 0-0.5-0.3-0.5-0.6z"/><path class="b" d="m101.1 24.6h-0.6v-0.6c0.3 0 0.6 0.3 0.6 0.6z"/><path class="b" d="m106 24v0.6h-0.5c0-0.3 0.2-0.6 0.5-0.6z"/><path class="b" d="m103.8 21.8c0 0.3-0.2 0.6-0.5 0.6-0.3 0-0.6-0.2-0.6-0.6 0-0.3 0.3-0.5 0.6-0.5 0.3 0 0.5 0.2 0.5 0.5z"/></g><g clip-path="url(#cp25)"><path class="b" d="m100.5 24.6h5.5v5.5h-5.5z"/><path class="b" d="m101.1 24.6c0 0.3-0.3 0.5-0.6 0.5v-0.5z"/><path class="b" d="m106 24.6v0.5c-0.3 0-0.5-0.2-0.5-0.5z"/><path class="b" d="m101.1 30.1h-0.6v-0.6c0.3 0 0.6 0.2 0.6 0.6z"/><path class="b" d="m106 29.5v0.6h-0.5c0-0.4 0.2-0.6 0.5-0.6z"/><path class="b" d="m103.8 27.3c0 0.3-0.2 0.6-0.5 0.6-0.3 0-0.6-0.3-0.6-0.6 0-0.3 0.3-0.5 0.6-0.5 0.3 0 0.5 0.2 0.5 0.5z"/></g><g clip-path="url(#cp26)"><path class="b" d="m100.5 30.1h5.5v5.4h-5.5z"/><path class="b" d="m101.1 30.1c0 0.2-0.3 0.5-0.6 0.5v-0.5z"/><path class="b" d="m106 30.1v0.5c-0.3 0-0.5-0.3-0.5-0.5z"/><path class="b" d="m101.1 35.5h-0.6v-0.5c0.3 0 0.6 0.2 0.6 0.5z"/><path class="b" d="m106 35v0.5h-0.5c0-0.3 0.2-0.5 0.5-0.5z"/><path class="b" d="m103.8 32.8c0 0.3-0.2 0.5-0.5 0.5-0.3 0-0.6-0.2-0.6-0.5 0-0.3 0.3-0.6 0.6-0.6 0.3 0 0.5 0.3 0.5 0.6z"/></g><g clip-path="url(#cp27)"><path class="b" d="m100.5 35.5h5.5v5.5h-5.5z"/><path class="b" d="m101.1 35.5c0 0.3-0.3 0.6-0.6 0.6v-0.6z"/><path class="b" d="m106 35.5v0.6c-0.3 0-0.5-0.3-0.5-0.6z"/><path class="b" d="m101.1 41h-0.6v-0.5c0.3 0 0.6 0.2 0.6 0.5z"/><path class="b" d="m106 40.5v0.5h-0.5c0-0.3 0.2-0.5 0.5-0.5z"/><path class="b" d="m103.8 38.3c0 0.3-0.2 0.5-0.5 0.5-0.3 0-0.6-0.2-0.6-0.5 0-0.3 0.3-0.6 0.6-0.6 0.3 0 0.5 0.3 0.5 0.6z"/></g><g clip-path="url(#cp28)"><path class="b" d="m100.5 41h5.5v5.5h-5.5z"/><path class="b" d="m101.1 41c0 0.3-0.3 0.5-0.6 0.5v-0.5z"/><path class="b" d="m106 41v0.5c-0.3 0-0.5-0.2-0.5-0.5z"/><path class="b" d="m101.1 46.5h-0.6v-0.6c0.3 0 0.6 0.2 0.6 0.6z"/><path class="b" d="m106 45.9v0.6h-0.5c0-0.4 0.2-0.6 0.5-0.6z"/><path class="b" d="m103.8 43.7c0 0.3-0.2 0.6-0.5 0.6-0.3 0-0.6-0.3-0.6-0.6 0-0.3 0.3-0.5 0.6-0.5 0.3 0 0.5 0.2 0.5 0.5z"/></g><g clip-path="url(#cp29)"><path class="b" d="m100.5 46.5h5.5v5.4h-5.5z"/><path class="b" d="m101.1 46.5c0 0.2-0.3 0.5-0.6 0.5v-0.5z"/><path class="b" d="m106 46.5v0.5c-0.3 0-0.5-0.3-0.5-0.5z"/><path class="b" d="m101.1 51.9h-0.6v-0.5c0.3 0 0.6 0.2 0.6 0.5z"/><path class="b" d="m106 51.4v0.5h-0.5c0-0.3 0.2-0.5 0.5-0.5z"/><path class="b" d="m103.8 49.2c0 0.3-0.2 0.5-0.5 0.5-0.3 0-0.6-0.2-0.6-0.5 0-0.3 0.3-0.6 0.6-0.6 0.3 0 0.5 0.3 0.5 0.6z"/></g><g clip-path="url(#cp30)"><path class="b" d="m100.5 51.9h5.5v5.5h-5.5z"/><path class="b" d="m101.1 51.9c0 0.3-0.3 0.6-0.6 0.6v-0.6z"/><path class="b" d="m106 51.9v0.6c-0.3 0-0.5-0.3-0.5-0.6z"/><path class="b" d="m101.1 57.4h-0.6v-0.5c0.3 0 0.6 0.2 0.6 0.5z"/><path class="b" d="m106 56.9v0.5h-0.5c0-0.3 0.2-0.5 0.5-0.5z"/><path class="b" d="m103.8 54.7c0 0.3-0.2 0.5-0.5 0.5-0.3 0-0.6-0.2-0.6-0.5 0-0.3 0.3-0.6 0.6-0.6 0.3 0 0.5 0.3 0.5 0.6z"/></g><g clip-path="url(#cp31)"><path class="b" d="m95.1 2.7h5.4v5.5h-5.4z"/><path class="b" d="m95.6 2.7c0 0.3-0.2 0.5-0.5 0.5v-0.5z"/><path class="b" d="m100.5 2.7v0.5c-0.3 0-0.5-0.2-0.5-0.5z"/><path class="b" d="m95.6 8.2h-0.5v-0.6c0.3 0 0.5 0.3 0.5 0.6z"/><path class="b" d="m100.5 7.6v0.6h-0.5c0-0.3 0.2-0.6 0.5-0.6z"/><path class="b" d="m98.3 5.4c0 0.3-0.2 0.6-0.5 0.6-0.3 0-0.5-0.3-0.5-0.6 0-0.3 0.2-0.5 0.5-0.5 0.3 0 0.5 0.2 0.5 0.5z"/></g><g clip-path="url(#cp32)"><path class="b" d="m95.1 8.2h5.4v5.4h-5.4z"/><path class="b" d="m95.6 8.2c0 0.2-0.2 0.5-0.5 0.5v-0.5z"/><path class="b" d="m100.5 8.2v0.5c-0.3 0-0.5-0.2-0.5-0.5z"/><path class="b" d="m95.6 13.7h-0.5v-0.6c0.3 0 0.5 0.2 0.5 0.6z"/><path class="b" d="m100.5 13.1v0.6h-0.5c0-0.4 0.2-0.6 0.5-0.6z"/><path class="b" d="m98.3 10.9c0 0.3-0.2 0.6-0.5 0.6-0.3 0-0.5-0.3-0.5-0.6 0-0.3 0.2-0.6 0.5-0.6 0.3 0 0.5 0.3 0.5 0.6z"/></g><g clip-path="url(#cp33)"><path class="b" d="m95.1 13.7h5.4v5.4h-5.4z"/><path class="b" d="m95.6 13.7c0 0.2-0.2 0.5-0.5 0.5v-0.5z"/><path class="b" d="m100.5 13.7v0.5c-0.3 0-0.5-0.3-0.5-0.5z"/><path class="b" d="m95.6 19.1h-0.5v-0.5c0.3 0 0.5 0.2 0.5 0.5z"/><path class="b" d="m100.5 18.6v0.5h-0.5c0-0.3 0.2-0.5 0.5-0.5z"/><path class="b" d="m98.3 16.4c0 0.3-0.2 0.5-0.5 0.5-0.3 0-0.5-0.2-0.5-0.5 0-0.3 0.2-0.6 0.5-0.6 0.3 0 0.5 0.3 0.5 0.6z"/></g><g clip-path="url(#cp34)"><path class="b" d="m95.1 19.1h5.4v5.5h-5.4z"/><path class="b" d="m95.6 19.1c0 0.3-0.2 0.6-0.5 0.6v-0.6z"/><path class="b" d="m100.5 19.1v0.6c-0.3 0-0.5-0.3-0.5-0.6z"/><path class="b" d="m95.6 24.6h-0.5v-0.6c0.3 0 0.5 0.3 0.5 0.6z"/><path class="b" d="m100.5 24v0.6h-0.5c0-0.3 0.2-0.6 0.5-0.6z"/><path class="b" d="m98.3 21.8c0 0.3-0.2 0.6-0.5 0.6-0.3 0-0.5-0.2-0.5-0.6 0-0.3 0.2-0.5 0.5-0.5 0.3 0 0.5 0.2 0.5 0.5z"/></g><g clip-path="url(#cp35)"><path class="b" d="m95.1 24.6h5.4v5.5h-5.4z"/><path class="b" d="m95.6 24.6c0 0.3-0.2 0.5-0.5 0.5v-0.5z"/><path class="b" d="m100.5 24.6v0.5c-0.3 0-0.5-0.2-0.5-0.5z"/><path class="b" d="m95.6 30.1h-0.5v-0.6c0.3 0 0.5 0.2 0.5 0.6z"/><path class="b" d="m100.5 29.5v0.6h-0.5c0-0.4 0.2-0.6 0.5-0.6z"/><path class="b" d="m98.3 27.3c0 0.3-0.2 0.6-0.5 0.6-0.3 0-0.5-0.3-0.5-0.6 0-0.3 0.2-0.5 0.5-0.5 0.3 0 0.5 0.2 0.5 0.5z"/></g><g clip-path="url(#cp36)"><path class="b" d="m95.1 30.1h5.4v5.4h-5.4z"/><path class="b" d="m95.6 30.1c0 0.2-0.2 0.5-0.5 0.5v-0.5z"/><path class="b" d="m100.5 30.1v0.5c-0.3 0-0.5-0.3-0.5-0.5z"/><path class="b" d="m95.6 35.5h-0.5v-0.5c0.3 0 0.5 0.2 0.5 0.5z"/><path class="b" d="m100.5 35v0.5h-0.5c0-0.3 0.2-0.5 0.5-0.5z"/><path class="b" d="m98.3 32.8c0 0.3-0.2 0.5-0.5 0.5-0.3 0-0.5-0.2-0.5-0.5 0-0.3 0.2-0.6 0.5-0.6 0.3 0 0.5 0.3 0.5 0.6z"/></g><g clip-path="url(#cp37)"><path class="b" d="m95.1 35.5h5.4v5.5h-5.4z"/><path class="b" d="m95.6 35.5c0 0.3-0.2 0.6-0.5 0.6v-0.6z"/><path class="b" d="m100.5 35.5v0.6c-0.3 0-0.5-0.3-0.5-0.6z"/><path class="b" d="m95.6 41h-0.5v-0.5c0.3 0 0.5 0.2 0.5 0.5z"/><path class="b" d="m100.5 40.5v0.5h-0.5c0-0.3 0.2-0.5 0.5-0.5z"/><path class="b" d="m98.3 38.3c0 0.3-0.2 0.5-0.5 0.5-0.3 0-0.5-0.2-0.5-0.5 0-0.3 0.2-0.6 0.5-0.6 0.3 0 0.5 0.3 0.5 0.6z"/></g><g clip-path="url(#cp38)"><path class="b" d="m95.1 41h5.4v5.5h-5.4z"/><path class="b" d="m95.6 41c0 0.3-0.2 0.5-0.5 0.5v-0.5z"/><path class="b" d="m100.5 41v0.5c-0.3 0-0.5-0.2-0.5-0.5z"/><path class="b" d="m95.6 46.5h-0.5v-0.6c0.3 0 0.5 0.2 0.5 0.6z"/><path class="b" d="m100.5 45.9v0.6h-0.5c0-0.4 0.2-0.6 0.5-0.6z"/><path class="b" d="m98.3 43.7c0 0.3-0.2 0.6-0.5 0.6-0.3 0-0.5-0.3-0.5-0.6 0-0.3 0.2-0.5 0.5-0.5 0.3 0 0.5 0.2 0.5 0.5z"/></g><g clip-path="url(#cp39)"><path class="b" d="m95.1 46.5h5.4v5.4h-5.4z"/><path class="b" d="m95.6 46.5c0 0.2-0.2 0.5-0.5 0.5v-0.5z"/><path class="b" d="m100.5 46.5v0.5c-0.3 0-0.5-0.3-0.5-0.5z"/><path class="b" d="m95.6 51.9h-0.5v-0.5c0.3 0 0.5 0.2 0.5 0.5z"/><path class="b" d="m100.5 51.4v0.5h-0.5c0-0.3 0.2-0.5 0.5-0.5z"/><path class="b" d="m98.3 49.2c0 0.3-0.2 0.5-0.5 0.5-0.3 0-0.5-0.2-0.5-0.5 0-0.3 0.2-0.6 0.5-0.6 0.3 0 0.5 0.3 0.5 0.6z"/></g><g clip-path="url(#cp40)"><path class="b" d="m95.1 51.9h5.4v5.5h-5.4z"/><path class="b" d="m95.6 51.9c0 0.3-0.2 0.6-0.5 0.6v-0.6z"/><path class="b" d="m100.5 51.9v0.6c-0.3 0-0.5-0.3-0.5-0.6z"/><path class="b" d="m95.6 57.4h-0.5v-0.5c0.3 0 0.5 0.2 0.5 0.5z"/><path class="b" d="m100.5 56.9v0.5h-0.5c0-0.3 0.2-0.5 0.5-0.5z"/><path class="b" d="m98.3 54.7c0 0.3-0.2 0.5-0.5 0.5-0.3 0-0.5-0.2-0.5-0.5 0-0.3 0.2-0.6 0.5-0.6 0.3 0 0.5 0.3 0.5 0.6z"/></g><g clip-path="url(#cp41)"><path class="b" d="m89.6 2.7h5.5v5.5h-5.5z"/><path class="b" d="m90.2 2.7c0 0.3-0.3 0.5-0.6 0.5v-0.5z"/><path class="b" d="m95.1 2.7v0.5c-0.4 0-0.6-0.2-0.6-0.5z"/><path class="b" d="m90.2 8.2h-0.6v-0.6c0.3 0 0.6 0.3 0.6 0.6z"/><path class="b" d="m95.1 7.6v0.6h-0.6c0-0.3 0.3-0.6 0.6-0.6z"/><path class="b" d="m92.9 5.4c0 0.3-0.3 0.6-0.6 0.6-0.3 0-0.5-0.3-0.5-0.6 0-0.3 0.2-0.5 0.5-0.5 0.3 0 0.6 0.2 0.6 0.5z"/></g><g clip-path="url(#cp42)"><path class="b" d="m89.6 8.2h5.5v5.4h-5.5z"/><path class="b" d="m90.2 8.2c0 0.2-0.3 0.5-0.6 0.5v-0.5z"/><path class="b" d="m95.1 8.2v0.5c-0.4 0-0.6-0.2-0.6-0.5z"/><path class="b" d="m90.2 13.7h-0.6v-0.6c0.3 0 0.6 0.2 0.6 0.6z"/><path class="b" d="m95.1 13.1v0.6h-0.6c0-0.4 0.3-0.6 0.6-0.6z"/><path class="b" d="m92.9 10.9c0 0.3-0.3 0.6-0.6 0.6-0.3 0-0.5-0.3-0.5-0.6 0-0.3 0.2-0.6 0.5-0.6 0.3 0 0.6 0.3 0.6 0.6z"/></g><g clip-path="url(#cp43)"><path class="b" d="m89.6 13.7h5.5v5.4h-5.5z"/><path class="b" d="m90.2 13.7c0 0.2-0.3 0.5-0.6 0.5v-0.5z"/><path class="b" d="m95.1 13.7v0.5c-0.4 0-0.6-0.3-0.6-0.5z"/><path class="b" d="m90.2 19.1h-0.6v-0.5c0.3 0 0.6 0.2 0.6 0.5z"/><path class="b" d="m95.1 18.6v0.5h-0.6c0-0.3 0.3-0.5 0.6-0.5z"/><path class="b" d="m92.9 16.4c0 0.3-0.3 0.5-0.6 0.5-0.3 0-0.5-0.2-0.5-0.5 0-0.3 0.2-0.6 0.5-0.6 0.3 0 0.6 0.3 0.6 0.6z"/></g><g clip-path="url(#cp44)"><path class="b" d="m89.6 19.1h5.5v5.5h-5.5z"/><path class="b" d="m90.2 19.1c0 0.3-0.3 0.6-0.6 0.6v-0.6z"/><path class="b" d="m95.1 19.1v0.6c-0.4 0-0.6-0.3-0.6-0.6z"/><path class="b" d="m90.2 24.6h-0.6v-0.6c0.3 0 0.6 0.3 0.6 0.6z"/><path class="b" d="m95.1 24v0.6h-0.6c0-0.3 0.3-0.6 0.6-0.6z"/><path class="b" d="m92.9 21.8c0 0.3-0.3 0.6-0.6 0.6-0.3 0-0.5-0.2-0.5-0.6 0-0.3 0.2-0.5 0.5-0.5 0.3 0 0.6 0.2 0.6 0.5z"/></g><g clip-path="url(#cp45)"><path class="b" d="m89.6 24.6h5.5v5.5h-5.5z"/><path class="b" d="m90.2 24.6c0 0.3-0.3 0.5-0.6 0.5v-0.5z"/><path class="b" d="m95.1 24.6v0.5c-0.4 0-0.6-0.2-0.6-0.5z"/><path class="b" d="m90.2 30.1h-0.6v-0.6c0.3 0 0.6 0.2 0.6 0.6z"/><path class="b" d="m95.1 29.5v0.6h-0.6c0-0.4 0.3-0.6 0.6-0.6z"/><path class="b" d="m92.9 27.3c0 0.3-0.3 0.6-0.6 0.6-0.3 0-0.5-0.3-0.5-0.6 0-0.3 0.2-0.5 0.5-0.5 0.3 0 0.6 0.2 0.6 0.5z"/></g><g clip-path="url(#cp46)"><path class="b" d="m89.6 30.1h5.5v5.4h-5.5z"/><path class="b" d="m90.2 30.1c0 0.2-0.3 0.5-0.6 0.5v-0.5z"/><path class="b" d="m95.1 30.1v0.5c-0.4 0-0.6-0.3-0.6-0.5z"/><path class="b" d="m90.2 35.5h-0.6v-0.5c0.3 0 0.6 0.2 0.6 0.5z"/><path class="b" d="m95.1 35v0.5h-0.6c0-0.3 0.3-0.5 0.6-0.5z"/><path class="b" d="m92.9 32.8c0 0.3-0.3 0.5-0.6 0.5-0.3 0-0.5-0.2-0.5-0.5 0-0.3 0.2-0.6 0.5-0.6 0.3 0 0.6 0.3 0.6 0.6z"/></g><g clip-path="url(#cp47)"><path class="b" d="m89.6 35.5h5.5v5.5h-5.5z"/><path class="b" d="m90.2 35.5c0 0.3-0.3 0.6-0.6 0.6v-0.6z"/><path class="b" d="m95.1 35.5v0.6c-0.4 0-0.6-0.3-0.6-0.6z"/><path class="b" d="m90.2 41h-0.6v-0.5c0.3 0 0.6 0.2 0.6 0.5z"/><path class="b" d="m95.1 40.5v0.5h-0.6c0-0.3 0.3-0.5 0.6-0.5z"/><path class="b" d="m92.9 38.3c0 0.3-0.3 0.5-0.6 0.5-0.3 0-0.5-0.2-0.5-0.5 0-0.3 0.2-0.6 0.5-0.6 0.3 0 0.6 0.3 0.6 0.6z"/></g><g clip-path="url(#cp48)"><path class="b" d="m89.6 41h5.5v5.5h-5.5z"/><path class="b" d="m90.2 41c0 0.3-0.3 0.5-0.6 0.5v-0.5z"/><path class="b" d="m95.1 41v0.5c-0.4 0-0.6-0.2-0.6-0.5z"/><path class="b" d="m90.2 46.5h-0.6v-0.6c0.3 0 0.6 0.2 0.6 0.6z"/><path class="b" d="m95.1 45.9v0.6h-0.6c0-0.4 0.3-0.6 0.6-0.6z"/><path class="b" d="m92.9 43.7c0 0.3-0.3 0.6-0.6 0.6-0.3 0-0.5-0.3-0.5-0.6 0-0.3 0.2-0.5 0.5-0.5 0.3 0 0.6 0.2 0.6 0.5z"/></g><g clip-path="url(#cp49)"><path class="b" d="m89.6 46.5h5.5v5.4h-5.5z"/><path class="b" d="m90.2 46.5c0 0.2-0.3 0.5-0.6 0.5v-0.5z"/><path class="b" d="m95.1 46.5v0.5c-0.4 0-0.6-0.3-0.6-0.5z"/><path class="b" d="m90.2 51.9h-0.6v-0.5c0.3 0 0.6 0.2 0.6 0.5z"/><path class="b" d="m95.1 51.4v0.5h-0.6c0-0.3 0.3-0.5 0.6-0.5z"/><path class="b" d="m92.9 49.2c0 0.3-0.3 0.5-0.6 0.5-0.3 0-0.5-0.2-0.5-0.5 0-0.3 0.2-0.6 0.5-0.6 0.3 0 0.6 0.3 0.6 0.6z"/></g><g clip-path="url(#cp50)"><path class="b" d="m89.6 51.9h5.5v5.5h-5.5z"/><path class="b" d="m90.2 51.9c0 0.3-0.3 0.6-0.6 0.6v-0.6z"/><path class="b" d="m95.1 51.9v0.6c-0.4 0-0.6-0.3-0.6-0.6z"/><path class="b" d="m90.2 57.4h-0.6v-0.5c0.3 0 0.6 0.2 0.6 0.5z"/><path class="b" d="m95.1 56.9v0.5h-0.6c0-0.3 0.3-0.5 0.6-0.5z"/><path class="b" d="m92.9 54.7c0 0.3-0.3 0.5-0.6 0.5-0.3 0-0.5-0.2-0.5-0.5 0-0.3 0.2-0.6 0.5-0.6 0.3 0 0.6 0.3 0.6 0.6z"/></g><path fill-rule="evenodd" class="c" d="m100 53.8v-34.3l-10 8.7v-13.7l10.5-9.1h11.9v48.4zm10.8-1.7v-45h-9.7l-9.4 8.2v9.3l10-8.7v36.2z"/></svg>