<?xml version="1.0" encoding="utf-8"?>
<!-- Generator: Adobe Illustrator 24.1.2, SVG Export Plug-In . SVG Version: 6.00 Build 0)  -->
<svg version="1.1" id="Layer_1" xmlns="http://www.w3.org/2000/svg" xmlns:xlink="http://www.w3.org/1999/xlink" x="0px" y="0px"
	 viewBox="0 0 121.43 61.97" style="enable-background:new 0 0 121.43 61.97;" xml:space="preserve">
<style type="text/css">
	.st0{fill:#F3F3F5;}
	.st1{clip-path:url(#SVGID_2_);}
	.st2{fill:#00ABC8;}
	.st3{fill:#0075A3;}
</style>
<g>
	<g>
		<g>
			<path class="st0" d="M105.16,57.3V22.06l-9.98,8.66V19.24l9.98-8.66h10.76V57.3H105.16z"/>
		</g>
	</g>
	<g>
		<defs>
			<path id="SVGID_1_" d="M100.83,52.96V17.73l-9.98,8.66V14.91l9.98-8.66h10.76v46.72H100.83z"/>
		</defs>
		<clipPath id="SVGID_2_">
			<use xlink:href="#SVGID_1_"  style="overflow:visible;"/>
		</clipPath>
		<g class="st1">
			<rect x="111.49" y="2.7" class="st2" width="5.47" height="5.47"/>
			<path class="st2" d="M112.04,2.7c0,0.27-0.27,0.55-0.55,0.55V2.7H112.04z"/>
			<path class="st2" d="M116.96,2.7v0.55c-0.33,0-0.55-0.27-0.55-0.55H116.96z"/>
			<path class="st2" d="M112.04,8.17h-0.55V7.63C111.76,7.63,112.04,7.85,112.04,8.17z"/>
			<path class="st2" d="M116.96,7.63v0.55h-0.55C116.41,7.85,116.63,7.63,116.96,7.63z"/>
			<path class="st2" d="M114.76,5.42c0,0.3-0.24,0.55-0.55,0.55c-0.3,0-0.55-0.24-0.55-0.55c0-0.3,0.24-0.55,0.55-0.55
				C114.51,4.88,114.76,5.12,114.76,5.42z"/>
		</g>
		<g class="st1">
			<rect x="111.49" y="8.17" class="st2" width="5.47" height="5.47"/>
			<path class="st2" d="M112.04,8.17c0,0.27-0.27,0.55-0.55,0.55V8.17H112.04z"/>
			<path class="st2" d="M116.96,8.17v0.55c-0.33,0-0.55-0.27-0.55-0.55H116.96z"/>
			<path class="st2" d="M112.04,13.65h-0.55V13.1C111.76,13.1,112.04,13.32,112.04,13.65z"/>
			<path class="st2" d="M116.96,13.1v0.55h-0.55C116.41,13.32,116.63,13.1,116.96,13.1z"/>
			<path class="st2" d="M114.76,10.9c0,0.3-0.24,0.55-0.55,0.55c-0.3,0-0.55-0.24-0.55-0.55s0.24-0.55,0.55-0.55
				C114.51,10.35,114.76,10.59,114.76,10.9z"/>
		</g>
		<g class="st1">
			<rect x="111.49" y="13.65" class="st2" width="5.47" height="5.47"/>
			<path class="st2" d="M112.04,13.65c0,0.27-0.27,0.55-0.55,0.55v-0.55H112.04z"/>
			<path class="st2" d="M116.96,13.65v0.55c-0.33,0-0.55-0.27-0.55-0.55H116.96z"/>
			<path class="st2" d="M112.04,19.12h-0.55v-0.55C111.76,18.57,112.04,18.79,112.04,19.12z"/>
			<path class="st2" d="M116.96,18.57v0.55h-0.55C116.41,18.79,116.63,18.57,116.96,18.57z"/>
			<path class="st2" d="M114.76,16.37c0,0.3-0.24,0.55-0.55,0.55c-0.3,0-0.55-0.24-0.55-0.55s0.24-0.55,0.55-0.55
				C114.51,15.82,114.76,16.07,114.76,16.37z"/>
		</g>
		<g class="st1">
			<rect x="111.49" y="19.12" class="st2" width="5.47" height="5.47"/>
			<path class="st2" d="M112.04,19.12c0,0.27-0.27,0.55-0.55,0.55v-0.55H112.04z"/>
			<path class="st2" d="M116.96,19.12v0.55c-0.33,0-0.55-0.27-0.55-0.55H116.96z"/>
			<path class="st2" d="M112.04,24.59h-0.55v-0.55C111.76,24.04,112.04,24.26,112.04,24.59z"/>
			<path class="st2" d="M116.96,24.04v0.55h-0.55C116.41,24.26,116.63,24.04,116.96,24.04z"/>
			<path class="st2" d="M114.76,21.84c0,0.3-0.24,0.55-0.55,0.55c-0.3,0-0.55-0.24-0.55-0.55s0.24-0.55,0.55-0.55
				C114.51,21.29,114.76,21.54,114.76,21.84z"/>
		</g>
		<g class="st1">
			<rect x="111.49" y="24.59" class="st2" width="5.47" height="5.47"/>
			<path class="st2" d="M112.04,24.59c0,0.27-0.27,0.55-0.55,0.55v-0.55H112.04z"/>
			<path class="st2" d="M116.96,24.59v0.55c-0.33,0-0.55-0.27-0.55-0.55H116.96z"/>
			<path class="st2" d="M112.04,30.06h-0.55v-0.55C111.76,29.51,112.04,29.73,112.04,30.06z"/>
			<path class="st2" d="M116.96,29.51v0.55h-0.55C116.41,29.73,116.63,29.51,116.96,29.51z"/>
			<path class="st2" d="M114.76,27.31c0,0.3-0.24,0.55-0.55,0.55c-0.3,0-0.55-0.24-0.55-0.55c0-0.3,0.24-0.55,0.55-0.55
				C114.51,26.76,114.76,27.01,114.76,27.31z"/>
		</g>
		<g class="st1">
			<rect x="111.49" y="30.06" class="st2" width="5.47" height="5.47"/>
			<path class="st2" d="M112.04,30.06c0,0.27-0.27,0.55-0.55,0.55v-0.55H112.04z"/>
			<path class="st2" d="M116.96,30.06v0.55c-0.33,0-0.55-0.27-0.55-0.55H116.96z"/>
			<path class="st2" d="M112.04,35.53h-0.55v-0.55C111.76,34.98,112.04,35.2,112.04,35.53z"/>
			<path class="st2" d="M116.96,34.98v0.55h-0.55C116.41,35.2,116.63,34.98,116.96,34.98z"/>
			<path class="st2" d="M114.76,32.78c0,0.3-0.24,0.55-0.55,0.55c-0.3,0-0.55-0.24-0.55-0.55s0.24-0.55,0.55-0.55
				C114.51,32.23,114.76,32.48,114.76,32.78z"/>
		</g>
		<g class="st1">
			<rect x="111.49" y="35.53" class="st2" width="5.47" height="5.47"/>
			<path class="st2" d="M112.04,35.53c0,0.27-0.27,0.55-0.55,0.55v-0.55H112.04z"/>
			<path class="st2" d="M116.96,35.53v0.55c-0.33,0-0.55-0.27-0.55-0.55H116.96z"/>
			<path class="st2" d="M112.04,41h-0.55v-0.55C111.76,40.45,112.04,40.67,112.04,41z"/>
			<path class="st2" d="M116.96,40.45V41h-0.55C116.41,40.67,116.63,40.45,116.96,40.45z"/>
			<path class="st2" d="M114.76,38.25c0,0.3-0.24,0.55-0.55,0.55c-0.3,0-0.55-0.24-0.55-0.55c0-0.3,0.24-0.55,0.55-0.55
				C114.51,37.71,114.76,37.95,114.76,38.25z"/>
		</g>
		<g class="st1">
			<rect x="111.49" y="41" class="st2" width="5.47" height="5.47"/>
			<path class="st2" d="M112.04,41c0,0.27-0.27,0.55-0.55,0.55V41H112.04z"/>
			<path class="st2" d="M116.96,41v0.55c-0.33,0-0.55-0.27-0.55-0.55H116.96z"/>
			<path class="st2" d="M112.04,46.47h-0.55v-0.55C111.76,45.93,112.04,46.14,112.04,46.47z"/>
			<path class="st2" d="M116.96,45.93v0.55h-0.55C116.41,46.14,116.63,45.93,116.96,45.93z"/>
			<path class="st2" d="M114.76,43.72c0,0.3-0.24,0.55-0.55,0.55c-0.3,0-0.55-0.24-0.55-0.55c0-0.3,0.24-0.55,0.55-0.55
				C114.51,43.18,114.76,43.42,114.76,43.72z"/>
		</g>
		<g class="st1">
			<rect x="111.49" y="46.47" class="st2" width="5.47" height="5.47"/>
			<path class="st2" d="M112.04,46.47c0,0.27-0.27,0.55-0.55,0.55v-0.55H112.04z"/>
			<path class="st2" d="M116.96,46.47v0.55c-0.33,0-0.55-0.27-0.55-0.55H116.96z"/>
			<path class="st2" d="M112.04,51.94h-0.55V51.4C111.76,51.4,112.04,51.62,112.04,51.94z"/>
			<path class="st2" d="M116.96,51.4v0.55h-0.55C116.41,51.62,116.63,51.4,116.96,51.4z"/>
			<path class="st2" d="M114.76,49.19c0,0.3-0.24,0.55-0.55,0.55c-0.3,0-0.55-0.24-0.55-0.55s0.24-0.55,0.55-0.55
				C114.51,48.65,114.76,48.89,114.76,49.19z"/>
		</g>
		<g class="st1">
			<rect x="111.49" y="51.94" class="st2" width="5.47" height="5.47"/>
			<path class="st2" d="M112.04,51.94c0,0.27-0.27,0.55-0.55,0.55v-0.55H112.04z"/>
			<path class="st2" d="M116.96,51.94v0.55c-0.33,0-0.55-0.27-0.55-0.55H116.96z"/>
			<path class="st2" d="M112.04,57.42h-0.55v-0.55C111.76,56.87,112.04,57.09,112.04,57.42z"/>
			<path class="st2" d="M116.96,56.87v0.55h-0.55C116.41,57.09,116.63,56.87,116.96,56.87z"/>
			<path class="st2" d="M114.76,54.67c0,0.3-0.24,0.55-0.55,0.55c-0.3,0-0.55-0.24-0.55-0.55c0-0.3,0.24-0.55,0.55-0.55
				C114.51,54.12,114.76,54.36,114.76,54.67z"/>
		</g>
		<g class="st1">
			<rect x="106.02" y="2.7" class="st2" width="5.47" height="5.47"/>
			<path class="st2" d="M106.56,2.7c0,0.27-0.27,0.55-0.55,0.55V2.7H106.56z"/>
			<path class="st2" d="M111.49,2.7v0.55c-0.33,0-0.55-0.27-0.55-0.55H111.49z"/>
			<path class="st2" d="M106.56,8.17h-0.55V7.63C106.29,7.63,106.56,7.85,106.56,8.17z"/>
			<path class="st2" d="M111.49,7.63v0.55h-0.55C110.94,7.85,111.16,7.63,111.49,7.63z"/>
			<path class="st2" d="M109.29,5.42c0,0.3-0.24,0.55-0.55,0.55c-0.3,0-0.55-0.24-0.55-0.55c0-0.3,0.24-0.55,0.55-0.55
				C109.04,4.88,109.29,5.12,109.29,5.42z"/>
		</g>
		<g class="st1">
			<rect x="106.02" y="8.17" class="st2" width="5.47" height="5.47"/>
			<path class="st2" d="M106.56,8.17c0,0.27-0.27,0.55-0.55,0.55V8.17H106.56z"/>
			<path class="st2" d="M111.49,8.17v0.55c-0.33,0-0.55-0.27-0.55-0.55H111.49z"/>
			<path class="st2" d="M106.56,13.65h-0.55V13.1C106.29,13.1,106.56,13.32,106.56,13.65z"/>
			<path class="st2" d="M111.49,13.1v0.55h-0.55C110.94,13.32,111.16,13.1,111.49,13.1z"/>
			<circle class="st2" cx="108.74" cy="10.9" r="0.55"/>
		</g>
		<g class="st1">
			<rect x="106.02" y="13.65" class="st2" width="5.47" height="5.47"/>
			<path class="st2" d="M106.56,13.65c0,0.27-0.27,0.55-0.55,0.55v-0.55H106.56z"/>
			<path class="st2" d="M111.49,13.65v0.55c-0.33,0-0.55-0.27-0.55-0.55H111.49z"/>
			<path class="st2" d="M106.56,19.12h-0.55v-0.55C106.29,18.57,106.56,18.79,106.56,19.12z"/>
			<path class="st2" d="M111.49,18.57v0.55h-0.55C110.94,18.79,111.16,18.57,111.49,18.57z"/>
			<path class="st2" d="M109.29,16.37c0,0.3-0.24,0.55-0.55,0.55c-0.3,0-0.55-0.24-0.55-0.55s0.24-0.55,0.55-0.55
				C109.04,15.82,109.29,16.07,109.29,16.37z"/>
		</g>
		<g class="st1">
			<rect x="106.02" y="19.12" class="st2" width="5.47" height="5.47"/>
			<path class="st2" d="M106.56,19.12c0,0.27-0.27,0.55-0.55,0.55v-0.55H106.56z"/>
			<path class="st2" d="M111.49,19.12v0.55c-0.33,0-0.55-0.27-0.55-0.55H111.49z"/>
			<path class="st2" d="M106.56,24.59h-0.55v-0.55C106.29,24.04,106.56,24.26,106.56,24.59z"/>
			<path class="st2" d="M111.49,24.04v0.55h-0.55C110.94,24.26,111.16,24.04,111.49,24.04z"/>
			<path class="st2" d="M109.29,21.84c0,0.3-0.24,0.55-0.55,0.55c-0.3,0-0.55-0.24-0.55-0.55s0.24-0.55,0.55-0.55
				C109.04,21.29,109.29,21.54,109.29,21.84z"/>
		</g>
		<g class="st1">
			<rect x="106.02" y="24.59" class="st2" width="5.47" height="5.47"/>
			<path class="st2" d="M106.56,24.59c0,0.27-0.27,0.55-0.55,0.55v-0.55H106.56z"/>
			<path class="st2" d="M111.49,24.59v0.55c-0.33,0-0.55-0.27-0.55-0.55H111.49z"/>
			<path class="st2" d="M106.56,30.06h-0.55v-0.55C106.29,29.51,106.56,29.73,106.56,30.06z"/>
			<path class="st2" d="M111.49,29.51v0.55h-0.55C110.94,29.73,111.16,29.51,111.49,29.51z"/>
			<path class="st2" d="M109.29,27.31c0,0.3-0.24,0.55-0.55,0.55c-0.3,0-0.55-0.24-0.55-0.55c0-0.3,0.24-0.55,0.55-0.55
				C109.04,26.76,109.29,27.01,109.29,27.31z"/>
		</g>
		<g class="st1">
			<rect x="106.02" y="30.06" class="st2" width="5.47" height="5.47"/>
			<path class="st2" d="M106.56,30.06c0,0.27-0.27,0.55-0.55,0.55v-0.55H106.56z"/>
			<path class="st2" d="M111.49,30.06v0.55c-0.33,0-0.55-0.27-0.55-0.55H111.49z"/>
			<path class="st2" d="M106.56,35.53h-0.55v-0.55C106.29,34.98,106.56,35.2,106.56,35.53z"/>
			<path class="st2" d="M111.49,34.98v0.55h-0.55C110.94,35.2,111.16,34.98,111.49,34.98z"/>
			<path class="st2" d="M109.29,32.78c0,0.3-0.24,0.55-0.55,0.55c-0.3,0-0.55-0.24-0.55-0.55s0.24-0.55,0.55-0.55
				C109.04,32.23,109.29,32.48,109.29,32.78z"/>
		</g>
		<g class="st1">
			<rect x="106.02" y="35.53" class="st2" width="5.47" height="5.47"/>
			<path class="st2" d="M106.56,35.53c0,0.27-0.27,0.55-0.55,0.55v-0.55H106.56z"/>
			<path class="st2" d="M111.49,35.53v0.55c-0.33,0-0.55-0.27-0.55-0.55H111.49z"/>
			<path class="st2" d="M106.56,41h-0.55v-0.55C106.29,40.45,106.56,40.67,106.56,41z"/>
			<path class="st2" d="M111.49,40.45V41h-0.55C110.94,40.67,111.16,40.45,111.49,40.45z"/>
			<circle class="st2" cx="108.74" cy="38.25" r="0.55"/>
		</g>
		<g class="st1">
			<rect x="106.02" y="41" class="st2" width="5.47" height="5.47"/>
			<path class="st2" d="M106.56,41c0,0.27-0.27,0.55-0.55,0.55V41H106.56z"/>
			<path class="st2" d="M111.49,41v0.55c-0.33,0-0.55-0.27-0.55-0.55H111.49z"/>
			<path class="st2" d="M106.56,46.47h-0.55v-0.55C106.29,45.93,106.56,46.14,106.56,46.47z"/>
			<path class="st2" d="M111.49,45.93v0.55h-0.55C110.94,46.14,111.16,45.93,111.49,45.93z"/>
			<path class="st2" d="M109.29,43.72c0,0.3-0.24,0.55-0.55,0.55c-0.3,0-0.55-0.24-0.55-0.55c0-0.3,0.24-0.55,0.55-0.55
				C109.04,43.18,109.29,43.42,109.29,43.72z"/>
		</g>
		<g class="st1">
			<rect x="106.02" y="46.47" class="st2" width="5.47" height="5.47"/>
			<path class="st2" d="M106.56,46.47c0,0.27-0.27,0.55-0.55,0.55v-0.55H106.56z"/>
			<path class="st2" d="M111.49,46.47v0.55c-0.33,0-0.55-0.27-0.55-0.55H111.49z"/>
			<path class="st2" d="M106.56,51.94h-0.55V51.4C106.29,51.4,106.56,51.62,106.56,51.94z"/>
			<path class="st2" d="M111.49,51.4v0.55h-0.55C110.94,51.62,111.16,51.4,111.49,51.4z"/>
			<circle class="st2" cx="108.74" cy="49.19" r="0.55"/>
		</g>
		<g class="st1">
			<rect x="106.02" y="51.94" class="st2" width="5.47" height="5.47"/>
			<path class="st2" d="M106.56,51.94c0,0.27-0.27,0.55-0.55,0.55v-0.55H106.56z"/>
			<path class="st2" d="M111.49,51.94v0.55c-0.33,0-0.55-0.27-0.55-0.55H111.49z"/>
			<path class="st2" d="M106.56,57.42h-0.55v-0.55C106.29,56.87,106.56,57.09,106.56,57.42z"/>
			<path class="st2" d="M111.49,56.87v0.55h-0.55C110.94,57.09,111.16,56.87,111.49,56.87z"/>
			<path class="st2" d="M109.29,54.67c0,0.3-0.24,0.55-0.55,0.55c-0.3,0-0.55-0.24-0.55-0.55c0-0.3,0.24-0.55,0.55-0.55
				C109.04,54.12,109.29,54.36,109.29,54.67z"/>
		</g>
		<g class="st1">
			<rect x="100.55" y="2.7" class="st2" width="5.47" height="5.47"/>
			<path class="st2" d="M101.09,2.7c0,0.27-0.27,0.55-0.55,0.55V2.7H101.09z"/>
			<path class="st2" d="M106.02,2.7v0.55c-0.33,0-0.55-0.27-0.55-0.55H106.02z"/>
			<path class="st2" d="M101.09,8.17h-0.55V7.63C100.82,7.63,101.09,7.85,101.09,8.17z"/>
			<path class="st2" d="M106.02,7.63v0.55h-0.55C105.47,7.85,105.69,7.63,106.02,7.63z"/>
			<path class="st2" d="M103.82,5.42c0,0.3-0.24,0.55-0.55,0.55c-0.3,0-0.55-0.24-0.55-0.55c0-0.3,0.24-0.55,0.55-0.55
				C103.57,4.88,103.82,5.12,103.82,5.42z"/>
		</g>
		<g class="st1">
			<rect x="100.55" y="8.17" class="st2" width="5.47" height="5.47"/>
			<path class="st2" d="M101.09,8.17c0,0.27-0.27,0.55-0.55,0.55V8.17H101.09z"/>
			<path class="st2" d="M106.02,8.17v0.55c-0.33,0-0.55-0.27-0.55-0.55H106.02z"/>
			<path class="st2" d="M101.09,13.65h-0.55V13.1C100.82,13.1,101.09,13.32,101.09,13.65z"/>
			<path class="st2" d="M106.02,13.1v0.55h-0.55C105.47,13.32,105.69,13.1,106.02,13.1z"/>
			<path class="st2" d="M103.82,10.9c0,0.3-0.24,0.55-0.55,0.55c-0.3,0-0.55-0.24-0.55-0.55s0.24-0.55,0.55-0.55
				C103.57,10.35,103.82,10.59,103.82,10.9z"/>
		</g>
		<g class="st1">
			<rect x="100.55" y="13.65" class="st2" width="5.47" height="5.47"/>
			<path class="st2" d="M101.09,13.65c0,0.27-0.27,0.55-0.55,0.55v-0.55H101.09z"/>
			<path class="st2" d="M106.02,13.65v0.55c-0.33,0-0.55-0.27-0.55-0.55H106.02z"/>
			<path class="st2" d="M101.09,19.12h-0.55v-0.55C100.82,18.57,101.09,18.79,101.09,19.12z"/>
			<path class="st2" d="M106.02,18.57v0.55h-0.55C105.47,18.79,105.69,18.57,106.02,18.57z"/>
			<path class="st2" d="M103.82,16.37c0,0.3-0.24,0.55-0.55,0.55c-0.3,0-0.55-0.24-0.55-0.55s0.24-0.55,0.55-0.55
				C103.57,15.82,103.82,16.07,103.82,16.37z"/>
		</g>
		<g class="st1">
			<rect x="100.55" y="19.12" class="st2" width="5.47" height="5.47"/>
			<path class="st2" d="M101.09,19.12c0,0.27-0.27,0.55-0.55,0.55v-0.55H101.09z"/>
			<path class="st2" d="M106.02,19.12v0.55c-0.33,0-0.55-0.27-0.55-0.55H106.02z"/>
			<path class="st2" d="M101.09,24.59h-0.55v-0.55C100.82,24.04,101.09,24.26,101.09,24.59z"/>
			<path class="st2" d="M106.02,24.04v0.55h-0.55C105.47,24.26,105.69,24.04,106.02,24.04z"/>
			<path class="st2" d="M103.82,21.84c0,0.3-0.24,0.55-0.55,0.55c-0.3,0-0.55-0.24-0.55-0.55s0.24-0.55,0.55-0.55
				C103.57,21.29,103.82,21.54,103.82,21.84z"/>
		</g>
		<g class="st1">
			<rect x="100.55" y="24.59" class="st2" width="5.47" height="5.47"/>
			<path class="st2" d="M101.09,24.59c0,0.27-0.27,0.55-0.55,0.55v-0.55H101.09z"/>
			<path class="st2" d="M106.02,24.59v0.55c-0.33,0-0.55-0.27-0.55-0.55H106.02z"/>
			<path class="st2" d="M101.09,30.06h-0.55v-0.55C100.82,29.51,101.09,29.73,101.09,30.06z"/>
			<path class="st2" d="M106.02,29.51v0.55h-0.55C105.47,29.73,105.69,29.51,106.02,29.51z"/>
			<path class="st2" d="M103.82,27.31c0,0.3-0.24,0.55-0.55,0.55c-0.3,0-0.55-0.24-0.55-0.55c0-0.3,0.24-0.55,0.55-0.55
				C103.57,26.76,103.82,27.01,103.82,27.31z"/>
		</g>
		<g class="st1">
			<rect x="100.55" y="30.06" class="st2" width="5.47" height="5.47"/>
			<path class="st2" d="M101.09,30.06c0,0.27-0.27,0.55-0.55,0.55v-0.55H101.09z"/>
			<path class="st2" d="M106.02,30.06v0.55c-0.33,0-0.55-0.27-0.55-0.55H106.02z"/>
			<path class="st2" d="M101.09,35.53h-0.55v-0.55C100.82,34.98,101.09,35.2,101.09,35.53z"/>
			<path class="st2" d="M106.02,34.98v0.55h-0.55C105.47,35.2,105.69,34.98,106.02,34.98z"/>
			<path class="st2" d="M103.82,32.78c0,0.3-0.24,0.55-0.55,0.55c-0.3,0-0.55-0.24-0.55-0.55s0.24-0.55,0.55-0.55
				C103.57,32.23,103.82,32.48,103.82,32.78z"/>
		</g>
		<g class="st1">
			<rect x="100.55" y="35.53" class="st2" width="5.47" height="5.47"/>
			<path class="st2" d="M101.09,35.53c0,0.27-0.27,0.55-0.55,0.55v-0.55H101.09z"/>
			<path class="st2" d="M106.02,35.53v0.55c-0.33,0-0.55-0.27-0.55-0.55H106.02z"/>
			<path class="st2" d="M101.09,41h-0.55v-0.55C100.82,40.45,101.09,40.67,101.09,41z"/>
			<path class="st2" d="M106.02,40.45V41h-0.55C105.47,40.67,105.69,40.45,106.02,40.45z"/>
			<path class="st2" d="M103.82,38.25c0,0.3-0.24,0.55-0.55,0.55c-0.3,0-0.55-0.24-0.55-0.55c0-0.3,0.24-0.55,0.55-0.55
				C103.57,37.71,103.82,37.95,103.82,38.25z"/>
		</g>
		<g class="st1">
			<rect x="100.55" y="41" class="st2" width="5.47" height="5.47"/>
			<path class="st2" d="M101.09,41c0,0.27-0.27,0.55-0.55,0.55V41H101.09z"/>
			<path class="st2" d="M106.02,41v0.55c-0.33,0-0.55-0.27-0.55-0.55H106.02z"/>
			<path class="st2" d="M101.09,46.47h-0.55v-0.55C100.82,45.93,101.09,46.14,101.09,46.47z"/>
			<path class="st2" d="M106.02,45.93v0.55h-0.55C105.47,46.14,105.69,45.93,106.02,45.93z"/>
			<path class="st2" d="M103.82,43.72c0,0.3-0.24,0.55-0.55,0.55c-0.3,0-0.55-0.24-0.55-0.55c0-0.3,0.24-0.55,0.55-0.55
				C103.57,43.18,103.82,43.42,103.82,43.72z"/>
		</g>
		<g class="st1">
			<rect x="100.55" y="46.47" class="st2" width="5.47" height="5.47"/>
			<path class="st2" d="M101.09,46.47c0,0.27-0.27,0.55-0.55,0.55v-0.55H101.09z"/>
			<path class="st2" d="M106.02,46.47v0.55c-0.33,0-0.55-0.27-0.55-0.55H106.02z"/>
			<path class="st2" d="M101.09,51.94h-0.55V51.4C100.82,51.4,101.09,51.62,101.09,51.94z"/>
			<path class="st2" d="M106.02,51.4v0.55h-0.55C105.47,51.62,105.69,51.4,106.02,51.4z"/>
			<path class="st2" d="M103.82,49.19c0,0.3-0.24,0.55-0.55,0.55c-0.3,0-0.55-0.24-0.55-0.55s0.24-0.55,0.55-0.55
				C103.57,48.65,103.82,48.89,103.82,49.19z"/>
		</g>
		<g class="st1">
			<rect x="100.55" y="51.94" class="st2" width="5.47" height="5.47"/>
			<path class="st2" d="M101.09,51.94c0,0.27-0.27,0.55-0.55,0.55v-0.55H101.09z"/>
			<path class="st2" d="M106.02,51.94v0.55c-0.33,0-0.55-0.27-0.55-0.55H106.02z"/>
			<path class="st2" d="M101.09,57.42h-0.55v-0.55C100.82,56.87,101.09,57.09,101.09,57.42z"/>
			<path class="st2" d="M106.02,56.87v0.55h-0.55C105.47,57.09,105.69,56.87,106.02,56.87z"/>
			<path class="st2" d="M103.82,54.67c0,0.3-0.24,0.55-0.55,0.55c-0.3,0-0.55-0.24-0.55-0.55c0-0.3,0.24-0.55,0.55-0.55
				C103.57,54.12,103.82,54.36,103.82,54.67z"/>
		</g>
		<g class="st1">
			<rect x="95.07" y="2.7" class="st2" width="5.47" height="5.47"/>
			<path class="st2" d="M95.62,2.7c0,0.27-0.27,0.55-0.55,0.55V2.7H95.62z"/>
			<path class="st2" d="M100.55,2.7v0.55c-0.33,0-0.55-0.27-0.55-0.55H100.55z"/>
			<path class="st2" d="M95.62,8.17h-0.55V7.63C95.35,7.63,95.62,7.85,95.62,8.17z"/>
			<path class="st2" d="M100.55,7.63v0.55H100C100,7.85,100.22,7.63,100.55,7.63z"/>
			<path class="st2" d="M98.35,5.42c0,0.3-0.24,0.55-0.55,0.55c-0.3,0-0.55-0.24-0.55-0.55c0-0.3,0.24-0.55,0.55-0.55
				C98.1,4.88,98.35,5.12,98.35,5.42z"/>
		</g>
		<g class="st1">
			<rect x="95.07" y="8.17" class="st2" width="5.47" height="5.47"/>
			<path class="st2" d="M95.62,8.17c0,0.27-0.27,0.55-0.55,0.55V8.17H95.62z"/>
			<path class="st2" d="M100.55,8.17v0.55c-0.33,0-0.55-0.27-0.55-0.55H100.55z"/>
			<path class="st2" d="M95.62,13.65h-0.55V13.1C95.35,13.1,95.62,13.32,95.62,13.65z"/>
			<path class="st2" d="M100.55,13.1v0.55H100C100,13.32,100.22,13.1,100.55,13.1z"/>
			<path class="st2" d="M98.35,10.9c0,0.3-0.24,0.55-0.55,0.55c-0.3,0-0.55-0.24-0.55-0.55s0.24-0.55,0.55-0.55
				C98.1,10.35,98.35,10.59,98.35,10.9z"/>
		</g>
		<g class="st1">
			<rect x="95.07" y="13.65" class="st2" width="5.47" height="5.47"/>
			<path class="st2" d="M95.62,13.65c0,0.27-0.27,0.55-0.55,0.55v-0.55H95.62z"/>
			<path class="st2" d="M100.55,13.65v0.55c-0.33,0-0.55-0.27-0.55-0.55H100.55z"/>
			<path class="st2" d="M95.62,19.12h-0.55v-0.55C95.35,18.57,95.62,18.79,95.62,19.12z"/>
			<path class="st2" d="M100.55,18.57v0.55H100C100,18.79,100.22,18.57,100.55,18.57z"/>
			<path class="st2" d="M98.35,16.37c0,0.3-0.24,0.55-0.55,0.55c-0.3,0-0.55-0.24-0.55-0.55s0.24-0.55,0.55-0.55
				C98.1,15.82,98.35,16.07,98.35,16.37z"/>
		</g>
		<g class="st1">
			<rect x="95.07" y="19.12" class="st2" width="5.47" height="5.47"/>
			<path class="st2" d="M95.62,19.12c0,0.27-0.27,0.55-0.55,0.55v-0.55H95.62z"/>
			<path class="st2" d="M100.55,19.12v0.55c-0.33,0-0.55-0.27-0.55-0.55H100.55z"/>
			<path class="st2" d="M95.62,24.59h-0.55v-0.55C95.35,24.04,95.62,24.26,95.62,24.59z"/>
			<path class="st2" d="M100.55,24.04v0.55H100C100,24.26,100.22,24.04,100.55,24.04z"/>
			<path class="st2" d="M98.35,21.84c0,0.3-0.24,0.55-0.55,0.55c-0.3,0-0.55-0.24-0.55-0.55s0.24-0.55,0.55-0.55
				C98.1,21.29,98.35,21.54,98.35,21.84z"/>
		</g>
		<g class="st1">
			<rect x="95.07" y="24.59" class="st2" width="5.47" height="5.47"/>
			<path class="st2" d="M95.62,24.59c0,0.27-0.27,0.55-0.55,0.55v-0.55H95.62z"/>
			<path class="st2" d="M100.55,24.59v0.55c-0.33,0-0.55-0.27-0.55-0.55H100.55z"/>
			<path class="st2" d="M95.62,30.06h-0.55v-0.55C95.35,29.51,95.62,29.73,95.62,30.06z"/>
			<path class="st2" d="M100.55,29.51v0.55H100C100,29.73,100.22,29.51,100.55,29.51z"/>
			<path class="st2" d="M98.35,27.31c0,0.3-0.24,0.55-0.55,0.55c-0.3,0-0.55-0.24-0.55-0.55c0-0.3,0.24-0.55,0.55-0.55
				C98.1,26.76,98.35,27.01,98.35,27.31z"/>
		</g>
		<g class="st1">
			<rect x="95.07" y="30.06" class="st2" width="5.47" height="5.47"/>
			<path class="st2" d="M95.62,30.06c0,0.27-0.27,0.55-0.55,0.55v-0.55H95.62z"/>
			<path class="st2" d="M100.55,30.06v0.55c-0.33,0-0.55-0.27-0.55-0.55H100.55z"/>
			<path class="st2" d="M95.62,35.53h-0.55v-0.55C95.35,34.98,95.62,35.2,95.62,35.53z"/>
			<path class="st2" d="M100.55,34.98v0.55H100C100,35.2,100.22,34.98,100.55,34.98z"/>
			<path class="st2" d="M98.35,32.78c0,0.3-0.24,0.55-0.55,0.55c-0.3,0-0.55-0.24-0.55-0.55s0.24-0.55,0.55-0.55
				C98.1,32.23,98.35,32.48,98.35,32.78z"/>
		</g>
		<g class="st1">
			<rect x="95.07" y="35.53" class="st2" width="5.47" height="5.47"/>
			<path class="st2" d="M95.62,35.53c0,0.27-0.27,0.55-0.55,0.55v-0.55H95.62z"/>
			<path class="st2" d="M100.55,35.53v0.55c-0.33,0-0.55-0.27-0.55-0.55H100.55z"/>
			<path class="st2" d="M95.62,41h-0.55v-0.55C95.35,40.45,95.62,40.67,95.62,41z"/>
			<path class="st2" d="M100.55,40.45V41H100C100,40.67,100.22,40.45,100.55,40.45z"/>
			<path class="st2" d="M98.35,38.25c0,0.3-0.24,0.55-0.55,0.55c-0.3,0-0.55-0.24-0.55-0.55c0-0.3,0.24-0.55,0.55-0.55
				C98.1,37.71,98.35,37.95,98.35,38.25z"/>
		</g>
		<g class="st1">
			<rect x="95.07" y="41" class="st2" width="5.47" height="5.47"/>
			<path class="st2" d="M95.62,41c0,0.27-0.27,0.55-0.55,0.55V41H95.62z"/>
			<path class="st2" d="M100.55,41v0.55c-0.33,0-0.55-0.27-0.55-0.55H100.55z"/>
			<path class="st2" d="M95.62,46.47h-0.55v-0.55C95.35,45.93,95.62,46.14,95.62,46.47z"/>
			<path class="st2" d="M100.55,45.93v0.55H100C100,46.14,100.22,45.93,100.55,45.93z"/>
			<path class="st2" d="M98.35,43.72c0,0.3-0.24,0.55-0.55,0.55c-0.3,0-0.55-0.24-0.55-0.55c0-0.3,0.24-0.55,0.55-0.55
				C98.1,43.18,98.35,43.42,98.35,43.72z"/>
		</g>
		<g class="st1">
			<rect x="95.07" y="46.47" class="st2" width="5.47" height="5.47"/>
			<path class="st2" d="M95.62,46.47c0,0.27-0.27,0.55-0.55,0.55v-0.55H95.62z"/>
			<path class="st2" d="M100.55,46.47v0.55c-0.33,0-0.55-0.27-0.55-0.55H100.55z"/>
			<path class="st2" d="M95.62,51.94h-0.55V51.4C95.35,51.4,95.62,51.62,95.62,51.94z"/>
			<path class="st2" d="M100.55,51.4v0.55H100C100,51.62,100.22,51.4,100.55,51.4z"/>
			<path class="st2" d="M98.35,49.19c0,0.3-0.24,0.55-0.55,0.55c-0.3,0-0.55-0.24-0.55-0.55s0.24-0.55,0.55-0.55
				C98.1,48.65,98.35,48.89,98.35,49.19z"/>
		</g>
		<g class="st1">
			<rect x="95.07" y="51.94" class="st2" width="5.47" height="5.47"/>
			<path class="st2" d="M95.62,51.94c0,0.27-0.27,0.55-0.55,0.55v-0.55H95.62z"/>
			<path class="st2" d="M100.55,51.94v0.55c-0.33,0-0.55-0.27-0.55-0.55H100.55z"/>
			<path class="st2" d="M95.62,57.42h-0.55v-0.55C95.35,56.87,95.62,57.09,95.62,57.42z"/>
			<path class="st2" d="M100.55,56.87v0.55H100C100,57.09,100.22,56.87,100.55,56.87z"/>
			<path class="st2" d="M98.35,54.67c0,0.3-0.24,0.55-0.55,0.55c-0.3,0-0.55-0.24-0.55-0.55c0-0.3,0.24-0.55,0.55-0.55
				C98.1,54.12,98.35,54.36,98.35,54.67z"/>
		</g>
		<g class="st1">
			<rect x="89.6" y="2.7" class="st2" width="5.47" height="5.47"/>
			<path class="st2" d="M90.15,2.7c0,0.27-0.27,0.55-0.55,0.55V2.7H90.15z"/>
			<path class="st2" d="M95.07,2.7v0.55c-0.33,0-0.55-0.27-0.55-0.55H95.07z"/>
			<path class="st2" d="M90.15,8.17H89.6V7.63C89.88,7.63,90.15,7.85,90.15,8.17z"/>
			<path class="st2" d="M95.07,7.63v0.55h-0.55C94.53,7.85,94.75,7.63,95.07,7.63z"/>
			<path class="st2" d="M92.87,5.42c0,0.3-0.24,0.55-0.55,0.55c-0.3,0-0.55-0.24-0.55-0.55c0-0.3,0.24-0.55,0.55-0.55
				C92.63,4.88,92.87,5.12,92.87,5.42z"/>
		</g>
		<g class="st1">
			<rect x="89.6" y="8.17" class="st2" width="5.47" height="5.47"/>
			<path class="st2" d="M90.15,8.17c0,0.27-0.27,0.55-0.55,0.55V8.17H90.15z"/>
			<path class="st2" d="M95.07,8.17v0.55c-0.33,0-0.55-0.27-0.55-0.55H95.07z"/>
			<path class="st2" d="M90.15,13.65H89.6V13.1C89.88,13.1,90.15,13.32,90.15,13.65z"/>
			<path class="st2" d="M95.07,13.1v0.55h-0.55C94.53,13.32,94.75,13.1,95.07,13.1z"/>
			<path class="st2" d="M92.87,10.9c0,0.3-0.24,0.55-0.55,0.55c-0.3,0-0.55-0.24-0.55-0.55s0.24-0.55,0.55-0.55
				C92.63,10.35,92.87,10.59,92.87,10.9z"/>
		</g>
		<g class="st1">
			<rect x="89.6" y="13.65" class="st2" width="5.47" height="5.47"/>
			<path class="st2" d="M90.15,13.65c0,0.27-0.27,0.55-0.55,0.55v-0.55H90.15z"/>
			<path class="st2" d="M95.07,13.65v0.55c-0.33,0-0.55-0.27-0.55-0.55H95.07z"/>
			<path class="st2" d="M90.15,19.12H89.6v-0.55C89.88,18.57,90.15,18.79,90.15,19.12z"/>
			<path class="st2" d="M95.07,18.57v0.55h-0.55C94.53,18.79,94.75,18.57,95.07,18.57z"/>
			<path class="st2" d="M92.87,16.37c0,0.3-0.24,0.55-0.55,0.55c-0.3,0-0.55-0.24-0.55-0.55s0.24-0.55,0.55-0.55
				C92.63,15.82,92.87,16.07,92.87,16.37z"/>
		</g>
		<g class="st1">
			<rect x="89.6" y="19.12" class="st2" width="5.47" height="5.47"/>
			<path class="st2" d="M90.15,19.12c0,0.27-0.27,0.55-0.55,0.55v-0.55H90.15z"/>
			<path class="st2" d="M95.07,19.12v0.55c-0.33,0-0.55-0.27-0.55-0.55H95.07z"/>
			<path class="st2" d="M90.15,24.59H89.6v-0.55C89.88,24.04,90.15,24.26,90.15,24.59z"/>
			<path class="st2" d="M95.07,24.04v0.55h-0.55C94.53,24.26,94.75,24.04,95.07,24.04z"/>
			<path class="st2" d="M92.87,21.84c0,0.3-0.24,0.55-0.55,0.55c-0.3,0-0.55-0.24-0.55-0.55s0.24-0.55,0.55-0.55
				C92.63,21.29,92.87,21.54,92.87,21.84z"/>
		</g>
		<g class="st1">
			<rect x="89.6" y="24.59" class="st2" width="5.47" height="5.47"/>
			<path class="st2" d="M90.15,24.59c0,0.27-0.27,0.55-0.55,0.55v-0.55H90.15z"/>
			<path class="st2" d="M95.07,24.59v0.55c-0.33,0-0.55-0.27-0.55-0.55H95.07z"/>
			<path class="st2" d="M90.15,30.06H89.6v-0.55C89.88,29.51,90.15,29.73,90.15,30.06z"/>
			<path class="st2" d="M95.07,29.51v0.55h-0.55C94.53,29.73,94.75,29.51,95.07,29.51z"/>
			<path class="st2" d="M92.87,27.31c0,0.3-0.24,0.55-0.55,0.55c-0.3,0-0.55-0.24-0.55-0.55c0-0.3,0.24-0.55,0.55-0.55
				C92.63,26.76,92.87,27.01,92.87,27.31z"/>
		</g>
		<g class="st1">
			<rect x="89.6" y="30.06" class="st2" width="5.47" height="5.47"/>
			<path class="st2" d="M90.15,30.06c0,0.27-0.27,0.55-0.55,0.55v-0.55H90.15z"/>
			<path class="st2" d="M95.07,30.06v0.55c-0.33,0-0.55-0.27-0.55-0.55H95.07z"/>
			<path class="st2" d="M90.15,35.53H89.6v-0.55C89.88,34.98,90.15,35.2,90.15,35.53z"/>
			<path class="st2" d="M95.07,34.98v0.55h-0.55C94.53,35.2,94.75,34.98,95.07,34.98z"/>
			<path class="st2" d="M92.87,32.78c0,0.3-0.24,0.55-0.55,0.55c-0.3,0-0.55-0.24-0.55-0.55s0.24-0.55,0.55-0.55
				C92.63,32.23,92.87,32.48,92.87,32.78z"/>
		</g>
		<g class="st1">
			<rect x="89.6" y="35.53" class="st2" width="5.47" height="5.47"/>
			<path class="st2" d="M90.15,35.53c0,0.27-0.27,0.55-0.55,0.55v-0.55H90.15z"/>
			<path class="st2" d="M95.07,35.53v0.55c-0.33,0-0.55-0.27-0.55-0.55H95.07z"/>
			<path class="st2" d="M90.15,41H89.6v-0.55C89.88,40.45,90.15,40.67,90.15,41z"/>
			<path class="st2" d="M95.07,40.45V41h-0.55C94.53,40.67,94.75,40.45,95.07,40.45z"/>
			<path class="st2" d="M92.87,38.25c0,0.3-0.24,0.55-0.55,0.55c-0.3,0-0.55-0.24-0.55-0.55c0-0.3,0.24-0.55,0.55-0.55
				C92.63,37.71,92.87,37.95,92.87,38.25z"/>
		</g>
		<g class="st1">
			<rect x="89.6" y="41" class="st2" width="5.47" height="5.47"/>
			<path class="st2" d="M90.15,41c0,0.27-0.27,0.55-0.55,0.55V41H90.15z"/>
			<path class="st2" d="M95.07,41v0.55c-0.33,0-0.55-0.27-0.55-0.55H95.07z"/>
			<path class="st2" d="M90.15,46.47H89.6v-0.55C89.88,45.93,90.15,46.14,90.15,46.47z"/>
			<path class="st2" d="M95.07,45.93v0.55h-0.55C94.53,46.14,94.75,45.93,95.07,45.93z"/>
			<path class="st2" d="M92.87,43.72c0,0.3-0.24,0.55-0.55,0.55c-0.3,0-0.55-0.24-0.55-0.55c0-0.3,0.24-0.55,0.55-0.55
				C92.63,43.18,92.87,43.42,92.87,43.72z"/>
		</g>
		<g class="st1">
			<rect x="89.6" y="46.47" class="st2" width="5.47" height="5.47"/>
			<path class="st2" d="M90.15,46.47c0,0.27-0.27,0.55-0.55,0.55v-0.55H90.15z"/>
			<path class="st2" d="M95.07,46.47v0.55c-0.33,0-0.55-0.27-0.55-0.55H95.07z"/>
			<path class="st2" d="M90.15,51.94H89.6V51.4C89.88,51.4,90.15,51.62,90.15,51.94z"/>
			<path class="st2" d="M95.07,51.4v0.55h-0.55C94.53,51.62,94.75,51.4,95.07,51.4z"/>
			<path class="st2" d="M92.87,49.19c0,0.3-0.24,0.55-0.55,0.55c-0.3,0-0.55-0.24-0.55-0.55s0.24-0.55,0.55-0.55
				C92.63,48.65,92.87,48.89,92.87,49.19z"/>
		</g>
		<g class="st1">
			<rect x="89.6" y="51.94" class="st2" width="5.47" height="5.47"/>
			<path class="st2" d="M90.15,51.94c0,0.27-0.27,0.55-0.55,0.55v-0.55H90.15z"/>
			<path class="st2" d="M95.07,51.94v0.55c-0.33,0-0.55-0.27-0.55-0.55H95.07z"/>
			<path class="st2" d="M90.15,57.42H89.6v-0.55C89.88,56.87,90.15,57.09,90.15,57.42z"/>
			<path class="st2" d="M95.07,56.87v0.55h-0.55C94.53,57.09,94.75,56.87,95.07,56.87z"/>
			<path class="st2" d="M92.87,54.67c0,0.3-0.24,0.55-0.55,0.55c-0.3,0-0.55-0.24-0.55-0.55c0-0.3,0.24-0.55,0.55-0.55
				C92.63,54.12,92.87,54.36,92.87,54.67z"/>
		</g>
	</g>
	<path class="st3" d="M112.41,53.78h-12.41V19.53l-9.98,8.66V14.53l10.49-9.11h11.89V53.78z M101.65,52.14h9.12V7.07h-9.63
		l-9.46,8.21v9.31l9.98-8.66V52.14z"/>
</g>
</svg>
