<?xml version="1.0" encoding="utf-8"?>
<!-- Generator: Adobe Illustrator 25.4.1, SVG Export Plug-In . SVG Version: 6.00 Build 0)  -->
<svg version="1.1" id="Layer_1" xmlns="http://www.w3.org/2000/svg" xmlns:xlink="http://www.w3.org/1999/xlink" x="0px" y="0px"
	 viewBox="0 0 121.4 62" style="enable-background:new 0 0 121.4 62;" xml:space="preserve">
<style type="text/css">
	.st0{fill:#F3F3F5;}
	.st1{clip-path:url(#SVGID_00000019675860279306394620000001666757383103520953_);}
	.st2{fill:#00ABC8;}
	.st3{fill:#0075A2;}
	.st4{clip-path:url(#SVGID_00000013195418050961338710000008545767453182961047_);}
</style>
<g>
	<g>
		<g>
			<g>
				<path class="st0" d="M44.6,57.8V48l17.2-18.6c1.8-2,2.4-3.2,2.4-5c0-2.8-1.6-4.5-4.3-4.5c-2.9,0-4.3,1.5-4.4,4.6H44.6
					c0.1-2.9,0.3-4.1,1.1-5.8c2.3-5.4,7.6-8.6,14.3-8.6c9,0,15.1,5.7,15.1,14.2c0,4.4-1.2,6.8-5.8,11.7L57.9,48h17.2v9.8H44.6z"/>
			</g>
		</g>
		<g>
			<defs>
				<path id="SVGID_1_" d="M40.2,53.4v-9.8L57.4,25c1.8-2,2.4-3.2,2.4-5c0-2.8-1.6-4.5-4.3-4.5c-2.9,0-4.3,1.5-4.4,4.6H40.2
					c0.1-2.9,0.3-4.1,1.1-5.8c2.3-5.4,7.6-8.6,14.3-8.6c9,0,15.1,5.7,15.1,14.2c0,4.4-1.2,6.8-5.8,11.7l-11.3,12h17.2v9.8H40.2z"/>
			</defs>
			<clipPath id="SVGID_00000124141503377579131470000013113590777772690068_">
				<use xlink:href="#SVGID_1_"  style="overflow:visible;"/>
			</clipPath>
			<g style="clip-path:url(#SVGID_00000124141503377579131470000013113590777772690068_);">
				<rect x="65.4" y="2.5" class="st2" width="5.5" height="5.5"/>
				<path class="st2" d="M66,2.5C66,2.8,65.7,3,65.4,3V2.5H66z"/>
				<path class="st2" d="M71,2.5V3c-0.3,0-0.6-0.3-0.6-0.6H71z"/>
				<path class="st2" d="M66,8h-0.6V7.5C65.7,7.5,66,7.7,66,8z"/>
				<path class="st2" d="M71,7.5V8h-0.6C70.4,7.7,70.6,7.5,71,7.5z"/>
				<path class="st2" d="M68.7,5.3c0,0.3-0.2,0.6-0.6,0.6s-0.6-0.2-0.6-0.6c0-0.3,0.2-0.6,0.6-0.6S68.7,4.9,68.7,5.3z"/>
			</g>
			<g style="clip-path:url(#SVGID_00000124141503377579131470000013113590777772690068_);">
				<rect x="65.4" y="8" class="st2" width="5.5" height="5.5"/>
				<path class="st2" d="M66,8c0,0.3-0.3,0.6-0.6,0.6V8H66z"/>
				<path class="st2" d="M71,8v0.6c-0.3,0-0.6-0.3-0.6-0.6H71z"/>
				<path class="st2" d="M66,13.6h-0.6V13C65.7,13,66,13.2,66,13.6z"/>
				<path class="st2" d="M71,13v0.6h-0.6C70.4,13.2,70.6,13,71,13z"/>
				<path class="st2" d="M68.7,10.8c0,0.3-0.2,0.6-0.6,0.6s-0.6-0.2-0.6-0.6s0.2-0.6,0.6-0.6S68.7,10.5,68.7,10.8z"/>
			</g>
			<g style="clip-path:url(#SVGID_00000124141503377579131470000013113590777772690068_);">
				<rect x="65.4" y="13.6" class="st2" width="5.5" height="5.5"/>
				<path class="st2" d="M66,13.6c0,0.3-0.3,0.6-0.6,0.6v-0.6H66z"/>
				<path class="st2" d="M71,13.6v0.6c-0.3,0-0.6-0.3-0.6-0.6H71z"/>
				<path class="st2" d="M66,19.1h-0.6v-0.6C65.7,18.6,66,18.8,66,19.1z"/>
				<path class="st2" d="M71,18.6v0.6h-0.6C70.4,18.8,70.6,18.6,71,18.6z"/>
				<path class="st2" d="M68.7,16.3c0,0.3-0.2,0.6-0.6,0.6s-0.6-0.2-0.6-0.6c0-0.3,0.2-0.6,0.6-0.6S68.7,16,68.7,16.3z"/>
			</g>
			<g style="clip-path:url(#SVGID_00000124141503377579131470000013113590777772690068_);">
				<rect x="65.4" y="19.1" class="st2" width="5.5" height="5.5"/>
				<path class="st2" d="M66,19.1c0,0.3-0.3,0.6-0.6,0.6v-0.6H66z"/>
				<path class="st2" d="M71,19.1v0.6c-0.3,0-0.6-0.3-0.6-0.6H71z"/>
				<path class="st2" d="M66,24.7h-0.6v-0.6C65.7,24.1,66,24.3,66,24.7z"/>
				<path class="st2" d="M71,24.1v0.6h-0.6C70.4,24.3,70.6,24.1,71,24.1z"/>
				<path class="st2" d="M68.7,21.9c0,0.3-0.2,0.6-0.6,0.6s-0.6-0.2-0.6-0.6s0.2-0.6,0.6-0.6S68.7,21.6,68.7,21.9z"/>
			</g>
			<g style="clip-path:url(#SVGID_00000124141503377579131470000013113590777772690068_);">
				<rect x="65.4" y="24.7" class="st2" width="5.5" height="5.5"/>
				<path class="st2" d="M66,24.7c0,0.3-0.3,0.6-0.6,0.6v-0.6H66z"/>
				<path class="st2" d="M71,24.7v0.6c-0.3,0-0.6-0.3-0.6-0.6H71z"/>
				<path class="st2" d="M66,30.2h-0.6v-0.6C65.7,29.7,66,29.9,66,30.2z"/>
				<path class="st2" d="M71,29.7v0.6h-0.6C70.4,29.9,70.6,29.7,71,29.7z"/>
				<path class="st2" d="M68.7,27.4c0,0.3-0.2,0.6-0.6,0.6s-0.6-0.2-0.6-0.6s0.2-0.6,0.6-0.6S68.7,27.1,68.7,27.4z"/>
			</g>
			<g style="clip-path:url(#SVGID_00000124141503377579131470000013113590777772690068_);">
				<rect x="65.4" y="30.2" class="st2" width="5.5" height="5.5"/>
				<path class="st2" d="M66,30.2c0,0.3-0.3,0.6-0.6,0.6v-0.6H66z"/>
				<path class="st2" d="M71,30.2v0.6c-0.3,0-0.6-0.3-0.6-0.6H71z"/>
				<path class="st2" d="M66,35.8h-0.6v-0.6C65.7,35.2,66,35.4,66,35.8z"/>
				<path class="st2" d="M71,35.2v0.6h-0.6C70.4,35.4,70.6,35.2,71,35.2z"/>
				<path class="st2" d="M68.7,33c0,0.3-0.2,0.6-0.6,0.6s-0.6-0.2-0.6-0.6s0.2-0.6,0.6-0.6S68.7,32.7,68.7,33z"/>
			</g>
			<g style="clip-path:url(#SVGID_00000124141503377579131470000013113590777772690068_);">
				<rect x="65.4" y="35.8" class="st2" width="5.5" height="5.5"/>
				<path class="st2" d="M66,35.8c0,0.3-0.3,0.6-0.6,0.6v-0.6H66z"/>
				<path class="st2" d="M71,35.8v0.6c-0.3,0-0.6-0.3-0.6-0.6H71z"/>
				<path class="st2" d="M66,41.3h-0.6v-0.6C65.7,40.7,66,41,66,41.3z"/>
				<path class="st2" d="M71,40.7v0.6h-0.6C70.4,41,70.6,40.7,71,40.7z"/>
				<path class="st2" d="M68.7,38.5c0,0.3-0.2,0.6-0.6,0.6s-0.6-0.2-0.6-0.6s0.2-0.6,0.6-0.6S68.7,38.2,68.7,38.5z"/>
			</g>
			<g style="clip-path:url(#SVGID_00000124141503377579131470000013113590777772690068_);">
				<rect x="65.4" y="41.3" class="st2" width="5.5" height="5.5"/>
				<path class="st2" d="M66,41.3c0,0.3-0.3,0.6-0.6,0.6v-0.6H66z"/>
				<path class="st2" d="M71,41.3v0.6c-0.3,0-0.6-0.3-0.6-0.6H71z"/>
				<path class="st2" d="M66,46.8h-0.6v-0.6C65.7,46.3,66,46.5,66,46.8z"/>
				<path class="st2" d="M71,46.3v0.6h-0.6C70.4,46.5,70.6,46.3,71,46.3z"/>
				<path class="st2" d="M68.7,44.1c0,0.3-0.2,0.6-0.6,0.6s-0.6-0.2-0.6-0.6c0-0.3,0.2-0.6,0.6-0.6S68.7,43.8,68.7,44.1z"/>
			</g>
			<g style="clip-path:url(#SVGID_00000124141503377579131470000013113590777772690068_);">
				<rect x="65.4" y="46.8" class="st2" width="5.5" height="5.5"/>
				<path class="st2" d="M66,46.8c0,0.3-0.3,0.6-0.6,0.6v-0.6H66z"/>
				<path class="st2" d="M71,46.8v0.6c-0.3,0-0.6-0.3-0.6-0.6H71z"/>
				<path class="st2" d="M66,52.4h-0.6v-0.6C65.7,51.8,66,52.1,66,52.4z"/>
				<path class="st2" d="M71,51.8v0.6h-0.6C70.4,52.1,70.6,51.8,71,51.8z"/>
				<path class="st2" d="M68.7,49.6c0,0.3-0.2,0.6-0.6,0.6s-0.6-0.2-0.6-0.6c0-0.3,0.2-0.6,0.6-0.6S68.7,49.3,68.7,49.6z"/>
			</g>
			<g style="clip-path:url(#SVGID_00000124141503377579131470000013113590777772690068_);">
				<rect x="65.4" y="52.4" class="st2" width="5.5" height="5.5"/>
				<path class="st2" d="M66,52.4c0,0.3-0.3,0.6-0.6,0.6v-0.6H66z"/>
				<path class="st2" d="M71,52.4v0.6c-0.3,0-0.6-0.3-0.6-0.6H71z"/>
				<path class="st2" d="M66,57.9h-0.6v-0.6C65.7,57.4,66,57.6,66,57.9z"/>
				<path class="st2" d="M71,57.4v0.6h-0.6C70.4,57.6,70.6,57.4,71,57.4z"/>
				<path class="st2" d="M68.7,55.1c0,0.3-0.2,0.6-0.6,0.6s-0.6-0.2-0.6-0.6c0-0.3,0.2-0.6,0.6-0.6S68.7,54.8,68.7,55.1z"/>
			</g>
			<g style="clip-path:url(#SVGID_00000124141503377579131470000013113590777772690068_);">
				<rect x="59.9" y="2.5" class="st2" width="5.5" height="5.5"/>
				<path class="st2" d="M60.4,2.5c0,0.3-0.3,0.6-0.6,0.6V2.5H60.4z"/>
				<path class="st2" d="M65.4,2.5V3c-0.3,0-0.6-0.3-0.6-0.6H65.4z"/>
				<path class="st2" d="M60.4,8h-0.6V7.5C60.2,7.5,60.4,7.7,60.4,8z"/>
				<path class="st2" d="M65.4,7.5V8h-0.6C64.9,7.7,65.1,7.5,65.4,7.5z"/>
				<path class="st2" d="M63.2,5.3c0,0.3-0.2,0.6-0.6,0.6s-0.6-0.2-0.6-0.6c0-0.3,0.2-0.6,0.6-0.6S63.2,4.9,63.2,5.3z"/>
			</g>
			<g style="clip-path:url(#SVGID_00000124141503377579131470000013113590777772690068_);">
				<rect x="59.9" y="8" class="st2" width="5.5" height="5.5"/>
				<path class="st2" d="M60.4,8c0,0.3-0.3,0.6-0.6,0.6V8H60.4z"/>
				<path class="st2" d="M65.4,8v0.6c-0.3,0-0.6-0.3-0.6-0.6H65.4z"/>
				<path class="st2" d="M60.4,13.6h-0.6V13C60.2,13,60.4,13.2,60.4,13.6z"/>
				<path class="st2" d="M65.4,13v0.6h-0.6C64.9,13.2,65.1,13,65.4,13z"/>
				<path class="st2" d="M63.2,10.8c0,0.3-0.2,0.6-0.6,0.6s-0.6-0.2-0.6-0.6s0.2-0.6,0.6-0.6S63.2,10.5,63.2,10.8z"/>
			</g>
			<g style="clip-path:url(#SVGID_00000124141503377579131470000013113590777772690068_);">
				<rect x="59.9" y="13.6" class="st2" width="5.5" height="5.5"/>
				<path class="st2" d="M60.4,13.6c0,0.3-0.3,0.6-0.6,0.6v-0.6H60.4z"/>
				<path class="st2" d="M65.4,13.6v0.6c-0.3,0-0.6-0.3-0.6-0.6H65.4z"/>
				<path class="st2" d="M60.4,19.1h-0.6v-0.6C60.2,18.6,60.4,18.8,60.4,19.1z"/>
				<path class="st2" d="M65.4,18.6v0.6h-0.6C64.9,18.8,65.1,18.6,65.4,18.6z"/>
				<path class="st2" d="M63.2,16.3c0,0.3-0.2,0.6-0.6,0.6s-0.6-0.2-0.6-0.6c0-0.3,0.2-0.6,0.6-0.6S63.2,16,63.2,16.3z"/>
			</g>
			<g style="clip-path:url(#SVGID_00000124141503377579131470000013113590777772690068_);">
				<rect x="59.9" y="19.1" class="st2" width="5.5" height="5.5"/>
				<path class="st2" d="M60.4,19.1c0,0.3-0.3,0.6-0.6,0.6v-0.6H60.4z"/>
				<path class="st2" d="M65.4,19.1v0.6c-0.3,0-0.6-0.3-0.6-0.6H65.4z"/>
				<path class="st2" d="M60.4,24.7h-0.6v-0.6C60.2,24.1,60.4,24.3,60.4,24.7z"/>
				<path class="st2" d="M65.4,24.1v0.6h-0.6C64.9,24.3,65.1,24.1,65.4,24.1z"/>
				<path class="st2" d="M63.2,21.9c0,0.3-0.2,0.6-0.6,0.6s-0.6-0.2-0.6-0.6s0.2-0.6,0.6-0.6S63.2,21.6,63.2,21.9z"/>
			</g>
			<g style="clip-path:url(#SVGID_00000124141503377579131470000013113590777772690068_);">
				<rect x="59.9" y="24.7" class="st2" width="5.5" height="5.5"/>
				<path class="st2" d="M60.4,24.7c0,0.3-0.3,0.6-0.6,0.6v-0.6H60.4z"/>
				<path class="st2" d="M65.4,24.7v0.6c-0.3,0-0.6-0.3-0.6-0.6H65.4z"/>
				<path class="st2" d="M60.4,30.2h-0.6v-0.6C60.2,29.7,60.4,29.9,60.4,30.2z"/>
				<path class="st2" d="M65.4,29.7v0.6h-0.6C64.9,29.9,65.1,29.7,65.4,29.7z"/>
				<path class="st2" d="M63.2,27.4c0,0.3-0.2,0.6-0.6,0.6s-0.6-0.2-0.6-0.6s0.2-0.6,0.6-0.6S63.2,27.1,63.2,27.4z"/>
			</g>
			<g style="clip-path:url(#SVGID_00000124141503377579131470000013113590777772690068_);">
				<rect x="59.9" y="30.2" class="st2" width="5.5" height="5.5"/>
				<path class="st2" d="M60.4,30.2c0,0.3-0.3,0.6-0.6,0.6v-0.6H60.4z"/>
				<path class="st2" d="M65.4,30.2v0.6c-0.3,0-0.6-0.3-0.6-0.6H65.4z"/>
				<path class="st2" d="M60.4,35.8h-0.6v-0.6C60.2,35.2,60.4,35.4,60.4,35.8z"/>
				<path class="st2" d="M65.4,35.2v0.6h-0.6C64.9,35.4,65.1,35.2,65.4,35.2z"/>
				<path class="st2" d="M63.2,33c0,0.3-0.2,0.6-0.6,0.6s-0.6-0.2-0.6-0.6s0.2-0.6,0.6-0.6S63.2,32.7,63.2,33z"/>
			</g>
			<g style="clip-path:url(#SVGID_00000124141503377579131470000013113590777772690068_);">
				<rect x="59.9" y="35.8" class="st2" width="5.5" height="5.5"/>
				<path class="st2" d="M60.4,35.8c0,0.3-0.3,0.6-0.6,0.6v-0.6H60.4z"/>
				<path class="st2" d="M65.4,35.8v0.6c-0.3,0-0.6-0.3-0.6-0.6H65.4z"/>
				<path class="st2" d="M60.4,41.3h-0.6v-0.6C60.2,40.7,60.4,41,60.4,41.3z"/>
				<path class="st2" d="M65.4,40.7v0.6h-0.6C64.9,41,65.1,40.7,65.4,40.7z"/>
				<path class="st2" d="M63.2,38.5c0,0.3-0.2,0.6-0.6,0.6s-0.6-0.2-0.6-0.6s0.2-0.6,0.6-0.6S63.2,38.2,63.2,38.5z"/>
			</g>
			<g style="clip-path:url(#SVGID_00000124141503377579131470000013113590777772690068_);">
				<rect x="59.9" y="41.3" class="st2" width="5.5" height="5.5"/>
				<path class="st2" d="M60.4,41.3c0,0.3-0.3,0.6-0.6,0.6v-0.6H60.4z"/>
				<path class="st2" d="M65.4,41.3v0.6c-0.3,0-0.6-0.3-0.6-0.6H65.4z"/>
				<path class="st2" d="M60.4,46.8h-0.6v-0.6C60.2,46.3,60.4,46.5,60.4,46.8z"/>
				<path class="st2" d="M65.4,46.3v0.6h-0.6C64.9,46.5,65.1,46.3,65.4,46.3z"/>
				<path class="st2" d="M63.2,44.1c0,0.3-0.2,0.6-0.6,0.6s-0.6-0.2-0.6-0.6c0-0.3,0.2-0.6,0.6-0.6S63.2,43.8,63.2,44.1z"/>
			</g>
			<g style="clip-path:url(#SVGID_00000124141503377579131470000013113590777772690068_);">
				<rect x="59.9" y="46.8" class="st2" width="5.5" height="5.5"/>
				<path class="st2" d="M60.4,46.8c0,0.3-0.3,0.6-0.6,0.6v-0.6H60.4z"/>
				<path class="st2" d="M65.4,46.8v0.6c-0.3,0-0.6-0.3-0.6-0.6H65.4z"/>
				<path class="st2" d="M60.4,52.4h-0.6v-0.6C60.2,51.8,60.4,52.1,60.4,52.4z"/>
				<path class="st2" d="M65.4,51.8v0.6h-0.6C64.9,52.1,65.1,51.8,65.4,51.8z"/>
				<path class="st2" d="M63.2,49.6c0,0.3-0.2,0.6-0.6,0.6s-0.6-0.2-0.6-0.6c0-0.3,0.2-0.6,0.6-0.6S63.2,49.3,63.2,49.6z"/>
			</g>
			<g style="clip-path:url(#SVGID_00000124141503377579131470000013113590777772690068_);">
				<rect x="59.9" y="52.4" class="st2" width="5.5" height="5.5"/>
				<path class="st2" d="M60.4,52.4c0,0.3-0.3,0.6-0.6,0.6v-0.6H60.4z"/>
				<path class="st2" d="M65.4,52.4v0.6c-0.3,0-0.6-0.3-0.6-0.6H65.4z"/>
				<path class="st2" d="M60.4,57.9h-0.6v-0.6C60.2,57.4,60.4,57.6,60.4,57.9z"/>
				<path class="st2" d="M65.4,57.4v0.6h-0.6C64.9,57.6,65.1,57.4,65.4,57.4z"/>
				<path class="st2" d="M63.2,55.1c0,0.3-0.2,0.6-0.6,0.6s-0.6-0.2-0.6-0.6c0-0.3,0.2-0.6,0.6-0.6S63.2,54.8,63.2,55.1z"/>
			</g>
			<g style="clip-path:url(#SVGID_00000124141503377579131470000013113590777772690068_);">
				<rect x="54.3" y="2.5" class="st2" width="5.5" height="5.5"/>
				<path class="st2" d="M54.9,2.5c0,0.3-0.3,0.6-0.6,0.6V2.5H54.9z"/>
				<path class="st2" d="M59.9,2.5V3c-0.3,0-0.6-0.3-0.6-0.6H59.9z"/>
				<path class="st2" d="M54.9,8h-0.6V7.5C54.6,7.5,54.9,7.7,54.9,8z"/>
				<path class="st2" d="M59.9,7.5V8h-0.6C59.3,7.7,59.6,7.5,59.9,7.5z"/>
				<path class="st2" d="M57.7,5.3c0,0.3-0.2,0.6-0.6,0.6s-0.6-0.2-0.6-0.6c0-0.3,0.2-0.6,0.6-0.6S57.7,4.9,57.7,5.3z"/>
			</g>
			<g style="clip-path:url(#SVGID_00000124141503377579131470000013113590777772690068_);">
				<rect x="54.3" y="8" class="st2" width="5.5" height="5.5"/>
				<path class="st2" d="M54.9,8c0,0.3-0.3,0.6-0.6,0.6V8H54.9z"/>
				<path class="st2" d="M59.9,8v0.6c-0.3,0-0.6-0.3-0.6-0.6H59.9z"/>
				<path class="st2" d="M54.9,13.6h-0.6V13C54.6,13,54.9,13.2,54.9,13.6z"/>
				<path class="st2" d="M59.9,13v0.6h-0.6C59.3,13.2,59.6,13,59.9,13z"/>
				<circle class="st2" cx="57.1" cy="10.8" r="0.6"/>
			</g>
			<g style="clip-path:url(#SVGID_00000124141503377579131470000013113590777772690068_);">
				<rect x="54.3" y="13.6" class="st2" width="5.5" height="5.5"/>
				<path class="st2" d="M54.9,13.6c0,0.3-0.3,0.6-0.6,0.6v-0.6H54.9z"/>
				<path class="st2" d="M59.9,13.6v0.6c-0.3,0-0.6-0.3-0.6-0.6H59.9z"/>
				<path class="st2" d="M54.9,19.1h-0.6v-0.6C54.6,18.6,54.9,18.8,54.9,19.1z"/>
				<path class="st2" d="M59.9,18.6v0.6h-0.6C59.3,18.8,59.6,18.6,59.9,18.6z"/>
				<path class="st2" d="M57.7,16.3c0,0.3-0.2,0.6-0.6,0.6s-0.6-0.2-0.6-0.6c0-0.3,0.2-0.6,0.6-0.6S57.7,16,57.7,16.3z"/>
			</g>
			<g style="clip-path:url(#SVGID_00000124141503377579131470000013113590777772690068_);">
				<rect x="54.3" y="19.1" class="st2" width="5.5" height="5.5"/>
				<path class="st2" d="M54.9,19.1c0,0.3-0.3,0.6-0.6,0.6v-0.6H54.9z"/>
				<path class="st2" d="M59.9,19.1v0.6c-0.3,0-0.6-0.3-0.6-0.6H59.9z"/>
				<path class="st2" d="M54.9,24.7h-0.6v-0.6C54.6,24.1,54.9,24.3,54.9,24.7z"/>
				<path class="st2" d="M59.9,24.1v0.6h-0.6C59.3,24.3,59.6,24.1,59.9,24.1z"/>
				<path class="st2" d="M57.7,21.9c0,0.3-0.2,0.6-0.6,0.6s-0.6-0.2-0.6-0.6s0.2-0.6,0.6-0.6S57.7,21.6,57.7,21.9z"/>
			</g>
			<g style="clip-path:url(#SVGID_00000124141503377579131470000013113590777772690068_);">
				<rect x="54.3" y="24.7" class="st2" width="5.5" height="5.5"/>
				<path class="st2" d="M54.9,24.7c0,0.3-0.3,0.6-0.6,0.6v-0.6H54.9z"/>
				<path class="st2" d="M59.9,24.7v0.6c-0.3,0-0.6-0.3-0.6-0.6H59.9z"/>
				<path class="st2" d="M54.9,30.2h-0.6v-0.6C54.6,29.7,54.9,29.9,54.9,30.2z"/>
				<path class="st2" d="M59.9,29.7v0.6h-0.6C59.3,29.9,59.6,29.7,59.9,29.7z"/>
				<path class="st2" d="M57.7,27.4c0,0.3-0.2,0.6-0.6,0.6s-0.6-0.2-0.6-0.6s0.2-0.6,0.6-0.6S57.7,27.1,57.7,27.4z"/>
			</g>
			<g style="clip-path:url(#SVGID_00000124141503377579131470000013113590777772690068_);">
				<rect x="54.3" y="30.2" class="st2" width="5.5" height="5.5"/>
				<path class="st2" d="M54.9,30.2c0,0.3-0.3,0.6-0.6,0.6v-0.6H54.9z"/>
				<path class="st2" d="M59.9,30.2v0.6c-0.3,0-0.6-0.3-0.6-0.6H59.9z"/>
				<path class="st2" d="M54.9,35.8h-0.6v-0.6C54.6,35.2,54.9,35.4,54.9,35.8z"/>
				<path class="st2" d="M59.9,35.2v0.6h-0.6C59.3,35.4,59.6,35.2,59.9,35.2z"/>
				<path class="st2" d="M57.7,33c0,0.3-0.2,0.6-0.6,0.6s-0.6-0.2-0.6-0.6s0.2-0.6,0.6-0.6S57.7,32.7,57.7,33z"/>
			</g>
			<g style="clip-path:url(#SVGID_00000124141503377579131470000013113590777772690068_);">
				<rect x="54.3" y="35.8" class="st2" width="5.5" height="5.5"/>
				<path class="st2" d="M54.9,35.8c0,0.3-0.3,0.6-0.6,0.6v-0.6H54.9z"/>
				<path class="st2" d="M59.9,35.8v0.6c-0.3,0-0.6-0.3-0.6-0.6H59.9z"/>
				<path class="st2" d="M54.9,41.3h-0.6v-0.6C54.6,40.7,54.9,41,54.9,41.3z"/>
				<path class="st2" d="M59.9,40.7v0.6h-0.6C59.3,41,59.6,40.7,59.9,40.7z"/>
				<circle class="st2" cx="57.1" cy="38.5" r="0.6"/>
			</g>
			<g style="clip-path:url(#SVGID_00000124141503377579131470000013113590777772690068_);">
				<rect x="54.3" y="41.3" class="st2" width="5.5" height="5.5"/>
				<path class="st2" d="M54.9,41.3c0,0.3-0.3,0.6-0.6,0.6v-0.6H54.9z"/>
				<path class="st2" d="M59.9,41.3v0.6c-0.3,0-0.6-0.3-0.6-0.6H59.9z"/>
				<path class="st2" d="M54.9,46.8h-0.6v-0.6C54.6,46.3,54.9,46.5,54.9,46.8z"/>
				<path class="st2" d="M59.9,46.3v0.6h-0.6C59.3,46.5,59.6,46.3,59.9,46.3z"/>
				<path class="st2" d="M57.7,44.1c0,0.3-0.2,0.6-0.6,0.6s-0.6-0.2-0.6-0.6c0-0.3,0.2-0.6,0.6-0.6S57.7,43.8,57.7,44.1z"/>
			</g>
			<g style="clip-path:url(#SVGID_00000124141503377579131470000013113590777772690068_);">
				<rect x="54.3" y="46.8" class="st2" width="5.5" height="5.5"/>
				<path class="st2" d="M54.9,46.8c0,0.3-0.3,0.6-0.6,0.6v-0.6H54.9z"/>
				<path class="st2" d="M59.9,46.8v0.6c-0.3,0-0.6-0.3-0.6-0.6H59.9z"/>
				<path class="st2" d="M54.9,52.4h-0.6v-0.6C54.6,51.8,54.9,52.1,54.9,52.4z"/>
				<path class="st2" d="M59.9,51.8v0.6h-0.6C59.3,52.1,59.6,51.8,59.9,51.8z"/>
				<circle class="st2" cx="57.1" cy="49.6" r="0.6"/>
			</g>
			<g style="clip-path:url(#SVGID_00000124141503377579131470000013113590777772690068_);">
				<rect x="54.3" y="52.4" class="st2" width="5.5" height="5.5"/>
				<path class="st2" d="M54.9,52.4c0,0.3-0.3,0.6-0.6,0.6v-0.6H54.9z"/>
				<path class="st2" d="M59.9,52.4v0.6c-0.3,0-0.6-0.3-0.6-0.6H59.9z"/>
				<path class="st2" d="M54.9,57.9h-0.6v-0.6C54.6,57.4,54.9,57.6,54.9,57.9z"/>
				<path class="st2" d="M59.9,57.4v0.6h-0.6C59.3,57.6,59.6,57.4,59.9,57.4z"/>
				<path class="st2" d="M57.7,55.1c0,0.3-0.2,0.6-0.6,0.6s-0.6-0.2-0.6-0.6c0-0.3,0.2-0.6,0.6-0.6S57.7,54.8,57.7,55.1z"/>
			</g>
			<g style="clip-path:url(#SVGID_00000124141503377579131470000013113590777772690068_);">
				<rect x="48.8" y="2.5" class="st2" width="5.5" height="5.5"/>
				<path class="st2" d="M49.4,2.5c0,0.3-0.3,0.6-0.6,0.6V2.5H49.4z"/>
				<path class="st2" d="M54.3,2.5V3c-0.3,0-0.6-0.3-0.6-0.6H54.3z"/>
				<path class="st2" d="M49.4,8h-0.6V7.5C49.1,7.5,49.4,7.7,49.4,8z"/>
				<path class="st2" d="M54.3,7.5V8h-0.6C53.8,7.7,54,7.5,54.3,7.5z"/>
				<path class="st2" d="M52.1,5.3c0,0.3-0.2,0.6-0.6,0.6c-0.3,0-0.6-0.2-0.6-0.6c0-0.3,0.2-0.6,0.6-0.6C51.9,4.7,52.1,4.9,52.1,5.3
					z"/>
			</g>
			<g style="clip-path:url(#SVGID_00000124141503377579131470000013113590777772690068_);">
				<rect x="48.8" y="8" class="st2" width="5.5" height="5.5"/>
				<path class="st2" d="M49.4,8c0,0.3-0.3,0.6-0.6,0.6V8H49.4z"/>
				<path class="st2" d="M54.3,8v0.6c-0.3,0-0.6-0.3-0.6-0.6H54.3z"/>
				<path class="st2" d="M49.4,13.6h-0.6V13C49.1,13,49.4,13.2,49.4,13.6z"/>
				<path class="st2" d="M54.3,13v0.6h-0.6C53.8,13.2,54,13,54.3,13z"/>
				<path class="st2" d="M52.1,10.8c0,0.3-0.2,0.6-0.6,0.6c-0.3,0-0.6-0.2-0.6-0.6s0.2-0.6,0.6-0.6C51.9,10.2,52.1,10.5,52.1,10.8z"
					/>
			</g>
			<g style="clip-path:url(#SVGID_00000124141503377579131470000013113590777772690068_);">
				<rect x="48.8" y="13.6" class="st2" width="5.5" height="5.5"/>
				<path class="st2" d="M49.4,13.6c0,0.3-0.3,0.6-0.6,0.6v-0.6H49.4z"/>
				<path class="st2" d="M54.3,13.6v0.6c-0.3,0-0.6-0.3-0.6-0.6H54.3z"/>
				<path class="st2" d="M49.4,19.1h-0.6v-0.6C49.1,18.6,49.4,18.8,49.4,19.1z"/>
				<path class="st2" d="M54.3,18.6v0.6h-0.6C53.8,18.8,54,18.6,54.3,18.6z"/>
				<path class="st2" d="M52.1,16.3c0,0.3-0.2,0.6-0.6,0.6c-0.3,0-0.6-0.2-0.6-0.6c0-0.3,0.2-0.6,0.6-0.6
					C51.9,15.8,52.1,16,52.1,16.3z"/>
			</g>
			<g style="clip-path:url(#SVGID_00000124141503377579131470000013113590777772690068_);">
				<rect x="48.8" y="19.1" class="st2" width="5.5" height="5.5"/>
				<path class="st2" d="M49.4,19.1c0,0.3-0.3,0.6-0.6,0.6v-0.6H49.4z"/>
				<path class="st2" d="M54.3,19.1v0.6c-0.3,0-0.6-0.3-0.6-0.6H54.3z"/>
				<path class="st2" d="M49.4,24.7h-0.6v-0.6C49.1,24.1,49.4,24.3,49.4,24.7z"/>
				<path class="st2" d="M54.3,24.1v0.6h-0.6C53.8,24.3,54,24.1,54.3,24.1z"/>
				<path class="st2" d="M52.1,21.9c0,0.3-0.2,0.6-0.6,0.6c-0.3,0-0.6-0.2-0.6-0.6s0.2-0.6,0.6-0.6C51.9,21.3,52.1,21.6,52.1,21.9z"
					/>
			</g>
			<g style="clip-path:url(#SVGID_00000124141503377579131470000013113590777772690068_);">
				<rect x="48.8" y="24.7" class="st2" width="5.5" height="5.5"/>
				<path class="st2" d="M49.4,24.7c0,0.3-0.3,0.6-0.6,0.6v-0.6H49.4z"/>
				<path class="st2" d="M54.3,24.7v0.6c-0.3,0-0.6-0.3-0.6-0.6H54.3z"/>
				<path class="st2" d="M49.4,30.2h-0.6v-0.6C49.1,29.7,49.4,29.9,49.4,30.2z"/>
				<path class="st2" d="M54.3,29.7v0.6h-0.6C53.8,29.9,54,29.7,54.3,29.7z"/>
				<path class="st2" d="M52.1,27.4c0,0.3-0.2,0.6-0.6,0.6c-0.3,0-0.6-0.2-0.6-0.6s0.2-0.6,0.6-0.6C51.9,26.9,52.1,27.1,52.1,27.4z"
					/>
			</g>
			<g style="clip-path:url(#SVGID_00000124141503377579131470000013113590777772690068_);">
				<rect x="48.8" y="30.2" class="st2" width="5.5" height="5.5"/>
				<path class="st2" d="M49.4,30.2c0,0.3-0.3,0.6-0.6,0.6v-0.6H49.4z"/>
				<path class="st2" d="M54.3,30.2v0.6c-0.3,0-0.6-0.3-0.6-0.6H54.3z"/>
				<path class="st2" d="M49.4,35.8h-0.6v-0.6C49.1,35.2,49.4,35.4,49.4,35.8z"/>
				<path class="st2" d="M54.3,35.2v0.6h-0.6C53.8,35.4,54,35.2,54.3,35.2z"/>
				<path class="st2" d="M52.1,33c0,0.3-0.2,0.6-0.6,0.6c-0.3,0-0.6-0.2-0.6-0.6s0.2-0.6,0.6-0.6C51.9,32.4,52.1,32.7,52.1,33z"/>
			</g>
			<g style="clip-path:url(#SVGID_00000124141503377579131470000013113590777772690068_);">
				<rect x="48.8" y="35.8" class="st2" width="5.5" height="5.5"/>
				<path class="st2" d="M49.4,35.8c0,0.3-0.3,0.6-0.6,0.6v-0.6H49.4z"/>
				<path class="st2" d="M54.3,35.8v0.6c-0.3,0-0.6-0.3-0.6-0.6H54.3z"/>
				<path class="st2" d="M49.4,41.3h-0.6v-0.6C49.1,40.7,49.4,41,49.4,41.3z"/>
				<path class="st2" d="M54.3,40.7v0.6h-0.6C53.8,41,54,40.7,54.3,40.7z"/>
				<path class="st2" d="M52.1,38.5c0,0.3-0.2,0.6-0.6,0.6c-0.3,0-0.6-0.2-0.6-0.6s0.2-0.6,0.6-0.6C51.9,38,52.1,38.2,52.1,38.5z"/>
			</g>
			<g style="clip-path:url(#SVGID_00000124141503377579131470000013113590777772690068_);">
				<rect x="48.8" y="41.3" class="st2" width="5.5" height="5.5"/>
				<path class="st2" d="M49.4,41.3c0,0.3-0.3,0.6-0.6,0.6v-0.6H49.4z"/>
				<path class="st2" d="M54.3,41.3v0.6c-0.3,0-0.6-0.3-0.6-0.6H54.3z"/>
				<path class="st2" d="M49.4,46.8h-0.6v-0.6C49.1,46.3,49.4,46.5,49.4,46.8z"/>
				<path class="st2" d="M54.3,46.3v0.6h-0.6C53.8,46.5,54,46.3,54.3,46.3z"/>
				<path class="st2" d="M52.1,44.1c0,0.3-0.2,0.6-0.6,0.6c-0.3,0-0.6-0.2-0.6-0.6c0-0.3,0.2-0.6,0.6-0.6
					C51.9,43.5,52.1,43.8,52.1,44.1z"/>
			</g>
			<g style="clip-path:url(#SVGID_00000124141503377579131470000013113590777772690068_);">
				<rect x="48.8" y="46.8" class="st2" width="5.5" height="5.5"/>
				<path class="st2" d="M49.4,46.8c0,0.3-0.3,0.6-0.6,0.6v-0.6H49.4z"/>
				<path class="st2" d="M54.3,46.8v0.6c-0.3,0-0.6-0.3-0.6-0.6H54.3z"/>
				<path class="st2" d="M49.4,52.4h-0.6v-0.6C49.1,51.8,49.4,52.1,49.4,52.4z"/>
				<path class="st2" d="M54.3,51.8v0.6h-0.6C53.8,52.1,54,51.8,54.3,51.8z"/>
				<path class="st2" d="M52.1,49.6c0,0.3-0.2,0.6-0.6,0.6c-0.3,0-0.6-0.2-0.6-0.6c0-0.3,0.2-0.6,0.6-0.6
					C51.9,49,52.1,49.3,52.1,49.6z"/>
			</g>
			<g style="clip-path:url(#SVGID_00000124141503377579131470000013113590777772690068_);">
				<rect x="48.8" y="52.4" class="st2" width="5.5" height="5.5"/>
				<path class="st2" d="M49.4,52.4c0,0.3-0.3,0.6-0.6,0.6v-0.6H49.4z"/>
				<path class="st2" d="M54.3,52.4v0.6c-0.3,0-0.6-0.3-0.6-0.6H54.3z"/>
				<path class="st2" d="M49.4,57.9h-0.6v-0.6C49.1,57.4,49.4,57.6,49.4,57.9z"/>
				<path class="st2" d="M54.3,57.4v0.6h-0.6C53.8,57.6,54,57.4,54.3,57.4z"/>
				<path class="st2" d="M52.1,55.1c0,0.3-0.2,0.6-0.6,0.6c-0.3,0-0.6-0.2-0.6-0.6c0-0.3,0.2-0.6,0.6-0.6
					C51.9,54.6,52.1,54.8,52.1,55.1z"/>
			</g>
			<g style="clip-path:url(#SVGID_00000124141503377579131470000013113590777772690068_);">
				<rect x="43.3" y="2.5" class="st2" width="5.5" height="5.5"/>
				<path class="st2" d="M43.8,2.5c0,0.3-0.3,0.6-0.6,0.6V2.5H43.8z"/>
				<path class="st2" d="M48.8,2.5V3c-0.3,0-0.6-0.3-0.6-0.6H48.8z"/>
				<path class="st2" d="M43.8,8h-0.6V7.5C43.5,7.5,43.8,7.7,43.8,8z"/>
				<path class="st2" d="M48.8,7.5V8h-0.6C48.2,7.7,48.5,7.5,48.8,7.5z"/>
				<path class="st2" d="M46.6,5.3c0,0.3-0.2,0.6-0.6,0.6s-0.6-0.2-0.6-0.6c0-0.3,0.2-0.6,0.6-0.6S46.6,4.9,46.6,5.3z"/>
			</g>
			<g style="clip-path:url(#SVGID_00000124141503377579131470000013113590777772690068_);">
				<rect x="43.3" y="8" class="st2" width="5.5" height="5.5"/>
				<path class="st2" d="M43.8,8c0,0.3-0.3,0.6-0.6,0.6V8H43.8z"/>
				<path class="st2" d="M48.8,8v0.6c-0.3,0-0.6-0.3-0.6-0.6H48.8z"/>
				<path class="st2" d="M43.8,13.6h-0.6V13C43.5,13,43.8,13.2,43.8,13.6z"/>
				<path class="st2" d="M48.8,13v0.6h-0.6C48.2,13.2,48.5,13,48.8,13z"/>
				<circle class="st2" cx="46" cy="10.8" r="0.6"/>
			</g>
			<g style="clip-path:url(#SVGID_00000124141503377579131470000013113590777772690068_);">
				<rect x="43.3" y="13.6" class="st2" width="5.5" height="5.5"/>
				<path class="st2" d="M43.8,13.6c0,0.3-0.3,0.6-0.6,0.6v-0.6H43.8z"/>
				<path class="st2" d="M48.8,13.6v0.6c-0.3,0-0.6-0.3-0.6-0.6H48.8z"/>
				<path class="st2" d="M43.8,19.1h-0.6v-0.6C43.5,18.6,43.8,18.8,43.8,19.1z"/>
				<path class="st2" d="M48.8,18.6v0.6h-0.6C48.2,18.8,48.5,18.6,48.8,18.6z"/>
				<path class="st2" d="M46.6,16.3c0,0.3-0.2,0.6-0.6,0.6s-0.6-0.2-0.6-0.6c0-0.3,0.2-0.6,0.6-0.6S46.6,16,46.6,16.3z"/>
			</g>
			<g style="clip-path:url(#SVGID_00000124141503377579131470000013113590777772690068_);">
				<rect x="43.3" y="19.1" class="st2" width="5.5" height="5.5"/>
				<path class="st2" d="M43.8,19.1c0,0.3-0.3,0.6-0.6,0.6v-0.6H43.8z"/>
				<path class="st2" d="M48.8,19.1v0.6c-0.3,0-0.6-0.3-0.6-0.6H48.8z"/>
				<path class="st2" d="M43.8,24.7h-0.6v-0.6C43.5,24.1,43.8,24.3,43.8,24.7z"/>
				<path class="st2" d="M48.8,24.1v0.6h-0.6C48.2,24.3,48.5,24.1,48.8,24.1z"/>
				<path class="st2" d="M46.6,21.9c0,0.3-0.2,0.6-0.6,0.6s-0.6-0.2-0.6-0.6s0.2-0.6,0.6-0.6S46.6,21.6,46.6,21.9z"/>
			</g>
			<g style="clip-path:url(#SVGID_00000124141503377579131470000013113590777772690068_);">
				<rect x="43.3" y="24.7" class="st2" width="5.5" height="5.5"/>
				<path class="st2" d="M43.8,24.7c0,0.3-0.3,0.6-0.6,0.6v-0.6H43.8z"/>
				<path class="st2" d="M48.8,24.7v0.6c-0.3,0-0.6-0.3-0.6-0.6H48.8z"/>
				<path class="st2" d="M43.8,30.2h-0.6v-0.6C43.5,29.7,43.8,29.9,43.8,30.2z"/>
				<path class="st2" d="M48.8,29.7v0.6h-0.6C48.2,29.9,48.5,29.7,48.8,29.7z"/>
				<path class="st2" d="M46.6,27.4c0,0.3-0.2,0.6-0.6,0.6s-0.6-0.2-0.6-0.6s0.2-0.6,0.6-0.6S46.6,27.1,46.6,27.4z"/>
			</g>
			<g style="clip-path:url(#SVGID_00000124141503377579131470000013113590777772690068_);">
				<rect x="43.3" y="30.2" class="st2" width="5.5" height="5.5"/>
				<path class="st2" d="M43.8,30.2c0,0.3-0.3,0.6-0.6,0.6v-0.6H43.8z"/>
				<path class="st2" d="M48.8,30.2v0.6c-0.3,0-0.6-0.3-0.6-0.6H48.8z"/>
				<path class="st2" d="M43.8,35.8h-0.6v-0.6C43.5,35.2,43.8,35.4,43.8,35.8z"/>
				<path class="st2" d="M48.8,35.2v0.6h-0.6C48.2,35.4,48.5,35.2,48.8,35.2z"/>
				<path class="st2" d="M46.6,33c0,0.3-0.2,0.6-0.6,0.6s-0.6-0.2-0.6-0.6s0.2-0.6,0.6-0.6S46.6,32.7,46.6,33z"/>
			</g>
			<g style="clip-path:url(#SVGID_00000124141503377579131470000013113590777772690068_);">
				<rect x="43.3" y="35.8" class="st2" width="5.5" height="5.5"/>
				<path class="st2" d="M43.8,35.8c0,0.3-0.3,0.6-0.6,0.6v-0.6H43.8z"/>
				<path class="st2" d="M48.8,35.8v0.6c-0.3,0-0.6-0.3-0.6-0.6H48.8z"/>
				<path class="st2" d="M43.8,41.3h-0.6v-0.6C43.5,40.7,43.8,41,43.8,41.3z"/>
				<path class="st2" d="M48.8,40.7v0.6h-0.6C48.2,41,48.5,40.7,48.8,40.7z"/>
				<circle class="st2" cx="46" cy="38.5" r="0.6"/>
			</g>
			<g style="clip-path:url(#SVGID_00000124141503377579131470000013113590777772690068_);">
				<rect x="43.3" y="41.3" class="st2" width="5.5" height="5.5"/>
				<path class="st2" d="M43.8,41.3c0,0.3-0.3,0.6-0.6,0.6v-0.6H43.8z"/>
				<path class="st2" d="M48.8,41.3v0.6c-0.3,0-0.6-0.3-0.6-0.6H48.8z"/>
				<path class="st2" d="M43.8,46.8h-0.6v-0.6C43.5,46.3,43.8,46.5,43.8,46.8z"/>
				<path class="st2" d="M48.8,46.3v0.6h-0.6C48.2,46.5,48.5,46.3,48.8,46.3z"/>
				<path class="st2" d="M46.6,44.1c0,0.3-0.2,0.6-0.6,0.6s-0.6-0.2-0.6-0.6c0-0.3,0.2-0.6,0.6-0.6S46.6,43.8,46.6,44.1z"/>
			</g>
			<g style="clip-path:url(#SVGID_00000124141503377579131470000013113590777772690068_);">
				<rect x="43.3" y="46.8" class="st2" width="5.5" height="5.5"/>
				<path class="st2" d="M43.8,46.8c0,0.3-0.3,0.6-0.6,0.6v-0.6H43.8z"/>
				<path class="st2" d="M48.8,46.8v0.6c-0.3,0-0.6-0.3-0.6-0.6H48.8z"/>
				<path class="st2" d="M43.8,52.4h-0.6v-0.6C43.5,51.8,43.8,52.1,43.8,52.4z"/>
				<path class="st2" d="M48.8,51.8v0.6h-0.6C48.2,52.1,48.5,51.8,48.8,51.8z"/>
				<circle class="st2" cx="46" cy="49.6" r="0.6"/>
			</g>
			<g style="clip-path:url(#SVGID_00000124141503377579131470000013113590777772690068_);">
				<rect x="43.3" y="52.4" class="st2" width="5.5" height="5.5"/>
				<path class="st2" d="M43.8,52.4c0,0.3-0.3,0.6-0.6,0.6v-0.6H43.8z"/>
				<path class="st2" d="M48.8,52.4v0.6c-0.3,0-0.6-0.3-0.6-0.6H48.8z"/>
				<path class="st2" d="M43.8,57.9h-0.6v-0.6C43.5,57.4,43.8,57.6,43.8,57.9z"/>
				<path class="st2" d="M48.8,57.4v0.6h-0.6C48.2,57.6,48.5,57.4,48.8,57.4z"/>
				<path class="st2" d="M46.6,55.1c0,0.3-0.2,0.6-0.6,0.6s-0.6-0.2-0.6-0.6c0-0.3,0.2-0.6,0.6-0.6S46.6,54.8,46.6,55.1z"/>
			</g>
			<g style="clip-path:url(#SVGID_00000124141503377579131470000013113590777772690068_);">
				<rect x="37.7" y="2.5" class="st2" width="5.5" height="5.5"/>
				<path class="st2" d="M38.3,2.5C38.3,2.8,38,3,37.7,3V2.5H38.3z"/>
				<path class="st2" d="M43.3,2.5V3c-0.3,0-0.6-0.3-0.6-0.6H43.3z"/>
				<path class="st2" d="M38.3,8h-0.6V7.5C38,7.5,38.3,7.7,38.3,8z"/>
				<path class="st2" d="M43.3,7.5V8h-0.6C42.7,7.7,42.9,7.5,43.3,7.5z"/>
				<path class="st2" d="M41,5.3c0,0.3-0.2,0.6-0.6,0.6c-0.3,0-0.6-0.2-0.6-0.6c0-0.3,0.2-0.6,0.6-0.6C40.8,4.7,41,4.9,41,5.3z"/>
			</g>
			<g style="clip-path:url(#SVGID_00000124141503377579131470000013113590777772690068_);">
				<rect x="37.7" y="8" class="st2" width="5.5" height="5.5"/>
				<path class="st2" d="M38.3,8c0,0.3-0.3,0.6-0.6,0.6V8H38.3z"/>
				<path class="st2" d="M43.3,8v0.6c-0.3,0-0.6-0.3-0.6-0.6H43.3z"/>
				<path class="st2" d="M38.3,13.6h-0.6V13C38,13,38.3,13.2,38.3,13.6z"/>
				<path class="st2" d="M43.3,13v0.6h-0.6C42.7,13.2,42.9,13,43.3,13z"/>
				<path class="st2" d="M41,10.8c0,0.3-0.2,0.6-0.6,0.6c-0.3,0-0.6-0.2-0.6-0.6s0.2-0.6,0.6-0.6C40.8,10.2,41,10.5,41,10.8z"/>
			</g>
			<g style="clip-path:url(#SVGID_00000124141503377579131470000013113590777772690068_);">
				<rect x="37.7" y="13.6" class="st2" width="5.5" height="5.5"/>
				<path class="st2" d="M38.3,13.6c0,0.3-0.3,0.6-0.6,0.6v-0.6H38.3z"/>
				<path class="st2" d="M43.3,13.6v0.6c-0.3,0-0.6-0.3-0.6-0.6H43.3z"/>
				<path class="st2" d="M38.3,19.1h-0.6v-0.6C38,18.6,38.3,18.8,38.3,19.1z"/>
				<path class="st2" d="M43.3,18.6v0.6h-0.6C42.7,18.8,42.9,18.6,43.3,18.6z"/>
				<path class="st2" d="M41,16.3c0,0.3-0.2,0.6-0.6,0.6c-0.3,0-0.6-0.2-0.6-0.6c0-0.3,0.2-0.6,0.6-0.6C40.8,15.8,41,16,41,16.3z"/>
			</g>
			<g style="clip-path:url(#SVGID_00000124141503377579131470000013113590777772690068_);">
				<rect x="37.7" y="19.1" class="st2" width="5.5" height="5.5"/>
				<path class="st2" d="M38.3,19.1c0,0.3-0.3,0.6-0.6,0.6v-0.6H38.3z"/>
				<path class="st2" d="M43.3,19.1v0.6c-0.3,0-0.6-0.3-0.6-0.6H43.3z"/>
				<path class="st2" d="M38.3,24.7h-0.6v-0.6C38,24.1,38.3,24.3,38.3,24.7z"/>
				<path class="st2" d="M43.3,24.1v0.6h-0.6C42.7,24.3,42.9,24.1,43.3,24.1z"/>
				<path class="st2" d="M41,21.9c0,0.3-0.2,0.6-0.6,0.6c-0.3,0-0.6-0.2-0.6-0.6s0.2-0.6,0.6-0.6C40.8,21.3,41,21.6,41,21.9z"/>
			</g>
			<g style="clip-path:url(#SVGID_00000124141503377579131470000013113590777772690068_);">
				<rect x="37.7" y="24.7" class="st2" width="5.5" height="5.5"/>
				<path class="st2" d="M38.3,24.7c0,0.3-0.3,0.6-0.6,0.6v-0.6H38.3z"/>
				<path class="st2" d="M43.3,24.7v0.6c-0.3,0-0.6-0.3-0.6-0.6H43.3z"/>
				<path class="st2" d="M38.3,30.2h-0.6v-0.6C38,29.7,38.3,29.9,38.3,30.2z"/>
				<path class="st2" d="M43.3,29.7v0.6h-0.6C42.7,29.9,42.9,29.7,43.3,29.7z"/>
				<path class="st2" d="M41,27.4c0,0.3-0.2,0.6-0.6,0.6c-0.3,0-0.6-0.2-0.6-0.6s0.2-0.6,0.6-0.6C40.8,26.9,41,27.1,41,27.4z"/>
			</g>
			<g style="clip-path:url(#SVGID_00000124141503377579131470000013113590777772690068_);">
				<rect x="37.7" y="30.2" class="st2" width="5.5" height="5.5"/>
				<path class="st2" d="M38.3,30.2c0,0.3-0.3,0.6-0.6,0.6v-0.6H38.3z"/>
				<path class="st2" d="M43.3,30.2v0.6c-0.3,0-0.6-0.3-0.6-0.6H43.3z"/>
				<path class="st2" d="M38.3,35.8h-0.6v-0.6C38,35.2,38.3,35.4,38.3,35.8z"/>
				<path class="st2" d="M43.3,35.2v0.6h-0.6C42.7,35.4,42.9,35.2,43.3,35.2z"/>
				<path class="st2" d="M41,33c0,0.3-0.2,0.6-0.6,0.6c-0.3,0-0.6-0.2-0.6-0.6s0.2-0.6,0.6-0.6C40.8,32.4,41,32.7,41,33z"/>
			</g>
			<g style="clip-path:url(#SVGID_00000124141503377579131470000013113590777772690068_);">
				<rect x="37.7" y="35.8" class="st2" width="5.5" height="5.5"/>
				<path class="st2" d="M38.3,35.8c0,0.3-0.3,0.6-0.6,0.6v-0.6H38.3z"/>
				<path class="st2" d="M43.3,35.8v0.6c-0.3,0-0.6-0.3-0.6-0.6H43.3z"/>
				<path class="st2" d="M38.3,41.3h-0.6v-0.6C38,40.7,38.3,41,38.3,41.3z"/>
				<path class="st2" d="M43.3,40.7v0.6h-0.6C42.7,41,42.9,40.7,43.3,40.7z"/>
				<path class="st2" d="M41,38.5c0,0.3-0.2,0.6-0.6,0.6c-0.3,0-0.6-0.2-0.6-0.6s0.2-0.6,0.6-0.6C40.8,38,41,38.2,41,38.5z"/>
			</g>
			<g style="clip-path:url(#SVGID_00000124141503377579131470000013113590777772690068_);">
				<rect x="37.7" y="41.3" class="st2" width="5.5" height="5.5"/>
				<path class="st2" d="M38.3,41.3c0,0.3-0.3,0.6-0.6,0.6v-0.6H38.3z"/>
				<path class="st2" d="M43.3,41.3v0.6c-0.3,0-0.6-0.3-0.6-0.6H43.3z"/>
				<path class="st2" d="M38.3,46.8h-0.6v-0.6C38,46.3,38.3,46.5,38.3,46.8z"/>
				<path class="st2" d="M43.3,46.3v0.6h-0.6C42.7,46.5,42.9,46.3,43.3,46.3z"/>
				<path class="st2" d="M41,44.1c0,0.3-0.2,0.6-0.6,0.6c-0.3,0-0.6-0.2-0.6-0.6c0-0.3,0.2-0.6,0.6-0.6C40.8,43.5,41,43.8,41,44.1z"
					/>
			</g>
			<g style="clip-path:url(#SVGID_00000124141503377579131470000013113590777772690068_);">
				<rect x="37.7" y="46.8" class="st2" width="5.5" height="5.5"/>
				<path class="st2" d="M38.3,46.8c0,0.3-0.3,0.6-0.6,0.6v-0.6H38.3z"/>
				<path class="st2" d="M43.3,46.8v0.6c-0.3,0-0.6-0.3-0.6-0.6H43.3z"/>
				<path class="st2" d="M38.3,52.4h-0.6v-0.6C38,51.8,38.3,52.1,38.3,52.4z"/>
				<path class="st2" d="M43.3,51.8v0.6h-0.6C42.7,52.1,42.9,51.8,43.3,51.8z"/>
				<path class="st2" d="M41,49.6c0,0.3-0.2,0.6-0.6,0.6c-0.3,0-0.6-0.2-0.6-0.6c0-0.3,0.2-0.6,0.6-0.6C40.8,49,41,49.3,41,49.6z"/>
			</g>
			<g style="clip-path:url(#SVGID_00000124141503377579131470000013113590777772690068_);">
				<rect x="37.7" y="52.4" class="st2" width="5.5" height="5.5"/>
				<path class="st2" d="M38.3,52.4c0,0.3-0.3,0.6-0.6,0.6v-0.6H38.3z"/>
				<path class="st2" d="M43.3,52.4v0.6c-0.3,0-0.6-0.3-0.6-0.6H43.3z"/>
				<path class="st2" d="M38.3,57.9h-0.6v-0.6C38,57.4,38.3,57.6,38.3,57.9z"/>
				<path class="st2" d="M43.3,57.4v0.6h-0.6C42.7,57.6,42.9,57.4,43.3,57.4z"/>
				<path class="st2" d="M41,55.1c0,0.3-0.2,0.6-0.6,0.6c-0.3,0-0.6-0.2-0.6-0.6c0-0.3,0.2-0.6,0.6-0.6C40.8,54.6,41,54.8,41,55.1z"
					/>
			</g>
		</g>
		<path class="st3" d="M71.5,54.3H39.4v-11l0.2-0.2l17.2-18.6c1.7-1.9,2.2-2.9,2.2-4.4c0-2.3-1.2-3.6-3.4-3.6
			c-2.4,0-3.4,1.1-3.6,3.8l0,0.8H39.4l0-0.9c0.1-2.9,0.3-4.2,1.1-6.1c2.4-5.7,8-9.1,15.1-9.1c9.5,0,15.9,6,15.9,15.1
			c0,4.6-1.3,7.2-6.1,12.3l-10,10.6h16.1V54.3z M41.1,52.6h28.8v-8.2H51.6L64.2,31c4.5-4.8,5.6-7,5.6-11.1c0-8-5.7-13.4-14.3-13.4
			c-6.4,0-11.4,3-13.5,8.1c-0.6,1.4-0.8,2.4-1,4.7h9.3c0.4-3,2.1-4.6,5.2-4.6c3.1,0,5.1,2,5.1,5.3c0,2-0.7,3.4-2.6,5.5L41.1,43.9
			V52.6z"/>
	</g>
	<g>
		<g>
			<path class="st0" d="M116.4,37.6c0.9,1.6,1.3,3.6,1.3,5.9c0,8.7-6.2,14.3-15.6,14.3c-4.8,0-9-1.6-11.8-4.3c-3-3-3.6-6.2-3.8-10.3
				h10.8c0.1,3.2,1.8,4.9,4.8,4.9c3,0,4.8-1.8,4.8-4.9c0-3-2-5.1-5-5.1h-1.5v-9.3h1.5c2.7,0,4.5-1.7,4.5-4.5c0-2.6-1.8-4.4-4.3-4.4
				c-2.6,0-4.1,1.6-4.3,4.4H87.1c0.1-2.8,0.4-4,1.1-5.7c2.2-5.3,7.5-8.5,14-8.5c8.8,0,15.1,5.9,15.1,14c0,2.6-0.7,4.9-2.1,6.6
				c-0.7,0.9-1.2,1.4-2.8,2.4C114.7,34.9,115.5,35.8,116.4,37.6z"/>
		</g>
	</g>
	<g>
		<defs>
			<path id="SVGID_00000125562846136294659370000001264468424400055456_" d="M112.1,33.3c0.9,1.6,1.3,3.6,1.3,5.9
				c0,8.7-6.2,14.3-15.6,14.3c-4.8,0-9-1.6-11.8-4.3c-3-3-3.6-6.2-3.8-10.3H93c0.1,3.2,1.8,4.9,4.8,4.9c3,0,4.8-1.8,4.8-4.9
				c0-3-2-5.1-5-5.1h-1.5v-9.3h1.5c2.7,0,4.5-1.7,4.5-4.5c0-2.6-1.8-4.4-4.3-4.4c-2.6,0-4.1,1.6-4.3,4.4H82.7c0.1-2.8,0.4-4,1.1-5.7
				c2.2-5.3,7.5-8.5,14-8.5c8.8,0,15.1,5.9,15.1,14c0,2.6-0.7,4.9-2.1,6.6c-0.7,0.9-1.2,1.4-2.8,2.4
				C110.3,30.6,111.1,31.4,112.1,33.3z"/>
		</defs>
		<clipPath id="SVGID_00000122701222841342086110000015979248098293916593_">
			<use xlink:href="#SVGID_00000125562846136294659370000001264468424400055456_"  style="overflow:visible;"/>
		</clipPath>
		<g style="clip-path:url(#SVGID_00000122701222841342086110000015979248098293916593_);">
			<rect x="108.4" y="5.7" class="st2" width="5.5" height="5.5"/>
			<path class="st2" d="M108.9,5.7c0,0.3-0.3,0.5-0.5,0.5V5.7H108.9z"/>
			<path class="st2" d="M113.9,5.7v0.5c-0.3,0-0.5-0.3-0.5-0.5H113.9z"/>
			<path class="st2" d="M108.9,11.2h-0.5v-0.5C108.7,10.6,108.9,10.8,108.9,11.2z"/>
			<path class="st2" d="M113.9,10.6v0.5h-0.5C113.3,10.8,113.6,10.6,113.9,10.6z"/>
			<path class="st2" d="M111.7,8.4c0,0.3-0.2,0.5-0.5,0.5s-0.5-0.2-0.5-0.5c0-0.3,0.2-0.5,0.5-0.5S111.7,8.1,111.7,8.4z"/>
		</g>
		<g style="clip-path:url(#SVGID_00000122701222841342086110000015979248098293916593_);">
			<rect x="108.4" y="11.2" class="st2" width="5.5" height="5.5"/>
			<path class="st2" d="M108.9,11.2c0,0.3-0.3,0.5-0.5,0.5v-0.5H108.9z"/>
			<path class="st2" d="M113.9,11.2v0.5c-0.3,0-0.5-0.3-0.5-0.5H113.9z"/>
			<path class="st2" d="M108.9,16.6h-0.5v-0.5C108.7,16.1,108.9,16.3,108.9,16.6z"/>
			<path class="st2" d="M113.9,16.1v0.5h-0.5C113.3,16.3,113.6,16.1,113.9,16.1z"/>
			<path class="st2" d="M111.7,13.9c0,0.3-0.2,0.5-0.5,0.5s-0.5-0.2-0.5-0.5s0.2-0.5,0.5-0.5S111.7,13.6,111.7,13.9z"/>
		</g>
		<g style="clip-path:url(#SVGID_00000122701222841342086110000015979248098293916593_);">
			<rect x="108.4" y="16.6" class="st2" width="5.5" height="5.5"/>
			<path class="st2" d="M108.9,16.6c0,0.3-0.3,0.5-0.5,0.5v-0.5H108.9z"/>
			<path class="st2" d="M113.9,16.6v0.5c-0.3,0-0.5-0.3-0.5-0.5H113.9z"/>
			<path class="st2" d="M108.9,22.1h-0.5v-0.5C108.7,21.6,108.9,21.8,108.9,22.1z"/>
			<path class="st2" d="M113.9,21.6v0.5h-0.5C113.3,21.8,113.6,21.6,113.9,21.6z"/>
			<path class="st2" d="M111.7,19.4c0,0.3-0.2,0.5-0.5,0.5s-0.5-0.2-0.5-0.5s0.2-0.5,0.5-0.5S111.7,19.1,111.7,19.4z"/>
		</g>
		<g style="clip-path:url(#SVGID_00000122701222841342086110000015979248098293916593_);">
			<rect x="108.4" y="22.1" class="st2" width="5.5" height="5.5"/>
			<path class="st2" d="M108.9,22.1c0,0.3-0.3,0.5-0.5,0.5v-0.5H108.9z"/>
			<path class="st2" d="M113.9,22.1v0.5c-0.3,0-0.5-0.3-0.5-0.5H113.9z"/>
			<path class="st2" d="M108.9,27.6h-0.5v-0.5C108.7,27.1,108.9,27.3,108.9,27.6z"/>
			<path class="st2" d="M113.9,27.1v0.5h-0.5C113.3,27.3,113.6,27.1,113.9,27.1z"/>
			<path class="st2" d="M111.7,24.9c0,0.3-0.2,0.5-0.5,0.5s-0.5-0.2-0.5-0.5c0-0.3,0.2-0.5,0.5-0.5S111.7,24.6,111.7,24.9z"/>
		</g>
		<g style="clip-path:url(#SVGID_00000122701222841342086110000015979248098293916593_);">
			<rect x="108.4" y="27.6" class="st2" width="5.5" height="5.5"/>
			<path class="st2" d="M108.9,27.6c0,0.3-0.3,0.5-0.5,0.5v-0.5H108.9z"/>
			<path class="st2" d="M113.9,27.6v0.5c-0.3,0-0.5-0.3-0.5-0.5H113.9z"/>
			<path class="st2" d="M108.9,33.1h-0.5v-0.5C108.7,32.6,108.9,32.8,108.9,33.1z"/>
			<path class="st2" d="M113.9,32.6v0.5h-0.5C113.3,32.8,113.6,32.6,113.9,32.6z"/>
			<path class="st2" d="M111.7,30.3c0,0.3-0.2,0.5-0.5,0.5s-0.5-0.2-0.5-0.5s0.2-0.5,0.5-0.5S111.7,30,111.7,30.3z"/>
		</g>
		<g style="clip-path:url(#SVGID_00000122701222841342086110000015979248098293916593_);">
			<rect x="108.4" y="33.1" class="st2" width="5.5" height="5.5"/>
			<path class="st2" d="M108.9,33.1c0,0.3-0.3,0.5-0.5,0.5v-0.5H108.9z"/>
			<path class="st2" d="M113.9,33.1v0.5c-0.3,0-0.5-0.3-0.5-0.5H113.9z"/>
			<path class="st2" d="M108.9,38.6h-0.5V38C108.7,38,108.9,38.3,108.9,38.6z"/>
			<path class="st2" d="M113.9,38v0.5h-0.5C113.3,38.3,113.6,38,113.9,38z"/>
			<path class="st2" d="M111.7,35.8c0,0.3-0.2,0.5-0.5,0.5s-0.5-0.2-0.5-0.5c0-0.3,0.2-0.5,0.5-0.5S111.7,35.5,111.7,35.8z"/>
		</g>
		<g style="clip-path:url(#SVGID_00000122701222841342086110000015979248098293916593_);">
			<rect x="108.4" y="38.6" class="st2" width="5.5" height="5.5"/>
			<path class="st2" d="M108.9,38.6c0,0.3-0.3,0.5-0.5,0.5v-0.5H108.9z"/>
			<path class="st2" d="M113.9,38.6v0.5c-0.3,0-0.5-0.3-0.5-0.5H113.9z"/>
			<path class="st2" d="M108.9,44.1h-0.5v-0.5C108.7,43.5,108.9,43.8,108.9,44.1z"/>
			<path class="st2" d="M113.9,43.5v0.5h-0.5C113.3,43.8,113.6,43.5,113.9,43.5z"/>
			<path class="st2" d="M111.7,41.3c0,0.3-0.2,0.5-0.5,0.5s-0.5-0.2-0.5-0.5s0.2-0.5,0.5-0.5S111.7,41,111.7,41.3z"/>
		</g>
		<g style="clip-path:url(#SVGID_00000122701222841342086110000015979248098293916593_);">
			<rect x="108.4" y="44.1" class="st2" width="5.5" height="5.5"/>
			<path class="st2" d="M108.9,44.1c0,0.3-0.3,0.5-0.5,0.5v-0.5H108.9z"/>
			<path class="st2" d="M113.9,44.1v0.5c-0.3,0-0.5-0.3-0.5-0.5H113.9z"/>
			<path class="st2" d="M108.9,49.6h-0.5V49C108.7,49,108.9,49.2,108.9,49.6z"/>
			<path class="st2" d="M113.9,49v0.5h-0.5C113.3,49.2,113.6,49,113.9,49z"/>
			<path class="st2" d="M111.7,46.8c0,0.3-0.2,0.5-0.5,0.5s-0.5-0.2-0.5-0.5s0.2-0.5,0.5-0.5S111.7,46.5,111.7,46.8z"/>
		</g>
		<g style="clip-path:url(#SVGID_00000122701222841342086110000015979248098293916593_);">
			<rect x="108.4" y="49.6" class="st2" width="5.5" height="5.5"/>
			<path class="st2" d="M108.9,49.6c0,0.3-0.3,0.5-0.5,0.5v-0.5H108.9z"/>
			<path class="st2" d="M113.9,49.6v0.5c-0.3,0-0.5-0.3-0.5-0.5H113.9z"/>
			<path class="st2" d="M108.9,55.1h-0.5v-0.5C108.7,54.5,108.9,54.7,108.9,55.1z"/>
			<path class="st2" d="M113.9,54.5v0.5h-0.5C113.3,54.7,113.6,54.5,113.9,54.5z"/>
			<path class="st2" d="M111.7,52.3c0,0.3-0.2,0.5-0.5,0.5s-0.5-0.2-0.5-0.5s0.2-0.5,0.5-0.5S111.7,52,111.7,52.3z"/>
		</g>
		<g style="clip-path:url(#SVGID_00000122701222841342086110000015979248098293916593_);">
			<rect x="102.9" y="5.7" class="st2" width="5.5" height="5.5"/>
			<path class="st2" d="M103.5,5.7c0,0.3-0.3,0.5-0.5,0.5V5.7H103.5z"/>
			<path class="st2" d="M108.4,5.7v0.5c-0.3,0-0.5-0.3-0.5-0.5H108.4z"/>
			<path class="st2" d="M103.5,11.2h-0.5v-0.5C103.2,10.6,103.5,10.8,103.5,11.2z"/>
			<path class="st2" d="M108.4,10.6v0.5h-0.5C107.8,10.8,108.1,10.6,108.4,10.6z"/>
			<path class="st2" d="M106.2,8.4c0,0.3-0.2,0.5-0.5,0.5c-0.3,0-0.5-0.2-0.5-0.5c0-0.3,0.2-0.5,0.5-0.5
				C105.9,7.8,106.2,8.1,106.2,8.4z"/>
		</g>
		<g style="clip-path:url(#SVGID_00000122701222841342086110000015979248098293916593_);">
			<rect x="102.9" y="11.2" class="st2" width="5.5" height="5.5"/>
			<path class="st2" d="M103.5,11.2c0,0.3-0.3,0.5-0.5,0.5v-0.5H103.5z"/>
			<path class="st2" d="M108.4,11.2v0.5c-0.3,0-0.5-0.3-0.5-0.5H108.4z"/>
			<path class="st2" d="M103.5,16.6h-0.5v-0.5C103.2,16.1,103.5,16.3,103.5,16.6z"/>
			<path class="st2" d="M108.4,16.1v0.5h-0.5C107.8,16.3,108.1,16.1,108.4,16.1z"/>
			<path class="st2" d="M106.2,13.9c0,0.3-0.2,0.5-0.5,0.5c-0.3,0-0.5-0.2-0.5-0.5s0.2-0.5,0.5-0.5
				C105.9,13.3,106.2,13.6,106.2,13.9z"/>
		</g>
		<g style="clip-path:url(#SVGID_00000122701222841342086110000015979248098293916593_);">
			<rect x="102.9" y="16.6" class="st2" width="5.5" height="5.5"/>
			<path class="st2" d="M103.5,16.6c0,0.3-0.3,0.5-0.5,0.5v-0.5H103.5z"/>
			<path class="st2" d="M108.4,16.6v0.5c-0.3,0-0.5-0.3-0.5-0.5H108.4z"/>
			<path class="st2" d="M103.5,22.1h-0.5v-0.5C103.2,21.6,103.5,21.8,103.5,22.1z"/>
			<path class="st2" d="M108.4,21.6v0.5h-0.5C107.8,21.8,108.1,21.6,108.4,21.6z"/>
			<path class="st2" d="M106.2,19.4c0,0.3-0.2,0.5-0.5,0.5c-0.3,0-0.5-0.2-0.5-0.5s0.2-0.5,0.5-0.5
				C105.9,18.8,106.2,19.1,106.2,19.4z"/>
		</g>
		<g style="clip-path:url(#SVGID_00000122701222841342086110000015979248098293916593_);">
			<rect x="102.9" y="22.1" class="st2" width="5.5" height="5.5"/>
			<path class="st2" d="M103.5,22.1c0,0.3-0.3,0.5-0.5,0.5v-0.5H103.5z"/>
			<path class="st2" d="M108.4,22.1v0.5c-0.3,0-0.5-0.3-0.5-0.5H108.4z"/>
			<path class="st2" d="M103.5,27.6h-0.5v-0.5C103.2,27.1,103.5,27.3,103.5,27.6z"/>
			<path class="st2" d="M108.4,27.1v0.5h-0.5C107.8,27.3,108.1,27.1,108.4,27.1z"/>
			<path class="st2" d="M106.2,24.9c0,0.3-0.2,0.5-0.5,0.5c-0.3,0-0.5-0.2-0.5-0.5c0-0.3,0.2-0.5,0.5-0.5
				C105.9,24.3,106.2,24.6,106.2,24.9z"/>
		</g>
		<g style="clip-path:url(#SVGID_00000122701222841342086110000015979248098293916593_);">
			<rect x="102.9" y="27.6" class="st2" width="5.5" height="5.5"/>
			<path class="st2" d="M103.5,27.6c0,0.3-0.3,0.5-0.5,0.5v-0.5H103.5z"/>
			<path class="st2" d="M108.4,27.6v0.5c-0.3,0-0.5-0.3-0.5-0.5H108.4z"/>
			<path class="st2" d="M103.5,33.1h-0.5v-0.5C103.2,32.6,103.5,32.8,103.5,33.1z"/>
			<path class="st2" d="M108.4,32.6v0.5h-0.5C107.8,32.8,108.1,32.6,108.4,32.6z"/>
			<path class="st2" d="M106.2,30.3c0,0.3-0.2,0.5-0.5,0.5c-0.3,0-0.5-0.2-0.5-0.5s0.2-0.5,0.5-0.5C105.9,29.8,106.2,30,106.2,30.3z
				"/>
		</g>
		<g style="clip-path:url(#SVGID_00000122701222841342086110000015979248098293916593_);">
			<rect x="102.9" y="33.1" class="st2" width="5.5" height="5.5"/>
			<path class="st2" d="M103.5,33.1c0,0.3-0.3,0.5-0.5,0.5v-0.5H103.5z"/>
			<path class="st2" d="M108.4,33.1v0.5c-0.3,0-0.5-0.3-0.5-0.5H108.4z"/>
			<path class="st2" d="M103.5,38.6h-0.5V38C103.2,38,103.5,38.3,103.5,38.6z"/>
			<path class="st2" d="M108.4,38v0.5h-0.5C107.8,38.3,108.1,38,108.4,38z"/>
			<path class="st2" d="M106.2,35.8c0,0.3-0.2,0.5-0.5,0.5c-0.3,0-0.5-0.2-0.5-0.5c0-0.3,0.2-0.5,0.5-0.5
				C105.9,35.3,106.2,35.5,106.2,35.8z"/>
		</g>
		<g style="clip-path:url(#SVGID_00000122701222841342086110000015979248098293916593_);">
			<rect x="102.9" y="38.6" class="st2" width="5.5" height="5.5"/>
			<path class="st2" d="M103.5,38.6c0,0.3-0.3,0.5-0.5,0.5v-0.5H103.5z"/>
			<path class="st2" d="M108.4,38.6v0.5c-0.3,0-0.5-0.3-0.5-0.5H108.4z"/>
			<path class="st2" d="M103.5,44.1h-0.5v-0.5C103.2,43.5,103.5,43.8,103.5,44.1z"/>
			<path class="st2" d="M108.4,43.5v0.5h-0.5C107.8,43.8,108.1,43.5,108.4,43.5z"/>
			<path class="st2" d="M106.2,41.3c0,0.3-0.2,0.5-0.5,0.5c-0.3,0-0.5-0.2-0.5-0.5s0.2-0.5,0.5-0.5C105.9,40.8,106.2,41,106.2,41.3z
				"/>
		</g>
		<g style="clip-path:url(#SVGID_00000122701222841342086110000015979248098293916593_);">
			<rect x="102.9" y="44.1" class="st2" width="5.5" height="5.5"/>
			<path class="st2" d="M103.5,44.1c0,0.3-0.3,0.5-0.5,0.5v-0.5H103.5z"/>
			<path class="st2" d="M108.4,44.1v0.5c-0.3,0-0.5-0.3-0.5-0.5H108.4z"/>
			<path class="st2" d="M103.5,49.6h-0.5V49C103.2,49,103.5,49.2,103.5,49.6z"/>
			<path class="st2" d="M108.4,49v0.5h-0.5C107.8,49.2,108.1,49,108.4,49z"/>
			<path class="st2" d="M106.2,46.8c0,0.3-0.2,0.5-0.5,0.5c-0.3,0-0.5-0.2-0.5-0.5s0.2-0.5,0.5-0.5
				C105.9,46.3,106.2,46.5,106.2,46.8z"/>
		</g>
		<g style="clip-path:url(#SVGID_00000122701222841342086110000015979248098293916593_);">
			<rect x="102.9" y="49.6" class="st2" width="5.5" height="5.5"/>
			<path class="st2" d="M103.5,49.6c0,0.3-0.3,0.5-0.5,0.5v-0.5H103.5z"/>
			<path class="st2" d="M108.4,49.6v0.5c-0.3,0-0.5-0.3-0.5-0.5H108.4z"/>
			<path class="st2" d="M103.5,55.1h-0.5v-0.5C103.2,54.5,103.5,54.7,103.5,55.1z"/>
			<path class="st2" d="M108.4,54.5v0.5h-0.5C107.8,54.7,108.1,54.5,108.4,54.5z"/>
			<path class="st2" d="M106.2,52.3c0,0.3-0.2,0.5-0.5,0.5c-0.3,0-0.5-0.2-0.5-0.5s0.2-0.5,0.5-0.5C105.9,51.7,106.2,52,106.2,52.3z
				"/>
		</g>
		<g style="clip-path:url(#SVGID_00000122701222841342086110000015979248098293916593_);">
			<rect x="97.4" y="5.7" class="st2" width="5.5" height="5.5"/>
			<path class="st2" d="M98,5.7c0,0.3-0.3,0.5-0.5,0.5V5.7H98z"/>
			<path class="st2" d="M102.9,5.7v0.5c-0.3,0-0.5-0.3-0.5-0.5H102.9z"/>
			<path class="st2" d="M98,11.2h-0.5v-0.5C97.7,10.6,98,10.8,98,11.2z"/>
			<path class="st2" d="M102.9,10.6v0.5h-0.5C102.4,10.8,102.6,10.6,102.9,10.6z"/>
			<path class="st2" d="M100.7,8.4c0,0.3-0.2,0.5-0.5,0.5s-0.5-0.2-0.5-0.5c0-0.3,0.2-0.5,0.5-0.5S100.7,8.1,100.7,8.4z"/>
		</g>
		<g style="clip-path:url(#SVGID_00000122701222841342086110000015979248098293916593_);">
			<rect x="97.4" y="11.2" class="st2" width="5.5" height="5.5"/>
			<path class="st2" d="M98,11.2c0,0.3-0.3,0.5-0.5,0.5v-0.5H98z"/>
			<path class="st2" d="M102.9,11.2v0.5c-0.3,0-0.5-0.3-0.5-0.5H102.9z"/>
			<path class="st2" d="M98,16.6h-0.5v-0.5C97.7,16.1,98,16.3,98,16.6z"/>
			<path class="st2" d="M102.9,16.1v0.5h-0.5C102.4,16.3,102.6,16.1,102.9,16.1z"/>
			<path class="st2" d="M100.7,13.9c0,0.3-0.2,0.5-0.5,0.5s-0.5-0.2-0.5-0.5s0.2-0.5,0.5-0.5S100.7,13.6,100.7,13.9z"/>
		</g>
		<g style="clip-path:url(#SVGID_00000122701222841342086110000015979248098293916593_);">
			<rect x="97.4" y="16.6" class="st2" width="5.5" height="5.5"/>
			<path class="st2" d="M98,16.6c0,0.3-0.3,0.5-0.5,0.5v-0.5H98z"/>
			<path class="st2" d="M102.9,16.6v0.5c-0.3,0-0.5-0.3-0.5-0.5H102.9z"/>
			<path class="st2" d="M98,22.1h-0.5v-0.5C97.7,21.6,98,21.8,98,22.1z"/>
			<path class="st2" d="M102.9,21.6v0.5h-0.5C102.4,21.8,102.6,21.6,102.9,21.6z"/>
			<circle class="st2" cx="100.2" cy="19.4" r="0.5"/>
		</g>
		<g style="clip-path:url(#SVGID_00000122701222841342086110000015979248098293916593_);">
			<rect x="97.4" y="22.1" class="st2" width="5.5" height="5.5"/>
			<path class="st2" d="M98,22.1c0,0.3-0.3,0.5-0.5,0.5v-0.5H98z"/>
			<path class="st2" d="M102.9,22.1v0.5c-0.3,0-0.5-0.3-0.5-0.5H102.9z"/>
			<path class="st2" d="M98,27.6h-0.5v-0.5C97.7,27.1,98,27.3,98,27.6z"/>
			<path class="st2" d="M102.9,27.1v0.5h-0.5C102.4,27.3,102.6,27.1,102.9,27.1z"/>
			<path class="st2" d="M100.7,24.9c0,0.3-0.2,0.5-0.5,0.5s-0.5-0.2-0.5-0.5c0-0.3,0.2-0.5,0.5-0.5S100.7,24.6,100.7,24.9z"/>
		</g>
		<g style="clip-path:url(#SVGID_00000122701222841342086110000015979248098293916593_);">
			<rect x="97.4" y="27.6" class="st2" width="5.5" height="5.5"/>
			<path class="st2" d="M98,27.6c0,0.3-0.3,0.5-0.5,0.5v-0.5H98z"/>
			<path class="st2" d="M102.9,27.6v0.5c-0.3,0-0.5-0.3-0.5-0.5H102.9z"/>
			<path class="st2" d="M98,33.1h-0.5v-0.5C97.7,32.6,98,32.8,98,33.1z"/>
			<path class="st2" d="M102.9,32.6v0.5h-0.5C102.4,32.8,102.6,32.6,102.9,32.6z"/>
			<circle class="st2" cx="100.2" cy="30.3" r="0.5"/>
		</g>
		<g style="clip-path:url(#SVGID_00000122701222841342086110000015979248098293916593_);">
			<rect x="97.4" y="33.1" class="st2" width="5.5" height="5.5"/>
			<path class="st2" d="M98,33.1c0,0.3-0.3,0.5-0.5,0.5v-0.5H98z"/>
			<path class="st2" d="M102.9,33.1v0.5c-0.3,0-0.5-0.3-0.5-0.5H102.9z"/>
			<path class="st2" d="M98,38.6h-0.5V38C97.7,38,98,38.3,98,38.6z"/>
			<path class="st2" d="M102.9,38v0.5h-0.5C102.4,38.3,102.6,38,102.9,38z"/>
			<path class="st2" d="M100.7,35.8c0,0.3-0.2,0.5-0.5,0.5s-0.5-0.2-0.5-0.5c0-0.3,0.2-0.5,0.5-0.5S100.7,35.5,100.7,35.8z"/>
		</g>
		<g style="clip-path:url(#SVGID_00000122701222841342086110000015979248098293916593_);">
			<rect x="97.4" y="38.6" class="st2" width="5.5" height="5.5"/>
			<path class="st2" d="M98,38.6c0,0.3-0.3,0.5-0.5,0.5v-0.5H98z"/>
			<path class="st2" d="M102.9,38.6v0.5c-0.3,0-0.5-0.3-0.5-0.5H102.9z"/>
			<path class="st2" d="M98,44.1h-0.5v-0.5C97.7,43.5,98,43.8,98,44.1z"/>
			<path class="st2" d="M102.9,43.5v0.5h-0.5C102.4,43.8,102.6,43.5,102.9,43.5z"/>
			<circle class="st2" cx="100.2" cy="41.3" r="0.5"/>
		</g>
		<g style="clip-path:url(#SVGID_00000122701222841342086110000015979248098293916593_);">
			<rect x="97.4" y="44.1" class="st2" width="5.5" height="5.5"/>
			<path class="st2" d="M98,44.1c0,0.3-0.3,0.5-0.5,0.5v-0.5H98z"/>
			<path class="st2" d="M102.9,44.1v0.5c-0.3,0-0.5-0.3-0.5-0.5H102.9z"/>
			<path class="st2" d="M98,49.6h-0.5V49C97.7,49,98,49.2,98,49.6z"/>
			<path class="st2" d="M102.9,49v0.5h-0.5C102.4,49.2,102.6,49,102.9,49z"/>
			<path class="st2" d="M100.7,46.8c0,0.3-0.2,0.5-0.5,0.5s-0.5-0.2-0.5-0.5s0.2-0.5,0.5-0.5S100.7,46.5,100.7,46.8z"/>
		</g>
		<g style="clip-path:url(#SVGID_00000122701222841342086110000015979248098293916593_);">
			<rect x="97.4" y="49.6" class="st2" width="5.5" height="5.5"/>
			<path class="st2" d="M98,49.6c0,0.3-0.3,0.5-0.5,0.5v-0.5H98z"/>
			<path class="st2" d="M102.9,49.6v0.5c-0.3,0-0.5-0.3-0.5-0.5H102.9z"/>
			<path class="st2" d="M98,55.1h-0.5v-0.5C97.7,54.5,98,54.7,98,55.1z"/>
			<path class="st2" d="M102.9,54.5v0.5h-0.5C102.4,54.7,102.6,54.5,102.9,54.5z"/>
			<path class="st2" d="M100.7,52.3c0,0.3-0.2,0.5-0.5,0.5s-0.5-0.2-0.5-0.5s0.2-0.5,0.5-0.5S100.7,52,100.7,52.3z"/>
		</g>
		<g style="clip-path:url(#SVGID_00000122701222841342086110000015979248098293916593_);">
			<rect x="91.9" y="5.7" class="st2" width="5.5" height="5.5"/>
			<path class="st2" d="M92.5,5.7c0,0.3-0.3,0.5-0.5,0.5V5.7H92.5z"/>
			<path class="st2" d="M97.4,5.7v0.5c-0.3,0-0.5-0.3-0.5-0.5H97.4z"/>
			<path class="st2" d="M92.5,11.2h-0.5v-0.5C92.2,10.6,92.5,10.8,92.5,11.2z"/>
			<path class="st2" d="M97.4,10.6v0.5h-0.5C96.9,10.8,97.1,10.6,97.4,10.6z"/>
			<path class="st2" d="M95.2,8.4c0,0.3-0.2,0.5-0.5,0.5c-0.3,0-0.5-0.2-0.5-0.5c0-0.3,0.2-0.5,0.5-0.5C95,7.8,95.2,8.1,95.2,8.4z"
				/>
		</g>
		<g style="clip-path:url(#SVGID_00000122701222841342086110000015979248098293916593_);">
			<rect x="91.9" y="11.2" class="st2" width="5.5" height="5.5"/>
			<path class="st2" d="M92.5,11.2c0,0.3-0.3,0.5-0.5,0.5v-0.5H92.5z"/>
			<path class="st2" d="M97.4,11.2v0.5c-0.3,0-0.5-0.3-0.5-0.5H97.4z"/>
			<path class="st2" d="M92.5,16.6h-0.5v-0.5C92.2,16.1,92.5,16.3,92.5,16.6z"/>
			<path class="st2" d="M97.4,16.1v0.5h-0.5C96.9,16.3,97.1,16.1,97.4,16.1z"/>
			<path class="st2" d="M95.2,13.9c0,0.3-0.2,0.5-0.5,0.5c-0.3,0-0.5-0.2-0.5-0.5s0.2-0.5,0.5-0.5C95,13.3,95.2,13.6,95.2,13.9z"/>
		</g>
		<g style="clip-path:url(#SVGID_00000122701222841342086110000015979248098293916593_);">
			<rect x="91.9" y="16.6" class="st2" width="5.5" height="5.5"/>
			<path class="st2" d="M92.5,16.6c0,0.3-0.3,0.5-0.5,0.5v-0.5H92.5z"/>
			<path class="st2" d="M97.4,16.6v0.5c-0.3,0-0.5-0.3-0.5-0.5H97.4z"/>
			<path class="st2" d="M92.5,22.1h-0.5v-0.5C92.2,21.6,92.5,21.8,92.5,22.1z"/>
			<path class="st2" d="M97.4,21.6v0.5h-0.5C96.9,21.8,97.1,21.6,97.4,21.6z"/>
			<path class="st2" d="M95.2,19.4c0,0.3-0.2,0.5-0.5,0.5c-0.3,0-0.5-0.2-0.5-0.5s0.2-0.5,0.5-0.5C95,18.8,95.2,19.1,95.2,19.4z"/>
		</g>
		<g style="clip-path:url(#SVGID_00000122701222841342086110000015979248098293916593_);">
			<rect x="91.9" y="22.1" class="st2" width="5.5" height="5.5"/>
			<path class="st2" d="M92.5,22.1c0,0.3-0.3,0.5-0.5,0.5v-0.5H92.5z"/>
			<path class="st2" d="M97.4,22.1v0.5c-0.3,0-0.5-0.3-0.5-0.5H97.4z"/>
			<path class="st2" d="M92.5,27.6h-0.5v-0.5C92.2,27.1,92.5,27.3,92.5,27.6z"/>
			<path class="st2" d="M97.4,27.1v0.5h-0.5C96.9,27.3,97.1,27.1,97.4,27.1z"/>
			<path class="st2" d="M95.2,24.9c0,0.3-0.2,0.5-0.5,0.5c-0.3,0-0.5-0.2-0.5-0.5c0-0.3,0.2-0.5,0.5-0.5
				C95,24.3,95.2,24.6,95.2,24.9z"/>
		</g>
		<g style="clip-path:url(#SVGID_00000122701222841342086110000015979248098293916593_);">
			<rect x="91.9" y="27.6" class="st2" width="5.5" height="5.5"/>
			<path class="st2" d="M92.5,27.6c0,0.3-0.3,0.5-0.5,0.5v-0.5H92.5z"/>
			<path class="st2" d="M97.4,27.6v0.5c-0.3,0-0.5-0.3-0.5-0.5H97.4z"/>
			<path class="st2" d="M92.5,33.1h-0.5v-0.5C92.2,32.6,92.5,32.8,92.5,33.1z"/>
			<path class="st2" d="M97.4,32.6v0.5h-0.5C96.9,32.8,97.1,32.6,97.4,32.6z"/>
			<path class="st2" d="M95.2,30.3c0,0.3-0.2,0.5-0.5,0.5c-0.3,0-0.5-0.2-0.5-0.5s0.2-0.5,0.5-0.5C95,29.8,95.2,30,95.2,30.3z"/>
		</g>
		<g style="clip-path:url(#SVGID_00000122701222841342086110000015979248098293916593_);">
			<rect x="91.9" y="33.1" class="st2" width="5.5" height="5.5"/>
			<path class="st2" d="M92.5,33.1c0,0.3-0.3,0.5-0.5,0.5v-0.5H92.5z"/>
			<path class="st2" d="M97.4,33.1v0.5c-0.3,0-0.5-0.3-0.5-0.5H97.4z"/>
			<path class="st2" d="M92.5,38.6h-0.5V38C92.2,38,92.5,38.3,92.5,38.6z"/>
			<path class="st2" d="M97.4,38v0.5h-0.5C96.9,38.3,97.1,38,97.4,38z"/>
			<path class="st2" d="M95.2,35.8c0,0.3-0.2,0.5-0.5,0.5c-0.3,0-0.5-0.2-0.5-0.5c0-0.3,0.2-0.5,0.5-0.5
				C95,35.3,95.2,35.5,95.2,35.8z"/>
		</g>
		<g style="clip-path:url(#SVGID_00000122701222841342086110000015979248098293916593_);">
			<rect x="91.9" y="38.6" class="st2" width="5.5" height="5.5"/>
			<path class="st2" d="M92.5,38.6c0,0.3-0.3,0.5-0.5,0.5v-0.5H92.5z"/>
			<path class="st2" d="M97.4,38.6v0.5c-0.3,0-0.5-0.3-0.5-0.5H97.4z"/>
			<path class="st2" d="M92.5,44.1h-0.5v-0.5C92.2,43.5,92.5,43.8,92.5,44.1z"/>
			<path class="st2" d="M97.4,43.5v0.5h-0.5C96.9,43.8,97.1,43.5,97.4,43.5z"/>
			<path class="st2" d="M95.2,41.3c0,0.3-0.2,0.5-0.5,0.5c-0.3,0-0.5-0.2-0.5-0.5s0.2-0.5,0.5-0.5C95,40.8,95.2,41,95.2,41.3z"/>
		</g>
		<g style="clip-path:url(#SVGID_00000122701222841342086110000015979248098293916593_);">
			<rect x="91.9" y="44.1" class="st2" width="5.5" height="5.5"/>
			<path class="st2" d="M92.5,44.1c0,0.3-0.3,0.5-0.5,0.5v-0.5H92.5z"/>
			<path class="st2" d="M97.4,44.1v0.5c-0.3,0-0.5-0.3-0.5-0.5H97.4z"/>
			<path class="st2" d="M92.5,49.6h-0.5V49C92.2,49,92.5,49.2,92.5,49.6z"/>
			<path class="st2" d="M97.4,49v0.5h-0.5C96.9,49.2,97.1,49,97.4,49z"/>
			<path class="st2" d="M95.2,46.8c0,0.3-0.2,0.5-0.5,0.5c-0.3,0-0.5-0.2-0.5-0.5s0.2-0.5,0.5-0.5C95,46.3,95.2,46.5,95.2,46.8z"/>
		</g>
		<g style="clip-path:url(#SVGID_00000122701222841342086110000015979248098293916593_);">
			<rect x="91.9" y="49.6" class="st2" width="5.5" height="5.5"/>
			<path class="st2" d="M92.5,49.6c0,0.3-0.3,0.5-0.5,0.5v-0.5H92.5z"/>
			<path class="st2" d="M97.4,49.6v0.5c-0.3,0-0.5-0.3-0.5-0.5H97.4z"/>
			<path class="st2" d="M92.5,55.1h-0.5v-0.5C92.2,54.5,92.5,54.7,92.5,55.1z"/>
			<path class="st2" d="M97.4,54.5v0.5h-0.5C96.9,54.7,97.1,54.5,97.4,54.5z"/>
			<path class="st2" d="M95.2,52.3c0,0.3-0.2,0.5-0.5,0.5c-0.3,0-0.5-0.2-0.5-0.5s0.2-0.5,0.5-0.5C95,51.7,95.2,52,95.2,52.3z"/>
		</g>
		<g style="clip-path:url(#SVGID_00000122701222841342086110000015979248098293916593_);">
			<rect x="86.4" y="5.7" class="st2" width="5.5" height="5.5"/>
			<path class="st2" d="M87,5.7c0,0.3-0.3,0.5-0.5,0.5V5.7H87z"/>
			<path class="st2" d="M91.9,5.7v0.5c-0.3,0-0.5-0.3-0.5-0.5H91.9z"/>
			<path class="st2" d="M87,11.2h-0.5v-0.5C86.7,10.6,87,10.8,87,11.2z"/>
			<path class="st2" d="M91.9,10.6v0.5h-0.5C91.4,10.8,91.6,10.6,91.9,10.6z"/>
			<path class="st2" d="M89.7,8.4c0,0.3-0.2,0.5-0.5,0.5s-0.5-0.2-0.5-0.5c0-0.3,0.2-0.5,0.5-0.5S89.7,8.1,89.7,8.4z"/>
		</g>
		<g style="clip-path:url(#SVGID_00000122701222841342086110000015979248098293916593_);">
			<rect x="86.4" y="11.2" class="st2" width="5.5" height="5.5"/>
			<path class="st2" d="M87,11.2c0,0.3-0.3,0.5-0.5,0.5v-0.5H87z"/>
			<path class="st2" d="M91.9,11.2v0.5c-0.3,0-0.5-0.3-0.5-0.5H91.9z"/>
			<path class="st2" d="M87,16.6h-0.5v-0.5C86.7,16.1,87,16.3,87,16.6z"/>
			<path class="st2" d="M91.9,16.1v0.5h-0.5C91.4,16.3,91.6,16.1,91.9,16.1z"/>
			<path class="st2" d="M89.7,13.9c0,0.3-0.2,0.5-0.5,0.5s-0.5-0.2-0.5-0.5s0.2-0.5,0.5-0.5S89.7,13.6,89.7,13.9z"/>
		</g>
		<g style="clip-path:url(#SVGID_00000122701222841342086110000015979248098293916593_);">
			<rect x="86.4" y="16.6" class="st2" width="5.5" height="5.5"/>
			<path class="st2" d="M87,16.6c0,0.3-0.3,0.5-0.5,0.5v-0.5H87z"/>
			<path class="st2" d="M91.9,16.6v0.5c-0.3,0-0.5-0.3-0.5-0.5H91.9z"/>
			<path class="st2" d="M87,22.1h-0.5v-0.5C86.7,21.6,87,21.8,87,22.1z"/>
			<path class="st2" d="M91.9,21.6v0.5h-0.5C91.4,21.8,91.6,21.6,91.9,21.6z"/>
			<circle class="st2" cx="89.2" cy="19.4" r="0.5"/>
		</g>
		<g style="clip-path:url(#SVGID_00000122701222841342086110000015979248098293916593_);">
			<rect x="86.4" y="22.1" class="st2" width="5.5" height="5.5"/>
			<path class="st2" d="M87,22.1c0,0.3-0.3,0.5-0.5,0.5v-0.5H87z"/>
			<path class="st2" d="M91.9,22.1v0.5c-0.3,0-0.5-0.3-0.5-0.5H91.9z"/>
			<path class="st2" d="M87,27.6h-0.5v-0.5C86.7,27.1,87,27.3,87,27.6z"/>
			<path class="st2" d="M91.9,27.1v0.5h-0.5C91.4,27.3,91.6,27.1,91.9,27.1z"/>
			<path class="st2" d="M89.7,24.9c0,0.3-0.2,0.5-0.5,0.5s-0.5-0.2-0.5-0.5c0-0.3,0.2-0.5,0.5-0.5S89.7,24.6,89.7,24.9z"/>
		</g>
		<g style="clip-path:url(#SVGID_00000122701222841342086110000015979248098293916593_);">
			<rect x="86.4" y="27.6" class="st2" width="5.5" height="5.5"/>
			<path class="st2" d="M87,27.6c0,0.3-0.3,0.5-0.5,0.5v-0.5H87z"/>
			<path class="st2" d="M91.9,27.6v0.5c-0.3,0-0.5-0.3-0.5-0.5H91.9z"/>
			<path class="st2" d="M87,33.1h-0.5v-0.5C86.7,32.6,87,32.8,87,33.1z"/>
			<path class="st2" d="M91.9,32.6v0.5h-0.5C91.4,32.8,91.6,32.6,91.9,32.6z"/>
			<circle class="st2" cx="89.2" cy="30.3" r="0.5"/>
		</g>
		<g style="clip-path:url(#SVGID_00000122701222841342086110000015979248098293916593_);">
			<rect x="86.4" y="33.1" class="st2" width="5.5" height="5.5"/>
			<path class="st2" d="M87,33.1c0,0.3-0.3,0.5-0.5,0.5v-0.5H87z"/>
			<path class="st2" d="M91.9,33.1v0.5c-0.3,0-0.5-0.3-0.5-0.5H91.9z"/>
			<path class="st2" d="M87,38.6h-0.5V38C86.7,38,87,38.3,87,38.6z"/>
			<path class="st2" d="M91.9,38v0.5h-0.5C91.4,38.3,91.6,38,91.9,38z"/>
			<path class="st2" d="M89.7,35.8c0,0.3-0.2,0.5-0.5,0.5s-0.5-0.2-0.5-0.5c0-0.3,0.2-0.5,0.5-0.5S89.7,35.5,89.7,35.8z"/>
		</g>
		<g style="clip-path:url(#SVGID_00000122701222841342086110000015979248098293916593_);">
			<rect x="86.4" y="38.6" class="st2" width="5.5" height="5.5"/>
			<path class="st2" d="M87,38.6c0,0.3-0.3,0.5-0.5,0.5v-0.5H87z"/>
			<path class="st2" d="M91.9,38.6v0.5c-0.3,0-0.5-0.3-0.5-0.5H91.9z"/>
			<path class="st2" d="M87,44.1h-0.5v-0.5C86.7,43.5,87,43.8,87,44.1z"/>
			<path class="st2" d="M91.9,43.5v0.5h-0.5C91.4,43.8,91.6,43.5,91.9,43.5z"/>
			<circle class="st2" cx="89.2" cy="41.3" r="0.5"/>
		</g>
		<g style="clip-path:url(#SVGID_00000122701222841342086110000015979248098293916593_);">
			<rect x="86.4" y="44.1" class="st2" width="5.5" height="5.5"/>
			<path class="st2" d="M87,44.1c0,0.3-0.3,0.5-0.5,0.5v-0.5H87z"/>
			<path class="st2" d="M91.9,44.1v0.5c-0.3,0-0.5-0.3-0.5-0.5H91.9z"/>
			<path class="st2" d="M87,49.6h-0.5V49C86.7,49,87,49.2,87,49.6z"/>
			<path class="st2" d="M91.9,49v0.5h-0.5C91.4,49.2,91.6,49,91.9,49z"/>
			<path class="st2" d="M89.7,46.8c0,0.3-0.2,0.5-0.5,0.5s-0.5-0.2-0.5-0.5s0.2-0.5,0.5-0.5S89.7,46.5,89.7,46.8z"/>
		</g>
		<g style="clip-path:url(#SVGID_00000122701222841342086110000015979248098293916593_);">
			<rect x="86.4" y="49.6" class="st2" width="5.5" height="5.5"/>
			<path class="st2" d="M87,49.6c0,0.3-0.3,0.5-0.5,0.5v-0.5H87z"/>
			<path class="st2" d="M91.9,49.6v0.5c-0.3,0-0.5-0.3-0.5-0.5H91.9z"/>
			<path class="st2" d="M87,55.1h-0.5v-0.5C86.7,54.5,87,54.7,87,55.1z"/>
			<path class="st2" d="M91.9,54.5v0.5h-0.5C91.4,54.7,91.6,54.5,91.9,54.5z"/>
			<path class="st2" d="M89.7,52.3c0,0.3-0.2,0.5-0.5,0.5s-0.5-0.2-0.5-0.5s0.2-0.5,0.5-0.5S89.7,52,89.7,52.3z"/>
		</g>
		<g style="clip-path:url(#SVGID_00000122701222841342086110000015979248098293916593_);">
			<rect x="81" y="5.7" class="st2" width="5.5" height="5.5"/>
			<path class="st2" d="M81.5,5.7c0,0.3-0.3,0.5-0.5,0.5V5.7H81.5z"/>
			<path class="st2" d="M86.4,5.7v0.5c-0.3,0-0.5-0.3-0.5-0.5H86.4z"/>
			<path class="st2" d="M81.5,11.2H81v-0.5C81.2,10.6,81.5,10.8,81.5,11.2z"/>
			<path class="st2" d="M86.4,10.6v0.5h-0.5C85.9,10.8,86.1,10.6,86.4,10.6z"/>
			<path class="st2" d="M84.2,8.4c0,0.3-0.2,0.5-0.5,0.5c-0.3,0-0.5-0.2-0.5-0.5c0-0.3,0.2-0.5,0.5-0.5C84,7.8,84.2,8.1,84.2,8.4z"
				/>
		</g>
		<g style="clip-path:url(#SVGID_00000122701222841342086110000015979248098293916593_);">
			<rect x="81" y="11.2" class="st2" width="5.5" height="5.5"/>
			<path class="st2" d="M81.5,11.2c0,0.3-0.3,0.5-0.5,0.5v-0.5H81.5z"/>
			<path class="st2" d="M86.4,11.2v0.5c-0.3,0-0.5-0.3-0.5-0.5H86.4z"/>
			<path class="st2" d="M81.5,16.6H81v-0.5C81.2,16.1,81.5,16.3,81.5,16.6z"/>
			<path class="st2" d="M86.4,16.1v0.5h-0.5C85.9,16.3,86.1,16.1,86.4,16.1z"/>
			<path class="st2" d="M84.2,13.9c0,0.3-0.2,0.5-0.5,0.5c-0.3,0-0.5-0.2-0.5-0.5s0.2-0.5,0.5-0.5C84,13.3,84.2,13.6,84.2,13.9z"/>
		</g>
		<g style="clip-path:url(#SVGID_00000122701222841342086110000015979248098293916593_);">
			<rect x="81" y="16.6" class="st2" width="5.5" height="5.5"/>
			<path class="st2" d="M81.5,16.6c0,0.3-0.3,0.5-0.5,0.5v-0.5H81.5z"/>
			<path class="st2" d="M86.4,16.6v0.5c-0.3,0-0.5-0.3-0.5-0.5H86.4z"/>
			<path class="st2" d="M81.5,22.1H81v-0.5C81.2,21.6,81.5,21.8,81.5,22.1z"/>
			<path class="st2" d="M86.4,21.6v0.5h-0.5C85.9,21.8,86.1,21.6,86.4,21.6z"/>
			<path class="st2" d="M84.2,19.4c0,0.3-0.2,0.5-0.5,0.5c-0.3,0-0.5-0.2-0.5-0.5s0.2-0.5,0.5-0.5C84,18.8,84.2,19.1,84.2,19.4z"/>
		</g>
		<g style="clip-path:url(#SVGID_00000122701222841342086110000015979248098293916593_);">
			<rect x="81" y="22.1" class="st2" width="5.5" height="5.5"/>
			<path class="st2" d="M81.5,22.1c0,0.3-0.3,0.5-0.5,0.5v-0.5H81.5z"/>
			<path class="st2" d="M86.4,22.1v0.5c-0.3,0-0.5-0.3-0.5-0.5H86.4z"/>
			<path class="st2" d="M81.5,27.6H81v-0.5C81.2,27.1,81.5,27.3,81.5,27.6z"/>
			<path class="st2" d="M86.4,27.1v0.5h-0.5C85.9,27.3,86.1,27.1,86.4,27.1z"/>
			<path class="st2" d="M84.2,24.9c0,0.3-0.2,0.5-0.5,0.5c-0.3,0-0.5-0.2-0.5-0.5c0-0.3,0.2-0.5,0.5-0.5
				C84,24.3,84.2,24.6,84.2,24.9z"/>
		</g>
		<g style="clip-path:url(#SVGID_00000122701222841342086110000015979248098293916593_);">
			<rect x="81" y="27.6" class="st2" width="5.5" height="5.5"/>
			<path class="st2" d="M81.5,27.6c0,0.3-0.3,0.5-0.5,0.5v-0.5H81.5z"/>
			<path class="st2" d="M86.4,27.6v0.5c-0.3,0-0.5-0.3-0.5-0.5H86.4z"/>
			<path class="st2" d="M81.5,33.1H81v-0.5C81.2,32.6,81.5,32.8,81.5,33.1z"/>
			<path class="st2" d="M86.4,32.6v0.5h-0.5C85.9,32.8,86.1,32.6,86.4,32.6z"/>
			<path class="st2" d="M84.2,30.3c0,0.3-0.2,0.5-0.5,0.5c-0.3,0-0.5-0.2-0.5-0.5s0.2-0.5,0.5-0.5C84,29.8,84.2,30,84.2,30.3z"/>
		</g>
		<g style="clip-path:url(#SVGID_00000122701222841342086110000015979248098293916593_);">
			<rect x="81" y="33.1" class="st2" width="5.5" height="5.5"/>
			<path class="st2" d="M81.5,33.1c0,0.3-0.3,0.5-0.5,0.5v-0.5H81.5z"/>
			<path class="st2" d="M86.4,33.1v0.5c-0.3,0-0.5-0.3-0.5-0.5H86.4z"/>
			<path class="st2" d="M81.5,38.6H81V38C81.2,38,81.5,38.3,81.5,38.6z"/>
			<path class="st2" d="M86.4,38v0.5h-0.5C85.9,38.3,86.1,38,86.4,38z"/>
			<path class="st2" d="M84.2,35.8c0,0.3-0.2,0.5-0.5,0.5c-0.3,0-0.5-0.2-0.5-0.5c0-0.3,0.2-0.5,0.5-0.5
				C84,35.3,84.2,35.5,84.2,35.8z"/>
		</g>
		<g style="clip-path:url(#SVGID_00000122701222841342086110000015979248098293916593_);">
			<rect x="81" y="38.6" class="st2" width="5.5" height="5.5"/>
			<path class="st2" d="M81.5,38.6c0,0.3-0.3,0.5-0.5,0.5v-0.5H81.5z"/>
			<path class="st2" d="M86.4,38.6v0.5c-0.3,0-0.5-0.3-0.5-0.5H86.4z"/>
			<path class="st2" d="M81.5,44.1H81v-0.5C81.2,43.5,81.5,43.8,81.5,44.1z"/>
			<path class="st2" d="M86.4,43.5v0.5h-0.5C85.9,43.8,86.1,43.5,86.4,43.5z"/>
			<path class="st2" d="M84.2,41.3c0,0.3-0.2,0.5-0.5,0.5c-0.3,0-0.5-0.2-0.5-0.5s0.2-0.5,0.5-0.5C84,40.8,84.2,41,84.2,41.3z"/>
		</g>
		<g style="clip-path:url(#SVGID_00000122701222841342086110000015979248098293916593_);">
			<rect x="81" y="44.1" class="st2" width="5.5" height="5.5"/>
			<path class="st2" d="M81.5,44.1c0,0.3-0.3,0.5-0.5,0.5v-0.5H81.5z"/>
			<path class="st2" d="M86.4,44.1v0.5c-0.3,0-0.5-0.3-0.5-0.5H86.4z"/>
			<path class="st2" d="M81.5,49.6H81V49C81.2,49,81.5,49.2,81.5,49.6z"/>
			<path class="st2" d="M86.4,49v0.5h-0.5C85.9,49.2,86.1,49,86.4,49z"/>
			<path class="st2" d="M84.2,46.8c0,0.3-0.2,0.5-0.5,0.5c-0.3,0-0.5-0.2-0.5-0.5s0.2-0.5,0.5-0.5C84,46.3,84.2,46.5,84.2,46.8z"/>
		</g>
		<g style="clip-path:url(#SVGID_00000122701222841342086110000015979248098293916593_);">
			<rect x="81" y="49.6" class="st2" width="5.5" height="5.5"/>
			<path class="st2" d="M81.5,49.6c0,0.3-0.3,0.5-0.5,0.5v-0.5H81.5z"/>
			<path class="st2" d="M86.4,49.6v0.5c-0.3,0-0.5-0.3-0.5-0.5H86.4z"/>
			<path class="st2" d="M81.5,55.1H81v-0.5C81.2,54.5,81.5,54.7,81.5,55.1z"/>
			<path class="st2" d="M86.4,54.5v0.5h-0.5C85.9,54.7,86.1,54.5,86.4,54.5z"/>
			<path class="st2" d="M84.2,52.3c0,0.3-0.2,0.5-0.5,0.5c-0.3,0-0.5-0.2-0.5-0.5s0.2-0.5,0.5-0.5C84,51.7,84.2,52,84.2,52.3z"/>
		</g>
	</g>
	<path class="st3" d="M97.8,54.3c-5,0-9.4-1.6-12.4-4.6c-3.1-3.1-3.8-6.3-4.1-10.9l0-0.9h12.4l0,0.8c0.1,2.8,1.4,4.1,4,4.1
		c2.5,0,4-1.5,4-4c0-2.5-1.7-4.2-4.2-4.2h-2.3v-11h2.3c2.3,0,3.6-1.4,3.6-3.7c0-2.1-1.4-3.6-3.5-3.6c-2.1,0-3.3,1.3-3.5,3.6l0,0.8
		H81.9l0-0.9c0.1-2.8,0.4-4.1,1.1-5.9c2.4-5.6,7.9-9,14.8-9c9.2,0,15.9,6.2,15.9,14.8c0,2.8-0.8,5.2-2.3,7.2c-0.6,0.8-1.1,1.3-2,2
		c1.7,1.4,2.5,2.3,3.4,4l0,0c0.9,1.8,1.4,3.9,1.4,6.2C114.2,48.2,107.6,54.3,97.8,54.3z M83.1,39.6c0.2,3.8,1,6.4,3.5,8.9
		c2.6,2.6,6.6,4.1,11.2,4.1c9,0,14.8-5.3,14.8-13.5c0-2.1-0.4-3.9-1.2-5.5c-0.9-1.7-1.6-2.5-3.8-4.1l-0.9-0.7l0.9-0.7
		c1.5-1,1.9-1.4,2.6-2.3c1.3-1.6,1.9-3.7,1.9-6.1c0-7.6-6-13.1-14.2-13.1c-6.2,0-11.2,3-13.3,8c-0.5,1.3-0.8,2.3-0.9,4.5h9.2
		c0.4-2.7,2.3-4.4,5-4.4c3,0,5.1,2.2,5.1,5.2c0,3.2-2.1,5.3-5.3,5.3h-0.7V33h0.7c3.4,0,5.8,2.5,5.8,5.9c0,3.5-2.2,5.7-5.6,5.7
		c-3.2,0-5.2-1.7-5.6-4.9H83.1z"/>
</g>
</svg>
