<svg version="1.2" xmlns="http://www.w3.org/2000/svg" viewBox="0 0 122 62" width="122" height="62"><defs><clipPath clipPathUnits="userSpaceOnUse" id="cp1"><path d="m109.08 46.8v6.17h-10.23v-6.17h-19.36v-10.24l15.48-30.31h11.81l-15.48 30.31h7.55v-6.17h10.23v6.17h3.48v10.24z"/></clipPath><clipPath clipPathUnits="userSpaceOnUse" id="cp2"><path d="m109.08 46.8v6.17h-10.23v-6.17h-19.36v-10.24l15.48-30.31h11.81l-15.48 30.31h7.55v-6.17h10.23v6.17h3.48v10.24z"/></clipPath><clipPath clipPathUnits="userSpaceOnUse" id="cp3"><path d="m109.08 46.8v6.17h-10.23v-6.17h-19.36v-10.24l15.48-30.31h11.81l-15.48 30.31h7.55v-6.17h10.23v6.17h3.48v10.24z"/></clipPath><clipPath clipPathUnits="userSpaceOnUse" id="cp4"><path d="m109.08 46.8v6.17h-10.23v-6.17h-19.36v-10.24l15.48-30.31h11.81l-15.48 30.31h7.55v-6.17h10.23v6.17h3.48v10.24z"/></clipPath><clipPath clipPathUnits="userSpaceOnUse" id="cp5"><path d="m109.08 46.8v6.17h-10.23v-6.17h-19.36v-10.24l15.48-30.31h11.81l-15.48 30.31h7.55v-6.17h10.23v6.17h3.48v10.24z"/></clipPath><clipPath clipPathUnits="userSpaceOnUse" id="cp6"><path d="m109.08 46.8v6.17h-10.23v-6.17h-19.36v-10.24l15.48-30.31h11.81l-15.48 30.31h7.55v-6.17h10.23v6.17h3.48v10.24z"/></clipPath><clipPath clipPathUnits="userSpaceOnUse" id="cp7"><path d="m109.08 46.8v6.17h-10.23v-6.17h-19.36v-10.24l15.48-30.31h11.81l-15.48 30.31h7.55v-6.17h10.23v6.17h3.48v10.24z"/></clipPath><clipPath clipPathUnits="userSpaceOnUse" id="cp8"><path d="m109.08 46.8v6.17h-10.23v-6.17h-19.36v-10.24l15.48-30.31h11.81l-15.48 30.31h7.55v-6.17h10.23v6.17h3.48v10.24z"/></clipPath><clipPath clipPathUnits="userSpaceOnUse" id="cp9"><path d="m109.08 46.8v6.17h-10.23v-6.17h-19.36v-10.24l15.48-30.31h11.81l-15.48 30.31h7.55v-6.17h10.23v6.17h3.48v10.24z"/></clipPath><clipPath clipPathUnits="userSpaceOnUse" id="cp10"><path d="m109.08 46.8v6.17h-10.23v-6.17h-19.36v-10.24l15.48-30.31h11.81l-15.48 30.31h7.55v-6.17h10.23v6.17h3.48v10.24z"/></clipPath><clipPath clipPathUnits="userSpaceOnUse" id="cp11"><path d="m109.08 46.8v6.17h-10.23v-6.17h-19.36v-10.24l15.48-30.31h11.81l-15.48 30.31h7.55v-6.17h10.23v6.17h3.48v10.24z"/></clipPath><clipPath clipPathUnits="userSpaceOnUse" id="cp12"><path d="m109.08 46.8v6.17h-10.23v-6.17h-19.36v-10.24l15.48-30.31h11.81l-15.48 30.31h7.55v-6.17h10.23v6.17h3.48v10.24z"/></clipPath><clipPath clipPathUnits="userSpaceOnUse" id="cp13"><path d="m109.08 46.8v6.17h-10.23v-6.17h-19.36v-10.24l15.48-30.31h11.81l-15.48 30.31h7.55v-6.17h10.23v6.17h3.48v10.24z"/></clipPath><clipPath clipPathUnits="userSpaceOnUse" id="cp14"><path d="m109.08 46.8v6.17h-10.23v-6.17h-19.36v-10.24l15.48-30.31h11.81l-15.48 30.31h7.55v-6.17h10.23v6.17h3.48v10.24z"/></clipPath><clipPath clipPathUnits="userSpaceOnUse" id="cp15"><path d="m109.08 46.8v6.17h-10.23v-6.17h-19.36v-10.24l15.48-30.31h11.81l-15.48 30.31h7.55v-6.17h10.23v6.17h3.48v10.24z"/></clipPath><clipPath clipPathUnits="userSpaceOnUse" id="cp16"><path d="m109.08 46.8v6.17h-10.23v-6.17h-19.36v-10.24l15.48-30.31h11.81l-15.48 30.31h7.55v-6.17h10.23v6.17h3.48v10.24z"/></clipPath><clipPath clipPathUnits="userSpaceOnUse" id="cp17"><path d="m109.08 46.8v6.17h-10.23v-6.17h-19.36v-10.24l15.48-30.31h11.81l-15.48 30.31h7.55v-6.17h10.23v6.17h3.48v10.24z"/></clipPath><clipPath clipPathUnits="userSpaceOnUse" id="cp18"><path d="m109.08 46.8v6.17h-10.23v-6.17h-19.36v-10.24l15.48-30.31h11.81l-15.48 30.31h7.55v-6.17h10.23v6.17h3.48v10.24z"/></clipPath><clipPath clipPathUnits="userSpaceOnUse" id="cp19"><path d="m109.08 46.8v6.17h-10.23v-6.17h-19.36v-10.24l15.48-30.31h11.81l-15.48 30.31h7.55v-6.17h10.23v6.17h3.48v10.24z"/></clipPath><clipPath clipPathUnits="userSpaceOnUse" id="cp20"><path d="m109.08 46.8v6.17h-10.23v-6.17h-19.36v-10.24l15.48-30.31h11.81l-15.48 30.31h7.55v-6.17h10.23v6.17h3.48v10.24z"/></clipPath><clipPath clipPathUnits="userSpaceOnUse" id="cp21"><path d="m109.08 46.8v6.17h-10.23v-6.17h-19.36v-10.24l15.48-30.31h11.81l-15.48 30.31h7.55v-6.17h10.23v6.17h3.48v10.24z"/></clipPath><clipPath clipPathUnits="userSpaceOnUse" id="cp22"><path d="m109.08 46.8v6.17h-10.23v-6.17h-19.36v-10.24l15.48-30.31h11.81l-15.48 30.31h7.55v-6.17h10.23v6.17h3.48v10.24z"/></clipPath><clipPath clipPathUnits="userSpaceOnUse" id="cp23"><path d="m109.08 46.8v6.17h-10.23v-6.17h-19.36v-10.24l15.48-30.31h11.81l-15.48 30.31h7.55v-6.17h10.23v6.17h3.48v10.24z"/></clipPath><clipPath clipPathUnits="userSpaceOnUse" id="cp24"><path d="m109.08 46.8v6.17h-10.23v-6.17h-19.36v-10.24l15.48-30.31h11.81l-15.48 30.31h7.55v-6.17h10.23v6.17h3.48v10.24z"/></clipPath><clipPath clipPathUnits="userSpaceOnUse" id="cp25"><path d="m109.08 46.8v6.17h-10.23v-6.17h-19.36v-10.24l15.48-30.31h11.81l-15.48 30.31h7.55v-6.17h10.23v6.17h3.48v10.24z"/></clipPath><clipPath clipPathUnits="userSpaceOnUse" id="cp26"><path d="m109.08 46.8v6.17h-10.23v-6.17h-19.36v-10.24l15.48-30.31h11.81l-15.48 30.31h7.55v-6.17h10.23v6.17h3.48v10.24z"/></clipPath><clipPath clipPathUnits="userSpaceOnUse" id="cp27"><path d="m109.08 46.8v6.17h-10.23v-6.17h-19.36v-10.24l15.48-30.31h11.81l-15.48 30.31h7.55v-6.17h10.23v6.17h3.48v10.24z"/></clipPath><clipPath clipPathUnits="userSpaceOnUse" id="cp28"><path d="m109.08 46.8v6.17h-10.23v-6.17h-19.36v-10.24l15.48-30.31h11.81l-15.48 30.31h7.55v-6.17h10.23v6.17h3.48v10.24z"/></clipPath><clipPath clipPathUnits="userSpaceOnUse" id="cp29"><path d="m109.08 46.8v6.17h-10.23v-6.17h-19.36v-10.24l15.48-30.31h11.81l-15.48 30.31h7.55v-6.17h10.23v6.17h3.48v10.24z"/></clipPath><clipPath clipPathUnits="userSpaceOnUse" id="cp30"><path d="m109.08 46.8v6.17h-10.23v-6.17h-19.36v-10.24l15.48-30.31h11.81l-15.48 30.31h7.55v-6.17h10.23v6.17h3.48v10.24z"/></clipPath><clipPath clipPathUnits="userSpaceOnUse" id="cp31"><path d="m109.08 46.8v6.17h-10.23v-6.17h-19.36v-10.24l15.48-30.31h11.81l-15.48 30.31h7.55v-6.17h10.23v6.17h3.48v10.24z"/></clipPath><clipPath clipPathUnits="userSpaceOnUse" id="cp32"><path d="m109.08 46.8v6.17h-10.23v-6.17h-19.36v-10.24l15.48-30.31h11.81l-15.48 30.31h7.55v-6.17h10.23v6.17h3.48v10.24z"/></clipPath><clipPath clipPathUnits="userSpaceOnUse" id="cp33"><path d="m109.08 46.8v6.17h-10.23v-6.17h-19.36v-10.24l15.48-30.31h11.81l-15.48 30.31h7.55v-6.17h10.23v6.17h3.48v10.24z"/></clipPath><clipPath clipPathUnits="userSpaceOnUse" id="cp34"><path d="m109.08 46.8v6.17h-10.23v-6.17h-19.36v-10.24l15.48-30.31h11.81l-15.48 30.31h7.55v-6.17h10.23v6.17h3.48v10.24z"/></clipPath><clipPath clipPathUnits="userSpaceOnUse" id="cp35"><path d="m109.08 46.8v6.17h-10.23v-6.17h-19.36v-10.24l15.48-30.31h11.81l-15.48 30.31h7.55v-6.17h10.23v6.17h3.48v10.24z"/></clipPath><clipPath clipPathUnits="userSpaceOnUse" id="cp36"><path d="m109.08 46.8v6.17h-10.23v-6.17h-19.36v-10.24l15.48-30.31h11.81l-15.48 30.31h7.55v-6.17h10.23v6.17h3.48v10.24z"/></clipPath><clipPath clipPathUnits="userSpaceOnUse" id="cp37"><path d="m109.08 46.8v6.17h-10.23v-6.17h-19.36v-10.24l15.48-30.31h11.81l-15.48 30.31h7.55v-6.17h10.23v6.17h3.48v10.24z"/></clipPath><clipPath clipPathUnits="userSpaceOnUse" id="cp38"><path d="m109.08 46.8v6.17h-10.23v-6.17h-19.36v-10.24l15.48-30.31h11.81l-15.48 30.31h7.55v-6.17h10.23v6.17h3.48v10.24z"/></clipPath><clipPath clipPathUnits="userSpaceOnUse" id="cp39"><path d="m109.08 46.8v6.17h-10.23v-6.17h-19.36v-10.24l15.48-30.31h11.81l-15.48 30.31h7.55v-6.17h10.23v6.17h3.48v10.24z"/></clipPath><clipPath clipPathUnits="userSpaceOnUse" id="cp40"><path d="m109.08 46.8v6.17h-10.23v-6.17h-19.36v-10.24l15.48-30.31h11.81l-15.48 30.31h7.55v-6.17h10.23v6.17h3.48v10.24z"/></clipPath><clipPath clipPathUnits="userSpaceOnUse" id="cp41"><path d="m109.08 46.8v6.17h-10.23v-6.17h-19.36v-10.24l15.48-30.31h11.81l-15.48 30.31h7.55v-6.17h10.23v6.17h3.48v10.24z"/></clipPath><clipPath clipPathUnits="userSpaceOnUse" id="cp42"><path d="m109.08 46.8v6.17h-10.23v-6.17h-19.36v-10.24l15.48-30.31h11.81l-15.48 30.31h7.55v-6.17h10.23v6.17h3.48v10.24z"/></clipPath><clipPath clipPathUnits="userSpaceOnUse" id="cp43"><path d="m109.08 46.8v6.17h-10.23v-6.17h-19.36v-10.24l15.48-30.31h11.81l-15.48 30.31h7.55v-6.17h10.23v6.17h3.48v10.24z"/></clipPath><clipPath clipPathUnits="userSpaceOnUse" id="cp44"><path d="m109.08 46.8v6.17h-10.23v-6.17h-19.36v-10.24l15.48-30.31h11.81l-15.48 30.31h7.55v-6.17h10.23v6.17h3.48v10.24z"/></clipPath><clipPath clipPathUnits="userSpaceOnUse" id="cp45"><path d="m109.08 46.8v6.17h-10.23v-6.17h-19.36v-10.24l15.48-30.31h11.81l-15.48 30.31h7.55v-6.17h10.23v6.17h3.48v10.24z"/></clipPath><clipPath clipPathUnits="userSpaceOnUse" id="cp46"><path d="m109.08 46.8v6.17h-10.23v-6.17h-19.36v-10.24l15.48-30.31h11.81l-15.48 30.31h7.55v-6.17h10.23v6.17h3.48v10.24z"/></clipPath><clipPath clipPathUnits="userSpaceOnUse" id="cp47"><path d="m109.08 46.8v6.17h-10.23v-6.17h-19.36v-10.24l15.48-30.31h11.81l-15.48 30.31h7.55v-6.17h10.23v6.17h3.48v10.24z"/></clipPath><clipPath clipPathUnits="userSpaceOnUse" id="cp48"><path d="m109.08 46.8v6.17h-10.23v-6.17h-19.36v-10.24l15.48-30.31h11.81l-15.48 30.31h7.55v-6.17h10.23v6.17h3.48v10.24z"/></clipPath><clipPath clipPathUnits="userSpaceOnUse" id="cp49"><path d="m109.08 46.8v6.17h-10.23v-6.17h-19.36v-10.24l15.48-30.31h11.81l-15.48 30.31h7.55v-6.17h10.23v6.17h3.48v10.24z"/></clipPath><clipPath clipPathUnits="userSpaceOnUse" id="cp50"><path d="m109.08 46.8v6.17h-10.23v-6.17h-19.36v-10.24l15.48-30.31h11.81l-15.48 30.31h7.55v-6.17h10.23v6.17h3.48v10.24z"/></clipPath><clipPath clipPathUnits="userSpaceOnUse" id="cp51"><path d="m109.08 46.8v6.17h-10.23v-6.17h-19.36v-10.24l15.48-30.31h11.81l-15.48 30.31h7.55v-6.17h10.23v6.17h3.48v10.24z"/></clipPath><clipPath clipPathUnits="userSpaceOnUse" id="cp52"><path d="m109.08 46.8v6.17h-10.23v-6.17h-19.36v-10.24l15.48-30.31h11.81l-15.48 30.31h7.55v-6.17h10.23v6.17h3.48v10.24z"/></clipPath><clipPath clipPathUnits="userSpaceOnUse" id="cp53"><path d="m109.08 46.8v6.17h-10.23v-6.17h-19.36v-10.24l15.48-30.31h11.81l-15.48 30.31h7.55v-6.17h10.23v6.17h3.48v10.24z"/></clipPath><clipPath clipPathUnits="userSpaceOnUse" id="cp54"><path d="m109.08 46.8v6.17h-10.23v-6.17h-19.36v-10.24l15.48-30.31h11.81l-15.48 30.31h7.55v-6.17h10.23v6.17h3.48v10.24z"/></clipPath><clipPath clipPathUnits="userSpaceOnUse" id="cp55"><path d="m109.08 46.8v6.17h-10.23v-6.17h-19.36v-10.24l15.48-30.31h11.81l-15.48 30.31h7.55v-6.17h10.23v6.17h3.48v10.24z"/></clipPath><clipPath clipPathUnits="userSpaceOnUse" id="cp56"><path d="m109.08 46.8v6.17h-10.23v-6.17h-19.36v-10.24l15.48-30.31h11.81l-15.48 30.31h7.55v-6.17h10.23v6.17h3.48v10.24z"/></clipPath><clipPath clipPathUnits="userSpaceOnUse" id="cp57"><path d="m109.08 46.8v6.17h-10.23v-6.17h-19.36v-10.24l15.48-30.31h11.81l-15.48 30.31h7.55v-6.17h10.23v6.17h3.48v10.24z"/></clipPath><clipPath clipPathUnits="userSpaceOnUse" id="cp58"><path d="m109.08 46.8v6.17h-10.23v-6.17h-19.36v-10.24l15.48-30.31h11.81l-15.48 30.31h7.55v-6.17h10.23v6.17h3.48v10.24z"/></clipPath><clipPath clipPathUnits="userSpaceOnUse" id="cp59"><path d="m109.08 46.8v6.17h-10.23v-6.17h-19.36v-10.24l15.48-30.31h11.81l-15.48 30.31h7.55v-6.17h10.23v6.17h3.48v10.24z"/></clipPath><clipPath clipPathUnits="userSpaceOnUse" id="cp60"><path d="m109.08 46.8v6.17h-10.23v-6.17h-19.36v-10.24l15.48-30.31h11.81l-15.48 30.31h7.55v-6.17h10.23v6.17h3.48v10.24z"/></clipPath><clipPath clipPathUnits="userSpaceOnUse" id="cp61"><path d="m109.08 46.8v6.17h-10.23v-6.17h-19.36v-10.24l15.48-30.31h11.81l-15.48 30.31h7.55v-6.17h10.23v6.17h3.48v10.24z"/></clipPath><clipPath clipPathUnits="userSpaceOnUse" id="cp62"><path d="m109.08 46.8v6.17h-10.23v-6.17h-19.36v-10.24l15.48-30.31h11.81l-15.48 30.31h7.55v-6.17h10.23v6.17h3.48v10.24z"/></clipPath><clipPath clipPathUnits="userSpaceOnUse" id="cp63"><path d="m109.08 46.8v6.17h-10.23v-6.17h-19.36v-10.24l15.48-30.31h11.81l-15.48 30.31h7.55v-6.17h10.23v6.17h3.48v10.24z"/></clipPath></defs><style>.a{fill:#f3f3f5}.b{fill:#00abc8}.c{fill:#0075a3}</style><path class="a" d="m113.4 51.1v6.2h-10.2v-6.2h-19.4v-10.2l15.5-30.3h11.8l-15.5 30.3h7.6v-6.2h10.2v6.2h3.5v10.2z"/><g clip-path="url(#cp1)"><path class="b" d="m108.4 5.7h5.5v5.5h-5.5z"/><path class="b" d="m109 5.7c0 0.3-0.3 0.6-0.6 0.6v-0.6z"/><path class="b" d="m113.9 5.7v0.6c-0.3 0-0.5-0.3-0.5-0.6z"/><path class="b" d="m109 11.2h-0.6v-0.6c0.3 0 0.6 0.3 0.6 0.6z"/><path class="b" d="m113.9 10.6v0.6h-0.5c0-0.3 0.2-0.6 0.5-0.6z"/><path class="b" d="m111.7 8.4c0 0.3-0.2 0.6-0.5 0.6-0.3 0-0.6-0.3-0.6-0.6 0-0.3 0.2-0.5 0.6-0.5 0.3 0 0.5 0.2 0.5 0.5z"/></g><g clip-path="url(#cp2)"><path class="b" d="m108.4 11.2h5.5v5.4h-5.5z"/><path class="b" d="m109 11.2c0 0.3-0.3 0.5-0.6 0.5v-0.5z"/><path class="b" d="m113.9 11.2v0.5c-0.3 0-0.5-0.2-0.5-0.5z"/><path class="b" d="m109 16.6h-0.6v-0.5c0.3 0 0.6 0.2 0.6 0.5z"/><path class="b" d="m113.9 16.1v0.6h-0.5c0-0.4 0.2-0.6 0.5-0.6z"/><path class="b" d="m111.7 13.9c0 0.3-0.2 0.6-0.5 0.6-0.3 0-0.6-0.3-0.6-0.6 0-0.3 0.2-0.6 0.6-0.6 0.3 0.1 0.5 0.3 0.5 0.6z"/></g><g clip-path="url(#cp3)"><path class="b" d="m108.4 16.6h5.5v5.5h-5.5z"/><path class="b" d="m109 16.6c0 0.3-0.3 0.6-0.6 0.6v-0.6z"/><path class="b" d="m113.9 16.6v0.6c-0.3 0-0.5-0.3-0.5-0.6z"/><path class="b" d="m109 22.1h-0.6v-0.5c0.3 0 0.6 0.2 0.6 0.5z"/><path class="b" d="m113.9 21.6v0.5h-0.5c0-0.3 0.2-0.5 0.5-0.5z"/><path class="b" d="m111.7 19.4c0 0.3-0.2 0.5-0.5 0.5-0.3 0-0.6-0.2-0.6-0.5 0-0.3 0.2-0.6 0.6-0.6 0.3 0 0.5 0.3 0.5 0.6z"/></g><g clip-path="url(#cp4)"><path class="b" d="m108.4 22.1h5.5v5.5h-5.5z"/><path class="b" d="m109 22.1c0 0.3-0.3 0.6-0.6 0.6v-0.6z"/><path class="b" d="m113.9 22.1v0.6c-0.3 0-0.5-0.3-0.5-0.6z"/><path class="b" d="m109 27.6h-0.6v-0.6c0.3 0 0.6 0.3 0.6 0.6z"/><path class="b" d="m113.9 27.1v0.5h-0.5c0-0.3 0.2-0.6 0.5-0.6z"/><path class="b" d="m111.7 24.9c0 0.3-0.2 0.5-0.5 0.5-0.3 0-0.6-0.2-0.6-0.5 0-0.3 0.2-0.6 0.6-0.6 0.3 0 0.5 0.2 0.5 0.6z"/></g><g clip-path="url(#cp5)"><path class="b" d="m108.4 27.6h5.5v5.5h-5.5z"/><path class="b" d="m109 27.6c0 0.3-0.3 0.6-0.6 0.6v-0.6z"/><path class="b" d="m113.9 27.6v0.6c-0.3 0-0.5-0.3-0.5-0.6z"/><path class="b" d="m109 33.1h-0.6v-0.6c0.3 0 0.6 0.2 0.6 0.6z"/><path class="b" d="m113.9 32.5v0.6h-0.5c0-0.4 0.2-0.6 0.5-0.6z"/><path class="b" d="m111.7 30.3c0 0.3-0.2 0.6-0.5 0.6-0.3 0-0.6-0.3-0.6-0.6 0-0.3 0.2-0.5 0.6-0.5 0.3 0 0.5 0.2 0.5 0.5z"/></g><g clip-path="url(#cp6)"><path class="b" d="m108.4 33.1h5.5v5.4h-5.5z"/><path class="b" d="m109 33.1c0 0.2-0.3 0.5-0.6 0.5v-0.5z"/><path class="b" d="m113.9 33.1v0.5c-0.3 0-0.5-0.3-0.5-0.5z"/><path class="b" d="m109 38.5h-0.6v-0.5c0.3 0 0.6 0.2 0.6 0.5z"/><path class="b" d="m113.9 38v0.5h-0.5c0-0.3 0.2-0.5 0.5-0.5z"/><path class="b" d="m111.7 35.8c0 0.3-0.2 0.5-0.5 0.5-0.3 0-0.6-0.2-0.6-0.5 0-0.3 0.2-0.6 0.6-0.6 0.3 0 0.5 0.3 0.5 0.6z"/></g><g clip-path="url(#cp7)"><path class="b" d="m108.4 38.5h5.5v5.5h-5.5z"/><path class="b" d="m109 38.5c0 0.3-0.3 0.6-0.6 0.6v-0.6z"/><path class="b" d="m113.9 38.5v0.6c-0.3 0-0.5-0.3-0.5-0.6z"/><path class="b" d="m109 44h-0.6v-0.5c0.3 0 0.6 0.2 0.6 0.5z"/><path class="b" d="m113.9 43.5v0.5h-0.5c0-0.3 0.2-0.5 0.5-0.5z"/><path class="b" d="m111.7 41.3c0 0.3-0.2 0.5-0.5 0.5-0.3 0-0.6-0.2-0.6-0.5 0-0.3 0.2-0.6 0.6-0.6 0.3 0 0.5 0.3 0.5 0.6z"/></g><g clip-path="url(#cp8)"><path class="b" d="m108.4 44h5.5v5.5h-5.5z"/><path class="b" d="m109 44c0 0.3-0.3 0.6-0.6 0.6v-0.6z"/><path class="b" d="m113.9 44v0.6c-0.3 0-0.5-0.3-0.5-0.6z"/><path class="b" d="m109 49.5h-0.6v-0.6c0.3 0 0.6 0.2 0.6 0.6z"/><path class="b" d="m113.9 48.9v0.6h-0.5c0-0.3 0.2-0.6 0.5-0.6z"/><path class="b" d="m111.7 46.7c0 0.3-0.2 0.6-0.5 0.6-0.3 0-0.6-0.3-0.6-0.6 0-0.3 0.2-0.5 0.6-0.5 0.3 0 0.5 0.2 0.5 0.5z"/></g><g clip-path="url(#cp9)"><path class="b" d="m108.4 49.5h5.5v5.4h-5.5z"/><path class="b" d="m109 49.5c0 0.3-0.3 0.5-0.6 0.5v-0.5z"/><path class="b" d="m113.9 49.5v0.5c-0.3 0-0.5-0.2-0.5-0.5z"/><path class="b" d="m109 55h-0.6v-0.6c0.3 0 0.6 0.2 0.6 0.6z"/><path class="b" d="m113.9 54.4v0.5h-0.5c0-0.3 0.2-0.5 0.5-0.5z"/><path class="b" d="m111.7 52.2c0 0.3-0.2 0.5-0.5 0.5-0.3 0-0.6-0.2-0.6-0.5 0-0.3 0.2-0.5 0.6-0.5 0.3 0 0.5 0.2 0.5 0.5z"/></g><g clip-path="url(#cp10)"><path class="b" d="m103 5.7h5.4v5.5h-5.4z"/><path class="b" d="m103.5 5.7c0 0.3-0.3 0.6-0.5 0.6v-0.6z"/><path class="b" d="m108.4 5.7v0.6c-0.3 0-0.5-0.3-0.5-0.6z"/><path class="b" d="m103.5 11.2h-0.5v-0.6c0.2 0 0.5 0.3 0.5 0.6z"/><path class="b" d="m108.4 10.6v0.6h-0.5c0-0.3 0.2-0.6 0.5-0.6z"/><path class="b" d="m105.7 9c-0.3 0-0.6-0.3-0.6-0.6 0-0.3 0.3-0.5 0.6-0.5 0.3 0 0.5 0.2 0.5 0.5 0 0.3-0.2 0.6-0.5 0.6z"/></g><g clip-path="url(#cp11)"><path class="b" d="m103 11.2h5.4v5.4h-5.4z"/><path class="b" d="m103.5 11.2c0 0.3-0.3 0.5-0.5 0.5v-0.5z"/><path class="b" d="m108.4 11.2v0.5c-0.3 0-0.5-0.2-0.5-0.5z"/><path class="b" d="m103.5 16.6h-0.5v-0.5c0.2 0 0.5 0.2 0.5 0.5z"/><path class="b" d="m108.4 16.1v0.6h-0.5c0-0.4 0.2-0.6 0.5-0.6z"/><path class="b" d="m106.2 13.9c0 0.3-0.2 0.6-0.5 0.6-0.3 0-0.6-0.3-0.6-0.6 0-0.3 0.3-0.6 0.6-0.6 0.3 0.1 0.5 0.3 0.5 0.6z"/></g><g clip-path="url(#cp12)"><path class="b" d="m103 16.6h5.4v5.5h-5.4z"/><path class="b" d="m103.5 16.6c0 0.3-0.3 0.6-0.5 0.6v-0.6z"/><path class="b" d="m108.4 16.6v0.6c-0.3 0-0.5-0.3-0.5-0.6z"/><path class="b" d="m103.5 22.1h-0.5v-0.5c0.2 0 0.5 0.2 0.5 0.5z"/><path class="b" d="m108.4 21.6v0.5h-0.5c0-0.3 0.2-0.5 0.5-0.5z"/><path class="b" d="m106.2 19.4c0 0.3-0.2 0.5-0.5 0.5-0.3 0-0.6-0.2-0.6-0.5 0-0.3 0.3-0.6 0.6-0.6 0.3 0 0.5 0.3 0.5 0.6z"/></g><g clip-path="url(#cp13)"><path class="b" d="m103 22.1h5.4v5.5h-5.4z"/><path class="b" d="m103.5 22.1c0 0.3-0.3 0.6-0.5 0.6v-0.6z"/><path class="b" d="m108.4 22.1v0.6c-0.3 0-0.5-0.3-0.5-0.6z"/><path class="b" d="m103.5 27.6h-0.5v-0.6c0.2 0 0.5 0.3 0.5 0.6z"/><path class="b" d="m108.4 27.1v0.5h-0.5c0-0.3 0.2-0.6 0.5-0.6z"/><path class="b" d="m106.2 24.9c0 0.3-0.2 0.5-0.5 0.5-0.3 0-0.6-0.2-0.6-0.5 0-0.3 0.3-0.6 0.6-0.6 0.3 0 0.5 0.2 0.5 0.6z"/></g><g clip-path="url(#cp14)"><path class="b" d="m103 27.6h5.4v5.5h-5.4z"/><path class="b" d="m103.5 27.6c0 0.3-0.3 0.6-0.5 0.6v-0.6z"/><path class="b" d="m108.4 27.6v0.6c-0.3 0-0.5-0.3-0.5-0.6z"/><path class="b" d="m103.5 33.1h-0.5v-0.6c0.2 0 0.5 0.2 0.5 0.6z"/><path class="b" d="m108.4 32.5v0.6h-0.5c0-0.4 0.2-0.6 0.5-0.6z"/><path class="b" d="m106.2 30.3c0 0.3-0.2 0.6-0.5 0.6-0.3 0-0.6-0.3-0.6-0.6 0-0.3 0.3-0.5 0.6-0.5 0.3 0 0.5 0.2 0.5 0.5z"/></g><g clip-path="url(#cp15)"><path class="b" d="m103 33.1h5.4v5.4h-5.4z"/><path class="b" d="m103.5 33.1c0 0.2-0.3 0.5-0.5 0.5v-0.5z"/><path class="b" d="m108.4 33.1v0.5c-0.3 0-0.5-0.3-0.5-0.5z"/><path class="b" d="m103.5 38.5h-0.5v-0.5c0.2 0 0.5 0.2 0.5 0.5z"/><path class="b" d="m108.4 38v0.5h-0.5c0-0.3 0.2-0.5 0.5-0.5z"/><path class="b" d="m106.2 35.8c0 0.3-0.2 0.5-0.5 0.5-0.3 0-0.6-0.2-0.6-0.5 0-0.3 0.3-0.6 0.6-0.6 0.3 0 0.5 0.3 0.5 0.6z"/></g><g clip-path="url(#cp16)"><path class="b" d="m103 38.5h5.4v5.5h-5.4z"/><path class="b" d="m103.5 38.5c0 0.3-0.3 0.6-0.5 0.6v-0.6z"/><path class="b" d="m108.4 38.5v0.6c-0.3 0-0.5-0.3-0.5-0.6z"/><path class="b" d="m103.5 44h-0.5v-0.5c0.2 0 0.5 0.2 0.5 0.5z"/><path class="b" d="m108.4 43.5v0.5h-0.5c0-0.3 0.2-0.5 0.5-0.5z"/><path class="b" d="m106.2 41.3c0 0.3-0.2 0.5-0.5 0.5-0.3 0-0.6-0.2-0.6-0.5 0-0.3 0.3-0.6 0.6-0.6 0.3 0 0.5 0.3 0.5 0.6z"/></g><g clip-path="url(#cp17)"><path class="b" d="m103 44h5.4v5.5h-5.4z"/><path class="b" d="m103.5 44c0 0.3-0.3 0.6-0.5 0.6v-0.6z"/><path class="b" d="m108.4 44v0.6c-0.3 0-0.5-0.3-0.5-0.6z"/><path class="b" d="m103.5 49.5h-0.5v-0.6c0.2 0 0.5 0.2 0.5 0.6z"/><path class="b" d="m108.4 48.9v0.6h-0.5c0-0.3 0.2-0.6 0.5-0.6z"/><path class="b" d="m105.7 47.3c-0.3 0-0.6-0.3-0.6-0.6 0-0.3 0.3-0.5 0.6-0.5 0.3 0 0.5 0.2 0.5 0.5 0 0.3-0.2 0.6-0.5 0.6z"/></g><g clip-path="url(#cp18)"><path class="b" d="m103 49.5h5.4v5.4h-5.4z"/><path class="b" d="m103.5 49.5c0 0.3-0.3 0.5-0.5 0.5v-0.5z"/><path class="b" d="m108.4 49.5v0.5c-0.3 0-0.5-0.2-0.5-0.5z"/><path class="b" d="m103.5 55h-0.5v-0.6c0.2 0 0.5 0.2 0.5 0.6z"/><path class="b" d="m108.4 54.4v0.5h-0.5c0-0.3 0.2-0.5 0.5-0.5z"/><path class="b" d="m106.2 52.2c0 0.3-0.2 0.5-0.5 0.5-0.3 0-0.6-0.2-0.6-0.5 0-0.3 0.3-0.5 0.6-0.5 0.3 0 0.5 0.2 0.5 0.5z"/></g><g clip-path="url(#cp19)"><path class="b" d="m97.5 5.7h5.5v5.5h-5.5z"/><path class="b" d="m98 5.7c0 0.3-0.2 0.6-0.5 0.6v-0.6z"/><path class="b" d="m103 5.7v0.6c-0.4 0-0.6-0.3-0.6-0.6z"/><path class="b" d="m98 11.2h-0.5v-0.6c0.3 0 0.5 0.3 0.5 0.6z"/><path class="b" d="m103 10.6v0.6h-0.6c0-0.3 0.2-0.6 0.6-0.6z"/><path class="b" d="m100.8 8.4c0 0.3-0.3 0.6-0.6 0.6-0.3 0-0.5-0.3-0.5-0.6 0-0.3 0.2-0.5 0.5-0.5 0.3 0 0.6 0.2 0.6 0.5z"/></g><g clip-path="url(#cp20)"><path class="b" d="m97.5 11.2h5.5v5.4h-5.5z"/><path class="b" d="m98 11.2c0 0.3-0.2 0.5-0.5 0.5v-0.5z"/><path class="b" d="m103 11.2v0.5c-0.4 0-0.6-0.2-0.6-0.5z"/><path class="b" d="m98 16.6h-0.5v-0.5c0.3 0 0.5 0.2 0.5 0.5z"/><path class="b" d="m103 16.1v0.6h-0.6c0-0.4 0.2-0.6 0.6-0.6z"/><path class="b" d="m100.8 13.9c0 0.3-0.3 0.6-0.6 0.6-0.3 0-0.5-0.3-0.5-0.6 0-0.3 0.2-0.6 0.5-0.6 0.3 0.1 0.6 0.3 0.6 0.6z"/></g><g clip-path="url(#cp21)"><path class="b" d="m97.5 16.6h5.5v5.5h-5.5z"/><path class="b" d="m98 16.6c0 0.3-0.2 0.6-0.5 0.6v-0.6z"/><path class="b" d="m103 16.6v0.6c-0.4 0-0.6-0.3-0.6-0.6z"/><path class="b" d="m98 22.1h-0.5v-0.5c0.3 0 0.5 0.2 0.5 0.5z"/><path class="b" d="m103 21.6v0.5h-0.6c0-0.3 0.2-0.5 0.6-0.5z"/><path class="b" d="m100.8 19.4c0 0.3-0.3 0.5-0.6 0.5-0.3 0-0.5-0.2-0.5-0.5 0-0.3 0.2-0.6 0.5-0.6 0.3 0 0.6 0.3 0.6 0.6z"/></g><g clip-path="url(#cp22)"><path class="b" d="m97.5 22.1h5.5v5.5h-5.5z"/><path class="b" d="m98 22.1c0 0.3-0.2 0.6-0.5 0.6v-0.6z"/><path class="b" d="m103 22.1v0.6c-0.4 0-0.6-0.3-0.6-0.6z"/><path class="b" d="m98 27.6h-0.5v-0.6c0.3 0 0.5 0.3 0.5 0.6z"/><path class="b" d="m103 27.1v0.5h-0.6c0-0.3 0.2-0.6 0.6-0.6z"/><path class="b" d="m100.8 24.9c0 0.3-0.3 0.5-0.6 0.5-0.3 0-0.5-0.2-0.5-0.5 0-0.3 0.2-0.6 0.5-0.6 0.3 0 0.6 0.2 0.6 0.6z"/></g><g clip-path="url(#cp23)"><path class="b" d="m97.5 27.6h5.5v5.5h-5.5z"/><path class="b" d="m98 27.6c0 0.3-0.2 0.6-0.5 0.6v-0.6z"/><path class="b" d="m103 27.6v0.6c-0.4 0-0.6-0.3-0.6-0.6z"/><path class="b" d="m98 33.1h-0.5v-0.6c0.3 0 0.5 0.2 0.5 0.6z"/><path class="b" d="m103 32.5v0.6h-0.6c0-0.4 0.2-0.6 0.6-0.6z"/><path class="b" d="m100.8 30.3c0 0.3-0.3 0.6-0.6 0.6-0.3 0-0.5-0.3-0.5-0.6 0-0.3 0.2-0.5 0.5-0.5 0.3 0 0.6 0.2 0.6 0.5z"/></g><g clip-path="url(#cp24)"><path class="b" d="m97.5 33.1h5.5v5.4h-5.5z"/><path class="b" d="m98 33.1c0 0.2-0.2 0.5-0.5 0.5v-0.5z"/><path class="b" d="m103 33.1v0.5c-0.4 0-0.6-0.3-0.6-0.5z"/><path class="b" d="m98 38.5h-0.5v-0.5c0.3 0 0.5 0.2 0.5 0.5z"/><path class="b" d="m103 38v0.5h-0.6c0-0.3 0.2-0.5 0.6-0.5z"/><path class="b" d="m100.8 35.8c0 0.3-0.3 0.5-0.6 0.5-0.3 0-0.5-0.2-0.5-0.5 0-0.3 0.2-0.6 0.5-0.6 0.3 0 0.6 0.3 0.6 0.6z"/></g><g clip-path="url(#cp25)"><path class="b" d="m97.5 38.5h5.5v5.5h-5.5z"/><path class="b" d="m98 38.5c0 0.3-0.2 0.6-0.5 0.6v-0.6z"/><path class="b" d="m103 38.5v0.6c-0.4 0-0.6-0.3-0.6-0.6z"/><path class="b" d="m98 44h-0.5v-0.5c0.3 0 0.5 0.2 0.5 0.5z"/><path class="b" d="m103 43.5v0.5h-0.6c0-0.3 0.2-0.5 0.6-0.5z"/><path class="b" d="m100.8 41.3c0 0.3-0.3 0.5-0.6 0.5-0.3 0-0.5-0.2-0.5-0.5 0-0.3 0.2-0.6 0.5-0.6 0.3 0 0.6 0.3 0.6 0.6z"/></g><g clip-path="url(#cp26)"><path class="b" d="m97.5 44h5.5v5.5h-5.5z"/><path class="b" d="m98 44c0 0.3-0.2 0.6-0.5 0.6v-0.6z"/><path class="b" d="m103 44v0.6c-0.4 0-0.6-0.3-0.6-0.6z"/><path class="b" d="m98 49.5h-0.5v-0.6c0.3 0 0.5 0.2 0.5 0.6z"/><path class="b" d="m103 48.9v0.6h-0.6c0-0.3 0.2-0.6 0.6-0.6z"/><path class="b" d="m100.8 46.7c0 0.3-0.3 0.6-0.6 0.6-0.3 0-0.5-0.3-0.5-0.6 0-0.3 0.2-0.5 0.5-0.5 0.3 0 0.6 0.2 0.6 0.5z"/></g><g clip-path="url(#cp27)"><path class="b" d="m97.5 49.5h5.5v5.4h-5.5z"/><path class="b" d="m98 49.5c0 0.3-0.2 0.5-0.5 0.5v-0.5z"/><path class="b" d="m103 49.5v0.5c-0.4 0-0.6-0.2-0.6-0.5z"/><path class="b" d="m98 55h-0.5v-0.6c0.3 0 0.5 0.2 0.5 0.6z"/><path class="b" d="m103 54.4v0.5h-0.6c0-0.3 0.2-0.5 0.6-0.5z"/><path class="b" d="m100.8 52.2c0 0.3-0.3 0.5-0.6 0.5-0.3 0-0.5-0.2-0.5-0.5 0-0.3 0.2-0.5 0.5-0.5 0.3 0 0.6 0.2 0.6 0.5z"/></g><g clip-path="url(#cp28)"><path class="b" d="m92 5.7h5.5v5.5h-5.5z"/><path class="b" d="m92.6 5.7c0 0.3-0.3 0.6-0.6 0.6v-0.6z"/><path class="b" d="m97.5 5.7v0.6c-0.3 0-0.5-0.3-0.5-0.6z"/><path class="b" d="m92.6 11.2h-0.6v-0.6c0.3 0 0.6 0.3 0.6 0.6z"/><path class="b" d="m97.5 10.6v0.6h-0.5c0-0.3 0.2-0.6 0.5-0.6z"/><path class="b" d="m95.3 8.4c0 0.3-0.2 0.6-0.6 0.6-0.3 0-0.5-0.3-0.5-0.6 0-0.3 0.2-0.5 0.5-0.5 0.3 0 0.6 0.2 0.6 0.5z"/></g><g clip-path="url(#cp29)"><path class="b" d="m92 11.2h5.5v5.4h-5.5z"/><path class="b" d="m92.6 11.2c0 0.3-0.3 0.5-0.6 0.5v-0.5z"/><path class="b" d="m97.5 11.2v0.5c-0.3 0-0.5-0.2-0.5-0.5z"/><path class="b" d="m92.6 16.6h-0.6v-0.5c0.3 0 0.6 0.2 0.6 0.5z"/><path class="b" d="m97.5 16.1v0.6h-0.5c0-0.4 0.2-0.6 0.5-0.6z"/><path class="b" d="m95.3 13.9c0 0.3-0.2 0.6-0.6 0.6-0.3 0-0.5-0.3-0.5-0.6 0-0.3 0.2-0.6 0.5-0.6 0.3 0.1 0.6 0.3 0.6 0.6z"/></g><g clip-path="url(#cp30)"><path class="b" d="m92 16.6h5.5v5.5h-5.5z"/><path class="b" d="m92.6 16.6c0 0.3-0.3 0.6-0.6 0.6v-0.6z"/><path class="b" d="m97.5 16.6v0.6c-0.3 0-0.5-0.3-0.5-0.6z"/><path class="b" d="m92.6 22.1h-0.6v-0.5c0.3 0 0.6 0.2 0.6 0.5z"/><path class="b" d="m97.5 21.6v0.5h-0.5c0-0.3 0.2-0.5 0.5-0.5z"/><path class="b" d="m95.3 19.4c0 0.3-0.2 0.5-0.6 0.5-0.3 0-0.5-0.2-0.5-0.5 0-0.3 0.2-0.6 0.5-0.6 0.3 0 0.6 0.3 0.6 0.6z"/></g><g clip-path="url(#cp31)"><path class="b" d="m92 22.1h5.5v5.5h-5.5z"/><path class="b" d="m92.6 22.1c0 0.3-0.3 0.6-0.6 0.6v-0.6z"/><path class="b" d="m97.5 22.1v0.6c-0.3 0-0.5-0.3-0.5-0.6z"/><path class="b" d="m92.6 27.6h-0.6v-0.6c0.3 0 0.6 0.3 0.6 0.6z"/><path class="b" d="m97.5 27.1v0.5h-0.5c0-0.3 0.2-0.6 0.5-0.6z"/><path class="b" d="m95.3 24.9c0 0.3-0.2 0.5-0.6 0.5-0.3 0-0.5-0.2-0.5-0.5 0-0.3 0.2-0.6 0.5-0.6 0.3 0 0.6 0.2 0.6 0.6z"/></g><g clip-path="url(#cp32)"><path class="b" d="m92 27.6h5.5v5.5h-5.5z"/><path class="b" d="m92.6 27.6c0 0.3-0.3 0.6-0.6 0.6v-0.6z"/><path class="b" d="m97.5 27.6v0.6c-0.3 0-0.5-0.3-0.5-0.6z"/><path class="b" d="m92.6 33.1h-0.6v-0.6c0.3 0 0.6 0.2 0.6 0.6z"/><path class="b" d="m97.5 32.5v0.6h-0.5c0-0.4 0.2-0.6 0.5-0.6z"/><path class="b" d="m95.3 30.3c0 0.3-0.2 0.6-0.6 0.6-0.3 0-0.5-0.3-0.5-0.6 0-0.3 0.2-0.5 0.5-0.5 0.3 0 0.6 0.2 0.6 0.5z"/></g><g clip-path="url(#cp33)"><path class="b" d="m92 33.1h5.5v5.4h-5.5z"/><path class="b" d="m92.6 33.1c0 0.2-0.3 0.5-0.6 0.5v-0.5z"/><path class="b" d="m97.5 33.1v0.5c-0.3 0-0.5-0.3-0.5-0.5z"/><path class="b" d="m92.6 38.5h-0.6v-0.5c0.3 0 0.6 0.2 0.6 0.5z"/><path class="b" d="m97.5 38v0.5h-0.5c0-0.3 0.2-0.5 0.5-0.5z"/><path class="b" d="m95.3 35.8c0 0.3-0.2 0.5-0.6 0.5-0.3 0-0.5-0.2-0.5-0.5 0-0.3 0.2-0.6 0.5-0.6 0.3 0 0.6 0.3 0.6 0.6z"/></g><g clip-path="url(#cp34)"><path class="b" d="m92 38.5h5.5v5.5h-5.5z"/><path class="b" d="m92.6 38.5c0 0.3-0.3 0.6-0.6 0.6v-0.6z"/><path class="b" d="m97.5 38.5v0.6c-0.3 0-0.5-0.3-0.5-0.6z"/><path class="b" d="m92.6 44h-0.6v-0.5c0.3 0 0.6 0.2 0.6 0.5z"/><path class="b" d="m97.5 43.5v0.5h-0.5c0-0.3 0.2-0.5 0.5-0.5z"/><path class="b" d="m95.3 41.3c0 0.3-0.2 0.5-0.6 0.5-0.3 0-0.5-0.2-0.5-0.5 0-0.3 0.2-0.6 0.5-0.6 0.3 0 0.6 0.3 0.6 0.6z"/></g><g clip-path="url(#cp35)"><path class="b" d="m92 44h5.5v5.5h-5.5z"/><path class="b" d="m92.6 44c0 0.3-0.3 0.6-0.6 0.6v-0.6z"/><path class="b" d="m97.5 44v0.6c-0.3 0-0.5-0.3-0.5-0.6z"/><path class="b" d="m92.6 49.5h-0.6v-0.6c0.3 0 0.6 0.2 0.6 0.6z"/><path class="b" d="m97.5 48.9v0.6h-0.5c0-0.3 0.2-0.6 0.5-0.6z"/><path class="b" d="m95.3 46.7c0 0.3-0.2 0.6-0.6 0.6-0.3 0-0.5-0.3-0.5-0.6 0-0.3 0.2-0.5 0.5-0.5 0.3 0 0.6 0.2 0.6 0.5z"/></g><g clip-path="url(#cp36)"><path class="b" d="m92 49.5h5.5v5.4h-5.5z"/><path class="b" d="m92.6 49.5c0 0.3-0.3 0.5-0.6 0.5v-0.5z"/><path class="b" d="m97.5 49.5v0.5c-0.3 0-0.5-0.2-0.5-0.5z"/><path class="b" d="m92.6 55h-0.6v-0.6c0.3 0 0.6 0.2 0.6 0.6z"/><path class="b" d="m97.5 54.4v0.5h-0.5c0-0.3 0.2-0.5 0.5-0.5z"/><path class="b" d="m95.3 52.2c0 0.3-0.2 0.5-0.6 0.5-0.3 0-0.5-0.2-0.5-0.5 0-0.3 0.2-0.5 0.5-0.5 0.3 0 0.6 0.2 0.6 0.5z"/></g><g clip-path="url(#cp37)"><path class="b" d="m86.5 5.7h5.5v5.5h-5.5z"/><path class="b" d="m87.1 5.7c0 0.3-0.3 0.6-0.5 0.6v-0.6z"/><path class="b" d="m92 5.7v0.6c-0.3 0-0.5-0.3-0.5-0.6z"/><path class="b" d="m87.1 11.2h-0.5v-0.6c0.2 0 0.5 0.3 0.5 0.6z"/><path class="b" d="m92 10.6v0.6h-0.5c0-0.3 0.2-0.6 0.5-0.6z"/><path class="b" d="m89.8 8.4c0 0.3-0.2 0.6-0.5 0.6-0.3 0-0.6-0.3-0.6-0.6 0-0.3 0.3-0.5 0.6-0.5 0.3 0 0.5 0.2 0.5 0.5z"/></g><g clip-path="url(#cp38)"><path class="b" d="m86.5 11.2h5.5v5.4h-5.5z"/><path class="b" d="m87.1 11.2c0 0.3-0.3 0.5-0.5 0.5v-0.5z"/><path class="b" d="m92 11.2v0.5c-0.3 0-0.5-0.2-0.5-0.5z"/><path class="b" d="m87.1 16.6h-0.5v-0.5c0.2 0 0.5 0.2 0.5 0.5z"/><path class="b" d="m92 16.1v0.6h-0.5c0-0.4 0.2-0.6 0.5-0.6z"/><path class="b" d="m89.8 13.9c0 0.3-0.2 0.6-0.5 0.6-0.3 0-0.6-0.3-0.6-0.6 0-0.3 0.3-0.6 0.6-0.6 0.3 0.1 0.5 0.3 0.5 0.6z"/></g><g clip-path="url(#cp39)"><path class="b" d="m86.5 16.6h5.5v5.5h-5.5z"/><path class="b" d="m87.1 16.6c0 0.3-0.3 0.6-0.5 0.6v-0.6z"/><path class="b" d="m92 16.6v0.6c-0.3 0-0.5-0.3-0.5-0.6z"/><path class="b" d="m87.1 22.1h-0.5v-0.5c0.2 0 0.5 0.2 0.5 0.5z"/><path class="b" d="m92 21.6v0.5h-0.5c0-0.3 0.2-0.5 0.5-0.5z"/><path class="b" d="m89.8 19.4c0 0.3-0.2 0.5-0.5 0.5-0.3 0-0.6-0.2-0.6-0.5 0-0.3 0.3-0.6 0.6-0.6 0.3 0 0.5 0.3 0.5 0.6z"/></g><g clip-path="url(#cp40)"><path class="b" d="m86.5 22.1h5.5v5.5h-5.5z"/><path class="b" d="m87.1 22.1c0 0.3-0.3 0.6-0.5 0.6v-0.6z"/><path class="b" d="m92 22.1v0.6c-0.3 0-0.5-0.3-0.5-0.6z"/><path class="b" d="m87.1 27.6h-0.5v-0.6c0.2 0 0.5 0.3 0.5 0.6z"/><path class="b" d="m92 27.1v0.5h-0.5c0-0.3 0.2-0.6 0.5-0.6z"/><path class="b" d="m89.8 24.9c0 0.3-0.2 0.5-0.5 0.5-0.3 0-0.6-0.2-0.6-0.5 0-0.3 0.3-0.6 0.6-0.6 0.3 0 0.5 0.2 0.5 0.6z"/></g><g clip-path="url(#cp41)"><path class="b" d="m86.5 27.6h5.5v5.5h-5.5z"/><path class="b" d="m87.1 27.6c0 0.3-0.3 0.6-0.5 0.6v-0.6z"/><path class="b" d="m92 27.6v0.6c-0.3 0-0.5-0.3-0.5-0.6z"/><path class="b" d="m87.1 33.1h-0.5v-0.6c0.2 0 0.5 0.2 0.5 0.6z"/><path class="b" d="m92 32.5v0.6h-0.5c0-0.4 0.2-0.6 0.5-0.6z"/><path class="b" d="m89.8 30.3c0 0.3-0.2 0.6-0.5 0.6-0.3 0-0.6-0.3-0.6-0.6 0-0.3 0.3-0.5 0.6-0.5 0.3 0 0.5 0.2 0.5 0.5z"/></g><g clip-path="url(#cp42)"><path class="b" d="m86.5 33.1h5.5v5.4h-5.5z"/><path class="b" d="m87.1 33.1c0 0.2-0.3 0.5-0.5 0.5v-0.5z"/><path class="b" d="m92 33.1v0.5c-0.3 0-0.5-0.3-0.5-0.5z"/><path class="b" d="m87.1 38.5h-0.5v-0.5c0.2 0 0.5 0.2 0.5 0.5z"/><path class="b" d="m92 38v0.5h-0.5c0-0.3 0.2-0.5 0.5-0.5z"/><path class="b" d="m89.8 35.8c0 0.3-0.2 0.5-0.5 0.5-0.3 0-0.6-0.2-0.6-0.5 0-0.3 0.3-0.6 0.6-0.6 0.3 0 0.5 0.3 0.5 0.6z"/></g><g clip-path="url(#cp43)"><path class="b" d="m86.5 38.5h5.5v5.5h-5.5z"/><path class="b" d="m87.1 38.5c0 0.3-0.3 0.6-0.5 0.6v-0.6z"/><path class="b" d="m92 38.5v0.6c-0.3 0-0.5-0.3-0.5-0.6z"/><path class="b" d="m87.1 44h-0.5v-0.5c0.2 0 0.5 0.2 0.5 0.5z"/><path class="b" d="m92 43.5v0.5h-0.5c0-0.3 0.2-0.5 0.5-0.5z"/><path class="b" d="m89.8 41.3c0 0.3-0.2 0.5-0.5 0.5-0.3 0-0.6-0.2-0.6-0.5 0-0.3 0.3-0.6 0.6-0.6 0.3 0 0.5 0.3 0.5 0.6z"/></g><g clip-path="url(#cp44)"><path class="b" d="m86.5 44h5.5v5.5h-5.5z"/><path class="b" d="m87.1 44c0 0.3-0.3 0.6-0.5 0.6v-0.6z"/><path class="b" d="m92 44v0.6c-0.3 0-0.5-0.3-0.5-0.6z"/><path class="b" d="m87.1 49.5h-0.5v-0.6c0.2 0 0.5 0.2 0.5 0.6z"/><path class="b" d="m92 48.9v0.6h-0.5c0-0.3 0.2-0.6 0.5-0.6z"/><path class="b" d="m89.8 46.7c0 0.3-0.2 0.6-0.5 0.6-0.3 0-0.6-0.3-0.6-0.6 0-0.3 0.3-0.5 0.6-0.5 0.3 0 0.5 0.2 0.5 0.5z"/></g><g clip-path="url(#cp45)"><path class="b" d="m86.5 49.5h5.5v5.4h-5.5z"/><path class="b" d="m87.1 49.5c0 0.3-0.3 0.5-0.5 0.5v-0.5z"/><path class="b" d="m92 49.5v0.5c-0.3 0-0.5-0.2-0.5-0.5z"/><path class="b" d="m87.1 55h-0.5v-0.6c0.2 0 0.5 0.2 0.5 0.6z"/><path class="b" d="m92 54.4v0.5h-0.5c0-0.3 0.2-0.5 0.5-0.5z"/><path class="b" d="m89.8 52.2c0 0.3-0.2 0.5-0.5 0.5-0.3 0-0.6-0.2-0.6-0.5 0-0.3 0.3-0.5 0.6-0.5 0.3 0 0.5 0.2 0.5 0.5z"/></g><g clip-path="url(#cp46)"><path class="b" d="m81.1 5.7h5.5v5.5h-5.5z"/><path class="b" d="m81.6 5.7c0 0.3-0.2 0.6-0.5 0.6v-0.6z"/><path class="b" d="m86.5 5.7v0.6c-0.3 0-0.5-0.3-0.5-0.6z"/><path class="b" d="m81.6 11.2h-0.5v-0.6c0.3 0 0.5 0.3 0.5 0.6z"/><path class="b" d="m86.5 10.6v0.6h-0.5c0-0.3 0.2-0.6 0.5-0.6z"/><path class="b" d="m84.3 8.4c0 0.3-0.2 0.6-0.5 0.6-0.3 0-0.5-0.3-0.5-0.6 0-0.3 0.2-0.5 0.5-0.5 0.3 0 0.5 0.2 0.5 0.5z"/></g><g clip-path="url(#cp47)"><path class="b" d="m81.1 11.2h5.5v5.4h-5.5z"/><path class="b" d="m81.6 11.2c0 0.3-0.2 0.5-0.5 0.5v-0.5z"/><path class="b" d="m86.5 11.2v0.5c-0.3 0-0.5-0.2-0.5-0.5z"/><path class="b" d="m81.6 16.6h-0.5v-0.5c0.3 0 0.5 0.2 0.5 0.5z"/><path class="b" d="m86.5 16.1v0.6h-0.5c0-0.4 0.2-0.6 0.5-0.6z"/><path class="b" d="m84.3 13.9c0 0.3-0.2 0.6-0.5 0.6-0.3 0-0.5-0.3-0.5-0.6 0-0.3 0.2-0.6 0.5-0.6 0.3 0.1 0.5 0.3 0.5 0.6z"/></g><g clip-path="url(#cp48)"><path class="b" d="m81.1 16.6h5.5v5.5h-5.5z"/><path class="b" d="m81.6 16.6c0 0.3-0.2 0.6-0.5 0.6v-0.6z"/><path class="b" d="m86.5 16.6v0.6c-0.3 0-0.5-0.3-0.5-0.6z"/><path class="b" d="m81.6 22.1h-0.5v-0.5c0.3 0 0.5 0.2 0.5 0.5z"/><path class="b" d="m86.5 21.6v0.5h-0.5c0-0.3 0.2-0.5 0.5-0.5z"/><path class="b" d="m84.3 19.4c0 0.3-0.2 0.5-0.5 0.5-0.3 0-0.5-0.2-0.5-0.5 0-0.3 0.2-0.6 0.5-0.6 0.3 0 0.5 0.3 0.5 0.6z"/></g><g clip-path="url(#cp49)"><path class="b" d="m81.1 22.1h5.5v5.5h-5.5z"/><path class="b" d="m81.6 22.1c0 0.3-0.2 0.6-0.5 0.6v-0.6z"/><path class="b" d="m86.5 22.1v0.6c-0.3 0-0.5-0.3-0.5-0.6z"/><path class="b" d="m81.6 27.6h-0.5v-0.6c0.3 0 0.5 0.3 0.5 0.6z"/><path class="b" d="m86.5 27.1v0.5h-0.5c0-0.3 0.2-0.6 0.5-0.6z"/><path class="b" d="m84.3 24.9c0 0.3-0.2 0.5-0.5 0.5-0.3 0-0.5-0.2-0.5-0.5 0-0.3 0.2-0.6 0.5-0.6 0.3 0 0.5 0.2 0.5 0.6z"/></g><g clip-path="url(#cp50)"><path class="b" d="m81.1 27.6h5.5v5.5h-5.5z"/><path class="b" d="m81.6 27.6c0 0.3-0.2 0.6-0.5 0.6v-0.6z"/><path class="b" d="m86.5 27.6v0.6c-0.3 0-0.5-0.3-0.5-0.6z"/><path class="b" d="m81.6 33.1h-0.5v-0.6c0.3 0 0.5 0.2 0.5 0.6z"/><path class="b" d="m86.5 32.5v0.6h-0.5c0-0.4 0.2-0.6 0.5-0.6z"/><path class="b" d="m84.3 30.3c0 0.3-0.2 0.6-0.5 0.6-0.3 0-0.5-0.3-0.5-0.6 0-0.3 0.2-0.5 0.5-0.5 0.3 0 0.5 0.2 0.5 0.5z"/></g><g clip-path="url(#cp51)"><path class="b" d="m81.1 33.1h5.5v5.4h-5.5z"/><path class="b" d="m81.6 33.1c0 0.2-0.2 0.5-0.5 0.5v-0.5z"/><path class="b" d="m86.5 33.1v0.5c-0.3 0-0.5-0.3-0.5-0.5z"/><path class="b" d="m81.6 38.5h-0.5v-0.5c0.3 0 0.5 0.2 0.5 0.5z"/><path class="b" d="m86.5 38v0.5h-0.5c0-0.3 0.2-0.5 0.5-0.5z"/><path class="b" d="m84.3 35.8c0 0.3-0.2 0.5-0.5 0.5-0.3 0-0.5-0.2-0.5-0.5 0-0.3 0.2-0.6 0.5-0.6 0.3 0 0.5 0.3 0.5 0.6z"/></g><g clip-path="url(#cp52)"><path class="b" d="m81.1 38.5h5.5v5.5h-5.5z"/><path class="b" d="m81.6 38.5c0 0.3-0.2 0.6-0.5 0.6v-0.6z"/><path class="b" d="m86.5 38.5v0.6c-0.3 0-0.5-0.3-0.5-0.6z"/><path class="b" d="m81.6 44h-0.5v-0.5c0.3 0 0.5 0.2 0.5 0.5z"/><path class="b" d="m86.5 43.5v0.5h-0.5c0-0.3 0.2-0.5 0.5-0.5z"/><path class="b" d="m84.3 41.3c0 0.3-0.2 0.5-0.5 0.5-0.3 0-0.5-0.2-0.5-0.5 0-0.3 0.2-0.6 0.5-0.6 0.3 0 0.5 0.3 0.5 0.6z"/></g><g clip-path="url(#cp53)"><path class="b" d="m81.1 44h5.5v5.5h-5.5z"/><path class="b" d="m81.6 44c0 0.3-0.2 0.6-0.5 0.6v-0.6z"/><path class="b" d="m86.5 44v0.6c-0.3 0-0.5-0.3-0.5-0.6z"/><path class="b" d="m81.6 49.5h-0.5v-0.6c0.3 0 0.5 0.2 0.5 0.6z"/><path class="b" d="m86.5 48.9v0.6h-0.5c0-0.3 0.2-0.6 0.5-0.6z"/><path class="b" d="m84.3 46.7c0 0.3-0.2 0.6-0.5 0.6-0.3 0-0.5-0.3-0.5-0.6 0-0.3 0.2-0.5 0.5-0.5 0.3 0 0.5 0.2 0.5 0.5z"/></g><g clip-path="url(#cp54)"><path class="b" d="m81.1 49.5h5.5v5.4h-5.5z"/><path class="b" d="m81.6 49.5c0 0.3-0.2 0.5-0.5 0.5v-0.5z"/><path class="b" d="m86.5 49.5v0.5c-0.3 0-0.5-0.2-0.5-0.5z"/><path class="b" d="m81.6 55h-0.5v-0.6c0.3 0 0.5 0.2 0.5 0.6z"/><path class="b" d="m86.5 54.4v0.5h-0.5c0-0.3 0.2-0.5 0.5-0.5z"/><path class="b" d="m84.3 52.2c0 0.3-0.2 0.5-0.5 0.5-0.3 0-0.5-0.2-0.5-0.5 0-0.3 0.2-0.5 0.5-0.5 0.3 0 0.5 0.2 0.5 0.5z"/></g><g clip-path="url(#cp55)"><path class="b" d="m75.6 5.7h5.5v5.5h-5.5z"/><path class="b" d="m76.2 5.7c0 0.3-0.3 0.6-0.6 0.6v-0.6z"/><path class="b" d="m81.1 5.7v0.6c-0.3 0-0.6-0.3-0.6-0.6z"/><path class="b" d="m76.2 11.2h-0.6v-0.6c0.3 0 0.6 0.3 0.6 0.6z"/><path class="b" d="m81.1 10.6v0.6h-0.6c0-0.3 0.3-0.6 0.6-0.6z"/><path class="b" d="m78.3 9c-0.3 0-0.5-0.3-0.5-0.6 0-0.3 0.2-0.5 0.5-0.5 0.3 0 0.6 0.2 0.6 0.5 0 0.3-0.3 0.6-0.6 0.6z"/></g><g clip-path="url(#cp56)"><path class="b" d="m75.6 11.2h5.5v5.4h-5.5z"/><path class="b" d="m76.2 11.2c0 0.3-0.3 0.5-0.6 0.5v-0.5z"/><path class="b" d="m81.1 11.2v0.5c-0.3 0-0.6-0.2-0.6-0.5z"/><path class="b" d="m76.2 16.6h-0.6v-0.5c0.3 0 0.6 0.2 0.6 0.5z"/><path class="b" d="m81.1 16.1v0.6h-0.6c0-0.4 0.3-0.6 0.6-0.6z"/><path class="b" d="m78.9 13.9c0 0.3-0.3 0.6-0.6 0.6-0.3 0-0.5-0.3-0.5-0.6 0-0.3 0.2-0.6 0.5-0.6 0.3 0.1 0.6 0.3 0.6 0.6z"/></g><g clip-path="url(#cp57)"><path class="b" d="m75.6 16.6h5.5v5.5h-5.5z"/><path class="b" d="m76.2 16.6c0 0.3-0.3 0.6-0.6 0.6v-0.6z"/><path class="b" d="m81.1 16.6v0.6c-0.3 0-0.6-0.3-0.6-0.6z"/><path class="b" d="m76.2 22.1h-0.6v-0.5c0.3 0 0.6 0.2 0.6 0.5z"/><path class="b" d="m81.1 21.6v0.5h-0.6c0-0.3 0.3-0.5 0.6-0.5z"/><path class="b" d="m78.9 19.4c0 0.3-0.3 0.5-0.6 0.5-0.3 0-0.5-0.2-0.5-0.5 0-0.3 0.2-0.6 0.5-0.6 0.3 0 0.6 0.3 0.6 0.6z"/></g><g clip-path="url(#cp58)"><path class="b" d="m75.6 22.1h5.5v5.5h-5.5z"/><path class="b" d="m76.2 22.1c0 0.3-0.3 0.6-0.6 0.6v-0.6z"/><path class="b" d="m81.1 22.1v0.6c-0.3 0-0.6-0.3-0.6-0.6z"/><path class="b" d="m76.2 27.6h-0.6v-0.6c0.3 0 0.6 0.3 0.6 0.6z"/><path class="b" d="m81.1 27.1v0.5h-0.6c0-0.3 0.3-0.6 0.6-0.6z"/><path class="b" d="m78.9 24.9c0 0.3-0.3 0.5-0.6 0.5-0.3 0-0.5-0.2-0.5-0.5 0-0.3 0.2-0.6 0.5-0.6 0.3 0 0.6 0.2 0.6 0.6z"/></g><g clip-path="url(#cp59)"><path class="b" d="m75.6 27.6h5.5v5.5h-5.5z"/><path class="b" d="m76.2 27.6c0 0.3-0.3 0.6-0.6 0.6v-0.6z"/><path class="b" d="m81.1 27.6v0.6c-0.3 0-0.6-0.3-0.6-0.6z"/><path class="b" d="m76.2 33.1h-0.6v-0.6c0.3 0 0.6 0.2 0.6 0.6z"/><path class="b" d="m81.1 32.5v0.6h-0.6c0-0.4 0.3-0.6 0.6-0.6z"/><path class="b" d="m78.9 30.3c0 0.3-0.3 0.6-0.6 0.6-0.3 0-0.5-0.3-0.5-0.6 0-0.3 0.2-0.5 0.5-0.5 0.3 0 0.6 0.2 0.6 0.5z"/></g><g clip-path="url(#cp60)"><path class="b" d="m75.6 33.1h5.5v5.4h-5.5z"/><path class="b" d="m76.2 33.1c0 0.2-0.3 0.5-0.6 0.5v-0.5z"/><path class="b" d="m81.1 33.1v0.5c-0.3 0-0.6-0.3-0.6-0.5z"/><path class="b" d="m76.2 38.5h-0.6v-0.5c0.3 0 0.6 0.2 0.6 0.5z"/><path class="b" d="m81.1 38v0.5h-0.6c0-0.3 0.3-0.5 0.6-0.5z"/><path class="b" d="m78.9 35.8c0 0.3-0.3 0.5-0.6 0.5-0.3 0-0.5-0.2-0.5-0.5 0-0.3 0.2-0.6 0.5-0.6 0.3 0 0.6 0.3 0.6 0.6z"/></g><g clip-path="url(#cp61)"><path class="b" d="m75.6 38.5h5.5v5.5h-5.5z"/><path class="b" d="m76.2 38.5c0 0.3-0.3 0.6-0.6 0.6v-0.6z"/><path class="b" d="m81.1 38.5v0.6c-0.3 0-0.6-0.3-0.6-0.6z"/><path class="b" d="m76.2 44h-0.6v-0.5c0.3 0 0.6 0.2 0.6 0.5z"/><path class="b" d="m81.1 43.5v0.5h-0.6c0-0.3 0.3-0.5 0.6-0.5z"/><path class="b" d="m78.9 41.3c0 0.3-0.3 0.5-0.6 0.5-0.3 0-0.5-0.2-0.5-0.5 0-0.3 0.2-0.6 0.5-0.6 0.3 0 0.6 0.3 0.6 0.6z"/></g><g clip-path="url(#cp62)"><path class="b" d="m75.6 44h5.5v5.5h-5.5z"/><path class="b" d="m76.2 44c0 0.3-0.3 0.6-0.6 0.6v-0.6z"/><path class="b" d="m81.1 44v0.6c-0.3 0-0.6-0.3-0.6-0.6z"/><path class="b" d="m76.2 49.5h-0.6v-0.6c0.3 0 0.6 0.2 0.6 0.6z"/><path class="b" d="m81.1 48.9v0.6h-0.6c0-0.3 0.3-0.6 0.6-0.6z"/><path class="b" d="m78.3 47.3c-0.3 0-0.5-0.3-0.5-0.6 0-0.3 0.2-0.5 0.5-0.5 0.3 0 0.6 0.2 0.6 0.5 0 0.3-0.3 0.6-0.6 0.6z"/></g><g clip-path="url(#cp63)"><path class="b" d="m75.6 49.5h5.5v5.4h-5.5z"/><path class="b" d="m76.2 49.5c0 0.3-0.3 0.5-0.6 0.5v-0.5z"/><path class="b" d="m81.1 49.5v0.5c-0.3 0-0.6-0.2-0.6-0.5z"/><path class="b" d="m76.2 55h-0.6v-0.6c0.3 0 0.6 0.2 0.6 0.6z"/><path class="b" d="m81.1 54.4v0.5h-0.6c0-0.3 0.3-0.5 0.6-0.5z"/><path class="b" d="m78.9 52.2c0 0.3-0.3 0.5-0.6 0.5-0.3 0-0.5-0.2-0.5-0.5 0-0.3 0.2-0.5 0.5-0.5 0.3 0 0.6 0.2 0.6 0.5z"/></g><path fill-rule="evenodd" class="c" d="m109.9 53.8h-11.9v-6.2h-19.3l0.1-11.4 15.7-30.8h13.6l-15.5 30.3h5.4v-6.1h11.9v6.1h3.5v11.9h-3.5c0 0 0 6.2 0 6.2zm-10.2-1.7h8.6v-6.1h3.4v-8.6h-3.4v-6.2h-8.6v6.2h-9.7l15.4-30.3h-9.9l-15.2 29.7v9.2h19.4z"/></svg>