<svg version="1.2" xmlns="http://www.w3.org/2000/svg" viewBox="0 0 122 62" width="122" height="62"><defs><clipPath clipPathUnits="userSpaceOnUse" id="cp1"><path d="m67.94 46.99v6.17h-10.23v-6.17h-19.36v-10.23l15.48-30.32h11.81l-15.48 30.32h7.55v-6.17h10.23v6.17h3.48v10.24c0 0-3.48 0-3.48-0.01z"/></clipPath><clipPath clipPathUnits="userSpaceOnUse" id="cp2"><path d="m67.94 46.99v6.17h-10.23v-6.17h-19.36v-10.23l15.48-30.32h11.81l-15.48 30.32h7.55v-6.17h10.23v6.17h3.48v10.24c0 0-3.48 0-3.48-0.01z"/></clipPath><clipPath clipPathUnits="userSpaceOnUse" id="cp3"><path d="m67.94 46.99v6.17h-10.23v-6.17h-19.36v-10.23l15.48-30.32h11.81l-15.48 30.32h7.55v-6.17h10.23v6.17h3.48v10.24c0 0-3.48 0-3.48-0.01z"/></clipPath><clipPath clipPathUnits="userSpaceOnUse" id="cp4"><path d="m67.94 46.99v6.17h-10.23v-6.17h-19.36v-10.23l15.48-30.32h11.81l-15.48 30.32h7.55v-6.17h10.23v6.17h3.48v10.24c0 0-3.48 0-3.48-0.01z"/></clipPath><clipPath clipPathUnits="userSpaceOnUse" id="cp5"><path d="m67.94 46.99v6.17h-10.23v-6.17h-19.36v-10.23l15.48-30.32h11.81l-15.48 30.32h7.55v-6.17h10.23v6.17h3.48v10.24c0 0-3.48 0-3.48-0.01z"/></clipPath><clipPath clipPathUnits="userSpaceOnUse" id="cp6"><path d="m67.94 46.99v6.17h-10.23v-6.17h-19.36v-10.23l15.48-30.32h11.81l-15.48 30.32h7.55v-6.17h10.23v6.17h3.48v10.24c0 0-3.48 0-3.48-0.01z"/></clipPath><clipPath clipPathUnits="userSpaceOnUse" id="cp7"><path d="m67.94 46.99v6.17h-10.23v-6.17h-19.36v-10.23l15.48-30.32h11.81l-15.48 30.32h7.55v-6.17h10.23v6.17h3.48v10.24c0 0-3.48 0-3.48-0.01z"/></clipPath><clipPath clipPathUnits="userSpaceOnUse" id="cp8"><path d="m67.94 46.99v6.17h-10.23v-6.17h-19.36v-10.23l15.48-30.32h11.81l-15.48 30.32h7.55v-6.17h10.23v6.17h3.48v10.24c0 0-3.48 0-3.48-0.01z"/></clipPath><clipPath clipPathUnits="userSpaceOnUse" id="cp9"><path d="m67.94 46.99v6.17h-10.23v-6.17h-19.36v-10.23l15.48-30.32h11.81l-15.48 30.32h7.55v-6.17h10.23v6.17h3.48v10.24c0 0-3.48 0-3.48-0.01z"/></clipPath><clipPath clipPathUnits="userSpaceOnUse" id="cp10"><path d="m67.94 46.99v6.17h-10.23v-6.17h-19.36v-10.23l15.48-30.32h11.81l-15.48 30.32h7.55v-6.17h10.23v6.17h3.48v10.24c0 0-3.48 0-3.48-0.01z"/></clipPath><clipPath clipPathUnits="userSpaceOnUse" id="cp11"><path d="m67.94 46.99v6.17h-10.23v-6.17h-19.36v-10.23l15.48-30.32h11.81l-15.48 30.32h7.55v-6.17h10.23v6.17h3.48v10.24c0 0-3.48 0-3.48-0.01z"/></clipPath><clipPath clipPathUnits="userSpaceOnUse" id="cp12"><path d="m67.94 46.99v6.17h-10.23v-6.17h-19.36v-10.23l15.48-30.32h11.81l-15.48 30.32h7.55v-6.17h10.23v6.17h3.48v10.24c0 0-3.48 0-3.48-0.01z"/></clipPath><clipPath clipPathUnits="userSpaceOnUse" id="cp13"><path d="m67.94 46.99v6.17h-10.23v-6.17h-19.36v-10.23l15.48-30.32h11.81l-15.48 30.32h7.55v-6.17h10.23v6.17h3.48v10.24c0 0-3.48 0-3.48-0.01z"/></clipPath><clipPath clipPathUnits="userSpaceOnUse" id="cp14"><path d="m67.94 46.99v6.17h-10.23v-6.17h-19.36v-10.23l15.48-30.32h11.81l-15.48 30.32h7.55v-6.17h10.23v6.17h3.48v10.24c0 0-3.48 0-3.48-0.01z"/></clipPath><clipPath clipPathUnits="userSpaceOnUse" id="cp15"><path d="m67.94 46.99v6.17h-10.23v-6.17h-19.36v-10.23l15.48-30.32h11.81l-15.48 30.32h7.55v-6.17h10.23v6.17h3.48v10.24c0 0-3.48 0-3.48-0.01z"/></clipPath><clipPath clipPathUnits="userSpaceOnUse" id="cp16"><path d="m67.94 46.99v6.17h-10.23v-6.17h-19.36v-10.23l15.48-30.32h11.81l-15.48 30.32h7.55v-6.17h10.23v6.17h3.48v10.24c0 0-3.48 0-3.48-0.01z"/></clipPath><clipPath clipPathUnits="userSpaceOnUse" id="cp17"><path d="m67.94 46.99v6.17h-10.23v-6.17h-19.36v-10.23l15.48-30.32h11.81l-15.48 30.32h7.55v-6.17h10.23v6.17h3.48v10.24c0 0-3.48 0-3.48-0.01z"/></clipPath><clipPath clipPathUnits="userSpaceOnUse" id="cp18"><path d="m67.94 46.99v6.17h-10.23v-6.17h-19.36v-10.23l15.48-30.32h11.81l-15.48 30.32h7.55v-6.17h10.23v6.17h3.48v10.24c0 0-3.48 0-3.48-0.01z"/></clipPath><clipPath clipPathUnits="userSpaceOnUse" id="cp19"><path d="m67.94 46.99v6.17h-10.23v-6.17h-19.36v-10.23l15.48-30.32h11.81l-15.48 30.32h7.55v-6.17h10.23v6.17h3.48v10.24c0 0-3.48 0-3.48-0.01z"/></clipPath><clipPath clipPathUnits="userSpaceOnUse" id="cp20"><path d="m67.94 46.99v6.17h-10.23v-6.17h-19.36v-10.23l15.48-30.32h11.81l-15.48 30.32h7.55v-6.17h10.23v6.17h3.48v10.24c0 0-3.48 0-3.48-0.01z"/></clipPath><clipPath clipPathUnits="userSpaceOnUse" id="cp21"><path d="m67.94 46.99v6.17h-10.23v-6.17h-19.36v-10.23l15.48-30.32h11.81l-15.48 30.32h7.55v-6.17h10.23v6.17h3.48v10.24c0 0-3.48 0-3.48-0.01z"/></clipPath><clipPath clipPathUnits="userSpaceOnUse" id="cp22"><path d="m67.94 46.99v6.17h-10.23v-6.17h-19.36v-10.23l15.48-30.32h11.81l-15.48 30.32h7.55v-6.17h10.23v6.17h3.48v10.24c0 0-3.48 0-3.48-0.01z"/></clipPath><clipPath clipPathUnits="userSpaceOnUse" id="cp23"><path d="m67.94 46.99v6.17h-10.23v-6.17h-19.36v-10.23l15.48-30.32h11.81l-15.48 30.32h7.55v-6.17h10.23v6.17h3.48v10.24c0 0-3.48 0-3.48-0.01z"/></clipPath><clipPath clipPathUnits="userSpaceOnUse" id="cp24"><path d="m67.94 46.99v6.17h-10.23v-6.17h-19.36v-10.23l15.48-30.32h11.81l-15.48 30.32h7.55v-6.17h10.23v6.17h3.48v10.24c0 0-3.48 0-3.48-0.01z"/></clipPath><clipPath clipPathUnits="userSpaceOnUse" id="cp25"><path d="m67.94 46.99v6.17h-10.23v-6.17h-19.36v-10.23l15.48-30.32h11.81l-15.48 30.32h7.55v-6.17h10.23v6.17h3.48v10.24c0 0-3.48 0-3.48-0.01z"/></clipPath><clipPath clipPathUnits="userSpaceOnUse" id="cp26"><path d="m67.94 46.99v6.17h-10.23v-6.17h-19.36v-10.23l15.48-30.32h11.81l-15.48 30.32h7.55v-6.17h10.23v6.17h3.48v10.24c0 0-3.48 0-3.48-0.01z"/></clipPath><clipPath clipPathUnits="userSpaceOnUse" id="cp27"><path d="m67.94 46.99v6.17h-10.23v-6.17h-19.36v-10.23l15.48-30.32h11.81l-15.48 30.32h7.55v-6.17h10.23v6.17h3.48v10.24c0 0-3.48 0-3.48-0.01z"/></clipPath><clipPath clipPathUnits="userSpaceOnUse" id="cp28"><path d="m67.94 46.99v6.17h-10.23v-6.17h-19.36v-10.23l15.48-30.32h11.81l-15.48 30.32h7.55v-6.17h10.23v6.17h3.48v10.24c0 0-3.48 0-3.48-0.01z"/></clipPath><clipPath clipPathUnits="userSpaceOnUse" id="cp29"><path d="m67.94 46.99v6.17h-10.23v-6.17h-19.36v-10.23l15.48-30.32h11.81l-15.48 30.32h7.55v-6.17h10.23v6.17h3.48v10.24c0 0-3.48 0-3.48-0.01z"/></clipPath><clipPath clipPathUnits="userSpaceOnUse" id="cp30"><path d="m67.94 46.99v6.17h-10.23v-6.17h-19.36v-10.23l15.48-30.32h11.81l-15.48 30.32h7.55v-6.17h10.23v6.17h3.48v10.24c0 0-3.48 0-3.48-0.01z"/></clipPath><clipPath clipPathUnits="userSpaceOnUse" id="cp31"><path d="m67.94 46.99v6.17h-10.23v-6.17h-19.36v-10.23l15.48-30.32h11.81l-15.48 30.32h7.55v-6.17h10.23v6.17h3.48v10.24c0 0-3.48 0-3.48-0.01z"/></clipPath><clipPath clipPathUnits="userSpaceOnUse" id="cp32"><path d="m67.94 46.99v6.17h-10.23v-6.17h-19.36v-10.23l15.48-30.32h11.81l-15.48 30.32h7.55v-6.17h10.23v6.17h3.48v10.24c0 0-3.48 0-3.48-0.01z"/></clipPath><clipPath clipPathUnits="userSpaceOnUse" id="cp33"><path d="m67.94 46.99v6.17h-10.23v-6.17h-19.36v-10.23l15.48-30.32h11.81l-15.48 30.32h7.55v-6.17h10.23v6.17h3.48v10.24c0 0-3.48 0-3.48-0.01z"/></clipPath><clipPath clipPathUnits="userSpaceOnUse" id="cp34"><path d="m67.94 46.99v6.17h-10.23v-6.17h-19.36v-10.23l15.48-30.32h11.81l-15.48 30.32h7.55v-6.17h10.23v6.17h3.48v10.24c0 0-3.48 0-3.48-0.01z"/></clipPath><clipPath clipPathUnits="userSpaceOnUse" id="cp35"><path d="m67.94 46.99v6.17h-10.23v-6.17h-19.36v-10.23l15.48-30.32h11.81l-15.48 30.32h7.55v-6.17h10.23v6.17h3.48v10.24c0 0-3.48 0-3.48-0.01z"/></clipPath><clipPath clipPathUnits="userSpaceOnUse" id="cp36"><path d="m67.94 46.99v6.17h-10.23v-6.17h-19.36v-10.23l15.48-30.32h11.81l-15.48 30.32h7.55v-6.17h10.23v6.17h3.48v10.24c0 0-3.48 0-3.48-0.01z"/></clipPath><clipPath clipPathUnits="userSpaceOnUse" id="cp37"><path d="m67.94 46.99v6.17h-10.23v-6.17h-19.36v-10.23l15.48-30.32h11.81l-15.48 30.32h7.55v-6.17h10.23v6.17h3.48v10.24c0 0-3.48 0-3.48-0.01z"/></clipPath><clipPath clipPathUnits="userSpaceOnUse" id="cp38"><path d="m67.94 46.99v6.17h-10.23v-6.17h-19.36v-10.23l15.48-30.32h11.81l-15.48 30.32h7.55v-6.17h10.23v6.17h3.48v10.24c0 0-3.48 0-3.48-0.01z"/></clipPath><clipPath clipPathUnits="userSpaceOnUse" id="cp39"><path d="m67.94 46.99v6.17h-10.23v-6.17h-19.36v-10.23l15.48-30.32h11.81l-15.48 30.32h7.55v-6.17h10.23v6.17h3.48v10.24c0 0-3.48 0-3.48-0.01z"/></clipPath><clipPath clipPathUnits="userSpaceOnUse" id="cp40"><path d="m67.94 46.99v6.17h-10.23v-6.17h-19.36v-10.23l15.48-30.32h11.81l-15.48 30.32h7.55v-6.17h10.23v6.17h3.48v10.24c0 0-3.48 0-3.48-0.01z"/></clipPath><clipPath clipPathUnits="userSpaceOnUse" id="cp41"><path d="m67.94 46.99v6.17h-10.23v-6.17h-19.36v-10.23l15.48-30.32h11.81l-15.48 30.32h7.55v-6.17h10.23v6.17h3.48v10.24c0 0-3.48 0-3.48-0.01z"/></clipPath><clipPath clipPathUnits="userSpaceOnUse" id="cp42"><path d="m67.94 46.99v6.17h-10.23v-6.17h-19.36v-10.23l15.48-30.32h11.81l-15.48 30.32h7.55v-6.17h10.23v6.17h3.48v10.24c0 0-3.48 0-3.48-0.01z"/></clipPath><clipPath clipPathUnits="userSpaceOnUse" id="cp43"><path d="m67.94 46.99v6.17h-10.23v-6.17h-19.36v-10.23l15.48-30.32h11.81l-15.48 30.32h7.55v-6.17h10.23v6.17h3.48v10.24c0 0-3.48 0-3.48-0.01z"/></clipPath><clipPath clipPathUnits="userSpaceOnUse" id="cp44"><path d="m67.94 46.99v6.17h-10.23v-6.17h-19.36v-10.23l15.48-30.32h11.81l-15.48 30.32h7.55v-6.17h10.23v6.17h3.48v10.24c0 0-3.48 0-3.48-0.01z"/></clipPath><clipPath clipPathUnits="userSpaceOnUse" id="cp45"><path d="m67.94 46.99v6.17h-10.23v-6.17h-19.36v-10.23l15.48-30.32h11.81l-15.48 30.32h7.55v-6.17h10.23v6.17h3.48v10.24c0 0-3.48 0-3.48-0.01z"/></clipPath><clipPath clipPathUnits="userSpaceOnUse" id="cp46"><path d="m67.94 46.99v6.17h-10.23v-6.17h-19.36v-10.23l15.48-30.32h11.81l-15.48 30.32h7.55v-6.17h10.23v6.17h3.48v10.24c0 0-3.48 0-3.48-0.01z"/></clipPath><clipPath clipPathUnits="userSpaceOnUse" id="cp47"><path d="m67.94 46.99v6.17h-10.23v-6.17h-19.36v-10.23l15.48-30.32h11.81l-15.48 30.32h7.55v-6.17h10.23v6.17h3.48v10.24c0 0-3.48 0-3.48-0.01z"/></clipPath><clipPath clipPathUnits="userSpaceOnUse" id="cp48"><path d="m67.94 46.99v6.17h-10.23v-6.17h-19.36v-10.23l15.48-30.32h11.81l-15.48 30.32h7.55v-6.17h10.23v6.17h3.48v10.24c0 0-3.48 0-3.48-0.01z"/></clipPath><clipPath clipPathUnits="userSpaceOnUse" id="cp49"><path d="m67.94 46.99v6.17h-10.23v-6.17h-19.36v-10.23l15.48-30.32h11.81l-15.48 30.32h7.55v-6.17h10.23v6.17h3.48v10.24c0 0-3.48 0-3.48-0.01z"/></clipPath><clipPath clipPathUnits="userSpaceOnUse" id="cp50"><path d="m67.94 46.99v6.17h-10.23v-6.17h-19.36v-10.23l15.48-30.32h11.81l-15.48 30.32h7.55v-6.17h10.23v6.17h3.48v10.24c0 0-3.48 0-3.48-0.01z"/></clipPath><clipPath clipPathUnits="userSpaceOnUse" id="cp51"><path d="m67.94 46.99v6.17h-10.23v-6.17h-19.36v-10.23l15.48-30.32h11.81l-15.48 30.32h7.55v-6.17h10.23v6.17h3.48v10.24c0 0-3.48 0-3.48-0.01z"/></clipPath><clipPath clipPathUnits="userSpaceOnUse" id="cp52"><path d="m67.94 46.99v6.17h-10.23v-6.17h-19.36v-10.23l15.48-30.32h11.81l-15.48 30.32h7.55v-6.17h10.23v6.17h3.48v10.24c0 0-3.48 0-3.48-0.01z"/></clipPath><clipPath clipPathUnits="userSpaceOnUse" id="cp53"><path d="m67.94 46.99v6.17h-10.23v-6.17h-19.36v-10.23l15.48-30.32h11.81l-15.48 30.32h7.55v-6.17h10.23v6.17h3.48v10.24c0 0-3.48 0-3.48-0.01z"/></clipPath><clipPath clipPathUnits="userSpaceOnUse" id="cp54"><path d="m67.94 46.99v6.17h-10.23v-6.17h-19.36v-10.23l15.48-30.32h11.81l-15.48 30.32h7.55v-6.17h10.23v6.17h3.48v10.24c0 0-3.48 0-3.48-0.01z"/></clipPath><clipPath clipPathUnits="userSpaceOnUse" id="cp55"><path d="m67.94 46.99v6.17h-10.23v-6.17h-19.36v-10.23l15.48-30.32h11.81l-15.48 30.32h7.55v-6.17h10.23v6.17h3.48v10.24c0 0-3.48 0-3.48-0.01z"/></clipPath><clipPath clipPathUnits="userSpaceOnUse" id="cp56"><path d="m67.94 46.99v6.17h-10.23v-6.17h-19.36v-10.23l15.48-30.32h11.81l-15.48 30.32h7.55v-6.17h10.23v6.17h3.48v10.24c0 0-3.48 0-3.48-0.01z"/></clipPath><clipPath clipPathUnits="userSpaceOnUse" id="cp57"><path d="m67.94 46.99v6.17h-10.23v-6.17h-19.36v-10.23l15.48-30.32h11.81l-15.48 30.32h7.55v-6.17h10.23v6.17h3.48v10.24c0 0-3.48 0-3.48-0.01z"/></clipPath><clipPath clipPathUnits="userSpaceOnUse" id="cp58"><path d="m67.94 46.99v6.17h-10.23v-6.17h-19.36v-10.23l15.48-30.32h11.81l-15.48 30.32h7.55v-6.17h10.23v6.17h3.48v10.24c0 0-3.48 0-3.48-0.01z"/></clipPath><clipPath clipPathUnits="userSpaceOnUse" id="cp59"><path d="m67.94 46.99v6.17h-10.23v-6.17h-19.36v-10.23l15.48-30.32h11.81l-15.48 30.32h7.55v-6.17h10.23v6.17h3.48v10.24c0 0-3.48 0-3.48-0.01z"/></clipPath><clipPath clipPathUnits="userSpaceOnUse" id="cp60"><path d="m67.94 46.99v6.17h-10.23v-6.17h-19.36v-10.23l15.48-30.32h11.81l-15.48 30.32h7.55v-6.17h10.23v6.17h3.48v10.24c0 0-3.48 0-3.48-0.01z"/></clipPath><clipPath clipPathUnits="userSpaceOnUse" id="cp61"><path d="m67.94 46.99v6.17h-10.23v-6.17h-19.36v-10.23l15.48-30.32h11.81l-15.48 30.32h7.55v-6.17h10.23v6.17h3.48v10.24c0 0-3.48 0-3.48-0.01z"/></clipPath><clipPath clipPathUnits="userSpaceOnUse" id="cp62"><path d="m67.94 46.99v6.17h-10.23v-6.17h-19.36v-10.23l15.48-30.32h11.81l-15.48 30.32h7.55v-6.17h10.23v6.17h3.48v10.24c0 0-3.48 0-3.48-0.01z"/></clipPath><clipPath clipPathUnits="userSpaceOnUse" id="cp63"><path d="m67.94 46.99v6.17h-10.23v-6.17h-19.36v-10.23l15.48-30.32h11.81l-15.48 30.32h7.55v-6.17h10.23v6.17h3.48v10.24c0 0-3.48 0-3.48-0.01z"/></clipPath><clipPath clipPathUnits="userSpaceOnUse" id="cp64"><path d="m82.51 53.36v-9.71l16.93-18.37c1.77-1.97 2.36-3.15 2.36-4.92 0-2.76-1.57-4.4-4.2-4.4-2.82 0-4.2 1.45-4.33 4.53h-10.76c0.13-2.89 0.33-4.07 1.05-5.77 2.23-5.32 7.48-8.47 14.11-8.47 8.86 0 14.89 5.64 14.89 14.04 0 4.33-1.18 6.69-5.77 11.55l-11.16 11.81h16.93v9.71z"/></clipPath><clipPath clipPathUnits="userSpaceOnUse" id="cp65"><path d="m82.51 53.36v-9.71l16.93-18.37c1.77-1.97 2.36-3.15 2.36-4.92 0-2.76-1.57-4.4-4.2-4.4-2.82 0-4.2 1.45-4.33 4.53h-10.76c0.13-2.89 0.33-4.07 1.05-5.77 2.23-5.32 7.48-8.47 14.11-8.47 8.86 0 14.89 5.64 14.89 14.04 0 4.33-1.18 6.69-5.77 11.55l-11.16 11.81h16.93v9.71z"/></clipPath><clipPath clipPathUnits="userSpaceOnUse" id="cp66"><path d="m82.51 53.36v-9.71l16.93-18.37c1.77-1.97 2.36-3.15 2.36-4.92 0-2.76-1.57-4.4-4.2-4.4-2.82 0-4.2 1.45-4.33 4.53h-10.76c0.13-2.89 0.33-4.07 1.05-5.77 2.23-5.32 7.48-8.47 14.11-8.47 8.86 0 14.89 5.64 14.89 14.04 0 4.33-1.18 6.69-5.77 11.55l-11.16 11.81h16.93v9.71z"/></clipPath><clipPath clipPathUnits="userSpaceOnUse" id="cp67"><path d="m82.51 53.36v-9.71l16.93-18.37c1.77-1.97 2.36-3.15 2.36-4.92 0-2.76-1.57-4.4-4.2-4.4-2.82 0-4.2 1.45-4.33 4.53h-10.76c0.13-2.89 0.33-4.07 1.05-5.77 2.23-5.32 7.48-8.47 14.11-8.47 8.86 0 14.89 5.64 14.89 14.04 0 4.33-1.18 6.69-5.77 11.55l-11.16 11.81h16.93v9.71z"/></clipPath><clipPath clipPathUnits="userSpaceOnUse" id="cp68"><path d="m82.51 53.36v-9.71l16.93-18.37c1.77-1.97 2.36-3.15 2.36-4.92 0-2.76-1.57-4.4-4.2-4.4-2.82 0-4.2 1.45-4.33 4.53h-10.76c0.13-2.89 0.33-4.07 1.05-5.77 2.23-5.32 7.48-8.47 14.11-8.47 8.86 0 14.89 5.64 14.89 14.04 0 4.33-1.18 6.69-5.77 11.55l-11.16 11.81h16.93v9.71z"/></clipPath><clipPath clipPathUnits="userSpaceOnUse" id="cp69"><path d="m82.51 53.36v-9.71l16.93-18.37c1.77-1.97 2.36-3.15 2.36-4.92 0-2.76-1.57-4.4-4.2-4.4-2.82 0-4.2 1.45-4.33 4.53h-10.76c0.13-2.89 0.33-4.07 1.05-5.77 2.23-5.32 7.48-8.47 14.11-8.47 8.86 0 14.89 5.64 14.89 14.04 0 4.33-1.18 6.69-5.77 11.55l-11.16 11.81h16.93v9.71z"/></clipPath><clipPath clipPathUnits="userSpaceOnUse" id="cp70"><path d="m82.51 53.36v-9.71l16.93-18.37c1.77-1.97 2.36-3.15 2.36-4.92 0-2.76-1.57-4.4-4.2-4.4-2.82 0-4.2 1.45-4.33 4.53h-10.76c0.13-2.89 0.33-4.07 1.05-5.77 2.23-5.32 7.48-8.47 14.11-8.47 8.86 0 14.89 5.64 14.89 14.04 0 4.33-1.18 6.69-5.77 11.55l-11.16 11.81h16.93v9.71z"/></clipPath><clipPath clipPathUnits="userSpaceOnUse" id="cp71"><path d="m82.51 53.36v-9.71l16.93-18.37c1.77-1.97 2.36-3.15 2.36-4.92 0-2.76-1.57-4.4-4.2-4.4-2.82 0-4.2 1.45-4.33 4.53h-10.76c0.13-2.89 0.33-4.07 1.05-5.77 2.23-5.32 7.48-8.47 14.11-8.47 8.86 0 14.89 5.64 14.89 14.04 0 4.33-1.18 6.69-5.77 11.55l-11.16 11.81h16.93v9.71z"/></clipPath><clipPath clipPathUnits="userSpaceOnUse" id="cp72"><path d="m82.51 53.36v-9.71l16.93-18.37c1.77-1.97 2.36-3.15 2.36-4.92 0-2.76-1.57-4.4-4.2-4.4-2.82 0-4.2 1.45-4.33 4.53h-10.76c0.13-2.89 0.33-4.07 1.05-5.77 2.23-5.32 7.48-8.47 14.11-8.47 8.86 0 14.89 5.64 14.89 14.04 0 4.33-1.18 6.69-5.77 11.55l-11.16 11.81h16.93v9.71z"/></clipPath><clipPath clipPathUnits="userSpaceOnUse" id="cp73"><path d="m82.51 53.36v-9.71l16.93-18.37c1.77-1.97 2.36-3.15 2.36-4.92 0-2.76-1.57-4.4-4.2-4.4-2.82 0-4.2 1.45-4.33 4.53h-10.76c0.13-2.89 0.33-4.07 1.05-5.77 2.23-5.32 7.48-8.47 14.11-8.47 8.86 0 14.89 5.64 14.89 14.04 0 4.33-1.18 6.69-5.77 11.55l-11.16 11.81h16.93v9.71z"/></clipPath><clipPath clipPathUnits="userSpaceOnUse" id="cp74"><path d="m82.51 53.36v-9.71l16.93-18.37c1.77-1.97 2.36-3.15 2.36-4.92 0-2.76-1.57-4.4-4.2-4.4-2.82 0-4.2 1.45-4.33 4.53h-10.76c0.13-2.89 0.33-4.07 1.05-5.77 2.23-5.32 7.48-8.47 14.11-8.47 8.86 0 14.89 5.64 14.89 14.04 0 4.33-1.18 6.69-5.77 11.55l-11.16 11.81h16.93v9.71z"/></clipPath><clipPath clipPathUnits="userSpaceOnUse" id="cp75"><path d="m82.51 53.36v-9.71l16.93-18.37c1.77-1.97 2.36-3.15 2.36-4.92 0-2.76-1.57-4.4-4.2-4.4-2.82 0-4.2 1.45-4.33 4.53h-10.76c0.13-2.89 0.33-4.07 1.05-5.77 2.23-5.32 7.48-8.47 14.11-8.47 8.86 0 14.89 5.64 14.89 14.04 0 4.33-1.18 6.69-5.77 11.55l-11.16 11.81h16.93v9.71z"/></clipPath><clipPath clipPathUnits="userSpaceOnUse" id="cp76"><path d="m82.51 53.36v-9.71l16.93-18.37c1.77-1.97 2.36-3.15 2.36-4.92 0-2.76-1.57-4.4-4.2-4.4-2.82 0-4.2 1.45-4.33 4.53h-10.76c0.13-2.89 0.33-4.07 1.05-5.77 2.23-5.32 7.48-8.47 14.11-8.47 8.86 0 14.89 5.64 14.89 14.04 0 4.33-1.18 6.69-5.77 11.55l-11.16 11.81h16.93v9.71z"/></clipPath><clipPath clipPathUnits="userSpaceOnUse" id="cp77"><path d="m82.51 53.36v-9.71l16.93-18.37c1.77-1.97 2.36-3.15 2.36-4.92 0-2.76-1.57-4.4-4.2-4.4-2.82 0-4.2 1.45-4.33 4.53h-10.76c0.13-2.89 0.33-4.07 1.05-5.77 2.23-5.32 7.48-8.47 14.11-8.47 8.86 0 14.89 5.64 14.89 14.04 0 4.33-1.18 6.69-5.77 11.55l-11.16 11.81h16.93v9.71z"/></clipPath><clipPath clipPathUnits="userSpaceOnUse" id="cp78"><path d="m82.51 53.36v-9.71l16.93-18.37c1.77-1.97 2.36-3.15 2.36-4.92 0-2.76-1.57-4.4-4.2-4.4-2.82 0-4.2 1.45-4.33 4.53h-10.76c0.13-2.89 0.33-4.07 1.05-5.77 2.23-5.32 7.48-8.47 14.11-8.47 8.86 0 14.89 5.64 14.89 14.04 0 4.33-1.18 6.69-5.77 11.55l-11.16 11.81h16.93v9.71z"/></clipPath><clipPath clipPathUnits="userSpaceOnUse" id="cp79"><path d="m82.51 53.36v-9.71l16.93-18.37c1.77-1.97 2.36-3.15 2.36-4.92 0-2.76-1.57-4.4-4.2-4.4-2.82 0-4.2 1.45-4.33 4.53h-10.76c0.13-2.89 0.33-4.07 1.05-5.77 2.23-5.32 7.48-8.47 14.11-8.47 8.86 0 14.89 5.64 14.89 14.04 0 4.33-1.18 6.69-5.77 11.55l-11.16 11.81h16.93v9.71z"/></clipPath><clipPath clipPathUnits="userSpaceOnUse" id="cp80"><path d="m82.51 53.36v-9.71l16.93-18.37c1.77-1.97 2.36-3.15 2.36-4.92 0-2.76-1.57-4.4-4.2-4.4-2.82 0-4.2 1.45-4.33 4.53h-10.76c0.13-2.89 0.33-4.07 1.05-5.77 2.23-5.32 7.48-8.47 14.11-8.47 8.86 0 14.89 5.64 14.89 14.04 0 4.33-1.18 6.69-5.77 11.55l-11.16 11.81h16.93v9.71z"/></clipPath><clipPath clipPathUnits="userSpaceOnUse" id="cp81"><path d="m82.51 53.36v-9.71l16.93-18.37c1.77-1.97 2.36-3.15 2.36-4.92 0-2.76-1.57-4.4-4.2-4.4-2.82 0-4.2 1.45-4.33 4.53h-10.76c0.13-2.89 0.33-4.07 1.05-5.77 2.23-5.32 7.48-8.47 14.11-8.47 8.86 0 14.89 5.64 14.89 14.04 0 4.33-1.18 6.69-5.77 11.55l-11.16 11.81h16.93v9.71z"/></clipPath><clipPath clipPathUnits="userSpaceOnUse" id="cp82"><path d="m82.51 53.36v-9.71l16.93-18.37c1.77-1.97 2.36-3.15 2.36-4.92 0-2.76-1.57-4.4-4.2-4.4-2.82 0-4.2 1.45-4.33 4.53h-10.76c0.13-2.89 0.33-4.07 1.05-5.77 2.23-5.32 7.48-8.47 14.11-8.47 8.86 0 14.89 5.64 14.89 14.04 0 4.33-1.18 6.69-5.77 11.55l-11.16 11.81h16.93v9.71z"/></clipPath><clipPath clipPathUnits="userSpaceOnUse" id="cp83"><path d="m82.51 53.36v-9.71l16.93-18.37c1.77-1.97 2.36-3.15 2.36-4.92 0-2.76-1.57-4.4-4.2-4.4-2.82 0-4.2 1.45-4.33 4.53h-10.76c0.13-2.89 0.33-4.07 1.05-5.77 2.23-5.32 7.48-8.47 14.11-8.47 8.86 0 14.89 5.64 14.89 14.04 0 4.33-1.18 6.69-5.77 11.55l-11.16 11.81h16.93v9.71z"/></clipPath><clipPath clipPathUnits="userSpaceOnUse" id="cp84"><path d="m82.51 53.36v-9.71l16.93-18.37c1.77-1.97 2.36-3.15 2.36-4.92 0-2.76-1.57-4.4-4.2-4.4-2.82 0-4.2 1.45-4.33 4.53h-10.76c0.13-2.89 0.33-4.07 1.05-5.77 2.23-5.32 7.48-8.47 14.11-8.47 8.86 0 14.89 5.64 14.89 14.04 0 4.33-1.18 6.69-5.77 11.55l-11.16 11.81h16.93v9.71z"/></clipPath><clipPath clipPathUnits="userSpaceOnUse" id="cp85"><path d="m82.51 53.36v-9.71l16.93-18.37c1.77-1.97 2.36-3.15 2.36-4.92 0-2.76-1.57-4.4-4.2-4.4-2.82 0-4.2 1.45-4.33 4.53h-10.76c0.13-2.89 0.33-4.07 1.05-5.77 2.23-5.32 7.48-8.47 14.11-8.47 8.86 0 14.89 5.64 14.89 14.04 0 4.33-1.18 6.69-5.77 11.55l-11.16 11.81h16.93v9.71z"/></clipPath><clipPath clipPathUnits="userSpaceOnUse" id="cp86"><path d="m82.51 53.36v-9.71l16.93-18.37c1.77-1.97 2.36-3.15 2.36-4.92 0-2.76-1.57-4.4-4.2-4.4-2.82 0-4.2 1.45-4.33 4.53h-10.76c0.13-2.89 0.33-4.07 1.05-5.77 2.23-5.32 7.48-8.47 14.11-8.47 8.86 0 14.89 5.64 14.89 14.04 0 4.33-1.18 6.69-5.77 11.55l-11.16 11.81h16.93v9.71z"/></clipPath><clipPath clipPathUnits="userSpaceOnUse" id="cp87"><path d="m82.51 53.36v-9.71l16.93-18.37c1.77-1.97 2.36-3.15 2.36-4.92 0-2.76-1.57-4.4-4.2-4.4-2.82 0-4.2 1.45-4.33 4.53h-10.76c0.13-2.89 0.33-4.07 1.05-5.77 2.23-5.32 7.48-8.47 14.11-8.47 8.86 0 14.89 5.64 14.89 14.04 0 4.33-1.18 6.69-5.77 11.55l-11.16 11.81h16.93v9.71z"/></clipPath><clipPath clipPathUnits="userSpaceOnUse" id="cp88"><path d="m82.51 53.36v-9.71l16.93-18.37c1.77-1.97 2.36-3.15 2.36-4.92 0-2.76-1.57-4.4-4.2-4.4-2.82 0-4.2 1.45-4.33 4.53h-10.76c0.13-2.89 0.33-4.07 1.05-5.77 2.23-5.32 7.48-8.47 14.11-8.47 8.86 0 14.89 5.64 14.89 14.04 0 4.33-1.18 6.69-5.77 11.55l-11.16 11.81h16.93v9.71z"/></clipPath><clipPath clipPathUnits="userSpaceOnUse" id="cp89"><path d="m82.51 53.36v-9.71l16.93-18.37c1.77-1.97 2.36-3.15 2.36-4.92 0-2.76-1.57-4.4-4.2-4.4-2.82 0-4.2 1.45-4.33 4.53h-10.76c0.13-2.89 0.33-4.07 1.05-5.77 2.23-5.32 7.48-8.47 14.11-8.47 8.86 0 14.89 5.64 14.89 14.04 0 4.33-1.18 6.69-5.77 11.55l-11.16 11.81h16.93v9.71z"/></clipPath><clipPath clipPathUnits="userSpaceOnUse" id="cp90"><path d="m82.51 53.36v-9.71l16.93-18.37c1.77-1.97 2.36-3.15 2.36-4.92 0-2.76-1.57-4.4-4.2-4.4-2.82 0-4.2 1.45-4.33 4.53h-10.76c0.13-2.89 0.33-4.07 1.05-5.77 2.23-5.32 7.48-8.47 14.11-8.47 8.86 0 14.89 5.64 14.89 14.04 0 4.33-1.18 6.69-5.77 11.55l-11.16 11.81h16.93v9.71z"/></clipPath><clipPath clipPathUnits="userSpaceOnUse" id="cp91"><path d="m82.51 53.36v-9.71l16.93-18.37c1.77-1.97 2.36-3.15 2.36-4.92 0-2.76-1.57-4.4-4.2-4.4-2.82 0-4.2 1.45-4.33 4.53h-10.76c0.13-2.89 0.33-4.07 1.05-5.77 2.23-5.32 7.48-8.47 14.11-8.47 8.86 0 14.89 5.64 14.89 14.04 0 4.33-1.18 6.69-5.77 11.55l-11.16 11.81h16.93v9.71z"/></clipPath><clipPath clipPathUnits="userSpaceOnUse" id="cp92"><path d="m82.51 53.36v-9.71l16.93-18.37c1.77-1.97 2.36-3.15 2.36-4.92 0-2.76-1.57-4.4-4.2-4.4-2.82 0-4.2 1.45-4.33 4.53h-10.76c0.13-2.89 0.33-4.07 1.05-5.77 2.23-5.32 7.48-8.47 14.11-8.47 8.86 0 14.89 5.64 14.89 14.04 0 4.33-1.18 6.69-5.77 11.55l-11.16 11.81h16.93v9.71z"/></clipPath><clipPath clipPathUnits="userSpaceOnUse" id="cp93"><path d="m82.51 53.36v-9.71l16.93-18.37c1.77-1.97 2.36-3.15 2.36-4.92 0-2.76-1.57-4.4-4.2-4.4-2.82 0-4.2 1.45-4.33 4.53h-10.76c0.13-2.89 0.33-4.07 1.05-5.77 2.23-5.32 7.48-8.47 14.11-8.47 8.86 0 14.89 5.64 14.89 14.04 0 4.33-1.18 6.69-5.77 11.55l-11.16 11.81h16.93v9.71z"/></clipPath><clipPath clipPathUnits="userSpaceOnUse" id="cp94"><path d="m82.51 53.36v-9.71l16.93-18.37c1.77-1.97 2.36-3.15 2.36-4.92 0-2.76-1.57-4.4-4.2-4.4-2.82 0-4.2 1.45-4.33 4.53h-10.76c0.13-2.89 0.33-4.07 1.05-5.77 2.23-5.32 7.48-8.47 14.11-8.47 8.86 0 14.89 5.64 14.89 14.04 0 4.33-1.18 6.69-5.77 11.55l-11.16 11.81h16.93v9.71z"/></clipPath><clipPath clipPathUnits="userSpaceOnUse" id="cp95"><path d="m82.51 53.36v-9.71l16.93-18.37c1.77-1.97 2.36-3.15 2.36-4.92 0-2.76-1.57-4.4-4.2-4.4-2.82 0-4.2 1.45-4.33 4.53h-10.76c0.13-2.89 0.33-4.07 1.05-5.77 2.23-5.32 7.48-8.47 14.11-8.47 8.86 0 14.89 5.64 14.89 14.04 0 4.33-1.18 6.69-5.77 11.55l-11.16 11.81h16.93v9.71z"/></clipPath><clipPath clipPathUnits="userSpaceOnUse" id="cp96"><path d="m82.51 53.36v-9.71l16.93-18.37c1.77-1.97 2.36-3.15 2.36-4.92 0-2.76-1.57-4.4-4.2-4.4-2.82 0-4.2 1.45-4.33 4.53h-10.76c0.13-2.89 0.33-4.07 1.05-5.77 2.23-5.32 7.48-8.47 14.11-8.47 8.86 0 14.89 5.64 14.89 14.04 0 4.33-1.18 6.69-5.77 11.55l-11.16 11.81h16.93v9.71z"/></clipPath><clipPath clipPathUnits="userSpaceOnUse" id="cp97"><path d="m82.51 53.36v-9.71l16.93-18.37c1.77-1.97 2.36-3.15 2.36-4.92 0-2.76-1.57-4.4-4.2-4.4-2.82 0-4.2 1.45-4.33 4.53h-10.76c0.13-2.89 0.33-4.07 1.05-5.77 2.23-5.32 7.48-8.47 14.11-8.47 8.86 0 14.89 5.64 14.89 14.04 0 4.33-1.18 6.69-5.77 11.55l-11.16 11.81h16.93v9.71z"/></clipPath><clipPath clipPathUnits="userSpaceOnUse" id="cp98"><path d="m82.51 53.36v-9.71l16.93-18.37c1.77-1.97 2.36-3.15 2.36-4.92 0-2.76-1.57-4.4-4.2-4.4-2.82 0-4.2 1.45-4.33 4.53h-10.76c0.13-2.89 0.33-4.07 1.05-5.77 2.23-5.32 7.48-8.47 14.11-8.47 8.86 0 14.89 5.64 14.89 14.04 0 4.33-1.18 6.69-5.77 11.55l-11.16 11.81h16.93v9.71z"/></clipPath><clipPath clipPathUnits="userSpaceOnUse" id="cp99"><path d="m82.51 53.36v-9.71l16.93-18.37c1.77-1.97 2.36-3.15 2.36-4.92 0-2.76-1.57-4.4-4.2-4.4-2.82 0-4.2 1.45-4.33 4.53h-10.76c0.13-2.89 0.33-4.07 1.05-5.77 2.23-5.32 7.48-8.47 14.11-8.47 8.86 0 14.89 5.64 14.89 14.04 0 4.33-1.18 6.69-5.77 11.55l-11.16 11.81h16.93v9.71z"/></clipPath><clipPath clipPathUnits="userSpaceOnUse" id="cp100"><path d="m82.51 53.36v-9.71l16.93-18.37c1.77-1.97 2.36-3.15 2.36-4.92 0-2.76-1.57-4.4-4.2-4.4-2.82 0-4.2 1.45-4.33 4.53h-10.76c0.13-2.89 0.33-4.07 1.05-5.77 2.23-5.32 7.48-8.47 14.11-8.47 8.86 0 14.89 5.64 14.89 14.04 0 4.33-1.18 6.69-5.77 11.55l-11.16 11.81h16.93v9.71z"/></clipPath><clipPath clipPathUnits="userSpaceOnUse" id="cp101"><path d="m82.51 53.36v-9.71l16.93-18.37c1.77-1.97 2.36-3.15 2.36-4.92 0-2.76-1.57-4.4-4.2-4.4-2.82 0-4.2 1.45-4.33 4.53h-10.76c0.13-2.89 0.33-4.07 1.05-5.77 2.23-5.32 7.48-8.47 14.11-8.47 8.86 0 14.89 5.64 14.89 14.04 0 4.33-1.18 6.69-5.77 11.55l-11.16 11.81h16.93v9.71z"/></clipPath><clipPath clipPathUnits="userSpaceOnUse" id="cp102"><path d="m82.51 53.36v-9.71l16.93-18.37c1.77-1.97 2.36-3.15 2.36-4.92 0-2.76-1.57-4.4-4.2-4.4-2.82 0-4.2 1.45-4.33 4.53h-10.76c0.13-2.89 0.33-4.07 1.05-5.77 2.23-5.32 7.48-8.47 14.11-8.47 8.86 0 14.89 5.64 14.89 14.04 0 4.33-1.18 6.69-5.77 11.55l-11.16 11.81h16.93v9.71z"/></clipPath><clipPath clipPathUnits="userSpaceOnUse" id="cp103"><path d="m82.51 53.36v-9.71l16.93-18.37c1.77-1.97 2.36-3.15 2.36-4.92 0-2.76-1.57-4.4-4.2-4.4-2.82 0-4.2 1.45-4.33 4.53h-10.76c0.13-2.89 0.33-4.07 1.05-5.77 2.23-5.32 7.48-8.47 14.11-8.47 8.86 0 14.89 5.64 14.89 14.04 0 4.33-1.18 6.69-5.77 11.55l-11.16 11.81h16.93v9.71z"/></clipPath><clipPath clipPathUnits="userSpaceOnUse" id="cp104"><path d="m82.51 53.36v-9.71l16.93-18.37c1.77-1.97 2.36-3.15 2.36-4.92 0-2.76-1.57-4.4-4.2-4.4-2.82 0-4.2 1.45-4.33 4.53h-10.76c0.13-2.89 0.33-4.07 1.05-5.77 2.23-5.32 7.48-8.47 14.11-8.47 8.86 0 14.89 5.64 14.89 14.04 0 4.33-1.18 6.69-5.77 11.55l-11.16 11.81h16.93v9.71z"/></clipPath><clipPath clipPathUnits="userSpaceOnUse" id="cp105"><path d="m82.51 53.36v-9.71l16.93-18.37c1.77-1.97 2.36-3.15 2.36-4.92 0-2.76-1.57-4.4-4.2-4.4-2.82 0-4.2 1.45-4.33 4.53h-10.76c0.13-2.89 0.33-4.07 1.05-5.77 2.23-5.32 7.48-8.47 14.11-8.47 8.86 0 14.89 5.64 14.89 14.04 0 4.33-1.18 6.69-5.77 11.55l-11.16 11.81h16.93v9.71z"/></clipPath><clipPath clipPathUnits="userSpaceOnUse" id="cp106"><path d="m82.51 53.36v-9.71l16.93-18.37c1.77-1.97 2.36-3.15 2.36-4.92 0-2.76-1.57-4.4-4.2-4.4-2.82 0-4.2 1.45-4.33 4.53h-10.76c0.13-2.89 0.33-4.07 1.05-5.77 2.23-5.32 7.48-8.47 14.11-8.47 8.86 0 14.89 5.64 14.89 14.04 0 4.33-1.18 6.69-5.77 11.55l-11.16 11.81h16.93v9.71z"/></clipPath><clipPath clipPathUnits="userSpaceOnUse" id="cp107"><path d="m82.51 53.36v-9.71l16.93-18.37c1.77-1.97 2.36-3.15 2.36-4.92 0-2.76-1.57-4.4-4.2-4.4-2.82 0-4.2 1.45-4.33 4.53h-10.76c0.13-2.89 0.33-4.07 1.05-5.77 2.23-5.32 7.48-8.47 14.11-8.47 8.86 0 14.89 5.64 14.89 14.04 0 4.33-1.18 6.69-5.77 11.55l-11.16 11.81h16.93v9.71z"/></clipPath><clipPath clipPathUnits="userSpaceOnUse" id="cp108"><path d="m82.51 53.36v-9.71l16.93-18.37c1.77-1.97 2.36-3.15 2.36-4.92 0-2.76-1.57-4.4-4.2-4.4-2.82 0-4.2 1.45-4.33 4.53h-10.76c0.13-2.89 0.33-4.07 1.05-5.77 2.23-5.32 7.48-8.47 14.11-8.47 8.86 0 14.89 5.64 14.89 14.04 0 4.33-1.18 6.69-5.77 11.55l-11.16 11.81h16.93v9.71z"/></clipPath><clipPath clipPathUnits="userSpaceOnUse" id="cp109"><path d="m82.51 53.36v-9.71l16.93-18.37c1.77-1.97 2.36-3.15 2.36-4.92 0-2.76-1.57-4.4-4.2-4.4-2.82 0-4.2 1.45-4.33 4.53h-10.76c0.13-2.89 0.33-4.07 1.05-5.77 2.23-5.32 7.48-8.47 14.11-8.47 8.86 0 14.89 5.64 14.89 14.04 0 4.33-1.18 6.69-5.77 11.55l-11.16 11.81h16.93v9.71z"/></clipPath><clipPath clipPathUnits="userSpaceOnUse" id="cp110"><path d="m82.51 53.36v-9.71l16.93-18.37c1.77-1.97 2.36-3.15 2.36-4.92 0-2.76-1.57-4.4-4.2-4.4-2.82 0-4.2 1.45-4.33 4.53h-10.76c0.13-2.89 0.33-4.07 1.05-5.77 2.23-5.32 7.48-8.47 14.11-8.47 8.86 0 14.89 5.64 14.89 14.04 0 4.33-1.18 6.69-5.77 11.55l-11.16 11.81h16.93v9.71z"/></clipPath><clipPath clipPathUnits="userSpaceOnUse" id="cp111"><path d="m82.51 53.36v-9.71l16.93-18.37c1.77-1.97 2.36-3.15 2.36-4.92 0-2.76-1.57-4.4-4.2-4.4-2.82 0-4.2 1.45-4.33 4.53h-10.76c0.13-2.89 0.33-4.07 1.05-5.77 2.23-5.32 7.48-8.47 14.11-8.47 8.86 0 14.89 5.64 14.89 14.04 0 4.33-1.18 6.69-5.77 11.55l-11.16 11.81h16.93v9.71z"/></clipPath><clipPath clipPathUnits="userSpaceOnUse" id="cp112"><path d="m82.51 53.36v-9.71l16.93-18.37c1.77-1.97 2.36-3.15 2.36-4.92 0-2.76-1.57-4.4-4.2-4.4-2.82 0-4.2 1.45-4.33 4.53h-10.76c0.13-2.89 0.33-4.07 1.05-5.77 2.23-5.32 7.48-8.47 14.11-8.47 8.86 0 14.89 5.64 14.89 14.04 0 4.33-1.18 6.69-5.77 11.55l-11.16 11.81h16.93v9.71z"/></clipPath><clipPath clipPathUnits="userSpaceOnUse" id="cp113"><path d="m82.51 53.36v-9.71l16.93-18.37c1.77-1.97 2.36-3.15 2.36-4.92 0-2.76-1.57-4.4-4.2-4.4-2.82 0-4.2 1.45-4.33 4.53h-10.76c0.13-2.89 0.33-4.07 1.05-5.77 2.23-5.32 7.48-8.47 14.11-8.47 8.86 0 14.89 5.64 14.89 14.04 0 4.33-1.18 6.69-5.77 11.55l-11.16 11.81h16.93v9.71z"/></clipPath><clipPath clipPathUnits="userSpaceOnUse" id="cp114"><path d="m82.51 53.36v-9.71l16.93-18.37c1.77-1.97 2.36-3.15 2.36-4.92 0-2.76-1.57-4.4-4.2-4.4-2.82 0-4.2 1.45-4.33 4.53h-10.76c0.13-2.89 0.33-4.07 1.05-5.77 2.23-5.32 7.48-8.47 14.11-8.47 8.86 0 14.89 5.64 14.89 14.04 0 4.33-1.18 6.69-5.77 11.55l-11.16 11.81h16.93v9.71z"/></clipPath><clipPath clipPathUnits="userSpaceOnUse" id="cp115"><path d="m82.51 53.36v-9.71l16.93-18.37c1.77-1.97 2.36-3.15 2.36-4.92 0-2.76-1.57-4.4-4.2-4.4-2.82 0-4.2 1.45-4.33 4.53h-10.76c0.13-2.89 0.33-4.07 1.05-5.77 2.23-5.32 7.48-8.47 14.11-8.47 8.86 0 14.89 5.64 14.89 14.04 0 4.33-1.18 6.69-5.77 11.55l-11.16 11.81h16.93v9.71z"/></clipPath><clipPath clipPathUnits="userSpaceOnUse" id="cp116"><path d="m82.51 53.36v-9.71l16.93-18.37c1.77-1.97 2.36-3.15 2.36-4.92 0-2.76-1.57-4.4-4.2-4.4-2.82 0-4.2 1.45-4.33 4.53h-10.76c0.13-2.89 0.33-4.07 1.05-5.77 2.23-5.32 7.48-8.47 14.11-8.47 8.86 0 14.89 5.64 14.89 14.04 0 4.33-1.18 6.69-5.77 11.55l-11.16 11.81h16.93v9.71z"/></clipPath><clipPath clipPathUnits="userSpaceOnUse" id="cp117"><path d="m82.51 53.36v-9.71l16.93-18.37c1.77-1.97 2.36-3.15 2.36-4.92 0-2.76-1.57-4.4-4.2-4.4-2.82 0-4.2 1.45-4.33 4.53h-10.76c0.13-2.89 0.33-4.07 1.05-5.77 2.23-5.32 7.48-8.47 14.11-8.47 8.86 0 14.89 5.64 14.89 14.04 0 4.33-1.18 6.69-5.77 11.55l-11.16 11.81h16.93v9.71z"/></clipPath><clipPath clipPathUnits="userSpaceOnUse" id="cp118"><path d="m82.51 53.36v-9.71l16.93-18.37c1.77-1.97 2.36-3.15 2.36-4.92 0-2.76-1.57-4.4-4.2-4.4-2.82 0-4.2 1.45-4.33 4.53h-10.76c0.13-2.89 0.33-4.07 1.05-5.77 2.23-5.32 7.48-8.47 14.11-8.47 8.86 0 14.89 5.64 14.89 14.04 0 4.33-1.18 6.69-5.77 11.55l-11.16 11.81h16.93v9.71z"/></clipPath><clipPath clipPathUnits="userSpaceOnUse" id="cp119"><path d="m82.51 53.36v-9.71l16.93-18.37c1.77-1.97 2.36-3.15 2.36-4.92 0-2.76-1.57-4.4-4.2-4.4-2.82 0-4.2 1.45-4.33 4.53h-10.76c0.13-2.89 0.33-4.07 1.05-5.77 2.23-5.32 7.48-8.47 14.11-8.47 8.86 0 14.89 5.64 14.89 14.04 0 4.33-1.18 6.69-5.77 11.55l-11.16 11.81h16.93v9.71z"/></clipPath><clipPath clipPathUnits="userSpaceOnUse" id="cp120"><path d="m82.51 53.36v-9.71l16.93-18.37c1.77-1.97 2.36-3.15 2.36-4.92 0-2.76-1.57-4.4-4.2-4.4-2.82 0-4.2 1.45-4.33 4.53h-10.76c0.13-2.89 0.33-4.07 1.05-5.77 2.23-5.32 7.48-8.47 14.11-8.47 8.86 0 14.89 5.64 14.89 14.04 0 4.33-1.18 6.69-5.77 11.55l-11.16 11.81h16.93v9.71z"/></clipPath><clipPath clipPathUnits="userSpaceOnUse" id="cp121"><path d="m82.51 53.36v-9.71l16.93-18.37c1.77-1.97 2.36-3.15 2.36-4.92 0-2.76-1.57-4.4-4.2-4.4-2.82 0-4.2 1.45-4.33 4.53h-10.76c0.13-2.89 0.33-4.07 1.05-5.77 2.23-5.32 7.48-8.47 14.11-8.47 8.86 0 14.89 5.64 14.89 14.04 0 4.33-1.18 6.69-5.77 11.55l-11.16 11.81h16.93v9.71z"/></clipPath><clipPath clipPathUnits="userSpaceOnUse" id="cp122"><path d="m82.51 53.36v-9.71l16.93-18.37c1.77-1.97 2.36-3.15 2.36-4.92 0-2.76-1.57-4.4-4.2-4.4-2.82 0-4.2 1.45-4.33 4.53h-10.76c0.13-2.89 0.33-4.07 1.05-5.77 2.23-5.32 7.48-8.47 14.11-8.47 8.86 0 14.89 5.64 14.89 14.04 0 4.33-1.18 6.69-5.77 11.55l-11.16 11.81h16.93v9.71z"/></clipPath><clipPath clipPathUnits="userSpaceOnUse" id="cp123"><path d="m82.51 53.36v-9.71l16.93-18.37c1.77-1.97 2.36-3.15 2.36-4.92 0-2.76-1.57-4.4-4.2-4.4-2.82 0-4.2 1.45-4.33 4.53h-10.76c0.13-2.89 0.33-4.07 1.05-5.77 2.23-5.32 7.48-8.47 14.11-8.47 8.86 0 14.89 5.64 14.89 14.04 0 4.33-1.18 6.69-5.77 11.55l-11.16 11.81h16.93v9.71z"/></clipPath></defs><style>.a{fill:#f3f3f5}.b{fill:#00abc8}.c{fill:#0075a3}</style><path class="a" d="m72.3 51.3v6.2h-10.3v-6.2h-19.3v-10.2l15.5-30.3h11.8l-15.5 30.3h7.5v-6.2h10.3v6.2h3.5v10.2z"/><g clip-path="url(#cp1)"><path class="b" d="m67.3 5.9h5.5v5.5h-5.5z"/><path class="b" d="m67.8 5.9c0 0.3-0.2 0.6-0.5 0.6v-0.6z"/><path class="b" d="m72.8 5.9v0.6c-0.4 0-0.6-0.3-0.6-0.6z"/><path class="b" d="m67.8 11.4h-0.5v-0.6c0.3 0 0.5 0.3 0.5 0.6z"/><path class="b" d="m72.8 10.8v0.6h-0.6c0-0.3 0.2-0.6 0.6-0.6z"/><path class="b" d="m70.6 8.6c0 0.3-0.3 0.6-0.6 0.6-0.3 0-0.5-0.3-0.5-0.6 0-0.3 0.2-0.5 0.5-0.5 0.3 0 0.6 0.2 0.6 0.5z"/></g><g clip-path="url(#cp2)"><path class="b" d="m67.3 11.4h5.5v5.5h-5.5z"/><path class="b" d="m67.8 11.4c0 0.3-0.2 0.5-0.5 0.5v-0.5z"/><path class="b" d="m72.8 11.4v0.5c-0.4 0-0.6-0.2-0.6-0.5z"/><path class="b" d="m67.8 16.9h-0.5v-0.6c0.3 0 0.5 0.2 0.5 0.6z"/><path class="b" d="m72.8 16.3v0.6h-0.6c0-0.4 0.2-0.6 0.6-0.6z"/><path class="b" d="m70.6 14.1c0 0.3-0.3 0.6-0.6 0.6-0.3 0-0.5-0.3-0.5-0.6 0-0.3 0.2-0.6 0.5-0.6 0.3 0.1 0.6 0.3 0.6 0.6z"/></g><g clip-path="url(#cp3)"><path class="b" d="m67.3 16.9h5.5v5.4h-5.5z"/><path class="b" d="m67.8 16.9c0 0.2-0.2 0.5-0.5 0.5v-0.5z"/><path class="b" d="m72.8 16.9v0.5c-0.4 0-0.6-0.3-0.6-0.5z"/><path class="b" d="m67.8 22.3h-0.5v-0.5c0.3 0 0.5 0.2 0.5 0.5z"/><path class="b" d="m72.8 21.8v0.5h-0.6c0-0.3 0.2-0.5 0.6-0.5z"/><path class="b" d="m70.6 19.6c0 0.3-0.3 0.5-0.6 0.5-0.3 0-0.5-0.2-0.5-0.5 0-0.3 0.2-0.6 0.5-0.6 0.3 0 0.6 0.3 0.6 0.6z"/></g><g clip-path="url(#cp4)"><path class="b" d="m67.3 22.3h5.5v5.5h-5.5z"/><path class="b" d="m67.8 22.3c0 0.3-0.2 0.6-0.5 0.6v-0.6z"/><path class="b" d="m72.8 22.3v0.6c-0.4 0-0.6-0.3-0.6-0.6z"/><path class="b" d="m67.8 27.8h-0.5v-0.6c0.3 0 0.5 0.3 0.5 0.6z"/><path class="b" d="m72.8 27.3v0.5h-0.6c0-0.3 0.2-0.6 0.6-0.6z"/><path class="b" d="m70.6 25c0 0.3-0.3 0.6-0.6 0.6-0.3 0-0.5-0.2-0.5-0.6 0-0.3 0.2-0.5 0.5-0.5 0.3 0 0.6 0.2 0.6 0.5z"/></g><g clip-path="url(#cp5)"><path class="b" d="m67.3 27.8h5.5v5.5h-5.5z"/><path class="b" d="m67.8 27.8c0 0.3-0.2 0.5-0.5 0.5v-0.5z"/><path class="b" d="m72.8 27.8v0.5c-0.4 0-0.6-0.2-0.6-0.5z"/><path class="b" d="m67.8 33.3h-0.5v-0.6c0.3 0 0.5 0.2 0.5 0.6z"/><path class="b" d="m72.8 32.7v0.6h-0.6c0-0.4 0.2-0.6 0.6-0.6z"/><path class="b" d="m70.6 30.5c0 0.3-0.3 0.6-0.6 0.6-0.3 0-0.5-0.3-0.5-0.6 0-0.3 0.2-0.5 0.5-0.5 0.3 0 0.6 0.2 0.6 0.5z"/></g><g clip-path="url(#cp6)"><path class="b" d="m67.3 33.3h5.5v5.4h-5.5z"/><path class="b" d="m67.8 33.3c0 0.2-0.2 0.5-0.5 0.5v-0.5z"/><path class="b" d="m72.8 33.3v0.5c-0.4 0-0.6-0.3-0.6-0.5z"/><path class="b" d="m67.8 38.7h-0.5v-0.5c0.3 0 0.5 0.2 0.5 0.5z"/><path class="b" d="m72.8 38.2v0.5h-0.6c0-0.3 0.2-0.5 0.6-0.5z"/><path class="b" d="m70.6 36c0 0.3-0.3 0.5-0.6 0.5-0.3 0-0.5-0.2-0.5-0.5 0-0.3 0.2-0.6 0.5-0.6 0.3 0 0.6 0.3 0.6 0.6z"/></g><g clip-path="url(#cp7)"><path class="b" d="m67.3 38.7h5.5v5.5h-5.5z"/><path class="b" d="m67.8 38.7c0 0.3-0.2 0.6-0.5 0.6v-0.6z"/><path class="b" d="m72.8 38.7v0.6c-0.4 0-0.6-0.3-0.6-0.6z"/><path class="b" d="m67.8 44.2h-0.5v-0.5c0.3 0 0.5 0.2 0.5 0.5z"/><path class="b" d="m72.8 43.7v0.5h-0.6c0-0.3 0.2-0.5 0.6-0.5z"/><path class="b" d="m70.6 41.5c0 0.3-0.3 0.5-0.6 0.5-0.3 0-0.5-0.2-0.5-0.5 0-0.3 0.2-0.6 0.5-0.6 0.3 0 0.6 0.3 0.6 0.6z"/></g><g clip-path="url(#cp8)"><path class="b" d="m67.3 44.2h5.5v5.5h-5.5z"/><path class="b" d="m67.8 44.2c0 0.3-0.2 0.6-0.5 0.6v-0.6z"/><path class="b" d="m72.8 44.2v0.6c-0.4 0-0.6-0.3-0.6-0.6z"/><path class="b" d="m67.8 49.7h-0.5v-0.6c0.3 0 0.5 0.2 0.5 0.6z"/><path class="b" d="m72.8 49.1v0.6h-0.6c0-0.3 0.2-0.6 0.6-0.6z"/><path class="b" d="m70.6 46.9c0 0.3-0.3 0.6-0.6 0.6-0.3 0-0.5-0.3-0.5-0.6 0-0.3 0.2-0.5 0.5-0.5 0.3 0 0.6 0.2 0.6 0.5z"/></g><g clip-path="url(#cp9)"><path class="b" d="m67.3 49.7h5.5v5.4h-5.5z"/><path class="b" d="m67.8 49.7c0 0.3-0.2 0.5-0.5 0.5v-0.5z"/><path class="b" d="m72.8 49.7v0.5c-0.4 0-0.6-0.2-0.6-0.5z"/><path class="b" d="m67.8 55.1h-0.5v-0.5c0.3 0 0.5 0.2 0.5 0.5z"/><path class="b" d="m72.8 54.6v0.5h-0.6c0-0.3 0.2-0.5 0.6-0.5z"/><path class="b" d="m70.6 52.4c0 0.3-0.3 0.5-0.6 0.5-0.3 0-0.5-0.2-0.5-0.5 0-0.3 0.2-0.5 0.5-0.5 0.3 0 0.6 0.2 0.6 0.5z"/></g><g clip-path="url(#cp10)"><path class="b" d="m61.8 5.9h5.5v5.5h-5.5z"/><path class="b" d="m62.4 5.9c0 0.3-0.3 0.6-0.6 0.6v-0.6z"/><path class="b" d="m67.3 5.9v0.6c-0.3 0-0.5-0.3-0.5-0.6z"/><path class="b" d="m62.4 11.4h-0.6v-0.6c0.3 0 0.6 0.3 0.6 0.6z"/><path class="b" d="m67.3 10.8v0.6h-0.5c0-0.3 0.2-0.6 0.5-0.6z"/><path class="b" d="m64.5 9.2c-0.3 0-0.5-0.3-0.5-0.6 0-0.3 0.2-0.5 0.5-0.5 0.4 0 0.6 0.2 0.6 0.5 0 0.3-0.2 0.6-0.6 0.6z"/></g><g clip-path="url(#cp11)"><path class="b" d="m61.8 11.4h5.5v5.5h-5.5z"/><path class="b" d="m62.4 11.4c0 0.3-0.3 0.5-0.6 0.5v-0.5z"/><path class="b" d="m67.3 11.4v0.5c-0.3 0-0.5-0.2-0.5-0.5z"/><path class="b" d="m62.4 16.9h-0.6v-0.6c0.3 0 0.6 0.2 0.6 0.6z"/><path class="b" d="m67.3 16.3v0.6h-0.5c0-0.4 0.2-0.6 0.5-0.6z"/><path class="b" d="m65.1 14.1c0 0.3-0.2 0.6-0.5 0.6-0.3 0-0.6-0.3-0.6-0.6 0-0.3 0.2-0.6 0.6-0.6 0.3 0.1 0.5 0.3 0.5 0.6z"/></g><g clip-path="url(#cp12)"><path class="b" d="m61.8 16.9h5.5v5.4h-5.5z"/><path class="b" d="m62.4 16.9c0 0.2-0.3 0.5-0.6 0.5v-0.5z"/><path class="b" d="m67.3 16.9v0.5c-0.3 0-0.5-0.3-0.5-0.5z"/><path class="b" d="m62.4 22.3h-0.6v-0.5c0.3 0 0.6 0.2 0.6 0.5z"/><path class="b" d="m67.3 21.8v0.5h-0.5c0-0.3 0.2-0.5 0.5-0.5z"/><path class="b" d="m65.1 19.6c0 0.3-0.2 0.5-0.5 0.5-0.3 0-0.6-0.2-0.6-0.5 0-0.3 0.2-0.6 0.6-0.6 0.3 0 0.5 0.3 0.5 0.6z"/></g><g clip-path="url(#cp13)"><path class="b" d="m61.8 22.3h5.5v5.5h-5.5z"/><path class="b" d="m62.4 22.3c0 0.3-0.3 0.6-0.6 0.6v-0.6z"/><path class="b" d="m67.3 22.3v0.6c-0.3 0-0.5-0.3-0.5-0.6z"/><path class="b" d="m62.4 27.8h-0.6v-0.6c0.3 0 0.6 0.3 0.6 0.6z"/><path class="b" d="m67.3 27.3v0.5h-0.5c0-0.3 0.2-0.6 0.5-0.6z"/><path class="b" d="m65.1 25c0 0.3-0.2 0.6-0.5 0.6-0.3 0-0.6-0.2-0.6-0.6 0-0.3 0.2-0.5 0.6-0.5 0.3 0 0.5 0.2 0.5 0.5z"/></g><g clip-path="url(#cp14)"><path class="b" d="m61.8 27.8h5.5v5.5h-5.5z"/><path class="b" d="m62.4 27.8c0 0.3-0.3 0.5-0.6 0.5v-0.5z"/><path class="b" d="m67.3 27.8v0.5c-0.3 0-0.5-0.2-0.5-0.5z"/><path class="b" d="m62.4 33.3h-0.6v-0.6c0.3 0 0.6 0.2 0.6 0.6z"/><path class="b" d="m67.3 32.7v0.6h-0.5c0-0.4 0.2-0.6 0.5-0.6z"/><path class="b" d="m65.1 30.5c0 0.3-0.2 0.6-0.5 0.6-0.3 0-0.6-0.3-0.6-0.6 0-0.3 0.2-0.5 0.6-0.5 0.3 0 0.5 0.2 0.5 0.5z"/></g><g clip-path="url(#cp15)"><path class="b" d="m61.8 33.3h5.5v5.4h-5.5z"/><path class="b" d="m62.4 33.3c0 0.2-0.3 0.5-0.6 0.5v-0.5z"/><path class="b" d="m67.3 33.3v0.5c-0.3 0-0.5-0.3-0.5-0.5z"/><path class="b" d="m62.4 38.7h-0.6v-0.5c0.3 0 0.6 0.2 0.6 0.5z"/><path class="b" d="m67.3 38.2v0.5h-0.5c0-0.3 0.2-0.5 0.5-0.5z"/><path class="b" d="m65.1 36c0 0.3-0.2 0.5-0.5 0.5-0.3 0-0.6-0.2-0.6-0.5 0-0.3 0.2-0.6 0.6-0.6 0.3 0 0.5 0.3 0.5 0.6z"/></g><g clip-path="url(#cp16)"><path class="b" d="m61.8 38.7h5.5v5.5h-5.5z"/><path class="b" d="m62.4 38.7c0 0.3-0.3 0.6-0.6 0.6v-0.6z"/><path class="b" d="m67.3 38.7v0.6c-0.3 0-0.5-0.3-0.5-0.6z"/><path class="b" d="m62.4 44.2h-0.6v-0.5c0.3 0 0.6 0.2 0.6 0.5z"/><path class="b" d="m67.3 43.7v0.5h-0.5c0-0.3 0.2-0.5 0.5-0.5z"/><path class="b" d="m65.1 41.5c0 0.3-0.2 0.5-0.5 0.5-0.3 0-0.6-0.2-0.6-0.5 0-0.3 0.2-0.6 0.6-0.6 0.3 0 0.5 0.3 0.5 0.6z"/></g><g clip-path="url(#cp17)"><path class="b" d="m61.8 44.2h5.5v5.5h-5.5z"/><path class="b" d="m62.4 44.2c0 0.3-0.3 0.6-0.6 0.6v-0.6z"/><path class="b" d="m67.3 44.2v0.6c-0.3 0-0.5-0.3-0.5-0.6z"/><path class="b" d="m62.4 49.7h-0.6v-0.6c0.3 0 0.6 0.2 0.6 0.6z"/><path class="b" d="m67.3 49.1v0.6h-0.5c0-0.3 0.2-0.6 0.5-0.6z"/><path class="b" d="m64.5 47.5c-0.3 0-0.5-0.3-0.5-0.6 0-0.3 0.2-0.5 0.5-0.5 0.4 0 0.6 0.2 0.6 0.5 0 0.3-0.2 0.6-0.6 0.6z"/></g><g clip-path="url(#cp18)"><path class="b" d="m61.8 49.7h5.5v5.4h-5.5z"/><path class="b" d="m62.4 49.7c0 0.3-0.3 0.5-0.6 0.5v-0.5z"/><path class="b" d="m67.3 49.7v0.5c-0.3 0-0.5-0.2-0.5-0.5z"/><path class="b" d="m62.4 55.1h-0.6v-0.5c0.3 0 0.6 0.2 0.6 0.5z"/><path class="b" d="m67.3 54.6v0.5h-0.5c0-0.3 0.2-0.5 0.5-0.5z"/><path class="b" d="m65.1 52.4c0 0.3-0.2 0.5-0.5 0.5-0.3 0-0.6-0.2-0.6-0.5 0-0.3 0.2-0.5 0.6-0.5 0.3 0 0.5 0.2 0.5 0.5z"/></g><g clip-path="url(#cp19)"><path class="b" d="m56.4 5.9h5.4v5.5h-5.4z"/><path class="b" d="m56.9 5.9c0 0.3-0.3 0.6-0.5 0.6v-0.6z"/><path class="b" d="m61.8 5.9v0.6c-0.3 0-0.5-0.3-0.5-0.6z"/><path class="b" d="m56.9 11.4h-0.5v-0.6c0.2 0 0.5 0.3 0.5 0.6z"/><path class="b" d="m61.8 10.8v0.6h-0.5c0-0.3 0.2-0.6 0.5-0.6z"/><path class="b" d="m59.6 8.6c0 0.3-0.2 0.6-0.5 0.6-0.3 0-0.6-0.3-0.6-0.6 0-0.3 0.3-0.5 0.6-0.5 0.3 0 0.5 0.2 0.5 0.5z"/></g><g clip-path="url(#cp20)"><path class="b" d="m56.4 11.4h5.4v5.5h-5.4z"/><path class="b" d="m56.9 11.4c0 0.3-0.3 0.5-0.5 0.5v-0.5z"/><path class="b" d="m61.8 11.4v0.5c-0.3 0-0.5-0.2-0.5-0.5z"/><path class="b" d="m56.9 16.9h-0.5v-0.6c0.2 0 0.5 0.2 0.5 0.6z"/><path class="b" d="m61.8 16.3v0.6h-0.5c0-0.4 0.2-0.6 0.5-0.6z"/><path class="b" d="m59.6 14.1c0 0.3-0.2 0.6-0.5 0.6-0.3 0-0.6-0.3-0.6-0.6 0-0.3 0.3-0.6 0.6-0.6 0.3 0 0.5 0.3 0.5 0.6z"/></g><g clip-path="url(#cp21)"><path class="b" d="m56.4 16.9h5.4v5.4h-5.4z"/><path class="b" d="m56.9 16.9c0 0.2-0.3 0.5-0.5 0.5v-0.5z"/><path class="b" d="m61.8 16.9v0.5c-0.3 0-0.5-0.3-0.5-0.5z"/><path class="b" d="m56.9 22.3h-0.5v-0.5c0.2 0 0.5 0.2 0.5 0.5z"/><path class="b" d="m61.8 21.8v0.5h-0.5c0-0.3 0.2-0.5 0.5-0.5z"/><path class="b" d="m59.6 19.6c0 0.3-0.2 0.5-0.5 0.5-0.3 0-0.6-0.2-0.6-0.5 0-0.3 0.3-0.6 0.6-0.6 0.3 0 0.5 0.3 0.5 0.6z"/></g><g clip-path="url(#cp22)"><path class="b" d="m56.4 22.3h5.4v5.5h-5.4z"/><path class="b" d="m56.9 22.3c0 0.3-0.3 0.6-0.5 0.6v-0.6z"/><path class="b" d="m61.8 22.3v0.6c-0.3 0-0.5-0.3-0.5-0.6z"/><path class="b" d="m56.9 27.8h-0.5v-0.6c0.2 0 0.5 0.3 0.5 0.6z"/><path class="b" d="m61.8 27.3v0.5h-0.5c0-0.3 0.2-0.6 0.5-0.6z"/><path class="b" d="m59.6 25c0 0.3-0.2 0.6-0.5 0.6-0.3 0-0.6-0.2-0.6-0.6 0-0.3 0.3-0.5 0.6-0.5 0.3 0 0.5 0.2 0.5 0.5z"/></g><g clip-path="url(#cp23)"><path class="b" d="m56.4 27.8h5.4v5.5h-5.4z"/><path class="b" d="m56.9 27.8c0 0.3-0.3 0.5-0.5 0.5v-0.5z"/><path class="b" d="m61.8 27.8v0.5c-0.3 0-0.5-0.2-0.5-0.5z"/><path class="b" d="m56.9 33.3h-0.5v-0.6c0.2 0 0.5 0.2 0.5 0.6z"/><path class="b" d="m61.8 32.7v0.6h-0.5c0-0.4 0.2-0.6 0.5-0.6z"/><path class="b" d="m59.6 30.5c0 0.3-0.2 0.6-0.5 0.6-0.3 0-0.6-0.3-0.6-0.6 0-0.3 0.3-0.5 0.6-0.5 0.3 0 0.5 0.2 0.5 0.5z"/></g><g clip-path="url(#cp24)"><path class="b" d="m56.4 33.3h5.4v5.4h-5.4z"/><path class="b" d="m56.9 33.3c0 0.2-0.3 0.5-0.5 0.5v-0.5z"/><path class="b" d="m61.8 33.3v0.5c-0.3 0-0.5-0.3-0.5-0.5z"/><path class="b" d="m56.9 38.7h-0.5v-0.5c0.2 0 0.5 0.2 0.5 0.5z"/><path class="b" d="m61.8 38.2v0.5h-0.5c0-0.3 0.2-0.5 0.5-0.5z"/><path class="b" d="m59.6 36c0 0.3-0.2 0.5-0.5 0.5-0.3 0-0.6-0.2-0.6-0.5 0-0.3 0.3-0.6 0.6-0.6 0.3 0 0.5 0.3 0.5 0.6z"/></g><g clip-path="url(#cp25)"><path class="b" d="m56.4 38.7h5.4v5.5h-5.4z"/><path class="b" d="m56.9 38.7c0 0.3-0.3 0.6-0.5 0.6v-0.6z"/><path class="b" d="m61.8 38.7v0.6c-0.3 0-0.5-0.3-0.5-0.6z"/><path class="b" d="m56.9 44.2h-0.5v-0.5c0.2 0 0.5 0.2 0.5 0.5z"/><path class="b" d="m61.8 43.7v0.5h-0.5c0-0.3 0.2-0.5 0.5-0.5z"/><path class="b" d="m59.6 41.5c0 0.3-0.2 0.5-0.5 0.5-0.3 0-0.6-0.2-0.6-0.5 0-0.3 0.3-0.6 0.6-0.6 0.3 0 0.5 0.3 0.5 0.6z"/></g><g clip-path="url(#cp26)"><path class="b" d="m56.4 44.2h5.4v5.5h-5.4z"/><path class="b" d="m56.9 44.2c0 0.3-0.3 0.6-0.5 0.6v-0.6z"/><path class="b" d="m61.8 44.2v0.6c-0.3 0-0.5-0.3-0.5-0.6z"/><path class="b" d="m56.9 49.7h-0.5v-0.6c0.2 0 0.5 0.2 0.5 0.6z"/><path class="b" d="m61.8 49.1v0.6h-0.5c0-0.3 0.2-0.6 0.5-0.6z"/><path class="b" d="m59.6 46.9c0 0.3-0.2 0.6-0.5 0.6-0.3 0-0.6-0.3-0.6-0.6 0-0.3 0.3-0.5 0.6-0.5 0.3 0 0.5 0.2 0.5 0.5z"/></g><g clip-path="url(#cp27)"><path class="b" d="m56.4 49.7h5.4v5.4h-5.4z"/><path class="b" d="m56.9 49.7c0 0.3-0.3 0.5-0.5 0.5v-0.5z"/><path class="b" d="m61.8 49.7v0.5c-0.3 0-0.5-0.2-0.5-0.5z"/><path class="b" d="m56.9 55.1h-0.5v-0.5c0.2 0 0.5 0.2 0.5 0.5z"/><path class="b" d="m61.8 54.6v0.5h-0.5c0-0.3 0.2-0.5 0.5-0.5z"/><path class="b" d="m59.6 52.4c0 0.3-0.2 0.5-0.5 0.5-0.3 0-0.6-0.2-0.6-0.5 0-0.3 0.3-0.5 0.6-0.5 0.3 0 0.5 0.2 0.5 0.5z"/></g><g clip-path="url(#cp28)"><path class="b" d="m50.9 5.9h5.5v5.5h-5.5z"/><path class="b" d="m51.4 5.9c0 0.3-0.2 0.6-0.5 0.6v-0.6z"/><path class="b" d="m56.4 5.9v0.6c-0.4 0-0.6-0.3-0.6-0.6z"/><path class="b" d="m51.4 11.4h-0.5v-0.6c0.3 0 0.5 0.3 0.5 0.6z"/><path class="b" d="m56.4 10.8v0.6h-0.6c0-0.3 0.2-0.6 0.6-0.6z"/><path class="b" d="m54.2 8.6c0 0.3-0.3 0.6-0.6 0.6-0.3 0-0.5-0.3-0.5-0.6 0-0.3 0.2-0.5 0.5-0.5 0.3 0 0.6 0.2 0.6 0.5z"/></g><g clip-path="url(#cp29)"><path class="b" d="m50.9 11.4h5.5v5.5h-5.5z"/><path class="b" d="m51.4 11.4c0 0.3-0.2 0.5-0.5 0.5v-0.5z"/><path class="b" d="m56.4 11.4v0.5c-0.4 0-0.6-0.2-0.6-0.5z"/><path class="b" d="m51.4 16.9h-0.5v-0.6c0.3 0 0.5 0.2 0.5 0.6z"/><path class="b" d="m56.4 16.3v0.6h-0.6c0-0.4 0.2-0.6 0.6-0.6z"/><path class="b" d="m54.2 14.1c0 0.3-0.3 0.6-0.6 0.6-0.3 0-0.5-0.3-0.5-0.6 0-0.3 0.2-0.6 0.5-0.6 0.3 0 0.6 0.3 0.6 0.6z"/></g><g clip-path="url(#cp30)"><path class="b" d="m50.9 16.9h5.5v5.4h-5.5z"/><path class="b" d="m51.4 16.9c0 0.2-0.2 0.5-0.5 0.5v-0.5z"/><path class="b" d="m56.4 16.9v0.5c-0.4 0-0.6-0.3-0.6-0.5z"/><path class="b" d="m51.4 22.3h-0.5v-0.5c0.3 0 0.5 0.2 0.5 0.5z"/><path class="b" d="m56.4 21.8v0.5h-0.6c0-0.3 0.2-0.5 0.6-0.5z"/><path class="b" d="m54.2 19.6c0 0.3-0.3 0.5-0.6 0.5-0.3 0-0.5-0.2-0.5-0.5 0-0.3 0.2-0.6 0.5-0.6 0.3 0 0.6 0.3 0.6 0.6z"/></g><g clip-path="url(#cp31)"><path class="b" d="m50.9 22.3h5.5v5.5h-5.5z"/><path class="b" d="m51.4 22.3c0 0.3-0.2 0.6-0.5 0.6v-0.6z"/><path class="b" d="m56.4 22.3v0.6c-0.4 0-0.6-0.3-0.6-0.6z"/><path class="b" d="m51.4 27.8h-0.5v-0.6c0.3 0 0.5 0.3 0.5 0.6z"/><path class="b" d="m56.4 27.3v0.5h-0.6c0-0.3 0.2-0.6 0.6-0.6z"/><path class="b" d="m54.2 25c0 0.3-0.3 0.6-0.6 0.6-0.3 0-0.5-0.2-0.5-0.6 0-0.3 0.2-0.5 0.5-0.5 0.3 0 0.6 0.2 0.6 0.5z"/></g><g clip-path="url(#cp32)"><path class="b" d="m50.9 27.8h5.5v5.5h-5.5z"/><path class="b" d="m51.4 27.8c0 0.3-0.2 0.5-0.5 0.5v-0.5z"/><path class="b" d="m56.4 27.8v0.5c-0.4 0-0.6-0.2-0.6-0.5z"/><path class="b" d="m51.4 33.3h-0.5v-0.6c0.3 0 0.5 0.2 0.5 0.6z"/><path class="b" d="m56.4 32.7v0.6h-0.6c0-0.4 0.2-0.6 0.6-0.6z"/><path class="b" d="m54.2 30.5c0 0.3-0.3 0.6-0.6 0.6-0.3 0-0.5-0.3-0.5-0.6 0-0.3 0.2-0.5 0.5-0.5 0.3 0 0.6 0.2 0.6 0.5z"/></g><g clip-path="url(#cp33)"><path class="b" d="m50.9 33.3h5.5v5.4h-5.5z"/><path class="b" d="m51.4 33.3c0 0.2-0.2 0.5-0.5 0.5v-0.5z"/><path class="b" d="m56.4 33.3v0.5c-0.4 0-0.6-0.3-0.6-0.5z"/><path class="b" d="m51.4 38.7h-0.5v-0.5c0.3 0 0.5 0.2 0.5 0.5z"/><path class="b" d="m56.4 38.2v0.5h-0.6c0-0.3 0.2-0.5 0.6-0.5z"/><path class="b" d="m54.2 36c0 0.3-0.3 0.5-0.6 0.5-0.3 0-0.5-0.2-0.5-0.5 0-0.3 0.2-0.6 0.5-0.6 0.3 0 0.6 0.3 0.6 0.6z"/></g><g clip-path="url(#cp34)"><path class="b" d="m50.9 38.7h5.5v5.5h-5.5z"/><path class="b" d="m51.4 38.7c0 0.3-0.2 0.6-0.5 0.6v-0.6z"/><path class="b" d="m56.4 38.7v0.6c-0.4 0-0.6-0.3-0.6-0.6z"/><path class="b" d="m51.4 44.2h-0.5v-0.5c0.3 0 0.5 0.2 0.5 0.5z"/><path class="b" d="m56.4 43.7v0.5h-0.6c0-0.3 0.2-0.5 0.6-0.5z"/><path class="b" d="m54.2 41.5c0 0.3-0.3 0.5-0.6 0.5-0.3 0-0.5-0.2-0.5-0.5 0-0.3 0.2-0.6 0.5-0.6 0.3 0 0.6 0.3 0.6 0.6z"/></g><g clip-path="url(#cp35)"><path class="b" d="m50.9 44.2h5.5v5.5h-5.5z"/><path class="b" d="m51.4 44.2c0 0.3-0.2 0.6-0.5 0.6v-0.6z"/><path class="b" d="m56.4 44.2v0.6c-0.4 0-0.6-0.3-0.6-0.6z"/><path class="b" d="m51.4 49.7h-0.5v-0.6c0.3 0 0.5 0.2 0.5 0.6z"/><path class="b" d="m56.4 49.1v0.6h-0.6c0-0.3 0.2-0.6 0.6-0.6z"/><path class="b" d="m54.2 46.9c0 0.3-0.3 0.6-0.6 0.6-0.3 0-0.5-0.3-0.5-0.6 0-0.3 0.2-0.5 0.5-0.5 0.3 0 0.6 0.2 0.6 0.5z"/></g><g clip-path="url(#cp36)"><path class="b" d="m50.9 49.7h5.5v5.4h-5.5z"/><path class="b" d="m51.4 49.7c0 0.3-0.2 0.5-0.5 0.5v-0.5z"/><path class="b" d="m56.4 49.7v0.5c-0.4 0-0.6-0.2-0.6-0.5z"/><path class="b" d="m51.4 55.1h-0.5v-0.5c0.3 0 0.5 0.2 0.5 0.5z"/><path class="b" d="m56.4 54.6v0.5h-0.6c0-0.3 0.2-0.5 0.6-0.5z"/><path class="b" d="m54.2 52.4c0 0.3-0.3 0.5-0.6 0.5-0.3 0-0.5-0.2-0.5-0.5 0-0.3 0.2-0.5 0.5-0.5 0.3 0 0.6 0.2 0.6 0.5z"/></g><g clip-path="url(#cp37)"><path class="b" d="m45.4 5.9h5.5v5.5h-5.5z"/><path class="b" d="m46 5.9c0 0.3-0.3 0.6-0.6 0.6v-0.6z"/><path class="b" d="m50.9 5.9v0.6c-0.3 0-0.6-0.3-0.6-0.6z"/><path class="b" d="m46 11.4h-0.6v-0.6c0.3 0 0.6 0.3 0.6 0.6z"/><path class="b" d="m50.9 10.8v0.6h-0.6c0-0.3 0.3-0.6 0.6-0.6z"/><path class="b" d="m48.7 8.6c0 0.3-0.3 0.6-0.6 0.6-0.3 0-0.5-0.3-0.5-0.6 0-0.3 0.2-0.5 0.5-0.5 0.3 0 0.6 0.2 0.6 0.5z"/></g><g clip-path="url(#cp38)"><path class="b" d="m45.4 11.4h5.5v5.5h-5.5z"/><path class="b" d="m46 11.4c0 0.3-0.3 0.5-0.6 0.5v-0.5z"/><path class="b" d="m50.9 11.4v0.5c-0.3 0-0.6-0.2-0.6-0.5z"/><path class="b" d="m46 16.9h-0.6v-0.6c0.3 0 0.6 0.2 0.6 0.6z"/><path class="b" d="m50.9 16.3v0.6h-0.6c0-0.4 0.3-0.6 0.6-0.6z"/><path class="b" d="m48.7 14.1c0 0.3-0.3 0.6-0.6 0.6-0.3 0-0.5-0.3-0.5-0.6 0-0.3 0.2-0.6 0.5-0.6 0.3 0 0.6 0.3 0.6 0.6z"/></g><g clip-path="url(#cp39)"><path class="b" d="m45.4 16.9h5.5v5.4h-5.5z"/><path class="b" d="m46 16.9c0 0.2-0.3 0.5-0.6 0.5v-0.5z"/><path class="b" d="m50.9 16.9v0.5c-0.3 0-0.6-0.3-0.6-0.5z"/><path class="b" d="m46 22.3h-0.6v-0.5c0.3 0 0.6 0.2 0.6 0.5z"/><path class="b" d="m50.9 21.8v0.5h-0.6c0-0.3 0.3-0.5 0.6-0.5z"/><path class="b" d="m48.7 19.6c0 0.3-0.3 0.5-0.6 0.5-0.3 0-0.5-0.2-0.5-0.5 0-0.3 0.2-0.6 0.5-0.6 0.3 0 0.6 0.3 0.6 0.6z"/></g><g clip-path="url(#cp40)"><path class="b" d="m45.4 22.3h5.5v5.5h-5.5z"/><path class="b" d="m46 22.3c0 0.3-0.3 0.6-0.6 0.6v-0.6z"/><path class="b" d="m50.9 22.3v0.6c-0.3 0-0.6-0.3-0.6-0.6z"/><path class="b" d="m46 27.8h-0.6v-0.6c0.3 0 0.6 0.3 0.6 0.6z"/><path class="b" d="m50.9 27.3v0.5h-0.6c0-0.3 0.3-0.6 0.6-0.6z"/><path class="b" d="m48.7 25c0 0.3-0.3 0.6-0.6 0.6-0.3 0-0.5-0.2-0.5-0.6 0-0.3 0.2-0.5 0.5-0.5 0.3 0 0.6 0.2 0.6 0.5z"/></g><g clip-path="url(#cp41)"><path class="b" d="m45.4 27.8h5.5v5.5h-5.5z"/><path class="b" d="m46 27.8c0 0.3-0.3 0.5-0.6 0.5v-0.5z"/><path class="b" d="m50.9 27.8v0.5c-0.3 0-0.6-0.2-0.6-0.5z"/><path class="b" d="m46 33.3h-0.6v-0.6c0.3 0 0.6 0.2 0.6 0.6z"/><path class="b" d="m50.9 32.7v0.6h-0.6c0-0.4 0.3-0.6 0.6-0.6z"/><path class="b" d="m48.7 30.5c0 0.3-0.3 0.6-0.6 0.6-0.3 0-0.5-0.3-0.5-0.6 0-0.3 0.2-0.5 0.5-0.5 0.3 0 0.6 0.2 0.6 0.5z"/></g><g clip-path="url(#cp42)"><path class="b" d="m45.4 33.3h5.5v5.4h-5.5z"/><path class="b" d="m46 33.3c0 0.2-0.3 0.5-0.6 0.5v-0.5z"/><path class="b" d="m50.9 33.3v0.5c-0.3 0-0.6-0.3-0.6-0.5z"/><path class="b" d="m46 38.7h-0.6v-0.5c0.3 0 0.6 0.2 0.6 0.5z"/><path class="b" d="m50.9 38.2v0.5h-0.6c0-0.3 0.3-0.5 0.6-0.5z"/><path class="b" d="m48.7 36c0 0.3-0.3 0.5-0.6 0.5-0.3 0-0.5-0.2-0.5-0.5 0-0.3 0.2-0.6 0.5-0.6 0.3 0 0.6 0.3 0.6 0.6z"/></g><g clip-path="url(#cp43)"><path class="b" d="m45.4 38.7h5.5v5.5h-5.5z"/><path class="b" d="m46 38.7c0 0.3-0.3 0.6-0.6 0.6v-0.6z"/><path class="b" d="m50.9 38.7v0.6c-0.3 0-0.6-0.3-0.6-0.6z"/><path class="b" d="m46 44.2h-0.6v-0.5c0.3 0 0.6 0.2 0.6 0.5z"/><path class="b" d="m50.9 43.7v0.5h-0.6c0-0.3 0.3-0.5 0.6-0.5z"/><path class="b" d="m48.7 41.5c0 0.3-0.3 0.5-0.6 0.5-0.3 0-0.5-0.2-0.5-0.5 0-0.3 0.2-0.6 0.5-0.6 0.3 0 0.6 0.3 0.6 0.6z"/></g><g clip-path="url(#cp44)"><path class="b" d="m45.4 44.2h5.5v5.5h-5.5z"/><path class="b" d="m46 44.2c0 0.3-0.3 0.6-0.6 0.6v-0.6z"/><path class="b" d="m50.9 44.2v0.6c-0.3 0-0.6-0.3-0.6-0.6z"/><path class="b" d="m46 49.7h-0.6v-0.6c0.3 0 0.6 0.2 0.6 0.6z"/><path class="b" d="m50.9 49.1v0.6h-0.6c0-0.3 0.3-0.6 0.6-0.6z"/><path class="b" d="m48.7 46.9c0 0.3-0.3 0.6-0.6 0.6-0.3 0-0.5-0.3-0.5-0.6 0-0.3 0.2-0.5 0.5-0.5 0.3 0 0.6 0.2 0.6 0.5z"/></g><g clip-path="url(#cp45)"><path class="b" d="m45.4 49.7h5.5v5.4h-5.5z"/><path class="b" d="m46 49.7c0 0.3-0.3 0.5-0.6 0.5v-0.5z"/><path class="b" d="m50.9 49.7v0.5c-0.3 0-0.6-0.2-0.6-0.5z"/><path class="b" d="m46 55.1h-0.6v-0.5c0.3 0 0.6 0.2 0.6 0.5z"/><path class="b" d="m50.9 54.6v0.5h-0.6c0-0.3 0.3-0.5 0.6-0.5z"/><path class="b" d="m48.7 52.4c0 0.3-0.3 0.5-0.6 0.5-0.3 0-0.5-0.2-0.5-0.5 0-0.3 0.2-0.5 0.5-0.5 0.3 0 0.6 0.2 0.6 0.5z"/></g><g clip-path="url(#cp46)"><path class="b" d="m39.9 5.9h5.5v5.5h-5.5z"/><path class="b" d="m40.5 5.9c0 0.3-0.3 0.6-0.6 0.6v-0.6z"/><path class="b" d="m45.4 5.9v0.6c-0.3 0-0.5-0.3-0.5-0.6z"/><path class="b" d="m40.5 11.4h-0.6v-0.6c0.3 0 0.6 0.3 0.6 0.6z"/><path class="b" d="m45.4 10.8v0.6h-0.5c0-0.3 0.2-0.6 0.5-0.6z"/><path class="b" d="m43.2 8.6c0 0.3-0.2 0.6-0.5 0.6-0.3 0-0.6-0.3-0.6-0.6 0-0.3 0.3-0.5 0.6-0.5 0.3 0 0.5 0.2 0.5 0.5z"/></g><g clip-path="url(#cp47)"><path class="b" d="m39.9 11.4h5.5v5.5h-5.5z"/><path class="b" d="m40.5 11.4c0 0.3-0.3 0.5-0.6 0.5v-0.5z"/><path class="b" d="m45.4 11.4v0.5c-0.3 0-0.5-0.2-0.5-0.5z"/><path class="b" d="m40.5 16.9h-0.6v-0.6c0.3 0 0.6 0.2 0.6 0.6z"/><path class="b" d="m45.4 16.3v0.6h-0.5c0-0.4 0.2-0.6 0.5-0.6z"/><path class="b" d="m43.2 14.1c0 0.3-0.2 0.6-0.5 0.6-0.3 0-0.6-0.3-0.6-0.6 0-0.3 0.3-0.6 0.6-0.6 0.3 0 0.5 0.3 0.5 0.6z"/></g><g clip-path="url(#cp48)"><path class="b" d="m39.9 16.9h5.5v5.4h-5.5z"/><path class="b" d="m40.5 16.9c0 0.2-0.3 0.5-0.6 0.5v-0.5z"/><path class="b" d="m45.4 16.9v0.5c-0.3 0-0.5-0.3-0.5-0.5z"/><path class="b" d="m40.5 22.3h-0.6v-0.5c0.3 0 0.6 0.2 0.6 0.5z"/><path class="b" d="m45.4 21.8v0.5h-0.5c0-0.3 0.2-0.5 0.5-0.5z"/><path class="b" d="m43.2 19.6c0 0.3-0.2 0.5-0.5 0.5-0.3 0-0.6-0.2-0.6-0.5 0-0.3 0.3-0.6 0.6-0.6 0.3 0 0.5 0.3 0.5 0.6z"/></g><g clip-path="url(#cp49)"><path class="b" d="m39.9 22.3h5.5v5.5h-5.5z"/><path class="b" d="m40.5 22.3c0 0.3-0.3 0.6-0.6 0.6v-0.6z"/><path class="b" d="m45.4 22.3v0.6c-0.3 0-0.5-0.3-0.5-0.6z"/><path class="b" d="m40.5 27.8h-0.6v-0.6c0.3 0 0.6 0.3 0.6 0.6z"/><path class="b" d="m45.4 27.3v0.5h-0.5c0-0.3 0.2-0.6 0.5-0.6z"/><path class="b" d="m43.2 25c0 0.3-0.2 0.6-0.5 0.6-0.3 0-0.6-0.2-0.6-0.6 0-0.3 0.3-0.5 0.6-0.5 0.3 0 0.5 0.2 0.5 0.5z"/></g><g clip-path="url(#cp50)"><path class="b" d="m39.9 27.8h5.5v5.5h-5.5z"/><path class="b" d="m40.5 27.8c0 0.3-0.3 0.5-0.6 0.5v-0.5z"/><path class="b" d="m45.4 27.8v0.5c-0.3 0-0.5-0.2-0.5-0.5z"/><path class="b" d="m40.5 33.3h-0.6v-0.6c0.3 0 0.6 0.2 0.6 0.6z"/><path class="b" d="m45.4 32.7v0.6h-0.5c0-0.4 0.2-0.6 0.5-0.6z"/><path class="b" d="m43.2 30.5c0 0.3-0.2 0.6-0.5 0.6-0.3 0-0.6-0.3-0.6-0.6 0-0.3 0.3-0.5 0.6-0.5 0.3 0 0.5 0.2 0.5 0.5z"/></g><g clip-path="url(#cp51)"><path class="b" d="m39.9 33.3h5.5v5.4h-5.5z"/><path class="b" d="m40.5 33.3c0 0.2-0.3 0.5-0.6 0.5v-0.5z"/><path class="b" d="m45.4 33.3v0.5c-0.3 0-0.5-0.3-0.5-0.5z"/><path class="b" d="m40.5 38.7h-0.6v-0.5c0.3 0 0.6 0.2 0.6 0.5z"/><path class="b" d="m45.4 38.2v0.5h-0.5c0-0.3 0.2-0.5 0.5-0.5z"/><path class="b" d="m43.2 36c0 0.3-0.2 0.5-0.5 0.5-0.3 0-0.6-0.2-0.6-0.5 0-0.3 0.3-0.6 0.6-0.6 0.3 0 0.5 0.3 0.5 0.6z"/></g><g clip-path="url(#cp52)"><path class="b" d="m39.9 38.7h5.5v5.5h-5.5z"/><path class="b" d="m40.5 38.7c0 0.3-0.3 0.6-0.6 0.6v-0.6z"/><path class="b" d="m45.4 38.7v0.6c-0.3 0-0.5-0.3-0.5-0.6z"/><path class="b" d="m40.5 44.2h-0.6v-0.5c0.3 0 0.6 0.2 0.6 0.5z"/><path class="b" d="m45.4 43.7v0.5h-0.5c0-0.3 0.2-0.5 0.5-0.5z"/><path class="b" d="m43.2 41.5c0 0.3-0.2 0.5-0.5 0.5-0.3 0-0.6-0.2-0.6-0.5 0-0.3 0.3-0.6 0.6-0.6 0.3 0 0.5 0.3 0.5 0.6z"/></g><g clip-path="url(#cp53)"><path class="b" d="m39.9 44.2h5.5v5.5h-5.5z"/><path class="b" d="m40.5 44.2c0 0.3-0.3 0.6-0.6 0.6v-0.6z"/><path class="b" d="m45.4 44.2v0.6c-0.3 0-0.5-0.3-0.5-0.6z"/><path class="b" d="m40.5 49.7h-0.6v-0.6c0.3 0 0.6 0.2 0.6 0.6z"/><path class="b" d="m45.4 49.1v0.6h-0.5c0-0.3 0.2-0.6 0.5-0.6z"/><path class="b" d="m43.2 46.9c0 0.3-0.2 0.6-0.5 0.6-0.3 0-0.6-0.3-0.6-0.6 0-0.3 0.3-0.5 0.6-0.5 0.3 0 0.5 0.2 0.5 0.5z"/></g><g clip-path="url(#cp54)"><path class="b" d="m39.9 49.7h5.5v5.4h-5.5z"/><path class="b" d="m40.5 49.7c0 0.3-0.3 0.5-0.6 0.5v-0.5z"/><path class="b" d="m45.4 49.7v0.5c-0.3 0-0.5-0.2-0.5-0.5z"/><path class="b" d="m40.5 55.1h-0.6v-0.5c0.3 0 0.6 0.2 0.6 0.5z"/><path class="b" d="m45.4 54.6v0.5h-0.5c0-0.3 0.2-0.5 0.5-0.5z"/><path class="b" d="m43.2 52.4c0 0.3-0.2 0.5-0.5 0.5-0.3 0-0.6-0.2-0.6-0.5 0-0.3 0.3-0.5 0.6-0.5 0.3 0 0.5 0.2 0.5 0.5z"/></g><g clip-path="url(#cp55)"><path class="b" d="m34.5 5.9h5.4v5.5h-5.4z"/><path class="b" d="m35 5.9c0 0.3-0.3 0.6-0.5 0.6v-0.6z"/><path class="b" d="m39.9 5.9v0.6c-0.3 0-0.5-0.3-0.5-0.6z"/><path class="b" d="m35 11.4h-0.5v-0.6c0.2 0 0.5 0.3 0.5 0.6z"/><path class="b" d="m39.9 10.8v0.6h-0.5c0-0.3 0.2-0.6 0.5-0.6z"/><path class="b" d="m37.2 9.2c-0.3 0-0.6-0.3-0.6-0.6 0-0.3 0.3-0.5 0.6-0.5 0.3 0 0.5 0.2 0.5 0.5 0 0.3-0.2 0.6-0.5 0.6z"/></g><g clip-path="url(#cp56)"><path class="b" d="m34.5 11.4h5.4v5.5h-5.4z"/><path class="b" d="m35 11.4c0 0.3-0.3 0.5-0.5 0.5v-0.5z"/><path class="b" d="m39.9 11.4v0.5c-0.3 0-0.5-0.2-0.5-0.5z"/><path class="b" d="m35 16.9h-0.5v-0.6c0.2 0 0.5 0.2 0.5 0.6z"/><path class="b" d="m39.9 16.3v0.6h-0.5c0-0.4 0.2-0.6 0.5-0.6z"/><path class="b" d="m37.7 14.1c0 0.3-0.2 0.6-0.5 0.6-0.3 0-0.6-0.3-0.6-0.6 0-0.3 0.3-0.6 0.6-0.6 0.3 0 0.5 0.3 0.5 0.6z"/></g><g clip-path="url(#cp57)"><path class="b" d="m34.5 16.9h5.4v5.4h-5.4z"/><path class="b" d="m35 16.9c0 0.2-0.3 0.5-0.5 0.5v-0.5z"/><path class="b" d="m39.9 16.9v0.5c-0.3 0-0.5-0.3-0.5-0.5z"/><path class="b" d="m35 22.3h-0.5v-0.5c0.2 0 0.5 0.2 0.5 0.5z"/><path class="b" d="m39.9 21.8v0.5h-0.5c0-0.3 0.2-0.5 0.5-0.5z"/><path class="b" d="m37.7 19.6c0 0.3-0.2 0.5-0.5 0.5-0.3 0-0.6-0.2-0.6-0.5 0-0.3 0.3-0.6 0.6-0.6 0.3 0 0.5 0.3 0.5 0.6z"/></g><g clip-path="url(#cp58)"><path class="b" d="m34.5 22.3h5.4v5.5h-5.4z"/><path class="b" d="m35 22.3c0 0.3-0.3 0.6-0.5 0.6v-0.6z"/><path class="b" d="m39.9 22.3v0.6c-0.3 0-0.5-0.3-0.5-0.6z"/><path class="b" d="m35 27.8h-0.5v-0.6c0.2 0 0.5 0.3 0.5 0.6z"/><path class="b" d="m39.9 27.3v0.5h-0.5c0-0.3 0.2-0.6 0.5-0.6z"/><path class="b" d="m37.7 25c0 0.3-0.2 0.6-0.5 0.6-0.3 0-0.6-0.2-0.6-0.6 0-0.3 0.3-0.5 0.6-0.5 0.3 0 0.5 0.2 0.5 0.5z"/></g><g clip-path="url(#cp59)"><path class="b" d="m34.5 27.8h5.4v5.5h-5.4z"/><path class="b" d="m35 27.8c0 0.3-0.3 0.5-0.5 0.5v-0.5z"/><path class="b" d="m39.9 27.8v0.5c-0.3 0-0.5-0.2-0.5-0.5z"/><path class="b" d="m35 33.3h-0.5v-0.6c0.2 0 0.5 0.2 0.5 0.6z"/><path class="b" d="m39.9 32.7v0.6h-0.5c0-0.4 0.2-0.6 0.5-0.6z"/><path class="b" d="m37.7 30.5c0 0.3-0.2 0.6-0.5 0.6-0.3 0-0.6-0.3-0.6-0.6 0-0.3 0.3-0.5 0.6-0.5 0.3 0 0.5 0.2 0.5 0.5z"/></g><g clip-path="url(#cp60)"><path class="b" d="m34.5 33.3h5.4v5.4h-5.4z"/><path class="b" d="m35 33.3c0 0.2-0.3 0.5-0.5 0.5v-0.5z"/><path class="b" d="m39.9 33.3v0.5c-0.3 0-0.5-0.3-0.5-0.5z"/><path class="b" d="m35 38.7h-0.5v-0.5c0.2 0 0.5 0.2 0.5 0.5z"/><path class="b" d="m39.9 38.2v0.5h-0.5c0-0.3 0.2-0.5 0.5-0.5z"/><path class="b" d="m37.7 36c0 0.3-0.2 0.5-0.5 0.5-0.3 0-0.6-0.2-0.6-0.5 0-0.3 0.3-0.6 0.6-0.6 0.3 0 0.5 0.3 0.5 0.6z"/></g><g clip-path="url(#cp61)"><path class="b" d="m34.5 38.7h5.4v5.5h-5.4z"/><path class="b" d="m35 38.7c0 0.3-0.3 0.6-0.5 0.6v-0.6z"/><path class="b" d="m39.9 38.7v0.6c-0.3 0-0.5-0.3-0.5-0.6z"/><path class="b" d="m35 44.2h-0.5v-0.5c0.2 0 0.5 0.2 0.5 0.5z"/><path class="b" d="m39.9 43.7v0.5h-0.5c0-0.3 0.2-0.5 0.5-0.5z"/><path class="b" d="m37.7 41.5c0 0.3-0.2 0.5-0.5 0.5-0.3 0-0.6-0.2-0.6-0.5 0-0.3 0.3-0.6 0.6-0.6 0.3 0 0.5 0.3 0.5 0.6z"/></g><g clip-path="url(#cp62)"><path class="b" d="m34.5 44.2h5.4v5.5h-5.4z"/><path class="b" d="m35 44.2c0 0.3-0.3 0.6-0.5 0.6v-0.6z"/><path class="b" d="m39.9 44.2v0.6c-0.3 0-0.5-0.3-0.5-0.6z"/><path class="b" d="m35 49.7h-0.5v-0.6c0.2 0 0.5 0.2 0.5 0.6z"/><path class="b" d="m39.9 49.1v0.6h-0.5c0-0.3 0.2-0.6 0.5-0.6z"/><path class="b" d="m37.2 47.5c-0.3 0-0.6-0.3-0.6-0.6 0-0.3 0.3-0.5 0.6-0.5 0.3 0 0.5 0.2 0.5 0.5 0 0.3-0.2 0.6-0.5 0.6z"/></g><g clip-path="url(#cp63)"><path class="b" d="m34.5 49.7h5.4v5.4h-5.4z"/><path class="b" d="m35 49.7c0 0.3-0.3 0.5-0.5 0.5v-0.5z"/><path class="b" d="m39.9 49.7v0.5c-0.3 0-0.5-0.2-0.5-0.5z"/><path class="b" d="m35 55.1h-0.5v-0.5c0.2 0 0.5 0.2 0.5 0.5z"/><path class="b" d="m39.9 54.6v0.5h-0.5c0-0.3 0.2-0.5 0.5-0.5z"/><path class="b" d="m37.7 52.4c0 0.3-0.2 0.5-0.5 0.5-0.3 0-0.6-0.2-0.6-0.5 0-0.3 0.3-0.5 0.6-0.5 0.3 0 0.5 0.2 0.5 0.5z"/></g><path fill-rule="evenodd" class="c" d="m68.8 54h-11.9v-6.2h-19.4l0.1-11.4 15.7-30.8h13.7l-15.5 30.3h5.4v-6.1h11.9v6.1h3.5v11.9h-3.5c0 0 0 6.2 0 6.2zm-10.3-1.7h8.6v-6.1h3.5v-8.6h-3.5v-6.2h-8.6v6.2h-9.7l15.5-30.3h-10l-15.1 29.7v9.2h19.3z"/><path class="a" d="m86.8 57.7v-9.7l17-18.4c1.7-2 2.3-3.1 2.3-4.9 0-2.8-1.5-4.4-4.2-4.4-2.8 0-4.2 1.4-4.3 4.5h-10.8c0.2-2.9 0.4-4.1 1.1-5.8 2.2-5.3 7.5-8.4 14.1-8.4 8.9 0 14.9 5.6 14.9 14 0 4.3-1.2 6.7-5.8 11.6l-11.1 11.8h16.9v9.7z"/><g clip-path="url(#cp64)"><path class="b" d="m107.4 3.1h5.4v5.5h-5.4z"/><path class="b" d="m107.9 3.1c0 0.3-0.3 0.6-0.5 0.6v-0.6z"/><path class="b" d="m112.8 3.1v0.6c-0.3 0-0.5-0.3-0.5-0.6z"/><path class="b" d="m107.9 8.6h-0.5v-0.6c0.2 0 0.5 0.2 0.5 0.6z"/><path class="b" d="m112.8 8v0.6h-0.5c0-0.4 0.2-0.6 0.5-0.6z"/><path class="b" d="m110.6 5.8c0 0.3-0.2 0.6-0.5 0.6-0.3 0-0.6-0.3-0.6-0.6 0-0.3 0.3-0.5 0.6-0.5 0.3 0 0.5 0.2 0.5 0.5z"/></g><g clip-path="url(#cp65)"><path class="b" d="m107.4 8.6h5.4v5.4h-5.4z"/><path class="b" d="m107.9 8.6c0 0.2-0.3 0.5-0.5 0.5v-0.5z"/><path class="b" d="m112.8 8.6v0.5c-0.3 0-0.5-0.2-0.5-0.5z"/><path class="b" d="m107.9 14h-0.5v-0.5c0.2 0 0.5 0.2 0.5 0.5z"/><path class="b" d="m112.8 13.5v0.5h-0.5c0-0.3 0.2-0.5 0.5-0.5z"/><path class="b" d="m110.6 11.3c0 0.3-0.2 0.5-0.5 0.5-0.3 0-0.6-0.2-0.6-0.5 0-0.3 0.3-0.6 0.6-0.6 0.3 0 0.5 0.3 0.5 0.6z"/></g><g clip-path="url(#cp66)"><path class="b" d="m107.4 14h5.4v5.5h-5.4z"/><path class="b" d="m107.9 14c0 0.3-0.3 0.6-0.5 0.6v-0.6z"/><path class="b" d="m112.8 14v0.6c-0.3 0-0.5-0.3-0.5-0.6z"/><path class="b" d="m107.9 19.5h-0.5v-0.5c0.2 0 0.5 0.2 0.5 0.5z"/><path class="b" d="m112.8 19v0.5h-0.5c0-0.3 0.2-0.5 0.5-0.5z"/><path class="b" d="m110.6 16.8c0 0.3-0.2 0.5-0.5 0.5-0.3 0-0.6-0.2-0.6-0.5 0-0.3 0.3-0.6 0.6-0.6 0.3 0 0.5 0.3 0.5 0.6z"/></g><g clip-path="url(#cp67)"><path class="b" d="m107.4 19.5h5.4v5.5h-5.4z"/><path class="b" d="m107.9 19.5c0 0.3-0.3 0.6-0.5 0.6v-0.6z"/><path class="b" d="m112.8 19.5v0.6c-0.3 0-0.5-0.3-0.5-0.6z"/><path class="b" d="m107.9 25h-0.5v-0.6c0.2 0 0.5 0.3 0.5 0.6z"/><path class="b" d="m112.8 24.4v0.6h-0.5c0-0.3 0.2-0.6 0.5-0.6z"/><path class="b" d="m110.6 22.2c0 0.3-0.2 0.6-0.5 0.6-0.3 0-0.6-0.3-0.6-0.6 0-0.3 0.3-0.5 0.6-0.5 0.3 0 0.5 0.2 0.5 0.5z"/></g><g clip-path="url(#cp68)"><path class="b" d="m107.4 25h5.4v5.4h-5.4z"/><path class="b" d="m107.9 25c0 0.3-0.3 0.5-0.5 0.5v-0.5z"/><path class="b" d="m112.8 25v0.5c-0.3 0-0.5-0.2-0.5-0.5z"/><path class="b" d="m107.9 30.4l-0.5 0.1v-0.6c0.2 0 0.5 0.2 0.5 0.6z"/><path class="b" d="m112.8 29.9v0.6h-0.5c0-0.4 0.2-0.6 0.5-0.6z"/><path class="b" d="m110.6 27.7c0 0.3-0.2 0.6-0.5 0.6-0.3 0-0.6-0.3-0.6-0.6 0-0.3 0.3-0.5 0.6-0.5 0.3 0 0.5 0.2 0.5 0.5z"/></g><g clip-path="url(#cp69)"><path class="b" d="m107.4 30.4l5.4 0.1v5.4h-5.4z"/><path class="b" d="m107.9 30.4c0 0.3-0.3 0.6-0.5 0.6v-0.5z"/><path class="b" d="m112.8 30.4v0.6c-0.3 0-0.5-0.3-0.5-0.5z"/><path class="b" d="m107.9 35.9h-0.5v-0.5c0.2 0 0.5 0.2 0.5 0.5z"/><path class="b" d="m112.8 35.4v0.5h-0.5c0-0.3 0.2-0.5 0.5-0.5z"/><path class="b" d="m110.6 33.2c0 0.3-0.2 0.5-0.5 0.5-0.3 0-0.6-0.2-0.6-0.5 0-0.3 0.3-0.6 0.6-0.6 0.3 0 0.5 0.3 0.5 0.6z"/></g><g clip-path="url(#cp70)"><path class="b" d="m107.4 35.9h5.4v5.5h-5.4z"/><path class="b" d="m107.9 35.9c0 0.3-0.3 0.6-0.5 0.6v-0.6z"/><path class="b" d="m112.8 35.9v0.6c-0.3 0-0.5-0.3-0.5-0.6z"/><path class="b" d="m107.9 41.4h-0.5v-0.5c0.2 0 0.5 0.2 0.5 0.5z"/><path class="b" d="m112.8 40.9v0.5h-0.5c0-0.3 0.2-0.5 0.5-0.5z"/><path class="b" d="m110.6 38.6c0 0.3-0.2 0.6-0.5 0.6-0.3 0-0.6-0.2-0.6-0.6 0-0.3 0.3-0.5 0.6-0.5 0.3 0 0.5 0.3 0.5 0.5z"/></g><g clip-path="url(#cp71)"><path class="b" d="m107.4 41.4h5.4v5.5h-5.4z"/><path class="b" d="m107.9 41.4c0 0.3-0.3 0.5-0.5 0.5v-0.5z"/><path class="b" d="m112.8 41.4v0.5c-0.3 0-0.5-0.2-0.5-0.5z"/><path class="b" d="m107.9 46.9h-0.5v-0.6c0.2 0 0.5 0.2 0.5 0.6z"/><path class="b" d="m112.8 46.3v0.6h-0.5c0-0.4 0.2-0.6 0.5-0.6z"/><path class="b" d="m110.6 44.1c0 0.3-0.2 0.6-0.5 0.6-0.3 0-0.6-0.3-0.6-0.6 0-0.3 0.3-0.5 0.6-0.5 0.3 0 0.5 0.2 0.5 0.5z"/></g><g clip-path="url(#cp72)"><path class="b" d="m107.4 46.9h5.4v5.4h-5.4z"/><path class="b" d="m107.9 46.9c0 0.2-0.3 0.5-0.5 0.5v-0.5z"/><path class="b" d="m112.8 46.9v0.5c-0.3 0-0.5-0.3-0.5-0.5z"/><path class="b" d="m107.9 52.3h-0.5v-0.5c0.2 0 0.5 0.2 0.5 0.5z"/><path class="b" d="m112.8 51.8v0.5h-0.5c0-0.3 0.2-0.5 0.5-0.5z"/><path class="b" d="m110.6 49.6c0 0.3-0.2 0.5-0.5 0.5-0.3 0-0.6-0.2-0.6-0.5 0-0.3 0.3-0.6 0.6-0.6 0.3 0 0.5 0.3 0.5 0.6z"/></g><g clip-path="url(#cp73)"><path class="b" d="m107.4 52.3h5.4v5.5h-5.4z"/><path class="b" d="m107.9 52.3c0 0.3-0.3 0.6-0.5 0.6v-0.6z"/><path class="b" d="m112.8 52.3v0.6c-0.3 0-0.5-0.3-0.5-0.6z"/><path class="b" d="m107.9 57.8h-0.5v-0.5c0.2 0 0.5 0.2 0.5 0.5z"/><path class="b" d="m112.8 57.3v0.5h-0.5c0-0.3 0.2-0.5 0.5-0.5z"/><path class="b" d="m110.6 55.1c0 0.3-0.2 0.5-0.5 0.5-0.3 0-0.6-0.2-0.6-0.5 0-0.3 0.3-0.6 0.6-0.6 0.3 0 0.5 0.3 0.5 0.6z"/></g><g clip-path="url(#cp74)"><path class="b" d="m101.9 3.1h5.5v5.5h-5.5z"/><path class="b" d="m102.4 3.1c0 0.3-0.2 0.6-0.5 0.6v-0.6z"/><path class="b" d="m107.4 3.1v0.6c-0.4 0-0.6-0.3-0.6-0.6z"/><path class="b" d="m102.4 8.6h-0.5v-0.6c0.3 0 0.5 0.2 0.5 0.6z"/><path class="b" d="m107.4 8v0.6h-0.6c0-0.4 0.2-0.6 0.6-0.6z"/><path class="b" d="m105.2 5.8c0 0.3-0.3 0.6-0.6 0.6-0.3 0-0.5-0.3-0.5-0.6 0-0.3 0.2-0.5 0.5-0.5 0.3 0 0.6 0.2 0.6 0.5z"/></g><g clip-path="url(#cp75)"><path class="b" d="m101.9 8.6h5.5v5.4h-5.5z"/><path class="b" d="m102.4 8.6c0 0.2-0.2 0.5-0.5 0.5v-0.5z"/><path class="b" d="m107.4 8.6v0.5c-0.4 0-0.6-0.2-0.6-0.5z"/><path class="b" d="m102.4 14h-0.5v-0.5c0.3 0 0.5 0.2 0.5 0.5z"/><path class="b" d="m107.4 13.5v0.5h-0.6c0-0.3 0.2-0.5 0.6-0.5z"/><path class="b" d="m105.2 11.3c0 0.3-0.3 0.5-0.6 0.5-0.3 0-0.5-0.2-0.5-0.5 0-0.3 0.2-0.6 0.5-0.6 0.3 0 0.6 0.3 0.6 0.6z"/></g><g clip-path="url(#cp76)"><path class="b" d="m101.9 14h5.5v5.5h-5.5z"/><path class="b" d="m102.4 14c0 0.3-0.2 0.6-0.5 0.6v-0.6z"/><path class="b" d="m107.4 14v0.6c-0.4 0-0.6-0.3-0.6-0.6z"/><path class="b" d="m102.4 19.5h-0.5v-0.5c0.3 0 0.5 0.2 0.5 0.5z"/><path class="b" d="m107.4 19v0.5h-0.6c0-0.3 0.2-0.5 0.6-0.5z"/><path class="b" d="m105.2 16.8c0 0.3-0.3 0.5-0.6 0.5-0.3 0-0.5-0.2-0.5-0.5 0-0.3 0.2-0.6 0.5-0.6 0.3 0 0.6 0.3 0.6 0.6z"/></g><g clip-path="url(#cp77)"><path class="b" d="m101.9 19.5h5.5v5.5h-5.5z"/><path class="b" d="m102.4 19.5c0 0.3-0.2 0.6-0.5 0.6v-0.6z"/><path class="b" d="m107.4 19.5v0.6c-0.4 0-0.6-0.3-0.6-0.6z"/><path class="b" d="m102.4 25h-0.5v-0.6c0.3 0 0.5 0.3 0.5 0.6z"/><path class="b" d="m107.4 24.4v0.6h-0.6c0-0.3 0.2-0.6 0.6-0.6z"/><path class="b" d="m105.2 22.2c0 0.3-0.3 0.6-0.6 0.6-0.3 0-0.5-0.3-0.5-0.6 0-0.3 0.2-0.5 0.5-0.5 0.3 0 0.6 0.2 0.6 0.5z"/></g><g clip-path="url(#cp78)"><path class="b" d="m101.9 25h5.5v5.4h-5.5z"/><path class="b" d="m102.4 25c0 0.3-0.2 0.5-0.5 0.5v-0.5z"/><path class="b" d="m107.4 25v0.5c-0.4 0-0.6-0.2-0.6-0.5z"/><path class="b" d="m102.4 30.4l-0.5 0.1v-0.6c0.3 0 0.5 0.2 0.5 0.6z"/><path class="b" d="m107.4 29.9v0.6h-0.6c0-0.4 0.2-0.6 0.6-0.6z"/><path class="b" d="m105.2 27.7c0 0.3-0.3 0.6-0.6 0.6-0.3 0-0.5-0.3-0.5-0.6 0-0.3 0.2-0.5 0.5-0.5 0.3 0 0.6 0.2 0.6 0.5z"/></g><g clip-path="url(#cp79)"><path class="b" d="m101.9 30.4l5.5 0.1v5.4h-5.5z"/><path class="b" d="m102.4 30.4c0 0.3-0.2 0.6-0.5 0.6v-0.5z"/><path class="b" d="m107.4 30.4v0.6c-0.4 0-0.6-0.3-0.6-0.5z"/><path class="b" d="m102.4 35.9h-0.5v-0.5c0.3 0 0.5 0.2 0.5 0.5z"/><path class="b" d="m107.4 35.4v0.5h-0.6c0-0.3 0.2-0.5 0.6-0.5z"/><path class="b" d="m105.2 33.2c0 0.3-0.3 0.5-0.6 0.5-0.3 0-0.5-0.2-0.5-0.5 0-0.3 0.2-0.6 0.5-0.6 0.3 0 0.6 0.3 0.6 0.6z"/></g><g clip-path="url(#cp80)"><path class="b" d="m101.9 35.9h5.5v5.5h-5.5z"/><path class="b" d="m102.4 35.9c0 0.3-0.2 0.6-0.5 0.6v-0.6z"/><path class="b" d="m107.4 35.9v0.6c-0.4 0-0.6-0.3-0.6-0.6z"/><path class="b" d="m102.4 41.4h-0.5v-0.5c0.3 0 0.5 0.2 0.5 0.5z"/><path class="b" d="m107.4 40.9v0.5h-0.6c0-0.3 0.2-0.5 0.6-0.5z"/><path class="b" d="m105.2 38.6c0 0.3-0.3 0.6-0.6 0.6-0.3 0-0.5-0.2-0.5-0.6 0-0.3 0.2-0.5 0.5-0.5 0.3 0 0.6 0.3 0.6 0.5z"/></g><g clip-path="url(#cp81)"><path class="b" d="m101.9 41.4h5.5v5.5h-5.5z"/><path class="b" d="m102.4 41.4c0 0.3-0.2 0.5-0.5 0.5v-0.5z"/><path class="b" d="m107.4 41.4v0.5c-0.4 0-0.6-0.2-0.6-0.5z"/><path class="b" d="m102.4 46.9h-0.5v-0.6c0.3 0 0.5 0.2 0.5 0.6z"/><path class="b" d="m107.4 46.3v0.6h-0.6c0-0.4 0.2-0.6 0.6-0.6z"/><path class="b" d="m105.2 44.1c0 0.3-0.3 0.6-0.6 0.6-0.3 0-0.5-0.3-0.5-0.6 0-0.3 0.2-0.5 0.5-0.5 0.3 0 0.6 0.2 0.6 0.5z"/></g><g clip-path="url(#cp82)"><path class="b" d="m101.9 46.9h5.5v5.4h-5.5z"/><path class="b" d="m102.4 46.9c0 0.2-0.2 0.5-0.5 0.5v-0.5z"/><path class="b" d="m107.4 46.9v0.5c-0.4 0-0.6-0.3-0.6-0.5z"/><path class="b" d="m102.4 52.3h-0.5v-0.5c0.3 0 0.5 0.2 0.5 0.5z"/><path class="b" d="m107.4 51.8v0.5h-0.6c0-0.3 0.2-0.5 0.6-0.5z"/><path class="b" d="m105.2 49.6c0 0.3-0.3 0.5-0.6 0.5-0.3 0-0.5-0.2-0.5-0.5 0-0.3 0.2-0.6 0.5-0.6 0.3 0 0.6 0.3 0.6 0.6z"/></g><g clip-path="url(#cp83)"><path class="b" d="m101.9 52.3h5.5v5.5h-5.5z"/><path class="b" d="m102.4 52.3c0 0.3-0.2 0.6-0.5 0.6v-0.6z"/><path class="b" d="m107.4 52.3v0.6c-0.4 0-0.6-0.3-0.6-0.6z"/><path class="b" d="m102.4 57.8h-0.5v-0.5c0.3 0 0.5 0.2 0.5 0.5z"/><path class="b" d="m107.4 57.3v0.5h-0.6c0-0.3 0.2-0.5 0.6-0.5z"/><path class="b" d="m105.2 55.1c0 0.3-0.3 0.5-0.6 0.5-0.3 0-0.5-0.2-0.5-0.5 0-0.3 0.2-0.6 0.5-0.6 0.3 0 0.6 0.3 0.6 0.6z"/></g><g clip-path="url(#cp84)"><path class="b" d="m96.4 3.1h5.5v5.5h-5.5z"/><path class="b" d="m97 3.1c0 0.3-0.3 0.6-0.6 0.6v-0.6z"/><path class="b" d="m101.9 3.1v0.6c-0.3 0-0.6-0.3-0.6-0.6z"/><path class="b" d="m97 8.6h-0.6v-0.6c0.3 0 0.6 0.2 0.6 0.6z"/><path class="b" d="m101.9 8v0.6h-0.6c0-0.4 0.3-0.6 0.6-0.6z"/><path class="b" d="m99.7 5.8c0 0.3-0.3 0.6-0.6 0.6-0.3 0-0.5-0.3-0.5-0.6 0-0.3 0.2-0.5 0.5-0.5 0.3 0 0.6 0.2 0.6 0.5z"/></g><g clip-path="url(#cp85)"><path class="b" d="m96.4 8.6h5.5v5.4h-5.5z"/><path class="b" d="m97 8.6c0 0.2-0.3 0.5-0.6 0.5v-0.5z"/><path class="b" d="m101.9 8.6v0.5c-0.3 0-0.6-0.2-0.6-0.5z"/><path class="b" d="m97 14h-0.6v-0.5c0.3 0 0.6 0.2 0.6 0.5z"/><path class="b" d="m101.9 13.5v0.5h-0.6c0-0.3 0.3-0.5 0.6-0.5z"/><path class="b" d="m99.2 11.8c-0.4 0-0.6-0.2-0.6-0.5 0-0.3 0.2-0.6 0.6-0.6 0.3 0 0.5 0.3 0.5 0.6 0 0.3-0.2 0.5-0.5 0.5z"/></g><g clip-path="url(#cp86)"><path class="b" d="m96.4 14h5.5v5.5h-5.5z"/><path class="b" d="m97 14c0 0.3-0.3 0.6-0.6 0.6v-0.6z"/><path class="b" d="m101.9 14v0.6c-0.3 0-0.6-0.3-0.6-0.6z"/><path class="b" d="m97 19.5h-0.6v-0.5c0.3 0 0.6 0.2 0.6 0.5z"/><path class="b" d="m101.9 19v0.5h-0.6c0-0.3 0.3-0.5 0.6-0.5z"/><path class="b" d="m99.7 16.8c0 0.3-0.3 0.5-0.6 0.5-0.3 0-0.5-0.2-0.5-0.5 0-0.3 0.2-0.6 0.5-0.6 0.3 0 0.6 0.3 0.6 0.6z"/></g><g clip-path="url(#cp87)"><path class="b" d="m96.4 19.5h5.5v5.5h-5.5z"/><path class="b" d="m97 19.5c0 0.3-0.3 0.6-0.6 0.6v-0.6z"/><path class="b" d="m101.9 19.5v0.6c-0.3 0-0.6-0.3-0.6-0.6z"/><path class="b" d="m97 25h-0.6v-0.6c0.3 0 0.6 0.3 0.6 0.6z"/><path class="b" d="m101.9 24.4v0.6h-0.6c0-0.3 0.3-0.6 0.6-0.6z"/><path class="b" d="m99.7 22.2c0 0.3-0.3 0.6-0.6 0.6-0.3 0-0.5-0.3-0.5-0.6 0-0.3 0.2-0.5 0.5-0.5 0.3 0 0.6 0.2 0.6 0.5z"/></g><g clip-path="url(#cp88)"><path class="b" d="m96.4 25h5.5v5.4h-5.5z"/><path class="b" d="m97 25c0 0.3-0.3 0.5-0.6 0.5v-0.5z"/><path class="b" d="m101.9 25v0.5c-0.3 0-0.6-0.2-0.6-0.5z"/><path class="b" d="m97 30.4l-0.6 0.1v-0.6c0.3 0 0.6 0.2 0.6 0.6z"/><path class="b" d="m101.9 29.9v0.6h-0.6c0-0.4 0.3-0.6 0.6-0.6z"/><path class="b" d="m99.7 27.7c0 0.3-0.3 0.6-0.6 0.6-0.3 0-0.5-0.3-0.5-0.6 0-0.3 0.2-0.5 0.5-0.5 0.3 0 0.6 0.2 0.6 0.5z"/></g><g clip-path="url(#cp89)"><path class="b" d="m96.4 30.4l5.5 0.1v5.4h-5.5z"/><path class="b" d="m97 30.4c0 0.3-0.3 0.6-0.6 0.6v-0.5z"/><path class="b" d="m101.9 30.4v0.6c-0.3 0-0.6-0.3-0.6-0.5z"/><path class="b" d="m97 35.9h-0.6v-0.5c0.3 0 0.6 0.2 0.6 0.5z"/><path class="b" d="m101.9 35.4v0.5h-0.6c0-0.3 0.3-0.5 0.6-0.5z"/><path class="b" d="m99.7 33.2c0 0.3-0.3 0.5-0.6 0.5-0.3 0-0.5-0.2-0.5-0.5 0-0.3 0.2-0.6 0.5-0.6 0.3 0 0.6 0.3 0.6 0.6z"/></g><g clip-path="url(#cp90)"><path class="b" d="m96.4 35.9h5.5v5.5h-5.5z"/><path class="b" d="m97 35.9c0 0.3-0.3 0.6-0.6 0.6v-0.6z"/><path class="b" d="m101.9 35.9v0.6c-0.3 0-0.6-0.3-0.6-0.6z"/><path class="b" d="m97 41.4h-0.6v-0.5c0.3 0 0.6 0.2 0.6 0.5z"/><path class="b" d="m101.9 40.9v0.5h-0.6c0-0.3 0.3-0.5 0.6-0.5z"/><path class="b" d="m99.2 39.2c-0.4 0-0.6-0.2-0.6-0.5 0-0.4 0.2-0.6 0.6-0.6 0.3 0 0.5 0.2 0.5 0.6 0 0.3-0.2 0.5-0.5 0.5z"/></g><g clip-path="url(#cp91)"><path class="b" d="m96.4 41.4h5.5v5.5h-5.5z"/><path class="b" d="m97 41.4c0 0.3-0.3 0.5-0.6 0.5v-0.5z"/><path class="b" d="m101.9 41.4v0.5c-0.3 0-0.6-0.2-0.6-0.5z"/><path class="b" d="m97 46.9h-0.6v-0.6c0.3 0 0.6 0.2 0.6 0.6z"/><path class="b" d="m101.9 46.3v0.6h-0.6c0-0.4 0.3-0.6 0.6-0.6z"/><path class="b" d="m99.7 44.1c0 0.3-0.3 0.6-0.6 0.6-0.3 0-0.5-0.3-0.5-0.6 0-0.3 0.2-0.5 0.5-0.5 0.3 0 0.6 0.2 0.6 0.5z"/></g><g clip-path="url(#cp92)"><path class="b" d="m96.4 46.9h5.5v5.4h-5.5z"/><path class="b" d="m97 46.9c0 0.2-0.3 0.5-0.6 0.5v-0.5z"/><path class="b" d="m101.9 46.9v0.5c-0.3 0-0.6-0.3-0.6-0.5z"/><path class="b" d="m97 52.3h-0.6v-0.5c0.3 0 0.6 0.2 0.6 0.5z"/><path class="b" d="m101.9 51.8v0.5h-0.6c0-0.3 0.3-0.5 0.6-0.5z"/><path class="b" d="m99.2 50.1c-0.4 0-0.6-0.2-0.6-0.5 0-0.3 0.2-0.6 0.6-0.6 0.3 0 0.5 0.3 0.5 0.6 0 0.3-0.2 0.5-0.5 0.5z"/></g><g clip-path="url(#cp93)"><path class="b" d="m96.4 52.3h5.5v5.5h-5.5z"/><path class="b" d="m97 52.3c0 0.3-0.3 0.6-0.6 0.6v-0.6z"/><path class="b" d="m101.9 52.3v0.6c-0.3 0-0.6-0.3-0.6-0.6z"/><path class="b" d="m97 57.8h-0.6v-0.5c0.3 0 0.6 0.2 0.6 0.5z"/><path class="b" d="m101.9 57.3v0.5h-0.6c0-0.3 0.3-0.5 0.6-0.5z"/><path class="b" d="m99.7 55.1c0 0.3-0.3 0.5-0.6 0.5-0.3 0-0.5-0.2-0.5-0.5 0-0.3 0.2-0.6 0.5-0.6 0.3 0 0.6 0.3 0.6 0.6z"/></g><g clip-path="url(#cp94)"><path class="b" d="m91 3.1h5.4v5.5h-5.4z"/><path class="b" d="m91.5 3.1c0 0.3-0.3 0.6-0.5 0.6v-0.6z"/><path class="b" d="m96.4 3.1v0.6c-0.3 0-0.5-0.3-0.5-0.6z"/><path class="b" d="m91.5 8.6h-0.5v-0.6c0.2 0 0.5 0.2 0.5 0.6z"/><path class="b" d="m96.4 8v0.6h-0.5c0-0.4 0.2-0.6 0.5-0.6z"/><path class="b" d="m94.2 5.8c0 0.3-0.2 0.6-0.5 0.6-0.3 0-0.6-0.3-0.6-0.6 0-0.3 0.3-0.5 0.6-0.5 0.3 0 0.5 0.2 0.5 0.5z"/></g><g clip-path="url(#cp95)"><path class="b" d="m91 8.6h5.4v5.4h-5.4z"/><path class="b" d="m91.5 8.6c0 0.2-0.3 0.5-0.5 0.5v-0.5z"/><path class="b" d="m96.4 8.6v0.5c-0.3 0-0.5-0.2-0.5-0.5z"/><path class="b" d="m91.5 14h-0.5v-0.5c0.2 0 0.5 0.2 0.5 0.5z"/><path class="b" d="m96.4 13.5v0.5h-0.5c0-0.3 0.2-0.5 0.5-0.5z"/><path class="b" d="m94.2 11.3c0 0.3-0.2 0.5-0.5 0.5-0.3 0-0.6-0.2-0.6-0.5 0-0.3 0.3-0.6 0.6-0.6 0.3 0 0.5 0.3 0.5 0.6z"/></g><g clip-path="url(#cp96)"><path class="b" d="m91 14h5.4v5.5h-5.4z"/><path class="b" d="m91.5 14c0 0.3-0.3 0.6-0.5 0.6v-0.6z"/><path class="b" d="m96.4 14v0.6c-0.3 0-0.5-0.3-0.5-0.6z"/><path class="b" d="m91.5 19.5h-0.5v-0.5c0.2 0 0.5 0.2 0.5 0.5z"/><path class="b" d="m96.4 19v0.5h-0.5c0-0.3 0.2-0.5 0.5-0.5z"/><path class="b" d="m94.2 16.8c0 0.3-0.2 0.5-0.5 0.5-0.3 0-0.6-0.2-0.6-0.5 0-0.3 0.3-0.6 0.6-0.6 0.3 0 0.5 0.3 0.5 0.6z"/></g><g clip-path="url(#cp97)"><path class="b" d="m91 19.5h5.4v5.5h-5.4z"/><path class="b" d="m91.5 19.5c0 0.3-0.3 0.6-0.5 0.6v-0.6z"/><path class="b" d="m96.4 19.5v0.6c-0.3 0-0.5-0.3-0.5-0.6z"/><path class="b" d="m91.5 25h-0.5v-0.6c0.2 0 0.5 0.3 0.5 0.6z"/><path class="b" d="m96.4 24.4v0.6h-0.5c0-0.3 0.2-0.6 0.5-0.6z"/><path class="b" d="m94.2 22.2c0 0.3-0.2 0.6-0.5 0.6-0.3 0-0.6-0.3-0.6-0.6 0-0.3 0.3-0.5 0.6-0.5 0.3 0 0.5 0.2 0.5 0.5z"/></g><g clip-path="url(#cp98)"><path class="b" d="m91 25h5.4v5.4h-5.4z"/><path class="b" d="m91.5 25c0 0.3-0.3 0.5-0.5 0.5v-0.5z"/><path class="b" d="m96.4 25v0.5c-0.3 0-0.5-0.2-0.5-0.5z"/><path class="b" d="m91.5 30.4l-0.5 0.1v-0.6c0.2 0 0.5 0.2 0.5 0.6z"/><path class="b" d="m96.4 29.9v0.6h-0.5c0-0.4 0.2-0.6 0.5-0.6z"/><path class="b" d="m94.2 27.7c0 0.3-0.2 0.6-0.5 0.6-0.3 0-0.6-0.3-0.6-0.6 0-0.3 0.3-0.5 0.6-0.5 0.3 0 0.5 0.2 0.5 0.5z"/></g><g clip-path="url(#cp99)"><path class="b" d="m91 30.4l5.4 0.1v5.4h-5.4z"/><path class="b" d="m91.5 30.4c0 0.3-0.3 0.6-0.5 0.6v-0.5z"/><path class="b" d="m96.4 30.4v0.6c-0.3 0-0.5-0.3-0.5-0.5z"/><path class="b" d="m91.5 35.9h-0.5v-0.5c0.2 0 0.5 0.2 0.5 0.5z"/><path class="b" d="m96.4 35.4v0.5h-0.5c0-0.3 0.2-0.5 0.5-0.5z"/><path class="b" d="m94.2 33.2c0 0.3-0.2 0.5-0.5 0.5-0.3 0-0.6-0.2-0.6-0.5 0-0.3 0.3-0.6 0.6-0.6 0.3 0 0.5 0.3 0.5 0.6z"/></g><g clip-path="url(#cp100)"><path class="b" d="m91 35.9h5.4v5.5h-5.4z"/><path class="b" d="m91.5 35.9c0 0.3-0.3 0.6-0.5 0.6v-0.6z"/><path class="b" d="m96.4 35.9v0.6c-0.3 0-0.5-0.3-0.5-0.6z"/><path class="b" d="m91.5 41.4h-0.5v-0.5c0.2 0 0.5 0.2 0.5 0.5z"/><path class="b" d="m96.4 40.9v0.5h-0.5c0-0.3 0.2-0.5 0.5-0.5z"/><path class="b" d="m94.2 38.6c0 0.3-0.2 0.6-0.5 0.6-0.3 0-0.6-0.2-0.6-0.6 0-0.3 0.3-0.5 0.6-0.5 0.3 0 0.5 0.3 0.5 0.5z"/></g><g clip-path="url(#cp101)"><path class="b" d="m91 41.4h5.4v5.5h-5.4z"/><path class="b" d="m91.5 41.4c0 0.3-0.3 0.5-0.5 0.5v-0.5z"/><path class="b" d="m96.4 41.4v0.5c-0.3 0-0.5-0.2-0.5-0.5z"/><path class="b" d="m91.5 46.9h-0.5v-0.6c0.2 0 0.5 0.2 0.5 0.6z"/><path class="b" d="m96.4 46.3v0.6h-0.5c0-0.4 0.2-0.6 0.5-0.6z"/><path class="b" d="m94.2 44.1c0 0.3-0.2 0.6-0.5 0.6-0.3 0-0.6-0.3-0.6-0.6 0-0.3 0.3-0.5 0.6-0.5 0.3 0 0.5 0.2 0.5 0.5z"/></g><g clip-path="url(#cp102)"><path class="b" d="m91 46.9h5.4v5.4h-5.4z"/><path class="b" d="m91.5 46.9c0 0.2-0.3 0.5-0.5 0.5v-0.5z"/><path class="b" d="m96.4 46.9v0.5c-0.3 0-0.5-0.3-0.5-0.5z"/><path class="b" d="m91.5 52.3h-0.5v-0.5c0.2 0 0.5 0.2 0.5 0.5z"/><path class="b" d="m96.4 51.8v0.5h-0.5c0-0.3 0.2-0.5 0.5-0.5z"/><path class="b" d="m94.2 49.6c0 0.3-0.2 0.5-0.5 0.5-0.3 0-0.6-0.2-0.6-0.5 0-0.3 0.3-0.6 0.6-0.6 0.3 0 0.5 0.3 0.5 0.6z"/></g><g clip-path="url(#cp103)"><path class="b" d="m91 52.3h5.4v5.5h-5.4z"/><path class="b" d="m91.5 52.3c0 0.3-0.3 0.6-0.5 0.6v-0.6z"/><path class="b" d="m96.4 52.3v0.6c-0.3 0-0.5-0.3-0.5-0.6z"/><path class="b" d="m91.5 57.8h-0.5v-0.5c0.2 0 0.5 0.2 0.5 0.5z"/><path class="b" d="m96.4 57.3v0.5h-0.5c0-0.3 0.2-0.5 0.5-0.5z"/><path class="b" d="m94.2 55.1c0 0.3-0.2 0.5-0.5 0.5-0.3 0-0.6-0.2-0.6-0.5 0-0.3 0.3-0.6 0.6-0.6 0.3 0 0.5 0.3 0.5 0.6z"/></g><g clip-path="url(#cp104)"><path class="b" d="m85.5 3.1h5.5v5.5h-5.5z"/><path class="b" d="m86 3.1c0 0.3-0.2 0.6-0.5 0.6v-0.6z"/><path class="b" d="m91 3.1v0.6c-0.4 0-0.6-0.3-0.6-0.6z"/><path class="b" d="m86 8.6h-0.5v-0.6c0.3 0 0.5 0.2 0.5 0.6z"/><path class="b" d="m91 8v0.6h-0.6c0-0.4 0.2-0.6 0.6-0.6z"/><path class="b" d="m88.8 5.8c0 0.3-0.3 0.6-0.6 0.6-0.3 0-0.5-0.3-0.5-0.6 0-0.3 0.2-0.5 0.5-0.5 0.3 0 0.6 0.2 0.6 0.5z"/></g><g clip-path="url(#cp105)"><path class="b" d="m85.5 8.6h5.5v5.4h-5.5z"/><path class="b" d="m86 8.6c0 0.2-0.2 0.5-0.5 0.5v-0.5z"/><path class="b" d="m91 8.6v0.5c-0.4 0-0.6-0.2-0.6-0.5z"/><path class="b" d="m86 14h-0.5v-0.5c0.3 0 0.5 0.2 0.5 0.5z"/><path class="b" d="m91 13.5v0.5h-0.6c0-0.3 0.2-0.5 0.6-0.5z"/><path class="b" d="m88.2 11.8c-0.3 0-0.5-0.2-0.5-0.5 0-0.3 0.2-0.6 0.5-0.6 0.3 0 0.5 0.3 0.5 0.6 0 0.3-0.2 0.5-0.5 0.5z"/></g><g clip-path="url(#cp106)"><path class="b" d="m85.5 14h5.5v5.5h-5.5z"/><path class="b" d="m86 14c0 0.3-0.2 0.6-0.5 0.6v-0.6z"/><path class="b" d="m91 14v0.6c-0.4 0-0.6-0.3-0.6-0.6z"/><path class="b" d="m86 19.5h-0.5v-0.5c0.3 0 0.5 0.2 0.5 0.5z"/><path class="b" d="m91 19v0.5h-0.6c0-0.3 0.2-0.5 0.6-0.5z"/><path class="b" d="m88.8 16.8c0 0.3-0.3 0.5-0.6 0.5-0.3 0-0.5-0.2-0.5-0.5 0-0.3 0.2-0.6 0.5-0.6 0.3 0 0.6 0.3 0.6 0.6z"/></g><g clip-path="url(#cp107)"><path class="b" d="m85.5 19.5h5.5v5.5h-5.5z"/><path class="b" d="m86 19.5c0 0.3-0.2 0.6-0.5 0.6v-0.6z"/><path class="b" d="m91 19.5v0.6c-0.4 0-0.6-0.3-0.6-0.6z"/><path class="b" d="m86 25h-0.5v-0.6c0.3 0 0.5 0.3 0.5 0.6z"/><path class="b" d="m91 24.4v0.6h-0.6c0-0.3 0.2-0.6 0.6-0.6z"/><path class="b" d="m88.8 22.2c0 0.3-0.3 0.6-0.6 0.6-0.3 0-0.5-0.3-0.5-0.6 0-0.3 0.2-0.5 0.5-0.5 0.3 0 0.6 0.2 0.6 0.5z"/></g><g clip-path="url(#cp108)"><path class="b" d="m85.5 25h5.5v5.4h-5.5z"/><path class="b" d="m86 25c0 0.3-0.2 0.5-0.5 0.5v-0.5z"/><path class="b" d="m91 25v0.5c-0.4 0-0.6-0.2-0.6-0.5z"/><path class="b" d="m86 30.4l-0.5 0.1v-0.6c0.3 0 0.5 0.2 0.5 0.6z"/><path class="b" d="m91 29.9v0.6h-0.6c0-0.4 0.2-0.6 0.6-0.6z"/><path class="b" d="m88.8 27.7c0 0.3-0.3 0.6-0.6 0.6-0.3 0-0.5-0.3-0.5-0.6 0-0.3 0.2-0.5 0.5-0.5 0.3 0 0.6 0.2 0.6 0.5z"/></g><g clip-path="url(#cp109)"><path class="b" d="m85.5 30.4l5.5 0.1v5.4h-5.5z"/><path class="b" d="m86 30.4c0 0.3-0.2 0.6-0.5 0.6v-0.5z"/><path class="b" d="m91 30.4v0.6c-0.4 0-0.6-0.3-0.6-0.5z"/><path class="b" d="m86 35.9h-0.5v-0.5c0.3 0 0.5 0.2 0.5 0.5z"/><path class="b" d="m91 35.4v0.5h-0.6c0-0.3 0.2-0.5 0.6-0.5z"/><path class="b" d="m88.8 33.2c0 0.3-0.3 0.5-0.6 0.5-0.3 0-0.5-0.2-0.5-0.5 0-0.3 0.2-0.6 0.5-0.6 0.3 0 0.6 0.3 0.6 0.6z"/></g><g clip-path="url(#cp110)"><path class="b" d="m85.5 35.9h5.5v5.5h-5.5z"/><path class="b" d="m86 35.9c0 0.3-0.2 0.6-0.5 0.6v-0.6z"/><path class="b" d="m91 35.9v0.6c-0.4 0-0.6-0.3-0.6-0.6z"/><path class="b" d="m86 41.4h-0.5v-0.5c0.3 0 0.5 0.2 0.5 0.5z"/><path class="b" d="m91 40.9v0.5h-0.6c0-0.3 0.2-0.5 0.6-0.5z"/><path class="b" d="m88.2 39.2c-0.3 0-0.5-0.2-0.5-0.5 0-0.4 0.2-0.6 0.5-0.6 0.3 0 0.5 0.2 0.5 0.6 0 0.3-0.2 0.5-0.5 0.5z"/></g><g clip-path="url(#cp111)"><path class="b" d="m85.5 41.4h5.5v5.5h-5.5z"/><path class="b" d="m86 41.4c0 0.3-0.2 0.5-0.5 0.5v-0.5z"/><path class="b" d="m91 41.4v0.5c-0.4 0-0.6-0.2-0.6-0.5z"/><path class="b" d="m86 46.9h-0.5v-0.6c0.3 0 0.5 0.2 0.5 0.6z"/><path class="b" d="m91 46.3v0.6h-0.6c0-0.4 0.2-0.6 0.6-0.6z"/><path class="b" d="m88.8 44.1c0 0.3-0.3 0.6-0.6 0.6-0.3 0-0.5-0.3-0.5-0.6 0-0.3 0.2-0.5 0.5-0.5 0.3 0 0.6 0.2 0.6 0.5z"/></g><g clip-path="url(#cp112)"><path class="b" d="m85.5 46.9h5.5v5.4h-5.5z"/><path class="b" d="m86 46.9c0 0.2-0.2 0.5-0.5 0.5v-0.5z"/><path class="b" d="m91 46.9v0.5c-0.4 0-0.6-0.3-0.6-0.5z"/><path class="b" d="m86 52.3h-0.5v-0.5c0.3 0 0.5 0.2 0.5 0.5z"/><path class="b" d="m91 51.8v0.5h-0.6c0-0.3 0.2-0.5 0.6-0.5z"/><path class="b" d="m88.2 50.1c-0.3 0-0.5-0.2-0.5-0.5 0-0.3 0.2-0.6 0.5-0.6 0.3 0 0.5 0.3 0.5 0.6 0 0.3-0.2 0.5-0.5 0.5z"/></g><g clip-path="url(#cp113)"><path class="b" d="m85.5 52.3h5.5v5.5h-5.5z"/><path class="b" d="m86 52.3c0 0.3-0.2 0.6-0.5 0.6v-0.6z"/><path class="b" d="m91 52.3v0.6c-0.4 0-0.6-0.3-0.6-0.6z"/><path class="b" d="m86 57.8h-0.5v-0.5c0.3 0 0.5 0.2 0.5 0.5z"/><path class="b" d="m91 57.3v0.5h-0.6c0-0.3 0.2-0.5 0.6-0.5z"/><path class="b" d="m88.8 55.1c0 0.3-0.3 0.5-0.6 0.5-0.3 0-0.5-0.2-0.5-0.5 0-0.3 0.2-0.6 0.5-0.6 0.3 0 0.6 0.3 0.6 0.6z"/></g><g clip-path="url(#cp114)"><path class="b" d="m80 3.1h5.5v5.5h-5.5z"/><path class="b" d="m80.5 3.1c0 0.3-0.2 0.6-0.5 0.6v-0.6z"/><path class="b" d="m85.5 3.1v0.6c-0.3 0-0.6-0.3-0.6-0.6z"/><path class="b" d="m80.5 8.6h-0.5v-0.6c0.3 0 0.5 0.2 0.5 0.6z"/><path class="b" d="m85.5 8v0.6h-0.6c0-0.4 0.3-0.6 0.6-0.6z"/><path class="b" d="m83.3 5.8c0 0.3-0.3 0.6-0.6 0.6-0.3 0-0.5-0.3-0.5-0.6 0-0.3 0.2-0.5 0.5-0.5 0.3 0 0.6 0.2 0.6 0.5z"/></g><g clip-path="url(#cp115)"><path class="b" d="m80 8.6h5.5v5.4h-5.5z"/><path class="b" d="m80.5 8.6c0 0.2-0.2 0.5-0.5 0.5v-0.5z"/><path class="b" d="m85.5 8.6v0.5c-0.3 0-0.6-0.2-0.6-0.5z"/><path class="b" d="m80.5 14h-0.5v-0.5c0.3 0 0.5 0.2 0.5 0.5z"/><path class="b" d="m85.5 13.5v0.5h-0.6c0-0.3 0.3-0.5 0.6-0.5z"/><path class="b" d="m83.3 11.3c0 0.3-0.3 0.5-0.6 0.5-0.3 0-0.5-0.2-0.5-0.5 0-0.3 0.2-0.6 0.5-0.6 0.3 0 0.6 0.3 0.6 0.6z"/></g><g clip-path="url(#cp116)"><path class="b" d="m80 14h5.5v5.5h-5.5z"/><path class="b" d="m80.5 14c0 0.3-0.2 0.6-0.5 0.6v-0.6z"/><path class="b" d="m85.5 14v0.6c-0.3 0-0.6-0.3-0.6-0.6z"/><path class="b" d="m80.5 19.5h-0.5v-0.5c0.3 0 0.5 0.2 0.5 0.5z"/><path class="b" d="m85.5 19v0.5h-0.6c0-0.3 0.3-0.5 0.6-0.5z"/><path class="b" d="m83.3 16.8c0 0.3-0.3 0.5-0.6 0.5-0.3 0-0.5-0.2-0.5-0.5 0-0.3 0.2-0.6 0.5-0.6 0.3 0 0.6 0.3 0.6 0.6z"/></g><g clip-path="url(#cp117)"><path class="b" d="m80 19.5h5.5v5.5h-5.5z"/><path class="b" d="m80.5 19.5c0 0.3-0.2 0.6-0.5 0.6v-0.6z"/><path class="b" d="m85.5 19.5v0.6c-0.3 0-0.6-0.3-0.6-0.6z"/><path class="b" d="m80.5 25h-0.5v-0.6c0.3 0 0.5 0.3 0.5 0.6z"/><path class="b" d="m85.5 24.4v0.6h-0.6c0-0.3 0.3-0.6 0.6-0.6z"/><path class="b" d="m83.3 22.2c0 0.3-0.3 0.6-0.6 0.6-0.3 0-0.5-0.3-0.5-0.6 0-0.3 0.2-0.5 0.5-0.5 0.3 0 0.6 0.2 0.6 0.5z"/></g><g clip-path="url(#cp118)"><path class="b" d="m80 25h5.5v5.4h-5.5z"/><path class="b" d="m80.5 25c0 0.3-0.2 0.5-0.5 0.5v-0.5z"/><path class="b" d="m85.5 25v0.5c-0.3 0-0.6-0.2-0.6-0.5z"/><path class="b" d="m80.5 30.4l-0.5 0.1v-0.6c0.3 0 0.5 0.2 0.5 0.6z"/><path class="b" d="m85.5 29.9v0.6h-0.6c0-0.4 0.3-0.6 0.6-0.6z"/><path class="b" d="m83.3 27.7c0 0.3-0.3 0.6-0.6 0.6-0.3 0-0.5-0.3-0.5-0.6 0-0.3 0.2-0.5 0.5-0.5 0.3 0 0.6 0.2 0.6 0.5z"/></g><g clip-path="url(#cp119)"><path class="b" d="m80 30.4l5.5 0.1v5.4h-5.5z"/><path class="b" d="m80.5 30.4c0 0.3-0.2 0.6-0.5 0.6v-0.5z"/><path class="b" d="m85.5 30.4v0.6c-0.3 0-0.6-0.3-0.6-0.5z"/><path class="b" d="m80.5 35.9h-0.5v-0.5c0.3 0 0.5 0.2 0.5 0.5z"/><path class="b" d="m85.5 35.4v0.5h-0.6c0-0.3 0.3-0.5 0.6-0.5z"/><path class="b" d="m83.3 33.2c0 0.3-0.3 0.5-0.6 0.5-0.3 0-0.5-0.2-0.5-0.5 0-0.3 0.2-0.6 0.5-0.6 0.3 0 0.6 0.3 0.6 0.6z"/></g><g clip-path="url(#cp120)"><path class="b" d="m80 35.9h5.5v5.5h-5.5z"/><path class="b" d="m80.5 35.9c0 0.3-0.2 0.6-0.5 0.6v-0.6z"/><path class="b" d="m85.5 35.9v0.6c-0.3 0-0.6-0.3-0.6-0.6z"/><path class="b" d="m80.5 41.4h-0.5v-0.5c0.3 0 0.5 0.2 0.5 0.5z"/><path class="b" d="m85.5 40.9v0.5h-0.6c0-0.3 0.3-0.5 0.6-0.5z"/><path class="b" d="m83.3 38.6c0 0.3-0.3 0.6-0.6 0.6-0.3 0-0.5-0.2-0.5-0.6 0-0.3 0.2-0.5 0.5-0.5 0.3 0 0.6 0.3 0.6 0.5z"/></g><g clip-path="url(#cp121)"><path class="b" d="m80 41.4h5.5v5.5h-5.5z"/><path class="b" d="m80.5 41.4c0 0.3-0.2 0.5-0.5 0.5v-0.5z"/><path class="b" d="m85.5 41.4v0.5c-0.3 0-0.6-0.2-0.6-0.5z"/><path class="b" d="m80.5 46.9h-0.5v-0.6c0.3 0 0.5 0.2 0.5 0.6z"/><path class="b" d="m85.5 46.3v0.6h-0.6c0-0.4 0.3-0.6 0.6-0.6z"/><path class="b" d="m83.3 44.1c0 0.3-0.3 0.6-0.6 0.6-0.3 0-0.5-0.3-0.5-0.6 0-0.3 0.2-0.5 0.5-0.5 0.3 0 0.6 0.2 0.6 0.5z"/></g><g clip-path="url(#cp122)"><path class="b" d="m80 46.9h5.5v5.4h-5.5z"/><path class="b" d="m80.5 46.9c0 0.2-0.2 0.5-0.5 0.5v-0.5z"/><path class="b" d="m85.5 46.9v0.5c-0.3 0-0.6-0.3-0.6-0.5z"/><path class="b" d="m80.5 52.3h-0.5v-0.5c0.3 0 0.5 0.2 0.5 0.5z"/><path class="b" d="m85.5 51.8v0.5h-0.6c0-0.3 0.3-0.5 0.6-0.5z"/><path class="b" d="m83.3 49.6c0 0.3-0.3 0.5-0.6 0.5-0.3 0-0.5-0.2-0.5-0.5 0-0.3 0.2-0.6 0.5-0.6 0.3 0 0.6 0.3 0.6 0.6z"/></g><g clip-path="url(#cp123)"><path class="b" d="m80 52.3h5.5v5.5h-5.5z"/><path class="b" d="m80.5 52.3c0 0.3-0.2 0.6-0.5 0.6v-0.6z"/><path class="b" d="m85.5 52.3v0.6c-0.3 0-0.6-0.3-0.6-0.6z"/><path class="b" d="m80.5 57.8h-0.5v-0.5c0.3 0 0.5 0.2 0.5 0.5z"/><path class="b" d="m85.5 57.3v0.5h-0.6c0-0.3 0.3-0.5 0.6-0.5z"/><path class="b" d="m83.3 55.1c0 0.3-0.3 0.5-0.6 0.5-0.3 0-0.5-0.2-0.5-0.5 0-0.3 0.2-0.6 0.5-0.6 0.3 0 0.6 0.3 0.6 0.6z"/></g><path fill-rule="evenodd" class="c" d="m113.4 54.2h-31.7v-10.9l0.2-0.2 16.9-18.4c1.7-1.8 2.2-2.8 2.2-4.4 0-2.3-1.2-3.5-3.4-3.5-2.4 0-3.4 1-3.5 3.7v0.8h-12.4v-0.9c0.1-2.8 0.3-4.1 1.1-6 2.4-5.6 7.9-9 14.9-9 9.4 0 15.7 6 15.7 14.9 0 4.5-1.3 7-6 12.1l-9.9 10.4h15.9zm-30.1-1.6h28.4v-8.1h-18l12.5-13.2c4.5-4.7 5.5-6.9 5.5-11 0-7.9-5.6-13.2-14-13.2-6.3 0-11.3 3-13.4 8-0.6 1.4-0.8 2.4-0.9 4.6h9.1q0.6-4.5 5.1-4.5c3.1 0 5 2 5 5.2 0 2-0.6 3.3-2.5 5.5l-16.8 18.1z"/></svg>