<svg xmlns="http://www.w3.org/2000/svg" xmlns:xlink="http://www.w3.org/1999/xlink" viewBox="0 0 48.44 75.6"><defs><style>.cls-1{fill:none;}.cls-2{fill:#f3f3f5;}.cls-3{clip-path:url(#clip-path);}.cls-4{fill:#00abc8;}.cls-5{fill:#0075a2;}</style><clipPath id="clip-path" transform="translate(0.16 4.58)"><path class="cls-1" d="M24.48,21.62c11.23,0,17.92,7.84,17.92,21,0,8.38-1.61,12.93-5.88,17-3.75,3.57-8.74,5.44-14.72,5.44s-11.5-2-15.06-5.53a17.62,17.62,0,0,1-4.55-7.67,32.13,32.13,0,0,1-1-6.68H15.83c.62,4.72,2.41,6.68,6,6.68,4.19,0,6-2.76,6-9s-1.87-9-6-9c-3.12,0-4.72,1.25-6,4.55H2.37V1.12H41.06V14.31H15.66v9.81A15.23,15.23,0,0,1,24.48,21.62Z"/></clipPath></defs><g id="Layer_2" data-name="Layer 2"><g id="Section_2" data-name="Section 2"><path class="cls-2" d="M30.37,27.51c11.23,0,17.91,7.84,17.91,21,0,8.37-1.6,12.92-5.88,17C38.66,69.14,33.66,71,27.69,71s-11.5-2-15.06-5.53a17.55,17.55,0,0,1-4.56-7.66,32.13,32.13,0,0,1-1-6.69H21.71c.63,4.73,2.41,6.69,6,6.69,4.19,0,6-2.77,6-9s-1.87-9-6-9c-3.12,0-4.73,1.24-6,4.54H8.26V7H47V20.19H21.54V30A15.35,15.35,0,0,1,30.37,27.51Z" transform="translate(0.16 4.58)"/><g class="cls-3"><rect class="cls-4" x="37.17" width="7.43" height="7.43"/><path class="cls-4" d="M37.75-4.58a.8.8,0,0,1-.74.74v-.74Z" transform="translate(0.16 4.58)"/><path class="cls-4" d="M44.44-4.58v.74a.74.74,0,0,1-.74-.74Z" transform="translate(0.16 4.58)"/><path class="cls-4" d="M37.75,2.85H37V2.11A.74.74,0,0,1,37.75,2.85Z" transform="translate(0.16 4.58)"/><path class="cls-4" d="M44.44,2.11v.74H43.7A.7.7,0,0,1,44.44,2.11Z" transform="translate(0.16 4.58)"/><path class="cls-4" d="M41.45-.89a.75.75,0,0,1-.74.75A.75.75,0,0,1,40-.89a.74.74,0,0,1,.74-.74A.74.74,0,0,1,41.45-.89Z" transform="translate(0.16 4.58)"/><rect class="cls-4" x="37.17" y="7.43" width="7.43" height="7.43"/><path class="cls-4" d="M37.75,2.85a.8.8,0,0,1-.74.74V2.85Z" transform="translate(0.16 4.58)"/><path class="cls-4" d="M44.44,2.85v.74a.74.74,0,0,1-.74-.74Z" transform="translate(0.16 4.58)"/><path class="cls-4" d="M37.75,10.28H37V9.54A.74.74,0,0,1,37.75,10.28Z" transform="translate(0.16 4.58)"/><path class="cls-4" d="M44.44,9.54v.74H43.7A.7.7,0,0,1,44.44,9.54Z" transform="translate(0.16 4.58)"/><path class="cls-4" d="M41.45,6.55a.74.74,0,1,1-1.48,0,.74.74,0,1,1,1.48,0Z" transform="translate(0.16 4.58)"/><rect class="cls-4" x="37.17" y="14.87" width="7.43" height="7.43"/><path class="cls-4" d="M37.75,10.28A.81.81,0,0,1,37,11v-.75Z" transform="translate(0.16 4.58)"/><path class="cls-4" d="M44.44,10.28V11a.75.75,0,0,1-.74-.75Z" transform="translate(0.16 4.58)"/><path class="cls-4" d="M37.75,17.72H37V17A.75.75,0,0,1,37.75,17.72Z" transform="translate(0.16 4.58)"/><path class="cls-4" d="M44.44,17v.75H43.7A.71.71,0,0,1,44.44,17Z" transform="translate(0.16 4.58)"/><path class="cls-4" d="M41.45,14a.74.74,0,1,1-.74-.74A.74.74,0,0,1,41.45,14Z" transform="translate(0.16 4.58)"/><rect class="cls-4" x="37.17" y="22.3" width="7.43" height="7.43"/><path class="cls-4" d="M37.75,17.72a.8.8,0,0,1-.74.74v-.74Z" transform="translate(0.16 4.58)"/><path class="cls-4" d="M44.44,17.72v.74a.74.74,0,0,1-.74-.74Z" transform="translate(0.16 4.58)"/><path class="cls-4" d="M37.75,25.15H37v-.74A.74.74,0,0,1,37.75,25.15Z" transform="translate(0.16 4.58)"/><path class="cls-4" d="M44.44,24.41v.74H43.7A.7.7,0,0,1,44.44,24.41Z" transform="translate(0.16 4.58)"/><path class="cls-4" d="M41.45,21.42a.74.74,0,1,1-.74-.75A.74.74,0,0,1,41.45,21.42Z" transform="translate(0.16 4.58)"/><rect class="cls-4" x="37.17" y="29.73" width="7.43" height="7.43"/><path class="cls-4" d="M37.75,25.15a.8.8,0,0,1-.74.74v-.74Z" transform="translate(0.16 4.58)"/><path class="cls-4" d="M44.44,25.15v.74a.74.74,0,0,1-.74-.74Z" transform="translate(0.16 4.58)"/><path class="cls-4" d="M37.75,32.58H37v-.74A.74.74,0,0,1,37.75,32.58Z" transform="translate(0.16 4.58)"/><path class="cls-4" d="M44.44,31.84v.74H43.7A.7.7,0,0,1,44.44,31.84Z" transform="translate(0.16 4.58)"/><path class="cls-4" d="M41.45,28.85a.74.74,0,1,1-.74-.74A.74.74,0,0,1,41.45,28.85Z" transform="translate(0.16 4.58)"/><rect class="cls-4" x="37.17" y="37.17" width="7.43" height="7.43"/><path class="cls-4" d="M37.75,32.58a.8.8,0,0,1-.74.75v-.75Z" transform="translate(0.16 4.58)"/><path class="cls-4" d="M44.44,32.58v.75a.75.75,0,0,1-.74-.75Z" transform="translate(0.16 4.58)"/><path class="cls-4" d="M37.75,40H37v-.75A.75.75,0,0,1,37.75,40Z" transform="translate(0.16 4.58)"/><path class="cls-4" d="M44.44,39.27V40H43.7A.71.71,0,0,1,44.44,39.27Z" transform="translate(0.16 4.58)"/><path class="cls-4" d="M41.45,36.28a.74.74,0,1,1-1.48,0,.74.74,0,1,1,1.48,0Z" transform="translate(0.16 4.58)"/><rect class="cls-4" x="37.17" y="44.6" width="7.43" height="7.43"/><path class="cls-4" d="M37.75,40a.8.8,0,0,1-.74.74V40Z" transform="translate(0.16 4.58)"/><path class="cls-4" d="M44.44,40v.74A.74.74,0,0,1,43.7,40Z" transform="translate(0.16 4.58)"/><path class="cls-4" d="M37.75,47.45H37v-.74A.74.74,0,0,1,37.75,47.45Z" transform="translate(0.16 4.58)"/><path class="cls-4" d="M44.44,46.71v.74H43.7A.7.7,0,0,1,44.44,46.71Z" transform="translate(0.16 4.58)"/><path class="cls-4" d="M41.45,43.72a.74.74,0,1,1-1.48,0,.74.74,0,1,1,1.48,0Z" transform="translate(0.16 4.58)"/><rect class="cls-4" x="37.17" y="52.04" width="7.43" height="7.43"/><path class="cls-4" d="M37.75,47.45a.81.81,0,0,1-.74.75v-.75Z" transform="translate(0.16 4.58)"/><path class="cls-4" d="M44.44,47.45v.75a.75.75,0,0,1-.74-.75Z" transform="translate(0.16 4.58)"/><path class="cls-4" d="M37.75,54.89H37v-.75A.75.75,0,0,1,37.75,54.89Z" transform="translate(0.16 4.58)"/><path class="cls-4" d="M44.44,54.14v.75H43.7A.71.71,0,0,1,44.44,54.14Z" transform="translate(0.16 4.58)"/><path class="cls-4" d="M41.45,51.15a.74.74,0,1,1-.74-.74A.74.74,0,0,1,41.45,51.15Z" transform="translate(0.16 4.58)"/><rect class="cls-4" x="37.17" y="59.47" width="7.43" height="7.43"/><path class="cls-4" d="M37.75,54.89a.8.8,0,0,1-.74.74v-.74Z" transform="translate(0.16 4.58)"/><path class="cls-4" d="M44.44,54.89v.74a.74.74,0,0,1-.74-.74Z" transform="translate(0.16 4.58)"/><path class="cls-4" d="M37.75,62.32H37v-.74A.74.74,0,0,1,37.75,62.32Z" transform="translate(0.16 4.58)"/><path class="cls-4" d="M44.44,61.58v.74H43.7A.7.7,0,0,1,44.44,61.58Z" transform="translate(0.16 4.58)"/><path class="cls-4" d="M41.45,58.58a.74.74,0,1,1-1.48,0,.74.74,0,1,1,1.48,0Z" transform="translate(0.16 4.58)"/><rect class="cls-4" x="37.17" y="66.9" width="7.43" height="7.43"/><path class="cls-4" d="M37.75,62.32a.8.8,0,0,1-.74.74v-.74Z" transform="translate(0.16 4.58)"/><path class="cls-4" d="M44.44,62.32v.74a.74.74,0,0,1-.74-.74Z" transform="translate(0.16 4.58)"/><path class="cls-4" d="M37.75,69.75H37V69A.74.74,0,0,1,37.75,69.75Z" transform="translate(0.16 4.58)"/><path class="cls-4" d="M44.44,69v.74H43.7A.7.7,0,0,1,44.44,69Z" transform="translate(0.16 4.58)"/><path class="cls-4" d="M41.45,66A.74.74,0,1,1,40,66a.74.74,0,1,1,1.48,0Z" transform="translate(0.16 4.58)"/><rect class="cls-4" x="29.73" width="7.43" height="7.43"/><path class="cls-4" d="M30.32-4.58a.8.8,0,0,1-.74.74v-.74Z" transform="translate(0.16 4.58)"/><path class="cls-4" d="M37-4.58v.74a.74.74,0,0,1-.74-.74Z" transform="translate(0.16 4.58)"/><path class="cls-4" d="M30.32,2.85h-.74V2.11A.74.74,0,0,1,30.32,2.85Z" transform="translate(0.16 4.58)"/><path class="cls-4" d="M37,2.11v.74h-.74A.69.69,0,0,1,37,2.11Z" transform="translate(0.16 4.58)"/><circle class="cls-4" cx="33.44" cy="3.7" r="0.74"/><rect class="cls-4" x="29.73" y="7.43" width="7.43" height="7.43"/><path class="cls-4" d="M30.32,2.85a.8.8,0,0,1-.74.74V2.85Z" transform="translate(0.16 4.58)"/><path class="cls-4" d="M37,2.85v.74a.74.74,0,0,1-.74-.74Z" transform="translate(0.16 4.58)"/><path class="cls-4" d="M30.32,10.28h-.74V9.54A.74.74,0,0,1,30.32,10.28Z" transform="translate(0.16 4.58)"/><path class="cls-4" d="M37,9.54v.74h-.74A.7.7,0,0,1,37,9.54Z" transform="translate(0.16 4.58)"/><path class="cls-4" d="M34,6.55a.74.74,0,0,1-.74.74.75.75,0,0,1-.75-.74.76.76,0,0,1,.75-.75A.75.75,0,0,1,34,6.55Z" transform="translate(0.16 4.58)"/><rect class="cls-4" x="29.73" y="14.87" width="7.43" height="7.43"/><path class="cls-4" d="M30.32,10.28a.81.81,0,0,1-.74.75v-.75Z" transform="translate(0.16 4.58)"/><path class="cls-4" d="M37,10.28V11a.75.75,0,0,1-.74-.75Z" transform="translate(0.16 4.58)"/><path class="cls-4" d="M30.32,17.72h-.74V17A.75.75,0,0,1,30.32,17.72Z" transform="translate(0.16 4.58)"/><path class="cls-4" d="M37,17v.75h-.74A.7.7,0,0,1,37,17Z" transform="translate(0.16 4.58)"/><circle class="cls-4" cx="33.44" cy="18.57" r="0.74"/><rect class="cls-4" x="29.73" y="22.3" width="7.43" height="7.43"/><path class="cls-4" d="M30.32,17.72a.8.8,0,0,1-.74.74v-.74Z" transform="translate(0.16 4.58)"/><path class="cls-4" d="M37,17.72v.74a.74.74,0,0,1-.74-.74Z" transform="translate(0.16 4.58)"/><path class="cls-4" d="M30.32,25.15h-.74v-.74A.74.74,0,0,1,30.32,25.15Z" transform="translate(0.16 4.58)"/><path class="cls-4" d="M37,24.41v.74h-.74A.69.69,0,0,1,37,24.41Z" transform="translate(0.16 4.58)"/><path class="cls-4" d="M34,21.42a.74.74,0,0,1-.74.74.75.75,0,1,1,.74-.74Z" transform="translate(0.16 4.58)"/><rect class="cls-4" x="29.73" y="29.73" width="7.43" height="7.43"/><path class="cls-4" d="M30.32,25.15a.8.8,0,0,1-.74.74v-.74Z" transform="translate(0.16 4.58)"/><path class="cls-4" d="M37,25.15v.74a.74.74,0,0,1-.74-.74Z" transform="translate(0.16 4.58)"/><path class="cls-4" d="M30.32,32.58h-.74v-.74A.74.74,0,0,1,30.32,32.58Z" transform="translate(0.16 4.58)"/><path class="cls-4" d="M37,31.84v.74h-.74A.7.7,0,0,1,37,31.84Z" transform="translate(0.16 4.58)"/><path class="cls-4" d="M34,28.85a.74.74,0,0,1-.74.74.74.74,0,1,1,0-1.48A.74.74,0,0,1,34,28.85Z" transform="translate(0.16 4.58)"/><rect class="cls-4" x="29.73" y="37.17" width="7.43" height="7.43"/><path class="cls-4" d="M30.32,32.58a.8.8,0,0,1-.74.75v-.75Z" transform="translate(0.16 4.58)"/><path class="cls-4" d="M37,32.58v.75a.74.74,0,0,1-.74-.75Z" transform="translate(0.16 4.58)"/><path class="cls-4" d="M30.32,40h-.74v-.75A.75.75,0,0,1,30.32,40Z" transform="translate(0.16 4.58)"/><path class="cls-4" d="M37,39.27V40h-.74A.7.7,0,0,1,37,39.27Z" transform="translate(0.16 4.58)"/><path class="cls-4" d="M34,36.28a.75.75,0,0,1-.74.75.76.76,0,0,1-.75-.75.75.75,0,0,1,.75-.74A.74.74,0,0,1,34,36.28Z" transform="translate(0.16 4.58)"/><rect class="cls-4" x="29.73" y="44.6" width="7.43" height="7.43"/><path class="cls-4" d="M30.32,40a.8.8,0,0,1-.74.74V40Z" transform="translate(0.16 4.58)"/><path class="cls-4" d="M37,40v.74a.74.74,0,0,1-.74-.74Z" transform="translate(0.16 4.58)"/><path class="cls-4" d="M30.32,47.45h-.74v-.74A.74.74,0,0,1,30.32,47.45Z" transform="translate(0.16 4.58)"/><path class="cls-4" d="M37,46.71v.74h-.74A.7.7,0,0,1,37,46.71Z" transform="translate(0.16 4.58)"/><path class="cls-4" d="M34,43.72a.74.74,0,0,1-.74.74.75.75,0,0,1-.75-.74.76.76,0,0,1,.75-.75A.75.75,0,0,1,34,43.72Z" transform="translate(0.16 4.58)"/><rect class="cls-4" x="29.73" y="52.04" width="7.43" height="7.43"/><path class="cls-4" d="M30.32,47.45a.81.81,0,0,1-.74.75v-.75Z" transform="translate(0.16 4.58)"/><path class="cls-4" d="M37,47.45v.75a.75.75,0,0,1-.74-.75Z" transform="translate(0.16 4.58)"/><path class="cls-4" d="M30.32,54.89h-.74v-.75A.75.75,0,0,1,30.32,54.89Z" transform="translate(0.16 4.58)"/><path class="cls-4" d="M37,54.14v.75h-.74A.7.7,0,0,1,37,54.14Z" transform="translate(0.16 4.58)"/><path class="cls-4" d="M34,51.15a.74.74,0,0,1-.74.74.74.74,0,1,1,0-1.48A.74.74,0,0,1,34,51.15Z" transform="translate(0.16 4.58)"/><rect class="cls-4" x="29.73" y="59.47" width="7.43" height="7.43"/><path class="cls-4" d="M30.32,54.89a.8.8,0,0,1-.74.74v-.74Z" transform="translate(0.16 4.58)"/><path class="cls-4" d="M37,54.89v.74a.74.74,0,0,1-.74-.74Z" transform="translate(0.16 4.58)"/><path class="cls-4" d="M30.32,62.32h-.74v-.74A.74.74,0,0,1,30.32,62.32Z" transform="translate(0.16 4.58)"/><path class="cls-4" d="M37,61.58v.74h-.74A.69.69,0,0,1,37,61.58Z" transform="translate(0.16 4.58)"/><path class="cls-4" d="M34,58.58a.75.75,0,0,1-.74.75.76.76,0,0,1-.75-.75.75.75,0,0,1,.75-.74A.74.74,0,0,1,34,58.58Z" transform="translate(0.16 4.58)"/><rect class="cls-4" x="29.73" y="66.9" width="7.43" height="7.43"/><path class="cls-4" d="M30.32,62.32a.8.8,0,0,1-.74.74v-.74Z" transform="translate(0.16 4.58)"/><path class="cls-4" d="M37,62.32v.74a.74.74,0,0,1-.74-.74Z" transform="translate(0.16 4.58)"/><path class="cls-4" d="M30.32,69.75h-.74V69A.74.74,0,0,1,30.32,69.75Z" transform="translate(0.16 4.58)"/><path class="cls-4" d="M37,69v.74h-.74A.7.7,0,0,1,37,69Z" transform="translate(0.16 4.58)"/><circle class="cls-4" cx="33.44" cy="70.6" r="0.74"/><rect class="cls-4" x="22.3" width="7.43" height="7.43"/><path class="cls-4" d="M22.89-4.58a.81.81,0,0,1-.75.74v-.74Z" transform="translate(0.16 4.58)"/><path class="cls-4" d="M29.58-4.58v.74a.75.75,0,0,1-.75-.74Z" transform="translate(0.16 4.58)"/><path class="cls-4" d="M22.89,2.85h-.75V2.11A.75.75,0,0,1,22.89,2.85Z" transform="translate(0.16 4.58)"/><path class="cls-4" d="M29.58,2.11v.74h-.75A.7.7,0,0,1,29.58,2.11Z" transform="translate(0.16 4.58)"/><path class="cls-4" d="M26.59-.89a.76.76,0,0,1-.75.75.75.75,0,0,1-.74-.75.74.74,0,0,1,.74-.74A.75.75,0,0,1,26.59-.89Z" transform="translate(0.16 4.58)"/><rect class="cls-4" x="22.3" y="7.43" width="7.43" height="7.43"/><path class="cls-4" d="M22.89,2.85a.81.81,0,0,1-.75.74V2.85Z" transform="translate(0.16 4.58)"/><path class="cls-4" d="M29.58,2.85v.74a.75.75,0,0,1-.75-.74Z" transform="translate(0.16 4.58)"/><path class="cls-4" d="M22.89,10.28h-.75V9.54A.75.75,0,0,1,22.89,10.28Z" transform="translate(0.16 4.58)"/><path class="cls-4" d="M29.58,9.54v.74h-.75A.71.71,0,0,1,29.58,9.54Z" transform="translate(0.16 4.58)"/><path class="cls-4" d="M26.59,6.55a.75.75,0,0,1-.75.74.74.74,0,0,1-.74-.74.75.75,0,0,1,.74-.75A.76.76,0,0,1,26.59,6.55Z" transform="translate(0.16 4.58)"/><rect class="cls-4" x="22.3" y="14.87" width="7.43" height="7.43"/><path class="cls-4" d="M22.89,10.28a.81.81,0,0,1-.75.75v-.75Z" transform="translate(0.16 4.58)"/><path class="cls-4" d="M29.58,10.28V11a.75.75,0,0,1-.75-.75Z" transform="translate(0.16 4.58)"/><path class="cls-4" d="M22.89,17.72h-.75V17A.75.75,0,0,1,22.89,17.72Z" transform="translate(0.16 4.58)"/><path class="cls-4" d="M29.58,17v.75h-.75A.71.71,0,0,1,29.58,17Z" transform="translate(0.16 4.58)"/><path class="cls-4" d="M26.59,14a.75.75,0,0,1-.75.74.74.74,0,1,1,0-1.48A.75.75,0,0,1,26.59,14Z" transform="translate(0.16 4.58)"/><rect class="cls-4" x="22.3" y="22.3" width="7.43" height="7.43"/><path class="cls-4" d="M22.89,17.72a.81.81,0,0,1-.75.74v-.74Z" transform="translate(0.16 4.58)"/><path class="cls-4" d="M29.58,17.72v.74a.75.75,0,0,1-.75-.74Z" transform="translate(0.16 4.58)"/><path class="cls-4" d="M22.89,25.15h-.75v-.74A.75.75,0,0,1,22.89,25.15Z" transform="translate(0.16 4.58)"/><path class="cls-4" d="M29.58,24.41v.74h-.75A.7.7,0,0,1,29.58,24.41Z" transform="translate(0.16 4.58)"/><path class="cls-4" d="M26.59,21.42a.75.75,0,0,1-.75.74.75.75,0,0,1,0-1.49A.75.75,0,0,1,26.59,21.42Z" transform="translate(0.16 4.58)"/><rect class="cls-4" x="22.3" y="29.73" width="7.43" height="7.43"/><path class="cls-4" d="M22.89,25.15a.81.81,0,0,1-.75.74v-.74Z" transform="translate(0.16 4.58)"/><path class="cls-4" d="M29.58,25.15v.74a.75.75,0,0,1-.75-.74Z" transform="translate(0.16 4.58)"/><path class="cls-4" d="M22.89,32.58h-.75v-.74A.75.75,0,0,1,22.89,32.58Z" transform="translate(0.16 4.58)"/><path class="cls-4" d="M29.58,31.84v.74h-.75A.71.71,0,0,1,29.58,31.84Z" transform="translate(0.16 4.58)"/><path class="cls-4" d="M26.59,28.85a.75.75,0,0,1-.75.74.74.74,0,1,1,0-1.48A.75.75,0,0,1,26.59,28.85Z" transform="translate(0.16 4.58)"/><rect class="cls-4" x="22.3" y="37.17" width="7.43" height="7.43"/><path class="cls-4" d="M22.89,32.58a.81.81,0,0,1-.75.75v-.75Z" transform="translate(0.16 4.58)"/><path class="cls-4" d="M29.58,32.58v.75a.75.75,0,0,1-.75-.75Z" transform="translate(0.16 4.58)"/><path class="cls-4" d="M22.89,40h-.75v-.75A.75.75,0,0,1,22.89,40Z" transform="translate(0.16 4.58)"/><path class="cls-4" d="M29.58,39.27V40h-.75A.71.71,0,0,1,29.58,39.27Z" transform="translate(0.16 4.58)"/><path class="cls-4" d="M26.59,36.28a.76.76,0,0,1-.75.75.75.75,0,0,1-.74-.75.74.74,0,0,1,.74-.74A.75.75,0,0,1,26.59,36.28Z" transform="translate(0.16 4.58)"/><rect class="cls-4" x="22.3" y="44.6" width="7.43" height="7.43"/><path class="cls-4" d="M22.89,40a.81.81,0,0,1-.75.74V40Z" transform="translate(0.16 4.58)"/><path class="cls-4" d="M29.58,40v.74a.75.75,0,0,1-.75-.74Z" transform="translate(0.16 4.58)"/><path class="cls-4" d="M22.89,47.45h-.75v-.74A.75.75,0,0,1,22.89,47.45Z" transform="translate(0.16 4.58)"/><path class="cls-4" d="M29.58,46.71v.74h-.75A.71.71,0,0,1,29.58,46.71Z" transform="translate(0.16 4.58)"/><path class="cls-4" d="M26.59,43.72a.75.75,0,0,1-.75.74.74.74,0,0,1-.74-.74.75.75,0,0,1,.74-.75A.76.76,0,0,1,26.59,43.72Z" transform="translate(0.16 4.58)"/><rect class="cls-4" x="22.3" y="52.04" width="7.43" height="7.43"/><path class="cls-4" d="M22.89,47.45a.81.81,0,0,1-.75.75v-.75Z" transform="translate(0.16 4.58)"/><path class="cls-4" d="M29.58,47.45v.75a.75.75,0,0,1-.75-.75Z" transform="translate(0.16 4.58)"/><path class="cls-4" d="M22.89,54.89h-.75v-.75A.75.75,0,0,1,22.89,54.89Z" transform="translate(0.16 4.58)"/><path class="cls-4" d="M29.58,54.14v.75h-.75A.71.71,0,0,1,29.58,54.14Z" transform="translate(0.16 4.58)"/><path class="cls-4" d="M26.59,51.15a.75.75,0,0,1-.75.74.74.74,0,1,1,0-1.48A.75.75,0,0,1,26.59,51.15Z" transform="translate(0.16 4.58)"/><rect class="cls-4" x="22.3" y="59.47" width="7.43" height="7.43"/><path class="cls-4" d="M22.89,54.89a.81.81,0,0,1-.75.74v-.74Z" transform="translate(0.16 4.58)"/><path class="cls-4" d="M29.58,54.89v.74a.75.75,0,0,1-.75-.74Z" transform="translate(0.16 4.58)"/><path class="cls-4" d="M22.89,62.32h-.75v-.74A.75.75,0,0,1,22.89,62.32Z" transform="translate(0.16 4.58)"/><path class="cls-4" d="M29.58,61.58v.74h-.75A.7.7,0,0,1,29.58,61.58Z" transform="translate(0.16 4.58)"/><path class="cls-4" d="M26.59,58.58a.76.76,0,0,1-.75.75.75.75,0,0,1-.74-.75.74.74,0,0,1,.74-.74A.75.75,0,0,1,26.59,58.58Z" transform="translate(0.16 4.58)"/><rect class="cls-4" x="22.3" y="66.9" width="7.43" height="7.43"/><path class="cls-4" d="M22.89,62.32a.81.81,0,0,1-.75.74v-.74Z" transform="translate(0.16 4.58)"/><path class="cls-4" d="M29.58,62.32v.74a.75.75,0,0,1-.75-.74Z" transform="translate(0.16 4.58)"/><path class="cls-4" d="M22.89,69.75h-.75V69A.75.75,0,0,1,22.89,69.75Z" transform="translate(0.16 4.58)"/><path class="cls-4" d="M29.58,69v.74h-.75A.71.71,0,0,1,29.58,69Z" transform="translate(0.16 4.58)"/><path class="cls-4" d="M26.59,66a.75.75,0,0,1-.75.74A.74.74,0,0,1,25.1,66a.75.75,0,0,1,.74-.75A.76.76,0,0,1,26.59,66Z" transform="translate(0.16 4.58)"/><rect class="cls-4" x="14.87" width="7.43" height="7.43"/><path class="cls-4" d="M15.45-4.58a.8.8,0,0,1-.74.74v-.74Z" transform="translate(0.16 4.58)"/><path class="cls-4" d="M22.14-4.58v.74a.74.74,0,0,1-.74-.74Z" transform="translate(0.16 4.58)"/><path class="cls-4" d="M15.45,2.85h-.74V2.11A.74.74,0,0,1,15.45,2.85Z" transform="translate(0.16 4.58)"/><path class="cls-4" d="M22.14,2.11v.74H21.4A.7.7,0,0,1,22.14,2.11Z" transform="translate(0.16 4.58)"/><circle class="cls-4" cx="18.57" cy="3.7" r="0.74"/><rect class="cls-4" x="14.87" y="7.43" width="7.43" height="7.43"/><path class="cls-4" d="M15.45,2.85a.8.8,0,0,1-.74.74V2.85Z" transform="translate(0.16 4.58)"/><path class="cls-4" d="M22.14,2.85v.74a.74.74,0,0,1-.74-.74Z" transform="translate(0.16 4.58)"/><path class="cls-4" d="M15.45,10.28h-.74V9.54A.74.74,0,0,1,15.45,10.28Z" transform="translate(0.16 4.58)"/><path class="cls-4" d="M22.14,9.54v.74H21.4A.7.7,0,0,1,22.14,9.54Z" transform="translate(0.16 4.58)"/><path class="cls-4" d="M19.15,6.55a.74.74,0,1,1-1.48,0,.74.74,0,1,1,1.48,0Z" transform="translate(0.16 4.58)"/><rect class="cls-4" x="14.87" y="14.87" width="7.43" height="7.43"/><path class="cls-4" d="M15.45,10.28a.81.81,0,0,1-.74.75v-.75Z" transform="translate(0.16 4.58)"/><path class="cls-4" d="M22.14,10.28V11a.75.75,0,0,1-.74-.75Z" transform="translate(0.16 4.58)"/><path class="cls-4" d="M15.45,17.72h-.74V17A.75.75,0,0,1,15.45,17.72Z" transform="translate(0.16 4.58)"/><path class="cls-4" d="M22.14,17v.75H21.4A.71.71,0,0,1,22.14,17Z" transform="translate(0.16 4.58)"/><circle class="cls-4" cx="18.57" cy="18.57" r="0.74"/><rect class="cls-4" x="14.87" y="22.3" width="7.43" height="7.43"/><path class="cls-4" d="M15.45,17.72a.8.8,0,0,1-.74.74v-.74Z" transform="translate(0.16 4.58)"/><path class="cls-4" d="M22.14,17.72v.74a.74.74,0,0,1-.74-.74Z" transform="translate(0.16 4.58)"/><path class="cls-4" d="M15.45,25.15h-.74v-.74A.74.74,0,0,1,15.45,25.15Z" transform="translate(0.16 4.58)"/><path class="cls-4" d="M22.14,24.41v.74H21.4A.7.7,0,0,1,22.14,24.41Z" transform="translate(0.16 4.58)"/><path class="cls-4" d="M19.15,21.42a.74.74,0,1,1-.74-.75A.74.74,0,0,1,19.15,21.42Z" transform="translate(0.16 4.58)"/><rect class="cls-4" x="14.87" y="29.73" width="7.43" height="7.43"/><path class="cls-4" d="M15.45,25.15a.8.8,0,0,1-.74.74v-.74Z" transform="translate(0.16 4.58)"/><path class="cls-4" d="M22.14,25.15v.74a.74.74,0,0,1-.74-.74Z" transform="translate(0.16 4.58)"/><path class="cls-4" d="M15.45,32.58h-.74v-.74A.74.74,0,0,1,15.45,32.58Z" transform="translate(0.16 4.58)"/><path class="cls-4" d="M22.14,31.84v.74H21.4A.7.7,0,0,1,22.14,31.84Z" transform="translate(0.16 4.58)"/><path class="cls-4" d="M19.15,28.85a.74.74,0,1,1-.74-.74A.74.74,0,0,1,19.15,28.85Z" transform="translate(0.16 4.58)"/><rect class="cls-4" x="14.87" y="37.17" width="7.43" height="7.43"/><path class="cls-4" d="M15.45,32.58a.8.8,0,0,1-.74.75v-.75Z" transform="translate(0.16 4.58)"/><path class="cls-4" d="M22.14,32.58v.75a.75.75,0,0,1-.74-.75Z" transform="translate(0.16 4.58)"/><path class="cls-4" d="M15.45,40h-.74v-.75A.75.75,0,0,1,15.45,40Z" transform="translate(0.16 4.58)"/><path class="cls-4" d="M22.14,39.27V40H21.4A.71.71,0,0,1,22.14,39.27Z" transform="translate(0.16 4.58)"/><path class="cls-4" d="M19.15,36.28a.74.74,0,1,1-1.48,0,.74.74,0,0,1,1.48,0Z" transform="translate(0.16 4.58)"/><rect class="cls-4" x="14.87" y="44.6" width="7.43" height="7.43"/><path class="cls-4" d="M15.45,40a.8.8,0,0,1-.74.74V40Z" transform="translate(0.16 4.58)"/><path class="cls-4" d="M22.14,40v.74A.74.74,0,0,1,21.4,40Z" transform="translate(0.16 4.58)"/><path class="cls-4" d="M15.45,47.45h-.74v-.74A.74.74,0,0,1,15.45,47.45Z" transform="translate(0.16 4.58)"/><path class="cls-4" d="M22.14,46.71v.74H21.4A.7.7,0,0,1,22.14,46.71Z" transform="translate(0.16 4.58)"/><path class="cls-4" d="M19.15,43.72a.74.74,0,1,1-1.48,0,.74.74,0,1,1,1.48,0Z" transform="translate(0.16 4.58)"/><rect class="cls-4" x="14.87" y="52.04" width="7.43" height="7.43"/><path class="cls-4" d="M15.45,47.45a.81.81,0,0,1-.74.75v-.75Z" transform="translate(0.16 4.58)"/><path class="cls-4" d="M22.14,47.45v.75a.75.75,0,0,1-.74-.75Z" transform="translate(0.16 4.58)"/><path class="cls-4" d="M15.45,54.89h-.74v-.75A.75.75,0,0,1,15.45,54.89Z" transform="translate(0.16 4.58)"/><path class="cls-4" d="M22.14,54.14v.75H21.4A.71.71,0,0,1,22.14,54.14Z" transform="translate(0.16 4.58)"/><path class="cls-4" d="M19.15,51.15a.74.74,0,1,1-.74-.74A.74.74,0,0,1,19.15,51.15Z" transform="translate(0.16 4.58)"/><rect class="cls-4" x="14.87" y="59.47" width="7.43" height="7.43"/><path class="cls-4" d="M15.45,54.89a.8.8,0,0,1-.74.74v-.74Z" transform="translate(0.16 4.58)"/><path class="cls-4" d="M22.14,54.89v.74a.74.74,0,0,1-.74-.74Z" transform="translate(0.16 4.58)"/><path class="cls-4" d="M15.45,62.32h-.74v-.74A.74.74,0,0,1,15.45,62.32Z" transform="translate(0.16 4.58)"/><path class="cls-4" d="M22.14,61.58v.74H21.4A.7.7,0,0,1,22.14,61.58Z" transform="translate(0.16 4.58)"/><path class="cls-4" d="M19.15,58.58a.74.74,0,1,1-1.48,0,.74.74,0,0,1,1.48,0Z" transform="translate(0.16 4.58)"/><rect class="cls-4" x="14.87" y="66.9" width="7.43" height="7.43"/><path class="cls-4" d="M15.45,62.32a.8.8,0,0,1-.74.74v-.74Z" transform="translate(0.16 4.58)"/><path class="cls-4" d="M22.14,62.32v.74a.74.74,0,0,1-.74-.74Z" transform="translate(0.16 4.58)"/><path class="cls-4" d="M15.45,69.75h-.74V69A.74.74,0,0,1,15.45,69.75Z" transform="translate(0.16 4.58)"/><path class="cls-4" d="M22.14,69v.74H21.4A.7.7,0,0,1,22.14,69Z" transform="translate(0.16 4.58)"/><circle class="cls-4" cx="18.57" cy="70.6" r="0.74"/><rect class="cls-4" x="7.43" width="7.43" height="7.43"/><path class="cls-4" d="M8-4.58a.8.8,0,0,1-.75.74v-.74Z" transform="translate(0.16 4.58)"/><path class="cls-4" d="M14.71-4.58v.74A.75.75,0,0,1,14-4.58Z" transform="translate(0.16 4.58)"/><path class="cls-4" d="M8,2.85H7.27V2.11A.74.74,0,0,1,8,2.85Z" transform="translate(0.16 4.58)"/><path class="cls-4" d="M14.71,2.11v.74H14A.7.7,0,0,1,14.71,2.11Z" transform="translate(0.16 4.58)"/><path class="cls-4" d="M11.72-.89A.75.75,0,0,1,11-.14a.75.75,0,0,1-.74-.75A.74.74,0,0,1,11-1.63.74.74,0,0,1,11.72-.89Z" transform="translate(0.16 4.58)"/><rect class="cls-4" x="7.43" y="7.43" width="7.43" height="7.43"/><path class="cls-4" d="M8,2.85a.8.8,0,0,1-.75.74V2.85Z" transform="translate(0.16 4.58)"/><path class="cls-4" d="M14.71,2.85v.74A.75.75,0,0,1,14,2.85Z" transform="translate(0.16 4.58)"/><path class="cls-4" d="M8,10.28H7.27V9.54A.75.75,0,0,1,8,10.28Z" transform="translate(0.16 4.58)"/><path class="cls-4" d="M14.71,9.54v.74H14A.71.71,0,0,1,14.71,9.54Z" transform="translate(0.16 4.58)"/><path class="cls-4" d="M11.72,6.55A.75.75,0,1,1,11,5.8.75.75,0,0,1,11.72,6.55Z" transform="translate(0.16 4.58)"/><rect class="cls-4" x="7.43" y="14.87" width="7.43" height="7.43"/><path class="cls-4" d="M8,10.28a.81.81,0,0,1-.75.75v-.75Z" transform="translate(0.16 4.58)"/><path class="cls-4" d="M14.71,10.28V11a.75.75,0,0,1-.75-.75Z" transform="translate(0.16 4.58)"/><path class="cls-4" d="M8,17.72H7.27V17A.75.75,0,0,1,8,17.72Z" transform="translate(0.16 4.58)"/><path class="cls-4" d="M14.71,17v.75H14A.71.71,0,0,1,14.71,17Z" transform="translate(0.16 4.58)"/><path class="cls-4" d="M11.72,14a.75.75,0,1,1-.75-.74A.74.74,0,0,1,11.72,14Z" transform="translate(0.16 4.58)"/><rect class="cls-4" x="7.43" y="22.3" width="7.43" height="7.43"/><path class="cls-4" d="M8,17.72a.8.8,0,0,1-.75.74v-.74Z" transform="translate(0.16 4.58)"/><path class="cls-4" d="M14.71,17.72v.74a.75.75,0,0,1-.75-.74Z" transform="translate(0.16 4.58)"/><path class="cls-4" d="M8,25.15H7.27v-.74A.74.74,0,0,1,8,25.15Z" transform="translate(0.16 4.58)"/><path class="cls-4" d="M14.71,24.41v.74H14A.7.7,0,0,1,14.71,24.41Z" transform="translate(0.16 4.58)"/><path class="cls-4" d="M11.72,21.42a.75.75,0,1,1-.75-.75A.74.74,0,0,1,11.72,21.42Z" transform="translate(0.16 4.58)"/><rect class="cls-4" x="7.43" y="29.73" width="7.43" height="7.43"/><path class="cls-4" d="M8,25.15a.8.8,0,0,1-.75.74v-.74Z" transform="translate(0.16 4.58)"/><path class="cls-4" d="M14.71,25.15v.74a.75.75,0,0,1-.75-.74Z" transform="translate(0.16 4.58)"/><path class="cls-4" d="M8,32.58H7.27v-.74A.75.75,0,0,1,8,32.58Z" transform="translate(0.16 4.58)"/><path class="cls-4" d="M14.71,31.84v.74H14A.71.71,0,0,1,14.71,31.84Z" transform="translate(0.16 4.58)"/><path class="cls-4" d="M11.72,28.85a.75.75,0,1,1-.75-.74A.74.74,0,0,1,11.72,28.85Z" transform="translate(0.16 4.58)"/><rect class="cls-4" x="7.43" y="37.17" width="7.43" height="7.43"/><path class="cls-4" d="M8,32.58a.8.8,0,0,1-.75.75v-.75Z" transform="translate(0.16 4.58)"/><path class="cls-4" d="M14.71,32.58v.75a.75.75,0,0,1-.75-.75Z" transform="translate(0.16 4.58)"/><path class="cls-4" d="M8,40H7.27v-.75A.75.75,0,0,1,8,40Z" transform="translate(0.16 4.58)"/><path class="cls-4" d="M14.71,39.27V40H14A.71.71,0,0,1,14.71,39.27Z" transform="translate(0.16 4.58)"/><path class="cls-4" d="M11.72,36.28a.75.75,0,1,1-1.49,0,.75.75,0,0,1,1.49,0Z" transform="translate(0.16 4.58)"/><rect class="cls-4" x="7.43" y="44.6" width="7.43" height="7.43"/><path class="cls-4" d="M8,40a.8.8,0,0,1-.75.74V40Z" transform="translate(0.16 4.58)"/><path class="cls-4" d="M14.71,40v.74A.75.75,0,0,1,14,40Z" transform="translate(0.16 4.58)"/><path class="cls-4" d="M8,47.45H7.27v-.74A.75.75,0,0,1,8,47.45Z" transform="translate(0.16 4.58)"/><path class="cls-4" d="M14.71,46.71v.74H14A.71.71,0,0,1,14.71,46.71Z" transform="translate(0.16 4.58)"/><path class="cls-4" d="M11.72,43.72A.75.75,0,1,1,11,43,.75.75,0,0,1,11.72,43.72Z" transform="translate(0.16 4.58)"/><rect class="cls-4" x="7.43" y="52.04" width="7.43" height="7.43"/><path class="cls-4" d="M8,47.45a.81.81,0,0,1-.75.75v-.75Z" transform="translate(0.16 4.58)"/><path class="cls-4" d="M14.71,47.45v.75a.75.75,0,0,1-.75-.75Z" transform="translate(0.16 4.58)"/><path class="cls-4" d="M8,54.89H7.27v-.75A.75.75,0,0,1,8,54.89Z" transform="translate(0.16 4.58)"/><path class="cls-4" d="M14.71,54.14v.75H14A.71.71,0,0,1,14.71,54.14Z" transform="translate(0.16 4.58)"/><path class="cls-4" d="M11.72,51.15a.75.75,0,1,1-.75-.74A.74.74,0,0,1,11.72,51.15Z" transform="translate(0.16 4.58)"/><rect class="cls-4" x="7.43" y="59.47" width="7.43" height="7.43"/><path class="cls-4" d="M8,54.89a.8.8,0,0,1-.75.74v-.74Z" transform="translate(0.16 4.58)"/><path class="cls-4" d="M14.71,54.89v.74a.75.75,0,0,1-.75-.74Z" transform="translate(0.16 4.58)"/><path class="cls-4" d="M8,62.32H7.27v-.74A.74.74,0,0,1,8,62.32Z" transform="translate(0.16 4.58)"/><path class="cls-4" d="M14.71,61.58v.74H14A.7.7,0,0,1,14.71,61.58Z" transform="translate(0.16 4.58)"/><path class="cls-4" d="M11.72,58.58a.75.75,0,1,1-1.49,0,.75.75,0,0,1,1.49,0Z" transform="translate(0.16 4.58)"/><rect class="cls-4" x="7.43" y="66.9" width="7.43" height="7.43"/><path class="cls-4" d="M8,62.32a.8.8,0,0,1-.75.74v-.74Z" transform="translate(0.16 4.58)"/><path class="cls-4" d="M14.71,62.32v.74a.75.75,0,0,1-.75-.74Z" transform="translate(0.16 4.58)"/><path class="cls-4" d="M8,69.75H7.27V69A.75.75,0,0,1,8,69.75Z" transform="translate(0.16 4.58)"/><path class="cls-4" d="M14.71,69v.74H14A.71.71,0,0,1,14.71,69Z" transform="translate(0.16 4.58)"/><path class="cls-4" d="M11.72,66a.75.75,0,1,1-.75-.75A.75.75,0,0,1,11.72,66Z" transform="translate(0.16 4.58)"/><rect class="cls-4" width="7.43" height="7.43"/><path class="cls-4" d="M.58-4.58a.8.8,0,0,1-.74.74v-.74Z" transform="translate(0.16 4.58)"/><path class="cls-4" d="M7.27-4.58v.74a.74.74,0,0,1-.74-.74Z" transform="translate(0.16 4.58)"/><path class="cls-4" d="M.58,2.85H-.16V2.11A.74.74,0,0,1,.58,2.85Z" transform="translate(0.16 4.58)"/><path class="cls-4" d="M7.27,2.11v.74H6.53A.7.7,0,0,1,7.27,2.11Z" transform="translate(0.16 4.58)"/><path class="cls-4" d="M4.28-.89a.75.75,0,0,1-.74.75A.75.75,0,0,1,2.8-.89a.74.74,0,0,1,.74-.74A.74.74,0,0,1,4.28-.89Z" transform="translate(0.16 4.58)"/><rect class="cls-4" y="7.43" width="7.43" height="7.43"/><path class="cls-4" d="M.58,2.85a.8.8,0,0,1-.74.74V2.85Z" transform="translate(0.16 4.58)"/><path class="cls-4" d="M7.27,2.85v.74a.74.74,0,0,1-.74-.74Z" transform="translate(0.16 4.58)"/><path class="cls-4" d="M.58,10.28H-.16V9.54A.74.74,0,0,1,.58,10.28Z" transform="translate(0.16 4.58)"/><path class="cls-4" d="M7.27,9.54v.74H6.53A.7.7,0,0,1,7.27,9.54Z" transform="translate(0.16 4.58)"/><path class="cls-4" d="M4.28,6.55a.74.74,0,0,1-1.48,0,.74.74,0,1,1,1.48,0Z" transform="translate(0.16 4.58)"/><rect class="cls-4" y="14.87" width="7.43" height="7.43"/><path class="cls-4" d="M.58,10.28A.81.81,0,0,1-.16,11v-.75Z" transform="translate(0.16 4.58)"/><path class="cls-4" d="M7.27,10.28V11a.75.75,0,0,1-.74-.75Z" transform="translate(0.16 4.58)"/><path class="cls-4" d="M.58,17.72H-.16V17A.75.75,0,0,1,.58,17.72Z" transform="translate(0.16 4.58)"/><path class="cls-4" d="M7.27,17v.75H6.53A.71.71,0,0,1,7.27,17Z" transform="translate(0.16 4.58)"/><path class="cls-4" d="M4.28,14a.74.74,0,1,1-.74-.74A.74.74,0,0,1,4.28,14Z" transform="translate(0.16 4.58)"/><rect class="cls-4" y="22.3" width="7.43" height="7.43"/><path class="cls-4" d="M.58,17.72a.8.8,0,0,1-.74.74v-.74Z" transform="translate(0.16 4.58)"/><path class="cls-4" d="M7.27,17.72v.74a.74.74,0,0,1-.74-.74Z" transform="translate(0.16 4.58)"/><path class="cls-4" d="M.58,25.15H-.16v-.74A.74.74,0,0,1,.58,25.15Z" transform="translate(0.16 4.58)"/><path class="cls-4" d="M7.27,24.41v.74H6.53A.7.7,0,0,1,7.27,24.41Z" transform="translate(0.16 4.58)"/><path class="cls-4" d="M4.28,21.42a.74.74,0,1,1-.74-.75A.74.74,0,0,1,4.28,21.42Z" transform="translate(0.16 4.58)"/><rect class="cls-4" y="29.73" width="7.43" height="7.43"/><path class="cls-4" d="M.58,25.15a.8.8,0,0,1-.74.74v-.74Z" transform="translate(0.16 4.58)"/><path class="cls-4" d="M7.27,25.15v.74a.74.74,0,0,1-.74-.74Z" transform="translate(0.16 4.58)"/><path class="cls-4" d="M.58,32.58H-.16v-.74A.74.74,0,0,1,.58,32.58Z" transform="translate(0.16 4.58)"/><path class="cls-4" d="M7.27,31.84v.74H6.53A.7.7,0,0,1,7.27,31.84Z" transform="translate(0.16 4.58)"/><path class="cls-4" d="M4.28,28.85a.74.74,0,1,1-.74-.74A.74.74,0,0,1,4.28,28.85Z" transform="translate(0.16 4.58)"/><rect class="cls-4" y="37.17" width="7.43" height="7.43"/><path class="cls-4" d="M.58,32.58a.8.8,0,0,1-.74.75v-.75Z" transform="translate(0.16 4.58)"/><path class="cls-4" d="M7.27,32.58v.75a.75.75,0,0,1-.74-.75Z" transform="translate(0.16 4.58)"/><path class="cls-4" d="M.58,40H-.16v-.75A.75.75,0,0,1,.58,40Z" transform="translate(0.16 4.58)"/><path class="cls-4" d="M7.27,39.27V40H6.53A.71.71,0,0,1,7.27,39.27Z" transform="translate(0.16 4.58)"/><path class="cls-4" d="M4.28,36.28a.74.74,0,1,1-1.48,0,.74.74,0,1,1,1.48,0Z" transform="translate(0.16 4.58)"/><rect class="cls-4" y="44.6" width="7.43" height="7.43"/><path class="cls-4" d="M.58,40a.8.8,0,0,1-.74.74V40Z" transform="translate(0.16 4.58)"/><path class="cls-4" d="M7.27,40v.74A.74.74,0,0,1,6.53,40Z" transform="translate(0.16 4.58)"/><path class="cls-4" d="M.58,47.45H-.16v-.74A.74.74,0,0,1,.58,47.45Z" transform="translate(0.16 4.58)"/><path class="cls-4" d="M7.27,46.71v.74H6.53A.7.7,0,0,1,7.27,46.71Z" transform="translate(0.16 4.58)"/><path class="cls-4" d="M4.28,43.72a.74.74,0,1,1-1.48,0,.74.74,0,1,1,1.48,0Z" transform="translate(0.16 4.58)"/><rect class="cls-4" y="52.04" width="7.43" height="7.43"/><path class="cls-4" d="M.58,47.45a.81.81,0,0,1-.74.75v-.75Z" transform="translate(0.16 4.58)"/><path class="cls-4" d="M7.27,47.45v.75a.75.75,0,0,1-.74-.75Z" transform="translate(0.16 4.58)"/><path class="cls-4" d="M.58,54.89H-.16v-.75A.75.75,0,0,1,.58,54.89Z" transform="translate(0.16 4.58)"/><path class="cls-4" d="M7.27,54.14v.75H6.53A.71.71,0,0,1,7.27,54.14Z" transform="translate(0.16 4.58)"/><path class="cls-4" d="M4.28,51.15a.74.74,0,1,1-.74-.74A.74.74,0,0,1,4.28,51.15Z" transform="translate(0.16 4.58)"/><rect class="cls-4" y="59.47" width="7.43" height="7.43"/><path class="cls-4" d="M.58,54.89a.8.8,0,0,1-.74.74v-.74Z" transform="translate(0.16 4.58)"/><path class="cls-4" d="M7.27,54.89v.74a.74.74,0,0,1-.74-.74Z" transform="translate(0.16 4.58)"/><path class="cls-4" d="M.58,62.32H-.16v-.74A.74.74,0,0,1,.58,62.32Z" transform="translate(0.16 4.58)"/><path class="cls-4" d="M7.27,61.58v.74H6.53A.7.7,0,0,1,7.27,61.58Z" transform="translate(0.16 4.58)"/><path class="cls-4" d="M4.28,58.58a.74.74,0,1,1-1.48,0,.74.74,0,0,1,1.48,0Z" transform="translate(0.16 4.58)"/><rect class="cls-4" y="66.9" width="7.43" height="7.43"/><path class="cls-4" d="M.58,62.32a.8.8,0,0,1-.74.74v-.74Z" transform="translate(0.16 4.58)"/><path class="cls-4" d="M7.27,62.32v.74a.74.74,0,0,1-.74-.74Z" transform="translate(0.16 4.58)"/><path class="cls-4" d="M.58,69.75H-.16V69A.74.74,0,0,1,.58,69.75Z" transform="translate(0.16 4.58)"/><path class="cls-4" d="M7.27,69v.74H6.53A.7.7,0,0,1,7.27,69Z" transform="translate(0.16 4.58)"/><path class="cls-4" d="M4.28,66A.74.74,0,0,1,2.8,66a.74.74,0,1,1,1.48,0Z" transform="translate(0.16 4.58)"/></g><path class="cls-5" d="M21.8,66.24c-6.45,0-12.08-2.08-15.85-5.86a18.66,18.66,0,0,1-4.83-8.13,33.35,33.35,0,0,1-1-6.92L0,44.13H16.81l.12,1c.63,4.76,2.33,5.72,4.87,5.72,2.92,0,4.86-1.35,4.86-7.89,0-6.94-2.33-7.9-4.86-7.9S18,36,16.87,38.86l-.27.72H1.25V0H42.18V15.42H16.77v6.76a17.24,17.24,0,0,1,7.71-1.68c11.92,0,19,8.29,19,22.16,0,8.65-1.69,13.48-6.23,17.83C33.28,64.31,28.07,66.24,21.8,66.24ZM2.42,46.36a26.35,26.35,0,0,0,.84,5.28,16.46,16.46,0,0,0,4.27,7.17C10.83,62.12,16,64,21.8,64s10.37-1.73,14-5.13c4.08-3.92,5.53-8.17,5.53-16.22,0-12.66-6.12-19.93-16.8-19.93A14.13,14.13,0,0,0,16.28,25l-1.75,1.18v-13H39.94v-11H3.48V37.35h11.6c1.4-3.22,3.39-4.54,6.72-4.54,7.09,0,7.09,7.61,7.09,10.12,0,4.34-.74,10.12-7.09,10.12-4.92,0-6.37-3.58-6.93-6.69Z" transform="translate(0.16 4.58)"/></g></g></svg>