<svg xmlns="http://www.w3.org/2000/svg" xmlns:xlink="http://www.w3.org/1999/xlink" viewBox="0 0 53.65 71.35"><defs><style>.cls-1{fill:none;}.cls-2{fill:#f3f3f5;}.cls-3{clip-path:url(#clip-path);}.cls-4{fill:#00abc8;}.cls-5{fill:#0075a2;}</style><clipPath id="clip-path" transform="translate(4.38 0.33)"><path class="cls-1" d="M18.42,40.7c-9.9,0-17.3-8.2-17.3-19.26C1.12,9.23,9.59,1.12,22.25,1.12s21.13,8.2,21.13,20.14a23.12,23.12,0,0,1-.63,5.53C42,29.91,41,32.41,37.31,40L25.1,65.13h-16L21.63,40.26A8.91,8.91,0,0,1,18.42,40.7Zm3.83-26.39c-3.93,0-6.51,2.85-6.51,7.22s2.58,7.22,6.51,7.22,6.5-2.85,6.5-7C28.75,17.16,26.17,14.31,22.25,14.31Z"/></clipPath></defs><g id="Layer_2" data-name="Layer 2"><g id="Section_2" data-name="Section 2"><path class="cls-2" d="M24.3,46.59C14.4,46.59,7,38.38,7,27.33,7,15.11,15.47,7,28.14,7s21.12,8.2,21.12,20.15a23.22,23.22,0,0,1-.62,5.53c-.72,3.12-1.78,5.62-5.44,13.19L31,71h-16L27.51,46.14A8.65,8.65,0,0,1,24.3,46.59Zm3.84-26.4c-3.93,0-6.52,2.86-6.52,7.23s2.59,7.22,6.52,7.22,6.5-2.86,6.5-7C34.64,23.05,32.06,20.19,28.14,20.19Z" transform="translate(4.38 0.33)"/><g class="cls-3"><rect class="cls-4" x="44.6" width="7.43" height="7.43"/><path class="cls-4" d="M41-.33a.8.8,0,0,1-.74.74V-.33Z" transform="translate(4.38 0.33)"/><path class="cls-4" d="M47.65-.33V.41a.74.74,0,0,1-.74-.74Z" transform="translate(4.38 0.33)"/><path class="cls-4" d="M41,7.1h-.74V6.36A.74.74,0,0,1,41,7.1Z" transform="translate(4.38 0.33)"/><path class="cls-4" d="M47.65,6.36V7.1h-.74A.7.7,0,0,1,47.65,6.36Z" transform="translate(4.38 0.33)"/><path class="cls-4" d="M44.66,3.37a.74.74,0,1,1-1.48,0,.74.74,0,1,1,1.48,0Z" transform="translate(4.38 0.33)"/><rect class="cls-4" x="44.6" y="7.43" width="7.43" height="7.43"/><path class="cls-4" d="M41,7.1a.8.8,0,0,1-.74.75V7.1Z" transform="translate(4.38 0.33)"/><path class="cls-4" d="M47.65,7.1v.75a.75.75,0,0,1-.74-.75Z" transform="translate(4.38 0.33)"/><path class="cls-4" d="M41,14.54h-.74v-.75A.75.75,0,0,1,41,14.54Z" transform="translate(4.38 0.33)"/><path class="cls-4" d="M47.65,13.79v.75h-.74A.71.71,0,0,1,47.65,13.79Z" transform="translate(4.38 0.33)"/><path class="cls-4" d="M44.66,10.8a.74.74,0,1,1-1.48,0,.74.74,0,1,1,1.48,0Z" transform="translate(4.38 0.33)"/><rect class="cls-4" x="44.6" y="14.87" width="7.43" height="7.43"/><path class="cls-4" d="M41,14.54a.8.8,0,0,1-.74.74v-.74Z" transform="translate(4.38 0.33)"/><path class="cls-4" d="M47.65,14.54v.74a.74.74,0,0,1-.74-.74Z" transform="translate(4.38 0.33)"/><path class="cls-4" d="M41,22h-.74v-.74A.74.74,0,0,1,41,22Z" transform="translate(4.38 0.33)"/><path class="cls-4" d="M47.65,21.23V22h-.74A.7.7,0,0,1,47.65,21.23Z" transform="translate(4.38 0.33)"/><path class="cls-4" d="M44.66,18.24a.74.74,0,1,1-.74-.75A.74.74,0,0,1,44.66,18.24Z" transform="translate(4.38 0.33)"/><rect class="cls-4" x="44.6" y="22.3" width="7.43" height="7.43"/><path class="cls-4" d="M41,22a.8.8,0,0,1-.74.74V22Z" transform="translate(4.38 0.33)"/><path class="cls-4" d="M47.65,22v.74a.74.74,0,0,1-.74-.74Z" transform="translate(4.38 0.33)"/><path class="cls-4" d="M41,29.4h-.74v-.74A.74.74,0,0,1,41,29.4Z" transform="translate(4.38 0.33)"/><path class="cls-4" d="M47.65,28.66v.74h-.74A.7.7,0,0,1,47.65,28.66Z" transform="translate(4.38 0.33)"/><path class="cls-4" d="M44.66,25.67a.74.74,0,1,1-.74-.74A.74.74,0,0,1,44.66,25.67Z" transform="translate(4.38 0.33)"/><rect class="cls-4" x="44.6" y="29.73" width="7.43" height="7.43"/><path class="cls-4" d="M41,29.4a.8.8,0,0,1-.74.75V29.4Z" transform="translate(4.38 0.33)"/><path class="cls-4" d="M47.65,29.4v.75a.75.75,0,0,1-.74-.75Z" transform="translate(4.38 0.33)"/><path class="cls-4" d="M41,36.84h-.74v-.75A.75.75,0,0,1,41,36.84Z" transform="translate(4.38 0.33)"/><path class="cls-4" d="M47.65,36.09v.75h-.74A.71.71,0,0,1,47.65,36.09Z" transform="translate(4.38 0.33)"/><path class="cls-4" d="M44.66,33.1a.74.74,0,1,1-1.48,0,.74.74,0,0,1,1.48,0Z" transform="translate(4.38 0.33)"/><rect class="cls-4" x="44.6" y="37.17" width="7.43" height="7.43"/><path class="cls-4" d="M41,36.84a.8.8,0,0,1-.74.74v-.74Z" transform="translate(4.38 0.33)"/><path class="cls-4" d="M47.65,36.84v.74a.74.74,0,0,1-.74-.74Z" transform="translate(4.38 0.33)"/><path class="cls-4" d="M41,44.27h-.74v-.74A.74.74,0,0,1,41,44.27Z" transform="translate(4.38 0.33)"/><path class="cls-4" d="M47.65,43.53v.74h-.74A.7.7,0,0,1,47.65,43.53Z" transform="translate(4.38 0.33)"/><path class="cls-4" d="M44.66,40.54a.74.74,0,0,1-1.48,0,.74.74,0,1,1,1.48,0Z" transform="translate(4.38 0.33)"/><rect class="cls-4" x="44.6" y="44.6" width="7.43" height="7.43"/><path class="cls-4" d="M41,44.27a.81.81,0,0,1-.74.75v-.75Z" transform="translate(4.38 0.33)"/><path class="cls-4" d="M47.65,44.27V45a.75.75,0,0,1-.74-.75Z" transform="translate(4.38 0.33)"/><path class="cls-4" d="M41,51.71h-.74V51A.75.75,0,0,1,41,51.71Z" transform="translate(4.38 0.33)"/><path class="cls-4" d="M47.65,51v.75h-.74A.71.71,0,0,1,47.65,51Z" transform="translate(4.38 0.33)"/><path class="cls-4" d="M44.66,48a.74.74,0,1,1-.74-.74A.74.74,0,0,1,44.66,48Z" transform="translate(4.38 0.33)"/><rect class="cls-4" x="44.6" y="52.04" width="7.43" height="7.43"/><path class="cls-4" d="M41,51.71a.8.8,0,0,1-.74.74v-.74Z" transform="translate(4.38 0.33)"/><path class="cls-4" d="M47.65,51.71v.74a.74.74,0,0,1-.74-.74Z" transform="translate(4.38 0.33)"/><path class="cls-4" d="M41,59.14h-.74V58.4A.74.74,0,0,1,41,59.14Z" transform="translate(4.38 0.33)"/><path class="cls-4" d="M47.65,58.4v.74h-.74A.7.7,0,0,1,47.65,58.4Z" transform="translate(4.38 0.33)"/><path class="cls-4" d="M44.66,55.4a.74.74,0,1,1-1.48,0,.74.74,0,0,1,1.48,0Z" transform="translate(4.38 0.33)"/><rect class="cls-4" x="44.6" y="59.47" width="7.43" height="7.43"/><path class="cls-4" d="M41,59.14a.8.8,0,0,1-.74.74v-.74Z" transform="translate(4.38 0.33)"/><path class="cls-4" d="M47.65,59.14v.74a.74.74,0,0,1-.74-.74Z" transform="translate(4.38 0.33)"/><path class="cls-4" d="M41,66.57h-.74v-.74A.74.74,0,0,1,41,66.57Z" transform="translate(4.38 0.33)"/><path class="cls-4" d="M47.65,65.83v.74h-.74A.7.7,0,0,1,47.65,65.83Z" transform="translate(4.38 0.33)"/><path class="cls-4" d="M44.66,62.84a.74.74,0,0,1-1.48,0,.74.74,0,1,1,1.48,0Z" transform="translate(4.38 0.33)"/><rect class="cls-4" x="37.17" width="7.43" height="7.43"/><path class="cls-4" d="M33.53-.33a.8.8,0,0,1-.75.74V-.33Z" transform="translate(4.38 0.33)"/><path class="cls-4" d="M40.22-.33V.41a.75.75,0,0,1-.75-.74Z" transform="translate(4.38 0.33)"/><path class="cls-4" d="M33.53,7.1h-.75V6.36A.75.75,0,0,1,33.53,7.1Z" transform="translate(4.38 0.33)"/><path class="cls-4" d="M40.22,6.36V7.1h-.75A.71.71,0,0,1,40.22,6.36Z" transform="translate(4.38 0.33)"/><path class="cls-4" d="M37.23,3.37a.75.75,0,1,1-.75-.75A.75.75,0,0,1,37.23,3.37Z" transform="translate(4.38 0.33)"/><rect class="cls-4" x="37.17" y="7.43" width="7.43" height="7.43"/><path class="cls-4" d="M33.53,7.1a.8.8,0,0,1-.75.75V7.1Z" transform="translate(4.38 0.33)"/><path class="cls-4" d="M40.22,7.1v.75a.75.75,0,0,1-.75-.75Z" transform="translate(4.38 0.33)"/><path class="cls-4" d="M33.53,14.54h-.75v-.75A.75.75,0,0,1,33.53,14.54Z" transform="translate(4.38 0.33)"/><path class="cls-4" d="M40.22,13.79v.75h-.75A.71.71,0,0,1,40.22,13.79Z" transform="translate(4.38 0.33)"/><path class="cls-4" d="M37.23,10.8a.75.75,0,1,1-1.49,0,.75.75,0,0,1,1.49,0Z" transform="translate(4.38 0.33)"/><rect class="cls-4" x="37.17" y="14.87" width="7.43" height="7.43"/><path class="cls-4" d="M33.53,14.54a.8.8,0,0,1-.75.74v-.74Z" transform="translate(4.38 0.33)"/><path class="cls-4" d="M40.22,14.54v.74a.75.75,0,0,1-.75-.74Z" transform="translate(4.38 0.33)"/><path class="cls-4" d="M33.53,22h-.75v-.74A.74.74,0,0,1,33.53,22Z" transform="translate(4.38 0.33)"/><path class="cls-4" d="M40.22,21.23V22h-.75A.7.7,0,0,1,40.22,21.23Z" transform="translate(4.38 0.33)"/><path class="cls-4" d="M37.23,18.24a.75.75,0,1,1-.75-.75A.74.74,0,0,1,37.23,18.24Z" transform="translate(4.38 0.33)"/><rect class="cls-4" x="37.17" y="22.3" width="7.43" height="7.43"/><path class="cls-4" d="M33.53,22a.8.8,0,0,1-.75.74V22Z" transform="translate(4.38 0.33)"/><path class="cls-4" d="M40.22,22v.74a.75.75,0,0,1-.75-.74Z" transform="translate(4.38 0.33)"/><path class="cls-4" d="M33.53,29.4h-.75v-.74A.75.75,0,0,1,33.53,29.4Z" transform="translate(4.38 0.33)"/><path class="cls-4" d="M40.22,28.66v.74h-.75A.71.71,0,0,1,40.22,28.66Z" transform="translate(4.38 0.33)"/><path class="cls-4" d="M37.23,25.67a.75.75,0,1,1-.75-.74A.74.74,0,0,1,37.23,25.67Z" transform="translate(4.38 0.33)"/><rect class="cls-4" x="37.17" y="29.73" width="7.43" height="7.43"/><path class="cls-4" d="M33.53,29.4a.8.8,0,0,1-.75.75V29.4Z" transform="translate(4.38 0.33)"/><path class="cls-4" d="M40.22,29.4v.75a.75.75,0,0,1-.75-.75Z" transform="translate(4.38 0.33)"/><path class="cls-4" d="M33.53,36.84h-.75v-.75A.75.75,0,0,1,33.53,36.84Z" transform="translate(4.38 0.33)"/><path class="cls-4" d="M40.22,36.09v.75h-.75A.71.71,0,0,1,40.22,36.09Z" transform="translate(4.38 0.33)"/><path class="cls-4" d="M37.23,33.1a.75.75,0,1,1-1.49,0,.75.75,0,0,1,1.49,0Z" transform="translate(4.38 0.33)"/><rect class="cls-4" x="37.17" y="37.17" width="7.43" height="7.43"/><path class="cls-4" d="M33.53,36.84a.8.8,0,0,1-.75.74v-.74Z" transform="translate(4.38 0.33)"/><path class="cls-4" d="M40.22,36.84v.74a.75.75,0,0,1-.75-.74Z" transform="translate(4.38 0.33)"/><path class="cls-4" d="M33.53,44.27h-.75v-.74A.75.75,0,0,1,33.53,44.27Z" transform="translate(4.38 0.33)"/><path class="cls-4" d="M40.22,43.53v.74h-.75A.71.71,0,0,1,40.22,43.53Z" transform="translate(4.38 0.33)"/><path class="cls-4" d="M37.23,40.54a.75.75,0,1,1-.75-.75A.75.75,0,0,1,37.23,40.54Z" transform="translate(4.38 0.33)"/><rect class="cls-4" x="37.17" y="44.6" width="7.43" height="7.43"/><path class="cls-4" d="M33.53,44.27a.81.81,0,0,1-.75.75v-.75Z" transform="translate(4.38 0.33)"/><path class="cls-4" d="M40.22,44.27V45a.75.75,0,0,1-.75-.75Z" transform="translate(4.38 0.33)"/><path class="cls-4" d="M33.53,51.71h-.75V51A.75.75,0,0,1,33.53,51.71Z" transform="translate(4.38 0.33)"/><path class="cls-4" d="M40.22,51v.75h-.75A.71.71,0,0,1,40.22,51Z" transform="translate(4.38 0.33)"/><path class="cls-4" d="M37.23,48a.75.75,0,1,1-.75-.74A.74.74,0,0,1,37.23,48Z" transform="translate(4.38 0.33)"/><rect class="cls-4" x="37.17" y="52.04" width="7.43" height="7.43"/><path class="cls-4" d="M33.53,51.71a.8.8,0,0,1-.75.74v-.74Z" transform="translate(4.38 0.33)"/><path class="cls-4" d="M40.22,51.71v.74a.75.75,0,0,1-.75-.74Z" transform="translate(4.38 0.33)"/><path class="cls-4" d="M33.53,59.14h-.75V58.4A.74.74,0,0,1,33.53,59.14Z" transform="translate(4.38 0.33)"/><path class="cls-4" d="M40.22,58.4v.74h-.75A.7.7,0,0,1,40.22,58.4Z" transform="translate(4.38 0.33)"/><path class="cls-4" d="M37.23,55.4a.75.75,0,1,1-1.49,0,.75.75,0,0,1,1.49,0Z" transform="translate(4.38 0.33)"/><rect class="cls-4" x="37.17" y="59.47" width="7.43" height="7.43"/><path class="cls-4" d="M33.53,59.14a.8.8,0,0,1-.75.74v-.74Z" transform="translate(4.38 0.33)"/><path class="cls-4" d="M40.22,59.14v.74a.75.75,0,0,1-.75-.74Z" transform="translate(4.38 0.33)"/><path class="cls-4" d="M33.53,66.57h-.75v-.74A.75.75,0,0,1,33.53,66.57Z" transform="translate(4.38 0.33)"/><path class="cls-4" d="M40.22,65.83v.74h-.75A.71.71,0,0,1,40.22,65.83Z" transform="translate(4.38 0.33)"/><path class="cls-4" d="M37.23,62.84a.75.75,0,1,1-.75-.75A.75.75,0,0,1,37.23,62.84Z" transform="translate(4.38 0.33)"/><rect class="cls-4" x="29.73" width="7.43" height="7.43"/><path class="cls-4" d="M26.09-.33a.8.8,0,0,1-.74.74V-.33Z" transform="translate(4.38 0.33)"/><path class="cls-4" d="M32.78-.33V.41A.74.74,0,0,1,32-.33Z" transform="translate(4.38 0.33)"/><path class="cls-4" d="M26.09,7.1h-.74V6.36A.74.74,0,0,1,26.09,7.1Z" transform="translate(4.38 0.33)"/><path class="cls-4" d="M32.78,6.36V7.1H32A.7.7,0,0,1,32.78,6.36Z" transform="translate(4.38 0.33)"/><path class="cls-4" d="M29.79,3.37a.74.74,0,0,1-1.48,0,.74.74,0,1,1,1.48,0Z" transform="translate(4.38 0.33)"/><rect class="cls-4" x="29.73" y="7.43" width="7.43" height="7.43"/><path class="cls-4" d="M26.09,7.1a.8.8,0,0,1-.74.75V7.1Z" transform="translate(4.38 0.33)"/><path class="cls-4" d="M32.78,7.1v.75A.75.75,0,0,1,32,7.1Z" transform="translate(4.38 0.33)"/><path class="cls-4" d="M26.09,14.54h-.74v-.75A.75.75,0,0,1,26.09,14.54Z" transform="translate(4.38 0.33)"/><path class="cls-4" d="M32.78,13.79v.75H32A.71.71,0,0,1,32.78,13.79Z" transform="translate(4.38 0.33)"/><path class="cls-4" d="M29.79,10.8a.74.74,0,1,1-1.48,0,.74.74,0,1,1,1.48,0Z" transform="translate(4.38 0.33)"/><rect class="cls-4" x="29.73" y="14.87" width="7.43" height="7.43"/><path class="cls-4" d="M26.09,14.54a.8.8,0,0,1-.74.74v-.74Z" transform="translate(4.38 0.33)"/><path class="cls-4" d="M32.78,14.54v.74a.74.74,0,0,1-.74-.74Z" transform="translate(4.38 0.33)"/><path class="cls-4" d="M26.09,22h-.74v-.74A.74.74,0,0,1,26.09,22Z" transform="translate(4.38 0.33)"/><path class="cls-4" d="M32.78,21.23V22H32A.7.7,0,0,1,32.78,21.23Z" transform="translate(4.38 0.33)"/><path class="cls-4" d="M29.79,18.24a.74.74,0,1,1-.74-.75A.74.74,0,0,1,29.79,18.24Z" transform="translate(4.38 0.33)"/><rect class="cls-4" x="29.73" y="22.3" width="7.43" height="7.43"/><path class="cls-4" d="M26.09,22a.8.8,0,0,1-.74.74V22Z" transform="translate(4.38 0.33)"/><path class="cls-4" d="M32.78,22v.74A.74.74,0,0,1,32,22Z" transform="translate(4.38 0.33)"/><path class="cls-4" d="M26.09,29.4h-.74v-.74A.74.74,0,0,1,26.09,29.4Z" transform="translate(4.38 0.33)"/><path class="cls-4" d="M32.78,28.66v.74H32A.7.7,0,0,1,32.78,28.66Z" transform="translate(4.38 0.33)"/><path class="cls-4" d="M29.79,25.67a.74.74,0,1,1-.74-.74A.74.74,0,0,1,29.79,25.67Z" transform="translate(4.38 0.33)"/><rect class="cls-4" x="29.73" y="29.73" width="7.43" height="7.43"/><path class="cls-4" d="M26.09,29.4a.8.8,0,0,1-.74.75V29.4Z" transform="translate(4.38 0.33)"/><path class="cls-4" d="M32.78,29.4v.75A.75.75,0,0,1,32,29.4Z" transform="translate(4.38 0.33)"/><path class="cls-4" d="M26.09,36.84h-.74v-.75A.75.75,0,0,1,26.09,36.84Z" transform="translate(4.38 0.33)"/><path class="cls-4" d="M32.78,36.09v.75H32A.71.71,0,0,1,32.78,36.09Z" transform="translate(4.38 0.33)"/><path class="cls-4" d="M29.79,33.1a.74.74,0,1,1-1.48,0,.74.74,0,0,1,1.48,0Z" transform="translate(4.38 0.33)"/><rect class="cls-4" x="29.73" y="37.17" width="7.43" height="7.43"/><path class="cls-4" d="M26.09,36.84a.8.8,0,0,1-.74.74v-.74Z" transform="translate(4.38 0.33)"/><path class="cls-4" d="M32.78,36.84v.74a.74.74,0,0,1-.74-.74Z" transform="translate(4.38 0.33)"/><path class="cls-4" d="M26.09,44.27h-.74v-.74A.74.74,0,0,1,26.09,44.27Z" transform="translate(4.38 0.33)"/><path class="cls-4" d="M32.78,43.53v.74H32A.7.7,0,0,1,32.78,43.53Z" transform="translate(4.38 0.33)"/><path class="cls-4" d="M29.79,40.54a.74.74,0,0,1-1.48,0,.74.74,0,1,1,1.48,0Z" transform="translate(4.38 0.33)"/><rect class="cls-4" x="29.73" y="44.6" width="7.43" height="7.43"/><path class="cls-4" d="M26.09,44.27a.81.81,0,0,1-.74.75v-.75Z" transform="translate(4.38 0.33)"/><path class="cls-4" d="M32.78,44.27V45a.75.75,0,0,1-.74-.75Z" transform="translate(4.38 0.33)"/><path class="cls-4" d="M26.09,51.71h-.74V51A.75.75,0,0,1,26.09,51.71Z" transform="translate(4.38 0.33)"/><path class="cls-4" d="M32.78,51v.75H32A.71.71,0,0,1,32.78,51Z" transform="translate(4.38 0.33)"/><path class="cls-4" d="M29.79,48a.74.74,0,1,1-.74-.74A.74.74,0,0,1,29.79,48Z" transform="translate(4.38 0.33)"/><rect class="cls-4" x="29.73" y="52.04" width="7.43" height="7.43"/><path class="cls-4" d="M26.09,51.71a.8.8,0,0,1-.74.74v-.74Z" transform="translate(4.38 0.33)"/><path class="cls-4" d="M32.78,51.71v.74a.74.74,0,0,1-.74-.74Z" transform="translate(4.38 0.33)"/><path class="cls-4" d="M26.09,59.14h-.74V58.4A.74.74,0,0,1,26.09,59.14Z" transform="translate(4.38 0.33)"/><path class="cls-4" d="M32.78,58.4v.74H32A.7.7,0,0,1,32.78,58.4Z" transform="translate(4.38 0.33)"/><path class="cls-4" d="M29.79,55.4a.74.74,0,1,1-1.48,0,.74.74,0,1,1,1.48,0Z" transform="translate(4.38 0.33)"/><rect class="cls-4" x="29.73" y="59.47" width="7.43" height="7.43"/><path class="cls-4" d="M26.09,59.14a.8.8,0,0,1-.74.74v-.74Z" transform="translate(4.38 0.33)"/><path class="cls-4" d="M32.78,59.14v.74a.74.74,0,0,1-.74-.74Z" transform="translate(4.38 0.33)"/><path class="cls-4" d="M26.09,66.57h-.74v-.74A.74.74,0,0,1,26.09,66.57Z" transform="translate(4.38 0.33)"/><path class="cls-4" d="M32.78,65.83v.74H32A.7.7,0,0,1,32.78,65.83Z" transform="translate(4.38 0.33)"/><path class="cls-4" d="M29.79,62.84a.74.74,0,0,1-1.48,0,.74.74,0,1,1,1.48,0Z" transform="translate(4.38 0.33)"/><rect class="cls-4" x="22.3" width="7.43" height="7.43"/><path class="cls-4" d="M18.66-.33a.8.8,0,0,1-.74.74V-.33Z" transform="translate(4.38 0.33)"/><path class="cls-4" d="M25.35-.33V.41a.74.74,0,0,1-.74-.74Z" transform="translate(4.38 0.33)"/><path class="cls-4" d="M18.66,7.1h-.74V6.36A.74.74,0,0,1,18.66,7.1Z" transform="translate(4.38 0.33)"/><path class="cls-4" d="M25.35,6.36V7.1h-.74A.7.7,0,0,1,25.35,6.36Z" transform="translate(4.38 0.33)"/><path class="cls-4" d="M22.36,3.37a.74.74,0,0,1-.74.74.75.75,0,0,1-.75-.74.76.76,0,0,1,.75-.75A.75.75,0,0,1,22.36,3.37Z" transform="translate(4.38 0.33)"/><rect class="cls-4" x="22.3" y="7.43" width="7.43" height="7.43"/><path class="cls-4" d="M18.66,7.1a.8.8,0,0,1-.74.75V7.1Z" transform="translate(4.38 0.33)"/><path class="cls-4" d="M25.35,7.1v.75a.74.74,0,0,1-.74-.75Z" transform="translate(4.38 0.33)"/><path class="cls-4" d="M18.66,14.54h-.74v-.75A.75.75,0,0,1,18.66,14.54Z" transform="translate(4.38 0.33)"/><path class="cls-4" d="M25.35,13.79v.75h-.74A.7.7,0,0,1,25.35,13.79Z" transform="translate(4.38 0.33)"/><path class="cls-4" d="M22.36,10.8a.75.75,0,0,1-.74.75.76.76,0,0,1-.75-.75.75.75,0,0,1,.75-.74A.74.74,0,0,1,22.36,10.8Z" transform="translate(4.38 0.33)"/><rect class="cls-4" x="22.3" y="14.87" width="7.43" height="7.43"/><path class="cls-4" d="M18.66,14.54a.8.8,0,0,1-.74.74v-.74Z" transform="translate(4.38 0.33)"/><path class="cls-4" d="M25.35,14.54v.74a.74.74,0,0,1-.74-.74Z" transform="translate(4.38 0.33)"/><path class="cls-4" d="M18.66,22h-.74v-.74A.74.74,0,0,1,18.66,22Z" transform="translate(4.38 0.33)"/><path class="cls-4" d="M25.35,21.23V22h-.74A.69.69,0,0,1,25.35,21.23Z" transform="translate(4.38 0.33)"/><path class="cls-4" d="M22.36,18.24a.74.74,0,0,1-.74.74.75.75,0,1,1,.74-.74Z" transform="translate(4.38 0.33)"/><rect class="cls-4" x="22.3" y="22.3" width="7.43" height="7.43"/><path class="cls-4" d="M18.66,22a.8.8,0,0,1-.74.74V22Z" transform="translate(4.38 0.33)"/><path class="cls-4" d="M25.35,22v.74a.74.74,0,0,1-.74-.74Z" transform="translate(4.38 0.33)"/><path class="cls-4" d="M18.66,29.4h-.74v-.74A.74.74,0,0,1,18.66,29.4Z" transform="translate(4.38 0.33)"/><path class="cls-4" d="M25.35,28.66v.74h-.74A.7.7,0,0,1,25.35,28.66Z" transform="translate(4.38 0.33)"/><path class="cls-4" d="M22.36,25.67a.74.74,0,0,1-.74.74.74.74,0,1,1,0-1.48A.74.74,0,0,1,22.36,25.67Z" transform="translate(4.38 0.33)"/><rect class="cls-4" x="22.3" y="29.73" width="7.43" height="7.43"/><path class="cls-4" d="M18.66,29.4a.8.8,0,0,1-.74.75V29.4Z" transform="translate(4.38 0.33)"/><path class="cls-4" d="M25.35,29.4v.75a.74.74,0,0,1-.74-.75Z" transform="translate(4.38 0.33)"/><path class="cls-4" d="M18.66,36.84h-.74v-.75A.75.75,0,0,1,18.66,36.84Z" transform="translate(4.38 0.33)"/><path class="cls-4" d="M25.35,36.09v.75h-.74A.7.7,0,0,1,25.35,36.09Z" transform="translate(4.38 0.33)"/><path class="cls-4" d="M22.36,33.1a.75.75,0,0,1-.74.75.76.76,0,0,1-.75-.75.75.75,0,0,1,.75-.74A.74.74,0,0,1,22.36,33.1Z" transform="translate(4.38 0.33)"/><rect class="cls-4" x="22.3" y="37.17" width="7.43" height="7.43"/><path class="cls-4" d="M18.66,36.84a.8.8,0,0,1-.74.74v-.74Z" transform="translate(4.38 0.33)"/><path class="cls-4" d="M25.35,36.84v.74a.74.74,0,0,1-.74-.74Z" transform="translate(4.38 0.33)"/><path class="cls-4" d="M18.66,44.27h-.74v-.74A.74.74,0,0,1,18.66,44.27Z" transform="translate(4.38 0.33)"/><path class="cls-4" d="M25.35,43.53v.74h-.74A.7.7,0,0,1,25.35,43.53Z" transform="translate(4.38 0.33)"/><path class="cls-4" d="M22.36,40.54a.74.74,0,0,1-.74.74.75.75,0,0,1-.75-.74.76.76,0,0,1,.75-.75A.75.75,0,0,1,22.36,40.54Z" transform="translate(4.38 0.33)"/><rect class="cls-4" x="22.3" y="44.6" width="7.43" height="7.43"/><path class="cls-4" d="M18.66,44.27a.81.81,0,0,1-.74.75v-.75Z" transform="translate(4.38 0.33)"/><path class="cls-4" d="M25.35,44.27V45a.75.75,0,0,1-.74-.75Z" transform="translate(4.38 0.33)"/><path class="cls-4" d="M18.66,51.71h-.74V51A.75.75,0,0,1,18.66,51.71Z" transform="translate(4.38 0.33)"/><path class="cls-4" d="M25.35,51v.75h-.74A.7.7,0,0,1,25.35,51Z" transform="translate(4.38 0.33)"/><path class="cls-4" d="M22.36,48a.74.74,0,0,1-.74.74.74.74,0,1,1,0-1.48A.74.74,0,0,1,22.36,48Z" transform="translate(4.38 0.33)"/><rect class="cls-4" x="22.3" y="52.04" width="7.43" height="7.43"/><path class="cls-4" d="M18.66,51.71a.8.8,0,0,1-.74.74v-.74Z" transform="translate(4.38 0.33)"/><path class="cls-4" d="M25.35,51.71v.74a.74.74,0,0,1-.74-.74Z" transform="translate(4.38 0.33)"/><path class="cls-4" d="M18.66,59.14h-.74V58.4A.74.74,0,0,1,18.66,59.14Z" transform="translate(4.38 0.33)"/><path class="cls-4" d="M25.35,58.4v.74h-.74A.69.69,0,0,1,25.35,58.4Z" transform="translate(4.38 0.33)"/><path class="cls-4" d="M22.36,55.4a.75.75,0,0,1-.74.75.76.76,0,0,1-.75-.75.75.75,0,0,1,.75-.74A.74.74,0,0,1,22.36,55.4Z" transform="translate(4.38 0.33)"/><rect class="cls-4" x="22.3" y="59.47" width="7.43" height="7.43"/><path class="cls-4" d="M18.66,59.14a.8.8,0,0,1-.74.74v-.74Z" transform="translate(4.38 0.33)"/><path class="cls-4" d="M25.35,59.14v.74a.74.74,0,0,1-.74-.74Z" transform="translate(4.38 0.33)"/><path class="cls-4" d="M18.66,66.57h-.74v-.74A.74.74,0,0,1,18.66,66.57Z" transform="translate(4.38 0.33)"/><path class="cls-4" d="M25.35,65.83v.74h-.74A.7.7,0,0,1,25.35,65.83Z" transform="translate(4.38 0.33)"/><path class="cls-4" d="M22.36,62.84a.74.74,0,0,1-.74.74.75.75,0,0,1-.75-.74.76.76,0,0,1,.75-.75A.75.75,0,0,1,22.36,62.84Z" transform="translate(4.38 0.33)"/><rect class="cls-4" x="14.87" width="7.43" height="7.43"/><path class="cls-4" d="M11.23-.33a.81.81,0,0,1-.75.74V-.33Z" transform="translate(4.38 0.33)"/><path class="cls-4" d="M17.92-.33V.41a.75.75,0,0,1-.75-.74Z" transform="translate(4.38 0.33)"/><path class="cls-4" d="M11.23,7.1h-.75V6.36A.75.75,0,0,1,11.23,7.1Z" transform="translate(4.38 0.33)"/><path class="cls-4" d="M17.92,6.36V7.1h-.75A.71.71,0,0,1,17.92,6.36Z" transform="translate(4.38 0.33)"/><path class="cls-4" d="M14.93,3.37a.75.75,0,0,1-.75.74.74.74,0,0,1-.74-.74.75.75,0,0,1,.74-.75A.76.76,0,0,1,14.93,3.37Z" transform="translate(4.38 0.33)"/><rect class="cls-4" x="14.87" y="7.43" width="7.43" height="7.43"/><path class="cls-4" d="M11.23,7.1a.81.81,0,0,1-.75.75V7.1Z" transform="translate(4.38 0.33)"/><path class="cls-4" d="M17.92,7.1v.75a.75.75,0,0,1-.75-.75Z" transform="translate(4.38 0.33)"/><path class="cls-4" d="M11.23,14.54h-.75v-.75A.75.75,0,0,1,11.23,14.54Z" transform="translate(4.38 0.33)"/><path class="cls-4" d="M17.92,13.79v.75h-.75A.71.71,0,0,1,17.92,13.79Z" transform="translate(4.38 0.33)"/><path class="cls-4" d="M14.93,10.8a.76.76,0,0,1-.75.75.75.75,0,0,1-.74-.75.74.74,0,0,1,.74-.74A.75.75,0,0,1,14.93,10.8Z" transform="translate(4.38 0.33)"/><rect class="cls-4" x="14.87" y="14.87" width="7.43" height="7.43"/><path class="cls-4" d="M11.23,14.54a.81.81,0,0,1-.75.74v-.74Z" transform="translate(4.38 0.33)"/><path class="cls-4" d="M17.92,14.54v.74a.75.75,0,0,1-.75-.74Z" transform="translate(4.38 0.33)"/><path class="cls-4" d="M11.23,22h-.75v-.74A.75.75,0,0,1,11.23,22Z" transform="translate(4.38 0.33)"/><path class="cls-4" d="M17.92,21.23V22h-.75A.7.7,0,0,1,17.92,21.23Z" transform="translate(4.38 0.33)"/><path class="cls-4" d="M14.93,18.24a.75.75,0,0,1-.75.74.75.75,0,0,1,0-1.49A.75.75,0,0,1,14.93,18.24Z" transform="translate(4.38 0.33)"/><rect class="cls-4" x="14.87" y="22.3" width="7.43" height="7.43"/><path class="cls-4" d="M11.23,22a.81.81,0,0,1-.75.74V22Z" transform="translate(4.38 0.33)"/><path class="cls-4" d="M17.92,22v.74a.75.75,0,0,1-.75-.74Z" transform="translate(4.38 0.33)"/><path class="cls-4" d="M11.23,29.4h-.75v-.74A.75.75,0,0,1,11.23,29.4Z" transform="translate(4.38 0.33)"/><path class="cls-4" d="M17.92,28.66v.74h-.75A.71.71,0,0,1,17.92,28.66Z" transform="translate(4.38 0.33)"/><path class="cls-4" d="M14.93,25.67a.75.75,0,0,1-.75.74.74.74,0,0,1,0-1.48A.75.75,0,0,1,14.93,25.67Z" transform="translate(4.38 0.33)"/><rect class="cls-4" x="14.87" y="29.73" width="7.43" height="7.43"/><path class="cls-4" d="M11.23,29.4a.81.81,0,0,1-.75.75V29.4Z" transform="translate(4.38 0.33)"/><path class="cls-4" d="M17.92,29.4v.75a.75.75,0,0,1-.75-.75Z" transform="translate(4.38 0.33)"/><path class="cls-4" d="M11.23,36.84h-.75v-.75A.75.75,0,0,1,11.23,36.84Z" transform="translate(4.38 0.33)"/><path class="cls-4" d="M17.92,36.09v.75h-.75A.71.71,0,0,1,17.92,36.09Z" transform="translate(4.38 0.33)"/><circle class="cls-4" cx="18.57" cy="33.43" r="0.74"/><rect class="cls-4" x="14.87" y="37.17" width="7.43" height="7.43"/><path class="cls-4" d="M11.23,36.84a.81.81,0,0,1-.75.74v-.74Z" transform="translate(4.38 0.33)"/><path class="cls-4" d="M17.92,36.84v.74a.75.75,0,0,1-.75-.74Z" transform="translate(4.38 0.33)"/><path class="cls-4" d="M11.23,44.27h-.75v-.74A.75.75,0,0,1,11.23,44.27Z" transform="translate(4.38 0.33)"/><path class="cls-4" d="M17.92,43.53v.74h-.75A.71.71,0,0,1,17.92,43.53Z" transform="translate(4.38 0.33)"/><path class="cls-4" d="M14.93,40.54a.75.75,0,0,1-.75.74.74.74,0,0,1-.74-.74.75.75,0,0,1,.74-.75A.76.76,0,0,1,14.93,40.54Z" transform="translate(4.38 0.33)"/><rect class="cls-4" x="14.87" y="44.6" width="7.43" height="7.43"/><path class="cls-4" d="M11.23,44.27a.81.81,0,0,1-.75.75v-.75Z" transform="translate(4.38 0.33)"/><path class="cls-4" d="M17.92,44.27V45a.75.75,0,0,1-.75-.75Z" transform="translate(4.38 0.33)"/><path class="cls-4" d="M11.23,51.71h-.75V51A.75.75,0,0,1,11.23,51.71Z" transform="translate(4.38 0.33)"/><path class="cls-4" d="M17.92,51v.75h-.75A.71.71,0,0,1,17.92,51Z" transform="translate(4.38 0.33)"/><circle class="cls-4" cx="18.57" cy="48.3" r="0.74"/><rect class="cls-4" x="14.87" y="52.04" width="7.43" height="7.43"/><path class="cls-4" d="M11.23,51.71a.81.81,0,0,1-.75.74v-.74Z" transform="translate(4.38 0.33)"/><path class="cls-4" d="M17.92,51.71v.74a.75.75,0,0,1-.75-.74Z" transform="translate(4.38 0.33)"/><path class="cls-4" d="M11.23,59.14h-.75V58.4A.75.75,0,0,1,11.23,59.14Z" transform="translate(4.38 0.33)"/><path class="cls-4" d="M17.92,58.4v.74h-.75A.7.7,0,0,1,17.92,58.4Z" transform="translate(4.38 0.33)"/><path class="cls-4" d="M14.93,55.4a.76.76,0,0,1-.75.75.75.75,0,0,1-.74-.75.74.74,0,0,1,.74-.74A.75.75,0,0,1,14.93,55.4Z" transform="translate(4.38 0.33)"/><rect class="cls-4" x="14.87" y="59.47" width="7.43" height="7.43"/><path class="cls-4" d="M11.23,59.14a.81.81,0,0,1-.75.74v-.74Z" transform="translate(4.38 0.33)"/><path class="cls-4" d="M17.92,59.14v.74a.75.75,0,0,1-.75-.74Z" transform="translate(4.38 0.33)"/><path class="cls-4" d="M11.23,66.57h-.75v-.74A.75.75,0,0,1,11.23,66.57Z" transform="translate(4.38 0.33)"/><path class="cls-4" d="M17.92,65.83v.74h-.75A.71.71,0,0,1,17.92,65.83Z" transform="translate(4.38 0.33)"/><circle class="cls-4" cx="18.57" cy="63.17" r="0.74"/><rect class="cls-4" x="7.43" width="7.43" height="7.43"/><path class="cls-4" d="M3.79-.33a.8.8,0,0,1-.74.74V-.33Z" transform="translate(4.38 0.33)"/><path class="cls-4" d="M10.48-.33V.41a.74.74,0,0,1-.74-.74Z" transform="translate(4.38 0.33)"/><path class="cls-4" d="M3.79,7.1H3.05V6.36A.74.74,0,0,1,3.79,7.1Z" transform="translate(4.38 0.33)"/><path class="cls-4" d="M10.48,6.36V7.1H9.74A.7.7,0,0,1,10.48,6.36Z" transform="translate(4.38 0.33)"/><path class="cls-4" d="M7.49,3.37A.74.74,0,1,1,6,3.37a.74.74,0,1,1,1.48,0Z" transform="translate(4.38 0.33)"/><rect class="cls-4" x="7.43" y="7.43" width="7.43" height="7.43"/><path class="cls-4" d="M3.79,7.1a.8.8,0,0,1-.74.75V7.1Z" transform="translate(4.38 0.33)"/><path class="cls-4" d="M10.48,7.1v.75a.75.75,0,0,1-.74-.75Z" transform="translate(4.38 0.33)"/><path class="cls-4" d="M3.79,14.54H3.05v-.75A.75.75,0,0,1,3.79,14.54Z" transform="translate(4.38 0.33)"/><path class="cls-4" d="M10.48,13.79v.75H9.74A.71.71,0,0,1,10.48,13.79Z" transform="translate(4.38 0.33)"/><path class="cls-4" d="M7.49,10.8A.74.74,0,1,1,6,10.8a.74.74,0,0,1,1.48,0Z" transform="translate(4.38 0.33)"/><rect class="cls-4" x="7.43" y="14.87" width="7.43" height="7.43"/><path class="cls-4" d="M3.79,14.54a.8.8,0,0,1-.74.74v-.74Z" transform="translate(4.38 0.33)"/><path class="cls-4" d="M10.48,14.54v.74a.74.74,0,0,1-.74-.74Z" transform="translate(4.38 0.33)"/><path class="cls-4" d="M3.79,22H3.05v-.74A.74.74,0,0,1,3.79,22Z" transform="translate(4.38 0.33)"/><path class="cls-4" d="M10.48,21.23V22H9.74A.7.7,0,0,1,10.48,21.23Z" transform="translate(4.38 0.33)"/><path class="cls-4" d="M7.49,18.24a.74.74,0,1,1-.74-.75A.74.74,0,0,1,7.49,18.24Z" transform="translate(4.38 0.33)"/><rect class="cls-4" x="7.43" y="22.3" width="7.43" height="7.43"/><path class="cls-4" d="M3.79,22a.8.8,0,0,1-.74.74V22Z" transform="translate(4.38 0.33)"/><path class="cls-4" d="M10.48,22v.74A.74.74,0,0,1,9.74,22Z" transform="translate(4.38 0.33)"/><path class="cls-4" d="M3.79,29.4H3.05v-.74A.74.74,0,0,1,3.79,29.4Z" transform="translate(4.38 0.33)"/><path class="cls-4" d="M10.48,28.66v.74H9.74A.7.7,0,0,1,10.48,28.66Z" transform="translate(4.38 0.33)"/><path class="cls-4" d="M7.49,25.67a.74.74,0,1,1-.74-.74A.74.74,0,0,1,7.49,25.67Z" transform="translate(4.38 0.33)"/><rect class="cls-4" x="7.43" y="29.73" width="7.43" height="7.43"/><path class="cls-4" d="M3.79,29.4a.8.8,0,0,1-.74.75V29.4Z" transform="translate(4.38 0.33)"/><path class="cls-4" d="M10.48,29.4v.75a.75.75,0,0,1-.74-.75Z" transform="translate(4.38 0.33)"/><path class="cls-4" d="M3.79,36.84H3.05v-.75A.75.75,0,0,1,3.79,36.84Z" transform="translate(4.38 0.33)"/><path class="cls-4" d="M10.48,36.09v.75H9.74A.71.71,0,0,1,10.48,36.09Z" transform="translate(4.38 0.33)"/><path class="cls-4" d="M7.49,33.1A.74.74,0,1,1,6,33.1a.74.74,0,1,1,1.48,0Z" transform="translate(4.38 0.33)"/><rect class="cls-4" x="7.43" y="37.17" width="7.43" height="7.43"/><path class="cls-4" d="M3.79,36.84a.8.8,0,0,1-.74.74v-.74Z" transform="translate(4.38 0.33)"/><path class="cls-4" d="M10.48,36.84v.74a.74.74,0,0,1-.74-.74Z" transform="translate(4.38 0.33)"/><path class="cls-4" d="M3.79,44.27H3.05v-.74A.74.74,0,0,1,3.79,44.27Z" transform="translate(4.38 0.33)"/><path class="cls-4" d="M10.48,43.53v.74H9.74A.7.7,0,0,1,10.48,43.53Z" transform="translate(4.38 0.33)"/><path class="cls-4" d="M7.49,40.54a.74.74,0,0,1-1.48,0,.74.74,0,1,1,1.48,0Z" transform="translate(4.38 0.33)"/><rect class="cls-4" x="7.43" y="44.6" width="7.43" height="7.43"/><path class="cls-4" d="M3.79,44.27a.81.81,0,0,1-.74.75v-.75Z" transform="translate(4.38 0.33)"/><path class="cls-4" d="M10.48,44.27V45a.75.75,0,0,1-.74-.75Z" transform="translate(4.38 0.33)"/><path class="cls-4" d="M3.79,51.71H3.05V51A.75.75,0,0,1,3.79,51.71Z" transform="translate(4.38 0.33)"/><path class="cls-4" d="M10.48,51v.75H9.74A.71.71,0,0,1,10.48,51Z" transform="translate(4.38 0.33)"/><path class="cls-4" d="M7.49,48a.74.74,0,1,1-.74-.74A.74.74,0,0,1,7.49,48Z" transform="translate(4.38 0.33)"/><rect class="cls-4" x="7.43" y="52.04" width="7.43" height="7.43"/><path class="cls-4" d="M3.79,51.71a.8.8,0,0,1-.74.74v-.74Z" transform="translate(4.38 0.33)"/><path class="cls-4" d="M10.48,51.71v.74a.74.74,0,0,1-.74-.74Z" transform="translate(4.38 0.33)"/><path class="cls-4" d="M3.79,59.14H3.05V58.4A.74.74,0,0,1,3.79,59.14Z" transform="translate(4.38 0.33)"/><path class="cls-4" d="M10.48,58.4v.74H9.74A.7.7,0,0,1,10.48,58.4Z" transform="translate(4.38 0.33)"/><path class="cls-4" d="M7.49,55.4A.74.74,0,1,1,6,55.4a.74.74,0,0,1,1.48,0Z" transform="translate(4.38 0.33)"/><rect class="cls-4" x="7.43" y="59.47" width="7.43" height="7.43"/><path class="cls-4" d="M3.79,59.14a.8.8,0,0,1-.74.74v-.74Z" transform="translate(4.38 0.33)"/><path class="cls-4" d="M10.48,59.14v.74a.74.74,0,0,1-.74-.74Z" transform="translate(4.38 0.33)"/><path class="cls-4" d="M3.79,66.57H3.05v-.74A.74.74,0,0,1,3.79,66.57Z" transform="translate(4.38 0.33)"/><path class="cls-4" d="M10.48,65.83v.74H9.74A.7.7,0,0,1,10.48,65.83Z" transform="translate(4.38 0.33)"/><path class="cls-4" d="M7.49,62.84a.74.74,0,0,1-1.48,0,.74.74,0,1,1,1.48,0Z" transform="translate(4.38 0.33)"/><rect class="cls-4" width="7.43" height="7.43"/><path class="cls-4" d="M-3.64-.33a.8.8,0,0,1-.74.74V-.33Z" transform="translate(4.38 0.33)"/><path class="cls-4" d="M3.05-.33V.41a.74.74,0,0,1-.74-.74Z" transform="translate(4.38 0.33)"/><path class="cls-4" d="M-3.64,7.1h-.74V6.36A.74.74,0,0,1-3.64,7.1Z" transform="translate(4.38 0.33)"/><path class="cls-4" d="M3.05,6.36V7.1H2.31A.7.7,0,0,1,3.05,6.36Z" transform="translate(4.38 0.33)"/><path class="cls-4" d="M.06,3.37a.74.74,0,0,1-.74.74.75.75,0,0,1-.75-.74.76.76,0,0,1,.75-.75A.75.75,0,0,1,.06,3.37Z" transform="translate(4.38 0.33)"/><rect class="cls-4" y="7.43" width="7.43" height="7.43"/><path class="cls-4" d="M-3.64,7.1a.8.8,0,0,1-.74.75V7.1Z" transform="translate(4.38 0.33)"/><path class="cls-4" d="M3.05,7.1v.75a.74.74,0,0,1-.74-.75Z" transform="translate(4.38 0.33)"/><path class="cls-4" d="M-3.64,14.54h-.74v-.75A.75.75,0,0,1-3.64,14.54Z" transform="translate(4.38 0.33)"/><path class="cls-4" d="M3.05,13.79v.75H2.31A.7.7,0,0,1,3.05,13.79Z" transform="translate(4.38 0.33)"/><path class="cls-4" d="M.06,10.8a.75.75,0,0,1-.74.75.76.76,0,0,1-.75-.75.75.75,0,0,1,.75-.74A.74.74,0,0,1,.06,10.8Z" transform="translate(4.38 0.33)"/><rect class="cls-4" y="14.87" width="7.43" height="7.43"/><path class="cls-4" d="M-3.64,14.54a.8.8,0,0,1-.74.74v-.74Z" transform="translate(4.38 0.33)"/><path class="cls-4" d="M3.05,14.54v.74a.74.74,0,0,1-.74-.74Z" transform="translate(4.38 0.33)"/><path class="cls-4" d="M-3.64,22h-.74v-.74A.74.74,0,0,1-3.64,22Z" transform="translate(4.38 0.33)"/><path class="cls-4" d="M3.05,21.23V22H2.31A.69.69,0,0,1,3.05,21.23Z" transform="translate(4.38 0.33)"/><path class="cls-4" d="M.06,18.24A.74.74,0,0,1-.68,19a.75.75,0,0,1-.75-.74.75.75,0,0,1,.75-.75A.74.74,0,0,1,.06,18.24Z" transform="translate(4.38 0.33)"/><rect class="cls-4" y="22.3" width="7.43" height="7.43"/><path class="cls-4" d="M-3.64,22a.8.8,0,0,1-.74.74V22Z" transform="translate(4.38 0.33)"/><path class="cls-4" d="M3.05,22v.74A.74.74,0,0,1,2.31,22Z" transform="translate(4.38 0.33)"/><path class="cls-4" d="M-3.64,29.4h-.74v-.74A.74.74,0,0,1-3.64,29.4Z" transform="translate(4.38 0.33)"/><path class="cls-4" d="M3.05,28.66v.74H2.31A.7.7,0,0,1,3.05,28.66Z" transform="translate(4.38 0.33)"/><path class="cls-4" d="M.06,25.67a.74.74,0,0,1-.74.74.75.75,0,0,1-.75-.74.75.75,0,0,1,.75-.74A.74.74,0,0,1,.06,25.67Z" transform="translate(4.38 0.33)"/><rect class="cls-4" y="29.73" width="7.43" height="7.43"/><path class="cls-4" d="M-3.64,29.4a.8.8,0,0,1-.74.75V29.4Z" transform="translate(4.38 0.33)"/><path class="cls-4" d="M3.05,29.4v.75a.74.74,0,0,1-.74-.75Z" transform="translate(4.38 0.33)"/><path class="cls-4" d="M-3.64,36.84h-.74v-.75A.75.75,0,0,1-3.64,36.84Z" transform="translate(4.38 0.33)"/><path class="cls-4" d="M3.05,36.09v.75H2.31A.7.7,0,0,1,3.05,36.09Z" transform="translate(4.38 0.33)"/><circle class="cls-4" cx="3.7" cy="33.43" r="0.74"/><rect class="cls-4" y="37.17" width="7.43" height="7.43"/><path class="cls-4" d="M-3.64,36.84a.8.8,0,0,1-.74.74v-.74Z" transform="translate(4.38 0.33)"/><path class="cls-4" d="M3.05,36.84v.74a.74.74,0,0,1-.74-.74Z" transform="translate(4.38 0.33)"/><path class="cls-4" d="M-3.64,44.27h-.74v-.74A.74.74,0,0,1-3.64,44.27Z" transform="translate(4.38 0.33)"/><path class="cls-4" d="M3.05,43.53v.74H2.31A.7.7,0,0,1,3.05,43.53Z" transform="translate(4.38 0.33)"/><path class="cls-4" d="M.06,40.54a.74.74,0,0,1-.74.74.75.75,0,0,1-.75-.74.76.76,0,0,1,.75-.75A.75.75,0,0,1,.06,40.54Z" transform="translate(4.38 0.33)"/><rect class="cls-4" y="44.6" width="7.43" height="7.43"/><path class="cls-4" d="M-3.64,44.27a.81.81,0,0,1-.74.75v-.75Z" transform="translate(4.38 0.33)"/><path class="cls-4" d="M3.05,44.27V45a.75.75,0,0,1-.74-.75Z" transform="translate(4.38 0.33)"/><path class="cls-4" d="M-3.64,51.71h-.74V51A.75.75,0,0,1-3.64,51.71Z" transform="translate(4.38 0.33)"/><path class="cls-4" d="M3.05,51v.75H2.31A.7.7,0,0,1,3.05,51Z" transform="translate(4.38 0.33)"/><circle class="cls-4" cx="3.7" cy="48.3" r="0.74"/><rect class="cls-4" y="52.04" width="7.43" height="7.43"/><path class="cls-4" d="M-3.64,51.71a.8.8,0,0,1-.74.74v-.74Z" transform="translate(4.38 0.33)"/><path class="cls-4" d="M3.05,51.71v.74a.74.74,0,0,1-.74-.74Z" transform="translate(4.38 0.33)"/><path class="cls-4" d="M-3.64,59.14h-.74V58.4A.74.74,0,0,1-3.64,59.14Z" transform="translate(4.38 0.33)"/><path class="cls-4" d="M3.05,58.4v.74H2.31A.69.69,0,0,1,3.05,58.4Z" transform="translate(4.38 0.33)"/><path class="cls-4" d="M.06,55.4a.75.75,0,0,1-.74.75.76.76,0,0,1-.75-.75.75.75,0,0,1,.75-.74A.74.74,0,0,1,.06,55.4Z" transform="translate(4.38 0.33)"/><rect class="cls-4" y="59.47" width="7.43" height="7.43"/><path class="cls-4" d="M-3.64,59.14a.8.8,0,0,1-.74.74v-.74Z" transform="translate(4.38 0.33)"/><path class="cls-4" d="M3.05,59.14v.74a.74.74,0,0,1-.74-.74Z" transform="translate(4.38 0.33)"/><path class="cls-4" d="M-3.64,66.57h-.74v-.74A.74.74,0,0,1-3.64,66.57Z" transform="translate(4.38 0.33)"/><path class="cls-4" d="M3.05,65.83v.74H2.31A.7.7,0,0,1,3.05,65.83Z" transform="translate(4.38 0.33)"/><circle class="cls-4" cx="3.7" cy="63.17" r="0.74"/><rect class="cls-4" x="29.73" y="7.43" width="7.43" height="7.43"/><path class="cls-4" d="M26.09,7.1a.8.8,0,0,1-.74.75V7.1Z" transform="translate(4.38 0.33)"/><path class="cls-4" d="M32.78,7.1v.75A.75.75,0,0,1,32,7.1Z" transform="translate(4.38 0.33)"/><path class="cls-4" d="M26.09,14.54h-.74v-.75A.75.75,0,0,1,26.09,14.54Z" transform="translate(4.38 0.33)"/><path class="cls-4" d="M32.78,13.79v.75H32A.71.71,0,0,1,32.78,13.79Z" transform="translate(4.38 0.33)"/><path class="cls-4" d="M29.79,10.8a.74.74,0,1,1-1.48,0,.74.74,0,1,1,1.48,0Z" transform="translate(4.38 0.33)"/><rect class="cls-4" x="29.73" y="14.87" width="7.43" height="7.43"/><path class="cls-4" d="M26.09,14.54a.8.8,0,0,1-.74.74v-.74Z" transform="translate(4.38 0.33)"/><path class="cls-4" d="M32.78,14.54v.74a.74.74,0,0,1-.74-.74Z" transform="translate(4.38 0.33)"/><path class="cls-4" d="M26.09,22h-.74v-.74A.74.74,0,0,1,26.09,22Z" transform="translate(4.38 0.33)"/><path class="cls-4" d="M32.78,21.23V22H32A.7.7,0,0,1,32.78,21.23Z" transform="translate(4.38 0.33)"/><path class="cls-4" d="M29.79,18.24a.74.74,0,1,1-.74-.75A.74.74,0,0,1,29.79,18.24Z" transform="translate(4.38 0.33)"/><rect class="cls-4" x="29.73" y="22.3" width="7.43" height="7.43"/><path class="cls-4" d="M26.09,22a.8.8,0,0,1-.74.74V22Z" transform="translate(4.38 0.33)"/><path class="cls-4" d="M32.78,22v.74A.74.74,0,0,1,32,22Z" transform="translate(4.38 0.33)"/><path class="cls-4" d="M26.09,29.4h-.74v-.74A.74.74,0,0,1,26.09,29.4Z" transform="translate(4.38 0.33)"/><path class="cls-4" d="M32.78,28.66v.74H32A.7.7,0,0,1,32.78,28.66Z" transform="translate(4.38 0.33)"/><path class="cls-4" d="M29.79,25.67a.74.74,0,1,1-.74-.74A.74.74,0,0,1,29.79,25.67Z" transform="translate(4.38 0.33)"/><rect class="cls-4" x="22.3" y="7.43" width="7.43" height="7.43"/><path class="cls-4" d="M18.66,7.1a.8.8,0,0,1-.74.75V7.1Z" transform="translate(4.38 0.33)"/><path class="cls-4" d="M25.35,7.1v.75a.74.74,0,0,1-.74-.75Z" transform="translate(4.38 0.33)"/><path class="cls-4" d="M18.66,14.54h-.74v-.75A.75.75,0,0,1,18.66,14.54Z" transform="translate(4.38 0.33)"/><path class="cls-4" d="M25.35,13.79v.75h-.74A.7.7,0,0,1,25.35,13.79Z" transform="translate(4.38 0.33)"/><path class="cls-4" d="M22.36,10.8a.75.75,0,0,1-.74.75.76.76,0,0,1-.75-.75.75.75,0,0,1,.75-.74A.74.74,0,0,1,22.36,10.8Z" transform="translate(4.38 0.33)"/><rect class="cls-4" x="22.3" y="14.87" width="7.43" height="7.43"/><path class="cls-4" d="M18.66,14.54a.8.8,0,0,1-.74.74v-.74Z" transform="translate(4.38 0.33)"/><path class="cls-4" d="M25.35,14.54v.74a.74.74,0,0,1-.74-.74Z" transform="translate(4.38 0.33)"/><path class="cls-4" d="M18.66,22h-.74v-.74A.74.74,0,0,1,18.66,22Z" transform="translate(4.38 0.33)"/><path class="cls-4" d="M25.35,21.23V22h-.74A.69.69,0,0,1,25.35,21.23Z" transform="translate(4.38 0.33)"/><path class="cls-4" d="M22.36,18.24a.74.74,0,0,1-.74.74.75.75,0,1,1,.74-.74Z" transform="translate(4.38 0.33)"/><rect class="cls-4" x="22.3" y="22.3" width="7.43" height="7.43"/><path class="cls-4" d="M18.66,22a.8.8,0,0,1-.74.74V22Z" transform="translate(4.38 0.33)"/><path class="cls-4" d="M25.35,22v.74a.74.74,0,0,1-.74-.74Z" transform="translate(4.38 0.33)"/><path class="cls-4" d="M18.66,29.4h-.74v-.74A.74.74,0,0,1,18.66,29.4Z" transform="translate(4.38 0.33)"/><path class="cls-4" d="M25.35,28.66v.74h-.74A.7.7,0,0,1,25.35,28.66Z" transform="translate(4.38 0.33)"/><path class="cls-4" d="M22.36,25.67a.74.74,0,0,1-.74.74.74.74,0,1,1,0-1.48A.74.74,0,0,1,22.36,25.67Z" transform="translate(4.38 0.33)"/><rect class="cls-4" x="14.87" y="7.43" width="7.43" height="7.43"/><path class="cls-4" d="M11.23,7.1a.81.81,0,0,1-.75.75V7.1Z" transform="translate(4.38 0.33)"/><path class="cls-4" d="M17.92,7.1v.75a.75.75,0,0,1-.75-.75Z" transform="translate(4.38 0.33)"/><path class="cls-4" d="M11.23,14.54h-.75v-.75A.75.75,0,0,1,11.23,14.54Z" transform="translate(4.38 0.33)"/><path class="cls-4" d="M17.92,13.79v.75h-.75A.71.71,0,0,1,17.92,13.79Z" transform="translate(4.38 0.33)"/><path class="cls-4" d="M14.93,10.8a.76.76,0,0,1-.75.75.75.75,0,0,1-.74-.75.74.74,0,0,1,.74-.74A.75.75,0,0,1,14.93,10.8Z" transform="translate(4.38 0.33)"/><rect class="cls-4" x="14.87" y="14.87" width="7.43" height="7.43"/><path class="cls-4" d="M11.23,14.54a.81.81,0,0,1-.75.74v-.74Z" transform="translate(4.38 0.33)"/><path class="cls-4" d="M17.92,14.54v.74a.75.75,0,0,1-.75-.74Z" transform="translate(4.38 0.33)"/><path class="cls-4" d="M11.23,22h-.75v-.74A.75.75,0,0,1,11.23,22Z" transform="translate(4.38 0.33)"/><path class="cls-4" d="M17.92,21.23V22h-.75A.7.7,0,0,1,17.92,21.23Z" transform="translate(4.38 0.33)"/><path class="cls-4" d="M14.93,18.24a.75.75,0,0,1-.75.74.75.75,0,0,1,0-1.49A.75.75,0,0,1,14.93,18.24Z" transform="translate(4.38 0.33)"/><rect class="cls-4" x="14.87" y="22.3" width="7.43" height="7.43"/><path class="cls-4" d="M11.23,22a.81.81,0,0,1-.75.74V22Z" transform="translate(4.38 0.33)"/><path class="cls-4" d="M17.92,22v.74a.75.75,0,0,1-.75-.74Z" transform="translate(4.38 0.33)"/><path class="cls-4" d="M11.23,29.4h-.75v-.74A.75.75,0,0,1,11.23,29.4Z" transform="translate(4.38 0.33)"/><path class="cls-4" d="M17.92,28.66v.74h-.75A.71.71,0,0,1,17.92,28.66Z" transform="translate(4.38 0.33)"/><path class="cls-4" d="M14.93,25.67a.75.75,0,0,1-.75.74.74.74,0,0,1,0-1.48A.75.75,0,0,1,14.93,25.67Z" transform="translate(4.38 0.33)"/></g><path class="cls-5" d="M25.8,66.24H7.24L19.6,41.78c-.37,0-.76,0-1.18,0C7.92,41.81,0,33.06,0,21.44,0,8.62,8.94,0,22.25,0c13.1,0,22.24,8.74,22.24,21.26a24,24,0,0,1-.66,5.79c-.74,3.28-1.91,5.95-5.51,13.42ZM10.87,64H24.41L36.31,39.5c3.74-7.74,4.69-10,5.35-13a21.85,21.85,0,0,0,.6-5.28c0-11.38-8-19-20-19s-20,7.72-20,19.21c0,10.35,7,18.15,16.18,18.15a7.71,7.71,0,0,0,2.83-.38l2.64-1ZM22.25,29.87c-4.56,0-7.63-3.35-7.63-8.34s3.07-8.34,7.63-8.34,7.62,3.43,7.62,8.52C29.87,26.51,26.74,29.87,22.25,29.87Zm0-14.45c-3.33,0-5.39,2.34-5.39,6.11s2.06,6.11,5.39,6.11,5.39-2.38,5.39-5.93C27.64,17.83,25.58,15.42,22.25,15.42Z" transform="translate(4.38 0.33)"/></g></g></svg>