<svg xmlns="http://www.w3.org/2000/svg" xmlns:xlink="http://www.w3.org/1999/xlink" viewBox="0 0 37.17 74.34"><defs><style>.cls-1{fill:none;}.cls-2{fill:#f3f3f5;}.cls-3{clip-path:url(#clip-path);}.cls-4{fill:#00abc8;}.cls-5{fill:#0075a2;}</style><clipPath id="clip-path" transform="translate(0.58 3.7)"><path class="cls-1" d="M14.67,64.59V16.71L1.12,28.48V12.88L14.67,1.11H29.29V64.59Z"/></clipPath></defs><g id="Layer_2" data-name="Layer 2"><g id="Section_2" data-name="Section 2"><path class="cls-2" d="M20.55,70.48V22.6L7,34.37V18.77L20.55,7H35.17V70.48Z" transform="translate(0.58 3.7)"/><g class="cls-3"><rect class="cls-4" x="29.73" width="7.43" height="7.43"/><path class="cls-4" d="M29.9-3.7a.8.8,0,0,1-.75.74V-3.7Z" transform="translate(0.58 3.7)"/><path class="cls-4" d="M36.59-3.7V-3a.75.75,0,0,1-.75-.74Z" transform="translate(0.58 3.7)"/><path class="cls-4" d="M29.9,3.74h-.75V3A.75.75,0,0,1,29.9,3.74Z" transform="translate(0.58 3.7)"/><path class="cls-4" d="M36.59,3v.75h-.75A.71.71,0,0,1,36.59,3Z" transform="translate(0.58 3.7)"/><path class="cls-4" d="M33.6,0a.74.74,0,0,1-.74.74A.74.74,0,0,1,32.11,0a.74.74,0,0,1,.75-.74A.74.74,0,0,1,33.6,0Z" transform="translate(0.58 3.7)"/><rect class="cls-4" x="29.73" y="7.43" width="7.43" height="7.43"/><path class="cls-4" d="M29.9,3.74a.8.8,0,0,1-.75.74V3.74Z" transform="translate(0.58 3.7)"/><path class="cls-4" d="M36.59,3.74v.74a.75.75,0,0,1-.75-.74Z" transform="translate(0.58 3.7)"/><path class="cls-4" d="M29.9,11.17h-.75v-.74A.74.74,0,0,1,29.9,11.17Z" transform="translate(0.58 3.7)"/><path class="cls-4" d="M36.59,10.43v.74h-.75A.7.7,0,0,1,36.59,10.43Z" transform="translate(0.58 3.7)"/><path class="cls-4" d="M33.6,7.43a.75.75,0,1,1-.74-.74A.74.74,0,0,1,33.6,7.43Z" transform="translate(0.58 3.7)"/><rect class="cls-4" x="29.73" y="14.87" width="7.43" height="7.43"/><path class="cls-4" d="M29.9,11.17a.8.8,0,0,1-.75.74v-.74Z" transform="translate(0.58 3.7)"/><path class="cls-4" d="M36.59,11.17v.74a.75.75,0,0,1-.75-.74Z" transform="translate(0.58 3.7)"/><path class="cls-4" d="M29.9,18.6h-.75v-.74A.75.75,0,0,1,29.9,18.6Z" transform="translate(0.58 3.7)"/><path class="cls-4" d="M36.59,17.86v.74h-.75A.71.71,0,0,1,36.59,17.86Z" transform="translate(0.58 3.7)"/><path class="cls-4" d="M33.6,14.87a.75.75,0,0,1-1.49,0,.75.75,0,1,1,1.49,0Z" transform="translate(0.58 3.7)"/><rect class="cls-4" x="29.73" y="22.3" width="7.43" height="7.43"/><path class="cls-4" d="M29.9,18.6a.81.81,0,0,1-.75.75V18.6Z" transform="translate(0.58 3.7)"/><path class="cls-4" d="M36.59,18.6v.75a.75.75,0,0,1-.75-.75Z" transform="translate(0.58 3.7)"/><path class="cls-4" d="M29.9,26h-.75v-.75A.75.75,0,0,1,29.9,26Z" transform="translate(0.58 3.7)"/><path class="cls-4" d="M36.59,25.29V26h-.75A.71.71,0,0,1,36.59,25.29Z" transform="translate(0.58 3.7)"/><path class="cls-4" d="M33.6,22.3a.75.75,0,1,1-.74-.74A.74.74,0,0,1,33.6,22.3Z" transform="translate(0.58 3.7)"/><rect class="cls-4" x="29.73" y="29.74" width="7.43" height="7.43"/><path class="cls-4" d="M29.9,26a.8.8,0,0,1-.75.74V26Z" transform="translate(0.58 3.7)"/><path class="cls-4" d="M36.59,26v.74a.75.75,0,0,1-.75-.74Z" transform="translate(0.58 3.7)"/><path class="cls-4" d="M29.9,33.47h-.75v-.74A.74.74,0,0,1,29.9,33.47Z" transform="translate(0.58 3.7)"/><path class="cls-4" d="M36.59,32.73v.74h-.75A.7.7,0,0,1,36.59,32.73Z" transform="translate(0.58 3.7)"/><path class="cls-4" d="M33.6,29.73a.75.75,0,1,1-.74-.74A.74.74,0,0,1,33.6,29.73Z" transform="translate(0.58 3.7)"/><rect class="cls-4" x="29.73" y="37.17" width="7.43" height="7.43"/><path class="cls-4" d="M29.9,33.47a.8.8,0,0,1-.75.74v-.74Z" transform="translate(0.58 3.7)"/><path class="cls-4" d="M36.59,33.47v.74a.75.75,0,0,1-.75-.74Z" transform="translate(0.58 3.7)"/><path class="cls-4" d="M29.9,40.9h-.75v-.74A.75.75,0,0,1,29.9,40.9Z" transform="translate(0.58 3.7)"/><path class="cls-4" d="M36.59,40.16v.74h-.75A.71.71,0,0,1,36.59,40.16Z" transform="translate(0.58 3.7)"/><path class="cls-4" d="M33.6,37.17a.75.75,0,0,1-1.49,0,.75.75,0,1,1,1.49,0Z" transform="translate(0.58 3.7)"/><rect class="cls-4" x="29.73" y="44.6" width="7.43" height="7.43"/><path class="cls-4" d="M29.9,40.9a.8.8,0,0,1-.75.75V40.9Z" transform="translate(0.58 3.7)"/><path class="cls-4" d="M36.59,40.9v.75a.75.75,0,0,1-.75-.75Z" transform="translate(0.58 3.7)"/><path class="cls-4" d="M29.9,48.34h-.75v-.75A.75.75,0,0,1,29.9,48.34Z" transform="translate(0.58 3.7)"/><path class="cls-4" d="M36.59,47.59v.75h-.75A.71.71,0,0,1,36.59,47.59Z" transform="translate(0.58 3.7)"/><path class="cls-4" d="M33.6,44.6a.75.75,0,1,1-.74-.74A.74.74,0,0,1,33.6,44.6Z" transform="translate(0.58 3.7)"/><rect class="cls-4" x="29.73" y="52.04" width="7.43" height="7.43"/><path class="cls-4" d="M29.9,48.34a.8.8,0,0,1-.75.74v-.74Z" transform="translate(0.58 3.7)"/><path class="cls-4" d="M36.59,48.34v.74a.75.75,0,0,1-.75-.74Z" transform="translate(0.58 3.7)"/><path class="cls-4" d="M29.9,55.77h-.75V55A.75.75,0,0,1,29.9,55.77Z" transform="translate(0.58 3.7)"/><path class="cls-4" d="M36.59,55v.74h-.75A.71.71,0,0,1,36.59,55Z" transform="translate(0.58 3.7)"/><path class="cls-4" d="M33.6,52a.75.75,0,0,1-1.49,0,.75.75,0,1,1,1.49,0Z" transform="translate(0.58 3.7)"/><rect class="cls-4" x="29.73" y="59.47" width="7.43" height="7.43"/><path class="cls-4" d="M29.9,55.77a.8.8,0,0,1-.75.74v-.74Z" transform="translate(0.58 3.7)"/><path class="cls-4" d="M36.59,55.77v.74a.75.75,0,0,1-.75-.74Z" transform="translate(0.58 3.7)"/><path class="cls-4" d="M29.9,63.2h-.75v-.74A.75.75,0,0,1,29.9,63.2Z" transform="translate(0.58 3.7)"/><path class="cls-4" d="M36.59,62.46v.74h-.75A.71.71,0,0,1,36.59,62.46Z" transform="translate(0.58 3.7)"/><path class="cls-4" d="M33.6,59.47a.75.75,0,1,1-.74-.74A.74.74,0,0,1,33.6,59.47Z" transform="translate(0.58 3.7)"/><rect class="cls-4" x="29.73" y="66.9" width="7.43" height="7.43"/><path class="cls-4" d="M29.9,63.2a.8.8,0,0,1-.75.75V63.2Z" transform="translate(0.58 3.7)"/><path class="cls-4" d="M36.59,63.2V64a.75.75,0,0,1-.75-.75Z" transform="translate(0.58 3.7)"/><path class="cls-4" d="M29.9,70.64h-.75V69.9A.74.74,0,0,1,29.9,70.64Z" transform="translate(0.58 3.7)"/><path class="cls-4" d="M36.59,69.9v.74h-.75A.7.7,0,0,1,36.59,69.9Z" transform="translate(0.58 3.7)"/><path class="cls-4" d="M33.6,66.9a.75.75,0,1,1-.74-.74A.74.74,0,0,1,33.6,66.9Z" transform="translate(0.58 3.7)"/><rect class="cls-4" x="22.3" width="7.43" height="7.43"/><path class="cls-4" d="M22.46-3.7a.8.8,0,0,1-.74.74V-3.7Z" transform="translate(0.58 3.7)"/><path class="cls-4" d="M29.15-3.7V-3a.74.74,0,0,1-.74-.74Z" transform="translate(0.58 3.7)"/><path class="cls-4" d="M22.46,3.74h-.74V3A.75.75,0,0,1,22.46,3.74Z" transform="translate(0.58 3.7)"/><path class="cls-4" d="M29.15,3v.75h-.74A.71.71,0,0,1,29.15,3Z" transform="translate(0.58 3.7)"/><path class="cls-4" d="M26.16,0a.74.74,0,0,1-1.48,0,.74.74,0,0,1,.74-.74A.74.74,0,0,1,26.16,0Z" transform="translate(0.58 3.7)"/><rect class="cls-4" x="22.3" y="7.43" width="7.43" height="7.43"/><path class="cls-4" d="M22.46,3.74a.8.8,0,0,1-.74.74V3.74Z" transform="translate(0.58 3.7)"/><path class="cls-4" d="M29.15,3.74v.74a.74.74,0,0,1-.74-.74Z" transform="translate(0.58 3.7)"/><path class="cls-4" d="M22.46,11.17h-.74v-.74A.74.74,0,0,1,22.46,11.17Z" transform="translate(0.58 3.7)"/><path class="cls-4" d="M29.15,10.43v.74h-.74A.7.7,0,0,1,29.15,10.43Z" transform="translate(0.58 3.7)"/><circle class="cls-4" cx="26" cy="11.13" r="0.74"/><rect class="cls-4" x="22.3" y="14.87" width="7.43" height="7.43"/><path class="cls-4" d="M22.46,11.17a.8.8,0,0,1-.74.74v-.74Z" transform="translate(0.58 3.7)"/><path class="cls-4" d="M29.15,11.17v.74a.74.74,0,0,1-.74-.74Z" transform="translate(0.58 3.7)"/><path class="cls-4" d="M22.46,18.6h-.74v-.74A.74.74,0,0,1,22.46,18.6Z" transform="translate(0.58 3.7)"/><path class="cls-4" d="M29.15,17.86v.74h-.74A.7.7,0,0,1,29.15,17.86Z" transform="translate(0.58 3.7)"/><path class="cls-4" d="M26.16,14.87a.74.74,0,1,1-1.48,0,.74.74,0,1,1,1.48,0Z" transform="translate(0.58 3.7)"/><rect class="cls-4" x="22.3" y="22.3" width="7.43" height="7.43"/><path class="cls-4" d="M22.46,18.6a.81.81,0,0,1-.74.75V18.6Z" transform="translate(0.58 3.7)"/><path class="cls-4" d="M29.15,18.6v.75a.75.75,0,0,1-.74-.75Z" transform="translate(0.58 3.7)"/><path class="cls-4" d="M22.46,26h-.74v-.75A.75.75,0,0,1,22.46,26Z" transform="translate(0.58 3.7)"/><path class="cls-4" d="M29.15,25.29V26h-.74A.71.71,0,0,1,29.15,25.29Z" transform="translate(0.58 3.7)"/><path class="cls-4" d="M26.16,22.3a.74.74,0,1,1-.74-.74A.74.74,0,0,1,26.16,22.3Z" transform="translate(0.58 3.7)"/><rect class="cls-4" x="22.3" y="29.74" width="7.43" height="7.43"/><path class="cls-4" d="M22.46,26a.8.8,0,0,1-.74.74V26Z" transform="translate(0.58 3.7)"/><path class="cls-4" d="M29.15,26v.74a.74.74,0,0,1-.74-.74Z" transform="translate(0.58 3.7)"/><path class="cls-4" d="M22.46,33.47h-.74v-.74A.74.74,0,0,1,22.46,33.47Z" transform="translate(0.58 3.7)"/><path class="cls-4" d="M29.15,32.73v.74h-.74A.7.7,0,0,1,29.15,32.73Z" transform="translate(0.58 3.7)"/><path class="cls-4" d="M26.16,29.73a.74.74,0,1,1-.74-.74A.74.74,0,0,1,26.16,29.73Z" transform="translate(0.58 3.7)"/><rect class="cls-4" x="22.3" y="37.17" width="7.43" height="7.43"/><path class="cls-4" d="M22.46,33.47a.8.8,0,0,1-.74.74v-.74Z" transform="translate(0.58 3.7)"/><path class="cls-4" d="M29.15,33.47v.74a.74.74,0,0,1-.74-.74Z" transform="translate(0.58 3.7)"/><path class="cls-4" d="M22.46,40.9h-.74v-.74A.74.74,0,0,1,22.46,40.9Z" transform="translate(0.58 3.7)"/><path class="cls-4" d="M29.15,40.16v.74h-.74A.7.7,0,0,1,29.15,40.16Z" transform="translate(0.58 3.7)"/><path class="cls-4" d="M26.16,37.17a.74.74,0,1,1-1.48,0,.74.74,0,1,1,1.48,0Z" transform="translate(0.58 3.7)"/><rect class="cls-4" x="22.3" y="44.6" width="7.43" height="7.43"/><path class="cls-4" d="M22.46,40.9a.8.8,0,0,1-.74.75V40.9Z" transform="translate(0.58 3.7)"/><path class="cls-4" d="M29.15,40.9v.75a.75.75,0,0,1-.74-.75Z" transform="translate(0.58 3.7)"/><path class="cls-4" d="M22.46,48.34h-.74v-.75A.75.75,0,0,1,22.46,48.34Z" transform="translate(0.58 3.7)"/><path class="cls-4" d="M29.15,47.59v.75h-.74A.71.71,0,0,1,29.15,47.59Z" transform="translate(0.58 3.7)"/><circle class="cls-4" cx="26" cy="48.3" r="0.74"/><rect class="cls-4" x="22.3" y="52.04" width="7.43" height="7.43"/><path class="cls-4" d="M22.46,48.34a.8.8,0,0,1-.74.74v-.74Z" transform="translate(0.58 3.7)"/><path class="cls-4" d="M29.15,48.34v.74a.74.74,0,0,1-.74-.74Z" transform="translate(0.58 3.7)"/><path class="cls-4" d="M22.46,55.77h-.74V55A.74.74,0,0,1,22.46,55.77Z" transform="translate(0.58 3.7)"/><path class="cls-4" d="M29.15,55v.74h-.74A.7.7,0,0,1,29.15,55Z" transform="translate(0.58 3.7)"/><path class="cls-4" d="M26.16,52a.74.74,0,1,1-1.48,0,.74.74,0,1,1,1.48,0Z" transform="translate(0.58 3.7)"/><rect class="cls-4" x="22.3" y="59.47" width="7.43" height="7.43"/><path class="cls-4" d="M22.46,55.77a.8.8,0,0,1-.74.74v-.74Z" transform="translate(0.58 3.7)"/><path class="cls-4" d="M29.15,55.77v.74a.74.74,0,0,1-.74-.74Z" transform="translate(0.58 3.7)"/><path class="cls-4" d="M22.46,63.2h-.74v-.74A.74.74,0,0,1,22.46,63.2Z" transform="translate(0.58 3.7)"/><path class="cls-4" d="M29.15,62.46v.74h-.74A.7.7,0,0,1,29.15,62.46Z" transform="translate(0.58 3.7)"/><circle class="cls-4" cx="26" cy="63.17" r="0.74"/><rect class="cls-4" x="22.3" y="66.9" width="7.43" height="7.43"/><path class="cls-4" d="M22.46,63.2a.8.8,0,0,1-.74.75V63.2Z" transform="translate(0.58 3.7)"/><path class="cls-4" d="M29.15,63.2V64a.75.75,0,0,1-.74-.75Z" transform="translate(0.58 3.7)"/><path class="cls-4" d="M22.46,70.64h-.74V69.9A.74.74,0,0,1,22.46,70.64Z" transform="translate(0.58 3.7)"/><path class="cls-4" d="M29.15,69.9v.74h-.74A.7.7,0,0,1,29.15,69.9Z" transform="translate(0.58 3.7)"/><path class="cls-4" d="M26.16,66.9a.74.74,0,1,1-1.48,0,.74.74,0,0,1,1.48,0Z" transform="translate(0.58 3.7)"/><rect class="cls-4" x="14.87" width="7.43" height="7.43"/><path class="cls-4" d="M15-3.7a.8.8,0,0,1-.74.74V-3.7Z" transform="translate(0.58 3.7)"/><path class="cls-4" d="M21.72-3.7V-3A.74.74,0,0,1,21-3.7Z" transform="translate(0.58 3.7)"/><path class="cls-4" d="M15,3.74h-.74V3A.75.75,0,0,1,15,3.74Z" transform="translate(0.58 3.7)"/><path class="cls-4" d="M21.72,3v.75H21A.7.7,0,0,1,21.72,3Z" transform="translate(0.58 3.7)"/><path class="cls-4" d="M18.73,0A.74.74,0,0,1,18,.74.75.75,0,0,1,17.24,0,.75.75,0,0,1,18-.74.74.74,0,0,1,18.73,0Z" transform="translate(0.58 3.7)"/><rect class="cls-4" x="14.87" y="7.43" width="7.43" height="7.43"/><path class="cls-4" d="M15,3.74a.8.8,0,0,1-.74.74V3.74Z" transform="translate(0.58 3.7)"/><path class="cls-4" d="M21.72,3.74v.74A.74.74,0,0,1,21,3.74Z" transform="translate(0.58 3.7)"/><path class="cls-4" d="M15,11.17h-.74v-.74A.74.74,0,0,1,15,11.17Z" transform="translate(0.58 3.7)"/><path class="cls-4" d="M21.72,10.43v.74H21A.69.69,0,0,1,21.72,10.43Z" transform="translate(0.58 3.7)"/><path class="cls-4" d="M18.73,7.43a.75.75,0,0,1-.74.75.76.76,0,0,1-.75-.75A.75.75,0,0,1,18,6.69.74.74,0,0,1,18.73,7.43Z" transform="translate(0.58 3.7)"/><rect class="cls-4" x="14.87" y="14.87" width="7.43" height="7.43"/><path class="cls-4" d="M15,11.17a.8.8,0,0,1-.74.74v-.74Z" transform="translate(0.58 3.7)"/><path class="cls-4" d="M21.72,11.17v.74a.74.74,0,0,1-.74-.74Z" transform="translate(0.58 3.7)"/><path class="cls-4" d="M15,18.6h-.74v-.74A.74.74,0,0,1,15,18.6Z" transform="translate(0.58 3.7)"/><path class="cls-4" d="M21.72,17.86v.74H21A.7.7,0,0,1,21.72,17.86Z" transform="translate(0.58 3.7)"/><path class="cls-4" d="M18.73,14.87a.74.74,0,0,1-.74.74.75.75,0,0,1-.75-.74.76.76,0,0,1,.75-.75A.75.75,0,0,1,18.73,14.87Z" transform="translate(0.58 3.7)"/><rect class="cls-4" x="14.87" y="22.3" width="7.43" height="7.43"/><path class="cls-4" d="M15,18.6a.81.81,0,0,1-.74.75V18.6Z" transform="translate(0.58 3.7)"/><path class="cls-4" d="M21.72,18.6v.75A.75.75,0,0,1,21,18.6Z" transform="translate(0.58 3.7)"/><path class="cls-4" d="M15,26h-.74v-.75A.75.75,0,0,1,15,26Z" transform="translate(0.58 3.7)"/><path class="cls-4" d="M21.72,25.29V26H21A.7.7,0,0,1,21.72,25.29Z" transform="translate(0.58 3.7)"/><path class="cls-4" d="M18.73,22.3A.74.74,0,0,1,18,23a.74.74,0,1,1,0-1.48A.74.74,0,0,1,18.73,22.3Z" transform="translate(0.58 3.7)"/><rect class="cls-4" x="14.87" y="29.74" width="7.43" height="7.43"/><path class="cls-4" d="M15,26a.8.8,0,0,1-.74.74V26Z" transform="translate(0.58 3.7)"/><path class="cls-4" d="M21.72,26v.74A.74.74,0,0,1,21,26Z" transform="translate(0.58 3.7)"/><path class="cls-4" d="M15,33.47h-.74v-.74A.74.74,0,0,1,15,33.47Z" transform="translate(0.58 3.7)"/><path class="cls-4" d="M21.72,32.73v.74H21A.69.69,0,0,1,21.72,32.73Z" transform="translate(0.58 3.7)"/><path class="cls-4" d="M18.73,29.73a.74.74,0,0,1-.74.75A.75.75,0,1,1,18,29,.74.74,0,0,1,18.73,29.73Z" transform="translate(0.58 3.7)"/><rect class="cls-4" x="14.87" y="37.17" width="7.43" height="7.43"/><path class="cls-4" d="M15,33.47a.8.8,0,0,1-.74.74v-.74Z" transform="translate(0.58 3.7)"/><path class="cls-4" d="M21.72,33.47v.74a.74.74,0,0,1-.74-.74Z" transform="translate(0.58 3.7)"/><path class="cls-4" d="M15,40.9h-.74v-.74A.74.74,0,0,1,15,40.9Z" transform="translate(0.58 3.7)"/><path class="cls-4" d="M21.72,40.16v.74H21A.7.7,0,0,1,21.72,40.16Z" transform="translate(0.58 3.7)"/><path class="cls-4" d="M18.73,37.17a.74.74,0,0,1-.74.74.75.75,0,0,1-.75-.74.76.76,0,0,1,.75-.75A.75.75,0,0,1,18.73,37.17Z" transform="translate(0.58 3.7)"/><rect class="cls-4" x="14.87" y="44.6" width="7.43" height="7.43"/><path class="cls-4" d="M15,40.9a.8.8,0,0,1-.74.75V40.9Z" transform="translate(0.58 3.7)"/><path class="cls-4" d="M21.72,40.9v.75A.74.74,0,0,1,21,40.9Z" transform="translate(0.58 3.7)"/><path class="cls-4" d="M15,48.34h-.74v-.75A.75.75,0,0,1,15,48.34Z" transform="translate(0.58 3.7)"/><path class="cls-4" d="M21.72,47.59v.75H21A.7.7,0,0,1,21.72,47.59Z" transform="translate(0.58 3.7)"/><path class="cls-4" d="M18.73,44.6a.75.75,0,0,1-.74.75.76.76,0,0,1-.75-.75.75.75,0,0,1,.75-.74A.74.74,0,0,1,18.73,44.6Z" transform="translate(0.58 3.7)"/><rect class="cls-4" x="14.87" y="52.04" width="7.43" height="7.43"/><path class="cls-4" d="M15,48.34a.8.8,0,0,1-.74.74v-.74Z" transform="translate(0.58 3.7)"/><path class="cls-4" d="M21.72,48.34v.74a.74.74,0,0,1-.74-.74Z" transform="translate(0.58 3.7)"/><path class="cls-4" d="M15,55.77h-.74V55A.74.74,0,0,1,15,55.77Z" transform="translate(0.58 3.7)"/><path class="cls-4" d="M21.72,55v.74H21A.7.7,0,0,1,21.72,55Z" transform="translate(0.58 3.7)"/><path class="cls-4" d="M18.73,52a.74.74,0,0,1-.74.74.75.75,0,0,1-.75-.74.76.76,0,0,1,.75-.75A.75.75,0,0,1,18.73,52Z" transform="translate(0.58 3.7)"/><rect class="cls-4" x="14.87" y="59.47" width="7.43" height="7.43"/><path class="cls-4" d="M15,55.77a.8.8,0,0,1-.74.74v-.74Z" transform="translate(0.58 3.7)"/><path class="cls-4" d="M21.72,55.77v.74a.74.74,0,0,1-.74-.74Z" transform="translate(0.58 3.7)"/><path class="cls-4" d="M15,63.2h-.74v-.74A.74.74,0,0,1,15,63.2Z" transform="translate(0.58 3.7)"/><path class="cls-4" d="M21.72,62.46v.74H21A.7.7,0,0,1,21.72,62.46Z" transform="translate(0.58 3.7)"/><path class="cls-4" d="M18.73,59.47a.74.74,0,0,1-.74.74.74.74,0,1,1,0-1.48A.74.74,0,0,1,18.73,59.47Z" transform="translate(0.58 3.7)"/><rect class="cls-4" x="14.87" y="66.9" width="7.43" height="7.43"/><path class="cls-4" d="M15,63.2a.8.8,0,0,1-.74.75V63.2Z" transform="translate(0.58 3.7)"/><path class="cls-4" d="M21.72,63.2V64A.74.74,0,0,1,21,63.2Z" transform="translate(0.58 3.7)"/><path class="cls-4" d="M15,70.64h-.74V69.9A.74.74,0,0,1,15,70.64Z" transform="translate(0.58 3.7)"/><path class="cls-4" d="M21.72,69.9v.74H21A.69.69,0,0,1,21.72,69.9Z" transform="translate(0.58 3.7)"/><path class="cls-4" d="M18.73,66.9a.75.75,0,0,1-.74.75.76.76,0,0,1-.75-.75.75.75,0,0,1,.75-.74A.74.74,0,0,1,18.73,66.9Z" transform="translate(0.58 3.7)"/><rect class="cls-4" x="7.43" width="7.43" height="7.43"/><path class="cls-4" d="M7.6-3.7A.81.81,0,0,1,6.85-3V-3.7Z" transform="translate(0.58 3.7)"/><path class="cls-4" d="M14.29-3.7V-3a.75.75,0,0,1-.75-.74Z" transform="translate(0.58 3.7)"/><path class="cls-4" d="M7.6,3.74H6.85V3A.75.75,0,0,1,7.6,3.74Z" transform="translate(0.58 3.7)"/><path class="cls-4" d="M14.29,3v.75h-.75A.71.71,0,0,1,14.29,3Z" transform="translate(0.58 3.7)"/><path class="cls-4" d="M11.3,0a.75.75,0,0,1-.75.74A.74.74,0,0,1,9.81,0a.74.74,0,0,1,.74-.74A.75.75,0,0,1,11.3,0Z" transform="translate(0.58 3.7)"/><rect class="cls-4" x="7.43" y="7.43" width="7.43" height="7.43"/><path class="cls-4" d="M7.6,3.74a.81.81,0,0,1-.75.74V3.74Z" transform="translate(0.58 3.7)"/><path class="cls-4" d="M14.29,3.74v.74a.75.75,0,0,1-.75-.74Z" transform="translate(0.58 3.7)"/><path class="cls-4" d="M7.6,11.17H6.85v-.74A.75.75,0,0,1,7.6,11.17Z" transform="translate(0.58 3.7)"/><path class="cls-4" d="M14.29,10.43v.74h-.75A.7.7,0,0,1,14.29,10.43Z" transform="translate(0.58 3.7)"/><path class="cls-4" d="M11.3,7.43a.76.76,0,0,1-.75.75.75.75,0,0,1-.74-.75.74.74,0,0,1,.74-.74A.75.75,0,0,1,11.3,7.43Z" transform="translate(0.58 3.7)"/><rect class="cls-4" x="7.43" y="14.87" width="7.43" height="7.43"/><path class="cls-4" d="M7.6,11.17a.81.81,0,0,1-.75.74v-.74Z" transform="translate(0.58 3.7)"/><path class="cls-4" d="M14.29,11.17v.74a.75.75,0,0,1-.75-.74Z" transform="translate(0.58 3.7)"/><path class="cls-4" d="M7.6,18.6H6.85v-.74A.75.75,0,0,1,7.6,18.6Z" transform="translate(0.58 3.7)"/><path class="cls-4" d="M14.29,17.86v.74h-.75A.71.71,0,0,1,14.29,17.86Z" transform="translate(0.58 3.7)"/><path class="cls-4" d="M11.3,14.87a.75.75,0,0,1-.75.74.74.74,0,0,1-.74-.74.75.75,0,0,1,.74-.75A.76.76,0,0,1,11.3,14.87Z" transform="translate(0.58 3.7)"/><rect class="cls-4" x="7.43" y="22.3" width="7.43" height="7.43"/><path class="cls-4" d="M7.6,18.6a.81.81,0,0,1-.75.75V18.6Z" transform="translate(0.58 3.7)"/><path class="cls-4" d="M14.29,18.6v.75a.75.75,0,0,1-.75-.75Z" transform="translate(0.58 3.7)"/><path class="cls-4" d="M7.6,26H6.85v-.75A.75.75,0,0,1,7.6,26Z" transform="translate(0.58 3.7)"/><path class="cls-4" d="M14.29,25.29V26h-.75A.71.71,0,0,1,14.29,25.29Z" transform="translate(0.58 3.7)"/><path class="cls-4" d="M11.3,22.3a.75.75,0,0,1-.75.74.74.74,0,1,1,0-1.48A.75.75,0,0,1,11.3,22.3Z" transform="translate(0.58 3.7)"/><rect class="cls-4" x="7.43" y="29.74" width="7.43" height="7.43"/><path class="cls-4" d="M7.6,26a.81.81,0,0,1-.75.74V26Z" transform="translate(0.58 3.7)"/><path class="cls-4" d="M14.29,26v.74a.75.75,0,0,1-.75-.74Z" transform="translate(0.58 3.7)"/><path class="cls-4" d="M7.6,33.47H6.85v-.74A.75.75,0,0,1,7.6,33.47Z" transform="translate(0.58 3.7)"/><path class="cls-4" d="M14.29,32.73v.74h-.75A.7.7,0,0,1,14.29,32.73Z" transform="translate(0.58 3.7)"/><path class="cls-4" d="M11.3,29.73a.75.75,0,0,1-.75.75.75.75,0,1,1,.75-.75Z" transform="translate(0.58 3.7)"/><rect class="cls-4" x="7.43" y="37.17" width="7.43" height="7.43"/><path class="cls-4" d="M7.6,33.47a.81.81,0,0,1-.75.74v-.74Z" transform="translate(0.58 3.7)"/><path class="cls-4" d="M14.29,33.47v.74a.75.75,0,0,1-.75-.74Z" transform="translate(0.58 3.7)"/><path class="cls-4" d="M7.6,40.9H6.85v-.74A.75.75,0,0,1,7.6,40.9Z" transform="translate(0.58 3.7)"/><path class="cls-4" d="M14.29,40.16v.74h-.75A.71.71,0,0,1,14.29,40.16Z" transform="translate(0.58 3.7)"/><path class="cls-4" d="M11.3,37.17a.75.75,0,0,1-.75.74.74.74,0,0,1-.74-.74.75.75,0,0,1,.74-.75A.76.76,0,0,1,11.3,37.17Z" transform="translate(0.58 3.7)"/><rect class="cls-4" x="7.43" y="44.6" width="7.43" height="7.43"/><path class="cls-4" d="M7.6,40.9a.81.81,0,0,1-.75.75V40.9Z" transform="translate(0.58 3.7)"/><path class="cls-4" d="M14.29,40.9v.75a.75.75,0,0,1-.75-.75Z" transform="translate(0.58 3.7)"/><path class="cls-4" d="M7.6,48.34H6.85v-.75A.75.75,0,0,1,7.6,48.34Z" transform="translate(0.58 3.7)"/><path class="cls-4" d="M14.29,47.59v.75h-.75A.71.71,0,0,1,14.29,47.59Z" transform="translate(0.58 3.7)"/><path class="cls-4" d="M11.3,44.6a.76.76,0,0,1-.75.75.75.75,0,0,1-.74-.75.74.74,0,0,1,.74-.74A.75.75,0,0,1,11.3,44.6Z" transform="translate(0.58 3.7)"/><rect class="cls-4" x="7.43" y="52.04" width="7.43" height="7.43"/><path class="cls-4" d="M7.6,48.34a.81.81,0,0,1-.75.74v-.74Z" transform="translate(0.58 3.7)"/><path class="cls-4" d="M14.29,48.34v.74a.75.75,0,0,1-.75-.74Z" transform="translate(0.58 3.7)"/><path class="cls-4" d="M7.6,55.77H6.85V55A.75.75,0,0,1,7.6,55.77Z" transform="translate(0.58 3.7)"/><path class="cls-4" d="M14.29,55v.74h-.75A.71.71,0,0,1,14.29,55Z" transform="translate(0.58 3.7)"/><path class="cls-4" d="M11.3,52a.75.75,0,0,1-.75.74A.74.74,0,0,1,9.81,52a.75.75,0,0,1,.74-.75A.76.76,0,0,1,11.3,52Z" transform="translate(0.58 3.7)"/><rect class="cls-4" x="7.43" y="59.47" width="7.43" height="7.43"/><path class="cls-4" d="M7.6,55.77a.81.81,0,0,1-.75.74v-.74Z" transform="translate(0.58 3.7)"/><path class="cls-4" d="M14.29,55.77v.74a.75.75,0,0,1-.75-.74Z" transform="translate(0.58 3.7)"/><path class="cls-4" d="M7.6,63.2H6.85v-.74A.75.75,0,0,1,7.6,63.2Z" transform="translate(0.58 3.7)"/><path class="cls-4" d="M14.29,62.46v.74h-.75A.71.71,0,0,1,14.29,62.46Z" transform="translate(0.58 3.7)"/><path class="cls-4" d="M11.3,59.47a.75.75,0,0,1-.75.74.74.74,0,1,1,0-1.48A.75.75,0,0,1,11.3,59.47Z" transform="translate(0.58 3.7)"/><rect class="cls-4" x="7.43" y="66.9" width="7.43" height="7.43"/><path class="cls-4" d="M7.6,63.2a.81.81,0,0,1-.75.75V63.2Z" transform="translate(0.58 3.7)"/><path class="cls-4" d="M14.29,63.2V64a.75.75,0,0,1-.75-.75Z" transform="translate(0.58 3.7)"/><path class="cls-4" d="M7.6,70.64H6.85V69.9A.75.75,0,0,1,7.6,70.64Z" transform="translate(0.58 3.7)"/><path class="cls-4" d="M14.29,69.9v.74h-.75A.7.7,0,0,1,14.29,69.9Z" transform="translate(0.58 3.7)"/><path class="cls-4" d="M11.3,66.9a.76.76,0,0,1-.75.75.75.75,0,0,1-.74-.75.74.74,0,0,1,.74-.74A.75.75,0,0,1,11.3,66.9Z" transform="translate(0.58 3.7)"/><rect class="cls-4" width="7.43" height="7.43"/><path class="cls-4" d="M.16-3.7A.8.8,0,0,1-.58-3V-3.7Z" transform="translate(0.58 3.7)"/><path class="cls-4" d="M6.85-3.7V-3a.74.74,0,0,1-.74-.74Z" transform="translate(0.58 3.7)"/><path class="cls-4" d="M.16,3.74H-.58V3A.75.75,0,0,1,.16,3.74Z" transform="translate(0.58 3.7)"/><path class="cls-4" d="M6.85,3v.75H6.11A.71.71,0,0,1,6.85,3Z" transform="translate(0.58 3.7)"/><path class="cls-4" d="M3.86,0A.74.74,0,0,1,2.38,0a.74.74,0,0,1,.74-.74A.74.74,0,0,1,3.86,0Z" transform="translate(0.58 3.7)"/><rect class="cls-4" y="7.43" width="7.43" height="7.43"/><path class="cls-4" d="M.16,3.74a.8.8,0,0,1-.74.74V3.74Z" transform="translate(0.58 3.7)"/><path class="cls-4" d="M6.85,3.74v.74a.74.74,0,0,1-.74-.74Z" transform="translate(0.58 3.7)"/><path class="cls-4" d="M.16,11.17H-.58v-.74A.74.74,0,0,1,.16,11.17Z" transform="translate(0.58 3.7)"/><path class="cls-4" d="M6.85,10.43v.74H6.11A.7.7,0,0,1,6.85,10.43Z" transform="translate(0.58 3.7)"/><path class="cls-4" d="M3.86,7.43a.74.74,0,1,1-1.48,0,.74.74,0,0,1,1.48,0Z" transform="translate(0.58 3.7)"/><rect class="cls-4" y="14.87" width="7.43" height="7.43"/><path class="cls-4" d="M.16,11.17a.8.8,0,0,1-.74.74v-.74Z" transform="translate(0.58 3.7)"/><path class="cls-4" d="M6.85,11.17v.74a.74.74,0,0,1-.74-.74Z" transform="translate(0.58 3.7)"/><path class="cls-4" d="M.16,18.6H-.58v-.74A.74.74,0,0,1,.16,18.6Z" transform="translate(0.58 3.7)"/><path class="cls-4" d="M6.85,17.86v.74H6.11A.7.7,0,0,1,6.85,17.86Z" transform="translate(0.58 3.7)"/><path class="cls-4" d="M3.86,14.87a.74.74,0,0,1-1.48,0,.74.74,0,1,1,1.48,0Z" transform="translate(0.58 3.7)"/><rect class="cls-4" y="22.3" width="7.43" height="7.43"/><path class="cls-4" d="M.16,18.6a.81.81,0,0,1-.74.75V18.6Z" transform="translate(0.58 3.7)"/><path class="cls-4" d="M6.85,18.6v.75a.75.75,0,0,1-.74-.75Z" transform="translate(0.58 3.7)"/><path class="cls-4" d="M.16,26H-.58v-.75A.75.75,0,0,1,.16,26Z" transform="translate(0.58 3.7)"/><path class="cls-4" d="M6.85,25.29V26H6.11A.71.71,0,0,1,6.85,25.29Z" transform="translate(0.58 3.7)"/><path class="cls-4" d="M3.86,22.3a.74.74,0,1,1-.74-.74A.74.74,0,0,1,3.86,22.3Z" transform="translate(0.58 3.7)"/><rect class="cls-4" y="29.74" width="7.43" height="7.43"/><path class="cls-4" d="M.16,26a.8.8,0,0,1-.74.74V26Z" transform="translate(0.58 3.7)"/><path class="cls-4" d="M6.85,26v.74A.74.74,0,0,1,6.11,26Z" transform="translate(0.58 3.7)"/><path class="cls-4" d="M.16,33.47H-.58v-.74A.74.74,0,0,1,.16,33.47Z" transform="translate(0.58 3.7)"/><path class="cls-4" d="M6.85,32.73v.74H6.11A.7.7,0,0,1,6.85,32.73Z" transform="translate(0.58 3.7)"/><path class="cls-4" d="M3.86,29.73A.74.74,0,1,1,3.12,29,.74.74,0,0,1,3.86,29.73Z" transform="translate(0.58 3.7)"/><rect class="cls-4" y="37.17" width="7.43" height="7.43"/><path class="cls-4" d="M.16,33.47a.8.8,0,0,1-.74.74v-.74Z" transform="translate(0.58 3.7)"/><path class="cls-4" d="M6.85,33.47v.74a.74.74,0,0,1-.74-.74Z" transform="translate(0.58 3.7)"/><path class="cls-4" d="M.16,40.9H-.58v-.74A.74.74,0,0,1,.16,40.9Z" transform="translate(0.58 3.7)"/><path class="cls-4" d="M6.85,40.16v.74H6.11A.7.7,0,0,1,6.85,40.16Z" transform="translate(0.58 3.7)"/><path class="cls-4" d="M3.86,37.17a.74.74,0,0,1-1.48,0,.74.74,0,1,1,1.48,0Z" transform="translate(0.58 3.7)"/><rect class="cls-4" y="44.6" width="7.43" height="7.43"/><path class="cls-4" d="M.16,40.9a.8.8,0,0,1-.74.75V40.9Z" transform="translate(0.58 3.7)"/><path class="cls-4" d="M6.85,40.9v.75a.75.75,0,0,1-.74-.75Z" transform="translate(0.58 3.7)"/><path class="cls-4" d="M.16,48.34H-.58v-.75A.75.75,0,0,1,.16,48.34Z" transform="translate(0.58 3.7)"/><path class="cls-4" d="M6.85,47.59v.75H6.11A.71.71,0,0,1,6.85,47.59Z" transform="translate(0.58 3.7)"/><path class="cls-4" d="M3.86,44.6a.74.74,0,1,1-1.48,0,.74.74,0,0,1,1.48,0Z" transform="translate(0.58 3.7)"/><rect class="cls-4" y="52.04" width="7.43" height="7.43"/><path class="cls-4" d="M.16,48.34a.8.8,0,0,1-.74.74v-.74Z" transform="translate(0.58 3.7)"/><path class="cls-4" d="M6.85,48.34v.74a.74.74,0,0,1-.74-.74Z" transform="translate(0.58 3.7)"/><path class="cls-4" d="M.16,55.77H-.58V55A.74.74,0,0,1,.16,55.77Z" transform="translate(0.58 3.7)"/><path class="cls-4" d="M6.85,55v.74H6.11A.7.7,0,0,1,6.85,55Z" transform="translate(0.58 3.7)"/><path class="cls-4" d="M3.86,52a.74.74,0,0,1-1.48,0,.74.74,0,1,1,1.48,0Z" transform="translate(0.58 3.7)"/><rect class="cls-4" y="59.47" width="7.43" height="7.43"/><path class="cls-4" d="M.16,55.77a.8.8,0,0,1-.74.74v-.74Z" transform="translate(0.58 3.7)"/><path class="cls-4" d="M6.85,55.77v.74a.74.74,0,0,1-.74-.74Z" transform="translate(0.58 3.7)"/><path class="cls-4" d="M.16,63.2H-.58v-.74A.74.74,0,0,1,.16,63.2Z" transform="translate(0.58 3.7)"/><path class="cls-4" d="M6.85,62.46v.74H6.11A.7.7,0,0,1,6.85,62.46Z" transform="translate(0.58 3.7)"/><path class="cls-4" d="M3.86,59.47a.74.74,0,1,1-.74-.74A.74.74,0,0,1,3.86,59.47Z" transform="translate(0.58 3.7)"/><rect class="cls-4" y="66.9" width="7.43" height="7.43"/><path class="cls-4" d="M.16,63.2A.8.8,0,0,1-.58,64V63.2Z" transform="translate(0.58 3.7)"/><path class="cls-4" d="M6.85,63.2V64a.75.75,0,0,1-.74-.75Z" transform="translate(0.58 3.7)"/><path class="cls-4" d="M.16,70.64H-.58V69.9A.74.74,0,0,1,.16,70.64Z" transform="translate(0.58 3.7)"/><path class="cls-4" d="M6.85,69.9v.74H6.11A.7.7,0,0,1,6.85,69.9Z" transform="translate(0.58 3.7)"/><path class="cls-4" d="M3.86,66.9a.74.74,0,1,1-1.48,0,.74.74,0,0,1,1.48,0Z" transform="translate(0.58 3.7)"/></g><path class="cls-5" d="M30.41,65.71H13.55V19.16L0,30.93V12.37L14.26,0H30.41ZM15.79,63.48H28.17V2.23H15.09L2.24,13.39V26L15.79,14.27Z" transform="translate(0.58 3.7)"/></g></g></svg>