<?xml version="1.0" encoding="utf-8"?>
<!-- Generator: Adobe Illustrator 24.1.2, SVG Export Plug-In . SVG Version: 6.00 Build 0)  -->
<svg version="1.1" id="Layer_1" xmlns="http://www.w3.org/2000/svg" xmlns:xlink="http://www.w3.org/1999/xlink" x="0px" y="0px"
	 viewBox="0 0 1920 600" style="enable-background:new 0 0 1920 600;" xml:space="preserve">
<style type="text/css">
	.st0{opacity:0.63;}
	.st1{opacity:0.88;fill:#00ABC8;}
	.st2{fill:#00ABC8;}
</style>
<g class="st0">
	<path class="st1" d="M1676.7,608.1c14.3-13.9,28.2-24.3,53.9-26.5c25.8-2.3,56.3,9.4,84.8,26.5h12.8
		c-32.1-20.8-68.1-36.1-98.1-33.4c-31,2.7-46.5,16.7-63.1,33.4H1676.7z"/>
	<path class="st1" d="M1932.5,560.1c-60.3-28.4-131-44.5-196.2-44.5c-44.1,0-80.8,14.7-113.1,27.6c-27,10.8-52.5,21-78,21
		c-20.7,0-33.6-11.8-33.6-30.8c0-50.3,45.7-121.1,147.4-121.1c41.2,0,82.1,11,121.6,21.7c39.7,10.7,80.8,21.8,122.3,21.8
		c10,0,19.9-0.6,29.7-1.9v-7c-9.8,1.3-19.7,2-29.7,2c-40.4,0-81-10.9-120.2-21.5c-40.1-10.8-81.5-22-123.8-22
		c-106.8,0-154.9,74.9-154.9,128c0,22.9,16.1,37.7,41.1,37.7c27.1,0,53.3-10.5,81.1-21.6c33.2-13.3,67.6-27,110.1-27
		c65.3,0,136.3,16.5,196.2,45.4V560.1z"/>
	<path class="st1" d="M352.9,523.7c-35.6,0-75.5-20.3-106.5-54.2c-34.5-37.7-53.6-86.6-53.6-137.7c0-46.9,22-149.8,87.2-149.8
		c26.3,0,52.9,13.5,76.3,25.5c5.8,3,11.3,5.7,16.6,8.3c68.8,32.6,108.2,94.1,108.2,168.7C481.1,467.8,414.8,523.7,352.9,523.7z
		 M280,188.9c-60.1,0-80.3,98.1-80.3,142.9c0,112.9,90.7,185,153.2,185c58.6,0,121.3-53.2,121.3-132.4c0-71.8-38-131.1-104.3-162.4
		c-5.4-2.6-10.9-5.4-16.7-8.3C330.4,202.1,304.7,188.9,280,188.9z"/>
	<path class="st1" d="M1319.2-5.4c5.5,21.3,8.3,43.6,8.3,63.1c0,46.1-10.5,76.7-61.7,76.7c-56.9,0-112.7-58.8-112.7-118.8
		c0-7.2,0.8-14.3,2.4-21.1h-7.1c-1.4,6.8-2.2,13.9-2.2,21.1c0,64.6,58.1,125.7,119.6,125.7c60.3,0,68.6-40.2,68.6-83.6
		c0-19.8-2.7-41.9-8-63.1H1319.2z"/>
	<path class="st1" d="M1932.5,283.3c-81.3-13.4-245.9-71.2-245.2-143.2C1688.1,61.9,1847.1,31,1932,31.8l0.1-6.9
		c-40.5-0.4-103.3,6.2-158.5,25.7c-60.8,21.5-93.1,52.5-93.5,89.5c-0.8,79.2,172.5,137.2,252.4,150.2V283.3z"/>
	<path class="st1" d="M1545.9,270.3c-9.2-13.1-12.1-27.5-8.9-44c11.5-58.1,51.1-175.4,186.7-231.7h-16.8
		c-27.1,12.7-51.6,28.5-73.4,47.4c-52.9,45.7-88.6,109-103.2,183c-3.6,18.2-0.2,34.8,10,49.3c37.3,52.9,160.1,71.4,268.5,87.7
		c41.6,6.2,80.9,12.1,112.1,19.5l1.6-6.7c-31.5-7.4-70.9-13.3-112.7-19.6C1702.8,339.1,1581.4,320.8,1545.9,270.3z"/>
	<path class="st1" d="M1542.2-5.4c1.6,5.4,2.5,10.4,2.5,14.9c0,75.4-89.4,248-197.4,278.1c-13.9,3.9-28.1,5.8-42.6,5.8
		c-68.3,0-143-43.4-227.1-131.4c-10.3-10.8-20-20.7-29.5-30.3c-46.9-47.8-80.8-82.3-80.8-122.3c0-5.2,0.6-10.1,1.6-14.8h-7
		c-1,4.8-1.5,9.7-1.5,14.8c0,42.8,34.7,78.2,82.8,127.1c9.4,9.6,19.2,19.5,29.4,30.2c45.4,47.6,87.4,81.5,128.3,103.8
		c36.3,19.7,71.3,29.6,104.7,29.6c14.9,0,29.4-2,43.6-5.9c68.3-19.1,119.6-87.4,144.1-126.4c34.9-55.6,58.3-119.2,58.3-158.4
		c0-4.6-0.8-9.6-2.3-14.9H1542.2z"/>
	<path class="st1" d="M1396.3-5.4c7.9,28.7,11.9,63.1,11.9,103.2c0,53-27.5,77.7-86.6,77.7c-23.3,0-77.1-11-123.9-35.4
		c-41.6-21.7-91.1-61.2-91.1-126.2c0-6.3,1.1-12.7,3.2-19.3h-7.2c-1.9,6.6-2.9,13.1-2.9,19.3c0,126.4,174.9,168.5,221.9,168.5
		c62.9,0,93.5-27.7,93.5-84.6c0-39.8-3.9-74.3-11.7-103.2H1396.3z"/>
	<path class="st1" d="M1116.1,608.1h10.9c-55.8-44.1-88.3-87.1-88.3-118c0-45.7,49.6-73.9,95.5-73.9c40.1,0,215.3,45.1,272.9,59.9
		c6,1.5,14.6,3.7,14.6,3.7c38.1,9.7,51.6,49.1,51.6,80c0,15.7-4.1,32.3-11.4,48.3h7.4c7-16.1,10.9-32.6,10.9-48.3
		c0-33.3-14.9-76-56.8-86.6c0,0-8.6-2.2-14.6-3.7c-63.9-16.4-233.6-60.1-274.6-60.1c-49.3,0-102.4,30.9-102.4,80.8
		C1031.9,530.9,1078.1,577,1116.1,608.1z"/>
	<path class="st2" d="M1055.8,607.6c0.4,0.2,0.7,0.3,1.1,0.5h16.1c-4.8-2.3-9.5-4.5-14.2-6.8c-61.5-29.1-114.6-54.3-114.6-105.1
		c0-96.9,86.1-122.5,131.6-122.5c32.2,0,79.7,12.7,125.7,25c46.4,12.4,94.3,25.3,127.5,25.3c55.5,0,106.1-10.6,155-20.8
		c50.5-10.6,102.8-21.6,162.3-21.6c45.8,0,96,13.3,144.6,26.1c39.3,10.4,80,21.1,117.5,24.5l0.6-6.9c-36.9-3.3-77.3-14-116.4-24.3
		c-49-13-99.7-26.3-146.4-26.3c-60.2,0-112.8,11-163.7,21.7c-50.8,10.6-98.8,20.7-153.6,20.7c-32.2,0-79.8-12.7-125.7-25
		c-46.4-12.4-94.3-25.3-127.4-25.3c-33,0-66.1,10.6-90.9,29.2c-31.2,23.4-47.6,58-47.6,100.2C937.2,551.4,992.2,577.4,1055.8,607.6z
		"/>
	<path class="st2" d="M1720.8,543.5c-48.7,0-77.6,21.5-108.1,44.2c-8.7,6.5-17.8,13.2-27.6,19.7c-0.3,0.2-0.6,0.4-0.9,0.6h12.3
		c7.1-5,13.8-10,20.3-14.8c30.9-23,57.5-42.9,104-42.9c60.3,0,117.3,26.2,170.5,57.7h13.4C1847.9,573.5,1786.5,543.5,1720.8,543.5z"
		/>
	<path class="st2" d="M959,239.2c0,33.9-13.9,53.6-33.2,80.9c-15.4,21.7-34.5,48.8-51.9,91.4c-8.5,20.8-14.5,44-20.8,68.6
		c-11.8,45.8-23.9,92.8-53.2,128.1h8.9c28.1-36.4,40.2-83.5,51.3-126.4c6.3-24.4,12.2-47.4,20.5-67.7c17.1-41.8,36-68.5,51.1-90
		c19.2-27.2,34.4-48.7,34.4-84.7c0-136-85.4-152.2-203.5-174.6C694.3,51.7,614,36.5,531.1-5.4h-15.3
		c87.9,46.9,173.3,63.1,245.4,76.8C880.3,94,959,108.9,959,239.2z"/>
	<path class="st2" d="M467.7,104.8c-60-26.9-127.9-57.4-194.6-110.1h-10.4c70.7,57.5,142.5,89.7,202,116.4
		c93.2,41.8,160.6,72,160.6,164.5c0,207.4-105.3,331.3-281.6,331.3C129.2,606.8,58.2,423,11.3,301.4c-6.6-17.1-12.8-33.3-18.9-47.6
		v18.8c4,9.9,8,20.3,12.2,31.2c42.8,110.8,105.2,272.5,276.3,304.3h125c64.6-12.1,118-43.6,156.4-93c45.9-59,70.1-141.8,70.1-239.7
		C632.4,178.6,563.3,147.7,467.7,104.8z"/>
	<path class="st2" d="M1655.3-5.4c-59.4,35.3-89.8,82.8-114.7,130.9c-7.9,15.2-15.2,30.7-22.3,45.6c-41.9,88.5-78,164.8-207.7,164.8
		c-139.8,0-204.8-77.7-252.2-134.5c-6.7-8-13-15.5-19.1-22.4C932.5,59.4,834.3,18.5,745.1-5.4h-28c98.2,23.6,200.5,58.4,317,189.1
		c6.1,6.8,12.3,14.3,19,22.3c48.3,57.8,114.4,136.9,257.5,136.9c134,0,172.8-82,213.9-168.8c7-14.9,14.3-30.3,22.2-45.4
		c25.8-49.8,57.7-99,122.9-134.1H1655.3z"/>
	<path class="st2" d="M-7.7,368v19.1C21.5,458.2,62,518.5,110.2,562.2c20.2,18.3,41.5,33.6,63.8,45.9h14.1
		C74.3,552,15.7,430.1-7.7,368z"/>
	<path class="st2" d="M707.9,309.2c0,51-31,134.6-100.1,206.1c-31.3,32.4-76.1,68.3-136,92.9h17.4c53.6-24.6,94.4-57.9,123.6-88.1
		c62-64.1,102-146.9,102-210.8c0-112.7-101.3-168.7-218.7-233.5c-44.4-24.5-91.1-50.3-135.5-81h-12.2c47.1,33.3,97,60.9,144.3,87
		C608.2,145.4,707.9,200.5,707.9,309.2z"/>
	<path class="st2" d="M356.3,161.8c-82.4-24.9-180-54.3-260.2-167.1h-8.5c81.9,118,182.2,148.2,266.7,173.7
		c47.7,14.4,88.8,26.8,118.5,52.5c32.3,28.1,47.4,69.9,47.4,131.8C520.2,466,449.8,545,348.9,545c-129.1,0-149-83-174.3-188.1
		C150.8,257.6,123.8,145,1.3,63.6l-3.8,5.7C117.7,149.2,144.4,260.4,168,358.6c12.5,52,24.3,101.1,49.4,136.1
		c28,39.1,69.8,57.2,131.5,57.2c52.5,0,97.5-20.1,130.1-58c31-36.1,48.1-86.2,48.1-141.1C527.1,213.3,451.8,190.5,356.3,161.8z"/>
	<path class="st2" d="M1650.2,333.7c-1.5-0.1-3-1.7-3.4-3.3h3.4V333.7z"/>
</g>
</svg>
