<svg xmlns="http://www.w3.org/2000/svg" xmlns:xlink="http://www.w3.org/1999/xlink" viewBox="0 0 55.99 70.48"><defs><style>.cls-1{fill:none;}.cls-2{fill:#f3f3f5;}.cls-3{clip-path:url(#clip-path);}.cls-4{fill:#00abc8;}.cls-5{fill:#0075a2;}</style><clipPath id="clip-path" transform="translate(5.48)"><path class="cls-1" d="M24.84,64.59h-16L28.58,14.31H15v10H1.12V1.12H44.63V14.31Z"/></clipPath></defs><g id="Layer_2" data-name="Layer 2"><g id="Section_2" data-name="Section 2"><path class="cls-2" d="M30.72,70.48h-16L34.46,20.19H20.91v10H7V7h43.5V20.19Z" transform="translate(5.48)"/><g class="cls-3"><rect class="cls-4" x="44.6" y="0.99" width="7.43" height="7.43"/><path class="cls-4" d="M39.87,1a.81.81,0,0,1-.75.74V1Z" transform="translate(5.48)"/><path class="cls-4" d="M46.56,1v.74A.75.75,0,0,1,45.81,1Z" transform="translate(5.48)"/><path class="cls-4" d="M39.87,8.42h-.75V7.68A.75.75,0,0,1,39.87,8.42Z" transform="translate(5.48)"/><path class="cls-4" d="M46.56,7.68v.74h-.75A.71.71,0,0,1,46.56,7.68Z" transform="translate(5.48)"/><circle class="cls-4" cx="48.3" cy="4.69" r="0.74"/><rect class="cls-4" x="44.6" y="8.42" width="7.43" height="7.43"/><path class="cls-4" d="M39.87,8.42a.81.81,0,0,1-.75.75V8.42Z" transform="translate(5.48)"/><path class="cls-4" d="M46.56,8.42v.75a.75.75,0,0,1-.75-.75Z" transform="translate(5.48)"/><path class="cls-4" d="M39.87,15.86h-.75v-.75A.75.75,0,0,1,39.87,15.86Z" transform="translate(5.48)"/><path class="cls-4" d="M46.56,15.11v.75h-.75A.71.71,0,0,1,46.56,15.11Z" transform="translate(5.48)"/><path class="cls-4" d="M43.57,12.12a.76.76,0,0,1-.75.75.75.75,0,0,1-.74-.75.74.74,0,0,1,.74-.74A.75.75,0,0,1,43.57,12.12Z" transform="translate(5.48)"/><rect class="cls-4" x="44.6" y="15.86" width="7.43" height="7.43"/><path class="cls-4" d="M39.87,15.86a.81.81,0,0,1-.75.74v-.74Z" transform="translate(5.48)"/><path class="cls-4" d="M46.56,15.86v.74a.75.75,0,0,1-.75-.74Z" transform="translate(5.48)"/><path class="cls-4" d="M39.87,23.29h-.75v-.74A.75.75,0,0,1,39.87,23.29Z" transform="translate(5.48)"/><path class="cls-4" d="M46.56,22.55v.74h-.75A.71.71,0,0,1,46.56,22.55Z" transform="translate(5.48)"/><circle class="cls-4" cx="48.3" cy="19.56" r="0.74"/><rect class="cls-4" x="44.6" y="23.29" width="7.43" height="7.43"/><path class="cls-4" d="M39.87,23.29a.81.81,0,0,1-.75.75v-.75Z" transform="translate(5.48)"/><path class="cls-4" d="M46.56,23.29V24a.75.75,0,0,1-.75-.75Z" transform="translate(5.48)"/><path class="cls-4" d="M39.87,30.73h-.75V30A.75.75,0,0,1,39.87,30.73Z" transform="translate(5.48)"/><path class="cls-4" d="M46.56,30v.75h-.75A.71.71,0,0,1,46.56,30Z" transform="translate(5.48)"/><path class="cls-4" d="M43.57,27a.75.75,0,0,1-.75.74.74.74,0,1,1,0-1.48A.75.75,0,0,1,43.57,27Z" transform="translate(5.48)"/><rect class="cls-4" x="44.6" y="30.73" width="7.43" height="7.43"/><path class="cls-4" d="M39.87,30.73a.81.81,0,0,1-.75.74v-.74Z" transform="translate(5.48)"/><path class="cls-4" d="M46.56,30.73v.74a.75.75,0,0,1-.75-.74Z" transform="translate(5.48)"/><path class="cls-4" d="M39.87,38.16h-.75v-.74A.75.75,0,0,1,39.87,38.16Z" transform="translate(5.48)"/><path class="cls-4" d="M46.56,37.42v.74h-.75A.7.7,0,0,1,46.56,37.42Z" transform="translate(5.48)"/><path class="cls-4" d="M43.57,34.42a.76.76,0,0,1-.75.75.75.75,0,0,1-.74-.75.74.74,0,0,1,.74-.74A.75.75,0,0,1,43.57,34.42Z" transform="translate(5.48)"/><rect class="cls-4" x="44.6" y="38.16" width="7.43" height="7.43"/><path class="cls-4" d="M39.87,38.16a.81.81,0,0,1-.75.74v-.74Z" transform="translate(5.48)"/><path class="cls-4" d="M46.56,38.16v.74a.75.75,0,0,1-.75-.74Z" transform="translate(5.48)"/><path class="cls-4" d="M39.87,45.59h-.75v-.74A.75.75,0,0,1,39.87,45.59Z" transform="translate(5.48)"/><path class="cls-4" d="M46.56,44.85v.74h-.75A.71.71,0,0,1,46.56,44.85Z" transform="translate(5.48)"/><path class="cls-4" d="M43.57,41.86a.75.75,0,0,1-.75.74.74.74,0,0,1-.74-.74.75.75,0,0,1,.74-.75A.76.76,0,0,1,43.57,41.86Z" transform="translate(5.48)"/><rect class="cls-4" x="44.6" y="45.59" width="7.43" height="7.43"/><path class="cls-4" d="M39.87,45.59a.81.81,0,0,1-.75.75v-.75Z" transform="translate(5.48)"/><path class="cls-4" d="M46.56,45.59v.75a.75.75,0,0,1-.75-.75Z" transform="translate(5.48)"/><path class="cls-4" d="M39.87,53h-.75v-.75A.75.75,0,0,1,39.87,53Z" transform="translate(5.48)"/><path class="cls-4" d="M46.56,52.28V53h-.75A.71.71,0,0,1,46.56,52.28Z" transform="translate(5.48)"/><path class="cls-4" d="M43.57,49.29a.76.76,0,0,1-.75.75.75.75,0,0,1-.74-.75.74.74,0,0,1,.74-.74A.75.75,0,0,1,43.57,49.29Z" transform="translate(5.48)"/><rect class="cls-4" x="44.6" y="53.03" width="7.43" height="7.43"/><path class="cls-4" d="M39.87,53a.81.81,0,0,1-.75.74V53Z" transform="translate(5.48)"/><path class="cls-4" d="M46.56,53v.74a.75.75,0,0,1-.75-.74Z" transform="translate(5.48)"/><path class="cls-4" d="M39.87,60.46h-.75v-.74A.75.75,0,0,1,39.87,60.46Z" transform="translate(5.48)"/><path class="cls-4" d="M46.56,59.72v.74h-.75A.7.7,0,0,1,46.56,59.72Z" transform="translate(5.48)"/><circle class="cls-4" cx="48.3" cy="56.73" r="0.74"/><rect class="cls-4" x="44.6" y="60.46" width="7.43" height="7.43"/><path class="cls-4" d="M39.87,60.46a.81.81,0,0,1-.75.74v-.74Z" transform="translate(5.48)"/><path class="cls-4" d="M46.56,60.46v.74a.75.75,0,0,1-.75-.74Z" transform="translate(5.48)"/><path class="cls-4" d="M39.87,67.89h-.75v-.74A.75.75,0,0,1,39.87,67.89Z" transform="translate(5.48)"/><path class="cls-4" d="M46.56,67.15v.74h-.75A.71.71,0,0,1,46.56,67.15Z" transform="translate(5.48)"/><path class="cls-4" d="M43.57,64.16a.75.75,0,0,1-.75.74.74.74,0,0,1,0-1.48A.75.75,0,0,1,43.57,64.16Z" transform="translate(5.48)"/><rect class="cls-4" x="37.17" y="0.99" width="7.43" height="7.43"/><path class="cls-4" d="M32.43,1a.8.8,0,0,1-.74.74V1Z" transform="translate(5.48)"/><path class="cls-4" d="M39.12,1v.74A.74.74,0,0,1,38.38,1Z" transform="translate(5.48)"/><path class="cls-4" d="M32.43,8.42h-.74V7.68A.74.74,0,0,1,32.43,8.42Z" transform="translate(5.48)"/><path class="cls-4" d="M39.12,7.68v.74h-.74A.7.7,0,0,1,39.12,7.68Z" transform="translate(5.48)"/><path class="cls-4" d="M36.13,4.69A.74.74,0,1,1,35.39,4,.74.74,0,0,1,36.13,4.69Z" transform="translate(5.48)"/><rect class="cls-4" x="37.17" y="8.42" width="7.43" height="7.43"/><path class="cls-4" d="M32.43,8.42a.8.8,0,0,1-.74.75V8.42Z" transform="translate(5.48)"/><path class="cls-4" d="M39.12,8.42v.75a.75.75,0,0,1-.74-.75Z" transform="translate(5.48)"/><path class="cls-4" d="M32.43,15.86h-.74v-.75A.75.75,0,0,1,32.43,15.86Z" transform="translate(5.48)"/><path class="cls-4" d="M39.12,15.11v.75h-.74A.71.71,0,0,1,39.12,15.11Z" transform="translate(5.48)"/><path class="cls-4" d="M36.13,12.12a.74.74,0,1,1-1.48,0,.74.74,0,1,1,1.48,0Z" transform="translate(5.48)"/><rect class="cls-4" x="37.17" y="15.86" width="7.43" height="7.43"/><path class="cls-4" d="M32.43,15.86a.8.8,0,0,1-.74.74v-.74Z" transform="translate(5.48)"/><path class="cls-4" d="M39.12,15.86v.74a.74.74,0,0,1-.74-.74Z" transform="translate(5.48)"/><path class="cls-4" d="M32.43,23.29h-.74v-.74A.74.74,0,0,1,32.43,23.29Z" transform="translate(5.48)"/><path class="cls-4" d="M39.12,22.55v.74h-.74A.7.7,0,0,1,39.12,22.55Z" transform="translate(5.48)"/><path class="cls-4" d="M36.13,19.56a.74.74,0,0,1-1.48,0,.74.74,0,1,1,1.48,0Z" transform="translate(5.48)"/><rect class="cls-4" x="37.17" y="23.29" width="7.43" height="7.43"/><path class="cls-4" d="M32.43,23.29a.81.81,0,0,1-.74.75v-.75Z" transform="translate(5.48)"/><path class="cls-4" d="M39.12,23.29V24a.75.75,0,0,1-.74-.75Z" transform="translate(5.48)"/><path class="cls-4" d="M32.43,30.73h-.74V30A.75.75,0,0,1,32.43,30.73Z" transform="translate(5.48)"/><path class="cls-4" d="M39.12,30v.75h-.74A.71.71,0,0,1,39.12,30Z" transform="translate(5.48)"/><path class="cls-4" d="M36.13,27a.74.74,0,1,1-.74-.74A.74.74,0,0,1,36.13,27Z" transform="translate(5.48)"/><rect class="cls-4" x="37.17" y="30.73" width="7.43" height="7.43"/><path class="cls-4" d="M32.43,30.73a.8.8,0,0,1-.74.74v-.74Z" transform="translate(5.48)"/><path class="cls-4" d="M39.12,30.73v.74a.74.74,0,0,1-.74-.74Z" transform="translate(5.48)"/><path class="cls-4" d="M32.43,38.16h-.74v-.74A.74.74,0,0,1,32.43,38.16Z" transform="translate(5.48)"/><path class="cls-4" d="M39.12,37.42v.74h-.74A.7.7,0,0,1,39.12,37.42Z" transform="translate(5.48)"/><path class="cls-4" d="M36.13,34.42a.74.74,0,1,1-1.48,0,.74.74,0,0,1,1.48,0Z" transform="translate(5.48)"/><rect class="cls-4" x="37.17" y="38.16" width="7.43" height="7.43"/><path class="cls-4" d="M32.43,38.16a.8.8,0,0,1-.74.74v-.74Z" transform="translate(5.48)"/><path class="cls-4" d="M39.12,38.16v.74a.74.74,0,0,1-.74-.74Z" transform="translate(5.48)"/><path class="cls-4" d="M32.43,45.59h-.74v-.74A.74.74,0,0,1,32.43,45.59Z" transform="translate(5.48)"/><path class="cls-4" d="M39.12,44.85v.74h-.74A.7.7,0,0,1,39.12,44.85Z" transform="translate(5.48)"/><path class="cls-4" d="M36.13,41.86a.74.74,0,0,1-1.48,0,.74.74,0,1,1,1.48,0Z" transform="translate(5.48)"/><rect class="cls-4" x="37.17" y="45.59" width="7.43" height="7.43"/><path class="cls-4" d="M32.43,45.59a.8.8,0,0,1-.74.75v-.75Z" transform="translate(5.48)"/><path class="cls-4" d="M39.12,45.59v.75a.75.75,0,0,1-.74-.75Z" transform="translate(5.48)"/><path class="cls-4" d="M32.43,53h-.74v-.75A.75.75,0,0,1,32.43,53Z" transform="translate(5.48)"/><path class="cls-4" d="M39.12,52.28V53h-.74A.71.71,0,0,1,39.12,52.28Z" transform="translate(5.48)"/><path class="cls-4" d="M36.13,49.29a.74.74,0,1,1-1.48,0,.74.74,0,0,1,1.48,0Z" transform="translate(5.48)"/><rect class="cls-4" x="37.17" y="53.03" width="7.43" height="7.43"/><path class="cls-4" d="M32.43,53a.8.8,0,0,1-.74.74V53Z" transform="translate(5.48)"/><path class="cls-4" d="M39.12,53v.74a.74.74,0,0,1-.74-.74Z" transform="translate(5.48)"/><path class="cls-4" d="M32.43,60.46h-.74v-.74A.74.74,0,0,1,32.43,60.46Z" transform="translate(5.48)"/><path class="cls-4" d="M39.12,59.72v.74h-.74A.7.7,0,0,1,39.12,59.72Z" transform="translate(5.48)"/><path class="cls-4" d="M36.13,56.73a.74.74,0,1,1-.74-.75A.74.74,0,0,1,36.13,56.73Z" transform="translate(5.48)"/><rect class="cls-4" x="37.17" y="60.46" width="7.43" height="7.43"/><path class="cls-4" d="M32.43,60.46a.8.8,0,0,1-.74.74v-.74Z" transform="translate(5.48)"/><path class="cls-4" d="M39.12,60.46v.74a.74.74,0,0,1-.74-.74Z" transform="translate(5.48)"/><path class="cls-4" d="M32.43,67.89h-.74v-.74A.74.74,0,0,1,32.43,67.89Z" transform="translate(5.48)"/><path class="cls-4" d="M39.12,67.15v.74h-.74A.7.7,0,0,1,39.12,67.15Z" transform="translate(5.48)"/><path class="cls-4" d="M36.13,64.16a.74.74,0,1,1-.74-.74A.74.74,0,0,1,36.13,64.16Z" transform="translate(5.48)"/><rect class="cls-4" x="29.74" y="0.99" width="7.43" height="7.43"/><path class="cls-4" d="M25,1a.8.8,0,0,1-.75.74V1Z" transform="translate(5.48)"/><path class="cls-4" d="M31.69,1v.74A.75.75,0,0,1,30.94,1Z" transform="translate(5.48)"/><path class="cls-4" d="M25,8.42h-.75V7.68A.75.75,0,0,1,25,8.42Z" transform="translate(5.48)"/><path class="cls-4" d="M31.69,7.68v.74h-.75A.71.71,0,0,1,31.69,7.68Z" transform="translate(5.48)"/><path class="cls-4" d="M28.7,4.69A.75.75,0,1,1,28,4,.74.74,0,0,1,28.7,4.69Z" transform="translate(5.48)"/><rect class="cls-4" x="29.74" y="8.42" width="7.43" height="7.43"/><path class="cls-4" d="M25,8.42a.8.8,0,0,1-.75.75V8.42Z" transform="translate(5.48)"/><path class="cls-4" d="M31.69,8.42v.75a.75.75,0,0,1-.75-.75Z" transform="translate(5.48)"/><path class="cls-4" d="M25,15.86h-.75v-.75A.75.75,0,0,1,25,15.86Z" transform="translate(5.48)"/><path class="cls-4" d="M31.69,15.11v.75h-.75A.71.71,0,0,1,31.69,15.11Z" transform="translate(5.48)"/><path class="cls-4" d="M28.7,12.12a.75.75,0,1,1-1.49,0,.75.75,0,0,1,1.49,0Z" transform="translate(5.48)"/><rect class="cls-4" x="29.74" y="15.86" width="7.43" height="7.43"/><path class="cls-4" d="M25,15.86a.8.8,0,0,1-.75.74v-.74Z" transform="translate(5.48)"/><path class="cls-4" d="M31.69,15.86v.74a.75.75,0,0,1-.75-.74Z" transform="translate(5.48)"/><path class="cls-4" d="M25,23.29h-.75v-.74A.75.75,0,0,1,25,23.29Z" transform="translate(5.48)"/><path class="cls-4" d="M31.69,22.55v.74h-.75A.71.71,0,0,1,31.69,22.55Z" transform="translate(5.48)"/><path class="cls-4" d="M28.7,19.56a.75.75,0,1,1-.75-.75A.75.75,0,0,1,28.7,19.56Z" transform="translate(5.48)"/><rect class="cls-4" x="29.74" y="23.29" width="7.43" height="7.43"/><path class="cls-4" d="M25,23.29a.81.81,0,0,1-.75.75v-.75Z" transform="translate(5.48)"/><path class="cls-4" d="M31.69,23.29V24a.75.75,0,0,1-.75-.75Z" transform="translate(5.48)"/><path class="cls-4" d="M25,30.73h-.75V30A.75.75,0,0,1,25,30.73Z" transform="translate(5.48)"/><path class="cls-4" d="M31.69,30v.75h-.75A.71.71,0,0,1,31.69,30Z" transform="translate(5.48)"/><path class="cls-4" d="M28.7,27a.75.75,0,1,1-.75-.74A.74.74,0,0,1,28.7,27Z" transform="translate(5.48)"/><rect class="cls-4" x="29.74" y="30.73" width="7.43" height="7.43"/><path class="cls-4" d="M25,30.73a.8.8,0,0,1-.75.74v-.74Z" transform="translate(5.48)"/><path class="cls-4" d="M31.69,30.73v.74a.75.75,0,0,1-.75-.74Z" transform="translate(5.48)"/><path class="cls-4" d="M25,38.16h-.75v-.74A.74.74,0,0,1,25,38.16Z" transform="translate(5.48)"/><path class="cls-4" d="M31.69,37.42v.74h-.75A.7.7,0,0,1,31.69,37.42Z" transform="translate(5.48)"/><path class="cls-4" d="M28.7,34.42a.75.75,0,1,1-1.49,0,.75.75,0,0,1,1.49,0Z" transform="translate(5.48)"/><rect class="cls-4" x="29.74" y="38.16" width="7.43" height="7.43"/><path class="cls-4" d="M25,38.16a.8.8,0,0,1-.75.74v-.74Z" transform="translate(5.48)"/><path class="cls-4" d="M31.69,38.16v.74a.75.75,0,0,1-.75-.74Z" transform="translate(5.48)"/><path class="cls-4" d="M25,45.59h-.75v-.74A.75.75,0,0,1,25,45.59Z" transform="translate(5.48)"/><path class="cls-4" d="M31.69,44.85v.74h-.75A.71.71,0,0,1,31.69,44.85Z" transform="translate(5.48)"/><path class="cls-4" d="M28.7,41.86a.75.75,0,1,1-.75-.75A.75.75,0,0,1,28.7,41.86Z" transform="translate(5.48)"/><rect class="cls-4" x="29.74" y="45.59" width="7.43" height="7.43"/><path class="cls-4" d="M25,45.59a.8.8,0,0,1-.75.75v-.75Z" transform="translate(5.48)"/><path class="cls-4" d="M31.69,45.59v.75a.75.75,0,0,1-.75-.75Z" transform="translate(5.48)"/><path class="cls-4" d="M25,53h-.75v-.75A.75.75,0,0,1,25,53Z" transform="translate(5.48)"/><path class="cls-4" d="M31.69,52.28V53h-.75A.71.71,0,0,1,31.69,52.28Z" transform="translate(5.48)"/><path class="cls-4" d="M28.7,49.29a.75.75,0,1,1-1.49,0,.75.75,0,0,1,1.49,0Z" transform="translate(5.48)"/><rect class="cls-4" x="29.74" y="53.03" width="7.43" height="7.43"/><path class="cls-4" d="M25,53a.8.8,0,0,1-.75.74V53Z" transform="translate(5.48)"/><path class="cls-4" d="M31.69,53v.74a.75.75,0,0,1-.75-.74Z" transform="translate(5.48)"/><path class="cls-4" d="M25,60.46h-.75v-.74A.74.74,0,0,1,25,60.46Z" transform="translate(5.48)"/><path class="cls-4" d="M31.69,59.72v.74h-.75A.7.7,0,0,1,31.69,59.72Z" transform="translate(5.48)"/><path class="cls-4" d="M28.7,56.73A.75.75,0,1,1,28,56,.74.74,0,0,1,28.7,56.73Z" transform="translate(5.48)"/><rect class="cls-4" x="29.74" y="60.46" width="7.43" height="7.43"/><path class="cls-4" d="M25,60.46a.8.8,0,0,1-.75.74v-.74Z" transform="translate(5.48)"/><path class="cls-4" d="M31.69,60.46v.74a.75.75,0,0,1-.75-.74Z" transform="translate(5.48)"/><path class="cls-4" d="M25,67.89h-.75v-.74A.75.75,0,0,1,25,67.89Z" transform="translate(5.48)"/><path class="cls-4" d="M31.69,67.15v.74h-.75A.71.71,0,0,1,31.69,67.15Z" transform="translate(5.48)"/><path class="cls-4" d="M28.7,64.16a.75.75,0,1,1-.75-.74A.74.74,0,0,1,28.7,64.16Z" transform="translate(5.48)"/><rect class="cls-4" x="22.3" y="0.99" width="7.43" height="7.43"/><path class="cls-4" d="M17.56,1a.8.8,0,0,1-.74.74V1Z" transform="translate(5.48)"/><path class="cls-4" d="M24.25,1v.74A.74.74,0,0,1,23.51,1Z" transform="translate(5.48)"/><path class="cls-4" d="M17.56,8.42h-.74V7.68A.74.74,0,0,1,17.56,8.42Z" transform="translate(5.48)"/><path class="cls-4" d="M24.25,7.68v.74h-.74A.7.7,0,0,1,24.25,7.68Z" transform="translate(5.48)"/><path class="cls-4" d="M21.26,4.69A.74.74,0,1,1,20.52,4,.74.74,0,0,1,21.26,4.69Z" transform="translate(5.48)"/><rect class="cls-4" x="22.3" y="8.42" width="7.43" height="7.43"/><path class="cls-4" d="M17.56,8.42a.8.8,0,0,1-.74.75V8.42Z" transform="translate(5.48)"/><path class="cls-4" d="M24.25,8.42v.75a.75.75,0,0,1-.74-.75Z" transform="translate(5.48)"/><path class="cls-4" d="M17.56,15.86h-.74v-.75A.75.75,0,0,1,17.56,15.86Z" transform="translate(5.48)"/><path class="cls-4" d="M24.25,15.11v.75h-.74A.71.71,0,0,1,24.25,15.11Z" transform="translate(5.48)"/><path class="cls-4" d="M21.26,12.12a.74.74,0,1,1-1.48,0,.74.74,0,0,1,1.48,0Z" transform="translate(5.48)"/><rect class="cls-4" x="22.3" y="15.86" width="7.43" height="7.43"/><path class="cls-4" d="M17.56,15.86a.8.8,0,0,1-.74.74v-.74Z" transform="translate(5.48)"/><path class="cls-4" d="M24.25,15.86v.74a.74.74,0,0,1-.74-.74Z" transform="translate(5.48)"/><path class="cls-4" d="M17.56,23.29h-.74v-.74A.74.74,0,0,1,17.56,23.29Z" transform="translate(5.48)"/><path class="cls-4" d="M24.25,22.55v.74h-.74A.7.7,0,0,1,24.25,22.55Z" transform="translate(5.48)"/><path class="cls-4" d="M21.26,19.56a.74.74,0,1,1-1.48,0,.74.74,0,1,1,1.48,0Z" transform="translate(5.48)"/><rect class="cls-4" x="22.3" y="23.29" width="7.43" height="7.43"/><path class="cls-4" d="M17.56,23.29a.81.81,0,0,1-.74.75v-.75Z" transform="translate(5.48)"/><path class="cls-4" d="M24.25,23.29V24a.75.75,0,0,1-.74-.75Z" transform="translate(5.48)"/><path class="cls-4" d="M17.56,30.73h-.74V30A.75.75,0,0,1,17.56,30.73Z" transform="translate(5.48)"/><path class="cls-4" d="M24.25,30v.75h-.74A.71.71,0,0,1,24.25,30Z" transform="translate(5.48)"/><path class="cls-4" d="M21.26,27a.74.74,0,1,1-.74-.74A.74.74,0,0,1,21.26,27Z" transform="translate(5.48)"/><rect class="cls-4" x="22.3" y="30.73" width="7.43" height="7.43"/><path class="cls-4" d="M17.56,30.73a.8.8,0,0,1-.74.74v-.74Z" transform="translate(5.48)"/><path class="cls-4" d="M24.25,30.73v.74a.74.74,0,0,1-.74-.74Z" transform="translate(5.48)"/><path class="cls-4" d="M17.56,38.16h-.74v-.74A.74.74,0,0,1,17.56,38.16Z" transform="translate(5.48)"/><path class="cls-4" d="M24.25,37.42v.74h-.74A.7.7,0,0,1,24.25,37.42Z" transform="translate(5.48)"/><path class="cls-4" d="M21.26,34.42a.74.74,0,1,1-1.48,0,.74.74,0,1,1,1.48,0Z" transform="translate(5.48)"/><rect class="cls-4" x="22.3" y="38.16" width="7.43" height="7.43"/><path class="cls-4" d="M17.56,38.16a.8.8,0,0,1-.74.74v-.74Z" transform="translate(5.48)"/><path class="cls-4" d="M24.25,38.16v.74a.74.74,0,0,1-.74-.74Z" transform="translate(5.48)"/><path class="cls-4" d="M17.56,45.59h-.74v-.74A.74.74,0,0,1,17.56,45.59Z" transform="translate(5.48)"/><path class="cls-4" d="M24.25,44.85v.74h-.74A.7.7,0,0,1,24.25,44.85Z" transform="translate(5.48)"/><path class="cls-4" d="M21.26,41.86a.74.74,0,1,1-1.48,0,.74.74,0,1,1,1.48,0Z" transform="translate(5.48)"/><rect class="cls-4" x="22.3" y="45.59" width="7.43" height="7.43"/><path class="cls-4" d="M17.56,45.59a.8.8,0,0,1-.74.75v-.75Z" transform="translate(5.48)"/><path class="cls-4" d="M24.25,45.59v.75a.75.75,0,0,1-.74-.75Z" transform="translate(5.48)"/><path class="cls-4" d="M17.56,53h-.74v-.75A.75.75,0,0,1,17.56,53Z" transform="translate(5.48)"/><path class="cls-4" d="M24.25,52.28V53h-.74A.71.71,0,0,1,24.25,52.28Z" transform="translate(5.48)"/><path class="cls-4" d="M21.26,49.29a.74.74,0,1,1-1.48,0,.74.74,0,0,1,1.48,0Z" transform="translate(5.48)"/><rect class="cls-4" x="22.3" y="53.03" width="7.43" height="7.43"/><path class="cls-4" d="M17.56,53a.8.8,0,0,1-.74.74V53Z" transform="translate(5.48)"/><path class="cls-4" d="M24.25,53v.74a.74.74,0,0,1-.74-.74Z" transform="translate(5.48)"/><path class="cls-4" d="M17.56,60.46h-.74v-.74A.74.74,0,0,1,17.56,60.46Z" transform="translate(5.48)"/><path class="cls-4" d="M24.25,59.72v.74h-.74A.7.7,0,0,1,24.25,59.72Z" transform="translate(5.48)"/><path class="cls-4" d="M21.26,56.73a.74.74,0,1,1-.74-.75A.74.74,0,0,1,21.26,56.73Z" transform="translate(5.48)"/><rect class="cls-4" x="22.3" y="60.46" width="7.43" height="7.43"/><path class="cls-4" d="M17.56,60.46a.8.8,0,0,1-.74.74v-.74Z" transform="translate(5.48)"/><path class="cls-4" d="M24.25,60.46v.74a.74.74,0,0,1-.74-.74Z" transform="translate(5.48)"/><path class="cls-4" d="M17.56,67.89h-.74v-.74A.74.74,0,0,1,17.56,67.89Z" transform="translate(5.48)"/><path class="cls-4" d="M24.25,67.15v.74h-.74A.7.7,0,0,1,24.25,67.15Z" transform="translate(5.48)"/><path class="cls-4" d="M21.26,64.16a.74.74,0,1,1-.74-.74A.74.74,0,0,1,21.26,64.16Z" transform="translate(5.48)"/><rect class="cls-4" x="14.87" y="0.99" width="7.43" height="7.43"/><path class="cls-4" d="M10.13,1a.8.8,0,0,1-.74.74V1Z" transform="translate(5.48)"/><path class="cls-4" d="M16.82,1v.74A.74.74,0,0,1,16.08,1Z" transform="translate(5.48)"/><path class="cls-4" d="M10.13,8.42H9.39V7.68A.74.74,0,0,1,10.13,8.42Z" transform="translate(5.48)"/><path class="cls-4" d="M16.82,7.68v.74h-.74A.7.7,0,0,1,16.82,7.68Z" transform="translate(5.48)"/><path class="cls-4" d="M13.83,4.69a.74.74,0,0,1-.74.74.74.74,0,1,1,0-1.48A.74.74,0,0,1,13.83,4.69Z" transform="translate(5.48)"/><rect class="cls-4" x="14.87" y="8.42" width="7.43" height="7.43"/><path class="cls-4" d="M10.13,8.42a.8.8,0,0,1-.74.75V8.42Z" transform="translate(5.48)"/><path class="cls-4" d="M16.82,8.42v.75a.74.74,0,0,1-.74-.75Z" transform="translate(5.48)"/><path class="cls-4" d="M10.13,15.86H9.39v-.75A.75.75,0,0,1,10.13,15.86Z" transform="translate(5.48)"/><path class="cls-4" d="M16.82,15.11v.75h-.74A.7.7,0,0,1,16.82,15.11Z" transform="translate(5.48)"/><path class="cls-4" d="M13.83,12.12a.75.75,0,0,1-.74.75.76.76,0,0,1-.75-.75.75.75,0,0,1,.75-.74A.74.74,0,0,1,13.83,12.12Z" transform="translate(5.48)"/><rect class="cls-4" x="14.87" y="15.86" width="7.43" height="7.43"/><path class="cls-4" d="M10.13,15.86a.8.8,0,0,1-.74.74v-.74Z" transform="translate(5.48)"/><path class="cls-4" d="M16.82,15.86v.74a.74.74,0,0,1-.74-.74Z" transform="translate(5.48)"/><path class="cls-4" d="M10.13,23.29H9.39v-.74A.74.74,0,0,1,10.13,23.29Z" transform="translate(5.48)"/><path class="cls-4" d="M16.82,22.55v.74h-.74A.7.7,0,0,1,16.82,22.55Z" transform="translate(5.48)"/><path class="cls-4" d="M13.83,19.56a.74.74,0,0,1-.74.74.75.75,0,0,1-.75-.74.76.76,0,0,1,.75-.75A.75.75,0,0,1,13.83,19.56Z" transform="translate(5.48)"/><rect class="cls-4" x="14.87" y="23.29" width="7.43" height="7.43"/><path class="cls-4" d="M10.13,23.29a.81.81,0,0,1-.74.75v-.75Z" transform="translate(5.48)"/><path class="cls-4" d="M16.82,23.29V24a.75.75,0,0,1-.74-.75Z" transform="translate(5.48)"/><path class="cls-4" d="M10.13,30.73H9.39V30A.75.75,0,0,1,10.13,30.73Z" transform="translate(5.48)"/><path class="cls-4" d="M16.82,30v.75h-.74A.7.7,0,0,1,16.82,30Z" transform="translate(5.48)"/><path class="cls-4" d="M13.83,27a.74.74,0,0,1-.74.74.74.74,0,1,1,0-1.48A.74.74,0,0,1,13.83,27Z" transform="translate(5.48)"/><rect class="cls-4" x="14.87" y="30.73" width="7.43" height="7.43"/><path class="cls-4" d="M10.13,30.73a.8.8,0,0,1-.74.74v-.74Z" transform="translate(5.48)"/><path class="cls-4" d="M16.82,30.73v.74a.74.74,0,0,1-.74-.74Z" transform="translate(5.48)"/><path class="cls-4" d="M10.13,38.16H9.39v-.74A.74.74,0,0,1,10.13,38.16Z" transform="translate(5.48)"/><path class="cls-4" d="M16.82,37.42v.74h-.74A.69.69,0,0,1,16.82,37.42Z" transform="translate(5.48)"/><path class="cls-4" d="M13.83,34.42a.75.75,0,0,1-.74.75.76.76,0,0,1-.75-.75.75.75,0,0,1,.75-.74A.74.74,0,0,1,13.83,34.42Z" transform="translate(5.48)"/><rect class="cls-4" x="14.87" y="38.16" width="7.43" height="7.43"/><path class="cls-4" d="M10.13,38.16a.8.8,0,0,1-.74.74v-.74Z" transform="translate(5.48)"/><path class="cls-4" d="M16.82,38.16v.74a.74.74,0,0,1-.74-.74Z" transform="translate(5.48)"/><path class="cls-4" d="M10.13,45.59H9.39v-.74A.74.74,0,0,1,10.13,45.59Z" transform="translate(5.48)"/><path class="cls-4" d="M16.82,44.85v.74h-.74A.7.7,0,0,1,16.82,44.85Z" transform="translate(5.48)"/><path class="cls-4" d="M13.83,41.86a.74.74,0,0,1-.74.74.75.75,0,0,1-.75-.74.76.76,0,0,1,.75-.75A.75.75,0,0,1,13.83,41.86Z" transform="translate(5.48)"/><rect class="cls-4" x="14.87" y="45.59" width="7.43" height="7.43"/><path class="cls-4" d="M10.13,45.59a.8.8,0,0,1-.74.75v-.75Z" transform="translate(5.48)"/><path class="cls-4" d="M16.82,45.59v.75a.74.74,0,0,1-.74-.75Z" transform="translate(5.48)"/><path class="cls-4" d="M10.13,53H9.39v-.75A.75.75,0,0,1,10.13,53Z" transform="translate(5.48)"/><path class="cls-4" d="M16.82,52.28V53h-.74A.7.7,0,0,1,16.82,52.28Z" transform="translate(5.48)"/><path class="cls-4" d="M13.83,49.29a.75.75,0,0,1-.74.75.76.76,0,0,1-.75-.75.75.75,0,0,1,.75-.74A.74.74,0,0,1,13.83,49.29Z" transform="translate(5.48)"/><rect class="cls-4" x="14.87" y="53.03" width="7.43" height="7.43"/><path class="cls-4" d="M10.13,53a.8.8,0,0,1-.74.74V53Z" transform="translate(5.48)"/><path class="cls-4" d="M16.82,53v.74a.74.74,0,0,1-.74-.74Z" transform="translate(5.48)"/><path class="cls-4" d="M10.13,60.46H9.39v-.74A.74.74,0,0,1,10.13,60.46Z" transform="translate(5.48)"/><path class="cls-4" d="M16.82,59.72v.74h-.74A.69.69,0,0,1,16.82,59.72Z" transform="translate(5.48)"/><path class="cls-4" d="M13.83,56.73a.74.74,0,0,1-.74.74.75.75,0,1,1,.74-.74Z" transform="translate(5.48)"/><rect class="cls-4" x="14.87" y="60.46" width="7.43" height="7.43"/><path class="cls-4" d="M10.13,60.46a.8.8,0,0,1-.74.74v-.74Z" transform="translate(5.48)"/><path class="cls-4" d="M16.82,60.46v.74a.74.74,0,0,1-.74-.74Z" transform="translate(5.48)"/><path class="cls-4" d="M10.13,67.89H9.39v-.74A.74.74,0,0,1,10.13,67.89Z" transform="translate(5.48)"/><path class="cls-4" d="M16.82,67.15v.74h-.74A.7.7,0,0,1,16.82,67.15Z" transform="translate(5.48)"/><path class="cls-4" d="M13.83,64.16a.74.74,0,0,1-.74.74.74.74,0,1,1,0-1.48A.74.74,0,0,1,13.83,64.16Z" transform="translate(5.48)"/><rect class="cls-4" x="7.43" y="0.99" width="7.43" height="7.43"/><path class="cls-4" d="M2.7,1A.81.81,0,0,1,2,1.73V1Z" transform="translate(5.48)"/><path class="cls-4" d="M9.39,1v.74A.75.75,0,0,1,8.64,1Z" transform="translate(5.48)"/><path class="cls-4" d="M2.7,8.42H2V7.68A.75.75,0,0,1,2.7,8.42Z" transform="translate(5.48)"/><path class="cls-4" d="M9.39,7.68v.74H8.64A.71.71,0,0,1,9.39,7.68Z" transform="translate(5.48)"/><circle class="cls-4" cx="11.13" cy="4.69" r="0.74"/><rect class="cls-4" x="7.43" y="8.42" width="7.43" height="7.43"/><path class="cls-4" d="M2.7,8.42A.81.81,0,0,1,2,9.17V8.42Z" transform="translate(5.48)"/><path class="cls-4" d="M9.39,8.42v.75a.75.75,0,0,1-.75-.75Z" transform="translate(5.48)"/><path class="cls-4" d="M2.7,15.86H2v-.75A.75.75,0,0,1,2.7,15.86Z" transform="translate(5.48)"/><path class="cls-4" d="M9.39,15.11v.75H8.64A.71.71,0,0,1,9.39,15.11Z" transform="translate(5.48)"/><path class="cls-4" d="M6.4,12.12a.76.76,0,0,1-.75.75.75.75,0,0,1-.74-.75.74.74,0,0,1,.74-.74A.75.75,0,0,1,6.4,12.12Z" transform="translate(5.48)"/><rect class="cls-4" x="7.43" y="15.86" width="7.43" height="7.43"/><path class="cls-4" d="M2.7,15.86A.81.81,0,0,1,2,16.6v-.74Z" transform="translate(5.48)"/><path class="cls-4" d="M9.39,15.86v.74a.75.75,0,0,1-.75-.74Z" transform="translate(5.48)"/><path class="cls-4" d="M2.7,23.29H2v-.74A.75.75,0,0,1,2.7,23.29Z" transform="translate(5.48)"/><path class="cls-4" d="M9.39,22.55v.74H8.64A.71.71,0,0,1,9.39,22.55Z" transform="translate(5.48)"/><circle class="cls-4" cx="11.13" cy="19.56" r="0.74"/><rect class="cls-4" x="7.43" y="23.29" width="7.43" height="7.43"/><path class="cls-4" d="M2.7,23.29A.81.81,0,0,1,2,24v-.75Z" transform="translate(5.48)"/><path class="cls-4" d="M9.39,23.29V24a.75.75,0,0,1-.75-.75Z" transform="translate(5.48)"/><path class="cls-4" d="M2.7,30.73H2V30A.75.75,0,0,1,2.7,30.73Z" transform="translate(5.48)"/><path class="cls-4" d="M9.39,30v.75H8.64A.71.71,0,0,1,9.39,30Z" transform="translate(5.48)"/><path class="cls-4" d="M6.4,27a.75.75,0,0,1-.75.74.74.74,0,0,1,0-1.48A.75.75,0,0,1,6.4,27Z" transform="translate(5.48)"/><rect class="cls-4" x="7.43" y="30.73" width="7.43" height="7.43"/><path class="cls-4" d="M2.7,30.73a.81.81,0,0,1-.75.74v-.74Z" transform="translate(5.48)"/><path class="cls-4" d="M9.39,30.73v.74a.75.75,0,0,1-.75-.74Z" transform="translate(5.48)"/><path class="cls-4" d="M2.7,38.16H2v-.74A.75.75,0,0,1,2.7,38.16Z" transform="translate(5.48)"/><path class="cls-4" d="M9.39,37.42v.74H8.64A.7.7,0,0,1,9.39,37.42Z" transform="translate(5.48)"/><path class="cls-4" d="M6.4,34.42a.76.76,0,0,1-.75.75.75.75,0,0,1-.74-.75.74.74,0,0,1,.74-.74A.75.75,0,0,1,6.4,34.42Z" transform="translate(5.48)"/><rect class="cls-4" x="7.43" y="38.16" width="7.43" height="7.43"/><path class="cls-4" d="M2.7,38.16A.81.81,0,0,1,2,38.9v-.74Z" transform="translate(5.48)"/><path class="cls-4" d="M9.39,38.16v.74a.75.75,0,0,1-.75-.74Z" transform="translate(5.48)"/><path class="cls-4" d="M2.7,45.59H2v-.74A.75.75,0,0,1,2.7,45.59Z" transform="translate(5.48)"/><path class="cls-4" d="M9.39,44.85v.74H8.64A.71.71,0,0,1,9.39,44.85Z" transform="translate(5.48)"/><path class="cls-4" d="M6.4,41.86a.75.75,0,0,1-.75.74.74.74,0,0,1-.74-.74.75.75,0,0,1,.74-.75A.76.76,0,0,1,6.4,41.86Z" transform="translate(5.48)"/><rect class="cls-4" x="7.43" y="45.59" width="7.43" height="7.43"/><path class="cls-4" d="M2.7,45.59a.81.81,0,0,1-.75.75v-.75Z" transform="translate(5.48)"/><path class="cls-4" d="M9.39,45.59v.75a.75.75,0,0,1-.75-.75Z" transform="translate(5.48)"/><path class="cls-4" d="M2.7,53H2v-.75A.75.75,0,0,1,2.7,53Z" transform="translate(5.48)"/><path class="cls-4" d="M9.39,52.28V53H8.64A.71.71,0,0,1,9.39,52.28Z" transform="translate(5.48)"/><path class="cls-4" d="M6.4,49.29a.76.76,0,0,1-.75.75.75.75,0,0,1-.74-.75.74.74,0,0,1,.74-.74A.75.75,0,0,1,6.4,49.29Z" transform="translate(5.48)"/><rect class="cls-4" x="7.43" y="53.03" width="7.43" height="7.43"/><path class="cls-4" d="M2.7,53a.81.81,0,0,1-.75.74V53Z" transform="translate(5.48)"/><path class="cls-4" d="M9.39,53v.74A.75.75,0,0,1,8.64,53Z" transform="translate(5.48)"/><path class="cls-4" d="M2.7,60.46H2v-.74A.75.75,0,0,1,2.7,60.46Z" transform="translate(5.48)"/><path class="cls-4" d="M9.39,59.72v.74H8.64A.7.7,0,0,1,9.39,59.72Z" transform="translate(5.48)"/><circle class="cls-4" cx="11.13" cy="56.73" r="0.74"/><rect class="cls-4" x="7.43" y="60.46" width="7.43" height="7.43"/><path class="cls-4" d="M2.7,60.46A.81.81,0,0,1,2,61.2v-.74Z" transform="translate(5.48)"/><path class="cls-4" d="M9.39,60.46v.74a.75.75,0,0,1-.75-.74Z" transform="translate(5.48)"/><path class="cls-4" d="M2.7,67.89H2v-.74A.75.75,0,0,1,2.7,67.89Z" transform="translate(5.48)"/><path class="cls-4" d="M9.39,67.15v.74H8.64A.71.71,0,0,1,9.39,67.15Z" transform="translate(5.48)"/><path class="cls-4" d="M6.4,64.16a.75.75,0,0,1-.75.74.74.74,0,0,1,0-1.48A.75.75,0,0,1,6.4,64.16Z" transform="translate(5.48)"/><rect class="cls-4" y="0.99" width="7.43" height="7.43"/><path class="cls-4" d="M-4.74,1a.8.8,0,0,1-.74.74V1Z" transform="translate(5.48)"/><path class="cls-4" d="M2,1v.74A.74.74,0,0,1,1.21,1Z" transform="translate(5.48)"/><path class="cls-4" d="M-4.74,8.42h-.74V7.68A.74.74,0,0,1-4.74,8.42Z" transform="translate(5.48)"/><path class="cls-4" d="M2,7.68v.74H1.21A.7.7,0,0,1,2,7.68Z" transform="translate(5.48)"/><path class="cls-4" d="M-1,4.69a.74.74,0,0,1-.74.74.74.74,0,0,1-.74-.74A.74.74,0,0,1-1.78,4,.74.74,0,0,1-1,4.69Z" transform="translate(5.48)"/><rect class="cls-4" y="8.42" width="7.43" height="7.43"/><path class="cls-4" d="M-4.74,8.42a.8.8,0,0,1-.74.75V8.42Z" transform="translate(5.48)"/><path class="cls-4" d="M2,8.42v.75a.75.75,0,0,1-.74-.75Z" transform="translate(5.48)"/><path class="cls-4" d="M-4.74,15.86h-.74v-.75A.75.75,0,0,1-4.74,15.86Z" transform="translate(5.48)"/><path class="cls-4" d="M2,15.11v.75H1.21A.71.71,0,0,1,2,15.11Z" transform="translate(5.48)"/><path class="cls-4" d="M-1,12.12a.75.75,0,0,1-.74.75.75.75,0,0,1-.74-.75.74.74,0,0,1,.74-.74A.74.74,0,0,1-1,12.12Z" transform="translate(5.48)"/><rect class="cls-4" y="15.86" width="7.43" height="7.43"/><path class="cls-4" d="M-4.74,15.86a.8.8,0,0,1-.74.74v-.74Z" transform="translate(5.48)"/><path class="cls-4" d="M2,15.86v.74a.74.74,0,0,1-.74-.74Z" transform="translate(5.48)"/><path class="cls-4" d="M-4.74,23.29h-.74v-.74A.74.74,0,0,1-4.74,23.29Z" transform="translate(5.48)"/><path class="cls-4" d="M2,22.55v.74H1.21A.7.7,0,0,1,2,22.55Z" transform="translate(5.48)"/><path class="cls-4" d="M-1,19.56a.74.74,0,0,1-.74.74.74.74,0,0,1-.74-.74.75.75,0,0,1,.74-.75A.75.75,0,0,1-1,19.56Z" transform="translate(5.48)"/><rect class="cls-4" y="23.29" width="7.43" height="7.43"/><path class="cls-4" d="M-4.74,23.29a.81.81,0,0,1-.74.75v-.75Z" transform="translate(5.48)"/><path class="cls-4" d="M2,23.29V24a.75.75,0,0,1-.74-.75Z" transform="translate(5.48)"/><path class="cls-4" d="M-4.74,30.73h-.74V30A.75.75,0,0,1-4.74,30.73Z" transform="translate(5.48)"/><path class="cls-4" d="M2,30v.75H1.21A.71.71,0,0,1,2,30Z" transform="translate(5.48)"/><path class="cls-4" d="M-1,27a.74.74,0,0,1-.74.74A.74.74,0,0,1-2.52,27a.74.74,0,0,1,.74-.74A.74.74,0,0,1-1,27Z" transform="translate(5.48)"/><rect class="cls-4" y="30.73" width="7.43" height="7.43"/><path class="cls-4" d="M-4.74,30.73a.8.8,0,0,1-.74.74v-.74Z" transform="translate(5.48)"/><path class="cls-4" d="M2,30.73v.74a.74.74,0,0,1-.74-.74Z" transform="translate(5.48)"/><path class="cls-4" d="M-4.74,38.16h-.74v-.74A.74.74,0,0,1-4.74,38.16Z" transform="translate(5.48)"/><path class="cls-4" d="M2,37.42v.74H1.21A.7.7,0,0,1,2,37.42Z" transform="translate(5.48)"/><path class="cls-4" d="M-1,34.42a.75.75,0,0,1-.74.75.75.75,0,0,1-.74-.75.74.74,0,0,1,.74-.74A.74.74,0,0,1-1,34.42Z" transform="translate(5.48)"/><rect class="cls-4" y="38.16" width="7.43" height="7.43"/><path class="cls-4" d="M-4.74,38.16a.8.8,0,0,1-.74.74v-.74Z" transform="translate(5.48)"/><path class="cls-4" d="M2,38.16v.74a.74.74,0,0,1-.74-.74Z" transform="translate(5.48)"/><path class="cls-4" d="M-4.74,45.59h-.74v-.74A.74.74,0,0,1-4.74,45.59Z" transform="translate(5.48)"/><path class="cls-4" d="M2,44.85v.74H1.21A.7.7,0,0,1,2,44.85Z" transform="translate(5.48)"/><path class="cls-4" d="M-1,41.86a.74.74,0,0,1-.74.74.74.74,0,0,1-.74-.74.75.75,0,0,1,.74-.75A.75.75,0,0,1-1,41.86Z" transform="translate(5.48)"/><rect class="cls-4" y="45.59" width="7.43" height="7.43"/><path class="cls-4" d="M-4.74,45.59a.8.8,0,0,1-.74.75v-.75Z" transform="translate(5.48)"/><path class="cls-4" d="M2,45.59v.75a.75.75,0,0,1-.74-.75Z" transform="translate(5.48)"/><path class="cls-4" d="M-4.74,53h-.74v-.75A.75.75,0,0,1-4.74,53Z" transform="translate(5.48)"/><path class="cls-4" d="M2,52.28V53H1.21A.71.71,0,0,1,2,52.28Z" transform="translate(5.48)"/><path class="cls-4" d="M-1,49.29a.75.75,0,0,1-.74.75.75.75,0,0,1-.74-.75.74.74,0,0,1,.74-.74A.74.74,0,0,1-1,49.29Z" transform="translate(5.48)"/><rect class="cls-4" y="53.03" width="7.43" height="7.43"/><path class="cls-4" d="M-4.74,53a.8.8,0,0,1-.74.74V53Z" transform="translate(5.48)"/><path class="cls-4" d="M2,53v.74A.74.74,0,0,1,1.21,53Z" transform="translate(5.48)"/><path class="cls-4" d="M-4.74,60.46h-.74v-.74A.74.74,0,0,1-4.74,60.46Z" transform="translate(5.48)"/><path class="cls-4" d="M2,59.72v.74H1.21A.7.7,0,0,1,2,59.72Z" transform="translate(5.48)"/><path class="cls-4" d="M-1,56.73a.74.74,0,0,1-.74.74.74.74,0,0,1-.74-.74A.74.74,0,0,1-1.78,56,.74.74,0,0,1-1,56.73Z" transform="translate(5.48)"/><rect class="cls-4" y="60.46" width="7.43" height="7.43"/><path class="cls-4" d="M-4.74,60.46a.8.8,0,0,1-.74.74v-.74Z" transform="translate(5.48)"/><path class="cls-4" d="M2,60.46v.74a.74.74,0,0,1-.74-.74Z" transform="translate(5.48)"/><path class="cls-4" d="M-4.74,67.89h-.74v-.74A.74.74,0,0,1-4.74,67.89Z" transform="translate(5.48)"/><path class="cls-4" d="M2,67.15v.74H1.21A.7.7,0,0,1,2,67.15Z" transform="translate(5.48)"/><path class="cls-4" d="M-1,64.16a.74.74,0,0,1-.74.74.74.74,0,0,1-.74-.74.74.74,0,0,1,.74-.74A.74.74,0,0,1-1,64.16Z" transform="translate(5.48)"/></g><path class="cls-5" d="M25.6,65.71H7.14L26.93,15.42H16.15v10H0V0H45.74l-.08,14.72ZM10.42,63.48H24.07L43.51,14.1V2.23H2.24v21H13.91v-10h16.3Z" transform="translate(5.48)"/></g></g></svg>