<svg xmlns="http://www.w3.org/2000/svg" xmlns:xlink="http://www.w3.org/1999/xlink" viewBox="0 0 53.44 75.6"><defs><style>.cls-1{fill:none;}.cls-2{fill:#f3f3f5;}.cls-3{clip-path:url(#clip-path);}.cls-4{fill:#00abc8;}.cls-5{fill:#0075a2;}</style><clipPath id="clip-path" transform="translate(4.17 4.58)"><path class="cls-1" d="M26.09,25.54c9.89,0,17.29,8.2,17.29,19.26,0,12.21-8.47,20.33-21.13,20.33S1.12,57,1.12,45a23.71,23.71,0,0,1,.63-5.53c.71-3.12,1.78-5.62,5.43-13.19L19.4,1.12h16L22.88,26A8.91,8.91,0,0,1,26.09,25.54Zm-3.84,12c-3.92,0-6.51,2.85-6.51,7.22s2.59,7.22,6.51,7.22,6.51-2.85,6.51-7C28.76,40.34,26.17,37.49,22.25,37.49Z"/></clipPath></defs><g id="Layer_2" data-name="Layer 2"><g id="Section_2" data-name="Section 2"><path class="cls-2" d="M32,31.43c9.9,0,17.29,8.2,17.29,19.25C49.26,62.9,40.8,71,28.14,71S7,62.9,7,50.86a23.74,23.74,0,0,1,.62-5.53c.71-3.11,1.79-5.61,5.44-13.19L25.29,7h16L28.76,31.87A9.17,9.17,0,0,1,32,31.43ZM28.14,43.37c-3.93,0-6.51,2.86-6.51,7.23s2.58,7.22,6.51,7.22,6.5-2.86,6.5-7C34.64,46.23,32.06,43.37,28.14,43.37Z" transform="translate(4.17 4.58)"/><g class="cls-3"><rect class="cls-4" x="44.6" width="7.43" height="7.43"/><path class="cls-4" d="M41.17-4.58a.8.8,0,0,1-.74.74v-.74Z" transform="translate(4.17 4.58)"/><path class="cls-4" d="M47.86-4.58v.74a.74.74,0,0,1-.74-.74Z" transform="translate(4.17 4.58)"/><path class="cls-4" d="M41.17,2.85h-.74V2.11A.74.74,0,0,1,41.17,2.85Z" transform="translate(4.17 4.58)"/><path class="cls-4" d="M47.86,2.11v.74h-.74A.7.7,0,0,1,47.86,2.11Z" transform="translate(4.17 4.58)"/><path class="cls-4" d="M44.87-.89a.75.75,0,0,1-.74.75.75.75,0,0,1-.74-.75.74.74,0,0,1,.74-.74A.74.74,0,0,1,44.87-.89Z" transform="translate(4.17 4.58)"/><rect class="cls-4" x="44.6" y="7.43" width="7.43" height="7.43"/><path class="cls-4" d="M41.17,2.85a.8.8,0,0,1-.74.74V2.85Z" transform="translate(4.17 4.58)"/><path class="cls-4" d="M47.86,2.85v.74a.74.74,0,0,1-.74-.74Z" transform="translate(4.17 4.58)"/><path class="cls-4" d="M41.17,10.28h-.74V9.54A.74.74,0,0,1,41.17,10.28Z" transform="translate(4.17 4.58)"/><path class="cls-4" d="M47.86,9.54v.74h-.74A.7.7,0,0,1,47.86,9.54Z" transform="translate(4.17 4.58)"/><path class="cls-4" d="M44.87,6.55a.74.74,0,1,1-1.48,0,.74.74,0,1,1,1.48,0Z" transform="translate(4.17 4.58)"/><rect class="cls-4" x="44.6" y="14.87" width="7.43" height="7.43"/><path class="cls-4" d="M41.17,10.28a.81.81,0,0,1-.74.75v-.75Z" transform="translate(4.17 4.58)"/><path class="cls-4" d="M47.86,10.28V11a.75.75,0,0,1-.74-.75Z" transform="translate(4.17 4.58)"/><path class="cls-4" d="M41.17,17.72h-.74V17A.75.75,0,0,1,41.17,17.72Z" transform="translate(4.17 4.58)"/><path class="cls-4" d="M47.86,17v.75h-.74A.71.71,0,0,1,47.86,17Z" transform="translate(4.17 4.58)"/><path class="cls-4" d="M44.87,14a.74.74,0,1,1-.74-.74A.74.74,0,0,1,44.87,14Z" transform="translate(4.17 4.58)"/><rect class="cls-4" x="44.6" y="22.3" width="7.43" height="7.43"/><path class="cls-4" d="M41.17,17.72a.8.8,0,0,1-.74.74v-.74Z" transform="translate(4.17 4.58)"/><path class="cls-4" d="M47.86,17.72v.74a.74.74,0,0,1-.74-.74Z" transform="translate(4.17 4.58)"/><path class="cls-4" d="M41.17,25.15h-.74v-.74A.74.74,0,0,1,41.17,25.15Z" transform="translate(4.17 4.58)"/><path class="cls-4" d="M47.86,24.41v.74h-.74A.7.7,0,0,1,47.86,24.41Z" transform="translate(4.17 4.58)"/><path class="cls-4" d="M44.87,21.42a.74.74,0,1,1-.74-.75A.74.74,0,0,1,44.87,21.42Z" transform="translate(4.17 4.58)"/><rect class="cls-4" x="44.6" y="29.73" width="7.43" height="7.43"/><path class="cls-4" d="M41.17,25.15a.8.8,0,0,1-.74.74v-.74Z" transform="translate(4.17 4.58)"/><path class="cls-4" d="M47.86,25.15v.74a.74.74,0,0,1-.74-.74Z" transform="translate(4.17 4.58)"/><path class="cls-4" d="M41.17,32.58h-.74v-.74A.74.74,0,0,1,41.17,32.58Z" transform="translate(4.17 4.58)"/><path class="cls-4" d="M47.86,31.84v.74h-.74A.7.7,0,0,1,47.86,31.84Z" transform="translate(4.17 4.58)"/><path class="cls-4" d="M44.87,28.85a.74.74,0,1,1-.74-.74A.74.74,0,0,1,44.87,28.85Z" transform="translate(4.17 4.58)"/><rect class="cls-4" x="44.6" y="37.17" width="7.43" height="7.43"/><path class="cls-4" d="M41.17,32.58a.8.8,0,0,1-.74.75v-.75Z" transform="translate(4.17 4.58)"/><path class="cls-4" d="M47.86,32.58v.75a.75.75,0,0,1-.74-.75Z" transform="translate(4.17 4.58)"/><path class="cls-4" d="M41.17,40h-.74v-.75A.75.75,0,0,1,41.17,40Z" transform="translate(4.17 4.58)"/><path class="cls-4" d="M47.86,39.27V40h-.74A.71.71,0,0,1,47.86,39.27Z" transform="translate(4.17 4.58)"/><path class="cls-4" d="M44.87,36.28a.74.74,0,1,1-1.48,0,.74.74,0,0,1,1.48,0Z" transform="translate(4.17 4.58)"/><rect class="cls-4" x="44.6" y="44.6" width="7.43" height="7.43"/><path class="cls-4" d="M41.17,40a.8.8,0,0,1-.74.74V40Z" transform="translate(4.17 4.58)"/><path class="cls-4" d="M47.86,40v.74a.74.74,0,0,1-.74-.74Z" transform="translate(4.17 4.58)"/><path class="cls-4" d="M41.17,47.45h-.74v-.74A.74.74,0,0,1,41.17,47.45Z" transform="translate(4.17 4.58)"/><path class="cls-4" d="M47.86,46.71v.74h-.74A.7.7,0,0,1,47.86,46.71Z" transform="translate(4.17 4.58)"/><path class="cls-4" d="M44.87,43.72a.74.74,0,1,1-1.48,0,.74.74,0,1,1,1.48,0Z" transform="translate(4.17 4.58)"/><rect class="cls-4" x="44.6" y="52.04" width="7.43" height="7.43"/><path class="cls-4" d="M41.17,47.45a.81.81,0,0,1-.74.75v-.75Z" transform="translate(4.17 4.58)"/><path class="cls-4" d="M47.86,47.45v.75a.75.75,0,0,1-.74-.75Z" transform="translate(4.17 4.58)"/><path class="cls-4" d="M41.17,54.89h-.74v-.75A.75.75,0,0,1,41.17,54.89Z" transform="translate(4.17 4.58)"/><path class="cls-4" d="M47.86,54.14v.75h-.74A.71.71,0,0,1,47.86,54.14Z" transform="translate(4.17 4.58)"/><path class="cls-4" d="M44.87,51.15a.74.74,0,1,1-.74-.74A.74.74,0,0,1,44.87,51.15Z" transform="translate(4.17 4.58)"/><rect class="cls-4" x="44.6" y="59.47" width="7.43" height="7.43"/><path class="cls-4" d="M41.17,54.89a.8.8,0,0,1-.74.74v-.74Z" transform="translate(4.17 4.58)"/><path class="cls-4" d="M47.86,54.89v.74a.74.74,0,0,1-.74-.74Z" transform="translate(4.17 4.58)"/><path class="cls-4" d="M41.17,62.32h-.74v-.74A.74.74,0,0,1,41.17,62.32Z" transform="translate(4.17 4.58)"/><path class="cls-4" d="M47.86,61.58v.74h-.74A.7.7,0,0,1,47.86,61.58Z" transform="translate(4.17 4.58)"/><path class="cls-4" d="M44.87,58.58a.74.74,0,1,1-1.48,0,.74.74,0,1,1,1.48,0Z" transform="translate(4.17 4.58)"/><rect class="cls-4" x="44.6" y="66.9" width="7.43" height="7.43"/><path class="cls-4" d="M41.17,62.32a.8.8,0,0,1-.74.74v-.74Z" transform="translate(4.17 4.58)"/><path class="cls-4" d="M47.86,62.32v.74a.74.74,0,0,1-.74-.74Z" transform="translate(4.17 4.58)"/><path class="cls-4" d="M41.17,69.75h-.74V69A.74.74,0,0,1,41.17,69.75Z" transform="translate(4.17 4.58)"/><path class="cls-4" d="M47.86,69v.74h-.74A.7.7,0,0,1,47.86,69Z" transform="translate(4.17 4.58)"/><path class="cls-4" d="M44.87,66a.74.74,0,1,1-1.48,0,.74.74,0,1,1,1.48,0Z" transform="translate(4.17 4.58)"/><rect class="cls-4" x="37.17" width="7.43" height="7.43"/><path class="cls-4" d="M33.74-4.58a.8.8,0,0,1-.75.74v-.74Z" transform="translate(4.17 4.58)"/><path class="cls-4" d="M40.43-4.58v.74a.74.74,0,0,1-.74-.74Z" transform="translate(4.17 4.58)"/><path class="cls-4" d="M33.74,2.85H33V2.11A.74.74,0,0,1,33.74,2.85Z" transform="translate(4.17 4.58)"/><path class="cls-4" d="M40.43,2.11v.74h-.74A.69.69,0,0,1,40.43,2.11Z" transform="translate(4.17 4.58)"/><path class="cls-4" d="M37.44-.89a.75.75,0,0,1-.74.75A.75.75,0,0,1,36-.89a.74.74,0,0,1,.75-.74A.74.74,0,0,1,37.44-.89Z" transform="translate(4.17 4.58)"/><rect class="cls-4" x="37.17" y="7.43" width="7.43" height="7.43"/><path class="cls-4" d="M33.74,2.85a.8.8,0,0,1-.75.74V2.85Z" transform="translate(4.17 4.58)"/><path class="cls-4" d="M40.43,2.85v.74a.74.74,0,0,1-.74-.74Z" transform="translate(4.17 4.58)"/><path class="cls-4" d="M33.74,10.28H33V9.54A.75.75,0,0,1,33.74,10.28Z" transform="translate(4.17 4.58)"/><path class="cls-4" d="M40.43,9.54v.74h-.74A.7.7,0,0,1,40.43,9.54Z" transform="translate(4.17 4.58)"/><path class="cls-4" d="M37.44,6.55a.75.75,0,0,1-1.49,0,.75.75,0,1,1,1.49,0Z" transform="translate(4.17 4.58)"/><rect class="cls-4" x="37.17" y="14.87" width="7.43" height="7.43"/><path class="cls-4" d="M33.74,10.28A.81.81,0,0,1,33,11v-.75Z" transform="translate(4.17 4.58)"/><path class="cls-4" d="M40.43,10.28V11a.75.75,0,0,1-.74-.75Z" transform="translate(4.17 4.58)"/><path class="cls-4" d="M33.74,17.72H33V17A.75.75,0,0,1,33.74,17.72Z" transform="translate(4.17 4.58)"/><path class="cls-4" d="M40.43,17v.75h-.74A.7.7,0,0,1,40.43,17Z" transform="translate(4.17 4.58)"/><path class="cls-4" d="M37.44,14a.75.75,0,1,1-.74-.74A.74.74,0,0,1,37.44,14Z" transform="translate(4.17 4.58)"/><rect class="cls-4" x="37.17" y="22.3" width="7.43" height="7.43"/><path class="cls-4" d="M33.74,17.72a.8.8,0,0,1-.75.74v-.74Z" transform="translate(4.17 4.58)"/><path class="cls-4" d="M40.43,17.72v.74a.74.74,0,0,1-.74-.74Z" transform="translate(4.17 4.58)"/><path class="cls-4" d="M33.74,25.15H33v-.74A.74.74,0,0,1,33.74,25.15Z" transform="translate(4.17 4.58)"/><path class="cls-4" d="M40.43,24.41v.74h-.74A.69.69,0,0,1,40.43,24.41Z" transform="translate(4.17 4.58)"/><path class="cls-4" d="M37.44,21.42a.75.75,0,1,1-.74-.75A.74.74,0,0,1,37.44,21.42Z" transform="translate(4.17 4.58)"/><rect class="cls-4" x="37.17" y="29.73" width="7.43" height="7.43"/><path class="cls-4" d="M33.74,25.15a.8.8,0,0,1-.75.74v-.74Z" transform="translate(4.17 4.58)"/><path class="cls-4" d="M40.43,25.15v.74a.74.74,0,0,1-.74-.74Z" transform="translate(4.17 4.58)"/><path class="cls-4" d="M33.74,32.58H33v-.74A.75.75,0,0,1,33.74,32.58Z" transform="translate(4.17 4.58)"/><path class="cls-4" d="M40.43,31.84v.74h-.74A.7.7,0,0,1,40.43,31.84Z" transform="translate(4.17 4.58)"/><path class="cls-4" d="M37.44,28.85a.75.75,0,1,1-.74-.74A.74.74,0,0,1,37.44,28.85Z" transform="translate(4.17 4.58)"/><rect class="cls-4" x="37.17" y="37.17" width="7.43" height="7.43"/><path class="cls-4" d="M33.74,32.58a.8.8,0,0,1-.75.75v-.75Z" transform="translate(4.17 4.58)"/><path class="cls-4" d="M40.43,32.58v.75a.74.74,0,0,1-.74-.75Z" transform="translate(4.17 4.58)"/><path class="cls-4" d="M33.74,40H33v-.75A.75.75,0,0,1,33.74,40Z" transform="translate(4.17 4.58)"/><path class="cls-4" d="M40.43,39.27V40h-.74A.7.7,0,0,1,40.43,39.27Z" transform="translate(4.17 4.58)"/><path class="cls-4" d="M37.44,36.28a.75.75,0,1,1-.74-.74A.74.74,0,0,1,37.44,36.28Z" transform="translate(4.17 4.58)"/><rect class="cls-4" x="37.17" y="44.6" width="7.43" height="7.43"/><path class="cls-4" d="M33.74,40a.8.8,0,0,1-.75.74V40Z" transform="translate(4.17 4.58)"/><path class="cls-4" d="M40.43,40v.74a.74.74,0,0,1-.74-.74Z" transform="translate(4.17 4.58)"/><path class="cls-4" d="M33.74,47.45H33v-.74A.75.75,0,0,1,33.74,47.45Z" transform="translate(4.17 4.58)"/><path class="cls-4" d="M40.43,46.71v.74h-.74A.7.7,0,0,1,40.43,46.71Z" transform="translate(4.17 4.58)"/><path class="cls-4" d="M37.44,43.72a.75.75,0,0,1-1.49,0,.75.75,0,1,1,1.49,0Z" transform="translate(4.17 4.58)"/><rect class="cls-4" x="37.17" y="52.04" width="7.43" height="7.43"/><path class="cls-4" d="M33.74,47.45a.81.81,0,0,1-.75.75v-.75Z" transform="translate(4.17 4.58)"/><path class="cls-4" d="M40.43,47.45v.75a.75.75,0,0,1-.74-.75Z" transform="translate(4.17 4.58)"/><path class="cls-4" d="M33.74,54.89H33v-.75A.75.75,0,0,1,33.74,54.89Z" transform="translate(4.17 4.58)"/><path class="cls-4" d="M40.43,54.14v.75h-.74A.7.7,0,0,1,40.43,54.14Z" transform="translate(4.17 4.58)"/><path class="cls-4" d="M37.44,51.15a.75.75,0,1,1-.74-.74A.74.74,0,0,1,37.44,51.15Z" transform="translate(4.17 4.58)"/><rect class="cls-4" x="37.17" y="59.47" width="7.43" height="7.43"/><path class="cls-4" d="M33.74,54.89a.8.8,0,0,1-.75.74v-.74Z" transform="translate(4.17 4.58)"/><path class="cls-4" d="M40.43,54.89v.74a.74.74,0,0,1-.74-.74Z" transform="translate(4.17 4.58)"/><path class="cls-4" d="M33.74,62.32H33v-.74A.74.74,0,0,1,33.74,62.32Z" transform="translate(4.17 4.58)"/><path class="cls-4" d="M40.43,61.58v.74h-.74A.69.69,0,0,1,40.43,61.58Z" transform="translate(4.17 4.58)"/><path class="cls-4" d="M37.44,58.58a.75.75,0,1,1-.74-.74A.74.74,0,0,1,37.44,58.58Z" transform="translate(4.17 4.58)"/><rect class="cls-4" x="37.17" y="66.9" width="7.43" height="7.43"/><path class="cls-4" d="M33.74,62.32a.8.8,0,0,1-.75.74v-.74Z" transform="translate(4.17 4.58)"/><path class="cls-4" d="M40.43,62.32v.74a.74.74,0,0,1-.74-.74Z" transform="translate(4.17 4.58)"/><path class="cls-4" d="M33.74,69.75H33V69A.75.75,0,0,1,33.74,69.75Z" transform="translate(4.17 4.58)"/><path class="cls-4" d="M40.43,69v.74h-.74A.7.7,0,0,1,40.43,69Z" transform="translate(4.17 4.58)"/><path class="cls-4" d="M37.44,66A.75.75,0,0,1,36,66a.75.75,0,1,1,1.49,0Z" transform="translate(4.17 4.58)"/><rect class="cls-4" x="29.73" width="7.43" height="7.43"/><path class="cls-4" d="M26.3-4.58a.8.8,0,0,1-.74.74v-.74Z" transform="translate(4.17 4.58)"/><path class="cls-4" d="M33-4.58v.74a.74.74,0,0,1-.74-.74Z" transform="translate(4.17 4.58)"/><path class="cls-4" d="M26.3,2.85h-.74V2.11A.74.74,0,0,1,26.3,2.85Z" transform="translate(4.17 4.58)"/><path class="cls-4" d="M33,2.11v.74h-.74A.7.7,0,0,1,33,2.11Z" transform="translate(4.17 4.58)"/><path class="cls-4" d="M30-.89a.76.76,0,0,1-.75.75.75.75,0,0,1-.74-.75.74.74,0,0,1,.74-.74A.75.75,0,0,1,30-.89Z" transform="translate(4.17 4.58)"/><rect class="cls-4" x="29.73" y="7.43" width="7.43" height="7.43"/><path class="cls-4" d="M26.3,2.85a.8.8,0,0,1-.74.74V2.85Z" transform="translate(4.17 4.58)"/><path class="cls-4" d="M33,2.85v.74a.74.74,0,0,1-.74-.74Z" transform="translate(4.17 4.58)"/><path class="cls-4" d="M26.3,10.28h-.74V9.54A.74.74,0,0,1,26.3,10.28Z" transform="translate(4.17 4.58)"/><path class="cls-4" d="M33,9.54v.74h-.74A.7.7,0,0,1,33,9.54Z" transform="translate(4.17 4.58)"/><path class="cls-4" d="M30,6.55a.75.75,0,0,1-.75.74.74.74,0,0,1-.74-.74.75.75,0,0,1,.74-.75A.76.76,0,0,1,30,6.55Z" transform="translate(4.17 4.58)"/><rect class="cls-4" x="29.73" y="14.87" width="7.43" height="7.43"/><path class="cls-4" d="M26.3,10.28a.81.81,0,0,1-.74.75v-.75Z" transform="translate(4.17 4.58)"/><path class="cls-4" d="M33,10.28V11a.75.75,0,0,1-.74-.75Z" transform="translate(4.17 4.58)"/><path class="cls-4" d="M26.3,17.72h-.74V17A.75.75,0,0,1,26.3,17.72Z" transform="translate(4.17 4.58)"/><path class="cls-4" d="M33,17v.75h-.74A.71.71,0,0,1,33,17Z" transform="translate(4.17 4.58)"/><path class="cls-4" d="M30,14a.75.75,0,0,1-.75.74.74.74,0,0,1,0-1.48A.75.75,0,0,1,30,14Z" transform="translate(4.17 4.58)"/><rect class="cls-4" x="29.73" y="22.3" width="7.43" height="7.43"/><path class="cls-4" d="M26.3,17.72a.8.8,0,0,1-.74.74v-.74Z" transform="translate(4.17 4.58)"/><path class="cls-4" d="M33,17.72v.74a.74.74,0,0,1-.74-.74Z" transform="translate(4.17 4.58)"/><path class="cls-4" d="M26.3,25.15h-.74v-.74A.74.74,0,0,1,26.3,25.15Z" transform="translate(4.17 4.58)"/><path class="cls-4" d="M33,24.41v.74h-.74A.7.7,0,0,1,33,24.41Z" transform="translate(4.17 4.58)"/><path class="cls-4" d="M30,21.42a.75.75,0,0,1-.75.74.75.75,0,0,1,0-1.49A.75.75,0,0,1,30,21.42Z" transform="translate(4.17 4.58)"/><rect class="cls-4" x="29.73" y="29.73" width="7.43" height="7.43"/><path class="cls-4" d="M26.3,25.15a.8.8,0,0,1-.74.74v-.74Z" transform="translate(4.17 4.58)"/><path class="cls-4" d="M33,25.15v.74a.74.74,0,0,1-.74-.74Z" transform="translate(4.17 4.58)"/><path class="cls-4" d="M26.3,32.58h-.74v-.74A.74.74,0,0,1,26.3,32.58Z" transform="translate(4.17 4.58)"/><path class="cls-4" d="M33,31.84v.74h-.74A.7.7,0,0,1,33,31.84Z" transform="translate(4.17 4.58)"/><path class="cls-4" d="M30,28.85a.75.75,0,0,1-.75.74.74.74,0,1,1,0-1.48A.75.75,0,0,1,30,28.85Z" transform="translate(4.17 4.58)"/><rect class="cls-4" x="29.73" y="37.17" width="7.43" height="7.43"/><path class="cls-4" d="M26.3,32.58a.8.8,0,0,1-.74.75v-.75Z" transform="translate(4.17 4.58)"/><path class="cls-4" d="M33,32.58v.75a.75.75,0,0,1-.74-.75Z" transform="translate(4.17 4.58)"/><path class="cls-4" d="M26.3,40h-.74v-.75A.75.75,0,0,1,26.3,40Z" transform="translate(4.17 4.58)"/><path class="cls-4" d="M33,39.27V40h-.74A.71.71,0,0,1,33,39.27Z" transform="translate(4.17 4.58)"/><path class="cls-4" d="M30,36.28a.76.76,0,0,1-.75.75.75.75,0,0,1-.74-.75.74.74,0,0,1,.74-.74A.75.75,0,0,1,30,36.28Z" transform="translate(4.17 4.58)"/><rect class="cls-4" x="29.73" y="44.6" width="7.43" height="7.43"/><path class="cls-4" d="M26.3,40a.8.8,0,0,1-.74.74V40Z" transform="translate(4.17 4.58)"/><path class="cls-4" d="M33,40v.74a.74.74,0,0,1-.74-.74Z" transform="translate(4.17 4.58)"/><path class="cls-4" d="M26.3,47.45h-.74v-.74A.74.74,0,0,1,26.3,47.45Z" transform="translate(4.17 4.58)"/><path class="cls-4" d="M33,46.71v.74h-.74A.7.7,0,0,1,33,46.71Z" transform="translate(4.17 4.58)"/><path class="cls-4" d="M30,43.72a.75.75,0,0,1-.75.74.74.74,0,0,1-.74-.74.75.75,0,0,1,.74-.75A.76.76,0,0,1,30,43.72Z" transform="translate(4.17 4.58)"/><rect class="cls-4" x="29.73" y="52.04" width="7.43" height="7.43"/><path class="cls-4" d="M26.3,47.45a.81.81,0,0,1-.74.75v-.75Z" transform="translate(4.17 4.58)"/><path class="cls-4" d="M33,47.45v.75a.75.75,0,0,1-.74-.75Z" transform="translate(4.17 4.58)"/><path class="cls-4" d="M26.3,54.89h-.74v-.75A.75.75,0,0,1,26.3,54.89Z" transform="translate(4.17 4.58)"/><path class="cls-4" d="M33,54.14v.75h-.74A.71.71,0,0,1,33,54.14Z" transform="translate(4.17 4.58)"/><path class="cls-4" d="M30,51.15a.75.75,0,0,1-.75.74.74.74,0,1,1,0-1.48A.75.75,0,0,1,30,51.15Z" transform="translate(4.17 4.58)"/><rect class="cls-4" x="29.73" y="59.47" width="7.43" height="7.43"/><path class="cls-4" d="M26.3,54.89a.8.8,0,0,1-.74.74v-.74Z" transform="translate(4.17 4.58)"/><path class="cls-4" d="M33,54.89v.74a.74.74,0,0,1-.74-.74Z" transform="translate(4.17 4.58)"/><path class="cls-4" d="M26.3,62.32h-.74v-.74A.74.74,0,0,1,26.3,62.32Z" transform="translate(4.17 4.58)"/><path class="cls-4" d="M33,61.58v.74h-.74A.7.7,0,0,1,33,61.58Z" transform="translate(4.17 4.58)"/><path class="cls-4" d="M30,58.58a.76.76,0,0,1-.75.75.75.75,0,0,1-.74-.75.74.74,0,0,1,.74-.74A.75.75,0,0,1,30,58.58Z" transform="translate(4.17 4.58)"/><rect class="cls-4" x="29.73" y="66.9" width="7.43" height="7.43"/><path class="cls-4" d="M26.3,62.32a.8.8,0,0,1-.74.74v-.74Z" transform="translate(4.17 4.58)"/><path class="cls-4" d="M33,62.32v.74a.74.74,0,0,1-.74-.74Z" transform="translate(4.17 4.58)"/><path class="cls-4" d="M26.3,69.75h-.74V69A.74.74,0,0,1,26.3,69.75Z" transform="translate(4.17 4.58)"/><path class="cls-4" d="M33,69v.74h-.74A.7.7,0,0,1,33,69Z" transform="translate(4.17 4.58)"/><path class="cls-4" d="M30,66a.75.75,0,0,1-.75.74.74.74,0,0,1-.74-.74.75.75,0,0,1,.74-.75A.76.76,0,0,1,30,66Z" transform="translate(4.17 4.58)"/><rect class="cls-4" x="22.3" width="7.43" height="7.43"/><path class="cls-4" d="M18.87-4.58a.8.8,0,0,1-.74.74v-.74Z" transform="translate(4.17 4.58)"/><path class="cls-4" d="M25.56-4.58v.74a.74.74,0,0,1-.74-.74Z" transform="translate(4.17 4.58)"/><path class="cls-4" d="M18.87,2.85h-.74V2.11A.74.74,0,0,1,18.87,2.85Z" transform="translate(4.17 4.58)"/><path class="cls-4" d="M25.56,2.11v.74h-.74A.69.69,0,0,1,25.56,2.11Z" transform="translate(4.17 4.58)"/><path class="cls-4" d="M22.57-.89a.75.75,0,0,1-.74.75.76.76,0,0,1-.75-.75.75.75,0,0,1,.75-.74A.74.74,0,0,1,22.57-.89Z" transform="translate(4.17 4.58)"/><rect class="cls-4" x="22.3" y="7.43" width="7.43" height="7.43"/><path class="cls-4" d="M18.87,2.85a.8.8,0,0,1-.74.74V2.85Z" transform="translate(4.17 4.58)"/><path class="cls-4" d="M25.56,2.85v.74a.74.74,0,0,1-.74-.74Z" transform="translate(4.17 4.58)"/><path class="cls-4" d="M18.87,10.28h-.74V9.54A.74.74,0,0,1,18.87,10.28Z" transform="translate(4.17 4.58)"/><path class="cls-4" d="M25.56,9.54v.74h-.74A.7.7,0,0,1,25.56,9.54Z" transform="translate(4.17 4.58)"/><circle class="cls-4" cx="26" cy="11.13" r="0.74"/><rect class="cls-4" x="22.3" y="14.87" width="7.43" height="7.43"/><path class="cls-4" d="M18.87,10.28a.81.81,0,0,1-.74.75v-.75Z" transform="translate(4.17 4.58)"/><path class="cls-4" d="M25.56,10.28V11a.75.75,0,0,1-.74-.75Z" transform="translate(4.17 4.58)"/><path class="cls-4" d="M18.87,17.72h-.74V17A.75.75,0,0,1,18.87,17.72Z" transform="translate(4.17 4.58)"/><path class="cls-4" d="M25.56,17v.75h-.74A.7.7,0,0,1,25.56,17Z" transform="translate(4.17 4.58)"/><path class="cls-4" d="M22.57,14a.74.74,0,0,1-.74.74.74.74,0,1,1,0-1.48A.74.74,0,0,1,22.57,14Z" transform="translate(4.17 4.58)"/><rect class="cls-4" x="22.3" y="22.3" width="7.43" height="7.43"/><path class="cls-4" d="M18.87,17.72a.8.8,0,0,1-.74.74v-.74Z" transform="translate(4.17 4.58)"/><path class="cls-4" d="M25.56,17.72v.74a.74.74,0,0,1-.74-.74Z" transform="translate(4.17 4.58)"/><path class="cls-4" d="M18.87,25.15h-.74v-.74A.74.74,0,0,1,18.87,25.15Z" transform="translate(4.17 4.58)"/><path class="cls-4" d="M25.56,24.41v.74h-.74A.69.69,0,0,1,25.56,24.41Z" transform="translate(4.17 4.58)"/><circle class="cls-4" cx="26" cy="26" r="0.74"/><rect class="cls-4" x="22.3" y="29.73" width="7.43" height="7.43"/><path class="cls-4" d="M18.87,25.15a.8.8,0,0,1-.74.74v-.74Z" transform="translate(4.17 4.58)"/><path class="cls-4" d="M25.56,25.15v.74a.74.74,0,0,1-.74-.74Z" transform="translate(4.17 4.58)"/><path class="cls-4" d="M18.87,32.58h-.74v-.74A.74.74,0,0,1,18.87,32.58Z" transform="translate(4.17 4.58)"/><path class="cls-4" d="M25.56,31.84v.74h-.74A.7.7,0,0,1,25.56,31.84Z" transform="translate(4.17 4.58)"/><path class="cls-4" d="M22.57,28.85a.74.74,0,0,1-.74.74.74.74,0,1,1,0-1.48A.74.74,0,0,1,22.57,28.85Z" transform="translate(4.17 4.58)"/><rect class="cls-4" x="22.3" y="37.17" width="7.43" height="7.43"/><path class="cls-4" d="M18.87,32.58a.8.8,0,0,1-.74.75v-.75Z" transform="translate(4.17 4.58)"/><path class="cls-4" d="M25.56,32.58v.75a.74.74,0,0,1-.74-.75Z" transform="translate(4.17 4.58)"/><path class="cls-4" d="M18.87,40h-.74v-.75A.75.75,0,0,1,18.87,40Z" transform="translate(4.17 4.58)"/><path class="cls-4" d="M25.56,39.27V40h-.74A.7.7,0,0,1,25.56,39.27Z" transform="translate(4.17 4.58)"/><circle class="cls-4" cx="26" cy="40.87" r="0.74"/><rect class="cls-4" x="22.3" y="44.6" width="7.43" height="7.43"/><path class="cls-4" d="M18.87,40a.8.8,0,0,1-.74.74V40Z" transform="translate(4.17 4.58)"/><path class="cls-4" d="M25.56,40v.74a.74.74,0,0,1-.74-.74Z" transform="translate(4.17 4.58)"/><path class="cls-4" d="M18.87,47.45h-.74v-.74A.74.74,0,0,1,18.87,47.45Z" transform="translate(4.17 4.58)"/><path class="cls-4" d="M25.56,46.71v.74h-.74A.7.7,0,0,1,25.56,46.71Z" transform="translate(4.17 4.58)"/><path class="cls-4" d="M22.57,43.72a.74.74,0,0,1-.74.74.75.75,0,0,1-.75-.74.76.76,0,0,1,.75-.75A.75.75,0,0,1,22.57,43.72Z" transform="translate(4.17 4.58)"/><rect class="cls-4" x="22.3" y="52.04" width="7.43" height="7.43"/><path class="cls-4" d="M18.87,47.45a.81.81,0,0,1-.74.75v-.75Z" transform="translate(4.17 4.58)"/><path class="cls-4" d="M25.56,47.45v.75a.75.75,0,0,1-.74-.75Z" transform="translate(4.17 4.58)"/><path class="cls-4" d="M18.87,54.89h-.74v-.75A.75.75,0,0,1,18.87,54.89Z" transform="translate(4.17 4.58)"/><path class="cls-4" d="M25.56,54.14v.75h-.74A.7.7,0,0,1,25.56,54.14Z" transform="translate(4.17 4.58)"/><path class="cls-4" d="M22.57,51.15a.74.74,0,0,1-.74.74.74.74,0,1,1,0-1.48A.74.74,0,0,1,22.57,51.15Z" transform="translate(4.17 4.58)"/><rect class="cls-4" x="22.3" y="59.47" width="7.43" height="7.43"/><path class="cls-4" d="M18.87,54.89a.8.8,0,0,1-.74.74v-.74Z" transform="translate(4.17 4.58)"/><path class="cls-4" d="M25.56,54.89v.74a.74.74,0,0,1-.74-.74Z" transform="translate(4.17 4.58)"/><path class="cls-4" d="M18.87,62.32h-.74v-.74A.74.74,0,0,1,18.87,62.32Z" transform="translate(4.17 4.58)"/><path class="cls-4" d="M25.56,61.58v.74h-.74A.69.69,0,0,1,25.56,61.58Z" transform="translate(4.17 4.58)"/><path class="cls-4" d="M22.57,58.58a.75.75,0,0,1-.74.75.76.76,0,0,1-.75-.75.75.75,0,0,1,.75-.74A.74.74,0,0,1,22.57,58.58Z" transform="translate(4.17 4.58)"/><rect class="cls-4" x="22.3" y="66.9" width="7.43" height="7.43"/><path class="cls-4" d="M18.87,62.32a.8.8,0,0,1-.74.74v-.74Z" transform="translate(4.17 4.58)"/><path class="cls-4" d="M25.56,62.32v.74a.74.74,0,0,1-.74-.74Z" transform="translate(4.17 4.58)"/><path class="cls-4" d="M18.87,69.75h-.74V69A.74.74,0,0,1,18.87,69.75Z" transform="translate(4.17 4.58)"/><path class="cls-4" d="M25.56,69v.74h-.74A.7.7,0,0,1,25.56,69Z" transform="translate(4.17 4.58)"/><path class="cls-4" d="M22.57,66a.74.74,0,0,1-.74.74.75.75,0,0,1-.75-.74.76.76,0,0,1,.75-.75A.75.75,0,0,1,22.57,66Z" transform="translate(4.17 4.58)"/><rect class="cls-4" x="14.87" width="7.43" height="7.43"/><path class="cls-4" d="M11.44-4.58a.81.81,0,0,1-.75.74v-.74Z" transform="translate(4.17 4.58)"/><path class="cls-4" d="M18.13-4.58v.74a.75.75,0,0,1-.75-.74Z" transform="translate(4.17 4.58)"/><path class="cls-4" d="M11.44,2.85h-.75V2.11A.75.75,0,0,1,11.44,2.85Z" transform="translate(4.17 4.58)"/><path class="cls-4" d="M18.13,2.11v.74h-.75A.7.7,0,0,1,18.13,2.11Z" transform="translate(4.17 4.58)"/><path class="cls-4" d="M15.14-.89a.76.76,0,0,1-.75.75.75.75,0,0,1-.74-.75.74.74,0,0,1,.74-.74A.75.75,0,0,1,15.14-.89Z" transform="translate(4.17 4.58)"/><rect class="cls-4" x="14.87" y="7.43" width="7.43" height="7.43"/><path class="cls-4" d="M11.44,2.85a.81.81,0,0,1-.75.74V2.85Z" transform="translate(4.17 4.58)"/><path class="cls-4" d="M18.13,2.85v.74a.75.75,0,0,1-.75-.74Z" transform="translate(4.17 4.58)"/><path class="cls-4" d="M11.44,10.28h-.75V9.54A.75.75,0,0,1,11.44,10.28Z" transform="translate(4.17 4.58)"/><path class="cls-4" d="M18.13,9.54v.74h-.75A.71.71,0,0,1,18.13,9.54Z" transform="translate(4.17 4.58)"/><path class="cls-4" d="M15.14,6.55a.75.75,0,0,1-.75.74.74.74,0,0,1-.74-.74.75.75,0,0,1,.74-.75A.76.76,0,0,1,15.14,6.55Z" transform="translate(4.17 4.58)"/><rect class="cls-4" x="14.87" y="14.87" width="7.43" height="7.43"/><path class="cls-4" d="M11.44,10.28a.81.81,0,0,1-.75.75v-.75Z" transform="translate(4.17 4.58)"/><path class="cls-4" d="M18.13,10.28V11a.75.75,0,0,1-.75-.75Z" transform="translate(4.17 4.58)"/><path class="cls-4" d="M11.44,17.72h-.75V17A.75.75,0,0,1,11.44,17.72Z" transform="translate(4.17 4.58)"/><path class="cls-4" d="M18.13,17v.75h-.75A.71.71,0,0,1,18.13,17Z" transform="translate(4.17 4.58)"/><path class="cls-4" d="M15.14,14a.75.75,0,0,1-.75.74.74.74,0,0,1,0-1.48A.75.75,0,0,1,15.14,14Z" transform="translate(4.17 4.58)"/><rect class="cls-4" x="14.87" y="22.3" width="7.43" height="7.43"/><path class="cls-4" d="M11.44,17.72a.81.81,0,0,1-.75.74v-.74Z" transform="translate(4.17 4.58)"/><path class="cls-4" d="M18.13,17.72v.74a.75.75,0,0,1-.75-.74Z" transform="translate(4.17 4.58)"/><path class="cls-4" d="M11.44,25.15h-.75v-.74A.75.75,0,0,1,11.44,25.15Z" transform="translate(4.17 4.58)"/><path class="cls-4" d="M18.13,24.41v.74h-.75A.7.7,0,0,1,18.13,24.41Z" transform="translate(4.17 4.58)"/><path class="cls-4" d="M15.14,21.42a.75.75,0,0,1-.75.74.75.75,0,0,1,0-1.49A.75.75,0,0,1,15.14,21.42Z" transform="translate(4.17 4.58)"/><rect class="cls-4" x="14.87" y="29.73" width="7.43" height="7.43"/><path class="cls-4" d="M11.44,25.15a.81.81,0,0,1-.75.74v-.74Z" transform="translate(4.17 4.58)"/><path class="cls-4" d="M18.13,25.15v.74a.75.75,0,0,1-.75-.74Z" transform="translate(4.17 4.58)"/><path class="cls-4" d="M11.44,32.58h-.75v-.74A.75.75,0,0,1,11.44,32.58Z" transform="translate(4.17 4.58)"/><path class="cls-4" d="M18.13,31.84v.74h-.75A.71.71,0,0,1,18.13,31.84Z" transform="translate(4.17 4.58)"/><path class="cls-4" d="M15.14,28.85a.75.75,0,0,1-.75.74.74.74,0,0,1,0-1.48A.75.75,0,0,1,15.14,28.85Z" transform="translate(4.17 4.58)"/><rect class="cls-4" x="14.87" y="37.17" width="7.43" height="7.43"/><path class="cls-4" d="M11.44,32.58a.81.81,0,0,1-.75.75v-.75Z" transform="translate(4.17 4.58)"/><path class="cls-4" d="M18.13,32.58v.75a.75.75,0,0,1-.75-.75Z" transform="translate(4.17 4.58)"/><path class="cls-4" d="M11.44,40h-.75v-.75A.75.75,0,0,1,11.44,40Z" transform="translate(4.17 4.58)"/><path class="cls-4" d="M18.13,39.27V40h-.75A.71.71,0,0,1,18.13,39.27Z" transform="translate(4.17 4.58)"/><path class="cls-4" d="M15.14,36.28a.76.76,0,0,1-.75.75.75.75,0,0,1-.74-.75.74.74,0,0,1,.74-.74A.75.75,0,0,1,15.14,36.28Z" transform="translate(4.17 4.58)"/><rect class="cls-4" x="14.87" y="44.6" width="7.43" height="7.43"/><path class="cls-4" d="M11.44,40a.81.81,0,0,1-.75.74V40Z" transform="translate(4.17 4.58)"/><path class="cls-4" d="M18.13,40v.74a.75.75,0,0,1-.75-.74Z" transform="translate(4.17 4.58)"/><path class="cls-4" d="M11.44,47.45h-.75v-.74A.75.75,0,0,1,11.44,47.45Z" transform="translate(4.17 4.58)"/><path class="cls-4" d="M18.13,46.71v.74h-.75A.71.71,0,0,1,18.13,46.71Z" transform="translate(4.17 4.58)"/><path class="cls-4" d="M15.14,43.72a.75.75,0,0,1-.75.74.74.74,0,0,1-.74-.74.75.75,0,0,1,.74-.75A.76.76,0,0,1,15.14,43.72Z" transform="translate(4.17 4.58)"/><rect class="cls-4" x="14.87" y="52.04" width="7.43" height="7.43"/><path class="cls-4" d="M11.44,47.45a.81.81,0,0,1-.75.75v-.75Z" transform="translate(4.17 4.58)"/><path class="cls-4" d="M18.13,47.45v.75a.75.75,0,0,1-.75-.75Z" transform="translate(4.17 4.58)"/><path class="cls-4" d="M11.44,54.89h-.75v-.75A.75.75,0,0,1,11.44,54.89Z" transform="translate(4.17 4.58)"/><path class="cls-4" d="M18.13,54.14v.75h-.75A.71.71,0,0,1,18.13,54.14Z" transform="translate(4.17 4.58)"/><path class="cls-4" d="M15.14,51.15a.75.75,0,0,1-.75.74.74.74,0,1,1,0-1.48A.75.75,0,0,1,15.14,51.15Z" transform="translate(4.17 4.58)"/><rect class="cls-4" x="14.87" y="59.47" width="7.43" height="7.43"/><path class="cls-4" d="M11.44,54.89a.81.81,0,0,1-.75.74v-.74Z" transform="translate(4.17 4.58)"/><path class="cls-4" d="M18.13,54.89v.74a.75.75,0,0,1-.75-.74Z" transform="translate(4.17 4.58)"/><path class="cls-4" d="M11.44,62.32h-.75v-.74A.75.75,0,0,1,11.44,62.32Z" transform="translate(4.17 4.58)"/><path class="cls-4" d="M18.13,61.58v.74h-.75A.7.7,0,0,1,18.13,61.58Z" transform="translate(4.17 4.58)"/><path class="cls-4" d="M15.14,58.58a.76.76,0,0,1-.75.75.75.75,0,0,1-.74-.75.74.74,0,0,1,.74-.74A.75.75,0,0,1,15.14,58.58Z" transform="translate(4.17 4.58)"/><rect class="cls-4" x="14.87" y="66.9" width="7.43" height="7.43"/><path class="cls-4" d="M11.44,62.32a.81.81,0,0,1-.75.74v-.74Z" transform="translate(4.17 4.58)"/><path class="cls-4" d="M18.13,62.32v.74a.75.75,0,0,1-.75-.74Z" transform="translate(4.17 4.58)"/><path class="cls-4" d="M11.44,69.75h-.75V69A.75.75,0,0,1,11.44,69.75Z" transform="translate(4.17 4.58)"/><path class="cls-4" d="M18.13,69v.74h-.75A.71.71,0,0,1,18.13,69Z" transform="translate(4.17 4.58)"/><path class="cls-4" d="M15.14,66a.75.75,0,0,1-.75.74.74.74,0,0,1-.74-.74.75.75,0,0,1,.74-.75A.76.76,0,0,1,15.14,66Z" transform="translate(4.17 4.58)"/><rect class="cls-4" x="7.43" width="7.43" height="7.43"/><path class="cls-4" d="M4-4.58a.8.8,0,0,1-.74.74v-.74Z" transform="translate(4.17 4.58)"/><path class="cls-4" d="M10.69-4.58v.74A.74.74,0,0,1,10-4.58Z" transform="translate(4.17 4.58)"/><path class="cls-4" d="M4,2.85H3.26V2.11A.74.74,0,0,1,4,2.85Z" transform="translate(4.17 4.58)"/><path class="cls-4" d="M10.69,2.11v.74H10A.7.7,0,0,1,10.69,2.11Z" transform="translate(4.17 4.58)"/><path class="cls-4" d="M7.7-.89A.75.75,0,0,1,7-.14a.75.75,0,0,1-.74-.75A.74.74,0,0,1,7-1.63.74.74,0,0,1,7.7-.89Z" transform="translate(4.17 4.58)"/><rect class="cls-4" x="7.43" y="7.43" width="7.43" height="7.43"/><path class="cls-4" d="M4,2.85a.8.8,0,0,1-.74.74V2.85Z" transform="translate(4.17 4.58)"/><path class="cls-4" d="M10.69,2.85v.74A.74.74,0,0,1,10,2.85Z" transform="translate(4.17 4.58)"/><path class="cls-4" d="M4,10.28H3.26V9.54A.74.74,0,0,1,4,10.28Z" transform="translate(4.17 4.58)"/><path class="cls-4" d="M10.69,9.54v.74H10A.7.7,0,0,1,10.69,9.54Z" transform="translate(4.17 4.58)"/><circle class="cls-4" cx="11.13" cy="11.13" r="0.74"/><rect class="cls-4" x="7.43" y="14.87" width="7.43" height="7.43"/><path class="cls-4" d="M4,10.28a.81.81,0,0,1-.74.75v-.75Z" transform="translate(4.17 4.58)"/><path class="cls-4" d="M10.69,10.28V11a.75.75,0,0,1-.74-.75Z" transform="translate(4.17 4.58)"/><path class="cls-4" d="M4,17.72H3.26V17A.75.75,0,0,1,4,17.72Z" transform="translate(4.17 4.58)"/><path class="cls-4" d="M10.69,17v.75H10A.71.71,0,0,1,10.69,17Z" transform="translate(4.17 4.58)"/><path class="cls-4" d="M7.7,14A.74.74,0,1,1,7,13.24.74.74,0,0,1,7.7,14Z" transform="translate(4.17 4.58)"/><rect class="cls-4" x="7.43" y="22.3" width="7.43" height="7.43"/><path class="cls-4" d="M4,17.72a.8.8,0,0,1-.74.74v-.74Z" transform="translate(4.17 4.58)"/><path class="cls-4" d="M10.69,17.72v.74a.74.74,0,0,1-.74-.74Z" transform="translate(4.17 4.58)"/><path class="cls-4" d="M4,25.15H3.26v-.74A.74.74,0,0,1,4,25.15Z" transform="translate(4.17 4.58)"/><path class="cls-4" d="M10.69,24.41v.74H10A.7.7,0,0,1,10.69,24.41Z" transform="translate(4.17 4.58)"/><circle class="cls-4" cx="11.13" cy="26" r="0.74"/><rect class="cls-4" x="7.43" y="29.73" width="7.43" height="7.43"/><path class="cls-4" d="M4,25.15a.8.8,0,0,1-.74.74v-.74Z" transform="translate(4.17 4.58)"/><path class="cls-4" d="M10.69,25.15v.74a.74.74,0,0,1-.74-.74Z" transform="translate(4.17 4.58)"/><path class="cls-4" d="M4,32.58H3.26v-.74A.74.74,0,0,1,4,32.58Z" transform="translate(4.17 4.58)"/><path class="cls-4" d="M10.69,31.84v.74H10A.7.7,0,0,1,10.69,31.84Z" transform="translate(4.17 4.58)"/><path class="cls-4" d="M7.7,28.85A.74.74,0,1,1,7,28.11.74.74,0,0,1,7.7,28.85Z" transform="translate(4.17 4.58)"/><rect class="cls-4" x="7.43" y="37.17" width="7.43" height="7.43"/><path class="cls-4" d="M4,32.58a.8.8,0,0,1-.74.75v-.75Z" transform="translate(4.17 4.58)"/><path class="cls-4" d="M10.69,32.58v.75a.75.75,0,0,1-.74-.75Z" transform="translate(4.17 4.58)"/><path class="cls-4" d="M4,40H3.26v-.75A.75.75,0,0,1,4,40Z" transform="translate(4.17 4.58)"/><path class="cls-4" d="M10.69,39.27V40H10A.71.71,0,0,1,10.69,39.27Z" transform="translate(4.17 4.58)"/><circle class="cls-4" cx="11.13" cy="40.87" r="0.74"/><rect class="cls-4" x="7.43" y="44.6" width="7.43" height="7.43"/><path class="cls-4" d="M4,40a.8.8,0,0,1-.74.74V40Z" transform="translate(4.17 4.58)"/><path class="cls-4" d="M10.69,40v.74A.74.74,0,0,1,10,40Z" transform="translate(4.17 4.58)"/><path class="cls-4" d="M4,47.45H3.26v-.74A.74.74,0,0,1,4,47.45Z" transform="translate(4.17 4.58)"/><path class="cls-4" d="M10.69,46.71v.74H10A.7.7,0,0,1,10.69,46.71Z" transform="translate(4.17 4.58)"/><path class="cls-4" d="M7.7,43.72a.74.74,0,0,1-1.48,0,.74.74,0,1,1,1.48,0Z" transform="translate(4.17 4.58)"/><rect class="cls-4" x="7.43" y="52.04" width="7.43" height="7.43"/><path class="cls-4" d="M4,47.45a.81.81,0,0,1-.74.75v-.75Z" transform="translate(4.17 4.58)"/><path class="cls-4" d="M10.69,47.45v.75a.75.75,0,0,1-.74-.75Z" transform="translate(4.17 4.58)"/><path class="cls-4" d="M4,54.89H3.26v-.75A.75.75,0,0,1,4,54.89Z" transform="translate(4.17 4.58)"/><path class="cls-4" d="M10.69,54.14v.75H10A.71.71,0,0,1,10.69,54.14Z" transform="translate(4.17 4.58)"/><path class="cls-4" d="M7.7,51.15A.74.74,0,1,1,7,50.41.74.74,0,0,1,7.7,51.15Z" transform="translate(4.17 4.58)"/><rect class="cls-4" x="7.43" y="59.47" width="7.43" height="7.43"/><path class="cls-4" d="M4,54.89a.8.8,0,0,1-.74.74v-.74Z" transform="translate(4.17 4.58)"/><path class="cls-4" d="M10.69,54.89v.74a.74.74,0,0,1-.74-.74Z" transform="translate(4.17 4.58)"/><path class="cls-4" d="M4,62.32H3.26v-.74A.74.74,0,0,1,4,62.32Z" transform="translate(4.17 4.58)"/><path class="cls-4" d="M10.69,61.58v.74H10A.7.7,0,0,1,10.69,61.58Z" transform="translate(4.17 4.58)"/><path class="cls-4" d="M7.7,58.58a.74.74,0,1,1-1.48,0,.74.74,0,0,1,1.48,0Z" transform="translate(4.17 4.58)"/><rect class="cls-4" x="7.43" y="66.9" width="7.43" height="7.43"/><path class="cls-4" d="M4,62.32a.8.8,0,0,1-.74.74v-.74Z" transform="translate(4.17 4.58)"/><path class="cls-4" d="M10.69,62.32v.74a.74.74,0,0,1-.74-.74Z" transform="translate(4.17 4.58)"/><path class="cls-4" d="M4,69.75H3.26V69A.74.74,0,0,1,4,69.75Z" transform="translate(4.17 4.58)"/><path class="cls-4" d="M10.69,69v.74H10A.7.7,0,0,1,10.69,69Z" transform="translate(4.17 4.58)"/><path class="cls-4" d="M7.7,66a.74.74,0,1,1-1.48,0A.74.74,0,1,1,7.7,66Z" transform="translate(4.17 4.58)"/><rect class="cls-4" width="7.43" height="7.43"/><path class="cls-4" d="M-3.43-4.58a.8.8,0,0,1-.74.74v-.74Z" transform="translate(4.17 4.58)"/><path class="cls-4" d="M3.26-4.58v.74a.74.74,0,0,1-.74-.74Z" transform="translate(4.17 4.58)"/><path class="cls-4" d="M-3.43,2.85h-.74V2.11A.74.74,0,0,1-3.43,2.85Z" transform="translate(4.17 4.58)"/><path class="cls-4" d="M3.26,2.11v.74H2.52A.69.69,0,0,1,3.26,2.11Z" transform="translate(4.17 4.58)"/><path class="cls-4" d="M.27-.89a.75.75,0,0,1-.74.75.76.76,0,0,1-.75-.75.75.75,0,0,1,.75-.74A.74.74,0,0,1,.27-.89Z" transform="translate(4.17 4.58)"/><rect class="cls-4" y="7.43" width="7.43" height="7.43"/><path class="cls-4" d="M-3.43,2.85a.8.8,0,0,1-.74.74V2.85Z" transform="translate(4.17 4.58)"/><path class="cls-4" d="M3.26,2.85v.74a.74.74,0,0,1-.74-.74Z" transform="translate(4.17 4.58)"/><path class="cls-4" d="M-3.43,10.28h-.74V9.54A.74.74,0,0,1-3.43,10.28Z" transform="translate(4.17 4.58)"/><path class="cls-4" d="M3.26,9.54v.74H2.52A.7.7,0,0,1,3.26,9.54Z" transform="translate(4.17 4.58)"/><path class="cls-4" d="M.27,6.55a.74.74,0,0,1-.74.74.75.75,0,0,1-.75-.74A.76.76,0,0,1-.47,5.8.75.75,0,0,1,.27,6.55Z" transform="translate(4.17 4.58)"/><rect class="cls-4" y="14.87" width="7.43" height="7.43"/><path class="cls-4" d="M-3.43,10.28a.81.81,0,0,1-.74.75v-.75Z" transform="translate(4.17 4.58)"/><path class="cls-4" d="M3.26,10.28V11a.75.75,0,0,1-.74-.75Z" transform="translate(4.17 4.58)"/><path class="cls-4" d="M-3.43,17.72h-.74V17A.75.75,0,0,1-3.43,17.72Z" transform="translate(4.17 4.58)"/><path class="cls-4" d="M3.26,17v.75H2.52A.7.7,0,0,1,3.26,17Z" transform="translate(4.17 4.58)"/><path class="cls-4" d="M.27,14a.74.74,0,0,1-.74.74A.75.75,0,0,1-1.22,14a.75.75,0,0,1,.75-.74A.74.74,0,0,1,.27,14Z" transform="translate(4.17 4.58)"/><rect class="cls-4" y="22.3" width="7.43" height="7.43"/><path class="cls-4" d="M-3.43,17.72a.8.8,0,0,1-.74.74v-.74Z" transform="translate(4.17 4.58)"/><path class="cls-4" d="M3.26,17.72v.74a.74.74,0,0,1-.74-.74Z" transform="translate(4.17 4.58)"/><path class="cls-4" d="M-3.43,25.15h-.74v-.74A.74.74,0,0,1-3.43,25.15Z" transform="translate(4.17 4.58)"/><path class="cls-4" d="M3.26,24.41v.74H2.52A.69.69,0,0,1,3.26,24.41Z" transform="translate(4.17 4.58)"/><path class="cls-4" d="M.27,21.42a.74.74,0,0,1-.74.74.75.75,0,0,1-.75-.74.75.75,0,0,1,.75-.75A.74.74,0,0,1,.27,21.42Z" transform="translate(4.17 4.58)"/><rect class="cls-4" y="29.73" width="7.43" height="7.43"/><path class="cls-4" d="M-3.43,25.15a.8.8,0,0,1-.74.74v-.74Z" transform="translate(4.17 4.58)"/><path class="cls-4" d="M3.26,25.15v.74a.74.74,0,0,1-.74-.74Z" transform="translate(4.17 4.58)"/><path class="cls-4" d="M-3.43,32.58h-.74v-.74A.74.74,0,0,1-3.43,32.58Z" transform="translate(4.17 4.58)"/><path class="cls-4" d="M3.26,31.84v.74H2.52A.7.7,0,0,1,3.26,31.84Z" transform="translate(4.17 4.58)"/><path class="cls-4" d="M.27,28.85a.74.74,0,0,1-.74.74.75.75,0,0,1-.75-.74.75.75,0,0,1,.75-.74A.74.74,0,0,1,.27,28.85Z" transform="translate(4.17 4.58)"/><rect class="cls-4" y="37.17" width="7.43" height="7.43"/><path class="cls-4" d="M-3.43,32.58a.8.8,0,0,1-.74.75v-.75Z" transform="translate(4.17 4.58)"/><path class="cls-4" d="M3.26,32.58v.75a.74.74,0,0,1-.74-.75Z" transform="translate(4.17 4.58)"/><path class="cls-4" d="M-3.43,40h-.74v-.75A.75.75,0,0,1-3.43,40Z" transform="translate(4.17 4.58)"/><path class="cls-4" d="M3.26,39.27V40H2.52A.7.7,0,0,1,3.26,39.27Z" transform="translate(4.17 4.58)"/><path class="cls-4" d="M.27,36.28A.75.75,0,0,1-.47,37a.76.76,0,0,1-.75-.75.75.75,0,0,1,.75-.74A.74.74,0,0,1,.27,36.28Z" transform="translate(4.17 4.58)"/><rect class="cls-4" y="44.6" width="7.43" height="7.43"/><path class="cls-4" d="M-3.43,40a.8.8,0,0,1-.74.74V40Z" transform="translate(4.17 4.58)"/><path class="cls-4" d="M3.26,40v.74A.74.74,0,0,1,2.52,40Z" transform="translate(4.17 4.58)"/><path class="cls-4" d="M-3.43,47.45h-.74v-.74A.74.74,0,0,1-3.43,47.45Z" transform="translate(4.17 4.58)"/><path class="cls-4" d="M3.26,46.71v.74H2.52A.7.7,0,0,1,3.26,46.71Z" transform="translate(4.17 4.58)"/><path class="cls-4" d="M.27,43.72a.74.74,0,0,1-.74.74.75.75,0,0,1-.75-.74A.76.76,0,0,1-.47,43,.75.75,0,0,1,.27,43.72Z" transform="translate(4.17 4.58)"/><rect class="cls-4" y="52.04" width="7.43" height="7.43"/><path class="cls-4" d="M-3.43,47.45a.81.81,0,0,1-.74.75v-.75Z" transform="translate(4.17 4.58)"/><path class="cls-4" d="M3.26,47.45v.75a.75.75,0,0,1-.74-.75Z" transform="translate(4.17 4.58)"/><path class="cls-4" d="M-3.43,54.89h-.74v-.75A.75.75,0,0,1-3.43,54.89Z" transform="translate(4.17 4.58)"/><path class="cls-4" d="M3.26,54.14v.75H2.52A.7.7,0,0,1,3.26,54.14Z" transform="translate(4.17 4.58)"/><path class="cls-4" d="M.27,51.15a.74.74,0,0,1-.74.74.75.75,0,0,1-.75-.74.75.75,0,0,1,.75-.74A.74.74,0,0,1,.27,51.15Z" transform="translate(4.17 4.58)"/><rect class="cls-4" y="59.47" width="7.43" height="7.43"/><path class="cls-4" d="M-3.43,54.89a.8.8,0,0,1-.74.74v-.74Z" transform="translate(4.17 4.58)"/><path class="cls-4" d="M3.26,54.89v.74a.74.74,0,0,1-.74-.74Z" transform="translate(4.17 4.58)"/><path class="cls-4" d="M-3.43,62.32h-.74v-.74A.74.74,0,0,1-3.43,62.32Z" transform="translate(4.17 4.58)"/><path class="cls-4" d="M3.26,61.58v.74H2.52A.69.69,0,0,1,3.26,61.58Z" transform="translate(4.17 4.58)"/><path class="cls-4" d="M.27,58.58a.75.75,0,0,1-.74.75.76.76,0,0,1-.75-.75.75.75,0,0,1,.75-.74A.74.74,0,0,1,.27,58.58Z" transform="translate(4.17 4.58)"/><rect class="cls-4" y="66.9" width="7.43" height="7.43"/><path class="cls-4" d="M-3.43,62.32a.8.8,0,0,1-.74.74v-.74Z" transform="translate(4.17 4.58)"/><path class="cls-4" d="M3.26,62.32v.74a.74.74,0,0,1-.74-.74Z" transform="translate(4.17 4.58)"/><path class="cls-4" d="M-3.43,69.75h-.74V69A.74.74,0,0,1-3.43,69.75Z" transform="translate(4.17 4.58)"/><path class="cls-4" d="M3.26,69v.74H2.52A.7.7,0,0,1,3.26,69Z" transform="translate(4.17 4.58)"/><path class="cls-4" d="M.27,66a.74.74,0,0,1-.74.74A.75.75,0,0,1-1.22,66a.76.76,0,0,1,.75-.75A.75.75,0,0,1,.27,66Z" transform="translate(4.17 4.58)"/><rect class="cls-4" x="29.73" y="37.17" width="7.43" height="7.43"/><path class="cls-4" d="M26.3,32.58a.8.8,0,0,1-.74.75v-.75Z" transform="translate(4.17 4.58)"/><path class="cls-4" d="M33,32.58v.75a.75.75,0,0,1-.74-.75Z" transform="translate(4.17 4.58)"/><path class="cls-4" d="M26.3,40h-.74v-.75A.75.75,0,0,1,26.3,40Z" transform="translate(4.17 4.58)"/><path class="cls-4" d="M33,39.27V40h-.74A.71.71,0,0,1,33,39.27Z" transform="translate(4.17 4.58)"/><path class="cls-4" d="M30,36.28a.76.76,0,0,1-.75.75.75.75,0,0,1-.74-.75.74.74,0,0,1,.74-.74A.75.75,0,0,1,30,36.28Z" transform="translate(4.17 4.58)"/><rect class="cls-4" x="29.73" y="44.6" width="7.43" height="7.43"/><path class="cls-4" d="M26.3,40a.8.8,0,0,1-.74.74V40Z" transform="translate(4.17 4.58)"/><path class="cls-4" d="M33,40v.74a.74.74,0,0,1-.74-.74Z" transform="translate(4.17 4.58)"/><path class="cls-4" d="M26.3,47.45h-.74v-.74A.74.74,0,0,1,26.3,47.45Z" transform="translate(4.17 4.58)"/><path class="cls-4" d="M33,46.71v.74h-.74A.7.7,0,0,1,33,46.71Z" transform="translate(4.17 4.58)"/><path class="cls-4" d="M30,43.72a.75.75,0,0,1-.75.74.74.74,0,0,1-.74-.74.75.75,0,0,1,.74-.75A.76.76,0,0,1,30,43.72Z" transform="translate(4.17 4.58)"/><rect class="cls-4" x="29.73" y="52.04" width="7.43" height="7.43"/><path class="cls-4" d="M26.3,47.45a.81.81,0,0,1-.74.75v-.75Z" transform="translate(4.17 4.58)"/><path class="cls-4" d="M33,47.45v.75a.75.75,0,0,1-.74-.75Z" transform="translate(4.17 4.58)"/><path class="cls-4" d="M26.3,54.89h-.74v-.75A.75.75,0,0,1,26.3,54.89Z" transform="translate(4.17 4.58)"/><path class="cls-4" d="M33,54.14v.75h-.74A.71.71,0,0,1,33,54.14Z" transform="translate(4.17 4.58)"/><path class="cls-4" d="M30,51.15a.75.75,0,0,1-.75.74.74.74,0,1,1,0-1.48A.75.75,0,0,1,30,51.15Z" transform="translate(4.17 4.58)"/><rect class="cls-4" x="22.3" y="37.17" width="7.43" height="7.43"/><path class="cls-4" d="M18.87,32.58a.8.8,0,0,1-.74.75v-.75Z" transform="translate(4.17 4.58)"/><path class="cls-4" d="M25.56,32.58v.75a.74.74,0,0,1-.74-.75Z" transform="translate(4.17 4.58)"/><path class="cls-4" d="M18.87,40h-.74v-.75A.75.75,0,0,1,18.87,40Z" transform="translate(4.17 4.58)"/><path class="cls-4" d="M25.56,39.27V40h-.74A.7.7,0,0,1,25.56,39.27Z" transform="translate(4.17 4.58)"/><circle class="cls-4" cx="26" cy="40.87" r="0.74"/><rect class="cls-4" x="22.3" y="44.6" width="7.43" height="7.43"/><path class="cls-4" d="M18.87,40a.8.8,0,0,1-.74.74V40Z" transform="translate(4.17 4.58)"/><path class="cls-4" d="M25.56,40v.74a.74.74,0,0,1-.74-.74Z" transform="translate(4.17 4.58)"/><path class="cls-4" d="M18.87,47.45h-.74v-.74A.74.74,0,0,1,18.87,47.45Z" transform="translate(4.17 4.58)"/><path class="cls-4" d="M25.56,46.71v.74h-.74A.7.7,0,0,1,25.56,46.71Z" transform="translate(4.17 4.58)"/><path class="cls-4" d="M22.57,43.72a.74.74,0,0,1-.74.74.75.75,0,0,1-.75-.74.76.76,0,0,1,.75-.75A.75.75,0,0,1,22.57,43.72Z" transform="translate(4.17 4.58)"/><rect class="cls-4" x="22.3" y="52.04" width="7.43" height="7.43"/><path class="cls-4" d="M18.87,47.45a.81.81,0,0,1-.74.75v-.75Z" transform="translate(4.17 4.58)"/><path class="cls-4" d="M25.56,47.45v.75a.75.75,0,0,1-.74-.75Z" transform="translate(4.17 4.58)"/><path class="cls-4" d="M18.87,54.89h-.74v-.75A.75.75,0,0,1,18.87,54.89Z" transform="translate(4.17 4.58)"/><path class="cls-4" d="M25.56,54.14v.75h-.74A.7.7,0,0,1,25.56,54.14Z" transform="translate(4.17 4.58)"/><path class="cls-4" d="M22.57,51.15a.74.74,0,0,1-.74.74.74.74,0,1,1,0-1.48A.74.74,0,0,1,22.57,51.15Z" transform="translate(4.17 4.58)"/><rect class="cls-4" x="14.87" y="37.17" width="7.43" height="7.43"/><path class="cls-4" d="M11.44,32.58a.81.81,0,0,1-.75.75v-.75Z" transform="translate(4.17 4.58)"/><path class="cls-4" d="M18.13,32.58v.75a.75.75,0,0,1-.75-.75Z" transform="translate(4.17 4.58)"/><path class="cls-4" d="M11.44,40h-.75v-.75A.75.75,0,0,1,11.44,40Z" transform="translate(4.17 4.58)"/><path class="cls-4" d="M18.13,39.27V40h-.75A.71.71,0,0,1,18.13,39.27Z" transform="translate(4.17 4.58)"/><path class="cls-4" d="M15.14,36.28a.76.76,0,0,1-.75.75.75.75,0,0,1-.74-.75.74.74,0,0,1,.74-.74A.75.75,0,0,1,15.14,36.28Z" transform="translate(4.17 4.58)"/><rect class="cls-4" x="14.87" y="44.6" width="7.43" height="7.43"/><path class="cls-4" d="M11.44,40a.81.81,0,0,1-.75.74V40Z" transform="translate(4.17 4.58)"/><path class="cls-4" d="M18.13,40v.74a.75.75,0,0,1-.75-.74Z" transform="translate(4.17 4.58)"/><path class="cls-4" d="M11.44,47.45h-.75v-.74A.75.75,0,0,1,11.44,47.45Z" transform="translate(4.17 4.58)"/><path class="cls-4" d="M18.13,46.71v.74h-.75A.71.71,0,0,1,18.13,46.71Z" transform="translate(4.17 4.58)"/><path class="cls-4" d="M15.14,43.72a.75.75,0,0,1-.75.74.74.74,0,0,1-.74-.74.75.75,0,0,1,.74-.75A.76.76,0,0,1,15.14,43.72Z" transform="translate(4.17 4.58)"/><rect class="cls-4" x="14.87" y="52.04" width="7.43" height="7.43"/><path class="cls-4" d="M11.44,47.45a.81.81,0,0,1-.75.75v-.75Z" transform="translate(4.17 4.58)"/><path class="cls-4" d="M18.13,47.45v.75a.75.75,0,0,1-.75-.75Z" transform="translate(4.17 4.58)"/><path class="cls-4" d="M11.44,54.89h-.75v-.75A.75.75,0,0,1,11.44,54.89Z" transform="translate(4.17 4.58)"/><path class="cls-4" d="M18.13,54.14v.75h-.75A.71.71,0,0,1,18.13,54.14Z" transform="translate(4.17 4.58)"/><path class="cls-4" d="M15.14,51.15a.75.75,0,0,1-.75.74.74.74,0,1,1,0-1.48A.75.75,0,0,1,15.14,51.15Z" transform="translate(4.17 4.58)"/></g><path class="cls-5" d="M22.25,66.24C8.94,66.24,0,57.7,0,45a25,25,0,0,1,.66-5.79C1.4,36,2.56,33.27,6.18,25.77L18.7,0H37.26L24.89,24.46c.38,0,.77,0,1.19,0,10.5,0,18.41,8.76,18.41,20.37C44.49,57.62,35.55,66.24,22.25,66.24Zm-2.16-64L8.18,26.74c-3.53,7.32-4.66,9.91-5.35,13A22.57,22.57,0,0,0,2.24,45c0,11.38,8,19,20,19s20-7.72,20-19.21c0-10.34-7-18.14-16.18-18.14a8.06,8.06,0,0,0-2.85.38l-2.57.86,13-25.67Zm2.16,50.82c-4.56,0-7.63-3.36-7.63-8.34s3.07-8.34,7.63-8.34,7.62,3.43,7.62,8.52C29.87,49.69,26.74,53.05,22.25,53.05Zm0-14.45c-3.33,0-5.39,2.34-5.39,6.11s2.06,6.11,5.39,6.11,5.39-2.38,5.39-5.93C27.64,41,25.58,38.6,22.25,38.6Z" transform="translate(4.17 4.58)"/></g></g></svg>