<svg xmlns="http://www.w3.org/2000/svg" xmlns:xlink="http://www.w3.org/1999/xlink" viewBox="0 0 49.84 71.55"><defs><style>.cls-1{fill:none;}.cls-2{fill:#f3f3f5;}.cls-3{clip-path:url(#clip-path);}.cls-4{fill:#00abc8;}.cls-5{fill:#0075a2;}</style><clipPath id="clip-path" transform="translate(0.53)"><path class="cls-1" d="M41.65,38.3a17.15,17.15,0,0,1,1.77,7.93c0,11.77-8.37,19.43-21.12,19.43-6.51,0-12.22-2.13-16-5.88-4.11-4.1-4.91-8.38-5.17-14H15.79c.18,4.37,2.41,6.69,6.51,6.69s6.5-2.5,6.5-6.6A6.52,6.52,0,0,0,22,39H20V26.35H22a5.67,5.67,0,0,0,6.06-6.07,5.67,5.67,0,0,0-5.79-6c-3.48,0-5.62,2.23-5.8,6H1.88a20.21,20.21,0,0,1,1.43-7.66c3-7.22,10.16-11.5,19-11.5,11.85,0,20.41,7.93,20.41,18.9a14.32,14.32,0,0,1-2.85,9,14.21,14.21,0,0,1-3.75,3.3C39.24,34.64,40.31,35.8,41.65,38.3Z"/></clipPath></defs><g id="Layer_2" data-name="Layer 2"><g id="Section_2" data-name="Section 2"><path class="cls-2" d="M47.53,44.18a17.19,17.19,0,0,1,1.78,7.94c0,11.76-8.38,19.43-21.13,19.43-6.51,0-12.21-2.14-16-5.89-4.1-4.1-4.9-8.38-5.17-14H21.67c.18,4.37,2.41,6.68,6.51,6.68s6.51-2.49,6.51-6.59a6.53,6.53,0,0,0-6.77-6.87H25.86V32.23h2.06A5.66,5.66,0,0,0,34,26.17a5.67,5.67,0,0,0-5.8-6c-3.47,0-5.61,2.23-5.8,6H7.76A20.27,20.27,0,0,1,9.19,18.5c3-7.22,10.17-11.5,19-11.5C40,7,48.6,14.94,48.6,25.9a14.28,14.28,0,0,1-2.86,9A14.31,14.31,0,0,1,42,38.21C45.12,40.53,46.19,41.68,47.53,44.18Z" transform="translate(0.53)"/><g class="cls-3"><rect class="cls-4" x="37.17" y="0.93" width="7.43" height="7.43"/><path class="cls-4" d="M37.38.93a.8.8,0,0,1-.74.74V.93Z" transform="translate(0.53)"/><path class="cls-4" d="M44.07.93v.74a.74.74,0,0,1-.74-.74Z" transform="translate(0.53)"/><path class="cls-4" d="M37.38,8.36h-.74V7.62A.74.74,0,0,1,37.38,8.36Z" transform="translate(0.53)"/><path class="cls-4" d="M44.07,7.62v.74h-.74A.7.7,0,0,1,44.07,7.62Z" transform="translate(0.53)"/><path class="cls-4" d="M41.08,4.62a.74.74,0,1,1-1.48,0,.74.74,0,1,1,1.48,0Z" transform="translate(0.53)"/><rect class="cls-4" x="37.17" y="8.36" width="7.43" height="7.43"/><path class="cls-4" d="M37.38,8.36a.8.8,0,0,1-.74.74V8.36Z" transform="translate(0.53)"/><path class="cls-4" d="M44.07,8.36V9.1a.74.74,0,0,1-.74-.74Z" transform="translate(0.53)"/><path class="cls-4" d="M37.38,15.79h-.74v-.74A.74.74,0,0,1,37.38,15.79Z" transform="translate(0.53)"/><path class="cls-4" d="M44.07,15.05v.74h-.74A.7.7,0,0,1,44.07,15.05Z" transform="translate(0.53)"/><path class="cls-4" d="M41.08,12.06a.74.74,0,1,1-1.48,0,.74.74,0,1,1,1.48,0Z" transform="translate(0.53)"/><rect class="cls-4" x="37.17" y="15.79" width="7.43" height="7.43"/><path class="cls-4" d="M37.38,15.79a.81.81,0,0,1-.74.75v-.75Z" transform="translate(0.53)"/><path class="cls-4" d="M44.07,15.79v.75a.75.75,0,0,1-.74-.75Z" transform="translate(0.53)"/><path class="cls-4" d="M37.38,23.23h-.74v-.75A.75.75,0,0,1,37.38,23.23Z" transform="translate(0.53)"/><path class="cls-4" d="M44.07,22.48v.75h-.74A.71.71,0,0,1,44.07,22.48Z" transform="translate(0.53)"/><path class="cls-4" d="M41.08,19.49a.74.74,0,1,1-.74-.74A.74.74,0,0,1,41.08,19.49Z" transform="translate(0.53)"/><rect class="cls-4" x="37.17" y="23.23" width="7.43" height="7.43"/><path class="cls-4" d="M37.38,23.23a.8.8,0,0,1-.74.74v-.74Z" transform="translate(0.53)"/><path class="cls-4" d="M44.07,23.23V24a.74.74,0,0,1-.74-.74Z" transform="translate(0.53)"/><path class="cls-4" d="M37.38,30.66h-.74v-.74A.74.74,0,0,1,37.38,30.66Z" transform="translate(0.53)"/><path class="cls-4" d="M44.07,29.92v.74h-.74A.7.7,0,0,1,44.07,29.92Z" transform="translate(0.53)"/><path class="cls-4" d="M41.08,26.93a.74.74,0,1,1-.74-.75A.74.74,0,0,1,41.08,26.93Z" transform="translate(0.53)"/><rect class="cls-4" x="37.17" y="30.66" width="7.43" height="7.43"/><path class="cls-4" d="M37.38,30.66a.8.8,0,0,1-.74.74v-.74Z" transform="translate(0.53)"/><path class="cls-4" d="M44.07,30.66v.74a.74.74,0,0,1-.74-.74Z" transform="translate(0.53)"/><path class="cls-4" d="M37.38,38.09h-.74v-.74A.74.74,0,0,1,37.38,38.09Z" transform="translate(0.53)"/><path class="cls-4" d="M44.07,37.35v.74h-.74A.7.7,0,0,1,44.07,37.35Z" transform="translate(0.53)"/><path class="cls-4" d="M41.08,34.36a.74.74,0,1,1-.74-.74A.74.74,0,0,1,41.08,34.36Z" transform="translate(0.53)"/><rect class="cls-4" x="37.17" y="38.09" width="7.43" height="7.43"/><path class="cls-4" d="M37.38,38.09a.8.8,0,0,1-.74.75v-.75Z" transform="translate(0.53)"/><path class="cls-4" d="M44.07,38.09v.75a.75.75,0,0,1-.74-.75Z" transform="translate(0.53)"/><path class="cls-4" d="M37.38,45.53h-.74v-.75A.75.75,0,0,1,37.38,45.53Z" transform="translate(0.53)"/><path class="cls-4" d="M44.07,44.78v.75h-.74A.71.71,0,0,1,44.07,44.78Z" transform="translate(0.53)"/><path class="cls-4" d="M41.08,41.79a.74.74,0,1,1-1.48,0,.74.74,0,0,1,1.48,0Z" transform="translate(0.53)"/><rect class="cls-4" x="37.17" y="45.53" width="7.43" height="7.43"/><path class="cls-4" d="M37.38,45.53a.8.8,0,0,1-.74.74v-.74Z" transform="translate(0.53)"/><path class="cls-4" d="M44.07,45.53v.74a.74.74,0,0,1-.74-.74Z" transform="translate(0.53)"/><path class="cls-4" d="M37.38,53h-.74v-.74A.74.74,0,0,1,37.38,53Z" transform="translate(0.53)"/><path class="cls-4" d="M44.07,52.22V53h-.74A.7.7,0,0,1,44.07,52.22Z" transform="translate(0.53)"/><path class="cls-4" d="M41.08,49.23a.74.74,0,1,1-1.48,0,.74.74,0,1,1,1.48,0Z" transform="translate(0.53)"/><rect class="cls-4" x="37.17" y="52.96" width="7.43" height="7.43"/><path class="cls-4" d="M37.38,53a.8.8,0,0,1-.74.74V53Z" transform="translate(0.53)"/><path class="cls-4" d="M44.07,53v.74a.74.74,0,0,1-.74-.74Z" transform="translate(0.53)"/><path class="cls-4" d="M37.38,60.4h-.74v-.75A.75.75,0,0,1,37.38,60.4Z" transform="translate(0.53)"/><path class="cls-4" d="M44.07,59.65v.75h-.74A.71.71,0,0,1,44.07,59.65Z" transform="translate(0.53)"/><path class="cls-4" d="M41.08,56.66a.74.74,0,1,1-.74-.74A.74.74,0,0,1,41.08,56.66Z" transform="translate(0.53)"/><rect class="cls-4" x="37.17" y="60.4" width="7.43" height="7.43"/><path class="cls-4" d="M37.38,60.4a.8.8,0,0,1-.74.74V60.4Z" transform="translate(0.53)"/><path class="cls-4" d="M44.07,60.4v.74a.74.74,0,0,1-.74-.74Z" transform="translate(0.53)"/><path class="cls-4" d="M37.38,67.83h-.74v-.74A.74.74,0,0,1,37.38,67.83Z" transform="translate(0.53)"/><path class="cls-4" d="M44.07,67.09v.74h-.74A.7.7,0,0,1,44.07,67.09Z" transform="translate(0.53)"/><path class="cls-4" d="M41.08,64.09a.74.74,0,1,1-1.48,0,.74.74,0,0,1,1.48,0Z" transform="translate(0.53)"/><rect class="cls-4" x="29.73" y="0.93" width="7.43" height="7.43"/><path class="cls-4" d="M30,.93a.8.8,0,0,1-.74.74V.93Z" transform="translate(0.53)"/><path class="cls-4" d="M36.64.93v.74A.74.74,0,0,1,35.9.93Z" transform="translate(0.53)"/><path class="cls-4" d="M30,8.36h-.74V7.62A.74.74,0,0,1,30,8.36Z" transform="translate(0.53)"/><path class="cls-4" d="M36.64,7.62v.74H35.9A.69.69,0,0,1,36.64,7.62Z" transform="translate(0.53)"/><path class="cls-4" d="M33.65,4.62a.75.75,0,0,1-.74.75.76.76,0,0,1-.75-.75.75.75,0,0,1,.75-.74A.74.74,0,0,1,33.65,4.62Z" transform="translate(0.53)"/><rect class="cls-4" x="29.73" y="8.36" width="7.43" height="7.43"/><path class="cls-4" d="M30,8.36a.8.8,0,0,1-.74.74V8.36Z" transform="translate(0.53)"/><path class="cls-4" d="M36.64,8.36V9.1a.74.74,0,0,1-.74-.74Z" transform="translate(0.53)"/><path class="cls-4" d="M30,15.79h-.74v-.74A.74.74,0,0,1,30,15.79Z" transform="translate(0.53)"/><path class="cls-4" d="M36.64,15.05v.74H35.9A.7.7,0,0,1,36.64,15.05Z" transform="translate(0.53)"/><path class="cls-4" d="M33.65,12.06a.74.74,0,0,1-.74.74.75.75,0,0,1-.75-.74.76.76,0,0,1,.75-.75A.75.75,0,0,1,33.65,12.06Z" transform="translate(0.53)"/><rect class="cls-4" x="29.73" y="15.79" width="7.43" height="7.43"/><path class="cls-4" d="M30,15.79a.81.81,0,0,1-.74.75v-.75Z" transform="translate(0.53)"/><path class="cls-4" d="M36.64,15.79v.75a.75.75,0,0,1-.74-.75Z" transform="translate(0.53)"/><path class="cls-4" d="M30,23.23h-.74v-.75A.75.75,0,0,1,30,23.23Z" transform="translate(0.53)"/><path class="cls-4" d="M36.64,22.48v.75H35.9A.7.7,0,0,1,36.64,22.48Z" transform="translate(0.53)"/><path class="cls-4" d="M33.65,19.49a.74.74,0,0,1-.74.74.74.74,0,1,1,0-1.48A.74.74,0,0,1,33.65,19.49Z" transform="translate(0.53)"/><rect class="cls-4" x="29.73" y="23.23" width="7.43" height="7.43"/><path class="cls-4" d="M30,23.23a.8.8,0,0,1-.74.74v-.74Z" transform="translate(0.53)"/><path class="cls-4" d="M36.64,23.23V24a.74.74,0,0,1-.74-.74Z" transform="translate(0.53)"/><path class="cls-4" d="M30,30.66h-.74v-.74A.74.74,0,0,1,30,30.66Z" transform="translate(0.53)"/><path class="cls-4" d="M36.64,29.92v.74H35.9A.69.69,0,0,1,36.64,29.92Z" transform="translate(0.53)"/><path class="cls-4" d="M33.65,26.93a.74.74,0,0,1-.74.74.75.75,0,1,1,.74-.74Z" transform="translate(0.53)"/><rect class="cls-4" x="29.73" y="30.66" width="7.43" height="7.43"/><path class="cls-4" d="M30,30.66a.8.8,0,0,1-.74.74v-.74Z" transform="translate(0.53)"/><path class="cls-4" d="M36.64,30.66v.74a.74.74,0,0,1-.74-.74Z" transform="translate(0.53)"/><path class="cls-4" d="M30,38.09h-.74v-.74A.74.74,0,0,1,30,38.09Z" transform="translate(0.53)"/><path class="cls-4" d="M36.64,37.35v.74H35.9A.7.7,0,0,1,36.64,37.35Z" transform="translate(0.53)"/><path class="cls-4" d="M33.65,34.36a.74.74,0,0,1-.74.74.74.74,0,1,1,0-1.48A.74.74,0,0,1,33.65,34.36Z" transform="translate(0.53)"/><rect class="cls-4" x="29.73" y="38.09" width="7.43" height="7.43"/><path class="cls-4" d="M30,38.09a.8.8,0,0,1-.74.75v-.75Z" transform="translate(0.53)"/><path class="cls-4" d="M36.64,38.09v.75a.74.74,0,0,1-.74-.75Z" transform="translate(0.53)"/><path class="cls-4" d="M30,45.53h-.74v-.75A.75.75,0,0,1,30,45.53Z" transform="translate(0.53)"/><path class="cls-4" d="M36.64,44.78v.75H35.9A.7.7,0,0,1,36.64,44.78Z" transform="translate(0.53)"/><path class="cls-4" d="M33.65,41.79a.75.75,0,0,1-.74.75.76.76,0,0,1-.75-.75.75.75,0,0,1,.75-.74A.74.74,0,0,1,33.65,41.79Z" transform="translate(0.53)"/><rect class="cls-4" x="29.73" y="45.53" width="7.43" height="7.43"/><path class="cls-4" d="M30,45.53a.8.8,0,0,1-.74.74v-.74Z" transform="translate(0.53)"/><path class="cls-4" d="M36.64,45.53v.74a.74.74,0,0,1-.74-.74Z" transform="translate(0.53)"/><path class="cls-4" d="M30,53h-.74v-.74A.74.74,0,0,1,30,53Z" transform="translate(0.53)"/><path class="cls-4" d="M36.64,52.22V53H35.9A.7.7,0,0,1,36.64,52.22Z" transform="translate(0.53)"/><path class="cls-4" d="M33.65,49.23a.74.74,0,0,1-.74.74.75.75,0,0,1-.75-.74.76.76,0,0,1,.75-.75A.75.75,0,0,1,33.65,49.23Z" transform="translate(0.53)"/><rect class="cls-4" x="29.73" y="52.96" width="7.43" height="7.43"/><path class="cls-4" d="M30,53a.8.8,0,0,1-.74.74V53Z" transform="translate(0.53)"/><path class="cls-4" d="M36.64,53v.74A.74.74,0,0,1,35.9,53Z" transform="translate(0.53)"/><path class="cls-4" d="M30,60.4h-.74v-.75A.75.75,0,0,1,30,60.4Z" transform="translate(0.53)"/><path class="cls-4" d="M36.64,59.65v.75H35.9A.7.7,0,0,1,36.64,59.65Z" transform="translate(0.53)"/><path class="cls-4" d="M33.65,56.66a.74.74,0,0,1-.74.74.74.74,0,1,1,0-1.48A.74.74,0,0,1,33.65,56.66Z" transform="translate(0.53)"/><rect class="cls-4" x="29.73" y="60.4" width="7.43" height="7.43"/><path class="cls-4" d="M30,60.4a.8.8,0,0,1-.74.74V60.4Z" transform="translate(0.53)"/><path class="cls-4" d="M36.64,60.4v.74a.74.74,0,0,1-.74-.74Z" transform="translate(0.53)"/><path class="cls-4" d="M30,67.83h-.74v-.74A.74.74,0,0,1,30,67.83Z" transform="translate(0.53)"/><path class="cls-4" d="M36.64,67.09v.74H35.9A.69.69,0,0,1,36.64,67.09Z" transform="translate(0.53)"/><path class="cls-4" d="M33.65,64.09a.75.75,0,0,1-.74.75.76.76,0,0,1-.75-.75.75.75,0,0,1,.75-.74A.74.74,0,0,1,33.65,64.09Z" transform="translate(0.53)"/><rect class="cls-4" x="22.3" y="0.93" width="7.43" height="7.43"/><path class="cls-4" d="M22.51.93a.8.8,0,0,1-.74.74V.93Z" transform="translate(0.53)"/><path class="cls-4" d="M29.21.93v.74a.75.75,0,0,1-.75-.74Z" transform="translate(0.53)"/><path class="cls-4" d="M22.51,8.36h-.74V7.62A.74.74,0,0,1,22.51,8.36Z" transform="translate(0.53)"/><path class="cls-4" d="M29.21,7.62v.74h-.75A.7.7,0,0,1,29.21,7.62Z" transform="translate(0.53)"/><path class="cls-4" d="M26.22,4.62a.76.76,0,0,1-.75.75.75.75,0,0,1-.74-.75.74.74,0,0,1,.74-.74A.75.75,0,0,1,26.22,4.62Z" transform="translate(0.53)"/><rect class="cls-4" x="22.3" y="8.36" width="7.43" height="7.43"/><path class="cls-4" d="M22.51,8.36a.8.8,0,0,1-.74.74V8.36Z" transform="translate(0.53)"/><path class="cls-4" d="M29.21,8.36V9.1a.75.75,0,0,1-.75-.74Z" transform="translate(0.53)"/><path class="cls-4" d="M22.51,15.79h-.74v-.74A.74.74,0,0,1,22.51,15.79Z" transform="translate(0.53)"/><path class="cls-4" d="M29.21,15.05v.74h-.75A.71.71,0,0,1,29.21,15.05Z" transform="translate(0.53)"/><path class="cls-4" d="M26.22,12.06a.75.75,0,0,1-.75.74.74.74,0,0,1-.74-.74.75.75,0,0,1,.74-.75A.76.76,0,0,1,26.22,12.06Z" transform="translate(0.53)"/><rect class="cls-4" x="22.3" y="15.79" width="7.43" height="7.43"/><path class="cls-4" d="M22.51,15.79a.81.81,0,0,1-.74.75v-.75Z" transform="translate(0.53)"/><path class="cls-4" d="M29.21,15.79v.75a.75.75,0,0,1-.75-.75Z" transform="translate(0.53)"/><path class="cls-4" d="M22.51,23.23h-.74v-.75A.75.75,0,0,1,22.51,23.23Z" transform="translate(0.53)"/><path class="cls-4" d="M29.21,22.48v.75h-.75A.71.71,0,0,1,29.21,22.48Z" transform="translate(0.53)"/><circle class="cls-4" cx="26" cy="19.49" r="0.74"/><rect class="cls-4" x="22.3" y="23.23" width="7.43" height="7.43"/><path class="cls-4" d="M22.51,23.23a.8.8,0,0,1-.74.74v-.74Z" transform="translate(0.53)"/><path class="cls-4" d="M29.21,23.23V24a.75.75,0,0,1-.75-.74Z" transform="translate(0.53)"/><path class="cls-4" d="M22.51,30.66h-.74v-.74A.74.74,0,0,1,22.51,30.66Z" transform="translate(0.53)"/><path class="cls-4" d="M29.21,29.92v.74h-.75A.7.7,0,0,1,29.21,29.92Z" transform="translate(0.53)"/><path class="cls-4" d="M26.22,26.93a.75.75,0,0,1-.75.74.75.75,0,0,1,0-1.49A.75.75,0,0,1,26.22,26.93Z" transform="translate(0.53)"/><rect class="cls-4" x="22.3" y="30.66" width="7.43" height="7.43"/><path class="cls-4" d="M22.51,30.66a.8.8,0,0,1-.74.74v-.74Z" transform="translate(0.53)"/><path class="cls-4" d="M29.21,30.66v.74a.75.75,0,0,1-.75-.74Z" transform="translate(0.53)"/><path class="cls-4" d="M22.51,38.09h-.74v-.74A.74.74,0,0,1,22.51,38.09Z" transform="translate(0.53)"/><path class="cls-4" d="M29.21,37.35v.74h-.75A.71.71,0,0,1,29.21,37.35Z" transform="translate(0.53)"/><circle class="cls-4" cx="26" cy="34.36" r="0.74"/><rect class="cls-4" x="22.3" y="38.09" width="7.43" height="7.43"/><path class="cls-4" d="M22.51,38.09a.8.8,0,0,1-.74.75v-.75Z" transform="translate(0.53)"/><path class="cls-4" d="M29.21,38.09v.75a.75.75,0,0,1-.75-.75Z" transform="translate(0.53)"/><path class="cls-4" d="M22.51,45.53h-.74v-.75A.75.75,0,0,1,22.51,45.53Z" transform="translate(0.53)"/><path class="cls-4" d="M29.21,44.78v.75h-.75A.71.71,0,0,1,29.21,44.78Z" transform="translate(0.53)"/><path class="cls-4" d="M26.22,41.79a.76.76,0,0,1-.75.75.75.75,0,0,1-.74-.75.74.74,0,0,1,.74-.74A.75.75,0,0,1,26.22,41.79Z" transform="translate(0.53)"/><rect class="cls-4" x="22.3" y="45.53" width="7.43" height="7.43"/><path class="cls-4" d="M22.51,45.53a.8.8,0,0,1-.74.74v-.74Z" transform="translate(0.53)"/><path class="cls-4" d="M29.21,45.53v.74a.75.75,0,0,1-.75-.74Z" transform="translate(0.53)"/><path class="cls-4" d="M22.51,53h-.74v-.74A.74.74,0,0,1,22.51,53Z" transform="translate(0.53)"/><path class="cls-4" d="M29.21,52.22V53h-.75A.71.71,0,0,1,29.21,52.22Z" transform="translate(0.53)"/><circle class="cls-4" cx="26" cy="49.23" r="0.74"/><rect class="cls-4" x="22.3" y="52.96" width="7.43" height="7.43"/><path class="cls-4" d="M22.51,53a.8.8,0,0,1-.74.74V53Z" transform="translate(0.53)"/><path class="cls-4" d="M29.21,53v.74a.75.75,0,0,1-.75-.74Z" transform="translate(0.53)"/><path class="cls-4" d="M22.51,60.4h-.74v-.75A.75.75,0,0,1,22.51,60.4Z" transform="translate(0.53)"/><path class="cls-4" d="M29.21,59.65v.75h-.75A.71.71,0,0,1,29.21,59.65Z" transform="translate(0.53)"/><path class="cls-4" d="M26.22,56.66a.75.75,0,0,1-.75.74.74.74,0,1,1,0-1.48A.75.75,0,0,1,26.22,56.66Z" transform="translate(0.53)"/><rect class="cls-4" x="22.3" y="60.4" width="7.43" height="7.43"/><path class="cls-4" d="M22.51,60.4a.8.8,0,0,1-.74.74V60.4Z" transform="translate(0.53)"/><path class="cls-4" d="M29.21,60.4v.74a.75.75,0,0,1-.75-.74Z" transform="translate(0.53)"/><path class="cls-4" d="M22.51,67.83h-.74v-.74A.74.74,0,0,1,22.51,67.83Z" transform="translate(0.53)"/><path class="cls-4" d="M29.21,67.09v.74h-.75A.7.7,0,0,1,29.21,67.09Z" transform="translate(0.53)"/><path class="cls-4" d="M26.22,64.09a.76.76,0,0,1-.75.75.75.75,0,0,1-.74-.75.74.74,0,0,1,.74-.74A.75.75,0,0,1,26.22,64.09Z" transform="translate(0.53)"/><rect class="cls-4" x="14.87" y="0.93" width="7.43" height="7.43"/><path class="cls-4" d="M15.08.93a.8.8,0,0,1-.74.74V.93Z" transform="translate(0.53)"/><path class="cls-4" d="M21.77.93v.74A.74.74,0,0,1,21,.93Z" transform="translate(0.53)"/><path class="cls-4" d="M15.08,8.36h-.74V7.62A.74.74,0,0,1,15.08,8.36Z" transform="translate(0.53)"/><path class="cls-4" d="M21.77,7.62v.74H21A.7.7,0,0,1,21.77,7.62Z" transform="translate(0.53)"/><path class="cls-4" d="M18.78,4.62a.74.74,0,1,1-1.48,0,.74.74,0,1,1,1.48,0Z" transform="translate(0.53)"/><rect class="cls-4" x="14.87" y="8.36" width="7.43" height="7.43"/><path class="cls-4" d="M15.08,8.36a.8.8,0,0,1-.74.74V8.36Z" transform="translate(0.53)"/><path class="cls-4" d="M21.77,8.36V9.1A.74.74,0,0,1,21,8.36Z" transform="translate(0.53)"/><path class="cls-4" d="M15.08,15.79h-.74v-.74A.74.74,0,0,1,15.08,15.79Z" transform="translate(0.53)"/><path class="cls-4" d="M21.77,15.05v.74H21A.7.7,0,0,1,21.77,15.05Z" transform="translate(0.53)"/><path class="cls-4" d="M18.78,12.06a.74.74,0,1,1-1.48,0,.74.74,0,1,1,1.48,0Z" transform="translate(0.53)"/><rect class="cls-4" x="14.87" y="15.79" width="7.43" height="7.43"/><path class="cls-4" d="M15.08,15.79a.81.81,0,0,1-.74.75v-.75Z" transform="translate(0.53)"/><path class="cls-4" d="M21.77,15.79v.75a.75.75,0,0,1-.74-.75Z" transform="translate(0.53)"/><path class="cls-4" d="M15.08,23.23h-.74v-.75A.75.75,0,0,1,15.08,23.23Z" transform="translate(0.53)"/><path class="cls-4" d="M21.77,22.48v.75H21A.71.71,0,0,1,21.77,22.48Z" transform="translate(0.53)"/><path class="cls-4" d="M18.78,19.49a.74.74,0,1,1-.74-.74A.74.74,0,0,1,18.78,19.49Z" transform="translate(0.53)"/><rect class="cls-4" x="14.87" y="23.23" width="7.43" height="7.43"/><path class="cls-4" d="M15.08,23.23a.8.8,0,0,1-.74.74v-.74Z" transform="translate(0.53)"/><path class="cls-4" d="M21.77,23.23V24a.74.74,0,0,1-.74-.74Z" transform="translate(0.53)"/><path class="cls-4" d="M15.08,30.66h-.74v-.74A.74.74,0,0,1,15.08,30.66Z" transform="translate(0.53)"/><path class="cls-4" d="M21.77,29.92v.74H21A.7.7,0,0,1,21.77,29.92Z" transform="translate(0.53)"/><path class="cls-4" d="M18.78,26.93a.74.74,0,1,1-.74-.75A.74.74,0,0,1,18.78,26.93Z" transform="translate(0.53)"/><rect class="cls-4" x="14.87" y="30.66" width="7.43" height="7.43"/><path class="cls-4" d="M15.08,30.66a.8.8,0,0,1-.74.74v-.74Z" transform="translate(0.53)"/><path class="cls-4" d="M21.77,30.66v.74a.74.74,0,0,1-.74-.74Z" transform="translate(0.53)"/><path class="cls-4" d="M15.08,38.09h-.74v-.74A.74.74,0,0,1,15.08,38.09Z" transform="translate(0.53)"/><path class="cls-4" d="M21.77,37.35v.74H21A.7.7,0,0,1,21.77,37.35Z" transform="translate(0.53)"/><path class="cls-4" d="M18.78,34.36a.74.74,0,1,1-.74-.74A.74.74,0,0,1,18.78,34.36Z" transform="translate(0.53)"/><rect class="cls-4" x="14.87" y="38.09" width="7.43" height="7.43"/><path class="cls-4" d="M15.08,38.09a.8.8,0,0,1-.74.75v-.75Z" transform="translate(0.53)"/><path class="cls-4" d="M21.77,38.09v.75a.75.75,0,0,1-.74-.75Z" transform="translate(0.53)"/><path class="cls-4" d="M15.08,45.53h-.74v-.75A.75.75,0,0,1,15.08,45.53Z" transform="translate(0.53)"/><path class="cls-4" d="M21.77,44.78v.75H21A.71.71,0,0,1,21.77,44.78Z" transform="translate(0.53)"/><path class="cls-4" d="M18.78,41.79a.74.74,0,1,1-1.48,0,.74.74,0,0,1,1.48,0Z" transform="translate(0.53)"/><rect class="cls-4" x="14.87" y="45.53" width="7.43" height="7.43"/><path class="cls-4" d="M15.08,45.53a.8.8,0,0,1-.74.74v-.74Z" transform="translate(0.53)"/><path class="cls-4" d="M21.77,45.53v.74a.74.74,0,0,1-.74-.74Z" transform="translate(0.53)"/><path class="cls-4" d="M15.08,53h-.74v-.74A.74.74,0,0,1,15.08,53Z" transform="translate(0.53)"/><path class="cls-4" d="M21.77,52.22V53H21A.7.7,0,0,1,21.77,52.22Z" transform="translate(0.53)"/><path class="cls-4" d="M18.78,49.23a.74.74,0,0,1-1.48,0,.74.74,0,1,1,1.48,0Z" transform="translate(0.53)"/><rect class="cls-4" x="14.87" y="52.96" width="7.43" height="7.43"/><path class="cls-4" d="M15.08,53a.8.8,0,0,1-.74.74V53Z" transform="translate(0.53)"/><path class="cls-4" d="M21.77,53v.74A.74.74,0,0,1,21,53Z" transform="translate(0.53)"/><path class="cls-4" d="M15.08,60.4h-.74v-.75A.75.75,0,0,1,15.08,60.4Z" transform="translate(0.53)"/><path class="cls-4" d="M21.77,59.65v.75H21A.71.71,0,0,1,21.77,59.65Z" transform="translate(0.53)"/><path class="cls-4" d="M18.78,56.66a.74.74,0,1,1-.74-.74A.74.74,0,0,1,18.78,56.66Z" transform="translate(0.53)"/><rect class="cls-4" x="14.87" y="60.4" width="7.43" height="7.43"/><path class="cls-4" d="M15.08,60.4a.8.8,0,0,1-.74.74V60.4Z" transform="translate(0.53)"/><path class="cls-4" d="M21.77,60.4v.74A.74.74,0,0,1,21,60.4Z" transform="translate(0.53)"/><path class="cls-4" d="M15.08,67.83h-.74v-.74A.74.74,0,0,1,15.08,67.83Z" transform="translate(0.53)"/><path class="cls-4" d="M21.77,67.09v.74H21A.7.7,0,0,1,21.77,67.09Z" transform="translate(0.53)"/><path class="cls-4" d="M18.78,64.09a.74.74,0,1,1-1.48,0,.74.74,0,1,1,1.48,0Z" transform="translate(0.53)"/><rect class="cls-4" x="7.43" y="0.93" width="7.43" height="7.43"/><path class="cls-4" d="M7.65.93a.8.8,0,0,1-.75.74V.93Z" transform="translate(0.53)"/><path class="cls-4" d="M14.34.93v.74a.75.75,0,0,1-.75-.74Z" transform="translate(0.53)"/><path class="cls-4" d="M7.65,8.36H6.9V7.62A.74.74,0,0,1,7.65,8.36Z" transform="translate(0.53)"/><path class="cls-4" d="M14.34,7.62v.74h-.75A.7.7,0,0,1,14.34,7.62Z" transform="translate(0.53)"/><path class="cls-4" d="M11.35,4.62a.75.75,0,1,1-1.49,0,.75.75,0,0,1,1.49,0Z" transform="translate(0.53)"/><rect class="cls-4" x="7.43" y="8.36" width="7.43" height="7.43"/><path class="cls-4" d="M7.65,8.36a.8.8,0,0,1-.75.74V8.36Z" transform="translate(0.53)"/><path class="cls-4" d="M14.34,8.36V9.1a.75.75,0,0,1-.75-.74Z" transform="translate(0.53)"/><path class="cls-4" d="M7.65,15.79H6.9v-.74A.75.75,0,0,1,7.65,15.79Z" transform="translate(0.53)"/><path class="cls-4" d="M14.34,15.05v.74h-.75A.71.71,0,0,1,14.34,15.05Z" transform="translate(0.53)"/><path class="cls-4" d="M11.35,12.06a.75.75,0,1,1-.75-.75A.75.75,0,0,1,11.35,12.06Z" transform="translate(0.53)"/><rect class="cls-4" x="7.43" y="15.79" width="7.43" height="7.43"/><path class="cls-4" d="M7.65,15.79a.81.81,0,0,1-.75.75v-.75Z" transform="translate(0.53)"/><path class="cls-4" d="M14.34,15.79v.75a.75.75,0,0,1-.75-.75Z" transform="translate(0.53)"/><path class="cls-4" d="M7.65,23.23H6.9v-.75A.75.75,0,0,1,7.65,23.23Z" transform="translate(0.53)"/><path class="cls-4" d="M14.34,22.48v.75h-.75A.71.71,0,0,1,14.34,22.48Z" transform="translate(0.53)"/><circle class="cls-4" cx="11.13" cy="19.49" r="0.74"/><rect class="cls-4" x="7.43" y="23.23" width="7.43" height="7.43"/><path class="cls-4" d="M7.65,23.23A.8.8,0,0,1,6.9,24v-.74Z" transform="translate(0.53)"/><path class="cls-4" d="M14.34,23.23V24a.75.75,0,0,1-.75-.74Z" transform="translate(0.53)"/><path class="cls-4" d="M7.65,30.66H6.9v-.74A.74.74,0,0,1,7.65,30.66Z" transform="translate(0.53)"/><path class="cls-4" d="M14.34,29.92v.74h-.75A.7.7,0,0,1,14.34,29.92Z" transform="translate(0.53)"/><path class="cls-4" d="M11.35,26.93a.75.75,0,1,1-.75-.75A.74.74,0,0,1,11.35,26.93Z" transform="translate(0.53)"/><rect class="cls-4" x="7.43" y="30.66" width="7.43" height="7.43"/><path class="cls-4" d="M7.65,30.66a.8.8,0,0,1-.75.74v-.74Z" transform="translate(0.53)"/><path class="cls-4" d="M14.34,30.66v.74a.75.75,0,0,1-.75-.74Z" transform="translate(0.53)"/><path class="cls-4" d="M7.65,38.09H6.9v-.74A.75.75,0,0,1,7.65,38.09Z" transform="translate(0.53)"/><path class="cls-4" d="M14.34,37.35v.74h-.75A.71.71,0,0,1,14.34,37.35Z" transform="translate(0.53)"/><circle class="cls-4" cx="11.13" cy="34.36" r="0.74"/><rect class="cls-4" x="7.43" y="38.09" width="7.43" height="7.43"/><path class="cls-4" d="M7.65,38.09a.8.8,0,0,1-.75.75v-.75Z" transform="translate(0.53)"/><path class="cls-4" d="M14.34,38.09v.75a.75.75,0,0,1-.75-.75Z" transform="translate(0.53)"/><path class="cls-4" d="M7.65,45.53H6.9v-.75A.75.75,0,0,1,7.65,45.53Z" transform="translate(0.53)"/><path class="cls-4" d="M14.34,44.78v.75h-.75A.71.71,0,0,1,14.34,44.78Z" transform="translate(0.53)"/><path class="cls-4" d="M11.35,41.79a.75.75,0,1,1-1.49,0,.75.75,0,0,1,1.49,0Z" transform="translate(0.53)"/><rect class="cls-4" x="7.43" y="45.53" width="7.43" height="7.43"/><path class="cls-4" d="M7.65,45.53a.8.8,0,0,1-.75.74v-.74Z" transform="translate(0.53)"/><path class="cls-4" d="M14.34,45.53v.74a.75.75,0,0,1-.75-.74Z" transform="translate(0.53)"/><path class="cls-4" d="M7.65,53H6.9v-.74A.75.75,0,0,1,7.65,53Z" transform="translate(0.53)"/><path class="cls-4" d="M14.34,52.22V53h-.75A.71.71,0,0,1,14.34,52.22Z" transform="translate(0.53)"/><circle class="cls-4" cx="11.13" cy="49.23" r="0.74"/><rect class="cls-4" x="7.43" y="52.96" width="7.43" height="7.43"/><path class="cls-4" d="M7.65,53a.8.8,0,0,1-.75.74V53Z" transform="translate(0.53)"/><path class="cls-4" d="M14.34,53v.74a.75.75,0,0,1-.75-.74Z" transform="translate(0.53)"/><path class="cls-4" d="M7.65,60.4H6.9v-.75A.75.75,0,0,1,7.65,60.4Z" transform="translate(0.53)"/><path class="cls-4" d="M14.34,59.65v.75h-.75A.71.71,0,0,1,14.34,59.65Z" transform="translate(0.53)"/><path class="cls-4" d="M11.35,56.66a.75.75,0,1,1-.75-.74A.74.74,0,0,1,11.35,56.66Z" transform="translate(0.53)"/><rect class="cls-4" x="7.43" y="60.4" width="7.43" height="7.43"/><path class="cls-4" d="M7.65,60.4a.8.8,0,0,1-.75.74V60.4Z" transform="translate(0.53)"/><path class="cls-4" d="M14.34,60.4v.74a.75.75,0,0,1-.75-.74Z" transform="translate(0.53)"/><path class="cls-4" d="M7.65,67.83H6.9v-.74A.74.74,0,0,1,7.65,67.83Z" transform="translate(0.53)"/><path class="cls-4" d="M14.34,67.09v.74h-.75A.7.7,0,0,1,14.34,67.09Z" transform="translate(0.53)"/><path class="cls-4" d="M11.35,64.09a.75.75,0,1,1-1.49,0,.75.75,0,0,1,1.49,0Z" transform="translate(0.53)"/><rect class="cls-4" y="0.93" width="7.43" height="7.43"/><path class="cls-4" d="M.21.93a.8.8,0,0,1-.74.74V.93Z" transform="translate(0.53)"/><path class="cls-4" d="M6.9.93v.74A.74.74,0,0,1,6.16.93Z" transform="translate(0.53)"/><path class="cls-4" d="M.21,8.36H-.53V7.62A.74.74,0,0,1,.21,8.36Z" transform="translate(0.53)"/><path class="cls-4" d="M6.9,7.62v.74H6.16A.7.7,0,0,1,6.9,7.62Z" transform="translate(0.53)"/><path class="cls-4" d="M3.91,4.62a.74.74,0,1,1-1.48,0,.74.74,0,0,1,1.48,0Z" transform="translate(0.53)"/><rect class="cls-4" y="8.36" width="7.43" height="7.43"/><path class="cls-4" d="M.21,8.36a.8.8,0,0,1-.74.74V8.36Z" transform="translate(0.53)"/><path class="cls-4" d="M6.9,8.36V9.1a.74.74,0,0,1-.74-.74Z" transform="translate(0.53)"/><path class="cls-4" d="M.21,15.79H-.53v-.74A.74.74,0,0,1,.21,15.79Z" transform="translate(0.53)"/><path class="cls-4" d="M6.9,15.05v.74H6.16A.7.7,0,0,1,6.9,15.05Z" transform="translate(0.53)"/><path class="cls-4" d="M3.91,12.06a.74.74,0,0,1-1.48,0,.74.74,0,1,1,1.48,0Z" transform="translate(0.53)"/><rect class="cls-4" y="15.79" width="7.43" height="7.43"/><path class="cls-4" d="M.21,15.79a.81.81,0,0,1-.74.75v-.75Z" transform="translate(0.53)"/><path class="cls-4" d="M6.9,15.79v.75a.75.75,0,0,1-.74-.75Z" transform="translate(0.53)"/><path class="cls-4" d="M.21,23.23H-.53v-.75A.75.75,0,0,1,.21,23.23Z" transform="translate(0.53)"/><path class="cls-4" d="M6.9,22.48v.75H6.16A.71.71,0,0,1,6.9,22.48Z" transform="translate(0.53)"/><path class="cls-4" d="M3.91,19.49a.74.74,0,1,1-.74-.74A.74.74,0,0,1,3.91,19.49Z" transform="translate(0.53)"/><rect class="cls-4" y="23.23" width="7.43" height="7.43"/><path class="cls-4" d="M.21,23.23A.8.8,0,0,1-.53,24v-.74Z" transform="translate(0.53)"/><path class="cls-4" d="M6.9,23.23V24a.74.74,0,0,1-.74-.74Z" transform="translate(0.53)"/><path class="cls-4" d="M.21,30.66H-.53v-.74A.74.74,0,0,1,.21,30.66Z" transform="translate(0.53)"/><path class="cls-4" d="M6.9,29.92v.74H6.16A.7.7,0,0,1,6.9,29.92Z" transform="translate(0.53)"/><path class="cls-4" d="M3.91,26.93a.74.74,0,1,1-.74-.75A.74.74,0,0,1,3.91,26.93Z" transform="translate(0.53)"/><rect class="cls-4" y="30.66" width="7.43" height="7.43"/><path class="cls-4" d="M.21,30.66a.8.8,0,0,1-.74.74v-.74Z" transform="translate(0.53)"/><path class="cls-4" d="M6.9,30.66v.74a.74.74,0,0,1-.74-.74Z" transform="translate(0.53)"/><path class="cls-4" d="M.21,38.09H-.53v-.74A.74.74,0,0,1,.21,38.09Z" transform="translate(0.53)"/><path class="cls-4" d="M6.9,37.35v.74H6.16A.7.7,0,0,1,6.9,37.35Z" transform="translate(0.53)"/><path class="cls-4" d="M3.91,34.36a.74.74,0,1,1-.74-.74A.74.74,0,0,1,3.91,34.36Z" transform="translate(0.53)"/><rect class="cls-4" y="38.09" width="7.43" height="7.43"/><path class="cls-4" d="M.21,38.09a.8.8,0,0,1-.74.75v-.75Z" transform="translate(0.53)"/><path class="cls-4" d="M6.9,38.09v.75a.75.75,0,0,1-.74-.75Z" transform="translate(0.53)"/><path class="cls-4" d="M.21,45.53H-.53v-.75A.75.75,0,0,1,.21,45.53Z" transform="translate(0.53)"/><path class="cls-4" d="M6.9,44.78v.75H6.16A.71.71,0,0,1,6.9,44.78Z" transform="translate(0.53)"/><path class="cls-4" d="M3.91,41.79a.74.74,0,1,1-1.48,0,.74.74,0,0,1,1.48,0Z" transform="translate(0.53)"/><rect class="cls-4" y="45.53" width="7.43" height="7.43"/><path class="cls-4" d="M.21,45.53a.8.8,0,0,1-.74.74v-.74Z" transform="translate(0.53)"/><path class="cls-4" d="M6.9,45.53v.74a.74.74,0,0,1-.74-.74Z" transform="translate(0.53)"/><path class="cls-4" d="M.21,53H-.53v-.74A.74.74,0,0,1,.21,53Z" transform="translate(0.53)"/><path class="cls-4" d="M6.9,52.22V53H6.16A.7.7,0,0,1,6.9,52.22Z" transform="translate(0.53)"/><path class="cls-4" d="M3.91,49.23a.74.74,0,0,1-1.48,0,.74.74,0,1,1,1.48,0Z" transform="translate(0.53)"/><rect class="cls-4" y="52.96" width="7.43" height="7.43"/><path class="cls-4" d="M.21,53a.8.8,0,0,1-.74.74V53Z" transform="translate(0.53)"/><path class="cls-4" d="M6.9,53v.74A.74.74,0,0,1,6.16,53Z" transform="translate(0.53)"/><path class="cls-4" d="M.21,60.4H-.53v-.75A.75.75,0,0,1,.21,60.4Z" transform="translate(0.53)"/><path class="cls-4" d="M6.9,59.65v.75H6.16A.71.71,0,0,1,6.9,59.65Z" transform="translate(0.53)"/><path class="cls-4" d="M3.91,56.66a.74.74,0,1,1-.74-.74A.74.74,0,0,1,3.91,56.66Z" transform="translate(0.53)"/><rect class="cls-4" y="60.4" width="7.43" height="7.43"/><path class="cls-4" d="M.21,60.4a.8.8,0,0,1-.74.74V60.4Z" transform="translate(0.53)"/><path class="cls-4" d="M6.9,60.4v.74a.74.74,0,0,1-.74-.74Z" transform="translate(0.53)"/><path class="cls-4" d="M.21,67.83H-.53v-.74A.74.74,0,0,1,.21,67.83Z" transform="translate(0.53)"/><path class="cls-4" d="M6.9,67.09v.74H6.16A.7.7,0,0,1,6.9,67.09Z" transform="translate(0.53)"/><path class="cls-4" d="M3.91,64.09a.74.74,0,1,1-1.48,0,.74.74,0,0,1,1.48,0Z" transform="translate(0.53)"/></g><path class="cls-5" d="M22.3,66.78c-6.79,0-12.75-2.21-16.75-6.21C1.34,56.36.35,52,.06,45.84L0,44.67H16.86l0,1.06c.16,3.79,1.92,5.62,5.4,5.62s5.39-2,5.39-5.48A5.4,5.4,0,0,0,22,40.12H18.86V25.23H22A4.55,4.55,0,0,0,27,20.28a4.57,4.57,0,0,0-4.68-4.86c-2.87,0-4.53,1.75-4.69,4.92l-.05,1.06H.71l.06-1.17a21.38,21.38,0,0,1,1.5-8C5.48,4.56,13,0,22.3,0,34.77,0,43.83,8.42,43.83,20a15.4,15.4,0,0,1-3.09,9.7A12.9,12.9,0,0,1,38,32.35a15,15,0,0,1,4.64,5.42h0a18.23,18.23,0,0,1,1.9,8.45C44.54,58.52,35.6,66.78,22.3,66.78ZM2.35,46.9C2.69,52,3.67,55.53,7.13,59s9,5.56,15.17,5.56c12.15,0,20-7.19,20-18.32a16,16,0,0,0-1.65-7.42c-1.25-2.33-2.22-3.38-5.21-5.59l-1.24-.93,1.27-.89A13,13,0,0,0,39,28.33,13.17,13.17,0,0,0,41.6,20c0-10.3-8.12-17.78-19.3-17.78-8.41,0-15.12,4-18,10.82a17.2,17.2,0,0,0-1.28,6.12H15.49a6.54,6.54,0,0,1,6.81-6,6.77,6.77,0,0,1,6.91,7.09A6.8,6.8,0,0,1,22,27.46H21.1V37.89H22a7.67,7.67,0,0,1,7.89,8c0,4.69-3,7.71-7.62,7.71-4.36,0-7-2.36-7.54-6.68Z" transform="translate(0.53)"/></g></g></svg>