<svg xmlns="http://www.w3.org/2000/svg" xmlns:xlink="http://www.w3.org/1999/xlink" viewBox="0 0 50.11 74.34"><defs><style>.cls-1{fill:none;}.cls-2{fill:#f3f3f5;}.cls-3{clip-path:url(#clip-path);}.cls-4{fill:#00abc8;}.cls-5{fill:#0075a2;}</style><clipPath id="clip-path" transform="translate(2.23 3.16)"><path class="cls-1" d="M1.17,65.13V51.93l23-25c2.41-2.68,3.21-4.28,3.21-6.69,0-3.74-2.13-6-5.7-6-3.84,0-5.71,2-5.88,6.15H1.17c.17-3.92.44-5.53,1.42-7.84,3-7.23,10.16-11.51,19.17-11.51C33.8,1.11,42,8.78,42,20.19c0,5.89-1.6,9.1-7.84,15.7L19,51.93H42v13.2Z"/></clipPath></defs><g id="Layer_2" data-name="Layer 2"><g id="Section_2" data-name="Section 2"><path class="cls-2" d="M7.05,71V57.82l23-25c2.41-2.67,3.21-4.28,3.21-6.68,0-3.75-2.14-6-5.71-6-3.83,0-5.7,2-5.88,6.16H7.05c.18-3.93.44-5.53,1.42-7.85C11.51,11.28,18.64,7,27.65,7c12,0,20.23,7.66,20.23,19.08,0,5.88-1.61,9.09-7.84,15.69l-15.16,16h23V71Z" transform="translate(2.23 3.16)"/><g class="cls-3"><rect class="cls-4" x="37.17" width="7.43" height="7.43"/><path class="cls-4" d="M35.68-3.16a.8.8,0,0,1-.74.74v-.74Z" transform="translate(2.23 3.16)"/><path class="cls-4" d="M42.37-3.16v.74a.74.74,0,0,1-.74-.74Z" transform="translate(2.23 3.16)"/><path class="cls-4" d="M35.68,4.27h-.74V3.53A.74.74,0,0,1,35.68,4.27Z" transform="translate(2.23 3.16)"/><path class="cls-4" d="M42.37,3.53v.74h-.74A.7.7,0,0,1,42.37,3.53Z" transform="translate(2.23 3.16)"/><path class="cls-4" d="M39.38.54a.74.74,0,0,1-1.48,0,.74.74,0,1,1,1.48,0Z" transform="translate(2.23 3.16)"/><rect class="cls-4" x="37.17" y="7.43" width="7.43" height="7.43"/><path class="cls-4" d="M35.68,4.27a.81.81,0,0,1-.74.75V4.27Z" transform="translate(2.23 3.16)"/><path class="cls-4" d="M42.37,4.27V5a.75.75,0,0,1-.74-.75Z" transform="translate(2.23 3.16)"/><path class="cls-4" d="M35.68,11.71h-.74V11A.75.75,0,0,1,35.68,11.71Z" transform="translate(2.23 3.16)"/><path class="cls-4" d="M42.37,11v.75h-.74A.71.71,0,0,1,42.37,11Z" transform="translate(2.23 3.16)"/><path class="cls-4" d="M39.38,8a.74.74,0,1,1-.74-.74A.74.74,0,0,1,39.38,8Z" transform="translate(2.23 3.16)"/><rect class="cls-4" x="37.17" y="14.87" width="7.43" height="7.43"/><path class="cls-4" d="M35.68,11.71a.8.8,0,0,1-.74.74v-.74Z" transform="translate(2.23 3.16)"/><path class="cls-4" d="M42.37,11.71v.74a.74.74,0,0,1-.74-.74Z" transform="translate(2.23 3.16)"/><path class="cls-4" d="M35.68,19.14h-.74V18.4A.74.74,0,0,1,35.68,19.14Z" transform="translate(2.23 3.16)"/><path class="cls-4" d="M42.37,18.4v.74h-.74A.7.7,0,0,1,42.37,18.4Z" transform="translate(2.23 3.16)"/><path class="cls-4" d="M39.38,15.4a.74.74,0,1,1-1.48,0,.74.74,0,0,1,1.48,0Z" transform="translate(2.23 3.16)"/><rect class="cls-4" x="37.17" y="22.3" width="7.43" height="7.43"/><path class="cls-4" d="M35.68,19.14a.8.8,0,0,1-.74.74v-.74Z" transform="translate(2.23 3.16)"/><path class="cls-4" d="M42.37,19.14v.74a.74.74,0,0,1-.74-.74Z" transform="translate(2.23 3.16)"/><path class="cls-4" d="M35.68,26.57h-.74v-.74A.74.74,0,0,1,35.68,26.57Z" transform="translate(2.23 3.16)"/><path class="cls-4" d="M42.37,25.83v.74h-.74A.7.7,0,0,1,42.37,25.83Z" transform="translate(2.23 3.16)"/><path class="cls-4" d="M39.38,22.84a.74.74,0,0,1-1.48,0,.74.74,0,1,1,1.48,0Z" transform="translate(2.23 3.16)"/><rect class="cls-4" x="37.17" y="29.74" width="7.43" height="7.43"/><path class="cls-4" d="M35.68,26.57a.8.8,0,0,1-.74.75v-.75Z" transform="translate(2.23 3.16)"/><path class="cls-4" d="M42.37,26.57v.75a.75.75,0,0,1-.74-.75Z" transform="translate(2.23 3.16)"/><path class="cls-4" d="M35.68,34h-.74v-.75A.75.75,0,0,1,35.68,34Z" transform="translate(2.23 3.16)"/><path class="cls-4" d="M42.37,33.26V34h-.74A.71.71,0,0,1,42.37,33.26Z" transform="translate(2.23 3.16)"/><path class="cls-4" d="M39.38,30.27a.74.74,0,1,1-1.48,0,.74.74,0,0,1,1.48,0Z" transform="translate(2.23 3.16)"/><rect class="cls-4" x="37.17" y="37.17" width="7.43" height="7.43"/><path class="cls-4" d="M35.68,34a.8.8,0,0,1-.74.74V34Z" transform="translate(2.23 3.16)"/><path class="cls-4" d="M42.37,34v.74a.74.74,0,0,1-.74-.74Z" transform="translate(2.23 3.16)"/><path class="cls-4" d="M35.68,41.44h-.74V40.7A.74.74,0,0,1,35.68,41.44Z" transform="translate(2.23 3.16)"/><path class="cls-4" d="M42.37,40.7v.74h-.74A.7.7,0,0,1,42.37,40.7Z" transform="translate(2.23 3.16)"/><path class="cls-4" d="M39.38,37.71a.74.74,0,1,1-.74-.75A.74.74,0,0,1,39.38,37.71Z" transform="translate(2.23 3.16)"/><rect class="cls-4" x="37.17" y="44.6" width="7.43" height="7.43"/><path class="cls-4" d="M35.68,41.44a.8.8,0,0,1-.74.74v-.74Z" transform="translate(2.23 3.16)"/><path class="cls-4" d="M42.37,41.44v.74a.74.74,0,0,1-.74-.74Z" transform="translate(2.23 3.16)"/><path class="cls-4" d="M35.68,48.87h-.74v-.74A.74.74,0,0,1,35.68,48.87Z" transform="translate(2.23 3.16)"/><path class="cls-4" d="M42.37,48.13v.74h-.74A.7.7,0,0,1,42.37,48.13Z" transform="translate(2.23 3.16)"/><path class="cls-4" d="M39.38,45.14a.74.74,0,1,1-.74-.74A.74.74,0,0,1,39.38,45.14Z" transform="translate(2.23 3.16)"/><rect class="cls-4" x="37.17" y="52.04" width="7.43" height="7.43"/><path class="cls-4" d="M35.68,48.87a.8.8,0,0,1-.74.75v-.75Z" transform="translate(2.23 3.16)"/><path class="cls-4" d="M42.37,48.87v.75a.75.75,0,0,1-.74-.75Z" transform="translate(2.23 3.16)"/><path class="cls-4" d="M35.68,56.31h-.74v-.75A.75.75,0,0,1,35.68,56.31Z" transform="translate(2.23 3.16)"/><path class="cls-4" d="M42.37,55.56v.75h-.74A.71.71,0,0,1,42.37,55.56Z" transform="translate(2.23 3.16)"/><path class="cls-4" d="M39.38,52.57a.74.74,0,1,1-1.48,0,.74.74,0,0,1,1.48,0Z" transform="translate(2.23 3.16)"/><rect class="cls-4" x="37.17" y="59.47" width="7.43" height="7.43"/><path class="cls-4" d="M35.68,56.31a.8.8,0,0,1-.74.74v-.74Z" transform="translate(2.23 3.16)"/><path class="cls-4" d="M42.37,56.31v.74a.74.74,0,0,1-.74-.74Z" transform="translate(2.23 3.16)"/><path class="cls-4" d="M35.68,63.74h-.74V63A.74.74,0,0,1,35.68,63.74Z" transform="translate(2.23 3.16)"/><path class="cls-4" d="M42.37,63v.74h-.74A.7.7,0,0,1,42.37,63Z" transform="translate(2.23 3.16)"/><path class="cls-4" d="M39.38,60a.74.74,0,0,1-1.48,0,.74.74,0,1,1,1.48,0Z" transform="translate(2.23 3.16)"/><rect class="cls-4" x="37.17" y="66.9" width="7.43" height="7.43"/><path class="cls-4" d="M35.68,63.74a.81.81,0,0,1-.74.75v-.75Z" transform="translate(2.23 3.16)"/><path class="cls-4" d="M42.37,63.74v.75a.75.75,0,0,1-.74-.75Z" transform="translate(2.23 3.16)"/><path class="cls-4" d="M35.68,71.18h-.74v-.75A.75.75,0,0,1,35.68,71.18Z" transform="translate(2.23 3.16)"/><path class="cls-4" d="M42.37,70.43v.75h-.74A.71.71,0,0,1,42.37,70.43Z" transform="translate(2.23 3.16)"/><path class="cls-4" d="M39.38,67.44a.74.74,0,1,1-.74-.74A.74.74,0,0,1,39.38,67.44Z" transform="translate(2.23 3.16)"/><rect class="cls-4" x="29.73" width="7.43" height="7.43"/><path class="cls-4" d="M28.25-3.16a.8.8,0,0,1-.74.74v-.74Z" transform="translate(2.23 3.16)"/><path class="cls-4" d="M34.94-3.16v.74a.74.74,0,0,1-.74-.74Z" transform="translate(2.23 3.16)"/><path class="cls-4" d="M28.25,4.27h-.74V3.53A.74.74,0,0,1,28.25,4.27Z" transform="translate(2.23 3.16)"/><path class="cls-4" d="M34.94,3.53v.74H34.2A.7.7,0,0,1,34.94,3.53Z" transform="translate(2.23 3.16)"/><path class="cls-4" d="M32,.54a.74.74,0,0,1-.74.74.75.75,0,0,1-.75-.74.76.76,0,0,1,.75-.75A.75.75,0,0,1,32,.54Z" transform="translate(2.23 3.16)"/><rect class="cls-4" x="29.73" y="7.43" width="7.43" height="7.43"/><path class="cls-4" d="M28.25,4.27a.81.81,0,0,1-.74.75V4.27Z" transform="translate(2.23 3.16)"/><path class="cls-4" d="M34.94,4.27V5a.75.75,0,0,1-.74-.75Z" transform="translate(2.23 3.16)"/><path class="cls-4" d="M28.25,11.71h-.74V11A.75.75,0,0,1,28.25,11.71Z" transform="translate(2.23 3.16)"/><path class="cls-4" d="M34.94,11v.75H34.2A.7.7,0,0,1,34.94,11Z" transform="translate(2.23 3.16)"/><path class="cls-4" d="M32,8a.74.74,0,0,1-.74.74.74.74,0,1,1,0-1.48A.74.74,0,0,1,32,8Z" transform="translate(2.23 3.16)"/><rect class="cls-4" x="29.73" y="14.87" width="7.43" height="7.43"/><path class="cls-4" d="M28.25,11.71a.8.8,0,0,1-.74.74v-.74Z" transform="translate(2.23 3.16)"/><path class="cls-4" d="M34.94,11.71v.74a.74.74,0,0,1-.74-.74Z" transform="translate(2.23 3.16)"/><path class="cls-4" d="M28.25,19.14h-.74V18.4A.74.74,0,0,1,28.25,19.14Z" transform="translate(2.23 3.16)"/><path class="cls-4" d="M34.94,18.4v.74H34.2A.69.69,0,0,1,34.94,18.4Z" transform="translate(2.23 3.16)"/><path class="cls-4" d="M32,15.4a.75.75,0,0,1-.74.75.76.76,0,0,1-.75-.75.75.75,0,0,1,.75-.74A.74.74,0,0,1,32,15.4Z" transform="translate(2.23 3.16)"/><rect class="cls-4" x="29.73" y="22.3" width="7.43" height="7.43"/><path class="cls-4" d="M28.25,19.14a.8.8,0,0,1-.74.74v-.74Z" transform="translate(2.23 3.16)"/><path class="cls-4" d="M34.94,19.14v.74a.74.74,0,0,1-.74-.74Z" transform="translate(2.23 3.16)"/><path class="cls-4" d="M28.25,26.57h-.74v-.74A.74.74,0,0,1,28.25,26.57Z" transform="translate(2.23 3.16)"/><path class="cls-4" d="M34.94,25.83v.74H34.2A.7.7,0,0,1,34.94,25.83Z" transform="translate(2.23 3.16)"/><path class="cls-4" d="M32,22.84a.74.74,0,0,1-.74.74.75.75,0,0,1-.75-.74.76.76,0,0,1,.75-.75A.75.75,0,0,1,32,22.84Z" transform="translate(2.23 3.16)"/><rect class="cls-4" x="29.73" y="29.74" width="7.43" height="7.43"/><path class="cls-4" d="M28.25,26.57a.8.8,0,0,1-.74.75v-.75Z" transform="translate(2.23 3.16)"/><path class="cls-4" d="M34.94,26.57v.75a.74.74,0,0,1-.74-.75Z" transform="translate(2.23 3.16)"/><path class="cls-4" d="M28.25,34h-.74v-.75A.75.75,0,0,1,28.25,34Z" transform="translate(2.23 3.16)"/><path class="cls-4" d="M34.94,33.26V34H34.2A.7.7,0,0,1,34.94,33.26Z" transform="translate(2.23 3.16)"/><path class="cls-4" d="M32,30.27a.75.75,0,0,1-.74.75.76.76,0,0,1-.75-.75.75.75,0,0,1,.75-.74A.74.74,0,0,1,32,30.27Z" transform="translate(2.23 3.16)"/><rect class="cls-4" x="29.73" y="37.17" width="7.43" height="7.43"/><path class="cls-4" d="M28.25,34a.8.8,0,0,1-.74.74V34Z" transform="translate(2.23 3.16)"/><path class="cls-4" d="M34.94,34v.74A.74.74,0,0,1,34.2,34Z" transform="translate(2.23 3.16)"/><path class="cls-4" d="M28.25,41.44h-.74V40.7A.74.74,0,0,1,28.25,41.44Z" transform="translate(2.23 3.16)"/><path class="cls-4" d="M34.94,40.7v.74H34.2A.69.69,0,0,1,34.94,40.7Z" transform="translate(2.23 3.16)"/><path class="cls-4" d="M32,37.71a.74.74,0,0,1-.74.74.75.75,0,1,1,.74-.74Z" transform="translate(2.23 3.16)"/><rect class="cls-4" x="29.73" y="44.6" width="7.43" height="7.43"/><path class="cls-4" d="M28.25,41.44a.8.8,0,0,1-.74.74v-.74Z" transform="translate(2.23 3.16)"/><path class="cls-4" d="M34.94,41.44v.74a.74.74,0,0,1-.74-.74Z" transform="translate(2.23 3.16)"/><path class="cls-4" d="M28.25,48.87h-.74v-.74A.74.74,0,0,1,28.25,48.87Z" transform="translate(2.23 3.16)"/><path class="cls-4" d="M34.94,48.13v.74H34.2A.7.7,0,0,1,34.94,48.13Z" transform="translate(2.23 3.16)"/><path class="cls-4" d="M32,45.14a.74.74,0,0,1-.74.74.74.74,0,1,1,0-1.48A.74.74,0,0,1,32,45.14Z" transform="translate(2.23 3.16)"/><rect class="cls-4" x="29.73" y="52.04" width="7.43" height="7.43"/><path class="cls-4" d="M28.25,48.87a.8.8,0,0,1-.74.75v-.75Z" transform="translate(2.23 3.16)"/><path class="cls-4" d="M34.94,48.87v.75a.74.74,0,0,1-.74-.75Z" transform="translate(2.23 3.16)"/><path class="cls-4" d="M28.25,56.31h-.74v-.75A.75.75,0,0,1,28.25,56.31Z" transform="translate(2.23 3.16)"/><path class="cls-4" d="M34.94,55.56v.75H34.2A.7.7,0,0,1,34.94,55.56Z" transform="translate(2.23 3.16)"/><path class="cls-4" d="M32,52.57a.75.75,0,0,1-.74.75.76.76,0,0,1-.75-.75.75.75,0,0,1,.75-.74A.74.74,0,0,1,32,52.57Z" transform="translate(2.23 3.16)"/><rect class="cls-4" x="29.73" y="59.47" width="7.43" height="7.43"/><path class="cls-4" d="M28.25,56.31a.8.8,0,0,1-.74.74v-.74Z" transform="translate(2.23 3.16)"/><path class="cls-4" d="M34.94,56.31v.74a.74.74,0,0,1-.74-.74Z" transform="translate(2.23 3.16)"/><path class="cls-4" d="M28.25,63.74h-.74V63A.74.74,0,0,1,28.25,63.74Z" transform="translate(2.23 3.16)"/><path class="cls-4" d="M34.94,63v.74H34.2A.7.7,0,0,1,34.94,63Z" transform="translate(2.23 3.16)"/><path class="cls-4" d="M32,60a.74.74,0,0,1-.74.74.75.75,0,0,1-.75-.74.76.76,0,0,1,.75-.75A.75.75,0,0,1,32,60Z" transform="translate(2.23 3.16)"/><rect class="cls-4" x="29.73" y="66.9" width="7.43" height="7.43"/><path class="cls-4" d="M28.25,63.74a.81.81,0,0,1-.74.75v-.75Z" transform="translate(2.23 3.16)"/><path class="cls-4" d="M34.94,63.74v.75a.75.75,0,0,1-.74-.75Z" transform="translate(2.23 3.16)"/><path class="cls-4" d="M28.25,71.18h-.74v-.75A.75.75,0,0,1,28.25,71.18Z" transform="translate(2.23 3.16)"/><path class="cls-4" d="M34.94,70.43v.75H34.2A.7.7,0,0,1,34.94,70.43Z" transform="translate(2.23 3.16)"/><path class="cls-4" d="M32,67.44a.74.74,0,0,1-.74.74.74.74,0,1,1,0-1.48A.74.74,0,0,1,32,67.44Z" transform="translate(2.23 3.16)"/><rect class="cls-4" x="22.3" width="7.43" height="7.43"/><path class="cls-4" d="M20.82-3.16a.81.81,0,0,1-.75.74v-.74Z" transform="translate(2.23 3.16)"/><path class="cls-4" d="M27.51-3.16v.74a.75.75,0,0,1-.75-.74Z" transform="translate(2.23 3.16)"/><path class="cls-4" d="M20.82,4.27h-.75V3.53A.75.75,0,0,1,20.82,4.27Z" transform="translate(2.23 3.16)"/><path class="cls-4" d="M27.51,3.53v.74h-.75A.71.71,0,0,1,27.51,3.53Z" transform="translate(2.23 3.16)"/><path class="cls-4" d="M24.52.54a.75.75,0,0,1-.75.74A.74.74,0,0,1,23,.54a.75.75,0,0,1,.74-.75A.76.76,0,0,1,24.52.54Z" transform="translate(2.23 3.16)"/><rect class="cls-4" x="22.3" y="7.43" width="7.43" height="7.43"/><path class="cls-4" d="M20.82,4.27a.81.81,0,0,1-.75.75V4.27Z" transform="translate(2.23 3.16)"/><path class="cls-4" d="M27.51,4.27V5a.75.75,0,0,1-.75-.75Z" transform="translate(2.23 3.16)"/><path class="cls-4" d="M20.82,11.71h-.75V11A.75.75,0,0,1,20.82,11.71Z" transform="translate(2.23 3.16)"/><path class="cls-4" d="M27.51,11v.75h-.75A.71.71,0,0,1,27.51,11Z" transform="translate(2.23 3.16)"/><circle class="cls-4" cx="26" cy="11.13" r="0.74"/><rect class="cls-4" x="22.3" y="14.87" width="7.43" height="7.43"/><path class="cls-4" d="M20.82,11.71a.81.81,0,0,1-.75.74v-.74Z" transform="translate(2.23 3.16)"/><path class="cls-4" d="M27.51,11.71v.74a.75.75,0,0,1-.75-.74Z" transform="translate(2.23 3.16)"/><path class="cls-4" d="M20.82,19.14h-.75V18.4A.75.75,0,0,1,20.82,19.14Z" transform="translate(2.23 3.16)"/><path class="cls-4" d="M27.51,18.4v.74h-.75A.7.7,0,0,1,27.51,18.4Z" transform="translate(2.23 3.16)"/><path class="cls-4" d="M24.52,15.4a.76.76,0,0,1-.75.75A.75.75,0,0,1,23,15.4a.74.74,0,0,1,.74-.74A.75.75,0,0,1,24.52,15.4Z" transform="translate(2.23 3.16)"/><rect class="cls-4" x="22.3" y="22.3" width="7.43" height="7.43"/><path class="cls-4" d="M20.82,19.14a.81.81,0,0,1-.75.74v-.74Z" transform="translate(2.23 3.16)"/><path class="cls-4" d="M27.51,19.14v.74a.75.75,0,0,1-.75-.74Z" transform="translate(2.23 3.16)"/><path class="cls-4" d="M20.82,26.57h-.75v-.74A.75.75,0,0,1,20.82,26.57Z" transform="translate(2.23 3.16)"/><path class="cls-4" d="M27.51,25.83v.74h-.75A.71.71,0,0,1,27.51,25.83Z" transform="translate(2.23 3.16)"/><path class="cls-4" d="M24.52,22.84a.75.75,0,0,1-.75.74.74.74,0,0,1-.74-.74.75.75,0,0,1,.74-.75A.76.76,0,0,1,24.52,22.84Z" transform="translate(2.23 3.16)"/><rect class="cls-4" x="22.3" y="29.74" width="7.43" height="7.43"/><path class="cls-4" d="M20.82,26.57a.81.81,0,0,1-.75.75v-.75Z" transform="translate(2.23 3.16)"/><path class="cls-4" d="M27.51,26.57v.75a.75.75,0,0,1-.75-.75Z" transform="translate(2.23 3.16)"/><path class="cls-4" d="M20.82,34h-.75v-.75A.75.75,0,0,1,20.82,34Z" transform="translate(2.23 3.16)"/><path class="cls-4" d="M27.51,33.26V34h-.75A.71.71,0,0,1,27.51,33.26Z" transform="translate(2.23 3.16)"/><path class="cls-4" d="M24.52,30.27a.76.76,0,0,1-.75.75.75.75,0,0,1-.74-.75.74.74,0,0,1,.74-.74A.75.75,0,0,1,24.52,30.27Z" transform="translate(2.23 3.16)"/><rect class="cls-4" x="22.3" y="37.17" width="7.43" height="7.43"/><path class="cls-4" d="M20.82,34a.81.81,0,0,1-.75.74V34Z" transform="translate(2.23 3.16)"/><path class="cls-4" d="M27.51,34v.74a.75.75,0,0,1-.75-.74Z" transform="translate(2.23 3.16)"/><path class="cls-4" d="M20.82,41.44h-.75V40.7A.75.75,0,0,1,20.82,41.44Z" transform="translate(2.23 3.16)"/><path class="cls-4" d="M27.51,40.7v.74h-.75A.7.7,0,0,1,27.51,40.7Z" transform="translate(2.23 3.16)"/><path class="cls-4" d="M24.52,37.71a.75.75,0,0,1-.75.74.75.75,0,0,1,0-1.49A.75.75,0,0,1,24.52,37.71Z" transform="translate(2.23 3.16)"/><rect class="cls-4" x="22.3" y="44.6" width="7.43" height="7.43"/><path class="cls-4" d="M20.82,41.44a.81.81,0,0,1-.75.74v-.74Z" transform="translate(2.23 3.16)"/><path class="cls-4" d="M27.51,41.44v.74a.75.75,0,0,1-.75-.74Z" transform="translate(2.23 3.16)"/><path class="cls-4" d="M20.82,48.87h-.75v-.74A.75.75,0,0,1,20.82,48.87Z" transform="translate(2.23 3.16)"/><path class="cls-4" d="M27.51,48.13v.74h-.75A.71.71,0,0,1,27.51,48.13Z" transform="translate(2.23 3.16)"/><circle class="cls-4" cx="26" cy="48.3" r="0.74"/><rect class="cls-4" x="22.3" y="52.04" width="7.43" height="7.43"/><path class="cls-4" d="M20.82,48.87a.81.81,0,0,1-.75.75v-.75Z" transform="translate(2.23 3.16)"/><path class="cls-4" d="M27.51,48.87v.75a.75.75,0,0,1-.75-.75Z" transform="translate(2.23 3.16)"/><path class="cls-4" d="M20.82,56.31h-.75v-.75A.75.75,0,0,1,20.82,56.31Z" transform="translate(2.23 3.16)"/><path class="cls-4" d="M27.51,55.56v.75h-.75A.71.71,0,0,1,27.51,55.56Z" transform="translate(2.23 3.16)"/><path class="cls-4" d="M24.52,52.57a.76.76,0,0,1-.75.75.75.75,0,0,1-.74-.75.74.74,0,0,1,.74-.74A.75.75,0,0,1,24.52,52.57Z" transform="translate(2.23 3.16)"/><rect class="cls-4" x="22.3" y="59.47" width="7.43" height="7.43"/><path class="cls-4" d="M20.82,56.31a.81.81,0,0,1-.75.74v-.74Z" transform="translate(2.23 3.16)"/><path class="cls-4" d="M27.51,56.31v.74a.75.75,0,0,1-.75-.74Z" transform="translate(2.23 3.16)"/><path class="cls-4" d="M20.82,63.74h-.75V63A.75.75,0,0,1,20.82,63.74Z" transform="translate(2.23 3.16)"/><path class="cls-4" d="M27.51,63v.74h-.75A.71.71,0,0,1,27.51,63Z" transform="translate(2.23 3.16)"/><circle class="cls-4" cx="26" cy="63.17" r="0.74"/><rect class="cls-4" x="22.3" y="66.9" width="7.43" height="7.43"/><path class="cls-4" d="M20.82,63.74a.81.81,0,0,1-.75.75v-.75Z" transform="translate(2.23 3.16)"/><path class="cls-4" d="M27.51,63.74v.75a.75.75,0,0,1-.75-.75Z" transform="translate(2.23 3.16)"/><path class="cls-4" d="M20.82,71.18h-.75v-.75A.75.75,0,0,1,20.82,71.18Z" transform="translate(2.23 3.16)"/><path class="cls-4" d="M27.51,70.43v.75h-.75A.71.71,0,0,1,27.51,70.43Z" transform="translate(2.23 3.16)"/><path class="cls-4" d="M24.52,67.44a.75.75,0,0,1-.75.74.74.74,0,1,1,0-1.48A.75.75,0,0,1,24.52,67.44Z" transform="translate(2.23 3.16)"/><rect class="cls-4" x="14.87" width="7.43" height="7.43"/><path class="cls-4" d="M13.38-3.16a.8.8,0,0,1-.74.74v-.74Z" transform="translate(2.23 3.16)"/><path class="cls-4" d="M20.07-3.16v.74a.74.74,0,0,1-.74-.74Z" transform="translate(2.23 3.16)"/><path class="cls-4" d="M13.38,4.27h-.74V3.53A.74.74,0,0,1,13.38,4.27Z" transform="translate(2.23 3.16)"/><path class="cls-4" d="M20.07,3.53v.74h-.74A.7.7,0,0,1,20.07,3.53Z" transform="translate(2.23 3.16)"/><path class="cls-4" d="M17.08.54a.74.74,0,1,1-1.48,0,.74.74,0,1,1,1.48,0Z" transform="translate(2.23 3.16)"/><rect class="cls-4" x="14.87" y="7.43" width="7.43" height="7.43"/><path class="cls-4" d="M13.38,4.27a.81.81,0,0,1-.74.75V4.27Z" transform="translate(2.23 3.16)"/><path class="cls-4" d="M20.07,4.27V5a.75.75,0,0,1-.74-.75Z" transform="translate(2.23 3.16)"/><path class="cls-4" d="M13.38,11.71h-.74V11A.75.75,0,0,1,13.38,11.71Z" transform="translate(2.23 3.16)"/><path class="cls-4" d="M20.07,11v.75h-.74A.71.71,0,0,1,20.07,11Z" transform="translate(2.23 3.16)"/><path class="cls-4" d="M17.08,8a.74.74,0,1,1-.74-.74A.74.74,0,0,1,17.08,8Z" transform="translate(2.23 3.16)"/><rect class="cls-4" x="14.87" y="14.87" width="7.43" height="7.43"/><path class="cls-4" d="M13.38,11.71a.8.8,0,0,1-.74.74v-.74Z" transform="translate(2.23 3.16)"/><path class="cls-4" d="M20.07,11.71v.74a.74.74,0,0,1-.74-.74Z" transform="translate(2.23 3.16)"/><path class="cls-4" d="M13.38,19.14h-.74V18.4A.74.74,0,0,1,13.38,19.14Z" transform="translate(2.23 3.16)"/><path class="cls-4" d="M20.07,18.4v.74h-.74A.7.7,0,0,1,20.07,18.4Z" transform="translate(2.23 3.16)"/><path class="cls-4" d="M17.08,15.4a.74.74,0,1,1-1.48,0,.74.74,0,0,1,1.48,0Z" transform="translate(2.23 3.16)"/><rect class="cls-4" x="14.87" y="22.3" width="7.43" height="7.43"/><path class="cls-4" d="M13.38,19.14a.8.8,0,0,1-.74.74v-.74Z" transform="translate(2.23 3.16)"/><path class="cls-4" d="M20.07,19.14v.74a.74.74,0,0,1-.74-.74Z" transform="translate(2.23 3.16)"/><path class="cls-4" d="M13.38,26.57h-.74v-.74A.74.74,0,0,1,13.38,26.57Z" transform="translate(2.23 3.16)"/><path class="cls-4" d="M20.07,25.83v.74h-.74A.7.7,0,0,1,20.07,25.83Z" transform="translate(2.23 3.16)"/><path class="cls-4" d="M17.08,22.84a.74.74,0,1,1-1.48,0,.74.74,0,1,1,1.48,0Z" transform="translate(2.23 3.16)"/><rect class="cls-4" x="14.87" y="29.74" width="7.43" height="7.43"/><path class="cls-4" d="M13.38,26.57a.8.8,0,0,1-.74.75v-.75Z" transform="translate(2.23 3.16)"/><path class="cls-4" d="M20.07,26.57v.75a.75.75,0,0,1-.74-.75Z" transform="translate(2.23 3.16)"/><path class="cls-4" d="M13.38,34h-.74v-.75A.75.75,0,0,1,13.38,34Z" transform="translate(2.23 3.16)"/><path class="cls-4" d="M20.07,33.26V34h-.74A.71.71,0,0,1,20.07,33.26Z" transform="translate(2.23 3.16)"/><path class="cls-4" d="M17.08,30.27a.74.74,0,1,1-1.48,0,.74.74,0,1,1,1.48,0Z" transform="translate(2.23 3.16)"/><rect class="cls-4" x="14.87" y="37.17" width="7.43" height="7.43"/><path class="cls-4" d="M13.38,34a.8.8,0,0,1-.74.74V34Z" transform="translate(2.23 3.16)"/><path class="cls-4" d="M20.07,34v.74a.74.74,0,0,1-.74-.74Z" transform="translate(2.23 3.16)"/><path class="cls-4" d="M13.38,41.44h-.74V40.7A.74.74,0,0,1,13.38,41.44Z" transform="translate(2.23 3.16)"/><path class="cls-4" d="M20.07,40.7v.74h-.74A.7.7,0,0,1,20.07,40.7Z" transform="translate(2.23 3.16)"/><path class="cls-4" d="M17.08,37.71a.74.74,0,1,1-.74-.75A.74.74,0,0,1,17.08,37.71Z" transform="translate(2.23 3.16)"/><rect class="cls-4" x="14.87" y="44.6" width="7.43" height="7.43"/><path class="cls-4" d="M13.38,41.44a.8.8,0,0,1-.74.74v-.74Z" transform="translate(2.23 3.16)"/><path class="cls-4" d="M20.07,41.44v.74a.74.74,0,0,1-.74-.74Z" transform="translate(2.23 3.16)"/><path class="cls-4" d="M13.38,48.87h-.74v-.74A.74.74,0,0,1,13.38,48.87Z" transform="translate(2.23 3.16)"/><path class="cls-4" d="M20.07,48.13v.74h-.74A.7.7,0,0,1,20.07,48.13Z" transform="translate(2.23 3.16)"/><path class="cls-4" d="M17.08,45.14a.74.74,0,1,1-.74-.74A.74.74,0,0,1,17.08,45.14Z" transform="translate(2.23 3.16)"/><rect class="cls-4" x="14.87" y="52.04" width="7.43" height="7.43"/><path class="cls-4" d="M13.38,48.87a.8.8,0,0,1-.74.75v-.75Z" transform="translate(2.23 3.16)"/><path class="cls-4" d="M20.07,48.87v.75a.75.75,0,0,1-.74-.75Z" transform="translate(2.23 3.16)"/><path class="cls-4" d="M13.38,56.31h-.74v-.75A.75.75,0,0,1,13.38,56.31Z" transform="translate(2.23 3.16)"/><path class="cls-4" d="M20.07,55.56v.75h-.74A.71.71,0,0,1,20.07,55.56Z" transform="translate(2.23 3.16)"/><path class="cls-4" d="M17.08,52.57a.74.74,0,1,1-1.48,0,.74.74,0,1,1,1.48,0Z" transform="translate(2.23 3.16)"/><rect class="cls-4" x="14.87" y="59.47" width="7.43" height="7.43"/><path class="cls-4" d="M13.38,56.31a.8.8,0,0,1-.74.74v-.74Z" transform="translate(2.23 3.16)"/><path class="cls-4" d="M20.07,56.31v.74a.74.74,0,0,1-.74-.74Z" transform="translate(2.23 3.16)"/><path class="cls-4" d="M13.38,63.74h-.74V63A.74.74,0,0,1,13.38,63.74Z" transform="translate(2.23 3.16)"/><path class="cls-4" d="M20.07,63v.74h-.74A.7.7,0,0,1,20.07,63Z" transform="translate(2.23 3.16)"/><path class="cls-4" d="M17.08,60a.74.74,0,0,1-1.48,0,.74.74,0,1,1,1.48,0Z" transform="translate(2.23 3.16)"/><rect class="cls-4" x="14.87" y="66.9" width="7.43" height="7.43"/><path class="cls-4" d="M13.38,63.74a.81.81,0,0,1-.74.75v-.75Z" transform="translate(2.23 3.16)"/><path class="cls-4" d="M20.07,63.74v.75a.75.75,0,0,1-.74-.75Z" transform="translate(2.23 3.16)"/><path class="cls-4" d="M13.38,71.18h-.74v-.75A.75.75,0,0,1,13.38,71.18Z" transform="translate(2.23 3.16)"/><path class="cls-4" d="M20.07,70.43v.75h-.74A.71.71,0,0,1,20.07,70.43Z" transform="translate(2.23 3.16)"/><path class="cls-4" d="M17.08,67.44a.74.74,0,1,1-.74-.74A.74.74,0,0,1,17.08,67.44Z" transform="translate(2.23 3.16)"/><rect class="cls-4" x="7.43" width="7.43" height="7.43"/><path class="cls-4" d="M6-3.16a.8.8,0,0,1-.74.74v-.74Z" transform="translate(2.23 3.16)"/><path class="cls-4" d="M12.64-3.16v.74a.74.74,0,0,1-.74-.74Z" transform="translate(2.23 3.16)"/><path class="cls-4" d="M6,4.27H5.21V3.53A.74.74,0,0,1,6,4.27Z" transform="translate(2.23 3.16)"/><path class="cls-4" d="M12.64,3.53v.74H11.9A.7.7,0,0,1,12.64,3.53Z" transform="translate(2.23 3.16)"/><path class="cls-4" d="M9.65.54a.74.74,0,0,1-.74.74A.75.75,0,0,1,8.16.54a.76.76,0,0,1,.75-.75A.75.75,0,0,1,9.65.54Z" transform="translate(2.23 3.16)"/><rect class="cls-4" x="7.43" y="7.43" width="7.43" height="7.43"/><path class="cls-4" d="M6,4.27A.81.81,0,0,1,5.21,5V4.27Z" transform="translate(2.23 3.16)"/><path class="cls-4" d="M12.64,4.27V5a.75.75,0,0,1-.74-.75Z" transform="translate(2.23 3.16)"/><path class="cls-4" d="M6,11.71H5.21V11A.75.75,0,0,1,6,11.71Z" transform="translate(2.23 3.16)"/><path class="cls-4" d="M12.64,11v.75H11.9A.7.7,0,0,1,12.64,11Z" transform="translate(2.23 3.16)"/><circle class="cls-4" cx="11.13" cy="11.13" r="0.74"/><rect class="cls-4" x="7.43" y="14.87" width="7.43" height="7.43"/><path class="cls-4" d="M6,11.71a.8.8,0,0,1-.74.74v-.74Z" transform="translate(2.23 3.16)"/><path class="cls-4" d="M12.64,11.71v.74a.74.74,0,0,1-.74-.74Z" transform="translate(2.23 3.16)"/><path class="cls-4" d="M6,19.14H5.21V18.4A.74.74,0,0,1,6,19.14Z" transform="translate(2.23 3.16)"/><path class="cls-4" d="M12.64,18.4v.74H11.9A.69.69,0,0,1,12.64,18.4Z" transform="translate(2.23 3.16)"/><path class="cls-4" d="M9.65,15.4a.75.75,0,0,1-.74.75.76.76,0,0,1-.75-.75.75.75,0,0,1,.75-.74A.74.74,0,0,1,9.65,15.4Z" transform="translate(2.23 3.16)"/><rect class="cls-4" x="7.43" y="22.3" width="7.43" height="7.43"/><path class="cls-4" d="M6,19.14a.8.8,0,0,1-.74.74v-.74Z" transform="translate(2.23 3.16)"/><path class="cls-4" d="M12.64,19.14v.74a.74.74,0,0,1-.74-.74Z" transform="translate(2.23 3.16)"/><path class="cls-4" d="M6,26.57H5.21v-.74A.74.74,0,0,1,6,26.57Z" transform="translate(2.23 3.16)"/><path class="cls-4" d="M12.64,25.83v.74H11.9A.7.7,0,0,1,12.64,25.83Z" transform="translate(2.23 3.16)"/><path class="cls-4" d="M9.65,22.84a.74.74,0,0,1-.74.74.75.75,0,0,1-.75-.74.76.76,0,0,1,.75-.75A.75.75,0,0,1,9.65,22.84Z" transform="translate(2.23 3.16)"/><rect class="cls-4" x="7.43" y="29.74" width="7.43" height="7.43"/><path class="cls-4" d="M6,26.57a.8.8,0,0,1-.74.75v-.75Z" transform="translate(2.23 3.16)"/><path class="cls-4" d="M12.64,26.57v.75a.74.74,0,0,1-.74-.75Z" transform="translate(2.23 3.16)"/><path class="cls-4" d="M6,34H5.21v-.75A.75.75,0,0,1,6,34Z" transform="translate(2.23 3.16)"/><path class="cls-4" d="M12.64,33.26V34H11.9A.7.7,0,0,1,12.64,33.26Z" transform="translate(2.23 3.16)"/><path class="cls-4" d="M9.65,30.27a.75.75,0,0,1-.74.75.76.76,0,0,1-.75-.75.75.75,0,0,1,.75-.74A.74.74,0,0,1,9.65,30.27Z" transform="translate(2.23 3.16)"/><rect class="cls-4" x="7.43" y="37.17" width="7.43" height="7.43"/><path class="cls-4" d="M6,34a.8.8,0,0,1-.74.74V34Z" transform="translate(2.23 3.16)"/><path class="cls-4" d="M12.64,34v.74A.74.74,0,0,1,11.9,34Z" transform="translate(2.23 3.16)"/><path class="cls-4" d="M6,41.44H5.21V40.7A.74.74,0,0,1,6,41.44Z" transform="translate(2.23 3.16)"/><path class="cls-4" d="M12.64,40.7v.74H11.9A.69.69,0,0,1,12.64,40.7Z" transform="translate(2.23 3.16)"/><path class="cls-4" d="M9.65,37.71a.74.74,0,0,1-.74.74.75.75,0,1,1,.74-.74Z" transform="translate(2.23 3.16)"/><rect class="cls-4" x="7.43" y="44.6" width="7.43" height="7.43"/><path class="cls-4" d="M6,41.44a.8.8,0,0,1-.74.74v-.74Z" transform="translate(2.23 3.16)"/><path class="cls-4" d="M12.64,41.44v.74a.74.74,0,0,1-.74-.74Z" transform="translate(2.23 3.16)"/><path class="cls-4" d="M6,48.87H5.21v-.74A.74.74,0,0,1,6,48.87Z" transform="translate(2.23 3.16)"/><path class="cls-4" d="M12.64,48.13v.74H11.9A.7.7,0,0,1,12.64,48.13Z" transform="translate(2.23 3.16)"/><circle class="cls-4" cx="11.13" cy="48.3" r="0.74"/><rect class="cls-4" x="7.43" y="52.04" width="7.43" height="7.43"/><path class="cls-4" d="M6,48.87a.8.8,0,0,1-.74.75v-.75Z" transform="translate(2.23 3.16)"/><path class="cls-4" d="M12.64,48.87v.75a.74.74,0,0,1-.74-.75Z" transform="translate(2.23 3.16)"/><path class="cls-4" d="M6,56.31H5.21v-.75A.75.75,0,0,1,6,56.31Z" transform="translate(2.23 3.16)"/><path class="cls-4" d="M12.64,55.56v.75H11.9A.7.7,0,0,1,12.64,55.56Z" transform="translate(2.23 3.16)"/><path class="cls-4" d="M9.65,52.57a.75.75,0,0,1-.74.75.76.76,0,0,1-.75-.75.75.75,0,0,1,.75-.74A.74.74,0,0,1,9.65,52.57Z" transform="translate(2.23 3.16)"/><rect class="cls-4" x="7.43" y="59.47" width="7.43" height="7.43"/><path class="cls-4" d="M6,56.31a.8.8,0,0,1-.74.74v-.74Z" transform="translate(2.23 3.16)"/><path class="cls-4" d="M12.64,56.31v.74a.74.74,0,0,1-.74-.74Z" transform="translate(2.23 3.16)"/><path class="cls-4" d="M6,63.74H5.21V63A.74.74,0,0,1,6,63.74Z" transform="translate(2.23 3.16)"/><path class="cls-4" d="M12.64,63v.74H11.9A.7.7,0,0,1,12.64,63Z" transform="translate(2.23 3.16)"/><circle class="cls-4" cx="11.13" cy="63.17" r="0.74"/><rect class="cls-4" x="7.43" y="66.9" width="7.43" height="7.43"/><path class="cls-4" d="M6,63.74a.81.81,0,0,1-.74.75v-.75Z" transform="translate(2.23 3.16)"/><path class="cls-4" d="M12.64,63.74v.75a.75.75,0,0,1-.74-.75Z" transform="translate(2.23 3.16)"/><path class="cls-4" d="M6,71.18H5.21v-.75A.75.75,0,0,1,6,71.18Z" transform="translate(2.23 3.16)"/><path class="cls-4" d="M12.64,70.43v.75H11.9A.7.7,0,0,1,12.64,70.43Z" transform="translate(2.23 3.16)"/><path class="cls-4" d="M9.65,67.44a.74.74,0,0,1-.74.74.74.74,0,1,1,0-1.48A.74.74,0,0,1,9.65,67.44Z" transform="translate(2.23 3.16)"/><rect class="cls-4" width="7.43" height="7.43"/><path class="cls-4" d="M-1.48-3.16a.81.81,0,0,1-.75.74v-.74Z" transform="translate(2.23 3.16)"/><path class="cls-4" d="M5.21-3.16v.74a.75.75,0,0,1-.75-.74Z" transform="translate(2.23 3.16)"/><path class="cls-4" d="M-1.48,4.27h-.75V3.53A.75.75,0,0,1-1.48,4.27Z" transform="translate(2.23 3.16)"/><path class="cls-4" d="M5.21,3.53v.74H4.46A.71.71,0,0,1,5.21,3.53Z" transform="translate(2.23 3.16)"/><path class="cls-4" d="M2.22.54a.75.75,0,0,1-.75.74A.74.74,0,0,1,.73.54a.75.75,0,0,1,.74-.75A.76.76,0,0,1,2.22.54Z" transform="translate(2.23 3.16)"/><rect class="cls-4" y="7.43" width="7.43" height="7.43"/><path class="cls-4" d="M-1.48,4.27A.81.81,0,0,1-2.23,5V4.27Z" transform="translate(2.23 3.16)"/><path class="cls-4" d="M5.21,4.27V5a.75.75,0,0,1-.75-.75Z" transform="translate(2.23 3.16)"/><path class="cls-4" d="M-1.48,11.71h-.75V11A.75.75,0,0,1-1.48,11.71Z" transform="translate(2.23 3.16)"/><path class="cls-4" d="M5.21,11v.75H4.46A.71.71,0,0,1,5.21,11Z" transform="translate(2.23 3.16)"/><path class="cls-4" d="M2.22,8a.75.75,0,0,1-.75.74.74.74,0,0,1,0-1.48A.75.75,0,0,1,2.22,8Z" transform="translate(2.23 3.16)"/><rect class="cls-4" y="14.87" width="7.43" height="7.43"/><path class="cls-4" d="M-1.48,11.71a.81.81,0,0,1-.75.74v-.74Z" transform="translate(2.23 3.16)"/><path class="cls-4" d="M5.21,11.71v.74a.75.75,0,0,1-.75-.74Z" transform="translate(2.23 3.16)"/><path class="cls-4" d="M-1.48,19.14h-.75V18.4A.75.75,0,0,1-1.48,19.14Z" transform="translate(2.23 3.16)"/><path class="cls-4" d="M5.21,18.4v.74H4.46A.7.7,0,0,1,5.21,18.4Z" transform="translate(2.23 3.16)"/><path class="cls-4" d="M2.22,15.4a.76.76,0,0,1-.75.75.75.75,0,0,1-.74-.75.74.74,0,0,1,.74-.74A.75.75,0,0,1,2.22,15.4Z" transform="translate(2.23 3.16)"/><rect class="cls-4" y="22.3" width="7.43" height="7.43"/><path class="cls-4" d="M-1.48,19.14a.81.81,0,0,1-.75.74v-.74Z" transform="translate(2.23 3.16)"/><path class="cls-4" d="M5.21,19.14v.74a.75.75,0,0,1-.75-.74Z" transform="translate(2.23 3.16)"/><path class="cls-4" d="M-1.48,26.57h-.75v-.74A.75.75,0,0,1-1.48,26.57Z" transform="translate(2.23 3.16)"/><path class="cls-4" d="M5.21,25.83v.74H4.46A.71.71,0,0,1,5.21,25.83Z" transform="translate(2.23 3.16)"/><path class="cls-4" d="M2.22,22.84a.75.75,0,0,1-.75.74.74.74,0,0,1-.74-.74.75.75,0,0,1,.74-.75A.76.76,0,0,1,2.22,22.84Z" transform="translate(2.23 3.16)"/><rect class="cls-4" y="29.74" width="7.43" height="7.43"/><path class="cls-4" d="M-1.48,26.57a.81.81,0,0,1-.75.75v-.75Z" transform="translate(2.23 3.16)"/><path class="cls-4" d="M5.21,26.57v.75a.75.75,0,0,1-.75-.75Z" transform="translate(2.23 3.16)"/><path class="cls-4" d="M-1.48,34h-.75v-.75A.75.75,0,0,1-1.48,34Z" transform="translate(2.23 3.16)"/><path class="cls-4" d="M5.21,33.26V34H4.46A.71.71,0,0,1,5.21,33.26Z" transform="translate(2.23 3.16)"/><path class="cls-4" d="M2.22,30.27a.76.76,0,0,1-.75.75.75.75,0,0,1-.74-.75.74.74,0,0,1,.74-.74A.75.75,0,0,1,2.22,30.27Z" transform="translate(2.23 3.16)"/><rect class="cls-4" y="37.17" width="7.43" height="7.43"/><path class="cls-4" d="M-1.48,34a.81.81,0,0,1-.75.74V34Z" transform="translate(2.23 3.16)"/><path class="cls-4" d="M5.21,34v.74A.75.75,0,0,1,4.46,34Z" transform="translate(2.23 3.16)"/><path class="cls-4" d="M-1.48,41.44h-.75V40.7A.75.75,0,0,1-1.48,41.44Z" transform="translate(2.23 3.16)"/><path class="cls-4" d="M5.21,40.7v.74H4.46A.7.7,0,0,1,5.21,40.7Z" transform="translate(2.23 3.16)"/><path class="cls-4" d="M2.22,37.71a.75.75,0,0,1-.75.74.75.75,0,0,1,0-1.49A.75.75,0,0,1,2.22,37.71Z" transform="translate(2.23 3.16)"/><rect class="cls-4" y="44.6" width="7.43" height="7.43"/><path class="cls-4" d="M-1.48,41.44a.81.81,0,0,1-.75.74v-.74Z" transform="translate(2.23 3.16)"/><path class="cls-4" d="M5.21,41.44v.74a.75.75,0,0,1-.75-.74Z" transform="translate(2.23 3.16)"/><path class="cls-4" d="M-1.48,48.87h-.75v-.74A.75.75,0,0,1-1.48,48.87Z" transform="translate(2.23 3.16)"/><path class="cls-4" d="M5.21,48.13v.74H4.46A.71.71,0,0,1,5.21,48.13Z" transform="translate(2.23 3.16)"/><path class="cls-4" d="M2.22,45.14a.75.75,0,0,1-.75.74.74.74,0,1,1,0-1.48A.75.75,0,0,1,2.22,45.14Z" transform="translate(2.23 3.16)"/><rect class="cls-4" y="52.04" width="7.43" height="7.43"/><path class="cls-4" d="M-1.48,48.87a.81.81,0,0,1-.75.75v-.75Z" transform="translate(2.23 3.16)"/><path class="cls-4" d="M5.21,48.87v.75a.75.75,0,0,1-.75-.75Z" transform="translate(2.23 3.16)"/><path class="cls-4" d="M-1.48,56.31h-.75v-.75A.75.75,0,0,1-1.48,56.31Z" transform="translate(2.23 3.16)"/><path class="cls-4" d="M5.21,55.56v.75H4.46A.71.71,0,0,1,5.21,55.56Z" transform="translate(2.23 3.16)"/><path class="cls-4" d="M2.22,52.57a.76.76,0,0,1-.75.75.75.75,0,0,1-.74-.75.74.74,0,0,1,.74-.74A.75.75,0,0,1,2.22,52.57Z" transform="translate(2.23 3.16)"/><rect class="cls-4" y="59.47" width="7.43" height="7.43"/><path class="cls-4" d="M-1.48,56.31a.81.81,0,0,1-.75.74v-.74Z" transform="translate(2.23 3.16)"/><path class="cls-4" d="M5.21,56.31v.74a.75.75,0,0,1-.75-.74Z" transform="translate(2.23 3.16)"/><path class="cls-4" d="M-1.48,63.74h-.75V63A.75.75,0,0,1-1.48,63.74Z" transform="translate(2.23 3.16)"/><path class="cls-4" d="M5.21,63v.74H4.46A.71.71,0,0,1,5.21,63Z" transform="translate(2.23 3.16)"/><path class="cls-4" d="M2.22,60a.75.75,0,0,1-.75.74A.74.74,0,0,1,.73,60a.75.75,0,0,1,.74-.75A.76.76,0,0,1,2.22,60Z" transform="translate(2.23 3.16)"/><rect class="cls-4" y="66.9" width="7.43" height="7.43"/><path class="cls-4" d="M-1.48,63.74a.81.81,0,0,1-.75.75v-.75Z" transform="translate(2.23 3.16)"/><path class="cls-4" d="M5.21,63.74v.75a.75.75,0,0,1-.75-.75Z" transform="translate(2.23 3.16)"/><path class="cls-4" d="M-1.48,71.18h-.75v-.75A.75.75,0,0,1-1.48,71.18Z" transform="translate(2.23 3.16)"/><path class="cls-4" d="M5.21,70.43v.75H4.46A.71.71,0,0,1,5.21,70.43Z" transform="translate(2.23 3.16)"/><path class="cls-4" d="M2.22,67.44a.75.75,0,0,1-.75.74.74.74,0,0,1,0-1.48A.75.75,0,0,1,2.22,67.44Z" transform="translate(2.23 3.16)"/></g><path class="cls-5" d="M43.11,66.24H.05V51.5l.3-.32,23-25c2.25-2.5,2.91-3.84,2.91-5.93,0-3.13-1.63-4.86-4.59-4.86-3.24,0-4.62,1.48-4.77,5.09l0,1.07H0l.06-1.17c.17-3.84.42-5.66,1.51-8.23C4.77,4.56,12.32,0,21.76,0,34.53,0,43.11,8.11,43.11,20.19c0,6.23-1.67,9.62-8.14,16.46L21.58,50.82H43.11ZM2.29,64H40.88v-11H16.41L33.34,35.12c6.06-6.41,7.54-9.34,7.54-14.93,0-10.74-7.68-18-19.12-18-8.51,0-15.29,4.05-18.14,10.82a16.53,16.53,0,0,0-1.28,6.3H14.76c.49-4.09,2.81-6.16,6.91-6.16s6.82,2.72,6.82,7.09c0,2.66-.88,4.54-3.5,7.44L2.29,52.37Z" transform="translate(2.23 3.16)"/></g></g></svg>