<svg width="140" height="43" viewBox="0 0 140 43" fill="none" xmlns="http://www.w3.org/2000/svg">
<g id="Layer_1" clip-path="url(#clip0_1382_917)">
<path id="Vector" d="M17.8313 21.9151C17.8313 17.3222 14.8917 14.9544 11.5812 14.9544C8.27069 14.9544 5.33111 17.3222 5.33111 21.9151C5.33111 26.5081 8.32052 28.9635 11.5812 28.9635C14.8419 28.9635 17.8313 26.5519 17.8313 21.9151ZM23.2067 21.9151C23.2067 28.7388 18.2907 33.699 11.5812 33.699C4.87163 33.699 0 28.7388 0 21.9151C0 15.0915 4.91591 10.1806 11.5812 10.1806C18.2465 10.1806 23.2067 15.1408 23.2067 21.9151Z" fill="#00ABC8"/>
<path id="Vector_2" d="M37.4952 28.9197C40.9883 28.9197 43.4241 26.0532 43.4241 21.822C43.4241 17.5907 41.0326 14.9544 37.545 14.9544C34.0573 14.9544 31.4776 17.6401 31.4776 21.8713C31.4776 26.1025 33.8691 28.9197 37.4952 28.9197ZM48.5726 28.9635C48.5726 30.964 48.7553 32.6467 48.7995 33.0139H43.7009C43.6068 32.5151 43.4684 31.0572 43.4684 30.1474C42.4111 32.0109 40.0694 33.562 36.8973 33.562C30.4645 33.562 26.1465 28.5579 26.1465 21.8713C26.1465 15.1846 30.5143 10.2738 36.8087 10.2738C40.7171 10.2738 42.6934 12.0496 43.3799 13.4582V0.0793762H48.5726V28.9635Z" fill="#00ABC8"/>
<path id="Vector_3" d="M68.8789 19.5035C68.7848 16.9111 67.041 14.5927 63.3651 14.5927C60.0103 14.5927 58.0838 17.1413 57.8956 19.5035H68.8789ZM73.983 26.6944C72.7873 30.5639 69.2498 33.699 63.8744 33.699C57.807 33.699 52.4316 29.3307 52.4316 21.8274C52.4316 14.8229 57.6686 10.1806 63.3208 10.1806C70.2131 10.1806 74.2543 14.6859 74.2543 21.6904C74.2543 22.5564 74.1657 23.2853 74.1159 23.373H57.7572C57.8956 26.7383 60.5584 29.1499 63.8689 29.1499C67.1794 29.1499 68.7405 27.4672 69.4768 25.2804L73.9775 26.689L73.983 26.6944Z" fill="#00ABC8"/>
<path id="Vector_4" d="M82.0203 25.7353C82.203 27.7358 83.7198 29.5116 86.5708 29.5116C88.7797 29.5116 89.9256 28.3277 89.9256 26.963C89.9256 25.7791 89.1008 24.8693 87.3071 24.5076L83.9966 23.7786C80.044 22.9126 77.9791 20.364 77.9791 17.3167C77.9791 13.4527 81.5608 10.1751 86.2055 10.1751C92.4556 10.1751 94.4762 14.1761 94.8415 16.363L90.3408 17.64C90.1581 16.363 89.1949 14.3186 86.2055 14.3186C84.3233 14.3186 82.9891 15.5025 82.9891 16.8672C82.9891 18.0511 83.8638 18.9171 85.2422 19.1856L88.6413 19.8653C92.8707 20.7751 95.0741 23.3237 95.0741 26.5958C95.0741 29.8678 92.3172 33.6935 86.6207 33.6935C80.1436 33.6935 77.658 29.5061 77.3867 27.0068L82.0258 25.7353H82.0203Z" fill="#00ABC8"/>
<path id="Vector_5" d="M103.018 25.7353C103.201 27.7358 104.718 29.5116 107.569 29.5116C109.778 29.5116 110.924 28.3277 110.924 26.963C110.924 25.7791 110.099 24.8693 108.305 24.5076L104.995 23.7786C101.042 22.9126 98.9771 20.364 98.9771 17.3167C98.9771 13.4527 102.559 10.1751 107.204 10.1751C113.454 10.1751 115.474 14.1761 115.84 16.363L111.339 17.64C111.156 16.363 110.193 14.3186 107.204 14.3186C105.321 14.3186 103.987 15.5025 103.987 16.8672C103.987 18.0511 104.862 18.9171 106.24 19.1856L109.639 19.8653C113.869 20.7751 116.072 23.3237 116.072 26.5958C116.072 29.8678 113.315 33.6935 107.619 33.6935C101.142 33.6935 98.656 29.5061 98.3848 27.0068L103.024 25.7353H103.018Z" fill="#00ABC8"/>
<path id="Vector_6" d="M133.81 23.828V22.825L127.975 23.6909C126.32 23.965 124.986 24.8748 124.986 26.6944C124.986 28.1962 126.137 29.5609 128.252 29.5609C131.236 29.5609 133.81 28.1524 133.81 23.828ZM126.408 20.3257L132.155 19.4597C133.439 19.2788 133.81 18.6431 133.81 17.8703C133.81 16.0068 132.52 14.505 129.581 14.505C126.641 14.505 125.218 16.2808 124.986 18.506L120.114 17.4153C120.529 13.5952 124.017 10.1806 129.536 10.1806C136.429 10.1806 139.047 14.0446 139.047 18.4567V29.4678C139.047 31.4683 139.274 32.7892 139.324 33.0194H134.364C134.319 32.8823 134.131 31.9725 134.131 30.1967C133.074 31.8793 130.87 33.699 127.239 33.699C122.55 33.699 119.66 30.5146 119.66 27.0123C119.66 23.0551 122.6 20.8738 126.414 20.3257" fill="#00ABC8"/>
<path id="Vector_7" d="M21.8064 39.5526H0.875V43H21.8064V39.5526Z" fill="#00ABC8"/>
</g>
<defs>
<clipPath id="clip0_1382_917">
<rect width="139.323" height="42.9206" fill="white" transform="translate(0 0.0793762)"/>
</clipPath>
</defs>
</svg>
