<svg width="154" height="153" viewBox="0 0 154 153" fill="none" xmlns="http://www.w3.org/2000/svg">
<g clip-path="url(#clip0_1279_3669)">
<path d="M125.013 83.5634L125.039 83.5666C125.617 83.6444 126.203 83.5529 126.734 83.3028C126.79 83.2765 126.844 83.2492 126.899 83.2198C127.831 82.7112 128.435 81.7738 128.511 80.7114C128.575 79.8255 128.293 78.9848 127.718 78.3437C127.164 77.7269 126.402 77.3696 125.572 77.3402C125.062 77.3223 124.548 77.4284 124.084 77.647C124.027 77.6733 123.972 77.7027 123.916 77.7321C122.97 78.2481 122.361 79.176 122.288 80.2132C122.172 81.8568 123.366 83.328 125.013 83.5634ZM122.221 94.4452C122.262 94.4515 122.301 94.4642 122.337 94.4831C122.438 94.5346 122.545 94.5713 122.656 94.5903C123.268 94.6975 123.918 94.6092 124.488 94.3402C124.542 94.3149 124.596 94.2876 124.648 94.2592C124.877 94.1342 125.09 93.9808 125.281 93.8032C125.688 93.4248 125.973 92.9719 126.132 92.4559C126.387 91.6499 126.32 90.7693 125.946 90.04L125.935 90.019C125.537 89.2812 124.877 88.7464 124.075 88.512L124.025 88.4983C123.301 88.3008 122.532 88.3659 121.858 88.6843C121.81 88.7075 121.762 88.7316 121.71 88.759L121.651 88.7905C120.946 89.1751 120.427 89.7951 120.19 90.537L120.183 90.5591C120.103 90.8302 120.062 91.1192 120.059 91.4429C120.047 92.6976 120.778 93.8431 121.923 94.3601C122.017 94.4032 122.117 94.4326 122.22 94.4473L122.221 94.4452ZM81.8288 127.858C82.2002 127.824 82.5569 127.727 82.8884 127.571C82.944 127.545 82.9996 127.516 83.0531 127.487C84.1808 126.872 84.8197 125.615 84.6424 124.359C84.4075 122.684 82.9282 121.484 81.2707 121.628C80.9108 121.656 80.5625 121.748 80.2363 121.903C80.1828 121.928 80.1293 121.955 80.0768 121.983C79.0256 122.556 78.3783 123.716 78.4297 124.937C78.4633 125.761 78.8231 126.519 79.44 127.07C80.0747 127.636 80.9381 127.924 81.8267 127.857L81.8288 127.858ZM91.1101 125.215C91.8497 125.591 92.7089 125.65 93.5324 125.38C93.6636 125.338 93.7937 125.287 93.9174 125.229C93.972 125.203 94.0255 125.176 94.078 125.147C95.426 124.412 96.0293 122.778 95.4806 121.341L95.4722 121.318C94.8637 119.772 93.1527 118.947 91.5759 119.44L91.557 119.447C91.4458 119.483 91.3356 119.528 91.2286 119.578C91.1762 119.602 91.1248 119.629 91.0744 119.657C90.532 119.952 90.0904 120.412 89.7966 120.988C89.419 121.711 89.3361 122.541 89.5648 123.327C89.7998 124.141 90.3432 124.808 91.0933 125.205L91.1101 125.214V125.215ZM69.8388 127.549L69.8839 127.555C70.4965 127.63 71.1081 127.533 71.6537 127.276C71.7103 127.249 71.7659 127.221 71.8205 127.191C72.7185 126.701 73.3112 125.808 73.4057 124.801C73.563 123.114 72.3712 121.571 70.7399 121.36C70.1493 121.269 69.5492 121.357 69.0037 121.615C68.9481 121.641 68.8925 121.669 68.8379 121.699C67.9997 122.156 67.4133 122.963 67.2297 123.913C67.0734 124.724 67.2485 125.547 67.7238 126.23C68.2179 126.939 68.9691 127.408 69.8377 127.55L69.8388 127.549ZM60.7924 124.405C60.846 124.379 60.8995 124.352 60.9519 124.324C61.616 123.962 62.1175 123.367 62.364 122.645L62.3745 122.614C62.9043 121.008 62.0902 119.234 60.5585 118.658C59.7727 118.357 58.8821 118.39 58.1152 118.752C58.0596 118.778 58.004 118.807 57.9494 118.836C57.342 119.167 56.8657 119.679 56.5741 120.317L56.552 120.365C56.2226 121.116 56.2142 121.988 56.529 122.756C56.8521 123.545 57.5015 124.178 58.3082 124.491C59.1223 124.796 60.0277 124.764 60.7924 124.404V124.405ZM104.048 120.444C104.104 120.418 104.159 120.389 104.213 120.36C104.265 120.332 104.315 120.302 104.365 120.272C104.365 120.272 104.384 120.26 104.385 120.259C105.128 119.778 105.631 119.046 105.798 118.199C105.96 117.387 105.791 116.565 105.324 115.887C104.431 114.593 102.786 114.124 101.411 114.772C101.358 114.798 101.304 114.825 101.252 114.853C101.19 114.887 101.129 114.923 101.065 114.964C99.656 115.844 99.1965 117.696 100.018 119.178C100.801 120.585 102.57 121.142 104.047 120.445L104.048 120.444ZM119.14 104.804C119.353 104.756 119.561 104.684 119.761 104.59C119.813 104.565 119.866 104.539 119.918 104.511C120.397 104.249 120.81 103.856 121.112 103.37C121.574 102.64 121.709 101.778 121.495 100.944C121.282 100.12 120.737 99.4159 119.998 99.0134C119.093 98.5195 118.045 98.4869 117.121 98.922C117.065 98.9482 117.009 98.9766 116.954 99.0071C116.488 99.2614 116.089 99.6334 115.811 100.067L115.795 100.094C115.378 100.767 115.246 101.585 115.429 102.398C115.602 103.2 116.073 103.894 116.755 104.351C117.457 104.823 118.305 104.983 119.14 104.803V104.804ZM112.828 113.438C112.884 113.411 112.941 113.383 112.995 113.353C113.259 113.209 113.506 113.026 113.727 112.809C114.344 112.201 114.674 111.389 114.655 110.524C114.636 109.685 114.275 108.884 113.661 108.322L113.63 108.295C113.069 107.796 112.345 107.511 111.594 107.493C111.109 107.481 110.621 107.584 110.183 107.791C110.127 107.818 110.073 107.845 110.02 107.874L109.957 107.909C109.705 108.054 109.497 108.208 109.321 108.382C108.141 109.532 108.114 111.493 109.26 112.753C110.164 113.744 111.598 114.02 112.829 113.439L112.828 113.438ZM47.7386 118.846C48.4384 119.325 49.3091 119.512 50.1232 119.36C50.3666 119.312 50.6047 119.234 50.8303 119.128C50.8838 119.103 50.9373 119.076 50.9898 119.047C51.4493 118.797 51.8416 118.428 52.1228 117.983C52.556 117.298 52.7092 116.481 52.5529 115.679C52.4008 114.858 51.9497 114.154 51.2709 113.69C50.6194 113.257 49.8263 113.083 49.0217 113.2C48.729 113.247 48.4436 113.336 48.1761 113.462C48.1194 113.488 48.0638 113.517 48.0082 113.547C47.6201 113.758 47.2865 114.043 47.0127 114.398L46.9896 114.43C46.485 115.103 46.2793 115.927 46.4115 116.754C46.5374 117.604 47.02 118.365 47.7397 118.846H47.7386ZM54.1454 33.7078C53.3869 32.3816 51.7462 31.8152 50.3278 32.39C50.2753 32.4111 50.2229 32.4342 50.1715 32.4583C50.0445 32.5182 49.9207 32.5876 49.799 32.6664C49.0699 33.1299 48.5695 33.8329 48.3901 34.6431L48.3859 34.6631C48.216 35.4964 48.3859 36.3403 48.8633 37.0381C49.3249 37.7138 50.0183 38.1783 50.8188 38.3453C51.4461 38.483 52.0808 38.4336 52.6526 38.2014C52.7029 38.1804 52.7533 38.1593 52.8026 38.1352C52.9117 38.0837 53.0197 38.0248 53.1215 37.9597L53.1372 37.9492C54.5105 37.0475 54.9648 35.2064 54.1706 33.7551C54.1633 33.7404 54.1549 33.7268 54.1444 33.7078H54.1454ZM60.6445 27.5171L60.6214 27.5255C60.5648 27.5445 60.5102 27.5655 60.4557 27.5875C60.4011 27.6096 60.3466 27.6338 60.2941 27.658C58.8128 28.3568 58.1162 30.0823 58.7069 31.5872C59.3269 33.1624 61.0453 33.9811 62.6242 33.4493C62.6924 33.4273 62.7584 33.4031 62.8235 33.3768C62.877 33.3558 62.9284 33.3327 62.9798 33.3085C64.3583 32.658 65.0455 31.0859 64.6122 29.5684C64.3856 28.7761 63.86 28.1245 63.1309 27.7326C62.3703 27.3248 61.487 27.2481 60.6456 27.5171H60.6445ZM45.3981 40.8212C45.3803 40.7865 45.3614 40.7529 45.3352 40.713L45.2838 40.632C45.2439 40.569 45.2019 40.507 45.1558 40.445C45.1411 40.4261 45.1264 40.4061 45.1044 40.3788C45.0666 40.3315 45.0288 40.2853 44.9848 40.2359C44.9711 40.2201 44.9575 40.2033 44.946 40.1907C44.9134 40.155 44.8788 40.1213 44.841 40.0856C44.8389 40.0835 44.7771 40.0236 44.7771 40.0236C44.3459 39.6222 43.8077 39.3584 43.2108 39.2575C43.1845 39.2523 43.1583 39.248 43.1216 39.2428C43.0849 39.2375 43.0482 39.2344 43.0072 39.2312C42.9296 39.2239 42.852 39.2176 42.7691 39.2155H42.7156C42.6296 39.2155 42.5446 39.2176 42.4523 39.2249L42.4208 39.227C42.3977 39.2291 42.3757 39.2312 42.3432 39.2365C42.0704 39.268 41.8018 39.3363 41.5459 39.4404C41.4934 39.4614 41.4409 39.4845 41.3885 39.5097L41.3234 39.5412C41.3234 39.5412 41.2658 39.5665 41.25 39.5738C41.228 39.5843 41.207 39.5948 41.186 39.6064C40.8996 39.7651 40.6615 39.9416 40.4475 40.1592C40.3656 40.2443 40.2859 40.3389 40.1999 40.4524C39.9093 40.8212 39.7047 41.25 39.6029 41.7092C39.5127 42.1495 39.519 42.5961 39.6218 43.0354L39.6281 43.0606C39.6449 43.131 39.6638 43.2014 39.6858 43.2729C39.7079 43.3454 39.7351 43.419 39.7697 43.5083C39.7708 43.5114 39.7718 43.5135 39.7739 43.5167C39.9229 43.8835 40.1401 44.2134 40.4233 44.5003C40.4548 44.5329 40.4863 44.5644 40.5209 44.597C40.5345 44.6096 40.565 44.638 40.5754 44.6464C40.9898 45.0205 41.4944 45.2769 42.0379 45.3915C42.6652 45.5291 43.2999 45.4797 43.8717 45.2485C43.922 45.2286 43.9724 45.2065 44.0207 45.1834C44.1308 45.1319 44.2378 45.073 44.3396 45.0079L44.3553 44.9974C44.5463 44.8723 44.7256 44.7231 44.8945 44.5476L44.9166 44.5245L44.9564 44.4804C44.9858 44.4478 45.0162 44.4152 45.0456 44.3795C45.8177 43.4778 46.0066 42.1873 45.5272 41.0913L45.5062 41.044C45.4799 40.9862 45.4516 40.9284 45.4191 40.8664L45.3971 40.8212H45.3981ZM72.3135 25.0192C72.0093 25.0528 71.7135 25.1274 71.4355 25.2399C71.3799 25.262 71.3253 25.2861 71.2718 25.3113C70.036 25.8946 69.3341 27.1809 69.5261 28.5134C69.7695 30.2011 71.2949 31.4253 72.9304 31.2425C73.22 31.212 73.5032 31.1405 73.7728 31.0313C73.8263 31.0092 73.8798 30.9861 73.9323 30.9619C75.0821 30.4196 75.7923 29.2385 75.7399 27.9532C75.7399 27.9511 75.7399 27.928 75.7388 27.9259C75.699 27.0957 75.3098 26.3044 74.6719 25.7538C74.0162 25.1894 73.179 24.9288 72.3146 25.0203L72.3135 25.0192ZM93.5671 28.3358C93.5125 28.3578 93.459 28.381 93.4065 28.4062C92.6501 28.7635 92.0648 29.4182 91.8014 30.2053C91.2664 31.8058 92.0312 33.5029 93.5817 34.1545C93.5828 34.1545 93.6006 34.1618 93.6017 34.1629C94.3245 34.4498 95.1323 34.4424 95.8771 34.1408L95.9422 34.1135C95.9894 34.0935 96.0356 34.0735 96.0807 34.0525C96.7605 33.732 97.3039 33.175 97.6113 32.4825L97.626 32.4489C97.9575 31.6796 97.9659 30.8263 97.648 30.0466L97.6386 30.0235C97.3133 29.271 96.6766 28.6605 95.8897 28.3442C95.1417 28.0352 94.3161 28.0331 93.566 28.3368L93.5671 28.3358ZM84.2858 25.2987C83.7224 25.2241 83.158 25.2935 82.6513 25.4984C82.5988 25.5194 82.5485 25.5415 82.4971 25.5657C82.2946 25.6613 82.1015 25.7811 81.9243 25.9198C81.2591 26.4484 80.8468 27.2029 80.765 28.0457C80.6842 28.8644 80.9182 29.6672 81.4238 30.3062C81.9389 30.9672 82.6544 31.3886 83.4538 31.4947C83.9815 31.5577 84.5208 31.4863 85.0138 31.2856C85.0694 31.2635 85.124 31.2393 85.1775 31.2141C86.0912 30.7833 86.7511 29.9278 86.942 28.9274C87.1005 28.0993 86.9043 27.2292 86.4039 26.5419C85.8972 25.8462 85.1471 25.4038 84.2879 25.2977L84.2858 25.2987ZM106.461 33.9621C105.594 33.3463 104.488 33.2181 103.503 33.6164C103.448 33.6385 103.395 33.6616 103.341 33.6868C102.815 33.9348 102.374 34.3247 102.064 34.8186L102.046 34.847C101.173 36.2699 101.544 38.1352 102.892 39.0936C103.739 39.6957 104.842 39.8145 105.84 39.4099C105.842 39.4099 105.845 39.4078 105.847 39.4078C105.9 39.3857 105.953 39.3626 106.005 39.3384C106.471 39.1188 106.882 38.7867 107.194 38.3779C107.698 37.7159 107.907 36.9004 107.782 36.0807C107.652 35.2285 107.183 34.476 106.459 33.9632L106.461 33.9621ZM35.9469 48.1006C35.4937 48.0754 35.03 48.1532 34.6061 48.3245C34.5516 48.3465 34.497 48.3707 34.4435 48.3959C33.899 48.6523 33.4374 49.0622 33.107 49.5813C33.0986 49.5939 33.0912 49.6065 33.0829 49.6202C32.2834 50.9958 32.615 52.7476 33.8529 53.6965C33.9442 53.7659 34.069 53.8615 34.2295 53.9498C35.0782 54.4111 36.0728 54.47 36.9582 54.1116C37.0127 54.0895 37.0673 54.0654 37.1208 54.0402C37.6695 53.7816 38.1206 53.3718 38.4311 52.8464C39.2998 51.4571 38.8654 49.555 37.4649 48.6061C37.0232 48.3076 36.4976 48.1332 35.9458 48.1017L35.9469 48.1006ZM141.282 34.062C140.546 32.9365 139.259 32.2261 137.801 31.6481C135.397 30.6761 132.568 30.0603 131.109 28.4104C128.74 25.7306 129.446 19.9077 126.746 17.6168C124.014 15.3144 118.401 16.98 115.392 15.1053C112.374 13.2095 111.409 7.42546 108.166 5.98471C104.913 4.54816 99.9843 7.72496 96.5632 6.755C93.1464 5.79555 90.6002 0.512805 87.0732 0.0325551C83.5566 -0.426677 79.7201 4.00381 76.1553 4.0448C72.6272 4.08158 68.6952 -0.277453 65.1546 0.281612C61.6716 0.825966 59.2545 6.16336 55.8219 7.22684C52.4627 8.25565 47.4732 5.18394 44.2011 6.72663C40.9395 8.26511 40.1139 14.0785 37.1816 16.0164C34.176 17.9889 28.5298 16.4546 25.8913 18.797C23.2151 21.1698 24.0649 26.9812 21.7779 29.6872C19.4751 32.4132 13.6212 32.5519 11.7444 35.5553C9.85707 38.5891 12.2983 43.9213 10.86 47.1706C9.42589 50.4304 3.84264 52.2106 2.88482 55.6333C1.91651 59.0602 5.75198 63.4896 5.28723 67.029C4.82249 70.542 -0.0452876 73.8197 -0.000176713 77.4011C0.0365414 80.9352 4.96621 84.1004 5.51384 87.6524C5.8485 89.8193 4.52035 92.396 3.74717 94.8666C3.26249 96.361 2.98868 97.807 3.37579 99.0975C4.4081 102.447 10.026 104.085 11.5671 107.363C13.1029 110.63 10.7834 116.011 12.7074 118.953C14.6871 121.958 20.542 121.961 22.8752 124.594C23.5005 125.294 23.9023 126.202 24.217 127.203C25.1255 130.068 25.2535 133.689 27.2489 135.382C29.9702 137.689 35.5986 136.029 38.5969 137.909C41.6109 139.795 42.5803 145.589 45.8335 147.025C49.0762 148.465 54.0048 145.29 57.4217 146.248C60.8428 147.218 63.39 152.5 66.9223 152.965C70.4336 153.44 74.2649 148.999 77.8349 148.969C81.3693 148.916 85.3002 153.275 88.8357 152.732C92.3134 152.177 94.7462 146.845 98.1684 145.787C101.522 144.747 106.522 147.814 109.784 146.276C113.056 144.734 113.871 138.925 116.808 136.997C119.813 135.025 125.466 136.543 128.098 134.218C130.779 131.83 129.931 126.018 132.211 123.327C134.51 120.59 140.378 120.458 142.25 117.444C144.132 114.424 141.686 109.082 143.124 105.834C144.562 102.584 150.147 100.804 151.115 97.3772C152.073 93.9545 148.232 89.5145 148.702 85.9868C149.172 82.459 154.029 79.1865 153.999 75.6104C153.966 72.9906 151.258 70.5746 149.637 68.0578C149.058 67.1813 148.624 66.2881 148.474 65.3644C147.931 61.8755 151.674 57.3588 150.612 53.9204C149.585 50.5555 143.967 48.9171 142.432 45.65C140.891 42.3723 143.21 36.9908 141.281 34.0651L141.282 34.062ZM50.5596 20.2587C75.3979 8.54569 104.053 14.7753 121.98 33.6784L119.9 34.6589C107.728 22.1566 90.2477 15.0348 71.5718 16.7341C38.6724 19.7291 14.3388 48.976 17.3276 81.9314C17.3591 82.2824 17.3979 82.6313 17.4357 82.9802L15.3795 83.9491C12.2563 58.064 25.7203 31.9718 50.5586 20.2587H50.5596ZM23.3074 86.9515L27.5909 84.9317L34.0165 91.5007L34.091 91.466L33.2045 82.2845L37.0442 80.4739L38.1646 94.4726L48.7038 104.708L44.4204 106.728L37.4796 99.6366L37.4061 99.6712L38.3661 109.583L34.5254 111.394L33.3651 96.7351L23.3085 86.9504L23.3074 86.9515ZM53.9367 109.642C61.4649 114.907 70.806 117.652 80.6433 116.756C100.451 114.954 115.641 99.0208 117.205 79.8055L134.22 71.781C136.804 103.171 113.562 130.933 82.1886 133.788C64.822 135.368 48.5349 128.989 36.9246 117.664L53.9377 109.641L53.9367 109.642ZM85.7188 87.6776C81.7312 89.5587 78.6175 88.3081 76.7869 84.4136L68.0605 65.8467L72.1226 63.931L80.979 82.7763C81.7963 84.5145 82.8653 84.7751 84.1578 84.1656C85.4502 83.5561 85.9318 82.5651 85.1145 80.8259L76.2581 61.9806L80.1723 60.1352L88.8986 78.7021C90.7293 82.5966 89.7075 85.7965 85.7188 87.6776ZM90.6768 92.3151C87.8401 94.7868 84.3214 96.5155 80.3989 97.1618L90.6768 92.3151ZM61.937 61.9932C65.3035 58.4833 69.8933 56.1198 75.101 55.6459C75.2174 55.6354 75.3328 55.628 75.4493 55.6217L61.937 61.9942V61.9932ZM74.9478 53.9519C68.0007 54.5845 62.0681 58.3214 58.3858 63.6683L53.7321 65.8636C57.4322 57.7823 65.2228 51.8396 74.6782 50.979C77.7783 50.6973 80.7986 50.9895 83.6406 51.7587L78.9837 53.955C77.6618 53.8384 76.3137 53.8279 74.9468 53.9529L74.9478 53.9519ZM58.645 70.2867L68.4498 91.1486L75.1335 87.9971L76.768 91.4744L66.0232 96.5417L54.5839 72.2035L58.646 70.2877L58.645 70.2867ZM76.2329 99.1269C77.1572 99.1584 78.093 99.1363 79.0382 99.0502C85.5384 98.4585 91.1468 95.1472 94.8574 90.3437L99.8521 87.9887C96.0072 95.6359 88.4297 101.194 79.3078 102.024C76.5393 102.276 73.8347 102.067 71.2624 101.471L76.2319 99.1279L76.2329 99.1269ZM92.0008 77.2393L91.3472 75.849L95.1879 74.0383L95.9726 75.7071C96.7899 77.4452 97.8966 77.688 99.1881 77.0785C100.481 76.469 100.999 75.4601 100.149 73.6516C99.2017 71.635 97.7844 70.7312 94.0958 69.7949C89.3749 68.5811 87.3355 67.1214 86.0283 64.3398C84.2312 60.5146 85.2897 57.2968 89.2406 55.4336C93.1915 53.5704 96.194 54.8724 98.0246 58.767L98.4988 59.7748L94.6581 61.5854L94.0696 60.3338C93.2523 58.5957 92.2032 58.2836 90.9108 58.892C89.6183 59.5016 89.1903 60.5104 89.975 62.1792C90.8079 63.952 92.262 64.8379 95.9506 65.7753C100.671 66.9901 102.657 68.4319 104.079 71.4563C105.942 75.4202 104.846 78.6558 100.858 80.5359C96.8706 82.4169 93.8304 81.1317 92.0008 77.2372V77.2393ZM91.3283 48.1332C86.1846 45.5144 80.2772 44.2576 74.119 44.8177C60.0686 46.0966 48.9713 56.4088 46.0129 69.5038L42.7628 71.037C45.2009 55.7268 57.7522 43.3874 73.8568 41.9225C81.364 41.2395 88.5335 43.027 94.5752 46.6031L91.3283 48.1342V48.1332ZM74.2732 46.5117C79.6236 46.0251 84.7736 46.9898 89.3497 49.0664L85.916 50.6858C82.3649 49.4478 78.5063 48.9224 74.525 49.285C63.7561 50.2654 55.0078 57.4229 51.4409 66.9439L47.9936 68.5696C51.2153 56.8019 61.445 47.6792 74.2732 46.5117ZM68.8841 102.593C72.2076 103.634 75.7829 104.052 79.461 103.718C89.9194 102.766 98.4663 95.9848 102.217 86.8737L105.767 85.1996C102.319 96.5953 92.2609 105.349 79.7128 106.491C74.6436 106.953 69.7538 106.111 65.3623 104.254L68.8841 102.593ZM79.867 108.184C93.651 106.93 104.595 96.9821 107.798 84.2413L111.095 82.687C108.383 97.662 95.98 109.639 80.1303 111.081C72.8801 111.741 65.9435 110.1 60.035 106.766L63.3428 105.206C68.3228 107.594 73.9816 108.72 79.868 108.184H79.867ZM80.2824 112.776C97.3259 111.225 110.578 98.0634 112.967 81.8043L115.415 80.6494C113.488 98.613 99.1251 113.366 80.4902 115.062C71.4176 115.888 62.7889 113.48 55.7232 108.799L58.1792 107.641C64.5933 111.542 72.2527 113.506 80.2824 112.776ZM110.073 75.767L98.6342 51.4287L102.696 49.513L114.135 73.8513L110.073 75.767ZM96.4111 45.7361C89.8764 41.5862 81.9851 39.474 73.7025 40.2275C56.4146 41.8006 43.0314 55.3212 40.9269 71.9019L38.5024 73.0452C40.1306 54.7695 54.6217 39.6579 73.4959 37.9408C82.817 37.0927 91.6745 39.6537 98.844 44.5896L96.4111 45.7372V45.7361ZM45.0781 76.2599C48.9923 74.4145 52.106 75.664 53.8706 79.4188L55.0802 81.9913L51.2394 83.802L49.9155 80.9856C49.1633 79.3862 48.0408 79.1088 46.8228 79.6836C45.6037 80.2584 45.1023 81.302 45.8545 82.9014L52.2434 96.4966C52.9956 98.096 54.1014 98.3387 55.3204 97.7639C56.5384 97.1891 57.0566 96.1802 56.3055 94.5808L54.5567 90.8607L58.3974 89.0501L60.0151 92.4927C61.7796 96.2475 60.7578 99.4485 56.8437 101.294C52.9295 103.139 49.8158 101.89 48.0513 98.1349L41.9067 85.0609C40.1422 81.3062 41.164 78.1052 45.0781 76.2599ZM105.576 48.1553L109.675 46.2227L121.206 63.849L121.28 63.8143L115.065 43.6806L118.794 41.9215L126.32 68.1061L120.928 70.6482L105.575 48.1553H105.576ZM100.603 43.7595C92.9817 38.2371 83.4234 35.3293 73.3417 36.2468C53.2978 38.0711 37.9758 54.3628 36.7221 73.8849L19.8192 81.8558C19.8129 81.8064 19.8066 81.757 19.8014 81.7065C16.9363 50.1183 40.2607 22.0841 71.7953 19.2152C89.3885 17.6137 105.872 24.1838 117.51 35.7865L100.602 43.7605L100.603 43.7595ZM21.2323 117.663L9.79307 93.325L20.8704 88.1011L22.5049 91.5785L15.4886 94.8866L18.5121 101.319L24.088 98.6897L25.7224 102.167L20.1465 104.796L23.6599 112.272L30.6762 108.964L32.3107 112.441L21.2334 117.665L21.2323 117.663ZM138.958 73.0862C140.296 97.6094 126.974 121.639 103.426 132.744C79.8785 143.849 52.9012 138.824 34.8852 122.166C34.0512 121.396 33.2392 120.597 32.445 119.778L34.5274 118.795C46.679 131.017 63.9639 137.946 82.4142 136.268C115.314 133.274 139.647 104.026 136.658 71.0717C136.646 70.9309 136.629 70.7922 136.615 70.6524L138.676 69.6814C138.801 70.8163 138.897 71.9523 138.959 73.0873L138.958 73.0862ZM134.387 38.8161L127.371 42.1243L130.394 48.5567L135.97 45.9274L137.605 49.4048L132.029 52.034L135.542 59.5089L142.558 56.2008L144.193 59.6781L133.116 64.902L121.676 40.5627L132.754 35.3388L134.388 38.8161H134.387ZM29.2107 69.4039C28.6882 69.3388 28.1553 69.4082 27.6696 69.6047C27.6171 69.6257 27.5657 69.6488 27.5143 69.673C27.2856 69.7812 27.0674 69.9199 26.8691 70.0839C26.2396 70.6146 25.8357 71.3975 25.7613 72.2361C25.6742 73.1051 25.9501 73.9637 26.5208 74.5953C27.08 75.2279 27.851 75.5968 28.6956 75.6335H28.727C29.1708 75.6493 29.6051 75.5726 30.0174 75.4055C30.073 75.3834 30.1265 75.3593 30.18 75.334C30.4507 75.2058 30.7025 75.0408 30.9385 74.8317C31.5302 74.2937 31.8995 73.5696 31.9803 72.7762C32.0516 71.9702 31.7988 71.1778 31.2658 70.5431C30.7434 69.9094 30.0132 69.5048 29.2096 69.405L29.2107 69.4039ZM32.3674 58.6335C32.3265 58.6115 32.2583 58.5747 32.1701 58.5379C32.1481 58.5284 32.1271 58.52 32.0988 58.5106C31.3959 58.2521 30.628 58.2647 29.9366 58.5442C29.8842 58.5652 29.8328 58.5883 29.7814 58.6125C29.1572 58.9068 28.6337 59.4196 28.3074 60.0554C28.2497 60.1678 28.1784 60.3076 28.1144 60.4967C27.8458 61.3122 27.9234 62.2107 28.3273 62.9621C28.7218 63.6966 29.4037 64.2452 30.1989 64.4659L30.2377 64.4764C30.9133 64.655 31.6099 64.612 32.2509 64.3524C32.3055 64.3303 32.36 64.3062 32.4135 64.2809C33.1836 63.9173 33.7784 63.249 34.0459 62.443C34.5442 60.9801 33.8361 59.3492 32.3873 58.643L32.3674 58.6325V58.6335Z" fill="#00ABC8"/>
</g>
<defs>
<clipPath id="clip0_1279_3669">
<rect width="154" height="153" fill="white"/>
</clipPath>
</defs>
</svg>
