<svg width="1440" height="362" viewBox="0 0 1440 362" fill="none" xmlns="http://www.w3.org/2000/svg">
<g clip-path="url(#clip0_1272_2993)">
<rect width="1440" height="362" fill="white"/>
<g clip-path="url(#clip1_1272_2993)">
<path opacity="0.75" d="M1215.14 27.7437C1222.93 27.7437 1229.25 34.0287 1229.25 42.1636V620.595C1229.25 627.971 1222.93 634.256 1215.14 634.256H225.86C218.067 634.256 211.752 627.971 211.752 620.595V42.1636C211.752 34.0287 218.067 27.7437 225.86 27.7437H1215.14ZM1215.14 26H225.86C216.97 26 210 33.1038 210 42.1636V620.595C210 624.651 211.653 628.502 214.654 631.436C217.671 634.378 221.647 636 225.86 636H1215.14C1219.35 636 1223.33 634.378 1226.35 631.436C1229.35 628.502 1231 624.651 1231 620.595V42.1636C1231 33.0962 1224.03 26 1215.14 26Z" fill="#F3F3F5"/>
<path opacity="0.5" d="M225.86 37.7437H1215.14C1217.28 37.7437 1219.25 39.4219 1219.25 42.1636V620.595C1219.25 622.227 1217.63 624.256 1215.14 624.256H225.86C223.366 624.256 221.752 622.227 221.752 620.595V42.1636C221.752 39.4218 223.719 37.7437 225.86 37.7437Z" fill="#F3F3F5" stroke="#D2D2D2" stroke-width="20"/>
<path opacity="0.25" d="M1215.14 27.7437H225.86C218.067 27.7437 211.752 34.0287 211.752 41.7845V150.5H1229.25V41.7845C1229.25 34.0287 1222.93 27.7437 1215.14 27.7437Z" fill="#F3F3F5"/>
<circle cx="720" cy="38" r="5" fill="#D9D9D9"/>
</g>
<path d="M152.843 312.137C158.363 315.07 160.011 317.496 160.011 322.953V351.338C160.011 354.552 157.653 357.052 154.463 357.903C152.785 358.35 150.898 358.598 147.654 358.851C146.093 358.973 145.403 359.663 145.155 360.514C144.917 361.322 145.636 361.725 146.162 361.725H177.479C178.004 361.725 178.724 361.322 178.486 360.514C178.238 359.663 177.542 358.973 175.986 358.851C172.743 358.598 170.851 358.35 169.178 357.903C165.988 357.052 163.629 354.552 163.629 351.338V322.953C163.629 317.492 165.273 315.07 170.797 312.137C181.632 306.38 185.552 297.334 185.552 289.772C185.552 282.78 183.436 276.326 179.21 267.933H144.45C140.219 276.331 138.108 282.784 138.108 289.772C138.108 297.334 142.028 306.38 152.863 312.137H152.843Z" fill="white"/>
<path d="M177.475 362.82H146.157C145.462 362.82 144.786 362.494 144.387 361.964C144.012 361.468 143.91 360.845 144.1 360.208C144.343 359.377 145.116 357.952 147.567 357.762C150.84 357.509 152.635 357.261 154.181 356.848C157.06 356.079 158.918 353.92 158.918 351.338V322.953C158.918 317.968 157.502 315.848 152.333 313.1C138.493 305.747 137 294.334 137 289.773C137 283.023 138.872 276.55 143.458 267.437C143.643 267.067 144.022 266.834 144.436 266.834H179.196C179.61 266.834 179.989 267.067 180.174 267.437C184.764 276.55 186.632 283.018 186.632 289.773C186.632 294.339 185.139 305.747 171.299 313.1C166.129 315.848 164.714 317.963 164.714 322.953V351.338C164.714 353.915 166.572 356.079 169.451 356.848C170.997 357.261 172.787 357.509 176.064 357.762C178.515 357.952 179.289 359.377 179.532 360.208C179.717 360.845 179.614 361.468 179.245 361.964C178.851 362.494 178.17 362.82 177.475 362.82ZM145.111 269.027C140.91 277.493 139.188 283.538 139.188 289.773C139.188 293.94 140.569 304.371 153.359 311.17C159.297 314.326 161.106 317.078 161.106 322.953V351.338C161.106 354.883 158.548 357.947 154.745 358.958C153.058 359.411 151.156 359.673 147.737 359.941C146.716 360.018 146.395 360.369 146.269 360.626H177.363C177.236 360.364 176.911 360.018 175.899 359.941C172.48 359.673 170.579 359.411 168.891 358.958C165.084 357.942 162.531 354.878 162.531 351.338V322.953C162.531 317.078 164.34 314.326 170.277 311.17C183.067 304.371 184.448 293.945 184.448 289.773C184.448 283.538 182.727 277.489 178.52 269.027H145.111Z" fill="#F3F3F5"/>
<path d="M143.074 296.61C145.666 303.496 151.647 307.537 154.332 308.699C157.269 309.969 159.379 310.489 161.626 310.489H162.005C164.247 310.489 166.363 309.969 169.295 308.699C171.979 307.537 177.966 303.496 180.553 296.61H143.069H143.074Z" fill="#00ABC8"/>
<path d="M210.524 224.356H204.645C204.158 224.356 203.759 224.749 203.759 225.241V230.473C203.759 231.402 204.98 231.125 204.98 232.024V256.286C204.98 258.815 203.784 261.202 201.761 262.72C196.956 266.318 193.63 270.413 193.63 277.712V355.997C193.63 358.37 194.427 360.398 196.071 360.806C198.177 361.331 203.492 361.716 210.524 361.652C217.556 361.716 222.871 361.331 224.977 360.806C226.62 360.398 227.418 358.37 227.418 355.997C227.418 355.987 227.418 277.712 227.418 277.712C227.418 270.413 224.092 266.318 219.287 262.72C217.264 261.202 216.068 258.82 216.068 256.286V232.024C216.068 231.125 217.288 231.402 217.288 230.473V225.241C217.288 224.754 216.894 224.356 216.403 224.356H210.524Z" fill="white"/>
<path d="M197.627 278.126V355.992C197.627 356.464 197.676 356.819 197.729 357.062C199.363 357.329 202.981 357.66 209.016 357.66C209.498 357.66 209.989 357.66 210.485 357.655H210.558C211.059 357.655 211.55 357.66 212.026 357.66C218.061 357.66 221.679 357.329 223.313 357.062C223.367 356.819 223.415 356.464 223.415 355.992V278.126H197.627Z" fill="#00ABC8"/>
<path d="M206.225 210.909V223.159V230.274H214.827V223.159V210.909H206.225Z" fill="white"/>
<path d="M214.827 231.188H206.22C205.714 231.188 205.311 230.78 205.311 230.279V210.909C205.311 210.408 205.719 210 206.22 210H214.827C215.333 210 215.737 210.408 215.737 210.909V230.274C215.737 230.775 215.328 231.183 214.827 231.183V231.188ZM207.134 229.364H213.918V211.824H207.134V229.364Z" fill="#F3F3F5"/>
<path d="M212.041 362.82C211.54 362.82 211.029 362.819 210.514 362.815C203.871 362.873 198.215 362.537 195.789 361.934C193.707 361.414 192.467 359.197 192.467 355.997V277.712C192.467 269.358 196.81 264.971 201.06 261.786C202.782 260.492 203.813 258.435 203.813 256.286V232.287C203.428 232.088 202.592 231.626 202.592 230.473V225.241C202.592 224.112 203.511 223.193 204.639 223.193H216.403C217.531 223.193 218.45 224.112 218.45 225.241V230.473C218.45 231.626 217.614 232.083 217.23 232.287V256.286C217.23 258.435 218.261 260.492 219.982 261.786C224.232 264.971 228.575 269.358 228.575 277.712V355.997C228.575 359.197 227.335 361.419 225.254 361.934C223.017 362.494 218.032 362.824 212.036 362.824L212.041 362.82ZM210.514 360.48C218.299 360.553 223.017 360.086 224.694 359.668C225.623 359.435 226.25 357.957 226.25 355.992V277.707C226.25 270.807 223.187 267.096 218.586 263.649C216.276 261.917 214.9 259.165 214.9 256.286V232.024C214.9 230.882 215.746 230.429 216.121 230.235V225.523H204.921V230.235C205.296 230.429 206.142 230.882 206.142 232.024V256.286C206.142 259.165 204.766 261.922 202.456 263.649C197.855 267.096 194.792 270.807 194.792 277.707V355.992C194.792 357.961 195.419 359.44 196.348 359.668C198.031 360.086 202.753 360.553 210.509 360.48H210.514Z" fill="#F3F3F5"/>
<path d="M204.98 232.024V251.846H216.072V232.024C216.072 231.125 217.293 231.402 217.293 230.473V225.241C217.293 224.754 216.899 224.356 216.408 224.356H204.644C204.158 224.356 203.759 224.749 203.759 225.241V230.473C203.759 231.402 204.98 231.125 204.98 232.024Z" fill="#F3F3F5"/>
<g clip-path="url(#clip2_1272_2993)">
<path d="M1313.59 282.526H1261.28C1260.18 285.258 1259.99 289.534 1260.04 290.199C1260.82 301.69 1268.94 305.966 1277.92 309.678C1282.93 311.749 1285.26 314.949 1285.25 319.752L1285.2 350.663C1285.19 354.242 1281.55 356.217 1278.49 357.245C1277.05 357.729 1275.47 358.038 1272.88 358.331C1270.46 358.608 1271.15 360.797 1272.44 360.797H1302.18C1303.47 360.797 1304.16 358.667 1301.75 358.379C1299.15 358.076 1297.58 357.767 1296.13 357.272C1293.08 356.233 1289.44 354.242 1289.45 350.663L1289.5 319.752C1289.51 314.949 1291.85 311.754 1296.87 309.704C1305.85 306.03 1313.99 301.781 1314.81 290.29C1314.86 289.619 1314.69 285.258 1313.6 282.521L1313.59 282.526Z" fill="white"/>
<path d="M1302.16 362H1272.43C1271.19 362 1270.13 360.983 1270.06 359.742C1270 358.608 1270.8 357.367 1272.73 357.144C1275.23 356.856 1276.75 356.569 1278.1 356.111C1280.79 355.205 1283.99 353.528 1283.99 350.663L1284.05 319.752C1284.06 315.439 1282.02 312.676 1277.46 310.791C1268.49 307.09 1259.67 302.452 1258.85 290.29C1258.79 289.427 1258.98 285.013 1260.17 282.084C1260.35 281.631 1260.79 281.339 1261.27 281.339H1313.59C1314.08 281.339 1314.52 281.637 1314.7 282.089C1315.87 285.039 1316.04 289.624 1315.99 290.386C1315.12 302.553 1306.28 307.159 1297.31 310.828C1292.73 312.697 1290.69 315.455 1290.68 319.768L1290.63 350.679C1290.63 353.549 1293.82 355.237 1296.5 356.148C1297.86 356.611 1299.37 356.904 1301.87 357.197C1303.8 357.426 1304.6 358.661 1304.53 359.78C1304.46 361.026 1303.42 362 1302.17 362H1302.16ZM1272.66 359.593L1301.78 359.604C1301.72 359.593 1301.66 359.583 1301.59 359.577C1298.91 359.263 1297.27 358.938 1295.74 358.416C1290.83 356.744 1288.24 354.071 1288.24 350.674L1288.3 319.763C1288.31 314.486 1290.96 310.838 1296.41 308.607C1305.37 304.944 1312.84 301.035 1313.62 290.215C1313.65 289.715 1313.52 286.253 1312.75 283.729H1262.12C1261.34 286.227 1261.2 289.629 1261.23 290.125C1261.97 300.94 1269.43 304.88 1278.37 308.57C1283.81 310.817 1286.45 314.475 1286.44 319.752L1286.39 350.663C1286.38 354.061 1283.78 356.728 1278.87 358.379C1277.34 358.896 1275.7 359.215 1273 359.519C1272.86 359.535 1272.74 359.561 1272.66 359.583V359.593Z" fill="#F3F3F5"/>
<path d="M1264.4 291.988C1265.07 295.902 1266.96 298.783 1270.37 301.254C1276.93 306.004 1283.36 307.196 1287.39 307.207C1291.42 307.212 1297.86 306.046 1304.43 301.318C1307.85 298.858 1309.75 295.902 1310.44 291.994H1264.39L1264.4 291.988Z" fill="#00ABC8"/>
<path d="M1249.84 278.958C1249.32 277.585 1248.81 276.163 1248.32 274.741C1247.88 273.468 1247.45 272.185 1247.05 270.928C1246.19 268.191 1245.41 265.47 1244.69 262.616C1244.34 261.2 1244.06 260.039 1243.82 258.969C1241.13 246.95 1240.67 237.052 1240.57 229.767C1240.56 229.394 1240.67 229.043 1240.87 228.782C1241.8 227.563 1242.3 226.098 1242.3 224.559V215.949C1242.3 212.115 1239.2 209 1235.38 209H1229.64C1225.82 209 1222.72 212.115 1222.72 215.949V224.559C1222.72 226.098 1223.21 227.557 1224.15 228.782C1224.34 229.043 1224.45 229.389 1224.44 229.767C1224.34 237.052 1223.88 246.95 1221.2 258.969C1220.96 260.039 1220.67 261.232 1220.32 262.616C1219.6 265.47 1218.83 268.186 1217.96 270.928C1217.56 272.18 1217.14 273.452 1216.7 274.72L1216.69 274.752C1216.2 276.173 1215.69 277.59 1215.18 278.964C1211.02 289.96 1211 304.166 1211 304.763V353.832C1211 361.079 1218.58 361.531 1221.82 361.728C1224.92 361.915 1228.3 362 1232.51 362C1236.73 362 1240.08 361.915 1243.17 361.728C1246.41 361.531 1253.99 361.079 1253.99 353.832V304.763C1253.99 304.161 1253.98 289.954 1249.83 278.953L1249.84 278.958Z" fill="#F3F3F5"/>
<path d="M1232.51 359.646C1228.36 359.646 1225.01 359.561 1221.96 359.38C1216.79 359.071 1213.34 358.006 1213.34 353.837V304.768C1213.34 304.182 1213.36 290.391 1217.35 279.8C1217.87 278.415 1218.39 276.978 1218.89 275.524C1219.34 274.214 1219.77 272.92 1220.17 271.647C1221.06 268.857 1221.84 266.093 1222.57 263.197C1222.93 261.791 1223.22 260.577 1223.46 259.491C1226.2 247.265 1226.67 237.201 1226.77 229.804C1226.78 228.904 1226.51 228.036 1225.99 227.355C1225.38 226.545 1225.05 225.582 1225.05 224.565V215.949C1225.05 213.414 1227.1 211.354 1229.62 211.354H1235.36C1237.89 211.354 1239.94 213.414 1239.94 215.949V224.559C1239.94 225.576 1239.61 226.54 1239 227.35C1238.48 228.026 1238.21 228.899 1238.22 229.799C1238.32 237.195 1238.79 247.254 1241.52 259.485C1241.77 260.577 1242.05 261.754 1242.41 263.191C1243.14 266.093 1243.93 268.857 1244.81 271.642C1245.22 272.915 1245.65 274.219 1246.1 275.508C1246.59 276.956 1247.11 278.399 1247.64 279.789C1251.64 290.407 1251.65 304.177 1251.64 304.757V353.832C1251.64 358.001 1248.2 359.066 1243.03 359.375C1239.98 359.556 1236.63 359.641 1232.51 359.641L1232.51 359.646Z" fill="white"/>
<path d="M1216.65 299.23C1216.43 302.383 1216.42 304.544 1216.42 304.763V353.832C1216.42 354.822 1216.42 355.946 1222.14 356.286C1225.14 356.467 1228.44 356.547 1232.51 356.547C1236.59 356.547 1239.85 356.462 1242.85 356.286C1248.57 355.94 1248.57 354.822 1248.57 353.832V304.752C1248.57 304.534 1248.57 302.377 1248.34 299.23H1216.65Z" fill="#00ABC8"/>
<path d="M1246.77 274.304C1246.43 273.309 1246.11 272.313 1245.79 271.333C1244.92 268.57 1244.13 265.827 1243.41 262.941C1243.05 261.519 1242.77 260.353 1242.52 259.262C1239.81 247.126 1239.34 237.137 1239.24 229.788C1239.23 229.117 1239.43 228.473 1239.81 227.978C1240.56 226.993 1240.96 225.811 1240.96 224.565V215.949C1240.96 212.85 1238.45 210.326 1235.36 210.326H1229.62C1226.54 210.326 1224.03 212.85 1224.03 215.949V224.559C1224.03 225.805 1224.42 226.987 1225.17 227.978C1225.55 228.473 1225.75 229.112 1225.75 229.783C1225.65 237.131 1225.18 247.121 1222.47 259.256C1222.22 260.353 1221.93 261.557 1221.58 262.941C1220.86 265.811 1220.08 268.559 1219.2 271.328C1218.9 272.281 1218.58 273.245 1218.25 274.209L1217.97 275.055L1218.75 275.487C1223.73 278.234 1228.41 280.093 1230.76 280.955C1231.35 281.174 1231.97 281.285 1232.59 281.285C1233.14 281.285 1233.7 281.195 1234.24 281.019C1236.99 280.114 1242.21 278.197 1246.33 275.55L1247.03 275.103L1246.76 274.31L1246.77 274.304Z" fill="#F3F3F5"/>
</g>
</g>
<defs>
<clipPath id="clip0_1272_2993">
<rect width="1440" height="362" fill="white"/>
</clipPath>
<clipPath id="clip1_1272_2993">
<rect width="1021" height="335" fill="white" transform="translate(210 26)"/>
</clipPath>
<clipPath id="clip2_1272_2993">
<rect width="105" height="153" fill="white" transform="translate(1211 209)"/>
</clipPath>
</defs>
</svg>
