<?xml version="1.0" encoding="UTF-8"?>
<svg width="617px" height="217px" viewBox="0 0 617 217" version="1.1" xmlns="http://www.w3.org/2000/svg" xmlns:xlink="http://www.w3.org/1999/xlink">
    <!-- Generator: Sketch 56.3 (81716) - https://sketch.com -->
    <title>Untitled</title>
    <desc>Created with Sketch.</desc>
    <g id="Page-1" stroke="none" stroke-width="1" fill="none" fill-rule="evenodd">
        <g id="giveindia-white" fill-rule="nonzero">
            <g id="Group" transform="translate(194.000000, 0.000000)" fill="#FFFFFF">
                <path d="M266.9,206.86 L262.88,206.86 L262.88,178.14 L266.9,178.14 L266.9,206.86 Z M306.7,201.1 L306.78,201.1 L306.78,178.14 L310.8,178.14 L310.8,206.86 L305.73,206.86 L290.56,183.41 L290.48,183.41 L290.48,206.86 L286.46,206.86 L286.46,178.14 L291.69,178.14 L306.7,201.1 Z M330.36,178.13 L340.22,178.13 C342.06,178.13 343.9,178.4 345.74,178.94 C347.58,179.48 349.24,180.33 350.73,181.5 C352.22,182.66 353.42,184.15 354.34,185.96 C355.26,187.77 355.72,189.95 355.72,192.49 C355.72,194.95 355.26,197.08 354.34,198.88 C353.42,200.68 352.22,202.17 350.73,203.34 C349.24,204.52 347.58,205.4 345.74,205.98 C343.9,206.56 342.06,206.85 340.22,206.85 L330.36,206.85 L330.36,178.13 Z M334.37,203.33 L339.4,203.33 C341.13,203.33 342.73,203.09 344.21,202.6 C345.68,202.11 346.96,201.41 348.03,200.49 C349.1,199.57 349.93,198.43 350.52,197.08 C351.12,195.73 351.41,194.2 351.41,192.5 C351.41,190.71 351.11,189.15 350.52,187.79 C349.92,186.44 349.09,185.31 348.03,184.4 C346.96,183.49 345.69,182.8 344.21,182.33 C342.74,181.86 341.13,181.62 339.4,181.62 L334.37,181.62 L334.37,203.33 Z M377.82,206.86 L373.8,206.86 L373.8,178.14 L377.82,178.14 L377.82,206.86 Z M398.55,206.86 L394.09,206.86 L406.55,178.14 L410.2,178.14 L422.53,206.86 L417.99,206.86 L415.07,199.8 L401.44,199.8 L398.55,206.86 Z M402.85,196.27 L413.6,196.27 L408.25,182.8 L402.85,196.27 Z" id="XMLID_319_"></path>
                <g>
                    <path d="M110.71,53.15 C108.52,51.01 105.45,49.93 101.49,49.93 C94.31,49.93 87.21,53.89 80.19,61.81 C71.85,53.14 60.79,48.81 47.01,48.81 C35.87,48.81 26.23,52.42 18.1,59.64 C9.97,66.87 5.9,75.63 5.9,85.95 C5.9,93.3 7.88,99.94 11.84,105.88 C15.8,111.82 21.7,117.11 29.55,121.73 C14.44,124.54 6.89,131.35 6.89,142.16 C6.89,147.77 9.53,152.35 14.81,155.9 C20.09,159.53 31.61,161.72 49.35,162.46 C64.78,163.12 75.51,165.1 81.54,168.4 C87.57,171.78 90.58,177.6 90.58,185.86 C90.58,193.37 87.21,199.54 80.49,204.37 C73.76,209.2 64.37,211.61 52.32,211.61 C38.78,211.61 28.61,209.24 21.8,204.49 C14.99,199.74 11.59,193.74 11.59,186.48 C11.59,180.21 14.15,174.26 19.27,168.65 C18.2,168.24 17,168.03 15.68,168.03 C10.81,168.03 7.05,169.64 4.41,172.86 C1.77,176.08 0.45,180.2 0.45,185.24 C0.45,194.32 5.07,201.83 14.32,207.77 C23.56,213.71 35.86,216.68 51.22,216.68 C67.98,216.68 80.81,213.34 89.72,206.65 C98.63,199.96 103.09,191.17 103.09,180.28 C103.09,172.52 100.9,165.83 96.53,160.22 C92.15,154.61 86.29,150.87 78.95,149.02 C71.6,147.16 61.12,145.9 47.5,145.24 C35.04,144.58 26.86,143.59 22.99,142.27 C19.03,141.03 17.05,138.89 17.05,135.83 C17.05,129.31 25.8,125.76 43.3,125.18 C60.14,124.6 72.1,120.47 79.2,112.8 C86.3,105.21 89.85,96.46 89.85,86.55 C89.85,78.96 87.7,71.77 83.41,65.01 C87.21,60.72 90.67,58.57 93.81,58.57 C95.79,58.57 97.69,60.14 99.51,63.27 C101.49,66.66 103.84,68.35 106.57,68.35 C111.52,68.35 114,65.63 114,60.18 C113.99,57.65 112.89,55.3 110.71,53.15 Z M63.91,112.27 C59.41,117.18 54.02,119.64 47.75,119.64 C40.98,119.64 35.41,117.16 31.04,112.21 C26.66,107.26 24.48,99.46 24.48,88.81 C24.48,77.34 26.38,68.75 30.17,63.06 C33.97,57.36 39.66,54.52 47.26,54.52 C53.29,54.52 58.69,56.83 63.48,61.45 C68.27,66.07 70.66,74.49 70.66,86.71 C70.65,98.84 68.4,107.36 63.91,112.27 Z" id="Shape"></path>
                    <path d="M170.67,48.82 L170.67,119.52 C170.67,130.33 170.84,137.14 171.17,139.95 C171.5,142.76 172.7,144.9 174.76,146.39 C176.82,147.88 180.5,148.62 185.78,148.62 L188.38,148.62 L188.38,154.31 L133.78,154.31 L133.78,148.62 L137.99,148.62 C143.85,148.62 147.67,147.77 149.44,146.08 C151.22,144.39 152.25,142.37 152.54,140.01 C152.83,137.66 152.97,130.83 152.97,119.52 L152.97,88.82 C152.97,76.93 152.41,69.67 151.3,67.03 C150.19,64.39 148.7,62.74 146.84,62.08 C144.98,61.42 141.74,61.09 137.12,61.09 L133.78,61.09 L133.78,55.4 C148.47,53.91 159.86,51.73 167.95,48.84 L170.67,48.84 L170.67,48.82 Z" id="XMLID_318_"></path>
                    <path d="M261.22,158.39 L254.04,158.39 L218.01,77.05 C214.46,69.21 211.65,64.22 209.59,62.07 C207.53,59.93 204.14,58.77 199.44,58.6 L199.44,52.9 L245.25,52.9 L245.25,58.6 C240.21,58.6 236.77,59.01 234.91,59.84 C233.05,60.67 232.12,62.23 232.12,64.55 C232.12,66.37 233.77,70.78 237.07,77.8 L264.43,139.33 L289.07,84.48 C292.95,75.73 294.89,70.04 294.89,67.39 C294.89,61.86 290.76,58.93 282.51,58.6 L282.51,52.9 L316.68,52.9 L316.68,58.6 C312.47,58.85 308.94,60.6 306.09,63.86 C303.24,67.12 299.26,74.45 294.14,85.84 L261.22,158.39 Z" id="XMLID_317_"></path>
                    <path d="M384.64,151.7 C373.58,151.7 365.26,147.22 359.69,138.27 C354.12,129.31 351.33,115.92 351.33,98.09 C351.33,95.7 351.49,92.07 351.82,87.2 L422.52,87.2 C422.11,77.79 418.27,69.04 411.01,60.95 C403.75,52.86 393.47,48.82 380.18,48.82 C366.07,48.82 354.3,54.12 344.9,64.73 C335.49,75.34 330.79,88.65 330.79,104.66 C330.79,115.97 333.22,125.58 338.09,133.51 C342.96,141.43 349.21,147.56 356.85,151.9 C364.48,156.23 372.59,158.4 381.18,158.4 C390.42,158.4 398.97,156.03 406.81,151.28 C414.65,146.53 419.89,139.95 422.53,131.53 L416.59,131.53 C410.31,144.98 399.66,151.7 384.64,151.7 Z M379.19,54.27 C385.38,54.27 390.6,56.27 394.85,60.27 C399.1,64.28 401.23,69.91 401.23,77.17 C401.23,78.66 401.11,80.35 400.86,82.25 L352.33,82.25 C355.21,63.6 364.17,54.27 379.19,54.27 Z" id="Shape"></path>
                    <circle id="Oval" cx="159.15" cy="10.14" r="10.03"></circle>
                </g>
            </g>
            <polygon id="Path" fill="#878787" points="115.57 86.22 77.15 64.04 77.15 108.41"></polygon>
            <polygon id="Path" fill="#D9DCE1" points="115.57 130.59 77.15 108.41 77.15 152.77"></polygon>
            <polygon id="Path" fill="#FFFFFF" points="154 108.41 115.57 86.22 115.57 130.59"></polygon>
            <polygon id="Path" fill="#616364" points="77.15 108.41 115.57 86.22 115.57 130.59"></polygon>
            <polygon id="Path" fill="#616364" points="38.73 130.59 0.31 108.41 0.31 152.77"></polygon>
            <polygon id="Path" fill="#616364" points="77.15 108.41 38.73 86.22 38.73 130.59"></polygon>
            <polygon id="Path" fill="#FFFFFF" points="0.31 108.41 38.73 86.22 38.73 130.59"></polygon>
            <polygon id="Path" fill="#878787" points="38.73 41.86 0.31 19.67 0.31 64.04"></polygon>
            <polygon id="Path" fill="#FFFFFF" points="77.15 64.04 38.73 41.86 38.73 86.22"></polygon>
            <polygon id="Path" fill="#FFFFFF" points="77.15 152.77 38.73 130.59 38.73 174.96"></polygon>
            <polygon id="Path" fill="#878787" points="38.73 174.96 0.31 152.77 0.31 197.14"></polygon>
            <polygon id="Path" fill="#D9DCE1" points="38.73 86.22 77.15 64.04 77.15 108.41"></polygon>
            <polygon id="Path" fill="#878787" points="38.73 130.59 77.15 108.41 77.15 152.77"></polygon>
            <polygon id="Path" fill="#D9DCE1" points="0.31 152.77 38.73 130.59 38.73 174.96"></polygon>
            <polygon id="Path" fill="#616364" points="0.31 64.04 38.73 41.86 38.73 86.22"></polygon>
        </g>
    </g>
</svg>