<svg xmlns="http://www.w3.org/2000/svg" xmlns:xlink="http://www.w3.org/1999/xlink" viewBox="0 0 1586 1669"><defs><style>.cls-1{fill:none;}.cls-2{isolation:isolate;}.cls-10,.cls-3{fill:#00acc8;}.cls-3{opacity:0.82;}.cls-3,.cls-8,.cls-9{mix-blend-mode:multiply;}.cls-4,.cls-5{opacity:0.77;}.cls-4{fill:url(#linear-gradient);}.cls-5{fill:url(#linear-gradient-2);}.cls-6{fill:#ff495c;}.cls-7{clip-path:url(#clip-path);}.cls-8,.cls-9{opacity:0.7;}.cls-8{fill:url(#linear-gradient-3);}.cls-9{fill:url(#linear-gradient-4);}</style><linearGradient id="linear-gradient" x1="-8066.71" y1="9845.83" x2="-6613.58" y2="9845.83" gradientTransform="translate(495.74 13274.47) rotate(144.7)" gradientUnits="userSpaceOnUse"><stop offset="0" stop-color="#00acc8" stop-opacity="0.9"/><stop offset="0.14" stop-color="#34bbd2" stop-opacity="0.85"/><stop offset="0.34" stop-color="#74cdde" stop-opacity="0.73"/><stop offset="0.59" stop-color="#b4e0e9" stop-opacity="0.6"/><stop offset="0.82" stop-color="#daebf1" stop-opacity="0.53"/><stop offset="1" stop-color="#e8eff3" stop-opacity="0.5"/></linearGradient><linearGradient id="linear-gradient-2" x1="224.15" y1="615.05" x2="1132.81" y2="615.05" gradientUnits="userSpaceOnUse"><stop offset="0.01" stop-color="#00acc8"/><stop offset="0.09" stop-color="#1ab3cd"/><stop offset="0.34" stop-color="#62c8da"/><stop offset="0.57" stop-color="#9cd9e5"/><stop offset="0.76" stop-color="#c5e5ed"/><stop offset="0.91" stop-color="#dfecf1"/><stop offset="1" stop-color="#e8eff3"/></linearGradient><clipPath id="clip-path"><path class="cls-1" d="M710.17,1090.39c-.92-.84-92.28-85.5-168.57-172.84-40.11-45.25-52.17-102-31.46-148,16.54-36.76,50.47-58.71,90.76-58.71,1.25,0,2.51,0,3.78.07,66.79,2.44,98.84,40.39,110.23,58.13,11.37-17.77,43.4-55.89,110.16-59.15,1.33,0,2.56-.06,3.79-.06,39.74,0,73.37,22,89.95,58.79,20.87,46.35,9.14,103-30.61,147.95-77.29,87.33-169.64,173-170.57,173.83l-3.73,3.45Z"/></clipPath><linearGradient id="linear-gradient-3" x1="464.98" y1="746.72" x2="1186.79" y2="746.72" gradientUnits="userSpaceOnUse"><stop offset="0" stop-color="#ff495c"/><stop offset="0.49" stop-color="#a05"/></linearGradient><linearGradient id="linear-gradient-4" x1="209.18" y1="972.76" x2="881.4" y2="972.76" xlink:href="#linear-gradient-3"/></defs><g class="cls-2"><g id="Layer_1" data-name="Layer 1"><path class="cls-3" d="M740.07,1271.48a6.18,6.18,0,1,0,6.19-6.19A6.18,6.18,0,0,0,740.07,1271.48Zm-18.53-92.71a6.18,6.18,0,1,0-6.18,6.19A6.18,6.18,0,0,0,721.54,1178.77Zm30.89,30.9a6.18,6.18,0,1,0-6.17,6.18A6.16,6.16,0,0,0,752.43,1209.67Zm-30.89,30.9a6.18,6.18,0,1,0-6.18,6.19A6.18,6.18,0,0,0,721.54,1240.57Zm-92.7-30.9a6.18,6.18,0,1,0-6.18,6.18A6.17,6.17,0,0,0,628.84,1209.67Zm30.89-30.9a6.18,6.18,0,1,0-6.17,6.19A6.16,6.16,0,0,0,659.73,1178.77Zm0,61.8a6.18,6.18,0,1,0-6.17,6.19A6.17,6.17,0,0,0,659.73,1240.57Zm-61.79,0a6.18,6.18,0,1,0-6.19,6.19A6.19,6.19,0,0,0,597.94,1240.57Zm0-61.8a6.18,6.18,0,1,0-6.19,6.19A6.18,6.18,0,0,0,597.94,1178.77Zm30.9,92.71a6.18,6.18,0,1,0-6.18,6.17A6.18,6.18,0,0,0,628.84,1271.48Zm61.8-61.81a6.18,6.18,0,1,0-6.19,6.18A6.17,6.17,0,0,0,690.64,1209.67Zm0,61.81a6.18,6.18,0,1,0-6.19,6.17A6.18,6.18,0,0,0,690.64,1271.48Zm-185.4-61.81a6.18,6.18,0,1,0-6.18,6.18A6.16,6.16,0,0,0,505.24,1209.67Zm-30.9-30.9a6.18,6.18,0,1,0-6.18,6.19A6.17,6.17,0,0,0,474.34,1178.77Zm61.8,0A6.18,6.18,0,1,0,530,1185,6.17,6.17,0,0,0,536.14,1178.77Zm-61.8,61.8a6.18,6.18,0,1,0-6.18,6.19A6.18,6.18,0,0,0,474.34,1240.57Zm61.8,0a6.18,6.18,0,1,0-6.18,6.19A6.18,6.18,0,0,0,536.14,1240.57Zm-30.9,30.91a6.18,6.18,0,1,0-6.18,6.17A6.17,6.17,0,0,0,505.24,1271.48ZM567,1209.67a6.18,6.18,0,1,0-6.17,6.18A6.15,6.15,0,0,0,567,1209.67Zm0,61.81a6.18,6.18,0,1,0-6.17,6.17A6.16,6.16,0,0,0,567,1271.48Zm-154.49-92.71a6.18,6.18,0,1,0-6.19,6.19A6.18,6.18,0,0,0,412.54,1178.77Zm0,61.8a6.18,6.18,0,1,0-6.19,6.19A6.19,6.19,0,0,0,412.54,1240.57Zm-30.89-30.9a6.19,6.19,0,1,0-6.2,6.18A6.17,6.17,0,0,0,381.65,1209.67Zm0,61.81a6.19,6.19,0,1,0-6.2,6.17A6.18,6.18,0,0,0,381.65,1271.48Zm61.79-61.81a6.19,6.19,0,1,0-6.18,6.18A6.16,6.16,0,0,0,443.44,1209.67Zm0,61.81a6.19,6.19,0,1,0-6.18,6.17A6.17,6.17,0,0,0,443.44,1271.48Zm309-185.4a6.18,6.18,0,1,0-6.17,6.18A6.18,6.18,0,0,0,752.43,1086.08ZM721.54,1117a6.18,6.18,0,1,0-6.18,6.18A6.19,6.19,0,0,0,721.54,1117Zm0-61.81a6.18,6.18,0,1,0-6.18,6.2A6.18,6.18,0,0,0,721.54,1055.17Zm30.89,92.7a6.18,6.18,0,1,0-6.17,6.2A6.18,6.18,0,0,0,752.43,1147.87Zm-123.59-61.79a6.18,6.18,0,1,0-6.18,6.18A6.18,6.18,0,0,0,628.84,1086.08Zm-30.9,30.9a6.18,6.18,0,1,0-6.19,6.18A6.19,6.19,0,0,0,597.94,1117Zm0-61.81a6.18,6.18,0,1,0-6.19,6.2A6.18,6.18,0,0,0,597.94,1055.17Zm61.79,0a6.18,6.18,0,1,0-6.17,6.2A6.17,6.17,0,0,0,659.73,1055.17Zm0,61.81a6.18,6.18,0,1,0-6.17,6.18A6.17,6.17,0,0,0,659.73,1117Zm-30.89,30.89a6.18,6.18,0,1,0-6.18,6.2A6.18,6.18,0,0,0,628.84,1147.87Zm61.8-61.79a6.18,6.18,0,1,0-6.19,6.18A6.19,6.19,0,0,0,690.64,1086.08Zm0,61.79a6.18,6.18,0,1,0-6.19,6.2A6.19,6.19,0,0,0,690.64,1147.87Zm-185.4-61.79a6.18,6.18,0,1,0-6.18,6.18A6.18,6.18,0,0,0,505.24,1086.08Zm-30.9-30.91a6.18,6.18,0,1,0-6.18,6.2A6.18,6.18,0,0,0,474.34,1055.17Zm61.8,0a6.18,6.18,0,1,0-6.18,6.2A6.18,6.18,0,0,0,536.14,1055.17ZM474.34,1117a6.18,6.18,0,1,0-6.18,6.18A6.18,6.18,0,0,0,474.34,1117Zm61.8,0a6.18,6.18,0,1,0-6.18,6.18A6.18,6.18,0,0,0,536.14,1117Zm-30.9,30.89a6.18,6.18,0,1,0-6.18,6.2A6.18,6.18,0,0,0,505.24,1147.87ZM567,1086.08a6.18,6.18,0,1,0-6.17,6.18A6.17,6.17,0,0,0,567,1086.08Zm0,61.79a6.18,6.18,0,1,0-6.17,6.2A6.17,6.17,0,0,0,567,1147.87Zm-185.38-61.79a6.19,6.19,0,1,0-6.2,6.18A6.19,6.19,0,0,0,381.65,1086.08Zm30.89-30.91a6.18,6.18,0,1,0-6.19,6.2A6.18,6.18,0,0,0,412.54,1055.17Zm0,61.81a6.18,6.18,0,1,0-6.19,6.18A6.19,6.19,0,0,0,412.54,1117Zm-30.89,30.89a6.19,6.19,0,1,0-6.2,6.2A6.19,6.19,0,0,0,381.65,1147.87Zm61.79-61.79a6.19,6.19,0,1,0-6.18,6.18A6.18,6.18,0,0,0,443.44,1086.08Zm0,61.79a6.19,6.19,0,1,0-6.18,6.2A6.18,6.18,0,0,0,443.44,1147.87Zm278.1-216.29a6.18,6.18,0,1,0-6.18,6.18A6.18,6.18,0,0,0,721.54,931.58Zm30.89,30.89a6.18,6.18,0,1,0-6.17,6.2A6.18,6.18,0,0,0,752.43,962.47Zm-30.89,30.91a6.18,6.18,0,1,0-6.18,6.19A6.19,6.19,0,0,0,721.54,993.38Zm30.89,30.89a6.18,6.18,0,1,0-6.17,6.19A6.17,6.17,0,0,0,752.43,1024.27ZM597.94,993.38a6.18,6.18,0,1,0-6.19,6.19A6.19,6.19,0,0,0,597.94,993.38Zm30.9-30.91a6.18,6.18,0,1,0-6.18,6.2A6.19,6.19,0,0,0,628.84,962.47Zm30.89-30.89a6.18,6.18,0,1,0-6.17,6.18A6.17,6.17,0,0,0,659.73,931.58Zm-61.79,0a6.18,6.18,0,1,0-6.19,6.18A6.19,6.19,0,0,0,597.94,931.58Zm61.79,61.8a6.18,6.18,0,1,0-6.17,6.19A6.18,6.18,0,0,0,659.73,993.38Zm-30.89,30.89a6.18,6.18,0,1,0-6.18,6.19A6.18,6.18,0,0,0,628.84,1024.27Zm61.8-61.8a6.18,6.18,0,1,0-6.19,6.2A6.19,6.19,0,0,0,690.64,962.47Zm0,61.8a6.18,6.18,0,1,0-6.19,6.19A6.18,6.18,0,0,0,690.64,1024.27Zm-185.4-61.8a6.18,6.18,0,1,0-6.18,6.2A6.18,6.18,0,0,0,505.24,962.47Zm30.9-30.89a6.18,6.18,0,1,0-6.18,6.18A6.18,6.18,0,0,0,536.14,931.58Zm-61.8,0a6.18,6.18,0,1,0-6.18,6.18A6.18,6.18,0,0,0,474.34,931.58Zm0,61.8a6.18,6.18,0,1,0-6.18,6.19A6.19,6.19,0,0,0,474.34,993.38Zm30.9,30.89a6.18,6.18,0,1,0-6.18,6.19A6.17,6.17,0,0,0,505.24,1024.27Zm30.9-30.89a6.18,6.18,0,1,0-6.18,6.19A6.19,6.19,0,0,0,536.14,993.38ZM567,962.47a6.18,6.18,0,1,0-6.17,6.2A6.18,6.18,0,0,0,567,962.47Zm0,61.8a6.18,6.18,0,1,0-6.17,6.19A6.16,6.16,0,0,0,567,1024.27Zm-185.38-61.8a6.19,6.19,0,1,0-6.2,6.2A6.19,6.19,0,0,0,381.65,962.47Zm30.89-30.89a6.18,6.18,0,1,0-6.19,6.18A6.19,6.19,0,0,0,412.54,931.58Zm-30.89,92.69a6.19,6.19,0,1,0-6.2,6.19A6.18,6.18,0,0,0,381.65,1024.27Zm30.89-30.89a6.18,6.18,0,1,0-6.19,6.19A6.19,6.19,0,0,0,412.54,993.38Zm30.9-30.91a6.19,6.19,0,1,0-6.18,6.2A6.18,6.18,0,0,0,443.44,962.47Zm0,61.8a6.19,6.19,0,1,0-6.18,6.19A6.17,6.17,0,0,0,443.44,1024.27Zm309-123.59a6.18,6.18,0,1,0-6.17,6.19A6.18,6.18,0,0,0,752.43,900.68Zm-123.59,0a6.18,6.18,0,1,0-6.18,6.19A6.18,6.18,0,0,0,628.84,900.68Zm61.8,0a6.18,6.18,0,1,0-6.19,6.19A6.19,6.19,0,0,0,690.64,900.68Zm-185.4,0a6.18,6.18,0,1,0-6.18,6.19A6.18,6.18,0,0,0,505.24,900.68Zm61.79,0a6.18,6.18,0,1,0-6.17,6.19A6.17,6.17,0,0,0,567,900.68Zm-185.38,0a6.19,6.19,0,1,0-6.2,6.19A6.19,6.19,0,0,0,381.65,900.68Zm61.79,0a6.19,6.19,0,1,0-6.18,6.19A6.18,6.18,0,0,0,443.44,900.68Z"/><path class="cls-4" d="M1437.26,642.92c141.16,198.71,178.66,489.78-34.63,598.12S1035,1483.88,914.37,1533.32c-58.71,24-371,243.11-694.3-103.53C50.46,1248-119.73,784.42,301.84,731,888.34,656.63,1090.35,154.56,1437.26,642.92Z"/><path class="cls-5" d="M944.3,514.39c258,15.7,203.8,230.49,114.62,312.54C923.37,948.21,750.36,1021.34,566.66,996.37,415.05,975,290.21,866.17,245.62,721.7,202.81,582.58,224.21,439.9,308,315.05,538.54,59.7,673.78,446.44,944.3,514.39Z"/><path class="cls-6" d="M710.17,1090.39c-.92-.84-92.28-85.5-168.57-172.84-40.11-45.25-52.17-102-31.46-148,16.54-36.76,50.47-58.71,90.76-58.71,1.25,0,2.51,0,3.78.07,66.79,2.44,98.84,40.39,110.23,58.13,11.37-17.77,43.4-55.89,110.16-59.15,1.33,0,2.56-.06,3.79-.06,39.74,0,73.37,22,89.95,58.79,20.87,46.35,9.14,103-30.61,147.95-77.29,87.33-169.64,173-170.57,173.83l-3.73,3.45Z"/><g class="cls-7"><path class="cls-8" d="M1181.55,51.93c-7.9-22.58-11.79-46.26-15.54-69.81-4.8-30.19-10.09-59.82-22.61-87.19C1020.4,33.08,844.81,247.84,685,507.49,560.81,699.14,530.65,871.26,530.65,871.26s-44.37,147.28-60.34,271.5c0,0-5.33,175.67-5.33,230.69,0,22.28,1.75,78.66,3.83,137.83,9.21,28.87,17.3,58.09,25.57,87.24C529.43,1435,612,1092.09,727.61,876.58c115.39-215,325.71-575.39,459.18-811.91A134.69,134.69,0,0,1,1181.55,51.93Z"/></g><g class="cls-7"><path class="cls-9" d="M881.4,221.54S840.17,72.48,852.29,3.28,881.4-188.41,881.4-188.41s-11.5,0-4.82-61.15c-17.92,6.09-31.31,17.41-42.17,36-13.35,22.91-28,43.52-53.42,53.88C745-145,705.82-152.1,668.17-150a120.11,120.11,0,0,0-13.39,1.56C606.54-68,603.6,25.25,606.35,116.9c1.3,43.52,3.71,87,3.27,130.58C609.23,286,608.54,327,597,364.1,578.56,422.89,533.07,460,478.12,483.66c-63.06,27.14-129.41,42.12-187.73,79.94-2.94,1.91-5.73,3.92-8.55,5.92-2.22,4.17-4.36,8.31-6.45,12.28C266.54,598.6,257,615.24,248,632.15c-1.19,36.91-2.12,71.93-2.12,91.57,0,55,14.56,317.64,14.56,317.64s-23.92,94.77-51.24,199.87c16.6,28.19,32.85,56.6,49.12,85C309.94,1337,368,1334,405.81,1375.81c26.27,29,40.27,69.72,53.13,106,14.28,40.29,25.44,81.6,37.14,122.69,2.49,8.72-.89,15.58-6.5,19.65,4.3,7.57,8.5,15.2,12.49,23,20.87,40.64,33.85,82.84,46.15,126.64a1945.43,1945.43,0,0,0,99.12,272.08c22.77,50.62,47.52,100.33,73.79,149.21q-.48-4.56-1-9.16c-2.24-18.56-3.79-35.07-4.88-49.76l13.37-12.35s46.09-51.47,80-106.47c34-24.85-15.76-63.88-15.76-63.88s0-32.83-18.19-46.14c-75.19-35.49-80-58.56-80-58.56l9.7-149.06s-17-165-17-209.39c31.53-102.92,118.85-448.94,118.85-448.94s-14.55-262.63-14.55-317.64S798.93,493,798.93,493C820.76,368.82,881.4,221.54,881.4,221.54Z"/></g><path class="cls-10" d="M979.06,77.18c-17.72,0-26.72-4.72-35.42-9.29s-17.2-9-34.36-9-25.51,4.39-34.36,9c-8.69,4.57-17.69,9.29-35.42,9.29s-26.72-4.72-35.42-9.29-17.19-9-34.35-9-25.52,4.39-34.36,9S717.68,77.18,700,77.18s-26.72-4.72-35.42-9.29-17.19-9-34.35-9a1.15,1.15,0,1,1,0-2.29c17.72,0,26.72,4.73,35.42,9.29s17.19,9,34.35,9,25.51-4.38,34.36-9C743,61.3,752,56.57,769.73,56.57s26.72,4.73,35.42,9.29,17.19,9,34.35,9,25.52-4.38,34.36-9,17.69-9.29,35.42-9.29S936,61.3,944.7,65.86s17.2,9,34.36,9,25.52-4.38,34.37-9,17.69-9.29,35.42-9.29a1.15,1.15,0,1,1,0,2.29c-17.16,0-25.52,4.39-34.36,9S996.79,77.18,979.06,77.18Z"/><path class="cls-10" d="M979.06,105.37c-17.72,0-26.72-4.73-35.42-9.29s-17.2-9-34.36-9-25.51,4.38-34.36,9c-8.69,4.56-17.69,9.29-35.42,9.29s-26.72-4.73-35.42-9.29-17.19-9-34.35-9-25.52,4.38-34.36,9-17.69,9.29-35.42,9.29-26.72-4.73-35.42-9.29-17.19-9-34.35-9a1.15,1.15,0,1,1,0-2.29c17.72,0,26.72,4.72,35.42,9.29s17.19,9,34.35,9,25.51-4.39,34.36-9c8.69-4.57,17.69-9.29,35.42-9.29s26.72,4.72,35.42,9.29,17.19,9,34.35,9,25.52-4.39,34.36-9,17.69-9.29,35.42-9.29S936,89.48,944.7,94.05s17.2,9,34.36,9,25.52-4.39,34.37-9,17.69-9.29,35.42-9.29a1.15,1.15,0,1,1,0,2.29c-17.16,0-25.52,4.38-34.36,9S996.79,105.37,979.06,105.37Z"/><path class="cls-10" d="M979.06,133.55c-17.72,0-26.72-4.72-35.42-9.29s-17.2-9-34.36-9-25.51,4.39-34.36,9c-8.69,4.57-17.69,9.29-35.42,9.29s-26.72-4.72-35.42-9.29-17.19-9-34.35-9-25.52,4.39-34.36,9-17.69,9.29-35.42,9.29-26.72-4.72-35.42-9.29-17.19-9-34.35-9a1.15,1.15,0,1,1,0-2.29c17.72,0,26.72,4.72,35.42,9.29s17.19,9,34.35,9,25.51-4.38,34.36-9c8.69-4.57,17.69-9.29,35.42-9.29s26.72,4.72,35.42,9.29,17.19,9,34.35,9,25.52-4.38,34.36-9,17.69-9.29,35.42-9.29,26.72,4.72,35.42,9.29,17.2,9,34.36,9,25.52-4.38,34.37-9,17.69-9.29,35.42-9.29a1.15,1.15,0,1,1,0,2.29c-17.16,0-25.52,4.39-34.36,9S996.79,133.55,979.06,133.55Z"/><path class="cls-10" d="M979.06,161.74c-17.72,0-26.72-4.73-35.42-9.3s-17.2-9-34.36-9-25.51,4.38-34.36,9c-8.69,4.57-17.69,9.3-35.42,9.3s-26.72-4.73-35.42-9.3-17.19-9-34.35-9-25.52,4.38-34.36,9-17.69,9.3-35.42,9.3-26.72-4.73-35.42-9.3-17.19-9-34.35-9a1.15,1.15,0,1,1,0-2.29c17.72,0,26.72,4.72,35.42,9.29s17.19,9,34.35,9,25.51-4.39,34.36-9c8.69-4.57,17.69-9.29,35.42-9.29s26.72,4.72,35.42,9.29,17.19,9,34.35,9,25.52-4.39,34.36-9,17.69-9.29,35.42-9.29,26.72,4.72,35.42,9.29,17.2,9,34.36,9,25.52-4.39,34.37-9,17.69-9.29,35.42-9.29a1.15,1.15,0,1,1,0,2.29c-17.16,0-25.52,4.38-34.36,9S996.79,161.74,979.06,161.74Z"/><path class="cls-10" d="M979.06,189.92c-17.72,0-26.72-4.72-35.42-9.29s-17.2-9-34.36-9-25.51,4.39-34.36,9c-8.69,4.57-17.69,9.29-35.42,9.29s-26.72-4.72-35.42-9.29-17.19-9-34.35-9-25.52,4.39-34.36,9-17.69,9.29-35.42,9.29-26.72-4.72-35.42-9.29-17.19-9-34.35-9a1.15,1.15,0,1,1,0-2.29c17.72,0,26.72,4.72,35.42,9.29s17.19,9,34.35,9,25.51-4.38,34.36-9c8.69-4.57,17.69-9.29,35.42-9.29s26.72,4.72,35.42,9.29,17.19,9,34.35,9,25.52-4.38,34.36-9,17.69-9.29,35.42-9.29S936,174,944.7,178.6s17.2,9,34.36,9,25.52-4.38,34.37-9,17.69-9.29,35.42-9.29a1.15,1.15,0,1,1,0,2.29c-17.16,0-25.52,4.39-34.36,9S996.79,189.92,979.06,189.92Z"/><path class="cls-10" d="M979.06,218.11c-17.72,0-26.72-4.73-35.42-9.3s-17.2-9-34.36-9-25.51,4.38-34.36,9c-8.69,4.57-17.69,9.3-35.42,9.3s-26.72-4.73-35.42-9.3-17.19-9-34.35-9-25.52,4.38-34.36,9-17.69,9.3-35.42,9.3-26.72-4.73-35.42-9.3-17.19-9-34.35-9a1.15,1.15,0,1,1,0-2.29c17.72,0,26.72,4.72,35.42,9.29s17.19,9,34.35,9,25.51-4.39,34.36-9c8.69-4.57,17.69-9.29,35.42-9.29s26.72,4.72,35.42,9.29,17.19,9,34.35,9,25.52-4.39,34.36-9,17.69-9.29,35.42-9.29,26.72,4.72,35.42,9.29,17.2,9,34.36,9,25.52-4.39,34.37-9,17.69-9.29,35.42-9.29a1.15,1.15,0,1,1,0,2.29c-17.16,0-25.52,4.38-34.36,9S996.79,218.11,979.06,218.11Z"/><path class="cls-10" d="M979.06,246.29c-17.72,0-26.72-4.72-35.42-9.29s-17.2-9-34.36-9-25.51,4.39-34.36,9c-8.69,4.57-17.69,9.29-35.42,9.29s-26.72-4.72-35.42-9.29-17.19-9-34.35-9-25.52,4.39-34.36,9-17.69,9.29-35.42,9.29-26.72-4.72-35.42-9.29-17.19-9-34.35-9a1.15,1.15,0,1,1,0-2.29c17.72,0,26.72,4.72,35.42,9.29s17.19,9,34.35,9,25.51-4.38,34.36-9c8.69-4.57,17.69-9.29,35.42-9.29s26.72,4.72,35.42,9.29,17.19,9,34.35,9,25.52-4.38,34.36-9,17.69-9.29,35.42-9.29S936,230.4,944.7,235s17.2,9,34.36,9,25.52-4.38,34.37-9,17.69-9.29,35.42-9.29a1.15,1.15,0,1,1,0,2.29c-17.16,0-25.52,4.39-34.36,9S996.79,246.29,979.06,246.29Z"/><path class="cls-10" d="M979.06,274.48c-17.72,0-26.72-4.73-35.42-9.3s-17.2-9-34.36-9-25.51,4.38-34.36,9c-8.69,4.57-17.69,9.3-35.42,9.3s-26.72-4.73-35.42-9.3-17.19-9-34.35-9-25.52,4.38-34.36,9-17.69,9.3-35.42,9.3-26.72-4.73-35.42-9.3-17.19-9-34.35-9a1.15,1.15,0,1,1,0-2.29c17.72,0,26.72,4.72,35.42,9.29s17.19,9,34.35,9,25.51-4.39,34.36-9c8.69-4.57,17.69-9.29,35.42-9.29s26.72,4.72,35.42,9.29,17.19,9,34.35,9,25.52-4.39,34.36-9,17.69-9.29,35.42-9.29,26.72,4.72,35.42,9.29,17.2,9,34.36,9,25.52-4.39,34.37-9,17.69-9.29,35.42-9.29a1.15,1.15,0,1,1,0,2.29c-17.16,0-25.52,4.38-34.36,9S996.79,274.48,979.06,274.48Z"/><path class="cls-10" d="M979.06,302.66c-17.72,0-26.72-4.72-35.42-9.29s-17.2-9-34.36-9-25.51,4.39-34.36,9c-8.69,4.57-17.69,9.29-35.42,9.29s-26.72-4.72-35.42-9.29-17.19-9-34.35-9-25.52,4.39-34.36,9-17.69,9.29-35.42,9.29-26.72-4.72-35.42-9.29-17.19-9-34.35-9a1.15,1.15,0,1,1,0-2.29c17.72,0,26.72,4.72,35.42,9.29s17.19,9,34.35,9,25.51-4.39,34.36-9c8.69-4.57,17.69-9.29,35.42-9.29s26.72,4.72,35.42,9.29,17.19,9,34.35,9,25.52-4.39,34.36-9,17.69-9.29,35.42-9.29,26.72,4.72,35.42,9.29,17.2,9,34.36,9,25.52-4.39,34.37-9,17.69-9.29,35.42-9.29a1.15,1.15,0,1,1,0,2.29c-17.16,0-25.52,4.39-34.36,9S996.79,302.66,979.06,302.66Z"/><path class="cls-10" d="M979.06,330.85c-17.72,0-26.72-4.73-35.42-9.3s-17.2-9-34.36-9-25.51,4.38-34.36,9c-8.69,4.57-17.69,9.3-35.42,9.3s-26.72-4.73-35.42-9.3-17.19-9-34.35-9-25.52,4.38-34.36,9-17.69,9.3-35.42,9.3-26.72-4.73-35.42-9.3-17.19-9-34.35-9a1.15,1.15,0,1,1,0-2.29c17.72,0,26.72,4.72,35.42,9.29s17.19,9,34.35,9,25.51-4.39,34.36-9c8.69-4.57,17.69-9.29,35.42-9.29s26.72,4.72,35.42,9.29,17.19,9,34.35,9,25.52-4.39,34.36-9,17.69-9.29,35.42-9.29S936,315,944.7,319.53s17.2,9,34.36,9,25.52-4.39,34.37-9,17.69-9.29,35.42-9.29a1.15,1.15,0,1,1,0,2.29c-17.16,0-25.52,4.38-34.36,9S996.79,330.85,979.06,330.85Z"/><path class="cls-10" d="M979.06,359c-17.72,0-26.72-4.72-35.42-9.29s-17.2-9-34.36-9-25.51,4.39-34.36,9c-8.69,4.57-17.69,9.29-35.42,9.29s-26.72-4.72-35.42-9.29-17.19-9-34.35-9-25.52,4.39-34.36,9S717.68,359,700,359s-26.72-4.72-35.42-9.29-17.19-9-34.35-9a1.15,1.15,0,1,1,0-2.29c17.72,0,26.72,4.72,35.42,9.29s17.19,9,34.35,9,25.51-4.39,34.36-9c8.69-4.57,17.69-9.29,35.42-9.29s26.72,4.72,35.42,9.29,17.19,9,34.35,9,25.52-4.39,34.36-9,17.69-9.29,35.42-9.29,26.72,4.72,35.42,9.29,17.2,9,34.36,9,25.52-4.39,34.37-9,17.69-9.29,35.42-9.29a1.15,1.15,0,1,1,0,2.29c-17.16,0-25.52,4.39-34.36,9S996.79,359,979.06,359Z"/><path class="cls-10" d="M979.06,387.21c-17.72,0-26.72-4.72-35.42-9.29s-17.2-9-34.36-9-25.51,4.39-34.36,9c-8.69,4.57-17.69,9.29-35.42,9.29s-26.72-4.72-35.42-9.29-17.19-9-34.35-9-25.52,4.39-34.36,9-17.69,9.29-35.42,9.29-26.72-4.72-35.42-9.29-17.19-9-34.35-9a1.15,1.15,0,1,1,0-2.29c17.72,0,26.72,4.73,35.42,9.3s17.19,9,34.35,9,25.51-4.38,34.36-9c8.69-4.57,17.69-9.3,35.42-9.3s26.72,4.73,35.42,9.3,17.19,9,34.35,9,25.52-4.38,34.36-9,17.69-9.3,35.42-9.3,26.72,4.73,35.42,9.3,17.2,9,34.36,9,25.52-4.38,34.37-9,17.69-9.3,35.42-9.3a1.15,1.15,0,1,1,0,2.29c-17.16,0-25.52,4.39-34.36,9S996.79,387.21,979.06,387.21Z"/><path class="cls-10" d="M979.06,415.4c-17.72,0-26.72-4.72-35.42-9.29s-17.2-9-34.36-9-25.51,4.38-34.36,9c-8.69,4.57-17.69,9.29-35.42,9.29s-26.72-4.72-35.42-9.29-17.19-9-34.35-9-25.52,4.38-34.36,9S717.68,415.4,700,415.4s-26.72-4.72-35.42-9.29-17.19-9-34.35-9a1.15,1.15,0,1,1,0-2.29c17.72,0,26.72,4.72,35.42,9.29s17.19,9,34.35,9,25.51-4.39,34.36-9c8.69-4.57,17.69-9.29,35.42-9.29s26.72,4.72,35.42,9.29,17.19,9,34.35,9,25.52-4.39,34.36-9,17.69-9.29,35.42-9.29,26.72,4.72,35.42,9.29,17.2,9,34.36,9,25.52-4.39,34.37-9,17.69-9.29,35.42-9.29a1.15,1.15,0,1,1,0,2.29c-17.16,0-25.52,4.38-34.36,9S996.79,415.4,979.06,415.4Z"/><path class="cls-10" d="M979.06,443.59c-17.72,0-26.72-4.73-35.42-9.3s-17.2-9-34.36-9-25.51,4.38-34.36,9c-8.69,4.57-17.69,9.3-35.42,9.3s-26.72-4.73-35.42-9.3-17.19-9-34.35-9-25.52,4.38-34.36,9-17.69,9.3-35.42,9.3-26.72-4.73-35.42-9.3-17.19-9-34.35-9a1.15,1.15,0,1,1,0-2.29c17.72,0,26.72,4.72,35.42,9.29s17.19,9,34.35,9,25.51-4.39,34.36-9C743,427.7,752,423,769.73,423s26.72,4.72,35.42,9.29,17.19,9,34.35,9,25.52-4.39,34.36-9S891.55,423,909.28,423s26.72,4.72,35.42,9.29,17.2,9,34.36,9,25.52-4.39,34.37-9,17.69-9.29,35.42-9.29a1.15,1.15,0,1,1,0,2.29c-17.16,0-25.52,4.38-34.36,9S996.79,443.59,979.06,443.59Z"/></g></g></svg>