<svg id="Layer_1" data-name="Layer 1" xmlns="http://www.w3.org/2000/svg" viewBox="0 0 365 92"><defs><style>.cls-1{fill:#fff;}</style></defs><path class="cls-1" d="M37.35,37.94l.13-.11a2.36,2.36,0,0,0,1.44-1.26,37.14,37.14,0,0,1,2.66-3.84c.17-.22.17-.22.21-.77a3.76,3.76,0,0,1,.57-.26.57.57,0,0,0,.47-.46,5.66,5.66,0,0,1,.13-.56c.16,0,.27-.08.4-.1A2.61,2.61,0,0,0,44.58,30a17,17,0,0,1,2.28-1.33,9,9,0,0,1,1.44-.47,13.36,13.36,0,0,1,3.5-.59,11,11,0,0,1,2.86.11,3.76,3.76,0,0,0,1.16.06,1.46,1.46,0,0,1,1,.22,1.62,1.62,0,0,0,1,.27c.16,0,.33.12.5.15a5.53,5.53,0,0,1,.83.11c.22.08.37.3.59.39a10,10,0,0,0,1.1.33,5.47,5.47,0,0,1,1.25.51c.5.31,1,.57,1.54.86.19.11.37.24.54.36s.57.44.88.64a6.61,6.61,0,0,1,1.4,1.28c.08.09.14.18.21.27.3.33.44.36,1,.24a.75.75,0,0,1,.2,0c.08.26.23.54-.09.82.1.14.2.29.31.43a2.48,2.48,0,0,1,.27.39c.3.8.93,1.47,1.29,2.25.25.54.48,1.08.7,1.63.12.3.18.62.27.93l1,3.37a.28.28,0,0,1,0,.12,23.24,23.24,0,0,1,.21,2.36c0,.47,0,.94-.06,1.41a9.31,9.31,0,0,1-.24,1.26c-.22.86-.46,1.71-.7,2.56-.08.31-.19.62-.29.95a3.87,3.87,0,0,1,.46.24,1.09,1.09,0,0,1,.33.35c.19.43.07.68-.44.88-.35.14-.73.23-1.1.34-.28.57-.54,1.15-.85,1.71-.2.37-.51.7-.7,1.07a6.09,6.09,0,0,1-.72,1c-.45.53-.81,1.09-1.22,1.64s-.67.86-1,1.28-.58.71-.89,1-.73.78-1.11,1.16a11,11,0,0,1-3.69,2.17.45.45,0,0,0-.14.06,3.36,3.36,0,0,1-1.58.63l-.74.14-1.22.19c-1.12.18-2.23.38-3.35.53a4.86,4.86,0,0,1-1.32,0,3.36,3.36,0,0,0-1.38.06,1.52,1.52,0,0,1-1,0c-.61-.23-1.24-.43-1.82-.7a2.1,2.1,0,0,0-1.83-.12.84.84,0,0,1-1-.33.93.93,0,0,1-.15-.43c0-.27-.17-.43-.44-.56a14.25,14.25,0,0,1-3.46-2.65,4.67,4.67,0,0,1-.88-1.27,8.85,8.85,0,0,0-1.39-1.92,6.71,6.71,0,0,1-1.79-3.76c-.14-.91-.31-1.82-.46-2.73a18.6,18.6,0,0,1-.21-3.65c0-1.15.18-2.3.29-3.45a13,13,0,0,1,.38-2.14,11.77,11.77,0,0,1,1-2.81,4.73,4.73,0,0,0,.29-.6.49.49,0,0,0,0-.37C37.3,38.56,37.4,38.24,37.35,37.94Zm4.38,14.84a.74.74,0,0,0,.65-.23,1.88,1.88,0,0,0,.88-.22c.3-.12.6-.25.91-.35.94-.31,1.89-.6,2.84-.9a1.73,1.73,0,0,0,.34-.14c.14-.07.13-.17,0-.38-.47.15-1,.27-1.43.46a9.57,9.57,0,0,0-1.85.8c-.09.06-.25,0-.37.1-.45.18-1,.23-1.28.64a.74.74,0,0,0-.64.24l-.6.18C41.52,53,41.52,53,41.73,52.78ZM42,56.63c-.21.13-.45.22-.55.44l-.13,0s0,.05,0,.08,0,0,.06,0l.1-.07c.22-.12.46-.22.55-.44.14,0,.27,0,.28-.15Zm15.4-25.34c.13-.07.37,0,.4-.22-.36,0-.36,0-.4.22-.27-.13-.53,0-.8,0s-.46.07-.67.13c-1,.32-2.1.45-3.15.69l-3.06.7-1.27.3-.67.16c-1.09.32-2.19.63-3.28,1a1,1,0,0,0-.65.46,1.16,1.16,0,0,0,.35,0c.9-.34,1.88-.45,2.81-.72.54-.15,1.09-.25,1.64-.39,1-.24,2-.49,3.05-.75l3-.81,1.55-.41c.19-.05.32-.14.34-.31A1.16,1.16,0,0,0,57.41,31.29Zm6.75,10.28a6.19,6.19,0,0,1,1.21-.51,4.28,4.28,0,0,0,1-.49c-.1,0-.16-.06-.19,0-.57.22-1.15.45-1.72.69a.46.46,0,0,0-.28.36l-.13,0s0,0-.06,0l.06,0ZM55.77,60a1.38,1.38,0,0,0-.83.1,4.45,4.45,0,0,1-1.25.34,3,3,0,0,0-.52.13c-.7.22-1.38.49-2.09.68-1,.25-1.85.64-2.79,1a2.41,2.41,0,0,0-1.19.68.9.9,0,0,0,.16,0c1.51-.37,3-.81,4.46-1.32,1-.36,2-.74,3-1.12.35-.14.66-.34,1-.5.38.08.6-.13.93-.33C56.2,59.57,55.91,59.66,55.77,60ZM49.53,51l-.32.37a.63.63,0,0,0-.09.73,2.71,2.71,0,0,0,1.06,1.17,3.48,3.48,0,0,0,2.64.45.85.85,0,0,1,.23,0,3,3,0,0,0,1.38-.4,9.2,9.2,0,0,0,2.32-1.68,5,5,0,0,0,1.19-1.86c.2-.48.34-1,.56-1.46A6.32,6.32,0,0,0,59,45.93a3.85,3.85,0,0,0-.72-2.64c-.22-.28-.34-.62-.74-.79,0,0,0-.07-.08-.1a2.73,2.73,0,0,0-1.16-.82c-.4-.16-.81-.29-1.2-.47a1.24,1.24,0,0,0-1.17,0c-.37.2-.73.41-1.1.6A21,21,0,0,1,51,42.86a1,1,0,0,0-.4.38,10.79,10.79,0,0,0-1,2A9.46,9.46,0,0,0,49,47.17a7.39,7.39,0,0,0-.14,2.73.8.8,0,0,0,.34.61A1.8,1.8,0,0,1,49.53,51Zm1.09-10.12a1.84,1.84,0,0,0-1.41-.1,9.23,9.23,0,0,1-1.48.4,21,21,0,0,0-2.37.58c-1.1.31-2.19.66-3.27,1a9.19,9.19,0,0,1-1,.36,5,5,0,0,0-1.39.54,4.19,4.19,0,0,1-1.05.42c-.44.11-.88.24-1.31.39-.21.08-.44.17-.49.38s-.16.45.06.7l2-.76a5.42,5.42,0,0,1,.56-.22c.71-.19,1.33-.56,2.07-.7,1.39-.57,2.89-.93,4.32-1.42.78-.28,1.6-.49,2.35-.84l.27-.12a.68.68,0,0,1,.59,0c.16.1.3.28.53.2a1.66,1.66,0,0,0,.5-.3A7.16,7.16,0,0,0,50.62,40.91Zm.58-5.12a.83.83,0,0,0-.71,0c-.36.11-.72.23-1.09.32a18.78,18.78,0,0,0-1.87.4,30.85,30.85,0,0,0-3.07.85l-.15,0-4.92,1.38c-.21.06-.32.18-.24.26s.21.1.34.08.36,0,.53-.09l1.79-.43c1.12-.27,2.22-.58,3.35-.82,1.81-.37,3.58-.83,5.37-1.26a.66.66,0,0,0,.5-.37C51.08,36.06,51.13,35.94,51.2,35.79Zm15.33.46c.37.47,0,.76-.33,1.06.12.07.2.16.26.15a11.75,11.75,0,0,0,1.21-.22c.15,0,.26-.17.38-.26-.66-1.34-.93-1.74-1.46-2.12a7.14,7.14,0,0,0-2.1.6v1A3.93,3.93,0,0,0,66.53,36.25ZM64.71,33a1.85,1.85,0,0,1-.95.52L61.43,34l-.75.15a3.11,3.11,0,0,0-1.65.76,2.1,2.1,0,0,0,1.42,0,3.12,3.12,0,0,1,.53-.11c.85-.17,1.7-.36,2.56-.48a10.67,10.67,0,0,0,1.8-.39l.32-.15A1.9,1.9,0,0,0,64.71,33Zm-14,6.09a1.47,1.47,0,0,1,.72,1.35,5.13,5.13,0,0,0,1.6-.56,1.44,1.44,0,0,1,.6-.28,1.32,1.32,0,0,0,.79-.36c.18-.19.46-.33.62-.62a2.5,2.5,0,0,0-.49,0,6.09,6.09,0,0,0-.73.21,1,1,0,0,1-.81-.06.78.78,0,0,0-.5-.09C51.92,38.79,51.38,38.93,50.67,39.09ZM48.53,59.35a2.49,2.49,0,0,0-.65.27,18.67,18.67,0,0,1-2.05,1.16c-.67.4-1.38.76-2,1.19a1.18,1.18,0,0,1-.19.11.55.55,0,0,1-.58,0,.91.91,0,0,1-.44-.51c-.06-.18,0-.4-.32-.5a1,1,0,0,0-.29.08c-.22.1-.27.27-.1.42.36.3.72.61,1.09.9a3.17,3.17,0,0,0,.45.23c.29-.17.57-.29.8-.46a21.88,21.88,0,0,1,2.39-1.43c.54-.29,1.07-.6,1.61-.9C48.41,59.79,48.64,59.7,48.53,59.35ZM63,60.69a6.28,6.28,0,0,0-1.82.54c-.49.24-1,.46-1.49.69L58,62.67s0,.06,0,.1a.39.39,0,0,0,.15,0,25.57,25.57,0,0,0,3.25-.64,1.13,1.13,0,0,0,.41-.16A3.87,3.87,0,0,0,63,60.69ZM47.88,64.78c.21.11.33.18.47.24a1,1,0,0,0,.87,0c1.25-.56,2.52-1.1,3.77-1.65.1,0,.25-.07.19-.21a14.45,14.45,0,0,0-1.78.43,13.66,13.66,0,0,0-1.81.53C49.06,64.35,48.36,64.29,47.88,64.78ZM41.74,48.11a1.37,1.37,0,0,0,.3.06c1.58-.38,3.14-.83,4.64-1.35l.85.18c-.11-.35.23-.6,0-.91a.73.73,0,0,0-.25,0L46,46.57a6.13,6.13,0,0,1-.72.25c-1.08.29-2.1.69-3.14,1.06A3,3,0,0,0,41.74,48.11Zm9,6.82-1-.45c-.33.09-.45.31-.65.48s-.4.39-.61.57-.41.32-.63.47-.53.24-.66.57a2,2,0,0,0,.34-.09c1-.44,2.1-.89,3.14-1.35,0,0,.07-.06.09-.1S50.72,55,50.71,54.93Zm18.85-14a6.42,6.42,0,0,1-1.81.79c-.87.42-1.79.76-2.69,1.14-.09,0-.23.11-.15.28a3.92,3.92,0,0,0,.71-.22c.84-.43,1.82-.62,2.64-1.07a.43.43,0,0,1,.5.06A1.1,1.1,0,0,0,69,42l.93-.31C69.78,41.45,70,41.14,69.56,40.9Zm-6.3,15.41a3.23,3.23,0,0,0,1.44-.05c.62-.16,1.25-.3,1.87-.44a.64.64,0,0,0,.54-.49c0-.21-.14-.3-.32-.36-.39.1-.76.18-1.12.3a1.36,1.36,0,0,0-.59.29c-.24.31-.62.33-1,.43-.17,0-.36.06-.53.11S63.44,56.19,63.26,56.31Zm-8.63-1.46c-.33.07-.59.15-.86.18s-.62,0-.93.09a.39.39,0,0,0-.2.08l-1.41,1c-.13.1-.28.2-.17.41.15,0,.29-.07.43-.12.78-.33,1.55-.68,2.34-1A1.5,1.5,0,0,0,54.63,54.85ZM47.3,49.33c0-.54.06-1,.08-1.56,0-.22-.16-.31-.41-.2a1.26,1.26,0,0,0-.26.21l.46.61c-.23.23-.42.43-.63.62a.82.82,0,0,1-.36.23c-.65.1-1.09.58-1.75.66a.17.17,0,0,0-.1.32Zm21-3.59a1.32,1.32,0,0,0,.36,0c.14-.05.27-.13.4-.18a.73.73,0,0,1,.79,0l.14,0a.39.39,0,0,0,.48-.21,1,1,0,0,0-.08-.88c-.74.12-1.2.63-1.83.89C68.47,45.49,68.42,45.6,68.31,45.74ZM48.69,53.88c0-.19-.11-.3-.26-.25a7.12,7.12,0,0,0-.76.31l-1.81.85-1.3.55c-.08,0-.2.07-.1.21a7,7,0,0,0,1.12-.37,18,18,0,0,1,1.92-.8C47.9,54.23,48.28,54.05,48.69,53.88Zm13.84-9.79-.94.33a.89.89,0,0,0-.26.11.87.87,0,0,1-1,.11c-.06.31-.17.58.17.81l.51-.29c.19-.11.36-.24.55-.36l.5-.29C62.23,44.4,62.5,44.37,62.53,44.09Zm4.13-3.68a6.84,6.84,0,0,0,2.16-.64c.14-.07.34-.12.31-.36a.88.88,0,0,0-.28,0c-.16.07-.3.18-.46.24L67.31,40C67.05,40.09,66.77,40.15,66.66,40.41Zm-3.85,18.4c.4.09.65-.13.95-.15h1c.08-.12.18-.26.27-.41a.17.17,0,0,0,0-.17.26.26,0,0,0-.21,0,14.81,14.81,0,0,1-1.78.58C63,58.65,62.92,58.72,62.81,58.81Zm-11.58-.66c-.18,0-.24,0-.28,0l-1.62.72c-.11.06-.25.14-.19.33A6.44,6.44,0,0,0,51.23,58.15Zm18.08-7.6a2.37,2.37,0,0,0,.17-.38c0-.11-.11-.23-.22-.2-.37.1-.73.19-1.09.3,0,0-.06.11-.1.19ZM46.77,52.83s0,.05.06.05a1.14,1.14,0,0,0,1-.39s-.08-.19-.11-.19a3.5,3.5,0,0,0-.66.1C46.81,52.47,46.79,52.66,46.77,52.83Zm-7,3c-.12,0-.14-.07-.16-.06a5.72,5.72,0,0,0-1.34.84s0,.1.06.2ZM67.49,38.56a2.85,2.85,0,0,0,1-.25c.16-.07.16-.13,0-.4C68.22,38.15,67.81,38.19,67.49,38.56Zm-4.25,8.78a.8.8,0,0,0,.68-.2.19.19,0,0,0,0-.21.35.35,0,0,0-.24-.1A.46.46,0,0,0,63.24,47.34ZM40.47,59.71c.23-.16.43-.28.61-.43s.24-.11.12-.24c-.27.13-.54.24-.8.38S40.29,59.6,40.47,59.71ZM37.31,50a2.23,2.23,0,0,0-.37-.14c-.08,0-.22.05-.24.1s0,.19,0,.29a1.14,1.14,0,0,0,.27,0A1.82,1.82,0,0,0,37.31,50Zm.59,4.78a1.46,1.46,0,0,0-.26-.06c-.07,0-.16,0-.18.09a.14.14,0,0,0,.06.15.27.27,0,0,0,.2,0C37.79,55,37.83,54.87,37.9,54.79ZM48.86,43l-.09-.09a3.18,3.18,0,0,0-.33.09.11.11,0,0,0,0,.2.33.33,0,0,0,.25,0A1.08,1.08,0,0,0,48.86,43Zm14.35.73c.08,0,.14.07.16.06a1.64,1.64,0,0,0,.22-.14c-.05,0-.12-.07-.16,0A1,1,0,0,0,63.21,43.73Zm-15.1.94c-.1,0-.16-.09-.21-.09s-.1.07-.14.11.1.1.16.1S48,44.73,48.11,44.67ZM40.89,55.22l.11-.14s-.1-.06-.12,0a.53.53,0,0,0-.13.13Zm.57-19.79c0-.06,0-.12-.06-.12a.49.49,0,0,0-.2,0s0,.12.06.13S41.39,35.44,41.46,35.43Zm21.12.63c.05,0,.11,0,.13-.05s0-.06-.05-.1-.1,0-.12.05S62.57,36,62.58,36.06ZM65,39.51c-.07,0-.13-.07-.16,0a.74.74,0,0,0-.13.12s.09.05.12,0A.82.82,0,0,0,65,39.51ZM43.6,50.38l-.07-.08s-.06,0-.06,0a.44.44,0,0,0,0,.1ZM70,48.4l-.08-.09s-.09.06-.08.08.06.07.1.11ZM63.37,32.06s0,0,0-.05l-.05,0s0,0,0,.05ZM67,38.6s0,0,0,0h.07l0-.08ZM62.89,49.11v0l.06,0ZM40.73,53.26h.07l0-.06Zm.7,1.54v0h0Zm10.51,3s0,0,0,0h-.06v.06Z"/><path class="cls-1" d="M70.2,81.72a3.56,3.56,0,0,1-1,0,3.08,3.08,0,0,0-.61-.07c-.77,0-1.54,0-2.3,0s-1.41,0-2.11,0c-.43,0-.86,0-1.29,0-1.38,0-2.76,0-4.15,0-1.62,0-3.25-.09-4.87,0-1.06.07-2.14.07-3.21.1l-1.37.06c-.94,0-1.88.1-2.82.13s-1.72,0-2.58,0c-1.45,0-2.89,0-4.34-.06a11.72,11.72,0,0,1-1.19,0,1.61,1.61,0,0,1-1.12-.37,1.16,1.16,0,0,1-.33-.93c.06-.18-.07-.3-.42-.44-.7-.26-1-.57-.51-.92a1.53,1.53,0,0,1,.3-.25c.46-.21.49-.46.47-.72s0-.44,0-.66a.54.54,0,0,1,.35-.5A3.81,3.81,0,0,1,38,77c.74,0,1.47,0,2.2,0,1,0,2-.09,2.93-.11,1.23,0,2.43-.13,3.67-.1.21,0,.42,0,.63,0s.43,0,.64,0c1.76,0,3.48-.11,5.21-.2l3.2-.14c.49,0,1,0,1.47,0,1.36,0,2.71,0,4.06,0s2.64,0,3.95-.09c.67-.06,1.4,0,2.11,0h.27c.62.08,1.26.11,1.91.14a2,2,0,0,1,1,.22c.26.18.39.35.2.54s-.36.36-.53.55c0,0-.08.06-.08.1-.06.39-.34.77-.27,1.17a2.27,2.27,0,0,1,0,.45c0,.2,0,.39,0,.59s0,.56,0,.83v.46C70.51,81.48,70.51,81.48,70.2,81.72ZM57,80.65c.3-.08.3-.08.3-.24l-.27.25-.21.06s0,0,0,.06.19,0,.2,0S57,80.69,57,80.65Zm-4.75-2.07a1.39,1.39,0,0,0,.32,0l1.6-.74c.07,0,.23-.07.06-.14l-1.62.69a1.48,1.48,0,0,0-.33.24l-.53.17c-.15.06-.22.13-.15.21a2.71,2.71,0,0,0-1.06.21,11.89,11.89,0,0,1-1.62.64c-.68.2-1.1.49-1.76.69a5.63,5.63,0,0,0-.76.58,1.22,1.22,0,0,0,.76-.08,6.85,6.85,0,0,1,.76-.43c.72-.33,1.47-.64,2.2-1L51.56,79l.38-.14C52.11,78.75,52.26,78.68,52.23,78.58ZM59,78.39a1.91,1.91,0,0,0-.34,0,3.52,3.52,0,0,0-.52.19c-.45.19-.88.4-1.34.59s-1,.38-1.45.57-1.13.34-1.56.56-.61.33-.69.56h.52l.44,0,.38-.28a5.31,5.31,0,0,1,1.24-.67l1.77-.78L59,78.39l.39-.29C59,78.16,59,78.28,59,78.39Zm-9.24.08-.09,0a.9.9,0,0,0-.24,0c-1.12.33-2.11.71-3.21,1a5.28,5.28,0,0,0-.58.26,2.17,2.17,0,0,1-.53.24c-.52.12-.78.34-1.31.46a.68.68,0,0,0-.27.13l-.7.44a1.17,1.17,0,0,0-.16.15,3.88,3.88,0,0,0,1,0,.94.94,0,0,0,.48-.14A16.88,16.88,0,0,1,48,79.18Zm7.5-1.27s-.08.07-.07.1c0,.26-.31.43-.81.58a3.63,3.63,0,0,0-.48.21l-.68.32-1.68.8c-.06,0-.2.07,0,.13a33.19,33.19,0,0,0,5-2c.07,0,.07-.08.12-.13A7.22,7.22,0,0,0,57.28,77.2Zm10.27-.08c-.54-.11-.66-.11-1,0-.72.33-1.47.66-2.11,1a12.21,12.21,0,0,1-1.88.91c-.18.07-.32.16-.18.31a2.86,2.86,0,0,0,.36-.1c.75-.34,1.51-.69,2.24-1a23.44,23.44,0,0,1,2.29-1C67.4,77.21,67.46,77.16,67.55,77.12Zm-3.62.09-.3-.06c-.45,0-.75,0-.7.19s-.13.35-.46.44a2.91,2.91,0,0,0-.81.39c-.58.31-1.19.6-1.79.91-.06,0-.17.07,0,.11A18.94,18.94,0,0,0,63.93,77.21Zm4.88,1.24a1,1,0,0,0-.26.07,12,12,0,0,0-1.7,1.28s0,0,.06.08a1.42,1.42,0,0,0,.28-.07c.51-.23.82-.52,1.39-.75C68.94,78.91,69.12,78.7,68.81,78.45Zm-27.94,0c-.79.16-1,.24-1,.42A2.74,2.74,0,0,0,40.87,78.43Zm27.3,2.18a6.22,6.22,0,0,0,.74-.23c.14-.06.18-.15-.14-.27C68.68,80.3,68.05,80.32,68.17,80.61Zm-8.51.24c.45,0,.46,0,.52-.17a.64.64,0,0,0-.16-.06Zm-1.94-.56.2-.11a0,0,0,0,0,0,0,.45.45,0,0,0-.16,0C57.61,80.17,57.55,80.22,57.72,80.29Zm5.57.39-.17.11.21,0c.14,0,.18,0,.13-.1ZM54.9,77.29l-.21.09s0,0,.06.05l.24-.07Zm-3,.25a.74.74,0,0,0,.13-.08l-.11,0a.52.52,0,0,0-.15.07Zm-2.84,0H49l0,0H49S49,77.58,49.05,77.57Zm16.08,1.87-.09,0h.06Z"/><path class="cls-1" d="M18.93,31.29H12.38V27.46h6.55V23c0-4.79,2.95-7.73,8.11-7.73h5.3v4H27.48c-2.95,0-4.27,1.32-4.27,4.34v3.91h10v3.83h-10V66.51H18.93Z"/><path class="cls-1" d="M79.05,53.17V27.46h4.28v24.9c0,7.44,3.53,11.27,10.61,11.27,6.55,0,11-4.56,11-11.27V27.46h4.27V66.51h-4.12V61.72H105c-2.43,3.68-7,5.89-12.16,5.89C84.14,67.61,79.05,62.31,79.05,53.17Z"/><path class="cls-1" d="M119.72,27.46h4.13v4.79H124a14.49,14.49,0,0,1,11.93-5.9c8.92,0,14.59,5.68,14.59,14.59V66.51h-4.27V41.6c0-7-4.05-11.27-10.76-11.27S124,35,124,41.6V66.51h-4.28Z"/><path class="cls-1" d="M159,47c0-12.15,7.22-20.63,17.39-20.63a14.58,14.58,0,0,1,12.23,6h.15V12.72H193V66.51h-4.12V61.64h-.15c-2.58,3.76-7.15,6-12.38,6C166.21,67.61,159,59.21,159,47Zm29.77,4.87V42c0-6.41-5.45-11.64-12.38-11.64-7.73,0-13.11,6.78-13.11,16.65s5.38,16.65,13.41,16.65A12,12,0,0,0,188.76,51.85Z"/><path class="cls-1" d="M202,56.78c0-6.56,3.91-10,14-12.38,7.81-2,10.39-3.75,10.39-7.22,0-4.27-3.39-6.92-8.92-6.92-5.89,0-10.09,3.53-11.05,9.35l-4.27-.81c1.18-7.59,7.15-12.45,15.32-12.45,8.4,0,13.49,4.5,13.49,11.86v28.3h-4V61.42h-.15c-2.06,3.69-6.93,6.19-12.23,6.19C206.81,67.61,202,63.49,202,56.78Zm24.68-3.09V43.08h-.14c-1,2.13-3.61,3.53-9.36,4.93-7.88,2.07-10.9,4.35-10.9,8.55,0,4.49,3,7.07,8.54,7.07C221.62,63.63,226.7,59.36,226.7,53.69Z"/><path class="cls-1" d="M247,31.29V58.77c0,2.65,1,3.76,4.2,3.76h3.16v4h-3.39c-6,0-8.25-2.14-8.25-7.81V31.29H237V27.46h5.74V18.91H247v8.55h9.5v3.83Z"/><path class="cls-1" d="M263.1,15.08h5.6v5.45h-5.6Zm.66,12.38H268V66.51h-4.28Z"/><path class="cls-1" d="M318.8,27.46h4.13v4.79h.14A14.5,14.5,0,0,1,335,26.35c8.91,0,14.59,5.68,14.59,14.59V66.51h-4.28V41.6c0-7-4.05-11.27-10.75-11.27S323.07,35,323.07,41.6V66.51H318.8Z"/><path class="cls-1" d="M279.88,28.74c.41.05.89.09,1.35.18a14.72,14.72,0,0,1,4.1,1.39,36.84,36.84,0,0,1,4.15,2.81c.82,1,1.81,1.75,2.56,2.78s1.19,1.86,1.76,2.8c.08.13.15.27.23.41a.68.68,0,0,0,.79.38,1.84,1.84,0,0,1,.93,0,.73.73,0,0,0,.93-.44,3.43,3.43,0,0,0,.23-.52,22.54,22.54,0,0,1,2.58-4.72c.6-.88,1.3-1.7,1.95-2.55l.2-.2a14.49,14.49,0,0,1,4.1-2.67,3,3,0,0,1,2,0,14.57,14.57,0,0,0,2.46.64,1.66,1.66,0,0,1,1.24.78,12.64,12.64,0,0,0,1.21,1.44,5.74,5.74,0,0,1,1.52,3.19,3.75,3.75,0,0,0,.16.64,6.17,6.17,0,0,1,.28,2.7,17.35,17.35,0,0,1-.29,2.15,12.83,12.83,0,0,1-.78,2.23c-.51,1.11-.94,2.27-1.4,3.4A23.69,23.69,0,0,1,309.83,50a3.78,3.78,0,0,1-.56.64,1.64,1.64,0,0,0-.56.85,1.19,1.19,0,0,1-.24.4L307,53.68a27.42,27.42,0,0,1-2.71,2.89c-.28.26-.54.53-.8.8l-2.08,2.06c-.11.11-.25.2-.35.32a20,20,0,0,1-2.42,2.36,40.2,40.2,0,0,1-3.29,2.69,6.76,6.76,0,0,0-.77.83c-.23.25-.45.52-.69.77a.49.49,0,0,1-.69.07,3.35,3.35,0,0,0-1.4-.52,1.88,1.88,0,0,1-.77-.32c-.91-.68-1.8-1.38-2.67-2.11a10.5,10.5,0,0,1-1-1,1.07,1.07,0,0,0-.82-.4h-.1c-1.35-.12-1.7-.48-2.17-2a1.37,1.37,0,0,1-.05-.28,2.45,2.45,0,0,0-.88-1.82c-.18-.17-.31-.4-.48-.58a3.36,3.36,0,0,0-1.13-1,1.39,1.39,0,0,1-.75-.81,6.42,6.42,0,0,0-1.24-1.77,46.92,46.92,0,0,1-3.54-4.42A35.82,35.82,0,0,1,274,46a15,15,0,0,1-1.44-4,4,4,0,0,0-.52-1.41,3.22,3.22,0,0,1-.34-.88,1.5,1.5,0,0,1,.15-1.27,5.28,5.28,0,0,0,.69-2.15,11.44,11.44,0,0,1,1.19-3.77,3.85,3.85,0,0,1,1.48-1.67,7.9,7.9,0,0,0,1.24-1,3.19,3.19,0,0,1,1.14-.66A8.7,8.7,0,0,1,279.88,28.74ZM312.53,36a7.35,7.35,0,0,1-.65.52c-.8.5-1.62,1-2.41,1.48a8.49,8.49,0,0,0-.9.68c-.06.05-.1.2-.06.25a.52.52,0,0,0,.28.2.65.65,0,0,0,.36-.05c.47-.2.93-.4,1.38-.61a5,5,0,0,1,1.77-.63c.44,0,.59-.25.61-.69A1.13,1.13,0,0,0,312.53,36Zm-4.22-2.67a1.58,1.58,0,0,0,.42.07,15.81,15.81,0,0,0,1.54-.4,3.34,3.34,0,0,0,.83-.45c.3-.22.26-.55-.06-.77a1,1,0,0,0-1.15,0,11.3,11.3,0,0,0-1,.74A1.39,1.39,0,0,0,308.31,33.37ZM294,44.79c0-.33-.28-.51-.47-.41a1.06,1.06,0,0,0-.31.21l-1.71,1.61a1.68,1.68,0,0,0-.27.37.19.19,0,0,0,0,.18.65.65,0,0,0,.23.13.32.32,0,0,0,.19,0,6.83,6.83,0,0,0,2.19-1.73A.89.89,0,0,0,294,44.79ZM289,35.66c-.63.3-.91,1-1.45,1.35a.91.91,0,0,0-.27.37,1.59,1.59,0,0,0,0,.44,3.69,3.69,0,0,0,.67-.29,7.48,7.48,0,0,0,.86-.74.84.84,0,0,1,.83-.31c.07,0,.15-.07.27-.13A1.33,1.33,0,0,0,289,35.66Zm3.77,5.4c-.11-.13-.19-.28-.31-.34a.4.4,0,0,0-.34.08c-.4.4-.79.81-1.17,1.22a.62.62,0,0,0-.12.26.25.25,0,0,0,.24.32.6.6,0,0,0,.27-.06c.4-.31.8-.62,1.17-1A1.93,1.93,0,0,0,292.8,41.06ZM310,45.84a.85.85,0,0,0,0-.23,1.06,1.06,0,0,0-.23-.37c-.15-.11-.3,0-.42.11s-.45.44-.66.67a.45.45,0,0,0,0,.66.44.44,0,0,0,.59.09A1.7,1.7,0,0,0,310,45.84ZM277.48,32.6a1.51,1.51,0,0,0-1,.67c-.11.11-.21.27,0,.39a.36.36,0,0,0,.33,0A1.13,1.13,0,0,0,277.48,32.6Zm7-.39c-.29,0-.43.16-.4.37a.33.33,0,0,0,.36.33c.2,0,.38-.21.31-.38S284.52,32.29,284.45,32.21Zm6.25,6.21c.06,0,.14,0,.16-.05A1.09,1.09,0,0,0,291,38s0-.15-.07-.15-.2,0-.23.06a1.28,1.28,0,0,0-.09.35S290.67,38.38,290.7,38.42Z"/><path class="cls-1" d="M310.26,81.39a3.55,3.55,0,0,1-1,0,3.18,3.18,0,0,0-.62-.07c-.76,0-1.53,0-2.3,0s-1.4,0-2.11,0h-1.28c-1.38,0-2.76,0-4.15,0-1.62,0-3.25-.09-4.88,0-1.05.06-2.14.06-3.21.1l-1.36.06c-.94,0-1.88.1-2.83.13s-1.72,0-2.58,0c-1.44,0-2.89,0-4.33,0-.4,0-.81,0-1.2,0a1.57,1.57,0,0,1-1.12-.38,1.13,1.13,0,0,1-.32-.93c.05-.17-.14-2.06-.17-2.32s0-.44,0-.67.07-.34.34-.5a4.41,4.41,0,0,1,1-.05c.75,0,1.48,0,2.21,0,1,0,1.95-.09,2.93-.11,1.22,0,2.42-.13,3.66-.11a4.57,4.57,0,0,0,.64,0l.63,0c1.76,0,3.49-.11,5.22-.19,1.06-.06,2.13-.11,3.2-.15.48,0,1,0,1.47,0h4.06c1.32,0,2.64,0,3.94-.09.68,0,1.41,0,2.11,0h.28c.62.08,1.26.11,1.9.14.42,0,.24,2.18.3,2.58a1.7,1.7,0,0,1,0,.45c0,.19,0,.39,0,.59s0,.55,0,.83a3.38,3.38,0,0,0,0,.45C310.56,81.15,310.56,81.15,310.26,81.39ZM297,80.32c.3-.08.3-.08.3-.24l-.27.25-.21.06s0,0,0,.06l.2,0S297.05,80.35,297,80.32Zm-4.75-2.07a2,2,0,0,0,.31,0l1.6-.74c.07,0,.23-.07.07-.15-.56.24-1.1.46-1.63.7a1.76,1.76,0,0,0-.33.24l-.52.17c-.16.06-.23.12-.15.21a2.71,2.71,0,0,0-1.06.21,12.43,12.43,0,0,1-1.62.64c-.68.19-1.1.48-1.77.68a7.78,7.78,0,0,0-.75.58,1.09,1.09,0,0,0,.76-.08,7.63,7.63,0,0,1,.76-.42c.71-.33,1.46-.65,2.2-1l1.46-.65.38-.14C292.16,78.42,292.32,78.35,292.29,78.25Zm6.79-.19a1.42,1.42,0,0,0-.35,0c-.19.06-.35.13-.51.19-.45.2-.88.41-1.35.6s-1,.38-1.44.57-1.13.34-1.56.56-.62.32-.69.56c.22,0,.37,0,.51,0s.29,0,.45,0l.37-.28a5.75,5.75,0,0,1,1.24-.67l1.78-.78,1.55-.72.39-.28C299,77.83,299.08,78,299.08,78.06Zm-9.25.08-.08-.06a1.57,1.57,0,0,0-.24,0c-1.13.32-2.12.71-3.22,1a3.76,3.76,0,0,0-.57.26,2.91,2.91,0,0,1-.53.24c-.53.12-.78.34-1.31.46a.68.68,0,0,0-.27.13l-.7.44a.8.8,0,0,0-.17.15,3.88,3.88,0,0,0,1,0,1,1,0,0,0,.49-.14A16.67,16.67,0,0,1,288,78.85Zm7.51-1.27s-.08.07-.08.1c0,.25-.3.43-.8.58a3.66,3.66,0,0,0-.48.2l-.68.32-1.68.81c-.07,0-.2.07,0,.13a33.05,33.05,0,0,0,5-2.05c.07,0,.08-.08.12-.13A6.42,6.42,0,0,0,297.34,76.87Zm10.26-.09c-.54-.1-.65-.1-1,0-.73.34-1.47.67-2.11,1a12.21,12.21,0,0,1-1.88.91c-.18.07-.32.16-.19.31l.37-.1,2.24-1a21.07,21.07,0,0,1,2.28-1A1.48,1.48,0,0,0,307.6,76.78Zm-3.61.1-.3-.06c-.46,0-.75,0-.7.19s-.14.35-.46.43a3.13,3.13,0,0,0-.82.4c-.57.3-1.19.6-1.78.9-.06,0-.18.07,0,.12A19.18,19.18,0,0,0,304,76.88Zm4.88,1.24a1.24,1.24,0,0,0-.27.07,11.1,11.1,0,0,0-1.7,1.28s0,0,.07.08a1.31,1.31,0,0,0,.27-.07c.51-.24.83-.52,1.39-.75C309,78.58,309.17,78.37,308.87,78.12Zm-27.94,0c-.8.15-1,.24-1,.41A2.58,2.58,0,0,0,280.93,78.1Zm27.3,2.18a5.94,5.94,0,0,0,.73-.23c.15-.07.19-.16-.14-.27C308.74,80,308.11,80,308.23,80.28Zm-8.51.24c.45,0,.46,0,.51-.17,0,0-.07,0-.15-.06Zm-2-.57a1.86,1.86,0,0,0,.2-.1s0,0,0,0a.47.47,0,0,0-.16,0C297.66,79.84,297.6,79.88,297.77,80Zm5.57.4-.16.1a.78.78,0,0,0,.21,0c.14,0,.18,0,.13-.1ZM295,77a1.17,1.17,0,0,0-.21.08s0,0,.06.06l.24-.07Zm-3,.24.12-.07s-.1,0-.11,0l-.14.06S291.89,77.18,292,77.2Zm-2.84,0H289l0,0h.07Zm16.08,1.86-.09,0s0,0,0,0S305.17,79.12,305.19,79.1Z"/></svg>