<?xml version="1.0" encoding="utf-8"?>
<!-- Generator: Adobe Illustrator 24.1.2, SVG Export Plug-In . SVG Version: 6.00 Build 0)  -->
<svg version="1.1" id="Layer_1" xmlns="http://www.w3.org/2000/svg" xmlns:xlink="http://www.w3.org/1999/xlink" x="0px" y="0px"
	 viewBox="0 0 404 349" style="enable-background:new 0 0 404 349;" xml:space="preserve">
<style type="text/css">
	.st0{fill:#223847;enable-background:new    ;}
	.st1{fill:#FFFFFF;}
	.st2{fill:#04AAC6;}
	.st3{fill:#EE4E5F;}
</style>
<rect x="0" y="0.29" class="st0" width="404" height="349"/>
<g>
	<g>
		<path class="st1" d="M93.92,161.07h-4.37v-2.56h4.37v-3c0-3.19,1.97-5.16,5.41-5.16h3.54v2.65h-3.24c-1.97,0-2.85,0.88-2.85,2.9
			v2.6h6.68v2.56h-6.68v23.49h-2.85V161.07z"/>
		<path class="st1" d="M134.01,175.67v-17.15h2.85v16.61c0,4.96,2.36,7.52,7.08,7.52c4.37,0,7.37-3.05,7.37-7.52v-16.61h2.85v26.04
			h-2.75v-3.19h-0.1c-1.62,2.46-4.67,3.93-8.11,3.93C137.4,185.3,134.01,181.76,134.01,175.67z"/>
		<path class="st1" d="M161.14,158.52h2.75v3.19h0.1c1.62-2.41,4.72-3.93,7.96-3.93c5.95,0,9.73,3.78,9.73,9.73v17.05h-2.85v-16.61
			c0-4.67-2.7-7.52-7.17-7.52c-4.52,0-7.67,3.1-7.67,7.52v16.61h-2.85V158.52z"/>
		<path class="st1" d="M187.33,171.54c0-8.11,4.82-13.76,11.6-13.76c3.49,0,6.49,1.57,8.16,4.03h0.1v-13.12h2.85v35.87h-2.75v-3.24
			h-0.1c-1.72,2.51-4.77,3.98-8.26,3.98C192.15,185.3,187.33,179.7,187.33,171.54z M207.18,174.78v-6.59c0-4.28-3.64-7.76-8.26-7.76
			c-5.16,0-8.75,4.52-8.75,11.11c0,6.63,3.59,11.11,8.94,11.11C203.55,182.65,207.18,179.11,207.18,174.78z"/>
		<path class="st1" d="M216.03,178.08c0-4.37,2.6-6.63,9.34-8.26c5.21-1.33,6.93-2.51,6.93-4.82c0-2.85-2.26-4.62-5.95-4.62
			c-3.93,0-6.73,2.36-7.37,6.24l-2.85-0.54c0.79-5.06,4.77-8.3,10.22-8.3c5.6,0,8.99,3,8.99,7.91v18.87h-2.7v-3.39h-0.1
			c-1.38,2.46-4.62,4.13-8.16,4.13C219.22,185.3,216.03,182.55,216.03,178.08z M232.49,176.01v-7.08h-0.1
			c-0.64,1.43-2.41,2.36-6.24,3.29c-5.26,1.38-7.27,2.9-7.27,5.7c0,3,2.01,4.72,5.7,4.72C229.1,182.65,232.49,179.8,232.49,176.01z"
			/>
		<path class="st1" d="M246.01,161.07v18.33c0,1.77,0.69,2.51,2.8,2.51h2.11v2.65h-2.26c-4.03,0-5.5-1.43-5.5-5.21v-18.28h-3.83
			v-2.56h3.83v-5.7h2.85v5.7h6.34v2.56H246.01z"/>
		<path class="st1" d="M256.77,150.26h3.73v3.64h-3.73V150.26z M257.21,158.52h2.85v26.04h-2.85V158.52z"/>
		<path class="st1" d="M293.92,158.52h2.75v3.19h0.1c1.62-2.41,4.72-3.93,7.96-3.93c5.95,0,9.73,3.78,9.73,9.73v17.05h-2.85v-16.61
			c0-4.67-2.7-7.52-7.17-7.52c-4.52,0-7.67,3.1-7.67,7.52v16.61h-2.85V158.52z"/>
	</g>
	<g>
		<path class="st1" d="M106.2,165.51c0.06-0.05,0.07-0.07,0.08-0.07c0.51-0.13,0.74-0.48,0.96-0.84c0.53-0.88,1.13-1.73,1.77-2.56
			c0.12-0.15,0.12-0.15,0.14-0.52c0.11-0.05,0.24-0.13,0.38-0.17c0.19-0.05,0.28-0.15,0.31-0.31c0.02-0.12,0.06-0.25,0.09-0.38
			c0.11-0.03,0.19-0.05,0.27-0.07c0.32-0.05,0.58-0.17,0.81-0.36c0.45-0.36,1.01-0.6,1.52-0.89c0.28-0.15,0.64-0.21,0.96-0.31
			c0.75-0.25,1.54-0.36,2.33-0.39c0.63-0.03,1.28-0.07,1.91,0.07c0.25,0.06,0.51,0.07,0.77,0.04c0.25-0.03,0.47,0.01,0.68,0.14
			c0.19,0.12,0.41,0.2,0.67,0.18c0.11-0.01,0.22,0.08,0.33,0.1c0.18,0.03,0.39,0.02,0.56,0.07c0.15,0.05,0.25,0.2,0.39,0.26
			c0.23,0.09,0.49,0.15,0.73,0.22c0.3,0.08,0.58,0.18,0.83,0.34c0.33,0.2,0.69,0.38,1.03,0.58c0.13,0.07,0.25,0.16,0.36,0.24
			c0.2,0.14,0.38,0.29,0.58,0.42c0.37,0.24,0.66,0.54,0.94,0.85c0.05,0.06,0.09,0.12,0.14,0.18c0.2,0.22,0.29,0.24,0.66,0.16
			c0.03-0.01,0.07,0,0.13,0.01c0.05,0.18,0.16,0.36-0.06,0.55c0.07,0.09,0.13,0.19,0.2,0.29c0.06,0.09,0.15,0.17,0.18,0.26
			c0.2,0.53,0.62,0.98,0.86,1.5c0.17,0.36,0.32,0.72,0.47,1.09c0.08,0.2,0.12,0.41,0.18,0.62c0.21,0.75,0.43,1.5,0.64,2.25
			c0.01,0.03,0.02,0.06,0.02,0.08c0.02,0.52,0.18,1.04,0.14,1.57c-0.02,0.31,0,0.63-0.04,0.94c-0.03,0.28-0.09,0.56-0.16,0.84
			c-0.15,0.57-0.3,1.14-0.46,1.71c-0.06,0.21-0.13,0.41-0.2,0.63c0.11,0.06,0.22,0.1,0.31,0.16c0.09,0.06,0.18,0.14,0.21,0.23
			c0.13,0.29,0.05,0.45-0.29,0.59c-0.23,0.09-0.48,0.15-0.73,0.22c-0.19,0.38-0.36,0.77-0.56,1.15c-0.13,0.24-0.34,0.46-0.47,0.71
			c-0.13,0.24-0.3,0.44-0.48,0.65c-0.29,0.35-0.54,0.73-0.81,1.09c-0.22,0.29-0.45,0.57-0.68,0.86c-0.19,0.24-0.39,0.47-0.6,0.7
			c-0.24,0.26-0.48,0.52-0.74,0.77c-0.66,0.67-1.55,1.07-2.46,1.45c-0.03,0.01-0.07,0.02-0.09,0.04c-0.28,0.26-0.67,0.34-1.05,0.42
			c-0.16,0.04-0.33,0.07-0.5,0.09c-0.27,0.04-0.54,0.08-0.81,0.13c-0.74,0.12-1.49,0.25-2.24,0.35c-0.29,0.04-0.59,0.03-0.88-0.01
			c-0.32-0.04-0.62-0.05-0.92,0.04c-0.23,0.07-0.44,0.06-0.66-0.02c-0.41-0.15-0.83-0.28-1.22-0.47c-0.41-0.2-0.78-0.25-1.22-0.08
			c-0.27,0.11-0.56,0-0.69-0.23c-0.05-0.09-0.1-0.19-0.1-0.28c0-0.18-0.11-0.29-0.29-0.37c-0.93-0.45-1.61-1.12-2.31-1.77
			c-0.27-0.25-0.43-0.55-0.59-0.85c-0.25-0.46-0.55-0.89-0.92-1.28c-0.7-0.74-1.06-1.59-1.2-2.51c-0.09-0.61-0.2-1.21-0.31-1.82
			c-0.14-0.81-0.16-1.62-0.14-2.43c0.02-0.77,0.13-1.54,0.2-2.3c0.05-0.48,0.12-0.95,0.25-1.43c0.17-0.64,0.36-1.28,0.7-1.88
			c0.07-0.13,0.14-0.26,0.2-0.4c0.03-0.08,0.06-0.18,0.02-0.25C106.16,165.92,106.23,165.71,106.2,165.51z M109.12,175.41
			c0.18,0.02,0.32-0.03,0.43-0.15c0.22,0.01,0.4-0.07,0.59-0.15c0.2-0.08,0.4-0.17,0.61-0.24c0.63-0.2,1.26-0.4,1.89-0.6
			c0.08-0.03,0.16-0.05,0.23-0.09c0.09-0.05,0.08-0.12-0.02-0.25c-0.32,0.1-0.65,0.18-0.96,0.31c-0.41,0.17-0.87,0.28-1.23,0.53
			c-0.06,0.04-0.17,0.04-0.24,0.07c-0.3,0.12-0.67,0.15-0.85,0.43c-0.19-0.04-0.31,0.05-0.43,0.15c-0.11,0.03-0.22,0.07-0.4,0.12
			C108.98,175.54,108.98,175.54,109.12,175.41z M109.31,177.97c-0.14,0.09-0.3,0.15-0.37,0.29c-0.03-0.01-0.06-0.02-0.09-0.02
			c-0.01,0-0.02,0.03-0.03,0.05c0.01,0,0.03,0.01,0.04,0c0.03-0.01,0.05-0.03,0.07-0.05c0.14-0.08,0.3-0.14,0.37-0.29
			c0.09,0.01,0.18,0.03,0.19-0.1C109.41,177.91,109.36,177.94,109.31,177.97z M119.58,161.07c0.09-0.05,0.25-0.01,0.27-0.15
			C119.61,160.91,119.61,160.91,119.58,161.07c-0.17-0.09-0.35-0.01-0.53,0c-0.15,0.03-0.31,0.05-0.45,0.09
			c-0.68,0.21-1.4,0.3-2.1,0.46c-0.68,0.16-1.36,0.31-2.05,0.47c-0.28,0.07-0.56,0.13-0.85,0.2c-0.15,0.04-0.3,0.07-0.44,0.11
			c-0.73,0.21-1.46,0.42-2.19,0.64c-0.17,0.05-0.33,0.12-0.44,0.31c0.11-0.01,0.18,0.01,0.23-0.01c0.6-0.23,1.26-0.3,1.88-0.48
			c0.36-0.1,0.73-0.17,1.09-0.26c0.68-0.17,1.36-0.33,2.03-0.5c0.67-0.17,1.34-0.36,2.01-0.54c0.34-0.09,0.69-0.18,1.03-0.27
			c0.13-0.03,0.21-0.09,0.23-0.2C119.22,161.16,119.4,161.11,119.58,161.07z M124.08,167.93c0.24-0.16,0.53-0.23,0.81-0.34
			c0.23-0.09,0.45-0.18,0.65-0.33c-0.06-0.02-0.1-0.04-0.12-0.04c-0.39,0.15-0.77,0.3-1.15,0.46
			C124.15,167.74,124.11,167.83,124.08,167.93c-0.03-0.01-0.06-0.02-0.08-0.02c-0.01,0-0.03,0.01-0.04,0.01
			c0.01,0,0.03-0.01,0.04-0.01C124.02,167.92,124.05,167.93,124.08,167.93z M118.48,180.21c-0.19-0.03-0.38-0.02-0.55,0.07
			c-0.26,0.13-0.54,0.18-0.83,0.23c-0.12,0.02-0.24,0.05-0.35,0.08c-0.46,0.15-0.92,0.33-1.39,0.45c-0.64,0.17-1.24,0.43-1.86,0.64
			c-0.29,0.1-0.61,0.2-0.8,0.45c0.04,0.01,0.08,0.04,0.1,0.03c1.01-0.25,2-0.54,2.97-0.88c0.68-0.24,1.36-0.49,2.03-0.75
			c0.23-0.09,0.44-0.22,0.66-0.33c0.25,0.05,0.4-0.09,0.62-0.22C118.77,179.94,118.58,179.99,118.48,180.21z M114.32,174.24
			c-0.09,0.11-0.15,0.18-0.21,0.25c-0.13,0.15-0.15,0.33-0.06,0.49c0.16,0.3,0.37,0.6,0.71,0.78c0.53,0.28,1.1,0.49,1.76,0.3
			c0.05-0.01,0.1-0.02,0.15-0.02c0.35,0.01,0.63-0.13,0.92-0.26c0.61-0.29,1.09-0.7,1.55-1.12c0.39-0.36,0.61-0.79,0.8-1.24
			c0.13-0.32,0.22-0.66,0.37-0.98c0.23-0.51,0.34-1.05,0.36-1.59c0.02-0.61-0.04-1.22-0.48-1.76c-0.15-0.19-0.23-0.41-0.49-0.53
			c-0.03-0.01-0.04-0.05-0.05-0.07c-0.2-0.24-0.46-0.42-0.78-0.54c-0.27-0.1-0.54-0.2-0.8-0.31c-0.28-0.13-0.53-0.11-0.78,0.03
			c-0.25,0.13-0.48,0.27-0.73,0.4c-0.44,0.23-0.79,0.55-1.27,0.74c-0.11,0.04-0.19,0.16-0.26,0.25c-0.31,0.42-0.49,0.88-0.69,1.33
			c-0.19,0.41-0.26,0.85-0.35,1.29c-0.13,0.61-0.2,1.21-0.1,1.83c0.03,0.16,0.07,0.29,0.23,0.41
			C114.2,173.97,114.24,174.11,114.32,174.24z M115.05,167.49c-0.35-0.16-0.63-0.16-0.94-0.06c-0.32,0.1-0.65,0.21-0.98,0.27
			c-0.54,0.09-1.06,0.23-1.58,0.38c-0.73,0.21-1.46,0.44-2.18,0.67c-0.23,0.07-0.43,0.19-0.66,0.24c-0.34,0.07-0.64,0.2-0.93,0.36
			c-0.22,0.12-0.45,0.21-0.7,0.27c-0.3,0.07-0.59,0.16-0.87,0.26c-0.14,0.05-0.29,0.11-0.33,0.25c-0.04,0.15-0.11,0.3,0.04,0.46
			c0.45-0.17,0.88-0.34,1.32-0.5c0.12-0.05,0.24-0.12,0.37-0.15c0.48-0.12,0.89-0.37,1.38-0.46c0.93-0.38,1.93-0.62,2.88-0.95
			c0.52-0.18,1.07-0.32,1.57-0.55c0.06-0.03,0.12-0.06,0.18-0.08c0.14-0.05,0.27-0.05,0.39,0.02c0.11,0.07,0.2,0.18,0.36,0.13
			c0.12-0.04,0.24-0.12,0.33-0.2C114.81,167.76,114.9,167.64,115.05,167.49z M115.44,164.07c-0.19-0.09-0.33-0.02-0.47,0.02
			c-0.24,0.08-0.48,0.16-0.73,0.21c-0.41,0.1-0.85,0.14-1.25,0.27c-0.67,0.22-1.41,0.28-2.05,0.57c-0.03,0.01-0.07,0.01-0.1,0.02
			c-1.09,0.31-2.19,0.62-3.28,0.92c-0.14,0.04-0.21,0.12-0.16,0.17c0.06,0.07,0.14,0.07,0.23,0.05c0.12-0.02,0.24-0.04,0.35-0.06
			c0.4-0.09,0.8-0.19,1.19-0.28c0.74-0.18,1.48-0.39,2.23-0.55c1.21-0.25,2.39-0.56,3.58-0.84c0.16-0.04,0.27-0.11,0.33-0.24
			C115.35,164.26,115.39,164.18,115.44,164.07z M125.66,164.39c0.25,0.31,0.02,0.5-0.22,0.7c0.08,0.05,0.13,0.11,0.18,0.1
			c0.27-0.04,0.54-0.08,0.8-0.14c0.1-0.02,0.17-0.12,0.25-0.17c-0.44-0.9-0.62-1.16-0.97-1.42c-0.5,0.05-0.96,0.21-1.4,0.4
			c0,0.23,0,0.45,0,0.66C124.78,164.64,125.21,164.5,125.66,164.39z M124.45,162.21c-0.18,0.17-0.37,0.3-0.64,0.35
			c-0.52,0.1-1.03,0.21-1.55,0.32c-0.17,0.03-0.33,0.07-0.5,0.1c-0.43,0.08-0.8,0.23-1.1,0.51c0.32,0.11,0.63,0.12,0.94,0.02
			c0.11-0.04,0.23-0.05,0.35-0.07c0.57-0.11,1.13-0.24,1.71-0.32c0.41-0.06,0.81-0.13,1.2-0.26c0.07-0.02,0.14-0.06,0.21-0.1
			C124.95,162.49,124.71,162.35,124.45,162.21z M115.09,166.27c0.38,0.27,0.48,0.56,0.48,0.9c0.39-0.11,0.77-0.15,1.06-0.37
			c0.11-0.08,0.26-0.16,0.4-0.18c0.22-0.03,0.39-0.1,0.53-0.24c0.12-0.13,0.31-0.22,0.42-0.41c-0.14,0-0.24-0.02-0.33,0
			c-0.17,0.04-0.33,0.09-0.49,0.14c-0.19,0.05-0.36,0.07-0.54-0.04c-0.08-0.05-0.23-0.08-0.34-0.06
			C115.92,166.07,115.56,166.17,115.09,166.27z M113.66,179.79c-0.17,0.07-0.33,0.1-0.44,0.18c-0.4,0.32-0.91,0.51-1.36,0.78
			c-0.45,0.27-0.92,0.5-1.35,0.79c-0.04,0.03-0.09,0.05-0.13,0.07c-0.13,0.07-0.27,0.06-0.39-0.01c-0.14-0.09-0.25-0.19-0.29-0.34
			c-0.03-0.12-0.02-0.27-0.21-0.33c-0.06,0.01-0.13,0.02-0.19,0.05c-0.15,0.07-0.18,0.19-0.07,0.28c0.24,0.21,0.48,0.41,0.73,0.61
			c0.08,0.06,0.2,0.1,0.3,0.15c0.19-0.11,0.38-0.19,0.53-0.3c0.5-0.36,1.04-0.66,1.59-0.96c0.36-0.19,0.72-0.4,1.07-0.6
			C113.58,180.08,113.73,180.02,113.66,179.79z M123.32,180.69c-0.35,0.03-0.91,0.21-1.21,0.36c-0.32,0.16-0.66,0.31-0.99,0.46
			c-0.38,0.17-0.76,0.33-1.14,0.5c-0.02,0.01-0.02,0.04-0.03,0.07c0.04,0.01,0.07,0.02,0.1,0.02c0.74-0.09,1.45-0.25,2.17-0.43
			c0.1-0.02,0.21-0.06,0.28-0.11C122.82,181.3,123.14,181.05,123.32,180.69z M113.22,183.41c0.14,0.07,0.22,0.12,0.31,0.16
			c0.2,0.09,0.38,0.07,0.58-0.02c0.83-0.38,1.68-0.73,2.52-1.1c0.06-0.03,0.16-0.05,0.12-0.14c-0.41,0.06-0.8,0.17-1.19,0.29
			c-0.4,0.12-0.85,0.18-1.21,0.35C114.01,183.12,113.54,183.08,113.22,183.41z M109.13,172.29c0.1,0.02,0.16,0.05,0.2,0.04
			c1.06-0.25,2.09-0.55,3.1-0.9c0.17,0.04,0.33,0.07,0.57,0.12c-0.08-0.24,0.15-0.4,0.03-0.61c-0.07,0-0.12-0.02-0.17,0
			c-0.3,0.11-0.59,0.22-0.89,0.33c-0.16,0.06-0.31,0.12-0.47,0.17c-0.72,0.19-1.4,0.46-2.09,0.71
			C109.31,172.17,109.24,172.23,109.13,172.29z M115.11,176.84c-0.22-0.1-0.45-0.2-0.67-0.3c-0.22,0.06-0.31,0.21-0.43,0.32
			c-0.14,0.12-0.27,0.26-0.41,0.38c-0.13,0.11-0.27,0.21-0.42,0.31c-0.15,0.1-0.35,0.16-0.44,0.38c0.11-0.03,0.17-0.04,0.23-0.06
			c0.7-0.3,1.4-0.6,2.1-0.9c0.03-0.01,0.04-0.04,0.06-0.07C115.12,176.9,115.12,176.88,115.11,176.84z M127.68,167.49
			c-0.32,0.3-0.8,0.34-1.2,0.53c-0.58,0.28-1.2,0.51-1.79,0.76c-0.06,0.03-0.15,0.07-0.1,0.18c0.16-0.05,0.34-0.07,0.48-0.14
			c0.56-0.28,1.21-0.42,1.76-0.72c0.11-0.06,0.23-0.05,0.33,0.04c0.04,0.04,0.1,0.07,0.16,0.1c0.2-0.07,0.39-0.13,0.61-0.21
			C127.83,167.85,127.94,167.65,127.68,167.49z M123.48,177.76c0.4,0.07,0.68,0.04,0.97-0.03c0.41-0.11,0.83-0.2,1.24-0.29
			c0.21-0.05,0.32-0.17,0.36-0.33c0.03-0.14-0.09-0.2-0.21-0.24c-0.26,0.07-0.51,0.12-0.75,0.2c-0.14,0.05-0.32,0.1-0.39,0.19
			c-0.16,0.21-0.42,0.22-0.65,0.28c-0.11,0.03-0.24,0.04-0.35,0.07C123.64,177.64,123.6,177.68,123.48,177.76z M117.73,176.79
			c-0.22,0.05-0.4,0.1-0.58,0.12c-0.2,0.03-0.41,0.03-0.62,0.05c-0.05,0-0.1,0.03-0.13,0.06c-0.32,0.22-0.63,0.44-0.94,0.66
			c-0.08,0.06-0.19,0.13-0.11,0.27c0.1-0.03,0.2-0.05,0.28-0.09c0.52-0.22,1.04-0.45,1.56-0.65
			C117.42,177.13,117.59,177.01,117.73,176.79z M112.84,173.11c0.02-0.36,0.04-0.7,0.05-1.04c0.01-0.15-0.11-0.2-0.27-0.13
			c-0.07,0.03-0.12,0.09-0.18,0.14c0.11,0.15,0.21,0.28,0.3,0.41c-0.15,0.15-0.28,0.28-0.42,0.41c-0.07,0.06-0.15,0.14-0.24,0.15
			c-0.43,0.07-0.73,0.39-1.17,0.44c-0.07,0.01-0.18,0.09-0.07,0.21C111.51,173.51,112.17,173.31,112.84,173.11z M126.85,170.71
			c0.12,0.01,0.19,0.03,0.24,0.02c0.1-0.03,0.18-0.08,0.27-0.12c0.18-0.07,0.35-0.12,0.52,0.01c0.02,0.02,0.06,0.03,0.09,0.04
			c0.14,0.04,0.29-0.03,0.32-0.14c0.06-0.19,0.07-0.39-0.05-0.59c-0.49,0.08-0.8,0.42-1.22,0.59
			C126.96,170.54,126.92,170.62,126.85,170.71z M113.76,176.14c-0.03-0.13-0.07-0.2-0.18-0.17c-0.17,0.06-0.34,0.13-0.5,0.21
			c-0.4,0.19-0.8,0.38-1.21,0.57c-0.28,0.13-0.58,0.25-0.87,0.37c-0.06,0.02-0.13,0.04-0.07,0.14c0.25-0.08,0.52-0.13,0.75-0.24
			c0.41-0.21,0.85-0.37,1.28-0.54C113.24,176.37,113.49,176.26,113.76,176.14z M122.99,169.61c-0.25,0.09-0.44,0.16-0.63,0.22
			c-0.06,0.02-0.13,0.04-0.17,0.08c-0.19,0.18-0.41,0.17-0.67,0.07c-0.04,0.21-0.11,0.39,0.12,0.54c0.12-0.07,0.23-0.13,0.34-0.2
			c0.12-0.08,0.24-0.16,0.36-0.24c0.11-0.07,0.23-0.13,0.34-0.2C122.79,169.82,122.97,169.8,122.99,169.61z M125.75,167.16
			c0.35-0.02,1.04-0.22,1.44-0.43c0.1-0.05,0.23-0.08,0.21-0.24c-0.06,0-0.13-0.02-0.18,0c-0.11,0.04-0.2,0.12-0.31,0.15
			c-0.24,0.09-0.48,0.15-0.72,0.24C126.01,166.94,125.82,166.98,125.75,167.16z M123.18,179.43c0.27,0.06,0.44-0.09,0.63-0.1
			c0.22-0.01,0.44,0,0.69,0c0.05-0.08,0.12-0.17,0.18-0.28c0.02-0.03,0.01-0.09-0.02-0.11c-0.03-0.02-0.1-0.04-0.14-0.03
			c-0.38,0.17-0.79,0.27-1.19,0.39C123.29,179.32,123.25,179.37,123.18,179.43z M115.46,178.99c-0.13-0.02-0.17-0.03-0.19-0.02
			c-0.36,0.16-0.72,0.32-1.08,0.48c-0.08,0.04-0.17,0.1-0.13,0.22C114.56,179.52,115.01,179.32,115.46,178.99z M127.52,173.92
			c0.05-0.1,0.09-0.18,0.11-0.26c0.02-0.07-0.07-0.15-0.15-0.13c-0.24,0.06-0.49,0.13-0.72,0.2c-0.03,0.01-0.04,0.07-0.07,0.13
			C126.96,173.88,127.21,173.9,127.52,173.92z M112.48,175.44c0.01,0.01,0.02,0.03,0.04,0.03c0.29,0.03,0.48-0.1,0.65-0.26
			c0.02-0.02-0.05-0.13-0.07-0.13c-0.15,0.01-0.31,0.02-0.45,0.07C112.51,175.2,112.5,175.33,112.48,175.44z M107.84,177.44
			c-0.08-0.03-0.1-0.05-0.11-0.04c-0.36,0.12-0.6,0.37-0.9,0.56c-0.01,0.01,0.02,0.07,0.04,0.13
			C107.2,177.87,107.51,177.67,107.84,177.44z M126.3,165.92c0.32-0.03,0.49-0.09,0.65-0.16c0.1-0.05,0.1-0.09-0.01-0.26
			C126.79,165.65,126.52,165.68,126.3,165.92z M123.47,171.78c0.21,0.03,0.34-0.05,0.45-0.13c0.04-0.03,0.05-0.11,0.03-0.14
			c-0.02-0.04-0.11-0.07-0.16-0.06C123.57,171.46,123.47,171.57,123.47,171.78z M108.28,180.03c0.15-0.1,0.29-0.19,0.41-0.29
			c0.05-0.04,0.16-0.07,0.08-0.16c-0.18,0.09-0.37,0.16-0.54,0.25C108.15,179.88,108.16,179.95,108.28,180.03z M106.18,173.56
			c-0.11-0.04-0.17-0.09-0.25-0.09c-0.05-0.01-0.15,0.03-0.16,0.06c-0.02,0.06,0,0.13,0.01,0.19c0.06,0,0.13,0.01,0.18-0.01
			C106.03,173.68,106.08,173.63,106.18,173.56z M106.56,176.75c-0.08-0.02-0.13-0.04-0.17-0.04c-0.04,0-0.1,0.03-0.12,0.05
			c-0.01,0.03,0.01,0.08,0.04,0.1c0.03,0.02,0.1,0.02,0.13,0.01C106.49,176.85,106.52,176.8,106.56,176.75z M113.88,168.88
			c-0.02-0.02-0.04-0.04-0.06-0.06c-0.07,0.02-0.15,0.03-0.22,0.06c-0.07,0.03-0.07,0.1-0.01,0.13c0.04,0.03,0.14,0.04,0.17,0.02
			C113.81,169.01,113.84,168.94,113.88,168.88z M123.45,169.37c0.06,0.02,0.1,0.05,0.11,0.04c0.05-0.03,0.1-0.06,0.15-0.09
			c-0.04-0.01-0.08-0.04-0.11-0.03C123.54,169.3,123.5,169.34,123.45,169.37z M113.37,170c-0.06-0.03-0.1-0.06-0.14-0.06
			c-0.03,0-0.06,0.04-0.09,0.07c0.04,0.02,0.07,0.07,0.11,0.07C113.28,170.08,113.32,170.04,113.37,170z M108.56,177.04
			c0.02-0.03,0.05-0.06,0.07-0.1c-0.03-0.01-0.07-0.04-0.08-0.03c-0.04,0.02-0.06,0.06-0.09,0.09
			C108.49,177.01,108.52,177.02,108.56,177.04z M108.94,163.83c-0.02-0.04-0.03-0.08-0.04-0.08c-0.04,0-0.09,0.01-0.13,0.02
			c0.01,0.03,0.02,0.08,0.04,0.09C108.85,163.87,108.9,163.84,108.94,163.83z M123.03,164.26c0.03-0.01,0.07-0.01,0.08-0.03
			c0.01-0.01-0.02-0.04-0.03-0.07c-0.03,0.01-0.07,0.01-0.08,0.03C122.99,164.2,123.02,164.23,123.03,164.26z M124.62,166.55
			c-0.05-0.02-0.09-0.04-0.1-0.03c-0.04,0.02-0.06,0.05-0.09,0.08c0.03,0.01,0.06,0.03,0.08,0.03
			C124.55,166.61,124.58,166.58,124.62,166.55z M110.37,173.81c-0.02-0.02-0.03-0.04-0.05-0.05c-0.01,0.01-0.03,0.02-0.04,0.03
			c0,0.02,0.01,0.04,0.01,0.06C110.32,173.83,110.34,173.82,110.37,173.81z M127.96,172.49c-0.02-0.02-0.03-0.04-0.05-0.06
			c-0.02,0.02-0.06,0.04-0.06,0.06c0.01,0.03,0.04,0.05,0.06,0.07C127.93,172.53,127.95,172.51,127.96,172.49z M123.55,161.59
			c0-0.01,0.01-0.02,0.01-0.03c0-0.01-0.02-0.01-0.03-0.01c0,0.01-0.01,0.02-0.01,0.03C123.52,161.58,123.54,161.58,123.55,161.59z
			 M125.97,165.95c0,0.01,0,0.03,0.01,0.03c0.01,0.01,0.03,0,0.05,0.01c-0.01-0.02-0.01-0.04-0.02-0.05
			C126,165.94,125.99,165.94,125.97,165.95z M123.24,172.96l0,0.03l0.04-0.01L123.24,172.96z M108.46,175.72
			c0.01,0,0.03,0.01,0.04,0.01c-0.01-0.01-0.02-0.03-0.03-0.04C108.47,175.71,108.46,175.72,108.46,175.72z M108.92,176.76l0-0.02
			l-0.03,0.01L108.92,176.76z M115.93,178.73c0-0.01,0-0.02-0.01-0.02c-0.01-0.01-0.03,0-0.04-0.01c0,0.01,0.01,0.03,0.01,0.04
			C115.9,178.73,115.92,178.73,115.93,178.73z"/>
		<path class="st1" d="M128.11,194.71c-0.26,0.02-0.48,0.02-0.69-0.02c-0.13-0.02-0.28-0.05-0.41-0.04
			c-0.51,0.01-1.02-0.01-1.53,0.02c-0.46,0.03-0.94,0.01-1.41,0.01c-0.29,0-0.57,0.01-0.86,0.01c-0.92,0-1.84,0.01-2.77-0.01
			c-1.08-0.02-2.17-0.06-3.25,0c-0.7,0.04-1.43,0.04-2.14,0.06c-0.3,0.01-0.61,0.03-0.91,0.04c-0.63,0.03-1.25,0.07-1.89,0.08
			c-0.57,0.02-1.15,0.01-1.72,0.02c-0.96,0.01-1.93-0.02-2.89-0.04c-0.27,0-0.54-0.01-0.8-0.03c-0.36-0.03-0.65-0.11-0.75-0.25
			c-0.15-0.2-0.28-0.41-0.21-0.62c0.03-0.12-0.05-0.2-0.28-0.29c-0.47-0.17-0.64-0.38-0.34-0.62c0.07-0.06,0.1-0.12,0.2-0.17
			c0.3-0.14,0.33-0.31,0.31-0.48c-0.01-0.15,0-0.29,0-0.44c0-0.12,0.05-0.23,0.23-0.33c0.2-0.04,0.42-0.05,0.65-0.04
			c0.5,0.03,0.98,0,1.47-0.02c0.65-0.02,1.3-0.06,1.95-0.08c0.82-0.02,1.62-0.08,2.44-0.07c0.14,0,0.28-0.01,0.42-0.02
			c0.14-0.01,0.28-0.02,0.42-0.03c1.17-0.01,2.32-0.07,3.48-0.13c0.71-0.04,1.42-0.07,2.13-0.1c0.32-0.01,0.66-0.01,0.98-0.01
			c0.9,0,1.8-0.01,2.71,0c0.88,0,1.76,0.01,2.63-0.06c0.45-0.04,0.94-0.02,1.41-0.03c0.06,0,0.13,0,0.18,0.01
			c0.41,0.05,0.84,0.07,1.27,0.09c0.28,0.01,0.51,0.05,0.66,0.15c0.17,0.12,0.26,0.23,0.13,0.36c-0.12,0.12-0.24,0.24-0.35,0.37
			c-0.02,0.02-0.05,0.04-0.05,0.07c-0.04,0.26-0.22,0.52-0.18,0.78c0.02,0.1-0.01,0.2-0.02,0.3c-0.01,0.13-0.02,0.26-0.02,0.39
			c-0.01,0.19-0.01,0.37-0.01,0.56c0,0.1,0,0.2,0,0.3C128.31,194.55,128.31,194.55,128.11,194.71z M119.29,194
			c0.2-0.05,0.2-0.05,0.2-0.16c-0.08,0.08-0.13,0.12-0.18,0.17c-0.05,0.01-0.1,0.02-0.14,0.04c-0.01,0.01,0,0.02,0.01,0.04
			c0.05-0.01,0.12-0.01,0.13-0.02C119.33,194.04,119.3,194.02,119.29,194z M116.13,192.62c0.07-0.01,0.17-0.01,0.21-0.03
			c0.36-0.16,0.72-0.33,1.07-0.49c0.05-0.02,0.16-0.04,0.05-0.1c-0.37,0.16-0.74,0.31-1.09,0.46c-0.1,0.04-0.15,0.11-0.22,0.16
			c-0.12,0.04-0.24,0.07-0.35,0.11c-0.11,0.04-0.15,0.08-0.1,0.14c-0.37,0.02-0.52,0.06-0.71,0.14c-0.35,0.15-0.65,0.31-1.08,0.43
			c-0.46,0.13-0.73,0.32-1.18,0.46c-0.15,0.13-0.38,0.24-0.5,0.39c0.24,0.03,0.39,0.02,0.51-0.05c0.16-0.1,0.31-0.2,0.51-0.29
			c0.48-0.22,0.98-0.43,1.47-0.64c0.33-0.14,0.65-0.29,0.97-0.44c0.09-0.03,0.17-0.06,0.26-0.09
			C116.04,192.73,116.15,192.68,116.13,192.62z M120.65,192.49c-0.08,0-0.18-0.02-0.23,0c-0.13,0.04-0.24,0.08-0.34,0.13
			c-0.3,0.13-0.59,0.27-0.9,0.4c-0.31,0.13-0.64,0.25-0.96,0.38c-0.33,0.13-0.75,0.22-1.04,0.37c-0.21,0.11-0.41,0.22-0.46,0.37
			c0.15,0,0.25,0.01,0.34,0c0.1,0,0.2-0.01,0.3-0.02c0.09-0.07,0.17-0.13,0.25-0.19c0.22-0.17,0.5-0.31,0.83-0.45
			c0.4-0.17,0.79-0.34,1.18-0.52C119.97,192.8,120.31,192.65,120.65,192.49c0.08-0.06,0.16-0.12,0.26-0.19
			C120.61,192.34,120.65,192.42,120.65,192.49z M114.49,192.54c-0.02-0.01-0.04-0.02-0.06-0.04c-0.05,0.01-0.12,0-0.16,0.02
			c-0.75,0.22-1.41,0.48-2.15,0.7c-0.15,0.05-0.26,0.12-0.38,0.18c-0.11,0.05-0.2,0.12-0.35,0.16c-0.35,0.08-0.52,0.23-0.88,0.31
			c-0.08,0.02-0.13,0.06-0.18,0.09c-0.16,0.1-0.31,0.19-0.47,0.29c-0.05,0.03-0.07,0.06-0.11,0.1c0.24,0.03,0.44,0.03,0.64,0.01
			c0.14-0.01,0.25-0.04,0.32-0.09c0.62-0.48,1.59-0.86,2.55-1.24C113.68,192.86,114.08,192.7,114.49,192.54z M119.49,191.7
			c-0.02,0.02-0.05,0.04-0.05,0.06c0.02,0.17-0.2,0.29-0.54,0.39c-0.12,0.04-0.22,0.09-0.32,0.13c-0.15,0.07-0.3,0.14-0.45,0.21
			c-0.37,0.18-0.75,0.36-1.12,0.54c-0.04,0.02-0.13,0.04-0.02,0.08c1.33-0.38,2.3-0.89,3.36-1.36c0.04-0.02,0.05-0.05,0.08-0.09
			C120.09,191.66,119.79,191.65,119.49,191.7z M126.34,191.64c-0.36-0.07-0.44-0.07-0.64,0.03c-0.48,0.22-0.98,0.45-1.41,0.68
			c-0.38,0.21-0.76,0.42-1.25,0.61c-0.12,0.05-0.21,0.11-0.13,0.21c0.1-0.03,0.19-0.04,0.24-0.07c0.5-0.23,1-0.46,1.49-0.69
			c0.49-0.23,0.95-0.47,1.52-0.68C126.24,191.7,126.28,191.67,126.34,191.64z M123.93,191.7c-0.09-0.02-0.14-0.04-0.2-0.04
			c-0.3-0.03-0.5,0-0.47,0.13c0.03,0.12-0.09,0.23-0.31,0.29c-0.26,0.07-0.37,0.17-0.54,0.26c-0.39,0.2-0.8,0.4-1.19,0.6
			c-0.04,0.02-0.12,0.05-0.02,0.08C122.02,192.76,123.56,192.01,123.93,191.7z M127.18,192.53c-0.09,0.02-0.15,0.03-0.18,0.05
			c-0.48,0.27-0.77,0.57-1.14,0.85c-0.01,0.01,0.02,0.03,0.04,0.06c0.07-0.02,0.14-0.03,0.18-0.05c0.34-0.16,0.55-0.35,0.93-0.5
			C127.27,192.84,127.39,192.7,127.18,192.53z M108.55,192.52c-0.53,0.1-0.67,0.16-0.68,0.28
			C108.16,192.71,108.42,192.64,108.55,192.52z M126.76,193.97c0.22-0.07,0.38-0.1,0.49-0.15c0.1-0.04,0.12-0.11-0.09-0.18
			C127.1,193.76,126.68,193.78,126.76,193.97z M121.08,194.13c0.3,0,0.31,0,0.34-0.11c0-0.01-0.05-0.02-0.1-0.04
			C121.24,194.03,121.17,194.08,121.08,194.13z M119.78,193.75c0.05-0.02,0.09-0.05,0.13-0.07c0.01,0,0-0.02-0.01-0.02
			c-0.03,0-0.08-0.01-0.11-0.01C119.71,193.68,119.67,193.71,119.78,193.75z M123.5,194.02c-0.04,0.02-0.07,0.04-0.11,0.07
			c0.05,0.01,0.1,0.03,0.14,0.02c0.09-0.01,0.12-0.03,0.09-0.07C123.61,194.03,123.56,194.03,123.5,194.02z M117.91,191.75
			c-0.05,0.02-0.11,0.04-0.14,0.06c-0.01,0.01,0.02,0.02,0.04,0.04c0.05-0.02,0.11-0.03,0.16-0.05
			C117.97,191.8,117.94,191.78,117.91,191.75z M115.9,191.92c0.03-0.02,0.07-0.03,0.08-0.05c0,0-0.07-0.03-0.07-0.02
			c-0.04,0.01-0.07,0.03-0.1,0.04C115.81,191.89,115.86,191.9,115.9,191.92z M114,191.94c-0.02,0-0.04-0.01-0.04-0.01
			c-0.01,0-0.02,0.01-0.02,0.02c0.02,0,0.04,0.01,0.05,0.01C113.99,191.96,114,191.95,114,191.94z M124.73,193.19
			c-0.03,0.01-0.04,0.01-0.06,0.02c0.01,0,0.03,0.01,0.04,0C124.72,193.2,124.72,193.2,124.73,193.19z"/>
		<path class="st1" d="M267.96,159.37c0.28,0.04,0.59,0.06,0.9,0.12c0.95,0.19,1.87,0.46,2.74,0.92c0.99,0.53,1.86,1.22,2.76,1.88
			c0.55,0.63,1.21,1.17,1.71,1.85c0.44,0.6,0.79,1.24,1.17,1.87c0.05,0.09,0.1,0.18,0.16,0.27c0.12,0.2,0.28,0.31,0.52,0.25
			c0.21-0.05,0.41-0.02,0.62,0.02c0.31,0.07,0.46-0.01,0.62-0.29c0.06-0.11,0.11-0.23,0.16-0.34c0.43-1.13,1.04-2.16,1.72-3.15
			c0.4-0.59,0.87-1.14,1.3-1.7c0.04-0.05,0.08-0.09,0.13-0.14c0.82-0.73,1.71-1.36,2.73-1.78c0.45-0.18,0.91-0.13,1.36,0.01
			c0.54,0.17,1.07,0.36,1.64,0.43c0.32,0.04,0.62,0.2,0.82,0.52c0.23,0.35,0.53,0.65,0.81,0.97c0.54,0.61,0.92,1.3,1.02,2.12
			c0.02,0.14,0.06,0.29,0.11,0.43c0.19,0.59,0.27,1.18,0.19,1.8c-0.06,0.48-0.07,0.96-0.19,1.44c-0.13,0.51-0.3,1-0.52,1.48
			c-0.34,0.75-0.63,1.51-0.93,2.27c-0.42,1.03-0.94,2.02-1.57,2.94c-0.11,0.16-0.23,0.3-0.37,0.43c-0.17,0.16-0.32,0.33-0.38,0.57
			c-0.02,0.1-0.09,0.19-0.16,0.27c-0.32,0.39-0.64,0.78-0.96,1.17c-0.55,0.69-1.16,1.33-1.81,1.93c-0.19,0.17-0.36,0.36-0.54,0.53
			c-0.46,0.46-0.92,0.92-1.38,1.37c-0.07,0.07-0.17,0.13-0.23,0.21c-0.46,0.61-1.08,1.05-1.62,1.58c-0.69,0.66-1.45,1.21-2.19,1.79
			c-0.19,0.15-0.34,0.36-0.51,0.55c-0.15,0.17-0.3,0.35-0.46,0.51c-0.13,0.13-0.3,0.18-0.46,0.05c-0.28-0.22-0.61-0.27-0.93-0.35
			c-0.18-0.04-0.37-0.11-0.52-0.21c-0.6-0.46-1.2-0.92-1.78-1.41c-0.24-0.2-0.45-0.44-0.66-0.67c-0.15-0.16-0.32-0.28-0.55-0.27
			c-0.02,0-0.04,0-0.06,0c-0.9-0.08-1.13-0.32-1.45-1.31c-0.02-0.06-0.03-0.12-0.03-0.19c-0.02-0.49-0.22-0.89-0.59-1.21
			c-0.12-0.11-0.21-0.26-0.32-0.39c-0.22-0.25-0.43-0.52-0.76-0.65c-0.25-0.11-0.4-0.3-0.5-0.54c-0.19-0.45-0.5-0.82-0.82-1.18
			c-0.84-0.94-1.64-1.91-2.37-2.95c-0.53-0.76-1.04-1.52-1.49-2.34c-0.46-0.84-0.75-1.73-0.96-2.66c-0.07-0.33-0.15-0.65-0.35-0.94
			c-0.11-0.17-0.16-0.38-0.22-0.59c-0.09-0.29-0.07-0.58,0.1-0.85c0.27-0.44,0.39-0.92,0.46-1.43c0.12-0.88,0.38-1.72,0.8-2.51
			c0.24-0.45,0.52-0.85,0.98-1.12c0.31-0.17,0.57-0.43,0.83-0.68c0.22-0.2,0.48-0.35,0.76-0.44
			C266.91,159.49,267.41,159.4,267.96,159.37z M289.74,164.24c-0.17,0.14-0.3,0.26-0.44,0.35c-0.53,0.33-1.08,0.65-1.61,0.99
			c-0.21,0.13-0.41,0.29-0.6,0.45c-0.04,0.03-0.06,0.13-0.04,0.17c0.04,0.06,0.12,0.12,0.19,0.13c0.08,0.02,0.17,0,0.24-0.03
			c0.31-0.13,0.61-0.27,0.92-0.41c0.38-0.18,0.74-0.39,1.18-0.42c0.3-0.02,0.4-0.16,0.41-0.46
			C290,164.74,290.04,164.46,289.74,164.24z M286.92,162.46c0.12,0.02,0.21,0.06,0.28,0.04c0.35-0.08,0.7-0.15,1.03-0.26
			c0.19-0.06,0.38-0.18,0.55-0.3c0.2-0.15,0.18-0.37-0.04-0.51c-0.26-0.17-0.51-0.17-0.76,0c-0.22,0.15-0.44,0.32-0.65,0.49
			C287.18,162.05,286.98,162.16,286.92,162.46z M277.35,170.08c0-0.22-0.18-0.34-0.31-0.27c-0.07,0.04-0.14,0.08-0.2,0.14
			c-0.38,0.36-0.76,0.71-1.14,1.07c-0.07,0.07-0.13,0.16-0.18,0.25c-0.02,0.03-0.02,0.09,0,0.12c0.04,0.04,0.1,0.07,0.15,0.09
			c0.04,0.01,0.09,0,0.12-0.02c0.56-0.29,1.06-0.67,1.47-1.15C277.32,170.22,277.34,170.11,277.35,170.08z M274.06,163.99
			c-0.42,0.2-0.6,0.65-0.96,0.9c-0.08,0.06-0.14,0.16-0.18,0.25c-0.03,0.06-0.02,0.15-0.03,0.29c0.19-0.08,0.33-0.11,0.44-0.19
			c0.2-0.15,0.4-0.31,0.57-0.49c0.16-0.16,0.32-0.26,0.56-0.21c0.04,0.01,0.1-0.05,0.18-0.09
			C274.5,164.2,274.32,164.06,274.06,163.99z M276.57,167.59c-0.07-0.09-0.13-0.19-0.21-0.23c-0.05-0.03-0.17,0.01-0.22,0.05
			c-0.27,0.26-0.53,0.54-0.79,0.81c-0.04,0.04-0.06,0.11-0.08,0.17c-0.04,0.09,0.07,0.23,0.16,0.22c0.06-0.01,0.14-0.01,0.18-0.04
			c0.26-0.21,0.53-0.41,0.78-0.64C276.48,167.86,276.51,167.72,276.57,167.59z M288.07,170.78c0-0.07,0.01-0.12,0-0.15
			c-0.04-0.09-0.08-0.19-0.15-0.25c-0.1-0.07-0.2,0-0.28,0.08c-0.15,0.15-0.3,0.29-0.45,0.44c-0.13,0.13-0.11,0.31,0.02,0.45
			c0.11,0.12,0.28,0.15,0.4,0.06C287.84,171.24,288.01,171.03,288.07,170.78z M266.36,161.95c-0.34,0.04-0.48,0.26-0.65,0.44
			c-0.07,0.08-0.14,0.18-0.03,0.27c0.05,0.03,0.17,0.02,0.22-0.02C266.13,162.49,266.36,162.34,266.36,161.95z M271,161.69
			c-0.19,0-0.28,0.11-0.27,0.25c0.01,0.14,0.12,0.23,0.24,0.22c0.13-0.02,0.25-0.13,0.21-0.25
			C271.15,161.81,271.05,161.74,271,161.69z M275.17,165.83c0.04-0.01,0.09-0.01,0.11-0.04c0.04-0.07,0.07-0.15,0.09-0.22
			c0.01-0.03-0.03-0.1-0.05-0.1c-0.05,0-0.13,0.01-0.15,0.04c-0.04,0.07-0.05,0.15-0.06,0.23
			C275.11,165.77,275.15,165.8,275.17,165.83z"/>
		<path class="st1" d="M288.22,194.49c-0.26,0.02-0.48,0.02-0.69-0.02c-0.13-0.02-0.28-0.05-0.41-0.04
			c-0.51,0.01-1.02-0.01-1.53,0.02c-0.46,0.03-0.94,0.01-1.41,0.01c-0.29,0-0.57,0.01-0.86,0.01c-0.92,0-1.84,0.01-2.77-0.01
			c-1.08-0.02-2.17-0.06-3.25,0c-0.7,0.04-1.43,0.04-2.14,0.06c-0.3,0.01-0.61,0.03-0.91,0.04c-0.63,0.03-1.25,0.07-1.89,0.08
			c-0.57,0.02-1.15,0.01-1.72,0.02c-0.96,0.01-1.93-0.02-2.89-0.04c-0.27,0-0.54-0.01-0.8-0.03c-0.36-0.03-0.65-0.11-0.75-0.25
			c-0.15-0.2-0.28-0.41-0.21-0.62c0.03-0.12-0.1-1.38-0.11-1.55c-0.01-0.15,0-0.29,0-0.44c0-0.12,0.05-0.23,0.23-0.33
			c0.2-0.04,0.42-0.05,0.65-0.04c0.5,0.03,0.98,0,1.47-0.02c0.65-0.02,1.3-0.06,1.95-0.08c0.82-0.02,1.62-0.08,2.44-0.07
			c0.14,0,0.28-0.01,0.42-0.02c0.14-0.01,0.28-0.02,0.42-0.03c1.17-0.01,2.32-0.07,3.48-0.13c0.71-0.04,1.42-0.07,2.13-0.1
			c0.32-0.01,0.66-0.01,0.98-0.01c0.9,0,1.8-0.01,2.71,0c0.88,0,1.76,0.01,2.63-0.06c0.45-0.04,0.94-0.02,1.41-0.03
			c0.06,0,0.13,0,0.18,0.01c0.41,0.05,0.84,0.07,1.27,0.09c0.28,0.01,0.16,1.45,0.2,1.72c0.02,0.1-0.01,0.2-0.02,0.3
			c-0.01,0.13-0.02,0.26-0.02,0.39c-0.01,0.19-0.01,0.37-0.01,0.56c0,0.1,0,0.2,0,0.3C288.42,194.33,288.42,194.33,288.22,194.49z
			 M279.4,193.78c0.2-0.05,0.2-0.05,0.2-0.16c-0.08,0.08-0.13,0.12-0.18,0.17c-0.05,0.01-0.1,0.02-0.14,0.04
			c-0.01,0.01,0,0.02,0.01,0.04c0.05-0.01,0.12-0.01,0.13-0.02C279.44,193.82,279.41,193.8,279.4,193.78z M276.23,192.39
			c0.07-0.01,0.17-0.01,0.21-0.03c0.36-0.16,0.72-0.33,1.07-0.49c0.05-0.02,0.16-0.04,0.05-0.1c-0.37,0.16-0.74,0.31-1.09,0.46
			c-0.1,0.04-0.15,0.11-0.22,0.16c-0.12,0.04-0.24,0.07-0.35,0.11c-0.11,0.04-0.15,0.08-0.1,0.14c-0.37,0.02-0.52,0.06-0.71,0.14
			c-0.35,0.15-0.65,0.31-1.08,0.43c-0.46,0.13-0.73,0.32-1.18,0.46c-0.15,0.13-0.38,0.24-0.5,0.39c0.24,0.03,0.39,0.02,0.51-0.05
			c0.16-0.1,0.31-0.2,0.51-0.29c0.48-0.22,0.98-0.43,1.47-0.64c0.33-0.14,0.65-0.29,0.97-0.44c0.09-0.03,0.17-0.06,0.26-0.09
			C276.15,192.51,276.26,192.46,276.23,192.39z M280.76,192.27c-0.08,0-0.18-0.02-0.23,0c-0.13,0.04-0.24,0.08-0.34,0.13
			c-0.3,0.13-0.59,0.27-0.9,0.4c-0.31,0.13-0.64,0.25-0.96,0.38c-0.33,0.13-0.75,0.22-1.04,0.37c-0.21,0.11-0.41,0.22-0.46,0.37
			c0.15,0,0.25,0.01,0.34,0c0.1,0,0.2-0.01,0.3-0.02c0.09-0.07,0.17-0.13,0.25-0.19c0.22-0.17,0.5-0.31,0.83-0.45
			c0.4-0.17,0.79-0.34,1.18-0.52C280.08,192.58,280.42,192.42,280.76,192.27c0.08-0.06,0.16-0.12,0.26-0.19
			C280.72,192.11,280.76,192.19,280.76,192.27z M274.6,192.32c-0.02-0.01-0.04-0.02-0.06-0.04c-0.05,0.01-0.12,0-0.16,0.02
			c-0.75,0.22-1.41,0.48-2.15,0.7c-0.15,0.05-0.26,0.12-0.38,0.18c-0.11,0.05-0.2,0.12-0.35,0.16c-0.35,0.08-0.52,0.23-0.88,0.31
			c-0.08,0.02-0.13,0.06-0.18,0.09c-0.16,0.1-0.31,0.19-0.47,0.29c-0.05,0.03-0.07,0.06-0.11,0.1c0.24,0.03,0.44,0.03,0.64,0.01
			c0.14-0.01,0.25-0.04,0.32-0.09c0.62-0.48,1.59-0.86,2.55-1.24C273.79,192.64,274.19,192.48,274.6,192.32z M279.6,191.48
			c-0.02,0.02-0.05,0.04-0.05,0.06c0.02,0.17-0.2,0.29-0.54,0.39c-0.12,0.04-0.22,0.09-0.32,0.13c-0.15,0.07-0.3,0.14-0.45,0.21
			c-0.37,0.18-0.75,0.36-1.12,0.54c-0.04,0.02-0.13,0.04-0.02,0.08c1.33-0.38,2.3-0.89,3.36-1.36c0.04-0.02,0.05-0.05,0.08-0.09
			C280.2,191.43,279.9,191.42,279.6,191.48z M286.45,191.42c-0.36-0.07-0.44-0.07-0.64,0.03c-0.48,0.22-0.98,0.45-1.41,0.68
			c-0.38,0.21-0.76,0.42-1.25,0.61c-0.12,0.05-0.21,0.11-0.13,0.21c0.1-0.03,0.19-0.04,0.24-0.07c0.5-0.23,1-0.46,1.49-0.69
			c0.49-0.23,0.95-0.47,1.52-0.68C286.35,191.48,286.39,191.45,286.45,191.42z M284.04,191.48c-0.09-0.02-0.14-0.04-0.2-0.04
			c-0.3-0.03-0.5,0-0.47,0.13c0.03,0.12-0.09,0.23-0.31,0.29c-0.26,0.07-0.37,0.17-0.54,0.26c-0.39,0.2-0.8,0.4-1.19,0.6
			c-0.04,0.02-0.12,0.05-0.02,0.08C282.13,192.54,283.67,191.79,284.04,191.48z M287.29,192.31c-0.09,0.02-0.15,0.03-0.18,0.05
			c-0.48,0.27-0.77,0.57-1.14,0.85c-0.01,0.01,0.02,0.03,0.04,0.06c0.07-0.02,0.14-0.03,0.18-0.05c0.34-0.16,0.55-0.35,0.93-0.5
			C287.38,192.61,287.49,192.48,287.29,192.31z M268.66,192.29c-0.53,0.1-0.67,0.16-0.68,0.28
			C268.27,192.49,268.52,192.42,268.66,192.29z M286.86,193.75c0.22-0.07,0.38-0.1,0.49-0.15c0.1-0.04,0.12-0.11-0.09-0.18
			C287.2,193.54,286.78,193.56,286.86,193.75z M281.19,193.91c0.3,0,0.31,0,0.34-0.11c0-0.01-0.05-0.02-0.1-0.04
			C281.35,193.81,281.28,193.85,281.19,193.91z M279.89,193.53c0.05-0.02,0.09-0.05,0.13-0.07c0.01,0,0-0.02-0.01-0.02
			c-0.03,0-0.08-0.01-0.11-0.01C279.82,193.46,279.78,193.48,279.89,193.53z M283.61,193.8c-0.04,0.02-0.07,0.04-0.11,0.07
			c0.05,0.01,0.1,0.03,0.14,0.02c0.09-0.01,0.12-0.03,0.09-0.07C283.71,193.81,283.67,193.81,283.61,193.8z M278.01,191.53
			c-0.05,0.02-0.11,0.04-0.14,0.06c-0.01,0.01,0.02,0.02,0.04,0.04c0.05-0.02,0.11-0.03,0.16-0.05
			C278.08,191.58,278.05,191.56,278.01,191.53z M276.01,191.7c0.03-0.02,0.07-0.03,0.08-0.05c0,0-0.07-0.03-0.07-0.02
			c-0.04,0.01-0.07,0.03-0.1,0.04C275.92,191.67,275.97,191.68,276.01,191.7z M274.11,191.72c-0.02,0-0.04-0.01-0.04-0.01
			c-0.01,0-0.02,0.01-0.02,0.02c0.02,0,0.04,0.01,0.05,0.01C274.1,191.74,274.1,191.73,274.11,191.72z M284.84,192.96
			c-0.03,0.01-0.04,0.01-0.06,0.02c0.01,0,0.03,0.01,0.04,0C284.82,192.98,284.83,192.97,284.84,192.96z"/>
	</g>
	<g>
		<path class="st2" d="M106.2,165.51c0.06-0.05,0.07-0.07,0.08-0.07c0.51-0.13,0.74-0.48,0.96-0.84c0.53-0.88,1.13-1.73,1.77-2.56
			c0.12-0.15,0.12-0.15,0.14-0.52c0.11-0.05,0.24-0.13,0.38-0.17c0.19-0.05,0.28-0.15,0.31-0.31c0.02-0.12,0.06-0.25,0.09-0.38
			c0.11-0.03,0.19-0.05,0.27-0.07c0.32-0.05,0.58-0.17,0.81-0.36c0.45-0.36,1.01-0.6,1.52-0.89c0.28-0.15,0.64-0.21,0.96-0.31
			c0.75-0.25,1.54-0.36,2.33-0.39c0.63-0.03,1.28-0.07,1.91,0.07c0.25,0.06,0.51,0.07,0.77,0.04c0.25-0.03,0.47,0.01,0.68,0.14
			c0.19,0.12,0.41,0.2,0.67,0.18c0.11-0.01,0.22,0.08,0.33,0.1c0.18,0.03,0.39,0.02,0.56,0.07c0.15,0.05,0.25,0.2,0.39,0.26
			c0.23,0.09,0.49,0.15,0.73,0.22c0.3,0.08,0.58,0.18,0.83,0.34c0.33,0.2,0.69,0.38,1.03,0.58c0.13,0.07,0.25,0.16,0.36,0.24
			c0.2,0.14,0.38,0.29,0.58,0.42c0.37,0.24,0.66,0.54,0.94,0.85c0.05,0.06,0.09,0.12,0.14,0.18c0.2,0.22,0.29,0.24,0.66,0.16
			c0.03-0.01,0.07,0,0.13,0.01c0.05,0.18,0.16,0.36-0.06,0.55c0.07,0.09,0.13,0.19,0.2,0.29c0.06,0.09,0.15,0.17,0.18,0.26
			c0.2,0.53,0.62,0.98,0.86,1.5c0.17,0.36,0.32,0.72,0.47,1.09c0.08,0.2,0.12,0.41,0.18,0.62c0.21,0.75,0.43,1.5,0.64,2.25
			c0.01,0.03,0.02,0.06,0.02,0.08c0.02,0.52,0.18,1.04,0.14,1.57c-0.02,0.31,0,0.63-0.04,0.94c-0.03,0.28-0.09,0.56-0.16,0.84
			c-0.15,0.57-0.3,1.14-0.46,1.71c-0.06,0.21-0.13,0.41-0.2,0.63c0.11,0.06,0.22,0.1,0.31,0.16c0.09,0.06,0.18,0.14,0.21,0.23
			c0.13,0.29,0.05,0.45-0.29,0.59c-0.23,0.09-0.48,0.15-0.73,0.22c-0.19,0.38-0.36,0.77-0.56,1.15c-0.13,0.24-0.34,0.46-0.47,0.71
			c-0.13,0.24-0.3,0.44-0.48,0.65c-0.29,0.35-0.54,0.73-0.81,1.09c-0.22,0.29-0.45,0.57-0.68,0.86c-0.19,0.24-0.39,0.47-0.6,0.7
			c-0.24,0.26-0.48,0.52-0.74,0.77c-0.66,0.67-1.55,1.07-2.46,1.45c-0.03,0.01-0.07,0.02-0.09,0.04c-0.28,0.26-0.67,0.34-1.05,0.42
			c-0.16,0.04-0.33,0.07-0.5,0.09c-0.27,0.04-0.54,0.08-0.81,0.13c-0.74,0.12-1.49,0.25-2.24,0.35c-0.29,0.04-0.59,0.03-0.88-0.01
			c-0.32-0.04-0.62-0.05-0.92,0.04c-0.23,0.07-0.44,0.06-0.66-0.02c-0.41-0.15-0.83-0.28-1.22-0.47c-0.41-0.2-0.78-0.25-1.22-0.08
			c-0.27,0.11-0.56,0-0.69-0.23c-0.05-0.09-0.1-0.19-0.1-0.28c0-0.18-0.11-0.29-0.29-0.37c-0.93-0.45-1.61-1.12-2.31-1.77
			c-0.27-0.25-0.43-0.55-0.59-0.85c-0.25-0.46-0.55-0.89-0.92-1.28c-0.7-0.74-1.06-1.59-1.2-2.51c-0.09-0.61-0.2-1.21-0.31-1.82
			c-0.14-0.81-0.16-1.62-0.14-2.43c0.02-0.77,0.13-1.54,0.2-2.3c0.05-0.48,0.12-0.95,0.25-1.43c0.17-0.64,0.36-1.28,0.7-1.88
			c0.07-0.13,0.14-0.26,0.2-0.4c0.03-0.08,0.06-0.18,0.02-0.25C106.16,165.92,106.23,165.71,106.2,165.51z M109.12,175.41
			c0.18,0.02,0.32-0.03,0.43-0.15c0.22,0.01,0.4-0.07,0.59-0.15c0.2-0.08,0.4-0.17,0.61-0.24c0.63-0.2,1.26-0.4,1.89-0.6
			c0.08-0.03,0.16-0.05,0.23-0.09c0.09-0.05,0.08-0.12-0.02-0.25c-0.32,0.1-0.65,0.18-0.96,0.31c-0.41,0.17-0.87,0.28-1.23,0.53
			c-0.06,0.04-0.17,0.04-0.24,0.07c-0.3,0.12-0.67,0.15-0.85,0.43c-0.19-0.04-0.31,0.05-0.43,0.15c-0.11,0.03-0.22,0.07-0.4,0.12
			C108.98,175.54,108.98,175.54,109.12,175.41z M109.31,177.97c-0.14,0.09-0.3,0.15-0.37,0.29c-0.03-0.01-0.06-0.02-0.09-0.02
			c-0.01,0-0.02,0.03-0.03,0.05c0.01,0,0.03,0.01,0.04,0c0.03-0.01,0.05-0.03,0.07-0.05c0.14-0.08,0.3-0.14,0.37-0.29
			c0.09,0.01,0.18,0.03,0.19-0.1C109.41,177.91,109.36,177.94,109.31,177.97z M119.58,161.07c0.09-0.05,0.25-0.01,0.27-0.15
			C119.61,160.91,119.61,160.91,119.58,161.07c-0.17-0.09-0.35-0.01-0.53,0c-0.15,0.03-0.31,0.05-0.45,0.09
			c-0.68,0.21-1.4,0.3-2.1,0.46c-0.68,0.16-1.36,0.31-2.05,0.47c-0.28,0.07-0.56,0.13-0.85,0.2c-0.15,0.04-0.3,0.07-0.44,0.11
			c-0.73,0.21-1.46,0.42-2.19,0.64c-0.17,0.05-0.33,0.12-0.44,0.31c0.11-0.01,0.18,0.01,0.23-0.01c0.6-0.23,1.26-0.3,1.88-0.48
			c0.36-0.1,0.73-0.17,1.09-0.26c0.68-0.17,1.36-0.33,2.03-0.5c0.67-0.17,1.34-0.36,2.01-0.54c0.34-0.09,0.69-0.18,1.03-0.27
			c0.13-0.03,0.21-0.09,0.23-0.2C119.22,161.16,119.4,161.11,119.58,161.07z M124.08,167.93c0.24-0.16,0.53-0.23,0.81-0.34
			c0.23-0.09,0.45-0.18,0.65-0.33c-0.06-0.02-0.1-0.04-0.12-0.04c-0.39,0.15-0.77,0.3-1.15,0.46
			C124.15,167.74,124.11,167.83,124.08,167.93c-0.03-0.01-0.06-0.02-0.08-0.02c-0.01,0-0.03,0.01-0.04,0.01
			c0.01,0,0.03-0.01,0.04-0.01C124.02,167.92,124.05,167.93,124.08,167.93z M118.48,180.21c-0.19-0.03-0.38-0.02-0.55,0.07
			c-0.26,0.13-0.54,0.18-0.83,0.23c-0.12,0.02-0.24,0.05-0.35,0.08c-0.46,0.15-0.92,0.33-1.39,0.45c-0.64,0.17-1.24,0.43-1.86,0.64
			c-0.29,0.1-0.61,0.2-0.8,0.45c0.04,0.01,0.08,0.04,0.1,0.03c1.01-0.25,2-0.54,2.97-0.88c0.68-0.24,1.36-0.49,2.03-0.75
			c0.23-0.09,0.44-0.22,0.66-0.33c0.25,0.05,0.4-0.09,0.62-0.22C118.77,179.94,118.58,179.99,118.48,180.21z M114.32,174.24
			c-0.09,0.11-0.15,0.18-0.21,0.25c-0.13,0.15-0.15,0.33-0.06,0.49c0.16,0.3,0.37,0.6,0.71,0.78c0.53,0.28,1.1,0.49,1.76,0.3
			c0.05-0.01,0.1-0.02,0.15-0.02c0.35,0.01,0.63-0.13,0.92-0.26c0.61-0.29,1.09-0.7,1.55-1.12c0.39-0.36,0.61-0.79,0.8-1.24
			c0.13-0.32,0.22-0.66,0.37-0.98c0.23-0.51,0.34-1.05,0.36-1.59c0.02-0.61-0.04-1.22-0.48-1.76c-0.15-0.19-0.23-0.41-0.49-0.53
			c-0.03-0.01-0.04-0.05-0.05-0.07c-0.2-0.24-0.46-0.42-0.78-0.54c-0.27-0.1-0.54-0.2-0.8-0.31c-0.28-0.13-0.53-0.11-0.78,0.03
			c-0.25,0.13-0.48,0.27-0.73,0.4c-0.44,0.23-0.79,0.55-1.27,0.74c-0.11,0.04-0.19,0.16-0.26,0.25c-0.31,0.42-0.49,0.88-0.69,1.33
			c-0.19,0.41-0.26,0.85-0.35,1.29c-0.13,0.61-0.2,1.21-0.1,1.83c0.03,0.16,0.07,0.29,0.23,0.41
			C114.2,173.97,114.24,174.11,114.32,174.24z M115.05,167.49c-0.35-0.16-0.63-0.16-0.94-0.06c-0.32,0.1-0.65,0.21-0.98,0.27
			c-0.54,0.09-1.06,0.23-1.58,0.38c-0.73,0.21-1.46,0.44-2.18,0.67c-0.23,0.07-0.43,0.19-0.66,0.24c-0.34,0.07-0.64,0.2-0.93,0.36
			c-0.22,0.12-0.45,0.21-0.7,0.27c-0.3,0.07-0.59,0.16-0.87,0.26c-0.14,0.05-0.29,0.11-0.33,0.25c-0.04,0.15-0.11,0.3,0.04,0.46
			c0.45-0.17,0.88-0.34,1.32-0.5c0.12-0.05,0.24-0.12,0.37-0.15c0.48-0.12,0.89-0.37,1.38-0.46c0.93-0.38,1.93-0.62,2.88-0.95
			c0.52-0.18,1.07-0.32,1.57-0.55c0.06-0.03,0.12-0.06,0.18-0.08c0.14-0.05,0.27-0.05,0.39,0.02c0.11,0.07,0.2,0.18,0.36,0.13
			c0.12-0.04,0.24-0.12,0.33-0.2C114.81,167.76,114.9,167.64,115.05,167.49z M115.44,164.07c-0.19-0.09-0.33-0.02-0.47,0.02
			c-0.24,0.08-0.48,0.16-0.73,0.21c-0.41,0.1-0.85,0.14-1.25,0.27c-0.67,0.22-1.41,0.28-2.05,0.57c-0.03,0.01-0.07,0.01-0.1,0.02
			c-1.09,0.31-2.19,0.62-3.28,0.92c-0.14,0.04-0.21,0.12-0.16,0.17c0.06,0.07,0.14,0.07,0.23,0.05c0.12-0.02,0.24-0.04,0.35-0.06
			c0.4-0.09,0.8-0.19,1.19-0.28c0.74-0.18,1.48-0.39,2.23-0.55c1.21-0.25,2.39-0.56,3.58-0.84c0.16-0.04,0.27-0.11,0.33-0.24
			C115.35,164.26,115.39,164.18,115.44,164.07z M125.66,164.39c0.25,0.31,0.02,0.5-0.22,0.7c0.08,0.05,0.13,0.11,0.18,0.1
			c0.27-0.04,0.54-0.08,0.8-0.14c0.1-0.02,0.17-0.12,0.25-0.17c-0.44-0.9-0.62-1.16-0.97-1.42c-0.5,0.05-0.96,0.21-1.4,0.4
			c0,0.23,0,0.45,0,0.66C124.78,164.64,125.21,164.5,125.66,164.39z M124.45,162.21c-0.18,0.17-0.37,0.3-0.64,0.35
			c-0.52,0.1-1.03,0.21-1.55,0.32c-0.17,0.03-0.33,0.07-0.5,0.1c-0.43,0.08-0.8,0.23-1.1,0.51c0.32,0.11,0.63,0.12,0.94,0.02
			c0.11-0.04,0.23-0.05,0.35-0.07c0.57-0.11,1.13-0.24,1.71-0.32c0.41-0.06,0.81-0.13,1.2-0.26c0.07-0.02,0.14-0.06,0.21-0.1
			C124.95,162.49,124.71,162.35,124.45,162.21z M115.09,166.27c0.38,0.27,0.48,0.56,0.48,0.9c0.39-0.11,0.77-0.15,1.06-0.37
			c0.11-0.08,0.26-0.16,0.4-0.18c0.22-0.03,0.39-0.1,0.53-0.24c0.12-0.13,0.31-0.22,0.42-0.41c-0.14,0-0.24-0.02-0.33,0
			c-0.17,0.04-0.33,0.09-0.49,0.14c-0.19,0.05-0.36,0.07-0.54-0.04c-0.08-0.05-0.23-0.08-0.34-0.06
			C115.92,166.07,115.56,166.17,115.09,166.27z M113.66,179.79c-0.17,0.07-0.33,0.1-0.44,0.18c-0.4,0.32-0.91,0.51-1.36,0.78
			c-0.45,0.27-0.92,0.5-1.35,0.79c-0.04,0.03-0.09,0.05-0.13,0.07c-0.13,0.07-0.27,0.06-0.39-0.01c-0.14-0.09-0.25-0.19-0.29-0.34
			c-0.03-0.12-0.02-0.27-0.21-0.33c-0.06,0.01-0.13,0.02-0.19,0.05c-0.15,0.07-0.18,0.19-0.07,0.28c0.24,0.21,0.48,0.41,0.73,0.61
			c0.08,0.06,0.2,0.1,0.3,0.15c0.19-0.11,0.38-0.19,0.53-0.3c0.5-0.36,1.04-0.66,1.59-0.96c0.36-0.19,0.72-0.4,1.07-0.6
			C113.58,180.08,113.73,180.02,113.66,179.79z M123.32,180.69c-0.35,0.03-0.91,0.21-1.21,0.36c-0.32,0.16-0.66,0.31-0.99,0.46
			c-0.38,0.17-0.76,0.33-1.14,0.5c-0.02,0.01-0.02,0.04-0.03,0.07c0.04,0.01,0.07,0.02,0.1,0.02c0.74-0.09,1.45-0.25,2.17-0.43
			c0.1-0.02,0.21-0.06,0.28-0.11C122.82,181.3,123.14,181.05,123.32,180.69z M113.22,183.41c0.14,0.07,0.22,0.12,0.31,0.16
			c0.2,0.09,0.38,0.07,0.58-0.02c0.83-0.38,1.68-0.73,2.52-1.1c0.06-0.03,0.16-0.05,0.12-0.14c-0.41,0.06-0.8,0.17-1.19,0.29
			c-0.4,0.12-0.85,0.18-1.21,0.35C114.01,183.12,113.54,183.08,113.22,183.41z M109.13,172.29c0.1,0.02,0.16,0.05,0.2,0.04
			c1.06-0.25,2.09-0.55,3.1-0.9c0.17,0.04,0.33,0.07,0.57,0.12c-0.08-0.24,0.15-0.4,0.03-0.61c-0.07,0-0.12-0.02-0.17,0
			c-0.3,0.11-0.59,0.22-0.89,0.33c-0.16,0.06-0.31,0.12-0.47,0.17c-0.72,0.19-1.4,0.46-2.09,0.71
			C109.31,172.17,109.24,172.23,109.13,172.29z M115.11,176.84c-0.22-0.1-0.45-0.2-0.67-0.3c-0.22,0.06-0.31,0.21-0.43,0.32
			c-0.14,0.12-0.27,0.26-0.41,0.38c-0.13,0.11-0.27,0.21-0.42,0.31c-0.15,0.1-0.35,0.16-0.44,0.38c0.11-0.03,0.17-0.04,0.23-0.06
			c0.7-0.3,1.4-0.6,2.1-0.9c0.03-0.01,0.04-0.04,0.06-0.07C115.12,176.9,115.12,176.88,115.11,176.84z M127.68,167.49
			c-0.32,0.3-0.8,0.34-1.2,0.53c-0.58,0.28-1.2,0.51-1.79,0.76c-0.06,0.03-0.15,0.07-0.1,0.18c0.16-0.05,0.34-0.07,0.48-0.14
			c0.56-0.28,1.21-0.42,1.76-0.72c0.11-0.06,0.23-0.05,0.33,0.04c0.04,0.04,0.1,0.07,0.16,0.1c0.2-0.07,0.39-0.13,0.61-0.21
			C127.83,167.85,127.94,167.65,127.68,167.49z M123.48,177.76c0.4,0.07,0.68,0.04,0.97-0.03c0.41-0.11,0.83-0.2,1.24-0.29
			c0.21-0.05,0.32-0.17,0.36-0.33c0.03-0.14-0.09-0.2-0.21-0.24c-0.26,0.07-0.51,0.12-0.75,0.2c-0.14,0.05-0.32,0.1-0.39,0.19
			c-0.16,0.21-0.42,0.22-0.65,0.28c-0.11,0.03-0.24,0.04-0.35,0.07C123.64,177.64,123.6,177.68,123.48,177.76z M117.73,176.79
			c-0.22,0.05-0.4,0.1-0.58,0.12c-0.2,0.03-0.41,0.03-0.62,0.05c-0.05,0-0.1,0.03-0.13,0.06c-0.32,0.22-0.63,0.44-0.94,0.66
			c-0.08,0.06-0.19,0.13-0.11,0.27c0.1-0.03,0.2-0.05,0.28-0.09c0.52-0.22,1.04-0.45,1.56-0.65
			C117.42,177.13,117.59,177.01,117.73,176.79z M112.84,173.11c0.02-0.36,0.04-0.7,0.05-1.04c0.01-0.15-0.11-0.2-0.27-0.13
			c-0.07,0.03-0.12,0.09-0.18,0.14c0.11,0.15,0.21,0.28,0.3,0.41c-0.15,0.15-0.28,0.28-0.42,0.41c-0.07,0.06-0.15,0.14-0.24,0.15
			c-0.43,0.07-0.73,0.39-1.17,0.44c-0.07,0.01-0.18,0.09-0.07,0.21C111.51,173.51,112.17,173.31,112.84,173.11z M126.85,170.71
			c0.12,0.01,0.19,0.03,0.24,0.02c0.1-0.03,0.18-0.08,0.27-0.12c0.18-0.07,0.35-0.12,0.52,0.01c0.02,0.02,0.06,0.03,0.09,0.04
			c0.14,0.04,0.29-0.03,0.32-0.14c0.06-0.19,0.07-0.39-0.05-0.59c-0.49,0.08-0.8,0.42-1.22,0.59
			C126.96,170.54,126.92,170.62,126.85,170.71z M113.76,176.14c-0.03-0.13-0.07-0.2-0.18-0.17c-0.17,0.06-0.34,0.13-0.5,0.21
			c-0.4,0.19-0.8,0.38-1.21,0.57c-0.28,0.13-0.58,0.25-0.87,0.37c-0.06,0.02-0.13,0.04-0.07,0.14c0.25-0.08,0.52-0.13,0.75-0.24
			c0.41-0.21,0.85-0.37,1.28-0.54C113.24,176.37,113.49,176.26,113.76,176.14z M122.99,169.61c-0.25,0.09-0.44,0.16-0.63,0.22
			c-0.06,0.02-0.13,0.04-0.17,0.08c-0.19,0.18-0.41,0.17-0.67,0.07c-0.04,0.21-0.11,0.39,0.12,0.54c0.12-0.07,0.23-0.13,0.34-0.2
			c0.12-0.08,0.24-0.16,0.36-0.24c0.11-0.07,0.23-0.13,0.34-0.2C122.79,169.82,122.97,169.8,122.99,169.61z M125.75,167.16
			c0.35-0.02,1.04-0.22,1.44-0.43c0.1-0.05,0.23-0.08,0.21-0.24c-0.06,0-0.13-0.02-0.18,0c-0.11,0.04-0.2,0.12-0.31,0.15
			c-0.24,0.09-0.48,0.15-0.72,0.24C126.01,166.94,125.82,166.98,125.75,167.16z M123.18,179.43c0.27,0.06,0.44-0.09,0.63-0.1
			c0.22-0.01,0.44,0,0.69,0c0.05-0.08,0.12-0.17,0.18-0.28c0.02-0.03,0.01-0.09-0.02-0.11c-0.03-0.02-0.1-0.04-0.14-0.03
			c-0.38,0.17-0.79,0.27-1.19,0.39C123.29,179.32,123.25,179.37,123.18,179.43z M115.46,178.99c-0.13-0.02-0.17-0.03-0.19-0.02
			c-0.36,0.16-0.72,0.32-1.08,0.48c-0.08,0.04-0.17,0.1-0.13,0.22C114.56,179.52,115.01,179.32,115.46,178.99z M127.52,173.92
			c0.05-0.1,0.09-0.18,0.11-0.26c0.02-0.07-0.07-0.15-0.15-0.13c-0.24,0.06-0.49,0.13-0.72,0.2c-0.03,0.01-0.04,0.07-0.07,0.13
			C126.96,173.88,127.21,173.9,127.52,173.92z M112.48,175.44c0.01,0.01,0.02,0.03,0.04,0.03c0.29,0.03,0.48-0.1,0.65-0.26
			c0.02-0.02-0.05-0.13-0.07-0.13c-0.15,0.01-0.31,0.02-0.45,0.07C112.51,175.2,112.5,175.33,112.48,175.44z M107.84,177.44
			c-0.08-0.03-0.1-0.05-0.11-0.04c-0.36,0.12-0.6,0.37-0.9,0.56c-0.01,0.01,0.02,0.07,0.04,0.13
			C107.2,177.87,107.51,177.67,107.84,177.44z M126.3,165.92c0.32-0.03,0.49-0.09,0.65-0.16c0.1-0.05,0.1-0.09-0.01-0.26
			C126.79,165.65,126.52,165.68,126.3,165.92z M123.47,171.78c0.21,0.03,0.34-0.05,0.45-0.13c0.04-0.03,0.05-0.11,0.03-0.14
			c-0.02-0.04-0.11-0.07-0.16-0.06C123.57,171.46,123.47,171.57,123.47,171.78z M108.28,180.03c0.15-0.1,0.29-0.19,0.41-0.29
			c0.05-0.04,0.16-0.07,0.08-0.16c-0.18,0.09-0.37,0.16-0.54,0.25C108.15,179.88,108.16,179.95,108.28,180.03z M106.18,173.56
			c-0.11-0.04-0.17-0.09-0.25-0.09c-0.05-0.01-0.15,0.03-0.16,0.06c-0.02,0.06,0,0.13,0.01,0.19c0.06,0,0.13,0.01,0.18-0.01
			C106.03,173.68,106.08,173.63,106.18,173.56z M106.56,176.75c-0.08-0.02-0.13-0.04-0.17-0.04c-0.04,0-0.1,0.03-0.12,0.05
			c-0.01,0.03,0.01,0.08,0.04,0.1c0.03,0.02,0.1,0.02,0.13,0.01C106.49,176.85,106.52,176.8,106.56,176.75z M113.88,168.88
			c-0.02-0.02-0.04-0.04-0.06-0.06c-0.07,0.02-0.15,0.03-0.22,0.06c-0.07,0.03-0.07,0.1-0.01,0.13c0.04,0.03,0.14,0.04,0.17,0.02
			C113.81,169.01,113.84,168.94,113.88,168.88z M123.45,169.37c0.06,0.02,0.1,0.05,0.11,0.04c0.05-0.03,0.1-0.06,0.15-0.09
			c-0.04-0.01-0.08-0.04-0.11-0.03C123.54,169.3,123.5,169.34,123.45,169.37z M113.37,170c-0.06-0.03-0.1-0.06-0.14-0.06
			c-0.03,0-0.06,0.04-0.09,0.07c0.04,0.02,0.07,0.07,0.11,0.07C113.28,170.08,113.32,170.04,113.37,170z M108.56,177.04
			c0.02-0.03,0.05-0.06,0.07-0.1c-0.03-0.01-0.07-0.04-0.08-0.03c-0.04,0.02-0.06,0.06-0.09,0.09
			C108.49,177.01,108.52,177.02,108.56,177.04z M108.94,163.83c-0.02-0.04-0.03-0.08-0.04-0.08c-0.04,0-0.09,0.01-0.13,0.02
			c0.01,0.03,0.02,0.08,0.04,0.09C108.85,163.87,108.9,163.84,108.94,163.83z M123.03,164.26c0.03-0.01,0.07-0.01,0.08-0.03
			c0.01-0.01-0.02-0.04-0.03-0.07c-0.03,0.01-0.07,0.01-0.08,0.03C122.99,164.2,123.02,164.23,123.03,164.26z M124.62,166.55
			c-0.05-0.02-0.09-0.04-0.1-0.03c-0.04,0.02-0.06,0.05-0.09,0.08c0.03,0.01,0.06,0.03,0.08,0.03
			C124.55,166.61,124.58,166.58,124.62,166.55z M110.37,173.81c-0.02-0.02-0.03-0.04-0.05-0.05c-0.01,0.01-0.03,0.02-0.04,0.03
			c0,0.02,0.01,0.04,0.01,0.06C110.32,173.83,110.34,173.82,110.37,173.81z M127.96,172.49c-0.02-0.02-0.03-0.04-0.05-0.06
			c-0.02,0.02-0.06,0.04-0.06,0.06c0.01,0.03,0.04,0.05,0.06,0.07C127.93,172.53,127.95,172.51,127.96,172.49z M123.55,161.59
			c0-0.01,0.01-0.02,0.01-0.03c0-0.01-0.02-0.01-0.03-0.01c0,0.01-0.01,0.02-0.01,0.03C123.52,161.58,123.54,161.58,123.55,161.59z
			 M125.97,165.95c0,0.01,0,0.03,0.01,0.03c0.01,0.01,0.03,0,0.05,0.01c-0.01-0.02-0.01-0.04-0.02-0.05
			C126,165.94,125.99,165.94,125.97,165.95z M123.24,172.96l0,0.03l0.04-0.01L123.24,172.96z M108.46,175.72
			c0.01,0,0.03,0.01,0.04,0.01c-0.01-0.01-0.02-0.03-0.03-0.04C108.47,175.71,108.46,175.72,108.46,175.72z M108.92,176.76l0-0.02
			l-0.03,0.01L108.92,176.76z M115.93,178.73c0-0.01,0-0.02-0.01-0.02c-0.01-0.01-0.03,0-0.04-0.01c0,0.01,0.01,0.03,0.01,0.04
			C115.9,178.73,115.92,178.73,115.93,178.73z"/>
		<path class="st2" d="M128.11,194.71c-0.26,0.02-0.48,0.02-0.69-0.02c-0.13-0.02-0.28-0.05-0.41-0.04
			c-0.51,0.01-1.02-0.01-1.53,0.02c-0.46,0.03-0.94,0.01-1.41,0.01c-0.29,0-0.57,0.01-0.86,0.01c-0.92,0-1.84,0.01-2.77-0.01
			c-1.08-0.02-2.17-0.06-3.25,0c-0.7,0.04-1.43,0.04-2.14,0.06c-0.3,0.01-0.61,0.03-0.91,0.04c-0.63,0.03-1.25,0.07-1.89,0.08
			c-0.57,0.02-1.15,0.01-1.72,0.02c-0.96,0.01-1.93-0.02-2.89-0.04c-0.27,0-0.54-0.01-0.8-0.03c-0.36-0.03-0.65-0.11-0.75-0.25
			c-0.15-0.2-0.28-0.41-0.21-0.62c0.03-0.12-0.05-0.2-0.28-0.29c-0.47-0.17-0.64-0.38-0.34-0.62c0.07-0.06,0.1-0.12,0.2-0.17
			c0.3-0.14,0.33-0.31,0.31-0.48c-0.01-0.15,0-0.29,0-0.44c0-0.12,0.05-0.23,0.23-0.33c0.2-0.04,0.42-0.05,0.65-0.04
			c0.5,0.03,0.98,0,1.47-0.02c0.65-0.02,1.3-0.06,1.95-0.08c0.82-0.02,1.62-0.08,2.44-0.07c0.14,0,0.28-0.01,0.42-0.02
			c0.14-0.01,0.28-0.02,0.42-0.03c1.17-0.01,2.32-0.07,3.48-0.13c0.71-0.04,1.42-0.07,2.13-0.1c0.32-0.01,0.66-0.01,0.98-0.01
			c0.9,0,1.8-0.01,2.71,0c0.88,0,1.76,0.01,2.63-0.06c0.45-0.04,0.94-0.02,1.41-0.03c0.06,0,0.13,0,0.18,0.01
			c0.41,0.05,0.84,0.07,1.27,0.09c0.28,0.01,0.51,0.05,0.66,0.15c0.17,0.12,0.26,0.23,0.13,0.36c-0.12,0.12-0.24,0.24-0.35,0.37
			c-0.02,0.02-0.05,0.04-0.05,0.07c-0.04,0.26-0.22,0.52-0.18,0.78c0.02,0.1-0.01,0.2-0.02,0.3c-0.01,0.13-0.02,0.26-0.02,0.39
			c-0.01,0.19-0.01,0.37-0.01,0.56c0,0.1,0,0.2,0,0.3C128.31,194.55,128.31,194.55,128.11,194.71z M119.29,194
			c0.2-0.05,0.2-0.05,0.2-0.16c-0.08,0.08-0.13,0.12-0.18,0.17c-0.05,0.01-0.1,0.02-0.14,0.04c-0.01,0.01,0,0.02,0.01,0.04
			c0.05-0.01,0.12-0.01,0.13-0.02C119.33,194.04,119.3,194.02,119.29,194z M116.13,192.62c0.07-0.01,0.17-0.01,0.21-0.03
			c0.36-0.16,0.72-0.33,1.07-0.49c0.05-0.02,0.16-0.04,0.05-0.1c-0.37,0.16-0.74,0.31-1.09,0.46c-0.1,0.04-0.15,0.11-0.22,0.16
			c-0.12,0.04-0.24,0.07-0.35,0.11c-0.11,0.04-0.15,0.08-0.1,0.14c-0.37,0.02-0.52,0.06-0.71,0.14c-0.35,0.15-0.65,0.31-1.08,0.43
			c-0.46,0.13-0.73,0.32-1.18,0.46c-0.15,0.13-0.38,0.24-0.5,0.39c0.24,0.03,0.39,0.02,0.51-0.05c0.16-0.1,0.31-0.2,0.51-0.29
			c0.48-0.22,0.98-0.43,1.47-0.64c0.33-0.14,0.65-0.29,0.97-0.44c0.09-0.03,0.17-0.06,0.26-0.09
			C116.04,192.73,116.15,192.68,116.13,192.62z M120.65,192.49c-0.08,0-0.18-0.02-0.23,0c-0.13,0.04-0.24,0.08-0.34,0.13
			c-0.3,0.13-0.59,0.27-0.9,0.4c-0.31,0.13-0.64,0.25-0.96,0.38c-0.33,0.13-0.75,0.22-1.04,0.37c-0.21,0.11-0.41,0.22-0.46,0.37
			c0.15,0,0.25,0.01,0.34,0c0.1,0,0.2-0.01,0.3-0.02c0.09-0.07,0.17-0.13,0.25-0.19c0.22-0.17,0.5-0.31,0.83-0.45
			c0.4-0.17,0.79-0.34,1.18-0.52C119.97,192.8,120.31,192.65,120.65,192.49c0.08-0.06,0.16-0.12,0.26-0.19
			C120.61,192.34,120.65,192.42,120.65,192.49z M114.49,192.54c-0.02-0.01-0.04-0.02-0.06-0.04c-0.05,0.01-0.12,0-0.16,0.02
			c-0.75,0.22-1.41,0.48-2.15,0.7c-0.15,0.05-0.26,0.12-0.38,0.18c-0.11,0.05-0.2,0.12-0.35,0.16c-0.35,0.08-0.52,0.23-0.88,0.31
			c-0.08,0.02-0.13,0.06-0.18,0.09c-0.16,0.1-0.31,0.19-0.47,0.29c-0.05,0.03-0.07,0.06-0.11,0.1c0.24,0.03,0.44,0.03,0.64,0.01
			c0.14-0.01,0.25-0.04,0.32-0.09c0.62-0.48,1.59-0.86,2.55-1.24C113.68,192.86,114.08,192.7,114.49,192.54z M119.49,191.7
			c-0.02,0.02-0.05,0.04-0.05,0.06c0.02,0.17-0.2,0.29-0.54,0.39c-0.12,0.04-0.22,0.09-0.32,0.13c-0.15,0.07-0.3,0.14-0.45,0.21
			c-0.37,0.18-0.75,0.36-1.12,0.54c-0.04,0.02-0.13,0.04-0.02,0.08c1.33-0.38,2.3-0.89,3.36-1.36c0.04-0.02,0.05-0.05,0.08-0.09
			C120.09,191.66,119.79,191.65,119.49,191.7z M126.34,191.64c-0.36-0.07-0.44-0.07-0.64,0.03c-0.48,0.22-0.98,0.45-1.41,0.68
			c-0.38,0.21-0.76,0.42-1.25,0.61c-0.12,0.05-0.21,0.11-0.13,0.21c0.1-0.03,0.19-0.04,0.24-0.07c0.5-0.23,1-0.46,1.49-0.69
			c0.49-0.23,0.95-0.47,1.52-0.68C126.24,191.7,126.28,191.67,126.34,191.64z M123.93,191.7c-0.09-0.02-0.14-0.04-0.2-0.04
			c-0.3-0.03-0.5,0-0.47,0.13c0.03,0.12-0.09,0.23-0.31,0.29c-0.26,0.07-0.37,0.17-0.54,0.26c-0.39,0.2-0.8,0.4-1.19,0.6
			c-0.04,0.02-0.12,0.05-0.02,0.08C122.02,192.76,123.56,192.01,123.93,191.7z M127.18,192.53c-0.09,0.02-0.15,0.03-0.18,0.05
			c-0.48,0.27-0.77,0.57-1.14,0.85c-0.01,0.01,0.02,0.03,0.04,0.06c0.07-0.02,0.14-0.03,0.18-0.05c0.34-0.16,0.55-0.35,0.93-0.5
			C127.27,192.84,127.39,192.7,127.18,192.53z M108.55,192.52c-0.53,0.1-0.67,0.16-0.68,0.28
			C108.16,192.71,108.42,192.64,108.55,192.52z M126.76,193.97c0.22-0.07,0.38-0.1,0.49-0.15c0.1-0.04,0.12-0.11-0.09-0.18
			C127.1,193.76,126.68,193.78,126.76,193.97z M121.08,194.13c0.3,0,0.31,0,0.34-0.11c0-0.01-0.05-0.02-0.1-0.04
			C121.24,194.03,121.17,194.08,121.08,194.13z M119.78,193.75c0.05-0.02,0.09-0.05,0.13-0.07c0.01,0,0-0.02-0.01-0.02
			c-0.03,0-0.08-0.01-0.11-0.01C119.71,193.68,119.67,193.71,119.78,193.75z M123.5,194.02c-0.04,0.02-0.07,0.04-0.11,0.07
			c0.05,0.01,0.1,0.03,0.14,0.02c0.09-0.01,0.12-0.03,0.09-0.07C123.61,194.03,123.56,194.03,123.5,194.02z M117.91,191.75
			c-0.05,0.02-0.11,0.04-0.14,0.06c-0.01,0.01,0.02,0.02,0.04,0.04c0.05-0.02,0.11-0.03,0.16-0.05
			C117.97,191.8,117.94,191.78,117.91,191.75z M115.9,191.92c0.03-0.02,0.07-0.03,0.08-0.05c0,0-0.07-0.03-0.07-0.02
			c-0.04,0.01-0.07,0.03-0.1,0.04C115.81,191.89,115.86,191.9,115.9,191.92z M114,191.94c-0.02,0-0.04-0.01-0.04-0.01
			c-0.01,0-0.02,0.01-0.02,0.02c0.02,0,0.04,0.01,0.05,0.01C113.99,191.96,114,191.95,114,191.94z M124.73,193.19
			c-0.03,0.01-0.04,0.01-0.06,0.02c0.01,0,0.03,0.01,0.04,0C124.72,193.2,124.72,193.2,124.73,193.19z"/>
		<path class="st3" d="M267.96,159.37c0.28,0.04,0.59,0.06,0.9,0.12c0.95,0.19,1.87,0.46,2.74,0.92c0.99,0.53,1.86,1.22,2.76,1.88
			c0.55,0.63,1.21,1.17,1.71,1.85c0.44,0.6,0.79,1.24,1.17,1.87c0.05,0.09,0.1,0.18,0.16,0.27c0.12,0.2,0.28,0.31,0.52,0.25
			c0.21-0.05,0.41-0.02,0.62,0.02c0.31,0.07,0.46-0.01,0.62-0.29c0.06-0.11,0.11-0.23,0.16-0.34c0.43-1.13,1.04-2.16,1.72-3.15
			c0.4-0.59,0.87-1.14,1.3-1.7c0.04-0.05,0.08-0.09,0.13-0.14c0.82-0.73,1.71-1.36,2.73-1.78c0.45-0.18,0.91-0.13,1.36,0.01
			c0.54,0.17,1.07,0.36,1.64,0.43c0.32,0.04,0.62,0.2,0.82,0.52c0.23,0.35,0.53,0.65,0.81,0.97c0.54,0.61,0.92,1.3,1.02,2.12
			c0.02,0.14,0.06,0.29,0.11,0.43c0.19,0.59,0.27,1.18,0.19,1.8c-0.06,0.48-0.07,0.96-0.19,1.44c-0.13,0.51-0.3,1-0.52,1.48
			c-0.34,0.75-0.63,1.51-0.93,2.27c-0.42,1.03-0.94,2.02-1.57,2.94c-0.11,0.16-0.23,0.3-0.37,0.43c-0.17,0.16-0.32,0.33-0.38,0.57
			c-0.02,0.1-0.09,0.19-0.16,0.27c-0.32,0.39-0.64,0.78-0.96,1.17c-0.55,0.69-1.16,1.33-1.81,1.93c-0.19,0.17-0.36,0.36-0.54,0.53
			c-0.46,0.46-0.92,0.92-1.38,1.37c-0.07,0.07-0.17,0.13-0.23,0.21c-0.46,0.61-1.08,1.05-1.62,1.58c-0.69,0.66-1.45,1.21-2.19,1.79
			c-0.19,0.15-0.34,0.36-0.51,0.55c-0.15,0.17-0.3,0.35-0.46,0.51c-0.13,0.13-0.3,0.18-0.46,0.05c-0.28-0.22-0.61-0.27-0.93-0.35
			c-0.18-0.04-0.37-0.11-0.52-0.21c-0.6-0.46-1.2-0.92-1.78-1.41c-0.24-0.2-0.45-0.44-0.66-0.67c-0.15-0.16-0.32-0.28-0.55-0.27
			c-0.02,0-0.04,0-0.06,0c-0.9-0.08-1.13-0.32-1.45-1.31c-0.02-0.06-0.03-0.12-0.03-0.19c-0.02-0.49-0.22-0.89-0.59-1.21
			c-0.12-0.11-0.21-0.26-0.32-0.39c-0.22-0.25-0.43-0.52-0.76-0.65c-0.25-0.11-0.4-0.3-0.5-0.54c-0.19-0.45-0.5-0.82-0.82-1.18
			c-0.84-0.94-1.64-1.91-2.37-2.95c-0.53-0.76-1.04-1.52-1.49-2.34c-0.46-0.84-0.75-1.73-0.96-2.66c-0.07-0.33-0.15-0.65-0.35-0.94
			c-0.11-0.17-0.16-0.38-0.22-0.59c-0.09-0.29-0.07-0.58,0.1-0.85c0.27-0.44,0.39-0.92,0.46-1.43c0.12-0.88,0.38-1.72,0.8-2.51
			c0.24-0.45,0.52-0.85,0.98-1.12c0.31-0.17,0.57-0.43,0.83-0.68c0.22-0.2,0.48-0.35,0.76-0.44
			C266.91,159.49,267.41,159.4,267.96,159.37z M289.74,164.24c-0.17,0.14-0.3,0.26-0.44,0.35c-0.53,0.33-1.08,0.65-1.61,0.99
			c-0.21,0.13-0.41,0.29-0.6,0.45c-0.04,0.03-0.06,0.13-0.04,0.17c0.04,0.06,0.12,0.12,0.19,0.13c0.08,0.02,0.17,0,0.24-0.03
			c0.31-0.13,0.61-0.27,0.92-0.41c0.38-0.18,0.74-0.39,1.18-0.42c0.3-0.02,0.4-0.16,0.41-0.46
			C290,164.74,290.04,164.46,289.74,164.24z M286.92,162.46c0.12,0.02,0.21,0.06,0.28,0.04c0.35-0.08,0.7-0.15,1.03-0.26
			c0.19-0.06,0.38-0.18,0.55-0.3c0.2-0.15,0.18-0.37-0.04-0.51c-0.26-0.17-0.51-0.17-0.76,0c-0.22,0.15-0.44,0.32-0.65,0.49
			C287.18,162.05,286.98,162.16,286.92,162.46z M277.35,170.08c0-0.22-0.18-0.34-0.31-0.27c-0.07,0.04-0.14,0.08-0.2,0.14
			c-0.38,0.36-0.76,0.71-1.14,1.07c-0.07,0.07-0.13,0.16-0.18,0.25c-0.02,0.03-0.02,0.09,0,0.12c0.04,0.04,0.1,0.07,0.15,0.09
			c0.04,0.01,0.09,0,0.12-0.02c0.56-0.29,1.06-0.67,1.47-1.15C277.32,170.22,277.34,170.11,277.35,170.08z M274.06,163.99
			c-0.42,0.2-0.6,0.65-0.96,0.9c-0.08,0.06-0.14,0.16-0.18,0.25c-0.03,0.06-0.02,0.15-0.03,0.29c0.19-0.08,0.33-0.11,0.44-0.19
			c0.2-0.15,0.4-0.31,0.57-0.49c0.16-0.16,0.32-0.26,0.56-0.21c0.04,0.01,0.1-0.05,0.18-0.09
			C274.5,164.2,274.32,164.06,274.06,163.99z M276.57,167.59c-0.07-0.09-0.13-0.19-0.21-0.23c-0.05-0.03-0.17,0.01-0.22,0.05
			c-0.27,0.26-0.53,0.54-0.79,0.81c-0.04,0.04-0.06,0.11-0.08,0.17c-0.04,0.09,0.07,0.23,0.16,0.22c0.06-0.01,0.14-0.01,0.18-0.04
			c0.26-0.21,0.53-0.41,0.78-0.64C276.48,167.86,276.51,167.72,276.57,167.59z M288.07,170.78c0-0.07,0.01-0.12,0-0.15
			c-0.04-0.09-0.08-0.19-0.15-0.25c-0.1-0.07-0.2,0-0.28,0.08c-0.15,0.15-0.3,0.29-0.45,0.44c-0.13,0.13-0.11,0.31,0.02,0.45
			c0.11,0.12,0.28,0.15,0.4,0.06C287.84,171.24,288.01,171.03,288.07,170.78z M266.36,161.95c-0.34,0.04-0.48,0.26-0.65,0.44
			c-0.07,0.08-0.14,0.18-0.03,0.27c0.05,0.03,0.17,0.02,0.22-0.02C266.13,162.49,266.36,162.34,266.36,161.95z M271,161.69
			c-0.19,0-0.28,0.11-0.27,0.25c0.01,0.14,0.12,0.23,0.24,0.22c0.13-0.02,0.25-0.13,0.21-0.25
			C271.15,161.81,271.05,161.74,271,161.69z M275.17,165.83c0.04-0.01,0.09-0.01,0.11-0.04c0.04-0.07,0.07-0.15,0.09-0.22
			c0.01-0.03-0.03-0.1-0.05-0.1c-0.05,0-0.13,0.01-0.15,0.04c-0.04,0.07-0.05,0.15-0.06,0.23
			C275.11,165.77,275.15,165.8,275.17,165.83z"/>
		<path class="st3" d="M288.22,194.49c-0.26,0.02-0.48,0.02-0.69-0.02c-0.13-0.02-0.28-0.05-0.41-0.04
			c-0.51,0.01-1.02-0.01-1.53,0.02c-0.46,0.03-0.94,0.01-1.41,0.01c-0.29,0-0.57,0.01-0.86,0.01c-0.92,0-1.84,0.01-2.77-0.01
			c-1.08-0.02-2.17-0.06-3.25,0c-0.7,0.04-1.43,0.04-2.14,0.06c-0.3,0.01-0.61,0.03-0.91,0.04c-0.63,0.03-1.25,0.07-1.89,0.08
			c-0.57,0.02-1.15,0.01-1.72,0.02c-0.96,0.01-1.93-0.02-2.89-0.04c-0.27,0-0.54-0.01-0.8-0.03c-0.36-0.03-0.65-0.11-0.75-0.25
			c-0.15-0.2-0.28-0.41-0.21-0.62c0.03-0.12-0.1-1.38-0.11-1.55c-0.01-0.15,0-0.29,0-0.44c0-0.12,0.05-0.23,0.23-0.33
			c0.2-0.04,0.42-0.05,0.65-0.04c0.5,0.03,0.98,0,1.47-0.02c0.65-0.02,1.3-0.06,1.95-0.08c0.82-0.02,1.62-0.08,2.44-0.07
			c0.14,0,0.28-0.01,0.42-0.02c0.14-0.01,0.28-0.02,0.42-0.03c1.17-0.01,2.32-0.07,3.48-0.13c0.71-0.04,1.42-0.07,2.13-0.1
			c0.32-0.01,0.66-0.01,0.98-0.01c0.9,0,1.8-0.01,2.71,0c0.88,0,1.76,0.01,2.63-0.06c0.45-0.04,0.94-0.02,1.41-0.03
			c0.06,0,0.13,0,0.18,0.01c0.41,0.05,0.84,0.07,1.27,0.09c0.28,0.01,0.16,1.45,0.2,1.72c0.02,0.1-0.01,0.2-0.02,0.3
			c-0.01,0.13-0.02,0.26-0.02,0.39c-0.01,0.19-0.01,0.37-0.01,0.56c0,0.1,0,0.2,0,0.3C288.42,194.33,288.42,194.33,288.22,194.49z
			 M279.4,193.78c0.2-0.05,0.2-0.05,0.2-0.16c-0.08,0.08-0.13,0.12-0.18,0.17c-0.05,0.01-0.1,0.02-0.14,0.04
			c-0.01,0.01,0,0.02,0.01,0.04c0.05-0.01,0.12-0.01,0.13-0.02C279.44,193.82,279.41,193.8,279.4,193.78z M276.23,192.39
			c0.07-0.01,0.17-0.01,0.21-0.03c0.36-0.16,0.72-0.33,1.07-0.49c0.05-0.02,0.16-0.04,0.05-0.1c-0.37,0.16-0.74,0.31-1.09,0.46
			c-0.1,0.04-0.15,0.11-0.22,0.16c-0.12,0.04-0.24,0.07-0.35,0.11c-0.11,0.04-0.15,0.08-0.1,0.14c-0.37,0.02-0.52,0.06-0.71,0.14
			c-0.35,0.15-0.65,0.31-1.08,0.43c-0.46,0.13-0.73,0.32-1.18,0.46c-0.15,0.13-0.38,0.24-0.5,0.39c0.24,0.03,0.39,0.02,0.51-0.05
			c0.16-0.1,0.31-0.2,0.51-0.29c0.48-0.22,0.98-0.43,1.47-0.64c0.33-0.14,0.65-0.29,0.97-0.44c0.09-0.03,0.17-0.06,0.26-0.09
			C276.15,192.51,276.26,192.46,276.23,192.39z M280.76,192.27c-0.08,0-0.18-0.02-0.23,0c-0.13,0.04-0.24,0.08-0.34,0.13
			c-0.3,0.13-0.59,0.27-0.9,0.4c-0.31,0.13-0.64,0.25-0.96,0.38c-0.33,0.13-0.75,0.22-1.04,0.37c-0.21,0.11-0.41,0.22-0.46,0.37
			c0.15,0,0.25,0.01,0.34,0c0.1,0,0.2-0.01,0.3-0.02c0.09-0.07,0.17-0.13,0.25-0.19c0.22-0.17,0.5-0.31,0.83-0.45
			c0.4-0.17,0.79-0.34,1.18-0.52C280.08,192.58,280.42,192.42,280.76,192.27c0.08-0.06,0.16-0.12,0.26-0.19
			C280.72,192.11,280.76,192.19,280.76,192.27z M274.6,192.32c-0.02-0.01-0.04-0.02-0.06-0.04c-0.05,0.01-0.12,0-0.16,0.02
			c-0.75,0.22-1.41,0.48-2.15,0.7c-0.15,0.05-0.26,0.12-0.38,0.18c-0.11,0.05-0.2,0.12-0.35,0.16c-0.35,0.08-0.52,0.23-0.88,0.31
			c-0.08,0.02-0.13,0.06-0.18,0.09c-0.16,0.1-0.31,0.19-0.47,0.29c-0.05,0.03-0.07,0.06-0.11,0.1c0.24,0.03,0.44,0.03,0.64,0.01
			c0.14-0.01,0.25-0.04,0.32-0.09c0.62-0.48,1.59-0.86,2.55-1.24C273.79,192.64,274.19,192.48,274.6,192.32z M279.6,191.48
			c-0.02,0.02-0.05,0.04-0.05,0.06c0.02,0.17-0.2,0.29-0.54,0.39c-0.12,0.04-0.22,0.09-0.32,0.13c-0.15,0.07-0.3,0.14-0.45,0.21
			c-0.37,0.18-0.75,0.36-1.12,0.54c-0.04,0.02-0.13,0.04-0.02,0.08c1.33-0.38,2.3-0.89,3.36-1.36c0.04-0.02,0.05-0.05,0.08-0.09
			C280.2,191.43,279.9,191.42,279.6,191.48z M286.45,191.42c-0.36-0.07-0.44-0.07-0.64,0.03c-0.48,0.22-0.98,0.45-1.41,0.68
			c-0.38,0.21-0.76,0.42-1.25,0.61c-0.12,0.05-0.21,0.11-0.13,0.21c0.1-0.03,0.19-0.04,0.24-0.07c0.5-0.23,1-0.46,1.49-0.69
			c0.49-0.23,0.95-0.47,1.52-0.68C286.35,191.48,286.39,191.45,286.45,191.42z M284.04,191.48c-0.09-0.02-0.14-0.04-0.2-0.04
			c-0.3-0.03-0.5,0-0.47,0.13c0.03,0.12-0.09,0.23-0.31,0.29c-0.26,0.07-0.37,0.17-0.54,0.26c-0.39,0.2-0.8,0.4-1.19,0.6
			c-0.04,0.02-0.12,0.05-0.02,0.08C282.13,192.54,283.67,191.79,284.04,191.48z M287.29,192.31c-0.09,0.02-0.15,0.03-0.18,0.05
			c-0.48,0.27-0.77,0.57-1.14,0.85c-0.01,0.01,0.02,0.03,0.04,0.06c0.07-0.02,0.14-0.03,0.18-0.05c0.34-0.16,0.55-0.35,0.93-0.5
			C287.38,192.61,287.49,192.48,287.29,192.31z M268.66,192.29c-0.53,0.1-0.67,0.16-0.68,0.28
			C268.27,192.49,268.52,192.42,268.66,192.29z M286.86,193.75c0.22-0.07,0.38-0.1,0.49-0.15c0.1-0.04,0.12-0.11-0.09-0.18
			C287.2,193.54,286.78,193.56,286.86,193.75z M281.19,193.91c0.3,0,0.31,0,0.34-0.11c0-0.01-0.05-0.02-0.1-0.04
			C281.35,193.81,281.28,193.85,281.19,193.91z M279.89,193.53c0.05-0.02,0.09-0.05,0.13-0.07c0.01,0,0-0.02-0.01-0.02
			c-0.03,0-0.08-0.01-0.11-0.01C279.82,193.46,279.78,193.48,279.89,193.53z M283.61,193.8c-0.04,0.02-0.07,0.04-0.11,0.07
			c0.05,0.01,0.1,0.03,0.14,0.02c0.09-0.01,0.12-0.03,0.09-0.07C283.71,193.81,283.67,193.81,283.61,193.8z M278.01,191.53
			c-0.05,0.02-0.11,0.04-0.14,0.06c-0.01,0.01,0.02,0.02,0.04,0.04c0.05-0.02,0.11-0.03,0.16-0.05
			C278.08,191.58,278.05,191.56,278.01,191.53z M276.01,191.7c0.03-0.02,0.07-0.03,0.08-0.05c0,0-0.07-0.03-0.07-0.02
			c-0.04,0.01-0.07,0.03-0.1,0.04C275.92,191.67,275.97,191.68,276.01,191.7z M274.11,191.72c-0.02,0-0.04-0.01-0.04-0.01
			c-0.01,0-0.02,0.01-0.02,0.02c0.02,0,0.04,0.01,0.05,0.01C274.1,191.74,274.1,191.73,274.11,191.72z M284.84,192.96
			c-0.03,0.01-0.04,0.01-0.06,0.02c0.01,0,0.03,0.01,0.04,0C284.82,192.98,284.83,192.97,284.84,192.96z"/>
	</g>
</g>
</svg>
