<?xml version="1.0" encoding="utf-8"?>
<!-- Generator: Adobe Illustrator 24.1.2, SVG Export Plug-In . SVG Version: 6.00 Build 0)  -->
<svg version="1.1" id="Layer_1" xmlns="http://www.w3.org/2000/svg" xmlns:xlink="http://www.w3.org/1999/xlink" x="0px" y="0px"
	 viewBox="0 0 404 349" style="enable-background:new 0 0 404 349;" xml:space="preserve">
<style type="text/css">
	.st0{fill:#F3F3F5;}
	.st1{fill:#02ACC8;}
	.st2{fill:url(#SVGID_1_);}
	.st3{fill:#2C89CA;}
	.st4{opacity:0.48;}
	.st5{opacity:0.71;fill:#ABD8F4;}
	.st6{opacity:0.4;}
	.st7{fill:#D8374F;}
	.st8{fill:#FFFFFF;}
	.st9{fill:#C5E6F9;}
	.st10{fill:#5AB8E8;}
	.st11{fill:#ABD8F4;}
	.st12{fill:#6CCFF6;}
	.st13{fill:#F04D5E;}
	.st14{fill:#CA3894;}
	.st15{fill:#194680;}
	.st16{fill:#273846;}
	.st17{fill:url(#SVGID_2_);}
	.st18{fill:#D1D7E2;}
	.st19{fill:#EAD7B7;}
	.st20{filter:url(#Adobe_OpacityMaskFilter);}
	.st21{filter:url(#Adobe_OpacityMaskFilter_1_);}
	.st22{mask:url(#SVGID_3_);fill:url(#SVGID_4_);}
	.st23{opacity:0.1;fill:#2C89CA;}
	.st24{opacity:0.3;}
	.st25{fill:#DFF2F6;}
	.st26{fill:#D6DEE1;}
	.st27{fill:#0065A0;}
	.st28{fill:#B5C1C8;}
	.st29{opacity:0.9;}
</style>
<rect x="-0.3" y="-0.38" class="st0" width="404.49" height="349.75"/>
<g>
	<path class="st1" d="M282.42,55.34c0.02,0,0.04-0.02,0.04-0.04c0-0.02-0.02-0.04-0.04-0.04c-0.02,0-0.04,0.02-0.04,0.04
		C282.38,55.32,282.4,55.34,282.42,55.34z"/>
	<path class="st1" d="M286.38,55.62c0.18,0,0.33-0.15,0.33-0.33c0-0.18-0.15-0.33-0.33-0.33c-0.18,0-0.33,0.15-0.33,0.33
		C286.05,55.47,286.2,55.62,286.38,55.62z"/>
	<path class="st1" d="M290.34,55.86c0.31,0,0.56-0.25,0.56-0.56s-0.25-0.56-0.56-0.56c-0.31,0-0.56,0.25-0.56,0.56
		S290.03,55.86,290.34,55.86z"/>
	<path class="st1" d="M294.31,55.89c0.33,0,0.59-0.27,0.59-0.59c0-0.33-0.27-0.59-0.59-0.59c-0.33,0-0.59,0.27-0.59,0.59
		C293.71,55.62,293.98,55.89,294.31,55.89z"/>
	<path class="st1" d="M298.27,55.85c0.3,0,0.55-0.25,0.55-0.55s-0.25-0.55-0.55-0.55c-0.3,0-0.55,0.25-0.55,0.55
		S297.96,55.85,298.27,55.85z"/>
	<path class="st1" d="M302.23,55.67c0.21,0,0.38-0.17,0.38-0.38c0-0.21-0.17-0.38-0.38-0.38c-0.21,0-0.38,0.17-0.38,0.38
		C301.85,55.5,302.02,55.67,302.23,55.67z"/>
	<path class="st1" d="M306.19,55.41c0.06,0,0.11-0.05,0.11-0.11c0-0.06-0.05-0.11-0.11-0.11c-0.06,0-0.11,0.05-0.11,0.11
		C306.08,55.36,306.13,55.41,306.19,55.41z"/>
	<path class="st1" d="M278.46,59.5c0.14,0,0.25-0.11,0.25-0.25c0-0.14-0.11-0.25-0.25-0.25c-0.14,0-0.25,0.11-0.25,0.25
		C278.21,59.39,278.32,59.5,278.46,59.5z"/>
	<path class="st1" d="M282.42,60.17c0.5,0,0.91-0.41,0.91-0.91c0-0.5-0.41-0.91-0.91-0.91c-0.5,0-0.91,0.41-0.91,0.91
		C281.51,59.76,281.92,60.17,282.42,60.17z"/>
	<circle class="st1" cx="286.38" cy="59.26" r="1.04"/>
	<path class="st1" d="M290.34,60.25c0.55,0,0.99-0.44,0.99-0.99c0-0.55-0.44-0.99-0.99-0.99c-0.55,0-0.99,0.44-0.99,0.99
		C289.35,59.8,289.8,60.25,290.34,60.25z"/>
	<circle class="st1" cx="294.31" cy="59.26" r="0.95"/>
	<path class="st1" d="M298.27,60.16c0.5,0,0.9-0.4,0.9-0.9c0-0.5-0.4-0.9-0.9-0.9c-0.5,0-0.9,0.4-0.9,0.9
		C297.37,59.75,297.77,60.16,298.27,60.16z"/>
	<path class="st1" d="M302.23,60.11c0.47,0,0.85-0.38,0.85-0.85c0-0.47-0.38-0.85-0.85-0.85c-0.47,0-0.85,0.38-0.85,0.85
		C301.38,59.73,301.76,60.11,302.23,60.11z"/>
	<path class="st1" d="M306.19,60.03c0.43,0,0.78-0.35,0.78-0.78c0-0.43-0.35-0.78-0.78-0.78c-0.43,0-0.78,0.35-0.78,0.78
		C305.42,59.69,305.77,60.03,306.19,60.03z"/>
	<path class="st1" d="M310.16,59.67c0.23,0,0.41-0.18,0.41-0.41c0-0.23-0.18-0.41-0.41-0.41c-0.23,0-0.41,0.18-0.41,0.41
		C309.75,59.48,309.93,59.67,310.16,59.67z"/>
	<path class="st1" d="M314.12,59.28c0.01,0,0.02-0.01,0.02-0.02c0-0.01-0.01-0.02-0.02-0.02c-0.01,0-0.02,0.01-0.02,0.02
		C314.1,59.27,314.11,59.28,314.12,59.28z"/>
	<path class="st1" d="M274.49,63.41c0.11,0,0.19-0.09,0.19-0.19c0-0.11-0.09-0.19-0.19-0.19c-0.11,0-0.19,0.09-0.19,0.19
		C274.3,63.33,274.39,63.41,274.49,63.41z"/>
	<path class="st1" d="M278.46,64.28c0.59,0,1.06-0.48,1.06-1.06c0-0.59-0.48-1.06-1.06-1.06c-0.59,0-1.06,0.48-1.06,1.06
		C277.39,63.81,277.87,64.28,278.46,64.28z"/>
	<path class="st1" d="M282.42,64.31c0.6,0,1.09-0.49,1.09-1.09c0-0.6-0.49-1.09-1.09-1.09c-0.6,0-1.09,0.49-1.09,1.09
		C281.33,63.82,281.81,64.31,282.42,64.31z"/>
	<circle class="st1" cx="286.38" cy="63.22" r="1.04"/>
	<path class="st1" d="M290.34,64.21c0.55,0,0.99-0.44,0.99-0.99c0-0.55-0.44-0.99-0.99-0.99c-0.55,0-0.99,0.44-0.99,0.99
		C289.35,63.77,289.8,64.21,290.34,64.21z"/>
	<circle class="st1" cx="294.31" cy="63.22" r="0.95"/>
	<path class="st1" d="M298.27,64.12c0.5,0,0.9-0.4,0.9-0.9c0-0.5-0.4-0.9-0.9-0.9c-0.5,0-0.9,0.4-0.9,0.9
		C297.37,63.72,297.77,64.12,298.27,64.12z"/>
	<path class="st1" d="M302.23,64.07c0.47,0,0.85-0.38,0.85-0.85c0-0.47-0.38-0.85-0.85-0.85c-0.47,0-0.85,0.38-0.85,0.85
		C301.38,63.69,301.76,64.07,302.23,64.07z"/>
	<path class="st1" d="M306.19,64.03c0.45,0,0.81-0.36,0.81-0.81c0-0.45-0.36-0.81-0.81-0.81c-0.45,0-0.81,0.36-0.81,0.81
		C305.39,63.67,305.75,64.03,306.19,64.03z"/>
	<path class="st1" d="M310.16,63.98c0.42,0,0.76-0.34,0.76-0.76c0-0.42-0.34-0.76-0.76-0.76c-0.42,0-0.76,0.34-0.76,0.76
		C309.4,63.64,309.74,63.98,310.16,63.98z"/>
	<path class="st1" d="M314.12,63.63c0.23,0,0.41-0.18,0.41-0.41c0-0.23-0.18-0.41-0.41-0.41c-0.23,0-0.41,0.18-0.41,0.41
		C313.71,63.45,313.89,63.63,314.12,63.63z"/>
	<path class="st1" d="M318.08,63.23c0.01,0,0.01,0,0.01-0.01c0-0.01,0-0.01-0.01-0.01c-0.01,0-0.01,0-0.01,0.01
		C318.07,63.23,318.08,63.23,318.08,63.23z"/>
	<path class="st1" d="M322.05,63.3c0.05,0,0.08-0.04,0.08-0.08c0-0.05-0.04-0.08-0.08-0.08c-0.05,0-0.08,0.04-0.08,0.08
		C321.96,63.26,322,63.3,322.05,63.3z"/>
	<path class="st1" d="M326.01,63.37c0.08,0,0.15-0.07,0.15-0.15c0-0.08-0.07-0.15-0.15-0.15s-0.15,0.07-0.15,0.15
		C325.86,63.3,325.92,63.37,326.01,63.37z"/>
	<circle class="st1" cx="329.97" cy="63.22" r="0.1"/>
	<path class="st1" d="M333.93,63.24c0.01,0,0.02-0.01,0.02-0.02c0-0.01-0.01-0.02-0.02-0.02c-0.01,0-0.02,0.01-0.02,0.02
		C333.91,63.23,333.92,63.24,333.93,63.24z"/>
	<path class="st1" d="M274.49,68.01c0.46,0,0.83-0.37,0.83-0.83s-0.37-0.83-0.83-0.83c-0.46,0-0.83,0.37-0.83,0.83
		S274.04,68.01,274.49,68.01z"/>
	<path class="st1" d="M278.46,68.32c0.63,0,1.13-0.51,1.13-1.13c0-0.63-0.51-1.13-1.13-1.13c-0.63,0-1.13,0.51-1.13,1.13
		C277.32,67.81,277.83,68.32,278.46,68.32z"/>
	<path class="st1" d="M282.42,68.28c0.6,0,1.09-0.49,1.09-1.09c0-0.6-0.49-1.09-1.09-1.09c-0.6,0-1.09,0.49-1.09,1.09
		C281.33,67.79,281.81,68.28,282.42,68.28z"/>
	<circle class="st1" cx="286.38" cy="67.18" r="1.04"/>
	<path class="st1" d="M290.34,68.17c0.55,0,0.99-0.44,0.99-0.99c0-0.55-0.44-0.99-0.99-0.99c-0.55,0-0.99,0.44-0.99,0.99
		C289.35,67.73,289.8,68.17,290.34,68.17z"/>
	<circle class="st1" cx="294.31" cy="67.18" r="0.95"/>
	<path class="st1" d="M298.27,68.08c0.5,0,0.9-0.4,0.9-0.9c0-0.5-0.4-0.9-0.9-0.9c-0.5,0-0.9,0.4-0.9,0.9
		C297.37,67.68,297.77,68.08,298.27,68.08z"/>
	<path class="st1" d="M302.23,68.03c0.47,0,0.85-0.38,0.85-0.85c0-0.47-0.38-0.85-0.85-0.85c-0.47,0-0.85,0.38-0.85,0.85
		C301.38,67.65,301.76,68.03,302.23,68.03z"/>
	<path class="st1" d="M306.19,67.99c0.45,0,0.81-0.36,0.81-0.81c0-0.45-0.36-0.81-0.81-0.81c-0.45,0-0.81,0.36-0.81,0.81
		C305.39,67.63,305.75,67.99,306.19,67.99z"/>
	<path class="st1" d="M310.16,67.94c0.42,0,0.76-0.34,0.76-0.76c0-0.42-0.34-0.76-0.76-0.76c-0.42,0-0.76,0.34-0.76,0.76
		C309.4,67.6,309.74,67.94,310.16,67.94z"/>
	<path class="st1" d="M314.12,67.88c0.38,0,0.69-0.31,0.69-0.69c0-0.38-0.31-0.69-0.69-0.69c-0.38,0-0.69,0.31-0.69,0.69
		C313.43,67.57,313.74,67.88,314.12,67.88z"/>
	<path class="st1" d="M318.08,67.65c0.26,0,0.47-0.21,0.47-0.47c0-0.26-0.21-0.47-0.47-0.47c-0.26,0-0.47,0.21-0.47,0.47
		C317.61,67.44,317.82,67.65,318.08,67.65z"/>
	<path class="st1" d="M322.05,67.8c0.34,0,0.61-0.27,0.61-0.61s-0.27-0.61-0.61-0.61c-0.34,0-0.61,0.27-0.61,0.61
		S321.71,67.8,322.05,67.8z"/>
	<path class="st1" d="M326.01,67.75c0.32,0,0.57-0.26,0.57-0.57c0-0.32-0.26-0.57-0.57-0.57s-0.57,0.26-0.57,0.57
		C325.44,67.5,325.69,67.75,326.01,67.75z"/>
	<circle class="st1" cx="329.97" cy="67.18" r="0.52"/>
	<path class="st1" d="M333.93,67.62c0.24,0,0.44-0.2,0.44-0.44c0-0.24-0.2-0.44-0.44-0.44c-0.24,0-0.44,0.2-0.44,0.44
		C333.49,67.43,333.69,67.62,333.93,67.62z"/>
	<circle class="st1" cx="337.9" cy="67.18" r="0.21"/>
	<path class="st1" d="M341.86,67.19c0.01,0,0.01,0,0.01-0.01c0-0.01,0-0.01-0.01-0.01c-0.01,0-0.01,0-0.01,0.01
		C341.85,67.19,341.85,67.19,341.86,67.19z"/>
	<path class="st1" d="M266.57,71.19c0.02,0,0.04-0.02,0.04-0.04c0-0.02-0.02-0.04-0.04-0.04c-0.02,0-0.04,0.02-0.04,0.04
		C266.53,71.17,266.55,71.19,266.57,71.19z"/>
	<path class="st1" d="M270.53,71.29c0.08,0,0.14-0.06,0.14-0.14c0-0.08-0.06-0.14-0.14-0.14c-0.08,0-0.14,0.06-0.14,0.14
		C270.39,71.22,270.45,71.29,270.53,71.29z"/>
	<path class="st1" d="M274.49,72.29c0.63,0,1.14-0.51,1.14-1.14c0-0.63-0.51-1.14-1.14-1.14c-0.63,0-1.14,0.51-1.14,1.14
		C273.35,71.78,273.86,72.29,274.49,72.29z"/>
	<path class="st1" d="M278.46,72.28c0.63,0,1.13-0.51,1.13-1.13c0-0.63-0.51-1.13-1.13-1.13c-0.63,0-1.13,0.51-1.13,1.13
		C277.32,71.77,277.83,72.28,278.46,72.28z"/>
	<path class="st1" d="M282.42,72.24c0.6,0,1.09-0.49,1.09-1.09c0-0.6-0.49-1.09-1.09-1.09c-0.6,0-1.09,0.49-1.09,1.09
		C281.33,71.75,281.81,72.24,282.42,72.24z"/>
	<circle class="st1" cx="286.38" cy="71.15" r="1.04"/>
	<path class="st1" d="M290.34,72.14c0.55,0,0.99-0.44,0.99-0.99c0-0.55-0.44-0.99-0.99-0.99c-0.55,0-0.99,0.44-0.99,0.99
		C289.35,71.69,289.8,72.14,290.34,72.14z"/>
	<circle class="st1" cx="294.31" cy="71.15" r="0.95"/>
	<path class="st1" d="M298.27,72.04c0.5,0,0.9-0.4,0.9-0.9c0-0.5-0.4-0.9-0.9-0.9c-0.5,0-0.9,0.4-0.9,0.9
		C297.37,71.64,297.77,72.04,298.27,72.04z"/>
	<path class="st1" d="M302.23,71.99c0.47,0,0.85-0.38,0.85-0.85c0-0.47-0.38-0.85-0.85-0.85c-0.47,0-0.85,0.38-0.85,0.85
		C301.38,71.61,301.76,71.99,302.23,71.99z"/>
	<path class="st1" d="M306.19,71.95c0.45,0,0.81-0.36,0.81-0.81c0-0.45-0.36-0.81-0.81-0.81c-0.45,0-0.81,0.36-0.81,0.81
		C305.39,71.59,305.75,71.95,306.19,71.95z"/>
	<path class="st1" d="M310.16,71.9c0.42,0,0.76-0.34,0.76-0.76c0-0.42-0.34-0.76-0.76-0.76c-0.42,0-0.76,0.34-0.76,0.76
		C309.4,71.56,309.74,71.9,310.16,71.9z"/>
	<path class="st1" d="M314.12,71.85c0.39,0,0.71-0.32,0.71-0.71c0-0.39-0.32-0.71-0.71-0.71c-0.39,0-0.71,0.32-0.71,0.71
		C313.42,71.53,313.73,71.85,314.12,71.85z"/>
	<path class="st1" d="M318.08,71.81c0.37,0,0.66-0.3,0.66-0.66s-0.3-0.66-0.66-0.66s-0.66,0.3-0.66,0.66S317.72,71.81,318.08,71.81z
		"/>
	<circle class="st1" cx="322.05" cy="71.15" r="0.62"/>
	<path class="st1" d="M326.01,71.72c0.32,0,0.57-0.26,0.57-0.57c0-0.32-0.26-0.57-0.57-0.57s-0.57,0.26-0.57,0.57
		C325.44,71.46,325.69,71.72,326.01,71.72z"/>
	<circle class="st1" cx="329.97" cy="71.15" r="0.52"/>
	<path class="st1" d="M333.93,71.63c0.27,0,0.48-0.22,0.48-0.48c0-0.27-0.22-0.48-0.48-0.48c-0.27,0-0.48,0.22-0.48,0.48
		C333.45,71.41,333.67,71.63,333.93,71.63z"/>
	<path class="st1" d="M337.9,71.57c0.24,0,0.43-0.19,0.43-0.43c0-0.24-0.19-0.43-0.43-0.43c-0.24,0-0.43,0.19-0.43,0.43
		C337.47,71.38,337.66,71.57,337.9,71.57z"/>
	<circle class="st1" cx="341.86" cy="71.15" r="0.21"/>
	<path class="st1" d="M254.68,75.13c0.01,0,0.02-0.01,0.02-0.02c0-0.01-0.01-0.02-0.02-0.02c-0.01,0-0.02,0.01-0.02,0.02
		C254.66,75.12,254.67,75.13,254.68,75.13z"/>
	<path class="st1" d="M258.64,75.57c0.25,0,0.46-0.21,0.46-0.46c0-0.25-0.21-0.46-0.46-0.46c-0.25,0-0.46,0.21-0.46,0.46
		C258.18,75.36,258.39,75.57,258.64,75.57z"/>
	<path class="st1" d="M262.6,76.07c0.53,0,0.96-0.43,0.96-0.96c0-0.53-0.43-0.96-0.96-0.96c-0.53,0-0.96,0.43-0.96,0.96
		C261.64,75.64,262.07,76.07,262.6,76.07z"/>
	<circle class="st1" cx="266.57" cy="75.11" r="1.15"/>
	<path class="st1" d="M270.53,76.25c0.63,0,1.14-0.51,1.14-1.14c0-0.63-0.51-1.14-1.14-1.14c-0.63,0-1.14,0.51-1.14,1.14
		C269.39,75.74,269.9,76.25,270.53,76.25z"/>
	<path class="st1" d="M274.49,76.29c0.65,0,1.19-0.53,1.19-1.19c0-0.65-0.53-1.19-1.19-1.19c-0.65,0-1.19,0.53-1.19,1.19
		C273.31,75.76,273.84,76.29,274.49,76.29z"/>
	<path class="st1" d="M278.46,76.24c0.63,0,1.13-0.51,1.13-1.13c0-0.63-0.51-1.13-1.13-1.13c-0.63,0-1.13,0.51-1.13,1.13
		C277.32,75.73,277.83,76.24,278.46,76.24z"/>
	<path class="st1" d="M282.42,76.2c0.6,0,1.09-0.49,1.09-1.09c0-0.6-0.49-1.09-1.09-1.09c-0.6,0-1.09,0.49-1.09,1.09
		C281.33,75.71,281.81,76.2,282.42,76.2z"/>
	<circle class="st1" cx="286.38" cy="75.11" r="1.04"/>
	<path class="st1" d="M290.34,76.1c0.55,0,0.99-0.44,0.99-0.99c0-0.55-0.44-0.99-0.99-0.99c-0.55,0-0.99,0.44-0.99,0.99
		C289.35,75.66,289.8,76.1,290.34,76.1z"/>
	<circle class="st1" cx="294.31" cy="75.11" r="0.95"/>
	<path class="st1" d="M298.27,76.01c0.5,0,0.9-0.4,0.9-0.9c0-0.5-0.4-0.9-0.9-0.9c-0.5,0-0.9,0.4-0.9,0.9
		C297.37,75.6,297.77,76.01,298.27,76.01z"/>
	<path class="st1" d="M302.23,75.96c0.47,0,0.85-0.38,0.85-0.85c0-0.47-0.38-0.85-0.85-0.85c-0.47,0-0.85,0.38-0.85,0.85
		C301.38,75.58,301.76,75.96,302.23,75.96z"/>
	<path class="st1" d="M306.19,75.92c0.45,0,0.81-0.36,0.81-0.81c0-0.45-0.36-0.81-0.81-0.81c-0.45,0-0.81,0.36-0.81,0.81
		C305.39,75.55,305.75,75.92,306.19,75.92z"/>
	<path class="st1" d="M310.16,75.86c0.42,0,0.76-0.34,0.76-0.76c0-0.42-0.34-0.76-0.76-0.76c-0.42,0-0.76,0.34-0.76,0.76
		C309.4,75.53,309.74,75.86,310.16,75.86z"/>
	<path class="st1" d="M314.12,75.81c0.39,0,0.71-0.32,0.71-0.71c0-0.39-0.32-0.71-0.71-0.71c-0.39,0-0.71,0.32-0.71,0.71
		C313.42,75.5,313.73,75.81,314.12,75.81z"/>
	<path class="st1" d="M318.08,75.77c0.37,0,0.66-0.3,0.66-0.66c0-0.37-0.3-0.66-0.66-0.66s-0.66,0.3-0.66,0.66
		C317.42,75.47,317.72,75.77,318.08,75.77z"/>
	<circle class="st1" cx="322.05" cy="75.11" r="0.62"/>
	<path class="st1" d="M326.01,75.68c0.32,0,0.57-0.26,0.57-0.57c0-0.32-0.26-0.57-0.57-0.57s-0.57,0.26-0.57,0.57
		C325.44,75.42,325.69,75.68,326.01,75.68z"/>
	<circle class="st1" cx="329.97" cy="75.11" r="0.52"/>
	<path class="st1" d="M333.93,75.59c0.27,0,0.48-0.22,0.48-0.48c0-0.27-0.22-0.48-0.48-0.48c-0.27,0-0.48,0.22-0.48,0.48
		C333.45,75.37,333.67,75.59,333.93,75.59z"/>
	<path class="st1" d="M337.9,75.54c0.24,0,0.43-0.19,0.43-0.43c0-0.24-0.19-0.43-0.43-0.43c-0.24,0-0.43,0.19-0.43,0.43
		C337.47,75.34,337.66,75.54,337.9,75.54z"/>
	<path class="st1" d="M341.86,75.48c0.2,0,0.37-0.16,0.37-0.37c0-0.2-0.16-0.37-0.37-0.37c-0.2,0-0.37,0.16-0.37,0.37
		C341.49,75.31,341.66,75.48,341.86,75.48z"/>
	<path class="st1" d="M345.82,75.19c0.05,0,0.08-0.04,0.08-0.08c0-0.05-0.04-0.08-0.08-0.08c-0.05,0-0.08,0.04-0.08,0.08
		C345.74,75.15,345.78,75.19,345.82,75.19z"/>
	<path class="st1" d="M349.79,75.16c0.03,0,0.05-0.02,0.05-0.05c0-0.03-0.02-0.05-0.05-0.05c-0.03,0-0.05,0.02-0.05,0.05
		C349.73,75.14,349.76,75.16,349.79,75.16z"/>
	<path class="st1" d="M353.75,75.13c0.01,0,0.02-0.01,0.02-0.02c0-0.01-0.01-0.02-0.02-0.02c-0.01,0-0.02,0.01-0.02,0.02
		C353.73,75.12,353.74,75.13,353.75,75.13z"/>
	<path class="st1" d="M250.72,79.13c0.03,0,0.06-0.03,0.06-0.06s-0.03-0.06-0.06-0.06c-0.03,0-0.06,0.03-0.06,0.06
		S250.68,79.13,250.72,79.13z"/>
	<circle class="st1" cx="254.68" cy="79.07" r="0.95"/>
	<circle class="st1" cx="258.64" cy="79.07" r="1.37"/>
	<path class="st1" d="M262.6,80.4c0.73,0,1.33-0.59,1.33-1.33c0-0.73-0.59-1.33-1.33-1.33c-0.73,0-1.33,0.59-1.33,1.33
		C261.28,79.8,261.87,80.4,262.6,80.4z"/>
	<path class="st1" d="M266.57,80.35c0.71,0,1.28-0.57,1.28-1.28s-0.57-1.28-1.28-1.28s-1.28,0.57-1.28,1.28
		S265.86,80.35,266.57,80.35z"/>
	<path class="st1" d="M270.53,80.31c0.68,0,1.24-0.55,1.24-1.24c0-0.68-0.55-1.24-1.24-1.24c-0.68,0-1.24,0.55-1.24,1.24
		C269.29,79.75,269.85,80.31,270.53,80.31z"/>
	<path class="st1" d="M274.49,80.26c0.65,0,1.19-0.53,1.19-1.19c0-0.65-0.53-1.19-1.19-1.19c-0.65,0-1.19,0.53-1.19,1.19
		C273.31,79.73,273.84,80.26,274.49,80.26z"/>
	<path class="st1" d="M278.46,80.21c0.63,0,1.13-0.51,1.13-1.13c0-0.63-0.51-1.13-1.13-1.13c-0.63,0-1.13,0.51-1.13,1.13
		C277.32,79.7,277.83,80.21,278.46,80.21z"/>
	<path class="st1" d="M282.42,80.16c0.6,0,1.09-0.49,1.09-1.09c0-0.6-0.49-1.09-1.09-1.09c-0.6,0-1.09,0.49-1.09,1.09
		C281.33,79.67,281.81,80.16,282.42,80.16z"/>
	<circle class="st1" cx="286.38" cy="79.07" r="1.04"/>
	<path class="st1" d="M290.34,80.06c0.55,0,0.99-0.44,0.99-0.99c0-0.55-0.44-0.99-0.99-0.99c-0.55,0-0.99,0.44-0.99,0.99
		C289.35,79.62,289.8,80.06,290.34,80.06z"/>
	<circle class="st1" cx="294.31" cy="79.07" r="0.95"/>
	<path class="st1" d="M298.27,79.97c0.5,0,0.9-0.4,0.9-0.9c0-0.5-0.4-0.9-0.9-0.9c-0.5,0-0.9,0.4-0.9,0.9
		C297.37,79.57,297.77,79.97,298.27,79.97z"/>
	<path class="st1" d="M302.23,79.92c0.47,0,0.85-0.38,0.85-0.85c0-0.47-0.38-0.85-0.85-0.85c-0.47,0-0.85,0.38-0.85,0.85
		C301.38,79.54,301.76,79.92,302.23,79.92z"/>
	<path class="st1" d="M306.19,79.88c0.45,0,0.81-0.36,0.81-0.81c0-0.45-0.36-0.81-0.81-0.81c-0.45,0-0.81,0.36-0.81,0.81
		C305.39,79.52,305.75,79.88,306.19,79.88z"/>
	<path class="st1" d="M310.16,79.83c0.42,0,0.76-0.34,0.76-0.76c0-0.42-0.34-0.76-0.76-0.76c-0.42,0-0.76,0.34-0.76,0.76
		C309.4,79.49,309.74,79.83,310.16,79.83z"/>
	<path class="st1" d="M314.12,79.78c0.39,0,0.71-0.32,0.71-0.71c0-0.39-0.32-0.71-0.71-0.71c-0.39,0-0.71,0.32-0.71,0.71
		C313.42,79.46,313.73,79.78,314.12,79.78z"/>
	<path class="st1" d="M318.08,79.73c0.37,0,0.66-0.3,0.66-0.66s-0.3-0.66-0.66-0.66s-0.66,0.3-0.66,0.66S317.72,79.73,318.08,79.73z
		"/>
	<circle class="st1" cx="322.05" cy="79.07" r="0.62"/>
	<path class="st1" d="M326.01,79.64c0.32,0,0.57-0.26,0.57-0.57c0-0.32-0.26-0.57-0.57-0.57s-0.57,0.26-0.57,0.57
		C325.44,79.39,325.69,79.64,326.01,79.64z"/>
	<circle class="st1" cx="329.97" cy="79.07" r="0.52"/>
	<path class="st1" d="M333.93,79.55c0.27,0,0.48-0.22,0.48-0.48c0-0.27-0.22-0.48-0.48-0.48c-0.27,0-0.48,0.22-0.48,0.48
		C333.45,79.34,333.67,79.55,333.93,79.55z"/>
	<path class="st1" d="M337.9,79.5c0.24,0,0.43-0.19,0.43-0.43c0-0.24-0.19-0.43-0.43-0.43c-0.24,0-0.43,0.19-0.43,0.43
		C337.47,79.31,337.66,79.5,337.9,79.5z"/>
	<path class="st1" d="M341.86,79.45c0.21,0,0.38-0.17,0.38-0.38c0-0.21-0.17-0.38-0.38-0.38c-0.21,0-0.38,0.17-0.38,0.38
		C341.48,79.28,341.65,79.45,341.86,79.45z"/>
	<path class="st1" d="M345.82,79.41c0.19,0,0.34-0.15,0.34-0.34s-0.15-0.34-0.34-0.34c-0.19,0-0.34,0.15-0.34,0.34
		S345.64,79.41,345.82,79.41z"/>
	<path class="st1" d="M349.79,79.36c0.16,0,0.29-0.13,0.29-0.29c0-0.16-0.13-0.29-0.29-0.29c-0.16,0-0.29,0.13-0.29,0.29
		C349.5,79.23,349.63,79.36,349.79,79.36z"/>
	<path class="st1" d="M353.75,79.3c0.12,0,0.22-0.1,0.22-0.22c0-0.12-0.1-0.22-0.22-0.22c-0.12,0-0.22,0.1-0.22,0.22
		C353.52,79.19,353.62,79.3,353.75,79.3z"/>
	<path class="st1" d="M357.71,79.22c0.08,0,0.15-0.07,0.15-0.15c0-0.08-0.07-0.15-0.15-0.15c-0.08,0-0.15,0.07-0.15,0.15
		C357.56,79.16,357.63,79.22,357.71,79.22z"/>
	<path class="st1" d="M361.67,79.13c0.03,0,0.06-0.03,0.06-0.06s-0.03-0.06-0.06-0.06c-0.03,0-0.06,0.03-0.06,0.06
		S361.64,79.13,361.67,79.13z"/>
	<path class="st1" d="M250.72,83.89c0.47,0,0.86-0.38,0.86-0.86c0-0.47-0.38-0.86-0.86-0.86c-0.47,0-0.86,0.38-0.86,0.86
		C249.86,83.51,250.24,83.89,250.72,83.89z"/>
	<path class="st1" d="M254.68,84.45c0.78,0,1.42-0.64,1.42-1.42c0-0.78-0.64-1.42-1.42-1.42c-0.78,0-1.42,0.64-1.42,1.42
		C253.26,83.82,253.89,84.45,254.68,84.45z"/>
	<path class="st1" d="M258.64,84.41c0.76,0,1.38-0.62,1.38-1.38c0-0.76-0.62-1.38-1.38-1.38c-0.76,0-1.38,0.62-1.38,1.38
		C257.26,83.8,257.88,84.41,258.64,84.41z"/>
	<path class="st1" d="M262.6,84.36c0.73,0,1.33-0.59,1.33-1.33c0-0.73-0.59-1.33-1.33-1.33c-0.73,0-1.33,0.59-1.33,1.33
		C261.28,83.77,261.87,84.36,262.6,84.36z"/>
	<path class="st1" d="M266.57,84.31c0.71,0,1.28-0.57,1.28-1.28s-0.57-1.28-1.28-1.28s-1.28,0.57-1.28,1.28
		S265.86,84.31,266.57,84.31z"/>
	<path class="st1" d="M270.53,84.27c0.68,0,1.24-0.55,1.24-1.24c0-0.68-0.55-1.24-1.24-1.24c-0.68,0-1.24,0.55-1.24,1.24
		C269.29,83.72,269.85,84.27,270.53,84.27z"/>
	<path class="st1" d="M274.49,84.22c0.65,0,1.19-0.53,1.19-1.19c0-0.65-0.53-1.19-1.19-1.19c-0.65,0-1.19,0.53-1.19,1.19
		C273.31,83.69,273.84,84.22,274.49,84.22z"/>
	<path class="st1" d="M278.46,84.17c0.63,0,1.13-0.51,1.13-1.13c0-0.63-0.51-1.13-1.13-1.13c-0.63,0-1.13,0.51-1.13,1.13
		C277.32,83.66,277.83,84.17,278.46,84.17z"/>
	<path class="st1" d="M282.42,84.13c0.6,0,1.09-0.49,1.09-1.09c0-0.6-0.49-1.09-1.09-1.09c-0.6,0-1.09,0.49-1.09,1.09
		C281.33,83.64,281.81,84.13,282.42,84.13z"/>
	<circle class="st1" cx="286.38" cy="83.03" r="1.04"/>
	<path class="st1" d="M290.34,84.02c0.55,0,0.99-0.44,0.99-0.99c0-0.55-0.44-0.99-0.99-0.99c-0.55,0-0.99,0.44-0.99,0.99
		C289.35,83.58,289.8,84.02,290.34,84.02z"/>
	<circle class="st1" cx="294.31" cy="83.03" r="0.95"/>
	<path class="st1" d="M298.27,83.93c0.5,0,0.9-0.4,0.9-0.9c0-0.5-0.4-0.9-0.9-0.9c-0.5,0-0.9,0.4-0.9,0.9
		C297.37,83.53,297.77,83.93,298.27,83.93z"/>
	<path class="st1" d="M302.23,83.88c0.47,0,0.85-0.38,0.85-0.85c0-0.47-0.38-0.85-0.85-0.85c-0.47,0-0.85,0.38-0.85,0.85
		C301.38,83.5,301.76,83.88,302.23,83.88z"/>
	<path class="st1" d="M306.19,83.84c0.45,0,0.81-0.36,0.81-0.81c0-0.45-0.36-0.81-0.81-0.81c-0.45,0-0.81,0.36-0.81,0.81
		C305.39,83.48,305.75,83.84,306.19,83.84z"/>
	<path class="st1" d="M310.16,83.79c0.42,0,0.76-0.34,0.76-0.76c0-0.42-0.34-0.76-0.76-0.76c-0.42,0-0.76,0.34-0.76,0.76
		C309.4,83.45,309.74,83.79,310.16,83.79z"/>
	<path class="st1" d="M314.12,83.74c0.39,0,0.71-0.32,0.71-0.71c0-0.39-0.32-0.71-0.71-0.71c-0.39,0-0.71,0.32-0.71,0.71
		C313.42,83.42,313.73,83.74,314.12,83.74z"/>
	<path class="st1" d="M318.08,83.7c0.37,0,0.66-0.3,0.66-0.66s-0.3-0.66-0.66-0.66s-0.66,0.3-0.66,0.66S317.72,83.7,318.08,83.7z"/>
	<circle class="st1" cx="322.05" cy="83.03" r="0.62"/>
	<path class="st1" d="M326.01,83.61c0.32,0,0.57-0.26,0.57-0.57c0-0.32-0.26-0.57-0.57-0.57s-0.57,0.26-0.57,0.57
		C325.44,83.35,325.69,83.61,326.01,83.61z"/>
	<circle class="st1" cx="329.97" cy="83.03" r="0.52"/>
	<path class="st1" d="M333.93,83.51c0.27,0,0.48-0.22,0.48-0.48c0-0.27-0.22-0.48-0.48-0.48c-0.27,0-0.48,0.22-0.48,0.48
		C333.45,83.3,333.67,83.51,333.93,83.51z"/>
	<path class="st1" d="M337.9,83.46c0.24,0,0.43-0.19,0.43-0.43c0-0.24-0.19-0.43-0.43-0.43c-0.24,0-0.43,0.19-0.43,0.43
		C337.47,83.27,337.66,83.46,337.9,83.46z"/>
	<path class="st1" d="M341.86,83.41c0.21,0,0.38-0.17,0.38-0.38c0-0.21-0.17-0.38-0.38-0.38c-0.21,0-0.38,0.17-0.38,0.38
		C341.48,83.24,341.65,83.41,341.86,83.41z"/>
	<path class="st1" d="M345.82,83.37c0.19,0,0.34-0.15,0.34-0.34s-0.15-0.34-0.34-0.34c-0.19,0-0.34,0.15-0.34,0.34
		S345.64,83.37,345.82,83.37z"/>
	<path class="st1" d="M349.79,83.32c0.16,0,0.29-0.13,0.29-0.29c0-0.16-0.13-0.29-0.29-0.29c-0.16,0-0.29,0.13-0.29,0.29
		C349.5,83.19,349.63,83.32,349.79,83.32z"/>
	<path class="st1" d="M353.75,83.27c0.13,0,0.24-0.11,0.24-0.24c0-0.13-0.11-0.24-0.24-0.24c-0.13,0-0.24,0.11-0.24,0.24
		C353.51,83.16,353.62,83.27,353.75,83.27z"/>
	<path class="st1" d="M357.71,83.23c0.11,0,0.19-0.09,0.19-0.19c0-0.11-0.09-0.19-0.19-0.19c-0.11,0-0.19,0.09-0.19,0.19
		C357.52,83.14,357.6,83.23,357.71,83.23z"/>
	<path class="st1" d="M361.67,83.18c0.08,0,0.14-0.06,0.14-0.14c0-0.08-0.06-0.14-0.14-0.14c-0.08,0-0.14,0.06-0.14,0.14
		C361.53,83.11,361.59,83.18,361.67,83.18z"/>
	<path class="st1" d="M365.64,83.12c0.05,0,0.08-0.04,0.08-0.08c0-0.05-0.04-0.08-0.08-0.08c-0.05,0-0.08,0.04-0.08,0.08
		C365.55,83.08,365.59,83.12,365.64,83.12z"/>
	<path class="st1" d="M369.6,83.04c0.01,0,0.01,0,0.01-0.01c0-0.01,0-0.01-0.01-0.01c-0.01,0-0.01,0-0.01,0.01
		C369.59,83.04,369.59,83.04,369.6,83.04z"/>
	<path class="st1" d="M246.75,87.19c0.11,0,0.19-0.09,0.19-0.19c0-0.11-0.09-0.19-0.19-0.19c-0.11,0-0.19,0.09-0.19,0.19
		C246.56,87.1,246.65,87.19,246.75,87.19z"/>
	<path class="st1" d="M250.72,88.43c0.79,0,1.43-0.64,1.43-1.43c0-0.79-0.64-1.43-1.43-1.43c-0.79,0-1.43,0.64-1.43,1.43
		C249.29,87.79,249.93,88.43,250.72,88.43z"/>
	<path class="st1" d="M254.68,88.42c0.78,0,1.42-0.64,1.42-1.42c0-0.78-0.64-1.42-1.42-1.42c-0.78,0-1.42,0.64-1.42,1.42
		C253.26,87.78,253.89,88.42,254.68,88.42z"/>
	<path class="st1" d="M258.64,88.38c0.76,0,1.38-0.62,1.38-1.38c0-0.76-0.62-1.38-1.38-1.38c-0.76,0-1.38,0.62-1.38,1.38
		C257.26,87.76,257.88,88.38,258.64,88.38z"/>
	<path class="st1" d="M262.6,88.32c0.73,0,1.33-0.59,1.33-1.33c0-0.73-0.59-1.33-1.33-1.33c-0.73,0-1.33,0.59-1.33,1.33
		C261.28,87.73,261.87,88.32,262.6,88.32z"/>
	<path class="st1" d="M266.57,88.27c0.71,0,1.28-0.57,1.28-1.28c0-0.71-0.57-1.28-1.28-1.28s-1.28,0.57-1.28,1.28
		C265.29,87.7,265.86,88.27,266.57,88.27z"/>
	<path class="st1" d="M270.53,88.23c0.68,0,1.24-0.55,1.24-1.24c0-0.68-0.55-1.24-1.24-1.24c-0.68,0-1.24,0.55-1.24,1.24
		C269.29,87.68,269.85,88.23,270.53,88.23z"/>
	<path class="st1" d="M274.49,88.18c0.65,0,1.19-0.53,1.19-1.19c0-0.65-0.53-1.19-1.19-1.19c-0.65,0-1.19,0.53-1.19,1.19
		C273.31,87.65,273.84,88.18,274.49,88.18z"/>
	<path class="st1" d="M278.46,88.13c0.63,0,1.13-0.51,1.13-1.13c0-0.63-0.51-1.13-1.13-1.13c-0.63,0-1.13,0.51-1.13,1.13
		C277.32,87.62,277.83,88.13,278.46,88.13z"/>
	<path class="st1" d="M282.42,88.09c0.6,0,1.09-0.49,1.09-1.09c0-0.6-0.49-1.09-1.09-1.09c-0.6,0-1.09,0.49-1.09,1.09
		C281.33,87.6,281.81,88.09,282.42,88.09z"/>
	<circle class="st1" cx="286.38" cy="87" r="1.04"/>
	<path class="st1" d="M290.34,87.99c0.55,0,0.99-0.44,0.99-0.99c0-0.55-0.44-0.99-0.99-0.99c-0.55,0-0.99,0.44-0.99,0.99
		C289.35,87.54,289.8,87.99,290.34,87.99z"/>
	<circle class="st1" cx="294.31" cy="87" r="0.95"/>
	<path class="st1" d="M298.27,87.9c0.5,0,0.9-0.4,0.9-0.9c0-0.5-0.4-0.9-0.9-0.9c-0.5,0-0.9,0.4-0.9,0.9
		C297.37,87.49,297.77,87.9,298.27,87.9z"/>
	<path class="st1" d="M302.23,87.84c0.47,0,0.85-0.38,0.85-0.85c0-0.47-0.38-0.85-0.85-0.85c-0.47,0-0.85,0.38-0.85,0.85
		C301.38,87.46,301.76,87.84,302.23,87.84z"/>
	<path class="st1" d="M306.19,87.8c0.45,0,0.81-0.36,0.81-0.81c0-0.45-0.36-0.81-0.81-0.81c-0.45,0-0.81,0.36-0.81,0.81
		C305.39,87.44,305.75,87.8,306.19,87.8z"/>
	<path class="st1" d="M310.16,87.75c0.42,0,0.76-0.34,0.76-0.76c0-0.42-0.34-0.76-0.76-0.76c-0.42,0-0.76,0.34-0.76,0.76
		C309.4,87.41,309.74,87.75,310.16,87.75z"/>
	<path class="st1" d="M314.12,87.7c0.39,0,0.71-0.32,0.71-0.71c0-0.39-0.32-0.71-0.71-0.71c-0.39,0-0.71,0.32-0.71,0.71
		C313.42,87.39,313.73,87.7,314.12,87.7z"/>
	<path class="st1" d="M318.08,87.66c0.37,0,0.66-0.3,0.66-0.66c0-0.37-0.3-0.66-0.66-0.66s-0.66,0.3-0.66,0.66
		C317.42,87.36,317.72,87.66,318.08,87.66z"/>
	<circle class="st1" cx="322.05" cy="87" r="0.62"/>
	<path class="st1" d="M326.01,87.57c0.32,0,0.57-0.26,0.57-0.57c0-0.32-0.26-0.57-0.57-0.57s-0.57,0.26-0.57,0.57
		C325.44,87.31,325.69,87.57,326.01,87.57z"/>
	<circle class="st1" cx="329.97" cy="87" r="0.52"/>
	<path class="st1" d="M333.93,87.48c0.27,0,0.48-0.22,0.48-0.48c0-0.27-0.22-0.48-0.48-0.48c-0.27,0-0.48,0.22-0.48,0.48
		C333.45,87.26,333.67,87.48,333.93,87.48z"/>
	<path class="st1" d="M337.9,87.43c0.24,0,0.43-0.19,0.43-0.43c0-0.24-0.19-0.43-0.43-0.43c-0.24,0-0.43,0.19-0.43,0.43
		C337.47,87.23,337.66,87.43,337.9,87.43z"/>
	<path class="st1" d="M341.86,87.37c0.21,0,0.38-0.17,0.38-0.38c0-0.21-0.17-0.38-0.38-0.38c-0.21,0-0.38,0.17-0.38,0.38
		C341.48,87.2,341.65,87.37,341.86,87.37z"/>
	<path class="st1" d="M345.82,87.33c0.19,0,0.34-0.15,0.34-0.34s-0.15-0.34-0.34-0.34c-0.19,0-0.34,0.15-0.34,0.34
		S345.64,87.33,345.82,87.33z"/>
	<path class="st1" d="M349.79,87.28c0.16,0,0.29-0.13,0.29-0.29c0-0.16-0.13-0.29-0.29-0.29c-0.16,0-0.29,0.13-0.29,0.29
		C349.5,87.15,349.63,87.28,349.79,87.28z"/>
	<path class="st1" d="M353.75,87.23c0.13,0,0.24-0.11,0.24-0.24c0-0.13-0.11-0.24-0.24-0.24c-0.13,0-0.24,0.11-0.24,0.24
		C353.51,87.13,353.62,87.23,353.75,87.23z"/>
	<path class="st1" d="M357.71,87.19c0.11,0,0.19-0.09,0.19-0.19c0-0.11-0.09-0.19-0.19-0.19c-0.11,0-0.19,0.09-0.19,0.19
		C357.52,87.1,357.6,87.19,357.71,87.19z"/>
	<path class="st1" d="M361.67,87.14c0.08,0,0.14-0.06,0.14-0.14c0-0.08-0.06-0.14-0.14-0.14c-0.08,0-0.14,0.06-0.14,0.14
		C361.53,87.08,361.59,87.14,361.67,87.14z"/>
	<circle class="st1" cx="365.64" cy="87" r="0.1"/>
	<path class="st1" d="M369.6,87.04c0.02,0,0.04-0.02,0.04-0.04c0-0.02-0.02-0.04-0.04-0.04c-0.02,0-0.04,0.02-0.04,0.04
		C369.56,87.02,369.58,87.04,369.6,87.04z"/>
	<path class="st1" d="M246.75,91.55c0.33,0,0.59-0.27,0.59-0.59c0-0.33-0.27-0.59-0.59-0.59c-0.33,0-0.59,0.27-0.59,0.59
		C246.16,91.29,246.43,91.55,246.75,91.55z"/>
	<circle class="st1" cx="250.72" cy="90.96" r="1.47"/>
	<path class="st1" d="M254.68,92.38c0.78,0,1.42-0.64,1.42-1.42c0-0.78-0.64-1.42-1.42-1.42c-0.78,0-1.42,0.64-1.42,1.42
		C253.26,91.74,253.89,92.38,254.68,92.38z"/>
	<path class="st1" d="M258.64,92.34c0.76,0,1.38-0.62,1.38-1.38c0-0.76-0.62-1.38-1.38-1.38c-0.76,0-1.38,0.62-1.38,1.38
		C257.26,91.72,257.88,92.34,258.64,92.34z"/>
	<path class="st1" d="M262.6,92.29c0.73,0,1.33-0.59,1.33-1.33c0-0.73-0.59-1.33-1.33-1.33c-0.73,0-1.33,0.59-1.33,1.33
		C261.28,91.69,261.87,92.29,262.6,92.29z"/>
	<path class="st1" d="M266.57,92.24c0.71,0,1.28-0.57,1.28-1.28s-0.57-1.28-1.28-1.28s-1.28,0.57-1.28,1.28
		S265.86,92.24,266.57,92.24z"/>
	<path class="st1" d="M270.53,92.2c0.68,0,1.24-0.55,1.24-1.24c0-0.68-0.55-1.24-1.24-1.24c-0.68,0-1.24,0.55-1.24,1.24
		C269.29,91.64,269.85,92.2,270.53,92.2z"/>
	<path class="st1" d="M274.49,92.14c0.65,0,1.19-0.53,1.19-1.19c0-0.65-0.53-1.19-1.19-1.19c-0.65,0-1.19,0.53-1.19,1.19
		C273.31,91.61,273.84,92.14,274.49,92.14z"/>
	<path class="st1" d="M278.46,92.09c0.63,0,1.13-0.51,1.13-1.13c0-0.63-0.51-1.13-1.13-1.13c-0.63,0-1.13,0.51-1.13,1.13
		C277.32,91.59,277.83,92.09,278.46,92.09z"/>
	<path class="st1" d="M282.42,92.05c0.6,0,1.09-0.49,1.09-1.09c0-0.6-0.49-1.09-1.09-1.09c-0.6,0-1.09,0.49-1.09,1.09
		C281.33,91.56,281.81,92.05,282.42,92.05z"/>
	<circle class="st1" cx="286.38" cy="90.96" r="1.04"/>
	<path class="st1" d="M290.34,91.95c0.55,0,0.99-0.44,0.99-0.99c0-0.55-0.44-0.99-0.99-0.99c-0.55,0-0.99,0.44-0.99,0.99
		C289.35,91.51,289.8,91.95,290.34,91.95z"/>
	<circle class="st1" cx="294.31" cy="90.96" r="0.95"/>
	<path class="st1" d="M298.27,91.86c0.5,0,0.9-0.4,0.9-0.9c0-0.5-0.4-0.9-0.9-0.9c-0.5,0-0.9,0.4-0.9,0.9
		C297.37,91.46,297.77,91.86,298.27,91.86z"/>
	<path class="st1" d="M302.23,91.81c0.47,0,0.85-0.38,0.85-0.85c0-0.47-0.38-0.85-0.85-0.85c-0.47,0-0.85,0.38-0.85,0.85
		C301.38,91.43,301.76,91.81,302.23,91.81z"/>
	<path class="st1" d="M306.19,91.77c0.45,0,0.81-0.36,0.81-0.81c0-0.45-0.36-0.81-0.81-0.81c-0.45,0-0.81,0.36-0.81,0.81
		C305.39,91.4,305.75,91.77,306.19,91.77z"/>
	<path class="st1" d="M310.16,91.72c0.42,0,0.76-0.34,0.76-0.76c0-0.42-0.34-0.76-0.76-0.76c-0.42,0-0.76,0.34-0.76,0.76
		C309.4,91.38,309.74,91.72,310.16,91.72z"/>
	<path class="st1" d="M314.12,91.66c0.39,0,0.71-0.32,0.71-0.71c0-0.39-0.32-0.71-0.71-0.71c-0.39,0-0.71,0.32-0.71,0.71
		C313.42,91.35,313.73,91.66,314.12,91.66z"/>
	<path class="st1" d="M318.08,91.62c0.37,0,0.66-0.3,0.66-0.66s-0.3-0.66-0.66-0.66s-0.66,0.3-0.66,0.66S317.72,91.62,318.08,91.62z
		"/>
	<circle class="st1" cx="322.05" cy="90.96" r="0.62"/>
	<path class="st1" d="M326.01,91.53c0.32,0,0.57-0.26,0.57-0.57c0-0.32-0.26-0.57-0.57-0.57s-0.57,0.26-0.57,0.57
		C325.44,91.27,325.69,91.53,326.01,91.53z"/>
	<circle class="st1" cx="329.97" cy="90.96" r="0.52"/>
	<path class="st1" d="M333.93,91.44c0.27,0,0.48-0.22,0.48-0.48c0-0.27-0.22-0.48-0.48-0.48c-0.27,0-0.48,0.22-0.48,0.48
		C333.45,91.22,333.67,91.44,333.93,91.44z"/>
	<path class="st1" d="M337.9,91.39c0.24,0,0.43-0.19,0.43-0.43c0-0.24-0.19-0.43-0.43-0.43c-0.24,0-0.43,0.19-0.43,0.43
		C337.47,91.2,337.66,91.39,337.9,91.39z"/>
	<path class="st1" d="M341.86,91.34c0.21,0,0.38-0.17,0.38-0.38c0-0.21-0.17-0.38-0.38-0.38c-0.21,0-0.38,0.17-0.38,0.38
		C341.48,91.17,341.65,91.34,341.86,91.34z"/>
	<path class="st1" d="M345.82,91.3c0.19,0,0.34-0.15,0.34-0.34s-0.15-0.34-0.34-0.34c-0.19,0-0.34,0.15-0.34,0.34
		S345.64,91.3,345.82,91.3z"/>
	<path class="st1" d="M349.79,91.25c0.16,0,0.29-0.13,0.29-0.29c0-0.16-0.13-0.29-0.29-0.29c-0.16,0-0.29,0.13-0.29,0.29
		C349.5,91.12,349.63,91.25,349.79,91.25z"/>
	<path class="st1" d="M353.75,91.19c0.13,0,0.24-0.11,0.24-0.24c0-0.13-0.11-0.24-0.24-0.24c-0.13,0-0.24,0.11-0.24,0.24
		C353.51,91.09,353.62,91.19,353.75,91.19z"/>
	<path class="st1" d="M357.71,91.15c0.11,0,0.19-0.09,0.19-0.19c0-0.11-0.09-0.19-0.19-0.19c-0.11,0-0.19,0.09-0.19,0.19
		C357.52,91.07,357.6,91.15,357.71,91.15z"/>
	<path class="st1" d="M361.67,91.1c0.08,0,0.14-0.06,0.14-0.14c0-0.08-0.06-0.14-0.14-0.14c-0.08,0-0.14,0.06-0.14,0.14
		C361.53,91.04,361.59,91.1,361.67,91.1z"/>
	<circle class="st1" cx="365.64" cy="90.96" r="0.1"/>
	<path class="st1" d="M369.6,91.01c0.03,0,0.05-0.02,0.05-0.05c0-0.03-0.02-0.05-0.05-0.05s-0.05,0.02-0.05,0.05
		C369.55,90.99,369.57,91.01,369.6,91.01z"/>
	<path class="st1" d="M246.75,95.35c0.24,0,0.43-0.19,0.43-0.43c0-0.24-0.19-0.43-0.43-0.43c-0.24,0-0.43,0.19-0.43,0.43
		C246.32,95.16,246.52,95.35,246.75,95.35z"/>
	<path class="st1" d="M250.72,95.84c0.51,0,0.92-0.41,0.92-0.92c0-0.51-0.41-0.92-0.92-0.92c-0.51,0-0.92,0.41-0.92,0.92
		C249.8,95.43,250.21,95.84,250.72,95.84z"/>
	<path class="st1" d="M254.68,95.81c0.49,0,0.89-0.4,0.89-0.89s-0.4-0.89-0.89-0.89c-0.49,0-0.89,0.4-0.89,0.89
		S254.19,95.81,254.68,95.81z"/>
	<path class="st1" d="M258.64,95.78c0.47,0,0.86-0.38,0.86-0.86c0-0.47-0.38-0.86-0.86-0.86c-0.47,0-0.86,0.38-0.86,0.86
		C257.78,95.4,258.17,95.78,258.64,95.78z"/>
	<path class="st1" d="M262.6,95.75c0.46,0,0.83-0.37,0.83-0.83s-0.37-0.83-0.83-0.83c-0.46,0-0.83,0.37-0.83,0.83
		S262.15,95.75,262.6,95.75z"/>
	<path class="st1" d="M266.57,95.72c0.44,0,0.8-0.36,0.8-0.8c0-0.44-0.36-0.8-0.8-0.8c-0.44,0-0.8,0.36-0.8,0.8
		C265.77,95.36,266.13,95.72,266.57,95.72z"/>
	<path class="st1" d="M270.53,95.69c0.42,0,0.77-0.34,0.77-0.77c0-0.42-0.34-0.77-0.77-0.77c-0.42,0-0.77,0.34-0.77,0.77
		C269.76,95.34,270.11,95.69,270.53,95.69z"/>
	<circle class="st1" cx="274.49" cy="94.92" r="0.74"/>
	<path class="st1" d="M278.46,95.64c0.4,0,0.72-0.32,0.72-0.72c0-0.4-0.32-0.72-0.72-0.72c-0.4,0-0.72,0.32-0.72,0.72
		C277.74,95.32,278.06,95.64,278.46,95.64z"/>
	<path class="st1" d="M282.42,95.61c0.38,0,0.68-0.31,0.68-0.68c0-0.38-0.31-0.68-0.68-0.68c-0.38,0-0.68,0.31-0.68,0.68
		C281.73,95.3,282.04,95.61,282.42,95.61z"/>
	<path class="st1" d="M286.38,95.58c0.36,0,0.65-0.29,0.65-0.65c0-0.36-0.29-0.65-0.65-0.65c-0.36,0-0.65,0.29-0.65,0.65
		C285.73,95.28,286.02,95.58,286.38,95.58z"/>
	<circle class="st1" cx="290.34" cy="94.92" r="0.62"/>
	<path class="st1" d="M294.31,95.51c0.33,0,0.59-0.27,0.59-0.59c0-0.33-0.27-0.59-0.59-0.59c-0.33,0-0.59,0.27-0.59,0.59
		C293.71,95.25,293.98,95.51,294.31,95.51z"/>
	<path class="st1" d="M298.27,95.48c0.31,0,0.56-0.25,0.56-0.56s-0.25-0.56-0.56-0.56c-0.31,0-0.56,0.25-0.56,0.56
		S297.96,95.48,298.27,95.48z"/>
	<path class="st1" d="M302.23,95.45c0.29,0,0.53-0.24,0.53-0.53c0-0.29-0.24-0.53-0.53-0.53s-0.53,0.24-0.53,0.53
		C301.7,95.22,301.94,95.45,302.23,95.45z"/>
	<path class="st1" d="M306.19,95.42c0.28,0,0.5-0.22,0.5-0.5s-0.22-0.5-0.5-0.5c-0.28,0-0.5,0.22-0.5,0.5S305.92,95.42,306.19,95.42
		z"/>
	<path class="st1" d="M310.16,95.39c0.26,0,0.47-0.21,0.47-0.47c0-0.26-0.21-0.47-0.47-0.47c-0.26,0-0.47,0.21-0.47,0.47
		C309.69,95.18,309.9,95.39,310.16,95.39z"/>
	<path class="st1" d="M314.12,95.36c0.24,0,0.44-0.2,0.44-0.44c0-0.24-0.2-0.44-0.44-0.44c-0.24,0-0.44,0.2-0.44,0.44
		C313.68,95.16,313.88,95.36,314.12,95.36z"/>
	<path class="st1" d="M318.08,95.33c0.23,0,0.41-0.18,0.41-0.41c0-0.23-0.18-0.41-0.41-0.41c-0.23,0-0.41,0.18-0.41,0.41
		C317.67,95.15,317.86,95.33,318.08,95.33z"/>
	<path class="st1" d="M322.05,95.31c0.21,0,0.39-0.17,0.39-0.39s-0.17-0.39-0.39-0.39s-0.39,0.17-0.39,0.39
		S321.83,95.31,322.05,95.31z"/>
	<path class="st1" d="M326.01,95.28c0.2,0,0.36-0.16,0.36-0.36c0-0.2-0.16-0.36-0.36-0.36s-0.36,0.16-0.36,0.36
		C325.65,95.12,325.81,95.28,326.01,95.28z"/>
	<path class="st1" d="M329.97,95.25c0.18,0,0.33-0.15,0.33-0.33c0-0.18-0.15-0.33-0.33-0.33c-0.18,0-0.33,0.15-0.33,0.33
		C329.64,95.1,329.79,95.25,329.97,95.25z"/>
	<path class="st1" d="M333.93,95.22c0.16,0,0.3-0.13,0.3-0.3c0-0.16-0.13-0.3-0.3-0.3c-0.16,0-0.3,0.13-0.3,0.3
		C333.64,95.09,333.77,95.22,333.93,95.22z"/>
	<path class="st1" d="M337.9,95.19c0.15,0,0.27-0.12,0.27-0.27c0-0.15-0.12-0.27-0.27-0.27c-0.15,0-0.27,0.12-0.27,0.27
		C337.63,95.07,337.75,95.19,337.9,95.19z"/>
	<path class="st1" d="M341.86,95.16c0.13,0,0.24-0.11,0.24-0.24c0-0.13-0.11-0.24-0.24-0.24c-0.13,0-0.24,0.11-0.24,0.24
		C341.62,95.05,341.73,95.16,341.86,95.16z"/>
	<circle class="st1" cx="345.82" cy="94.92" r="0.21"/>
	<path class="st1" d="M349.79,95.11c0.1,0,0.18-0.08,0.18-0.18c0-0.1-0.08-0.18-0.18-0.18c-0.1,0-0.18,0.08-0.18,0.18
		C349.6,95.02,349.68,95.11,349.79,95.11z"/>
	<path class="st1" d="M353.75,95.07c0.08,0,0.15-0.07,0.15-0.15c0-0.08-0.07-0.15-0.15-0.15c-0.08,0-0.15,0.07-0.15,0.15
		C353.59,95.01,353.66,95.07,353.75,95.07z"/>
	<path class="st1" d="M357.71,95.04c0.07,0,0.12-0.05,0.12-0.12c0-0.07-0.05-0.12-0.12-0.12c-0.07,0-0.12,0.05-0.12,0.12
		C357.59,94.99,357.64,95.04,357.71,95.04z"/>
	<path class="st1" d="M361.67,95.01c0.05,0,0.09-0.04,0.09-0.09c0-0.05-0.04-0.09-0.09-0.09c-0.05,0-0.09,0.04-0.09,0.09
		C361.58,94.97,361.62,95.01,361.67,95.01z"/>
	<path class="st1" d="M365.64,94.98c0.03,0,0.06-0.03,0.06-0.06s-0.03-0.06-0.06-0.06c-0.03,0-0.06,0.03-0.06,0.06
		S365.6,94.98,365.64,94.98z"/>
	<path class="st1" d="M369.6,94.95c0.02,0,0.03-0.01,0.03-0.03c0-0.02-0.01-0.03-0.03-0.03c-0.02,0-0.03,0.01-0.03,0.03
		C369.57,94.94,369.58,94.95,369.6,94.95z"/>
</g>
<g>
	<linearGradient id="SVGID_1_" gradientUnits="userSpaceOnUse" x1="56.949" y1="308.4826" x2="149.3961" y2="308.4826">
		<stop  offset="1.574020e-03" style="stop-color:#D0EBE9"/>
		<stop  offset="1" style="stop-color:#06ABC7"/>
	</linearGradient>
	<path class="st2" d="M56.95,283.75c0,0,13.51,36.1,39.83,46.28c17.08,6.61,52.62,2.58,52.62,2.58s-22.16-41.3-47.02-46.31
		C77.36,281.26,56.95,283.75,56.95,283.75z"/>
	<g>
		<path class="st3" d="M59.08,286.45c0.21,0,0.39-0.17,0.39-0.39s-0.17-0.39-0.39-0.39s-0.39,0.17-0.39,0.39
			S58.86,286.45,59.08,286.45z"/>
		<path class="st3" d="M62.84,286.32c0.14,0,0.26-0.12,0.26-0.26c0-0.14-0.12-0.26-0.26-0.26c-0.14,0-0.26,0.12-0.26,0.26
			C62.58,286.21,62.7,286.32,62.84,286.32z"/>
		<path class="st3" d="M59.08,289.99c0.09,0,0.16-0.07,0.16-0.16c0-0.09-0.07-0.16-0.16-0.16c-0.09,0-0.16,0.07-0.16,0.16
			C58.92,289.92,58.99,289.99,59.08,289.99z"/>
		<path class="st3" d="M62.84,290.61c0.43,0,0.78-0.35,0.78-0.78c0-0.43-0.35-0.78-0.78-0.78c-0.43,0-0.78,0.35-0.78,0.78
			C62.07,290.26,62.41,290.61,62.84,290.61z"/>
		<path class="st3" d="M66.61,290.01c0.1,0,0.19-0.08,0.19-0.19c0-0.1-0.08-0.19-0.19-0.19s-0.19,0.08-0.19,0.19
			C66.42,289.93,66.5,290.01,66.61,290.01z"/>
		<path class="st3" d="M62.84,294.13c0.3,0,0.54-0.24,0.54-0.54c0-0.3-0.24-0.54-0.54-0.54c-0.3,0-0.54,0.24-0.54,0.54
			C62.3,293.89,62.54,294.13,62.84,294.13z"/>
		<circle class="st3" cx="66.61" cy="293.59" r="0.77"/>
		<path class="st3" d="M70.37,293.82c0.12,0,0.23-0.1,0.23-0.23c0-0.12-0.1-0.23-0.23-0.23s-0.23,0.1-0.23,0.23
			C70.15,293.72,70.25,293.82,70.37,293.82z"/>
		<path class="st3" d="M62.84,297.46c0.06,0,0.11-0.05,0.11-0.11s-0.05-0.11-0.11-0.11c-0.06,0-0.11,0.05-0.11,0.11
			S62.78,297.46,62.84,297.46z"/>
		<circle class="st3" cx="66.61" cy="297.36" r="0.79"/>
		<path class="st3" d="M70.37,298.17c0.45,0,0.81-0.36,0.81-0.81s-0.36-0.81-0.81-0.81c-0.45,0-0.81,0.36-0.81,0.81
			S69.92,298.17,70.37,298.17z"/>
		<path class="st3" d="M74.14,297.73c0.21,0,0.38-0.17,0.38-0.38s-0.17-0.38-0.38-0.38s-0.38,0.17-0.38,0.38
			S73.93,297.73,74.14,297.73z"/>
		<path class="st3" d="M77.9,297.37c0.01,0,0.02-0.01,0.02-0.02c0-0.01-0.01-0.02-0.02-0.02c-0.01,0-0.02,0.01-0.02,0.02
			C77.88,297.37,77.89,297.37,77.9,297.37z"/>
		<circle class="st3" cx="66.61" cy="301.12" r="0.38"/>
		<path class="st3" d="M70.37,301.96c0.46,0,0.83-0.37,0.83-0.83c0-0.46-0.37-0.83-0.83-0.83c-0.46,0-0.83,0.37-0.83,0.83
			C69.54,301.58,69.91,301.96,70.37,301.96z"/>
		<path class="st3" d="M74.14,301.96c0.46,0,0.83-0.37,0.83-0.83c0-0.46-0.37-0.83-0.83-0.83c-0.46,0-0.83,0.37-0.83,0.83
			C73.3,301.58,73.68,301.96,74.14,301.96z"/>
		<path class="st3" d="M77.9,301.78c0.36,0,0.66-0.3,0.66-0.66c0-0.36-0.3-0.66-0.66-0.66c-0.36,0-0.66,0.3-0.66,0.66
			C77.24,301.49,77.54,301.78,77.9,301.78z"/>
		<path class="st3" d="M81.67,301.36c0.13,0,0.24-0.11,0.24-0.24c0-0.13-0.11-0.24-0.24-0.24c-0.13,0-0.24,0.11-0.24,0.24
			C81.43,301.25,81.54,301.36,81.67,301.36z"/>
		<path class="st3" d="M85.43,301.13c0.01,0,0.01-0.01,0.01-0.01c0-0.01-0.01-0.01-0.01-0.01c-0.01,0-0.01,0.01-0.01,0.01
			C85.42,301.13,85.42,301.13,85.43,301.13z"/>
		<path class="st3" d="M123.08,301.16c0.02,0,0.03-0.02,0.03-0.03s-0.02-0.03-0.03-0.03c-0.02,0-0.03,0.02-0.03,0.03
			S123.06,301.16,123.08,301.16z"/>
		<circle class="st3" cx="126.84" cy="301.12" r="0.29"/>
		<path class="st3" d="M130.61,301.21c0.05,0,0.08-0.04,0.08-0.08c0-0.05-0.04-0.08-0.08-0.08c-0.05,0-0.08,0.04-0.08,0.08
			C130.52,301.17,130.56,301.21,130.61,301.21z"/>
		<path class="st3" d="M66.61,304.9c0.01,0,0.02-0.01,0.02-0.02c0-0.01-0.01-0.02-0.02-0.02c-0.01,0-0.02,0.01-0.02,0.02
			C66.59,304.9,66.6,304.9,66.61,304.9z"/>
		<path class="st3" d="M70.37,305.52c0.35,0,0.64-0.29,0.64-0.64c0-0.35-0.29-0.64-0.64-0.64c-0.35,0-0.64,0.29-0.64,0.64
			C69.74,305.24,70.02,305.52,70.37,305.52z"/>
		<path class="st3" d="M74.14,305.72c0.46,0,0.83-0.37,0.83-0.83c0-0.46-0.37-0.83-0.83-0.83c-0.46,0-0.83,0.37-0.83,0.83
			C73.3,305.35,73.68,305.72,74.14,305.72z"/>
		<path class="st3" d="M77.9,305.72c0.46,0,0.83-0.37,0.83-0.83c0-0.46-0.37-0.83-0.83-0.83c-0.46,0-0.83,0.37-0.83,0.83
			C77.07,305.35,77.44,305.72,77.9,305.72z"/>
		<path class="st3" d="M81.67,305.72c0.46,0,0.83-0.37,0.83-0.83c0-0.46-0.37-0.83-0.83-0.83c-0.46,0-0.83,0.37-0.83,0.83
			C80.83,305.35,81.21,305.72,81.67,305.72z"/>
		<path class="st3" d="M85.43,305.57c0.38,0,0.69-0.31,0.69-0.69c0-0.38-0.31-0.69-0.69-0.69c-0.38,0-0.69,0.31-0.69,0.69
			C84.74,305.27,85.05,305.57,85.43,305.57z"/>
		<path class="st3" d="M89.2,305.3c0.23,0,0.42-0.19,0.42-0.42c0-0.23-0.19-0.42-0.42-0.42s-0.42,0.19-0.42,0.42
			C88.78,305.12,88.96,305.3,89.2,305.3z"/>
		<path class="st3" d="M92.96,305.09c0.12,0,0.21-0.09,0.21-0.21c0-0.12-0.09-0.21-0.21-0.21s-0.21,0.09-0.21,0.21
			C92.75,305,92.84,305.09,92.96,305.09z"/>
		<path class="st3" d="M96.72,304.96c0.04,0,0.07-0.03,0.07-0.07c0-0.04-0.03-0.07-0.07-0.07c-0.04,0-0.07,0.03-0.07,0.07
			C96.65,304.93,96.68,304.96,96.72,304.96z"/>
		<path class="st3" d="M100.49,304.92c0.02,0,0.03-0.02,0.03-0.03c0-0.02-0.02-0.03-0.03-0.03c-0.02,0-0.03,0.02-0.03,0.03
			C100.46,304.9,100.47,304.92,100.49,304.92z"/>
		<path class="st3" d="M104.25,304.91c0.02,0,0.03-0.01,0.03-0.03c0-0.02-0.01-0.03-0.03-0.03c-0.02,0-0.03,0.01-0.03,0.03
			C104.23,304.9,104.24,304.91,104.25,304.91z"/>
		<circle class="st3" cx="108.02" cy="304.89" r="0.05"/>
		<path class="st3" d="M111.78,305.04c0.09,0,0.16-0.07,0.16-0.16c0-0.09-0.07-0.16-0.16-0.16c-0.09,0-0.16,0.07-0.16,0.16
			C111.63,304.97,111.7,305.04,111.78,305.04z"/>
		<circle class="st3" cx="115.55" cy="304.89" r="0.32"/>
		<path class="st3" d="M119.31,305.43c0.3,0,0.54-0.24,0.54-0.54c0-0.3-0.24-0.54-0.54-0.54s-0.54,0.24-0.54,0.54
			C118.77,305.18,119.01,305.43,119.31,305.43z"/>
		<path class="st3" d="M123.08,305.65c0.42,0,0.77-0.34,0.77-0.77c0-0.42-0.34-0.77-0.77-0.77s-0.77,0.34-0.77,0.77
			C122.31,305.31,122.65,305.65,123.08,305.65z"/>
		<path class="st3" d="M126.84,305.72c0.46,0,0.83-0.37,0.83-0.83c0-0.46-0.37-0.83-0.83-0.83c-0.46,0-0.83,0.37-0.83,0.83
			C126.01,305.35,126.38,305.72,126.84,305.72z"/>
		<path class="st3" d="M130.61,305.5c0.34,0,0.61-0.28,0.61-0.61c0-0.34-0.28-0.61-0.61-0.61c-0.34,0-0.61,0.28-0.61,0.61
			C129.99,305.23,130.27,305.5,130.61,305.5z"/>
		<path class="st3" d="M134.37,304.9c0.01,0,0.02-0.01,0.02-0.02c0-0.01-0.01-0.02-0.02-0.02s-0.02,0.01-0.02,0.02
			C134.35,304.9,134.36,304.9,134.37,304.9z"/>
		<path class="st3" d="M70.37,308.76c0.06,0,0.11-0.05,0.11-0.11c0-0.06-0.05-0.11-0.11-0.11s-0.11,0.05-0.11,0.11
			C70.27,308.71,70.31,308.76,70.37,308.76z"/>
		<path class="st3" d="M74.14,309.41c0.42,0,0.76-0.34,0.76-0.76s-0.34-0.76-0.76-0.76s-0.76,0.34-0.76,0.76
			S73.72,309.41,74.14,309.41z"/>
		<path class="st3" d="M77.9,309.48c0.46,0,0.83-0.37,0.83-0.83c0-0.46-0.37-0.83-0.83-0.83c-0.46,0-0.83,0.37-0.83,0.83
			C77.07,309.11,77.44,309.48,77.9,309.48z"/>
		<path class="st3" d="M81.67,309.48c0.46,0,0.83-0.37,0.83-0.83c0-0.46-0.37-0.83-0.83-0.83c-0.46,0-0.83,0.37-0.83,0.83
			C80.83,309.11,81.21,309.48,81.67,309.48z"/>
		<path class="st3" d="M85.43,309.48c0.46,0,0.83-0.37,0.83-0.83c0-0.46-0.37-0.83-0.83-0.83c-0.46,0-0.83,0.37-0.83,0.83
			C84.6,309.11,84.97,309.48,85.43,309.48z"/>
		<path class="st3" d="M89.2,309.48c0.46,0,0.83-0.37,0.83-0.83c0-0.46-0.37-0.83-0.83-0.83c-0.46,0-0.83,0.37-0.83,0.83
			C88.36,309.11,88.73,309.48,89.2,309.48z"/>
		<path class="st3" d="M92.96,309.48c0.46,0,0.83-0.37,0.83-0.83c0-0.46-0.37-0.83-0.83-0.83c-0.46,0-0.83,0.37-0.83,0.83
			C92.13,309.11,92.5,309.48,92.96,309.48z"/>
		<path class="st3" d="M96.72,309.48c0.46,0,0.83-0.37,0.83-0.83c0-0.46-0.37-0.83-0.83-0.83c-0.46,0-0.83,0.37-0.83,0.83
			C95.89,309.11,96.26,309.48,96.72,309.48z"/>
		<circle class="st3" cx="100.49" cy="308.65" r="0.79"/>
		<path class="st3" d="M104.25,309.43c0.43,0,0.78-0.35,0.78-0.78c0-0.43-0.35-0.78-0.78-0.78s-0.78,0.35-0.78,0.78
			C103.47,309.08,103.82,309.43,104.25,309.43z"/>
		<path class="st3" d="M108.02,309.48c0.46,0,0.83-0.37,0.83-0.83c0-0.46-0.37-0.83-0.83-0.83c-0.46,0-0.83,0.37-0.83,0.83
			C107.18,309.11,107.56,309.48,108.02,309.48z"/>
		<path class="st3" d="M111.78,309.48c0.46,0,0.83-0.37,0.83-0.83c0-0.46-0.37-0.83-0.83-0.83c-0.46,0-0.83,0.37-0.83,0.83
			C110.95,309.11,111.32,309.48,111.78,309.48z"/>
		<path class="st3" d="M115.55,309.48c0.46,0,0.83-0.37,0.83-0.83c0-0.46-0.37-0.83-0.83-0.83c-0.46,0-0.83,0.37-0.83,0.83
			C114.71,309.11,115.09,309.48,115.55,309.48z"/>
		<path class="st3" d="M119.31,309.48c0.46,0,0.83-0.37,0.83-0.83c0-0.46-0.37-0.83-0.83-0.83c-0.46,0-0.83,0.37-0.83,0.83
			C118.48,309.11,118.85,309.48,119.31,309.48z"/>
		<path class="st3" d="M123.08,309.48c0.46,0,0.83-0.37,0.83-0.83c0-0.46-0.37-0.83-0.83-0.83c-0.46,0-0.83,0.37-0.83,0.83
			C122.24,309.11,122.62,309.48,123.08,309.48z"/>
		<path class="st3" d="M126.84,309.48c0.46,0,0.83-0.37,0.83-0.83c0-0.46-0.37-0.83-0.83-0.83c-0.46,0-0.83,0.37-0.83,0.83
			C126.01,309.11,126.38,309.48,126.84,309.48z"/>
		<path class="st3" d="M130.61,309.48c0.46,0,0.83-0.37,0.83-0.83c0-0.46-0.37-0.83-0.83-0.83c-0.46,0-0.83,0.37-0.83,0.83
			C129.77,309.11,130.15,309.48,130.61,309.48z"/>
		<path class="st3" d="M134.37,309.07c0.23,0,0.42-0.19,0.42-0.42c0-0.23-0.19-0.42-0.42-0.42s-0.42,0.19-0.42,0.42
			C133.95,308.88,134.14,309.07,134.37,309.07z"/>
		<path class="st3" d="M74.14,312.63c0.12,0,0.22-0.1,0.22-0.22c0-0.12-0.1-0.22-0.22-0.22s-0.22,0.1-0.22,0.22
			C73.92,312.54,74.02,312.63,74.14,312.63z"/>
		<path class="st3" d="M77.9,313.22c0.45,0,0.81-0.36,0.81-0.81c0-0.45-0.36-0.81-0.81-0.81s-0.81,0.36-0.81,0.81
			C77.1,312.86,77.46,313.22,77.9,313.22z"/>
		<path class="st3" d="M81.67,313.25c0.46,0,0.83-0.37,0.83-0.83c0-0.46-0.37-0.83-0.83-0.83c-0.46,0-0.83,0.37-0.83,0.83
			C80.83,312.88,81.21,313.25,81.67,313.25z"/>
		<path class="st3" d="M85.43,313.25c0.46,0,0.83-0.37,0.83-0.83c0-0.46-0.37-0.83-0.83-0.83c-0.46,0-0.83,0.37-0.83,0.83
			C84.6,312.88,84.97,313.25,85.43,313.25z"/>
		<path class="st3" d="M89.2,313.25c0.46,0,0.83-0.37,0.83-0.83c0-0.46-0.37-0.83-0.83-0.83c-0.46,0-0.83,0.37-0.83,0.83
			C88.36,312.88,88.73,313.25,89.2,313.25z"/>
		<path class="st3" d="M92.96,313.25c0.46,0,0.83-0.37,0.83-0.83c0-0.46-0.37-0.83-0.83-0.83c-0.46,0-0.83,0.37-0.83,0.83
			C92.13,312.88,92.5,313.25,92.96,313.25z"/>
		<path class="st3" d="M96.72,313.25c0.46,0,0.83-0.37,0.83-0.83c0-0.46-0.37-0.83-0.83-0.83c-0.46,0-0.83,0.37-0.83,0.83
			C95.89,312.88,96.26,313.25,96.72,313.25z"/>
		<path class="st3" d="M100.49,313.25c0.46,0,0.83-0.37,0.83-0.83c0-0.46-0.37-0.83-0.83-0.83c-0.46,0-0.83,0.37-0.83,0.83
			C99.65,312.88,100.03,313.25,100.49,313.25z"/>
		<path class="st3" d="M104.25,313.25c0.46,0,0.83-0.37,0.83-0.83c0-0.46-0.37-0.83-0.83-0.83c-0.46,0-0.83,0.37-0.83,0.83
			C103.42,312.88,103.79,313.25,104.25,313.25z"/>
		<path class="st3" d="M108.02,313.25c0.46,0,0.83-0.37,0.83-0.83c0-0.46-0.37-0.83-0.83-0.83c-0.46,0-0.83,0.37-0.83,0.83
			C107.18,312.88,107.56,313.25,108.02,313.25z"/>
		<path class="st3" d="M111.78,313.25c0.46,0,0.83-0.37,0.83-0.83c0-0.46-0.37-0.83-0.83-0.83c-0.46,0-0.83,0.37-0.83,0.83
			C110.95,312.88,111.32,313.25,111.78,313.25z"/>
		<path class="st3" d="M115.55,313.25c0.46,0,0.83-0.37,0.83-0.83c0-0.46-0.37-0.83-0.83-0.83c-0.46,0-0.83,0.37-0.83,0.83
			C114.71,312.88,115.09,313.25,115.55,313.25z"/>
		<path class="st3" d="M119.31,313.25c0.46,0,0.83-0.37,0.83-0.83c0-0.46-0.37-0.83-0.83-0.83c-0.46,0-0.83,0.37-0.83,0.83
			C118.48,312.88,118.85,313.25,119.31,313.25z"/>
		<path class="st3" d="M123.08,313.25c0.46,0,0.83-0.37,0.83-0.83c0-0.46-0.37-0.83-0.83-0.83c-0.46,0-0.83,0.37-0.83,0.83
			C122.24,312.88,122.62,313.25,123.08,313.25z"/>
		<path class="st3" d="M126.84,313.25c0.46,0,0.83-0.37,0.83-0.83c0-0.46-0.37-0.83-0.83-0.83c-0.46,0-0.83,0.37-0.83,0.83
			C126.01,312.88,126.38,313.25,126.84,313.25z"/>
		<path class="st3" d="M130.61,313.25c0.46,0,0.83-0.37,0.83-0.83c0-0.46-0.37-0.83-0.83-0.83c-0.46,0-0.83,0.37-0.83,0.83
			C129.77,312.88,130.15,313.25,130.61,313.25z"/>
		<circle class="st3" cx="134.37" cy="312.42" r="0.82"/>
		<path class="st3" d="M138.14,312.64c0.12,0,0.23-0.1,0.23-0.23s-0.1-0.23-0.23-0.23s-0.23,0.1-0.23,0.23
			S138.01,312.64,138.14,312.64z"/>
		<path class="st3" d="M77.9,316.45c0.15,0,0.27-0.12,0.27-0.27c0-0.15-0.12-0.27-0.27-0.27c-0.15,0-0.27,0.12-0.27,0.27
			C77.63,316.33,77.75,316.45,77.9,316.45z"/>
		<path class="st3" d="M81.67,316.99c0.45,0,0.81-0.36,0.81-0.81c0-0.45-0.36-0.81-0.81-0.81c-0.45,0-0.81,0.36-0.81,0.81
			C80.86,316.62,81.22,316.99,81.67,316.99z"/>
		<path class="st3" d="M85.43,317.01c0.46,0,0.83-0.37,0.83-0.83c0-0.46-0.37-0.83-0.83-0.83c-0.46,0-0.83,0.37-0.83,0.83
			C84.6,316.64,84.97,317.01,85.43,317.01z"/>
		<path class="st3" d="M89.2,317.01c0.46,0,0.83-0.37,0.83-0.83c0-0.46-0.37-0.83-0.83-0.83c-0.46,0-0.83,0.37-0.83,0.83
			C88.36,316.64,88.73,317.01,89.2,317.01z"/>
		<path class="st3" d="M92.96,317.01c0.46,0,0.83-0.37,0.83-0.83c0-0.46-0.37-0.83-0.83-0.83c-0.46,0-0.83,0.37-0.83,0.83
			C92.13,316.64,92.5,317.01,92.96,317.01z"/>
		<path class="st3" d="M96.72,317.01c0.46,0,0.83-0.37,0.83-0.83c0-0.46-0.37-0.83-0.83-0.83c-0.46,0-0.83,0.37-0.83,0.83
			C95.89,316.64,96.26,317.01,96.72,317.01z"/>
		<path class="st3" d="M100.49,317.01c0.46,0,0.83-0.37,0.83-0.83c0-0.46-0.37-0.83-0.83-0.83c-0.46,0-0.83,0.37-0.83,0.83
			C99.65,316.64,100.03,317.01,100.49,317.01z"/>
		<path class="st3" d="M104.25,317.01c0.46,0,0.83-0.37,0.83-0.83c0-0.46-0.37-0.83-0.83-0.83c-0.46,0-0.83,0.37-0.83,0.83
			C103.42,316.64,103.79,317.01,104.25,317.01z"/>
		<path class="st3" d="M108.02,317.01c0.46,0,0.83-0.37,0.83-0.83c0-0.46-0.37-0.83-0.83-0.83c-0.46,0-0.83,0.37-0.83,0.83
			C107.18,316.64,107.56,317.01,108.02,317.01z"/>
		<path class="st3" d="M111.78,317.01c0.46,0,0.83-0.37,0.83-0.83c0-0.46-0.37-0.83-0.83-0.83c-0.46,0-0.83,0.37-0.83,0.83
			C110.95,316.64,111.32,317.01,111.78,317.01z"/>
		<path class="st3" d="M115.55,317.01c0.46,0,0.83-0.37,0.83-0.83c0-0.46-0.37-0.83-0.83-0.83c-0.46,0-0.83,0.37-0.83,0.83
			C114.71,316.64,115.09,317.01,115.55,317.01z"/>
		<path class="st3" d="M119.31,317.01c0.46,0,0.83-0.37,0.83-0.83c0-0.46-0.37-0.83-0.83-0.83c-0.46,0-0.83,0.37-0.83,0.83
			C118.48,316.64,118.85,317.01,119.31,317.01z"/>
		<path class="st3" d="M123.08,317.01c0.46,0,0.83-0.37,0.83-0.83c0-0.46-0.37-0.83-0.83-0.83c-0.46,0-0.83,0.37-0.83,0.83
			C122.24,316.64,122.62,317.01,123.08,317.01z"/>
		<path class="st3" d="M126.84,317.01c0.46,0,0.83-0.37,0.83-0.83c0-0.46-0.37-0.83-0.83-0.83c-0.46,0-0.83,0.37-0.83,0.83
			C126.01,316.64,126.38,317.01,126.84,317.01z"/>
		<path class="st3" d="M130.61,317.01c0.46,0,0.83-0.37,0.83-0.83c0-0.46-0.37-0.83-0.83-0.83c-0.46,0-0.83,0.37-0.83,0.83
			C129.77,316.64,130.15,317.01,130.61,317.01z"/>
		<path class="st3" d="M134.37,317.01c0.46,0,0.83-0.37,0.83-0.83c0-0.46-0.37-0.83-0.83-0.83c-0.46,0-0.83,0.37-0.83,0.83
			C133.54,316.64,133.91,317.01,134.37,317.01z"/>
		<circle class="st3" cx="138.14" cy="316.18" r="0.75"/>
		<path class="st3" d="M141.9,316.26c0.04,0,0.08-0.04,0.08-0.08s-0.04-0.08-0.08-0.08c-0.04,0-0.08,0.04-0.08,0.08
			S141.86,316.26,141.9,316.26z"/>
		<path class="st3" d="M81.67,320.2c0.14,0,0.25-0.11,0.25-0.25c0-0.14-0.11-0.25-0.25-0.25c-0.14,0-0.25,0.11-0.25,0.25
			C81.41,320.08,81.53,320.2,81.67,320.2z"/>
		<path class="st3" d="M85.43,320.73c0.44,0,0.79-0.35,0.79-0.79s-0.35-0.79-0.79-0.79c-0.44,0-0.79,0.35-0.79,0.79
			S84.99,320.73,85.43,320.73z"/>
		<path class="st3" d="M89.2,320.78c0.46,0,0.83-0.37,0.83-0.83c0-0.46-0.37-0.83-0.83-0.83c-0.46,0-0.83,0.37-0.83,0.83
			C88.36,320.41,88.73,320.78,89.2,320.78z"/>
		<path class="st3" d="M92.96,320.78c0.46,0,0.83-0.37,0.83-0.83c0-0.46-0.37-0.83-0.83-0.83c-0.46,0-0.83,0.37-0.83,0.83
			C92.13,320.41,92.5,320.78,92.96,320.78z"/>
		<path class="st3" d="M96.72,320.78c0.46,0,0.83-0.37,0.83-0.83c0-0.46-0.37-0.83-0.83-0.83c-0.46,0-0.83,0.37-0.83,0.83
			C95.89,320.41,96.26,320.78,96.72,320.78z"/>
		<path class="st3" d="M100.49,320.78c0.46,0,0.83-0.37,0.83-0.83c0-0.46-0.37-0.83-0.83-0.83c-0.46,0-0.83,0.37-0.83,0.83
			C99.65,320.41,100.03,320.78,100.49,320.78z"/>
		<path class="st3" d="M104.25,320.78c0.46,0,0.83-0.37,0.83-0.83c0-0.46-0.37-0.83-0.83-0.83c-0.46,0-0.83,0.37-0.83,0.83
			C103.42,320.41,103.79,320.78,104.25,320.78z"/>
		<path class="st3" d="M108.02,320.78c0.46,0,0.83-0.37,0.83-0.83c0-0.46-0.37-0.83-0.83-0.83c-0.46,0-0.83,0.37-0.83,0.83
			C107.18,320.41,107.56,320.78,108.02,320.78z"/>
		<path class="st3" d="M111.78,320.78c0.46,0,0.83-0.37,0.83-0.83c0-0.46-0.37-0.83-0.83-0.83c-0.46,0-0.83,0.37-0.83,0.83
			C110.95,320.41,111.32,320.78,111.78,320.78z"/>
		<path class="st3" d="M115.55,320.78c0.46,0,0.83-0.37,0.83-0.83c0-0.46-0.37-0.83-0.83-0.83c-0.46,0-0.83,0.37-0.83,0.83
			C114.71,320.41,115.09,320.78,115.55,320.78z"/>
		<path class="st3" d="M119.31,320.78c0.46,0,0.83-0.37,0.83-0.83c0-0.46-0.37-0.83-0.83-0.83c-0.46,0-0.83,0.37-0.83,0.83
			C118.48,320.41,118.85,320.78,119.31,320.78z"/>
		<path class="st3" d="M123.08,320.78c0.46,0,0.83-0.37,0.83-0.83c0-0.46-0.37-0.83-0.83-0.83c-0.46,0-0.83,0.37-0.83,0.83
			C122.24,320.41,122.62,320.78,123.08,320.78z"/>
		<path class="st3" d="M126.84,320.78c0.46,0,0.83-0.37,0.83-0.83c0-0.46-0.37-0.83-0.83-0.83c-0.46,0-0.83,0.37-0.83,0.83
			C126.01,320.41,126.38,320.78,126.84,320.78z"/>
		<path class="st3" d="M130.61,320.78c0.46,0,0.83-0.37,0.83-0.83c0-0.46-0.37-0.83-0.83-0.83c-0.46,0-0.83,0.37-0.83,0.83
			C129.77,320.41,130.15,320.78,130.61,320.78z"/>
		<path class="st3" d="M134.37,320.78c0.46,0,0.83-0.37,0.83-0.83c0-0.46-0.37-0.83-0.83-0.83c-0.46,0-0.83,0.37-0.83,0.83
			C133.54,320.41,133.91,320.78,134.37,320.78z"/>
		<path class="st3" d="M138.14,320.78c0.46,0,0.83-0.37,0.83-0.83c0-0.46-0.37-0.83-0.83-0.83c-0.46,0-0.83,0.37-0.83,0.83
			C137.3,320.41,137.67,320.78,138.14,320.78z"/>
		<path class="st3" d="M141.9,320.54c0.33,0,0.6-0.27,0.6-0.6c0-0.33-0.27-0.6-0.6-0.6c-0.33,0-0.6,0.27-0.6,0.6
			C141.3,320.27,141.57,320.54,141.9,320.54z"/>
		<path class="st3" d="M145.66,319.96c0.01,0,0.02-0.01,0.02-0.02c0-0.01-0.01-0.02-0.02-0.02s-0.02,0.01-0.02,0.02
			C145.65,319.95,145.65,319.96,145.66,319.96z"/>
		<circle class="st3" cx="85.43" cy="323.71" r="0.15"/>
		<path class="st3" d="M89.2,324.37c0.37,0,0.67-0.3,0.67-0.67s-0.3-0.67-0.67-0.67c-0.37,0-0.67,0.3-0.67,0.67
			S88.83,324.37,89.2,324.37z"/>
		<path class="st3" d="M92.96,324.54c0.46,0,0.83-0.37,0.83-0.83c0-0.46-0.37-0.83-0.83-0.83c-0.46,0-0.83,0.37-0.83,0.83
			C92.13,324.17,92.5,324.54,92.96,324.54z"/>
		<path class="st3" d="M96.72,324.54c0.46,0,0.83-0.37,0.83-0.83c0-0.46-0.37-0.83-0.83-0.83c-0.46,0-0.83,0.37-0.83,0.83
			C95.89,324.17,96.26,324.54,96.72,324.54z"/>
		<path class="st3" d="M100.49,324.54c0.46,0,0.83-0.37,0.83-0.83c0-0.46-0.37-0.83-0.83-0.83c-0.46,0-0.83,0.37-0.83,0.83
			C99.65,324.17,100.03,324.54,100.49,324.54z"/>
		<path class="st3" d="M104.25,324.54c0.46,0,0.83-0.37,0.83-0.83c0-0.46-0.37-0.83-0.83-0.83c-0.46,0-0.83,0.37-0.83,0.83
			C103.42,324.17,103.79,324.54,104.25,324.54z"/>
		<path class="st3" d="M108.02,324.54c0.46,0,0.83-0.37,0.83-0.83c0-0.46-0.37-0.83-0.83-0.83c-0.46,0-0.83,0.37-0.83,0.83
			C107.18,324.17,107.56,324.54,108.02,324.54z"/>
		<path class="st3" d="M111.78,324.54c0.46,0,0.83-0.37,0.83-0.83c0-0.46-0.37-0.83-0.83-0.83c-0.46,0-0.83,0.37-0.83,0.83
			C110.95,324.17,111.32,324.54,111.78,324.54z"/>
		<path class="st3" d="M115.55,324.54c0.46,0,0.83-0.37,0.83-0.83c0-0.46-0.37-0.83-0.83-0.83c-0.46,0-0.83,0.37-0.83,0.83
			C114.71,324.17,115.09,324.54,115.55,324.54z"/>
		<path class="st3" d="M119.31,324.54c0.46,0,0.83-0.37,0.83-0.83c0-0.46-0.37-0.83-0.83-0.83c-0.46,0-0.83,0.37-0.83,0.83
			C118.48,324.17,118.85,324.54,119.31,324.54z"/>
		<path class="st3" d="M123.08,324.54c0.46,0,0.83-0.37,0.83-0.83c0-0.46-0.37-0.83-0.83-0.83c-0.46,0-0.83,0.37-0.83,0.83
			C122.24,324.17,122.62,324.54,123.08,324.54z"/>
		<path class="st3" d="M126.84,324.54c0.46,0,0.83-0.37,0.83-0.83c0-0.46-0.37-0.83-0.83-0.83c-0.46,0-0.83,0.37-0.83,0.83
			C126.01,324.17,126.38,324.54,126.84,324.54z"/>
		<path class="st3" d="M130.61,324.54c0.46,0,0.83-0.37,0.83-0.83c0-0.46-0.37-0.83-0.83-0.83c-0.46,0-0.83,0.37-0.83,0.83
			C129.77,324.17,130.15,324.54,130.61,324.54z"/>
		<path class="st3" d="M134.37,324.54c0.46,0,0.83-0.37,0.83-0.83c0-0.46-0.37-0.83-0.83-0.83c-0.46,0-0.83,0.37-0.83,0.83
			C133.54,324.17,133.91,324.54,134.37,324.54z"/>
		<path class="st3" d="M138.14,324.54c0.46,0,0.83-0.37,0.83-0.83c0-0.46-0.37-0.83-0.83-0.83c-0.46,0-0.83,0.37-0.83,0.83
			C137.3,324.17,137.67,324.54,138.14,324.54z"/>
		<path class="st3" d="M141.9,324.54c0.46,0,0.83-0.37,0.83-0.83c0-0.46-0.37-0.83-0.83-0.83c-0.46,0-0.83,0.37-0.83,0.83
			C141.07,324.17,141.44,324.54,141.9,324.54z"/>
		<path class="st3" d="M145.66,324.11c0.22,0,0.4-0.18,0.4-0.4s-0.18-0.4-0.4-0.4c-0.22,0-0.4,0.18-0.4,0.4
			S145.44,324.11,145.66,324.11z"/>
		<circle class="st3" cx="89.2" cy="327.47" r="0.02"/>
		<path class="st3" d="M92.96,327.83c0.2,0,0.36-0.16,0.36-0.36s-0.16-0.36-0.36-0.36s-0.36,0.16-0.36,0.36
			S92.76,327.83,92.96,327.83z"/>
		<path class="st3" d="M96.72,328.2c0.4,0,0.73-0.33,0.73-0.73c0-0.4-0.33-0.73-0.73-0.73S96,327.07,96,327.47
			C96,327.88,96.32,328.2,96.72,328.2z"/>
		<path class="st3" d="M100.49,328.3c0.46,0,0.83-0.37,0.83-0.83c0-0.46-0.37-0.83-0.83-0.83s-0.83,0.37-0.83,0.83
			C99.66,327.93,100.03,328.3,100.49,328.3z"/>
		<path class="st3" d="M104.25,328.31c0.46,0,0.83-0.37,0.83-0.83c0-0.46-0.37-0.83-0.83-0.83c-0.46,0-0.83,0.37-0.83,0.83
			C103.42,327.93,103.79,328.31,104.25,328.31z"/>
		<path class="st3" d="M108.02,328.31c0.46,0,0.83-0.37,0.83-0.83c0-0.46-0.37-0.83-0.83-0.83c-0.46,0-0.83,0.37-0.83,0.83
			C107.18,327.93,107.56,328.31,108.02,328.31z"/>
		<path class="st3" d="M111.78,328.31c0.46,0,0.83-0.37,0.83-0.83c0-0.46-0.37-0.83-0.83-0.83c-0.46,0-0.83,0.37-0.83,0.83
			C110.95,327.93,111.32,328.31,111.78,328.31z"/>
		<path class="st3" d="M115.55,328.31c0.46,0,0.83-0.37,0.83-0.83c0-0.46-0.37-0.83-0.83-0.83c-0.46,0-0.83,0.37-0.83,0.83
			C114.71,327.93,115.09,328.31,115.55,328.31z"/>
		<path class="st3" d="M119.31,328.31c0.46,0,0.83-0.37,0.83-0.83c0-0.46-0.37-0.83-0.83-0.83c-0.46,0-0.83,0.37-0.83,0.83
			C118.48,327.93,118.85,328.31,119.31,328.31z"/>
		<path class="st3" d="M123.08,328.31c0.46,0,0.83-0.37,0.83-0.83c0-0.46-0.37-0.83-0.83-0.83c-0.46,0-0.83,0.37-0.83,0.83
			C122.24,327.93,122.62,328.31,123.08,328.31z"/>
		<path class="st3" d="M126.84,328.31c0.46,0,0.83-0.37,0.83-0.83c0-0.46-0.37-0.83-0.83-0.83c-0.46,0-0.83,0.37-0.83,0.83
			C126.01,327.93,126.38,328.31,126.84,328.31z"/>
		<path class="st3" d="M130.61,328.31c0.46,0,0.83-0.37,0.83-0.83c0-0.46-0.37-0.83-0.83-0.83c-0.46,0-0.83,0.37-0.83,0.83
			C129.77,327.93,130.15,328.31,130.61,328.31z"/>
		<path class="st3" d="M134.37,328.31c0.46,0,0.83-0.37,0.83-0.83c0-0.46-0.37-0.83-0.83-0.83c-0.46,0-0.83,0.37-0.83,0.83
			C133.54,327.93,133.91,328.31,134.37,328.31z"/>
		<path class="st3" d="M138.14,328.31c0.46,0,0.83-0.37,0.83-0.83c0-0.46-0.37-0.83-0.83-0.83c-0.46,0-0.83,0.37-0.83,0.83
			C137.3,327.93,137.67,328.31,138.14,328.31z"/>
		<path class="st3" d="M141.9,328.31c0.46,0,0.83-0.37,0.83-0.83c0-0.46-0.37-0.83-0.83-0.83c-0.46,0-0.83,0.37-0.83,0.83
			C141.07,327.93,141.44,328.31,141.9,328.31z"/>
		<circle class="st3" cx="145.66" cy="327.47" r="0.82"/>
		<path class="st3" d="M149.43,327.69c0.12,0,0.21-0.1,0.21-0.21c0-0.12-0.1-0.21-0.21-0.21c-0.12,0-0.21,0.1-0.21,0.21
			C149.21,327.59,149.31,327.69,149.43,327.69z"/>
		<path class="st3" d="M96.72,331.26c0.01,0,0.02-0.01,0.02-0.02c0-0.01-0.01-0.02-0.02-0.02s-0.02,0.01-0.02,0.02
			C96.71,331.25,96.72,331.26,96.72,331.26z"/>
		<path class="st3" d="M100.49,331.44c0.11,0,0.2-0.09,0.2-0.2c0-0.11-0.09-0.2-0.2-0.2c-0.11,0-0.2,0.09-0.2,0.2
			C100.29,331.35,100.38,331.44,100.49,331.44z"/>
		<path class="st3" d="M104.25,331.64c0.22,0,0.4-0.18,0.4-0.4c0-0.22-0.18-0.4-0.4-0.4c-0.22,0-0.4,0.18-0.4,0.4
			C103.85,331.46,104.03,331.64,104.25,331.64z"/>
		<path class="st3" d="M108.02,331.77c0.3,0,0.54-0.24,0.54-0.54c0-0.3-0.24-0.54-0.54-0.54c-0.3,0-0.54,0.24-0.54,0.54
			C107.48,331.53,107.72,331.77,108.02,331.77z"/>
		<circle class="st3" cx="111.78" cy="331.24" r="0.63"/>
		<path class="st3" d="M115.55,331.9c0.37,0,0.67-0.3,0.67-0.67c0-0.37-0.3-0.67-0.67-0.67c-0.37,0-0.67,0.3-0.67,0.67
			C114.88,331.61,115.18,331.9,115.55,331.9z"/>
		<circle class="st3" cx="119.31" cy="331.24" r="0.72"/>
		<circle class="st3" cx="123.08" cy="331.24" r="0.72"/>
		<path class="st3" d="M126.84,331.93c0.38,0,0.69-0.31,0.69-0.69c0-0.38-0.31-0.69-0.69-0.69s-0.69,0.31-0.69,0.69
			C126.15,331.62,126.46,331.93,126.84,331.93z"/>
		<path class="st3" d="M130.61,331.89c0.36,0,0.65-0.29,0.65-0.65c0-0.36-0.29-0.65-0.65-0.65c-0.36,0-0.65,0.29-0.65,0.65
			C129.95,331.6,130.24,331.89,130.61,331.89z"/>
		<path class="st3" d="M134.37,331.84c0.33,0,0.6-0.27,0.6-0.6c0-0.33-0.27-0.6-0.6-0.6c-0.33,0-0.6,0.27-0.6,0.6
			C133.77,331.57,134.04,331.84,134.37,331.84z"/>
		<path class="st3" d="M138.14,331.78c0.3,0,0.54-0.24,0.54-0.54c0-0.3-0.24-0.54-0.54-0.54c-0.3,0-0.54,0.24-0.54,0.54
			C137.59,331.54,137.84,331.78,138.14,331.78z"/>
		<path class="st3" d="M141.9,331.71c0.26,0,0.47-0.21,0.47-0.47c0-0.26-0.21-0.47-0.47-0.47c-0.26,0-0.47,0.21-0.47,0.47
			C141.43,331.5,141.64,331.71,141.9,331.71z"/>
		<path class="st3" d="M145.66,331.62c0.21,0,0.38-0.17,0.38-0.38c0-0.21-0.17-0.38-0.38-0.38s-0.38,0.17-0.38,0.38
			C145.29,331.45,145.46,331.62,145.66,331.62z"/>
		<path class="st3" d="M149.43,331.44c0.11,0,0.2-0.09,0.2-0.2c0-0.11-0.09-0.2-0.2-0.2c-0.11,0-0.2,0.09-0.2,0.2
			C149.23,331.35,149.32,331.44,149.43,331.44z"/>
	</g>
	<g class="st4">
		<path class="st5" d="M91.87,333.06c0,0-14.29,3.56-25.53-1.69c-8.81-4.12-12.02-13.11-12.02-13.11s15.14-3.33,22.25,2.67
			C85.09,328.11,91.87,333.06,91.87,333.06z"/>
	</g>
	
		<rect x="35.84" y="337.7" transform="matrix(-1 -1.224647e-16 1.224647e-16 -1 407.2545 680.4059)" class="st5" width="335.57" height="5.01"/>
	<g class="st6">
		<g>
			<path class="st1" d="M284.9,336.2c11.67-13.14,25.39-45.22,28.33-60.6c3.18-16.65,2.04-29.54,2.04-29.65
				c0-0.41,0.33-0.75,0.75-0.75l0,0c0.42,0,0.76,0.33,0.76,0.75c0,0.11,3.67,15.63,0.46,32.42c-2.96,15.49-8.39,42.25-26.55,56.87
				L284.9,336.2z"/>
		</g>
		<path class="st1" d="M310.91,300.72c1.49-8.34,5.48-24.16,20.44-29.39c14.12-4.94,16.36-9.81,16.36-9.81s0.5,8.95-2.68,16.7
			c-2.14,5.21-8.03,13.54-16.7,17.3C318.55,299.77,310.91,300.72,310.91,300.72z"/>
		<path class="st1" d="M316.27,268.6c-2.81-10.53-10.28-16.39-7.27-37.06c1.16-7.97,2.85-16.18,2.85-16.18s6.24,5.09,9.73,11.54
			c3.16,5.83,4.36,16.1,3.05,22.09C322.92,256.8,316.27,268.6,316.27,268.6z"/>
		<path class="st1" d="M291.55,334.52c7.82-9.05,12.94-21.69,25.27-25.71c11.11-3.62,18.97-4.14,23.66-6.61
			c0,0-2.36,19.38-13.67,26.54C309.94,339.43,291.55,334.52,291.55,334.52z"/>
		<path class="st1" d="M296.83,241.49c4.56,15.04,25.2,29.41,12.38,55.67c0,0-8.28-5.76-13.01-12.2
			c-5.84-7.95-7.25-17.45-5.55-27.01C291.87,251.07,296.83,241.49,296.83,241.49z"/>
		<path class="st1" d="M290.78,329.93c-3.93-2.97-14.75-10.36-15.56-29.21c-0.53-12.23-4.6-21.93-4.6-21.93s10.03,0.64,18.15,6.22
			c7.34,5.04,10.4,11.42,11.26,20.12C301.19,317.01,290.78,329.93,290.78,329.93z"/>
	</g>
	<rect x="118.91" y="251.2" class="st7" width="176.23" height="23.49"/>
	<rect x="118.91" y="254.21" class="st8" width="176.23" height="17.46"/>
	<rect x="118.91" y="254.21" class="st9" width="176.23" height="4.63"/>
	<g>
		<rect x="98.99" y="227.44" class="st10" width="185.04" height="23.75"/>
		<rect x="98.99" y="230.48" class="st9" width="185.04" height="17.68"/>
		<rect x="98.99" y="230.48" class="st11" width="185.04" height="4.65"/>
	</g>
	<g>
		<path class="st12" d="M308.39,320.92H156.85c-5.83,0-10.56-4.73-10.56-10.56v-5.14c0-5.83,4.73-10.56,10.56-10.56h151.53V320.92z"
			/>
		<path class="st8" d="M308.39,318.08h-98.26c-5.68,0-10.29-4.61-10.29-10.29l0,0c0-5.68,4.61-10.29,10.29-10.29h98.26V318.08z"/>
		<path class="st9" d="M308.32,304.17H199.9c-0.04,0-0.07-0.03-0.07-0.07l0,0c0-3.65,2.96-6.6,6.6-6.6h101.88
			c0.04,0,0.07,0.03,0.07,0.07v6.54C308.39,304.14,308.36,304.17,308.32,304.17z"/>
	</g>
	<path class="st13" d="M128.61,337.69H288.4c2.05,0,3.72-1.66,3.72-3.72v-9.51c0-2.05-1.66-3.72-3.72-3.72H128.61
		c-2.05,0-3.72,1.66-3.72,3.72v9.51C124.89,336.02,126.56,337.69,128.61,337.69z"/>
	
		<rect x="272.53" y="320.75" transform="matrix(-1 -1.224647e-16 1.224647e-16 -1 550.6813 658.4357)" class="st8" width="5.62" height="16.94"/>
	
		<rect x="264.97" y="320.75" transform="matrix(-1 -1.224647e-16 1.224647e-16 -1 532.757 658.4357)" class="st14" width="2.81" height="16.94"/>
	
		<rect x="160.21" y="320.75" transform="matrix(-1 -1.224647e-16 1.224647e-16 -1 327.472 658.4355)" class="st8" width="7.05" height="16.94"/>
	
		<rect x="151.85" y="320.75" transform="matrix(-1 -1.224647e-16 1.224647e-16 -1 306.36 658.4355)" class="st14" width="2.66" height="16.94"/>
	
		<rect x="140.84" y="320.75" transform="matrix(-1 -1.224647e-16 1.224647e-16 -1 286.9868 658.4355)" class="st14" width="5.32" height="16.94"/>
	<path class="st1" d="M245.72,294.63H99.65c-3.38,0-6.12-2.74-6.12-6.12v-7.68c0-3.38,2.74-6.12,6.12-6.12h146.06
		c3.38,0,6.12,2.74,6.12,6.12v7.68C251.83,291.89,249.1,294.63,245.72,294.63z"/>
	<rect x="115.2" y="274.72" class="st9" width="7.42" height="19.91"/>
	<rect x="233.17" y="274.72" class="st12" width="4.1" height="19.91"/>
	<rect x="239.4" y="274.72" class="st9" width="2.05" height="19.91"/>
	<path class="st9" d="M131.19,290.29L131.19,290.29c-2.47,0-4.48-2-4.48-4.48v-2.29c0-2.47,2-4.48,4.48-4.48h0
		c2.47,0,4.48,2,4.48,4.48v2.29C135.66,288.29,133.66,290.29,131.19,290.29z"/>
	<path class="st15" d="M181.77,187.49l-34.79,4.27c0,0,47.09,30.39,56.79,30.39c10.73,0,45.93-17.05,45.93-17.05l-28.19-18.2
		L181.77,187.49z"/>
	<path class="st10" d="M219.75,160.15l16.17,23.35c0,0-3.32,5.59-3.51,6.95c-1.29,9.55,4.44,10.86,7.43,9.64
		c5.19-2.13,13.17-15.26,12.29-17.56c-5.74-15.09-11.36-29.43-18-43.72c-1.02-2.19-2.91-7.54-4.3-6.13
		C226.44,136.11,219.73,165.68,219.75,160.15z"/>
	<path class="st10" d="M190.01,159.48l-18.41,18.6c0,0,3.51,4.86,1.96,10.28c-0.36,1.24-3.33,5.1-6.78,5.36
		c-5.77,0.44-14.09-9.62-12.58-16.89c3.26-15.76,14.69-26.17,21.05-40.58c1.43-3.23,4.55-7.39,5.79-6.24
		C184.56,133.32,190.03,165.01,190.01,159.48z"/>
	<path class="st15" d="M138.09,202.16l-0.62,9.58c0,0,18.03,12.54,26.78,16.04c3.4,1.36,32.12,5.18,32.12,5.18l2.8-11.42
		L138.09,202.16z"/>
	<path class="st8" d="M200.91,218.46l31.69,9.06L232.48,238c0,0-14.75-0.61-19.2-1.03c-2.83-0.27-16.16-2.3-16.16-2.3L200.91,218.46
		z"/>
	<path class="st8" d="M201.82,219.11l-25.21,9.41l1.06,9.53c0,0,12.06-1.1,15.68-1.65c2.3-0.35,13.07-2.69,13.07-2.69L201.82,219.11
		z"/>
	<path class="st16" d="M223.79,226.82c0,0,6.99,0.47,10.34-0.4c1.79-0.46,5.29-2.6,6.92-2.51c4.2,0.22,7.08,7.48,7.48,9.98
		c0.3,1.85-3,4.88-4.94,4.83c-9.08-0.26-19.74-0.93-19.74-0.93l0.75-2.43c0.44-1.43,0.5-2.94,0.15-4.39L223.79,226.82z"/>
	<path class="st16" d="M166.58,239.51c0.84,0.36,3.19,0.39,4.08,0.2c3.07-0.66,11.56-2,11.56-2l0,0c-2.61-1.67-3.87-4.72-3.18-7.67
		l0.58-2.5l-5.78-2.27c0,0-4.81,1.59-6.79,4.68C162.99,236.33,164.71,238.7,166.58,239.51z"/>
	
		<linearGradient id="SVGID_2_" gradientUnits="userSpaceOnUse" x1="-3599.5476" y1="-413.2355" x2="-3560.4822" y2="-345.5721" gradientTransform="matrix(-0.9997 -0.0251 -0.0251 0.9997 -3398.8567 444.2257)">
		<stop  offset="4.200000e-07" style="stop-color:#4CBFA4"/>
		<stop  offset="1" style="stop-color:#4DBD95"/>
	</linearGradient>
	<path class="st17" d="M206.26,140.79c-5.74,0.21-16.04-8.27-18.2-11.46c0,0,2.4-2.03,4.68-3.02c9.21-4.02,13.07-4.41,24.59-0.03
		c1.36,0.52,5.1,2.79,5.1,2.79C222.34,129.5,211.31,140.6,206.26,140.79z"/>
	<path class="st18" d="M210.21,107.41l-10.76,4.31c-0.32,0-1.12,6.15-1.12,6.46l-0.45,10.57c-0.03,3.42,3.16,6.14,6.7,6.17l0,0
		c3.54,0.03,6.93-2.64,6.96-6.06l-0.76-20.89C210.78,107.67,210.53,107.42,210.21,107.41z"/>
	<path class="st10" d="M178.62,132.15c1.82-3.09,17.53-7.23,17.53-7.23l8.48,8.88l12.17-8.6c0,0,12,4.6,14.52,9
		c2.19,3.83,0.17,21.42-1.81,34c-2.21,14.07-1.93,23.64-2.44,24.4c-1.39,2.09-5.17,2.76-7.6,3.27c-6.99,1.46-38.69,2.29-40.04-5.45
		c-1.02-5.84,0.36-19.19-0.41-30.93C178.67,154.18,176.91,135.05,178.62,132.15z"/>
	<path class="st12" d="M204.56,133.75l3.34,6.35c4.82-4.19,14.75-12.82,14.75-12.82l-7.45-3.5L204.56,133.75z"/>
	<path class="st12" d="M204.66,133.72l-3.55,6.35c-4.82-4.19-10.62-13.78-10.62-13.78l5.68-2.02L204.66,133.72z"/>
	<g>
		<path class="st16" d="M218.43,122.81c5.89,19.58-3.87,34.79-3.87,34.79l-9.25,0.81c0,0,7.68-16.77,6.39-32.4
			c-0.04-0.53-0.15-2.77-0.04-3.26c0.85-3.73,2.22-7.03,4.13-4.85C216.25,118.41,218.1,121.71,218.43,122.81z"/>
	</g>
	<path class="st16" d="M217.49,92.21c4.66,4.77,5.88,15.65,1.44,20.37c-3.84,4.09-18.51,4.55-19.71,4.37
		c-12.79-1.85-11.29-14.7-8.47-19.89C195.5,88.34,208.8,83.31,217.49,92.21z"/>
	<path class="st8" d="M215.49,112.38c-0.07-1.57,1.18-2.91,2.79-2.98c1.61-0.07,2.98,1.15,3.05,2.73c0.07,1.57-1.18,2.91-2.79,2.98
		C216.93,115.17,215.56,113.95,215.49,112.38z"/>
	<path class="st8" d="M194.5,112.25c0,1.58-1.31,2.85-2.93,2.85s-2.93-1.28-2.93-2.85c0-1.58,1.31-2.85,2.93-2.85
		S194.5,110.68,194.5,112.25z"/>
	<ellipse class="st19" cx="205.12" cy="112.25" rx="12.72" ry="17.04"/>
	<path class="st16" d="M212.28,96.23c8.34,3.36,7.85,12.02,7.36,14.14c-0.44,1.93-1.29,3.1-1.81,3.06
		c-5.87-0.47-20.49-8.55-20.49-8.55s-8.01,5.82-2.32,27.34c0,0-4.71-7.96-4.95-18.91C189.77,99.45,200.18,91.35,212.28,96.23z"/>
	<path class="st19" d="M217.28,190.22c0.1-0.07,2.41-1.88,4.08-1.89c3.35-0.02,6.78,2.46,10.23,1.54c1.15-0.31,3.09-0.11,4.18,0.38
		l2.24,1.02c1.73,0.79,2.3,2.94,1.12,4.4c-1.21,1.51-2.92,3.02-4.91,3.03c-2.02,0.02-4.81-1.33-6.83-1.36
		c-1.18-0.01-3.09,1.72-4.2,2.1c-0.37,0.13-1.18,0.41-1.56,0.3c-0.16-0.05-0.49-0.42-0.49-0.42s-1.23,0.84-1.71,0.9
		c-0.45,0.05-1.77-0.44-1.77-0.44l4.93-5.57l-3.47,1.65c0,0-1.87,1.68-2.65,1.89c-0.91,0.24-1.41-0.48-1.41-0.48l5.24-6.09
		c0,0-4.07,1.93-5.35,1.67c-0.57-0.12-1.37-0.76-1.37-0.76L217.28,190.22z"/>
	<path class="st19" d="M182.8,178.22c-0.12-0.01-3.06-0.46-4.52,0.33c-2.91,1.6-4.6,5.41-8.06,6.27c-1.16,0.29-2.74,1.39-3.42,2.34
		l-1.41,1.97c-1.09,1.52-0.47,3.66,1.31,4.35c1.83,0.72,4.09,1.2,5.82,0.26c1.76-0.96,3.48-3.48,5.21-4.47
		c1.02-0.58,3.56,0,4.72-0.21c0.39-0.07,1.23-0.21,1.5-0.49c0.11-0.12,0.21-0.6,0.21-0.6s1.5,0.13,1.95-0.05
		c0.42-0.17,1.3-1.23,1.3-1.23l-7.15-2.44l3.86-0.25c0,0,2.48,0.55,3.28,0.35c0.91-0.23,0.98-1.1,0.98-1.1l-7.69-2.74
		c0,0,4.52-0.29,5.5-1.14c0.44-0.38,0.8-1.32,0.8-1.32L182.8,178.22z"/>
	<defs>
		<filter id="Adobe_OpacityMaskFilter" filterUnits="userSpaceOnUse" x="139.5" y="123.32" width="128.69" height="63.06">
			<feFlood  style="flood-color:white;flood-opacity:1" result="back"/>
			<feBlend  in="SourceGraphic" in2="back" mode="normal"/>
		</filter>
	</defs>
	<mask maskUnits="userSpaceOnUse" x="139.5" y="123.32" width="128.69" height="63.06" id="SVGID_3_">
		<g class="st20">
			<defs>
				<filter id="Adobe_OpacityMaskFilter_1_" filterUnits="userSpaceOnUse" x="139.5" y="123.32" width="128.69" height="63.06">
					<feFlood  style="flood-color:white;flood-opacity:1" result="back"/>
					<feBlend  in="SourceGraphic" in2="back" mode="normal"/>
				</filter>
			</defs>
			<mask maskUnits="userSpaceOnUse" x="139.5" y="123.32" width="128.69" height="63.06" id="SVGID_3_">
			</mask>
			
				<linearGradient id="SVGID_4_" gradientUnits="userSpaceOnUse" x1="391.4594" y1="-574.2253" x2="391.4594" y2="-519.0539" gradientTransform="matrix(1.1379 -0.0817 0.054 1.1879 -210.8269 834.7219)">
				<stop  offset="0" style="stop-color:#000000"/>
				<stop  offset="5.100608e-03" style="stop-color:#030303"/>
				<stop  offset="0.1254" style="stop-color:#3D3D3D"/>
				<stop  offset="0.2487" style="stop-color:#717171"/>
				<stop  offset="0.3722" style="stop-color:#9C9C9C"/>
				<stop  offset="0.4961" style="stop-color:#C0C0C0"/>
				<stop  offset="0.6203" style="stop-color:#DCDCDC"/>
				<stop  offset="0.7452" style="stop-color:#EFEFEF"/>
				<stop  offset="0.8712" style="stop-color:#FBFBFB"/>
				<stop  offset="1" style="stop-color:#FFFFFF"/>
			</linearGradient>
			<path class="st22" d="M141.02,125.11l125.81-1.8c2.24-0.03,1.59,3.66-1.15,7.54l-38.04,53.79l-45.68,1.74l-39.94-53.87
				C139.16,128.64,138.6,125.15,141.02,125.11z"/>
		</g>
	</mask>
	<path class="st23" d="M141.02,125.11l125.81-1.8c2.24-0.03,1.59,3.66-1.15,7.54l-38.04,53.79l-45.68,1.74l-39.94-53.87
		C139.16,128.64,138.6,125.15,141.02,125.11z"/>
	<g class="st24">
		<path class="st25" d="M201.89,153.36l7.54-0.2c0,0,0.45,1.23,0.73,2.11c0.77,2.37,2.35,3.72,5.41,3.68l20.15,0.09
			c3-0.04,6.32-1.97,7.48-4.48l9.72-17.42c2.01-4.17,0.31-7.83-3.98-7.83l-31.58,0.07c-4.39,0.01-7.96,3.74-7.95,7.97l0.01,5.65
			L201.89,153.36z"/>
	</g>
	<g class="st24">
		<path class="st25" d="M210.75,173.45l-5.89,0.11l-0.03,0.99c-0.05,1.66-2.06,3.01-4.51,3.09l-16.6,0.61
			c-2.45,0.08-4.99-1.11-5.73-2.75l-6.29-10.72c-1.17-2.48,0.49-4.72,3.77-4.82l23.86-0.77c3.28-0.11,5.87,1.99,5.79,4.51l-0.1,3.44
			L210.75,173.45z"/>
	</g>
	<path class="st26" d="M175.33,171.63l58.17,1.58c1.11,0.03,1.94,0.9,1.77,1.85l-6.12,33.01l-55.75-2.23l0.03-32.6
		C173.43,172.32,174.29,171.6,175.33,171.63z"/>
	<path class="st27" d="M133.94,200.02c-1.11,3.04,0.78,10.21,3.09,12.54c5.64,5.69,29.42,13.61,29.42,13.61l40.92,11.96l7.25-12.42
		l-52.87-30.11c0,0-11.51-5.14-15.58-4.78C142.32,191.17,135.23,196.48,133.94,200.02z"/>
	<path class="st27" d="M199.18,223.25c0,0,33.98-18.59,50.35-29.13c3.8-2.45,15.12,0.73,17.69,4.37c2.36,3.34,0.53,12.88-2.08,16.04
		c-8.74,10.58-57.41,16.75-57.41,16.75L199.18,223.25z"/>
	<path class="st28" d="M205.98,190.71c0,1.02-0.96,1.49-2.14,1.49s-2.14-0.47-2.14-1.49c0-1.02,0.96-1.53,2.14-1.53
		S205.98,189.69,205.98,190.71z"/>
</g>
<g>
	<path class="st1" d="M21.53,293.5l-6.9-0.99l0.96-6.73l6.9,0.99L21.53,293.5z M16.52,291.09l3.59,0.51l0.49-3.42l-3.59-0.51
		L16.52,291.09z"/>
</g>
<g class="st29">
	<polygon class="st16" points="384.11,244.88 382.75,243.91 386.2,239.07 391.27,242.49 390.33,243.87 386.61,241.37 	"/>
</g>
<g>
	<path class="st16" d="M156.56,103.72c-0.28,0-0.56-0.03-0.84-0.1c-2-0.47-3.25-2.47-2.78-4.47c0.23-0.97,0.82-1.79,1.66-2.32
		c0.85-0.53,1.84-0.69,2.81-0.47c2,0.47,3.25,2.47,2.78,4.47l0,0C159.79,102.55,158.26,103.72,156.56,103.72z M156.56,97.94
		c-0.38,0-0.75,0.11-1.08,0.31c-0.47,0.29-0.79,0.74-0.91,1.28c-0.26,1.1,0.43,2.21,1.53,2.47c1.1,0.26,2.21-0.43,2.47-1.53
		c0.26-1.1-0.43-2.21-1.53-2.47C156.87,97.95,156.72,97.94,156.56,97.94z"/>
</g>
<g class="st29">
	<path class="st16" d="M333.46,174.12l-6.9-0.99l0.96-6.73l6.9,0.99L333.46,174.12z M328.45,171.71l3.59,0.51l0.49-3.42l-3.59-0.51
		L328.45,171.71z"/>
</g>
<g>
	<polygon class="st16" points="31.05,190.12 29.68,189.15 33.13,184.31 38.2,187.73 37.26,189.12 33.55,186.61 	"/>
</g>
<g class="st29">
	<path class="st1" d="M389.27,121.72c-0.28,0-0.56-0.03-0.84-0.1c-2-0.47-3.25-2.47-2.78-4.47c0.23-0.97,0.82-1.79,1.66-2.32
		c0.85-0.53,1.84-0.69,2.81-0.47c2,0.47,3.25,2.47,2.78,4.47l0,0C392.5,120.56,390.96,121.72,389.27,121.72z M389.26,115.94
		c-0.38,0-0.75,0.11-1.08,0.31c-0.47,0.29-0.79,0.74-0.92,1.28c-0.26,1.1,0.43,2.21,1.53,2.47c1.1,0.26,2.21-0.43,2.47-1.53
		c0.26-1.1-0.43-2.21-1.53-2.47C389.58,115.96,389.42,115.94,389.26,115.94z"/>
</g>
<g>
	<path class="st1" d="M68.78,116.11l-6.9-0.99l0.96-6.73l6.9,0.99L68.78,116.11z M63.77,113.71l3.59,0.51l0.49-3.42l-3.59-0.51
		L63.77,113.71z"/>
</g>
<g>
	<path class="st1" d="M76.29,34.66l-6.9-0.99l0.96-6.73l6.9,0.99L76.29,34.66z M71.29,32.25l3.59,0.51l0.49-3.42l-3.59-0.51
		L71.29,32.25z"/>
</g>
</svg>
