<?xml version="1.0" encoding="utf-8"?>
<!-- Generator: Adobe Illustrator 24.1.2, SVG Export Plug-In . SVG Version: 6.00 Build 0)  -->
<svg version="1.1" id="Layer_1" xmlns="http://www.w3.org/2000/svg" xmlns:xlink="http://www.w3.org/1999/xlink" x="0px" y="0px"
	 viewBox="0 0 404 349" style="enable-background:new 0 0 404 349;" xml:space="preserve">
<style type="text/css">
	.st0{fill:#010101;}
	.st1{fill:#232323;}
</style>
<rect x="0.07" y="-0.33" class="st0" width="404.49" height="349.75"/>
<g>
	<path class="st1" d="M200.85,211.66c-0.45,1.48,1.38,3.05,2.72,1.97c0.38-0.18,0.71-0.49,0.9-0.92c0.36-0.38,0.72-0.76,1.08-1.14
		c0.78,0.77,2.42,0.77,2.9-0.3c0.27,0.17,0.54,0.35,0.82,0.52c0.92,0.56,1.82-0.69,1.12-1.45c-0.47-0.51-0.95-1.01-1.43-1.5
		c0.09-0.39,0.19-0.78,0.3-1.16c9.83-10.28,19.83-20.46,29.2-31.13c7.64-8.71,12.86-19.37,7.47-30.68
		c-4.49-9.42-14.57-15.83-25.11-13.65c-6.67,1.38-12.4,5.65-15.77,11.32c-4.56-7.09-13.69-11.91-21.48-12.39
		c-11.36-0.7-22.27,6.84-26.42,17.29c-4.87,12.29,0.87,25.52,8.9,34.99C175.59,194.67,189.11,202.89,200.85,211.66z M224.79,134.74
		c10.56-0.04,19.56,9.44,20.06,19.8c0.56,11.59-9.61,20.37-16.87,28.07l-13.02,13.81c10.64-14.88,29.75-26.75,24.11-46.48
		c-2.52-8.82-10.51-14.3-19.69-12.25c-5.39,1.21-9.72,4.67-12.63,9.15c-0.07-0.18-0.17-0.35-0.24-0.53
		C210.15,139.68,217.08,134.77,224.79,134.74z M223.44,143.69c-7.59-0.11-13.03,5.35-16.92,11.34c2.79-8.04,7.99-15.3,17.8-14.61
		c10.67,0.75,13.76,13.16,11.42,21.83c-2.71,10.05-11.35,17.29-18.09,24.69c-0.59,0.65-1.17,1.3-1.74,1.97
		c1.55-1.99,3.14-3.94,4.73-5.86c5.85-7.11,13.64-15.44,14.53-25.04C235.85,150.63,231.21,143.8,223.44,143.69z M204.59,161.96
		c0.55-0.06,1.07-0.38,1.39-0.82c0.2,0.12,0.4,0.25,0.61,0.36c1.39,0.74,3.11-1.2,1.77-2.29c-0.53-0.43-1.05-0.88-1.57-1.34
		c4.87-6.02,11.95-14.48,20.31-10.33c10.5,5.22,2.06,18.83-2.55,25.06c-7.19,9.71-16.09,18.41-20.69,29.41
		c-6.22-5.28-12.08-11.03-17.24-17.36c-5.79-7.11-11.87-15.35-15-24.06c-1.65-4.59-2.11-9.95,1.02-14.03
		c3.66-4.78,10.1-3.81,14.85-1.43c5.11,2.57,8.59,7.24,12.57,11.25c0.89,1.41,1.73,2.81,2.54,4.16c0,0.3,0,0.59,0.01,0.88
		C202.64,162.47,204.14,162.84,204.59,161.96z M180.46,134.26c5.34-0.4,10.66,1.25,15.04,4.26c3.57,2.45,5.75,5.53,7.68,8.99
		c-0.62,1.7-1.05,3.48-1.23,5.31c-5.63-8.42-12.78-16.15-23.51-16.9c-2.3-0.16-4.45,0.1-6.42,0.7
		C174.63,135.32,177.48,134.48,180.46,134.26z M177.08,139.41c2.29-0.03,4.41,0.36,6.39,1.05c-8.37-1.7-15.63,3.51-16.2,12.34
		c-0.68,10.41,7.5,21.18,13.39,29.03c2.54,3.38,5.26,6.6,8.15,9.66c-2.52-1.99-5.02-3.98-7.45-6.01
		c-7.68-6.4-16.33-13.94-18.43-24.21C160.9,151.44,165.69,139.55,177.08,139.41z M158.51,156.5c0.11-1.81,0.45-3.58,0.98-5.28
		c-0.14,0.62-0.25,1.25-0.33,1.89c-1.57,11.69,5.19,21.62,13.33,29.31c5.3,5.01,11.15,9.46,16.8,14.07
		c4.23,3.46,8.47,7.07,12.89,10.39c-0.31,1.13-0.58,2.29-0.79,3.48c-7.37-8.96-17.76-14.69-26.4-22.33
		C166.08,180.14,157.73,169.02,158.51,156.5z"/>
</g>
</svg>
