<?xml version="1.0" encoding="utf-8"?>
<!-- Generator: Adobe Illustrator 24.1.2, SVG Export Plug-In . SVG Version: 6.00 Build 0)  -->
<svg version="1.1" id="Layer_1" xmlns="http://www.w3.org/2000/svg" xmlns:xlink="http://www.w3.org/1999/xlink" x="0px" y="0px"
	 viewBox="0 0 404 349" style="enable-background:new 0 0 404 349;" xml:space="preserve">
<style type="text/css">
	.st0{clip-path:url(#SVGID_2_);}
	.st1{fill:#F6ADCD;}
	.st2{fill:#F9AA8F;}
	.st3{fill:#F15C73;}
	.st4{fill:#EC1E52;}
	.st5{fill:#87AC50;}
	.st6{fill:#F8ACAD;}
	.st7{fill:#80AF91;}
	.st8{fill:#83C099;}
	.st9{fill:#D2E389;}
	.st10{fill:#FFF5C6;}
	.st11{fill:#A5CE3A;}
	.st12{fill:#FCEE23;}
	.st13{fill:#FFCD4E;}
	.st14{fill:#FAA71B;}
	.st15{fill:#FDD3C2;}
	.st16{fill:#F3859B;}
	.st17{fill:#CEB1C0;}
	.st18{fill:#C84A60;}
	.st19{fill:#FFFFFF;}
</style>
<g>
	<defs>
		<rect id="SVGID_1_" x="-0.68" width="405.31" height="349.62"/>
	</defs>
	<clipPath id="SVGID_2_">
		<use xlink:href="#SVGID_1_"  style="overflow:visible;"/>
	</clipPath>
	<g class="st0">
		<g>
			<path class="st1" d="M432.11,46.3c6.68,3.26,12.26,6.67,16.77,10.25V15.56c-4.04-0.78-8.23-1.4-12.57-2.02
				C326.08-3.37,246.61-0.42,198.17,22.4c-48.59,22.97-87.71,46.57-117.51,70.94c-23.59,19.4-60.07,30.89-109.44,34.15v20.8
				c34-3.41,57.75-8.69,71.87-15.83c18.01-9.16,30.89-16.14,38.65-21.27c7.76-4.97,18.01-13.97,31.05-26.7
				c13.04-13.04,32.13-24.68,57.44-35.08c25.15-10.56,70.47-17.7,135.98-21.58l13.04-0.47C376.53,31.09,414.26,37.3,432.11,46.3z"/>
			<path class="st2" d="M448.87,56.55c-4.5-3.57-10.09-6.99-16.77-10.25c-17.85-9-55.57-15.21-112.85-18.94l-13.04,0.47
				c-65.51,3.88-110.83,11.02-135.98,21.58c-25.3,10.4-44.4,22.04-57.44,35.08c-13.04,12.73-23.28,21.73-31.05,26.7
				c-7.76,5.12-20.65,12.11-38.65,21.27c-14.13,7.14-37.88,12.42-71.87,15.83v23.13c7.45-1.09,16.77-2.64,28.1-4.19
				c29.34-4.5,60.7-20.65,94.07-48.59c33.22-27.79,57.12-45.79,71.87-54.02c14.59-8.07,42.53-11.95,83.51-11.33
				c41.14,0.31,71.41,1.86,91.12,4.5c19.25,2.48,39.74,6.83,61.47,13.04c6.36,2.02,11.64,4.04,16.14,6.36
				c12.57,1.86,22.82,4.19,31.36,7.45V56.55z"/>
			<path class="st3" d="M436.3,13.55c4.35,0.62,8.54,1.24,12.57,2.02V9.82c-6.36-1.71-11.8-3.26-16.45-4.5
				c-14.13-2.48-27.79-4.66-40.52-6.68H221.92c-23.91,6.05-40.98,11.64-51.07,16.92c-13.04,6.68-24.68,14.9-35.24,25.3
				c-12.26,11.8-29.8,21.89-52.62,30.27c-26.7,9.62-63.8,18.01-111.77,24.84v31.51c49.36-3.26,85.84-14.75,109.44-34.15
				c29.8-24.37,68.92-47.97,117.51-70.94C246.61-0.42,326.08-3.37,436.3,13.55z"/>
			<path class="st4" d="M432.42,5.32c4.66,1.24,10.09,2.79,16.45,4.5V-1.36H391.9C404.63,0.66,418.29,2.84,432.42,5.32z"/>
			<path class="st5" d="M448.87,130.9v-17.54c-1.24-0.93-2.48-1.71-3.88-2.64c-23.75-15.21-67.06-22.66-129.62-22.51l-24.53,0.31
				c-49.05,3.88-87.08,17.7-114.4,40.98c-27.48,23.44-45.02,38.81-52.62,45.95c-7.61,7.3-18.78,17.23-33.37,30.12l-0.78,0.47
				c-1.55,1.55-2.64,2.64-3.57,3.42c-1.86,1.71-2.02,1.86-0.78,0.47c-6.52,5.12-13.19,10.09-20.18,14.9
				c-30.43,20.8-61.94,32.13-93.91,34.15v6.67c8.54-1.71,20.49-3.57,35.86-5.28c46.1-5.43,74.2-11.95,84.29-20.18
				c10.09-8.23,17.54-15.37,22.35-21.73c4.81-6.52,20.18-21.73,45.95-45.33c2.79-3.1,6.36-6.99,10.71-12.11
				c4.5-4.97,8.54-9,12.42-12.26c3.88-3.1,7.14-5.9,9.78-7.76c2.48-2.17,5.9-5.12,10.56-9c4.5-3.73,10.56-8.07,18.01-13.04
				c7.45-4.97,16.76-9.62,27.63-13.97c8.23-3.26,16.61-5.43,25.3-6.52c4.97-0.62,10.09-1.09,15.21-0.93c4.35-0.16,8.54,0,12.88,0.16
				c51.23,1.4,88.33,6.83,110.99,16.3C426.67,119.57,438.47,125.16,448.87,130.9z"/>
			<path class="st6" d="M444.99,110.72c1.4,0.93,2.64,1.71,3.88,2.64V84.64c-8.54-3.26-18.78-5.59-31.36-7.45
				c-11.02-1.71-23.91-2.64-38.19-3.26c-7.45-0.31-15.68-0.31-24.06-0.31l-24.53,0.31C251.57,79.21,196,91.01,164.49,109.32
				c-9.78,5.74-19.4,14.28-28.72,25.92c-9.47,11.49-18.47,21.11-26.85,28.87c-8.54,7.76-18.16,16.61-28.72,26.7
				c-10.56,9.78-21.42,18.78-32.75,26.85c-9.62,6.99-35.24,14.9-76.22,23.91v17.39c31.98-2.02,63.49-13.35,93.91-34.15
				c6.99-4.81,13.66-9.78,20.18-14.9c-1.24,1.4-1.09,1.24,0.78-0.47c0.93-0.78,2.02-1.86,3.57-3.42l0.78-0.47
				c14.59-12.88,25.77-22.82,33.37-30.12c7.61-7.14,25.15-22.51,52.62-45.95c27.32-23.28,65.35-37.1,114.4-40.98l24.53-0.31
				C377.93,88.06,421.24,95.51,444.99,110.72z"/>
			<path class="st7" d="M448.87,142.85V130.9c-10.4-5.74-22.2-11.33-35.7-16.92c-22.66-9.47-59.76-14.9-110.99-16.3
				c-4.35-0.16-8.54-0.31-12.88-0.16c-5.12-0.16-10.25,0.31-15.21,0.93c-8.69,1.09-17.08,3.26-25.3,6.52
				c-10.87,4.35-20.18,9-27.63,13.97c-7.45,4.97-13.51,9.31-18.01,13.04c-4.66,3.88-8.07,6.83-10.56,9
				c-2.64,1.86-5.9,4.66-9.78,7.76c-3.88,3.26-7.92,7.3-12.42,12.26c-4.35,5.12-7.92,9-10.71,12.11
				c-25.77,23.6-41.14,38.81-45.95,45.33c-4.81,6.36-12.26,13.51-22.35,21.73c-10.09,8.23-38.19,14.75-84.29,20.18
				c-15.37,1.71-27.32,3.57-35.86,5.28v7.3c69.23,1.09,117.2-8.69,143.59-29.18c26.23-20.65,47.35-38.65,63.33-54.33
				c16.3-20.18,27.32-34,33.37-41.29c10.09-12.11,18.78-20.8,26.08-26.08c8.69-6.52,19.09-11.18,31.36-13.66
				c11.18-2.48,26.39-3.73,45.48-3.88c1.24-0.16,2.64-0.31,4.19-0.16c1.09,0,2.33,0,3.73,0.16c43.77,0.62,85.69,13.35,125.89,37.88
				C448.41,142.54,448.72,142.7,448.87,142.85z"/>
			<path class="st8" d="M448.87,142.85c-0.16-0.15-0.47-0.31-0.62-0.47c-40.2-24.53-82.12-37.26-125.89-37.88c-1.4,0-2.48,0-3.73,0
				c-1.55-0.16-2.95-0.16-4.19,0c-19.09,0.16-34.31,1.4-45.48,3.88c-12.26,2.48-22.66,7.14-31.36,13.66
				c-7.3,5.28-15.99,13.97-26.08,26.08c-6.05,7.3-17.08,21.11-33.37,41.29c-15.99,15.68-37.1,33.69-63.33,54.33
				c-26.39,20.49-74.36,30.27-143.59,29.18v6.67c25.61,1.86,47.19,1.55,64.58-1.09c17.54-2.64,32.29-5.12,44.24-7.45
				c11.95-2.48,29.65-9.16,53.09-20.18c23.44-11.02,45.02-29.34,64.89-54.64c11.33-13.51,19.71-23.6,25.15-29.8
				c9.47-11.18,24.53-22.66,45.02-34.15c20.49-11.49,47.04-15.99,79.48-13.51c32.44,2.64,63.02,13.35,91.43,32.13
				c3.57,2.33,6.83,4.35,9.78,6.52V142.85z"/>
			<path class="st9" d="M448.87,214.88v-38.19c-9-4.81-18.94-9.93-29.96-15.68c-67.99-35.24-132.72-25.15-193.88,29.96
				c-5.9,6.21-18.94,17.39-38.81,33.69c-19.87,15.99-43.78,31.05-71.41,45.02c-14.75,9.62-34.46,16.45-59.14,20.8
				c-24.68,4.19-45.79,5.74-63.33,4.66c-6.68,0.16-13.66-0.62-21.11-2.17v31.2c1.24,0,2.48,0.16,3.88,0.31
				c28.1-3.41,45.95-6.21,53.71-8.85c97.95-34.31,156.32-64.58,175.57-90.5c8.85-7.76,18.16-14.59,27.79-20.33
				c29.96-18.32,63.64-27.48,100.43-27.48C379.33,177.32,417.98,189.73,448.87,214.88z"/>
			<path class="st10" d="M448.87,225.9v-11.02c-30.89-25.15-69.54-37.57-116.27-37.57c-36.79,0-70.47,9.16-100.43,27.48
				c-9.62,5.74-18.94,12.57-27.79,20.33c-19.25,25.92-77.62,56.19-175.57,90.5c-7.76,2.64-25.61,5.43-53.71,8.85
				c-1.4,0-2.64,0.16-3.88,0.31v18.63c35.55-6.52,63.96-11.95,85.22-16.61c27.63-6.05,52.62-14.59,75.13-25.61
				c22.51-11.18,35.55-18.94,38.96-23.28c0.16-0.15,0.31-0.31,0.47-0.47c0.62-0.93,1.4-2.02,2.02-2.79c0-0.16,0-0.16,0.16-0.16
				c5.28-7.3,9.62-13.19,12.88-17.23c6.68-8.38,13.82-15.52,21.73-21.11c15.52-11.18,37.41-20.02,65.66-26.54c0,0,0,0,0.15,0l0,0
				c10.71-2.48,22.2-4.66,34.46-6.36c0.16,0,0.16,0,0.31,0c1.09-0.31,2.33-0.31,3.41-0.62c0-0.15,7.45-0.47,22.2-0.47
				c4.97,0,24.84,1.86,59.14,5.74C409.29,209.6,427.92,215.66,448.87,225.9z"/>
			<path class="st11" d="M448.87,176.69v-19.25c-2.95-2.17-6.21-4.19-9.78-6.52c-28.41-18.78-58.99-29.49-91.43-32.13
				c-32.44-2.48-58.99,2.02-79.48,13.51c-20.49,11.49-35.55,22.97-45.02,34.15c-5.43,6.21-13.82,16.3-25.15,29.8
				c-19.87,25.3-41.45,43.62-64.89,54.64c-23.44,11.02-41.14,17.7-53.09,20.18c-11.95,2.33-26.7,4.81-44.24,7.45
				c-17.39,2.64-38.96,2.95-64.58,1.09v13.35c7.45,1.55,14.44,2.33,21.11,2.17c17.54,1.09,38.65-0.47,63.33-4.66
				c24.68-4.35,44.4-11.18,59.14-20.8c27.63-13.97,51.54-29.03,71.41-45.02c19.87-16.3,32.91-27.48,38.81-33.69
				c61.16-55.11,125.89-65.2,193.88-29.96C429.93,166.76,439.87,171.88,448.87,176.69z"/>
			<path class="st12" d="M448.87,225.9c-20.96-10.24-39.58-16.3-55.73-18.01c-34.31-3.88-54.18-5.74-59.14-5.74
				c-14.75,0-22.2,0.31-22.2,0.47c-1.09,0.31-2.33,0.31-3.41,0.62c-0.16,0-0.16,0-0.31,0c-12.26,1.71-23.75,3.88-34.46,6.36l0,0
				c-0.15,0-0.15,0-0.15,0c-28.25,6.52-50.14,15.37-65.66,26.54c-7.92,5.59-15.06,12.73-21.73,21.11
				c-3.26,4.04-7.61,9.93-12.88,17.23c-0.16,0-0.16,0-0.16,0.16c-0.62,0.78-1.4,1.86-2.02,2.79c-0.16,0.16-0.31,0.31-0.47,0.47
				c-3.41,4.35-16.45,12.11-38.96,23.28c-22.51,11.02-47.5,19.56-75.13,25.61c-21.27,4.66-49.67,10.09-85.22,16.61v6.21h44.71
				c8.07-2.33,12.73-3.57,13.82-3.88c4.35-0.78,13.66-2.02,28.25-3.42c19.4-2.02,47.81-3.57,85.22-4.81
				c31.05-2.17,55.88-8.23,74.51-17.54c18.63-9.47,36.63-24.37,54.18-44.71c17.23-20.34,49.67-33.22,96.86-38.96
				c22.97-2.79,49.67,3.1,80.1,17.7V225.9z"/>
			<path class="st13" d="M448.87,301.34V254c-30.43-14.59-57.13-20.49-80.1-17.7c-47.19,5.74-79.63,18.63-96.86,38.96
				c-17.54,20.34-35.55,35.24-54.18,44.71c-18.63,9.31-43.46,15.37-74.51,17.54c-37.41,1.24-65.82,2.79-85.22,4.81
				c-14.59,1.4-23.91,2.64-28.25,3.42c-1.09,0.31-5.74,1.55-13.82,3.88h242.32c0.31-0.16,0.47-0.16,0.47-0.16
				c8.69-6.05,15.06-10.4,19.25-12.88c9-5.43,19.4-12.26,30.89-20.18c9.62-6.68,16.45-11.18,20.49-13.19
				c6.52-3.42,13.97-5.9,21.89-7.3c8.38-1.4,20.18-2.17,34.77-2.17C407.27,293.74,428.23,296.22,448.87,301.34z"/>
			<path class="st14" d="M448.87,349.62v-48.28c-20.65-5.12-41.6-7.61-62.87-7.61c-14.59,0-26.39,0.78-34.77,2.17
				c-7.92,1.4-15.37,3.88-21.89,7.3c-4.04,2.02-10.87,6.52-20.49,13.19c-11.49,7.92-21.89,14.75-30.89,20.18
				c-4.19,2.48-10.56,6.83-19.25,12.88c0,0-0.16,0-0.47,0.16H448.87z"/>
			<path class="st15" d="M417.51,77.19c-4.5-2.33-9.78-4.35-16.14-6.36c-21.73-6.21-42.22-10.56-61.47-13.04
				c-19.71-2.64-49.98-4.19-91.12-4.5c-40.98-0.62-68.92,3.26-83.51,11.33c-14.75,8.23-38.65,26.23-71.87,54.02
				c-33.37,27.94-64.73,44.09-94.07,48.59c-11.33,1.55-20.65,3.1-28.1,4.19v35.08c30.89-7.45,52.16-14.44,64.27-21.11
				C50.08,177,62.35,168.16,72.13,159c9.78-9,18.47-16.45,26.08-22.35c7.45-5.74,15.06-12.57,22.35-20.33
				c7.45-7.76,21.42-18.63,41.91-32.75c20.18-14.28,60.69-20.8,121.08-19.87c37.1,0.62,69.08,3.88,95.78,10.25
				C393.61,74.55,406.49,75.48,417.51,77.19z"/>
			<path class="st4" d="M221.92-1.36h-40.05c-4.81,2.02-10.09,3.88-15.37,6.05c-21.11,8.07-38.81,18.63-53.55,31.67
				c-7.76,6.99-30.43,13.97-68.15,20.65c-8.38,0.93-32.91,4.5-73.58,11.02v27.94c47.97-6.83,85.07-15.21,111.77-24.84
				c22.82-8.38,40.36-18.47,52.62-30.27c10.56-10.4,22.2-18.63,35.24-25.3C180.94,10.29,198.02,4.7,221.92-1.36z"/>
			<path class="st6" d="M136.24-1.36c-9.31,5.74-16.76,10.09-22.35,13.35c-25.15,14.13-46.41,23.28-63.8,27.48
				c-16.14,4.04-39.74,5.9-70.47,5.9c-2.48-0.16-5.43-0.31-8.38-0.47v23.13c40.67-6.52,65.2-10.09,73.58-11.02
				c37.72-6.67,60.38-13.66,68.15-20.65c14.75-13.04,32.44-23.6,53.55-31.67c5.28-2.17,10.56-4.04,15.37-6.05H136.24z"/>
			<path class="st16" d="M113.88,11.99c5.59-3.26,13.04-7.61,22.35-13.35h-34.31C80.97,9.82,66.69,16.65,59.4,19.45
				c-18.78,7.3-38.34,10.87-58.68,10.87c-4.35,0-11.33-0.47-20.96-1.4c-3.57-0.31-6.36-0.47-8.54-0.78V44.9
				c2.95,0.15,5.9,0.31,8.38,0.47c30.74,0,54.33-1.86,70.47-5.9C67.47,35.28,88.74,26.12,113.88,11.99z"/>
			<path class="st17" d="M330.74,73.93l24.53-0.31c8.38,0,16.61,0,24.06,0.31c-26.7-6.36-58.68-9.62-95.78-10.25
				c-60.39-0.93-100.9,5.59-121.08,19.87c-20.49,14.13-34.46,24.99-41.91,32.75c-7.3,7.76-14.9,14.59-22.35,20.33
				c-7.61,5.9-16.3,13.35-26.08,22.35c-9.78,9.16-22.04,18.01-36.63,26.39c-12.11,6.67-33.37,13.66-64.27,21.11v35.08
				c40.98-9,66.59-16.92,76.22-23.91c11.33-8.07,22.2-17.08,32.75-26.85c10.56-10.09,20.18-18.94,28.72-26.7
				c8.38-7.76,17.39-17.39,26.85-28.87c9.31-11.64,18.94-20.18,28.72-25.92C196,91.01,251.57,79.21,330.74,73.93z"/>
			<path class="st18" d="M-28.77,28.14c2.17,0.31,4.97,0.47,8.54,0.78c9.62,0.93,16.61,1.4,20.96,1.4
				c20.34,0,39.89-3.57,58.68-10.87c7.3-2.79,21.58-9.62,42.53-20.8h-130.7V28.14z"/>
			<path class="st5" d="M318.63,104.51c1.24,0,2.33,0,3.73,0c-1.4-0.16-2.64-0.16-3.73-0.16c-1.55-0.16-2.95,0-4.19,0.16
				C315.68,104.36,317.08,104.36,318.63,104.51z"/>
		</g>
		<g>
			<path class="st19" d="M143.22,227.45c-1.55,1.09-2.17,1.71-2.17,2.17c0,0.15,0.16,0.31,0.16,0.78c0.31,0.31,1.09,0.47,2.02,0.47
				c1.09,0,1.86-0.16,2.95-0.62c0.15,0.31,0.15,0.93,0.15,1.55c0,0.16,0,0.62-0.15,1.4c0.15,0.78,0.47,1.24,1.4,1.24
				c1.86,0,2.79-1.55,2.95-4.66c0.47-0.47,1.55-1.09,3.73-1.71c1.71-0.78,2.79-1.4,2.79-2.33c0-0.16-0.31-0.31-1.09-0.62
				c-1.09-0.47-1.86-0.93-2.95-2.02c1.09-2.02,0.93-3.1-0.78-3.1c-0.62,0-0.93,0.16-1.24,0.78c-0.15,0.47-0.62,0.78-0.93,0.78
				l-3.1-1.4c-1.55,0-2.48,0.62-2.48,1.55c0,0.62,0.31,1.86,0.62,4.19C145.08,225.9,144.46,226.52,143.22,227.45z"/>
		</g>
		<g>
			<path class="st19" d="M291.93,249.81c0,0.78,0.16,1.71,0.31,2.79c0,0.62-0.93,1.55-3.1,2.79c-2.17,1.24-3.1,2.17-3.1,2.79
				c0,0,0,0.31,0,0.62c0.31,0.47,0.78,0.78,1.71,0.78c0.47,0,2.02-0.31,4.35-0.78v0.16c-0.47,1.55-0.62,2.79-0.62,3.41v0.93
				c0.16,0.62,0.62,0.93,1.4,0.93c1.4,0,2.48-0.93,3.1-2.79c0.62-2.02,1.09-3.26,1.55-3.42c4.66,0.78,6.99,0.47,6.99-0.78
				c0-0.16-1.24-1.4-3.42-3.26c1.4-1.4,2.17-2.33,2.17-3.26c0-0.93-0.47-1.4-1.71-1.4c-2.17,0.93-3.57,1.24-4.19,1.24
				c-0.16,0-1.4-1.09-4.19-3.1C292.24,247.48,291.93,248.26,291.93,249.81z"/>
		</g>
		<g>
			<path class="st19" d="M398.89,321.52c0.16-0.93-0.47-1.4-1.71-1.4c-1.55,0.78-2.48,1.24-2.95,1.24
				c-2.17-1.86-3.57-2.79-4.19-2.79c-0.93,0-1.4,0.62-1.4,1.71v3.88c-3.57,1.55-5.28,2.64-5.28,3.41c0,0.31,1.4,0.93,4.04,2.02
				c-1.4,2.64-0.93,4.19,1.24,4.19c1.09,0,2.33-1.24,3.88-3.57c1.24-0.93,2.17-1.24,2.33-1.24c3.42-0.31,4.97-0.93,4.97-2.17
				c0-0.62-0.78-1.71-2.64-3.26C398.27,322.3,398.89,321.52,398.89,321.52z"/>
		</g>
		<g>
			<path class="st19" d="M415.34,171.57c-1.55-1.55-2.64-2.33-3.42-2.33c-1.24,0-1.86,0.31-1.86,1.24c0,1.55-0.16,2.48-0.16,2.79
				c0,1.09-1.09,2.02-3.1,2.48c-1.86,0.78-2.95,1.24-2.95,1.86c0,0.47,0.31,0.78,1.09,0.78c1.24,0,2.79,0.47,4.35,1.24
				c0,0.62-0.16,1.86-0.62,3.88c0,1.55,0.62,2.33,2.33,2.33c0.16,0,0.78-1.09,1.71-2.95c1.09-2.02,1.86-2.95,2.79-2.95
				c1.55,0,2.95,0.15,4.19,0.47c3.88,0.47,5.74,0,5.43-1.55c0-0.93-0.47-1.55-1.24-2.02c-2.17-1.09-3.88-2.17-4.81-2.95
				c1.4-1.71,2.02-2.64,2.02-2.79c0-0.78-0.62-1.24-1.71-1.24C417.36,171.11,416.12,171.57,415.34,171.57z"/>
		</g>
		<g>
			<path class="st19" d="M373.74,123.61c0.62-0.16,0.93-0.47,0.93-0.78c0-0.93-0.78-1.4-2.33-1.4c-2.02,0-3.41-0.78-4.19-2.33
				c-0.93-1.71-1.55-2.48-2.02-2.48c-0.78,0-1.55,1.09-2.64,2.95c-0.93,2.02-2.48,2.79-4.5,2.48c-1.71,0-2.64,0.16-2.64,0.62
				c0,0.62,0.31,1.24,1.09,1.4c1.4,0.62,2.48,0.93,3.1,1.4l-1.09,2.48c0,0.15,0.16,0.47,0.16,1.09c0.31,0.62,0.93,1.09,1.86,1.09
				c1.09,0,1.86-0.47,2.33-1.24c0.62-0.78,1.24-1.09,1.71-1.09c0.62,0,1.55,0.47,2.79,1.55c0.93,0.93,2.02,1.4,2.95,1.4
				c0.62,0,0.93-0.47,0.93-1.71c-0.31-0.93-0.62-2.33-0.78-3.88C372.03,124.38,372.81,124.07,373.74,123.61z"/>
		</g>
		<g>
			<path class="st19" d="M374.67,76.42c0.31,0,2.02-1.4,5.28-4.5c0.16,0,1.09,0.31,2.48,0.93c1.55,0.47,2.95,0.78,4.35,0.78
				c1.09,0,1.55-0.78,1.55-2.33c0-0.78-0.16-1.4-0.78-1.86c-1.09-0.93-2.02-1.86-2.48-2.64c1.71-0.93,2.64-1.71,2.64-2.95
				c0.16-0.93-0.31-1.4-1.4-1.4c-2.64,0.93-4.04,1.24-4.04,1.24c-2.64-2.48-4.19-3.73-5.12-3.73c-0.93,0-1.71,2.17-2.02,6.21
				c-4.04,0.16-6.05,0.62-6.05,1.71c0,0.93,1.71,1.71,5.12,2.48c-0.93,2.64-1.4,4.19-1.4,4.66
				C372.81,75.95,373.43,76.42,374.67,76.42z"/>
		</g>
		<g>
			<path class="st19" d="M321.74,41.8c0-0.93-0.62-1.4-1.55-1.4c-1.71,1.24-2.64,1.86-3.1,1.86c-1.24-1.24-2.33-1.86-2.79-1.86
				c-1.09,0-1.55,0.62-1.4,2.17c0.16,1.86,0,2.95-0.47,3.26c-3.41,3.26-5.28,5.28-5.28,5.9c0,0.16,0.16,0.31,0.31,0.78
				c0.47,0.47,1.86,0.78,3.88,0.78c0.47,0,1.24-0.31,2.33-0.62c0,0.15-0.31,0.93-0.62,2.48c0,1.55,0.62,2.33,1.86,2.33
				c1.09,0,1.55-0.47,2.02-1.55c0.15-1.09,0.31-1.71,0.31-2.02c0.31-1.09,1.55-1.4,3.88-1.24c2.17,0.15,3.42-0.16,3.42-1.4
				c0-1.09-0.78-2.33-2.17-3.88c-1.24-1.4-2.02-2.17-2.02-2.33C321.27,43.51,321.74,42.42,321.74,41.8z"/>
		</g>
		<g>
			<path class="st19" d="M44.34,291.88c-0.62-0.62-1.24-1.09-1.86-1.09c-1.09,0-1.55,0.47-1.71,1.4c-0.31,0.47-0.31,1.4-0.47,2.48
				c-0.31,1.4-1.09,2.33-2.17,3.1c-0.78,0.78-1.24,1.4-1.24,1.71c0,1.4,1.09,1.71,3.41,1.24v0.93c0,1.55,0.78,2.33,2.17,2.33
				c0.31,0,0.78-0.78,1.55-2.17c0.31-0.62,0.47-0.93,0.47-1.09c4.35-0.47,6.36-0.78,6.36-1.55c-2.02-2.17-2.95-3.26-2.95-3.57
				c0.31-0.62,0.78-1.09,0.78-1.55c0.16-0.47-0.62-0.93-2.33-1.09C45.74,292.96,45.12,292.5,44.34,291.88z"/>
		</g>
		<g>
			<path class="st19" d="M61.26,227.14c-1.71-1.86-2.95-2.79-3.42-2.79c-0.93,0-1.4,0.78-1.55,2.17c-0.16,0.78-0.31,1.71-0.16,2.64
				c-0.31,1.71-1.24,2.64-3.26,2.79c-1.71,0.15-2.64,0.78-2.64,1.71c0,1.09,1.86,1.71,5.74,1.55c0,0.62-0.16,1.71-0.31,3.42
				c0,1.55,0.16,2.17,0.93,2.17c1.24,0,2.33-0.93,2.95-2.64c0.78-1.71,1.4-2.64,1.71-2.64c3.41,0,5.43,0,5.9,0
				c0.31-0.16,0.47-0.62,0.47-1.4c0-0.16-1.4-1.71-4.04-4.35c0.78-1.09,0.93-1.55,0.93-1.71c0.31-1.4-0.16-2.02-1.4-2.02
				C62.19,226.68,61.57,226.99,61.26,227.14z"/>
		</g>
		<g>
			<path class="st19" d="M212.45,262.69c-1.09,0-1.86,0.31-1.86,1.24c-0.16,0.47,0,1.24,0,2.64c0,0.47-0.78,1.4-2.48,2.48
				c-1.55,1.24-2.33,2.02-2.33,2.33c0,1.09,0.47,1.55,1.55,1.55c0.47,0,1.55-0.16,3.1-0.62l-0.31,0.47
				c-0.16,0.62-0.31,0.93-0.31,1.24c0,0.93,0.62,1.24,1.71,1.24c0.93,0,1.55-0.16,2.02-0.93c0.16-0.78,0.31-1.09,0.47-1.4
				c0.62-1.09,1.24-1.55,1.55-1.09c0.78,0.62,2.17,0.62,3.88-0.16c0.62-0.47,0.93-0.93,0.93-1.4c-1.24-1.09-2.33-2.02-2.95-2.95
				c0.78-1.55,1.09-2.33,1.09-2.48c0-0.93-0.47-1.55-1.4-1.55c-0.31,0-1.09,0.47-2.17,1.24
				C214.63,263.31,213.7,262.69,212.45,262.69z"/>
		</g>
		<g>
			<path class="st19" d="M271.13,241.12c0-0.47-0.31-1.24-0.78-2.33c-0.78-1.24-1.24-1.86-1.55-2.17c1.86-1.09,2.95-1.86,2.95-2.48
				c0.16-1.09-0.62-1.71-2.33-1.71c-2.79,0-4.35-0.31-4.66-1.09c-0.47-0.78-1.24-1.24-2.02-1.24c-0.93,0-1.55,0.47-1.86,1.24
				c-0.78,1.09-1.24,1.55-1.24,1.71c-1.4,0.16-3.1,0.47-5.43,0.78c-0.78,0.16-0.93,0.62-0.93,1.4c0,0.62,1.24,1.4,3.88,2.33
				c-0.93,2.48-1.55,3.73-1.55,3.88c0.15,0.31,0.78,0.47,1.71,0.47c0.62,0,1.4-0.47,2.48-1.24c1.09-0.78,1.86-1.09,2.48-1.09
				c0.62,0,2.95,1.09,6.67,2.95C270.36,242.51,271.13,242.05,271.13,241.12z"/>
		</g>
		<g>
			<path class="st19" d="M289.76,156.2c0-1.09-0.62-1.71-1.55-1.71c-1.4,0.62-2.17,0.78-2.79,0.78c-2.02-5.43-3.57-7.92-4.35-7.92
				c-1.4,0-2.79,2.17-3.88,6.67c-0.78,2.33-2.48,3.42-5.28,3.73c-2.48,0.16-3.88,0.62-3.88,1.71c0,1.09,0.93,1.55,2.48,2.02
				c2.17,0.47,3.73,0.78,4.04,1.09c-0.78,1.09-1.55,2.33-2.64,3.73l0.15,0.62c0.16,0.62,0.62,0.78,1.4,0.78
				c0.62,0,2.48-1.24,6.05-3.57c0.78,0,1.86,0.47,3.1,1.24c1.24,0.78,2.79,1.09,4.81,1.09c0.78,0,1.4-0.78,1.4-2.79
				c0-1.09-0.62-2.64-1.55-4.66C288.98,157.45,289.76,156.36,289.76,156.2z"/>
		</g>
		<g>
			<path class="st19" d="M245.67,94.42c-0.78,0-1.4,0.31-1.55,0.93c-0.62,0.78-0.93,1.4-0.93,1.4c-2.17-2.48-3.57-3.73-4.04-3.73
				c-0.78,0-1.24,0.62-1.24,1.86c0,0.47,0.16,2.33,0.62,5.28c0,1.24-0.62,2.02-1.86,2.48c-1.24,0.62-1.86,1.4-1.86,1.86
				c0,0.16,0.16,0.31,0.16,0.78c0.47,0.47,1.24,0.78,2.48,0.78c0.47,0,0.93-0.31,1.24-0.62c0.16,0.15,0.16,1.09,0.16,2.33
				c0.31,1.4,1.09,1.86,2.33,1.86c0.31,0,0.78-0.93,1.71-2.79c0.93-2.02,2.02-2.95,3.42-2.95c2.64,0,4.04-0.47,4.04-1.24
				c0-1.55-1.4-2.64-4.04-3.73c0.62-1.55,0.93-2.48,0.93-2.64C247.38,95.04,246.92,94.42,245.67,94.42z"/>
		</g>
		<g>
			<path class="st19" d="M146.02,106.22c-0.93,0-1.24,0.47-1.24,1.09c0,2.17-1.24,3.73-3.73,5.12c-2.48,1.09-3.73,2.17-3.73,2.64
				v0.62c0.31,0.62,1.09,0.78,1.86,0.78l3.57-0.31l-0.16,0.31c-0.47,1.24-0.93,2.33-1.4,3.1v0.78c0.31,0.47,0.78,0.78,1.24,0.78
				c0.62,0,1.4-0.78,2.33-2.33c1.09-1.4,1.86-2.17,2.64-2.17c2.95,0,5.43,0,7.61,0.31c0.62,0,0.78-0.47,0.78-1.4
				c0-0.16-1.09-1.55-3.41-3.73c0.62-0.78,0.93-1.24,0.93-1.55c0-1.24-0.47-1.86-1.4-1.86c-0.93,0.31-1.71,0.62-2.17,0.62
				C149.43,109.01,148.19,108.08,146.02,106.22z"/>
		</g>
		<g>
			<path class="st19" d="M5.69,200.13c-1.4-1.24-2.02-1.86-2.02-2.02c1.09-2.17,0.62-3.26-1.4-3.26c-0.78,0.62-1.4,0.78-1.86,0.78
				c-0.16,0-1.71-0.93-4.66-2.64c-0.93,0-1.4,2.17-1.4,6.21c0.16,0.93-0.78,1.86-2.64,3.26c-1.71,1.24-2.79,2.48-2.79,3.1
				c0,0,0,0.31,0.16,0.93c0.31,0.47,0.93,0.62,1.86,0.62c0.78,0,1.86-0.31,3.42-1.24c0.31,0.31,0.47,0.93,0.47,2.17
				c0,1.09,0.31,1.86,0.78,2.17c1.4-0.31,2.17-0.78,2.79-1.55c0.31-0.93,0.62-1.55,0.93-2.02c1.55-2.48,3.42-3.57,5.74-3.41
				c1.71,0.15,2.79,0.15,2.79-0.31C7.86,202.46,7.08,201.38,5.69,200.13z"/>
		</g>
		<g>
			<path class="st19" d="M166.04,311.43c0.16-1.09-0.47-1.55-1.4-1.55c-2.17,1.86-3.42,2.64-4.04,2.64c-0.78-0.78-1.4-1.4-2.17-1.4
				c-0.93,0-1.71,0.93-2.33,2.33c-0.62,1.86-1.09,2.64-1.24,2.64c-4.35,3.26-6.67,4.97-6.67,5.43l0.31,0.78
				c0.15,0.31,0.78,0.62,1.55,0.62c0.47,0,1.71-0.31,4.04-0.78c-0.78,1.4-1.24,2.64-1.24,3.57c0,0,0,0.31,0.16,0.78
				c0.16,0.47,0.62,0.78,1.4,0.78c0.31,0,1.24-1.09,2.95-2.95c1.71-2.02,2.95-2.95,4.04-2.95c1.86,0,3.57,0,5.12,0.16
				c0.62,0,0.78-0.47,0.78-1.55c0-0.31-1.09-1.86-3.41-4.66C165.26,313.61,166.04,312.21,166.04,311.43z"/>
		</g>
		<g>
			<path class="st19" d="M235.89,338.44c0.47,0,1.09-0.47,1.71-1.86c0.78-1.24,1.24-2.02,1.71-2.02c0.62,0,1.09,0.47,1.71,1.09
				c0.78,0.62,1.55,1.09,2.17,1.09c1.09,0,1.71-0.78,1.71-1.86c0-0.62-0.62-1.86-1.86-3.42c1.09-0.15,1.71-0.78,1.71-1.71
				c0-1.09-0.62-1.55-1.86-1.55c-1.24,0-2.17-0.47-3.26-1.4c-0.78-0.78-1.55-1.24-2.17-1.24c-0.93,0-1.71,0.93-2.02,2.64
				c-0.62,2.17-1.86,3.1-3.73,2.64c-1.86-0.16-2.64-0.16-2.64,0.31c0,0.78,0.93,1.24,2.79,1.71c2.02,0.31,2.95,0.93,2.95,1.24
				c0,0.62-0.31,1.71-0.93,2.79C233.88,337.98,234.65,338.44,235.89,338.44z"/>
		</g>
		<g>
			<path class="st19" d="M371.26,263.47c-0.93,0.62-1.24,0.93-1.24,1.55c0,1.24,0.78,1.71,2.79,1.55h-0.16
				c-0.78,0.62-1.09,1.55-1.09,2.48c0,1.09,0.31,1.4,1.4,1.4c0.78,0,1.4-0.31,1.86-1.24c0.16-0.31,0.62-1.09,0.93-1.86
				c0.78-0.93,1.86-1.55,3.26-1.86c1.09-0.15,1.71-0.62,1.71-1.4c-0.62-1.09-0.93-1.55-0.93-1.71c1.09-2.33,0.93-3.57-1.09-3.57
				c-0.62,0.62-0.93,0.78-1.55,0.78c-0.47-0.78-0.93-1.09-1.86-1.09c-0.62,0-1.09,0.31-1.09,1.09c0,0.93-0.16,1.71-0.31,1.86
				C373.27,262.23,372.34,262.85,371.26,263.47z"/>
		</g>
		<g>
			<path class="st19" d="M406.49,295.45c0,1.09,0.62,1.4,1.71,1.4c0.16,0,2.17-0.62,6.05-1.86c0.47,0,2.17,0.31,4.97,1.24
				c1.4,0,2.02-0.47,2.02-1.55c0-0.31-0.47-1.55-1.55-3.26c0.62-0.93,1.09-1.55,1.09-1.71c0-0.78-0.31-1.24-0.93-1.4
				c-1.86,0-3.1,0-3.42-0.16c-1.4-2.02-2.48-2.95-3.41-2.95c-0.78,0-1.4,0.47-1.86,1.24c-0.16,0.31-0.47,1.09-0.62,1.86
				c-0.93,1.71-2.17,2.48-3.73,2.33c-1.4,0-2.17,0.16-2.17,0.78c0,1.09,1.24,1.71,3.41,1.86v0.15
				C407.11,294.36,406.49,295.14,406.49,295.45z"/>
		</g>
		<g>
			<path class="st19" d="M360.54,179.18c-0.15,0-0.62-0.62-1.4-1.55c-0.78-1.09-1.71-1.71-2.64-1.71c-1.24,0-2.02,0.78-2.17,2.17
				c0,0.78,0,1.71,0.16,2.64c0,1.09-0.93,2.02-2.79,2.95c-2.02,0.93-2.95,1.55-2.95,2.17c0,1.09,1.55,1.71,4.5,2.02v0.31
				c0,1.24-0.31,2.33-0.93,3.1c0.47,0,0.93,0.16,1.4,0.31c0.78,0,2.17-1.09,4.5-3.1c0.16,0,0.62,0.15,1.09,0.78
				c0.78,0.31,2.02,0.47,4.04,0.47c2.02,0,3.1-0.47,3.1-1.86c0-0.15-1.24-2.02-3.42-5.12c1.86-1.55,2.79-2.64,2.79-3.42
				c0-0.93-0.62-1.55-1.71-1.55L360.54,179.18z"/>
		</g>
		<g>
			<path class="st19" d="M109.69,194.24c0,2.95,0.47,4.5,1.55,4.5c0.78,0,1.55-0.62,2.02-1.71c0.47-1.09,0.78-1.86,0.78-2.17
				c0.62-0.78,1.86-1.24,3.88-1.24c2.64,0,3.88,0,4.04-0.16c0.93-0.31,1.24-0.93,1.24-1.86c0-0.62-0.47-0.93-1.4-1.09
				c-1.4-0.47-2.79-1.24-4.04-2.33c0.62-1.09,1.09-1.55,1.09-2.02c0.16-0.93-0.47-1.4-1.55-1.4c-0.47,0-0.93,0.31-1.4,0.78
				c-0.62,0.62-0.93,0.93-1.24,0.93c-2.48-2.17-4.04-3.26-4.35-3.26c-0.78,0-1.24,0.47-1.24,1.55c0,0.47,0.31,1.71,0.62,3.73
				c0,1.24-0.78,2.17-2.17,2.64c-1.55,0.47-2.33,0.93-2.33,1.4C105.19,193.46,106.59,194.08,109.69,194.24z"/>
		</g>
		<g>
			<path class="st19" d="M37.04,76.73c-0.62,0-1.24,0.31-1.55,0.93c-0.47,0.62-0.78,0.78-1.24,0.78l-3.73-1.71
				c-1.09,0-1.71,1.24-1.71,3.88c0.15,0.93-0.31,1.71-1.4,2.33c-0.93,0.62-1.4,1.24-1.4,1.86c0,1.24,1.09,1.86,3.1,1.24l0.15,0.47
				c-0.62,2.48,0.16,3.57,2.33,3.57c0.93,0,1.71-0.93,1.86-2.48c0.47-1.71,1.4-2.64,2.64-2.64c1.55,0,2.79,0.16,4.04,0.31
				c0.62,0,0.78-0.47,0.78-1.4c0-0.62-1.24-1.55-3.57-3.26c0.62-0.78,1.09-1.55,1.09-2.33C38.44,77.35,37.98,76.73,37.04,76.73z"/>
		</g>
		<g>
			<path class="st19" d="M282.46,24.57c-0.62,0.31-1.24,0.47-1.71,0.47c-1.09-1.09-2.02-1.55-2.95-1.55c-1.09,0-1.4,0.78-1.4,2.17
				c0,0.78-0.62,1.24-1.4,1.55c-1.09,0.47-1.55,0.78-1.55,1.24c0,0.78,0.78,1.09,2.33,1.09v0.16c-0.78,2.17-0.47,3.42,1.24,3.42
				c0.93,0,1.71-0.62,2.33-2.02c0.62-1.09,1.71-1.71,2.95-1.71c1.55,0,2.33-0.47,2.33-0.93c-0.78-0.93-1.09-1.55-1.09-1.86
				C284.17,25.34,283.71,24.57,282.46,24.57z"/>
		</g>
		<g>
			<path class="st19" d="M422.02,34.19c-0.78,0-1.55,0.47-2.02,1.55c-0.62,1.24-1.09,1.71-1.55,1.71c-2.33-0.47-3.42-0.78-3.88-0.78
				c-1.09,0-1.71,0.47-1.71,1.4c0,0.62,0.62,1.24,2.17,1.86c1.4,0.62,2.02,1.24,2.02,1.55c0,0.47,0,0.62,0,0.47
				c-0.47,0.78-1.24,1.55-1.71,2.17c0,0,0,0.15,0,0.78c0.31,0.62,0.78,0.78,1.86,0.78c0.31,0,1.4-0.62,3.57-2.02
				c0.16,0,0.78,0.47,1.55,1.4c1.24,0.78,2.48,1.24,3.88,1.24c0.78,0,1.24-0.47,1.24-1.4c0-0.31-0.31-1.4-1.09-3.73
				c2.02-1.4,2.95-2.33,2.95-2.48c0-0.93-0.47-1.4-1.55-1.4c-2.02,0-3.42-0.62-4.19-1.55C423.1,34.66,422.48,34.19,422.02,34.19z"/>
		</g>
		<g>
			<path class="st19" d="M3.36,309.42c0.62-0.31,0.78-0.78,0.78-1.55c0.16-0.78-0.47-1.4-1.4-1.4c-1.09,0.62-1.86,1.09-2.33,1.09
				c-1.24-1.09-2.17-1.55-2.48-1.55c-1.24,0-2.02,0.62-2.17,1.55c0,0.62-0.16,1.24,0,2.02c-0.31,1.09-0.93,1.71-1.86,2.17
				c-0.78,0.31-1.24,0.78-1.24,1.24c0,1.24,0.62,1.86,2.02,1.4v1.71c0,0.31,0.16,0.62,0.78,0.93c1.09-0.16,2.33-0.93,3.57-2.79
				c1.09-1.71,2.64-2.48,4.66-2.02c1.4,0.31,2.02,0.31,2.02-0.47C5.69,311.28,5.07,310.5,3.36,309.42z"/>
		</g>
		<g>
			<path class="st19" d="M104.57,322.3c-0.78-0.62-1.55-0.93-2.33-0.93c-0.62,0-1.4,1.24-2.17,3.73c-0.47,1.24-1.71,2.02-3.88,2.48
				c-1.86,0.47-2.79,0.93-2.79,1.71c0,0.93,0.78,1.4,2.17,1.4c0.62,0,1.4-0.15,2.64-0.62v0.31c-0.47,1.24-0.78,2.02-0.78,2.33
				c0,0.78,0.78,1.09,2.17,1.09c0.47,0,1.09-0.62,2.33-1.86c1.09-1.4,1.86-2.02,2.33-2.02c0.47,0,1.71,0.16,3.88,0.78
				c1.09,0,1.71-0.62,1.71-1.55c-1.24-1.24-2.02-2.17-2.02-2.64c0.78-1.09,1.09-1.55,1.09-1.71c0-0.93-0.47-1.55-1.4-1.55
				C106.28,323.23,105.35,322.92,104.57,322.3z"/>
		</g>
		<g>
			<path class="st19" d="M-1.45,266.57l0.16,0.31c-0.16,0.47-0.16,1.24-0.62,2.02c0,0.16,0,0.47,0.15,0.93
				c0,0.62,0.62,0.93,1.24,0.93c1.09,0,2.17-1.09,3.26-3.1l0.47-0.93c0.31-0.93,1.24-1.24,2.48-0.93c1.86,0.62,2.95,0.62,3.73,0.16
				c0.93-0.62,1.4-1.09,1.4-1.71c0-0.78-0.62-1.4-1.55-2.02c-1.71-1.09-2.79-1.86-2.95-1.86c0.93-1.55,1.4-2.33,1.4-2.64
				c0-1.09-0.47-1.55-1.4-1.55c-1.4,1.09-2.33,1.55-2.64,1.55c-1.4-1.4-2.64-2.17-3.73-2.17c-1.4,0-2.17,0.62-2.17,1.86
				c0,0.62,0.16,1.55,0.47,2.79c-0.15,1.09-0.78,2.17-1.86,3.1c-1.24,0.93-1.71,1.71-1.71,2.33c0,0,0,0.16,0.16,0.78
				c0.16,0.31,0.93,0.62,2.33,0.62C-2.23,267.04-1.76,266.88-1.45,266.57z"/>
		</g>
		<g>
			<path class="st19" d="M130.49,294.2c0-0.47-0.62-1.09-1.86-2.17c0,1.55-0.62,2.17-1.86,2.17c0,0.31,0.62,1.09,1.86,2.17
				c0.62-0.31,1.24-0.47,1.71-0.78C130.34,294.98,130.49,294.52,130.49,294.2z"/>
		</g>
		<g>
			<path class="st19" d="M174.73,291.41c-0.47-1.71-1.4-2.64-2.33-2.64c-1.55,0-2.33,0.62-2.33,2.17c0,1.55,0.93,2.33,2.64,2.33
				c0.62,0,1.4-0.31,1.71-0.93L174.73,291.41z"/>
		</g>
		<g>
			<path class="st19" d="M210.28,326.34l-1.86-0.31c-1.55-0.31-2.33,0.31-2.33,2.02c0,1.09,0,1.55,0.16,1.4
				c0.78,0.31,2.02,0.62,3.26,0.62c0.93,0,1.24-0.78,1.24-2.02C210.44,327.27,210.28,326.65,210.28,326.34z"/>
		</g>
		<g>
			<path class="st19" d="M202.99,207.59c-0.15-0.93-0.31-1.55-0.31-1.71c-2.02-0.31-3.1,0.47-3.1,2.02c0,0.47,0.78,0.93,2.33,2.02
				C202.68,209.14,202.99,208.36,202.99,207.59z"/>
		</g>
		<g>
			<path class="st19" d="M68.87,193.93c0-1.09-0.62-1.71-1.71-1.71c-0.31,0-0.62,0.31-1.24,0.62c-0.78,0.47-1.09,1.24-1.09,1.86
				c0,0.93,0.15,1.55,0.47,1.4l1.86,0.16C68.25,195.17,68.87,194.39,68.87,193.93z"/>
		</g>
		<g>
			<path class="st19" d="M91.69,161.33c0-2.17-0.62-3.1-1.55-3.1c-0.93,0-1.55,0.62-1.55,1.71c0,0.31,0.62,1.09,1.55,2.02
				C90.44,161.79,91.06,161.64,91.69,161.33z"/>
		</g>
		<g>
			<path class="st19" d="M26.8,228.85c-0.31,0-0.62,0.15-1.09,0.62c0.16,0.62,0.62,1.4,1.71,2.17c0.47,0,0.62-0.31,0.78-0.31
				l0.31-0.78C27.58,229.32,27.11,228.85,26.8,228.85z"/>
		</g>
		<g>
			<path class="st19" d="M244.28,74.09c-1.09-1.24-1.55-1.86-1.71-1.86c-0.62,0-0.93,0-0.93,0.16c0,0.62-0.47,1.24-0.78,2.33
				c0,0.47,0.15,0.78,0.62,1.24h1.4C243.5,75.33,244.12,74.71,244.28,74.09z"/>
		</g>
		<g>
			<path class="st19" d="M303.58,97.22c0-0.16-0.47-0.93-1.71-1.86c-1.24,0.15-1.86,0.78-1.86,1.55c0,1.55,0.78,2.48,2.48,2.48
				c1.09,0,1.24-0.15,0.93-0.47C303.58,98.3,303.58,97.84,303.58,97.22z"/>
		</g>
		<g>
			<path class="st19" d="M241.33,144.56c-0.47-0.93-1.24-1.24-1.86-1.24c-1.24,0-1.86,0.47-1.86,1.55c0,1.09,0.16,1.55,0.31,1.4
				l2.48,0.16C241.02,145.8,241.33,145.18,241.33,144.56z"/>
		</g>
		<g>
			<path class="st19" d="M298.45,214.73c-0.62-0.93-1.09-1.24-1.86-1.24c-1.24,0-1.86,0.62-1.86,1.55c0,1.09,0,1.4,0.31,1.4
				l2.48,0.15C298.14,215.97,298.45,215.35,298.45,214.73z"/>
		</g>
		<g>
			<path class="st19" d="M332.91,274.02l-1.86-0.31c-1.55,0.47-2.17,0.78-2.17,1.4c0,0.93,0,1.4,0.16,0.93
				c0.47,0.62,1.24,0.78,2.33,0.78c1.09,0,1.71-0.16,1.71-0.47l0.16-1.24C333.07,274.8,332.91,274.33,332.91,274.02z"/>
		</g>
		<g>
			<path class="st19" d="M307.46,315.01c-0.62-0.47-1.09-0.78-1.55-0.78c-0.62,0-1.24,0.31-1.71,0.78c0,0.78,0.31,1.4,0.62,1.86
				c1.4,0,2.33-0.31,2.79-0.93L307.46,315.01z"/>
		</g>
		<g>
			<path class="st19" d="M274.7,294.36c-0.62-0.62-1.24-0.78-1.71-0.78c-0.31,0-0.93,0.16-1.24,0.31c-0.78,0.47-1.24,0.93-1.24,1.71
				c0,0.78,0.62,1.24,1.55,1.71c1.86-0.31,2.79-1.09,2.79-2.17L274.7,294.36z"/>
		</g>
		<g>
			<path class="st19" d="M263.84,265.49c0.16-2.02-0.93-3.1-2.95-3.1c-2.02,0-2.95,1.09-2.95,2.95c0,0.15,0.15,0.62,0.15,1.55
				c0.62,0.93,1.71,1.4,3.73,1.4c0.31,0,0.78-0.31,1.24-0.93C263.53,266.73,263.84,266.11,263.84,265.49z"/>
		</g>
		<g>
			<path class="st19" d="M365.2,226.83c0.93,0,1.4-0.16,1.09-0.62c0.16-0.78-0.62-1.86-2.33-3.1c-0.31,0-0.31,0.16-0.62,0.31
				c-0.47,0.15-0.62,0.47-0.62,1.24c0,0,0,0.47,0.15,1.09C363.34,226.52,364.12,226.83,365.2,226.83z"/>
		</g>
		<g>
			<path class="st19" d="M420.15,221.4c-1.71-1.09-2.48-1.71-2.48-1.71c-0.62,0-1.09,0.62-1.86,1.86c0.31,1.09,1.24,1.71,2.64,1.71
				c1.09,0,1.55-0.16,1.71-0.47V221.4z"/>
		</g>
		<g>
			<path class="st19" d="M439.56,325.25c-0.47-0.62-0.93-0.78-1.4-0.78c-0.62,0-1.09,0-1.24,0c-0.16,0-0.16,0.47-0.16,1.09
				c0,1.09,0,1.24,0.31,0.93l2.02,0.16c0-0.31,0.16-0.47,0.47-0.47V325.25z"/>
		</g>
		<g>
			<path class="st19" d="M375.29,301.19c-0.62-0.93-1.09-1.24-1.71-1.24c-0.93,0.16-1.24,0.31-1.55,0.31l-0.16,1.09
				c0,1.09,0,1.4,0.16,0.78c0.62,0.62,1.24,0.93,1.86,0.93c0.93,0,1.4-0.16,1.24-0.47L375.29,301.19z"/>
		</g>
		<g>
			<path class="st19" d="M333.69,328.35l-0.47-0.93l-1.09,0.15c0,0.78,0.16,1.4,0.16,1.71h1.09
				C333.54,328.98,333.69,328.67,333.69,328.35z"/>
		</g>
		<g>
			<path class="st19" d="M28.97,163.19c-0.62-0.93-1.24-1.4-2.17-1.4c-0.47,0.31-0.93,0.31-1.24,0.31c-0.16,0.62-0.31,1.09-0.31,1.4
				c0,1.09,0.15,1.4,0.31,1.4l2.48,0.16C28.66,164.43,28.97,163.81,28.97,163.19z"/>
		</g>
		<g>
			<path class="st19" d="M58.62,153.1c0-1.09-0.47-1.86-1.4-2.17c-0.93,0.31-1.4,0.78-1.4,1.71c0,0.93,0.47,1.4,1.4,1.71
				C57.85,154.03,58.16,153.72,58.62,153.1z"/>
		</g>
		<g>
			<path class="st19" d="M-9.99,177.78c-1.55-1.55-2.64-2.17-2.64-2.17c-0.93,0.16-1.24,0.31-1.55,0.31l-0.16,1.09
				c0,0.62,0,1.09,0.31,1.4c0.47,0.78,1.09,1.09,2.02,1.09C-11.85,179.49-11.23,178.87-9.99,177.78z"/>
		</g>
		<g>
			<path class="st19" d="M-0.99,100.48l-1.71-0.31c-1.71,0-2.64,0.62-2.64,1.71c0,1.09,0.16,1.24,0.16,0.78
				c1.09,0.78,1.86,1.24,2.48,1.24c1.55,0,2.17-0.62,2.17-1.71C-0.83,101.41-0.99,100.79-0.99,100.48z"/>
		</g>
		<g>
			<path class="st19" d="M22.3,61.05c-0.16-1.86-0.62-2.64-1.71-2.64c-0.62,0-1.09,0.47-1.71,1.09c-0.47,0.78-0.78,1.24-0.78,1.86
				c0,0.47,0.62,1.09,1.86,2.17C21.52,62.76,22.3,61.98,22.3,61.05z"/>
		</g>
		<g>
			<path class="st19" d="M-15.27,70.52c-0.47-1.24-0.62-2.02-0.62-2.17c-2.17,0.16-3.26,0.62-3.26,1.4c0,0.62,0.47,1.09,1.24,1.4
				C-16.67,71.14-15.89,70.83-15.27,70.52z"/>
		</g>
		<g>
			<path class="st19" d="M38.91,12.31c0-0.93-0.62-1.71-1.55-2.17c-0.93,0.16-1.55,0.93-1.55,2.17c0,0.15,0.62,0.78,1.55,1.86
				c0.47-0.16,0.78-0.16,1.4-0.47C38.75,13.08,38.91,12.62,38.91,12.31z"/>
		</g>
		<g>
			<path class="st19" d="M73.68,52.35c0-1.4-0.78-2.17-2.17-2.17c-0.93,0-1.55,0.62-1.55,1.71c0,1.09,0,1.55,0.16,1.71l1.71,0.31
				c0.62,0,1.09-0.31,1.55-0.62L73.68,52.35z"/>
		</g>
		<g>
			<path class="st19" d="M80.97,92.25c-0.15-0.62-0.62-0.93-1.09-1.4c-0.47,0-0.93,0.16-1.09,0.47c0,0.31,0,0.78,0.31,1.4h1.55
				L80.97,92.25z"/>
		</g>
		<g>
			<path class="st19" d="M114.04,90.54c0.78-0.62,1.09-1.4,1.09-1.71c-0.78,0.31-1.4,0.62-1.71,1.55L114.04,90.54z"/>
		</g>
		<g>
			<path class="st19" d="M33.16,209.6c0-1.09-0.47-2.02-1.4-2.64c-1.4,0.93-2.02,1.86-2.02,2.79c0,0.93,0.47,1.4,1.4,1.71
				L33.16,209.6z"/>
		</g>
		<g>
			<path class="st19" d="M23.07,302.59c-0.62-0.47-0.93-0.78-1.55-0.78c-0.78,0-1.55,0.31-2.17,0.93c0,0.31,0.16,0.93,0.47,1.71
				l1.71,0.16c1.09,0,1.71-0.47,1.71-1.4L23.07,302.59z"/>
		</g>
		<g>
			<path class="st19" d="M10.97,329.44c0.31,0.31,0.93,0.47,1.86,0.47c0.31-0.31,0.47-0.78,0.47-1.4
				C12.21,328.51,11.43,328.82,10.97,329.44z"/>
		</g>
		<g>
			<path class="st19" d="M54.59,328.67c-0.31-0.93-0.78-1.4-1.4-1.4c-0.62,0.16-1.24,0.16-1.24,0.16c0,0.62-0.16,0.93-0.16,1.24
				c0,1.09,0.16,1.24,0.62,0.93C53.65,329.6,54.27,329.29,54.59,328.67z"/>
		</g>
		<g>
			<path class="st19" d="M91.37,286.44c-0.31-0.47-0.62-1.09-1.24-1.24c-0.47-0.16-0.78,0-1.24,0.47c-0.47,0.47-0.62,0.93-0.62,1.4
				c0,0.47,0.16,0.78,0.78,1.4C90.44,288.31,91.22,287.53,91.37,286.44z"/>
		</g>
		<g>
			<path class="st19" d="M57.85,278.53c0-0.62-0.47-1.09-1.24-1.4c-0.16,0-0.62,0-0.78,0.16c-0.62,0-0.78,0.31-0.78,0.93
				c0,1.09,0.62,1.71,1.55,2.02c0.31-0.15,0.78-0.31,0.93-0.47C57.85,279.15,57.85,278.84,57.85,278.53z"/>
		</g>
		<g>
			<path class="st19" d="M101.78,252.14l0.62-1.24c0-0.62-0.31-0.93-0.78-1.4l-1.4,0.16v1.86
				C100.53,251.83,101.15,251.98,101.78,252.14z"/>
		</g>
		<g>
			<path class="st19" d="M127.23,271.54c-0.47-0.78-1.09-1.24-1.71-1.71c0,0-0.16,0.16-0.62,0.31c-0.31,0.16-0.47,0.47-0.47,1.09
				c0,0.62,0.15,0.93,0.31,1.24h2.02L127.23,271.54z"/>
		</g>
		<g>
			<path class="st19" d="M95.72,231.65h-0.31c-1.86,0.78-2.64,1.4-2.64,2.02c0,1.09,0,1.4,0.31,0.93l2.02,0.16l0.47-0.78
				c0.31,0,0.47-0.47,0.47-1.4C96.03,231.96,95.88,231.65,95.72,231.65z"/>
		</g>
		<g>
			<path class="st19" d="M-2.07,237.54l-1.86-0.31c-0.62,0.31-1.55,0.47-2.79,0.47v1.4c0.31,1.55,1.24,2.17,2.79,2.17
				c0.93,0,1.71-0.16,2.02-0.47c0.15-0.16,0.31-0.62,0.31-1.71C-1.92,238.32-2.07,237.86-2.07,237.54z"/>
		</g>
		<g>
			<path class="st19" d="M151.14,165.21c-0.62-1.09-1.55-1.55-2.64-1.55c-0.31,0-0.62,0.15-0.93,0.47l-0.16,0.78
				c0,0.93,0.16,1.55,0.47,1.55l1.55,0.31C150.21,166.76,150.83,166.14,151.14,165.21z"/>
		</g>
		<g>
			<path class="st19" d="M159.68,195.17c0-0.78-0.62-1.24-1.86-1.4c-0.93,0.31-1.4,0.78-1.4,1.71c0,0.62,0.31,1.24,0.62,1.55
				c1.24,0,2.02-0.31,2.33-0.93L159.68,195.17z"/>
		</g>
		<g>
			<path class="st19" d="M199.73,168c0-1.09-0.62-1.71-1.55-2.02c-1.86-0.16-2.79,0.47-2.79,1.71c0,0.62,0.31,1.09,0.62,1.4
				l1.55,0.31c0.62,0,1.4-0.16,2.02-0.78L199.73,168z"/>
		</g>
		<g>
			<path class="st19" d="M184.05,204.02c0-1.09-0.47-1.86-1.4-2.17c-0.93,0.31-1.4,0.78-1.4,1.55c0,1.09,0,1.55,0.16,1.71l1.86,0.16
				L184.05,204.02z"/>
		</g>
		<g>
			<path class="st19" d="M172.56,178.25l0.62-1.24c0-0.47-0.31-0.93-0.78-1.4l-1.4,0.16v1.86
				C171.32,177.94,171.78,178.09,172.56,178.25z"/>
		</g>
		<g>
			<path class="st19" d="M103.17,124.38c-0.47-0.47-1.24-0.78-1.86-0.78c-0.93,0.31-1.55,0.31-1.86,0.31
				c-0.16,0.47-0.16,0.93-0.16,1.24c0,1.09,0.16,1.24,0.47,0.93l1.55,0.31c1.4,0,2.02-0.47,2.02-1.4L103.17,124.38z"/>
		</g>
		<g>
			<path class="st19" d="M121.33,146.42l-0.47-0.93l-1.09,0.16c0,0.93,0.15,1.4,0.31,1.71h0.78
				C121.18,147.05,121.33,146.73,121.33,146.42z"/>
		</g>
		<g>
			<path class="st19" d="M165.42,93.8c0-0.47-0.47-0.78-1.4-1.24c-2.48,0.31-3.73,1.24-3.73,2.79c0,0.93,0,1.55,0.31,1.4l1.86,0.31
				c0.47,0,1.24-0.31,1.86-0.93C164.95,95.35,165.42,94.73,165.42,93.8z"/>
		</g>
		<g>
			<path class="st19" d="M129.72,42.73c0-0.31-0.47-0.93-1.71-2.17c0,1.4-0.47,2.02-1.71,2.17c0,0.93,0.16,1.55,0.31,1.86
				c1.4,0,2.17-0.16,2.79-0.47C129.56,43.51,129.72,43.04,129.72,42.73z"/>
		</g>
		<g>
			<path class="st19" d="M122.89,80.76l0.62-1.24c0-0.47-0.16-1.09-0.78-1.4l-1.4,0.16v1.86C121.64,80.45,122.11,80.76,122.89,80.76
				z"/>
		</g>
		<g>
			<path class="st19" d="M96.96,73.62c0-0.62-0.31-1.09-1.24-1.4c-0.78,0.16-1.24,0.93-1.24,2.33c0.62,0.62,0.93,0.78,1.24,0.78
				c0.93,0,1.24-0.15,0.93-0.47C96.96,74.24,96.96,73.78,96.96,73.62z"/>
		</g>
		<g>
			<path class="st19" d="M183.27,59.34c0-0.16-0.62-0.62-1.86-1.71c-1.71,0.47-2.48,1.24-2.48,2.02c0,0.93,0.16,1.55,0.47,1.86
				l2.64,0.16c0.93,0,1.4-0.16,0.93-0.47L183.27,59.34z"/>
		</g>
		<g>
			<path class="st19" d="M206.25,91.16c0-1.09-0.31-1.86-1.24-2.17c0,0.16-0.47,0.16-1.09,0.16c-0.16,0.62-0.16,0.93-0.16,1.55
				c0,0.62,0.47,1.09,1.24,1.4C205.47,92.09,205.94,91.63,206.25,91.16z"/>
		</g>
		<g>
			<path class="st19" d="M229.22,61.67c0-0.47-0.47-0.93-1.24-1.24c0,0.31-0.93,0.47-2.79,0.47c0,0.62-0.16,1.09-0.16,1.4
				c0,1.09,0.16,1.4,0.16,1.4l1.86,0.31c0.93,0,1.55-0.16,1.86-0.47L229.22,61.67z"/>
		</g>
		<g>
			<path class="st19" d="M191.19,86.66c0.15-2.17-0.78-3.1-2.95-3.1c-1.86,0-2.95,0.93-2.95,2.95c0,0.16,0,0.62,0.16,1.55
				c0.47,0.93,1.86,1.4,3.73,1.4c0.47,0,0.78-0.31,1.24-0.93C191.03,87.9,191.19,87.28,191.19,86.66z"/>
		</g>
		<g>
			<path class="st19" d="M146.79,18.36c-0.47-1.24-0.93-2.17-1.09-2.33c-1.55,0.78-2.33,1.24-2.33,2.02c0,1.09,0.16,1.24,0.16,0.93
				c0.31,0.31,1.24,0.47,2.48,0.62C146.33,19.14,146.64,18.67,146.79,18.36z"/>
		</g>
		<g>
			<path class="st19" d="M191.96,15.72c0-0.93-0.47-1.4-1.24-1.71c-1.24,0.78-1.86,1.55-1.86,2.33c0,0.62,0.31,0.93,1.24,1.24
				c0.31,0,0.93-0.31,1.55-0.47C191.96,17.12,191.96,16.81,191.96,15.72z"/>
		</g>
		<g>
			<path class="st19" d="M236.21,27.52l-1.71-0.16c-1.24,0.62-1.71,1.09-1.71,1.4c0,0.78,0.16,1.24,0.47,1.24
				c0.47,0.16,1.09,0.16,2.17,0.16c0.78-0.62,1.09-1.09,1.24-1.4C236.36,28.14,236.21,27.83,236.21,27.52z"/>
		</g>
		<g>
			<path class="st19" d="M288.21,61.67c-0.47-0.31-1.24-0.78-2.48-1.4c0,0.16-0.31,0.31-1.09,0.78c-0.62,0.31-0.93,0.93-0.93,1.24
				c0,0.78,0.78,1.24,2.02,1.4C287.43,62.91,288.21,62.13,288.21,61.67z"/>
		</g>
		<g>
			<path class="st19" d="M313.2,26.74c-0.78-0.47-1.4-0.78-2.02-0.78c-1.09,0.31-1.71,0.31-1.86,0.31
				c-0.15,0.62-0.31,0.93-0.31,1.24c0,1.09,0.16,1.4,0.31,1.4l3.1,0.16c0.93,0,1.4-0.16,0.78-0.47l0.16-1.24L313.2,26.74z"/>
		</g>
		<g>
			<path class="st19" d="M353.56,23.33c0-0.31-0.78-0.93-2.02-1.71c-0.47,0-1.09,0.15-1.86,0.62c-1.09,0.47-1.71,1.09-1.71,2.02
				c0,0.31,0.78,0.93,2.33,1.86C352.47,25.03,353.56,24.1,353.56,23.33z"/>
		</g>
		<g>
			<path class="st19" d="M342.38,71.76c0-1.4-0.47-2.17-1.4-2.17c-1.24,0-1.86,0.78-1.86,2.02c0,1.09,0.16,1.4,0.47,0.93
				c0.78,0.31,1.24,0.47,1.4,0.47C341.76,73,342.07,72.69,342.38,71.76z"/>
		</g>
		<g>
			<path class="st19" d="M402.61,94.11c-0.16,0.16-0.47,0-0.78,0c-2.02,1.24-3.1,2.17-3.1,2.79c0,0.31,0.16,0.78,0.47,1.24h2.17
				c1.09-1.24,1.55-2.17,1.55-2.95C402.92,94.58,402.92,94.11,402.61,94.11z"/>
		</g>
		<g>
			<path class="st19" d="M424.5,72.69l1.55,0.31c0.62,0,1.4-0.15,1.86-0.78c0-0.31,0.15-0.62,0.15-0.93c0-0.78-0.47-1.4-1.4-1.71
				c-1.86,0.31-2.64,0.93-2.64,2.17C424.03,72.85,424.19,73,424.5,72.69z"/>
		</g>
		<g>
			<path class="st19" d="M400.13,59.65c0-0.78-0.47-1.55-1.4-1.71c-2.17,0.93-3.26,1.71-3.26,2.64c0,0.93,0.16,1.4,0.47,0.93
				l1.24,0.31C399.04,61.82,400.13,61.2,400.13,59.65z"/>
		</g>
		<g>
			<path class="st19" d="M395.63,26.28l-0.47-1.4c-1.4,0-2.48,0.16-3.42,0.78c0.31,0.78,1.09,1.4,2.64,2.02
				C395.16,27.52,395.63,27.05,395.63,26.28z"/>
		</g>
		<g>
			<path class="st19" d="M425.74,10.13c0,0.93,0.16,1.4,0.31,1.4l2.48,0.15c1.24-0.93,1.71-2.02,1.71-2.95
				c0-0.47-0.16-0.93-0.16-0.93c-0.31,0.16-0.78,0-0.93,0C426.98,8.89,425.74,9.67,425.74,10.13z"/>
		</g>
		<g>
			<path class="st19" d="M431.49,101.72c-0.47-0.62-0.93-0.78-1.4-0.78c-0.62,0-1.09,0.16-1.24,0.16l-0.15,1.09
				c0,0.93,0.15,1.09,0.31,0.62l1.09,0.31c0.93,0,1.55-0.16,1.4-0.47V101.72z"/>
		</g>
		<g>
			<path class="st19" d="M316.93,136.49l-1.09-0.31c-0.47,0-1.09,0.31-1.55,0.78c0,1.24,0.31,1.86,1.24,2.17l1.86-1.71
				L316.93,136.49z"/>
		</g>
		<g>
			<path class="st19" d="M329.81,165.05c0-0.47-0.62-1.09-1.86-2.17c-1.55,0.78-2.48,1.71-2.48,2.33c0,0.93,0.15,1.55,0.47,1.86
				l2.79,0.16c0.93,0,1.4-0.31,0.93-0.78C329.65,165.83,329.81,165.36,329.81,165.05z"/>
		</g>
		<g>
			<path class="st19" d="M379.64,159.77c0-1.71-0.78-2.48-2.02-2.48c-2.17,0-3.26,0.78-3.26,2.33c0,0.93,0.15,1.71,0.47,1.86
				l2.17,0.31C378.86,161.79,379.64,161.02,379.64,159.77z"/>
		</g>
		<g>
			<path class="st19" d="M408.05,138.04c0-0.62-0.47-0.93-1.24-1.24c-1.86,0.93-2.64,1.86-2.64,2.64c0,0.93,0,1.09,0.16,0.62
				c0.31,0.31,0.93,0.47,1.86,0.62C407.42,139.59,408.05,138.66,408.05,138.04z"/>
		</g>
		<g>
			<path class="st19" d="M329.34,118.02l-1.71-0.31c-0.78,0.31-1.4,0.31-1.71,0.31c-0.31,0.62-0.31,1.09-0.31,1.4
				c0,0.93,0,1.55,0.31,1.4l1.71,0.31c0.31,0,0.93-0.62,2.02-1.71C329.5,118.79,329.34,118.33,329.34,118.02z"/>
		</g>
		<g>
			<path class="st19" d="M352.94,99.54l-1.71-0.16c-1.09,0-1.71,0.62-1.71,1.71c0,0.78,0.47,1.4,1.4,1.71
				c0.31-0.16,1.09-0.31,2.02-0.78c0.31-0.78,0.47-1.09,0.47-1.24C353.09,100.17,352.94,99.86,352.94,99.54z"/>
		</g>
		<g>
			<path class="st19" d="M280.14,127.95c0-0.47-0.31-0.93-0.93-1.4c-1.55,0.62-2.17,1.4-2.17,2.17c0,0.62,0.31,0.93,1.24,1.24
				c0.47-0.16,0.93-0.31,1.55-0.62C279.98,129.5,280.14,128.88,280.14,127.95z"/>
		</g>
		<g>
			<path class="st19" d="M241.64,195.48l-0.31-0.78l-0.93,0.15c0,0.62,0,1.09,0.16,1.4l0.93-0.16L241.64,195.48z"/>
		</g>
		<g>
			<path class="st19" d="M307.46,200.13l-1.55-0.31c-0.78,0.31-1.4,0.31-1.86,0.31l-0.31,1.24c0,0.93,0.15,1.55,0.47,1.4l1.71,0.16
				c0.93,0,1.71-0.16,1.71-0.47l0.15-1.09C307.61,200.91,307.46,200.44,307.46,200.13z"/>
		</g>
		<g>
			<path class="st19" d="M321.12,169.71c-0.62-0.93-1.55-1.4-2.79-1.4c-1.55,0-2.33,0.78-2.33,2.02c0,1.09,0.16,1.55,0.16,1.4
				c0.93,0.47,1.86,0.62,3.26,0.62c1.24,0,1.86-0.62,1.86-2.02L321.12,169.71z"/>
		</g>
		<g>
			<path class="st19" d="M331.98,229.47l-1.86-0.31c-1.55,0.47-2.33,1.24-2.79,2.79c0.78,0.93,1.86,1.24,2.79,1.24
				c1.55,0,2.33-0.78,2.33-2.02C332.14,230.4,331.98,229.78,331.98,229.47z"/>
		</g>
		<g>
			<path class="st19" d="M305.28,284.27c-0.47,0-0.62,0-0.93-0.16c-1.24-0.15-1.71,0.31-1.71,1.71c0,0.93,0.16,1.4,0.31,0.93h1.55
				l0.78-0.93l0.15-0.62C305.44,284.42,305.28,284.27,305.28,284.27z"/>
		</g>
		<g>
			<path class="st19" d="M341.3,306.62c-0.93,0.16-1.24,0.31-1.4,0.31c0,1.55,0.31,2.48,0.62,2.79c0.78,0,1.55-0.31,2.48-0.78
				C342.54,307.4,341.92,306.62,341.3,306.62z"/>
		</g>
		<g>
			<path class="st19" d="M310.1,338.44l-1.4-0.62c0,0.16-0.31,0.16-0.78,0.16v0.78c0.31,0.31,0.62,0.47,1.4,0.62
				C309.79,339.22,309.94,339.07,310.1,338.44z"/>
		</g>
		<g>
			<path class="st19" d="M368.77,338.76c0-0.31-0.31-0.78-0.78-1.09c-0.62,0-1.24,0.31-1.4,0.62c0,0.93,0.15,1.55,0.62,1.86
				c0.78-0.16,1.09-0.31,1.4-0.62L368.77,338.76z"/>
		</g>
		<g>
			<path class="st19" d="M276.88,327.89l0.62-1.24c0-0.62-0.15-0.93-0.78-1.4l-1.4,0.16v1.86
				C275.63,327.58,276.1,327.73,276.88,327.89z"/>
		</g>
		<g>
			<path class="st19" d="M217.73,306.62c-0.15-0.47-0.78-0.78-1.55-1.24c-0.62-0.16-0.93,0.16-1.55,0.78
				c-0.31,0.62-0.62,0.93-0.62,1.4c0,1.09,0,1.55,0.31,1.4h1.86C217.11,308.02,217.73,307.4,217.73,306.62z"/>
		</g>
		<g>
			<path class="st19" d="M173.8,336.27c0.16-2.02-0.93-3.1-2.95-3.1c-2.02,0-2.95,1.09-2.95,2.95c0,0,0.15,0.62,0.15,1.55
				c0.62,0.93,1.86,1.4,3.73,1.4c0.31,0,0.78-0.31,1.24-0.93C173.49,337.51,173.8,336.89,173.8,336.27z"/>
		</g>
		<g>
			<path class="st19" d="M-11.54,155.58l-0.16-0.78c-0.47-0.47-1.24-0.78-1.86-0.78c-1.4,0-2.02,0.47-2.02,1.24
				c0,0.31,0.16,0.78,0.47,1.24l1.55,0.31C-12.16,156.82-11.54,156.36-11.54,155.58z"/>
		</g>
		<g>
			<path class="st19" d="M-14.34,125c-0.16-0.78-0.62-1.09-0.78-1.4c-0.62,0-0.93,0-1.24,0.31c0,0.93,0.16,1.55,0.31,1.86l1.09,0.16
				L-14.34,125z"/>
		</g>
		<g>
			<path class="st19" d="M14.23,110.1c-0.16-0.62-0.78-0.93-1.71-1.09c0,0.16-0.16,0.16-0.62,0.31c-0.31,0.15-0.47,0.62-0.47,1.09
				c0,0.47,0.31,0.93,0.62,1.24C13.29,111.5,13.91,110.88,14.23,110.1z"/>
		</g>
		<g>
			<path class="st19" d="M1.5,75.17c-0.16,0.31-0.16,0.62-0.16,0.93c0,0,0.62,0.62,1.86,1.71c0.47-0.16,0.93-0.31,1.24-0.93
				c-0.47-0.78-0.93-1.71-1.86-2.17C2.58,74.71,2.12,75.02,1.5,75.17z"/>
		</g>
		<g>
			<path class="st19" d="M-4.71,47.08c-0.47-0.93-0.62-1.4-0.62-1.71c-1.86,0-2.95,0.31-3.42,0.78c0,0.93,0.31,1.4,0.62,1.86h2.64
				L-4.71,47.08z"/>
		</g>
		<g>
			<path class="st19" d="M-13.25,15.25l-0.31,0.93c0,0.15,0.62,0.78,1.86,2.02l1.71-0.47c0.15,0.31,0.31,0,0.31-0.93
				c-0.31-0.62-0.47-1.09-0.47-1.4l-1.86-0.31L-13.25,15.25z"/>
		</g>
		<g>
			<path class="st19" d="M58.62,10.44L56.6,9.82c0,0.16-0.31,0.47-0.93,1.24c0.31,0.47,1.09,0.62,2.17,0.62
				c1.09,0,1.24-0.15,0.93-0.78L58.62,10.44z"/>
		</g>
		<g>
			<path class="st19" d="M52.26,38.38c0-1.09-0.31-1.86-1.24-2.17c-1.24,0.62-1.55,1.71-1.24,2.95l1.86,0.16L52.26,38.38z"/>
		</g>
		<g>
			<path class="st19" d="M173.8,7.8c0,0.62,0.31,1.24,0.62,1.55c1.86,0,2.79-0.62,3.1-1.86c-0.47-0.78-1.24-1.24-2.02-1.24
				c-0.78,0.16-1.24,0.31-1.55,0.31L173.8,7.8z"/>
		</g>
		<g>
			<path class="st19" d="M254.37,7.96c-0.47-0.93-1.09-1.24-1.86-1.24c-1.55,0-2.33,0.47-2.33,1.4c0,0.47,0.15,1.09,0.62,1.4
				l1.71,0.31C252.97,9.82,253.59,9.2,254.37,7.96z"/>
		</g>
		<g>
			<path class="st19" d="M257.94,35.74c0-0.78-0.47-1.09-1.09-1.09c-0.93,0.16-1.24,0.31-1.4,0.31c0,0.62-0.16,1.24-0.16,1.55
				c0,1.09,0.16,1.55,0.16,1.71l1.4,0.31c0.62,0,1.24-0.47,1.4-1.09L257.94,35.74z"/>
		</g>
		<g>
			<path class="st19" d="M291.62,44.9l-0.78-0.93c-0.78,0-1.09,0.47-1.09,1.4c0,1.09,0.15,1.24,0.47,0.93H291
				C291.31,45.83,291.62,45.52,291.62,44.9z"/>
		</g>
		<g>
			<path class="st19" d="M305.44,16.03c0-0.78-0.15-1.4-0.78-1.86c-1.4,0.31-2.02,0.62-2.02,1.55c0,1.09,0.16,1.4,0.47,0.93
				l1.71,0.16C305.13,16.19,305.28,16.03,305.44,16.03z"/>
		</g>
		<g>
			<path class="st19" d="M385.38,49.09c-0.31-0.47-0.78-0.93-1.4-1.4c-0.78,0-1.09,0.47-1.09,1.09c0,0.62,0.15,0.93,0.47,1.24
				c0.93,0,1.71-0.16,2.02-0.47V49.09z"/>
		</g>
		<g>
			<path class="st19" d="M386.62,14.63c-0.78-0.78-1.4-1.55-1.86-1.71l-0.62,0.31c0.16,0.31,0.16,0.78,0.16,1.4
				c0,0.62,0.47,0.93,1.4,1.24C386.31,15.56,386.62,15.25,386.62,14.63z"/>
		</g>
		<g>
			<path class="st19" d="M440.8,129.5c0.16-2.17-0.93-3.1-2.95-3.1c-1.86,0-2.95,0.93-2.95,2.95c0,0.16,0.15,0.62,0.15,1.55
				c0.47,0.93,1.71,1.4,3.73,1.4c0.31,0,0.78-0.31,1.24-0.93C440.64,130.75,440.8,130.13,440.8,129.5z"/>
		</g>
		<g>
			<path class="st19" d="M439.71,157.6c-0.62-0.47-1.09-0.78-1.55-0.78c-1.24,0-1.86,0.62-1.86,1.86c0,0.47,0,0.78,0.31,0.93
				c0.16,0,0.47,0,0.78,0c0.78-0.16,1.55-0.62,2.48-1.55L439.71,157.6z"/>
		</g>
		<g>
			<path class="st19" d="M442.35,192.53c-0.62-0.47-1.24-0.78-1.71-0.78c-1.24,0-1.86,0.47-1.86,1.4c0,0.93,0,1.24,0.15,0.93
				c0.47,0.62,1.09,0.78,1.71,0.78c1.09,0,1.55-0.15,1.71-0.47l0.16-1.24L442.35,192.53z"/>
		</g>
		<g>
			<path class="st19" d="M402.61,265.18c-0.78-0.62-1.24-0.78-1.71-0.78c-1.55,0-2.33,0.78-2.33,2.33c0,0.62,0.47,0.93,1.4,1.24
				c1.86-0.47,2.79-1.09,2.79-2.17L402.61,265.18z"/>
		</g>
		<g>
			<path class="st19" d="M441.27,281.17c-0.62-0.78-1.09-1.24-1.86-1.24c-1.24,0-1.86,0.62-1.86,1.55c0,1.09,0,1.4,0.31,1.4
				l2.48,0.16C440.96,282.41,441.27,281.79,441.27,281.17z"/>
		</g>
		<g>
			<path class="st19" d="M327.02,300.88c-1.24-1.71-2.33-2.48-3.26-2.48c-1.09,0-1.55,0.62-1.4,1.86c0,0.78,0,1.55,0.31,2.48
				c-0.31,0.47-0.93,1.24-1.86,2.48c-1.09,1.09-1.55,1.71-1.55,2.33c0,1.24,1.09,1.55,3.26,1.09l0,0c0,0.47-0.15,1.24-0.62,2.17
				c0,0.93,0.47,1.4,1.4,1.4c1.24,0,1.71-0.78,2.02-2.48c0-0.93,0.16-1.4,0.62-1.4c3.88-0.47,5.74-0.93,5.74-1.55
				c-1.4-2.02-2.17-3.26-2.33-3.57c0.62-1.09,0.78-1.55,0.78-1.86c0-0.78-0.62-1.24-1.4-1.24
				C328.41,300.1,327.95,300.26,327.02,300.88z"/>
		</g>
		<g>
			<path class="st19" d="M109.69,290.94l-2.17,1.86c-0.93-0.62-1.55-0.78-2.02-0.78c-0.93,0-1.4,0.31-1.4,1.09
				c0,2.17-0.16,3.1-0.16,3.41c-0.62,0.47-1.4,1.09-2.48,1.86c-0.62,0.47-0.93,0.93-0.93,1.4c0,0.78,0.47,1.4,1.4,1.4
				c0.93,0,1.86-0.31,2.79-0.93l0.16,0.31c-0.47,0.93-0.62,1.55-0.62,1.86c0,0.16,0,0.47,0,0.78c0.15,0.62,0.78,0.78,1.4,0.78
				c0.93,0,1.71-0.93,2.33-2.79c0.62-2.02,1.4-2.95,1.86-2.95c0.93,0,1.86,0,2.64,0c0.47,0,0.78-0.47,0.78-1.24
				c0-0.78-0.93-1.71-2.79-3.1c0.47-0.47,0.62-0.93,0.62-1.4C111.09,291.41,110.62,290.94,109.69,290.94z"/>
		</g>
		<g>
			<path class="st19" d="M223.01,224.66c-0.62-1.24-1.24-1.86-1.55-1.86c-0.78,0-1.4,0.78-1.24,2.17c0,0.62,0.16,1.24,0.47,2.17
				c-0.47,1.24-1.4,2.79-3.1,4.66c0,1.4,1.09,1.71,3.26,1.4v2.33c0.47,0.16,0.78,0.31,1.24,0.31c0.78,0,1.24-0.78,2.02-2.33
				c0.16-0.62,1.24-0.62,2.95-0.62c1.55,0.16,2.33-0.31,2.33-1.4c0-0.62-0.31-1.24-1.4-2.17c-0.93-1.09-1.55-1.55-1.55-1.55
				c1.09-2.79,0.62-4.19-1.09-4.19L223.01,224.66z"/>
		</g>
		<g>
			<path class="st19" d="M161.85,266.11c0-1.09-0.47-1.71-1.55-1.71c-1.24,0-2.02,0.62-2.02,2.02c0,0.16,0.78,0.62,2.02,1.71
				c0.31,0,0.78-0.31,1.4-0.62C161.85,266.88,161.85,266.42,161.85,266.11z"/>
		</g>
		<g>
			<path class="st19" d="M173.18,248.72c0,1.4,0.78,2.17,2.02,2.48c1.55-0.31,2.17-0.93,2.02-2.17c0.15-1.86-0.47-2.64-2.02-2.64
				C173.96,246.39,173.18,247.17,173.18,248.72z"/>
		</g>
		<g>
			<path class="st19" d="M185.91,276.04l-1.09-0.31l-1.55,0.31l-0.16,1.24c0,0.31,0.31,0.78,0.62,1.09c1.4,0,2.17-0.16,2.48-0.47
				l0.31-0.93L185.91,276.04z"/>
		</g>
		<g>
			<path class="st19" d="M193.36,262.69c-0.16-1.71-0.62-2.64-1.71-2.64h-0.78c-0.47,0.31-0.62,0.62-0.62,1.09
				c0,0.93,0.78,2.02,2.33,3.1c0-0.31,0.31-0.47,0.62-0.47L193.36,262.69z"/>
		</g>
		<g>
			<path class="st19" d="M229.69,255.24c0-1.24-0.47-1.86-1.71-1.86l-1.55,0.62c-0.93,0.62-1.55,1.24-1.55,2.17
				c0,1.09,0,1.55,0.31,1.4l1.86,0.31C228.75,257.72,229.69,256.79,229.69,255.24z"/>
		</g>
		<g>
			<path class="st19" d="M229.53,289.86c-0.31-0.93-0.47-1.55-0.47-1.86c-2.17,0-3.26,0.47-3.26,1.4c0,0.47,0.31,1.09,0.62,1.4
				l1.24,0.31C228.44,291.1,229.06,290.63,229.53,289.86z"/>
		</g>
		<g>
			<path class="st19" d="M190.1,304.29c-1.24,0-1.71,0.93-1.71,2.48c0,1.09,0,1.55,0.31,1.71l2.64,0.16c0.62,0,0.93-0.16,0.93-0.47
				c0-0.31,0-0.62,0.16-0.78C192.43,305.23,191.65,304.29,190.1,304.29z"/>
		</g>
		<g>
			<path class="st19" d="M126.15,337.98c0-0.47-0.47-0.93-1.24-1.24c-1.55-0.16-2.48,0.47-2.48,1.86c0,0.93,0.16,1.4,0.31,0.93
				l1.24,0.31C125.37,339.84,126.15,339.22,126.15,337.98z"/>
		</g>
		<g>
			<path class="st19" d="M64.05,344.19l-1.71-1.4h-0.47l-0.31,0.62c0,1.09,0,1.55,0.31,1.24h1.71L64.05,344.19z"/>
		</g>
		<g>
			<path class="st19" d="M79.73,317.33l-2.33-1.86c-0.47,0-0.93,0.16-1.55,0.78c-0.62,0.62-0.78,0.93-0.78,1.4
				c0,0.62,0.47,0.93,1.4,1.24c1.55,0.31,2.64,0,3.1-0.47C79.58,317.8,79.58,317.33,79.73,317.33z"/>
		</g>
		<g>
			<path class="st19" d="M24,331.31c-0.62-0.47-1.55-0.62-2.79-0.62c-0.31,0-0.62,0.16-1.09,0.62c0,0.62,0.16,1.09,0.47,1.4h2.95
				l0.62-0.93L24,331.31z"/>
		</g>
		<g>
			<path class="st19" d="M44.81,258.19l-0.31,0.16c-0.47,0-0.93,0-1.24,0.31c0,0.93,0.16,1.55,0.31,1.86l1.09,0.16l0.31-0.47
				c0-0.31,0.16-0.62,0.16-0.93C45.12,258.66,44.96,258.35,44.81,258.19z"/>
		</g>
		<g>
			<path class="st19" d="M76.63,258.35l-1.71-0.16c-1.24,0.62-1.86,1.24-1.86,1.55c0,1.4,0.93,2.17,2.79,2.48
				c0.93-1.55,1.4-2.48,1.4-2.64C76.78,258.97,76.63,258.66,76.63,258.35z"/>
		</g>
		<g>
			<path class="st19" d="M76.47,228.85c1.09-0.62,1.86-1.86,2.48-3.88c-0.93-0.78-2.02-0.78-2.95,0.15
				c-0.62,0.62-0.93,1.4-0.93,2.02C75.08,228.08,75.54,228.54,76.47,228.85z"/>
		</g>
		<g>
			<path class="st19" d="M43.1,182.9c0-1.09-0.47-1.71-1.4-2.17c-0.93,0.15-1.4,0.78-1.4,1.55c0,1.09,0,1.55,0.16,1.71l1.86,0.16
				L43.1,182.9z"/>
		</g>
		<g>
			<path class="st19" d="M79.73,172.66c-0.31-0.62-0.62-1.09-0.62-1.24c0,0-0.78,0-2.17,0.15c-0.93,0.16-1.24,0.47-1.24,1.09
				c0,0.78,0.47,1.24,1.4,1.55C78.34,173.9,79.11,173.28,79.73,172.66z"/>
		</g>
		<g>
			<path class="st19" d="M207.8,121.28c-0.47-1.55-1.09-2.17-2.17-2.17c-0.62,0.31-1.09,0.31-1.4,0.31c0,0.62-0.16,1.09-0.16,1.4
				c0,0.93,0.16,1.55,0.47,1.4l1.55,0.47C206.87,122.67,207.49,122.21,207.8,121.28z"/>
		</g>
		<g>
			<path class="st19" d="M224.25,142.39c-0.47-0.47-1.09-0.78-1.55-0.78c-1.86,0-2.64,0.47-2.64,1.4c0,1.09,0,1.4,0.31,1.24
				l2.33,0.15c1.24,0,1.71-0.47,1.71-1.4L224.25,142.39z"/>
		</g>
		<g>
			<path class="st19" d="M251.11,123.3c0-1.09-0.47-1.71-1.4-2.17c-0.93,0.31-1.4,0.78-1.4,1.71c0,0.93,0.47,1.4,1.4,1.71
				C250.33,124.23,250.8,123.92,251.11,123.3z"/>
		</g>
		<g>
			<path class="st19" d="M255.45,174.52c-0.47-0.78-1.24-1.24-1.71-1.24c-1.24,0-1.71,0.47-1.71,1.24c0,0.47,0.16,0.78,0.47,1.24
				l1.24,0.31C254.52,176.07,254.99,175.45,255.45,174.52z"/>
		</g>
		<g>
			<path class="st19" d="M229.69,173.9c-0.31-0.47-0.78-0.93-1.4-1.4c-1.09,0-1.86,0.47-2.02,1.09c0.62,0.62,0.78,1.09,0.78,1.86
				l1.55-0.15C229.22,174.99,229.53,174.52,229.69,173.9z"/>
		</g>
		<g>
			<path class="st19" d="M289.14,183.37c0-1.09-0.62-1.71-1.55-2.17c-0.93,0.47-1.55,1.09-1.55,2.02c0,0.93,0,1.55,0.31,1.55
				c1.24,0,2.02-0.15,2.48-0.47L289.14,183.37z"/>
		</g>
		<g>
			<path class="st19" d="M278.12,202.93c-0.47-0.47-0.93-0.78-2.02-0.78c-1.09,0-1.86,0.47-2.17,1.4c0.47,0.47,1.24,0.78,2.17,0.78
				c1.09,0,1.86-0.31,2.17-0.93L278.12,202.93z"/>
		</g>
		<g>
			<path class="st19" d="M312.11,155.89c1.24,0,2.02-0.62,2.02-1.86c0-1.24-0.47-1.86-1.71-1.86c-1.55,0-2.33,0.62-2.33,2.02
				c0,1.09,0,1.4,0.31,1.4L312.11,155.89z"/>
		</g>
		<g>
			<path class="st19" d="M296.75,141.77c0-0.78-0.47-1.4-1.09-1.71c0,0.16-0.31,0.16-0.93,0.16c-0.16,0.93-0.16,1.86-0.16,3.1
				l1.71,0.16l0.16-0.31C296.75,142.85,296.75,142.39,296.75,141.77z"/>
		</g>
		<g>
			<path class="st19" d="M278.43,108.08c-0.47-0.93-1.09-1.24-1.71-1.24c-0.93,0.31-1.55,0.31-1.86,0.31l-0.31,0.93
				c0,0.47,0.16,0.78,0.47,1.24l1.71,0.31C277.5,109.63,278.12,109.17,278.43,108.08z"/>
		</g>
		<g>
			<path class="st19" d="M277.65,82.31c0-1.55-0.47-2.33-1.55-2.33c-0.78,0-1.24,0.16-1.4,0.78c0.16,0.16,0.31,0.62,0.31,1.4
				c0.15,0.62,0.62,0.93,1.4,1.24C276.72,83.25,277.34,82.94,277.65,82.31z"/>
		</g>
		<g>
			<path class="st19" d="M259.33,67.41c-0.16-1.24-0.78-1.71-1.86-1.71c-0.78,0-1.4,0.78-2.02,2.02c0.31,0.31,1.09,0.78,2.33,1.71
				c0.93,0,1.55-0.31,1.4-0.62C259.33,68.19,259.33,67.72,259.33,67.41z"/>
		</g>
		<g>
			<path class="st19" d="M209.66,34.81c0-2.17-0.62-3.1-1.55-3.1c-1.24,0-2.02,0.93-2.02,2.48c0,0.78,0.47,1.4,1.4,1.71
				C208.42,35.74,209.19,35.43,209.66,34.81z"/>
		</g>
		<g>
			<path class="st19" d="M227.67,7.03c0-0.93-0.62-1.86-1.55-2.64c-1.86,1.09-2.79,2.17-2.79,3.1c0.31,0.31,1.09,0.78,2.17,1.71
				c0.93,0,1.55-0.16,1.86-0.78C227.67,8.42,227.67,7.96,227.67,7.03z"/>
		</g>
		<g>
			<path class="st19" d="M252.5,19.76c-0.62-0.93-1.24-1.24-1.86-1.24c-1.24,0-1.86,0.62-1.86,1.55c0,0.93,0,1.55,0.31,1.4
				l2.48,0.16C252.19,21,252.5,20.38,252.5,19.76z"/>
		</g>
		<g>
			<path class="st19" d="M271.29,6.87c-0.15-0.47-0.31-0.62-0.31-0.93L268.8,6.1c-0.16,0.31-0.31,0.62-0.31,0.93
				c0,0.78,0.47,1.4,1.55,1.55c0.47-0.15,0.78-0.15,1.09-0.47L271.29,6.87z"/>
		</g>
		<g>
			<path class="st19" d="M334.78,14.48l-1.24-0.62c0,0.15-0.31,0.31-0.62,0.62c0.16,0.31,0.16,0.62,0.16,0.93
				C333.85,15.41,334.31,15.1,334.78,14.48z"/>
		</g>
		<g>
			<path class="st19" d="M346.42,41.64c-0.47-0.62-0.78-1.09-1.4-1.4c-0.78,0-1.09,0.15-1.4,0.62c0,0.31,0.31,0.93,0.62,1.86
				l1.55,0.16L346.42,41.64z"/>
		</g>
		<g>
			<path class="st19" d="M377.31,38.54l-1.55-0.16c-1.09,0.31-1.55,0.93-1.55,1.86c0,0.78,0.47,1.55,1.55,1.86
				c0.47-0.16,0.93-0.47,1.55-0.78V38.54z"/>
		</g>
		<g>
			<path class="st19" d="M361.48,57.63c-0.78-1.55-1.4-2.17-1.86-2.17c-0.62,0.31-0.78,0.31-1.09,0.31
				c-0.16,0.62-0.16,1.09-0.16,1.71c0,0.78,0.47,1.55,1.24,1.71C360.39,58.87,361.01,58.25,361.48,57.63z"/>
		</g>
		<g>
			<path class="st19" d="M223.63,50.65c0.62-0.47,1.09-1.24,1.4-2.17c-1.55-0.31-2.33-0.16-2.33,0.93c0,0.93,0.16,1.24,0.16,0.93
				L223.63,50.65z"/>
		</g>
		<g>
			<path class="st19" d="M202.83,67.88c-0.78-0.62-1.4-1.09-1.4-1.4c-0.62,0-0.93,0.47-0.93,1.24c0,1.09,0.15,1.24,0.31,0.78
				l1.09,0.16C202.21,68.34,202.68,68.19,202.83,67.88z"/>
		</g>
		<g>
			<path class="st19" d="M144.15,95.2c-0.31-0.47-0.93-1.09-1.86-1.71c-0.78,0.31-1.24,0.93-1.24,1.71c0,0.47,0.47,1.09,1.24,1.24
				C143.22,96.44,143.84,96.13,144.15,95.2z"/>
		</g>
		<g>
			<path class="st19" d="M155.33,68.96c0-2.48-0.31-3.73-0.93-3.73c-0.47,0-0.78,0-1.09,0.16c-0.31,0.78-0.47,1.55-0.47,2.33
				c0,1.09,0.31,1.86,1.24,2.02C154.71,69.59,155.02,69.27,155.33,68.96z"/>
		</g>
		<g>
			<path class="st19" d="M103.17,51.27c0-1.55-0.31-2.33-0.93-2.33c-1.24,0-1.86,0.62-1.86,1.55c0,1.09,0.15,1.55,0.47,1.71h1.71
				L103.17,51.27z"/>
		</g>
		<g>
			<path class="st19" d="M79.27,35.12c-0.47-1.09-0.62-1.71-0.78-1.86h-0.78c0,1.09,0.16,1.86,0.16,2.17h1.4V35.12z"/>
		</g>
		<g>
			<path class="st19" d="M124.44,214.11l-1.09-0.31c-1.09,0.47-1.55,1.09-1.55,1.71c0.31,0.31,0.78,0.62,1.24,0.78
				c1.09,0,1.55-0.47,1.86-1.24L124.44,214.11z"/>
		</g>
		<g>
			<path class="st19" d="M309.01,226.99c0-1.24-0.62-1.71-1.55-1.71c-1.24,0-2.02,0.78-2.02,2.17c0,0.78,0.78,1.24,2.02,1.55
				c0.31-0.15,0.93-0.31,1.4-0.62C309.01,227.77,309.01,227.3,309.01,226.99z"/>
		</g>
		<g>
			<path class="st19" d="M359.15,210.85c0-1.09-0.47-1.71-1.4-2.17c-0.93,0.31-1.4,0.93-1.4,1.71c0,0.93,0.47,1.4,1.4,1.71
				C358.22,211.78,358.84,211.47,359.15,210.85z"/>
		</g>
		<g>
			<path class="st19" d="M395.63,235.84c0-0.78-0.47-1.24-1.24-1.55c-0.31,0-0.47,0-0.78,0.15c-0.31,0-0.62,0.31-0.62,1.09
				c0,0.93,0.15,1.24,0.15,1.09c0.47,0.47,0.93,0.78,1.24,0.78c0.93,0,1.24-0.16,0.93-0.47
				C395.63,236.3,395.63,235.99,395.63,235.84z"/>
		</g>
		<g>
			<path class="st19" d="M352.01,257.88c-0.15-0.62-0.31-0.78-0.31-1.09l-2.33,0.15l-0.16,1.09c0,0.93,0.16,1.4,0.31,0.93l1.4,0.16
				c0.93,0,1.24-0.16,1.09-0.31C352.01,258.81,352.01,258.35,352.01,257.88z"/>
		</g>
		<g>
			<path class="st19" d="M361.63,282.25c0-1.09-0.47-1.71-1.4-2.17c0,1.09-0.62,1.86-2.02,2.17c0,0.93,0.16,1.4,0.47,0.93l1.24,0.31
				C360.7,283.49,361.32,283.03,361.63,282.25z"/>
		</g>
		<g>
			<path class="st19" d="M24.78,199.51c-0.16-0.47-0.78-0.93-1.71-1.09c-0.62,0.31-1.09,0.78-1.09,1.55l1.24,0.47
				c1.09,0,1.55-0.16,1.4-0.47L24.78,199.51z"/>
		</g>
		<g>
			<path class="st19" d="M53.65,208.36c0-1.09-0.47-1.86-1.4-2.17c0,0.93-0.47,1.4-1.71,1.86c0,0.62,0.62,1.09,1.71,1.55
				C53.03,209.29,53.5,208.83,53.65,208.36z"/>
		</g>
		<g>
			<path class="st19" d="M36.11,234.29c-0.47-0.62-1.24-1.09-1.86-1.24c-0.93,0.47-1.4,0.93-1.4,1.71c0,0.47,0.31,1.09,0.62,1.4
				c1.4,0,2.33-0.31,2.79-0.93L36.11,234.29z"/>
		</g>
		<g>
			<path class="st19" d="M-2.69,220.62c-0.31-0.93-0.62-1.4-1.24-1.4c-0.47,0-1.24,0.47-1.86,1.71c0.31,0.31,1.24,0.62,2.64,0.62
				l0.31-0.47L-2.69,220.62z"/>
		</g>
		<g>
			<path class="st19" d="M8.17,171.42c-0.62-0.93-1.09-1.4-1.55-1.4c-0.31,0-0.78,0-1.09,0.16c-0.62,0.16-0.93,0.78-0.93,1.4
				c0,1.09,0.16,1.4,0.31,1.09c0.62,0,1.4,0.16,2.64,0.16L8.17,171.42z"/>
		</g>
		<g>
			<path class="st19" d="M14.23,154.34c0.78,0,1.4-0.31,1.55-0.93l-1.4-0.62c-0.62,0.15-0.78,0.47-0.78,1.09L14.23,154.34z"/>
		</g>
		<g>
			<path class="st19" d="M188.55,134.01c-1.4,0.47-2.64,0.93-3.42,1.09c-0.93-1.86-1.71-2.95-2.48-2.95c-0.78,0-1.24,0.47-1.4,1.4
				c-0.31,1.24-0.62,2.02-0.78,2.33c-0.62,0.93-1.86,1.55-3.88,1.71c-1.71,0.31-2.48,0.62-2.48,1.24c0,0.31,0.31,0.62,1.24,0.93
				c1.24,0.16,2.33,0.78,3.42,1.71v0.47c-0.93,1.86-1.4,3.1-1.4,3.1c0,0.78,0.16,0.93,0.62,0.62c0.93-0.16,2.64-1.09,5.12-2.79
				c1.09,0,2.95,0.78,5.28,2.33c1.09,0,1.55-0.62,1.55-1.86c-1.71-2.79-2.79-4.5-2.79-4.97c0.31-0.31,1.09-0.93,2.33-1.71
				c0.47-0.31,0.93-0.78,0.93-1.4C190.41,134.32,189.79,134.01,188.55,134.01z"/>
		</g>
		<g>
			<path class="st19" d="M99.76,15.72c0.16-1.4-0.31-2.02-1.4-2.02c-1.4,1.55-2.48,2.33-3.73,2.33c-1.09-0.78-1.86-1.24-2.33-1.24
				c-0.78,0-1.4,0.47-1.55,1.4l-0.31,1.86c-0.62,0.93-1.71,1.71-3.57,2.33c-1.4,0.47-2.02,1.24-2.02,1.86c0,0.47,0,0.93,0.47,1.24
				c0.78,0.62,2.02,0.62,3.73,0.31c0,0.16-0.15,0.78-0.15,2.02c0,1.24,0.62,2.02,1.86,2.02c0.93,0,1.86-0.78,2.64-2.33
				c0.78-1.55,1.24-2.33,1.24-2.33c2.02,0,2.95,0.15,3.1,0.62c0,0.31,0.62,0.47,1.86,0.47c0.62,0,0.93-0.31,0.93-1.24
				c0-0.62-0.47-1.24-1.24-1.86c-0.93-0.62-1.55-1.09-1.71-1.55C98.98,17.27,99.76,16.03,99.76,15.72z"/>
		</g>
		<g>
			<path class="st19" d="M58.78,114.91c-1.86-2.48-2.95-3.73-3.57-3.73c-0.47,0-0.93,0.47-0.93,0.93c0,0.62,0.31,2.33,0.78,5.12
				c0,0.93-0.93,2.02-2.95,3.1c-2.02,1.24-3.1,2.02-3.1,2.33c0,0.62,0.15,0.93,0.47,0.93c0.93,0,3.42,0,7.14-0.16V125
				c0,0.78,0,1.71-0.16,3.1c0.31,0.16,0.93,0.47,1.55,0.47c0.78,0,1.09-0.62,1.4-2.02c0-1.55,0.15-2.33,0.15-2.64
				c4.66,0.47,6.83,0.16,6.83-1.4c0-1.09-0.78-2.17-2.17-2.95c-1.55-0.93-2.33-1.55-2.33-1.86c0.78-1.86,0.93-3.1,0.93-3.88
				c0-0.78-0.16-1.24-0.93-1.24C60.64,113.67,59.71,114.45,58.78,114.91z M56.29,115.07l0.47,0.62c-0.16,0.47-0.47,0.78-0.62,0.93
				L56.29,115.07z M63.28,121.74c0,0,0-0.16,0-0.31c0.15,0.16,0.31,0.31,0.47,0.31H63.28z"/>
		</g>
		<g>
			<path class="st19" d="M180.94,30.78c-0.16,0.31-0.16,0.62-0.16,0.93c0,0.62,0.31,2.33,1.09,5.28c0,0.31-0.78,0.93-2.48,2.02
				c-1.55,1.24-2.48,2.17-2.48,2.79c0,0.93,0.62,1.55,1.86,1.55l3.26-0.16c0.16,2.95,0.31,4.97,0.47,6.21
				c0,0.16,0.16,0.16,0.16,0.16c0.47,0.15,1.4-1.71,2.64-5.59l0.47-0.62c6.36-0.78,9.93-1.4,10.24-2.17c0-0.78-0.78-1.4-1.86-2.02
				l-4.66-2.48c1.71-2.17,2.48-3.41,2.48-3.88c0-0.47,0-0.93,0-1.09c-0.16-0.31-0.62-0.47-1.24-0.47c-0.31,0-1.09,0.47-2.17,1.4
				c-1.09,1.09-1.86,1.55-2.33,1.55c-0.93,0-1.71-0.62-2.33-1.86c-0.78-1.24-1.4-1.86-2.02-1.86
				C181.41,30.62,181.1,30.78,180.94,30.78z"/>
		</g>
		<g>
			<path class="st19" d="M22.3,126.55c0-0.93-0.62-1.55-1.55-1.55c-0.47,0-1.24,0.47-2.02,1.4c-0.93,0.78-1.55,1.09-2.02,1.09
				c-0.62,0-1.24-0.16-2.02-0.93c-0.78-0.62-1.4-0.93-1.86-0.93c-1.09,0-1.55,0.31-1.55,1.24c0,0.62,0.15,1.71,0.78,3.42
				c0,0.15-0.62,0.93-1.71,2.17c-1.09,1.09-1.71,2.02-1.71,2.64c0,1.55,1.55,2.02,4.35,1.4l-0.16,0.31
				c-0.31,1.09-0.62,1.71-0.62,1.86c0,0.16,0,0.31,0,1.09c0.16,0.47,0.78,0.78,1.55,0.78c1.09,0,1.86-1.4,2.48-3.88
				c0.93-2.17,2.64-3.1,4.81-3.1c1.86,0,2.79-0.15,2.79-0.93c0-0.62-1.09-1.86-3.26-3.26C21.68,128.11,22.3,127.18,22.3,126.55z"/>
		</g>
		<g>
			<path class="st19" d="M9.57,28.91c-1.71,0.78-2.48,1.55-2.48,2.02c0,0.78,1.4,1.55,4.19,1.71l-0.31,0.47
				c-1.09,0.93-1.55,1.71-1.55,2.17c0,0.31,0.16,0.62,0.47,0.93c0.31,0.47,0.78,0.78,1.55,0.78c1.09,0,1.71-0.78,2.33-2.17
				c0.47-1.55,1.55-2.17,2.79-2.17c1.55,0,3.42,0.31,5.28,0.93c0.93,0,1.4-0.47,1.4-1.55c-1.55-1.86-2.64-3.26-3.26-4.04
				c1.71-0.93,2.48-1.86,2.48-2.64c0-1.09-0.47-1.55-1.55-1.55l-3.26,1.24c-1.55-2.17-2.64-3.26-3.26-3.26
				c-0.93,0-1.4,0.62-1.55,1.55c-0.16,0.62-0.16,1.55-0.31,2.79C12.36,27.05,11.43,27.98,9.57,28.91z"/>
		</g>
	</g>
</g>
</svg>
