<svg xmlns="http://www.w3.org/2000/svg" viewBox="0 0 21.2 26.55"><defs><style>.cls-1{fill:#0075a2;stroke:#0075a2;stroke-miterlimit:10;stroke-width:0.8px;}</style></defs><g id="Layer_2" data-name="Layer 2"><g id="Features"><path class="cls-1" d="M13.65,16.67A7.15,7.15,0,1,1,20.8,9.52,7.15,7.15,0,0,1,13.65,16.67Zm0-13.31a6.16,6.16,0,1,0,6.16,6.16A6.16,6.16,0,0,0,13.65,3.36Z"/><path class="cls-1" d="M18.21,3.69a.27.27,0,0,1-.27-.27V2.9A2.56,2.56,0,0,0,15.33.4H3A2.56,2.56,0,0,0,.4,2.9V23.65A2.56,2.56,0,0,0,3,26.15H15.33a2.56,2.56,0,0,0,2.61-2.5V18.21a.56.56,0,1,0-1.11,0v3.28a.27.27,0,0,1-.27.27H1.77a.27.27,0,0,1-.27-.27V5.06a.27.27,0,0,1,.27-.27H5.06a.55.55,0,0,0,.55-.55.55.55,0,0,0-.55-.55H1.77a.27.27,0,0,1-.27-.27V2.9A1.46,1.46,0,0,1,3,1.5H15.33a1.45,1.45,0,0,1,1.5,1.4v.52a.27.27,0,0,1-.27.27ZM1.77,22.87H16.56a.27.27,0,0,1,.27.27v.51a1.45,1.45,0,0,1-1.5,1.4H3a1.46,1.46,0,0,1-1.51-1.4v-.51A.27.27,0,0,1,1.77,22.87Z"/><path class="cls-1" d="M8.5,12.82a1.24,1.24,0,0,1,.94-.4,2.07,2.07,0,0,0,2-1,.39.39,0,0,1,.32-.16.36.36,0,0,1,.22.07.42.42,0,0,1,.16.25.39.39,0,0,1-.07.29,2.81,2.81,0,0,1-2.61,1.31q-.4,0-.6.57a3.21,3.21,0,0,0-.09.9"/><path class="cls-1" d="M18.08,14.61a2.44,2.44,0,0,0,.05-.69c-.16-.59-.42-.73-.64-.73a2.83,2.83,0,0,1-2.62-1.31.39.39,0,0,1,.1-.54.34.34,0,0,1,.22-.07.38.38,0,0,1,.31.16,2.08,2.08,0,0,0,2,1,1.26,1.26,0,0,1,1.14.68c.18.32.37,1.61-.49,1.61"/><path class="cls-1" d="M13.51,11.25c-1.23,0-2.31-1.72-2.31-3.67S12,4.72,13.51,4.72s2.3,1.07,2.3,2.86C15.81,9.53,14.73,11.25,13.51,11.25Zm0-5.75c-1,0-1.53.7-1.53,2.08,0,1.68.91,2.9,1.53,2.9S15,9.26,15,7.58C15,6.2,14.52,5.5,13.51,5.5Z"/></g></g></svg>