<svg xmlns="http://www.w3.org/2000/svg" viewBox="0 0 28.56 25.4"><defs><style>.cls-1,.cls-2,.cls-3{fill:#0075a2;stroke:#0075a2;stroke-miterlimit:10;}.cls-1{stroke-width:1.2px;}.cls-2{stroke-width:0.2px;}.cls-3{stroke-width:0.8px;}</style></defs><g id="Layer_2" data-name="Layer 2"><g id="Features"><path class="cls-1" d="M23.76,16v2.32a.82.82,0,0,1-.81.82H2.45a.82.82,0,0,1-.81-.82V2.45a.81.81,0,0,1,.81-.81H23a.82.82,0,0,1,.81.81V3.72a1.86,1.86,0,0,1,.42-.05,2,2,0,0,1,.62.1V2.45A1.85,1.85,0,0,0,23,.6H2.45A1.85,1.85,0,0,0,.6,2.45V18.31a1.85,1.85,0,0,0,1.85,1.86H8.84a.25.25,0,0,1,.25.25c0,2.2-.76,3-1.08,3.29a.3.3,0,0,1-.16.05H5.75a.52.52,0,0,0,0,1h13.9a.52.52,0,1,0,0-1H17.54a.3.3,0,0,1-.16-.05c-.32-.26-1.07-1.09-1.07-3.29a.25.25,0,0,1,.25-.25H23a1.85,1.85,0,0,0,1.85-1.86V16a1.66,1.66,0,0,1-.46.05A2.14,2.14,0,0,1,23.76,16Zm-7.91,7.65a.25.25,0,0,1-.22.12H9.77a.25.25,0,0,1-.22-.12.23.23,0,0,1,0-.24,6.73,6.73,0,0,0,.59-3,.25.25,0,0,1,.25-.25H15a.25.25,0,0,1,.25.25,6.73,6.73,0,0,0,.59,3A.23.23,0,0,1,15.85,23.64Z"/><path class="cls-2" d="M24,17.25a.45.45,0,0,1-.37-.2l-.88-1.33a.21.21,0,0,0-.18-.09h0a.22.22,0,0,0-.18.12L21.78,17a.48.48,0,0,1-.38.25h0a.45.45,0,0,1-.37-.2l-1.07-1.6a.2.2,0,0,0-.18-.1H19.7l-2.2.56h-.11a.42.42,0,0,1-.34-.17.44.44,0,0,1-.05-.48l1.32-2.65a.44.44,0,0,1,.6-.2.42.42,0,0,1,.23.26.5.5,0,0,1,0,.34l-.68,1.36a.23.23,0,0,0,0,.24.25.25,0,0,0,.17.08h.06l1.25-.31.11,0a.45.45,0,0,1,.37.2l.69,1a.22.22,0,0,0,.18.1h0a.23.23,0,0,0,.18-.12l1.2-2.41a.2.2,0,0,0,0-.25.22.22,0,0,0-.15-.06.22.22,0,0,0-.11,0l-.13.08a2,2,0,0,1-.86.3.86.86,0,0,1-.28,0c-.42-.14-.61-.57-.77-.91a1.72,1.72,0,0,0-.23-.42L20,11.84a2,2,0,0,0-.39-.07,1.45,1.45,0,0,1-1.07-.49,1.54,1.54,0,0,1-.11-1.17v0a1.44,1.44,0,0,0,.05-.49s0,0,0-.06a2.2,2.2,0,0,0-.29-.32,1.52,1.52,0,0,1-.6-1.05,1.52,1.52,0,0,1,.6-1,2,2,0,0,0,.3-.35s0,0,0-.06a1.57,1.57,0,0,0,0-.47h0a1.56,1.56,0,0,1,.11-1.18,1.49,1.49,0,0,1,1.07-.49,1.51,1.51,0,0,0,.44-.09l.07-.06A3.27,3.27,0,0,0,20.35,4a1.51,1.51,0,0,1,.78-.92.8.8,0,0,1,.27,0,1.86,1.86,0,0,1,.86.31,1.42,1.42,0,0,0,.42.19h.09a1.62,1.62,0,0,0,.38-.19A1.78,1.78,0,0,1,24,3.08a.62.62,0,0,1,.27,0,1.49,1.49,0,0,1,.78.91,1.22,1.22,0,0,0,.23.41.16.16,0,0,0,.08.06,2.44,2.44,0,0,0,.36.06h0a1.49,1.49,0,0,1,1.07.49,1.56,1.56,0,0,1,.11,1.18,1.34,1.34,0,0,0-.05.51s0,0,0,0a1.46,1.46,0,0,0,.29.32,1.54,1.54,0,0,1,.6,1,1.52,1.52,0,0,1-.6,1.05,1.66,1.66,0,0,0-.3.35s0,0,0,0a1.8,1.8,0,0,0,.06.49,1.54,1.54,0,0,1-.11,1.17,1.45,1.45,0,0,1-1.07.49,1.41,1.41,0,0,0-.44.1.18.18,0,0,0-.07.05,2,2,0,0,0-.18.36v0a1.51,1.51,0,0,1-.78.92.77.77,0,0,1-.27,0h-.22a.24.24,0,0,0-.2.12l-.5,1a.22.22,0,0,0,0,.22l.75,1.12a.21.21,0,0,0,.36,0L25,14.56a.45.45,0,0,1,.37-.2l.11,0,1.25.31h.05a.22.22,0,0,0,.2-.32L26.29,13a.45.45,0,0,1,0-.34.42.42,0,0,1,.23-.26.44.44,0,0,1,.6.2l1.32,2.65a.44.44,0,0,1-.05.48.43.43,0,0,1-.35.17h-.1l-2.21-.56h-.05a.2.2,0,0,0-.18.1l-1.07,1.6A.45.45,0,0,1,24,17.25ZM21.49,4a.22.22,0,0,0-.19.12c-.05.09-.1.2-.14.28a1.93,1.93,0,0,1-.51.77,1.83,1.83,0,0,1-.88.28l-.3,0a.22.22,0,0,0-.17.23c0,.09,0,.22.05.35a2,2,0,0,1,0,.93,2.06,2.06,0,0,1-.53.74,3.36,3.36,0,0,0-.27.28.21.21,0,0,0,0,.26,2.11,2.11,0,0,0,.25.27v0a1.75,1.75,0,0,1,.53.73,1.87,1.87,0,0,1,0,.94c0,.11,0,.25-.05.35a.21.21,0,0,0,.17.22c.09,0,.22,0,.31.06a1.72,1.72,0,0,1,.87.28,1.89,1.89,0,0,1,.51.76c0,.08.09.2.14.29a.21.21,0,0,0,.19.11l.09,0,.24-.13a1.83,1.83,0,0,1,.88-.31,1.9,1.9,0,0,1,.89.31h0l.22.12.1,0a.21.21,0,0,0,.19-.11c.05-.09.09-.19.13-.27v0a1.89,1.89,0,0,1,.51-.76,1.72,1.72,0,0,1,.87-.28l.31-.05a.23.23,0,0,0,.17-.23c0-.1,0-.23-.05-.34h0a2,2,0,0,1,0-.94,1.94,1.94,0,0,1,.53-.73l.27-.29a.24.24,0,0,0,0-.26,3.43,3.43,0,0,0-.27-.28A2.06,2.06,0,0,1,26,7a2,2,0,0,1,0-.93v0c0-.1,0-.23.05-.33a.22.22,0,0,0-.17-.23l-.31,0a1.82,1.82,0,0,1-.87-.28,1.93,1.93,0,0,1-.51-.77c0-.08-.09-.19-.14-.28A.22.22,0,0,0,23.92,4l-.1,0-.21.11h0a1.91,1.91,0,0,1-.89.32,1.84,1.84,0,0,1-.88-.32c-.07,0-.16-.09-.24-.12A.16.16,0,0,0,21.49,4Z"/><path class="cls-2" d="M22.7,10.61a2.44,2.44,0,1,1,2.44-2.44A2.43,2.43,0,0,1,22.7,10.61Zm0-4a1.55,1.55,0,1,0,1.55,1.54A1.54,1.54,0,0,0,22.7,6.63Z"/><path class="cls-3" d="M8.66,6.64a.49.49,0,1,1,0-1H11.6a.49.49,0,0,1,0,1Z"/><path class="cls-3" d="M5.72,9.59a.5.5,0,0,1-.5-.5.49.49,0,0,1,.5-.49H13.8a.49.49,0,0,1,.5.49.5.5,0,0,1-.5.5Z"/><path class="cls-3" d="M5.72,12.53a.5.5,0,1,1,0-1h5.14a.5.5,0,1,1,0,1Z"/></g></g></svg>