<svg xmlns="http://www.w3.org/2000/svg" viewBox="0 0 27.31 22.94"><defs><style>.cls-1,.cls-3{fill:#0075a2;}.cls-2{fill:none;}.cls-2,.cls-3{stroke:#0075a2;stroke-miterlimit:10;stroke-width:0.8px;}</style></defs><g id="Layer_2" data-name="Layer 2"><g id="Features"><path class="cls-1" d="M.4,22a.5.5,0,0,0,.5.5H26.41a.5.5,0,0,0,.5-.5.5.5,0,0,0-.5-.5H.9a.5.5,0,0,0-.5.5Z"/><path class="cls-2" d="M.4,22a.5.5,0,0,0,.5.5H26.41a.5.5,0,0,0,.5-.5.5.5,0,0,0-.5-.5H.9a.5.5,0,0,0-.5.5Z"/><path class="cls-3" d="M19.1,3.43H8.65A2.17,2.17,0,0,0,6.44,5.55V22.28a.91.91,0,0,1,.17.09,1.64,1.64,0,0,1,.4,0,2,2,0,0,1,.75.14H20a1.88,1.88,0,0,1,.74-.14,2,2,0,0,1,.57.08V5.55A2.17,2.17,0,0,0,19.1,3.43Zm1.27,17.88a.22.22,0,0,1-.23.22H7.61a.22.22,0,0,1-.23-.22V7.38a.23.23,0,0,1,.23-.23H20.14a.23.23,0,0,1,.23.23ZM20.37,6a.23.23,0,0,1-.23.23H7.61A.23.23,0,0,1,7.38,6V5.55A1.23,1.23,0,0,1,8.65,4.36H19.1a1.23,1.23,0,0,1,1.27,1.19Z"/><path class="cls-3" d="M24.5,8.78a.44.44,0,0,1,.33-.13.46.46,0,0,1,.33.13.47.47,0,0,1,.14.33.44.44,0,0,1-.14.33l-1.39,1.4a.47.47,0,0,1-.34.13.46.46,0,0,1-.33-.13.51.51,0,0,1-.13-.33.47.47,0,0,1,.13-.33Z"/><path class="cls-3" d="M23.43,12.92a.48.48,0,0,1,.34.14l1.39,1.39a.47.47,0,0,1,.14.33.48.48,0,0,1-.14.34.51.51,0,0,1-.33.13.49.49,0,0,1-.33-.13l-1.4-1.4a.49.49,0,0,1-.13-.33.51.51,0,0,1,.13-.33A.47.47,0,0,1,23.43,12.92Z"/><path class="cls-3" d="M3.22.54a.46.46,0,0,0-.66,0,.45.45,0,0,0-.14.33.47.47,0,0,0,.14.33L4,2.59a.47.47,0,0,0,.33.14.44.44,0,0,0,.33-.14.45.45,0,0,0,.14-.33.47.47,0,0,0-.14-.33Z"/><path class="cls-3" d="M4.28,4.68A.51.51,0,0,0,4,4.81L2.56,6.21a.45.45,0,0,0-.14.33.47.47,0,0,0,.8.33L4.61,5.48a.47.47,0,0,0,.14-.33.48.48,0,0,0-.14-.34A.47.47,0,0,0,4.28,4.68Z"/><path class="cls-3" d="M11.46,12.8h4.83a.3.3,0,0,0,0-.59H11.46a.3.3,0,0,0,0,.59Z"/><path class="cls-3" d="M16.29,14.55a.29.29,0,0,0,.29-.29.3.3,0,0,0-.29-.3H11.46a.3.3,0,0,0-.29.3.29.29,0,0,0,.29.29Z"/><path class="cls-3" d="M11.33,18l.13,0a.33.33,0,0,0,.19-.06l2.07-1.66a.14.14,0,0,1,.09,0h3.66a.87.87,0,0,0,.87-.87V11.19a.74.74,0,0,0-.73-.74H10.15a.74.74,0,0,0-.74.74v4.39a.74.74,0,0,0,.74.73H11a.15.15,0,0,1,.15.14v1.32A.3.3,0,0,0,11.33,18Zm-1.18-2.32a.14.14,0,0,1-.15-.14V11.19a.15.15,0,0,1,.15-.15h7.46a.15.15,0,0,1,.14.15v4.25a.29.29,0,0,1-.28.28H13.66a.31.31,0,0,0-.19.06L12,17a.16.16,0,0,1-.09,0h-.06a.16.16,0,0,1-.08-.13V16a.3.3,0,0,0-.3-.29Z"/></g></g></svg>