<svg xmlns="http://www.w3.org/2000/svg" viewBox="0 0 23.85 23.85"><defs><style>.cls-1{fill:#0075a2;stroke:#0075a2;stroke-miterlimit:10;stroke-width:0.8px;}</style></defs><g id="Layer_2" data-name="Layer 2"><g id="Features"><path class="cls-1" d="M12.89,23.45c-1.57,0-6.22-1.37-8.15-2H4.67a.24.24,0,0,0-.14.05.24.24,0,0,0-.1.19V23a.49.49,0,0,1-.49.5h-3A.49.49,0,0,1,.4,23V12.66a.5.5,0,0,1,.49-.5H3.94a.5.5,0,0,1,.49.5v2.72a.22.22,0,0,0,.11.2.21.21,0,0,0,.13.05l.09,0A7.32,7.32,0,0,1,7.43,15a4.56,4.56,0,0,1,.92.09,2.26,2.26,0,0,1,1,.62,3,3,0,0,0,2.24.92l.59,0a5.63,5.63,0,0,1,.8-.05c1.92,0,2.91,1,3.2,1.84a.24.24,0,0,0,.23.16h.05c.63-.15,1.3-.33,1.89-.49l1.54-.41a3.71,3.71,0,0,1,.89-.12,1.66,1.66,0,0,1,1.65,1c.39.87.34,1.45-.14,1.74C20.59,21.38,14.57,23.45,12.89,23.45ZM7.45,16a6.81,6.81,0,0,0-2.89.76.25.25,0,0,0-.13.22v3.18a.26.26,0,0,0,.17.24c1.11.34,6.7,2,8.29,2,1.38,0,6.87-1.86,8.68-2.84a.23.23,0,0,0,.11-.28,3.25,3.25,0,0,0-.13-.35.71.71,0,0,0-.75-.44,3,3,0,0,0-.66.09l-1.51.4c-.92.25-2.06.56-2.89.71h0l-.26.08a10,10,0,0,1-2.65.59,1.76,1.76,0,0,1-.42,0c-.77-.17-3.46-.62-3.48-.63a.49.49,0,0,1,.08-1h.09c.28.05,2.76.47,3.53.64l.21,0a10.08,10.08,0,0,0,2.25-.52.23.23,0,0,0,.15-.14.21.21,0,0,0,0-.19,1.48,1.48,0,0,0-.3-.42A2.68,2.68,0,0,0,13,17.57a5.07,5.07,0,0,0-.66,0,6,6,0,0,1-.72,0,3.88,3.88,0,0,1-2.88-1.17,1.64,1.64,0,0,0-.57-.4A3.88,3.88,0,0,0,7.45,16ZM1.63,13.15a.24.24,0,0,0-.24.24v8.83a.24.24,0,0,0,.24.24H3.2a.24.24,0,0,0,.24-.24V13.39a.24.24,0,0,0-.24-.24Z"/><path class="cls-1" d="M16.34,11.68a.49.49,0,0,1-.5-.49v-.11a.25.25,0,0,0-.17-.23A2,2,0,0,1,14.4,9.68a.52.52,0,0,1,0-.37.51.51,0,0,1,.28-.26l.17,0a.5.5,0,0,1,.47.32,1,1,0,0,0,1,.6,1.05,1.05,0,0,0,.7-.25A.87.87,0,0,0,17.31,9c0-.53-.72-.9-1.16-1.07-1.55-.61-1.78-1.51-1.78-2A1.87,1.87,0,0,1,15,4.6a2.12,2.12,0,0,1,.69-.4A.23.23,0,0,0,15.84,4V3.84a.5.5,0,1,1,1,0v.1a.24.24,0,0,0,.17.23,2,2,0,0,1,1.27,1.17.55.55,0,0,1,0,.38A.55.55,0,0,1,18,6l-.17,0a.51.51,0,0,1-.47-.32,1,1,0,0,0-1-.61,1,1,0,0,0-.7.26.85.85,0,0,0-.29.64c0,.54.72.9,1.16,1.07,1.55.61,1.78,1.51,1.78,2a1.84,1.84,0,0,1-.62,1.38,2,2,0,0,1-.69.4.25.25,0,0,0-.16.23v.14A.49.49,0,0,1,16.34,11.68Z"/><path class="cls-1" d="M16.34,14.62a7.11,7.11,0,1,1,7.11-7.11A7.12,7.12,0,0,1,16.34,14.62Zm0-13.23a6.13,6.13,0,1,0,6.12,6.12A6.13,6.13,0,0,0,16.34,1.39Z"/></g></g></svg>