<svg xmlns="http://www.w3.org/2000/svg" viewBox="0 0 21.2 26.55"><defs><style>.cls-1{fill:#0075a2;stroke:#0075a2;stroke-miterlimit:10;stroke-width:0.8px;}</style></defs><g id="Layer_2" data-name="Layer 2"><g id="Features"><path class="cls-1" d="M13.65,13.71a.49.49,0,0,1-.5-.49v-.11a.25.25,0,0,0-.17-.23,2,2,0,0,1-1.28-1.17.5.5,0,0,1,0-.38.43.43,0,0,1,.27-.26.39.39,0,0,1,.18,0,.5.5,0,0,1,.46.32,1,1,0,0,0,1,.61,1.05,1.05,0,0,0,.7-.25.85.85,0,0,0,.3-.65c0-.54-.73-.91-1.16-1.08-1.56-.61-1.8-1.51-1.8-2A1.81,1.81,0,0,1,12.3,6.6,2,2,0,0,1,13,6.19.23.23,0,0,0,13.15,6V5.82a.5.5,0,0,1,1,0v.11a.23.23,0,0,0,.18.23,2,2,0,0,1,1.27,1.17.5.5,0,0,1,0,.38.48.48,0,0,1-.45.3.51.51,0,0,1-.47-.32,1,1,0,0,0-1-.61,1.05,1.05,0,0,0-.7.25.87.87,0,0,0-.29.65c0,.54.73.91,1.16,1.08,1.56.61,1.79,1.51,1.79,2A1.84,1.84,0,0,1,15,12.44a2.07,2.07,0,0,1-.69.41.24.24,0,0,0-.17.23v.14A.49.49,0,0,1,13.65,13.71Z"/><path class="cls-1" d="M13.65,16.67A7.15,7.15,0,1,1,20.8,9.52,7.15,7.15,0,0,1,13.65,16.67Zm0-13.31a6.16,6.16,0,1,0,6.16,6.16A6.16,6.16,0,0,0,13.65,3.36Z"/><path class="cls-1" d="M18.21,3.69a.27.27,0,0,1-.27-.27V2.9A2.56,2.56,0,0,0,15.33.4H3A2.56,2.56,0,0,0,.4,2.9V23.65A2.56,2.56,0,0,0,3,26.15H15.33a2.56,2.56,0,0,0,2.61-2.5V18.21a.56.56,0,1,0-1.11,0v3.28a.27.27,0,0,1-.27.27H1.77a.27.27,0,0,1-.27-.27V5.06a.27.27,0,0,1,.27-.27H5.06a.55.55,0,0,0,.55-.55.55.55,0,0,0-.55-.55H1.77a.27.27,0,0,1-.27-.27V2.9A1.46,1.46,0,0,1,3,1.5H15.33a1.45,1.45,0,0,1,1.5,1.4v.52a.27.27,0,0,1-.27.27ZM1.77,22.87H16.56a.27.27,0,0,1,.27.27v.51a1.45,1.45,0,0,1-1.5,1.4H3a1.46,1.46,0,0,1-1.51-1.4v-.51A.27.27,0,0,1,1.77,22.87Z"/></g></g></svg>