<svg xmlns="http://www.w3.org/2000/svg" viewBox="0 0 26.15 26.15"><defs><style>.cls-1{fill:#0075a2;stroke:#0075a2;stroke-miterlimit:10;stroke-width:0.8px;}</style></defs><g id="Layer_2" data-name="Layer 2"><g id="Features"><path class="cls-1" d="M14.69,25.75a.54.54,0,0,1-.51-.37l-.63-1.87a.25.25,0,0,0-.25-.18H11.23a.27.27,0,0,0-.25.18l-.62,1.87a.56.56,0,0,1-.52.37H6.61a.55.55,0,0,1-.53-.41l-.72-2.88a.24.24,0,0,0-.14-.17,9.17,9.17,0,0,1-4.82-8A9,9,0,0,1,4.7,6.6.6.6,0,0,1,5,6.52a.55.55,0,0,1,.28,1,7.89,7.89,0,0,0-3.78,6.76A8,8,0,0,0,6,21.47l0,0,.06.05.06,0,0,0a.05.05,0,0,1,0,0l0,0,0,.11s0,0,0,.05L7,24.46a.27.27,0,0,0,.26.2h2a.27.27,0,0,0,.25-.18l.62-1.87a.56.56,0,0,1,.52-.37h3.23a.54.54,0,0,1,.52.37L15,24.48a.27.27,0,0,0,.26.18h1a.55.55,0,0,1,.54.55.54.54,0,0,1-.54.54Z"/><path class="cls-1" d="M18.74,13.28a1.82,1.82,0,1,0-1.82-1.82A1.83,1.83,0,0,0,18.74,13.28Zm0-2.56a.74.74,0,0,1,0,1.48.74.74,0,1,1,0-1.48Z"/><path class="cls-1" d="M11.05,8.77a4.19,4.19,0,1,1,4.19-4.19A4.19,4.19,0,0,1,11.05,8.77Zm0-7.28a3.1,3.1,0,1,0,3.1,3.09A3.1,3.1,0,0,0,11.05,1.49Z"/><path class="cls-1" d="M25.21,16.86a.55.55,0,0,1-.55-.55V13.88a.26.26,0,0,0-.26-.26H23.09a.54.54,0,0,1-.53-.47c-.41-2.82-1.38-4.39-3.24-5.24v0l-.06,0-.05,0,0,0,0,0,0,0,0,0,0,0s0,0,0-.05v0a.09.09,0,0,1,0,0,.13.13,0,0,1,0-.1V7.3a.17.17,0,0,0,0-.07v0l1.19-2.95a.25.25,0,0,0,0-.25A.26.26,0,0,0,20,3.89h0c-1.24.08-2,.53-2.33,1.29a.55.55,0,0,1-.51.35.63.63,0,0,1-.19,0,.59.59,0,0,1-.31-.29.55.55,0,0,1,0-.42c.67-1.75,2.66-2,3.79-2a6.38,6.38,0,0,1,.84.05.57.57,0,0,1,.4.27.55.55,0,0,1,0,.47L20.32,7a.25.25,0,0,0,.1.32,6.84,6.84,0,0,1,3.1,5,.26.26,0,0,0,.26.21h1.43a.55.55,0,0,1,.54.55v3.23A.55.55,0,0,1,25.21,16.86Z"/><path class="cls-1" d="M25.21,25.75a.53.53,0,0,1-.39-.16l-2.36-2.36a.27.27,0,0,0-.19-.08.3.3,0,0,0-.15.05A4.49,4.49,0,0,1,19.5,24,4.54,4.54,0,1,1,24,19.5a4.49,4.49,0,0,1-.84,2.62.27.27,0,0,0,0,.34l2.36,2.36a.55.55,0,0,1,0,.77A.51.51,0,0,1,25.21,25.75Zm-5.71-9.7A3.45,3.45,0,1,0,23,19.5,3.44,3.44,0,0,0,19.5,16.05Z"/></g></g></svg>