<svg width="500" height="500" xmlns="http://www.w3.org/2000/svg"><path fill="#231f20" d="m 216.7,383.1 c -91.8,0 -166.4,-74.5 -166.4,-166.4 0,-32.4 9.5,-62.4 25.5,-88.0 -2.6,7.9 -4.0,16.4 -4.0,25.3 0,45.5 36.8,82.4 82.3,82.4 45.4,0 82.3,-36.9 82.3,-82.4 0,-45.4 -36.9,-82.3 -82.3,-82.3 -8.8,0 -17.3,1.4 -25.2,4.0 25.5,-16 55.5,-25.3 87.7,-25 91.8,0 166.4,74.5 166.4,166.4 0,91.9 -74.6,166.4 -166.4,166.4 M 75.5,357.9 28.5,404.9 c 48.2,48.1 114.7,78 188.2,78 147,0 266.2,-119.2 266.2,-266.2 0,-73.5 -29.8,-140.1 -78,-188.2 l -47.1,47.0 0.1,0.1 c -36.2,-36.2 -86.1,-58.5 -141.2,-58.5 -110.2,0 -199.6,89.4 -199.6,199.6 0,55.0 22.3,104.9 58.4,141 v 0.2 z" /></svg>
