<svg width="1280" height="600" viewBox="0 0 1280 600" fill="none" xmlns="http://www.w3.org/2000/svg">
<rect width="1280" height="600" fill="#0D2332"/>
<g clip-path="url(#clip0_2836_44)">
<g opacity="0.5">
<path d="M979.183 149.736H899.582V158.382H979.183V149.736Z" fill="#085B7B"/>
<path d="M903.789 207.112H895.133C895.133 194.865 885.154 184.894 872.885 184.894H872.747V176.248H872.885C889.927 176.248 903.789 190.092 903.789 207.112Z" fill="#085B7B"/>
<path d="M926.089 184.894H926.008C908.983 184.894 895.133 171.061 895.133 154.059H903.789C903.789 166.295 913.756 176.248 926.008 176.248H926.089V184.894Z" fill="#085B7B"/>
<path d="M1089.81 286.729H1081.15C1081.15 274.482 1071.17 264.511 1058.91 264.511H1005.76V255.866H1058.91C1075.95 255.866 1089.81 269.71 1089.81 286.729Z" fill="#085B7B"/>
<path d="M1058.91 282.407H979.183V291.052H1058.91V282.407Z" fill="#085B7B"/>
<path d="M979.183 255.872H872.885V264.517H979.183V255.872Z" fill="#085B7B"/>
<path d="M1222.82 287.018H1214.16C1214.16 274.77 1204.18 264.799 1191.91 264.799H1085.41V256.154H1191.91C1208.95 256.154 1222.82 269.998 1222.82 287.018Z" fill="#085B7B"/>
<path d="M1058.91 344.134H979.183V335.489H1058.91C1085.83 335.489 1107.72 313.616 1107.72 286.735V233.659H1116.38V286.735C1116.38 318.389 1090.59 344.134 1058.91 344.134Z" fill="#085B7B"/>
<path d="M930.198 339.742L921.541 339.714C921.582 326.728 916.549 314.51 907.367 305.317C898.186 296.118 885.968 291.052 872.966 291.052H846.309V282.407H872.966C888.288 282.407 902.681 288.372 913.496 299.208C924.311 310.043 930.244 324.44 930.198 339.737V339.742Z" fill="#085B7B"/>
<path d="M979.224 176.248H926.008V184.894H979.224V176.248Z" fill="#085B7B"/>
<path d="M903.789 207.112H895.133V233.561H903.789V207.112Z" fill="#085B7B"/>
</g>
<path d="M1005.77 150.111H979.801V158.18H1005.77V150.111Z" fill="url(#paint0_linear_2836_44)"/>
<path d="M979.224 97.0865H926.129V105.155H979.224V97.0865Z" fill="url(#paint1_linear_2836_44)"/>
<path d="M1191.6 203.135H1111.96V211.204H1191.6V203.135Z" fill="url(#paint2_linear_2836_44)"/>
<path d="M845.911 203.135H793.394V211.204H845.911V203.135Z" fill="url(#paint3_linear_2836_44)"/>
<path d="M1192.18 335.696H1138.51V343.765H1192.18V335.696Z" fill="url(#paint4_linear_2836_44)"/>
<path d="M1165.05 388.721H1058.86V396.79H1165.05V388.721Z" fill="url(#paint5_linear_2836_44)"/>
<path d="M1032.32 415.233H899.582V423.302H1032.32V415.233Z" fill="url(#paint6_linear_2836_44)"/>
<path d="M895.542 494.77H842.448V502.839H895.542V494.77Z" fill="url(#paint7_linear_2836_44)"/>
<path d="M952.676 468.257H922.09V476.326H952.676V468.257Z" fill="url(#paint8_linear_2836_44)"/>
<path d="M979.224 362.209H926.129V370.278H979.224V362.209Z" fill="url(#paint9_linear_2836_44)"/>
<path d="M979.183 184.692C981.462 184.692 983.31 182.847 983.31 180.571C983.31 178.295 981.462 176.45 979.183 176.45C976.904 176.45 975.057 178.295 975.057 180.571C975.057 182.847 976.904 184.692 979.183 184.692Z" fill="#2A314C"/>
<path d="M952.607 184.692C954.886 184.692 956.734 182.847 956.734 180.571C956.734 178.295 954.886 176.45 952.607 176.45C950.328 176.45 948.481 178.295 948.481 180.571C948.481 182.847 950.328 184.692 952.607 184.692Z" fill="#2A314C"/>
<path d="M926.037 211.233C928.316 211.233 930.163 209.388 930.163 207.112C930.163 204.836 928.316 202.991 926.037 202.991C923.758 202.991 921.911 204.836 921.911 207.112C921.911 209.388 923.758 211.233 926.037 211.233Z" fill="#2A314C"/>
<path d="M926.037 264.315C928.316 264.315 930.163 262.47 930.163 260.194C930.163 257.918 928.316 256.073 926.037 256.073C923.758 256.073 921.911 257.918 921.911 260.194C921.911 262.47 923.758 264.315 926.037 264.315Z" fill="#2A314C"/>
<path d="M899.461 237.774C901.74 237.774 903.587 235.929 903.587 233.653C903.587 231.377 901.74 229.532 899.461 229.532C897.182 229.532 895.335 231.377 895.335 233.653C895.335 235.929 897.182 237.774 899.461 237.774Z" fill="#2A314C"/>
<path d="M872.885 237.774C875.164 237.774 877.011 235.929 877.011 233.653C877.011 231.377 875.164 229.532 872.885 229.532C870.606 229.532 868.759 231.377 868.759 233.653C868.759 235.929 870.606 237.774 872.885 237.774Z" fill="#2A314C"/>
<path d="M846.315 264.315C848.594 264.315 850.441 262.47 850.441 260.194C850.441 257.918 848.594 256.073 846.315 256.073C844.036 256.073 842.188 257.918 842.188 260.194C842.188 262.47 844.036 264.315 846.315 264.315Z" fill="#2A314C"/>
<path d="M1058.96 184.692C1061.24 184.692 1063.09 182.847 1063.09 180.571C1063.09 178.295 1061.24 176.45 1058.96 176.45C1056.68 176.45 1054.84 178.295 1054.84 180.571C1054.84 182.847 1056.68 184.692 1058.96 184.692Z" fill="#2A314C"/>
<path d="M1032.39 184.692C1034.67 184.692 1036.51 182.847 1036.51 180.571C1036.51 178.295 1034.67 176.45 1032.39 176.45C1030.11 176.45 1028.26 178.295 1028.26 180.571C1028.26 182.847 1030.11 184.692 1032.39 184.692Z" fill="#2A314C"/>
<path d="M1005.81 184.692C1008.09 184.692 1009.94 182.847 1009.94 180.571C1009.94 178.295 1008.09 176.45 1005.81 176.45C1003.53 176.45 1001.68 178.295 1001.68 180.571C1001.68 182.847 1003.53 184.692 1005.81 184.692Z" fill="#2A314C"/>
<path d="M1005.79 184.692C1008.07 184.692 1009.91 182.847 1009.91 180.571C1009.91 178.295 1008.07 176.45 1005.79 176.45C1003.51 176.45 1001.66 178.295 1001.66 180.571C1001.66 182.847 1003.51 184.692 1005.79 184.692Z" fill="#2A314C"/>
<path d="M1005.76 184.692C1008.04 184.692 1009.89 182.847 1009.89 180.571C1009.89 178.295 1008.04 176.45 1005.76 176.45C1003.48 176.45 1001.63 178.295 1001.63 180.571C1001.63 182.847 1003.48 184.692 1005.76 184.692Z" fill="#2A314C"/>
<path d="M979.183 184.692C981.462 184.692 983.31 182.847 983.31 180.571C983.31 178.295 981.462 176.45 979.183 176.45C976.904 176.45 975.057 178.295 975.057 180.571C975.057 182.847 976.904 184.692 979.183 184.692Z" fill="#2A314C"/>
<path d="M1085.54 211.233C1087.82 211.233 1089.67 209.388 1089.67 207.112C1089.67 204.836 1087.82 202.991 1085.54 202.991C1083.26 202.991 1081.41 204.836 1081.41 207.112C1081.41 209.388 1083.26 211.233 1085.54 211.233Z" fill="#2A314C"/>
<path d="M1058.96 184.692C1061.24 184.692 1063.09 182.847 1063.09 180.571C1063.09 178.295 1061.24 176.45 1058.96 176.45C1056.68 176.45 1054.84 178.295 1054.84 180.571C1054.84 182.847 1056.68 184.692 1058.96 184.692Z" fill="#2A314C"/>
<path d="M1191.83 264.315C1194.11 264.315 1195.96 262.47 1195.96 260.194C1195.96 257.918 1194.11 256.073 1191.83 256.073C1189.55 256.073 1187.71 257.918 1187.71 260.194C1187.71 262.47 1189.55 264.315 1191.83 264.315Z" fill="#2A314C"/>
<path d="M1165.26 237.774C1167.54 237.774 1169.39 235.929 1169.39 233.653C1169.39 231.377 1167.54 229.532 1165.26 229.532C1162.98 229.532 1161.13 231.377 1161.13 233.653C1161.13 235.929 1162.98 237.774 1165.26 237.774Z" fill="#2A314C"/>
<path d="M1138.69 237.774C1140.96 237.774 1142.81 235.929 1142.81 233.653C1142.81 231.377 1140.96 229.532 1138.69 229.532C1136.41 229.532 1134.56 231.377 1134.56 233.653C1134.56 235.929 1136.41 237.774 1138.69 237.774Z" fill="#2A314C"/>
<path d="M1112.11 237.774C1114.39 237.774 1116.24 235.929 1116.24 233.653C1116.24 231.377 1114.39 229.532 1112.11 229.532C1109.83 229.532 1107.98 231.377 1107.98 233.653C1107.98 235.929 1109.83 237.774 1112.11 237.774Z" fill="#2A314C"/>
<path d="M1112.11 264.315C1114.39 264.315 1116.24 262.47 1116.24 260.194C1116.24 257.918 1114.39 256.073 1112.11 256.073C1109.83 256.073 1107.98 257.918 1107.98 260.194C1107.98 262.47 1109.83 264.315 1112.11 264.315Z" fill="#2A314C"/>
<path d="M926.037 264.315C928.316 264.315 930.163 262.47 930.163 260.194C930.163 257.918 928.316 256.073 926.037 256.073C923.758 256.073 921.911 257.918 921.911 260.194C921.911 262.47 923.758 264.315 926.037 264.315Z" fill="#2A314C"/>
<path d="M846.315 264.315C848.594 264.315 850.441 262.47 850.441 260.194C850.441 257.918 848.594 256.073 846.315 256.073C844.036 256.073 842.188 257.918 842.188 260.194C842.188 262.47 844.036 264.315 846.315 264.315Z" fill="#2A314C"/>
<path d="M846.315 290.85C848.594 290.85 850.441 289.005 850.441 286.729C850.441 284.454 848.594 282.609 846.315 282.609C844.036 282.609 842.188 284.454 842.188 286.729C842.188 289.005 844.036 290.85 846.315 290.85Z" fill="#2A314C"/>
<path d="M979.183 317.391C981.462 317.391 983.31 315.546 983.31 313.271C983.31 310.995 981.462 309.15 979.183 309.15C976.904 309.15 975.057 310.995 975.057 313.271C975.057 315.546 976.904 317.391 979.183 317.391Z" fill="#2A314C"/>
<path d="M872.885 317.391C875.164 317.391 877.011 315.546 877.011 313.271C877.011 310.995 875.164 309.15 872.885 309.15C870.606 309.15 868.759 310.995 868.759 313.271C868.759 315.546 870.606 317.391 872.885 317.391Z" fill="#2A314C"/>
<path d="M846.315 317.391C848.594 317.391 850.441 315.546 850.441 313.271C850.441 310.995 848.594 309.15 846.315 309.15C844.036 309.15 842.188 310.995 842.188 313.271C842.188 315.546 844.036 317.391 846.315 317.391Z" fill="#2A314C"/>
<path d="M1058.96 317.391C1061.24 317.391 1063.09 315.546 1063.09 313.271C1063.09 310.995 1061.24 309.15 1058.96 309.15C1056.68 309.15 1054.84 310.995 1054.84 313.271C1054.84 315.546 1056.68 317.391 1058.96 317.391Z" fill="#2A314C"/>
<path d="M1032.39 317.391C1034.67 317.391 1036.51 315.546 1036.51 313.271C1036.51 310.995 1034.67 309.15 1032.39 309.15C1030.11 309.15 1028.26 310.995 1028.26 313.271C1028.26 315.546 1030.11 317.391 1032.39 317.391Z" fill="#2A314C"/>
<path d="M1005.81 317.391C1008.09 317.391 1009.94 315.546 1009.94 313.271C1009.94 310.995 1008.09 309.15 1005.81 309.15C1003.53 309.15 1001.68 310.995 1001.68 313.271C1001.68 315.546 1003.53 317.391 1005.81 317.391Z" fill="#2A314C"/>
<path d="M1005.79 317.391C1008.07 317.391 1009.91 315.546 1009.91 313.271C1009.91 310.995 1008.07 309.15 1005.79 309.15C1003.51 309.15 1001.66 310.995 1001.66 313.271C1001.66 315.546 1003.51 317.391 1005.79 317.391Z" fill="#2A314C"/>
<path d="M1005.76 317.391C1008.04 317.391 1009.89 315.546 1009.89 313.271C1009.89 310.995 1008.04 309.15 1005.76 309.15C1003.48 309.15 1001.63 310.995 1001.63 313.271C1001.63 315.546 1003.48 317.391 1005.76 317.391Z" fill="#2A314C"/>
<path d="M979.183 317.391C981.462 317.391 983.31 315.546 983.31 313.271C983.31 310.995 981.462 309.15 979.183 309.15C976.904 309.15 975.057 310.995 975.057 313.271C975.057 315.546 976.904 317.391 979.183 317.391Z" fill="#2A314C"/>
<path d="M1191.83 264.315C1194.11 264.315 1195.96 262.47 1195.96 260.194C1195.96 257.918 1194.11 256.073 1191.83 256.073C1189.55 256.073 1187.71 257.918 1187.71 260.194C1187.71 262.47 1189.55 264.315 1191.83 264.315Z" fill="#2A314C"/>
<path d="M1191.83 290.85C1194.11 290.85 1195.96 289.005 1195.96 286.729C1195.96 284.454 1194.11 282.609 1191.83 282.609C1189.55 282.609 1187.71 284.454 1187.71 286.729C1187.71 289.005 1189.55 290.85 1191.83 290.85Z" fill="#2A314C"/>
<path d="M1112.11 264.315C1114.39 264.315 1116.24 262.47 1116.24 260.194C1116.24 257.918 1114.39 256.073 1112.11 256.073C1109.83 256.073 1107.98 257.918 1107.98 260.194C1107.98 262.47 1109.83 264.315 1112.11 264.315Z" fill="#2A314C"/>
<path d="M1191.83 317.391C1194.11 317.391 1195.96 315.546 1195.96 313.271C1195.96 310.995 1194.11 309.15 1191.83 309.15C1189.55 309.15 1187.71 310.995 1187.71 313.271C1187.71 315.546 1189.55 317.391 1191.83 317.391Z" fill="#2A314C"/>
<path d="M1165.26 317.391C1167.54 317.391 1169.39 315.546 1169.39 313.271C1169.39 310.995 1167.54 309.15 1165.26 309.15C1162.98 309.15 1161.13 310.995 1161.13 313.271C1161.13 315.546 1162.98 317.391 1165.26 317.391Z" fill="#2A314C"/>
<path d="M1058.96 317.391C1061.24 317.391 1063.09 315.546 1063.09 313.271C1063.09 310.995 1061.24 309.15 1058.96 309.15C1056.68 309.15 1054.84 310.995 1054.84 313.271C1054.84 315.546 1056.68 317.391 1058.96 317.391Z" fill="#2A314C"/>
<path d="M925.87 344.053C908.845 344.053 894.994 330.221 894.994 313.219C894.994 296.216 908.845 282.384 925.87 282.384C942.894 282.384 956.745 296.216 956.745 313.219C956.745 330.221 942.894 344.053 925.87 344.053ZM925.87 291.029C913.618 291.029 903.651 300.983 903.651 313.219C903.651 325.455 913.618 335.408 925.87 335.408C938.122 335.408 948.088 325.455 948.088 313.219C948.088 300.983 938.122 291.029 925.87 291.029Z" fill="url(#paint10_linear_2836_44)"/>
<path d="M1112.57 344.342C1095.54 344.342 1081.69 330.509 1081.69 313.507C1081.69 296.504 1095.54 282.672 1112.57 282.672C1129.59 282.672 1143.44 296.504 1143.44 313.507C1143.44 330.509 1129.59 344.342 1112.57 344.342ZM1112.57 291.317C1100.31 291.317 1090.35 301.271 1090.35 313.507C1090.35 325.743 1100.31 335.696 1112.57 335.696C1124.82 335.696 1134.78 325.743 1134.78 313.507C1134.78 301.271 1124.82 291.317 1112.57 291.317Z" fill="url(#paint11_linear_2836_44)"/>
<path d="M1192.04 317.363H1165.45C1163.07 317.363 1161.13 315.438 1161.12 313.057C1161.12 312.942 1160.97 300.429 1154.74 288.24C1146.66 272.407 1132.37 264.384 1112.28 264.384V255.739C1141.86 255.739 1155.98 271.439 1162.61 284.614C1167.37 294.066 1168.97 303.449 1169.51 308.729H1187.71V260.067C1187.71 260.067 1187.71 260.027 1187.71 260.004C1187.79 254.183 1185.6 248.679 1181.52 244.506C1177.44 240.316 1171.96 237.97 1166.09 237.901H1165.4L1112.27 237.895C1109.89 237.895 1107.95 235.97 1107.94 233.584C1107.86 206.743 1085.93 184.905 1059.05 184.905H952.786V176.26H1059.05C1089.23 176.26 1114.12 199.66 1116.43 229.244H1166.18C1174.37 229.348 1182.01 232.622 1187.72 238.466C1193.4 244.287 1196.47 251.964 1196.37 260.085V313.04C1196.37 315.426 1194.43 317.363 1192.04 317.363Z" fill="url(#paint12_linear_2836_44)"/>
<path d="M1059.1 317.363H979.252C978.104 317.363 977.002 316.907 976.188 316.095C975.374 315.282 974.918 314.181 974.924 313.034C974.924 312.919 974.826 300.412 968.634 288.228C960.589 272.401 946.271 264.379 926.077 264.379C905.884 264.379 891.566 272.401 883.521 288.228C877.329 300.412 877.231 312.919 877.231 313.046H868.574C868.574 312.02 868.736 287.571 885.512 270.799C895.508 260.805 909.156 255.739 926.083 255.739C943.01 255.739 956.659 260.805 966.654 270.799C979.42 283.565 982.565 300.775 983.338 308.723H1059.11V317.368L1059.1 317.363Z" fill="url(#paint13_linear_2836_44)"/>
<path d="M850.643 313.04H841.986V260.056C841.986 243.065 855.854 229.238 872.902 229.238H899.761V237.884H872.902C860.627 237.884 850.643 247.831 850.643 260.056V313.04Z" fill="url(#paint14_linear_2836_44)"/>
<path d="M1085.54 237.976H926.095C924.94 237.976 923.838 237.515 923.024 236.696C922.211 235.878 921.761 234.771 921.766 233.619C921.888 216.616 935.836 202.79 952.861 202.79H1058.99C1067.24 202.79 1075 206 1080.84 211.832C1086.67 217.665 1089.88 225.417 1089.87 233.659C1089.87 236.045 1087.93 237.976 1085.54 237.976ZM930.879 229.331H1080.8C1079.96 225.042 1077.87 221.1 1074.71 217.942C1070.51 213.746 1064.92 211.435 1058.99 211.435H952.855C942.063 211.435 932.98 219.141 930.879 229.331Z" fill="url(#paint15_linear_2836_44)"/>
<path d="M1010.14 207.112H1001.48V233.653H1010.14V207.112Z" fill="url(#paint16_linear_2836_44)"/>
<path d="M979.183 184.692C981.462 184.692 983.31 182.847 983.31 180.571C983.31 178.295 981.462 176.45 979.183 176.45C976.904 176.45 975.057 178.295 975.057 180.571C975.057 182.847 976.904 184.692 979.183 184.692Z" fill="white"/>
<path d="M952.607 184.692C954.886 184.692 956.734 182.847 956.734 180.571C956.734 178.295 954.886 176.45 952.607 176.45C950.328 176.45 948.481 178.295 948.481 180.571C948.481 182.847 950.328 184.692 952.607 184.692Z" fill="white"/>
<path d="M926.037 211.233C928.316 211.233 930.163 209.388 930.163 207.112C930.163 204.836 928.316 202.991 926.037 202.991C923.758 202.991 921.911 204.836 921.911 207.112C921.911 209.388 923.758 211.233 926.037 211.233Z" fill="#0185AE"/>
<path d="M926.037 264.315C928.316 264.315 930.163 262.47 930.163 260.194C930.163 257.918 928.316 256.073 926.037 256.073C923.758 256.073 921.911 257.918 921.911 260.194C921.911 262.47 923.758 264.315 926.037 264.315Z" fill="white"/>
<path d="M899.461 237.774C901.74 237.774 903.587 235.929 903.587 233.653C903.587 231.377 901.74 229.532 899.461 229.532C897.182 229.532 895.335 231.377 895.335 233.653C895.335 235.929 897.182 237.774 899.461 237.774Z" fill="white"/>
<path d="M872.885 237.774C875.164 237.774 877.011 235.929 877.011 233.653C877.011 231.377 875.164 229.532 872.885 229.532C870.606 229.532 868.759 231.377 868.759 233.653C868.759 235.929 870.606 237.774 872.885 237.774Z" fill="white"/>
<path d="M846.315 264.315C848.594 264.315 850.441 262.47 850.441 260.194C850.441 257.918 848.594 256.073 846.315 256.073C844.036 256.073 842.188 257.918 842.188 260.194C842.188 262.47 844.036 264.315 846.315 264.315Z" fill="white"/>
<path d="M1058.96 184.692C1061.24 184.692 1063.09 182.847 1063.09 180.571C1063.09 178.295 1061.24 176.45 1058.96 176.45C1056.68 176.45 1054.84 178.295 1054.84 180.571C1054.84 182.847 1056.68 184.692 1058.96 184.692Z" fill="white"/>
<path d="M1032.39 184.692C1034.67 184.692 1036.51 182.847 1036.51 180.571C1036.51 178.295 1034.67 176.45 1032.39 176.45C1030.11 176.45 1028.26 178.295 1028.26 180.571C1028.26 182.847 1030.11 184.692 1032.39 184.692Z" fill="white"/>
<path d="M1005.81 184.692C1008.09 184.692 1009.94 182.847 1009.94 180.571C1009.94 178.295 1008.09 176.45 1005.81 176.45C1003.53 176.45 1001.68 178.295 1001.68 180.571C1001.68 182.847 1003.53 184.692 1005.81 184.692Z" fill="white"/>
<path d="M1005.79 184.692C1008.07 184.692 1009.91 182.847 1009.91 180.571C1009.91 178.295 1008.07 176.45 1005.79 176.45C1003.51 176.45 1001.66 178.295 1001.66 180.571C1001.66 182.847 1003.51 184.692 1005.79 184.692Z" fill="white"/>
<path d="M1005.76 184.692C1008.04 184.692 1009.89 182.847 1009.89 180.571C1009.89 178.295 1008.04 176.45 1005.76 176.45C1003.48 176.45 1001.63 178.295 1001.63 180.571C1001.63 182.847 1003.48 184.692 1005.76 184.692Z" fill="white"/>
<path d="M979.183 184.692C981.462 184.692 983.31 182.847 983.31 180.571C983.31 178.295 981.462 176.45 979.183 176.45C976.904 176.45 975.057 178.295 975.057 180.571C975.057 182.847 976.904 184.692 979.183 184.692Z" fill="white"/>
<path d="M1085.54 211.233C1087.82 211.233 1089.67 209.388 1089.67 207.112C1089.67 204.836 1087.82 202.991 1085.54 202.991C1083.26 202.991 1081.41 204.836 1081.41 207.112C1081.41 209.388 1083.26 211.233 1085.54 211.233Z" fill="#0185AE"/>
<path d="M1058.96 184.692C1061.24 184.692 1063.09 182.847 1063.09 180.571C1063.09 178.295 1061.24 176.45 1058.96 176.45C1056.68 176.45 1054.84 178.295 1054.84 180.571C1054.84 182.847 1056.68 184.692 1058.96 184.692Z" fill="white"/>
<path d="M1191.83 264.315C1194.11 264.315 1195.96 262.47 1195.96 260.194C1195.96 257.918 1194.11 256.073 1191.83 256.073C1189.55 256.073 1187.71 257.918 1187.71 260.194C1187.71 262.47 1189.55 264.315 1191.83 264.315Z" fill="white"/>
<path d="M1165.26 237.774C1167.54 237.774 1169.39 235.929 1169.39 233.653C1169.39 231.377 1167.54 229.532 1165.26 229.532C1162.98 229.532 1161.13 231.377 1161.13 233.653C1161.13 235.929 1162.98 237.774 1165.26 237.774Z" fill="white"/>
<path d="M1138.69 237.774C1140.96 237.774 1142.81 235.929 1142.81 233.653C1142.81 231.377 1140.96 229.532 1138.69 229.532C1136.41 229.532 1134.56 231.377 1134.56 233.653C1134.56 235.929 1136.41 237.774 1138.69 237.774Z" fill="white"/>
<path d="M1112.11 237.774C1114.39 237.774 1116.24 235.929 1116.24 233.653C1116.24 231.377 1114.39 229.532 1112.11 229.532C1109.83 229.532 1107.98 231.377 1107.98 233.653C1107.98 235.929 1109.83 237.774 1112.11 237.774Z" fill="white"/>
<path d="M1112.11 264.315C1114.39 264.315 1116.24 262.47 1116.24 260.194C1116.24 257.918 1114.39 256.073 1112.11 256.073C1109.83 256.073 1107.98 257.918 1107.98 260.194C1107.98 262.47 1109.83 264.315 1112.11 264.315Z" fill="white"/>
<path d="M926.037 264.315C928.316 264.315 930.163 262.47 930.163 260.194C930.163 257.918 928.316 256.073 926.037 256.073C923.758 256.073 921.911 257.918 921.911 260.194C921.911 262.47 923.758 264.315 926.037 264.315Z" fill="white"/>
<path d="M846.315 264.315C848.594 264.315 850.441 262.47 850.441 260.194C850.441 257.918 848.594 256.073 846.315 256.073C844.036 256.073 842.188 257.918 842.188 260.194C842.188 262.47 844.036 264.315 846.315 264.315Z" fill="white"/>
<path d="M846.315 290.85C848.594 290.85 850.441 289.005 850.441 286.729C850.441 284.454 848.594 282.609 846.315 282.609C844.036 282.609 842.188 284.454 842.188 286.729C842.188 289.005 844.036 290.85 846.315 290.85Z" fill="white"/>
<path d="M979.183 317.391C981.462 317.391 983.31 315.546 983.31 313.271C983.31 310.995 981.462 309.15 979.183 309.15C976.904 309.15 975.057 310.995 975.057 313.271C975.057 315.546 976.904 317.391 979.183 317.391Z" fill="white"/>
<path d="M872.885 317.391C875.164 317.391 877.011 315.546 877.011 313.271C877.011 310.995 875.164 309.15 872.885 309.15C870.606 309.15 868.759 310.995 868.759 313.271C868.759 315.546 870.606 317.391 872.885 317.391Z" fill="white"/>
<path d="M846.315 317.391C848.594 317.391 850.441 315.546 850.441 313.271C850.441 310.995 848.594 309.15 846.315 309.15C844.036 309.15 842.188 310.995 842.188 313.271C842.188 315.546 844.036 317.391 846.315 317.391Z" fill="white"/>
<path d="M1058.96 317.391C1061.24 317.391 1063.09 315.546 1063.09 313.271C1063.09 310.995 1061.24 309.15 1058.96 309.15C1056.68 309.15 1054.84 310.995 1054.84 313.271C1054.84 315.546 1056.68 317.391 1058.96 317.391Z" fill="white"/>
<path d="M1032.39 317.391C1034.67 317.391 1036.51 315.546 1036.51 313.271C1036.51 310.995 1034.67 309.15 1032.39 309.15C1030.11 309.15 1028.26 310.995 1028.26 313.271C1028.26 315.546 1030.11 317.391 1032.39 317.391Z" fill="white"/>
<path d="M1005.81 317.391C1008.09 317.391 1009.94 315.546 1009.94 313.271C1009.94 310.995 1008.09 309.15 1005.81 309.15C1003.53 309.15 1001.68 310.995 1001.68 313.271C1001.68 315.546 1003.53 317.391 1005.81 317.391Z" fill="white"/>
<path d="M1005.79 317.391C1008.07 317.391 1009.91 315.546 1009.91 313.271C1009.91 310.995 1008.07 309.15 1005.79 309.15C1003.51 309.15 1001.66 310.995 1001.66 313.271C1001.66 315.546 1003.51 317.391 1005.79 317.391Z" fill="white"/>
<path d="M1005.76 317.391C1008.04 317.391 1009.89 315.546 1009.89 313.271C1009.89 310.995 1008.04 309.15 1005.76 309.15C1003.48 309.15 1001.63 310.995 1001.63 313.271C1001.63 315.546 1003.48 317.391 1005.76 317.391Z" fill="white"/>
<path d="M979.183 317.391C981.462 317.391 983.31 315.546 983.31 313.271C983.31 310.995 981.462 309.15 979.183 309.15C976.904 309.15 975.057 310.995 975.057 313.271C975.057 315.546 976.904 317.391 979.183 317.391Z" fill="white"/>
<path d="M1191.83 264.315C1194.11 264.315 1195.96 262.47 1195.96 260.194C1195.96 257.918 1194.11 256.073 1191.83 256.073C1189.55 256.073 1187.71 257.918 1187.71 260.194C1187.71 262.47 1189.55 264.315 1191.83 264.315Z" fill="white"/>
<path d="M1191.83 290.85C1194.11 290.85 1195.96 289.005 1195.96 286.729C1195.96 284.454 1194.11 282.609 1191.83 282.609C1189.55 282.609 1187.71 284.454 1187.71 286.729C1187.71 289.005 1189.55 290.85 1191.83 290.85Z" fill="white"/>
<path d="M1112.11 264.315C1114.39 264.315 1116.24 262.47 1116.24 260.194C1116.24 257.918 1114.39 256.073 1112.11 256.073C1109.83 256.073 1107.98 257.918 1107.98 260.194C1107.98 262.47 1109.83 264.315 1112.11 264.315Z" fill="white"/>
<path d="M1191.83 317.391C1194.11 317.391 1195.96 315.546 1195.96 313.271C1195.96 310.995 1194.11 309.15 1191.83 309.15C1189.55 309.15 1187.71 310.995 1187.71 313.271C1187.71 315.546 1189.55 317.391 1191.83 317.391Z" fill="white"/>
<path d="M1165.26 317.391C1167.54 317.391 1169.39 315.546 1169.39 313.271C1169.39 310.995 1167.54 309.15 1165.26 309.15C1162.98 309.15 1161.13 310.995 1161.13 313.271C1161.13 315.546 1162.98 317.391 1165.26 317.391Z" fill="white"/>
<path d="M1058.96 317.391C1061.24 317.391 1063.09 315.546 1063.09 313.271C1063.09 310.995 1061.24 309.15 1058.96 309.15C1056.68 309.15 1054.84 310.995 1054.84 313.271C1054.84 315.546 1056.68 317.391 1058.96 317.391Z" fill="white"/>
<path d="M926.037 290.85C928.316 290.85 930.163 289.005 930.163 286.729C930.163 284.454 928.316 282.609 926.037 282.609C923.758 282.609 921.911 284.454 921.911 286.729C921.911 289.005 923.758 290.85 926.037 290.85Z" fill="white"/>
<path d="M952.607 317.391C954.886 317.391 956.734 315.546 956.734 313.271C956.734 310.995 954.886 309.15 952.607 309.15C950.328 309.15 948.481 310.995 948.481 313.271C948.481 315.546 950.328 317.391 952.607 317.391Z" fill="white"/>
<path d="M926.037 343.932C928.316 343.932 930.163 342.087 930.163 339.812C930.163 337.536 928.316 335.691 926.037 335.691C923.758 335.691 921.911 337.536 921.911 339.812C921.911 342.087 923.758 343.932 926.037 343.932Z" fill="white"/>
<path d="M899.461 317.391C901.74 317.391 903.587 315.546 903.587 313.271C903.587 310.995 901.74 309.15 899.461 309.15C897.182 309.15 895.335 310.995 895.335 313.271C895.335 315.546 897.182 317.391 899.461 317.391Z" fill="white"/>
<path d="M1112.11 290.85C1114.39 290.85 1116.24 289.005 1116.24 286.729C1116.24 284.454 1114.39 282.609 1112.11 282.609C1109.83 282.609 1107.98 284.454 1107.98 286.729C1107.98 289.005 1109.83 290.85 1112.11 290.85Z" fill="white"/>
<path d="M1138.69 317.391C1140.96 317.391 1142.81 315.546 1142.81 313.271C1142.81 310.995 1140.96 309.15 1138.69 309.15C1136.41 309.15 1134.56 310.995 1134.56 313.271C1134.56 315.546 1136.41 317.391 1138.69 317.391Z" fill="white"/>
<path d="M1112.11 343.932C1114.39 343.932 1116.24 342.087 1116.24 339.812C1116.24 337.536 1114.39 335.691 1112.11 335.691C1109.83 335.691 1107.98 337.536 1107.98 339.812C1107.98 342.087 1109.83 343.932 1112.11 343.932Z" fill="white"/>
<path d="M1085.54 317.391C1087.82 317.391 1089.67 315.546 1089.67 313.271C1089.67 310.995 1087.82 309.15 1085.54 309.15C1083.26 309.15 1081.41 310.995 1081.41 313.271C1081.41 315.546 1083.26 317.391 1085.54 317.391Z" fill="white"/>
<path d="M979.183 211.233C981.462 211.233 983.31 209.388 983.31 207.112C983.31 204.836 981.462 202.991 979.183 202.991C976.904 202.991 975.057 204.836 975.057 207.112C975.057 209.388 976.904 211.233 979.183 211.233Z" fill="white"/>
<path d="M952.607 211.233C954.886 211.233 956.734 209.388 956.734 207.112C956.734 204.836 954.886 202.991 952.607 202.991C950.328 202.991 948.481 204.836 948.481 207.112C948.481 209.388 950.328 211.233 952.607 211.233Z" fill="white"/>
<path d="M979.183 237.774C981.462 237.774 983.31 235.929 983.31 233.653C983.31 231.377 981.462 229.532 979.183 229.532C976.904 229.532 975.057 231.377 975.057 233.653C975.057 235.929 976.904 237.774 979.183 237.774Z" fill="white"/>
<path d="M952.607 237.774C954.886 237.774 956.734 235.929 956.734 233.653C956.734 231.377 954.886 229.532 952.607 229.532C950.328 229.532 948.481 231.377 948.481 233.653C948.481 235.929 950.328 237.774 952.607 237.774Z" fill="white"/>
<path d="M926.037 237.774C928.316 237.774 930.163 235.929 930.163 233.653C930.163 231.377 928.316 229.532 926.037 229.532C923.758 229.532 921.911 231.377 921.911 233.653C921.911 235.929 923.758 237.774 926.037 237.774Z" fill="white"/>
<path d="M1058.96 211.233C1061.24 211.233 1063.09 209.388 1063.09 207.112C1063.09 204.836 1061.24 202.991 1058.96 202.991C1056.68 202.991 1054.84 204.836 1054.84 207.112C1054.84 209.388 1056.68 211.233 1058.96 211.233Z" fill="white"/>
<path d="M1032.39 211.233C1034.67 211.233 1036.51 209.388 1036.51 207.112C1036.51 204.836 1034.67 202.991 1032.39 202.991C1030.11 202.991 1028.26 204.836 1028.26 207.112C1028.26 209.388 1030.11 211.233 1032.39 211.233Z" fill="white"/>
<path d="M1005.81 211.233C1008.09 211.233 1009.94 209.388 1009.94 207.112C1009.94 204.836 1008.09 202.991 1005.81 202.991C1003.53 202.991 1001.68 204.836 1001.68 207.112C1001.68 209.388 1003.53 211.233 1005.81 211.233Z" fill="white"/>
<path d="M1005.79 211.233C1008.07 211.233 1009.91 209.388 1009.91 207.112C1009.91 204.836 1008.07 202.991 1005.79 202.991C1003.51 202.991 1001.66 204.836 1001.66 207.112C1001.66 209.388 1003.51 211.233 1005.79 211.233Z" fill="white"/>
<path d="M1005.76 211.233C1008.04 211.233 1009.89 209.388 1009.89 207.112C1009.89 204.836 1008.04 202.991 1005.76 202.991C1003.48 202.991 1001.63 204.836 1001.63 207.112C1001.63 209.388 1003.48 211.233 1005.76 211.233Z" fill="white"/>
<path d="M979.183 211.233C981.462 211.233 983.31 209.388 983.31 207.112C983.31 204.836 981.462 202.991 979.183 202.991C976.904 202.991 975.057 204.836 975.057 207.112C975.057 209.388 976.904 211.233 979.183 211.233Z" fill="white"/>
<path d="M1058.96 237.774C1061.24 237.774 1063.09 235.929 1063.09 233.653C1063.09 231.377 1061.24 229.532 1058.96 229.532C1056.68 229.532 1054.84 231.377 1054.84 233.653C1054.84 235.929 1056.68 237.774 1058.96 237.774Z" fill="white"/>
<path d="M1032.39 237.774C1034.67 237.774 1036.51 235.929 1036.51 233.653C1036.51 231.377 1034.67 229.532 1032.39 229.532C1030.11 229.532 1028.26 231.377 1028.26 233.653C1028.26 235.929 1030.11 237.774 1032.39 237.774Z" fill="white"/>
<path d="M1005.81 237.774C1008.09 237.774 1009.94 235.929 1009.94 233.653C1009.94 231.377 1008.09 229.532 1005.81 229.532C1003.53 229.532 1001.68 231.377 1001.68 233.653C1001.68 235.929 1003.53 237.774 1005.81 237.774Z" fill="white"/>
<path d="M1005.79 237.774C1008.07 237.774 1009.91 235.929 1009.91 233.653C1009.91 231.377 1008.07 229.532 1005.79 229.532C1003.51 229.532 1001.66 231.377 1001.66 233.653C1001.66 235.929 1003.51 237.774 1005.79 237.774Z" fill="white"/>
<path d="M1005.76 237.774C1008.04 237.774 1009.89 235.929 1009.89 233.653C1009.89 231.377 1008.04 229.532 1005.76 229.532C1003.48 229.532 1001.63 231.377 1001.63 233.653C1001.63 235.929 1003.48 237.774 1005.76 237.774Z" fill="white"/>
<path d="M979.183 237.774C981.462 237.774 983.31 235.929 983.31 233.653C983.31 231.377 981.462 229.532 979.183 229.532C976.904 229.532 975.057 231.377 975.057 233.653C975.057 235.929 976.904 237.774 979.183 237.774Z" fill="white"/>
<path d="M1058.96 211.233C1061.24 211.233 1063.09 209.388 1063.09 207.112C1063.09 204.836 1061.24 202.991 1058.96 202.991C1056.68 202.991 1054.84 204.836 1054.84 207.112C1054.84 209.388 1056.68 211.233 1058.96 211.233Z" fill="white"/>
<path d="M1085.54 237.774C1087.82 237.774 1089.67 235.929 1089.67 233.653C1089.67 231.377 1087.82 229.532 1085.54 229.532C1083.26 229.532 1081.41 231.377 1081.41 233.653C1081.41 235.929 1083.26 237.774 1085.54 237.774Z" fill="white"/>
<path d="M1058.96 237.774C1061.24 237.774 1063.09 235.929 1063.09 233.653C1063.09 231.377 1061.24 229.532 1058.96 229.532C1056.68 229.532 1054.84 231.377 1054.84 233.653C1054.84 235.929 1056.68 237.774 1058.96 237.774Z" fill="white"/>
<path d="M899.461 184.692C901.74 184.692 903.587 182.847 903.587 180.571C903.587 178.295 901.74 176.45 899.461 176.45C897.182 176.45 895.335 178.295 895.335 180.571C895.335 182.847 897.182 184.692 899.461 184.692Z" fill="#0185AE"/>
<path d="M872.885 184.692C875.164 184.692 877.011 182.847 877.011 180.571C877.011 178.295 875.164 176.45 872.885 176.45C870.606 176.45 868.759 178.295 868.759 180.571C868.759 182.847 870.606 184.692 872.885 184.692Z" fill="#0185AE"/>
<path d="M846.315 184.692C848.594 184.692 850.441 182.847 850.441 180.571C850.441 178.295 848.594 176.45 846.315 176.45C844.036 176.45 842.188 178.295 842.188 180.571C842.188 182.847 844.036 184.692 846.315 184.692Z" fill="#0185AE"/>
<path d="M979.183 158.18C981.462 158.18 983.31 156.335 983.31 154.059C983.31 151.783 981.462 149.938 979.183 149.938C976.904 149.938 975.057 151.783 975.057 154.059C975.057 156.335 976.904 158.18 979.183 158.18Z" fill="#0185AE"/>
<path d="M952.607 158.18C954.886 158.18 956.734 156.335 956.734 154.059C956.734 151.783 954.886 149.938 952.607 149.938C950.328 149.938 948.481 151.783 948.481 154.059C948.481 156.335 950.328 158.18 952.607 158.18Z" fill="#0185AE"/>
<path d="M926.037 158.18C928.316 158.18 930.163 156.335 930.163 154.059C930.163 151.783 928.316 149.938 926.037 149.938C923.758 149.938 921.911 151.783 921.911 154.059C921.911 156.335 923.758 158.18 926.037 158.18Z" fill="#0185AE"/>
<path d="M899.461 158.18C901.74 158.18 903.587 156.335 903.587 154.059C903.587 151.783 901.74 149.938 899.461 149.938C897.182 149.938 895.335 151.783 895.335 154.059C895.335 156.335 897.182 158.18 899.461 158.18Z" fill="#0185AE"/>
<path d="M979.183 264.315C981.462 264.315 983.31 262.47 983.31 260.194C983.31 257.918 981.462 256.073 979.183 256.073C976.904 256.073 975.057 257.918 975.057 260.194C975.057 262.47 976.904 264.315 979.183 264.315Z" fill="#0185AE"/>
<path d="M952.607 264.315C954.886 264.315 956.734 262.47 956.734 260.194C956.734 257.918 954.886 256.073 952.607 256.073C950.328 256.073 948.481 257.918 948.481 260.194C948.481 262.47 950.328 264.315 952.607 264.315Z" fill="#0185AE"/>
<path d="M899.461 264.315C901.74 264.315 903.587 262.47 903.587 260.194C903.587 257.918 901.74 256.073 899.461 256.073C897.182 256.073 895.335 257.918 895.335 260.194C895.335 262.47 897.182 264.315 899.461 264.315Z" fill="#0185AE"/>
<path d="M872.885 264.315C875.164 264.315 877.011 262.47 877.011 260.194C877.011 257.918 875.164 256.073 872.885 256.073C870.606 256.073 868.759 257.918 868.759 260.194C868.759 262.47 870.606 264.315 872.885 264.315Z" fill="#0185AE"/>
<path d="M846.315 237.774C848.594 237.774 850.441 235.929 850.441 233.653C850.441 231.377 848.594 229.532 846.315 229.532C844.036 229.532 842.188 231.377 842.188 233.653C842.188 235.929 844.036 237.774 846.315 237.774Z" fill="#0185AE"/>
<path d="M1058.96 264.315C1061.24 264.315 1063.09 262.47 1063.09 260.194C1063.09 257.918 1061.24 256.073 1058.96 256.073C1056.68 256.073 1054.84 257.918 1054.84 260.194C1054.84 262.47 1056.68 264.315 1058.96 264.315Z" fill="#0185AE"/>
<path d="M1032.39 264.315C1034.67 264.315 1036.51 262.47 1036.51 260.194C1036.51 257.918 1034.67 256.073 1032.39 256.073C1030.11 256.073 1028.26 257.918 1028.26 260.194C1028.26 262.47 1030.11 264.315 1032.39 264.315Z" fill="#0185AE"/>
<path d="M1005.81 264.315C1008.09 264.315 1009.94 262.47 1009.94 260.194C1009.94 257.918 1008.09 256.073 1005.81 256.073C1003.53 256.073 1001.68 257.918 1001.68 260.194C1001.68 262.47 1003.53 264.315 1005.81 264.315Z" fill="#0185AE"/>
<path d="M1005.79 264.315C1008.07 264.315 1009.91 262.47 1009.91 260.194C1009.91 257.918 1008.07 256.073 1005.79 256.073C1003.51 256.073 1001.66 257.918 1001.66 260.194C1001.66 262.47 1003.51 264.315 1005.79 264.315Z" fill="#0185AE"/>
<path d="M1005.76 264.315C1008.04 264.315 1009.89 262.47 1009.89 260.194C1009.89 257.918 1008.04 256.073 1005.76 256.073C1003.48 256.073 1001.63 257.918 1001.63 260.194C1001.63 262.47 1003.48 264.315 1005.76 264.315Z" fill="#0185AE"/>
<path d="M979.183 264.315C981.462 264.315 983.31 262.47 983.31 260.194C983.31 257.918 981.462 256.073 979.183 256.073C976.904 256.073 975.057 257.918 975.057 260.194C975.057 262.47 976.904 264.315 979.183 264.315Z" fill="#0185AE"/>
<path d="M1191.83 237.774C1194.11 237.774 1195.96 235.929 1195.96 233.653C1195.96 231.377 1194.11 229.532 1191.83 229.532C1189.55 229.532 1187.71 231.377 1187.71 233.653C1187.71 235.929 1189.55 237.774 1191.83 237.774Z" fill="#0185AE"/>
<path d="M1165.26 264.315C1167.54 264.315 1169.39 262.47 1169.39 260.194C1169.39 257.918 1167.54 256.073 1165.26 256.073C1162.98 256.073 1161.13 257.918 1161.13 260.194C1161.13 262.47 1162.98 264.315 1165.26 264.315Z" fill="#0185AE"/>
<path d="M1138.69 264.315C1140.96 264.315 1142.81 262.47 1142.81 260.194C1142.81 257.918 1140.96 256.073 1138.69 256.073C1136.41 256.073 1134.56 257.918 1134.56 260.194C1134.56 262.47 1136.41 264.315 1138.69 264.315Z" fill="#0185AE"/>
<path d="M1085.54 264.315C1087.82 264.315 1089.67 262.47 1089.67 260.194C1089.67 257.918 1087.82 256.073 1085.54 256.073C1083.26 256.073 1081.41 257.918 1081.41 260.194C1081.41 262.47 1083.26 264.315 1085.54 264.315Z" fill="#0185AE"/>
<path d="M1058.96 264.315C1061.24 264.315 1063.09 262.47 1063.09 260.194C1063.09 257.918 1061.24 256.073 1058.96 256.073C1056.68 256.073 1054.84 257.918 1054.84 260.194C1054.84 262.47 1056.68 264.315 1058.96 264.315Z" fill="#0185AE"/>
<path d="M979.183 264.315C981.462 264.315 983.31 262.47 983.31 260.194C983.31 257.918 981.462 256.073 979.183 256.073C976.904 256.073 975.057 257.918 975.057 260.194C975.057 262.47 976.904 264.315 979.183 264.315Z" fill="#0185AE"/>
<path d="M979.183 290.85C981.462 290.85 983.31 289.005 983.31 286.729C983.31 284.454 981.462 282.609 979.183 282.609C976.904 282.609 975.057 284.454 975.057 286.729C975.057 289.005 976.904 290.85 979.183 290.85Z" fill="#0185AE"/>
<path d="M952.607 264.315C954.886 264.315 956.734 262.47 956.734 260.194C956.734 257.918 954.886 256.073 952.607 256.073C950.328 256.073 948.481 257.918 948.481 260.194C948.481 262.47 950.328 264.315 952.607 264.315Z" fill="#0185AE"/>
<path d="M952.607 290.85C954.886 290.85 956.734 289.005 956.734 286.729C956.734 284.454 954.886 282.609 952.607 282.609C950.328 282.609 948.481 284.454 948.481 286.729C948.481 289.005 950.328 290.85 952.607 290.85Z" fill="#0185AE"/>
<path d="M899.461 264.315C901.74 264.315 903.587 262.47 903.587 260.194C903.587 257.918 901.74 256.073 899.461 256.073C897.182 256.073 895.335 257.918 895.335 260.194C895.335 262.47 897.182 264.315 899.461 264.315Z" fill="#0185AE"/>
<path d="M899.461 290.85C901.74 290.85 903.587 289.005 903.587 286.729C903.587 284.454 901.74 282.609 899.461 282.609C897.182 282.609 895.335 284.454 895.335 286.729C895.335 289.005 897.182 290.85 899.461 290.85Z" fill="#0185AE"/>
<path d="M872.885 264.315C875.164 264.315 877.011 262.47 877.011 260.194C877.011 257.918 875.164 256.073 872.885 256.073C870.606 256.073 868.759 257.918 868.759 260.194C868.759 262.47 870.606 264.315 872.885 264.315Z" fill="#0185AE"/>
<path d="M872.885 290.85C875.164 290.85 877.011 289.005 877.011 286.729C877.011 284.454 875.164 282.609 872.885 282.609C870.606 282.609 868.759 284.454 868.759 286.729C868.759 289.005 870.606 290.85 872.885 290.85Z" fill="#0185AE"/>
<path d="M979.183 343.932C981.462 343.932 983.31 342.087 983.31 339.812C983.31 337.536 981.462 335.691 979.183 335.691C976.904 335.691 975.057 337.536 975.057 339.812C975.057 342.087 976.904 343.932 979.183 343.932Z" fill="#0185AE"/>
<path d="M952.607 343.932C954.886 343.932 956.734 342.087 956.734 339.812C956.734 337.536 954.886 335.691 952.607 335.691C950.328 335.691 948.481 337.536 948.481 339.812C948.481 342.087 950.328 343.932 952.607 343.932Z" fill="#0185AE"/>
<path d="M926.037 317.391C928.316 317.391 930.163 315.546 930.163 313.271C930.163 310.995 928.316 309.15 926.037 309.15C923.758 309.15 921.911 310.995 921.911 313.271C921.911 315.546 923.758 317.391 926.037 317.391Z" fill="#0185AE"/>
<path d="M872.885 343.932C875.164 343.932 877.011 342.087 877.011 339.812C877.011 337.536 875.164 335.691 872.885 335.691C870.606 335.691 868.759 337.536 868.759 339.812C868.759 342.087 870.606 343.932 872.885 343.932Z" fill="#0185AE"/>
<path d="M846.315 343.932C848.594 343.932 850.441 342.087 850.441 339.812C850.441 337.536 848.594 335.691 846.315 335.691C844.036 335.691 842.188 337.536 842.188 339.812C842.188 342.087 844.036 343.932 846.315 343.932Z" fill="#0185AE"/>
<path d="M1058.96 264.315C1061.24 264.315 1063.09 262.47 1063.09 260.194C1063.09 257.918 1061.24 256.073 1058.96 256.073C1056.68 256.073 1054.84 257.918 1054.84 260.194C1054.84 262.47 1056.68 264.315 1058.96 264.315Z" fill="#0185AE"/>
<path d="M1058.96 290.85C1061.24 290.85 1063.09 289.005 1063.09 286.729C1063.09 284.454 1061.24 282.609 1058.96 282.609C1056.68 282.609 1054.84 284.454 1054.84 286.729C1054.84 289.005 1056.68 290.85 1058.96 290.85Z" fill="#0185AE"/>
<path d="M1032.39 264.315C1034.67 264.315 1036.51 262.47 1036.51 260.194C1036.51 257.918 1034.67 256.073 1032.39 256.073C1030.11 256.073 1028.26 257.918 1028.26 260.194C1028.26 262.47 1030.11 264.315 1032.39 264.315Z" fill="#0185AE"/>
<path d="M1032.39 290.85C1034.67 290.85 1036.51 289.005 1036.51 286.729C1036.51 284.454 1034.67 282.609 1032.39 282.609C1030.11 282.609 1028.26 284.454 1028.26 286.729C1028.26 289.005 1030.11 290.85 1032.39 290.85Z" fill="#0185AE"/>
<path d="M1005.81 264.315C1008.09 264.315 1009.94 262.47 1009.94 260.194C1009.94 257.918 1008.09 256.073 1005.81 256.073C1003.53 256.073 1001.68 257.918 1001.68 260.194C1001.68 262.47 1003.53 264.315 1005.81 264.315Z" fill="#0185AE"/>
<path d="M1005.81 290.85C1008.09 290.85 1009.94 289.005 1009.94 286.729C1009.94 284.454 1008.09 282.609 1005.81 282.609C1003.53 282.609 1001.68 284.454 1001.68 286.729C1001.68 289.005 1003.53 290.85 1005.81 290.85Z" fill="#0185AE"/>
<path d="M1005.79 264.315C1008.07 264.315 1009.91 262.47 1009.91 260.194C1009.91 257.918 1008.07 256.073 1005.79 256.073C1003.51 256.073 1001.66 257.918 1001.66 260.194C1001.66 262.47 1003.51 264.315 1005.79 264.315Z" fill="#0185AE"/>
<path d="M1005.79 290.85C1008.07 290.85 1009.91 289.005 1009.91 286.729C1009.91 284.454 1008.07 282.609 1005.79 282.609C1003.51 282.609 1001.66 284.454 1001.66 286.729C1001.66 289.005 1003.51 290.85 1005.79 290.85Z" fill="#0185AE"/>
<path d="M1005.76 264.315C1008.04 264.315 1009.89 262.47 1009.89 260.194C1009.89 257.918 1008.04 256.073 1005.76 256.073C1003.48 256.073 1001.63 257.918 1001.63 260.194C1001.63 262.47 1003.48 264.315 1005.76 264.315Z" fill="#0185AE"/>
<path d="M1005.76 290.85C1008.04 290.85 1009.89 289.005 1009.89 286.729C1009.89 284.454 1008.04 282.609 1005.76 282.609C1003.48 282.609 1001.63 284.454 1001.63 286.729C1001.63 289.005 1003.48 290.85 1005.76 290.85Z" fill="#0185AE"/>
<path d="M979.183 264.315C981.462 264.315 983.31 262.47 983.31 260.194C983.31 257.918 981.462 256.073 979.183 256.073C976.904 256.073 975.057 257.918 975.057 260.194C975.057 262.47 976.904 264.315 979.183 264.315Z" fill="#0185AE"/>
<path d="M979.183 290.85C981.462 290.85 983.31 289.005 983.31 286.729C983.31 284.454 981.462 282.609 979.183 282.609C976.904 282.609 975.057 284.454 975.057 286.729C975.057 289.005 976.904 290.85 979.183 290.85Z" fill="#0185AE"/>
<path d="M872.995 264.315C875.274 264.315 877.121 262.47 877.121 260.194C877.121 257.918 875.274 256.073 872.995 256.073C870.716 256.073 868.868 257.918 868.868 260.194C868.868 262.47 870.716 264.315 872.995 264.315Z" fill="#0185AE"/>
<path d="M846.419 264.315C848.698 264.315 850.545 262.47 850.545 260.194C850.545 257.918 848.698 256.073 846.419 256.073C844.14 256.073 842.292 257.918 842.292 260.194C842.292 262.47 844.14 264.315 846.419 264.315Z" fill="#0185AE"/>
<path d="M793.273 264.315C795.551 264.315 797.399 262.47 797.399 260.194C797.399 257.918 795.551 256.073 793.273 256.073C790.994 256.073 789.146 257.918 789.146 260.194C789.146 262.47 790.994 264.315 793.273 264.315Z" fill="#0185AE"/>
<path d="M766.697 264.315C768.975 264.315 770.823 262.47 770.823 260.194C770.823 257.918 768.975 256.073 766.697 256.073C764.418 256.073 762.57 257.918 762.57 260.194C762.57 262.47 764.418 264.315 766.697 264.315Z" fill="#0185AE"/>
<path d="M740.126 237.774C742.405 237.774 744.253 235.929 744.253 233.653C744.253 231.377 742.405 229.532 740.126 229.532C737.847 229.532 736 231.377 736 233.653C736 235.929 737.847 237.774 740.126 237.774Z" fill="#0185AE"/>
<path d="M872.995 264.315C875.274 264.315 877.121 262.47 877.121 260.194C877.121 257.918 875.274 256.073 872.995 256.073C870.716 256.073 868.868 257.918 868.868 260.194C868.868 262.47 870.716 264.315 872.995 264.315Z" fill="#0185AE"/>
<path d="M872.995 264.315C875.274 264.315 877.121 262.47 877.121 260.194C877.121 257.918 875.274 256.073 872.995 256.073C870.716 256.073 868.868 257.918 868.868 260.194C868.868 262.47 870.716 264.315 872.995 264.315Z" fill="#0185AE"/>
<path d="M872.995 290.85C875.274 290.85 877.121 289.005 877.121 286.729C877.121 284.454 875.274 282.609 872.995 282.609C870.716 282.609 868.868 284.454 868.868 286.729C868.868 289.005 870.716 290.85 872.995 290.85Z" fill="#0185AE"/>
<path d="M846.419 264.315C848.698 264.315 850.545 262.47 850.545 260.194C850.545 257.918 848.698 256.073 846.419 256.073C844.14 256.073 842.292 257.918 842.292 260.194C842.292 262.47 844.14 264.315 846.419 264.315Z" fill="#0185AE"/>
<path d="M846.419 290.85C848.698 290.85 850.545 289.005 850.545 286.729C850.545 284.454 848.698 282.609 846.419 282.609C844.14 282.609 842.292 284.454 842.292 286.729C842.292 289.005 844.14 290.85 846.419 290.85Z" fill="#0185AE"/>
<path d="M793.273 264.315C795.551 264.315 797.399 262.47 797.399 260.194C797.399 257.918 795.551 256.073 793.273 256.073C790.994 256.073 789.146 257.918 789.146 260.194C789.146 262.47 790.994 264.315 793.273 264.315Z" fill="#0185AE"/>
<path d="M793.273 290.85C795.551 290.85 797.399 289.005 797.399 286.729C797.399 284.454 795.551 282.609 793.273 282.609C790.994 282.609 789.146 284.454 789.146 286.729C789.146 289.005 790.994 290.85 793.273 290.85Z" fill="#0185AE"/>
<path d="M766.697 264.315C768.975 264.315 770.823 262.47 770.823 260.194C770.823 257.918 768.975 256.073 766.697 256.073C764.418 256.073 762.57 257.918 762.57 260.194C762.57 262.47 764.418 264.315 766.697 264.315Z" fill="#0185AE"/>
<path d="M766.697 290.85C768.975 290.85 770.823 289.005 770.823 286.729C770.823 284.454 768.975 282.609 766.697 282.609C764.418 282.609 762.57 284.454 762.57 286.729C762.57 289.005 764.418 290.85 766.697 290.85Z" fill="#0185AE"/>
<path d="M819.848 317.391C822.127 317.391 823.975 315.546 823.975 313.271C823.975 310.995 822.127 309.15 819.848 309.15C817.57 309.15 815.722 310.995 815.722 313.271C815.722 315.546 817.57 317.391 819.848 317.391Z" fill="#0185AE"/>
<path d="M872.995 264.315C875.274 264.315 877.121 262.47 877.121 260.194C877.121 257.918 875.274 256.073 872.995 256.073C870.716 256.073 868.868 257.918 868.868 260.194C868.868 262.47 870.716 264.315 872.995 264.315Z" fill="#0185AE"/>
<path d="M872.995 290.85C875.274 290.85 877.121 289.005 877.121 286.729C877.121 284.454 875.274 282.609 872.995 282.609C870.716 282.609 868.868 284.454 868.868 286.729C868.868 289.005 870.716 290.85 872.995 290.85Z" fill="#0185AE"/>
<path d="M1058.96 343.932C1061.24 343.932 1063.09 342.087 1063.09 339.812C1063.09 337.536 1061.24 335.691 1058.96 335.691C1056.68 335.691 1054.84 337.536 1054.84 339.812C1054.84 342.087 1056.68 343.932 1058.96 343.932Z" fill="#0185AE"/>
<path d="M1032.39 343.932C1034.67 343.932 1036.51 342.087 1036.51 339.812C1036.51 337.536 1034.67 335.691 1032.39 335.691C1030.11 335.691 1028.26 337.536 1028.26 339.812C1028.26 342.087 1030.11 343.932 1032.39 343.932Z" fill="#0185AE"/>
<path d="M1005.81 343.932C1008.09 343.932 1009.94 342.087 1009.94 339.812C1009.94 337.536 1008.09 335.691 1005.81 335.691C1003.53 335.691 1001.68 337.536 1001.68 339.812C1001.68 342.087 1003.53 343.932 1005.81 343.932Z" fill="#0185AE"/>
<path d="M1005.79 343.932C1008.07 343.932 1009.91 342.087 1009.91 339.812C1009.91 337.536 1008.07 335.691 1005.79 335.691C1003.51 335.691 1001.66 337.536 1001.66 339.812C1001.66 342.087 1003.51 343.932 1005.79 343.932Z" fill="#0185AE"/>
<path d="M1005.76 343.932C1008.04 343.932 1009.89 342.087 1009.89 339.812C1009.89 337.536 1008.04 335.691 1005.76 335.691C1003.48 335.691 1001.63 337.536 1001.63 339.812C1001.63 342.087 1003.48 343.932 1005.76 343.932Z" fill="#0185AE"/>
<path d="M979.183 343.932C981.462 343.932 983.31 342.087 983.31 339.812C983.31 337.536 981.462 335.691 979.183 335.691C976.904 335.691 975.057 337.536 975.057 339.812C975.057 342.087 976.904 343.932 979.183 343.932Z" fill="#0185AE"/>
<path d="M1165.26 264.315C1167.54 264.315 1169.39 262.47 1169.39 260.194C1169.39 257.918 1167.54 256.073 1165.26 256.073C1162.98 256.073 1161.13 257.918 1161.13 260.194C1161.13 262.47 1162.98 264.315 1165.26 264.315Z" fill="#0185AE"/>
<path d="M1138.69 264.315C1140.96 264.315 1142.81 262.47 1142.81 260.194C1142.81 257.918 1140.96 256.073 1138.69 256.073C1136.41 256.073 1134.56 257.918 1134.56 260.194C1134.56 262.47 1136.41 264.315 1138.69 264.315Z" fill="#0185AE"/>
<path d="M1085.54 264.315C1087.82 264.315 1089.67 262.47 1089.67 260.194C1089.67 257.918 1087.82 256.073 1085.54 256.073C1083.26 256.073 1081.41 257.918 1081.41 260.194C1081.41 262.47 1083.26 264.315 1085.54 264.315Z" fill="#0185AE"/>
<path d="M1058.96 264.315C1061.24 264.315 1063.09 262.47 1063.09 260.194C1063.09 257.918 1061.24 256.073 1058.96 256.073C1056.68 256.073 1054.84 257.918 1054.84 260.194C1054.84 262.47 1056.68 264.315 1058.96 264.315Z" fill="#0185AE"/>
<path d="M1112.11 317.391C1114.39 317.391 1116.24 315.546 1116.24 313.271C1116.24 310.995 1114.39 309.15 1112.11 309.15C1109.83 309.15 1107.98 310.995 1107.98 313.271C1107.98 315.546 1109.83 317.391 1112.11 317.391Z" fill="#0185AE"/>
<path d="M1085.54 343.932C1087.82 343.932 1089.67 342.087 1089.67 339.812C1089.67 337.536 1087.82 335.691 1085.54 335.691C1083.26 335.691 1081.41 337.536 1081.41 339.812C1081.41 342.087 1083.26 343.932 1085.54 343.932Z" fill="#0185AE"/>
<path d="M1058.96 343.932C1061.24 343.932 1063.09 342.087 1063.09 339.812C1063.09 337.536 1061.24 335.691 1058.96 335.691C1056.68 335.691 1054.84 337.536 1054.84 339.812C1054.84 342.087 1056.68 343.932 1058.96 343.932Z" fill="#0185AE"/>
<path d="M926.089 343.852C928.368 343.852 930.215 342.007 930.215 339.731C930.215 337.455 928.368 335.61 926.089 335.61C923.81 335.61 921.963 337.455 921.963 339.731C921.963 342.007 923.81 343.852 926.089 343.852Z" fill="#0185AE"/>
<path d="M899.513 343.852C901.792 343.852 903.639 342.007 903.639 339.731C903.639 337.455 901.792 335.61 899.513 335.61C897.234 335.61 895.387 337.455 895.387 339.731C895.387 342.007 897.234 343.852 899.513 343.852Z" fill="#0185AE"/>
<path d="M846.367 343.852C848.646 343.852 850.493 342.007 850.493 339.731C850.493 337.455 848.646 335.61 846.367 335.61C844.088 335.61 842.24 337.455 842.24 339.731C842.24 342.007 844.088 343.852 846.367 343.852Z" fill="#0185AE"/>
<path d="M819.791 343.852C822.07 343.852 823.917 342.007 823.917 339.731C823.917 337.455 822.07 335.61 819.791 335.61C817.512 335.61 815.664 337.455 815.664 339.731C815.664 342.007 817.512 343.852 819.791 343.852Z" fill="#0185AE"/>
<path d="M793.221 317.311C795.5 317.311 797.347 315.466 797.347 313.19C797.347 310.914 795.5 309.069 793.221 309.069C790.942 309.069 789.094 310.914 789.094 313.19C789.094 315.466 790.942 317.311 793.221 317.311Z" fill="#0185AE"/>
<path d="M1005.87 343.852C1008.15 343.852 1010 342.007 1010 339.731C1010 337.455 1008.15 335.61 1005.87 335.61C1003.59 335.61 1001.74 337.455 1001.74 339.731C1001.74 342.007 1003.59 343.852 1005.87 343.852Z" fill="#0185AE"/>
<path d="M979.293 343.852C981.572 343.852 983.419 342.007 983.419 339.731C983.419 337.455 981.572 335.61 979.293 335.61C977.014 335.61 975.166 337.455 975.166 339.731C975.166 342.007 977.014 343.852 979.293 343.852Z" fill="#0185AE"/>
<path d="M952.717 343.852C954.996 343.852 956.843 342.007 956.843 339.731C956.843 337.455 954.996 335.61 952.717 335.61C950.438 335.61 948.591 337.455 948.591 339.731C948.591 342.007 950.438 343.852 952.717 343.852Z" fill="#0185AE"/>
<path d="M952.694 343.852C954.973 343.852 956.82 342.007 956.82 339.731C956.82 337.455 954.973 335.61 952.694 335.61C950.415 335.61 948.567 337.455 948.567 339.731C948.567 342.007 950.415 343.852 952.694 343.852Z" fill="#0185AE"/>
<path d="M952.665 343.852C954.944 343.852 956.791 342.007 956.791 339.731C956.791 337.455 954.944 335.61 952.665 335.61C950.386 335.61 948.539 337.455 948.539 339.731C948.539 342.007 950.386 343.852 952.665 343.852Z" fill="#0185AE"/>
<path d="M926.089 343.852C928.368 343.852 930.215 342.007 930.215 339.731C930.215 337.455 928.368 335.61 926.089 335.61C923.81 335.61 921.963 337.455 921.963 339.731C921.963 342.007 923.81 343.852 926.089 343.852Z" fill="#0185AE"/>
<path d="M1032.44 343.852C1034.72 343.852 1036.57 342.007 1036.57 339.731C1036.57 337.455 1034.72 335.61 1032.44 335.61C1030.17 335.61 1028.32 337.455 1028.32 339.731C1028.32 342.007 1030.17 343.852 1032.44 343.852Z" fill="#0185AE"/>
<path d="M1005.87 343.852C1008.15 343.852 1010 342.007 1010 339.731C1010 337.455 1008.15 335.61 1005.87 335.61C1003.59 335.61 1001.74 337.455 1001.74 339.731C1001.74 342.007 1003.59 343.852 1005.87 343.852Z" fill="#0185AE"/>
<path d="M926.089 370.387C928.368 370.387 930.215 368.542 930.215 366.266C930.215 363.99 928.368 362.145 926.089 362.145C923.81 362.145 921.963 363.99 921.963 366.266C921.963 368.542 923.81 370.387 926.089 370.387Z" fill="#0185AE"/>
<path d="M899.513 343.852C901.792 343.852 903.639 342.007 903.639 339.731C903.639 337.455 901.792 335.61 899.513 335.61C897.234 335.61 895.387 337.455 895.387 339.731C895.387 342.007 897.234 343.852 899.513 343.852Z" fill="#0185AE"/>
<path d="M899.513 370.387C901.792 370.387 903.639 368.542 903.639 366.266C903.639 363.99 901.792 362.145 899.513 362.145C897.234 362.145 895.387 363.99 895.387 366.266C895.387 368.542 897.234 370.387 899.513 370.387Z" fill="#0185AE"/>
<path d="M846.367 343.852C848.646 343.852 850.493 342.007 850.493 339.731C850.493 337.455 848.646 335.61 846.367 335.61C844.088 335.61 842.24 337.455 842.24 339.731C842.24 342.007 844.088 343.852 846.367 343.852Z" fill="#0185AE"/>
<path d="M846.367 370.387C848.646 370.387 850.493 368.542 850.493 366.266C850.493 363.99 848.646 362.145 846.367 362.145C844.088 362.145 842.24 363.99 842.24 366.266C842.24 368.542 844.088 370.387 846.367 370.387Z" fill="#0185AE"/>
<path d="M819.791 343.852C822.07 343.852 823.917 342.007 823.917 339.731C823.917 337.455 822.07 335.61 819.791 335.61C817.512 335.61 815.664 337.455 815.664 339.731C815.664 342.007 817.512 343.852 819.791 343.852Z" fill="#0185AE"/>
<path d="M819.791 370.387C822.07 370.387 823.917 368.542 823.917 366.266C823.917 363.99 822.07 362.145 819.791 362.145C817.512 362.145 815.664 363.99 815.664 366.266C815.664 368.542 817.512 370.387 819.791 370.387Z" fill="#0185AE"/>
<path d="M926.089 423.469C928.368 423.469 930.215 421.624 930.215 419.348C930.215 417.072 928.368 415.227 926.089 415.227C923.81 415.227 921.963 417.072 921.963 419.348C921.963 421.624 923.81 423.469 926.089 423.469Z" fill="#0185AE"/>
<path d="M899.513 423.469C901.792 423.469 903.639 421.624 903.639 419.348C903.639 417.072 901.792 415.227 899.513 415.227C897.234 415.227 895.387 417.072 895.387 419.348C895.387 421.624 897.234 423.469 899.513 423.469Z" fill="#0185AE"/>
<path d="M872.943 396.928C875.222 396.928 877.069 395.083 877.069 392.807C877.069 390.531 875.222 388.686 872.943 388.686C870.664 388.686 868.816 390.531 868.816 392.807C868.816 395.083 870.664 396.928 872.943 396.928Z" fill="#0185AE"/>
<path d="M819.791 423.469C822.07 423.469 823.917 421.624 823.917 419.348C823.917 417.072 822.07 415.227 819.791 415.227C817.512 415.227 815.664 417.072 815.664 419.348C815.664 421.624 817.512 423.469 819.791 423.469Z" fill="#0185AE"/>
<path d="M793.221 423.469C795.5 423.469 797.347 421.624 797.347 419.348C797.347 417.072 795.5 415.227 793.221 415.227C790.942 415.227 789.094 417.072 789.094 419.348C789.094 421.624 790.942 423.469 793.221 423.469Z" fill="#0185AE"/>
<path d="M1005.87 343.852C1008.15 343.852 1010 342.007 1010 339.731C1010 337.455 1008.15 335.61 1005.87 335.61C1003.59 335.61 1001.74 337.455 1001.74 339.731C1001.74 342.007 1003.59 343.852 1005.87 343.852Z" fill="#0185AE"/>
<path d="M1005.87 370.387C1008.15 370.387 1010 368.542 1010 366.266C1010 363.99 1008.15 362.145 1005.87 362.145C1003.59 362.145 1001.74 363.99 1001.74 366.266C1001.74 368.542 1003.59 370.387 1005.87 370.387Z" fill="#0185AE"/>
<path d="M979.293 343.852C981.572 343.852 983.419 342.007 983.419 339.731C983.419 337.455 981.572 335.61 979.293 335.61C977.014 335.61 975.166 337.455 975.166 339.731C975.166 342.007 977.014 343.852 979.293 343.852Z" fill="#0185AE"/>
<path d="M979.293 370.387C981.572 370.387 983.419 368.542 983.419 366.266C983.419 363.99 981.572 362.145 979.293 362.145C977.014 362.145 975.166 363.99 975.166 366.266C975.166 368.542 977.014 370.387 979.293 370.387Z" fill="#FF2D6E"/>
<path d="M952.717 343.852C954.996 343.852 956.843 342.007 956.843 339.731C956.843 337.455 954.996 335.61 952.717 335.61C950.438 335.61 948.591 337.455 948.591 339.731C948.591 342.007 950.438 343.852 952.717 343.852Z" fill="#0185AE"/>
<path d="M952.717 370.387C954.996 370.387 956.843 368.542 956.843 366.266C956.843 363.99 954.996 362.145 952.717 362.145C950.438 362.145 948.591 363.99 948.591 366.266C948.591 368.542 950.438 370.387 952.717 370.387Z" fill="#0185AE"/>
<path d="M952.694 343.852C954.973 343.852 956.82 342.007 956.82 339.731C956.82 337.455 954.973 335.61 952.694 335.61C950.415 335.61 948.567 337.455 948.567 339.731C948.567 342.007 950.415 343.852 952.694 343.852Z" fill="#0185AE"/>
<path d="M952.694 370.387C954.973 370.387 956.82 368.542 956.82 366.266C956.82 363.99 954.973 362.145 952.694 362.145C950.415 362.145 948.567 363.99 948.567 366.266C948.567 368.542 950.415 370.387 952.694 370.387Z" fill="#0185AE"/>
<path d="M952.665 343.852C954.944 343.852 956.791 342.007 956.791 339.731C956.791 337.455 954.944 335.61 952.665 335.61C950.386 335.61 948.539 337.455 948.539 339.731C948.539 342.007 950.386 343.852 952.665 343.852Z" fill="#0185AE"/>
<path d="M952.665 370.387C954.944 370.387 956.791 368.542 956.791 366.266C956.791 363.99 954.944 362.145 952.665 362.145C950.386 362.145 948.539 363.99 948.539 366.266C948.539 368.542 950.386 370.387 952.665 370.387Z" fill="#0185AE"/>
<path d="M926.089 370.387C928.368 370.387 930.215 368.542 930.215 366.266C930.215 363.99 928.368 362.145 926.089 362.145C923.81 362.145 921.963 363.99 921.963 366.266C921.963 368.542 923.81 370.387 926.089 370.387Z" fill="#0185AE"/>
<path d="M1005.87 423.469C1008.15 423.469 1010 421.624 1010 419.348C1010 417.072 1008.15 415.227 1005.87 415.227C1003.59 415.227 1001.74 417.072 1001.74 419.348C1001.74 421.624 1003.59 423.469 1005.87 423.469Z" fill="#0185AE"/>
<path d="M979.293 423.469C981.572 423.469 983.419 421.624 983.419 419.348C983.419 417.072 981.572 415.227 979.293 415.227C977.014 415.227 975.166 417.072 975.166 419.348C975.166 421.624 977.014 423.469 979.293 423.469Z" fill="#0185AE"/>
<path d="M952.717 423.469C954.996 423.469 956.843 421.624 956.843 419.348C956.843 417.072 954.996 415.227 952.717 415.227C950.438 415.227 948.591 417.072 948.591 419.348C948.591 421.624 950.438 423.469 952.717 423.469Z" fill="#0185AE"/>
<path d="M952.694 423.469C954.973 423.469 956.82 421.624 956.82 419.348C956.82 417.072 954.973 415.227 952.694 415.227C950.415 415.227 948.567 417.072 948.567 419.348C948.567 421.624 950.415 423.469 952.694 423.469Z" fill="#0185AE"/>
<path d="M952.665 423.469C954.944 423.469 956.791 421.624 956.791 419.348C956.791 417.072 954.944 415.227 952.665 415.227C950.386 415.227 948.539 417.072 948.539 419.348C948.539 421.624 950.386 423.469 952.665 423.469Z" fill="#0185AE"/>
<path d="M926.089 423.469C928.368 423.469 930.215 421.624 930.215 419.348C930.215 417.072 928.368 415.227 926.089 415.227C923.81 415.227 921.963 417.072 921.963 419.348C921.963 421.624 923.81 423.469 926.089 423.469Z" fill="#0185AE"/>
<path d="M1032.44 343.852C1034.72 343.852 1036.57 342.007 1036.57 339.731C1036.57 337.455 1034.72 335.61 1032.44 335.61C1030.17 335.61 1028.32 337.455 1028.32 339.731C1028.32 342.007 1030.17 343.852 1032.44 343.852Z" fill="#0185AE"/>
<path d="M1005.87 343.852C1008.15 343.852 1010 342.007 1010 339.731C1010 337.455 1008.15 335.61 1005.87 335.61C1003.59 335.61 1001.74 337.455 1001.74 339.731C1001.74 342.007 1003.59 343.852 1005.87 343.852Z" fill="#0185AE"/>
<path d="M952.636 105.242C954.915 105.242 956.762 103.397 956.762 101.121C956.762 98.845 954.915 97 952.636 97C950.357 97 948.51 98.845 948.51 101.121C948.51 103.397 950.357 105.242 952.636 105.242Z" fill="#0185AE"/>
<path d="M926.06 105.242C928.339 105.242 930.186 103.397 930.186 101.121C930.186 98.845 928.339 97 926.06 97C923.781 97 921.934 98.845 921.934 101.121C921.934 103.397 923.781 105.242 926.06 105.242Z" fill="#0185AE"/>
<path d="M872.914 105.242C875.193 105.242 877.04 103.397 877.04 101.121C877.04 98.845 875.193 97 872.914 97C870.635 97 868.788 98.845 868.788 101.121C868.788 103.397 870.635 105.242 872.914 105.242Z" fill="#0185AE"/>
<path d="M846.338 105.242C848.617 105.242 850.464 103.397 850.464 101.121C850.464 98.845 848.617 97 846.338 97C844.059 97 842.212 98.845 842.212 101.121C842.212 103.397 844.059 105.242 846.338 105.242Z" fill="#0185AE"/>
<path d="M979.264 105.242C981.543 105.242 983.39 103.397 983.39 101.121C983.39 98.845 981.543 97 979.264 97C976.985 97 975.138 98.845 975.138 101.121C975.138 103.397 976.985 105.242 979.264 105.242Z" fill="#0185AE"/>
<path d="M979.241 105.242C981.52 105.242 983.367 103.397 983.367 101.121C983.367 98.845 981.52 97 979.241 97C976.962 97 975.115 98.845 975.115 101.121C975.115 103.397 976.962 105.242 979.241 105.242Z" fill="#0185AE"/>
<path d="M979.212 105.242C981.491 105.242 983.338 103.397 983.338 101.121C983.338 98.845 981.491 97 979.212 97C976.933 97 975.086 98.845 975.086 101.121C975.086 103.397 976.933 105.242 979.212 105.242Z" fill="#0185AE"/>
<path d="M952.636 105.242C954.915 105.242 956.762 103.397 956.762 101.121C956.762 98.845 954.915 97 952.636 97C950.357 97 948.51 98.845 948.51 101.121C948.51 103.397 950.357 105.242 952.636 105.242Z" fill="#0185AE"/>
<path d="M952.636 105.242C954.915 105.242 956.762 103.397 956.762 101.121C956.762 98.845 954.915 97 952.636 97C950.357 97 948.51 98.845 948.51 101.121C948.51 103.397 950.357 105.242 952.636 105.242Z" fill="#0185AE"/>
<path d="M952.636 131.777C954.915 131.777 956.762 129.932 956.762 127.656C956.762 125.38 954.915 123.535 952.636 123.535C950.357 123.535 948.51 125.38 948.51 127.656C948.51 129.932 950.357 131.777 952.636 131.777Z" fill="#0185AE"/>
<path d="M926.06 105.242C928.339 105.242 930.186 103.397 930.186 101.121C930.186 98.845 928.339 97 926.06 97C923.781 97 921.934 98.845 921.934 101.121C921.934 103.397 923.781 105.242 926.06 105.242Z" fill="#0185AE"/>
<path d="M926.06 131.777C928.339 131.777 930.186 129.932 930.186 127.656C930.186 125.38 928.339 123.535 926.06 123.535C923.781 123.535 921.934 125.38 921.934 127.656C921.934 129.932 923.781 131.777 926.06 131.777Z" fill="#0185AE"/>
<path d="M872.914 105.242C875.193 105.242 877.04 103.397 877.04 101.121C877.04 98.845 875.193 97 872.914 97C870.635 97 868.788 98.845 868.788 101.121C868.788 103.397 870.635 105.242 872.914 105.242Z" fill="#0185AE"/>
<path d="M872.914 131.777C875.193 131.777 877.04 129.932 877.04 127.656C877.04 125.38 875.193 123.535 872.914 123.535C870.635 123.535 868.788 125.38 868.788 127.656C868.788 129.932 870.635 131.777 872.914 131.777Z" fill="#0185AE"/>
<path d="M846.338 105.242C848.617 105.242 850.464 103.397 850.464 101.121C850.464 98.845 848.617 97 846.338 97C844.059 97 842.212 98.845 842.212 101.121C842.212 103.397 844.059 105.242 846.338 105.242Z" fill="#0185AE"/>
<path d="M846.338 131.777C848.617 131.777 850.464 129.932 850.464 127.656C850.464 125.38 848.617 123.535 846.338 123.535C844.059 123.535 842.212 125.38 842.212 127.656C842.212 129.932 844.059 131.777 846.338 131.777Z" fill="#0185AE"/>
<path d="M926.06 184.859C928.339 184.859 930.186 183.014 930.186 180.738C930.186 178.462 928.339 176.617 926.06 176.617C923.781 176.617 921.934 178.462 921.934 180.738C921.934 183.014 923.781 184.859 926.06 184.859Z" fill="#0185AE"/>
<path d="M899.49 158.318C901.769 158.318 903.616 156.473 903.616 154.197C903.616 151.921 901.769 150.076 899.49 150.076C897.211 150.076 895.364 151.921 895.364 154.197C895.364 156.473 897.211 158.318 899.49 158.318Z" fill="#0185AE"/>
<path d="M846.338 184.859C848.617 184.859 850.464 183.014 850.464 180.738C850.464 178.462 848.617 176.617 846.338 176.617C844.059 176.617 842.212 178.462 842.212 180.738C842.212 183.014 844.059 184.859 846.338 184.859Z" fill="#0185AE"/>
<path d="M819.768 184.859C822.047 184.859 823.894 183.014 823.894 180.738C823.894 178.462 822.047 176.617 819.768 176.617C817.489 176.617 815.641 178.462 815.641 180.738C815.641 183.014 817.489 184.859 819.768 184.859Z" fill="#0185AE"/>
<path d="M1032.42 131.777C1034.69 131.777 1036.54 129.932 1036.54 127.656C1036.54 125.38 1034.69 123.535 1032.42 123.535C1030.14 123.535 1028.29 125.38 1028.29 127.656C1028.29 129.932 1030.14 131.777 1032.42 131.777Z" fill="#0185AE"/>
<path d="M1005.84 131.777C1008.12 131.777 1009.97 129.932 1009.97 127.656C1009.97 125.38 1008.12 123.535 1005.84 123.535C1003.56 123.535 1001.71 125.38 1001.71 127.656C1001.71 129.932 1003.56 131.777 1005.84 131.777Z" fill="#0185AE"/>
<path d="M979.264 105.242C981.543 105.242 983.39 103.397 983.39 101.121C983.39 98.845 981.543 97 979.264 97C976.985 97 975.138 98.845 975.138 101.121C975.138 103.397 976.985 105.242 979.264 105.242Z" fill="#0185AE"/>
<path d="M979.264 131.777C981.543 131.777 983.39 129.932 983.39 127.656C983.39 125.38 981.543 123.535 979.264 123.535C976.985 123.535 975.138 125.38 975.138 127.656C975.138 129.932 976.985 131.777 979.264 131.777Z" fill="#0185AE"/>
<path d="M979.241 105.242C981.52 105.242 983.367 103.397 983.367 101.121C983.367 98.845 981.52 97 979.241 97C976.962 97 975.115 98.845 975.115 101.121C975.115 103.397 976.962 105.242 979.241 105.242Z" fill="#0185AE"/>
<path d="M979.241 131.777C981.52 131.777 983.367 129.932 983.367 127.656C983.367 125.38 981.52 123.535 979.241 123.535C976.962 123.535 975.115 125.38 975.115 127.656C975.115 129.932 976.962 131.777 979.241 131.777Z" fill="#0185AE"/>
<path d="M979.212 105.242C981.491 105.242 983.338 103.397 983.338 101.121C983.338 98.845 981.491 97 979.212 97C976.933 97 975.086 98.845 975.086 101.121C975.086 103.397 976.933 105.242 979.212 105.242Z" fill="#FF2D6E"/>
<path d="M979.212 131.777C981.491 131.777 983.338 129.932 983.338 127.656C983.338 125.38 981.491 123.535 979.212 123.535C976.933 123.535 975.086 125.38 975.086 127.656C975.086 129.932 976.933 131.777 979.212 131.777Z" fill="#0185AE"/>
<path d="M952.636 105.242C954.915 105.242 956.762 103.397 956.762 101.121C956.762 98.845 954.915 97 952.636 97C950.357 97 948.51 98.845 948.51 101.121C948.51 103.397 950.357 105.242 952.636 105.242Z" fill="#0185AE"/>
<path d="M952.636 131.777C954.915 131.777 956.762 129.932 956.762 127.656C956.762 125.38 954.915 123.535 952.636 123.535C950.357 123.535 948.51 125.38 948.51 127.656C948.51 129.932 950.357 131.777 952.636 131.777Z" fill="#0185AE"/>
<path d="M899.542 184.778C901.821 184.778 903.668 182.933 903.668 180.658C903.668 178.382 901.821 176.537 899.542 176.537C897.263 176.537 895.415 178.382 895.415 180.658C895.415 182.933 897.263 184.778 899.542 184.778Z" fill="#0185AE"/>
<path d="M872.966 184.778C875.245 184.778 877.092 182.933 877.092 180.658C877.092 178.382 875.245 176.537 872.966 176.537C870.687 176.537 868.839 178.382 868.839 180.658C868.839 182.933 870.687 184.778 872.966 184.778Z" fill="#0185AE"/>
<path d="M819.82 184.778C822.099 184.778 823.946 182.933 823.946 180.658C823.946 178.382 822.099 176.537 819.82 176.537C817.541 176.537 815.693 178.382 815.693 180.658C815.693 182.933 817.541 184.778 819.82 184.778Z" fill="#0185AE"/>
<path d="M926.17 184.778C928.449 184.778 930.296 182.933 930.296 180.658C930.296 178.382 928.449 176.537 926.17 176.537C923.891 176.537 922.043 178.382 922.043 180.658C922.043 182.933 923.891 184.778 926.17 184.778Z" fill="#0185AE"/>
<path d="M926.147 184.778C928.426 184.778 930.273 182.933 930.273 180.658C930.273 178.382 928.426 176.537 926.147 176.537C923.868 176.537 922.02 178.382 922.02 180.658C922.02 182.933 923.868 184.778 926.147 184.778Z" fill="#0185AE"/>
<path d="M926.118 184.778C928.397 184.778 930.244 182.933 930.244 180.658C930.244 178.382 928.397 176.537 926.118 176.537C923.839 176.537 921.991 178.382 921.991 180.658C921.991 182.933 923.839 184.778 926.118 184.778Z" fill="#0185AE"/>
<path d="M899.542 184.778C901.821 184.778 903.668 182.933 903.668 180.658C903.668 178.382 901.821 176.537 899.542 176.537C897.263 176.537 895.415 178.382 895.415 180.658C895.415 182.933 897.263 184.778 899.542 184.778Z" fill="#0185AE"/>
<path d="M899.542 184.778C901.821 184.778 903.668 182.933 903.668 180.658C903.668 178.382 901.821 176.537 899.542 176.537C897.263 176.537 895.415 178.382 895.415 180.658C895.415 182.933 897.263 184.778 899.542 184.778Z" fill="#0185AE"/>
<path d="M872.966 184.778C875.245 184.778 877.092 182.933 877.092 180.658C877.092 178.382 875.245 176.537 872.966 176.537C870.687 176.537 868.839 178.382 868.839 180.658C868.839 182.933 870.687 184.778 872.966 184.778Z" fill="#0185AE"/>
<path d="M819.82 184.778C822.099 184.778 823.946 182.933 823.946 180.658C823.946 178.382 822.099 176.537 819.82 176.537C817.541 176.537 815.693 178.382 815.693 180.658C815.693 182.933 817.541 184.778 819.82 184.778Z" fill="#0185AE"/>
<path d="M926.17 184.778C928.449 184.778 930.296 182.933 930.296 180.658C930.296 178.382 928.449 176.537 926.17 176.537C923.891 176.537 922.043 178.382 922.043 180.658C922.043 182.933 923.891 184.778 926.17 184.778Z" fill="#0185AE"/>
<path d="M926.147 184.778C928.426 184.778 930.273 182.933 930.273 180.658C930.273 178.382 928.426 176.537 926.147 176.537C923.868 176.537 922.02 178.382 922.02 180.658C922.02 182.933 923.868 184.778 926.147 184.778Z" fill="#0185AE"/>
<path d="M926.118 184.778C928.397 184.778 930.244 182.933 930.244 180.658C930.244 178.382 928.397 176.537 926.118 176.537C923.839 176.537 921.991 178.382 921.991 180.658C921.991 182.933 923.839 184.778 926.118 184.778Z" fill="#0185AE"/>
<path d="M899.542 184.778C901.821 184.778 903.668 182.933 903.668 180.658C903.668 178.382 901.821 176.537 899.542 176.537C897.263 176.537 895.415 178.382 895.415 180.658C895.415 182.933 897.263 184.778 899.542 184.778Z" fill="#0185AE"/>
<path d="M895.502 476.326C897.781 476.326 899.628 474.481 899.628 472.205C899.628 469.93 897.781 468.085 895.502 468.085C893.223 468.085 891.376 469.93 891.376 472.205C891.376 474.481 893.223 476.326 895.502 476.326Z" fill="#0185AE"/>
<path d="M952.636 476.326C954.915 476.326 956.762 474.481 956.762 472.205C956.762 469.93 954.915 468.085 952.636 468.085C950.357 468.085 948.51 469.93 948.51 472.205C948.51 474.481 950.357 476.326 952.636 476.326Z" fill="#FF2D6E"/>
<path d="M868.926 476.326C871.205 476.326 873.052 474.481 873.052 472.205C873.052 469.93 871.205 468.085 868.926 468.085C866.647 468.085 864.8 469.93 864.8 472.205C864.8 474.481 866.647 476.326 868.926 476.326Z" fill="#0185AE"/>
<path d="M842.356 476.326C844.635 476.326 846.482 474.481 846.482 472.205C846.482 469.93 844.635 468.085 842.356 468.085C840.077 468.085 838.229 469.93 838.229 472.205C838.229 474.481 840.077 476.326 842.356 476.326Z" fill="#0185AE"/>
<path d="M815.78 476.326C818.059 476.326 819.906 474.481 819.906 472.205C819.906 469.93 818.059 468.085 815.78 468.085C813.501 468.085 811.654 469.93 811.654 472.205C811.654 474.481 813.501 476.326 815.78 476.326Z" fill="#0185AE"/>
<path d="M952.636 423.388C954.915 423.388 956.762 421.543 956.762 419.268C956.762 416.992 954.915 415.147 952.636 415.147C950.357 415.147 948.51 416.992 948.51 419.268C948.51 421.543 950.357 423.388 952.636 423.388Z" fill="#0185AE"/>
<path d="M926.06 423.388C928.339 423.388 930.186 421.543 930.186 419.268C930.186 416.992 928.339 415.147 926.06 415.147C923.781 415.147 921.934 416.992 921.934 419.268C921.934 421.543 923.781 423.388 926.06 423.388Z" fill="#0185AE"/>
<path d="M979.264 423.388C981.543 423.388 983.39 421.543 983.39 419.268C983.39 416.992 981.543 415.147 979.264 415.147C976.985 415.147 975.138 416.992 975.138 419.268C975.138 421.543 976.985 423.388 979.264 423.388Z" fill="#0185AE"/>
<path d="M979.241 423.388C981.52 423.388 983.367 421.543 983.367 419.268C983.367 416.992 981.52 415.147 979.241 415.147C976.962 415.147 975.115 416.992 975.115 419.268C975.115 421.543 976.962 423.388 979.241 423.388Z" fill="#0185AE"/>
<path d="M979.212 423.388C981.491 423.388 983.338 421.543 983.338 419.268C983.338 416.992 981.491 415.147 979.212 415.147C976.933 415.147 975.086 416.992 975.086 419.268C975.086 421.543 976.933 423.388 979.212 423.388Z" fill="#0185AE"/>
<path d="M952.636 423.388C954.915 423.388 956.762 421.543 956.762 419.268C956.762 416.992 954.915 415.147 952.636 415.147C950.357 415.147 948.51 416.992 948.51 419.268C948.51 421.543 950.357 423.388 952.636 423.388Z" fill="#0185AE"/>
<path d="M952.636 423.388C954.915 423.388 956.762 421.543 956.762 419.268C956.762 416.992 954.915 415.147 952.636 415.147C950.357 415.147 948.51 416.992 948.51 419.268C948.51 421.543 950.357 423.388 952.636 423.388Z" fill="#0185AE"/>
<path d="M952.636 449.924C954.915 449.924 956.762 448.079 956.762 445.803C956.762 443.527 954.915 441.682 952.636 441.682C950.357 441.682 948.51 443.527 948.51 445.803C948.51 448.079 950.357 449.924 952.636 449.924Z" fill="#0185AE"/>
<path d="M926.06 423.388C928.339 423.388 930.186 421.543 930.186 419.268C930.186 416.992 928.339 415.147 926.06 415.147C923.781 415.147 921.934 416.992 921.934 419.268C921.934 421.543 923.781 423.388 926.06 423.388Z" fill="#0185AE"/>
<path d="M926.06 449.924C928.339 449.924 930.186 448.079 930.186 445.803C930.186 443.527 928.339 441.682 926.06 441.682C923.781 441.682 921.934 443.527 921.934 445.803C921.934 448.079 923.781 449.924 926.06 449.924Z" fill="#0185AE"/>
<path d="M868.955 503.006C871.234 503.006 873.081 501.161 873.081 498.885C873.081 496.609 871.234 494.764 868.955 494.764C866.676 494.764 864.829 496.609 864.829 498.885C864.829 501.161 866.676 503.006 868.955 503.006Z" fill="#0185AE"/>
<path d="M815.809 476.465C818.088 476.465 819.935 474.62 819.935 472.344C819.935 470.068 818.088 468.223 815.809 468.223C813.53 468.223 811.682 470.068 811.682 472.344C811.682 474.62 813.53 476.465 815.809 476.465Z" fill="#0185AE"/>
<path d="M979.264 423.388C981.543 423.388 983.39 421.543 983.39 419.268C983.39 416.992 981.543 415.147 979.264 415.147C976.985 415.147 975.138 416.992 975.138 419.268C975.138 421.543 976.985 423.388 979.264 423.388Z" fill="#0185AE"/>
<path d="M979.264 449.924C981.543 449.924 983.39 448.079 983.39 445.803C983.39 443.527 981.543 441.682 979.264 441.682C976.985 441.682 975.138 443.527 975.138 445.803C975.138 448.079 976.985 449.924 979.264 449.924Z" fill="#0185AE"/>
<path d="M979.241 423.388C981.52 423.388 983.367 421.543 983.367 419.268C983.367 416.992 981.52 415.147 979.241 415.147C976.962 415.147 975.115 416.992 975.115 419.268C975.115 421.543 976.962 423.388 979.241 423.388Z" fill="#0185AE"/>
<path d="M979.241 449.924C981.52 449.924 983.367 448.079 983.367 445.803C983.367 443.527 981.52 441.682 979.241 441.682C976.962 441.682 975.115 443.527 975.115 445.803C975.115 448.079 976.962 449.924 979.241 449.924Z" fill="#0185AE"/>
<path d="M979.212 423.388C981.491 423.388 983.338 421.543 983.338 419.268C983.338 416.992 981.491 415.147 979.212 415.147C976.933 415.147 975.086 416.992 975.086 419.268C975.086 421.543 976.933 423.388 979.212 423.388Z" fill="#0185AE"/>
<path d="M979.212 449.924C981.491 449.924 983.338 448.079 983.338 445.803C983.338 443.527 981.491 441.682 979.212 441.682C976.933 441.682 975.086 443.527 975.086 445.803C975.086 448.079 976.933 449.924 979.212 449.924Z" fill="#0185AE"/>
<path d="M952.636 423.388C954.915 423.388 956.762 421.543 956.762 419.268C956.762 416.992 954.915 415.147 952.636 415.147C950.357 415.147 948.51 416.992 948.51 419.268C948.51 421.543 950.357 423.388 952.636 423.388Z" fill="#0185AE"/>
<path d="M952.636 449.924C954.915 449.924 956.762 448.079 956.762 445.803C956.762 443.527 954.915 441.682 952.636 441.682C950.357 441.682 948.51 443.527 948.51 445.803C948.51 448.079 950.357 449.924 952.636 449.924Z" fill="#0185AE"/>
<path d="M895.583 503.006C897.862 503.006 899.709 501.161 899.709 498.885C899.709 496.609 897.862 494.764 895.583 494.764C893.304 494.764 891.456 496.609 891.456 498.885C891.456 501.161 893.304 503.006 895.583 503.006Z" fill="#0185AE"/>
<path d="M895.56 503.006C897.839 503.006 899.686 501.161 899.686 498.885C899.686 496.609 897.839 494.764 895.56 494.764C893.281 494.764 891.433 496.609 891.433 498.885C891.433 501.161 893.281 503.006 895.56 503.006Z" fill="#0185AE"/>
<path d="M895.531 503.006C897.81 503.006 899.657 501.161 899.657 498.885C899.657 496.609 897.81 494.764 895.531 494.764C893.252 494.764 891.405 496.609 891.405 498.885C891.405 501.161 893.252 503.006 895.531 503.006Z" fill="#0185AE"/>
<path d="M868.955 503.006C871.234 503.006 873.081 501.161 873.081 498.885C873.081 496.609 871.234 494.764 868.955 494.764C866.676 494.764 864.829 496.609 864.829 498.885C864.829 501.161 866.676 503.006 868.955 503.006Z" fill="#0185AE"/>
<path d="M895.641 502.925C897.919 502.925 899.767 501.08 899.767 498.804C899.767 496.528 897.919 494.683 895.641 494.683C893.362 494.683 891.514 496.528 891.514 498.804C891.514 501.08 893.362 502.925 895.641 502.925Z" fill="#0185AE"/>
<path d="M869.065 502.925C871.343 502.925 873.191 501.08 873.191 498.804C873.191 496.528 871.343 494.683 869.065 494.683C866.786 494.683 864.938 496.528 864.938 498.804C864.938 501.08 866.786 502.925 869.065 502.925Z" fill="#0185AE"/>
<path d="M895.641 502.925C897.919 502.925 899.767 501.08 899.767 498.804C899.767 496.528 897.919 494.683 895.641 494.683C893.362 494.683 891.514 496.528 891.514 498.804C891.514 501.08 893.362 502.925 895.641 502.925Z" fill="#0185AE"/>
<path d="M895.641 502.925C897.919 502.925 899.767 501.08 899.767 498.804C899.767 496.528 897.919 494.683 895.641 494.683C893.362 494.683 891.514 496.528 891.514 498.804C891.514 501.08 893.362 502.925 895.641 502.925Z" fill="#0185AE"/>
<path d="M869.065 502.925C871.343 502.925 873.191 501.08 873.191 498.804C873.191 496.528 871.343 494.683 869.065 494.683C866.786 494.683 864.938 496.528 864.938 498.804C864.938 501.08 866.786 502.925 869.065 502.925Z" fill="#0185AE"/>
<path d="M895.641 502.925C897.919 502.925 899.767 501.08 899.767 498.804C899.767 496.528 897.919 494.683 895.641 494.683C893.362 494.683 891.514 496.528 891.514 498.804C891.514 501.08 893.362 502.925 895.641 502.925Z" fill="#FF2D6E"/>
<path d="M1059.01 396.928C1061.29 396.928 1063.14 395.083 1063.14 392.807C1063.14 390.531 1061.29 388.686 1059.01 388.686C1056.74 388.686 1054.89 390.531 1054.89 392.807C1054.89 395.083 1056.74 396.928 1059.01 396.928Z" fill="#0185AE"/>
<path d="M1032.44 423.469C1034.72 423.469 1036.57 421.624 1036.57 419.348C1036.57 417.072 1034.72 415.227 1032.44 415.227C1030.17 415.227 1028.32 417.072 1028.32 419.348C1028.32 421.624 1030.17 423.469 1032.44 423.469Z" fill="#FF2D6E"/>
<path d="M1005.87 423.469C1008.15 423.469 1010 421.624 1010 419.348C1010 417.072 1008.15 415.227 1005.87 415.227C1003.59 415.227 1001.74 417.072 1001.74 419.348C1001.74 421.624 1003.59 423.469 1005.87 423.469Z" fill="#0185AE"/>
<path d="M1191.83 211.233C1194.11 211.233 1195.96 209.388 1195.96 207.112C1195.96 204.836 1194.11 202.991 1191.83 202.991C1189.55 202.991 1187.71 204.836 1187.71 207.112C1187.71 209.388 1189.55 211.233 1191.83 211.233Z" fill="#FF2D6E"/>
<path d="M1165.26 211.233C1167.54 211.233 1169.39 209.388 1169.39 207.112C1169.39 204.836 1167.54 202.991 1165.26 202.991C1162.98 202.991 1161.13 204.836 1161.13 207.112C1161.13 209.388 1162.98 211.233 1165.26 211.233Z" fill="#0185AE"/>
<path d="M1138.69 184.692C1140.96 184.692 1142.81 182.847 1142.81 180.571C1142.81 178.295 1140.96 176.45 1138.69 176.45C1136.41 176.45 1134.56 178.295 1134.56 180.571C1134.56 182.847 1136.41 184.692 1138.69 184.692Z" fill="#0185AE"/>
<path d="M1138.69 211.233C1140.96 211.233 1142.81 209.388 1142.81 207.112C1142.81 204.836 1140.96 202.991 1138.69 202.991C1136.41 202.991 1134.56 204.836 1134.56 207.112C1134.56 209.388 1136.41 211.233 1138.69 211.233Z" fill="#0185AE"/>
<path d="M846.142 211.233C848.421 211.233 850.268 209.388 850.268 207.112C850.268 204.836 848.421 202.991 846.142 202.991C843.863 202.991 842.015 204.836 842.015 207.112C842.015 209.388 843.863 211.233 846.142 211.233Z" fill="#FF2D6E"/>
<path d="M819.571 211.233C821.85 211.233 823.698 209.388 823.698 207.112C823.698 204.836 821.85 202.991 819.571 202.991C817.293 202.991 815.445 204.836 815.445 207.112C815.445 209.388 817.293 211.233 819.571 211.233Z" fill="#0185AE"/>
<path d="M792.996 211.233C795.274 211.233 797.122 209.388 797.122 207.112C797.122 204.836 795.274 202.991 792.996 202.991C790.717 202.991 788.869 204.836 788.869 207.112C788.869 209.388 790.717 211.233 792.996 211.233Z" fill="#0185AE"/>
<path d="M1112.11 184.692C1114.39 184.692 1116.24 182.847 1116.24 180.571C1116.24 178.295 1114.39 176.45 1112.11 176.45C1109.83 176.45 1107.98 178.295 1107.98 180.571C1107.98 182.847 1109.83 184.692 1112.11 184.692Z" fill="#0185AE"/>
<path d="M1165.26 396.876C1167.54 396.876 1169.39 395.031 1169.39 392.755C1169.39 390.479 1167.54 388.634 1165.26 388.634C1162.98 388.634 1161.13 390.479 1161.13 392.755C1161.13 395.031 1162.98 396.876 1165.26 396.876Z" fill="#0185AE"/>
<path d="M1138.69 396.876C1140.96 396.876 1142.81 395.031 1142.81 392.755C1142.81 390.479 1140.96 388.634 1138.69 388.634C1136.41 388.634 1134.56 390.479 1134.56 392.755C1134.56 395.031 1136.41 396.876 1138.69 396.876Z" fill="#0185AE"/>
<path d="M1085.54 396.876C1087.82 396.876 1089.67 395.031 1089.67 392.755C1089.67 390.479 1087.82 388.634 1085.54 388.634C1083.26 388.634 1081.41 390.479 1081.41 392.755C1081.41 395.031 1083.26 396.876 1085.54 396.876Z" fill="#0185AE"/>
<path d="M1165.26 396.876C1167.54 396.876 1169.39 395.031 1169.39 392.755C1169.39 390.479 1167.54 388.634 1165.26 388.634C1162.98 388.634 1161.13 390.479 1161.13 392.755C1161.13 395.031 1162.98 396.876 1165.26 396.876Z" fill="#FF2D6E"/>
<path d="M1138.69 396.876C1140.96 396.876 1142.81 395.031 1142.81 392.755C1142.81 390.479 1140.96 388.634 1138.69 388.634C1136.41 388.634 1134.56 390.479 1134.56 392.755C1134.56 395.031 1136.41 396.876 1138.69 396.876Z" fill="#0185AE"/>
<path d="M1112.14 370.364C1114.42 370.364 1116.26 368.519 1116.26 366.243C1116.26 363.967 1114.42 362.122 1112.14 362.122C1109.86 362.122 1108.01 363.967 1108.01 366.243C1108.01 368.519 1109.86 370.364 1112.14 370.364Z" fill="#0185AE"/>
<path d="M1085.54 396.876C1087.82 396.876 1089.67 395.031 1089.67 392.755C1089.67 390.479 1087.82 388.634 1085.54 388.634C1083.26 388.634 1081.41 390.479 1081.41 392.755C1081.41 395.031 1083.26 396.876 1085.54 396.876Z" fill="#0185AE"/>
<path d="M1165.26 343.794C1167.54 343.794 1169.39 341.949 1169.39 339.673C1169.39 337.397 1167.54 335.552 1165.26 335.552C1162.98 335.552 1161.13 337.397 1161.13 339.673C1161.13 341.949 1162.98 343.794 1165.26 343.794Z" fill="#0185AE"/>
<path d="M1138.69 343.794C1140.96 343.794 1142.81 341.949 1142.81 339.673C1142.81 337.397 1140.96 335.552 1138.69 335.552C1136.41 335.552 1134.56 337.397 1134.56 339.673C1134.56 341.949 1136.41 343.794 1138.69 343.794Z" fill="#0185AE"/>
<path d="M1112.11 317.253C1114.39 317.253 1116.24 315.408 1116.24 313.132C1116.24 310.856 1114.39 309.011 1112.11 309.011C1109.83 309.011 1107.98 310.856 1107.98 313.132C1107.98 315.408 1109.83 317.253 1112.11 317.253Z" fill="#0185AE"/>
<path d="M1244.87 264.315C1247.15 264.315 1249 262.47 1249 260.194C1249 257.918 1247.15 256.073 1244.87 256.073C1242.59 256.073 1240.75 257.918 1240.75 260.194C1240.75 262.47 1242.59 264.315 1244.87 264.315Z" fill="#0185AE"/>
<path d="M1218.3 264.315C1220.58 264.315 1222.42 262.47 1222.42 260.194C1222.42 257.918 1220.58 256.073 1218.3 256.073C1216.02 256.073 1214.17 257.918 1214.17 260.194C1214.17 262.47 1216.02 264.315 1218.3 264.315Z" fill="#0185AE"/>
<path d="M1218.3 290.85C1220.58 290.85 1222.42 289.005 1222.42 286.729C1222.42 284.454 1220.58 282.609 1218.3 282.609C1216.02 282.609 1214.17 284.454 1214.17 286.729C1214.17 289.005 1216.02 290.85 1218.3 290.85Z" fill="#0185AE"/>
<path d="M1191.83 343.932C1194.11 343.932 1195.96 342.087 1195.96 339.812C1195.96 337.536 1194.11 335.691 1191.83 335.691C1189.55 335.691 1187.71 337.536 1187.71 339.812C1187.71 342.087 1189.55 343.932 1191.83 343.932Z" fill="#FF2D6E"/>
<path d="M1165.26 343.932C1167.54 343.932 1169.39 342.087 1169.39 339.812C1169.39 337.536 1167.54 335.691 1165.26 335.691C1162.98 335.691 1161.13 337.536 1161.13 339.812C1161.13 342.087 1162.98 343.932 1165.26 343.932Z" fill="#0185AE"/>
<path d="M1006 158.209C1008.28 158.209 1010.13 156.364 1010.13 154.088C1010.13 151.812 1008.28 149.967 1006 149.967C1003.72 149.967 1001.88 151.812 1001.88 154.088C1001.88 156.364 1003.72 158.209 1006 158.209Z" fill="#FF2D6E"/>
</g>
<defs>
<linearGradient id="paint0_linear_2836_44" x1="979.801" y1="154.878" x2="1005.77" y2="154.878" gradientUnits="userSpaceOnUse">
<stop stop-color="#0E2331"/>
<stop offset="0.8" stop-color="#00ACC8"/>
</linearGradient>
<linearGradient id="paint1_linear_2836_44" x1="926.129" y1="102.185" x2="979.224" y2="102.185" gradientUnits="userSpaceOnUse">
<stop stop-color="#0E2331"/>
<stop offset="0.8" stop-color="#00ACC8"/>
</linearGradient>
<linearGradient id="paint2_linear_2836_44" x1="1111.96" y1="207.571" x2="1191.6" y2="207.571" gradientUnits="userSpaceOnUse">
<stop stop-color="#0E2331"/>
<stop offset="0.8" stop-color="#00ACC8"/>
</linearGradient>
<linearGradient id="paint3_linear_2836_44" x1="793.394" y1="207.571" x2="845.911" y2="207.571" gradientUnits="userSpaceOnUse">
<stop stop-color="#0E2331"/>
<stop offset="0.8" stop-color="#00ACC8"/>
</linearGradient>
<linearGradient id="paint4_linear_2836_44" x1="1138.51" y1="339.304" x2="1192.18" y2="339.304" gradientUnits="userSpaceOnUse">
<stop stop-color="#0E2331"/>
<stop offset="0.8" stop-color="#00ACC8"/>
</linearGradient>
<linearGradient id="paint5_linear_2836_44" x1="1058.86" y1="391.997" x2="1165.05" y2="391.997" gradientUnits="userSpaceOnUse">
<stop stop-color="#0E2331"/>
<stop offset="0.8" stop-color="#00ACC8"/>
</linearGradient>
<linearGradient id="paint6_linear_2836_44" x1="899.582" y1="418.344" x2="1032.32" y2="418.344" gradientUnits="userSpaceOnUse">
<stop stop-color="#0E2331"/>
<stop offset="0.8" stop-color="#00ACC8"/>
</linearGradient>
<linearGradient id="paint7_linear_2836_44" x1="842.448" y1="497.383" x2="895.542" y2="497.383" gradientUnits="userSpaceOnUse">
<stop stop-color="#0E2331"/>
<stop offset="0.8" stop-color="#00ACC8"/>
</linearGradient>
<linearGradient id="paint8_linear_2836_44" x1="922.09" y1="471.037" x2="952.676" y2="471.037" gradientUnits="userSpaceOnUse">
<stop stop-color="#0E2331"/>
<stop offset="0.8" stop-color="#00ACC8"/>
</linearGradient>
<linearGradient id="paint9_linear_2836_44" x1="926.129" y1="365.651" x2="979.224" y2="365.651" gradientUnits="userSpaceOnUse">
<stop stop-color="#0E2331"/>
<stop offset="0.8" stop-color="#00ACC8"/>
</linearGradient>
<linearGradient id="paint10_linear_2836_44" x1="894.994" y1="313.219" x2="956.745" y2="313.219" gradientUnits="userSpaceOnUse">
<stop stop-color="#B8E4ED"/>
<stop offset="0.5" stop-color="#00ACC8"/>
<stop offset="1" stop-color="#0185AE"/>
</linearGradient>
<linearGradient id="paint11_linear_2836_44" x1="1081.69" y1="313.507" x2="1143.44" y2="313.507" gradientUnits="userSpaceOnUse">
<stop stop-color="#B8E4ED"/>
<stop offset="0.5" stop-color="#00ACC8"/>
<stop offset="1" stop-color="#0185AE"/>
</linearGradient>
<linearGradient id="paint12_linear_2836_44" x1="952.792" y1="246.806" x2="1196.37" y2="246.806" gradientUnits="userSpaceOnUse">
<stop stop-color="#B8E4ED"/>
<stop offset="0.5" stop-color="#00ACC8"/>
<stop offset="1" stop-color="#0185AE"/>
</linearGradient>
<linearGradient id="paint13_linear_2836_44" x1="868.574" y1="286.545" x2="1059.1" y2="286.545" gradientUnits="userSpaceOnUse">
<stop stop-color="#B8E4ED"/>
<stop offset="0.5" stop-color="#00ACC8"/>
<stop offset="1" stop-color="#0185AE"/>
</linearGradient>
<linearGradient id="paint14_linear_2836_44" x1="841.986" y1="271.139" x2="899.761" y2="271.139" gradientUnits="userSpaceOnUse">
<stop stop-color="#B8E4ED"/>
<stop offset="0.5" stop-color="#00ACC8"/>
<stop offset="1" stop-color="#0185AE"/>
</linearGradient>
<linearGradient id="paint15_linear_2836_44" x1="921.761" y1="220.38" x2="1089.87" y2="220.38" gradientUnits="userSpaceOnUse">
<stop stop-color="#B8E4ED"/>
<stop offset="0.5" stop-color="#00ACC8"/>
<stop offset="1" stop-color="#0185AE"/>
</linearGradient>
<linearGradient id="paint16_linear_2836_44" x1="1005.81" y1="233.653" x2="1005.81" y2="207.112" gradientUnits="userSpaceOnUse">
<stop stop-color="#B8E4ED"/>
<stop offset="0.5" stop-color="#00ACC8"/>
<stop offset="1" stop-color="#0185AE"/>
</linearGradient>
<clipPath id="clip0_2836_44">
<rect width="513" height="406" fill="white" transform="translate(736 97)"/>
</clipPath>
</defs>
</svg>
