<svg version="1.2" xmlns="http://www.w3.org/2000/svg" viewBox="0 0 595 475" width="595" height="475">
	<title>auto-banner-svg</title>
	<defs>
		<clipPath clipPathUnits="userSpaceOnUse" id="cp1">
			<path d="m75 42h513v406h-513z"/>
		</clipPath>
		<linearGradient id="g1" x2="1" gradientUnits="userSpaceOnUse" gradientTransform="matrix(25.969,0,0,8.069,318.801,99.878)">
			<stop offset="0" stop-color="#0e2331"/>
			<stop offset=".8" stop-color="#00acc8"/>
		</linearGradient>
		<linearGradient id="g2" x2="1" gradientUnits="userSpaceOnUse" gradientTransform="matrix(53.095,0,0,8.069,265.129,47.185)">
			<stop offset="0" stop-color="#0e2331"/>
			<stop offset=".8" stop-color="#00acc8"/>
		</linearGradient>
		<linearGradient id="g3" x2="1" gradientUnits="userSpaceOnUse" gradientTransform="matrix(79.64,0,0,8.069,450.96,152.571)">
			<stop offset="0" stop-color="#0e2331"/>
			<stop offset=".8" stop-color="#00acc8"/>
		</linearGradient>
		<linearGradient id="g4" x2="1" gradientUnits="userSpaceOnUse" gradientTransform="matrix(52.517,0,0,8.069,132.394,152.571)">
			<stop offset="0" stop-color="#0e2331"/>
			<stop offset=".8" stop-color="#00acc8"/>
		</linearGradient>
		<linearGradient id="g5" x2="1" gradientUnits="userSpaceOnUse" gradientTransform="matrix(53.67,0,0,8.069,477.51,284.304)">
			<stop offset="0" stop-color="#0e2331"/>
			<stop offset=".8" stop-color="#00acc8"/>
		</linearGradient>
		<linearGradient id="g6" x2="1" gradientUnits="userSpaceOnUse" gradientTransform="matrix(106.19,0,0,8.069,397.86,336.997)">
			<stop offset="0" stop-color="#0e2331"/>
			<stop offset=".8" stop-color="#00acc8"/>
		</linearGradient>
		<linearGradient id="g7" x2="1" gradientUnits="userSpaceOnUse" gradientTransform="matrix(132.738,0,0,8.069,238.582,363.344)">
			<stop offset="0" stop-color="#0e2331"/>
			<stop offset=".8" stop-color="#00acc8"/>
		</linearGradient>
		<linearGradient id="g8" x2="1" gradientUnits="userSpaceOnUse" gradientTransform="matrix(53.094,0,0,8.069,181.448,442.383)">
			<stop offset="0" stop-color="#0e2331"/>
			<stop offset=".8" stop-color="#00acc8"/>
		</linearGradient>
		<linearGradient id="g9" x2="1" gradientUnits="userSpaceOnUse" gradientTransform="matrix(30.586,0,0,8.069,261.09,416.037)">
			<stop offset="0" stop-color="#0e2331"/>
			<stop offset=".8" stop-color="#00acc8"/>
		</linearGradient>
		<linearGradient id="g10" x2="1" gradientUnits="userSpaceOnUse" gradientTransform="matrix(53.095,0,0,8.069,265.129,310.651)">
			<stop offset="0" stop-color="#0e2331"/>
			<stop offset=".8" stop-color="#00acc8"/>
		</linearGradient>
		<linearGradient id="g11" x2="1" gradientUnits="userSpaceOnUse" gradientTransform="matrix(61.751,0,0,61.669,233.994,258.219)">
			<stop offset="0" stop-color="#b8e4ed"/>
			<stop offset=".5" stop-color="#00acc8"/>
			<stop offset="1" stop-color="#0185ae"/>
		</linearGradient>
		<linearGradient id="g12" x2="1" gradientUnits="userSpaceOnUse" gradientTransform="matrix(61.75,0,0,61.67,420.69,258.507)">
			<stop offset="0" stop-color="#b8e4ed"/>
			<stop offset=".5" stop-color="#00acc8"/>
			<stop offset="1" stop-color="#0185ae"/>
		</linearGradient>
		<linearGradient id="g13" x2="1" gradientUnits="userSpaceOnUse" gradientTransform="matrix(243.578,0,0,141.099,291.792,191.806)">
			<stop offset="0" stop-color="#b8e4ed"/>
			<stop offset=".5" stop-color="#00acc8"/>
			<stop offset="1" stop-color="#0185ae"/>
		</linearGradient>
		<linearGradient id="g14" x2="1" gradientUnits="userSpaceOnUse" gradientTransform="matrix(190.526,0,0,61.626,207.574,231.545)">
			<stop offset="0" stop-color="#b8e4ed"/>
			<stop offset=".5" stop-color="#00acc8"/>
			<stop offset="1" stop-color="#0185ae"/>
		</linearGradient>
		<linearGradient id="g15" x2="1" gradientUnits="userSpaceOnUse" gradientTransform="matrix(57.775,0,0,83.802,180.986,216.139)">
			<stop offset="0" stop-color="#b8e4ed"/>
			<stop offset=".5" stop-color="#00acc8"/>
			<stop offset="1" stop-color="#0185ae"/>
		</linearGradient>
		<linearGradient id="g16" x2="1" gradientUnits="userSpaceOnUse" gradientTransform="matrix(168.109,0,0,35.187,260.761,165.38)">
			<stop offset="0" stop-color="#b8e4ed"/>
			<stop offset=".5" stop-color="#00acc8"/>
			<stop offset="1" stop-color="#0185ae"/>
		</linearGradient>
		<linearGradient id="g17" x2="1" gradientUnits="userSpaceOnUse" gradientTransform="matrix(0,-26.541,8.66,0,344.81,178.653)">
			<stop offset="0" stop-color="#b8e4ed"/>
			<stop offset=".5" stop-color="#00acc8"/>
			<stop offset="1" stop-color="#0185ae"/>
		</linearGradient>
	</defs>
	<style>
		.s0 { fill: #085b7b } 
		.s1 { fill: url(#g1) } 
		.s2 { fill: url(#g2) } 
		.s3 { fill: url(#g3) } 
		.s4 { fill: url(#g4) } 
		.s5 { fill: url(#g5) } 
		.s6 { fill: url(#g6) } 
		.s7 { fill: url(#g7) } 
		.s8 { fill: url(#g8) } 
		.s9 { fill: url(#g9) } 
		.s10 { fill: url(#g10) } 
		.s11 { fill: #2a314c } 
		.s12 { fill: url(#g11) } 
		.s13 { fill: url(#g12) } 
		.s14 { fill: url(#g13) } 
		.s15 { fill: url(#g14) } 
		.s16 { fill: url(#g15) } 
		.s17 { fill: url(#g16) } 
		.s18 { fill: url(#g17) } 
		.s19 { fill: #ffffff } 
		.s20 { fill: #0185ae } 
		.s21 { fill: #ff2d6e } 
	</style>
	<g id="Clip-Path" clip-path="url(#cp1)">
		<g id="Layer">
			<g id="Layer" style="opacity: .5">
				<path id="Layer" class="s0" d="m318.2 94.7h-79.6v8.7h79.6z"/>
				<path id="Layer" class="s0" d="m242.8 152.1h-8.7c0-12.2-9.9-22.2-22.2-22.2h-0.2v-8.7h0.2c17 0 30.9 13.9 30.9 30.9z"/>
				<path id="Layer" class="s0" d="m265.1 129.9h-0.1c-17 0-30.9-13.8-30.9-30.8h8.7c0 12.2 10 22.1 22.2 22.1h0.1z"/>
				<path id="Layer" class="s0" d="m428.8 231.7h-8.6c0-12.2-10-22.2-22.3-22.2h-53.1v-8.6h53.1c17.1 0 30.9 13.8 30.9 30.8z"/>
				<path id="Layer" class="s0" d="m397.9 227.4h-79.7v8.7h79.7z"/>
				<path id="Layer" class="s0" d="m318.2 200.9h-106.3v8.6h106.3z"/>
				<path id="Layer" class="s0" d="m561.8 232h-8.6c0-12.2-10-22.2-22.3-22.2h-106.5v-8.6h106.5c17.1 0 30.9 13.8 30.9 30.8z"/>
				<path id="Layer" class="s0" d="m397.9 289.1h-79.7v-8.6h79.7c26.9 0 48.8-21.9 48.8-48.8v-53h8.7v53c0 31.7-25.8 57.4-57.5 57.4z"/>
				<path id="Layer" class="s0" d="m269.2 284.7h-8.7c0.1-13-5-25.2-14.1-34.4-9.2-9.2-21.4-14.2-34.4-14.2h-26.7v-8.7h26.7c15.3 0 29.7 6 40.5 16.8 10.8 10.8 16.7 25.2 16.7 40.5z"/>
				<path id="Layer" class="s0" d="m318.2 121.2h-53.2v8.7h53.2z"/>
				<path id="Layer" class="s0" d="m242.8 152.1h-8.7v26.5h8.7z"/>
			</g>
			<path id="Layer" class="s1" d="m344.8 95.1h-26v8.1h26z"/>
			<path id="Layer" class="s2" d="m318.2 42.1h-53.1v8.1h53.1z"/>
			<path id="Layer" class="s3" d="m530.6 148.1h-79.6v8.1h79.6z"/>
			<path id="Layer" class="s4" d="m184.9 148.1h-52.5v8.1h52.5z"/>
			<path id="Layer" class="s5" d="m531.2 280.7h-53.7v8.1h53.7z"/>
			<path id="Layer" class="s6" d="m504 333.7h-106.1v8.1h106.1z"/>
			<path id="Layer" class="s7" d="m371.3 360.2h-132.7v8.1h132.7z"/>
			<path id="Layer" class="s8" d="m234.5 439.8h-53.1v8h53.1z"/>
			<path id="Layer" class="s9" d="m291.7 413.3h-30.6v8h30.6z"/>
			<path id="Layer" class="s10" d="m318.2 307.2h-53.1v8.1h53.1z"/>
			<path id="Layer" class="s11" d="m318.2 129.7c2.3 0 4.1-1.9 4.1-4.1 0-2.3-1.8-4.2-4.1-4.2-2.3 0-4.1 1.9-4.1 4.2 0 2.2 1.8 4.1 4.1 4.1z"/>
			<path id="Layer" class="s11" d="m291.6 129.7c2.3 0 4.1-1.9 4.1-4.1 0-2.3-1.8-4.2-4.1-4.2-2.3 0-4.1 1.9-4.1 4.2 0 2.2 1.8 4.1 4.1 4.1z"/>
			<path id="Layer" class="s11" d="m265 156.2c2.3 0 4.2-1.8 4.2-4.1 0-2.3-1.9-4.1-4.2-4.1-2.2 0-4.1 1.8-4.1 4.1 0 2.3 1.9 4.1 4.1 4.1z"/>
			<path id="Layer" class="s11" d="m265 209.3c2.3 0 4.2-1.8 4.2-4.1 0-2.3-1.9-4.1-4.2-4.1-2.2 0-4.1 1.8-4.1 4.1 0 2.3 1.9 4.1 4.1 4.1z"/>
			<path id="Layer" class="s11" d="m238.5 182.8c2.2 0 4.1-1.9 4.1-4.1 0-2.3-1.9-4.2-4.1-4.2-2.3 0-4.2 1.9-4.2 4.2 0 2.2 1.9 4.1 4.2 4.1z"/>
			<path id="Layer" class="s11" d="m211.9 182.8c2.3 0 4.1-1.9 4.1-4.1 0-2.3-1.8-4.2-4.1-4.2-2.3 0-4.1 1.9-4.1 4.2 0 2.2 1.8 4.1 4.1 4.1z"/>
			<path id="Layer" class="s11" d="m185.3 209.3c2.3 0 4.1-1.8 4.1-4.1 0-2.3-1.8-4.1-4.1-4.1-2.3 0-4.1 1.8-4.1 4.1 0 2.3 1.8 4.1 4.1 4.1z"/>
			<path id="Layer" class="s11" d="m398 129.7c2.2 0 4.1-1.9 4.1-4.1 0-2.3-1.9-4.2-4.1-4.2-2.3 0-4.2 1.9-4.2 4.2 0 2.2 1.9 4.1 4.2 4.1z"/>
			<path id="Layer" class="s11" d="m371.4 129.7c2.3 0 4.1-1.9 4.1-4.1 0-2.3-1.8-4.2-4.1-4.2-2.3 0-4.1 1.9-4.1 4.2 0 2.2 1.8 4.1 4.1 4.1z"/>
			<path id="Layer" class="s11" d="m344.8 129.7c2.3 0 4.1-1.9 4.1-4.1 0-2.3-1.8-4.2-4.1-4.2-2.3 0-4.1 1.9-4.1 4.2 0 2.2 1.8 4.1 4.1 4.1z"/>
			<path id="Layer" class="s11" d="m344.8 129.7c2.3 0 4.1-1.9 4.1-4.1 0-2.3-1.8-4.2-4.1-4.2-2.3 0-4.1 1.9-4.1 4.2 0 2.2 1.8 4.1 4.1 4.1z"/>
			<path id="Layer" class="s11" d="m344.8 129.7c2.2 0 4.1-1.9 4.1-4.1 0-2.3-1.9-4.2-4.1-4.2-2.3 0-4.2 1.9-4.2 4.2 0 2.2 1.9 4.1 4.2 4.1z"/>
			<path id="Layer" class="s11" d="m318.2 129.7c2.3 0 4.1-1.9 4.1-4.1 0-2.3-1.8-4.2-4.1-4.2-2.3 0-4.1 1.9-4.1 4.2 0 2.2 1.8 4.1 4.1 4.1z"/>
			<path id="Layer" class="s11" d="m424.5 156.2c2.3 0 4.2-1.8 4.2-4.1 0-2.3-1.9-4.1-4.2-4.1-2.2 0-4.1 1.8-4.1 4.1 0 2.3 1.9 4.1 4.1 4.1z"/>
			<path id="Layer" class="s11" d="m398 129.7c2.2 0 4.1-1.9 4.1-4.1 0-2.3-1.9-4.2-4.1-4.2-2.3 0-4.2 1.9-4.2 4.2 0 2.2 1.9 4.1 4.2 4.1z"/>
			<path id="Layer" class="s11" d="m530.8 209.3c2.3 0 4.2-1.8 4.2-4.1 0-2.3-1.9-4.1-4.2-4.1-2.3 0-4.1 1.8-4.1 4.1 0 2.3 1.8 4.1 4.1 4.1z"/>
			<path id="Layer" class="s11" d="m504.3 182.8c2.2 0 4.1-1.9 4.1-4.1 0-2.3-1.9-4.2-4.1-4.2-2.3 0-4.2 1.9-4.2 4.2 0 2.2 1.9 4.1 4.2 4.1z"/>
			<path id="Layer" class="s11" d="m477.7 182.8c2.3 0 4.1-1.9 4.1-4.1 0-2.3-1.8-4.2-4.1-4.2-2.3 0-4.1 1.9-4.1 4.2 0 2.2 1.8 4.1 4.1 4.1z"/>
			<path id="Layer" class="s11" d="m451.1 182.8c2.3 0 4.1-1.9 4.1-4.1 0-2.3-1.8-4.2-4.1-4.2-2.3 0-4.1 1.9-4.1 4.2 0 2.2 1.8 4.1 4.1 4.1z"/>
			<path id="Layer" class="s11" d="m451.1 209.3c2.3 0 4.1-1.8 4.1-4.1 0-2.3-1.8-4.1-4.1-4.1-2.3 0-4.1 1.8-4.1 4.1 0 2.3 1.8 4.1 4.1 4.1z"/>
			<path id="Layer" class="s11" d="m265 209.3c2.3 0 4.2-1.8 4.2-4.1 0-2.3-1.9-4.1-4.2-4.1-2.2 0-4.1 1.8-4.1 4.1 0 2.3 1.9 4.1 4.1 4.1z"/>
			<path id="Layer" class="s11" d="m185.3 209.3c2.3 0 4.1-1.8 4.1-4.1 0-2.3-1.8-4.1-4.1-4.1-2.3 0-4.1 1.8-4.1 4.1 0 2.3 1.8 4.1 4.1 4.1z"/>
			<path id="Layer" class="s11" d="m185.3 235.9c2.3 0 4.1-1.9 4.1-4.2 0-2.2-1.8-4.1-4.1-4.1-2.3 0-4.1 1.9-4.1 4.1 0 2.3 1.8 4.2 4.1 4.2z"/>
			<path id="Layer" class="s11" d="m318.2 262.4c2.3 0 4.1-1.9 4.1-4.1 0-2.3-1.8-4.2-4.1-4.2-2.3 0-4.1 1.9-4.1 4.2 0 2.2 1.8 4.1 4.1 4.1z"/>
			<path id="Layer" class="s11" d="m211.9 262.4c2.3 0 4.1-1.9 4.1-4.1 0-2.3-1.8-4.2-4.1-4.2-2.3 0-4.1 1.9-4.1 4.2 0 2.2 1.8 4.1 4.1 4.1z"/>
			<path id="Layer" class="s11" d="m185.3 262.4c2.3 0 4.1-1.9 4.1-4.1 0-2.3-1.8-4.2-4.1-4.2-2.3 0-4.1 1.9-4.1 4.2 0 2.2 1.8 4.1 4.1 4.1z"/>
			<path id="Layer" class="s11" d="m398 262.4c2.2 0 4.1-1.9 4.1-4.1 0-2.3-1.9-4.2-4.1-4.2-2.3 0-4.2 1.9-4.2 4.2 0 2.2 1.9 4.1 4.2 4.1z"/>
			<path id="Layer" class="s11" d="m371.4 262.4c2.3 0 4.1-1.9 4.1-4.1 0-2.3-1.8-4.2-4.1-4.2-2.3 0-4.1 1.9-4.1 4.2 0 2.2 1.8 4.1 4.1 4.1z"/>
			<path id="Layer" class="s11" d="m344.8 262.4c2.3 0 4.1-1.9 4.1-4.1 0-2.3-1.8-4.2-4.1-4.2-2.3 0-4.1 1.9-4.1 4.2 0 2.2 1.8 4.1 4.1 4.1z"/>
			<path id="Layer" class="s11" d="m344.8 262.4c2.3 0 4.1-1.9 4.1-4.1 0-2.3-1.8-4.2-4.1-4.2-2.3 0-4.1 1.9-4.1 4.2 0 2.2 1.8 4.1 4.1 4.1z"/>
			<path id="Layer" class="s11" d="m344.8 262.4c2.2 0 4.1-1.9 4.1-4.1 0-2.3-1.9-4.2-4.1-4.2-2.3 0-4.2 1.9-4.2 4.2 0 2.2 1.9 4.1 4.2 4.1z"/>
			<path id="Layer" class="s11" d="m318.2 262.4c2.3 0 4.1-1.9 4.1-4.1 0-2.3-1.8-4.2-4.1-4.2-2.3 0-4.1 1.9-4.1 4.2 0 2.2 1.8 4.1 4.1 4.1z"/>
			<path id="Layer" class="s11" d="m530.8 209.3c2.3 0 4.2-1.8 4.2-4.1 0-2.3-1.9-4.1-4.2-4.1-2.3 0-4.1 1.8-4.1 4.1 0 2.3 1.8 4.1 4.1 4.1z"/>
			<path id="Layer" class="s11" d="m530.8 235.9c2.3 0 4.2-1.9 4.2-4.2 0-2.2-1.9-4.1-4.2-4.1-2.3 0-4.1 1.9-4.1 4.1 0 2.3 1.8 4.2 4.1 4.2z"/>
			<path id="Layer" class="s11" d="m451.1 209.3c2.3 0 4.1-1.8 4.1-4.1 0-2.3-1.8-4.1-4.1-4.1-2.3 0-4.1 1.8-4.1 4.1 0 2.3 1.8 4.1 4.1 4.1z"/>
			<path id="Layer" class="s11" d="m530.8 262.4c2.3 0 4.2-1.9 4.2-4.1 0-2.3-1.9-4.2-4.2-4.2-2.3 0-4.1 1.9-4.1 4.2 0 2.2 1.8 4.1 4.1 4.1z"/>
			<path id="Layer" class="s11" d="m504.3 262.4c2.2 0 4.1-1.9 4.1-4.1 0-2.3-1.9-4.2-4.1-4.2-2.3 0-4.2 1.9-4.2 4.2 0 2.2 1.9 4.1 4.2 4.1z"/>
			<path id="Layer" class="s11" d="m398 262.4c2.2 0 4.1-1.9 4.1-4.1 0-2.3-1.9-4.2-4.1-4.2-2.3 0-4.2 1.9-4.2 4.2 0 2.2 1.9 4.1 4.2 4.1z"/>
			<path id="Layer" fill-rule="evenodd" class="s12" d="m264.9 289.1c-17.1 0-30.9-13.9-30.9-30.9 0-17 13.8-30.8 30.9-30.8 17 0 30.8 13.8 30.8 30.8 0 17-13.8 30.9-30.8 30.9zm0-53.1c-12.3 0-22.2 10-22.2 22.2 0 12.3 9.9 22.2 22.2 22.2 12.2 0 22.2-9.9 22.2-22.2 0-12.2-10-22.2-22.2-22.2z"/>
			<path id="Layer" fill-rule="evenodd" class="s13" d="m451.6 289.3c-17.1 0-30.9-13.8-30.9-30.8 0-17 13.8-30.8 30.9-30.8 17 0 30.8 13.8 30.8 30.8 0 17-13.8 30.8-30.8 30.8zm0-53c-12.3 0-22.3 10-22.3 22.2 0 12.2 10 22.2 22.3 22.2 12.2 0 22.2-10 22.2-22.2 0-12.2-10-22.2-22.2-22.2z"/>
			<path id="Layer" class="s14" d="m531 262.4h-26.5c-2.4 0-4.4-2-4.4-4.3 0-0.2-0.1-12.7-6.4-24.9-8-15.8-22.3-23.8-42.4-23.8v-8.7c29.6 0 43.7 15.7 50.3 28.9 4.8 9.5 6.4 18.8 6.9 24.1h18.2v-48.6q0 0 0-0.1c0.1-5.8-2.1-11.3-6.2-15.5-4.1-4.2-9.5-6.5-15.4-6.6h-0.7-53.1c-2.4 0-4.3-1.9-4.4-4.3 0-26.9-22-48.7-48.9-48.7h-106.2v-8.6h106.2c30.2 0 55.1 23.4 57.4 52.9h49.8c8.2 0.1 15.8 3.4 21.5 9.3 5.7 5.8 8.8 13.5 8.7 21.6v52.9c0 2.4-2 4.4-4.4 4.4z"/>
			<path id="Layer" class="s15" d="m398.1 262.4h-79.8c-1.2 0-2.3-0.5-3.1-1.3-0.8-0.8-1.3-1.9-1.3-3.1 0-0.1-0.1-12.6-6.3-24.8-8-15.8-22.3-23.8-42.5-23.8-20.2 0-34.5 8-42.6 23.8-6.2 12.2-6.3 24.7-6.3 24.8h-8.6c0-1 0.1-25.4 16.9-42.2 10-10 23.7-15.1 40.6-15.1 16.9 0 30.6 5.1 40.6 15.1 12.7 12.8 15.9 30 16.6 37.9h75.8v8.7z"/>
			<path id="Layer" class="s16" d="m189.6 258h-8.6v-52.9c0-17 13.9-30.9 30.9-30.9h26.9v8.7h-26.9c-12.3 0-22.3 9.9-22.3 22.2z"/>
			<path id="Layer" fill-rule="evenodd" class="s17" d="m424.5 183h-159.4c-1.2 0-2.3-0.5-3.1-1.3-0.8-0.8-1.2-1.9-1.2-3.1 0.1-17 14-30.8 31.1-30.8h106.1c8.2 0 16 3.2 21.8 9 5.9 5.9 9.1 13.6 9.1 21.9 0 2.3-2 4.3-4.4 4.3zm-154.6-8.7h149.9c-0.8-4.3-2.9-8.2-6.1-11.4-4.2-4.2-9.8-6.5-15.7-6.5h-106.1c-10.8 0-19.9 7.7-22 17.9z"/>
			<path id="Layer" class="s18" d="m349.1 152.1h-8.6v26.6h8.6z"/>
			<path id="Layer" class="s19" d="m318.2 129.7c2.3 0 4.1-1.9 4.1-4.1 0-2.3-1.8-4.2-4.1-4.2-2.3 0-4.1 1.9-4.1 4.2 0 2.2 1.8 4.1 4.1 4.1z"/>
			<path id="Layer" class="s19" d="m291.6 129.7c2.3 0 4.1-1.9 4.1-4.1 0-2.3-1.8-4.2-4.1-4.2-2.3 0-4.1 1.9-4.1 4.2 0 2.2 1.8 4.1 4.1 4.1z"/>
			<path id="Layer" class="s20" d="m265 156.2c2.3 0 4.2-1.8 4.2-4.1 0-2.3-1.9-4.1-4.2-4.1-2.2 0-4.1 1.8-4.1 4.1 0 2.3 1.9 4.1 4.1 4.1z"/>
			<path id="Layer" class="s19" d="m265 209.3c2.3 0 4.2-1.8 4.2-4.1 0-2.3-1.9-4.1-4.2-4.1-2.2 0-4.1 1.8-4.1 4.1 0 2.3 1.9 4.1 4.1 4.1z"/>
			<path id="Layer" class="s19" d="m238.5 182.8c2.2 0 4.1-1.9 4.1-4.1 0-2.3-1.9-4.2-4.1-4.2-2.3 0-4.2 1.9-4.2 4.2 0 2.2 1.9 4.1 4.2 4.1z"/>
			<path id="Layer" class="s19" d="m211.9 182.8c2.3 0 4.1-1.9 4.1-4.1 0-2.3-1.8-4.2-4.1-4.2-2.3 0-4.1 1.9-4.1 4.2 0 2.2 1.8 4.1 4.1 4.1z"/>
			<path id="Layer" class="s19" d="m185.3 209.3c2.3 0 4.1-1.8 4.1-4.1 0-2.3-1.8-4.1-4.1-4.1-2.3 0-4.1 1.8-4.1 4.1 0 2.3 1.8 4.1 4.1 4.1z"/>
			<path id="Layer" class="s19" d="m398 129.7c2.2 0 4.1-1.9 4.1-4.1 0-2.3-1.9-4.2-4.1-4.2-2.3 0-4.2 1.9-4.2 4.2 0 2.2 1.9 4.1 4.2 4.1z"/>
			<path id="Layer" class="s19" d="m371.4 129.7c2.3 0 4.1-1.9 4.1-4.1 0-2.3-1.8-4.2-4.1-4.2-2.3 0-4.1 1.9-4.1 4.2 0 2.2 1.8 4.1 4.1 4.1z"/>
			<path id="Layer" class="s19" d="m344.8 129.7c2.3 0 4.1-1.9 4.1-4.1 0-2.3-1.8-4.2-4.1-4.2-2.3 0-4.1 1.9-4.1 4.2 0 2.2 1.8 4.1 4.1 4.1z"/>
			<path id="Layer" class="s19" d="m344.8 129.7c2.3 0 4.1-1.9 4.1-4.1 0-2.3-1.8-4.2-4.1-4.2-2.3 0-4.1 1.9-4.1 4.2 0 2.2 1.8 4.1 4.1 4.1z"/>
			<path id="Layer" class="s19" d="m344.8 129.7c2.2 0 4.1-1.9 4.1-4.1 0-2.3-1.9-4.2-4.1-4.2-2.3 0-4.2 1.9-4.2 4.2 0 2.2 1.9 4.1 4.2 4.1z"/>
			<path id="Layer" class="s19" d="m318.2 129.7c2.3 0 4.1-1.9 4.1-4.1 0-2.3-1.8-4.2-4.1-4.2-2.3 0-4.1 1.9-4.1 4.2 0 2.2 1.8 4.1 4.1 4.1z"/>
			<path id="Layer" class="s20" d="m424.5 156.2c2.3 0 4.2-1.8 4.2-4.1 0-2.3-1.9-4.1-4.2-4.1-2.2 0-4.1 1.8-4.1 4.1 0 2.3 1.9 4.1 4.1 4.1z"/>
			<path id="Layer" class="s19" d="m398 129.7c2.2 0 4.1-1.9 4.1-4.1 0-2.3-1.9-4.2-4.1-4.2-2.3 0-4.2 1.9-4.2 4.2 0 2.2 1.9 4.1 4.2 4.1z"/>
			<path id="Layer" class="s19" d="m530.8 209.3c2.3 0 4.2-1.8 4.2-4.1 0-2.3-1.9-4.1-4.2-4.1-2.3 0-4.1 1.8-4.1 4.1 0 2.3 1.8 4.1 4.1 4.1z"/>
			<path id="Layer" class="s19" d="m504.3 182.8c2.2 0 4.1-1.9 4.1-4.1 0-2.3-1.9-4.2-4.1-4.2-2.3 0-4.2 1.9-4.2 4.2 0 2.2 1.9 4.1 4.2 4.1z"/>
			<path id="Layer" class="s19" d="m477.7 182.8c2.3 0 4.1-1.9 4.1-4.1 0-2.3-1.8-4.2-4.1-4.2-2.3 0-4.1 1.9-4.1 4.2 0 2.2 1.8 4.1 4.1 4.1z"/>
			<path id="Layer" class="s19" d="m451.1 182.8c2.3 0 4.1-1.9 4.1-4.1 0-2.3-1.8-4.2-4.1-4.2-2.3 0-4.1 1.9-4.1 4.2 0 2.2 1.8 4.1 4.1 4.1z"/>
			<path id="Layer" class="s19" d="m451.1 209.3c2.3 0 4.1-1.8 4.1-4.1 0-2.3-1.8-4.1-4.1-4.1-2.3 0-4.1 1.8-4.1 4.1 0 2.3 1.8 4.1 4.1 4.1z"/>
			<path id="Layer" class="s19" d="m265 209.3c2.3 0 4.2-1.8 4.2-4.1 0-2.3-1.9-4.1-4.2-4.1-2.2 0-4.1 1.8-4.1 4.1 0 2.3 1.9 4.1 4.1 4.1z"/>
			<path id="Layer" class="s19" d="m185.3 209.3c2.3 0 4.1-1.8 4.1-4.1 0-2.3-1.8-4.1-4.1-4.1-2.3 0-4.1 1.8-4.1 4.1 0 2.3 1.8 4.1 4.1 4.1z"/>
			<path id="Layer" class="s19" d="m185.3 235.9c2.3 0 4.1-1.9 4.1-4.2 0-2.2-1.8-4.1-4.1-4.1-2.3 0-4.1 1.9-4.1 4.1 0 2.3 1.8 4.2 4.1 4.2z"/>
			<path id="Layer" class="s19" d="m318.2 262.4c2.3 0 4.1-1.9 4.1-4.1 0-2.3-1.8-4.2-4.1-4.2-2.3 0-4.1 1.9-4.1 4.2 0 2.2 1.8 4.1 4.1 4.1z"/>
			<path id="Layer" class="s19" d="m211.9 262.4c2.3 0 4.1-1.9 4.1-4.1 0-2.3-1.8-4.2-4.1-4.2-2.3 0-4.1 1.9-4.1 4.2 0 2.2 1.8 4.1 4.1 4.1z"/>
			<path id="Layer" class="s19" d="m185.3 262.4c2.3 0 4.1-1.9 4.1-4.1 0-2.3-1.8-4.2-4.1-4.2-2.3 0-4.1 1.9-4.1 4.2 0 2.2 1.8 4.1 4.1 4.1z"/>
			<path id="Layer" class="s19" d="m398 262.4c2.2 0 4.1-1.9 4.1-4.1 0-2.3-1.9-4.2-4.1-4.2-2.3 0-4.2 1.9-4.2 4.2 0 2.2 1.9 4.1 4.2 4.1z"/>
			<path id="Layer" class="s19" d="m371.4 262.4c2.3 0 4.1-1.9 4.1-4.1 0-2.3-1.8-4.2-4.1-4.2-2.3 0-4.1 1.9-4.1 4.2 0 2.2 1.8 4.1 4.1 4.1z"/>
			<path id="Layer" class="s19" d="m344.8 262.4c2.3 0 4.1-1.9 4.1-4.1 0-2.3-1.8-4.2-4.1-4.2-2.3 0-4.1 1.9-4.1 4.2 0 2.2 1.8 4.1 4.1 4.1z"/>
			<path id="Layer" class="s19" d="m344.8 262.4c2.3 0 4.1-1.9 4.1-4.1 0-2.3-1.8-4.2-4.1-4.2-2.3 0-4.1 1.9-4.1 4.2 0 2.2 1.8 4.1 4.1 4.1z"/>
			<path id="Layer" class="s19" d="m344.8 262.4c2.2 0 4.1-1.9 4.1-4.1 0-2.3-1.9-4.2-4.1-4.2-2.3 0-4.2 1.9-4.2 4.2 0 2.2 1.9 4.1 4.2 4.1z"/>
			<path id="Layer" class="s19" d="m318.2 262.4c2.3 0 4.1-1.9 4.1-4.1 0-2.3-1.8-4.2-4.1-4.2-2.3 0-4.1 1.9-4.1 4.2 0 2.2 1.8 4.1 4.1 4.1z"/>
			<path id="Layer" class="s19" d="m530.8 209.3c2.3 0 4.2-1.8 4.2-4.1 0-2.3-1.9-4.1-4.2-4.1-2.3 0-4.1 1.8-4.1 4.1 0 2.3 1.8 4.1 4.1 4.1z"/>
			<path id="Layer" class="s19" d="m530.8 235.9c2.3 0 4.2-1.9 4.2-4.2 0-2.2-1.9-4.1-4.2-4.1-2.3 0-4.1 1.9-4.1 4.1 0 2.3 1.8 4.2 4.1 4.2z"/>
			<path id="Layer" class="s19" d="m451.1 209.3c2.3 0 4.1-1.8 4.1-4.1 0-2.3-1.8-4.1-4.1-4.1-2.3 0-4.1 1.8-4.1 4.1 0 2.3 1.8 4.1 4.1 4.1z"/>
			<path id="Layer" class="s19" d="m530.8 262.4c2.3 0 4.2-1.9 4.2-4.1 0-2.3-1.9-4.2-4.2-4.2-2.3 0-4.1 1.9-4.1 4.2 0 2.2 1.8 4.1 4.1 4.1z"/>
			<path id="Layer" class="s19" d="m504.3 262.4c2.2 0 4.1-1.9 4.1-4.1 0-2.3-1.9-4.2-4.1-4.2-2.3 0-4.2 1.9-4.2 4.2 0 2.2 1.9 4.1 4.2 4.1z"/>
			<path id="Layer" class="s19" d="m398 262.4c2.2 0 4.1-1.9 4.1-4.1 0-2.3-1.9-4.2-4.1-4.2-2.3 0-4.2 1.9-4.2 4.2 0 2.2 1.9 4.1 4.2 4.1z"/>
			<path id="Layer" class="s19" d="m265 235.9c2.3 0 4.2-1.9 4.2-4.2 0-2.2-1.9-4.1-4.2-4.1-2.2 0-4.1 1.9-4.1 4.1 0 2.3 1.9 4.2 4.1 4.2z"/>
			<path id="Layer" class="s19" d="m291.6 262.4c2.3 0 4.1-1.9 4.1-4.1 0-2.3-1.8-4.2-4.1-4.2-2.3 0-4.1 1.9-4.1 4.2 0 2.2 1.8 4.1 4.1 4.1z"/>
			<path id="Layer" class="s19" d="m265 288.9c2.3 0 4.2-1.8 4.2-4.1 0-2.3-1.9-4.1-4.2-4.1-2.2 0-4.1 1.8-4.1 4.1 0 2.3 1.9 4.1 4.1 4.1z"/>
			<path id="Layer" class="s19" d="m238.5 262.4c2.2 0 4.1-1.9 4.1-4.1 0-2.3-1.9-4.2-4.1-4.2-2.3 0-4.2 1.9-4.2 4.2 0 2.2 1.9 4.1 4.2 4.1z"/>
			<path id="Layer" class="s19" d="m451.1 235.9c2.3 0 4.1-1.9 4.1-4.2 0-2.2-1.8-4.1-4.1-4.1-2.3 0-4.1 1.9-4.1 4.1 0 2.3 1.8 4.2 4.1 4.2z"/>
			<path id="Layer" class="s19" d="m477.7 262.4c2.3 0 4.1-1.9 4.1-4.1 0-2.3-1.8-4.2-4.1-4.2-2.3 0-4.1 1.9-4.1 4.2 0 2.2 1.8 4.1 4.1 4.1z"/>
			<path id="Layer" class="s19" d="m451.1 288.9c2.3 0 4.1-1.8 4.1-4.1 0-2.3-1.8-4.1-4.1-4.1-2.3 0-4.1 1.8-4.1 4.1 0 2.3 1.8 4.1 4.1 4.1z"/>
			<path id="Layer" class="s19" d="m424.5 262.4c2.3 0 4.2-1.9 4.2-4.1 0-2.3-1.9-4.2-4.2-4.2-2.2 0-4.1 1.9-4.1 4.2 0 2.2 1.9 4.1 4.1 4.1z"/>
			<path id="Layer" class="s19" d="m318.2 156.2c2.3 0 4.1-1.8 4.1-4.1 0-2.3-1.8-4.1-4.1-4.1-2.3 0-4.1 1.8-4.1 4.1 0 2.3 1.8 4.1 4.1 4.1z"/>
			<path id="Layer" class="s19" d="m291.6 156.2c2.3 0 4.1-1.8 4.1-4.1 0-2.3-1.8-4.1-4.1-4.1-2.3 0-4.1 1.8-4.1 4.1 0 2.3 1.8 4.1 4.1 4.1z"/>
			<path id="Layer" class="s19" d="m318.2 182.8c2.3 0 4.1-1.9 4.1-4.1 0-2.3-1.8-4.2-4.1-4.2-2.3 0-4.1 1.9-4.1 4.2 0 2.2 1.8 4.1 4.1 4.1z"/>
			<path id="Layer" class="s19" d="m291.6 182.8c2.3 0 4.1-1.9 4.1-4.1 0-2.3-1.8-4.2-4.1-4.2-2.3 0-4.1 1.9-4.1 4.2 0 2.2 1.8 4.1 4.1 4.1z"/>
			<path id="Layer" class="s19" d="m265 182.8c2.3 0 4.2-1.9 4.2-4.1 0-2.3-1.9-4.2-4.2-4.2-2.2 0-4.1 1.9-4.1 4.2 0 2.2 1.9 4.1 4.1 4.1z"/>
			<path id="Layer" class="s19" d="m398 156.2c2.2 0 4.1-1.8 4.1-4.1 0-2.3-1.9-4.1-4.1-4.1-2.3 0-4.2 1.8-4.2 4.1 0 2.3 1.9 4.1 4.2 4.1z"/>
			<path id="Layer" class="s19" d="m371.4 156.2c2.3 0 4.1-1.8 4.1-4.1 0-2.3-1.8-4.1-4.1-4.1-2.3 0-4.1 1.8-4.1 4.1 0 2.3 1.8 4.1 4.1 4.1z"/>
			<path id="Layer" class="s19" d="m344.8 156.2c2.3 0 4.1-1.8 4.1-4.1 0-2.3-1.8-4.1-4.1-4.1-2.3 0-4.1 1.8-4.1 4.1 0 2.3 1.8 4.1 4.1 4.1z"/>
			<path id="Layer" class="s19" d="m344.8 156.2c2.3 0 4.1-1.8 4.1-4.1 0-2.3-1.8-4.1-4.1-4.1-2.3 0-4.1 1.8-4.1 4.1 0 2.3 1.8 4.1 4.1 4.1z"/>
			<path id="Layer" class="s19" d="m344.8 156.2c2.2 0 4.1-1.8 4.1-4.1 0-2.3-1.9-4.1-4.1-4.1-2.3 0-4.2 1.8-4.2 4.1 0 2.3 1.9 4.1 4.2 4.1z"/>
			<path id="Layer" class="s19" d="m318.2 156.2c2.3 0 4.1-1.8 4.1-4.1 0-2.3-1.8-4.1-4.1-4.1-2.3 0-4.1 1.8-4.1 4.1 0 2.3 1.8 4.1 4.1 4.1z"/>
			<path id="Layer" class="s19" d="m398 182.8c2.2 0 4.1-1.9 4.1-4.1 0-2.3-1.9-4.2-4.1-4.2-2.3 0-4.2 1.9-4.2 4.2 0 2.2 1.9 4.1 4.2 4.1z"/>
			<path id="Layer" class="s19" d="m371.4 182.8c2.3 0 4.1-1.9 4.1-4.1 0-2.3-1.8-4.2-4.1-4.2-2.3 0-4.1 1.9-4.1 4.2 0 2.2 1.8 4.1 4.1 4.1z"/>
			<path id="Layer" class="s19" d="m344.8 182.8c2.3 0 4.1-1.9 4.1-4.1 0-2.3-1.8-4.2-4.1-4.2-2.3 0-4.1 1.9-4.1 4.2 0 2.2 1.8 4.1 4.1 4.1z"/>
			<path id="Layer" class="s19" d="m344.8 182.8c2.3 0 4.1-1.9 4.1-4.1 0-2.3-1.8-4.2-4.1-4.2-2.3 0-4.1 1.9-4.1 4.2 0 2.2 1.8 4.1 4.1 4.1z"/>
			<path id="Layer" class="s19" d="m344.8 182.8c2.2 0 4.1-1.9 4.1-4.1 0-2.3-1.9-4.2-4.1-4.2-2.3 0-4.2 1.9-4.2 4.2 0 2.2 1.9 4.1 4.2 4.1z"/>
			<path id="Layer" class="s19" d="m318.2 182.8c2.3 0 4.1-1.9 4.1-4.1 0-2.3-1.8-4.2-4.1-4.2-2.3 0-4.1 1.9-4.1 4.2 0 2.2 1.8 4.1 4.1 4.1z"/>
			<path id="Layer" class="s19" d="m398 156.2c2.2 0 4.1-1.8 4.1-4.1 0-2.3-1.9-4.1-4.1-4.1-2.3 0-4.2 1.8-4.2 4.1 0 2.3 1.9 4.1 4.2 4.1z"/>
			<path id="Layer" class="s19" d="m424.5 182.8c2.3 0 4.2-1.9 4.2-4.1 0-2.3-1.9-4.2-4.2-4.2-2.2 0-4.1 1.9-4.1 4.2 0 2.2 1.9 4.1 4.1 4.1z"/>
			<path id="Layer" class="s19" d="m398 182.8c2.2 0 4.1-1.9 4.1-4.1 0-2.3-1.9-4.2-4.1-4.2-2.3 0-4.2 1.9-4.2 4.2 0 2.2 1.9 4.1 4.2 4.1z"/>
			<path id="Layer" class="s20" d="m238.5 129.7c2.2 0 4.1-1.9 4.1-4.1 0-2.3-1.9-4.2-4.1-4.2-2.3 0-4.2 1.9-4.2 4.2 0 2.2 1.9 4.1 4.2 4.1z"/>
			<path id="Layer" class="s20" d="m211.9 129.7c2.3 0 4.1-1.9 4.1-4.1 0-2.3-1.8-4.2-4.1-4.2-2.3 0-4.1 1.9-4.1 4.2 0 2.2 1.8 4.1 4.1 4.1z"/>
			<path id="Layer" class="s20" d="m185.3 129.7c2.3 0 4.1-1.9 4.1-4.1 0-2.3-1.8-4.2-4.1-4.2-2.3 0-4.1 1.9-4.1 4.2 0 2.2 1.8 4.1 4.1 4.1z"/>
			<path id="Layer" class="s20" d="m318.2 103.2c2.3 0 4.1-1.9 4.1-4.1 0-2.3-1.8-4.2-4.1-4.2-2.3 0-4.1 1.9-4.1 4.2 0 2.2 1.8 4.1 4.1 4.1z"/>
			<path id="Layer" class="s20" d="m291.6 103.2c2.3 0 4.1-1.9 4.1-4.1 0-2.3-1.8-4.2-4.1-4.2-2.3 0-4.1 1.9-4.1 4.2 0 2.2 1.8 4.1 4.1 4.1z"/>
			<path id="Layer" class="s20" d="m265 103.2c2.3 0 4.2-1.9 4.2-4.1 0-2.3-1.9-4.2-4.2-4.2-2.2 0-4.1 1.9-4.1 4.2 0 2.2 1.9 4.1 4.1 4.1z"/>
			<path id="Layer" class="s20" d="m238.5 103.2c2.2 0 4.1-1.9 4.1-4.1 0-2.3-1.9-4.2-4.1-4.2-2.3 0-4.2 1.9-4.2 4.2 0 2.2 1.9 4.1 4.2 4.1z"/>
			<path id="Layer" class="s20" d="m318.2 209.3c2.3 0 4.1-1.8 4.1-4.1 0-2.3-1.8-4.1-4.1-4.1-2.3 0-4.1 1.8-4.1 4.1 0 2.3 1.8 4.1 4.1 4.1z"/>
			<path id="Layer" class="s20" d="m291.6 209.3c2.3 0 4.1-1.8 4.1-4.1 0-2.3-1.8-4.1-4.1-4.1-2.3 0-4.1 1.8-4.1 4.1 0 2.3 1.8 4.1 4.1 4.1z"/>
			<path id="Layer" class="s20" d="m238.5 209.3c2.2 0 4.1-1.8 4.1-4.1 0-2.3-1.9-4.1-4.1-4.1-2.3 0-4.2 1.8-4.2 4.1 0 2.3 1.9 4.1 4.2 4.1z"/>
			<path id="Layer" class="s20" d="m211.9 209.3c2.3 0 4.1-1.8 4.1-4.1 0-2.3-1.8-4.1-4.1-4.1-2.3 0-4.1 1.8-4.1 4.1 0 2.3 1.8 4.1 4.1 4.1z"/>
			<path id="Layer" class="s20" d="m185.3 182.8c2.3 0 4.1-1.9 4.1-4.1 0-2.3-1.8-4.2-4.1-4.2-2.3 0-4.1 1.9-4.1 4.2 0 2.2 1.8 4.1 4.1 4.1z"/>
			<path id="Layer" class="s20" d="m398 209.3c2.2 0 4.1-1.8 4.1-4.1 0-2.3-1.9-4.1-4.1-4.1-2.3 0-4.2 1.8-4.2 4.1 0 2.3 1.9 4.1 4.2 4.1z"/>
			<path id="Layer" class="s20" d="m371.4 209.3c2.3 0 4.1-1.8 4.1-4.1 0-2.3-1.8-4.1-4.1-4.1-2.3 0-4.1 1.8-4.1 4.1 0 2.3 1.8 4.1 4.1 4.1z"/>
			<path id="Layer" class="s20" d="m344.8 209.3c2.3 0 4.1-1.8 4.1-4.1 0-2.3-1.8-4.1-4.1-4.1-2.3 0-4.1 1.8-4.1 4.1 0 2.3 1.8 4.1 4.1 4.1z"/>
			<path id="Layer" class="s20" d="m344.8 209.3c2.3 0 4.1-1.8 4.1-4.1 0-2.3-1.8-4.1-4.1-4.1-2.3 0-4.1 1.8-4.1 4.1 0 2.3 1.8 4.1 4.1 4.1z"/>
			<path id="Layer" class="s20" d="m344.8 209.3c2.2 0 4.1-1.8 4.1-4.1 0-2.3-1.9-4.1-4.1-4.1-2.3 0-4.2 1.8-4.2 4.1 0 2.3 1.9 4.1 4.2 4.1z"/>
			<path id="Layer" class="s20" d="m318.2 209.3c2.3 0 4.1-1.8 4.1-4.1 0-2.3-1.8-4.1-4.1-4.1-2.3 0-4.1 1.8-4.1 4.1 0 2.3 1.8 4.1 4.1 4.1z"/>
			<path id="Layer" class="s20" d="m530.8 182.8c2.3 0 4.2-1.9 4.2-4.1 0-2.3-1.9-4.2-4.2-4.2-2.3 0-4.1 1.9-4.1 4.2 0 2.2 1.8 4.1 4.1 4.1z"/>
			<path id="Layer" class="s20" d="m504.3 209.3c2.2 0 4.1-1.8 4.1-4.1 0-2.3-1.9-4.1-4.1-4.1-2.3 0-4.2 1.8-4.2 4.1 0 2.3 1.9 4.1 4.2 4.1z"/>
			<path id="Layer" class="s20" d="m477.7 209.3c2.3 0 4.1-1.8 4.1-4.1 0-2.3-1.8-4.1-4.1-4.1-2.3 0-4.1 1.8-4.1 4.1 0 2.3 1.8 4.1 4.1 4.1z"/>
			<path id="Layer" class="s20" d="m424.5 209.3c2.3 0 4.2-1.8 4.2-4.1 0-2.3-1.9-4.1-4.2-4.1-2.2 0-4.1 1.8-4.1 4.1 0 2.3 1.9 4.1 4.1 4.1z"/>
			<path id="Layer" class="s20" d="m398 209.3c2.2 0 4.1-1.8 4.1-4.1 0-2.3-1.9-4.1-4.1-4.1-2.3 0-4.2 1.8-4.2 4.1 0 2.3 1.9 4.1 4.2 4.1z"/>
			<path id="Layer" class="s20" d="m318.2 209.3c2.3 0 4.1-1.8 4.1-4.1 0-2.3-1.8-4.1-4.1-4.1-2.3 0-4.1 1.8-4.1 4.1 0 2.3 1.8 4.1 4.1 4.1z"/>
			<path id="Layer" class="s20" d="m318.2 235.9c2.3 0 4.1-1.9 4.1-4.2 0-2.2-1.8-4.1-4.1-4.1-2.3 0-4.1 1.9-4.1 4.1 0 2.3 1.8 4.2 4.1 4.2z"/>
			<path id="Layer" class="s20" d="m291.6 209.3c2.3 0 4.1-1.8 4.1-4.1 0-2.3-1.8-4.1-4.1-4.1-2.3 0-4.1 1.8-4.1 4.1 0 2.3 1.8 4.1 4.1 4.1z"/>
			<path id="Layer" class="s20" d="m291.6 235.9c2.3 0 4.1-1.9 4.1-4.2 0-2.2-1.8-4.1-4.1-4.1-2.3 0-4.1 1.9-4.1 4.1 0 2.3 1.8 4.2 4.1 4.2z"/>
			<path id="Layer" class="s20" d="m238.5 209.3c2.2 0 4.1-1.8 4.1-4.1 0-2.3-1.9-4.1-4.1-4.1-2.3 0-4.2 1.8-4.2 4.1 0 2.3 1.9 4.1 4.2 4.1z"/>
			<path id="Layer" class="s20" d="m238.5 235.9c2.2 0 4.1-1.9 4.1-4.2 0-2.2-1.9-4.1-4.1-4.1-2.3 0-4.2 1.9-4.2 4.1 0 2.3 1.9 4.2 4.2 4.2z"/>
			<path id="Layer" class="s20" d="m211.9 209.3c2.3 0 4.1-1.8 4.1-4.1 0-2.3-1.8-4.1-4.1-4.1-2.3 0-4.1 1.8-4.1 4.1 0 2.3 1.8 4.1 4.1 4.1z"/>
			<path id="Layer" class="s20" d="m211.9 235.9c2.3 0 4.1-1.9 4.1-4.2 0-2.2-1.8-4.1-4.1-4.1-2.3 0-4.1 1.9-4.1 4.1 0 2.3 1.8 4.2 4.1 4.2z"/>
			<path id="Layer" class="s20" d="m318.2 288.9c2.3 0 4.1-1.8 4.1-4.1 0-2.3-1.8-4.1-4.1-4.1-2.3 0-4.1 1.8-4.1 4.1 0 2.3 1.8 4.1 4.1 4.1z"/>
			<path id="Layer" class="s20" d="m291.6 288.9c2.3 0 4.1-1.8 4.1-4.1 0-2.3-1.8-4.1-4.1-4.1-2.3 0-4.1 1.8-4.1 4.1 0 2.3 1.8 4.1 4.1 4.1z"/>
			<path id="Layer" class="s20" d="m265 262.4c2.3 0 4.2-1.9 4.2-4.1 0-2.3-1.9-4.2-4.2-4.2-2.2 0-4.1 1.9-4.1 4.2 0 2.2 1.9 4.1 4.1 4.1z"/>
			<path id="Layer" class="s20" d="m211.9 288.9c2.3 0 4.1-1.8 4.1-4.1 0-2.3-1.8-4.1-4.1-4.1-2.3 0-4.1 1.8-4.1 4.1 0 2.3 1.8 4.1 4.1 4.1z"/>
			<path id="Layer" class="s20" d="m185.3 288.9c2.3 0 4.1-1.8 4.1-4.1 0-2.3-1.8-4.1-4.1-4.1-2.3 0-4.1 1.8-4.1 4.1 0 2.3 1.8 4.1 4.1 4.1z"/>
			<path id="Layer" class="s20" d="m398 209.3c2.2 0 4.1-1.8 4.1-4.1 0-2.3-1.9-4.1-4.1-4.1-2.3 0-4.2 1.8-4.2 4.1 0 2.3 1.9 4.1 4.2 4.1z"/>
			<path id="Layer" class="s20" d="m398 235.9c2.2 0 4.1-1.9 4.1-4.2 0-2.2-1.9-4.1-4.1-4.1-2.3 0-4.2 1.9-4.2 4.1 0 2.3 1.9 4.2 4.2 4.2z"/>
			<path id="Layer" class="s20" d="m371.4 209.3c2.3 0 4.1-1.8 4.1-4.1 0-2.3-1.8-4.1-4.1-4.1-2.3 0-4.1 1.8-4.1 4.1 0 2.3 1.8 4.1 4.1 4.1z"/>
			<path id="Layer" class="s20" d="m371.4 235.9c2.3 0 4.1-1.9 4.1-4.2 0-2.2-1.8-4.1-4.1-4.1-2.3 0-4.1 1.9-4.1 4.1 0 2.3 1.8 4.2 4.1 4.2z"/>
			<path id="Layer" class="s20" d="m344.8 209.3c2.3 0 4.1-1.8 4.1-4.1 0-2.3-1.8-4.1-4.1-4.1-2.3 0-4.1 1.8-4.1 4.1 0 2.3 1.8 4.1 4.1 4.1z"/>
			<path id="Layer" class="s20" d="m344.8 235.9c2.3 0 4.1-1.9 4.1-4.2 0-2.2-1.8-4.1-4.1-4.1-2.3 0-4.1 1.9-4.1 4.1 0 2.3 1.8 4.2 4.1 4.2z"/>
			<path id="Layer" class="s20" d="m344.8 209.3c2.3 0 4.1-1.8 4.1-4.1 0-2.3-1.8-4.1-4.1-4.1-2.3 0-4.1 1.8-4.1 4.1 0 2.3 1.8 4.1 4.1 4.1z"/>
			<path id="Layer" class="s20" d="m344.8 235.9c2.3 0 4.1-1.9 4.1-4.2 0-2.2-1.8-4.1-4.1-4.1-2.3 0-4.1 1.9-4.1 4.1 0 2.3 1.8 4.2 4.1 4.2z"/>
			<path id="Layer" class="s20" d="m344.8 209.3c2.2 0 4.1-1.8 4.1-4.1 0-2.3-1.9-4.1-4.1-4.1-2.3 0-4.2 1.8-4.2 4.1 0 2.3 1.9 4.1 4.2 4.1z"/>
			<path id="Layer" class="s20" d="m344.8 235.9c2.2 0 4.1-1.9 4.1-4.2 0-2.2-1.9-4.1-4.1-4.1-2.3 0-4.2 1.9-4.2 4.1 0 2.3 1.9 4.2 4.2 4.2z"/>
			<path id="Layer" class="s20" d="m318.2 209.3c2.3 0 4.1-1.8 4.1-4.1 0-2.3-1.8-4.1-4.1-4.1-2.3 0-4.1 1.8-4.1 4.1 0 2.3 1.8 4.1 4.1 4.1z"/>
			<path id="Layer" class="s20" d="m318.2 235.9c2.3 0 4.1-1.9 4.1-4.2 0-2.2-1.8-4.1-4.1-4.1-2.3 0-4.1 1.9-4.1 4.1 0 2.3 1.8 4.2 4.1 4.2z"/>
			<path id="Layer" class="s20" d="m212 209.3c2.3 0 4.1-1.8 4.1-4.1 0-2.3-1.8-4.1-4.1-4.1-2.3 0-4.1 1.8-4.1 4.1 0 2.3 1.8 4.1 4.1 4.1z"/>
			<path id="Layer" class="s20" d="m185.4 209.3c2.3 0 4.1-1.8 4.1-4.1 0-2.3-1.8-4.1-4.1-4.1-2.3 0-4.1 1.8-4.1 4.1 0 2.3 1.8 4.1 4.1 4.1z"/>
			<path id="Layer" class="s20" d="m132.3 209.3c2.3 0 4.1-1.8 4.1-4.1 0-2.3-1.8-4.1-4.1-4.1-2.3 0-4.2 1.8-4.2 4.1 0 2.3 1.9 4.1 4.2 4.1z"/>
			<path id="Layer" class="s20" d="m105.7 209.3c2.3 0 4.1-1.8 4.1-4.1 0-2.3-1.8-4.1-4.1-4.1-2.3 0-4.1 1.8-4.1 4.1 0 2.3 1.8 4.1 4.1 4.1z"/>
			<path id="Layer" class="s20" d="m79.1 182.8c2.3 0 4.2-1.9 4.2-4.1 0-2.3-1.9-4.2-4.2-4.2-2.3 0-4.1 1.9-4.1 4.2 0 2.2 1.8 4.1 4.1 4.1z"/>
			<path id="Layer" class="s20" d="m212 209.3c2.3 0 4.1-1.8 4.1-4.1 0-2.3-1.8-4.1-4.1-4.1-2.3 0-4.1 1.8-4.1 4.1 0 2.3 1.8 4.1 4.1 4.1z"/>
			<path id="Layer" class="s20" d="m212 209.3c2.3 0 4.1-1.8 4.1-4.1 0-2.3-1.8-4.1-4.1-4.1-2.3 0-4.1 1.8-4.1 4.1 0 2.3 1.8 4.1 4.1 4.1z"/>
			<path id="Layer" class="s20" d="m212 235.9c2.3 0 4.1-1.9 4.1-4.2 0-2.2-1.8-4.1-4.1-4.1-2.3 0-4.1 1.9-4.1 4.1 0 2.3 1.8 4.2 4.1 4.2z"/>
			<path id="Layer" class="s20" d="m185.4 209.3c2.3 0 4.1-1.8 4.1-4.1 0-2.3-1.8-4.1-4.1-4.1-2.3 0-4.1 1.8-4.1 4.1 0 2.3 1.8 4.1 4.1 4.1z"/>
			<path id="Layer" class="s20" d="m185.4 235.9c2.3 0 4.1-1.9 4.1-4.2 0-2.2-1.8-4.1-4.1-4.1-2.3 0-4.1 1.9-4.1 4.1 0 2.3 1.8 4.2 4.1 4.2z"/>
			<path id="Layer" class="s20" d="m132.3 209.3c2.3 0 4.1-1.8 4.1-4.1 0-2.3-1.8-4.1-4.1-4.1-2.3 0-4.2 1.8-4.2 4.1 0 2.3 1.9 4.1 4.2 4.1z"/>
			<path id="Layer" class="s20" d="m132.3 235.9c2.3 0 4.1-1.9 4.1-4.2 0-2.2-1.8-4.1-4.1-4.1-2.3 0-4.2 1.9-4.2 4.1 0 2.3 1.9 4.2 4.2 4.2z"/>
			<path id="Layer" class="s20" d="m105.7 209.3c2.3 0 4.1-1.8 4.1-4.1 0-2.3-1.8-4.1-4.1-4.1-2.3 0-4.1 1.8-4.1 4.1 0 2.3 1.8 4.1 4.1 4.1z"/>
			<path id="Layer" class="s20" d="m105.7 235.9c2.3 0 4.1-1.9 4.1-4.2 0-2.2-1.8-4.1-4.1-4.1-2.3 0-4.1 1.9-4.1 4.1 0 2.3 1.8 4.2 4.1 4.2z"/>
			<path id="Layer" class="s20" d="m158.8 262.4c2.3 0 4.2-1.9 4.2-4.1 0-2.3-1.9-4.2-4.2-4.2-2.2 0-4.1 1.9-4.1 4.2 0 2.2 1.9 4.1 4.1 4.1z"/>
			<path id="Layer" class="s20" d="m212 209.3c2.3 0 4.1-1.8 4.1-4.1 0-2.3-1.8-4.1-4.1-4.1-2.3 0-4.1 1.8-4.1 4.1 0 2.3 1.8 4.1 4.1 4.1z"/>
			<path id="Layer" class="s20" d="m212 235.9c2.3 0 4.1-1.9 4.1-4.2 0-2.2-1.8-4.1-4.1-4.1-2.3 0-4.1 1.9-4.1 4.1 0 2.3 1.8 4.2 4.1 4.2z"/>
			<path id="Layer" class="s20" d="m398 288.9c2.2 0 4.1-1.8 4.1-4.1 0-2.3-1.9-4.1-4.1-4.1-2.3 0-4.2 1.8-4.2 4.1 0 2.3 1.9 4.1 4.2 4.1z"/>
			<path id="Layer" class="s20" d="m371.4 288.9c2.3 0 4.1-1.8 4.1-4.1 0-2.3-1.8-4.1-4.1-4.1-2.3 0-4.1 1.8-4.1 4.1 0 2.3 1.8 4.1 4.1 4.1z"/>
			<path id="Layer" class="s20" d="m344.8 288.9c2.3 0 4.1-1.8 4.1-4.1 0-2.3-1.8-4.1-4.1-4.1-2.3 0-4.1 1.8-4.1 4.1 0 2.3 1.8 4.1 4.1 4.1z"/>
			<path id="Layer" class="s20" d="m344.8 288.9c2.3 0 4.1-1.8 4.1-4.1 0-2.3-1.8-4.1-4.1-4.1-2.3 0-4.1 1.8-4.1 4.1 0 2.3 1.8 4.1 4.1 4.1z"/>
			<path id="Layer" class="s20" d="m344.8 288.9c2.2 0 4.1-1.8 4.1-4.1 0-2.3-1.9-4.1-4.1-4.1-2.3 0-4.2 1.8-4.2 4.1 0 2.3 1.9 4.1 4.2 4.1z"/>
			<path id="Layer" class="s20" d="m318.2 288.9c2.3 0 4.1-1.8 4.1-4.1 0-2.3-1.8-4.1-4.1-4.1-2.3 0-4.1 1.8-4.1 4.1 0 2.3 1.8 4.1 4.1 4.1z"/>
			<path id="Layer" class="s20" d="m504.3 209.3c2.2 0 4.1-1.8 4.1-4.1 0-2.3-1.9-4.1-4.1-4.1-2.3 0-4.2 1.8-4.2 4.1 0 2.3 1.9 4.1 4.2 4.1z"/>
			<path id="Layer" class="s20" d="m477.7 209.3c2.3 0 4.1-1.8 4.1-4.1 0-2.3-1.8-4.1-4.1-4.1-2.3 0-4.1 1.8-4.1 4.1 0 2.3 1.8 4.1 4.1 4.1z"/>
			<path id="Layer" class="s20" d="m424.5 209.3c2.3 0 4.2-1.8 4.2-4.1 0-2.3-1.9-4.1-4.2-4.1-2.2 0-4.1 1.8-4.1 4.1 0 2.3 1.9 4.1 4.1 4.1z"/>
			<path id="Layer" class="s20" d="m398 209.3c2.2 0 4.1-1.8 4.1-4.1 0-2.3-1.9-4.1-4.1-4.1-2.3 0-4.2 1.8-4.2 4.1 0 2.3 1.9 4.1 4.2 4.1z"/>
			<path id="Layer" class="s20" d="m451.1 262.4c2.3 0 4.1-1.9 4.1-4.1 0-2.3-1.8-4.2-4.1-4.2-2.3 0-4.1 1.9-4.1 4.2 0 2.2 1.8 4.1 4.1 4.1z"/>
			<path id="Layer" class="s20" d="m424.5 288.9c2.3 0 4.2-1.8 4.2-4.1 0-2.3-1.9-4.1-4.2-4.1-2.2 0-4.1 1.8-4.1 4.1 0 2.3 1.9 4.1 4.1 4.1z"/>
			<path id="Layer" class="s20" d="m398 288.9c2.2 0 4.1-1.8 4.1-4.1 0-2.3-1.9-4.1-4.1-4.1-2.3 0-4.2 1.8-4.2 4.1 0 2.3 1.9 4.1 4.2 4.1z"/>
			<path id="Layer" class="s20" d="m265.1 288.9c2.3 0 4.1-1.9 4.1-4.2 0-2.2-1.8-4.1-4.1-4.1-2.3 0-4.1 1.9-4.1 4.1 0 2.3 1.8 4.2 4.1 4.2z"/>
			<path id="Layer" class="s20" d="m238.5 288.9c2.3 0 4.1-1.9 4.1-4.2 0-2.2-1.8-4.1-4.1-4.1-2.3 0-4.1 1.9-4.1 4.1 0 2.3 1.8 4.2 4.1 4.2z"/>
			<path id="Layer" class="s20" d="m185.4 288.9c2.2 0 4.1-1.9 4.1-4.2 0-2.2-1.9-4.1-4.1-4.1-2.3 0-4.2 1.9-4.2 4.1 0 2.3 1.9 4.2 4.2 4.2z"/>
			<path id="Layer" class="s20" d="m158.8 288.9c2.3 0 4.1-1.9 4.1-4.2 0-2.2-1.8-4.1-4.1-4.1-2.3 0-4.1 1.9-4.1 4.1 0 2.3 1.8 4.2 4.1 4.2z"/>
			<path id="Layer" class="s20" d="m132.2 262.3c2.3 0 4.1-1.8 4.1-4.1 0-2.3-1.8-4.1-4.1-4.1-2.3 0-4.1 1.8-4.1 4.1 0 2.3 1.8 4.1 4.1 4.1z"/>
			<path id="Layer" class="s20" d="m344.9 288.9c2.3 0 4.1-1.9 4.1-4.2 0-2.2-1.8-4.1-4.1-4.1-2.3 0-4.2 1.9-4.2 4.1 0 2.3 1.9 4.2 4.2 4.2z"/>
			<path id="Layer" class="s20" d="m318.3 288.9c2.3 0 4.1-1.9 4.1-4.2 0-2.2-1.8-4.1-4.1-4.1-2.3 0-4.1 1.9-4.1 4.1 0 2.3 1.8 4.2 4.1 4.2z"/>
			<path id="Layer" class="s20" d="m291.7 288.9c2.3 0 4.1-1.9 4.1-4.2 0-2.2-1.8-4.1-4.1-4.1-2.3 0-4.1 1.9-4.1 4.1 0 2.3 1.8 4.2 4.1 4.2z"/>
			<path id="Layer" class="s20" d="m291.7 288.9c2.3 0 4.1-1.9 4.1-4.2 0-2.2-1.8-4.1-4.1-4.1-2.3 0-4.1 1.9-4.1 4.1 0 2.3 1.8 4.2 4.1 4.2z"/>
			<path id="Layer" class="s20" d="m291.7 288.9c2.2 0 4.1-1.9 4.1-4.2 0-2.2-1.9-4.1-4.1-4.1-2.3 0-4.2 1.9-4.2 4.1 0 2.3 1.9 4.2 4.2 4.2z"/>
			<path id="Layer" class="s20" d="m265.1 288.9c2.3 0 4.1-1.9 4.1-4.2 0-2.2-1.8-4.1-4.1-4.1-2.3 0-4.1 1.9-4.1 4.1 0 2.3 1.8 4.2 4.1 4.2z"/>
			<path id="Layer" class="s20" d="m371.4 288.9c2.3 0 4.2-1.9 4.2-4.2 0-2.2-1.9-4.1-4.2-4.1-2.2 0-4.1 1.9-4.1 4.1 0 2.3 1.9 4.2 4.1 4.2z"/>
			<path id="Layer" class="s20" d="m344.9 288.9c2.3 0 4.1-1.9 4.1-4.2 0-2.2-1.8-4.1-4.1-4.1-2.3 0-4.2 1.9-4.2 4.1 0 2.3 1.9 4.2 4.2 4.2z"/>
			<path id="Layer" class="s20" d="m265.1 315.4c2.3 0 4.1-1.9 4.1-4.1 0-2.3-1.8-4.2-4.1-4.2-2.3 0-4.1 1.9-4.1 4.2 0 2.2 1.8 4.1 4.1 4.1z"/>
			<path id="Layer" class="s20" d="m238.5 288.9c2.3 0 4.1-1.9 4.1-4.2 0-2.2-1.8-4.1-4.1-4.1-2.3 0-4.1 1.9-4.1 4.1 0 2.3 1.8 4.2 4.1 4.2z"/>
			<path id="Layer" class="s20" d="m238.5 315.4c2.3 0 4.1-1.9 4.1-4.1 0-2.3-1.8-4.2-4.1-4.2-2.3 0-4.1 1.9-4.1 4.2 0 2.2 1.8 4.1 4.1 4.1z"/>
			<path id="Layer" class="s20" d="m185.4 288.9c2.2 0 4.1-1.9 4.1-4.2 0-2.2-1.9-4.1-4.1-4.1-2.3 0-4.2 1.9-4.2 4.1 0 2.3 1.9 4.2 4.2 4.2z"/>
			<path id="Layer" class="s20" d="m185.4 315.4c2.2 0 4.1-1.9 4.1-4.1 0-2.3-1.9-4.2-4.1-4.2-2.3 0-4.2 1.9-4.2 4.2 0 2.2 1.9 4.1 4.2 4.1z"/>
			<path id="Layer" class="s20" d="m158.8 288.9c2.3 0 4.1-1.9 4.1-4.2 0-2.2-1.8-4.1-4.1-4.1-2.3 0-4.1 1.9-4.1 4.1 0 2.3 1.8 4.2 4.1 4.2z"/>
			<path id="Layer" class="s20" d="m158.8 315.4c2.3 0 4.1-1.9 4.1-4.1 0-2.3-1.8-4.2-4.1-4.2-2.3 0-4.1 1.9-4.1 4.2 0 2.2 1.8 4.1 4.1 4.1z"/>
			<path id="Layer" class="s20" d="m265.1 368.5c2.3 0 4.1-1.9 4.1-4.2 0-2.2-1.8-4.1-4.1-4.1-2.3 0-4.1 1.9-4.1 4.1 0 2.3 1.8 4.2 4.1 4.2z"/>
			<path id="Layer" class="s20" d="m238.5 368.5c2.3 0 4.1-1.9 4.1-4.2 0-2.2-1.8-4.1-4.1-4.1-2.3 0-4.1 1.9-4.1 4.1 0 2.3 1.8 4.2 4.1 4.2z"/>
			<path id="Layer" class="s20" d="m211.9 341.9c2.3 0 4.2-1.8 4.2-4.1 0-2.3-1.9-4.1-4.2-4.1-2.2 0-4.1 1.8-4.1 4.1 0 2.3 1.9 4.1 4.1 4.1z"/>
			<path id="Layer" class="s20" d="m158.8 368.5c2.3 0 4.1-1.9 4.1-4.2 0-2.2-1.8-4.1-4.1-4.1-2.3 0-4.1 1.9-4.1 4.1 0 2.3 1.8 4.2 4.1 4.2z"/>
			<path id="Layer" class="s20" d="m132.2 368.5c2.3 0 4.1-1.9 4.1-4.2 0-2.2-1.8-4.1-4.1-4.1-2.3 0-4.1 1.9-4.1 4.1 0 2.3 1.8 4.2 4.1 4.2z"/>
			<path id="Layer" class="s20" d="m344.9 288.9c2.3 0 4.1-1.9 4.1-4.2 0-2.2-1.8-4.1-4.1-4.1-2.3 0-4.2 1.9-4.2 4.1 0 2.3 1.9 4.2 4.2 4.2z"/>
			<path id="Layer" class="s20" d="m344.9 315.4c2.3 0 4.1-1.9 4.1-4.1 0-2.3-1.8-4.2-4.1-4.2-2.3 0-4.2 1.9-4.2 4.2 0 2.2 1.9 4.1 4.2 4.1z"/>
			<path id="Layer" class="s20" d="m318.3 288.9c2.3 0 4.1-1.9 4.1-4.2 0-2.2-1.8-4.1-4.1-4.1-2.3 0-4.1 1.9-4.1 4.1 0 2.3 1.8 4.2 4.1 4.2z"/>
			<path id="Layer" class="s21" d="m318.3 315.4c2.3 0 4.1-1.9 4.1-4.1 0-2.3-1.8-4.2-4.1-4.2-2.3 0-4.1 1.9-4.1 4.2 0 2.2 1.8 4.1 4.1 4.1z"/>
			<path id="Layer" class="s20" d="m291.7 288.9c2.3 0 4.1-1.9 4.1-4.2 0-2.2-1.8-4.1-4.1-4.1-2.3 0-4.1 1.9-4.1 4.1 0 2.3 1.8 4.2 4.1 4.2z"/>
			<path id="Layer" class="s20" d="m291.7 315.4c2.3 0 4.1-1.9 4.1-4.1 0-2.3-1.8-4.2-4.1-4.2-2.3 0-4.1 1.9-4.1 4.2 0 2.2 1.8 4.1 4.1 4.1z"/>
			<path id="Layer" class="s20" d="m291.7 288.9c2.3 0 4.1-1.9 4.1-4.2 0-2.2-1.8-4.1-4.1-4.1-2.3 0-4.1 1.9-4.1 4.1 0 2.3 1.8 4.2 4.1 4.2z"/>
			<path id="Layer" class="s20" d="m291.7 315.4c2.3 0 4.1-1.9 4.1-4.1 0-2.3-1.8-4.2-4.1-4.2-2.3 0-4.1 1.9-4.1 4.2 0 2.2 1.8 4.1 4.1 4.1z"/>
			<path id="Layer" class="s20" d="m291.7 288.9c2.2 0 4.1-1.9 4.1-4.2 0-2.2-1.9-4.1-4.1-4.1-2.3 0-4.2 1.9-4.2 4.1 0 2.3 1.9 4.2 4.2 4.2z"/>
			<path id="Layer" class="s20" d="m291.7 315.4c2.2 0 4.1-1.9 4.1-4.1 0-2.3-1.9-4.2-4.1-4.2-2.3 0-4.2 1.9-4.2 4.2 0 2.2 1.9 4.1 4.2 4.1z"/>
			<path id="Layer" class="s20" d="m265.1 315.4c2.3 0 4.1-1.9 4.1-4.1 0-2.3-1.8-4.2-4.1-4.2-2.3 0-4.1 1.9-4.1 4.2 0 2.2 1.8 4.1 4.1 4.1z"/>
			<path id="Layer" class="s20" d="m344.9 368.5c2.3 0 4.1-1.9 4.1-4.2 0-2.2-1.8-4.1-4.1-4.1-2.3 0-4.2 1.9-4.2 4.1 0 2.3 1.9 4.2 4.2 4.2z"/>
			<path id="Layer" class="s20" d="m318.3 368.5c2.3 0 4.1-1.9 4.1-4.2 0-2.2-1.8-4.1-4.1-4.1-2.3 0-4.1 1.9-4.1 4.1 0 2.3 1.8 4.2 4.1 4.2z"/>
			<path id="Layer" class="s20" d="m291.7 368.5c2.3 0 4.1-1.9 4.1-4.2 0-2.2-1.8-4.1-4.1-4.1-2.3 0-4.1 1.9-4.1 4.1 0 2.3 1.8 4.2 4.1 4.2z"/>
			<path id="Layer" class="s20" d="m291.7 368.5c2.3 0 4.1-1.9 4.1-4.2 0-2.2-1.8-4.1-4.1-4.1-2.3 0-4.1 1.9-4.1 4.1 0 2.3 1.8 4.2 4.1 4.2z"/>
			<path id="Layer" class="s20" d="m291.7 368.5c2.2 0 4.1-1.9 4.1-4.2 0-2.2-1.9-4.1-4.1-4.1-2.3 0-4.2 1.9-4.2 4.1 0 2.3 1.9 4.2 4.2 4.2z"/>
			<path id="Layer" class="s20" d="m265.1 368.5c2.3 0 4.1-1.9 4.1-4.2 0-2.2-1.8-4.1-4.1-4.1-2.3 0-4.1 1.9-4.1 4.1 0 2.3 1.8 4.2 4.1 4.2z"/>
			<path id="Layer" class="s20" d="m371.4 288.9c2.3 0 4.2-1.9 4.2-4.2 0-2.2-1.9-4.1-4.2-4.1-2.2 0-4.1 1.9-4.1 4.1 0 2.3 1.9 4.2 4.1 4.2z"/>
			<path id="Layer" class="s20" d="m344.9 288.9c2.3 0 4.1-1.9 4.1-4.2 0-2.2-1.8-4.1-4.1-4.1-2.3 0-4.2 1.9-4.2 4.1 0 2.3 1.9 4.2 4.2 4.2z"/>
			<path id="Layer" class="s20" d="m291.6 50.2c2.3 0 4.2-1.8 4.2-4.1 0-2.3-1.9-4.1-4.2-4.1-2.2 0-4.1 1.8-4.1 4.1 0 2.3 1.9 4.1 4.1 4.1z"/>
			<path id="Layer" class="s20" d="m265.1 50.2c2.2 0 4.1-1.8 4.1-4.1 0-2.3-1.9-4.1-4.1-4.1-2.3 0-4.2 1.8-4.2 4.1 0 2.3 1.9 4.1 4.2 4.1z"/>
			<path id="Layer" class="s20" d="m211.9 50.2c2.3 0 4.1-1.8 4.1-4.1 0-2.3-1.8-4.1-4.1-4.1-2.3 0-4.1 1.8-4.1 4.1 0 2.3 1.8 4.1 4.1 4.1z"/>
			<path id="Layer" class="s20" d="m185.3 50.2c2.3 0 4.2-1.8 4.2-4.1 0-2.3-1.9-4.1-4.2-4.1-2.2 0-4.1 1.8-4.1 4.1 0 2.3 1.9 4.1 4.1 4.1z"/>
			<path id="Layer" class="s20" d="m318.3 50.2c2.2 0 4.1-1.8 4.1-4.1 0-2.3-1.9-4.1-4.1-4.1-2.3 0-4.2 1.8-4.2 4.1 0 2.3 1.9 4.1 4.2 4.1z"/>
			<path id="Layer" class="s20" d="m318.2 50.2c2.3 0 4.2-1.8 4.2-4.1 0-2.3-1.9-4.1-4.2-4.1-2.2 0-4.1 1.8-4.1 4.1 0 2.3 1.9 4.1 4.1 4.1z"/>
			<path id="Layer" class="s20" d="m318.2 50.2c2.3 0 4.1-1.8 4.1-4.1 0-2.3-1.8-4.1-4.1-4.1-2.3 0-4.1 1.8-4.1 4.1 0 2.3 1.8 4.1 4.1 4.1z"/>
			<path id="Layer" class="s20" d="m291.6 50.2c2.3 0 4.2-1.8 4.2-4.1 0-2.3-1.9-4.1-4.2-4.1-2.2 0-4.1 1.8-4.1 4.1 0 2.3 1.9 4.1 4.1 4.1z"/>
			<path id="Layer" class="s20" d="m291.6 50.2c2.3 0 4.2-1.8 4.2-4.1 0-2.3-1.9-4.1-4.2-4.1-2.2 0-4.1 1.8-4.1 4.1 0 2.3 1.9 4.1 4.1 4.1z"/>
			<path id="Layer" class="s20" d="m291.6 76.8c2.3 0 4.2-1.9 4.2-4.1 0-2.3-1.9-4.2-4.2-4.2-2.2 0-4.1 1.9-4.1 4.2 0 2.2 1.9 4.1 4.1 4.1z"/>
			<path id="Layer" class="s20" d="m265.1 50.2c2.2 0 4.1-1.8 4.1-4.1 0-2.3-1.9-4.1-4.1-4.1-2.3 0-4.2 1.8-4.2 4.1 0 2.3 1.9 4.1 4.2 4.1z"/>
			<path id="Layer" class="s20" d="m265.1 76.8c2.2 0 4.1-1.9 4.1-4.1 0-2.3-1.9-4.2-4.1-4.2-2.3 0-4.2 1.9-4.2 4.2 0 2.2 1.9 4.1 4.2 4.1z"/>
			<path id="Layer" class="s20" d="m211.9 50.2c2.3 0 4.1-1.8 4.1-4.1 0-2.3-1.8-4.1-4.1-4.1-2.3 0-4.1 1.8-4.1 4.1 0 2.3 1.8 4.1 4.1 4.1z"/>
			<path id="Layer" class="s20" d="m211.9 76.8c2.3 0 4.1-1.9 4.1-4.1 0-2.3-1.8-4.2-4.1-4.2-2.3 0-4.1 1.9-4.1 4.2 0 2.2 1.8 4.1 4.1 4.1z"/>
			<path id="Layer" class="s20" d="m185.3 50.2c2.3 0 4.2-1.8 4.2-4.1 0-2.3-1.9-4.1-4.2-4.1-2.2 0-4.1 1.8-4.1 4.1 0 2.3 1.9 4.1 4.1 4.1z"/>
			<path id="Layer" class="s20" d="m185.3 76.8c2.3 0 4.2-1.9 4.2-4.1 0-2.3-1.9-4.2-4.2-4.2-2.2 0-4.1 1.9-4.1 4.2 0 2.2 1.9 4.1 4.1 4.1z"/>
			<path id="Layer" class="s20" d="m265.1 129.9c2.2 0 4.1-1.9 4.1-4.2 0-2.2-1.9-4.1-4.1-4.1-2.3 0-4.2 1.9-4.2 4.1 0 2.3 1.9 4.2 4.2 4.2z"/>
			<path id="Layer" class="s20" d="m238.5 103.3c2.3 0 4.1-1.8 4.1-4.1 0-2.3-1.8-4.1-4.1-4.1-2.3 0-4.1 1.8-4.1 4.1 0 2.3 1.8 4.1 4.1 4.1z"/>
			<path id="Layer" class="s20" d="m185.3 129.9c2.3 0 4.2-1.9 4.2-4.2 0-2.2-1.9-4.1-4.2-4.1-2.2 0-4.1 1.9-4.1 4.1 0 2.3 1.9 4.2 4.1 4.2z"/>
			<path id="Layer" class="s20" d="m158.8 129.9c2.2 0 4.1-1.9 4.1-4.2 0-2.2-1.9-4.1-4.1-4.1-2.3 0-4.2 1.9-4.2 4.1 0 2.3 1.9 4.2 4.2 4.2z"/>
			<path id="Layer" class="s20" d="m371.4 76.8c2.3 0 4.1-1.9 4.1-4.1 0-2.3-1.8-4.2-4.1-4.2-2.3 0-4.1 1.9-4.1 4.2 0 2.2 1.8 4.1 4.1 4.1z"/>
			<path id="Layer" class="s20" d="m344.8 76.8c2.3 0 4.2-1.9 4.2-4.1 0-2.3-1.9-4.2-4.2-4.2-2.2 0-4.1 1.9-4.1 4.2 0 2.2 1.9 4.1 4.1 4.1z"/>
			<path id="Layer" class="s20" d="m318.3 50.2c2.2 0 4.1-1.8 4.1-4.1 0-2.3-1.9-4.1-4.1-4.1-2.3 0-4.2 1.8-4.2 4.1 0 2.3 1.9 4.1 4.2 4.1z"/>
			<path id="Layer" class="s20" d="m318.3 76.8c2.2 0 4.1-1.9 4.1-4.1 0-2.3-1.9-4.2-4.1-4.2-2.3 0-4.2 1.9-4.2 4.2 0 2.2 1.9 4.1 4.2 4.1z"/>
			<path id="Layer" class="s20" d="m318.2 50.2c2.3 0 4.2-1.8 4.2-4.1 0-2.3-1.9-4.1-4.2-4.1-2.2 0-4.1 1.8-4.1 4.1 0 2.3 1.9 4.1 4.1 4.1z"/>
			<path id="Layer" class="s20" d="m318.2 76.8c2.3 0 4.2-1.9 4.2-4.1 0-2.3-1.9-4.2-4.2-4.2-2.2 0-4.1 1.9-4.1 4.2 0 2.2 1.9 4.1 4.1 4.1z"/>
			<path id="Layer" class="s21" d="m318.2 50.2c2.3 0 4.1-1.8 4.1-4.1 0-2.3-1.8-4.1-4.1-4.1-2.3 0-4.1 1.8-4.1 4.1 0 2.3 1.8 4.1 4.1 4.1z"/>
			<path id="Layer" class="s20" d="m318.2 76.8c2.3 0 4.1-1.9 4.1-4.1 0-2.3-1.8-4.2-4.1-4.2-2.3 0-4.1 1.9-4.1 4.2 0 2.2 1.8 4.1 4.1 4.1z"/>
			<path id="Layer" class="s20" d="m291.6 50.2c2.3 0 4.2-1.8 4.2-4.1 0-2.3-1.9-4.1-4.2-4.1-2.2 0-4.1 1.8-4.1 4.1 0 2.3 1.9 4.1 4.1 4.1z"/>
			<path id="Layer" class="s20" d="m291.6 76.8c2.3 0 4.2-1.9 4.2-4.1 0-2.3-1.9-4.2-4.2-4.2-2.2 0-4.1 1.9-4.1 4.2 0 2.2 1.9 4.1 4.1 4.1z"/>
			<path id="Layer" class="s20" d="m238.5 129.8c2.3 0 4.2-1.9 4.2-4.1 0-2.3-1.9-4.2-4.2-4.2-2.2 0-4.1 1.9-4.1 4.2 0 2.2 1.9 4.1 4.1 4.1z"/>
			<path id="Layer" class="s20" d="m212 129.8c2.2 0 4.1-1.9 4.1-4.1 0-2.3-1.9-4.2-4.1-4.2-2.3 0-4.2 1.9-4.2 4.2 0 2.2 1.9 4.1 4.2 4.1z"/>
			<path id="Layer" class="s20" d="m158.8 129.8c2.3 0 4.1-1.9 4.1-4.1 0-2.3-1.8-4.2-4.1-4.2-2.3 0-4.1 1.9-4.1 4.2 0 2.2 1.8 4.1 4.1 4.1z"/>
			<path id="Layer" class="s20" d="m265.2 129.8c2.2 0 4.1-1.9 4.1-4.1 0-2.3-1.9-4.2-4.1-4.2-2.3 0-4.2 1.9-4.2 4.2 0 2.2 1.9 4.1 4.2 4.1z"/>
			<path id="Layer" class="s20" d="m265.1 129.8c2.3 0 4.2-1.9 4.2-4.1 0-2.3-1.9-4.2-4.2-4.2-2.2 0-4.1 1.9-4.1 4.2 0 2.2 1.9 4.1 4.1 4.1z"/>
			<path id="Layer" class="s20" d="m265.1 129.8c2.3 0 4.1-1.9 4.1-4.1 0-2.3-1.8-4.2-4.1-4.2-2.3 0-4.1 1.9-4.1 4.2 0 2.2 1.8 4.1 4.1 4.1z"/>
			<path id="Layer" class="s20" d="m238.5 129.8c2.3 0 4.2-1.9 4.2-4.1 0-2.3-1.9-4.2-4.2-4.2-2.2 0-4.1 1.9-4.1 4.2 0 2.2 1.9 4.1 4.1 4.1z"/>
			<path id="Layer" class="s20" d="m238.5 129.8c2.3 0 4.2-1.9 4.2-4.1 0-2.3-1.9-4.2-4.2-4.2-2.2 0-4.1 1.9-4.1 4.2 0 2.2 1.9 4.1 4.1 4.1z"/>
			<path id="Layer" class="s20" d="m212 129.8c2.2 0 4.1-1.9 4.1-4.1 0-2.3-1.9-4.2-4.1-4.2-2.3 0-4.2 1.9-4.2 4.2 0 2.2 1.9 4.1 4.2 4.1z"/>
			<path id="Layer" class="s20" d="m158.8 129.8c2.3 0 4.1-1.9 4.1-4.1 0-2.3-1.8-4.2-4.1-4.2-2.3 0-4.1 1.9-4.1 4.2 0 2.2 1.8 4.1 4.1 4.1z"/>
			<path id="Layer" class="s20" d="m265.2 129.8c2.2 0 4.1-1.9 4.1-4.1 0-2.3-1.9-4.2-4.1-4.2-2.3 0-4.2 1.9-4.2 4.2 0 2.2 1.9 4.1 4.2 4.1z"/>
			<path id="Layer" class="s20" d="m265.1 129.8c2.3 0 4.2-1.9 4.2-4.1 0-2.3-1.9-4.2-4.2-4.2-2.2 0-4.1 1.9-4.1 4.2 0 2.2 1.9 4.1 4.1 4.1z"/>
			<path id="Layer" class="s20" d="m265.1 129.8c2.3 0 4.1-1.9 4.1-4.1 0-2.3-1.8-4.2-4.1-4.2-2.3 0-4.1 1.9-4.1 4.2 0 2.2 1.8 4.1 4.1 4.1z"/>
			<path id="Layer" class="s20" d="m238.5 129.8c2.3 0 4.2-1.9 4.2-4.1 0-2.3-1.9-4.2-4.2-4.2-2.2 0-4.1 1.9-4.1 4.2 0 2.2 1.9 4.1 4.1 4.1z"/>
			<path id="Layer" class="s20" d="m234.5 421.3c2.3 0 4.1-1.8 4.1-4.1 0-2.3-1.8-4.1-4.1-4.1-2.3 0-4.1 1.8-4.1 4.1 0 2.3 1.8 4.1 4.1 4.1z"/>
			<path id="Layer" class="s21" d="m291.6 421.3c2.3 0 4.2-1.8 4.2-4.1 0-2.3-1.9-4.1-4.2-4.1-2.2 0-4.1 1.8-4.1 4.1 0 2.3 1.9 4.1 4.1 4.1z"/>
			<path id="Layer" class="s20" d="m207.9 421.3c2.3 0 4.2-1.8 4.2-4.1 0-2.3-1.9-4.1-4.2-4.1-2.3 0-4.1 1.8-4.1 4.1 0 2.3 1.8 4.1 4.1 4.1z"/>
			<path id="Layer" class="s20" d="m181.4 421.3c2.2 0 4.1-1.8 4.1-4.1 0-2.3-1.9-4.1-4.1-4.1-2.3 0-4.2 1.8-4.2 4.1 0 2.3 1.9 4.1 4.2 4.1z"/>
			<path id="Layer" class="s20" d="m154.8 421.3c2.3 0 4.1-1.8 4.1-4.1 0-2.3-1.8-4.1-4.1-4.1-2.3 0-4.1 1.8-4.1 4.1 0 2.3 1.8 4.1 4.1 4.1z"/>
			<path id="Layer" class="s20" d="m291.6 368.4c2.3 0 4.2-1.9 4.2-4.1 0-2.3-1.9-4.2-4.2-4.2-2.2 0-4.1 1.9-4.1 4.2 0 2.2 1.9 4.1 4.1 4.1z"/>
			<path id="Layer" class="s20" d="m265.1 368.4c2.2 0 4.1-1.9 4.1-4.1 0-2.3-1.9-4.2-4.1-4.2-2.3 0-4.2 1.9-4.2 4.2 0 2.2 1.9 4.1 4.2 4.1z"/>
			<path id="Layer" class="s20" d="m318.3 368.4c2.2 0 4.1-1.9 4.1-4.1 0-2.3-1.9-4.2-4.1-4.2-2.3 0-4.2 1.9-4.2 4.2 0 2.2 1.9 4.1 4.2 4.1z"/>
			<path id="Layer" class="s20" d="m318.2 368.4c2.3 0 4.2-1.9 4.2-4.1 0-2.3-1.9-4.2-4.2-4.2-2.2 0-4.1 1.9-4.1 4.2 0 2.2 1.9 4.1 4.1 4.1z"/>
			<path id="Layer" class="s20" d="m318.2 368.4c2.3 0 4.1-1.9 4.1-4.1 0-2.3-1.8-4.2-4.1-4.2-2.3 0-4.1 1.9-4.1 4.2 0 2.2 1.8 4.1 4.1 4.1z"/>
			<path id="Layer" class="s20" d="m291.6 368.4c2.3 0 4.2-1.9 4.2-4.1 0-2.3-1.9-4.2-4.2-4.2-2.2 0-4.1 1.9-4.1 4.2 0 2.2 1.9 4.1 4.1 4.1z"/>
			<path id="Layer" class="s20" d="m291.6 368.4c2.3 0 4.2-1.9 4.2-4.1 0-2.3-1.9-4.2-4.2-4.2-2.2 0-4.1 1.9-4.1 4.2 0 2.2 1.9 4.1 4.1 4.1z"/>
			<path id="Layer" class="s20" d="m291.6 394.9c2.3 0 4.2-1.8 4.2-4.1 0-2.3-1.9-4.1-4.2-4.1-2.2 0-4.1 1.8-4.1 4.1 0 2.3 1.9 4.1 4.1 4.1z"/>
			<path id="Layer" class="s20" d="m265.1 368.4c2.2 0 4.1-1.9 4.1-4.1 0-2.3-1.9-4.2-4.1-4.2-2.3 0-4.2 1.9-4.2 4.2 0 2.2 1.9 4.1 4.2 4.1z"/>
			<path id="Layer" class="s20" d="m265.1 394.9c2.2 0 4.1-1.8 4.1-4.1 0-2.3-1.9-4.1-4.1-4.1-2.3 0-4.2 1.8-4.2 4.1 0 2.3 1.9 4.1 4.2 4.1z"/>
			<path id="Layer" class="s20" d="m208 448c2.2 0 4.1-1.8 4.1-4.1 0-2.3-1.9-4.1-4.1-4.1-2.3 0-4.2 1.8-4.2 4.1 0 2.3 1.9 4.1 4.2 4.1z"/>
			<path id="Layer" class="s20" d="m154.8 421.5c2.3 0 4.1-1.9 4.1-4.2 0-2.2-1.8-4.1-4.1-4.1-2.3 0-4.1 1.9-4.1 4.1 0 2.3 1.8 4.2 4.1 4.2z"/>
			<path id="Layer" class="s20" d="m318.3 368.4c2.2 0 4.1-1.9 4.1-4.1 0-2.3-1.9-4.2-4.1-4.2-2.3 0-4.2 1.9-4.2 4.2 0 2.2 1.9 4.1 4.2 4.1z"/>
			<path id="Layer" class="s20" d="m318.3 394.9c2.2 0 4.1-1.8 4.1-4.1 0-2.3-1.9-4.1-4.1-4.1-2.3 0-4.2 1.8-4.2 4.1 0 2.3 1.9 4.1 4.2 4.1z"/>
			<path id="Layer" class="s20" d="m318.2 368.4c2.3 0 4.2-1.9 4.2-4.1 0-2.3-1.9-4.2-4.2-4.2-2.2 0-4.1 1.9-4.1 4.2 0 2.2 1.9 4.1 4.1 4.1z"/>
			<path id="Layer" class="s20" d="m318.2 394.9c2.3 0 4.2-1.8 4.2-4.1 0-2.3-1.9-4.1-4.2-4.1-2.2 0-4.1 1.8-4.1 4.1 0 2.3 1.9 4.1 4.1 4.1z"/>
			<path id="Layer" class="s20" d="m318.2 368.4c2.3 0 4.1-1.9 4.1-4.1 0-2.3-1.8-4.2-4.1-4.2-2.3 0-4.1 1.9-4.1 4.2 0 2.2 1.8 4.1 4.1 4.1z"/>
			<path id="Layer" class="s20" d="m318.2 394.9c2.3 0 4.1-1.8 4.1-4.1 0-2.3-1.8-4.1-4.1-4.1-2.3 0-4.1 1.8-4.1 4.1 0 2.3 1.8 4.1 4.1 4.1z"/>
			<path id="Layer" class="s20" d="m291.6 368.4c2.3 0 4.2-1.9 4.2-4.1 0-2.3-1.9-4.2-4.2-4.2-2.2 0-4.1 1.9-4.1 4.2 0 2.2 1.9 4.1 4.1 4.1z"/>
			<path id="Layer" class="s20" d="m291.6 394.9c2.3 0 4.2-1.8 4.2-4.1 0-2.3-1.9-4.1-4.2-4.1-2.2 0-4.1 1.8-4.1 4.1 0 2.3 1.9 4.1 4.1 4.1z"/>
			<path id="Layer" class="s20" d="m234.6 448c2.3 0 4.1-1.8 4.1-4.1 0-2.3-1.8-4.1-4.1-4.1-2.3 0-4.1 1.8-4.1 4.1 0 2.3 1.8 4.1 4.1 4.1z"/>
			<path id="Layer" class="s20" d="m234.6 448c2.2 0 4.1-1.8 4.1-4.1 0-2.3-1.9-4.1-4.1-4.1-2.3 0-4.2 1.8-4.2 4.1 0 2.3 1.9 4.1 4.2 4.1z"/>
			<path id="Layer" class="s20" d="m234.5 448c2.3 0 4.2-1.8 4.2-4.1 0-2.3-1.9-4.1-4.2-4.1-2.2 0-4.1 1.8-4.1 4.1 0 2.3 1.9 4.1 4.1 4.1z"/>
			<path id="Layer" class="s20" d="m208 448c2.2 0 4.1-1.8 4.1-4.1 0-2.3-1.9-4.1-4.1-4.1-2.3 0-4.2 1.8-4.2 4.1 0 2.3 1.9 4.1 4.2 4.1z"/>
			<path id="Layer" class="s20" d="m234.6 447.9c2.3 0 4.2-1.8 4.2-4.1 0-2.3-1.9-4.1-4.2-4.1-2.2 0-4.1 1.8-4.1 4.1 0 2.3 1.9 4.1 4.1 4.1z"/>
			<path id="Layer" class="s20" d="m208.1 447.9c2.2 0 4.1-1.8 4.1-4.1 0-2.3-1.9-4.1-4.1-4.1-2.3 0-4.2 1.8-4.2 4.1 0 2.3 1.9 4.1 4.2 4.1z"/>
			<path id="Layer" class="s20" d="m234.6 447.9c2.3 0 4.2-1.8 4.2-4.1 0-2.3-1.9-4.1-4.2-4.1-2.2 0-4.1 1.8-4.1 4.1 0 2.3 1.9 4.1 4.1 4.1z"/>
			<path id="Layer" class="s20" d="m234.6 447.9c2.3 0 4.2-1.8 4.2-4.1 0-2.3-1.9-4.1-4.2-4.1-2.2 0-4.1 1.8-4.1 4.1 0 2.3 1.9 4.1 4.1 4.1z"/>
			<path id="Layer" class="s20" d="m208.1 447.9c2.2 0 4.1-1.8 4.1-4.1 0-2.3-1.9-4.1-4.1-4.1-2.3 0-4.2 1.8-4.2 4.1 0 2.3 1.9 4.1 4.2 4.1z"/>
			<path id="Layer" class="s21" d="m234.6 447.9c2.3 0 4.2-1.8 4.2-4.1 0-2.3-1.9-4.1-4.2-4.1-2.2 0-4.1 1.8-4.1 4.1 0 2.3 1.9 4.1 4.1 4.1z"/>
			<path id="Layer" class="s20" d="m398 341.9c2.3 0 4.1-1.8 4.1-4.1 0-2.3-1.8-4.1-4.1-4.1-2.3 0-4.1 1.8-4.1 4.1 0 2.3 1.8 4.1 4.1 4.1z"/>
			<path id="Layer" class="s21" d="m371.4 368.5c2.3 0 4.2-1.9 4.2-4.2 0-2.2-1.9-4.1-4.2-4.1-2.2 0-4.1 1.9-4.1 4.1 0 2.3 1.9 4.2 4.1 4.2z"/>
			<path id="Layer" class="s20" d="m344.9 368.5c2.3 0 4.1-1.9 4.1-4.2 0-2.2-1.8-4.1-4.1-4.1-2.3 0-4.2 1.9-4.2 4.1 0 2.3 1.9 4.2 4.2 4.2z"/>
			<path id="Layer" class="s21" d="m530.8 156.2c2.3 0 4.2-1.8 4.2-4.1 0-2.3-1.9-4.1-4.2-4.1-2.3 0-4.1 1.8-4.1 4.1 0 2.3 1.8 4.1 4.1 4.1z"/>
			<path id="Layer" class="s20" d="m504.3 156.2c2.2 0 4.1-1.8 4.1-4.1 0-2.3-1.9-4.1-4.1-4.1-2.3 0-4.2 1.8-4.2 4.1 0 2.3 1.9 4.1 4.2 4.1z"/>
			<path id="Layer" class="s20" d="m477.7 129.7c2.3 0 4.1-1.9 4.1-4.1 0-2.3-1.8-4.2-4.1-4.2-2.3 0-4.1 1.9-4.1 4.2 0 2.2 1.8 4.1 4.1 4.1z"/>
			<path id="Layer" class="s20" d="m477.7 156.2c2.3 0 4.1-1.8 4.1-4.1 0-2.3-1.8-4.1-4.1-4.1-2.3 0-4.1 1.8-4.1 4.1 0 2.3 1.8 4.1 4.1 4.1z"/>
			<path id="Layer" class="s21" d="m185.1 156.2c2.3 0 4.2-1.8 4.2-4.1 0-2.3-1.9-4.1-4.2-4.1-2.2 0-4.1 1.8-4.1 4.1 0 2.3 1.9 4.1 4.1 4.1z"/>
			<path id="Layer" class="s20" d="m158.6 156.2c2.3 0 4.1-1.8 4.1-4.1 0-2.3-1.8-4.1-4.1-4.1-2.3 0-4.2 1.8-4.2 4.1 0 2.3 1.9 4.1 4.2 4.1z"/>
			<path id="Layer" class="s20" d="m132 156.2c2.3 0 4.1-1.8 4.1-4.1 0-2.3-1.8-4.1-4.1-4.1-2.3 0-4.1 1.8-4.1 4.1 0 2.3 1.8 4.1 4.1 4.1z"/>
			<path id="Layer" class="s20" d="m451.1 129.7c2.3 0 4.1-1.9 4.1-4.1 0-2.3-1.8-4.2-4.1-4.2-2.3 0-4.1 1.9-4.1 4.2 0 2.2 1.8 4.1 4.1 4.1z"/>
			<path id="Layer" class="s20" d="m504.3 341.9c2.2 0 4.1-1.9 4.1-4.1 0-2.3-1.9-4.2-4.1-4.2-2.3 0-4.2 1.9-4.2 4.2 0 2.2 1.9 4.1 4.2 4.1z"/>
			<path id="Layer" class="s20" d="m477.7 341.9c2.3 0 4.1-1.9 4.1-4.1 0-2.3-1.8-4.2-4.1-4.2-2.3 0-4.1 1.9-4.1 4.2 0 2.2 1.8 4.1 4.1 4.1z"/>
			<path id="Layer" class="s20" d="m424.5 341.9c2.3 0 4.2-1.9 4.2-4.1 0-2.3-1.9-4.2-4.2-4.2-2.2 0-4.1 1.9-4.1 4.2 0 2.2 1.9 4.1 4.1 4.1z"/>
			<path id="Layer" class="s21" d="m504.3 341.9c2.2 0 4.1-1.9 4.1-4.1 0-2.3-1.9-4.2-4.1-4.2-2.3 0-4.2 1.9-4.2 4.2 0 2.2 1.9 4.1 4.2 4.1z"/>
			<path id="Layer" class="s20" d="m477.7 341.9c2.3 0 4.1-1.9 4.1-4.1 0-2.3-1.8-4.2-4.1-4.2-2.3 0-4.1 1.9-4.1 4.2 0 2.2 1.8 4.1 4.1 4.1z"/>
			<path id="Layer" class="s20" d="m451.1 315.4c2.3 0 4.2-1.9 4.2-4.2 0-2.2-1.9-4.1-4.2-4.1-2.2 0-4.1 1.9-4.1 4.1 0 2.3 1.9 4.2 4.1 4.2z"/>
			<path id="Layer" class="s20" d="m424.5 341.9c2.3 0 4.2-1.9 4.2-4.1 0-2.3-1.9-4.2-4.2-4.2-2.2 0-4.1 1.9-4.1 4.2 0 2.2 1.9 4.1 4.1 4.1z"/>
			<path id="Layer" class="s20" d="m504.3 288.8c2.2 0 4.1-1.9 4.1-4.1 0-2.3-1.9-4.1-4.1-4.1-2.3 0-4.2 1.8-4.2 4.1 0 2.2 1.9 4.1 4.2 4.1z"/>
			<path id="Layer" class="s20" d="m477.7 288.8c2.3 0 4.1-1.9 4.1-4.1 0-2.3-1.8-4.1-4.1-4.1-2.3 0-4.1 1.8-4.1 4.1 0 2.2 1.8 4.1 4.1 4.1z"/>
			<path id="Layer" class="s20" d="m451.1 262.3c2.3 0 4.1-1.9 4.1-4.2 0-2.2-1.8-4.1-4.1-4.1-2.3 0-4.1 1.9-4.1 4.1 0 2.3 1.8 4.2 4.1 4.2z"/>
			<path id="Layer" class="s20" d="m583.9 209.3c2.3 0 4.1-1.8 4.1-4.1 0-2.3-1.8-4.1-4.1-4.1-2.3 0-4.1 1.8-4.1 4.1 0 2.3 1.8 4.1 4.1 4.1z"/>
			<path id="Layer" class="s20" d="m557.3 209.3c2.3 0 4.1-1.8 4.1-4.1 0-2.3-1.8-4.1-4.1-4.1-2.3 0-4.1 1.8-4.1 4.1 0 2.3 1.8 4.1 4.1 4.1z"/>
			<path id="Layer" class="s20" d="m557.3 235.9c2.3 0 4.1-1.9 4.1-4.2 0-2.2-1.8-4.1-4.1-4.1-2.3 0-4.1 1.9-4.1 4.1 0 2.3 1.8 4.2 4.1 4.2z"/>
			<path id="Layer" class="s21" d="m530.8 288.9c2.3 0 4.2-1.8 4.2-4.1 0-2.3-1.9-4.1-4.2-4.1-2.3 0-4.1 1.8-4.1 4.1 0 2.3 1.8 4.1 4.1 4.1z"/>
			<path id="Layer" class="s20" d="m504.3 288.9c2.2 0 4.1-1.8 4.1-4.1 0-2.3-1.9-4.1-4.1-4.1-2.3 0-4.2 1.8-4.2 4.1 0 2.3 1.9 4.1 4.2 4.1z"/>
			<path id="Layer" class="s21" d="m345 103.2c2.3 0 4.1-1.8 4.1-4.1 0-2.3-1.8-4.1-4.1-4.1-2.3 0-4.1 1.8-4.1 4.1 0 2.3 1.8 4.1 4.1 4.1z"/>
		</g>
	</g>
</svg>