<svg xmlns="http://www.w3.org/2000/svg" viewBox="0 0 26.33 31.23"><defs><style>.cls-1{fill:none;stroke:#0075a2;stroke-linecap:round;stroke-linejoin:round;stroke-width:1.8px;}</style></defs><g id="Layer_2" data-name="Layer 2"><g id="Cloud_Svcs" data-name="Cloud Svcs"><rect class="cls-1" x="0.9" y="10.71" width="24.53" height="3.07" rx="1.23"/><path class="cls-1" d="M23.59,13.78H2.74c0,4.8,4.05,9.26,8.07,10.61v5.35a.59.59,0,0,0,.86.53l3.52-2.38a.59.59,0,0,0,.33-.53v-3C19.53,23,23.59,18.58,23.59,13.78Z"/><rect class="cls-1" x="11.63" y="3.35" width="3.07" height="4.91" rx="1"/><rect class="cls-1" x="5.5" y="0.9" width="3.07" height="3.07" rx="1"/><rect class="cls-1" x="17.76" y="2.13" width="3.07" height="3.68" rx="1"/><rect class="cls-1" x="7" y="7.03" width="0.06" height="3.68"/><rect class="cls-1" x="19.26" y="8.87" width="0.06" height="1.84"/></g></g></svg>