<svg xmlns="http://www.w3.org/2000/svg" viewBox="0 0 28.08 24.89"><defs><style>.cls-1{fill:none;stroke-linecap:round;stroke-linejoin:round;stroke-width:1.6px;}.cls-1,.cls-2{stroke:#0075a2;}.cls-2{fill:#0075a2;stroke-miterlimit:10;stroke-width:0;}</style></defs><g id="Layer_2" data-name="Layer 2"><g id="Cloud_Svcs" data-name="Cloud Svcs"><path class="cls-1" d="M18.48,15.38a5.73,5.73,0,0,1-.75,1,6.24,6.24,0,0,1-.95.78h0L17,19a7.34,7.34,0,0,1-2.77.79l-.77-1.75a5.62,5.62,0,0,1-2.37-.6h0L9.61,18.63a7.44,7.44,0,0,1-1.13-.9,6.93,6.93,0,0,1-.94-1.1l1.13-1.55h0A5.61,5.61,0,0,1,8,12.73L6.24,12a7.36,7.36,0,0,1,.7-2.78l1.9.2h0a5.32,5.32,0,0,1,.76-1,6,6,0,0,1,1-.79h0l-.26-1.89A7.51,7.51,0,0,1,13.06,5l.77,1.75h0a5.61,5.61,0,0,1,2.37.59h0l1.52-1.17a8.57,8.57,0,0,1,1.13.9,8,8,0,0,1,.93,1.11L18.65,9.71h0a5.5,5.5,0,0,1,.66,2.35h0l1.77.73a7.41,7.41,0,0,1-.7,2.79l-1.9-.2Z"/><path class="cls-1" d="M15.69,14.37a2.83,2.83,0,1,0-4,.06A2.84,2.84,0,0,0,15.69,14.37Z"/><path class="cls-2" d="M24.18,22.67A.34.34,0,0,0,24,23a.35.35,0,0,0,.29.28l.63.11a.74.74,0,1,1-.25,1.45l-3.24-.55a.79.79,0,0,1-.27-.1.73.73,0,0,1-.33-.46,1,1,0,0,1,0-.29l.55-3.25a.74.74,0,0,1,1.46.25l-.11.63a.38.38,0,0,0,.16.37l.14.05a.39.39,0,0,0,.26-.06"/><path class="cls-2" d="M28.06,15.63a7.34,7.34,0,0,1-5.31,7.65,7.2,7.2,0,0,1-1.4.25c1.38-.79,1-1.16-.12-1.47a5.79,5.79,0,0,0,1-.18,5.85,5.85,0,0,0-2-11.48.74.74,0,0,1-.13-1.47A7.34,7.34,0,0,1,28.06,15.63Z"/><path class="cls-2" d="M3.58,2.19a.36.36,0,0,0,.12-.38.34.34,0,0,0-.31-.26l-.63-.08A.73.73,0,1,1,2.93,0L6.2.39a.66.66,0,0,1,.27.09.7.7,0,0,1,.35.44.72.72,0,0,1,0,.29L6.46,4.48A.73.73,0,1,1,5,4.31l.07-.64a.35.35,0,0,0-.18-.36.33.33,0,0,0-.13,0,.37.37,0,0,0-.27.07"/><path class="cls-2" d="M.07,9.42A7.33,7.33,0,0,1,5,1.5a6.93,6.93,0,0,1,1.38-.32c-1.33.86-1,1.21.2,1.46a6.72,6.72,0,0,0-1,.23A5.85,5.85,0,0,0,8.11,14.24a.75.75,0,0,1,.83.63.74.74,0,0,1-.63.83A7.33,7.33,0,0,1,.07,9.42Z"/></g></g></svg>