<svg xmlns="http://www.w3.org/2000/svg" xmlns:xlink="http://www.w3.org/1999/xlink" viewBox="0 0 28.92 27.76"><defs><style>.cls-1{fill:none;stroke:#0075a2;stroke-linecap:round;stroke-linejoin:round;stroke-width:1.8px;}.cls-2{clip-path:url(#clip-path);}</style><clipPath id="clip-path" transform="translate(0 0)"><path class="cls-1" d="M15.32,20.52a6.35,6.35,0,0,1,6.35-6.35V11.28h0V6.09C21.67,3.22,17,.9,11.28.9S.9,3.22.9,6.09v5.19h0v5.2h0v5.19c0,2.87,4.65,5.19,10.38,5.19A17.5,17.5,0,0,0,18,25.65,6.32,6.32,0,0,1,15.32,20.52Z"/></clipPath></defs><g id="Layer_2" data-name="Layer 2"><g id="Cloud_Svcs" data-name="Cloud Svcs"><g class="cls-2"><path class="cls-1" d="M11.28,21.67C5.55,21.67.9,19.34.9,16.48v5.19c0,2.87,4.65,5.19,10.38,5.19s10.39-2.32,10.39-5.19V16.48C21.67,19.34,17,21.67,11.28,21.67Z" transform="translate(0 0)"/><path class="cls-1" d="M11.28,16.48C5.55,16.48.9,14.15.9,11.28v5.2c0,2.86,4.65,5.19,10.38,5.19s10.39-2.33,10.39-5.19v-5.2C21.67,14.15,17,16.48,11.28,16.48Z" transform="translate(0 0)"/><path class="cls-1" d="M11.28,11.28C5.55,11.28.9,9,.9,6.09v5.19c0,2.87,4.65,5.2,10.38,5.2s10.39-2.33,10.39-5.2V6.09C21.67,9,17,11.28,11.28,11.28Z" transform="translate(0 0)"/><ellipse class="cls-1" cx="11.28" cy="6.09" rx="10.38" ry="5.19"/></g><path class="cls-1" d="M15.32,20.52a6.35,6.35,0,0,1,6.35-6.35V11.28h0V6.09C21.67,3.22,17,.9,11.28.9S.9,3.22.9,6.09v5.19h0v5.2h0v5.19c0,2.87,4.65,5.19,10.38,5.19A17.5,17.5,0,0,0,18,25.65,6.32,6.32,0,0,1,15.32,20.52Z" transform="translate(0 0)"/><circle class="cls-1" cx="21.67" cy="20.52" r="6.35"/><rect class="cls-1" x="21.64" y="18.21" width="0.06" height="4.62"/><rect class="cls-1" x="19.33" y="20.52" width="0.06" height="2.31"/><rect class="cls-1" x="23.95" y="19.36" width="0.06" height="3.46"/></g></g></svg>