<?xml version="1.0" encoding="utf-8"?>
<!-- Generator: Adobe Illustrator 21.1.0, SVG Export Plug-In . SVG Version: 6.00 Build 0)  -->
<svg version="1.1" id="Layer_1" xmlns="http://www.w3.org/2000/svg" xmlns:xlink="http://www.w3.org/1999/xlink" x="0px" y="0px"
	 viewBox="0 0 48.7 49.4" style="enable-background:new 0 0 48.7 49.4;" xml:space="preserve">
<style type="text/css">
	.st0{fill:#0075A2;}
	.st1{fill:none;stroke:#0075A2;stroke-width:0.4;stroke-miterlimit:10;}
</style>
<path class="st0" d="M27.8,15.7c-1.2,0-2.1-1-2.1-2.1c0-1.2,1-2.1,2.1-2.1c1.2,0,2.1,1,2.1,2.1C29.9,14.7,28.9,15.7,27.8,15.7
	 M45.6,18.3C43.3,7.8,33.9,0.2,23.1,0.2c-2.3,0-4.6,0.3-6.8,1c-0.5,0.2-0.8,0.7-0.6,1.2c0.2,0.5,0.7,0.8,1.2,0.6
	c2-0.6,4.1-0.9,6.2-0.9c0.3,0,0.6,0,0.9,0L22.1,6l-4.6,1.7C17,7.9,16.8,8.4,17,8.9c0.2,0.5,0.8,0.8,1.2,0.6l5-1.9
	c0.2-0.1,0.4-0.3,0.5-0.5l2.4-4.8c6.5,0.9,12.2,4.9,15.4,10.6h-9.7c-0.3-1.9-2-3.4-4-3.4c-2.2,0-4.1,1.8-4.1,4.1
	c0,2.2,1.8,4.1,4.1,4.1c1.7,0,3.2-1.1,3.8-2.6h10.9c0.5,1.2,0.9,2.4,1.2,3.7c0.1,0.5,0.7,0.9,1.1,0.7C45.3,19.3,45.7,18.8,45.6,18.3
	"/>
<path class="st1" d="M27.8,15.7c-1.2,0-2.1-1-2.1-2.1c0-1.2,1-2.1,2.1-2.1c1.2,0,2.1,1,2.1,2.1C29.9,14.7,28.9,15.7,27.8,15.7z
	 M45.6,18.3C43.3,7.8,33.9,0.2,23.1,0.2c-2.3,0-4.6,0.3-6.8,1c-0.5,0.2-0.8,0.7-0.6,1.2c0.2,0.5,0.7,0.8,1.2,0.6
	c2-0.6,4.1-0.9,6.2-0.9c0.3,0,0.6,0,0.9,0L22.1,6l-4.6,1.7C17,7.9,16.8,8.4,17,8.9c0.2,0.5,0.8,0.8,1.2,0.6l5-1.9
	c0.2-0.1,0.4-0.3,0.5-0.5l2.4-4.8c6.5,0.9,12.2,4.9,15.4,10.6h-9.7c-0.3-1.9-2-3.4-4-3.4c-2.2,0-4.1,1.8-4.1,4.1
	c0,2.2,1.8,4.1,4.1,4.1c1.7,0,3.2-1.1,3.8-2.6h10.9c0.5,1.2,0.9,2.4,1.2,3.7c0.1,0.5,0.7,0.9,1.1,0.7C45.3,19.3,45.7,18.8,45.6,18.3
	z"/>
<path class="st0" d="M22.8,33.6c-1.2,0-2.1-1-2.1-2.1c0-1.2,1-2.1,2.1-2.1c1.2,0,2.1,1,2.1,2.1C24.9,32.7,24,33.6,22.8,33.6 M44,30
	c-0.5-0.2-1.1,0.1-1.2,0.6c-0.8,2-1.8,3.9-3.2,5.6l-3.2-4.8c-0.2-0.3-0.5-0.4-0.8-0.4h-8.9c-0.3-1.9-2-3.4-4-3.4
	c-2.2,0-4.1,1.8-4.1,4.1c0,2.2,1.8,4.1,4.1,4.1c1.8,0,3.4-1.2,3.9-2.9h8.5l3.2,4.9c-1.1,1.2-2.4,2.2-3.7,3.1
	c-0.4,0.3-0.6,0.9-0.3,1.3c0.3,0.5,0.9,0.6,1.3,0.3c4-2.7,7.2-6.6,8.9-11.1C44.8,30.7,44.5,30.2,44,30"/>
<path class="st1" d="M22.8,33.6c-1.2,0-2.1-1-2.1-2.1c0-1.2,1-2.1,2.1-2.1c1.2,0,2.1,1,2.1,2.1C24.9,32.7,24,33.6,22.8,33.6z M44,30
	c-0.5-0.2-1.1,0.1-1.2,0.6c-0.8,2-1.8,3.9-3.2,5.6l-3.2-4.8c-0.2-0.3-0.5-0.4-0.8-0.4h-8.9c-0.3-1.9-2-3.4-4-3.4
	c-2.2,0-4.1,1.8-4.1,4.1c0,2.2,1.8,4.1,4.1,4.1c1.8,0,3.4-1.2,3.9-2.9h8.5l3.2,4.9c-1.1,1.2-2.4,2.2-3.7,3.1
	c-0.4,0.3-0.6,0.9-0.3,1.3c0.3,0.5,0.9,0.6,1.3,0.3c4-2.7,7.2-6.6,8.9-11.1C44.8,30.7,44.5,30.2,44,30z"/>
<path class="st0" d="M44.5,26.8c-1.2,0-2.1-1-2.1-2.1s1-2.1,2.1-2.1c1.2,0,2.1,1,2.1,2.1S45.7,26.8,44.5,26.8 M27.2,43
	c1.2,0,2.1,1,2.1,2.1c0,1.2-1,2.1-2.1,2.1c-1.2,0-2.1-1-2.1-2.1C25,43.9,26,43,27.2,43 M10,8.2c-1.2,0-2.1-1-2.1-2.1
	C7.9,4.9,8.9,4,10,4c1.2,0,2.1,1,2.1,2.1C12.2,7.3,11.2,8.2,10,8.2 M44.5,20.6c-2,0-3.7,1.5-4,3.4h-7.8l-2.8-3
	c-0.2-0.2-0.4-0.3-0.7-0.3h-6.1c-0.2,0-0.4,0.1-0.6,0.2l-10.1,8.2H3c-0.3-0.9-0.5-1.8-0.6-2.7h9.3c0.2,0,0.4,0,0.6-0.2l6.8-5
	c0.2-0.2,0.4-0.5,0.4-0.8v-7.2c0-0.3-0.1-0.5-0.4-0.7L13.8,8c0,0-0.1-0.1-0.1-0.1c0.3-0.5,0.4-1.2,0.4-1.8c0-2.2-1.8-4.1-4.1-4.1
	C7.8,2.1,6,3.9,6,6.1c0,2.2,1.8,4.1,4.1,4.1c0.9,0,1.7-0.3,2.4-0.8c0,0,0,0,0.1,0.1l4.9,4.4V20l-6,4.6H2.2c0-0.5-0.1-1-0.1-1.5
	c0-0.6,0-1.2,0.1-1.8h6.8c0.2,0,0.4,0,0.5-0.2l4.9-3.5c0.4-0.3,0.5-0.9,0.2-1.3c-0.3-0.4-0.9-0.5-1.3-0.2l-4.6,3.4H2.4
	c0.5-2.6,1.4-5.1,2.8-7.3c0.3-0.5,0.1-1-0.3-1.3c-0.5-0.3-1.1-0.1-1.3,0.3c-2.2,3.6-3.4,7.7-3.4,12c0,10.6,7.2,19.7,17.4,22.3
	c0.5,0.1,1-0.2,1.2-0.7c0.1-0.5-0.2-1-0.7-1.2c-2.7-0.7-5.2-1.8-7.4-3.4l0.7-0.6h7.3l4.7,4c-0.2,0.5-0.4,1.1-0.4,1.7
	c0,2.2,1.8,4.1,4.1,4.1c2.2,0,4.1-1.8,4.1-4.1c0-2.2-1.8-4.1-4.1-4.1c-0.9,0-1.8,0.3-2.5,0.8l-4.9-4.2c-0.2-0.2-0.4-0.3-0.6-0.3h-8
	c-0.2,0-0.5,0.1-0.7,0.3l-1.2,1.2C6.8,36.7,4.9,34,3.7,31h9.2c0.2,0,0.4-0.1,0.6-0.2l10.1-8.2h5.3l2.8,3c0.2,0.2,0.4,0.3,0.7,0.3
	h8.3c0.5,1.7,2.1,2.9,3.9,2.9c2.2,0,4.1-1.8,4.1-4.1C48.5,22.4,46.7,20.6,44.5,20.6"/>
<path class="st1" d="M44.5,26.8c-1.2,0-2.1-1-2.1-2.1s1-2.1,2.1-2.1c1.2,0,2.1,1,2.1,2.1S45.7,26.8,44.5,26.8z M27.2,43
	c1.2,0,2.1,1,2.1,2.1c0,1.2-1,2.1-2.1,2.1c-1.2,0-2.1-1-2.1-2.1C25,43.9,26,43,27.2,43z M10,8.2c-1.2,0-2.1-1-2.1-2.1
	C7.9,4.9,8.9,4,10,4c1.2,0,2.1,1,2.1,2.1C12.2,7.3,11.2,8.2,10,8.2z M44.5,20.6c-2,0-3.7,1.5-4,3.4h-7.8l-2.8-3
	c-0.2-0.2-0.4-0.3-0.7-0.3h-6.1c-0.2,0-0.4,0.1-0.6,0.2l-10.1,8.2H3c-0.3-0.9-0.5-1.8-0.6-2.7h9.3c0.2,0,0.4,0,0.6-0.2l6.8-5
	c0.2-0.2,0.4-0.5,0.4-0.8v-7.2c0-0.3-0.1-0.5-0.4-0.7L13.8,8c0,0-0.1-0.1-0.1-0.1c0.3-0.5,0.4-1.2,0.4-1.8c0-2.2-1.8-4.1-4.1-4.1
	C7.8,2.1,6,3.9,6,6.1c0,2.2,1.8,4.1,4.1,4.1c0.9,0,1.7-0.3,2.4-0.8c0,0,0,0,0.1,0.1l4.9,4.4V20l-6,4.6H2.2c0-0.5-0.1-1-0.1-1.5
	c0-0.6,0-1.2,0.1-1.8h6.8c0.2,0,0.4,0,0.5-0.2l4.9-3.5c0.4-0.3,0.5-0.9,0.2-1.3c-0.3-0.4-0.9-0.5-1.3-0.2l-4.6,3.4H2.4
	c0.5-2.6,1.4-5.1,2.8-7.3c0.3-0.5,0.1-1-0.3-1.3c-0.5-0.3-1.1-0.1-1.3,0.3c-2.2,3.6-3.4,7.7-3.4,12c0,10.6,7.2,19.7,17.4,22.3
	c0.5,0.1,1-0.2,1.2-0.7c0.1-0.5-0.2-1-0.7-1.2c-2.7-0.7-5.2-1.8-7.4-3.4l0.7-0.6h7.3l4.7,4c-0.2,0.5-0.4,1.1-0.4,1.7
	c0,2.2,1.8,4.1,4.1,4.1c2.2,0,4.1-1.8,4.1-4.1c0-2.2-1.8-4.1-4.1-4.1c-0.9,0-1.8,0.3-2.5,0.8l-4.9-4.2c-0.2-0.2-0.4-0.3-0.6-0.3h-8
	c-0.2,0-0.5,0.1-0.7,0.3l-1.2,1.2C6.8,36.7,4.9,34,3.7,31h9.2c0.2,0,0.4-0.1,0.6-0.2l10.1-8.2h5.3l2.8,3c0.2,0.2,0.4,0.3,0.7,0.3
	h8.3c0.5,1.7,2.1,2.9,3.9,2.9c2.2,0,4.1-1.8,4.1-4.1C48.5,22.4,46.7,20.6,44.5,20.6z"/>
</svg>
