<svg xmlns="http://www.w3.org/2000/svg" viewBox="0 0 160.56 95.59"><defs><style>.cls-1{fill:#217fad;}.cls-2{fill:#fff;}</style></defs><g id="Layer_2" data-name="Layer 2"><g id="Header"><path class="cls-1" d="M77.29,19C83.62,5.58,101.46-1,115,5.16s20.3,23.89,14.36,37.48c9.86-5.58,23.69-.34,28.77,9.79S160,75.66,152,83.66c-8.28,8.27-24.47,10.11-30.41,0,3.53,6-17.53,10.9-20.39,10.63-4.44-.43-8.18-4.52-11.77-5-5.15-.64-9.16,2.51-14.44,3.37V14.94A22.87,22.87,0,0,1,77.29,19Z"/><path class="cls-2" d="M75,82.59v.86h1.75c3.15,0,6.63.57,9.75.09,5.87-.88,10-5,13.42-9.19.07-.09.66-1.08,1-1.54.07-.09.69-2.07,1-3.06a26.28,26.28,0,0,0,.66-4.92c.39-3.69-.51-6.88-1.74-10.3,0-.1-1.23-.92-1.29-1.57l.65-.07c.78-.13,1.56-.24,2.34-.36l.12.31s.44,1,.62,1.45c.38,1,.57,2.11,1,3.08a33.65,33.65,0,0,1,.9,4A42,42,0,0,1,105,71.66c0,.11-.5,1.49-.74,2.18a11.86,11.86,0,0,1-2.23,3.63c-.28.34-.58.67-.87,1h0a1.41,1.41,0,0,0-.44.51,25.08,25.08,0,0,1-7.37,5.63c-.35-.1-.61-.06-.66.24v0c-.24.1-.49.22-.74.31A45.86,45.86,0,0,1,75,88v1c.7,0,1.4,0,2.11,0,4.59-.07,10.49-.68,14.76-2.58.51-.22,1-.47,1.53-.73a6.63,6.63,0,0,1,1,.47,7.56,7.56,0,0,1,1.35,1,8.32,8.32,0,0,0,1.26.58c1.64.55,3.22,1.29,4.92,1.68,3.85.86,7.75-.75,11-2.75.79-.49,2.35-1.64,2.36-2.72a26.81,26.81,0,0,0,8.82,3c1.54.29,3.55.74,5,.16.11,0,1-.23,1.49-.32a16.47,16.47,0,0,0,2.3-.58,63.51,63.51,0,0,0,6.33-2.49c.53-.26,1.69-.6,1.93-1.15.05-.11,1.61-.55,2-1.16s.67-1.85,1.12-1.45c.14.14,1-.81,1.67-1.39,1.73-1.59,3.67-3.05,4.72-4.8.06-.09.63-.64.91-.91a5.13,5.13,0,0,0,1.13-2.06,16.86,16.86,0,0,1,.43-1.8,16.41,16.41,0,0,0,.72-3.6c0-.11.23-1.69.33-2.48a15.75,15.75,0,0,0,.26-3.86c-.46-4.13-2.9-9-5.27-12.39-5.67-8.08-14.92-10.53-24.28-11.41l-.23.05c.65-3.71.23-7.57-.28-11.49,0-.1-.26-1.53-.44-2.22-.34-1.36-.79-2.69-1.22-4A24.85,24.85,0,0,0,116,6.63C112,3.23,107,.08,101.64,0c-3.37,0-5.88.76-9.15,1.38-1,.19-5.6.28-6.26,1.14a16.5,16.5,0,0,1-2.53.83,13.41,13.41,0,0,0-3.77,1.71A22.18,22.18,0,0,0,75,9.77v2c.06-.11.12-.23.19-.34a17.59,17.59,0,0,1,7.62-6.8c.09-.05.85-.31,1.24-.42.75-.23,1.5-.47,2.25-.69a45.72,45.72,0,0,1,5-1.13C98.48,1,106.12-.08,112.46,5c7.68,6.13,13.7,18.36,11.56,28.15-.17.78-.24,1.7-.35,2.61a.52.52,0,0,0-.26.42.29.29,0,0,0,.16.27,6.41,6.41,0,0,1-.6,2c-1.36,2.51-2.81,4.78-4.42,7.18a11.54,11.54,0,0,1-2.33,1.84c-1.83.84-3.58,1.58-5.47,2.31-2.64,1-7.87,1.62-10.07,2-1.15.2-2.53.08-3.5.72a16,16,0,0,1-2.14,0,20.14,20.14,0,0,1-3.69-.84c-3.6-.85-5.72-3.2-8.6-5.29a22.85,22.85,0,0,1-2.55-3.44c-1.38-2.71-3.3-5.43-4-8.43-1.6-7.33,1.09-13.81,4.92-19.94.06-.09.37-.39.52-.55,1-1,2-2,3-3a11.06,11.06,0,0,1,3.06-2l.7-.3,5.19-2.21c.09,0,2-.37,3-.54,1.17-.19,2.34-.36,3.51-.54a3.15,3.15,0,0,1,.73.15l3.95,1a16.54,16.54,0,0,1,3.8,1.62,26,26,0,0,1,11.69,14.67c2.24,7.44,1.33,17-6,21.57-3.09,1.94-7.28,2.68-10.75,3.49-2.25.52-4.9.13-7.18-.11C85.08,46.52,79.6,31.4,83.68,21.58c1.8-4.34,5.17-6.69,9.18-8.81a12.32,12.32,0,0,1,6.84-1.15c4.22.29,4.49,1.18,9.2,4,.09.06.51.61.74.88.73.9,1.48,1.8,2.22,2.7a17,17,0,0,1,1.9,3.55c0,.1.7,2.43,1,3.59a12.27,12.27,0,0,1,.18,3.09,4.6,4.6,0,0,1-.2.73c-.45,1.46-.92,2.94-1.38,4.4A15.37,15.37,0,0,1,109.56,40c-4.39,3.9-9.8,2.91-15.06,3.15a2.35,2.35,0,0,1-.62-.38c-1.2-.9-2.41-1.78-3.6-2.68a18.33,18.33,0,0,1-1.68-2.19,18.57,18.57,0,0,1-2.26-4.76c-1.76-6.25-.58-10.17,4-14.14.08-.07,1.14-.47,1.66-.67a9.41,9.41,0,0,1,3.28-.77c3.93,0,7.32.52,10.13,3.69,3,3.36,4.69,8,3,12.38-1,2.59-3.8,4.21-6,5.57-.1.06-2.65.18-3.93.23a9.87,9.87,0,0,1-2.82-.48,6.33,6.33,0,0,1-1.32-.83c-.71-.65-1.38-1.37-2-2.07-1.59-1.63-2.44-5.42-2.24-7.58.47-5,6.62-10.09,10.93-5.18.08.08,1.16,2.42,1.7,3.58.76,1.62.08,3.27-.87,4.62a13.31,13.31,0,0,1-1.43.85,7,7,0,0,1-2.73.39,8.27,8.27,0,0,1-2.15-1.42,5.62,5.62,0,0,1-.62-2.52c.18-1,1.19-2,1.73-2.88a8.93,8.93,0,0,1,2,0,3.41,3.41,0,0,1,.66.94c0,.1-.12,1.63.43,1.8s.58-.6.49-1c0,0,0-1.57-.52-2a4.5,4.5,0,0,0-2.93-.82,3.27,3.27,0,0,0-.74.4c-.09.06-.75.72-1.07,1.05a3.86,3.86,0,0,0-1,2c-.15,1.2.86,5.28,2.5,5.34,2.38.1,6.11-.09,7.15-2.78a13.28,13.28,0,0,0,.36-3.23,17.59,17.59,0,0,0-.46-1.8A16.34,16.34,0,0,0,102,22.88c0-.09-2.62-1.58-3.9-2.33a9.15,9.15,0,0,0-2,0c-2,.37-3.05.61-4.49,2.26-3.12,3.54-2.47,7.24-1.22,11.4A11,11,0,0,0,91.87,37c1.89,1.94,3.14,3,5.94,3.42,4.38.65,9.85-2,11.48-6.41,2.46-6.76-1.55-13.43-7.48-16.46-1-.51-2.58-1.29-3.6-1.12a61.3,61.3,0,0,1-6.24.82,9.86,9.86,0,0,0-2.72,1.38c-2,1.72-4,3.48-4.44,6.22-1,6.51,2.09,17,9.31,19.16,10,3,20.78-4.35,21.91-14.59.26-2.31-.56-4.39-1.24-6.58,0-.1-1.08-2.15-1.61-3.19a14.45,14.45,0,0,0-3.29-4.31c-5-4.31-9.71-5.22-16.1-4.29-.11,0-1.87,1.15-2.8,1.63a17.14,17.14,0,0,0-5.22,3.81A17.55,17.55,0,0,0,84.58,18c-.73,1.13-2.74,4.1-2.35,4.71.15.24-.72,5.41-.69,5.92.15,4.39,1.15,6.68,2.6,10.8a5.84,5.84,0,0,0,.36.66,40.5,40.5,0,0,0,2.39,4.08c1.89,2.48,5.06,3.52,8,4.3,7.85,2.14,20.08-1,24.87-8,7.44-10.78-.54-27.47-10.61-33.23-2.84-1.63-5.5-2.08-8.7-2.89-.1,0-2.24.18-3.3.31a20.89,20.89,0,0,0-6.33,1.68c-6.58,3.05-11.93,7.2-14.45,14.49-4.51,13.07,3.12,31.06,18,32.52-.08.06-.12.17-.1.37-.41.06-.82.12-1.12.15A7.74,7.74,0,0,1,92,54a20.48,20.48,0,0,0-2.47-.23,12.06,12.06,0,0,1-6.71-2.35A37.44,37.44,0,0,1,75,43.86V45.4c.27.35.53.71.82,1a6.55,6.55,0,0,0-.82-.2v.93a3.76,3.76,0,0,0,1.39-.09c3.71,4.13,8.39,7.27,13.89,7.75h0l-.48,0,.48,0c0,.1,0,.18.07.21s1.26,1.38,1.81,2.05c.95,1.14,1,2.88,1,4.3.09,5.58-1.51,9.05-6,12.62a22.61,22.61,0,0,0-2.93,1.74c-.09.07-1.79.43-2.63.69a4.11,4.11,0,0,1-.75,0L76.52,76,75,75.87v1.2a25.07,25.07,0,0,0,7.89,0c.1,0,1.24-.43,1.82-.65s1.38-.66,2.08-1c2-.89,4.06-3.4,5.43-5,2.83-3.32,1.88-8.07,1.7-11.85a18,18,0,0,0-2.08-3.49L91.72,55a3,3,0,0,0,1.61-.07c.08,0,.88,0,1.52-.13l.71,1.06A8.93,8.93,0,0,1,96.7,59.2c.7,4,.61,6.46-.75,10.11a7.58,7.58,0,0,1-.63,1.13,18.61,18.61,0,0,1-1.52,2c-1.74,1.76-4.33,3.84-6.74,4.5-4.36,1.18-8.19,2.3-12.06,2.14v1.19A51,51,0,0,0,83.72,79c.11,0,1-.25,1.38-.37a10.85,10.85,0,0,0,1.25-.37c.74-.29,1.46-.58,2.18-.92,2.31-1.14,5.11-2.45,6.49-4.75a18.87,18.87,0,0,0,1.8-3,14.5,14.5,0,0,0,1.34-6.94,7,7,0,0,0,0-1.28c-.15-.93-.31-1.84-.46-2.77,0-.1-.59-1.52-.86-2.23A17.3,17.3,0,0,0,96,54.45c1.22-.37,2.8-.71,3.14-1.46l.25,0c.16.59.4,1.24.4,1.27.4,1.41.94,2.75,1.43,4.13,1.4,3.91.53,10.29-1,13.84,0,.11-.65.93-.93,1.36-.52.8-1.11,1.55-1.57,2.4,0,.1-.54.78-.78,1.12a.29.29,0,0,0-.07.19l-.09.06-1,.64-2.15,1.28a39.1,39.1,0,0,1-6.66,3.26,12.24,12.24,0,0,1-1.39.09c-.85,0-1.71,0-2.56,0-1.53,0-3.08,0-4.61-.08C77.23,82.54,76.11,82.57,75,82.59ZM95.72,53.46l-.44.1s-.06-.06-.09-.07l-.2-.08Zm24.94-9.19c.81-.2,2.33-2.08,3.12-2.25,2.47-.54,5-1.16,7.85-1.63a13.79,13.79,0,0,1,1.81.31c1.48.39,3.89.69,5.46,1.64.1.06,1.89,1.17,2.72,1.83l5,4s.23.36.36.54c.74,1.14,1.48,2.29,2.23,3.42a7,7,0,0,1,.31.69,19.48,19.48,0,0,1,1.54,4c1,5.27,1,8.75-1.45,13.45,0,.1-1.25,2.83-2.49,2.89-.39,0-1.11.81-1.46,1-1.75,1.18-3.46,2.26-5.3,3.28-.1.06-.86.43-1.22.64A9.42,9.42,0,0,1,137,79.27c-2.67.73-4.85,1.86-7.63,1.67a18.85,18.85,0,0,1-2.69-.18l-.72-.19a22.11,22.11,0,0,1-4.83-1.67c-.1-.05-.86-.57-1.25-.83A13.83,13.83,0,0,1,118,76.23a17.25,17.25,0,0,1-4.67-7.41c-.19-.61-.89-1.66-.59-2.32,0-.11,0-1.75-.07-2.57-.07-1.67-.08-3.25,0-4.92a8.21,8.21,0,0,1,.3-1.72c.43-1,1-2.11,1.33-3.17.88-2.54,3.5-4.42,4.87-5.47a16.24,16.24,0,0,1,2.48-1.36,18.78,18.78,0,0,1,5-1.32c.1,0,2.27,0,3.36-.06a14.59,14.59,0,0,1,6.43,1.27c.11,0,1.4,1.16,2,1.73.87.75,1.79,2.23,2.89,3.22l.06.09,1.34,1.58a11.54,11.54,0,0,1,1.53,3.48,18,18,0,0,1,.7,10.64,7.57,7.57,0,0,1-1.52,2.26c-1.86,1.47-4.28,3.72-6.78,4.11-.21,0-2.26.33-3.3.44-1.81.18-4-.46-5.7-.76a9,9,0,0,1-1.13-.53l-3.16-1.7a10.1,10.1,0,0,1-1.2-1.31,20.34,20.34,0,0,1-1.95-2.78c-1.68-3.37-2.75-6.84-1.14-10.54,1.84-4.26,7.72-7.75,12.33-6.56a20,20,0,0,1,4.62,2.51A19.2,19.2,0,0,1,138,56.54c1,2.73.84,4.91,1,8.12a12.26,12.26,0,0,1-.6,1.37,6.29,6.29,0,0,1-1.65,2.65c-2.75,1.79-6.39,2.57-9.12.13-4.12-3.66-6-13.53,2-13.9a10.37,10.37,0,0,1,2.07.5c.09.05,1.28,1.23,1.88,1.83A6.44,6.44,0,0,1,134.92,61c.2,3.3-2.24,5.06-5.27,4.14-.11,0-1.38-.82-1.57-1.47s-.35-1.64-.54-2.44A4.37,4.37,0,0,1,128,60c.3-.39.91-.46,1.36-.58a25.2,25.2,0,0,0,2.39.84A4.49,4.49,0,0,1,131.9,63c-.28.62-1.34,1.24-1.9.51v-.1s.09-.65-.14-.75c-.38-.15-.9.44-.82.79A2.12,2.12,0,0,0,132,64.55c1-.68,1.9-4.44.41-5-1.09-.44-6.25-2.14-5.72,1.33.15,1,.29,1.92.44,2.87a12.81,12.81,0,0,0,.87,1.24,4.31,4.31,0,0,0,1.94,1.42,5.4,5.4,0,0,0,5-1.3c3.5-4.18-.78-10.72-5.33-11.19a11.36,11.36,0,0,0-4.16,1.94A7.9,7.9,0,0,0,123.18,64c1.39,5.23,7.59,9.18,12.71,6.59,9.11-4.6,3-23.12-7.17-21.19-8.33,1.58-14,8.93-10.13,17.27,2.17,4.73,4.75,6,9,8.36.88.49,2.54.44,3.56.58,4.82.62,12.48-1.85,14.57-6.76a16.76,16.76,0,0,0,.83-5.17c.21-7.25-4.44-12.65-9.49-17.26a16.14,16.14,0,0,0-3.87-1.15,47.72,47.72,0,0,0-9.1-.06c-.11,0-1.41.59-2.07.87-1.59.67-2.86,1.69-4.31,2.32-4,1.72-5.51,7.43-6.1,11.31,0,.1,0,1.83,0,2.69.08,1.74,0,3.59.24,5.32.6,4.17,4.06,8.71,7.39,11,.57.39,1.11.87,1.7,1.26l-.32-.1c-.94-.29-1.82-.67-2.74-1a13.27,13.27,0,0,1-5.83-4.49c-4.26-6-4.51-14.54-3.14-21.48a11.17,11.17,0,0,0,1.21-1.9,25.82,25.82,0,0,0,7.15-2.87A12.08,12.08,0,0,0,120.66,44.27Zm9.23,19.09s0-.06,0,0v.1s-.13.05-.1,0Zm-24.34,9.81a7,7,0,0,0,.5,1.17c.58.85,1.14,1.71,1.71,2.56.06.1,1.39,1.5,2,2.2A39,39,0,0,0,114,83l.47.33a6,6,0,0,0-.4.86A8.48,8.48,0,0,1,112.25,86a26.14,26.14,0,0,1-4.8,2.11c-3.93,1.32-8.12,0-11.64-2l-.1-.06a14.13,14.13,0,0,0-1.3-.88A31.55,31.55,0,0,0,98,82.75a8.25,8.25,0,0,0,.89.75,8.72,8.72,0,0,0,2.72,1c3.14.58,6.29-.29,9.14-1.46a1.73,1.73,0,0,0,.56-.88c-.11-.06-.62-.31-.74-.1a13,13,0,0,1-3.66,1.28c-3.27.33-5.41.39-8.11-1.17a27,27,0,0,0,2.54-2.35,6.94,6.94,0,0,0,1.91.75c1.71.2,3.59-.69,5.08-1.47l.1,0s.33-.63.14-.86l.17.2a.91.91,0,0,0-.25-.31c-.11,0-.63,0-.74.15s-3,.93-4.44,1.35c-.06,0-.54-.45-1.06-.78A18.47,18.47,0,0,0,105.55,73.17Zm-2.12-20.8c.27,0,.53-.08.8-.14,1.44-.27,2.9-.56,4.35-.88-.13.23-.24.45-.3.58a18.48,18.48,0,0,0-.93,4.32A27.76,27.76,0,0,0,110.68,74a17,17,0,0,0,8.37,6.41,10.93,10.93,0,0,0,3.21,1,1.09,1.09,0,0,0,1-.59l1.29.38c.75.22,1.49.35,2.25.5a12.41,12.41,0,0,0,7.36-.58l3.17-.9a16,16,0,0,0,3.55-1.85c4.49-2.51,10-5.75,11.6-11.07,3.88-13-9.08-28.88-22.46-27.66-.1,0-1.09.2-1.59.29-1,.2-2,.31-3,.44-.11,0-1.39.56-2,.83a8,8,0,0,0-1.25.7l.07-.1a16.81,16.81,0,0,0,2.31-5.46.7.7,0,0,0,.18-.14,3.71,3.71,0,0,1,1,.09,46.38,46.38,0,0,1,4.72.58,69.47,69.47,0,0,1,10.45,3.41l.1-.07,1.91,1.42,2.24,1.67c2.42,1.83,4.1,5.14,5.44,7.82,2.95,5.89,4.19,13.48,1.33,19.74-.52,1.12-1.73,1.9-2.27,3.1a.17.17,0,0,1-.15.11s-1,1-1.45,1.48a33.53,33.53,0,0,1-3.17,2.91c-.53.45-1.77,2.09-1.48,1.45,0-.11-.48.68-.87.9a13.15,13.15,0,0,0-1.58.71,4.46,4.46,0,0,0-.76.89c-.22.08-.82.36-1,.42-.83.3-1.57.77-2.41,1.06a65.94,65.94,0,0,1-7.6,2.22c-.11,0-2,.17-3,.26a16.75,16.75,0,0,1-2.05-.37c-1.24-.35-2.59-.26-3.77-.54-3.7-.87-7-4.12-9.43-6.66a26,26,0,0,1-2.15-2.15l-2.07-3.1c-.06-.1-.16-1-.44-1.26a.5.5,0,0,0-.31-.15c1-3.57.43-7.56.12-11.18,0-.11-.46-2-.68-3A26.29,26.29,0,0,0,103.43,52.37Z"/><path class="cls-2" d="M76.36,60.77A5.34,5.34,0,0,1,79,62.66,5.4,5.4,0,0,1,79.72,64c.06.23,0,.92-.5.67-.29-.15-.47-.84-.54-.92-.56-.71-1.26-1.87-2.27-2.06a4.09,4.09,0,0,0-1.41.08V60.63A3.31,3.31,0,0,1,76.36,60.77Z"/><path class="cls-2" d="M83.89,64a5.42,5.42,0,0,1-5.53,5.28A6.87,6.87,0,0,1,75,68V66.79a6,6,0,0,0,3.2,1.5,6.59,6.59,0,0,0,2.54-.51,5.63,5.63,0,0,0,1.62-6.86A13.9,13.9,0,0,0,80,58.07a2.61,2.61,0,0,0-.44-.27,10.93,10.93,0,0,0-4.55-1V56C79.44,55.59,84.26,59.06,83.89,64Z"/><path class="cls-2" d="M77.57,73c1.49.38,3.05-.38,4.57-.62a2.7,2.7,0,0,0,.74-.17c2.46-2,4.87-4.1,5.33-7.55.23-1.75-1.08-4.77-1.39-5.84a6.13,6.13,0,0,0-.25-.71c-1.85-2.82-2.81-3.77-5.89-5a40.15,40.15,0,0,0-4.09-1.36c-.5.12-1,.22-1.59.33V51c9.73-1,18.9,11.26,11.34,19.71A10.82,10.82,0,0,1,75,73.44V72.13A21,21,0,0,0,77.57,73Z"/><path class="cls-1" d="M61.37,85.45c-6,5.92-13.84,11-22.19,10S23.47,85.13,27.29,77.65c-9.37,2-19.21-4.77-22.4-13.8S4.34,44.44,10,36.69c7.12-9.79,22.62-15.5,31.14-6.9-5.2-8.9,1.22-21.68,11.2-24.25C60.79,3.36,70,7.76,75,14.94V92.71a14.73,14.73,0,0,1-1.81.2C68.16,93.16,62.57,90.37,61.37,85.45Z"/><path class="cls-2" d="M69.09,88.4a6,6,0,0,1-.74-.12c-1.91-.78-4.21-1.41-5.78-2a14.61,14.61,0,0,1-2.74-1.8l-.51-.35a.6.6,0,0,1-.46.25,4.34,4.34,0,0,0-1.5.4l.06,0-.08,0-.05,0,.16,0c.18.16.25.37-.06.56a5.55,5.55,0,0,1-1.37.31c-3.59,1.21-7.85,3.23-11.74,3.17a33.68,33.68,0,0,1-4.86-.78c-.71-.11-2-.39-2.43-.49h.06s0,0-.08,0l-.12,0c-3-1.2-6.5-2-8.5-4.7-.3-.4-1.79-1.71-1.47-2.29a1.14,1.14,0,0,1,1.06-.26c.18.12,0,.64.11.73.37.4,1.05,1.25,1.13,1.32a23.69,23.69,0,0,0,17.61,5.28,30.63,30.63,0,0,0,5.68-1.78l3.38-1.17a4.78,4.78,0,0,1,2.35-1.35q-1.53-1.06-3.06-2.16a3,3,0,0,1-.48-.47,15.69,15.69,0,0,1-10.23,1.67c-2.5-.58-5.06-.91-7.48-1.73a9,9,0,0,1-2.29-1.17,8,8,0,0,0-1.22-.71.37.37,0,0,1-.11-.1.6.6,0,0,0-.07-.21.4.4,0,0,1-.06-.21.27.27,0,0,1,.1-.22.18.18,0,0,1,.1-.17,1.22,1.22,0,0,1,.21-.06c.13-.1.53-.43.73-.35s.14.74.25.84a15.34,15.34,0,0,0,2.09,1.24,22,22,0,0,0,6.51,1.89,20.81,20.81,0,0,0,2.93.2l1.57-.07a16.62,16.62,0,0,0,7.41-2.25c.92-.45,2.36-2,2.78-2.07.25,0,.56.51.56.51l.11.1a.41.41,0,0,1,0,.16c0,.24-.51.51-.61.6a18.12,18.12,0,0,1-2.47,1.68,2.22,2.22,0,0,0,.32.47c1.08,1,2.73,1.65,4,2.58.73.54,1.57,1,2.35,1.45.37.22,1.06.77,1.17.78,2.57.14,5,1.71,7.59,2.1A35.56,35.56,0,0,0,75,88v1a11.14,11.14,0,0,1-1.52-.08C72,88.76,70.56,88.57,69.09,88.4Z"/><path class="cls-2" d="M74.61,56.89c-3.66.78-6.3,5.52-5.26,9A9,9,0,0,0,75,72.13v1.31A11.12,11.12,0,0,1,72.09,72C67.7,68.9,66.75,61.61,70.8,57.81A7,7,0,0,1,75,56v.87A3.05,3.05,0,0,0,74.61,56.89Z"/><path class="cls-2" d="M73,66.06c-.11-1.09-.35-3.3-.31-3.4a2.78,2.78,0,0,1,2.35-2v1.18a5.2,5.2,0,0,0-1.56.48c.05,1,.15,3.1.21,3.18A18.42,18.42,0,0,0,75,66.79V68c-.2-.14-.4-.28-.59-.43A9.62,9.62,0,0,1,73,66.06Z"/><path class="cls-2" d="M70.56,52.47A11.19,11.19,0,0,1,75,51v1c-1.79.36-3.7.79-4.83,2.14L67,58a8.8,8.8,0,0,0-1,1.82c-.14.61-.42,1.83-.44,1.94-.41,2.71-.64,5.5.71,8a26.93,26.93,0,0,0,2.63,3.68c1.47.66,2.79,2.11,4.38,2.25l1.8.14v1.2a14,14,0,0,1-7-2.86C61.73,68.64,63.49,56.6,70.56,52.47Z"/><path class="cls-2" d="M75,11.79v-2a13.61,13.61,0,0,0-2.12,4.28c0,.11-.65,1.22-1,1.77a15.25,15.25,0,0,0-1,2.25l-1.16-2.92L67.91,12c-.06-.09-.77-.93-1.12-1.35a17,17,0,0,0-2.43-1.82,17.53,17.53,0,0,0-9-3.31c-6-.1-11,4.37-14.74,8.51a10.7,10.7,0,0,0-1.47,2.36A16.5,16.5,0,0,0,38,23.35c.46,5.85,1.32,11.2,6.85,14.26,1.62.9,3.47,2.07,5.4,2l1.29,0,.19.21c.67.79,2.46,1.74,3.29,3a15.7,15.7,0,0,1,1.87,12A25.59,25.59,0,0,1,55.77,58c-1.13,2.22-1.72,2.55-3.1,4.46a13.48,13.48,0,0,0-2.26,2.23c-.06.1-1.1.88-1.62,1.28a7.6,7.6,0,0,1-1.38.13l-3.2.15a8,8,0,0,0-1.08-.11c-1,0-1.92-.06-2.89-.09a14.84,14.84,0,0,1-4-1.37l-.09-.06-4.5-3.48a11.45,11.45,0,0,1-3-3.92c-2.14-4.62-.74-12,2.93-15.44,5-4.75,13.75-3.55,18.16,1.42a14.82,14.82,0,0,1,3.56,10.11c0,.11-.63,2-1,3-.74,2.19-1.38,2.7-3.34,4.23-.09.07-1.91.83-2.82,1.22a25.75,25.75,0,0,1-2.58-.27,15.61,15.61,0,0,1-4.17-1.34C36.24,58.73,33,54.37,33,50.65c0-2.6,1.26-6.57,3.82-7.77C40.89,41,46,43.8,47.91,47.42c.05.09.26,3,.36,4.46,0,.11-.48,1.28-.73,1.87-.36.87-1.66,1.68-2.42,2.18a5,5,0,0,1-2.18-.13c-1.68-.75-1.9-1.17-3.12-2.8a6.3,6.3,0,0,1-.34-1c-.12-.53-.79-2.23-.34-3,.89-1.46,1.67-1.41,3.17-.93.11,0,1.86,3.4,2.15,2.4.43-1.52-2-4.43-3.71-3.79a4,4,0,0,0-2.71,3c0,.11.48,2.3.73,3.4a8.28,8.28,0,0,0,1.31,2C41.36,56.22,43,57.44,44.86,57c.11,0,.89-.43,1.29-.64A10.55,10.55,0,0,0,48,54.75a7.36,7.36,0,0,0,1.18-2.37,15.72,15.72,0,0,0-.35-5.12c0-.11-.48-1.09-.71-1.6a8.15,8.15,0,0,0-2-2c-1.72-1.67-5.55-2.61-7.88-2.19-5,.92-5.7,6.09-6.14,10.24a8.41,8.41,0,0,0,.48,1.55l1.28,3.09c0,.09,1,1.15,1.51,1.67.15.16.63.58.44.47s.26.24.37.34l1.61,1.47c1.2,1.1,3.07,1,4.39,1.86a28.06,28.06,0,0,0,3,.49,7.17,7.17,0,0,0,4.33-1.25c4.21-2.59,4.6-7.13,4.51-11.55a15.45,15.45,0,0,0-1.24-3.65,18.9,18.9,0,0,0-5.11-5.94,21.3,21.3,0,0,0-1.91-1.16,16.29,16.29,0,0,0-3.94-1,12.52,12.52,0,0,0-10.79,2.84C25,46.11,26.15,55.17,30.11,61c.06.1,1.08,1.32,1.65,1.89a12.15,12.15,0,0,0,3.92,2.45,8.49,8.49,0,0,0,1.76.88c.78.24,3.11.65,2.31.76-.21,0,.43,0,.64,0a19.2,19.2,0,0,1,3.86.17,6.84,6.84,0,0,0,.77,0c.86,0,2.93.13,4-.34,2.33-1,3.64-3.58,5.67-5.07a3.76,3.76,0,0,0,.88-1.49,16.47,16.47,0,0,1,1.22-2.32,13,13,0,0,0,1.24-4.43A14.4,14.4,0,0,0,53.34,40c-.09-.08-.22-.21-.37-.37h.2a9.45,9.45,0,0,0,2.1-.23,11.17,11.17,0,0,1,2.16,2.29A18.22,18.22,0,0,1,60,48.19a.59.59,0,0,0,.08.4c.26,1.31.44,2.65.61,4a24.52,24.52,0,0,1,.17,2.74,31.47,31.47,0,0,0-1.75,5.07.36.36,0,0,1,0,.09,15.16,15.16,0,0,1-1.32,2.23c-.74.91-1.39,1.89-2.14,2.78-2.46,2.9-5.39,3.86-9.06,5.36-.1,0-2.6-.12-3.86-.15l-1.6-.06a4,4,0,0,1-.65,0c.47-.06-.31-.17-1.09-.27a.22.22,0,0,0-.14,0l-.82-.12a16.77,16.77,0,0,1-3.88-1.59,24.35,24.35,0,0,1-5.58-3.91l.22-.07h-.29a16.5,16.5,0,0,1-1.5-1.56,27.65,27.65,0,0,1-3.1-4.56h0a18.69,18.69,0,0,1-1.48-14.39c.13-.48.3-1.17.51-1.89.19-.1.34-.25.33-.37a1.81,1.81,0,0,0,0-.42l.11.2-.11-.23a.08.08,0,0,1,0,0A6.45,6.45,0,0,1,24.78,39l3.51-3.51A7.87,7.87,0,0,1,29.52,35c.7-.26,1.29-.74,2-1,2-.83,4-.59,6.19-.5.11,0,1.11.24,1.62.34.11,0,1.34.21,1.2-.14a3,3,0,0,0-.94-.81c.11-.24-.21-.52-.35-.65s-.73,0-.74-.27.38.23.43.09-2.83-1.57-2.86-1.58c-2.41-.53-4.32-1.41-6.9-1.15A36.34,36.34,0,0,0,8.86,37.88C8.78,38,7.79,39,7.3,39.47c-1,1-2.37,2-2.86,3.39,0,.11-.6,1-.89,1.53a23.66,23.66,0,0,0-1.43,2.9C.85,50.14.83,53.1,0,56c0,.11.23,2.74.36,4.05,0,.11.51,2.09.77,3.07a18,18,0,0,0,2.48,4.78c2.7,4.2,7.83,9.82,13.11,10.46.11,0,1.48.2,2.16.31a12.18,12.18,0,0,1,1.83.29c2.4.68,4.49.4,6.83.29A3.91,3.91,0,0,0,29,79a10.56,10.56,0,0,0,3.25-1.12c1-.85,3-1.75,4.62-2.84l.1,0a8.29,8.29,0,0,0,1.17.26l5.08.89c.11,0,.54,0,.75.06a31.12,31.12,0,0,0,4.62.26c2.76-.27,5.14-2.12,7.45-3.5V73c.77,1.3,1.5,2.56,2.16,3.93,1.28,2.64,6.59,4.82,8.63,5.58,2.81,1,5.39,1,8.23.94v-.86a28.47,28.47,0,0,1-5.24-.22c-2.68-.43-5.76-2.28-8-3.33C61.7,79,60,77.35,59.15,76.5a13.33,13.33,0,0,1-2.68-4.15c.08-.14.1-.26,0-.29l-.09,0c-.08-.21-.16-.42-.22-.63.28-.78-.07-1.69,0-2.52,0-.06,0-.12,0-.19.1-.33.17-.66.08-.78a8.09,8.09,0,0,1,.7-2.29,20.08,20.08,0,0,0,1.66-2.14,10.64,10.64,0,0,0,.6,5.41,6.88,6.88,0,0,0,.42,1.35l1.49,2.28c.89,1.36,2.18,3.09,3.6,3.72,1.68.75,3.12,2.25,4.85,3a13.63,13.63,0,0,0,5.49,1V79.12a16.73,16.73,0,0,1-3-.41l1.92.76A30,30,0,0,1,70,78.4c-2.31-1-6.21-3.44-7.63-5.54A15.13,15.13,0,0,1,60.3,60.33a17.53,17.53,0,0,0,1.15-3.76c.33-.89.69-1.77,1.09-2.66.05-.11,1-1.59,1.43-2.35a9.71,9.71,0,0,1,3.4-3.37c.1-.07,1.43-.74,2.1-1.08.09,0,.51-.19.72-.26s3,.19,4.4.29l.43,0v-.93c-.49-.1-1-.15-1.22-.18-2.64-.2-3.9-.36-6.07.92a8.22,8.22,0,0,0-1.09.5c-.6.46-1.22.9-1.82,1.36-1,.75-1.73,2.4-2.32,3.35-.24.39-.49.84-.75,1.32,0-.31-.06-.62-.07-.85,0-1.13-.29-2.28-.43-3.4,0-.37-.12-.72-.18-1.06.29-.23.65-.57.48-.77A6.93,6.93,0,0,1,63,45.76c.9-.75,2.51-2.88,3.72-3.06L71.15,42c.25,0,.91,0,1.4-.07A41.15,41.15,0,0,0,75,45.4V43.86a27.34,27.34,0,0,1-5.31-12.54,4.88,4.88,0,0,1,.09-.74c0-.14.18-1.41.39-2.62.1-.35.19-.69.25-.95a6.31,6.31,0,0,0,.15-1,32.86,32.86,0,0,0,.79-4h0c.54-.1.35-1.7.33-2v0a19,19,0,0,1,1-3.35c0-.1.52-1.28.82-1.85C74.06,13.8,74.48,12.74,75,11.79ZM61.7,53.61c0-.17,0-.34,0-.52l0,.42A.93.93,0,0,0,61.7,53.61ZM23.05,58.38a2.47,2.47,0,0,1-1,.48h-.13a4.26,4.26,0,0,1-2,.2,5,5,0,0,1-2.06-3c-.27-2.77.76-2.86,2.73-3.51.05,0,.31-.08.55-.16A23,23,0,0,0,23.05,58.38Zm-2.58-5.87c.1-.11.1,0,.1,0Zm7.69,12.67s0,0-.05,0a6.74,6.74,0,0,1-2.24,2.59c-1.1.74-4.81,1.13-6.73.27-6.63-3-9.61-9.71-8.7-16.73,0-.11.16-.52.23-.72.52-1.46,1-2.93,1.55-4.4,0-.1.8-1.29,1.18-1.89.06-.08,1.76-1.09,2.61-1.6a9.25,9.25,0,0,1,4.79-1.17A2.52,2.52,0,0,1,22,42a2.11,2.11,0,0,0,.29.17c-.45,1.45-.9,3.68-1,4.14,0,.17-.05.33-.08.5a6.76,6.76,0,0,0-2.75-.06c-.11,0-1.24.38-1.79.6A5.19,5.19,0,0,0,14,49.48c-2,3-1.33,4.63-.66,8.39,0,.1,1.26,2.25,1.94,3.29a7.6,7.6,0,0,0,6.41,3.6,18.13,18.13,0,0,0,2.76-.41,4.24,4.24,0,0,0,1.45-1.06.49.49,0,0,0,0-.52,3,3,0,0,0-1.39.47,11.64,11.64,0,0,1-2.33.47l-.89.09a8.1,8.1,0,0,1-2-.32c0-.62-2-1.76-2.91-2.47-.09-.07-.5-.76-.77-1a10.72,10.72,0,0,1-1.24-2.16c-.05-.1-.43-1.29-.63-1.89,0-.1.11-3,.18-4.5A20.33,20.33,0,0,1,15.63,49c.07-.09,1.25-.69,1.85-1a5.53,5.53,0,0,1,3.41-.3l.21-.11A16.57,16.57,0,0,0,21,51.71a5.12,5.12,0,0,0-2.83.47c-1.56.86-1.43,3-1.1,4.44a13.19,13.19,0,0,0,1,1.25c.6.75.57,1.75,1.55,2,.1,0,1.07,0,1.55,0,.16,0,.79-.1,1.11-.15h-.05l.59,0a3,3,0,0,0,.68-.3c0,.09.08.18.13.27s1.62,2.24,2.41,3.31A10.34,10.34,0,0,0,28.16,65.18Zm10.29,6.1-.24.43a11.44,11.44,0,0,1-1.57,2.18c-.22-.12-.49-.24-.65-.15-.35.2-.27.49-.08.71a25.44,25.44,0,0,1-5.41,3.26L29.12,78a19.44,19.44,0,0,1-2.65.38,36.88,36.88,0,0,1-7.1-.53l-2.05-.4a8.77,8.77,0,0,1-2-.56A24.26,24.26,0,0,1,8.2,72.12C1.85,65.37-.28,58.5,2.22,49.7c0-.11.66-1.52.95-2.24a32.71,32.71,0,0,1,2.26-4.35c.05-.09,1.12-1.31,1.65-1.92,1.06-1.23,2.2-2.36,3.35-3.52,2.18-2.2,4.63-2.77,7.66-4.59a17.75,17.75,0,0,0,2.19-1.14c.1-.08,1.66-.36,2.44-.5.1,0,.74-.21,1.06-.27l2.65-.57a16.8,16.8,0,0,1,7.06,0l.1,0a9.58,9.58,0,0,1,1.75.59c.84.46,2.18,1.15,2.75,1.42L37,32.51a13.07,13.07,0,0,0-4.59.27c-.1,0-1.38.58-2,.85-.8.33-1.6.64-2.4.95,0,0,0,0,0-.07-.42-.65-3.6-.76-4.29-.56a34.82,34.82,0,0,0-8.43,3.17c-4.72,2.75-7,7.74-8.48,12.8a10.56,10.56,0,0,0-.52,1.63C6.15,52.63,6,53.69,6,54.77c0,3.62-.12,7.27,1.25,10.65,0,.11,1.27,2.09,1.88,3.08a21.24,21.24,0,0,0,3,3.25,5.54,5.54,0,0,0,.74,1c.68.5,1.37,1,2,1.47,1.26.92,4.43,1.44,5,1.15a30.83,30.83,0,0,1,3.4-.45c1.11-.1,2.2-.31,3.3-.49a11.24,11.24,0,0,0,2-.8c1.21-.73,2.65-1.14,3.49-2.32C32.13,71.05,33.15,70,33,70s-.14-.18-.24-.32a4.31,4.31,0,0,0-1.37.79c-1.18,1.3-2.58,1.8-4.19,2.59-3.33,1.63-7.67,1.47-10.61.87a4.64,4.64,0,0,1-1.21-.53L13.3,71.84c-.09-.06-1.42-1.61-2.12-2.35a25.57,25.57,0,0,1-3-4.34c-.06-.09-.46-1.14-.67-1.67A14.31,14.31,0,0,1,7,60.4c0-.11,0-1.6,0-2.35,0-1.51,0-3,0-4.5,0-.11.38-1.92.58-2.83a29.87,29.87,0,0,1,1.25-3.78c1.6-4.61,4.46-8.29,9.21-9.71a25.11,25.11,0,0,1,2.19-1.3A11.22,11.22,0,0,1,26.09,35a8,8,0,0,0,1.29-.07,20.67,20.67,0,0,0-2.57,2.4c-.21.24-1.77,3.5-1.88,3.51s-.18.14-.29.36a9.68,9.68,0,0,0-1.86-.59,8.63,8.63,0,0,0-4.14.62c-4.51,2-7.08,6.38-7.41,11.36C8.62,61.68,16.08,72,25.6,68.9c.11,0,1.2-1,1.15-.62s1.62-1.66,2-2.24a1.73,1.73,0,0,1,.22-.27A35.2,35.2,0,0,0,38.45,71.28Zm16.58,0a3.51,3.51,0,0,0,.34.67l.24.41a8.91,8.91,0,0,0-1.18.53,22.27,22.27,0,0,1-3.93,2.21,23.55,23.55,0,0,1-12.77-.7,3.38,3.38,0,0,0,1.49-2.61c0-.09.55,0,.76,0a15.2,15.2,0,0,0,6.63.14,18.5,18.5,0,0,0,8.76-4.62,7.94,7.94,0,0,0-.27,1.47.37.37,0,0,0,0,.11A6.78,6.78,0,0,0,55,71.27Zm12.12-31.9c-.2-.53-1.76-4-1.48-4.76a1.51,1.51,0,0,0,.23-.52c.64-.51,1.67-1.07,1.88-1.83,0-.06.45-.53.89-1.09a14.34,14.34,0,0,0,1.49,6.44C70.7,38.74,71.31,39.87,72,41l-.24,0c-1,0-2.78.2-3.3.23-.13,0-.25,0-.37.06A20,20,0,0,1,67.15,39.37Zm-4.22,3.82s-.36-1.33-.48-2c0-.11,0-.25,0-.32l0-.15L62.32,40l2-1.05a5.48,5.48,0,0,0,1.18-1c.42,1.07.87,2,1,2.47a6.45,6.45,0,0,0,.53,1.14,11,11,0,0,0-3.62,2.4l-.22.21a8.8,8.8,0,0,1-.34-.88,1.12,1.12,0,0,0,0-.24Zm-4.84-2.07a4.66,4.66,0,0,1,.5.65.29.29,0,0,0-.09-.2c-.11-.1,1.1-.18,1.64-.46l1.25-.66a8.4,8.4,0,0,0,1,4.19.37.37,0,0,0,.13.15,15.87,15.87,0,0,0-1.75,2A19.14,19.14,0,0,0,58.09,41.12Zm-1.56-2,1.1-.27a22.2,22.2,0,0,0,7.07-3.77,10.82,10.82,0,0,0,.66,2.45.27.27,0,0,0-.09,0l.13.1s0,.07,0,.11a4.69,4.69,0,0,0-1.48.34,45,45,0,0,1-4.76,2.51c-.52.2-.87,0-1.38.16L57.3,40S57,39.59,56.53,39.11Zm14-20.24a12.65,12.65,0,0,0-.85-1.4,19.64,19.64,0,0,0-1.89-2.14,7.69,7.69,0,0,0-.89-1c-.55.17-2-1.63-2.85-2.08A14.79,14.79,0,0,0,56,9.9c-.11,0-3,.75-4.35,1.13-.21.05-.63.38-.63.16s-3.19,2.53-3.88,3.18c-2.44,2.32-7,8.59-4.77,12.52.06.11.83,1.74,1.21,2.56.52,1.11,1.91,3.2,3.19,3.56.11,0,1.45.6,2.13.89a14.57,14.57,0,0,0,2.88.88,6.16,6.16,0,0,0,.87.32c.21,0,1.93,0,2.78,0a5.14,5.14,0,0,0,2.75-.73l.11,0L60.9,33c1-.59,2.31-2.47,3.07-3.73a10.94,10.94,0,0,0,.76-1.4c.4-1,.81-2,1.14-3a7.67,7.67,0,0,0-2-7.86c-.08-.07-1.72-1.24-2.54-1.82-.09-.06-2.73-1-4.05-1.46-1.69-.59-3.3,0-4.86.68a12.85,12.85,0,0,0-2.42,2,12,12,0,0,0-2.75,6c0,.11.09,1,.15,1.49a11.41,11.41,0,0,0,.88,2.54,7.5,7.5,0,0,0,5.58,5.16c.11,0,1.94-.38,2.86-.55a5.54,5.54,0,0,0,2.93-2.27c.07-.09.88-2,1.29-2.94a16.85,16.85,0,0,0,.46-2.68,14.58,14.58,0,0,0-.56-1.8,12.15,12.15,0,0,0-1.62-2.5,15.91,15.91,0,0,0-1.93-.92,3.76,3.76,0,0,0-1.16.1c-.69.19-1.33.56-2,.81-1.12.43-2.4,2.65-2.52,3.47C51,26.46,53.87,28.73,57,26.19a8.44,8.44,0,0,0,.69-1.33,3.34,3.34,0,0,0-.18-2.94,2.93,2.93,0,0,0-1.06-.48,1.87,1.87,0,0,0-1.91,1c-.07.11.32,1.1.73,1,.22,0,.42-.6.28-.77a1.91,1.91,0,0,1,.89-.36,3.2,3.2,0,0,1,.48,2.12,6.51,6.51,0,0,1-.69,1.32,5.66,5.66,0,0,0-1,.52c-.1.06-.85,0-1.16.16-.11.06-.5-.3-.7-.48a3.4,3.4,0,0,1-.67-1.42A9.63,9.63,0,0,1,52.76,22l0-.11a20.85,20.85,0,0,1,1.64-2.13,19.22,19.22,0,0,1,2.18-.9,4.6,4.6,0,0,1,2.07.73,7,7,0,0,1,1.65,3.46C60.79,25.78,59,28.5,57,30c-.09.06-2,.44-3,.62a11.32,11.32,0,0,1-1.29-.25,4.12,4.12,0,0,1-1.85-1.51c-.28-.35-1.26-1.2-.84-1.05.14,0-.34-.61-.47-.93-.31-.74-.61-1.48-.94-2.22-.9-2.1-.2-3.73.64-5.71a10.7,10.7,0,0,1,2-2.5,9.75,9.75,0,0,1,5.49-2c.11,0,2.75,1,4.07,1.47a9,9,0,0,1,2.41,1.68c.09.07.82,1,1.18,1.51a4.81,4.81,0,0,1,.81,2.75A12.59,12.59,0,0,1,63,29c-.07.1-1.24,1.67-1.87,2.44-.2.25-.76,1.07-.63.77.28-.64-1.25.59-1.85.95a8.52,8.52,0,0,1-3.08,1.09l-2-.07A6.3,6.3,0,0,1,51.84,34a8.52,8.52,0,0,0-1.63-.56A15,15,0,0,1,47,31.93a9.11,9.11,0,0,1-2.36-2.36c-1-2.22-1.54-3.24-1.65-5.6,0-.1.47-1.62.68-2.38a14.17,14.17,0,0,1,2.06-4.18,8.07,8.07,0,0,1,.76-1.17,11.5,11.5,0,0,1,1.95-1.93c3-1.69,3.48-3,7.66-3.46,4.94-.5,9.06,3.19,12.32,6.63a6.68,6.68,0,0,1,1.37,2.64c0,.87.09,1.69.12,2.48-.13,1-.26,2.1-.38,3.16,0,.07-.23,1.27-.46,2.45-.14.49-.29,1-.41,1.34,0,.11-1,1.41-1.55,2.05-.11.12-1,1.15-1.75,1.92a.41.41,0,0,0-.52.16,1.16,1.16,0,0,0-.16.43c-.24.18-.44.28-.56.25-.34-.11-2.24,1.41-2.81,1.73-3,1.65-3.9,1.7-7.37,2.56-.11,0-2.39.07-3.53.1-.05,0-.64,0-.64,0,0-.28-2.27-.72-3.07-1.17-2.7-1.47-5-3.07-6.24-5.79-2.06-4.38-2.65-12,.12-16.28,1.56-2.45,4.18-4.43,6.48-6.12a13.29,13.29,0,0,1,1.86-1c1.26-.49,2.53-1,3.78-1.6.1,0,2.46,0,3.64.06a7.29,7.29,0,0,1,2.52.43C63.45,9.2,66.69,11.31,69,15.73c.49.94,1.48,2,1.53,3Z"/></g></g></svg>