<svg version="1.2" xmlns="http://www.w3.org/2000/svg" viewBox="0 0 881 275" width="881" height="275">
	<title>Odessa-Logo-HighRes (1)-ai</title>
	<style>
		.s0 { fill: #00acc8 } 
	</style>
	<g id="Layer 1">
		<g id="&lt;Group&gt;">
			<path id="&lt;Compound Path&gt;" fill-rule="evenodd" class="s0" d="m146.9 139.7c0 43.5-31 75.2-73.4 75.2-42.1 0-73.2-31.7-73.2-75.2 0-43.3 31.1-74.9 73.2-74.9 42.4 0 73.4 31.6 73.4 74.9zm-33.9 0c0-29.3-18.6-44.4-39.5-44.4-20.6 0-39.5 15.1-39.5 44.4 0 29.3 18.9 45 39.5 45 20.9 0 39.5-15.4 39.5-45z"/>
			<path id="&lt;Compound Path&gt;" fill-rule="evenodd" class="s0" d="m307.2 184.7c0 12.8 1.1 23.5 1.4 25.8h-32.2c-0.6-3.2-1.5-12.5-1.5-18.3-6.6 11.9-21.4 21.8-41.5 21.8-40.6 0-67.9-31.9-67.9-74.6 0-40.6 27.6-74 67.4-74 24.6 0 37.1 11.3 41.5 20.3v-85.3h32.8zm-70-0.3c22.1 0 37.5-18.3 37.5-45.3 0-27-15.1-43.8-37.2-43.8-22.1 0-38.3 17.1-38.3 44.1 0 27 15.1 45 38 45z"/>
			<path id="&lt;Compound Path&gt;" fill-rule="evenodd" class="s0" d="m467.7 170.2c-7.6 24.7-29.9 44.7-63.9 44.7-38.3 0-72.3-27.9-72.3-75.8 0-44.7 33.1-74.3 68.8-74.3 43.6 0 69.1 28.7 69.1 73.4 0 5.6-0.5 10.2-0.8 10.8h-103.4c0.9 21.5 17.7 36.9 38.6 36.9 20.3 0 30.8-10.8 35.4-24.7zm-32.2-45.9c-0.6-16.5-11.6-31.3-34.8-31.3-21.2 0-33.4 16.2-34.6 31.3z"/>
			<path id="&lt;Path&gt;" class="s0" d="m518.5 164.1c1.2 12.8 10.7 24.1 28.7 24.1 14 0 21.2-7.6 21.2-16.3 0-7.5-5.2-13.3-16.5-15.6l-20.9-4.7c-25-5.5-38-21.8-38-41.2 0-24.7 22.6-45.6 51.9-45.6 39.5 0 52.3 25.6 54.6 39.5l-28.5 8.1c-1.1-8.1-7.2-21.2-26.1-21.2-11.9 0-20.3 7.6-20.3 16.3 0 7.5 5.5 13 14.2 14.8l21.5 4.3c26.7 5.8 40.6 22.1 40.6 43 0 21.5-17.4 45.3-53.4 45.3-40.9 0-56.6-26.7-58.3-42.7z"/>
			<path id="&lt;Path&gt;" class="s0" d="m651.2 164.1c1.1 12.8 10.7 24.1 28.7 24.1 13.9 0 21.2-7.6 21.2-16.3 0-7.5-5.2-13.3-16.6-15.6l-20.9-4.7c-24.9-5.5-38-21.8-38-41.2 0-24.7 22.6-45.6 52-45.6 39.4 0 52.2 25.6 54.5 39.5l-28.4 8.1c-1.2-8.1-7.3-21.2-26.1-21.2-11.9 0-20.4 7.6-20.4 16.3 0 7.5 5.6 13 14.3 14.8l21.5 4.3c26.7 5.8 40.6 22.1 40.6 43 0 21.5-17.4 45.3-53.4 45.3-40.9 0-56.6-26.7-58.4-42.7z"/>
			<path id="&lt;Compound Path&gt;" fill-rule="evenodd" class="s0" d="m798.9 129.5l36.3-5.5c8.1-1.1 10.4-5.2 10.4-10.1 0-11.9-8.1-21.5-26.7-21.5-17.7 0-27.5 11.3-29 25.5l-30.8-6.9c2.7-24.4 24.7-46.2 59.5-46.2 43.6 0 60.1 24.7 60.1 52.8v70.3c0 12.8 1.5 21.2 1.8 22.6h-31.4c-0.3-0.8-1.4-6.6-1.4-18-6.7 10.8-20.6 22.4-43.6 22.4-29.6 0-47.9-20.3-47.9-42.7 0-25.2 18.6-39.2 42.7-42.7zm46.7 22.4v-6.4l-36.8 5.5c-10.5 1.8-18.9 7.6-18.9 19.2 0 9.6 7.3 18.3 20.6 18.3 18.9 0 35.1-9 35.1-36.6z"/>
			<path id="&lt;Path&gt;" class="s0" d="m138.1 274.2h-132.3v-22h132.3z"/>
		</g>
	</g>
</svg>