<svg width="432" height="123" viewBox="0 0 432 123" fill="none" xmlns="http://www.w3.org/2000/svg">
<g clip-path="url(#clip0_2367_10108)">
<path d="M431.969 28.6119C431.969 44.4121 419.082 57.2204 403.185 57.2204C401.448 57.2204 399.746 57.0672 398.092 56.7745H398.089C397.99 56.4375 397.88 56.1006 397.767 55.7704C394.157 45.2324 385.931 38.1322 375.465 36.3418C374.77 33.8843 374.4 31.2906 374.4 28.6119C374.4 12.8117 387.287 0 403.185 0C419.082 0 431.969 12.8117 431.969 28.6119Z" fill="#F94D03"/>
<path d="M391.922 31.5561C392.305 31.0285 392.805 30.7358 396.025 29.3573C400.007 27.6248 401.867 25.6302 401.867 22.7268C401.867 19.1767 398.888 16.5966 394.548 16.5966C389.826 16.5966 386.757 19.2652 386.463 23.6969L390.651 24.0168C390.86 21.6716 392.247 20.4088 394.548 20.4088C396.466 20.4088 397.648 21.2904 397.648 22.6996C397.648 24.1087 396.555 25.0447 393.042 26.5424C390.562 27.5975 389.001 28.5642 388.025 29.7079C387.168 30.7052 386.757 32.0565 386.757 33.8434V36.7502H401.692V32.9074H391.566C391.566 32.2607 391.655 31.9101 391.922 31.5561Z" fill="white"/>
<path d="M417.213 29.3879V17.0357H410.514L402.781 29.3879V33.2307H412.994V36.7502H417.213V33.2307H419.665V29.3879H417.213ZM412.994 29.3879H407.001L412.936 19.9698H412.994V29.3879Z" fill="white"/>
<path d="M7.93496 17.0017H7.40756C5.36303 17.0017 3.51029 17.8254 2.17124 19.1563C0.82877 20.4872 0 22.3286 0 24.3606C0 28.4247 3.3185 31.7229 7.40756 31.7229H7.93496C9.98291 31.7229 11.8322 30.8992 13.1747 29.565C14.5172 28.2307 15.3425 26.3927 15.3425 24.3606C15.3425 20.2966 12.0274 17.0017 7.93496 17.0017ZM0.212329 40.8688V96.6018H15.3425V40.8688H0.212329Z" fill="white"/>
<path d="M55.8588 39.2928C49.6191 39.2928 43.6944 41.815 40.4136 45.811H40.2012V40.8687H25.8142V96.6017H40.9444V63.5819C40.9444 57.1693 44.7526 53.1733 51.0985 53.1733C57.4444 53.1733 61.2561 56.9582 61.2561 63.5819V96.6017H76.3863V60.9542C76.3863 47.7034 68.1328 39.2928 55.8588 39.2928Z" fill="white"/>
<path d="M133.175 83.6948C131.199 79.001 130.157 73.8069 130.157 68.3711C130.157 63.6025 130.966 59.0142 132.514 54.7902C133.123 53.1291 133.846 51.526 134.681 49.9875C131.411 43.2413 124.89 39.2929 116.483 39.2929C110.24 39.2929 104.315 41.8151 101.037 45.8111H100.825V40.8688H86.4347V96.6018H101.565V63.582C101.565 57.1694 105.373 53.1734 111.722 53.1734C118.072 53.1734 121.877 56.9584 121.877 63.582V96.6018H137.007V90.5738C135.483 88.443 134.202 86.1353 133.175 83.6948Z" fill="white"/>
<path d="M233.254 40.8688L219.079 76.9383H218.867L204.688 40.8688H191.291C191.729 41.2705 192.161 41.6823 192.579 42.1078C193.007 42.5435 193.425 42.9894 193.825 43.4421C198.962 49.2284 202.065 56.6486 202.774 64.7665C202.88 65.9544 202.932 67.156 202.932 68.3711C202.932 70.3078 202.801 72.2139 202.538 74.0758L211.99 96.6018H225.956L249.336 40.8688H233.254Z" fill="white"/>
<path d="M274.833 39.2929C261.925 39.2929 251.98 46.6518 250.288 57.6935L264.148 60.7433C265.206 55.0658 269.015 51.805 274.833 51.805C279.699 51.805 282.556 53.6975 282.556 56.9583C282.556 59.9026 279.806 61.4785 270.919 63.582C256.528 67.0538 250.922 72.1016 250.922 81.4585C250.922 91.554 258.223 98.1777 269.333 98.1777C276.104 98.1777 281.285 96.0742 284.039 92.1837H284.247V96.6018H297.792V60.4267C297.792 47.3904 288.905 39.2929 274.833 39.2929ZM283.086 77.779C283.086 82.4047 278.641 85.56 272.295 85.56C267.744 85.56 265.415 83.8786 265.415 80.5122C265.415 77.568 267.744 75.8866 274.515 74.0996C279.593 72.6258 281.922 71.363 282.874 69.6815H283.086V77.779Z" fill="white"/>
<path d="M340.531 54.1196V40.8688H326.672V26.8862H311.541V35.2765C311.541 38.3637 309.024 40.8688 305.915 40.8688H301.915V54.1196H311.541V78.6198C311.541 91.554 317.045 96.6018 330.904 96.6018H338.521V82.1937H332.384C327.942 82.1937 326.672 81.142 326.672 77.6735V54.1196H340.531Z" fill="white"/>
<path d="M396.391 68.7353C396.391 64.4024 395.74 60.4166 394.525 56.8665C394.398 56.4955 394.264 56.1313 394.124 55.7705C391.018 47.7104 384.888 42.0908 376.819 40.0996C375.398 39.7456 373.911 39.5039 372.374 39.3848C371.613 39.3235 370.836 39.2929 370.048 39.2929C354.497 39.2929 343.6 51.3864 343.6 68.7353C343.6 86.0842 354.497 98.1777 370.367 98.1777C380.946 98.1777 389.199 93.9707 394.593 85.5601L383.908 77.2515C379.994 82.9324 375.867 85.5601 370.367 85.5601C363.49 85.5601 359.257 81.0365 358.833 73.1534H396.391V68.7353ZM358.833 62.5303C359.363 56.1176 363.911 51.9106 370.155 51.9106C377.031 51.9106 381.158 55.8011 381.685 62.5303H358.833Z" fill="white"/>
<path d="M166.486 38.3738C149.524 38.3738 137.007 51.046 137.007 68.371C137.007 85.6961 149.524 98.484 166.486 98.484C183.449 98.484 196.082 85.8118 196.082 68.371C196.082 50.9302 183.565 38.3738 166.486 38.3738ZM166.486 86.3905C158.181 86.3905 150.579 80.114 150.579 68.371C150.579 56.6281 158.181 50.5797 166.486 50.5797C174.791 50.5797 182.397 56.6281 182.397 68.371C182.397 80.114 174.911 86.3905 166.486 86.3905Z" fill="#00ABC8"/>
<path d="M166.486 38.3738C149.524 38.3738 137.007 51.046 137.007 68.371C137.007 85.6961 149.524 98.484 166.486 98.484C183.449 98.484 196.082 85.8118 196.082 68.371C196.082 50.9302 183.565 38.3738 166.486 38.3738ZM166.486 86.3905C158.181 86.3905 150.579 80.114 150.579 68.371C150.579 56.6281 158.181 50.5797 166.486 50.5797C174.791 50.5797 182.397 56.6281 182.397 68.371C182.397 80.114 174.911 86.3905 166.486 86.3905Z" fill="#00ABC8"/>
<path d="M192.513 113.443H139.225V122.256H192.513V113.443Z" fill="#00ABC8"/>
</g>
<defs>
<clipPath id="clip0_2367_10108">
<rect width="431.97" height="122.256" fill="white"/>
</clipPath>
</defs>
</svg>
