<?xml version="1.0" encoding="utf-8"?>
<!-- Generator: Adobe Illustrator 21.1.0, SVG Export Plug-In . SVG Version: 6.00 Build 0)  -->
<svg version="1.1" id="Layer_1" xmlns="http://www.w3.org/2000/svg" xmlns:xlink="http://www.w3.org/1999/xlink" x="0px" y="0px"
	 viewBox="0 0 224.9 225.3" style="enable-background:new 0 0 224.9 225.3;" xml:space="preserve">
<style type="text/css">
	.st0{fill:#0075A2;}
	.st1{fill:#0F6FC6;}
	.st2{fill:#00ACC8;}
	.st3{fill:#FFFFFF;}
</style>
<path class="st0" d="M116.2,111.3c22,28.5,43.6,57.1,66.7,89.1c-30.9,25-74.2,32.6-113.4,16.3C30.2,200.4,5.1,164.3,1,124.8
	C58.5,117.5,52.2,117.9,116.2,111.3"/>
<path class="st1" d="M110,116c21.1,29.2,42.4,58,66.5,89.2c32.7-22.6,52.3-61.9,47.8-104.1c-4.5-42.3-32-76.5-68.7-91.7
	C132.2,62.4,134.4,56.5,110,116"/>
<path class="st2" d="M111.8,116.3c-35.8,4.4-71.4,8.4-110.6,11.9C-4.5,88.9,10.9,47.7,45,22.3c34.1-25.5,77.9-28.6,114-12
	C135.9,63.5,138.7,57.9,111.8,116.3"/>
<path class="st3" d="M193.7,116c-1.8,44.9-39.6,79.8-84.5,78c-44.9-1.8-79.8-39.6-78-84.5c1.8-44.9,39.6-79.8,84.5-78
	C160.5,33.4,195.5,71.2,193.7,116"/>
<path class="st2" d="M135,103.5c0,13.4-9.6,23.1-22.6,23.1c-13,0-22.5-9.7-22.5-23.1c0-13.3,9.6-23,22.5-23
	C125.5,80.4,135,90.2,135,103.5 M124.6,103.5c0-9-5.7-13.7-12.1-13.7c-6.3,0-12.1,4.6-12.1,13.7c0,9,5.8,13.8,12.1,13.8
	C118.8,117.3,124.6,112.6,124.6,103.5"/>
<rect x="91.6" y="138.1" class="st2" width="40.7" height="6.8"/>
</svg>
