<svg xmlns="http://www.w3.org/2000/svg" viewBox="0 0 127.81 65.79"><g id="Layer_2" data-name="Layer 2"><g id="Header"><path d="M113.38,28.78a25.24,25.24,0,0,0-3.51.42c-.62.13-1.75.69-1.71.61,1.49-2.91.81-7.57.11-10.62a15.57,15.57,0,0,0-1.33-3.08,5.7,5.7,0,0,0-.27-.55c-4-8-12.23-10.83-20.63-8.69a13.85,13.85,0,0,0-7.5,5.26c-.62.77-1.23,1.75-1.77,2.58a17.79,17.79,0,0,0-2.82-8c-.77-1-1.78-2-2.64-3A10,10,0,0,0,70.42,3c-1.54-.78-2.7-1.49-4.34-2.14L64.62.23C62.26,0,59.68.35,57.41,0a8.52,8.52,0,0,0-2.19.44L53.78.68a31.9,31.9,0,0,0-9.05,5.2c-1.6,1.4-2.39,3.53-3.58,5.29a11.53,11.53,0,0,0-1.32,4.5l-.33,2.19V18c0,.38.07,1.13,0,1.09C34.6,16.48,27,16.67,22.82,20.46a22.15,22.15,0,0,0-5.65,8.22,11.63,11.63,0,0,0-.63,2.83A14.6,14.6,0,0,0,16.39,33a14.43,14.43,0,0,0,0,1.46c.24.68.37,1.43.64,2.09.16.36.57,1,.48,1A14.21,14.21,0,0,0,13,37.46c-.85.12-2.56.37-2.64.4-3.71,1.7-6.8,2.71-9,6.47-.73,1.24-1,3.72-1.23,4.9a15.06,15.06,0,0,0-.1,2.4,15,15,0,0,0,2.54,6.61A8.24,8.24,0,0,0,4.6,60v0s.08,0,.15.11a.88.88,0,0,0,.14.14l.21.11a.32.32,0,0,0,.23.13A14.72,14.72,0,0,0,8.93,62a.27.27,0,0,0,.44.12h0c1.94.49,4,.73,6.2,1.19a89.58,89.58,0,0,0,17.61,1.58c6.54,0,13,1,19.52.85,7.92-.24,15.86-1.06,23.77-1,1.86,0,3.7.41,5.55.4,0,.13.25.07.45,0a70.08,70.08,0,0,0,7.07-.54.46.46,0,0,0,.38.18.31.31,0,0,0,.28-.25c1.84-.22,3.67-.43,5.5-.56a1.57,1.57,0,0,0,.15.32c.14.21.73-.24.81-.23a.71.71,0,0,0,.08-.15L98,63.83c2.23,0,4.32-.31,6.53-.46l3-.19a1.88,1.88,0,0,0,.43,0c0-.27.8-.14.89-.15,1.24-.18,4.9-.11,5.66-.94.49-.55,2.14-.54,2.23-.58a11.82,11.82,0,0,1,1.3-.55,5.61,5.61,0,0,0,.8-.16.21.21,0,0,0,.18,0,13.55,13.55,0,0,0,1.4-.47.36.36,0,0,0,.52.27c1.58-.63,2.85-2.73,3.65-4.08,1.4-2.36,2.8-4.7,3.16-7.49.66-5.17-1.8-10.8-4.58-15A12.79,12.79,0,0,0,113.38,28.78Zm11.94,24.7c-.93,1.47-1.9,3-2.81,4.49-.18,0-.53.37-.6.41a12.46,12.46,0,0,1-2.75,1.23,7,7,0,0,0-.37-2.36c-.2-.15-.57.34-.66.47a13.39,13.39,0,0,0,.07,1.34c0,.25.06.68.08.87a11.34,11.34,0,0,0-1.38.61,13.92,13.92,0,0,1-2.69.81,31,31,0,0,1-7.33,1.27.88.88,0,0,1,0-.16,25.24,25.24,0,0,0-.34-4.45c0-.2-.6-.17-.6-.17l.24-.14c-.42-.06-.36.79-.34,1.07.1,1.13.23,2.22.38,3.35,0,.13,0,.35,0,.56-2.9.18-5.83.2-8.48.4l-1,.08a10.58,10.58,0,0,0-.61-1.69.7.7,0,0,0-.14-.19L96,61.22c-.17-.12-.39.37-.45.53a8.88,8.88,0,0,0,0,1.52l-5.34.53c-.11-.69-.42-1.51-.4-1.56s-.47-.24-.65-.25a3.37,3.37,0,0,0,0,1.91c-2.12.19-4.24.34-6.36.38v-.06A9.31,9.31,0,0,0,82.92,62c0-.18-.47-.18-.58-.17A6.39,6.39,0,0,0,82,64.29c-2.58,0-5.37-.25-8-.33,0-.09.1-.18.14-.17s-.06-.19-.05-.27c.06-.41-.16-1.23-.11-1.31s-.78,0-.78,0l0,.17a3.42,3.42,0,0,0,.2.8l-.1.08c-.1.11,0,.46.11.71h-.13c-4.88-.07-9.85.37-14.79.71h0c-.25-.78-.26-2-.8-2.54-.14-.15-.62,0-.62,0l.38-.06c-.16.11-.19.68-.17.76.07.25.19,1.24.41,1.89-1.68.11-3.35.21-5,.26.34-.06.06-.8.07-.93a23.94,23.94,0,0,1,.44-2.86c.1-.18-.4-.12-.68-.08-.65,1-1.14,3.46-.05,3.85a.47.47,0,0,0,.16,0l-.43,0a49.42,49.42,0,0,1-5-.14,13.47,13.47,0,0,0,.25-2.12,12.23,12.23,0,0,0,.11-1.53c-.07-.18-.4-.18-.65-.15a3.39,3.39,0,0,0-.16.71c-.11.91-.21,1.81-.33,2.71,0,.08,0,.19,0,.31-2.18-.17-4.36-.41-6.55-.55-1.25-.08-2.52-.12-3.79-.14a7.15,7.15,0,0,0,.11-2.87c-.07-.19-.15-.55-.46-.41l0,0c-.89.15-.48,3.17-.54,3.24-1.9,0-3.82,0-5.73,0,0-.77.17-2,.17-2V62c0-.26-.22-.67-.54-.42s.14.79.14.79l-.08,0c.19.08-.34.27-.4.39A2.84,2.84,0,0,0,28.51,64c-1.68,0-3.35-.07-5-.18,0-.45-.14-1.44-.54-1.49-.05,0-.09,0-.14.05s-.17.07-.25.24a1.55,1.55,0,0,0,.17,1.14,41.07,41.07,0,0,1-6.06-.94c-2.21-.55-4.94-.41-7.15-1.11.14-.7,0-2.08-.36-2.3-.06,0-.14,0-.22.07l0-.05c-.09,0-.18.14-.24.28l-.05.07,0,0a.48.48,0,0,0-.06.21,9.79,9.79,0,0,0,.08,1.49l0,0c-1-.48-2-.91-2.93-1.46l-.29-.14-.22-.29,0,0a.26.26,0,0,0-.09-.17s-.13,0-.21,0l0,0,0,0s0,0-.05,0a9.64,9.64,0,0,1-1.2-.85,13.7,13.7,0,0,1-2.26-4.31C1.24,53.6,1.1,53,1,52.46a6.56,6.56,0,0,1-.18-.89c0-1.12.11-2.23.16-3.34.19-4,2.89-5.62,5.59-8a10.35,10.35,0,0,1,4.63-1.71l2.53-.42a4,4,0,0,1,.74,0c.82,0,3.57.77,4.16.45s-.74-2-.77-2.09c-.25-.78-.51-1.56-.72-2.35a4.1,4.1,0,0,1,.12-1.45c.73-4.85,2.62-7.69,5.8-11.29a7.28,7.28,0,0,1,2.24-1.6c.9-.42,2.69-1.28,2.78-1.29,2.75-.13,6-.75,8.67.28.59.22,3.31,1.69,3.58,1.39s-.09-1.32-.09-1.74A27.43,27.43,0,0,1,41,14a16.09,16.09,0,0,1,4.46-7.78c2-2.11,6.72-4.69,9.11-5C55.92,1.05,57.13,1,58.24.8c.68-.09,2-.27,2.12-.26C61.3.68,64,1.11,64,.83s.69.2,1.11.41l-.25.15a1.12,1.12,0,0,0-.13.41l.1-.33a6.69,6.69,0,0,0-.08,1.24c-.07.45.21,3.29,1,2.68s-.25-3-.23-3.06.11-.75,0-.84a.16.16,0,0,0,0-.07,16.85,16.85,0,0,1,4.8,2.68,2.67,2.67,0,0,0-.26.13l0,.17c.11,1,.23,1.94.35,2.9,0,.28,0,1.06.52.93s.19-1.44.13-1.86S71,5.18,70.93,4.63c.33.3.67.63,1,1A12.27,12.27,0,0,1,74.55,9.7c.29.75.82,2.3.84,2.39.19.8.17,2.64.48,3.92a.54.54,0,0,0-.15.21L75.8,16c-.27.24,0,.51.27.58a1.43,1.43,0,0,0,.34.54c.16.16.5-.44.58-.43s0-.26,0-.35-.08-.09-.08-.18,0-.13,0-.19c.23-.45.42-1,.53-1.2a14.45,14.45,0,0,1,2.24-2.74,13.19,13.19,0,0,1,10.41-5c4.71-.21,9.57.36,12.72,4.52a25.47,25.47,0,0,1,3.28,4.53l1.4,3.12a4.87,4.87,0,0,1,.22.56,36.72,36.72,0,0,1,.19,7.09,13.9,13.9,0,0,1-.38,2.19,11.42,11.42,0,0,1-.37,1.15c-.12.26-.65,1.28,0,1.37A23.1,23.1,0,0,0,109,30.28c1.62-.87,4.54-.7,6.27-.44,4.75.7,8.11,5.14,9.84,9.22C126.94,43.38,127.93,49.26,125.32,53.48Z"/><path d="M8.59,44.26l0,.19c-.05,1.14-.1,2.29-.14,3.43,0,.22,0,1.14.53.86.77-.45.63-3.55.32-4.52C9.21,44,8.59,44.26,8.59,44.26Z"/><path d="M11.07,49.57c-.14.14-.09.59-.09.59l.07-.42c-.23,1.54-.27,2.48-.57,5.34,0,.2-.13.73.07.87.45.32.58-.55.61-.77.15-1.78.32-3.57.48-5.36C11.66,49.65,11.21,49.43,11.07,49.57Z"/><path d="M6.69,54.17l.4-1c-.5.28-.87,3.24-.41,3.35s1.17-2.81.91-3.23S6.69,54.17,6.69,54.17Z"/><path d="M4.19,47.61l-.08.14c-.05.64-1,3.56-.08,4,1.17.53.82-3.76.82-3.76C5,47.73,4.19,47.61,4.19,47.61Z"/><path d="M13.61,41.1l0-.06-.06.09a.62.62,0,0,0-.24.24,9.21,9.21,0,0,0-.49,2.69l0-.11c0,.43.09.72.32.68,1.07-.23.9-3.15,1-3.22C14.39,41,14,40.92,13.61,41.1Z"/><path d="M15.39,47.07c-.84,1-.37,2.74-.52,4.1,0,.26-.14,1.11.4.92.25-.09.25-.61.28-.82.18-1.41,1.23-3,.47-4.24C15.92,46.87,15.54,47,15.39,47.07Z"/><path d="M14.2,58l.06,0a.15.15,0,0,0-.09-.06,1.76,1.76,0,0,0-.44-.19l.41.19a2.4,2.4,0,0,0-.51.12c.73.18-.13,2.39-.2,2.46-.33.37.29.7.59.52.84-.49.34-2.88.29-3A.55.55,0,0,0,14.2,58Z"/><path d="M19.71,52.32c-.79.33-.69,2.21-.64,2.82a1.13,1.13,0,0,0-.11.52.44.44,0,0,0,.85,0,9.36,9.36,0,0,0,.31-2.54C20.15,52.94,20.2,52.12,19.71,52.32Z"/><path d="M19.85,43.29c-.2.16-.21.68-.21.8-.11.45-.9,2.68-.14,2.68s1.09-2.56.92-3.22C20.36,43.35,20.05,43.13,19.85,43.29Z"/><path d="M17.3,41c0-.1-.12-.5-.22-.56-.31-.19-.56.44-.49.45.65.09-.12,2-.11,2.05s.34.46.54.25c.48-.49.3-2,.3-2Z"/><path d="M9.37,39.57C8.79,39.54,8.3,41,8.3,41l.07-.13c-.2.46-.3.93,0,1.18s.43-.63.51-.57.1-.12.14-.2S10.06,39.62,9.37,39.57Z"/><path d="M6.31,41.62c-.85-.06-1.26,2.22-1.26,2.22l.77-2c-.2.51-.41,1-.61,1.55s.37,1.2.57.6C5.82,43.9,7,41.66,6.31,41.62Z"/><path d="M21,28.37c-.28.62-.68,4.39,0,4.15s.81-3.16.67-3.87C21.64,28.43,21.11,28.38,21,28.37Z"/><path d="M26.19,23.89c-.53.4-1.17,4.06-1,4.25.67.69,1.08-1.63,1.31-2.56l.22-.83,0-.17C26.75,24.33,26.64,23.56,26.19,23.89Z"/><path d="M24.49,21.28h0a.16.16,0,0,0-.15,0,1.62,1.62,0,0,0-.29.07l.25-.05c-.45.37-.58,2.73-.3,2.69.51-.07,1-2.2.65-2.66C24.64,21.29,24.57,21.28,24.49,21.28Z"/><path d="M30.89,18.39c-.41.3-.5,1.3-.52,1.67s0,.7.25.7c.59,0,.76-1.61.77-1.69C31.41,18.8,31.37,18,30.89,18.39Z"/><path d="M28.88,25.93l0,.1v0c-.19.49-1,2.84-.3,2.89.45,0,1.42-2.71,1.09-3.29C29.51,25.4,28.91,25.85,28.88,25.93Z"/><path d="M24.42,32.85c-1,.4-1,3.13-1,3.13l.73-2.73c-.21.77-.41,1.55-.62,2.32-.08.3-.1,1.43.5.85s.6-1.9.73-2.31S25.17,32.56,24.42,32.85Z"/><path d="M20.89,38.57a.05.05,0,0,0,0,0l-.08.08Z"/><path d="M20.91,38.53l.19-.18C21,38.36,21,38.43,20.91,38.53Z"/><path d="M20.89,38.57c-.23.51-.29,1.69.2,1.63s.67-1.43.43-1.75C21.4,38.3,21,38.49,20.89,38.57Z"/><path d="M24.45,42.51l.09-.25c-.28.79-1.32,3-.66,3.53s1.77-2.92,1.31-3.6C25,42,24.45,42.51,24.45,42.51Z"/><path d="M21.93,50.15c.59-.43-.44-2.06-.52-2.18C21,48.37,21.31,50.61,21.93,50.15Z"/><path d="M24,54.94c0,.16-.09.35-.13.55L24,55l-.15.63c-.1.4-.2.82-.28,1.19,0,.14-.07.29-.11.43s0,.16-.06.27l-.05.23.05-.23c-.06.29-.09.65.22.7.7.1,1.69-3.42.93-3.91C24.3,54.19,24,54.85,24,54.94Z"/><path d="M20.12,59.45c-1,.17-.92,2.79-.92,2.79l.08-.16c-.12.28.16.66.47.42C19.89,62.39,21.05,59.28,20.12,59.45Z"/><path d="M16.71,60.32a.23.23,0,0,0-.2.12l0,0a2.22,2.22,0,0,0-.29,1.92c.17.2.67-.42.67-.51C16.93,61.52,17.18,60.39,16.71,60.32Z"/><path d="M29,46.31c-.85-1.48-1.21,2.54-.65,2.47.8-.11.69-2.31.69-2.31Z"/><path d="M30.08,53.86l-.07.08c-.47.52.43.6.72.19.1-.13.76-2.68.36-3C30.3,50.62,30.08,53.86,30.08,53.86Z"/><path d="M33.55,40.42c-1.16-.08-1.17,3.27-1.17,3.27l-.09.16.05-.08c-.12.24.76.29.78.2.16-.77.33-1.56.49-2.34C33.67,41.33,34.13,40.45,33.55,40.42Z"/><path d="M30.53,39c.22-.3-.08-.89-.47-.59s-.36,1.84-.53,1.82c-.4.1.08.8.5.68.61-.17.6-1.81.6-1.81l-.07,0S30.47,39.1,30.53,39Z"/><path d="M28.13,33.41H28l-.17,0,0,.09-.05.07a1,1,0,0,0-.09.29c-.05.34-.39,2,.24,1.89s.44-1.83.54-1.9-.07-.1-.06-.18S28.22,33.42,28.13,33.41Z"/><path d="M32,33.2c.77.74,1.14-3,1.14-3l0-.18C32.56,28.42,31.33,32.6,32,33.2Z"/><path d="M34.18,24.65a.29.29,0,0,1-.17-.07c-.19-.14-.43.59-.44.67l-.36,1.67.06-.08c-.3.34.16.74.51.51.72-.49.47-2.6.47-2.6Z"/><path d="M35.51,19.77c-.22-.11-.51.52-.6.51-.17-.24-.27.58-.31.92s-.11.67.06.77c.39.21.84-1,.86-1.13S35.84,19.93,35.51,19.77Z"/><path d="M39.11,20.47c-.25.09-.28.74-.3.82s-.89,2.39-.2,2.56c.9.21,1.07-2.6,1.07-2.6v-.17C39.57,20.84,39.48,20.35,39.11,20.47Z"/><path d="M37,27.41l-.07.07a.62.62,0,0,0-.06.25l0,.08c-.09.22-1.55,2.47-.73,2.74.59.19,1.22-1.89,1.48-2.37.14-.28-.3-.9-.3-.9Z"/><path d="M37.62,35.42l.53-1.73c-.11.39-.22.77-.34,1.16s-.46,1.78.29,1.07c.46-.43.64-1.8.78-2.21s.48-.86.14-1.1C38.17,32,37.62,35.42,37.62,35.42Z"/><path d="M34.44,35.33l.14-.08c-.54-.33-.91,1.2-.37,1.3s.75-.86.53-1.21C34.69,35.25,34.57,35.28,34.44,35.33Z"/><path d="M36.77,41.41v.09a5.17,5.17,0,0,1,0,.6c-.06.31-.67,1.9,0,1.81s.76-2.3.76-2.3v-.17c0-.15-.08-.44-.16-.46S36.78,41.33,36.77,41.41Z"/><path d="M35,49c0,.15-.05.33-.08.3s0,0,0,.07c-.06.57-.18,1.7-.15,1.79l.06.18a1.73,1.73,0,0,0,.24.38c.15.08.46-.19.46-.19,0-.2.38-2.27.07-2.75C35.47,48.67,35.13,48.93,35,49Z"/><path d="M26.48,57.7c0,.22,0,.57,0,.63-.09.42-.91,3-.35,3s1.12-2.32,1.05-2.95C27.15,58.08,26.72,57.82,26.48,57.7Z"/><path d="M33.54,56.71c0-.24-.7.15-.7.15l.3-.34c-.58.06-.7,2.81-.15,2.69.79-.17.52-2.33.62-2.41S33.53,56.79,33.54,56.71Z"/><path d="M40.6,60.26c-.19,0-.33.47-.33.47-.15,1-.44,3-.38,3s.72-.13.72-.13c.07-.65.15-1.3.22-1.95,0-.28.11-.84.11-.84v-.09C40.93,60.53,40.91,60.22,40.6,60.26Z"/><path d="M38.85,55.17l-.26,1.77v.17c0,.19.44.33.54.26s.12-.24.22-.32.53-2.24.12-2.56C39.25,54.32,38.87,55.09,38.85,55.17Z"/><path d="M44.23,48c-.19,0-.37-.27-.49-.44a.93.93,0,0,0-.27.33l-.18,2A3.77,3.77,0,0,1,43.1,51c-.17.1,0,.6,0,.71s.15.17.19.24C44,53.09,44.91,48.14,44.23,48Z"/><path d="M41.91,43.9c-.86-.47-.93,2.8-1,2.78a.49.49,0,0,0-.13.16l.06-.08c-.58.65.43.72.85.47C41.8,47.15,42.48,44.22,41.91,43.9Z"/><path d="M43.8,35.83a.33.33,0,0,1-.06-.19s-.16,0-.24-.08-.19.11-.19.11l-.1.07c-.08.06-.05.34-.07.42-.09.42-.22,1.06-.34,1.6l-.12.57s0,.07,0,.12l-.07.3.06-.29c-.06.35-.14,1,.37.87,1-.32,1-3,1-3.13S43.82,35.74,43.8,35.83Z"/><path d="M40.06,37.81c-.07,0-.12.2-.12.2-.11.23-.62.48-.37.8.08.12.42.07.5.08h.09c.15-.07.31-.38.41-.45v-.09C40.62,38.13,40.15,37.78,40.06,37.81Z"/><path d="M43.1,29.17l.26-.18c-.75.07-.34,2.24-.43,2.31-.24.38.28,1,.67.7s.44-2.45.32-2.71S43.1,29.17,43.1,29.17Z"/><path d="M43.67,21.67c-.18.09-.17.58-.19.66a26.8,26.8,0,0,1-.83,2.72.63.63,0,0,0-.13.3l0-.23c-.35.57.67.74,1,.16a6.35,6.35,0,0,0,.56-2.08c0-.33.15-1,.14-1.1C44.21,21.79,44.09,21.46,43.67,21.67Z"/><path d="M44.72,15.19c-.3.09-.52.78-.52.78l.17-.31a2.31,2.31,0,0,0,0,.94c0,.31-.15.93-.23.91-.26.16-.08.78.13.88.83.44,1-2.52,1-2.69S44.94,15.12,44.72,15.19Z"/><path d="M47.86,11.26c-.1-.42-.52-.94-.88-.82-.72.24.33.71.32.74a4.81,4.81,0,0,1-.58,1.58c-.62.11,0,1,.57.83s.57-2.16.57-2.16Z"/><path d="M44.49,9.36a5,5,0,0,0-.11.52c0,.11-.85,2.53,0,2.16.32-.13.39-.84.57-1.46a3.6,3.6,0,0,0,.18-1.16C45,9.28,44.72,9.31,44.49,9.36Z"/><path d="M51.56,3.41a.65.65,0,0,0-.33-.06,3.71,3.71,0,0,0,.06.75c-.06.41-1,2.74-.22,2.64s1-2,1-2.61C52.06,3.87,51.64,3.46,51.56,3.41Z"/><path d="M50.51,15.1c-.25-.08-.37.73-.37.73l-.07.22a9.12,9.12,0,0,1-.28.93c-.14.44-.29.88-.44,1.31C48.41,21.11,52.28,15.68,50.51,15.1Z"/><path d="M49.72,25.44a4.36,4.36,0,0,0,.14.51A25.31,25.31,0,0,0,50,29.34c.19,0-.25.48-.09.59a1.89,1.89,0,0,0,.62-.08c.69-.56.51-3.79,0-4.49C50.38,25.17,49.88,25.37,49.72,25.44Z"/><path d="M48.18,33.89c0-.29-.08-.87-.06-1s-.39-.06-.58,0a1.62,1.62,0,0,0-.07.38c-.09.91-.24,2.72-.26,2.81,0,.28.35.64.63.43C48.55,36,48.1,34.77,48.18,33.89Z"/><path d="M46.78,28c-.37,0-.39,1.07-.39,1.07l0-.08c-.16.29,0,.88.45.58a2.37,2.37,0,0,0,.51-1,1.12,1.12,0,0,0-.18-1.23C47.09,27.16,46.86,28,46.78,28Z"/><path d="M47.51,39.91c-.22.07,0,.69-.1.65-.28-.14-.92,2.48-.48,2.63.89.28,1.08-2.6,1.08-2.6v-.17C48,40.14,47.9,39.77,47.51,39.91Z"/><path d="M51.9,39.08c.11.22.3.5.14.47-1.36-.2-1,4-1,4.08.15.67.63.23.76-.23a10.73,10.73,0,0,0,.78-4C52.56,39.16,52.15,39.1,51.9,39.08Z"/><path d="M50.48,46.56c-.48.16-.81,2.42-.76,2.82,0,.19.55.15.59.15A3.82,3.82,0,0,0,50.7,48C50.72,47.87,51.17,46.34,50.48,46.56Z"/><path d="M47.4,45.84c-.16.07-.16.5-.17.58s0,1.07.47.85c.22-.1.25-.66.25-.66v-.16C47.87,46.23,47.76,45.69,47.4,45.84Z"/><path d="M45.91,55.21a.4.4,0,0,0-.17.19,3.12,3.12,0,0,0,0,.37,7.76,7.76,0,0,1,0,1.76.41.41,0,0,0-.09.64c.38.31.93-.19,1-.54a5.34,5.34,0,0,0,0-2C46.58,55.39,46,55.2,45.91,55.21Z"/><path d="M49.8,54.56v.17a22.78,22.78,0,0,1-.17,2.82c-.21.38.64.7.82.29a10,10,0,0,0,.08-3.43C50.44,54.18,49.8,54.56,49.8,54.56Z"/><path d="M43.85,62.23c-.07.34.06,1.11,0,1.1a.09.09,0,0,1,.08.1c-.06.35-.19,1,.36,1,.17,0,.32-.39.32-.39a2.6,2.6,0,0,0,0-1.46C44.54,62.36,44.08,62.26,43.85,62.23Z"/><path d="M55.37,2.81c0,.2,0,.6-.1.59l-.13,0c-.18.15.09.84.09.84l.06.08c.76,1,1.29-1.95.71-2.38C55.74,1.77,55.37,2.73,55.37,2.81Z"/><path d="M55.42,8.34c.08-.14,0-.61-.17-.72s-.55.18-.6.26c-.29.41,0,.46-.07.94A13.41,13.41,0,0,1,54,11.13c-.31.27.66.24,1.14-.07.74-.49.23-2.64.23-2.64Z"/><path d="M55,15.34a1,1,0,0,0-.38.35,1,1,0,0,0-.24.33c-.07.21.44.5.44.58a8.26,8.26,0,0,1-.18,1.7c-.49.28.36,1,.8.46.58-.69.14-2.73.11-2.82S55.32,15.19,55,15.34Z"/><path d="M59.83,15.63c-.19,0-.39.3-.47.45a16.75,16.75,0,0,0-.25,4c0,.28-.18,1.31.41,1.1.26-.1.23-.61.26-.83.08-1.19.17-2.38.26-3.58,0-.17,0-.51.13-.58S60,15.66,59.83,15.63Z"/><path d="M51.83,20.13c-.2,0-.39.46-.39.46l0,.17c.09.63-.08,3.09.7,3.2,1.06.16,0-3.19,0-3.27C52.32,20.43,52.13,20.18,51.83,20.13Z"/><path d="M56.53,22.46l.23-.11c-.09,0-.2,0-.29.14l-.1.05.1,0a1.61,1.61,0,0,0-.21.27c0,.28-.65,4.22.28,3.92s.73-3.67.38-4.25C56.86,22.34,56.67,22.4,56.53,22.46Z"/><path d="M59.27,29.77a.57.57,0,0,0-.13.1.92.92,0,0,0-.29.41l-.06.12,0,0c-.32.93-.18,2.67.13,2.71.88.13.56-2.59.66-2.66A.37.37,0,0,0,59.27,29.77Z"/><path d="M52.47,30.31a1,1,0,0,1,.06.27c0,.21-.22,3.54.59,3.44.56-.06.58-3.26,0-4C53,29.88,52.47,30.31,52.47,30.31Z"/><path d="M56.48,36.63c-.12.71-.28,2.37.26,2.59s.53-2.57.43-2.87S56.63,36.51,56.48,36.63Z"/><path d="M61.38,38.79c0-.18,0-.52-.27-.56s-.26.14-.35.3c-.34.78-.1,3-.11,3.51,0,.26,0,1.06.46.85,1-.41.25-2.1.28-3.15C61.39,39.42,61.38,38.79,61.38,38.79Z"/><path d="M56.76,44.21c-.39.68-.07,2.85.27,2.9.91.1.41-2.7.41-2.7C57.37,44.2,56.89,44.21,56.76,44.21Z"/><path d="M54,47c-.34.95-.28,3.07.25,3.32.82.37.17-1.82,0-2.71,0-.16-.27-.54-.1-.5s.8.38.72-.24C54.8,46.57,54,47,54,47Z"/><polygon points="53.98 46.99 53.98 46.99 53.97 46.99 53.98 46.99"/><path d="M58.82,50.1h0c-.7.07-.86,2.91-.3,3.19s1-2.88.48-3.21A.17.17,0,0,0,58.82,50.1Z"/><path d="M62.61,48.45c.14.2.68-.24.68-.24l0-.17c-.07-.76-.23-2.27-.26-2.36C62.7,44.11,61.94,47.58,62.61,48.45Z"/><path d="M55.55,55.59c-.53.51-.25,3.12.33,3.32,1,.35.2-3.07.19-3.16S55.73,55.58,55.55,55.59Z"/><path d="M53.51,54c.41-.05-.44-1.06-.51-1.14C52.8,53.14,53,54.06,53.51,54Z"/><path d="M62.48,56c-.42.93-.92,2.36-.4,3,.14.17.64-.25.64-.25v-.17c.06-.3.83-2.59.37-3.05C62.94,55.34,62.62,55.8,62.48,56Z"/><path d="M65.07,60c-.11.64-.4,3.85.45,3.67.67-.15.56-3.59.17-4C65.54,59.44,65.19,59.82,65.07,60Z"/><path d="M69.43,60.5c-.13,0-.34.58-.36.72a5.2,5.2,0,0,0,.53,2,3.05,3.05,0,0,0,.31.42c.17,0,.22-.49.22-.49l0-.17c-.1-.62-.3-1.85-.29-1.94C69.9,60.83,69.82,60.36,69.43,60.5Z"/><path d="M67.05,50.15l.28-.22c-1-.15-.87,4.55-.14,4.2.34-.15.23-1,.26-1.34a9.23,9.23,0,0,0,.24-2.55C67.65,50,67.05,50.15,67.05,50.15Z"/><path d="M70.63,50.22a6.58,6.58,0,0,0,0,1c0,.77-.12,2.3-.12,2.3l0,.17c.06.28.75-.4.77-.5a6.46,6.46,0,0,0,0-3.09C71.16,49.91,70.67,50.19,70.63,50.22Z"/><path d="M58.66,7.27c-.93.39.07,3,.07,3l0,.22s.08.05.11.14.58-.09.58-.09V10.4a.73.73,0,0,0,0-.26C59.38,9.88,59.3,7,58.66,7.27Z"/><path d="M61.58,2.7c.15-.15-.16-.62-.25-.64l.1-.07a.17.17,0,0,1-.18,0c-.16-.14-.56.31-.55.4.06.66-.14,2.59.26,3.31.11.22.71-.15.7-.06s0-.17,0-.17l0-.09s-.07-.09-.08-.18A18.48,18.48,0,0,1,61.58,2.7Z"/><path d="M67.1,10.77l-.09.07Z"/><path d="M67.2,9c-.07-.27-.58-.2-.69,0-.36.59.3,2,.28,2.16s.78,0,.78,0v-.2A15.73,15.73,0,0,1,67.2,9ZM67,10.84l.09-.07Z"/><path d="M62.56,10l.12-.21c-.57.27.22,3.55,1,3.31s-.23-2.52-.33-3C63.27,9.87,62.56,10,62.56,10Z"/><path d="M65.16,18.58s0,.08,0,0-.3-.16-.46-.16c-.49.53-.8,3-.2,3.59.79.74.65-3.18.66-3.26Z"/><path d="M68.38,14.66c.66.1.2-.82-.1-.79s-.31.47-.31.47l.08-.14a2.86,2.86,0,0,0,.11,1.29c0,.17.14.81.47.68C69.11,16,68.25,14.64,68.38,14.66Z"/><path d="M74.09,10.68c-.15-.21-.39-.58-.64-.26-.54.68,0,2.59,0,2.59-.17.25-.28.78.25.64.19-.05.41-.46.52-.61a4.06,4.06,0,0,0,0-2.16A.39.39,0,0,0,74.09,10.68Z"/><path d="M72.78,18.19a1.62,1.62,0,0,0,0,.32c0,.84,0,1.67,0,2.5,0,.28-.22,1.08.27,1.08.74,0,.78-3.39.35-4.09C73.33,17.83,72.93,18.08,72.78,18.19Z"/><path d="M76.55,17.54c-.1-.13-.39-.05-.56,0a1.39,1.39,0,0,0-.1.21,2.41,2.41,0,0,0,.22.55c.1.32.31,1.51.91,1.09s-.42-1.79-.42-1.79Z"/><path d="M69,20.52l0,.17c0,.68-.06,3.9.77,3.39.59-.36.43-3.12,0-3.8C69.51,20.08,69,20.52,69,20.52Z"/><path d="M65.82,24.88s-.13,0-.12-.1-.18.06-.26,0,0,.08,0,.08l-.2.14a.39.39,0,0,0,0,.09.27.27,0,0,1,.06.18s0,.08.07.1v.09c.12.73.22,1.47.34,2.2,0,.23.7-.07.78-.06.56-.58-.42-2.39-.45-2.48S65.85,25,65.82,24.88Z"/><path d="M61.4,25.35l-.07.07c0,.07.3,3,1.06,2.49.57-.42-.08-2.9-.56-3.19C61.61,24.59,61.4,25.35,61.4,25.35Z"/><path d="M65,32.6a4.93,4.93,0,0,0,0,1.67c0,.73,0,1.78,0,1.78.2.14.72-.15.72-.15v-.09a15.7,15.7,0,0,0,.06-2.06c0-.31,0-1,0-.94C66,32.48,65.18,32.27,65,32.6Zm0,2.07c0,.47,0,1,0,1Z"/><path d="M70.82,30.39c-.43.44-.43,2.67.09,2.84.86.28.32-2.71.29-2.8S71,30.35,70.82,30.39Z"/><path d="M75.26,25.43c-.18,0-.32-.33-.48-.25s-.24.74-.24.74l.2-.57c-.16.54-.34,3.29.53,2.92.61-.25.12-1.31.07-2A7.45,7.45,0,0,0,75.26,25.43Z"/><path d="M78.23,22.08c0-.15-.34-.22-.49-.25a2.3,2.3,0,0,0-.11.42s-.08,2.74.94,3-.32-3.06-.32-3.06Z"/><path d="M75.58,33.68c-.18-.18-.72,0-.86.09s.26.5.27.58c.08.45-.42,3.49,0,3.63,1,.3.81-3,.78-3.25A4.67,4.67,0,0,0,75.58,33.68Z"/><path d="M72.31,36.54c-.63-.23-.3,2-.3,2v.09l.07.07c.06,0,.16.13.14.22s.27,0,.27,0l.09,0c.07,0,.12-.2.12-.2s0-.08,0-.21C72.76,38.17,72.6,36.64,72.31,36.54Z"/><path d="M68.05,39.09c-.06-.25-.75.15-.75.15l-.07.16c-.17,1.18-.61,4,.23,4.26.49.16.49-.71.47-1A33.92,33.92,0,0,0,68.05,39.09Z"/><path d="M71.49,43.82l.12-.06a.16.16,0,0,0-.14.06l-.19.09.19-.09a.89.89,0,0,0-.17.67c.1.56.06,2.62.76,2.44.42-.11.16-2.85-.22-3.14C71.76,43.73,71.61,43.77,71.49,43.82Z"/><path d="M76.62,46.38l.13-.28c-.15.08-.16.47-.15.56s-.31,3.71.58,3.53c.61-.12.4-3.67.08-4C77.11,46,76.62,46.38,76.62,46.38Z"/><path d="M75.81,53.71c-.13-.17-.61-.05-.68,0a6.09,6.09,0,0,0,.06.88c0,.86-.08,2.57-.07,2.49s-.17.22-.13.32a.42.42,0,0,0,.77,0A5.09,5.09,0,0,0,76,54.93,9.15,9.15,0,0,0,75.81,53.71Z"/><path d="M77.61,60l.13-.27c-.53.25.26.55.24.7s-.23.24-.23.39c0,.73.11,2.17.1,2.26l0,.08,0,.09c0,.05.12.11.1.19s.17,0,.26,0,.19-.15.28-.13,0-.09,0-.09l0-.08c.52-1-.38-3.42-.38-3.42C78,59.65,77.61,60,77.61,60Z"/><path d="M69.22,57.33l0,0c-.15-.18-.43-.67-.68-.34s.17.63.16.71.19.46.26.53.33.36.38.35c.37-.09,0-1.12-.06-1.19A.34.34,0,0,0,69.22,57.33Z"/><path d="M80.91,13.51c-.16-.1-.37.28-.46.49-.16.83-.31,2.71.35,3.2.26.21.75-.11.83-.39s-.29-.39-.3-.48C81.26,15.71,81.36,13.8,80.91,13.51Z"/><path d="M82.93,19.82l.09,0a.15.15,0,0,0-.13,0l-.19.09.19-.08c-.15.14-.25.48-.32.47-.44.43.16,1.84.16,1.84,0,.23.06.75.45.49.13-.09.25-.41.34-.55a5.18,5.18,0,0,0-.27-2.28C83.18,19.75,83,19.78,82.93,19.82Z"/><path d="M80.76,28.12a1.84,1.84,0,0,0,0,.37c.08.59.18,1.18.26,1.77,0,.31.26.9.25,1s.26.56.33.65.15-.43.33-.47c1.11-.19-.45-3.34-.51-3.41S80.89,28.05,80.76,28.12Z"/><path d="M79.51,35.69l.12-.28c-.54.27-.12,3.82.67,3.61.33-.09.11-3.22-.16-3.56C80,35.29,79.51,35.69,79.51,35.69Z"/><path d="M83,40.21c-.23.79,1,4.14,1.64,3.25.44-.62-.72-2.69-1.22-3.37C83.34,40,83.12,40.13,83,40.21Z"/><path d="M77.09,40.35c-.32.1-.46.88-.46.88l.24-.65c-.18.5-.4,1.59.34,1.86.29.11.22-.92.23-1C77.49,41.16,77.74,40.14,77.09,40.35Z"/><path d="M81.39,47.37c.18-.26-.8-.52-.8-.52l.68.16c-.21-.14-.58-.51-.76-.11a5,5,0,0,0,.27,2.79l0,.09c-.08.18-.08.7.28.56.18-.07.4-.47.52-.62C82.05,49.14,81.29,47.44,81.39,47.37Z"/><path d="M82.48,54.36c.23-.16.43-.56,0-.7-.24-.09-.51.29-.67.59a8,8,0,0,0,.07,2.25s.09,0,.08.1.08,0,.14.09.44.43.61,0-.23-1.33-.24-1.41A2.79,2.79,0,0,1,82.48,54.36Z"/><path d="M85.62,59a2.1,2.1,0,0,0-.08.76,6.84,6.84,0,0,1-.2,1.61c-.4.48.59.74.85.13.16-.39.38-2.29-.13-2.61C85.94,58.76,85.69,58.91,85.62,59Z"/><path d="M89.47,55c-.28,0,.35-.66.12-.84s-.38.1-.53.24l0,0,0,0-.09.09c-.41.46.13,1.83,0,1.82s.12.54.12.54l0-.09a1.26,1.26,0,0,0,.07.18l0,.09c0,.07.08.19.16.2a1.17,1.17,0,0,1,.27-.05l.08,0c.05,0,0-.17.13-.24a1.56,1.56,0,0,0,0-.26A2.43,2.43,0,0,0,89.47,55Z"/><path d="M86,48.75c-.14,0-.27.3-.27.3l0,.17a13.82,13.82,0,0,1,0,2.24c-.2.22.42.71.71.45.62-.55,0-2.49.08-2.57S86.09,48.76,86,48.75Z"/><path d="M89.07,42.66c-.13-.16-.52.07-.66.17,0,.17.07.37.07.43,0,.28,0,.86,0,1a7.34,7.34,0,0,0,.17,2.26c.08.22.68,0,.71-.15s-.09,0-.07-.1C89.44,45.4,89.47,43.14,89.07,42.66Z"/><path d="M87.21,33.16a13,13,0,0,0,.08,3.54c.69.28.66-2.14.66-2.14l0-.17C88,34.16,87.75,32.33,87.21,33.16Z"/><path d="M85,26.23a1.57,1.57,0,0,0-.1.63,15.65,15.65,0,0,1,.16,1.67,1.2,1.2,0,0,0,.06.18v-.09s0,.09,0,.09l.07.09c.08.12.42.07.42.07s.13-.33.19-.41a3.31,3.31,0,0,0-.24-2.19C85.48,26.13,85.21,26.17,85,26.23Z"/><path d="M88.32,21a2.05,2.05,0,0,0-.06.59c.07.85.21,2.53.19,2.64-.06.41.58.89.81.35s-.31-2.82-.36-3.33C88.88,21.07,88.53,21,88.32,21Z"/><path d="M86.94,14.76a.21.21,0,0,0-.19.06h0c-1.08.36-.25,3.42-.24,3.5,0,.26.39.61.63.27s0-1.24,0-1.56,0-.92,0-1.37c0-.17-.17-.54,0-.52S87.34,14.85,86.94,14.76Z"/><path d="M85.31,9.39a23,23,0,0,0-.48,3.16c0,.27-.17,1.4.47,1s.39-2,.54-3a3.13,3.13,0,0,0-.26-1.16A1.26,1.26,0,0,0,85.31,9.39Z"/><path d="M91.35,8.26s-.07-.1-.07-.18c0-.23-.68,0-.68,0v.09c-.2.15-.11.76-.12.84,0,.36-.38,2.36.16,2.35C91.69,11.33,91.27,8.25,91.35,8.26Z"/><path d="M92.39,13.69c-.27.55-.49,3.61.4,3.4.49-.11.38-3.13-.08-3.46C92.63,13.58,92.5,13.63,92.39,13.69Z"/><path d="M92.24,20.59c-.26.47.31,3.37,1.06,2.35.27-.36-.64-2-.61-2.24S92.43,20.57,92.24,20.59Z"/><path d="M96.45,18.8c0,.21,0,.51-.07.55-.34.48.13,1.74.09,1.82s.06.36.07.45.13.1.19.18c.52.71.32-2.61.32-2.61Z"/><path d="M97.17,14.82a7.69,7.69,0,0,0-.32-2.42c-.1-.08-.29.16-.35.26a1.28,1.28,0,0,0,0,.33,12.62,12.62,0,0,0,.24,2.39c.11.06.35,0,.42.12s0-.08,0-.08A1.69,1.69,0,0,0,97.17,14.82Z"/><path d="M101.12,12.21l0,.17a6.46,6.46,0,0,0,.11,1c0,.3-.34,2.36.31,2.46.48.07.61-2.88.44-3.55C101.88,12.07,101.12,12.21,101.12,12.21Z"/><path d="M103.15,18.2c-.24.49.38,2.49.3,2.55-.25.44.61.62.81.38.55-.67-.4-2.56-.43-2.65S103.28,18.21,103.15,18.2Z"/><path d="M100.59,21.49c-.19-.13-.62.08-.76.15s.3.6.31.69c.08.63-.43,3.38,0,3.44,1,.15.89-2.65.82-3.24A3.61,3.61,0,0,0,100.59,21.49Z"/><path d="M106.37,21.64a4.36,4.36,0,0,0-.06.74c0,.36.07,2.25.35,2.3,1,.15.2-3.08.12-3.15S106.52,21.53,106.37,21.64Z"/><path d="M104.62,26.79c-.21-.13-.51.52-.51.52v.09l0,.17v.08c.12,1.14.34,3.41.28,3.49s.07.53.31.56.52-.49.54-.78a14.73,14.73,0,0,0-.28-2.55C104.89,28,105,27,104.62,26.79Z"/><path d="M101.11,30.59l0,0c-.21-.28-1.09-.73-.82,0,0,.08.4.2.4.23s-.27.17-.29.22c-.21.48.2,1.58.11,1.56-.48.29.32.85.7.54.61-.52,0-2.41-.05-2.49A.47.47,0,0,0,101.11,30.59Z"/><path d="M96.21,27.52l.64-.34c-.28,0-.89.38-.76.75s.79-.06.77,0c-.14.55-.42,1.66-.43,1.74-.05.32.33.89.7.54s.2-2.21.12-2.57S96.21,27.52,96.21,27.52Z"/><path d="M93.06,26.85l.13-.24c-.15,0-.17.44-.14,1,0,1,.13,3,.12,3.12s.53.33.66.18c.65-.69.21-3.64-.14-4.24C93.58,26.53,93.06,26.85,93.06,26.85Z"/><path d="M90.64,29.76a1.67,1.67,0,0,0,0,.54c0,.36.17,2.44.88,2s-.14-2.53-.14-2.53C91.24,29.62,90.79,29.72,90.64,29.76Z"/><path d="M93.62,36.44c-.06,0-.09.1-.11.18s0,.33,0,.41c0,.25-.24,3.1.56,2.58.36-.22.49-3.08.07-3.35C94,36.17,93.7,36.45,93.62,36.44Z"/><path d="M93.65,46.27c-.07-.18-.44-.24-.57-.26a2.1,2.1,0,0,0-.16.32v.61c0,.69-.57,3.47.29,3.75.57.18.43-.79.43-1.06C93.67,48.54,93.69,46.36,93.65,46.27Z"/><path d="M97.54,43.66c-.15,0-.23.39-.23.39l.14-.23c-.38.65,0,3.11.71,2.6a10.63,10.63,0,0,0-.11-3.29C97.84,43,97.63,43.67,97.54,43.66Z"/><path d="M98.51,36.76c-.09-.12-.36,0-.51,0a1.17,1.17,0,0,0-.06.39c.17.63.54,2.82.82,3,.94.51-.13-3.2-.16-3.3S98.56,36.83,98.51,36.76Z"/><path d="M104.52,36.16c-.07-.19-.53-.14-.68-.11-.39.5.07,2.05.12,2.37a8.74,8.74,0,0,1,.08.95l.08.07.15.14.17,0s.09-.07.18-.06,0-.6,0-.69A10.47,10.47,0,0,0,104.52,36.16Z"/><path d="M109.11,32.45c0-.34.18-1.08,0-1.38s-.54.18-.54.18l-.1.07c-.06.1,0,.35,0,.43a7.81,7.81,0,0,0-.12,1c.06.46.19,1.41.19,1.41a1.58,1.58,0,0,0,.14.53c0,.16.47,0,.47,0s.05-.34.08-.25,0-.17,0-.26C109.16,33.64,109.11,32.54,109.11,32.45Z"/><path d="M112.84,31.2s-.08,0-.07-.1-.71.15-.71.15l0,.11a3.06,3.06,0,0,0,.09.77c.09.79.31,2.37.31,2.37-.12.77.72.59.78-.06a10.05,10.05,0,0,0-.26-2.1C112.92,32,112.83,31.28,112.84,31.2Z"/><path d="M117.63,33.22a1.64,1.64,0,0,0-.17.52,6.34,6.34,0,0,0-.07,1.07,11.55,11.55,0,0,1,0,1.71c-.42.6.61.42.8.12.46-.69.13-2.67-.1-3.37C118,33.15,117.79,33.18,117.63,33.22Z"/><path d="M121.94,39l0-.09c0-.25-.74,0-.74,0l0,.09a.44.44,0,0,1,0,.1,2.86,2.86,0,0,0,.06.94c0,.39-.15,2.52.51,2.83.25.13.45-.71.44-.79-.07-.64-.17-1.29-.21-1.93A10.12,10.12,0,0,1,121.94,39Z"/><path d="M124.64,45.19c-.11-.25-.7-.36-.81-.37-.13.25,0,.73.08,1,.17,1.12.33,2.25.5,3.38,0,.28.06,1,.53.84.3-.11.19-.61.16-.83C125,47.89,125.14,46.46,124.64,45.19Z"/><path d="M122.15,52.06c0-.22-.69,0-.69,0v.25a27.41,27.41,0,0,0,.53,3.3,4,4,0,0,1,.08.59c.1.57.73.28.8-.14a9.8,9.8,0,0,0-.52-2.95Z"/><path d="M111.11,59.47a5.81,5.81,0,0,0-.28-2c-.12-.21-.7.06-.78,0s.07.1.07.1l-.1.07c0,.11.12.36.13.45,0,.4-.12,2.69.56,3,.19.09.41-.45.5-.44s0-.35,0-.43A3.85,3.85,0,0,0,111.11,59.47Z"/><path d="M114.85,56.41c0-.26.12-3.17-.26-3.4-.18-.12-.54.32-.56.34a11.06,11.06,0,0,0,.11,3c0,.16.06.91.33.91s.36-.64.44-.63-.08,0,0-.08S114.85,56.49,114.85,56.41Z"/><path d="M117.81,51.1a.66.66,0,0,0-.46,0c-.23.58.79,2.77,1.12,3.11.13.14.63.35.76.11s-.11-.45,0-.43C119.79,53.06,117.88,51.17,117.81,51.1Z"/><path d="M118.58,44.82h.08c-.16-.11-.25-.1-.3,0a1.5,1.5,0,0,0-.24,0h.23c-.19.4.35,2.18.59,2.93.09.26.29.77.29.77a.27.27,0,0,0,.19.11l.13,0,.19-.14c.07-.05,0-.26.05-.34.17-1.12-1-3.25-1.05-3.3A.38.38,0,0,0,118.58,44.82Z"/><path d="M115.4,40.67c.24-.08,0-1.13-.16-1.27s-.46.13-.63.28c-.38.81.08,2,.17,2.84,0,.25.72-.24.72-.24V42.2h-.08A1.89,1.89,0,0,1,115.4,40.67Z"/><path d="M111.1,38.84c0-.15-.33-.16-.51-.16-.53.62-.35,3.16-.18,3.62.1.27.81-.22.81-.31,0-1-.13-3-.13-3Z"/><path d="M108,41.34s-.11-.1-.15-.18-.48.09-.56.07c-.33.2.09,1.14.09,1.22a4.9,4.9,0,0,0,.24,1.76c.12.2.69-.15.69-.15h0a.11.11,0,0,1,0-.08s0-.09,0-.09,0,.11,0,.18,0,.08,0,.08c.18,0,0-.34,0-.52C108.22,42.88,108,41.42,108,41.34Z"/><path d="M111.64,46.19c-.14-.11-.38.19-.5.38-.08,1,0,4.37,1,4C112.27,50.51,112.52,46.8,111.64,46.19Z"/><path d="M114.75,46.7c-.19.83.27,2.74.75,2.56.78-.28-.06-2.5-.11-2.58S114.9,46.65,114.75,46.7Z"/><path d="M105.86,48.61h.08s-.08,0-.13,0a1.76,1.76,0,0,0-.41,0l.4,0a1.23,1.23,0,0,0-.36.62c.16.89.44,2.65.46,2.74a.37.37,0,0,0,.63.18c.73-.89-.43-3.43-.51-3.49A.28.28,0,0,0,105.86,48.61Z"/><path d="M101.65,42.48c0,.34.18,1-.1.91s-.26,2.42.46,2.66c.23.08.51-.53.5-.62-.11-.82-.38-2.47-.37-2.58S101.83,42.54,101.65,42.48Z"/><path d="M101.52,50.8l.16-.23c-.54.17-.15,3.82,0,4s.73-.24.81-.23c.46-.42-.17-3-.25-3.48C102.2,50.67,101.52,50.8,101.52,50.8Z"/><path d="M95.46,51.28c-.17.12,0,.6,0,.69a23.31,23.31,0,0,1,.14,2.69c-.14.21.77,0,.77,0l0-.16c-.08-1-.24-2.88-.3-3S95.72,51.08,95.46,51.28Z"/><path d="M92.49,54.64a1.48,1.48,0,0,0-.28.64c0,.74,0,4.06.84,3.48s.11-3.33-.26-4A.4.4,0,0,0,92.49,54.64Z"/><path d="M101.56,57.79c-.07-.25-.77.06-.77.06l0,.17c.08.67.2,2,.25,2.08s.44.63.69.21c.34-.58-.22-2-.2-2.13Z"/><path d="M98.14,56.51h.07a.27.27,0,0,0-.35,0h0c-.38.37-.15,2.22.37,2.26.28,0,.37-.72.36-.81a3.86,3.86,0,0,0-.21-1.33C98.34,56.56,98.24,56.53,98.14,56.51Z"/><path d="M109.43,52.93c-.07,0-.15,0-.22.09l.05-.07c-.12,0-.19.14-.23.3l-.08.12.07-.09a2.12,2.12,0,0,0,0,.62c0,.23.19,1.29.7.87A1.85,1.85,0,0,0,109.43,52.93Z"/></g></g></svg>