<svg xmlns="http://www.w3.org/2000/svg" viewBox="0 0 420.5 199.4" fill="#697188" xmlns:v="https://vecta.io/nano"><path d="M5.6 144.3v5.4h11.2v3.8H5.6v6.2h13.1v3.9H1.3v-23.2h16.6v3.9zm25.9-.3c-3.9 0-6.3 3.9-6.3 8.2 0 4.7 2.8 8 6.6 8 4.6 0 6.3-4.6 6.3-8.1 0-5.4-3.4-8.1-6.6-8.1zm12.3 20.6c-1.9-.5-3.6-1.5-4.9-2.9-2.1 1.7-4.7 2.6-7.3 2.5-6.8 0-11-5.2-11-12.2 0-6.6 3.9-12.2 11-12.2 7.5 0 11.2 5.8 11.2 11.8 0 2.5-.6 4.9-1.7 7.1.7 1.4 3 1.8 3.5 1.8h.4l-1.2 4.1zM66 140.4V155c0 2.6 0 4.8-2.5 6.9a10.55 10.55 0 0 1-7 2.3c-1.4 0-2.8-.2-4.1-.6-2.3-.7-4-2.5-4.8-4.7a17.82 17.82 0 0 1-.3-4.6v-13.9h4.3v14.3c-.1 1 0 1.9.3 2.8.9 1.7 2.8 2.7 4.7 2.5 1.3.1 2.7-.3 3.7-1.2 1.3-1.2 1.3-2.5 1.3-4.4v-14.1l4.4.1zm6.7 0H77v23.2h-4.3zm15.4 3.7v8.1h3.1c.8 0 1.7 0 2.5-.2 2.2-.7 3.4-3.1 2.6-5.3-.2-.6-.5-1.1-.9-1.6-1.2-.8-2.6-1.1-4-1h-3.3zm-4.4-3.7h7.7c1.3-.1 2.7.1 4 .4 3.3.9 5.6 3.9 5.5 7.4.2 3.5-2.1 6.6-5.6 7.3-1.3.2-2.6.3-3.9.3H88v7.9h-4.4l.1-23.3zm42.7 0v23.2h-4.2l.4-19.1-5 19.1h-3.9l-5.1-19.1.5 19.1h-4.3v-23.2h6.3l4.6 17.2 4.4-17.2zm10.8 3.9v5.4h11.2v3.8h-11.2v6.2h13.1v3.9H133v-23.2h16.5v3.9zm31.5-3.9h4.3v23.2h-3.8L159 147.4l.3 16.2H155v-23.2h4l10.2 16.4zm24.7 4H187v19.2h-4.3v-19.2h-6.3v-4h17zm16.7 15.3h9.2v3.9h-13.6v-23.2h4.4zm16.3-15.4v5.4h11.1v3.8h-11.1v6.2h13v3.9h-17.3v-23.2h16.5v3.9zm27.5 11l-3.2-10.7-3.2 10.7h6.4zm1.1 3.9h-8.7l-1.4 4.5h-4.6l7.8-23.2h4.9l7.9 23.2h-4.6l-1.3-4.5zm10.7-2.5c1.6 2.4 4.3 3.8 7.2 3.5.9 0 1.7-.1 2.5-.4 1.2-.4 1.9-1.4 1.9-2.6 0-1.1-.7-2-1.8-2.3-.9-.3-1.8-.6-2.7-.7l-2.8-.6c-1-.2-2-.5-2.9-.8-2.4-.9-3.9-3.2-3.9-5.7 0-4.4 3.7-7.2 9.2-7.2 3.7-.1 7.2 1.6 9.3 4.7l-3.6 2.7c-1.2-2.2-3.5-3.5-6-3.5-2.3 0-4.4 1-4.4 2.8s2.2 2.4 4.3 2.7l2.4.5c3.1.7 7.5 1.9 7.5 6.9 0 5.4-4.9 7.5-9.9 7.5-1.4 0-2.8-.2-4.1-.5-2.5-.7-4.6-2.2-6-4.4l3.8-2.6zm21.6-16.3h4.3v23.2h-4.3zm24.7 0h4.3v23.2h-3.8l-10.2-16.2.3 16.2h-4.3v-23.2h3.9l10.3 16.4zm29.5 10.5v12.7h-3.7v-1.9c-1.7 1.7-4 2.6-6.4 2.6-7.2 0-11-5.8-11-12 0-7.3 4.8-12.4 11.2-12.4 4.4-.1 8.3 2.7 9.8 6.8l-4.2 1.7c-.6-2.7-2.9-4.6-5.6-4.6-4.4 0-6.5 3.9-6.5 8.4 0 5.1 2.8 8 6.6 8 3 .2 5.6-2.1 5.8-5.1v-.3h-5.8v-3.9h9.8zm24.8 4.4l-3.2-10.7-3.2 10.7h6.4zm1.1 3.9h-8.7l-1.4 4.5h-4.6l7.7-23.2h4.9l7.9 23.2h-4.6l-1.2-4.5zm22.7-18.8h4.3v23.2h-3.8l-10.2-16.2.3 16.2h-4.2v-23.2h3.9l10.2 16.4zm15 4v15.3h1.8c1.8.1 3.7 0 5.4-.5 1.7-.7 3.5-2.1 3.5-6.9 0-2.2-.3-5.8-3.6-7.3-1.5-.6-3.2-.8-4.9-.6h-2.2zm-4.3-3.9h8.3c2.4-.2 4.8.5 6.9 1.8 3 2.4 4.7 6.1 4.5 10 0 4-1.3 8-4.8 10-2.3 1.1-4.9 1.6-7.5 1.4h-7.5l.1-23.2zM6.9 185.2H18v3.7H6.9v9.9H2v-23.2h17.5v3.8H6.9zm17-9.6h4.9v23.2h-4.9zm28.2 0H57v23.2h-4.4L41 182.5l.3 16.3h-4.8v-23.2H41L52.7 192zm23.7 14.9l-3.7-10.7-3.7 10.7h7.4zm1.3 3.8h-9.9l-1.6 4.5h-5.4l9-23.2h5.6l9 23.2h-5.3l-1.4-4.5zm25.9-18.7h4.9v23.2h-4.3l-11.7-16.3.3 16.3h-4.8v-23.2h4.4l11.8 16.4zm33.2 16.7c-1.9 4.6-6.5 7.4-11.5 7.1-7 0-12.4-4.5-12.4-12.3s5.8-12.1 12.6-12.1c8.3 0 10.2 5.5 10.8 7.2l-4.9 1.1c-.2-.8-.5-1.6-1-2.3-1.2-1.4-3-2.1-4.8-2-4.3 0-7.3 3.1-7.3 8.1 0 5.3 3.2 8.2 7.4 8.2 1.9.1 3.8-.8 5.1-2.3.6-.7 1.1-1.5 1.4-2.4l4.6 1.7zm8.4-12.9v5.5h12.8v3.7h-12.8v6.3h14.9v3.9h-19.8v-23.2h18.9v3.8zm41.6 11.1l-3.7-10.7-3.7 10.7h7.4zm1.3 3.8h-10l-1.5 4.5h-5.3l8.9-23.2h5.6l9 23.2h-5.3l-1.4-4.5zm12.3-2.4c.6.9 2.6 3.5 8.2 3.5 1 0 1.9-.1 2.9-.4 1.9-.7 2.2-1.9 2.2-2.7 0-1.1-.8-2.1-1.9-2.3-1-.3-2-.6-3.1-.7l-3.2-.6c-1.1-.2-2.2-.5-3.3-.8-2.6-.7-4.4-3-4.5-5.7 0-4.4 4.2-7.2 10.5-7.2 4.1-.2 8.1 1.5 10.7 4.7l-4.1 2.7c-1.5-2.3-4.2-3.6-6.9-3.5-2.6 0-5 1-5 2.8s2.5 2.4 4.9 2.8l2.7.5c3.6.7 8.6 1.9 8.6 6.9 0 5.3-5.6 7.5-11.3 7.5-1.6 0-3.2-.2-4.7-.5-2.7-.6-5.2-2.2-6.9-4.4l4.2-2.6zm25.9 0c.6.9 2.6 3.5 8.2 3.5 1 0 1.9-.1 2.9-.4 1.9-.7 2.2-1.9 2.2-2.7 0-1.1-.8-2.1-1.9-2.3-1-.3-2-.6-3.1-.7l-3.2-.6c-1.1-.2-2.2-.5-3.3-.8-2.6-.7-4.4-3-4.5-5.7 0-4.4 4.3-7.2 10.5-7.2 4.1-.2 8.1 1.5 10.7 4.7l-4.1 2.7c-1.5-2.3-4.1-3.6-6.9-3.5-2.7 0-5 1-5 2.8s2.5 2.4 4.9 2.8l2.7.5c3.6.7 8.6 1.9 8.6 6.9 0 5.3-5.6 7.5-11.3 7.5-1.6 0-3.2-.2-4.7-.5-2.7-.6-5.2-2.2-6.9-4.4l4.2-2.6zm34.5-12.9c-4.1-.1-7.5 3.1-7.6 7.2v.9c0 5.2 3.3 8.4 7.7 8.4 4.1.2 7.6-3 7.7-7.1v-.6c.1-4.6-2.6-8.8-7.8-8.8zm0 20.4c-3.4.2-6.7-1.1-9.1-3.5-2.3-2.3-3.6-5.4-3.5-8.6-.1-6.7 5.4-12.2 12.1-12.3h.7c6.6 0 12.8 4.3 12.7 12.2-.2 6.6-4.8 12.2-12.9 12.2h0zm40.5-7.1c-1.9 4.6-6.5 7.4-11.5 7.1-7 0-12.4-4.5-12.4-12.3s5.8-12.1 12.6-12.1c8.3 0 10.2 5.5 10.8 7.2l-4.9 1.1c-.2-.8-.5-1.6-1-2.3-1.2-1.4-2.9-2.1-4.8-2-4.3 0-7.3 3.1-7.3 8.1 0 5.3 3.2 8.2 7.4 8.2 1.9.1 3.8-.8 5.1-2.3.6-.7 1.1-1.5 1.4-2.4l4.6 1.7zm3.6-16.7h4.9v23.2h-4.9zm23.8 14.9l-3.6-10.7-3.7 10.7h7.3zm1.3 3.8h-10l-1.5 4.5h-5.3l9-23.2h5.6l9.1 23.2h-5.4l-1.5-4.5zm24.5-14.8h-7.4v19.3h-4.9v-19.3h-7.2v-3.9h19.5zm3.7-3.9h4.9v23.2h-4.9zm22.5 3.4c-4.1-.1-7.5 3.1-7.6 7.2v.9c0 5.2 3.3 8.4 7.7 8.4 4.1.2 7.5-3 7.7-7.1v-.7c.1-4.5-2.5-8.7-7.8-8.7zm0 20.4c-3.4.2-6.7-1.1-9.1-3.5-2.3-2.3-3.6-5.4-3.5-8.6-.1-6.7 5.4-12.2 12.1-12.3h.7c6.6 0 12.7 4.3 12.7 12.2-.2 6.6-4.7 12.2-12.9 12.2h0zm33.2-23.8h4.9v23.2h-4.4l-11.6-16.3.3 16.3h-4.8v-23.2h4.5l11.7 16.4z" opacity=".78"/><path d="M107.9.9h13.4v107h67.3v12.5h-80.7zm102.9 0h85.8v12.4h-72.4V54h64.7v12.3h-64.7v54.1h-13.4zM350.5 0h12.6l54.5 120.4h-14.5l-14-31.6H324l-14.2 31.6H296L350.5 0zm33.3 76.7l-27.1-61-27.4 61h54.5zM0 108.1h82.5v12.3H0z"/><path d="M0 54h82.3v12.3H0z" opacity=".78"/><path d="M0 .9h82.5v12.3H0z"/></svg>