<svg xmlns="http://www.w3.org/2000/svg" viewBox="0 0 375.7 83.8" xmlns:v="https://vecta.io/nano"><g fill="#697188"><path d="M113.8 27.8v6.7H99.7v5.4h13.2v6.5H99.7V58h-9.4V27.8h23.5zm33.7 14.8c0 7.7-4.4 16.4-16 16.4-12.1 0-15.8-9.2-15.8-16.1 0-8.7 5.2-16.3 15.9-16.3 11.7 0 15.9 8.8 15.9 16zm-22.4.3c0 5.3 2.1 8.4 6.5 8.4 3.8 0 6.4-3 6.4-8.7 0-1.4-.1-2.7-.5-4-.8-2.6-3.2-4.4-5.9-4.3-3.3 0-6.5 2.3-6.5 8.6zm25.1-15.1h9.4v18.9c-.2 1.3.2 2.6 1.1 3.6.8.8 1.9 1.2 3 1.1 1.1 0 2.2-.3 3-1.1.9-1 1.3-2.3 1.1-3.7V27.8h9.4v16.1c0 3.5 0 8-3.5 11.4-2.8 2.5-6.4 3.8-10.1 3.6-4.4 0-8.1-1.5-10.3-3.6-2.9-2.9-3-6.3-3.1-9.5v-18zm31.8 0h9.9l6.7 11.4 3.6 7.4-.4-7V27.8h8.8V58h-10.1l-6-10.5-4.1-8 .3 6.2V58H182V27.8zm33.4 0h10.1c6.6.1 10.9.1 14.4 3.5 3.1 2.9 4.1 7.2 4.1 11.5 0 6.4-2.4 12.4-8.3 14.4-2.6.7-5.3 1-7.9.8h-12.3V27.8zm9.4 7V51h3.6c1.5.1 2.9-.4 3.9-1.4 1.4-1.4 2.2-3.9 2.2-6.8 0-1.5-.2-3-.8-4.5-1.3-3.4-3.6-3.5-5.5-3.6h-3.4zm28.6-7H264L275.2 58h-10.1l-1.3-4.2h-10.3l-1.3 4.2h-10.1l11.3-30.2zm5.3 8.6L255.5 47h6.4l-3.2-10.6zm13.6-8.7h24.4v7.5h-7.5V58h-9.4V35.2h-7.5v-7.5zm27 .1h9.4V58h-9.4V27.8zm44.5 14.8c0 7.7-4.4 16.4-16 16.4-12.1 0-15.8-9.2-15.8-16.1 0-8.7 5.2-16.3 15.9-16.3 11.7 0 15.9 8.8 15.9 16zm-22.4.3c0 5.3 2.1 8.4 6.5 8.4 3.8 0 6.4-3 6.4-8.7 0-1.4-.1-2.7-.5-4-.8-2.6-3.2-4.3-5.9-4.3-3.3 0-6.5 2.3-6.5 8.6zm25.7-15.1h9.9l6.7 11.4 3.6 7.4-.4-7V27.8h8.8V58h-10.1l-6-10.5-4.1-8 .3 6.2V58h-8.7V27.8zM90.9 18.6V6.7h7.5v1.4h-6.1v3.6H98v1.4h-5.7v4.1h6.3v1.4h-7.7zm17.5-1.3c.5.4 1.1.8 1.8 1.1l-.4 1.1c-.8-.4-1.6-.8-2.2-1.5-.8.5-1.6.7-2.5.7-1.5 0-2.8-.7-3.7-1.9s-1.3-2.8-1.3-4.3c0-1.2.2-2.3.7-3.4.4-.9 1-1.6 1.8-2.1 1.5-1 3.5-1 5 0 .8.5 1.4 1.3 1.8 2.1.5 1 .7 2.2.7 3.3 0 .9-.1 1.8-.4 2.7-.4.9-.8 1.6-1.3 2.2zm-3-2c.7.2 1.4.6 2 1.1.9-1.1 1.3-2.4 1.2-3.8 0-.9-.1-1.8-.5-2.6-.3-.7-.7-1.2-1.3-1.6-.5-.4-1.1-.6-1.8-.6-1 0-1.9.4-2.5 1.2-.7 1.1-1.1 2.3-1 3.6-.1 1.3.3 2.5 1 3.6.6.8 1.5 1.2 2.5 1.2.5 0 .9-.1 1.4-.3-.4-.3-.9-.5-1.4-.7l.4-1.1zm13.1-8.6h1.4v6.9c0 1-.1 1.9-.4 2.8-.2.7-.7 1.3-1.3 1.8-.7.4-1.5.7-2.4.6-1.1.1-2.3-.3-3-1.2-.7-.8-1-2.1-1-4.1V6.7h1.4v6.9c0 .8.1 1.6.3 2.4.2.5.5.8.9 1.1s1 .4 1.5.4c.8.1 1.6-.2 2.1-.8.5-.9.8-2 .6-3l-.1-7zm3.9 11.9V6.7h1.4v11.9h-1.4zm3.7 0V6.7h3.9c.7 0 1.3 0 2 .2.6.2 1.1.6 1.4 1.1.4.6.6 1.3.5 2.1 0 .9-.3 1.9-.9 2.6-.8.8-1.9 1.1-3 1h-2.6v4.9h-1.3zm1.4-6.3h2.7a2.27 2.27 0 0 0 1.8-.5c.4-.4.6-1 .6-1.6 0-.4-.1-.8-.3-1.2-.2-.3-.4-.5-.7-.7-.5-.2-1-.2-1.5-.2h-2.6v4.2zm8.2 6.3V6.7h2l2.5 8.4.5 1.8.5-1.9 2.5-8.3h1.8v11.9h-1.3v-10l-3 10H140l-3-10.1v10.1h-1.3zm12.1 0V6.7h7.5v1.4h-6.1v3.6h5.7v1.4h-5.7v4.1h6.3v1.4h-7.7zm9.5 0V6.7h1.4l5.4 9.4V6.7h1.3v11.9H164l-5.4-9.4v9.4h-1.3zm13.1 0V8.1H167V6.7h8.2v1.4h-3.4v10.5h-1.4zm9.8 0V6.7h1.4v10.5h5.1v1.4h-6.5zm8.2 0V6.7h7.5v1.4h-6.1v3.6h5.7v1.4h-5.7v4.1h6.3v1.4h-7.7zm8.4 0l4-11.9h1.5l4.2 11.9h-1.6l-1.2-3.6h-4.3l-1.1 3.6h-1.5zm3-4.9h3.5l-1.1-3.3-.7-2.5c-.1.8-.3 1.5-.6 2.3l-1.1 3.5zm7.3 1.1l1.3-.1c0 .5.2 1.1.5 1.5.2.4.6.7 1 .9.5.2 1 .3 1.5.3.7 0 1.3-.2 1.9-.6.4-.4.7-.9.7-1.5 0-.3-.1-.6-.3-.9s-.4-.5-.7-.6c-.7-.3-1.4-.5-2.1-.7s-1.4-.5-2.1-.8c-.4-.3-.8-.6-1-1.1-.2-.4-.3-.9-.3-1.4 0-.9.3-1.8 1-2.4s1.7-1 2.7-.9c.7 0 1.4.1 2 .4a3.04 3.04 0 0 1 1.3 1.2c.3.6.5 1.2.5 1.9l-1.3.1a2.61 2.61 0 0 0-.7-1.7c-.5-.4-1.1-.6-1.8-.6-.6 0-1.3.1-1.8.5-.4.3-.6.8-.6 1.3 0 .4.1.8.5 1.1.6.4 1.3.7 2 .8l2.1.7c.6.3 1.1.7 1.4 1.2s.5 1.2.5 1.8c0 .7-.2 1.3-.5 1.9s-.8 1-1.4 1.3c-.7.3-1.4.5-2.1.4-1.1.1-2.2-.3-3-1.1-.9-.8-1.3-1.9-1.2-2.9zm10.3 3.8V6.7h1.4v11.9h-1.4zm3.7 0V6.7h1.4l5.4 9.4V6.7h1.3v11.9h-1.4l-5.4-9.4v9.4h-1.3zm15.3-4.7v-1.4h4.4v4.4c-.6.6-1.3 1-2.1 1.4-.7.3-1.4.5-2.2.5-.9 0-1.9-.2-2.7-.7s-1.5-1.2-1.9-2.1c-.5-1-.7-2.2-.7-3.3 0-1.2.2-2.3.7-3.4.4-.9 1-1.6 1.8-2.1s1.7-.7 2.7-.7c.7 0 1.4.1 2 .4s1 .6 1.4 1.1c.4.6.7 1.3.8 2l-1.2.4c-.1-.5-.3-1.1-.6-1.5-.3-.3-.6-.6-1-.8s-.9-.3-1.4-.3c-1.4-.1-2.7.8-3.2 2.1-.4.8-.5 1.7-.5 2.7a5.16 5.16 0 0 0 1.1 3.6c.7.8 1.7 1.2 2.7 1.2.6 0 1.1-.1 1.6-.4.5-.2 1-.5 1.4-.9v-2.2h-3.1zm16.1 3.3c-.7 1-1.8 1.6-3 1.6-.9 0-1.8-.4-2.4-1.1s-.9-1.5-.9-2.4c.1-1.6 1-2.9 2.5-3.5-.4-.5-.7-1-.9-1.5-.2-.4-.2-.7-.2-1.1 0-.7.3-1.4.8-1.9s1.1-.8 1.8-.8a2.61 2.61 0 0 1 1.7.7c.5.5.7 1.2.7 1.8-.1 1.3-.9 2.4-2 2.9l1.9 2.7c.2-.5.4-1.1.5-1.7l1.3.3c-.2.9-.5 1.8-.9 2.6.4.7 1 1.3 1.6 1.8l-.9 1.2a6.09 6.09 0 0 1-1.6-1.6zm-.8-1.2l-2.3-3.3c-.5.3-1 .8-1.4 1.3-.2.4-.4.8-.4 1.2 0 .6.2 1.1.5 1.5.3.5.8.7 1.4.7.4 0 .8-.2 1.1-.4.5-.2.9-.5 1.1-1zm-1.8-5c.4-.3.8-.6 1-1a1.69 1.69 0 0 0 .3-1 1.69 1.69 0 0 0-.3-1c-.2-.2-.5-.4-.8-.4s-.6.1-.8.4-.4.6-.4 1c0 .5.2.9.5 1.2l.5.8zm10.6 7.6V6.7h7v1.4h-5.6v3.7h4.8v1.4h-4.8v5.4h-1.4zm8.9 0V6.7h1.4v11.9h-1.4zm3.7 0V6.7h1.4L280 16V6.7h1.3v11.9h-1.4l-5.4-9.4v9.4h-1.4zm9.4 0l4-11.9h1.4l4.2 11.9h-1.6l-1.2-3.6H285l-1.1 3.6h-1.4zm3-4.9h3.4l-1.1-3.3-.7-2.5c-.1.8-.3 1.5-.6 2.3l-1 3.5zm7.7 4.9V6.7h1.4L300 16V6.7h1.3v11.9h-1.4l-5.4-9.4v9.4h-1.3z"/><path d="M310.9 14.4l1.4.4c-.2 1.1-.8 2.2-1.6 3-.8.7-1.8 1-2.8 1-.9 0-1.7-.2-2.5-.7-.7-.5-1.3-1.3-1.7-2.1-.5-1.1-.7-2.3-.7-3.5 0-1.1.2-2.3.7-3.3.4-.8 1-1.6 1.8-2.1.7-.5 1.6-.7 2.5-.7s1.8.3 2.6.9a4.61 4.61 0 0 1 1.5 2.6l-1.3.4c-.5-1.6-1.4-2.5-2.8-2.5-.6 0-1.3.2-1.8.5-.5.4-1 .9-1.2 1.6-.3.9-.5 1.8-.5 2.7-.1 1.3.2 2.6.9 3.7.5.8 1.5 1.3 2.4 1.2.7 0 1.4-.3 1.9-.8a3.47 3.47 0 0 0 1.2-2.3zm3.1 4.2V6.7h7.5v1.4h-6.1v3.6h5.7v1.4h-5.7v4.1h6.3v1.4H314zM95.4 78v-6.1l-4.5-8.3h1.9l2.3 4.4 1.2 2.4 1.3-2.5 2.3-4.2h1.8L97 71.9V78h-1.6zm5.4-5.2a6.52 6.52 0 0 1 1.1-4.1c1.3-1.6 3.6-1.8 5.2-.6.2.2.4.3.6.6.8 1.2 1.3 2.6 1.2 4 .1 1.5-.3 3-1.1 4.2-.7.9-1.8 1.4-2.9 1.4s-2.2-.5-2.9-1.4c-.9-1.2-1.3-2.6-1.2-4.1zm1.5 0c-.1 1.1.2 2.1.7 3 .4.6 1.1 1 1.8 1s1.4-.4 1.8-1c1-1.9 1-4.1 0-6-.4-.6-1.1-1-1.8-1s-1.4.4-1.8 1c-.5.9-.8 1.9-.7 3h0zm13.9 5.2v-1.5c-.3.5-.7 1-1.2 1.3s-1 .4-1.5.4c-.6 0-1.2-.2-1.7-.5s-.8-.8-1-1.4c-.2-.7-.3-1.5-.2-2.3v-6.5h1.5v5.8c0 .7 0 1.4.2 2.2.1.3.3.7.6.9a1.69 1.69 0 0 0 1 .3c.7 0 1.3-.3 1.7-.9.5-.8.7-1.8.6-2.7v-5.6h1.5V78h-1.5zm3.6 0V67.6h1.3v1.6c.2-.5.5-1 .9-1.5.2-.2.6-.4.9-.4.5 0 1.1.2 1.5.6l-.5 1.6c-.3-.2-.6-.4-1-.4-.3 0-.6.1-.9.3s-.5.6-.5.9c-.2.7-.3 1.4-.3 2.1V78h-1.4zm10.3 0V63.6h8.5v1.7h-7v4.4h6.5v1.7h-6.5v4.9h7.3V78h-8.8zm10.7 4l-.2-1.7c.3.1.5.2.8.2s.5-.1.8-.2c.2-.1.4-.3.5-.6 0-.1.2-.7.6-1.7L140 67.5h1.6l1.8 6 .6 2.4.6-2.4 1.8-6.1h1.4L144.5 78l-1 2.8c-.2.4-.5.7-.8 1-.3.2-.7.3-1.1.3-.2.1-.5.1-.8-.1zm14.2-7.3l1.5.2c-.2 1-.6 1.9-1.4 2.5-1.6 1.3-4 1.1-5.4-.5-.8-1.2-1.2-2.6-1.1-4a6.52 6.52 0 0 1 1.1-4.1c.7-.9 1.7-1.4 2.9-1.4 1.1 0 2.1.5 2.8 1.4.8 1.2 1.2 2.6 1.1 4v.5h-6.4c0 1 .3 1.9.8 2.7.4.6 1.1.9 1.8.9 1.1-.1 1.9-.8 2.3-2.2zm-4.8-2.9h4.8c0-.7-.2-1.4-.6-2s-1.1-1-1.8-1c-.6 0-1.3.3-1.7.8-.4.6-.7 1.4-.7 2.2h0zm12.2 1a6.52 6.52 0 0 1 1.1-4.1c1.3-1.6 3.6-1.8 5.2-.6.2.2.4.3.6.6.8 1.2 1.3 2.6 1.1 4 .1 1.5-.3 3-1.1 4.2-1.3 1.6-3.6 1.8-5.2.6l-.6-.6a6.52 6.52 0 0 1-1.1-4.1zm1.5 0c-.1 1.1.2 2.1.7 3 .4.6 1.1 1 1.8 1s1.4-.4 1.8-1c1-1.9 1-4.1 0-6-.4-.6-1.1-1-1.8-1s-1.4.4-1.8 1c-.5.9-.8 1.9-.7 3h0zm8.2 5.2V67.6h1.3V69c.3-.5.7-1 1.2-1.3s1-.4 1.6-.4a3.08 3.08 0 0 1 1.3.3c.4.2.7.4.9.7.3.3.4.7.5 1.1l.2 2.1V78h-1.5v-6.4c0-.6 0-1.1-.2-1.7-.2-.7-.9-1.1-1.6-1.1-.6 0-1.3.3-1.7.8-.5.8-.7 1.7-.6 2.7V78h-1.4zm17-1.6l.2 1.6c-.4.1-.7.2-1.1.2s-.9-.1-1.2-.3-.5-.5-.6-.8l-.2-2.1v-6h-1.1v-1.4h1.1V65l1.4-1.1v3.6h1.5V69h-1.5v6.1c0 .4 0 .7.1 1.1.1.2.4.4.7.4.3-.1.5-.1.7-.2zm1.4 1.6V63.6h1.4v5.2c.3-.4.7-.8 1.2-1.1.4-.2.9-.4 1.4-.4.8 0 1.6.3 2.2.9.6.9.9 2.1.8 3.2V78H196v-6.6c.1-.7-.1-1.4-.5-2-.3-.4-.8-.6-1.3-.6-.6 0-1.2.3-1.6.8-.5.8-.8 1.7-.7 2.7V78h-1.4zm15-3.3l1.5.2c-.2 1-.6 1.9-1.4 2.5-1.6 1.3-4 1.1-5.4-.5-.8-1.2-1.2-2.6-1.1-4a6.52 6.52 0 0 1 1.1-4.1c.7-.9 1.7-1.4 2.9-1.4 1.1 0 2.1.5 2.8 1.4.8 1.2 1.2 2.6 1.1 4v.5h-6.4c0 1 .3 1.9.8 2.7.4.6 1.1.9 1.8.9 1.2-.1 1.9-.8 2.3-2.2zm-4.7-2.9h4.8c0-.7-.2-1.4-.6-2a2 2 0 0 0-2.9-.6c-.2.1-.4.3-.5.5-.5.5-.8 1.3-.8 2.1zm13 6.2V63.6h8v1.7h-6.4v4.5h5.5v1.7h-5.6V78h-1.5zm15.4 0v-1.5c-.3.5-.7 1-1.2 1.3a3.04 3.04 0 0 1-3.3-.1c-.5-.3-.8-.8-1-1.4-.2-.7-.3-1.5-.2-2.3v-6.5h1.5v5.8c0 .7 0 1.4.2 2.2.1.3.3.7.6.9a1.69 1.69 0 0 0 1 .3c.7 0 1.3-.3 1.7-.9.5-.8.7-1.8.6-2.7v-5.6h1.5V78h-1.4zm6.8-1.6l.2 1.6c-.4.1-.7.2-1.1.2s-.9-.1-1.2-.3-.5-.5-.6-.8l-.2-2.1v-6H232v-1.4h1.1V65l1.4-1.1v3.6h1.5V69h-1.5v6.1c0 .4 0 .7.1 1.1.1.2.4.4.7.4.3-.1.5-.1.7-.2zm7 1.6v-1.5c-.3.5-.7 1-1.2 1.3s-1 .4-1.5.4c-.6 0-1.2-.2-1.7-.5s-.8-.8-1-1.4c-.2-.7-.3-1.5-.2-2.3v-6.5h1.5v5.8c0 .7 0 1.4.2 2.2.1.3.3.7.6.9a1.69 1.69 0 0 0 1 .3c.7 0 1.3-.3 1.7-.9.5-.8.7-1.8.6-2.7v-5.6h1.5V78H243zm3.6 0V67.6h1.3v1.6c.2-.5.5-1 .9-1.5.3-.2.6-.3.9-.4.5 0 1.1.2 1.5.6l-.5 1.6c-.3-.2-.7-.4-1-.4s-.6.1-.9.3-.5.6-.5.9c-.2.7-.3 1.4-.3 2.1V78h-1.4zm11.3-3.3l1.5.2c-.2 1-.6 1.9-1.4 2.5-1.6 1.3-4 1.1-5.4-.5-.8-1.2-1.2-2.6-1.1-4a6.52 6.52 0 0 1 1.1-4.1c.7-.9 1.7-1.4 2.9-1.4 1.1 0 2.1.5 2.8 1.4.8 1.2 1.2 2.6 1.1 4v.5H253c0 .9.3 1.9.8 2.7.4.6 1.1.9 1.8.9 1.1-.1 1.9-.8 2.3-2.2zm-4.8-2.9h4.8c0-.7-.2-1.4-.6-2a2 2 0 0 0-2.9-.6c-.2.1-.4.3-.5.5-.5.5-.8 1.3-.8 2.1h0z"/></g><radialGradient id="A" cx="251.01" cy="-310.61" r="41.91" gradientTransform="matrix(1 0 0 -1 -209.1 -268.7)" gradientUnits="userSpaceOnUse"><stop offset="0" stop-color="#fff"/><stop offset="1" stop-color="#697188"/></radialGradient><path d="M83.8 41.9C83.8 65 65 83.8 41.9 83.8S0 65.1 0 41.9C0 18.8 18.8 0 41.9 0s41.9 18.8 41.9 41.9z" fill="url(#A)"/><path d="M28 55V28h27v27H28.8z" fill="#697188"/><g fill="none" stroke="#fff" stroke-width="2"><path d="M26.7 2.6v78.2M55.9 2.4v78.9"/><path d="M2.8 26.8h78.3M2.3 56h79.1"/></g></svg>