<svg xmlns="http://www.w3.org/2000/svg" viewBox="0 0 32.73 16.96"><defs><style>.cls-1{fill:#0075a2;stroke:#0075a2;stroke-miterlimit:10;stroke-width:0.2px;}</style></defs><g id="Layer_2" data-name="Layer 2"><g id="Cloud_Svcs" data-name="Cloud Svcs"><path class="cls-1" d="M.1,16.37a16.27,16.27,0,1,1,32.53,0H25.86a9.5,9.5,0,1,0-19,0ZM24.31,8.43l2.33-2.34A14.48,14.48,0,0,0,16.37,1.83V5.14A11.18,11.18,0,0,1,24.31,8.43ZM16.37,5.14V1.83A14.49,14.49,0,0,0,6.09,6.09L8.43,8.43A11.16,11.16,0,0,1,16.37,5.14ZM5.14,16.37A11.16,11.16,0,0,1,8.43,8.43L6.09,6.09A14.49,14.49,0,0,0,1.83,16.37Zm22.45,0H30.9A14.49,14.49,0,0,0,26.64,6.09L24.31,8.43A11.19,11.19,0,0,1,27.59,16.37Z"/><path class="cls-1" d="M16.9,16.59h0l10.48-6.44a.35.35,0,0,0,.11-.44.36.36,0,0,0-.42-.19l-11.49,4.4h0a.64.64,0,0,0-.19.08,1.49,1.49,0,0,0-.69,2,1.51,1.51,0,0,0,2,.68Z"/><rect class="cls-1" x="6.65" y="4.47" width="1.37" height="5.68" transform="translate(-3.02 7.33) rotate(-45)"/><rect class="cls-1" x="24.61" y="4.47" width="1.37" height="5.68" transform="translate(38.01 30.37) rotate(-135)"/><rect class="cls-1" x="15.63" y="0.76" width="1.37" height="5.68"/></g></g></svg>