<svg xmlns="http://www.w3.org/2000/svg" viewBox="0 0 20.87 22.36"><defs><style>.cls-1,.cls-2,.cls-3,.cls-4{fill:#0075a2;stroke:#0075a2;}.cls-1,.cls-2,.cls-3{stroke-miterlimit:10;}.cls-1{stroke-width:0.75px;}.cls-3{stroke-width:0.5px;}.cls-4{stroke-linecap:round;stroke-linejoin:round;}</style></defs><g id="Layer_2" data-name="Layer 2"><g id="Cloud_Svcs" data-name="Cloud Svcs"><path class="cls-1" d="M10.44.5A7.26,7.26,0,0,0,3,7.58a6.92,6.92,0,0,0,2,4.87.43.43,0,0,0,.3.13.41.41,0,0,0,.3-.12.39.39,0,0,0,.13-.3.43.43,0,0,0-.12-.31A6,6,0,0,1,3.89,7.58a6.41,6.41,0,0,1,6.55-6.23A6.41,6.41,0,0,1,17,7.58,6.06,6.06,0,0,1,15,12a.42.42,0,0,0-.14.29.43.43,0,0,0,.12.31.41.41,0,0,0,.31.14.45.45,0,0,0,.29-.12,6.86,6.86,0,0,0,2.23-5.07A7.26,7.26,0,0,0,10.44.5Z"/><path class="cls-2" d="M18.68,2.62A.42.42,0,0,0,19,2.5l1.27-1.27a.42.42,0,0,0,.12-.3.45.45,0,0,0-.12-.31A.42.42,0,0,0,20,.5a.41.41,0,0,0-.3.12L18.38,1.89a.43.43,0,0,0-.13.3.46.46,0,0,0,.13.31A.42.42,0,0,0,18.68,2.62Z"/><path class="cls-2" d="M1.23.62A.42.42,0,0,0,.93.5.45.45,0,0,0,.62.62.45.45,0,0,0,.5.93a.42.42,0,0,0,.12.3L1.89,2.5a.42.42,0,0,0,.3.12A.45.45,0,0,0,2.5,2.5a.45.45,0,0,0,.12-.31.42.42,0,0,0-.12-.3Z"/><path class="cls-2" d="M2.19,12.55a.42.42,0,0,0-.3.12L.62,13.94a.42.42,0,0,0-.12.3.41.41,0,0,0,.12.3.46.46,0,0,0,.31.13.43.43,0,0,0,.3-.13L2.5,13.27a.41.41,0,0,0,.12-.3.42.42,0,0,0-.12-.3A.45.45,0,0,0,2.19,12.55Z"/><path class="cls-2" d="M19,12.67a.43.43,0,0,0-.6,0,.43.43,0,0,0-.13.3.42.42,0,0,0,.13.3l1.27,1.27a.42.42,0,0,0,.3.13.43.43,0,0,0,.3-.13.41.41,0,0,0,.12-.3.42.42,0,0,0-.12-.3Z"/><path class="cls-3" d="M14.1,16.93a1.37,1.37,0,0,0-1.38-1.37h-.31a.21.21,0,0,1-.21-.21V12.81a.43.43,0,0,0-.85,0v2.54a.22.22,0,0,1-.21.21H9.87a.22.22,0,0,1-.21-.21V12.81a.43.43,0,0,0-.85,0v2.54a.21.21,0,0,1-.21.21H8.29a1.37,1.37,0,0,0-1.38,1.37,1.41,1.41,0,0,0,.28.83.2.2,0,0,1,0,.25,1.37,1.37,0,0,0,1.1,2.2H8.6a.21.21,0,0,1,.21.21,1.7,1.7,0,0,0,3.39,0,.21.21,0,0,1,.21-.21h.31a1.37,1.37,0,0,0,1.1-2.2.2.2,0,0,1,0-.25A1.41,1.41,0,0,0,14.1,16.93Zm-3.6,4.33a.85.85,0,0,1-.84-.84.22.22,0,0,1,.21-.21h1.27a.22.22,0,0,1,.21.21A.85.85,0,0,1,10.5,21.26Zm2.22-1.9H8.29a.53.53,0,1,1,0-1.05h4.43a.53.53,0,1,1,0,1.05Zm0-1.9H8.29a.53.53,0,1,1,0-1.05h4.43a.53.53,0,1,1,0,1.05Z"/><rect class="cls-4" x="10.45" y="5.9" width="0.05" height="4"/><rect class="cls-4" x="8.45" y="7.9" width="0.05" height="2"/><rect class="cls-4" x="12.45" y="6.9" width="0.05" height="3"/></g></g></svg>