<svg xmlns="http://www.w3.org/2000/svg" viewBox="0 0 27.03 27.03"><defs><style>.cls-1{fill:#0075a2;stroke:#0075a2;stroke-miterlimit:10;stroke-width:0.8px;}</style></defs><g id="Layer_2" data-name="Layer 2"><g id="Cloud_Svcs" data-name="Cloud Svcs"><path class="cls-1" d="M2.88,26.63h0a2.5,2.5,0,0,1-1.7-.74,2.4,2.4,0,0,1-.06-3.39l4.34-4.34a.27.27,0,0,0,0-.34,11.52,11.52,0,0,1-1.62-7.26A11.43,11.43,0,0,1,23.28,3.75,11.44,11.44,0,0,1,9.2,21.58a.23.23,0,0,0-.14,0,.24.24,0,0,0-.19.08L4.52,26a2.29,2.29,0,0,1-1.63.67Zm.94-5.17a.28.28,0,0,0-.2.08L1.86,23.3a1.28,1.28,0,0,0,.07,1.8,1.32,1.32,0,0,0,.93.4h0a1.22,1.22,0,0,0,.87-.34L5.49,23.4a.28.28,0,0,0,0-.38L4,21.54A.27.27,0,0,0,3.82,21.46ZM6.2,19.07a.25.25,0,0,0-.19.09l-1.2,1.2a.24.24,0,0,0-.08.19.24.24,0,0,0,.08.2l1.47,1.47a.27.27,0,0,0,.2.08.24.24,0,0,0,.19-.08L7.87,21A.25.25,0,0,0,8,20.81a.26.26,0,0,0-.1-.2,10,10,0,0,1-.75-.68,9.59,9.59,0,0,1-.68-.75.28.28,0,0,0-.2-.1Zm9-17.55a10.25,10.25,0,0,0-7.3,3A10.36,10.36,0,0,0,6.54,17.45l.2.3,0,0c.17.25.35.48.53.7s.37.43.6.66.48.45.67.61.47.37.71.54l.3.21a10.32,10.32,0,1,0,5.62-19Z"/><path class="cls-1" d="M15.19,16.58a.56.56,0,0,1-.56-.56V15a.27.27,0,0,0-.18-.26,2.24,2.24,0,1,1,1.49,0,.29.29,0,0,0-.19.26v1A.56.56,0,0,1,15.19,16.58Zm0-5a1.12,1.12,0,1,0,1.11,1.11A1.11,1.11,0,0,0,15.19,11.56Z"/><path class="cls-1" d="M15.19,19.93a6.43,6.43,0,0,1-6.42-6.42v-5a.56.56,0,0,1,.56-.56H11a.28.28,0,0,0,.27-.28,3.91,3.91,0,0,1,7.82,0,.28.28,0,0,0,.28.28h1.67a.56.56,0,0,1,.56.56v5A6.43,6.43,0,0,1,15.19,19.93Zm-5-10.88a.28.28,0,0,0-.28.28v4.18a5.3,5.3,0,0,0,10.6,0V9.33a.28.28,0,0,0-.28-.28Zm5-4.18A2.79,2.79,0,0,0,12.4,7.65a.29.29,0,0,0,.28.28h5A.29.29,0,0,0,18,7.65,2.79,2.79,0,0,0,15.19,4.87Z"/></g></g></svg>