<svg xmlns="http://www.w3.org/2000/svg" viewBox="0 0 151.14 78.59"><defs><style>.cls-1{fill:#2697ad;}.cls-2{fill:#fff;}</style></defs><g id="Layer_2" data-name="Layer 2"><g id="Header"><path class="cls-1" d="M115.56,1.77c-12.5-5.84-29.39,3.54-31,17.24C81.34,11.34,71.67,7.72,63.63,9.78s-14.31,8.68-17.9,16.16c-9.17-9.06-25.14-10.07-35.38-2.24A26.21,26.21,0,0,0,1.8,35.55H123.21C131.44,25.27,127.63,7.4,115.56,1.77Z"/><path class="cls-2" d="M13.58,31.82c2.34-2.6,5.34-4.48,8.2-6.43a15.91,15.91,0,0,1,2.35-1.24c.4-.19,1.28-.39,1.37-.45,1.39-.89,4.77-.65,5.5-.71l.75,0A15.92,15.92,0,0,1,39,24.88c.71.46,1.55,1.15,2.14,1.59.33.25,1,.76,1.1.81.58.3.55,1.5,1.21,1.57,1.11.12,2.17,2.56,2.21,2.67.36,1,1.65-.3,1.91-.86.49-1.07.64-2.83,1.17-4.22.32-.81.95-2.44,1-2.54a12,12,0,0,1,2.61-2.73c1.1-.85,3.31-2.58,3.4-2.63,4.09-2.17,8.81-4.54,13.42-2.44,1.67.76,4.29,4.53,5.06,6.28.32.72.73,1.44,1,2.19.12.38.37,1.11.41,1.21a7.31,7.31,0,0,0,.66,1.29c.91.48,1-1.09,1.28-1.81,1-2.21,2.29-4.29,3.1-6.57,1-2.93,5.8-7.46,7.5-9.29a24.33,24.33,0,0,1,3.38-2.69,6.33,6.33,0,0,1,.6-.42c2.77-1.29,5-2.49,8.06-2.85.78-.08,1.56-.19,2.35-.23s2.56-.16,2.67-.15a29.28,29.28,0,0,1,18.93,9.43c1.47,1.54,1.69,4.26,2.73,6.23,1.94,3.66,3.11,6.8,3,11.12a20.16,20.16,0,0,1-1.26,5.71h.8A12.86,12.86,0,0,0,130.54,32c.8-5.59-.8-9.69-3-14.55-.83-1.81-.87-4.27-2.49-5.44-3-2.13-5.27-4.88-8.59-6.66a24.48,24.48,0,0,0-2.22-1.14c-1.13-.48-3.37-1.44-3.47-1.46-6.07-1.48-13.87-.65-19.26,2.64-2.94,1.8-6.22,5.67-8.39,7.93-1.93,2-3.29,4.9-4.47,7.43-.49,1.06-1,2.11-1.52,3.15a13.8,13.8,0,0,1-.62,1.42c-.53-1.15-1.18-3-1.82-4s-1.76-2.64-1.81-2.73C67.5,10,56.42,16.08,50.91,21.16c-2.06,1.91-2.5,3.41-3.44,6.22-.37,1.07-.95,3.28-1.07,3.32l-.11,0a10.26,10.26,0,0,1-1-1.07l-.91-1a2.17,2.17,0,0,0,.6.27c.26.08.4-.7.32-.79a12.46,12.46,0,0,0-2.69-1.79,6.57,6.57,0,0,0-1.37-.95,12.58,12.58,0,0,0-4.83-2.62c-.91-.26-2.79-.67-2.89-.67A31.44,31.44,0,0,0,30,22c-1.35.1-4.06.3-4.16.34-5.7,2.66-12,6.25-15.78,11.84a9.15,9.15,0,0,0-.74,1.33h1.45A28,28,0,0,1,13.58,31.82Z"/><path class="cls-2" d="M19.51,32.46c-.54-.21-.71.75-.84,1.58l.22-1c-.1.6-.21,1.18-.34,1.77l-.18.75h1.15C20.05,34.24,20.32,32.79,19.51,32.46Z"/><path class="cls-2" d="M25.45,27.37c-.12,0-.24.29-.24.29v.11l0,.1c0,.25-.81,3.14.14,2.77.72-.27.82-2.09.91-2.66C26.28,27.71,25.66,27.39,25.45,27.37Z"/><path class="cls-2" d="M32.54,27.48a20.06,20.06,0,0,1-.42,3c-.11,0-.14.32-.14.32l0-.28c-.23.33.17,1.05.56.7a9.13,9.13,0,0,0,.88-4.26C33.35,26.63,32.55,27.38,32.54,27.48Z"/><path class="cls-2" d="M37.64,33.43c-.63-.07-.48,1.25-.33,2.12h.91C38.25,34.78,38.35,33.51,37.64,33.43Z"/><path class="cls-2" d="M39.35,26.3l-.07.1c-.29.46.08,3.14.85,2.52.34-.28,0-2.89-.11-3S39.35,26.3,39.35,26.3Z"/><path class="cls-2" d="M46,32c-.26,0-.51.54-.52.58l-.08.1a7.16,7.16,0,0,0-.18,2.89h.88c.29-1,.3-3,.37-3C46.62,32.34,46.17,32,46,32Zm-.44.48.33-.39A2.49,2.49,0,0,1,45.51,32.46Z"/><path class="cls-2" d="M52.15,30.52c-.1,0-.2.07-.29.18l.07-.1a.42.42,0,0,0-.19.26l-.06.1,0-.07a1.61,1.61,0,0,0-.08.32c0,.91-.18,2.73-.18,2.73v.11s.1,0,.14.12c.14.37.58.57.79.08a7.51,7.51,0,0,0,.16-2.63C52.54,31.28,52.63,30.61,52.15,30.52Z"/><path class="cls-2" d="M53.48,24c0-.3-.82-.27-.82-.27l0,.1a1.59,1.59,0,0,0-.12.41c0,.34.47,1.36.93,1.27s0-1.38,0-1.38Z"/><path class="cls-2" d="M59,22.44c.13-.2-.43-.38-.65-.44-.54.46-.41,2.77.44,3a2.84,2.84,0,0,0,.78-.34c.12-.25-.46-.68-.47-.79A6.54,6.54,0,0,1,59,22.44Z"/><path class="cls-2" d="M65.46,17c-.06-.05-.14,0-.23,0h0a.13.13,0,0,0-.11.09,1.84,1.84,0,0,0-.22.25l.21-.22c-.1.29.19,1,.11,1s0,.42,0,.63c-.08.95-.16,1.89-.23,2.84,0,.36-.28,1.3.3,1.3,1.62,0,.93-4.77.91-4.88C66.08,17.63,65.44,17.08,65.46,17Z"/><path class="cls-2" d="M70.15,21.72v.1l0,.1a2.42,2.42,0,0,0,0,.95c0,.28.21,3.15.92,2.11a8.08,8.08,0,0,0-.1-3.08C70.81,21.66,70.14,21.82,70.15,21.72Z"/><path class="cls-2" d="M65.49,28.64s-.11.1-.22.09-.16.51-.28.6A3.78,3.78,0,0,0,64.7,31c-.06.6,0,1.12.45.89s.38-1.15.57-1.74c.08-.25.57-1.22.3-1.45S65.48,28.75,65.49,28.64Z"/><path class="cls-2" d="M58.77,30.63c-.28.91-.13,4.5.72,4.59.62.06.59-4-.12-4.79C59.24,30.29,58.9,30.53,58.77,30.63Z"/><path class="cls-2" d="M69.31,35.33l-.08.18v0h1.06a1.51,1.51,0,0,0-.18-.48C69.94,34.84,69.31,35.33,69.31,35.33Z"/><path class="cls-2" d="M73.05,28.07l.67-.07c-.28-.07-.78.37-.78.37s.11,0,.08.22c0,0,.11,0,.16.12.39.74,1.09,3.94,1.34,3.75,1.16-.86.17-3.68-.59-4.41C73.72,27.85,73.05,28.07,73.05,28.07Z"/><path class="cls-2" d="M81.57,29.92c-.27.18-.3.92-.3.92l.24-.71c-.23.65-.6,4.83-.27,4.95,1.34.47.92-2.78.94-3.29,0-.35,0-1.05.06-1.16C82.27,30.35,82,29.62,81.57,29.92Z"/><path class="cls-2" d="M83.23,20.45a3.88,3.88,0,0,0-.07.53c0,.35-.08,2.76.8,2.41.72-.28.14-2.31.16-2.52S83.52,20.48,83.23,20.45Z"/><path class="cls-2" d="M89.32,12.83c-.26.1-.09.84-.08.95.07.39.17,1.18.07,1.17-.46.37.5,1.12.89.62.57-.73-.67-2.72-.66-2.82S89.4,12.76,89.32,12.83Z"/><path class="cls-2" d="M95.1,7.29c-.25.13-.09.84-.1,1-.23,2.21-.14,4.42-.17,6.65,0,.22.65-.15.75-.13s.12-.46.12-.63l.09-4c0-.63.17-1.88.17-1.88l0-.22C95.81,7.71,95.6,7.06,95.1,7.29Z"/><path class="cls-2" d="M101,8c-.21,0-.47.28-.6.46a3,3,0,0,0,.09.55,14.07,14.07,0,0,1,0,2c-.1.16.1.55.1.55l.1.11h.1l.21,0C101.69,11.66,101.77,8.17,101,8Z"/><path class="cls-2" d="M105.8,4.4c0-.2-.59-.36-.72-.18s0,.64,0,.64c0,1.13.17,3.41.16,3.51l-.06.1c-.48.74.82.45,1-.31a9.94,9.94,0,0,0-.16-2.67A6,6,0,0,0,105.8,4.4Z"/><path class="cls-2" d="M110.43,7.92c0,.14.06.3.06.37v3.82c-.16.43.27,1.22.78.71.87-.86.79-4.67.17-5.6C111.22,6.91,110.57,7.73,110.43,7.92Z"/><path class="cls-2" d="M117.06,11.3c0,.18.16.38.16.46,0,.66,0,2,0,2.11a2.92,2.92,0,0,0-.06.74s.1,0,.11.12a.42.42,0,0,0,.69.28c.69-.55.39-3.78.23-4.11S117.15,11.23,117.06,11.3Z"/><path class="cls-2" d="M124.1,13.76c.2-.27.17-1-.32-1s-.87,1.39-.87,1.39l.1-.3a18.91,18.91,0,0,0,0,2.54c-.07,0-.3.1-.33.17-.41.69.92.67,1.23.34C124.57,16.17,124,13.85,124.1,13.76Z"/><path class="cls-2" d="M125.08,21.5c-.21.12,0,.74,0,.85.31,1.38-.16,2.81-.28,4.21,0,.21,0,.63-.26.61s-.44.38-.44.38l.22-.33c-.31.06-.3.68,0,.77.89.28,1.41-.88,1.54-1.53.2-1,.78-3.55.18-4.64A.88.88,0,0,0,125.08,21.5Z"/><path class="cls-2" d="M119.78,24.54c-1.24-.69-1,4.13-1,4.24s-.1.13-.17.17c-.51.52.72.63,1.11-.07C119.92,28.56,120.5,24.93,119.78,24.54Z"/><path class="cls-2" d="M114.7,19.44c-.17-.19-.76.13-.76.13l-.11,0c-.15.06.06.49,0,.59,0,.55-.62,3.09.13,3.73.2.18.59-.58.69-.51s.11-.41.12-.57C114.83,21.71,115.46,20.28,114.7,19.44Z"/><path class="cls-2" d="M109.28,14.86c-.12-.2-.58-.22-.76-.22,0,.19,0,.42,0,.54,0,.55-.28,4.5.5,4.29s.46-2.3.43-2.92A13,13,0,0,0,109.28,14.86Z"/><path class="cls-2" d="M103.34,14.63c-.24.07-.19.73-.2.83a44.41,44.41,0,0,1-.69,4.49,1.13,1.13,0,0,0-.11.3l.08-.2c-.34.91,1,.2,1.16-.73s.48-4,.53-4S104,14.42,103.34,14.63Z"/><path class="cls-2" d="M98.12,20.14c-.11-.13-.42-.1-.63-.05a1.54,1.54,0,0,0-.19.48c-.12,1.13.17,3.41,0,3.5-.36.65.65.82,1,.42s0-2.22-.07-3A10,10,0,0,0,98.12,20.14Z"/><path class="cls-2" d="M89.08,21.13a.29.29,0,0,0-.14.11c-.11.21.06.68,0,.78-.1.66-.8,3.07-.2,3.9a.6.6,0,0,0,.84.09c.17-.19,0-.75,0-.85.13-1.23.38-3.67.4-3.78C89.93,21.1,89.19,21.08,89.08,21.13Z"/><path class="cls-2" d="M94.13,21.5s-.49-.37-.6-.33a.44.44,0,0,0-.18.18l.07-.14a.57.57,0,0,0-.16.32,1.63,1.63,0,0,0-.08.19l.07-.14a3.46,3.46,0,0,0,.25,1.64c.19.23.89-.21.89-.21v-.1l0-.11A5.63,5.63,0,0,1,94.13,21.5Z"/><path class="cls-2" d="M96.92,30.17a.66.66,0,0,0-.18-.34s0,.11-.11.05-.55.2-.55.2l-.06.1c-.07.09,0,.32,0,.43-.11,1.06-.62,4.26.35,4.7.28.12.7-.56.7-.67L97,31A7.75,7.75,0,0,0,96.92,30.17Z"/><path class="cls-2" d="M104.57,27.48c-.15-.38-.3-1.06-.82-.72-.24.16-.09.84-.09.84l0,.11c.1.52.11,2.64.92,3,.38.14.44-1.12.42-1.23C104.89,28.82,104.61,27.59,104.57,27.48Z"/><path class="cls-2" d="M109.77,24.91c.43-.17-.4-.91-.65-.87s-.37.5-.36.6a10.22,10.22,0,0,0,.4,2.75,15.52,15.52,0,0,1,.59,1.7v.11c0,.09.19.23.18.34l.09.11c.07,0,.22-.08.32,0s0-.1.11-.09.16-.51.17-.62c.12-1.12-.54-2.2-.8-3.29C109.75,25.44,109.66,25,109.77,24.91Z"/><path class="cls-2" d="M116.48,33.94c0-1.24.74-2.88-.17-3.73-.25-.24-.81.66-.81.76,0,1.28,0,3.82,0,3.82l-.08.1a.48.48,0,0,0,.14.66h.2C116.27,35.39,116.48,34.34,116.48,33.94Z"/><path class="cls-2" d="M122.24,33.27a1.52,1.52,0,0,0,0,.63c.11.44.28,1.07.44,1.65h.94a5.47,5.47,0,0,0-.72-2.31C122.74,33.08,122.31,33.24,122.24,33.27Z"/><path class="cls-2" d="M127.62,31.65a1.48,1.48,0,0,0-.82-.38.92.92,0,0,0-.25.22c-.11.18-.18.43,0,.55.46.36.47-.36.85,0s0,2.12,0,2.22l0,.21c.12.3.92.31.92.31s0-.21.12-.09-.14-.65-.16-.76A20.17,20.17,0,0,0,127.62,31.65Z"/><path class="cls-2" d="M107.3,34.24a1.6,1.6,0,0,0-.64,1.31h1.21c0-.06,0-.13,0-.19C108,35,108.06,33.86,107.3,34.24Z"/><path class="cls-2" d="M90.63,32.47c-.07-.28-.86.12-.88.23a18.18,18.18,0,0,0-.6,2.85h.95C90.17,34.55,90.88,33.4,90.63,32.47Z"/><path class="cls-2" d="M86,34.21l.06-.1c.18-.29-.48-.75-.73-.61-.52.29-.66,1.25-.69,2H86c.08-.63.09-1.23.09-1.23Z"/><path class="cls-1" d="M3.24,57.91C7.94,66.24,16.83,71.55,26.07,74c32.71,8.72,73,2.82,106.13,0,4.18-.35,8.53-.76,12.12-2.93,8.05-4.85,8.82-17.31,3.13-24.79s-15.77-10.44-25.16-10.18q.49-.53.93-1.08H1.81C-.92,42.43-.65,51,3.24,57.91Z"/><path class="cls-2" d="M6.9,41.43,7,41.1l-.18.67A26.13,26.13,0,0,0,5.9,45a29.69,29.69,0,0,0-1.16,7.39c0,2.85,1.36,5.63,2.6,8.1a23.36,23.36,0,0,0,10,10.25.72.72,0,0,0,.24.4.29.29,0,0,0,.38-.08,39.6,39.6,0,0,0,16.51,3.78c2.9.09,5.82-.41,8.73-.35,3.58.08,6.76.53,10.34.36l4.3-.19A2.44,2.44,0,0,0,58,75c.12.22.75-.08.75-.08v-.3c3.58-.15,7.12-.26,10.76-.14,5.89.19,11.89.67,17.87.85a.49.49,0,0,0,.25.16.27.27,0,0,0,.26-.15c3.16.09,6.3.09,9.42-.1,11.48-.7,24.62.63,35.48-3.77,7.68-3.09,7.95-13.62,5.29-19.89-1.07-2.52-3.45-6.44-6.32-7.4a16,16,0,0,0-2.78-.8c-1.11-.14-3.34-.44-3.32-.65l0-.1c.53-1,1-2.06,1.59-3.08.3-.55.89-1.64.92-1.74A24.07,24.07,0,0,1,129.38,35h-.81a18.12,18.12,0,0,1-1.53,3.3c-.56.93-2.77,4.35-2.63,5.15s4.54.9,4.57.91A9.51,9.51,0,0,1,135,48.31a20.79,20.79,0,0,1,3.57,9.92,17.67,17.67,0,0,1-.23,4.52c0,.22-.06.65-.08.75-.17,1.67-2.25,4.35-3.47,5.26-.82.62-2.47,1.85-2.57,1.89a32.24,32.24,0,0,1-6.1,1.8,3.64,3.64,0,0,0,0-.38,24.31,24.31,0,0,1-.19-2.56.41.41,0,0,0-.19-.66c-.3-.11-.77.55-.77.55l0,.21c0,.92.19,2.68.19,3A97.75,97.75,0,0,1,111,73.5c0-.12,0-.23,0-.28a40.91,40.91,0,0,0-.23-4.69c0-.29-.81-.27-.84-.27a3.6,3.6,0,0,0-.08,1.34,23,23,0,0,0-.07,3.93c-1.86.06-3.72.16-5.56.26a2.4,2.4,0,0,0,.21-.53,26.53,26.53,0,0,1,.18-3.58c.14-.24-.57-.34-.84-.37-.65.74-.75,3.38-.31,4.53-4.09.24-8.15.51-12.28.46-1,0-2,0-3-.08,0-.4,0-1.08-.51-1.14-.11,0-.22.1-.31.22l.09-.13a.23.23,0,0,0-.12.18c-.08.11-.14.21-.14.21l.13-.2a1.12,1.12,0,0,0,0,.32h-.1s.08.09.1,0v.2c0,.08,0,.19,0,.3-1.52,0-3-.11-4.57-.19a2.79,2.79,0,0,0,.2-.89c-.1-.68-.3-2-.29-2.15s-.34-.63-.58-.49-.28.61-.28.61l-.09.2c.08.56,0,2.15.66,2.71l-3.43-.17a20.29,20.29,0,0,0,.62-2.66l0-.21a1.21,1.21,0,0,0-.25-.66.24.24,0,0,0-.1,0l-.33.08-.08.09c-.09.11-.08.42-.18.41a.32.32,0,0,1,.07.22c-.14.75-.38,2.11-.48,2.72-3.06-.16-6.13-.31-9.2-.36l-2.53,0a9.6,9.6,0,0,0-.63-2.11c-.15-.22-.74.06-.84.11a4.1,4.1,0,0,0,.52,2c-2.24,0-4.48,0-6.71.07a3.76,3.76,0,0,0,0-1.87c-.15-.26-.87.23-.89.33a9.93,9.93,0,0,0-.2,1.56c-4.83.08-9.65.18-14.49.07s-8.24.61-12.71-.08c-1.34-.2-2.63-.43-3.89-.69a2.32,2.32,0,0,0,.22-.71c0-.36,0-1.21-.51-1.16s-.47,1.43-.47,1.43l0,.21.05.09a34,34,0,0,1-7.57-2.52c.2-.88.22-2,0-2.18a.48.48,0,0,0-.32,0,.32.32,0,0,0-.14,0l-.18.06.14,0a2.24,2.24,0,0,0-.57,1.58,23.9,23.9,0,0,1-6.93-5.73,18.9,18.9,0,0,1-2.89-5.17l.09.32c-.73-1.94-1.83-4.32-1.87-6.48A33.5,33.5,0,0,1,10.83,35H9.38c-.56,1.2-.92,2.5-1.45,3.72C7.56,39.64,7.22,40.53,6.9,41.43Z"/><path class="cls-2" d="M18.05,36.48c-.42,1.88.77.34,1.49-1.45H18.39c-.07.29-.14.58-.2.87S18.09,36.31,18.05,36.48Z"/><path class="cls-2" d="M14.4,38.29c-1.12-.31-1.08,3.28-1.08,3.28l.56-2.49c-.15.65-.3,1.32-.44,2s-.25,1.47.65,1.13C15.28,41.73,14.77,38.39,14.4,38.29Z"/><path class="cls-2" d="M28.29,35.25a1.36,1.36,0,0,0-.24.24,5.27,5.27,0,0,0-.44,2.24c-.1.81-.13,1.65.24,1.67,1.16,0,.78-3.42.88-3.36s.3-.07.35-.22C29.23,35.31,28.61,34.94,28.29,35.25Z"/><path class="cls-2" d="M20.73,44.49c-.71,1.3-1,4.3-.49,4.7.26.22.89-.42.91-.65.1-1.16.75-3,.24-4.21C21.31,44.14,21,44.33,20.73,44.49Z"/><path class="cls-2" d="M11.55,49.12c-.4-.16-.64.4-.81.65a8.59,8.59,0,0,0-.61,3.63c-.06.36-.05.73.37.69,1.45-.14,1.18-4.22,1.29-4.21C12,49.73,11.73,49.19,11.55,49.12Z"/><path class="cls-2" d="M9,43.86c0,.1-.42.51-.55.69a5.57,5.57,0,0,0-.38,2.61v0c0,.42.09.73.34.71,1.11-.06,1-3.18,1.09-3.28C9.7,44.19,9.31,43.82,9,43.86Z"/><path class="cls-2" d="M12.91,60.12c-.42,1-.54,3.81,0,4.09s1.1-3.57,1-4.24C13.85,59.67,13.16,60,12.91,60.12Z"/><path class="cls-2" d="M16.24,53.65c-.61.58.05,3.18.64,3.24.91.1.08-2.75.07-2.86S16.45,53.69,16.24,53.65Z"/><path class="cls-2" d="M20.36,61.47c-.29,1-.36,3.24.13,3.33.67.12.88-3.1.89-3.4S20.58,61.39,20.36,61.47Z"/><path class="cls-2" d="M28.52,54.09a.33.33,0,0,0-.23.16c-.63.56-.91,4.29-.24,4.25,1.24-.07.81-3.63.81-3.63C29,54.61,29,54.08,28.52,54.09Z"/><path class="cls-2" d="M24.62,49.44l-.08.2a22.15,22.15,0,0,0,0,2.33l.06.43.21,0c.16,0,.44-.17.55-.16.6-.49,0-2.33.14-2.35a.38.38,0,0,0,.07-.7C25.28,49,24.62,49.44,24.62,49.44Z"/><path class="cls-2" d="M31.64,41.6c-.55-.08-1.09,1.26-1.09,1.26l0,.11c-.09.49-.39,3.34.76,2.94s.23-3.16.32-3.23C31.88,42.46,32.35,41.71,31.64,41.6Z"/><path class="cls-2" d="M37.51,36.28c.06.09.31,0,.42,0a2.55,2.55,0,0,0,.23-.19s.17-.09.11-.09,0-.59,0-.64,0-.23,0-.38h-.92c.07.39.14.69.14.72S37.52,36.18,37.51,36.28Z"/><path class="cls-2" d="M46.06,35h-.87a.9.9,0,0,0,.24.5C45.73,35.78,45.92,35.51,46.06,35Z"/><path class="cls-2" d="M42.09,38c-.83.33-.67,2.58-.67,2.58l0-.26c0,.48.06.87.4.84.83-.08.78-2.36.9-2.45C43.07,38.26,42.34,37.94,42.09,38Z"/><path class="cls-2" d="M37,44l.1-.08c-.26-.1-.46.12-.6.49l0,0,0,0c-.31.83-.29,2.39.17,2.69.68.43.25-2.42.41-2.4s.41-.51.23-.72S37.14,44,37,44Z"/><path class="cls-2" d="M39.77,50.94c-.11-.06-.31,0-.45.08a1.91,1.91,0,0,0-.15.71c0,.33-.36,2.7.11,2.87.87.3.81-2.67.82-2.83s-.07-.27-.05-.48S39.86,51.06,39.77,50.94Z"/><path class="cls-2" d="M33.29,54.65c-.12.81-.14,2.77.63,2.46.3-.13.5-2.92.43-3C34.15,53.77,33.47,54.46,33.29,54.65Z"/><path class="cls-2" d="M31.52,64.6l.16-.84a4.54,4.54,0,0,0-.18.83l-.12.73a.34.34,0,0,0,0,.1c0,.13,0,.21,0,.21l0-.12c-.23,2,2.21-1.8,1.19-2.51C32.07,62.67,31.72,63.73,31.52,64.6Z"/><path class="cls-2" d="M26,62.94c-.46.14-.61.92-.66,1.55s-.1,1.11.15,1.26c.43.26.77-1.29.78-1.4C26.3,64,26.94,62.66,26,62.94Z"/><path class="cls-2" d="M36.59,69.9c-.12.13-.1.52-.1.52l.08-.27c0,.36-.47,2,.09,2.09.29,0-.16.88.13.86.91,0,.6-2.69.66-2.79C37.68,70,36.8,69.68,36.59,69.9Z"/><path class="cls-2" d="M39,61.58l-.07.19c0,.24-.16,3.15.87,2.64.44-.22-.2-2-.26-2.25s.9-.23.37-.81C39.73,61.11,39,61.58,39,61.58Z"/><path class="cls-2" d="M45.25,67.21a2.37,2.37,0,0,0-.2,1l.14-.52c-.18.69-.5,3.4.31,3.11s.54-3,.65-3.11C46.38,67.27,45.55,66.83,45.25,67.21Z"/><path class="cls-2" d="M52.09,70.69s0,.11-.06,0-.31-.56-.64-.41c-.64.3-.52,1.89-.47,2.29s.13,1,.69.7.46-2.39.46-2.39Z"/><path class="cls-2" d="M49.42,61.4c.17-.26-.7-.5-.87-.31s-.08.74-.08.74v.1a16.39,16.39,0,0,1-.15,1.89c-.4.61.5.8.85.41C49.79,63.56,49.36,61.5,49.42,61.4Z"/><path class="cls-2" d="M44.26,57.57c-.16-.09-.44.09-.59.19-.31.49-.23,1.57.29,1.68.28.06.49-.69.47-.8C44.36,58.34,44.59,57.74,44.26,57.57Z"/><path class="cls-2" d="M48.89,50.21l0,.21c0,.32-.27,3.64.52,3.87.29.08.69-.56.69-.56-.07-.76.09-3.34-.43-3.86C49.44,49.68,48.89,50.21,48.89,50.21Z"/><path class="cls-2" d="M46.53,45.19c-.27,0-.59.57-.59.57l-.4,2.08c0,.36.45.68.78.3.46-.54.54-2.07.65-2.16C47.41,45.62,46.6,45.19,46.53,45.19Z"/><path class="cls-2" d="M52.18,39a1.34,1.34,0,0,0-.16.33c0,.43-.39,3,0,3.25,1.12.66,1-3.1,1-3.29S52.45,39,52.18,39Z"/><path class="cls-2" d="M63.18,37.74c-.85.76-.48,4.72.42,4.38s.3-3.1.31-3.89C63.91,38,63.37,37.8,63.18,37.74Z"/><path class="cls-2" d="M69.42,38.05c.91,1.13,1.17-1.73.88-3h-1c0,1,.09,2.93.09,2.93Z"/><path class="cls-2" d="M77.88,40.09A7.4,7.4,0,0,0,78,42.48a10.61,10.61,0,0,1,.2,1.51c-.44.95.94.33,1-.53.06-.48-.37-3.64-.75-3.89C78.3,39.44,78,39.86,77.88,40.09Z"/><path class="cls-2" d="M115.76,35h-.17A.47.47,0,0,0,115.76,35Z"/><path class="cls-2" d="M123.16,36.56c0,.08,0,.22.16.23s.67-.35.66-.25a.52.52,0,0,0-.07-.32c0-.08-.09-.22-.12-.33s-.11-.52-.17-.86h-1a6.86,6.86,0,0,0,.47,1.42Z"/><path class="cls-2" d="M122.32,42.2c-.23.11-.27.71-.27.71l0,0c-.13,1,.3,2.69.81,3,.27.15.61-.68.59-.78-.16-.76-.47-2.28-.46-2.39C123,42.38,122.63,42,122.32,42.2Z"/><path class="cls-2" d="M127.29,46.33c-.18-.11-.55.07-.65.12s-.06.33-.14.32.17.34.2.44c.3,1.26.38,2.85,1,3.83a.71.71,0,0,0,.85,0c.17-.24-.22-.87-.25-1C128.2,49.47,128.07,46.85,127.29,46.33Z"/><path class="cls-2" d="M132.52,49c-.06-.27-.59-.32-.91-.33a2,2,0,0,0,0,.66,37.3,37.3,0,0,1,.9,4.45c0,.28.16,1,.6,1s.15-1.74.15-1.9A32.37,32.37,0,0,0,132.52,49Z"/><path class="cls-2" d="M137.55,58.54c0-.43.35-1.59-.23-1.82-.09,0-.19,0-.28.12l.06-.09c-1,.14-.2,4.4-.2,4.48,0,.25.07.75,0,.79-.44.17.07,1,.45.74s.52-2,.44-2.6S137.54,58.65,137.55,58.54Z"/><path class="cls-2" d="M131.7,61.74c0-.32-.95.11-.95.11l.24-.47c-1.63.86.37,5.52.41,5.63.13.34.6.55.79.08.58-1.43-.31-3.06-.45-4.6C131.72,62.28,131.69,61.85,131.7,61.74Z"/><path class="cls-2" d="M117.82,67.37c0-.15-.47-.52-.67-.39s-.1,1-.1,1l.08-.74c-.15,1.37-.32,5.31.86,5.82.3.13.51-.79.5-.9-.12-1-.24-2.07-.37-3.11C118.07,68.48,117.84,67.48,117.82,67.37Z"/><path class="cls-2" d="M97.44,68.92c-.35-.14-1,.45-1,.45l.17-.13c-.66.52-.73,4.2.11,4.69.28.17.61-.78.61-.89,0-.71,0-1.41,0-2.12,0-.36-.06-1.06.06-1.13C97.64,69.65,97.9,69.11,97.44,68.92Z"/><path class="cls-2" d="M88.2,65.08c-.13-.28-.81.27-1,.4-.21,1.1-.42,3.21.78,3.29.63,0,.06-1.3,0-1.58C88,66.67,88.37,65.46,88.2,65.08Z"/><path class="cls-2" d="M91.7,71.18c0,.52-.32,2.73,0,3s.86-1.29.86-1.29l0-.23a3.93,3.93,0,0,0-.11-1.9C92.31,70.5,91.7,71.07,91.7,71.18Z"/><path class="cls-2" d="M113.3,64.34c-.07,1,0,3.23.88,3.6.29.13.51-.79.49-.9a15.69,15.69,0,0,0-.48-3.13C114,63.63,113.35,64.3,113.3,64.34Z"/><path class="cls-2" d="M118.56,57.21c-.08-.19-.48-.2-.68-.2-.35,1-.36,4.72.4,4.52s1.44-1.61.43-3.14C118.52,58.1,118.62,57.32,118.56,57.21Z"/><path class="cls-2" d="M125.06,55.1c0-.21-.48.08-.7.25a2.49,2.49,0,0,0-.07.52c.27,1.44.79,4.32.81,4.43.1.44.8.22.84-.23a13.64,13.64,0,0,0-.58-3.24C125.26,56.29,125.07,55.21,125.06,55.1Z"/><path class="cls-2" d="M127.52,65.12c-.14,0-.27.25-.33.39l.11-.28c-.39.21,0,1.34,0,1.45,0,.34.17.95.59.48.07-.07.25-1,.32-1S127.93,65.17,127.52,65.12Z"/><path class="cls-2" d="M121.42,52.29c-.13-.5-.48-3.67-1.09-4.37-.19-.22-.63.4-.76.6a18.12,18.12,0,0,0,.91,3.9c.06.24.2,1,.53,1.09s.4-.7.5-.69,0-.21,0-.32S121.45,52.39,121.42,52.29Z"/><path class="cls-2" d="M115.17,42.24c-.19,1,0,3.59.73,3.52.46,0,.38-3.37-.12-3.83C115.63,41.79,115.35,42,115.17,42.24Z"/><path class="cls-2" d="M119.61,40.53c-.09-.62-.42-1.84-.43-2s-.42-.15-.67-.11a5.91,5.91,0,0,0,.42,2.73l.09.12c.23.15.68-.46.7-.56v-.11S119.62,40.64,119.61,40.53Z"/><path class="cls-2" d="M110.85,51.78l.27-.21c-1.22.26,0,3.74,0,3.74a1.24,1.24,0,0,0,0,.43,1.5,1.5,0,0,1,.09.22c.21.57.64.29.91-.12.71-1.11-.32-4-.42-4S110.85,51.78,110.85,51.78Z"/><path class="cls-2" d="M106.74,37.15l.06-.54c0,.26-.08,2.21.6,1.36s.37-1.94.49-2.94h-1.21A9,9,0,0,0,106.74,37.15Z"/><path class="cls-2" d="M101.33,35.2c-.33,0-.71.67-.71.67l.56-.51a4.32,4.32,0,0,0-1,3.43,12.08,12.08,0,0,0,.2,2.2c.22.14.76.24,1-.06s-.14-.65-.13-.76c.1-1.39.34-4.2.34-4.2C101.58,35.79,101.63,35.22,101.33,35.2Z"/><path class="cls-2" d="M107.65,45.62c-.09-.28-.65-.2-1-.12a4,4,0,0,0,0,.65c0,.41.63,4.49,1.55,4.3.42-.08.24-1.24.21-1.35C108.12,48,108,46.71,107.65,45.62Z"/><path class="cls-2" d="M112.66,36.48a.37.37,0,0,1,0-.21c0-.13-.29-.25-.28-.35a.07.07,0,0,1-.11.06A.36.36,0,0,0,112,36l.17-.11c-.18-.09-.29,0-.35.23h0a7.43,7.43,0,0,0,.1,2.15c0,.17,0,.53,0,.64a.59.59,0,0,0,.21,0,2.65,2.65,0,0,1,.54,0c0-.07-.08-.22,0-.31s-.07-.33-.07-.44A14.69,14.69,0,0,0,112.66,36.48Z"/><path class="cls-2" d="M108.44,57.16c-.15-.3-1-.32-1-.32l.28-.25c-1.35.7.26,4.55.26,4.55s.06.43,0,.54c.27.1.78-.35.82-.24s0-.32,0-.42C108.75,59.82,109,58.26,108.44,57.16Z"/><path class="cls-2" d="M100.19,53.29c-.08,0-.2,0-.3.12l.08-.09a.11.11,0,0,0-.08.09,2,2,0,0,0-.24.25l.24-.24c-.08.27.32,1.06.08.91s.27,3.62,1.36,4.17c.31.16.52-.9.48-1C101.39,56.37,101.23,53.82,100.19,53.29Z"/><path class="cls-2" d="M98.5,45.93c0-.29-.35-.67-.69-.5s-.29.71-.29.71l.2-.51c-.2.51-.66,4.69.67,4.31.55-.15.17-1,.16-1.36C98.53,47.73,98.49,46,98.5,45.93Z"/><path class="cls-2" d="M103.82,48.72c-.28,0,.51-.63.3-.82s-.53.22-.7.43c-.16.78-.19,2.14.4,2.4.3.13.61-.78.6-.89C104.37,49.18,104.53,48.79,103.82,48.72Zm-.15,1.36s.12-.09.12-.09Z"/><path class="cls-2" d="M94.21,38.37c-.1-.33-1,.43-1,.43l0,.21c0,.29-.5,4.58.75,4.74.36,0,.42-1,.41-1.12A24.67,24.67,0,0,0,94.21,38.37Z"/><path class="cls-2" d="M89.27,35.94c.13.26.86-.12,1-.11s0-.11,0-.11a1.46,1.46,0,0,1-.08-.69h-1A1.91,1.91,0,0,0,89.27,35.94Z"/><path class="cls-2" d="M84.69,36.2c0,.81.83.42,1.07-.1A4.32,4.32,0,0,0,86,35H84.66A11.59,11.59,0,0,0,84.69,36.2Z"/><path class="cls-2" d="M84.91,42.05c0,.18,0,.54,0,.64,0,.56,0,3.27.84,3.06.66-.18.4-3.28.2-3.9C85.89,41.5,84.91,42.05,84.91,42.05Z"/><path class="cls-2" d="M89.85,42.47c-.18-.25-.69.29-.89.53-.46,1.76.31,4.43.43,5.58a5.72,5.72,0,0,1,.06.73c0,.8.91.58,1-.11a52,52,0,0,0-.59-5.36C89.79,43.53,90,42.67,89.85,42.47Z"/><path class="cls-2" d="M101.38,60.84c.13-.28-.92-.2-.92-.2l-.06.21c0,.92,0,4.13,1.25,4.16.94,0-.32-2.3-.37-2.59A6.08,6.08,0,0,1,101.38,60.84Z"/><path class="cls-2" d="M94.37,53.4l-.28,1.46c-.07.67-.52,3.71.25,3.63.45-.05,1.16-4.35.92-4.67A.86.86,0,0,0,94.37,53.4Z"/><path class="cls-2" d="M93.27,65.74l0-.1c-.11-.65,0-3.08-.76-3.58-.23-.14-.59.57-.57.68.15,1.11.46,3.34.45,3.44l0,.21c.07.3.88-.33.88-.33v.1l.12-.09-.1-.12Z"/><path class="cls-2" d="M87.16,53.35l.17-.07a.34.34,0,0,0-.45.2h0c-.53.92,0,4.36.86,3.91.59-.3.29-3.53-.21-4C87.46,53.27,87.31,53.3,87.16,53.35Z"/><path class="cls-2" d="M82.72,50.72c.13-.24-.64-.22-.88-.21-.51.89-.19,3.13-.18,3.6,0,.29.19.87.18,1l0,.11c.05.13.34.25.45.26a.63.63,0,0,1,.22-.11c1.06-.24.1-2.18,0-3.25A3.59,3.59,0,0,1,82.72,50.72Z"/><path class="cls-2" d="M75,49c-.24,1.07-.37,3.78.6,3.45.45-.15.47-3.62,0-3.92C75.36,48.36,75.1,48.71,75,49Z"/><path class="cls-2" d="M69.38,43.76a16,16,0,0,0,0,4c.86,1.55,1.67-4.09.81-4.69C69.92,42.85,69.56,43.43,69.38,43.76Z"/><path class="cls-2" d="M64.28,47a8,8,0,0,0,0,1.56,8.34,8.34,0,0,1-.14,1.89c-.15.29.4.8.66.71.66-.23.67-4.27.5-4.72S64.41,46.84,64.28,47Z"/><path class="cls-2" d="M58.55,45.72c-.12-.26-.86.12-.86.12s0,.42,0,.53c-.11,1-.22,4.76.81,4.32.32-.13-.34-1.09,0-1,.84.08,0-1.7,0-2.55C58.49,46.78,58.68,46,58.55,45.72Z"/><path class="cls-2" d="M54.93,53.93c-.12-.31-1-.21-1-.21s0,.42,0,.53c.14.79.12,4.26.79,4.32.31,0,.38-.37.34-.63,0,.07.08.15.13.15.21,0,0-.43-.06-.64C55.07,56.27,55.34,55,54.93,53.93Z"/><path class="cls-2" d="M56.86,62.72c0-.29,0-.63-.35-.68-.1,0-.19.08-.27.19l0-.1c-.85.31-.25,5.77.7,5.37.73-.3,0-3.18,0-3.39C56.92,63.65,56.86,62.72,56.86,62.72Z"/><path class="cls-2" d="M72.9,67.38c0-.28-.83-.19-.83-.19l0,.32v.1a30.9,30.9,0,0,0,.34,3.22c.06.64.18,1.92.16,2s.11,0,.12.12a1.2,1.2,0,0,0,.25.45c.21.21.6-.68.59-.79-.11-1.15-.22-2.28-.34-3.43C73.1,68.63,72.89,67.49,72.9,67.38Z"/><path class="cls-2" d="M81.69,64.82l.2-.27c-1,.54,0,3.46-.16,3.56s.39,1,.63,1,.44-.47.5-.69a5.79,5.79,0,0,0-.44-3.86C82.27,64.37,81.69,64.82,81.69,64.82Z"/><path class="cls-2" d="M84.59,59.08c-.24-.11-.57.58-.57.58l0,.1v.11c0,.41-.43,2.59.12,2.77s.55-1.22.65-1.15C85.43,61.91,85.32,59.42,84.59,59.08Z"/><path class="cls-2" d="M77.06,58.18c-.14-.18-.67.06-.67.06l.26-.21c-1.18.26.15,3.62.24,3.7s.46.41.72.22,0-1.06,0-1.17A21,21,0,0,0,77.06,58.18Z"/><path class="cls-2" d="M69.59,55c.11-.24-.55-.35-.78-.38-.37.91.4,3.85.48,3.91.24.18.7-.63.68-.73C69.83,56.85,69.54,55.05,69.59,55Z"/><path class="cls-2" d="M64.07,55.74c.19-.22-.71-.14-.95-.11a1.6,1.6,0,0,0-.13.42c0,.76-.11,3.56.68,3.47C64.92,59.35,64,55.73,64.07,55.74Z"/><path class="cls-2" d="M60,52.23l0-.1c-.07.61-.48,3.48.55,3.77.49.14.38-3.84.32-4S60,52.23,60,52.23Z"/><path class="cls-2" d="M62.86,64.09c0-.38-.06-.72-.57-.59a.4.4,0,0,0-.19.18v0c-.57.47-1,3.68-.28,4.16.38.25,1.07-.58,1.16-.94.06-.21-.36-.56-.35-.68C62.71,65.49,62.86,64.09,62.86,64.09Z"/><path class="cls-2" d="M68.81,63.66a1,1,0,0,1,0-.32s-.1,0-.2-.06a.16.16,0,0,0-.15,0l0-.05c-.37-.2-.51.19-.57.63v0h0c0,.24,0,.48,0,.65.07,1,.21,2,.31,3,0,.4.07,1.44.76,1.14,1.07-.47.11-2.33,0-3.49C68.94,64.7,68.83,63.77,68.81,63.66Z"/><path class="cls-2" d="M110.46,44.33c-.14-.7-.22-2.14-.3-2.23s-.58-.22-.79-.23a1.68,1.68,0,0,0-.09.54c.07.62-.09,3.54,1.37,2.9C111.38,45,110.51,44.52,110.46,44.33Z"/></g></g></svg>