<svg xmlns="http://www.w3.org/2000/svg" viewBox="0 0 163.63 89.09"><defs><style>.cls-1{fill:#217fad;}</style></defs><g id="Layer_2" data-name="Layer 2"><g id="Header"><path class="cls-1" d="M125.31,39.23c3.33-10.11-4-21.81-14.16-24.93s-21.7,1.35-28.72,9.36C84.31,13.54,76.64,3,66.64.58s-21,2.86-26.45,11.59-5.54,20.21-1.35,29.6A21,21,0,0,0,16.38,30.46,21,21,0,0,0,0,49.57C-1.42,82.89,56.43,90.11,80.1,89c19.57-.93,84.72-6.09,79.77-33.18C157.2,41.15,138.4,32.14,125.31,39.23Z"/><path d="M18.91,52.71c-.76,5.13,1.23,10.15,2.76,14.93a6.17,6.17,0,0,0,.42.74l2.53,4.14c.06.1.74.85,1.09,1.22a20.07,20.07,0,0,0,2.17,1.75,17.74,17.74,0,0,0,6.31,3.07,149.68,149.68,0,0,0,23.68,3.86C64.8,83,72,84,79,83.68c6.35-.31,12.7.23,19.06.56a130.42,130.42,0,0,0,13.41-.14c14-.67,28.28-.22,40.8-7.65,5.35-3.18,10.75-8.34,11.32-15a34.93,34.93,0,0,0-.46-8.3c0-.12-.7-2.13-1.05-3.15-.56-1.68-1.23-3.26-1.94-4.88-2-4.45-4.87-6.31-9.19-8.43-.1,0-1.47,0-2.16-.07-1.43,0-2.83-.09-4.25-.12-5-.15-9.65.41-12,4.31-.06.1.19-2.19.36-3.34.4-2.55,0-3.82-.54-6.59a30.2,30.2,0,0,0-9.09-16.41c-.1-.09-1.76-1.1-2.57-1.62-1.23-.81-3.26-2.78-4.93-3-7.17-1-14.58-1.26-20.84,3.21-.1.08-.88.58-1.23.86a8.56,8.56,0,0,0-2,2.12c-.63,1-1.6,1.85-2.19,2.9-.73,1.32-.62,3.3-1,4.35,0,.13-.1.05-.12,0s-1.71-2-2.53-3a13.79,13.79,0,0,0-5.11-3.65c-6.79-2.76-11.79-3-18.78-1.62a15.12,15.12,0,0,0-5.61,1.78L53,19.72a13.62,13.62,0,0,0-2.57,2.74c-3.4,5.33-4.08,10-3.37,16.27,0,.12-1.12-1.11-1.67-.78-.77.46-3-1.37-4.14-1.34-2.37,0-5.63,1.24-8,1.87l-.12,0s-.92.3-1.37.5a18.83,18.83,0,0,0-2.93,1.41A21.79,21.79,0,0,0,22,46.79C20.82,48.47,19.23,50.54,18.91,52.71Zm1.14,4.1c0-1.24,0-2.5,0-3.75a9.15,9.15,0,0,1,.52-1.87,32.48,32.48,0,0,1,2-3.17c1.86-3,3.87-4.58,6.71-6.71a29.39,29.39,0,0,1,4.14-1.78c2-.59,5.4-1.19,7.92-1.7.11,0,1.92.6,2.81.91s2.83,1.7,3.53,1.62l.1-.13v.12h.13s.61-.45.46-.68a1.43,1.43,0,0,0-.22-.34c-.13-.11,0-1.08,0-1.57-.13-1.07-.21-2.15-.29-3.23a17.08,17.08,0,0,1,1.84-8.68C51,23.19,54.73,18,57.7,17.19s6.21-1.48,9.31-2.26l.12,0,4.73.16a31,31,0,0,1,9,2.75,20.3,20.3,0,0,1,5.81,5.12c.34.4,2,3.19,2.47,2.77,1.39-1.1-.59-3.94.85-5.3a11,11,0,0,0,1.12-1.81,22.85,22.85,0,0,1,2.39-3c1.73-2.09,4.59-3.22,7.22-4,5-1.46,9.79-2.32,14.94-.61,3.17,1,6.86,4.31,9.27,6.71a7.46,7.46,0,0,1,.5.69c1,1.45,2.33,2.7,2.94,4.34a87.07,87.07,0,0,1,3.54,12.06c0,.12-.1,1.67-.17,2.44a14.61,14.61,0,0,0-.36,3.43l.13,1.18c0,.13,0,.38,0,.5s1,.33,1.09,0l0-.12-.24-1.06s1.23.14,1.18-.26a6.82,6.82,0,0,1,1.11-1.14,5.59,5.59,0,0,1,2.72-1.47c3.43-.39,9.87-1.76,13.11-.58.13,0,.55.26.77.37,1.43.73,3.38,1.31,4.45,2.63a31,31,0,0,1,6.36,13.77c0,.12,0,.6.06.84.09,2.17.67,4.39.22,6.51a25,25,0,0,1-1.33,3.91,22.37,22.37,0,0,1-5.3,7.25c-4.85,4-11.29,6.35-17.62,7.83A6.42,6.42,0,0,0,139,78h0c0-.39-.06-.68-.27-.76a.1.1,0,0,0,0,0c-.39-.18-.62.29-.72.57,0,.12-.12,0-.18,0s-.87-.47-1.25-.34c-.88.32-1.23,1.7-.45,2.15a5.93,5.93,0,0,0,1.45,1.32c-1.89.42-3.75.76-5.57,1a22.37,22.37,0,0,0-3,.15,34.82,34.82,0,0,1-6.11.57c-6.09.07-12.25.71-18.33.61C84.07,83,63.67,82.33,43.44,79c-7.31-1.22-18.5-2.52-20.68-11.56,0-.24-.76-2.18-1.11-3.15a58.83,58.83,0,0,1-1.59-5.75C20,58.39,20.06,57.33,20.05,56.81ZM137.36,79.16l-.13-.1A.47.47,0,0,0,137,79c0-.12.15-.09.23-.06s.25.07.26.13Z"/><path d="M146.8,50.38c-.71.85,0,1.91.57,2.59a11.44,11.44,0,0,0,1.56,2c.09.07.85.89,1,.58,0-.12,1.67-.18,1.81-.81,0-.13.75-1,.71-1.54a4.2,4.2,0,0,0-1.27-2l0,.06-.13-.14-.23-.21a4.47,4.47,0,0,0-2.09-.85C148.59,50.17,147.18,49.91,146.8,50.38Zm2.91,1.71c-.07-.1.35.06.56.13l.2,1.73c-.24,0-.29-.05-.31-.08A6.92,6.92,0,0,0,149.71,52.09Z"/><path d="M142.21,65.83Z"/><path d="M139.68,64.38c0,1.19,1.42,2.11,2.17,2.8.09.09.67.59,1,.49l.12,0s2-.41,2.4-1.24a4.18,4.18,0,0,0-.56-3.32l0,0a1.11,1.11,0,0,0-.12-.16c-.11-.11-.24-.46-.39-.44s-.92-.74-1.4-.69c-.3,0-.8.6-.91.83S139.64,63.46,139.68,64.38Zm2.86,1.68.31.21Zm.18-2c.05-.12.81.73.81,1.25,0,1.17-.63,1-1.32.56h0l-.1-.07A6.18,6.18,0,0,1,142.72,64Zm-1.93.23c0-.12.16-.26.29-.28l0,.85Z"/><path d="M153.3,66.09a1.78,1.78,0,0,0-.31,2.22c.09.11.07.36.13.47s1.11,1.85,1.89,1.72c.63-.11,1.13-1.35,1.31-1.85a6.44,6.44,0,0,0,.24-1.48l-.07-.22s-.42-.69-.74-.65C155.63,66.31,153.87,65.57,153.3,66.09ZM155,67.53a.21.21,0,0,1,.25,0l.14.23a.79.79,0,0,1,0,.12l0,.13a1,1,0,0,1-1,.11C154.25,68,154.78,67.7,155,67.53Z"/><path d="M125.83,52.28c0,.24.23,2.73,1.18,2.86.12,0,2.37,1.11,3.07.41s.3-2.63.2-3.53h-.12s-.25-1-.58-.9c-.11.13-.92-.09-1.35-.09a3,3,0,0,0-2.08.89c-.1.08-.07.17-.09.2A.28.28,0,0,0,125.83,52.28Zm3.29,2.29.11-.14,0,.36-.13,0C129,54.7,129.09,54.61,129.12,54.57Zm-2.37-1.67c.12,0,1.38-.32,2-.46l.1.94-1,.67c-.1.07-.71-.69-1-1.06Z"/><path d="M103.71,20.31l.06.22.79,1.1a4.21,4.21,0,0,0,1.84,1.27,1.71,1.71,0,0,0,.43.08c.18,0,.7.16.91.05a10.3,10.3,0,0,1,1-.88,2.52,2.52,0,0,0,.31-2c-.06-.11-.85-1.59-1.58-1.72-.12,0-1.18-.37-1.36,0l-.07.13-.36,0c-.12,0-.85.11-1,.36l-.11.14A2.11,2.11,0,0,0,103.71,20.31Zm1.37-.06c-.08-.09.22-.26.37-.34a3.51,3.51,0,0,1,1.2-.08,5.91,5.91,0,0,1,.53,1.53l-.43.42-.12-.05a3.37,3.37,0,0,1-.56-.39C106,21.26,105.37,20.59,105.08,20.25Z"/><path d="M118.33,20.34c-.22.58.29,2.37,1.17,1.8.11-.13,1.18.16,1.46-.19.08-.11.74-1.46.35-1.95s-1.84-.29-2.33-.31l1.46,0S118.58,19.66,118.33,20.34Zm1.4.6c0-.16.22-.12.35-.1l.13.13s-.18.5-.31.4A.61.61,0,0,1,119.73,20.94Z"/><path d="M105.09,44.35a2.67,2.67,0,0,0,2.58,3.57c.12,0,.52,1,1,1.11,1,.16.28-1.16.13-1.47-.06-.11.5-.57.54-.9a7.51,7.51,0,0,0,0-1.64l.08.29s0-.31-.14-.66a.83.83,0,0,0,0-.15,3.28,3.28,0,0,0-.18-.53.64.64,0,0,1,0-.07V44l-.08-.16c-.08-.11-.36-1.07-.66-.93-.11,0-.84-.34-1.24-.31A3.09,3.09,0,0,0,105.09,44.35Zm1.15.54c-.12.07,1.16-1.51,1.43-1l.28,2.14S106.82,44.51,106.24,44.89Z"/><path d="M114.16,71c.12-.06,1.61-.85,1.64-1.57a2.17,2.17,0,0,0-.36-1.22,2.26,2.26,0,0,0-.19-.41c-.58-1-2.5-2.55-3.72-1.87C109.13,67.2,111.77,72.33,114.16,71Zm-2-4c.77-.61,1.89,1.38,2.1,1.81a2.23,2.23,0,0,1,0,1l.2-.63s-.1.66-.35.83-.88-.45-1.24-.29C112.7,69.75,111.38,67.51,112.13,66.91Z"/><path d="M123.75,77.56A1.72,1.72,0,0,0,125,79.11c1,.2,2.86-1.16,2-2.16-.07-.08,0-.45-.06-.68l.13.19a1,1,0,0,0-.13-.19c0-.1,0-.17-.12-.18l.11.16a.5.5,0,0,0-.24-.2,5.52,5.52,0,0,0-1.87-.55c-.12,0-.36.77-.48,1.15C124.37,76.65,123.74,77.19,123.75,77.56Zm2-.71.08.23-.24-.46C125.57,76.51,125.71,76.74,125.79,76.85Zm-1,.71c0-.12.15.19.23.34l.06.11A1.14,1.14,0,0,1,124.84,77.56Z"/><path d="M134.8,47c.09.86.45,2,1.46,2.22.12,0,0,.92.35,1s.52-.31.6-.55,1.77-.95,1.68-1.7c0-.18.06-.57,0-.76l0,.17s0-.25,0-.32a14.64,14.64,0,0,0-2-1.41c-.11-.05-.34,0-.46.09S134.72,46.36,134.8,47Zm2.57.07c0-.11.23.07.24.22l-.09.25Zm-1.56.3a.21.21,0,0,1,.19.1l-.05.07S135.76,47.44,135.81,47.39Z"/><path d="M127.87,67.53c.08.12,0,1.16.24,1.55.48.68,1.16.38,1.7.1.12-.06,1,.25,1.09-.05.45-1.39-.42-2.38-.81-3.42l.26.7s-.85-1.72-1.65-1.75C127.31,64.61,127.45,66.87,127.87,67.53Zm1-.23.14.11Zm-.37-1.17c.11-.13.15,0,.18,0l-.17.14C128.41,66.38,128.45,66.2,128.5,66.13Z"/><path d="M116.6,58.29s.36.85.58,1.27c.06.11,1.13.4,1.41,0a5.69,5.69,0,0,0-.07-1.41,9.17,9.17,0,0,1,.73-1.45,1.82,1.82,0,0,0,0-.9c-.25,0-.61-.07-.76.08s-.44-.48-.69-.68a3.31,3.31,0,0,0-2.93-.27C113.78,55.69,116.21,57.87,116.6,58.29Zm-.7-2.49c-.08-.08,1.16,0,1.43.47l.13,1.07Z"/><path d="M122.24,41.92a1.9,1.9,0,0,0,.6,2.11c1.85,1.52,3.58-.63,1.65-2.16l-.09-.08v-.12c.11,0,.44-.91.13-1C124.4,40.7,122.57,41.16,122.24,41.92Zm2,1.23c0-.12.08,0,.12,0l.13.11s-.12.34-.21.26S124.2,43.23,124.19,43.15Zm-1.74-.41v.12S122.41,42.74,122.45,42.74Z"/><path d="M99,30.65a2.81,2.81,0,0,0-.31,1,3.24,3.24,0,0,0,2.18,2.15c.12,0,1.76,1.47,2.41,1s-.14-1.72-.34-2.26l-.05-.12s-.16-2.29-1-2.66A2.13,2.13,0,0,0,99,30.65Zm1.4.1c-.12,0,1.2-.07,1.26.4,0,.16-.2.64,0,.77l.14.11,0,.32-.31.43-.18-.22C101.19,32.45,101,30.84,100.39,30.75Z"/><path d="M91.59,21.71l0,.22s0,1.17.49,1.34c.12,0,.36.94.73,1.11.13.06,2.24,1,2.94.35s0-1.1-.35-1.55c-.08-.1-.53-2-1.25-1.9C93.87,21.3,92.07,21.11,91.59,21.71Zm1.4.9c-.07-.11.32-.22.52-.27s.26.1.32.18l-.76.21Z"/><path d="M88.19,37.32c.31.94,2.85,1.82,3.36.83.35-.68-.83-.69-1.17-.7-.12,0,.1-.52.22-.78a2.42,2.42,0,0,1,.49-.45,1.6,1.6,0,0,0,.23-1,.68.68,0,0,0-.23,0c-.12,0-1.47-.76-2-.38A2.47,2.47,0,0,0,88.19,37.32Zm1.47-1.62a.17.17,0,0,1,.15-.14l.12,0v.06a.92.92,0,0,0-.23.15C89.61,36,89.64,35.79,89.66,35.7Z"/><path d="M94.62,47c-.5.49-1.2,2.37-.18,2.68.12,0,2,.89,2.83.4a1.18,1.18,0,0,0,.59-1c-.13-.23-.9-1.58-1.63-1.77-.13,0-.24-.43-.42-.48S94.85,46.78,94.62,47Zm1.71,1.62,0-.13c0-.12.39.21.41.44l0,.12s-.32.09-.47.15S96.28,48.82,96.33,48.62Z"/><path d="M96.35,40c-.11.07.08,1.8.74,2.16.35.19,1.76.21,1.39-.53-.13-.1.1-.54.2-.76l0-.23s-.61-1.46-1.23-1.43C97.2,39.17,96.59,39.79,96.35,40Zm.69.71.28.33S97.06,40.81,97,40.67Z"/><path d="M101.51,71.38c.6-.34,1.91.87,1.91.87l0,.12a5.34,5.34,0,0,1,0,1.09c.07.68-.68,1.08-1.19,1.23-.33.09-.8-.64-.94-.74l-.09-.08A1.51,1.51,0,0,1,101.51,71.38Z"/><path d="M108.42,81.12c0,1,.8,1.69,1.6,1.31.12-.05,1,.35,1.15,0a4.65,4.65,0,0,0-.17-1.71l.28.39a4.69,4.69,0,0,0-.35-.62.86.86,0,0,0-.45-.5l0,0a.6.6,0,0,0-.16-.08c-.12,0-.64-.46-.88-.33S108.44,80.59,108.42,81.12Zm1.11.12c0-.12.07.11.11.23l0,.11C109.57,81.6,109.54,81.36,109.53,81.24Z"/><path d="M89,68.94a.62.62,0,0,1,.06.23s.93,1.11,1.55,1c.14,0,1.6-.37,1.9-1,.06-.11.46-.71.34-1l.1.23s0-.29-.13-.35h-.12a7.36,7.36,0,0,0-1-1.24A3.37,3.37,0,0,0,90,66.77,1.79,1.79,0,0,0,89,68.94Zm1.11-.13c0-.24.27-.27.42-.29s.32.29.4.44l-.69,0s-.09,0-.12,0Z"/><path d="M86.32,57c0,.12-1.26,1.4-.84,1.91.1.11.3.69.54.82a.69.69,0,0,1,.21.18c.07.11.65.19.93.23.12,0,1.58.14,2-.32a2.11,2.11,0,0,0,0-2.3L89,57.43c-.13-.1-1.45-1.2-2-.85C86.89,56.71,86.42,56.82,86.32,57Zm.75,1.24c.1-.13.59-.11.83-.11a.11.11,0,0,1,.13.12l-.79.46s-.09-.24-.14-.35Z"/><path d="M78.78,47.1a2.17,2.17,0,0,0,.71,1.76l.1.09s.49.43.77.39c.12,0,1.79-.2,1.73-.8a4.72,4.72,0,0,0,0-1.93c-.07-.11,0-.85-.29-1a1.4,1.4,0,0,0-1.56.1C80.07,45.75,78.86,46.48,78.78,47.1Zm2,.74s.09,0,.12,0Zm-.26-1.18a.68.68,0,0,1,.37.08Z"/><path d="M73.17,31.89c-.76.85.89,2.17,1.43,2.64.09.09,1.44,1.22,2.13.95,1-.38.79-1.45.82-2.27L77,32.9s-.52-.82-.94-.84a3.78,3.78,0,0,0-.62-.07h-.12C75.24,32,73.63,31.38,73.17,31.89Zm2.1,1.45c.11-.13.36,0,.49,0l0,.18s-.16.11-.23.09a.44.44,0,0,1-.2-.16Z"/><path d="M78.74,23.15c0-.25,0-.73,0-.85.24-2.19,2.15-.81,2.6.67.11.35.08,1.84-.25,2.09s-1.08.12-1.19.16c-.41.15-1.16-.62-1.18-.74,0-.29,0-.85,0-.85l0-.36Z"/><path d="M67,19.28c0,.13-.78.78-.66,1.17a3.63,3.63,0,0,0,2.77,2c.12,0,.19.1.25.09a3,3,0,0,1,1.2-.14,3.13,3.13,0,0,0,.14-1.68l.37.9s-.29-1.54-.92-1.77c-.13,0-.86-.69-1.29-.64C68.7,19.21,67.16,18.74,67,19.28Zm2,1.38c.12-.05.46.11.63.19a1.32,1.32,0,0,1,.42.5v.12l-.74-.12c-.12,0-.44-.39-.6-.58S68.88,20.72,69,20.66Z"/><path d="M62.37,25.25a1.68,1.68,0,0,1,.47.65,2.84,2.84,0,0,1,.55.81c.17.58-.78,1.66-.78,1.66-.59.15-1.76-.52-1.87-.6-.67-.44-1.51-1.13-.71-1.89C60.51,25.43,61.73,24.83,62.37,25.25Z"/><path d="M65,37.72l.12.08,0,0a2,2,0,0,1,1.2,1.68c.07.54-.81,1.42-.79,1.6.17,1.47-2.5-.26-2.77-.95s.83-2.28.94-2.41C63.92,37.37,64.88,37.67,65,37.72Z"/><path d="M68,51.6c.08.11,0,.28,0,.37v.24s.56.92,1,1c.12,0,.29.11.38.12s1.19-.06,1.52-.41.56-1.76-.07-1.69c-.12,0-.86-.46-1.28-.58,0,0,0-1-.37-1.17s-.62.3-.82.49S67.7,51.18,68,51.6Zm1.45.44c0-.12.14-.09.23-.06l0,.15-.12,0C69.43,52.16,69.42,52.08,69.42,52Z"/><path d="M77.49,62.38s.12,0,.25.09.15.22.25.33a2.44,2.44,0,0,1,.21.46,5,5,0,0,1,.08.72l0,.13c0,.08,0,.24-.17.29a.86.86,0,0,0-.3.22c-.11.18-.34.55-.48.56s-.57.07-.62.19-.82-.27-1-.34-.28-.36-.28-.36l0-.36v-.12A2.49,2.49,0,0,1,76,62.42C76.41,62.1,77.49,62.38,77.49,62.38Z"/><path d="M80.93,73.51c.77,0,.74,2.19.67,2.3a3.58,3.58,0,0,1-.93.73c-.25.09-.75-.28-.88-.33-.3-.11-.65-.71-.65-.71v-.23A4.86,4.86,0,0,1,80.93,73.51Z"/><path d="M91.55,78.57c.57-.21,1.69.67,1.69.67l.1.21c0,.62-.64,1.77-.51,1.84.72.36-.23.93-.59,1.19-.58.43-1.69-1.68-1.69-2.11A2.1,2.1,0,0,1,91.55,78.57Z"/><path d="M68.8,74.26A3,3,0,0,0,68.5,76c0,.11,0,1.06.31,1.32a3.59,3.59,0,0,1,.18.8c0-.12.18.4.42.43.54.1.65-.63.61-1l0-.15a7.48,7.48,0,0,0,1.15-2.72l.22.26a3,3,0,0,0-.22-.31c0-.23-.1-.38-.33-.35l.11.13a.42.42,0,0,0-.28-.11c-.15,0-1.25-.27-1.73-.05Zm.49,1.15c0-.12.14-.18.22-.23l.09.8s-.06-.28-.16-.34S69.3,75.49,69.29,75.41Z"/><path d="M60.61,65c-1.2,1.63.46,3.11,1.94,3.27.12,0,1.08-.4,1.24-.84a3.4,3.4,0,0,0,0-1.65,2.8,2.8,0,0,0-.82-1S61.08,64.38,60.61,65Zm1.15.54c.11-.07.43.19.63.23,0,0,.17.31.24.46l.11.47s-.9-.93-1.16-.6C61.47,66.26,61.54,65.69,61.76,65.56Z"/><path d="M55.94,53.82a3.53,3.53,0,0,0-.65,2.73c.47,1.15,1.45.66,2.19.18.12-.08.28,0,.37,0s.39.68.68.64c.46,0,.63-.79.41-1.13-.07-.11.23-.63.12-.86a2.71,2.71,0,0,0-.13-.57,1.13,1.13,0,0,1-.1-.13s-.78-1.52-1.52-1.62A3.33,3.33,0,0,0,55.94,53.82Zm1.49.31c.12,0,.69.65.44.68a2.88,2.88,0,0,1-.27-.41c0-.06-.07-.11-.1-.16Zm-1,1.94-.05.12v-.12C56.31,56,56.35,56,56.38,56.07Z"/><path d="M55.32,43.34c.37.38,1,1.23,1,1.23h.12c.16.1.66-.3.83-.21.58.32-.26,2-.38,2a2,2,0,0,0-.64.4c-.14.28-.92-.26-1-.32-.94-.44-2-1.67-1.18-2.82C54.28,43.28,55.22,43.25,55.32,43.34Z"/><path d="M54,35c.11-.07,1-.38.84-.64-.08-.11.86-.52.92-.95a1.46,1.46,0,0,0-.93-1.44l.9,1.32s-1.25-1.71-2-1.35C52,32.82,52,36.28,54,35Zm.77-1.72s.15-.1.12-.07Zm-1.47.9a4.27,4.27,0,0,1,.34-.56c.07-.1.37.33.61.4v.06l-.95.19Z"/><path d="M46.35,53.52a.65.65,0,0,0,.24,0c.12,0,.6.45.91.48.12,0,1.26-1.1,1.24-1.81a3.62,3.62,0,0,0-1.18-2.1l.21.37c-.31-.38-.65-.63-1-.47C44.93,50.94,44.52,52.85,46.35,53.52ZM47,51.3c.08-.1.09,0,.1,0l-.11.13s-.14.08-.16.14l0,.13C46.63,51.73,46.85,51.45,47,51.3Zm-.87,1.1.11-.14,0,.24Z"/><path d="M39.06,43c.19-.24.56-.71.68-.73.36-.11,1,.5,1.14.48s.22.34.22.34L41,42.82a2.34,2.34,0,0,1,.24,1.38,7.07,7.07,0,0,1-1.12,1.14A6.09,6.09,0,0,0,39,45.4c-.28.17-1-.19-1.12-.3-.31-.52.15-1.83.13-2.07S39,43,39.06,43Z"/><path d="M27.42,47.74c-.41.64-.89,3.93.33,4,.86,0,.5-2.6.5-3,0-.12,1.1,2.38,2.06,2.06,1.19-.39.88-2.32.53-3.08-.05-.12.53-1.2.38-1.74l0-.12s-.34-.82-.71-.89c-.12,0-.66.23-.93.32a4.06,4.06,0,0,0-1.28,1.51C28.29,46.92,27.63,47.41,27.42,47.74Zm1.85.28c0-.12.23-.09.35-.07h.12l.19,1.68A5.92,5.92,0,0,1,29.27,48Z"/><path d="M23.19,58.39c-.09,1.06,1.63,2.32,2.64,2,.32-.11,1.27-1.12,1.18-1.59,0,0-.21-.21-.35-.2s-.05-.88-.32-1.17C25.62,56.63,23.28,57.29,23.19,58.39Zm2,.26.28.33-.26-.13C25.05,58.78,25.12,58.69,25.15,58.65Z"/><path d="M35.59,55.77c0,.12-.82,2.2-.16,2.8.81.74,2.12,0,2.44-.88a2,2,0,0,0,.3-.52,17.38,17.38,0,0,0-.07-2.31c-.18-.39-.45-.84-.77-.86C36.63,54,35.73,55.17,35.59,55.77Zm1.23.59a.39.39,0,0,1,.15-.2l.09.05s-.28.45-.14.62l.12,0c-.1.14-.18,0-.24,0S36.78,56.52,36.82,56.36Z"/><path d="M44,62c-.74,1.49,1.73,2.39,2.78,2.11.12,0,.51.76.8.63.47-.23.29-.69.24-1.11,0-.13.33-1.23,0-1.58l.2.22-.3-.33c-.11-.11-.11-.57-.29-.64s-.61-1.14-1.1-1.14C45.65,60.1,44.33,61.37,44,62Zm1.92.87a2.4,2.4,0,0,1,.24-1l.11-.13Z"/><path d="M51.86,73.09c.11.06,1.92.87,2.44.28a1.94,1.94,0,0,0,.43-1.51h0V71.8a3,3,0,0,0-.11-.5,3.14,3.14,0,0,0-.33-.91c-.05-.07-.1-.15-.16-.22a4.06,4.06,0,0,0-.25-.41L54,70a1.8,1.8,0,0,0-2.3-.65C49.77,70.38,50.21,72.23,51.86,73.09Zm.81-2.56.1.11s-.07.49-.12.73-.79-.14-1,.12S52.31,70.14,52.67,70.53Z"/><path d="M38.32,71.35c-.1.09-.39.91-.11,1.06l1.56.84c.12.06.25.41.4.39s1.14.33,1.27,0c0-.13,1-.36,1.18-.74a1.84,1.84,0,0,0,.14-1.5l0,0a3,3,0,0,0-.44-1c-.47-.47-1.67-.48-2,.1C40.31,70.6,38.84,70.87,38.32,71.35Zm3.26.56a.69.69,0,0,1,0-.26,1,1,0,0,1,0,.5l0,.12C41.48,72.4,41.66,72.06,41.58,71.91Zm-.25-.82a.48.48,0,0,1,0,.08A.48.48,0,0,0,41.33,71.09Zm-2.08.84a.39.39,0,0,1,.28-.15l.1.35L39.38,72Z"/><path d="M29.32,68.71l.11-.14c.21-.26.5-.76.91-.46s.51,1.27.5,1.15v-.12c0-.17.16-.51.11-.62-.11-.3.89-.34.89-.34l.09.23a5.16,5.16,0,0,1-1.06,2.26c-.25.2-.8.49-.91.59a1.91,1.91,0,0,1-.7.23c-.37.05-1.51,1.77-1.65.31C27.51,70.65,29.2,68.72,29.32,68.71Z"/><path d="M60.86,77.85a1,1,0,0,1,.22,0c.37.19.52,1.18.52,1.18a5.32,5.32,0,0,1-.3.52,2,2,0,0,1-1.18.34c-.43-.1-.95-1-.95-1,0-.24-.08-.71,0-.8A3.09,3.09,0,0,1,60.86,77.85Z"/><path d="M144.75,42s-.33.64-.14.86a2.56,2.56,0,0,0,1.73.65,4.71,4.71,0,0,1,.65,0c.12,0,.12.52.31.6.5.18.81-.54,1-.87.08-.1.5-.67.46-1a.47.47,0,0,1,0-.24c.05-.13-.32-1.31-.54-1s-.19.11-.23.09-.69-1.28-1.27-1.54a2.38,2.38,0,0,0-1.54.22c-.32.28-.46,1.24-.6,1.66Zm2.08.2.12,0,.12-.05Zm-1.05-.8s.2-1,.5-.85c.13,0,.3.36.38.5Z"/><path d="M159.36,56.57l.24,0c.3,0,.42.8.42.8l0,.12,0,.24c0,.28-.39.77-.44.89a2.2,2.2,0,0,1-.34.72c-.29.22-1.09,0-1.2.06a3,3,0,0,1-1.22-.82C156.44,57.59,159.36,56.57,159.36,56.57Z"/><path d="M114.76,29.83c1.16-.08,2.55.88,2.3,2.16a1.68,1.68,0,0,1-1.57,1.33l-.38.51a.46.46,0,0,1-.78-.17l-.24-.62a1.63,1.63,0,0,1-.69-2.29A1.6,1.6,0,0,1,114.76,29.83Z"/><path d="M100.82,56.61A3.31,3.31,0,0,0,103.08,61a.49.49,0,0,0,.47-.16,2.46,2.46,0,0,0,.56-1.32.46.46,0,0,0,.13-.08,1.11,1.11,0,0,0,.29-.5,2.67,2.67,0,0,0,.59-.23.61.61,0,0,0,.24-.68A3.54,3.54,0,0,0,103,55.47,1.58,1.58,0,0,0,100.82,56.61Zm1,1.68a3,3,0,0,0,1.35.66,1.24,1.24,0,0,1-.15.92A2.18,2.18,0,0,1,101.79,58.29Z"/></g></g></svg>