<svg xmlns="http://www.w3.org/2000/svg" viewBox="0 0 127.68 67.65"><defs><style>.cls-1{fill:#29a0ad;}.cls-2{fill:#fff;}</style></defs><g id="Layer_2" data-name="Layer 2"><g id="Header"><path class="cls-1" d="M98.69,30.33c6-5.78,4.29-17.28-3-21.14s-17.75,1.27-19.15,9.45C78.6,8.75,68.38-1.22,58.36.12S41.12,12.41,42.72,22.4c-3.09-8.12-14.27-11.87-21.63-7.23S12.27,31.5,18.26,37.79c-5.56-1.1-11.82.55-15.45,4.9s-3.89,11.46.06,15.53c2.33,2.41,5.66,3.52,8.89,4.41,27.42,7.53,53.2-.53,80.63,1.6,9.26.71,19.69.53,26.31-6a18,18,0,0,0,1.94-22.53A18,18,0,0,0,98.69,30.33Z"/><path class="cls-2" d="M113.17,26.69a22.48,22.48,0,0,0-5.12,0c-.58.05-1.15.15-1.72.22-.27,0-.82.11-.78,0,2.06-3.84,2.8-10.64-.22-14.28A14.92,14.92,0,0,0,98.9,8.56C95,7.41,90.22,9,87,11.37a10.75,10.75,0,0,0-3,2.73c-.12.22-.27.52-.42.82a7.7,7.7,0,0,1-.47-.81c-.84-1.81-1.52-4.58-3-6a24.88,24.88,0,0,0-24.6-5c-5.29,1.85-8,7.74-9.75,12.58a9.6,9.6,0,0,0-.64,3.42,12,12,0,0,1,0,1.72C40.43,16.76,32.87,16,28,20.21a11.83,11.83,0,0,0-3.61,6.11c0,.11-.05.24-.08.37a16.22,16.22,0,0,0-.59,2.73l-.08.38.06-.24a10.54,10.54,0,0,0,0,2.57,6.3,6.3,0,0,0,.94,2.58c-.37,0-.75,0-1,0-2.61-.18-3.74.29-6.41,1.42a14.87,14.87,0,0,0-5.78,4.75,9.05,9.05,0,0,0-.93,1.56c-.15.27-.51.78-.54.85a25.41,25.41,0,0,0-1.46,2.78,9.83,9.83,0,0,0-.69,2.11l0,.1,0-.06c0,.21-.07.41-.09.61l-.27,3a3.78,3.78,0,0,0,0,.56,12.17,12.17,0,0,0,3.67,6.84c.69.63,1.33,1.24,2.06,1.82.33.26,1,.74,1.1.78a12.39,12.39,0,0,0,5.05,1.86l2.42.35c.39.06,1.17.2,1.25.19,5.48,0,10.71,2.13,16.15,2.46,2,.12,4-.24,6-.09,2.61.18,5.14.85,7.76.93,10.47.28,20.94-.07,31.41-.24,7.31-.13,14.29-.3,21.41-2.19a47,47,0,0,0,6.92-2.19,16.08,16.08,0,0,0,2.2-1c.37-.22,1.09-.67,1.16-.7a26.65,26.65,0,0,0,7-4.44c5.91-5.76,5.72-14.92,1.79-21.7C122.56,31.12,117.83,27.4,113.17,26.69Zm9.52,29.49c-7,6.77-19.15,9.59-28.41,10.27-13.65,1-27.63.45-41.27.31-4-.05-7.87-1.05-11.95-.82-5.46.31-11.17-1.72-16.56-2.39-.69-.09-1.36,0-2.07-.08l-2.66-.34-.47-.06c-.09.55-1.07-.31-1.6-.46a9.54,9.54,0,0,1-2.64-1C12.34,59.8,7.9,56.07,8.24,52.3,8.66,47.81,10,42,14,39.13c2.22-1.56,3-2.28,5.27-3.11.7-.26,1.41-.44,2.11-.69a4.2,4.2,0,0,1,1.08-.13,17.27,17.27,0,0,0,2.6.28c.31.29,1.23.22,1.23.22h.08c1.45.14,1.35-.72,1.12-1.88-.13-.65-.47-1.92-.46-2,.32-3.77,1.66-7,5.39-9,1.6-.84,4.51-.82,6.2-.7a4,4,0,0,1,1.48.59c.29.18.89.54,1,.59,1.35,1.08,2.33,2.5,3.63,3.58.33.28,1.1,1.16,1.58,1.11.22,0,.55-.38.61-.45,1.95-2.18,1.68-5.12,2.11-8a15.38,15.38,0,0,1,1.94-4.95,29.08,29.08,0,0,1,4.2-5A11.15,11.15,0,0,1,57,8.23,2.69,2.69,0,0,1,57.61,8c4.32-.81,7.58-1.86,11.75-.3a16.37,16.37,0,0,1,4.18,2c.62.47,1.88,1.38,1.94,1.44.54.62,1.62,1.83,1.67,1.9.75.94,1.37,1.65,2,2.52.33.48,1.14,1.32,1.17,1.39a13.69,13.69,0,0,1,1.44,3.62c.06.36-.06,1.54.32,1.74s.81-.51.83-.58a10.25,10.25,0,0,1,1.19-2c1.92-1.49,3.82-4.49,6.33-5,1.08-.23,3.13-.5,3.63-.58a3.67,3.67,0,0,1,.56-.07l2.11.29c.37.06,1.1.1,1.18.15s.28.18.21.16.2.2.28.23c.58.19,1.15.41,1.75.55.28.07.84.19.83.27a7.39,7.39,0,0,0,1.39,2c1.37,3.08,1.1,5.27.67,8.44-.12.9-1.06,1.79-1.53,2.54-.25.41-.8,1.22-.8,1.22-.32.05-.38.38-.29.63a.2.2,0,0,0-.23.09c-.12.17.22.59.32.61,2.22.38,4.65-.37,6.94-.47a14.7,14.7,0,0,1,2.35.31c.39,0,1.17.19,1.25.19a15.3,15.3,0,0,1,3.08.65c1.08.66,2.45,1,3.38,1.83,3,2.77,3.82,6.73,4,10.68a10.31,10.31,0,0,1-.94,4.72c-.37.77-1.12,2.3-1.16,2.36a13.92,13.92,0,0,1-6.66,5.19c-1.31.48-2.63.95-4,1.41,0,0-.44.15-.44.17,0,.43-3.25,1.33-4.58,1.87-4.39,1.8-8.68,2-13.37,2.44-2,.18-4,.71-6,.81-3.68.21-7.38.46-11.07.58L68,64.09a6.44,6.44,0,0,1-1.52,0c-.28-.07-.84-.23-.92-.23-8.13-.83-16.14-2.45-24.31-3-2.53-.17-5,.62-7.58.32a31.19,31.19,0,0,0-6.4-.45c-1.19.1-2.69.68-3.81.28l-3.86-1.31c-.66-.23-2-.72-2-.77-.24-.17-.73-.49-.8-.53a7.19,7.19,0,0,0-1-.62c-.07.37-.93-.64-1-.7a3.29,3.29,0,0,1-.38-.4,2.55,2.55,0,0,0-.2-.34,6.84,6.84,0,0,1-2-3.33A17.57,17.57,0,0,1,12,50.86a16.16,16.16,0,0,1,2.87-6.44,9.77,9.77,0,0,1,1.42-1.76c.28-.24.85-1,.82-.69a14.19,14.19,0,0,0,2.07-1.46c.86-.61,1.87-1,2.77-1.55a10,10,0,0,1,3.69-1L27,37.8h.17s.1,0,.19,0a.15.15,0,0,0,.1,0l.16,0,1.91,0a2,2,0,0,1,.74.35,1.7,1.7,0,0,0,.74.23c0,.11.11.2.32.17s.17-.53.18-.61c-.34-2.25-2-3.87-1.31-6.39a8.77,8.77,0,0,1,1.45-3.35,18.42,18.42,0,0,1,1.43-1.34,8,8,0,0,1,2.39-.78,5,5,0,0,1,.65-.15,27.86,27.86,0,0,1,6.32,2.78s1.86,1,1.83,1.08a2.07,2.07,0,0,0,.32.35c.73.82,2.16,2.48,2.22,2.57l0,.07a5.41,5.41,0,0,1,.48.58c0,.13.43-.14.4,0s.42-.09.48-.14c.7-.54,1-.74,1.25-1.57.1-.38.28-1.15.31-1.22a44.28,44.28,0,0,0,2-8.07c.58-3.34,3.39-6.67,5.92-8.78,2-1.66,4.69-2,7.17-2.23.89-.06,1.76,0,2.65,0a2.57,2.57,0,0,1,.77.2l2.19.77c.62.3,1.84,1,1.89,1,1,1.17,2.25,2.07,3.31,3.28a11.21,11.21,0,0,1,1,1.26l.5.78a17.38,17.38,0,0,1,2.56,5.26A4.77,4.77,0,0,1,80,25.43c-.2.2.17.83.2.91.26.86.51-1.32.46-1.68A17.72,17.72,0,0,0,78.73,20c-.07-.15-.2-.44-.23-.52-.5-1.66-2-3.13-3.13-4.38a13.77,13.77,0,0,0-17.05-2.84c-3.85,2.05-5.49,6-7.08,9.52a17.71,17.71,0,0,0-.74,3.94c-.08.44-.23,1.34-.26,1.41a25,25,0,0,0-1.2,3.4,7.4,7.4,0,0,1-.62,1.79,3.2,3.2,0,0,1-.7.3s-.09.07-.16,0-.19-.28-.23-.36a9.88,9.88,0,0,0-1.87-2.2c-.32-.35-1-1-1-1.05-3.39-1.89-6.87-4.36-10.66-3.24-1.76.54-2.63,2-3.41,3.52a16.46,16.46,0,0,0-.76,1.77,10.53,10.53,0,0,0,.31,4.88,5.89,5.89,0,0,0,.52,1.42A8.58,8.58,0,0,0,28,37.11H27.5c0,.06.15,0,.15.11s-.47-.13-.47-.08l-.48.06-1.91.26a15.94,15.94,0,0,0-2.39.64c-.39.12-1.14.42-1.21.46-3.75,2.05-6.48,4-8.42,8a20.32,20.32,0,0,0-1.5,4.54,6.81,6.81,0,0,0,.22,2.2,9,9,0,0,0,1.2,2.61A8.31,8.31,0,0,0,13.74,57c-.14-.44.47.87.9,1.06a18.33,18.33,0,0,1,2.75,1.65,12.29,12.29,0,0,0,1.81.69,5,5,0,0,0,.91.18,8,8,0,0,0,1.14.47,7.48,7.48,0,0,0,2.43.7l2.76-.15c.47,0,1.39-.19,1.47-.18a44.39,44.39,0,0,0,8.54.58c1.73,0,3.53-.52,5.26-.31,3.77.44,7.65.62,11.41,1.16,4.68.67,9.4,1.69,14.15,1.94,7.84.42,15.91-.56,23.66-1.59,2.59-.35,5.36-.25,8-.77a43.46,43.46,0,0,0,7.42-2.58c4.06-1.59,8.15-2.82,11.59-5.61a11,11,0,0,0,3.67-5.94l.45-2.24c.08-.39.2-1.16.2-1.16v-.17c.11-6-2.37-11.67-8.35-13.75a24.16,24.16,0,0,0-8.5-.9c-.8.05-1.62.18-2.43.29-.55.08-1.65.22-1.73.22h-.13a14,14,0,0,0,2-2.82A10,10,0,0,0,104,24a15.84,15.84,0,0,0,.15-2,12.21,12.21,0,0,0-.46-2.83,13.71,13.71,0,0,0-.56-1.34,4.09,4.09,0,0,0-2.74-3.16c-.75-.18-2.18-.81-2.12-.72s-.55-.06-.52-.24l-.93-.16a10.43,10.43,0,0,0-4-.18c-3.15.53-3.78,1.33-6.79,3.36a10.8,10.8,0,0,0-1.56,1.66,8.75,8.75,0,0,0-1.37,1.35,6.07,6.07,0,0,1-.67.88c-.44-2.89-2.18-5.14-4-7.09-.45-.49-.79-1.06-1.24-1.55s-1.43-1.54-1.49-1.59c-6-4.39-11.7-5.2-18.86-3-.87.26-1.46,1.06-2.18,1.6a18.87,18.87,0,0,0-4.53,5.42,11.29,11.29,0,0,0-1,2.07c-.23.66-.67,2-.67,2.05A29.83,29.83,0,0,1,48,22a14.24,14.24,0,0,0-.21,1.65s-.44,2.08-.47,2.16a5,5,0,0,1-1.18,1.37C45,26.48,44,24.87,43,24c-2.54-2.48-4.67-2.66-8.06-2.5a8.34,8.34,0,0,0-5.65,2.63A11.21,11.21,0,0,0,28,25.88c-.21.32-.61,1-.64,1-.17.39-.51,1.19-.53,1.27a12.68,12.68,0,0,0-.58,3.9,10,10,0,0,0,.48,2,4.07,4.07,0,0,1,.12,1.06A4.56,4.56,0,0,1,25.73,35c-.13-.14-.25-.24-.26-.27-2.77-5.64.25-13.33,6-15.8,2.59-1.11,5.22-.79,7.88-.24a6.25,6.25,0,0,1,2.19.63c.4.25,1.18.74,1.24.79.47.34,2.52,2.21,2.79,2,.5-.33.23-2.42.25-2.91,0-2.25,1-4.44,1.76-6.51,1.29-3.57,4.53-7.53,8.15-8.85a28.07,28.07,0,0,1,6.86-1.17,22,22,0,0,1,17,6.06c1.67,1.59,2.48,4.76,3.31,6.89a.52.52,0,0,0,.15.2l-.22.43c-.21.27.19.7.44.47a4.93,4.93,0,0,0,.47-.57c.19,0,.31-.08.24-.35h0a12.5,12.5,0,0,1,2.29-3C89.76,10.1,94.49,8,98.84,9.36c5.81,1.76,8.5,6.92,7.5,12.8a17.37,17.37,0,0,1-1.28,4.19c-.14.33-.76.86-.61,1.25.08.2.66-.1.62.11-.1.57,1.15-.08,1.72-.2a17.15,17.15,0,0,1,3.64-.24,37.4,37.4,0,0,1,3.91.52,2.76,2.76,0,0,1,.54.1,26.51,26.51,0,0,1,7.1,4.39C128.15,38.17,129,50.13,122.69,56.18ZM46.74,27.58s.08,0,.08,0Zm58.2-.53-.09.06S104.86,27,104.94,27.05Z"/><path class="cls-2" d="M99.71,22.8c-1.14-3.13-3.29-3.91-6.13-4.2a13.22,13.22,0,0,0-2.81.09c-.52.08-1.57.22-1.64.26a14,14,0,0,0-2.69,1.24c-.44.31-1.29.91-1.35,1-1.54,1.63-2.68,3.16-4.09,4.67-.12.12-.94.89-.53,1.12.17.09.61-.34.58-.14s.23-.21.4-.39l1-1c1-1,2-2.34,2.84-3.3.14-.16.27-.35.42-.5a11.7,11.7,0,0,1,3.24-1.83,7.22,7.22,0,0,1,1.8-.49.91.91,0,0,0,.31.09,18.18,18.18,0,0,1,3.83.07,6.87,6.87,0,0,1,1.22.35,6.06,6.06,0,0,1,2.36,1.8A4.24,4.24,0,0,1,99,22.9a7,7,0,0,1,.18,4.2c-.08.31-.37,1.3-.52,1.27s-.36,1.3-.61,1.26-1,1.81-1.15,2a4.14,4.14,0,0,1-.61.78c-.91,0-.57,1.42.16.9,1.07-.75,1.6-2.4,2.29-3.45a14,14,0,0,0,.85-1.77l.4-1.46a5.65,5.65,0,0,0,0-2.83C99.85,23.53,99.73,22.88,99.71,22.8Z"/><path class="cls-2" d="M116.76,40.11c-1.05-3.45-4.82-5.29-7.83-6-1.28-.29-2.63-.71-3.9-1l-.56-.14a22.94,22.94,0,0,0-8.76.82c-.27.08.26.77.34.74a4.6,4.6,0,0,0,.78-.3c0-.35.68-.14,1-.21,1.16-.24,2.39-.24,3.57-.43,3.64-.55,8.39,1.16,11.45,2.84a6.17,6.17,0,0,1,2.18,2.16c.32.57,1,1.72,1,1.8.41,2.17.78,3.82-.13,6a4.92,4.92,0,0,1-1,1.83c-.39.38-1.12,1.17-1.18,1.23-6,5.26-15.54,7.27-23.29,7.8-3.92.26-7.93.94-11.84,1.33-5.71.59-12,.12-17.69,0-2.87,0-5.72-.26-8.57-.41A20.58,20.58,0,0,1,48.51,58c-1.34-.33-2.74.17-4.08,0-1.77-.31-3.74-.56-5.54-.79a18.94,18.94,0,0,0-2.82.08,24.87,24.87,0,0,0-4.71-.55c-.34,0-1-.11-1-.19-.37-.6-2.66-.48-3.28-.47H24.91a3.68,3.68,0,0,0-.48,0c0,.07.28.2.27.28s-.68-.22-.51-.32-.57-.26-1.06-.34c-.8-.12-4.91-.78-4.82-1.31s-1-.73-1-.89c-.14-1.08-1.61-1.27-1.61-2.75a8.22,8.22,0,0,1,1.1-3c.2-.47.62-1.41.67-1.47a13.34,13.34,0,0,1,3.58-3.45c.79-.41,2.38-1.23,2.47-1.25.38-.11,1.11-.41,1.19-.43A17.67,17.67,0,0,1,30.85,41c.67.1,2.45.91,2.9.82.67-.13.3-2.68.26-3.24,0-.35.33-1.54.12-1.34s.19-.26.28-.39c.44-.62,1.38-1.8,1.45-1.85a6.85,6.85,0,0,1,2.85-1.14c.61-.07,1.55.28,1.6,0s.4.14.6.2c.56.18,1.68.51,1.73.56A22.23,22.23,0,0,0,46,37.26c.59.39,1.83,1.07,1.83,1.07a.38.38,0,0,1,.16.05c.43.23.73-.29,1.1-.4a1.39,1.39,0,0,1,.41,0c.07-.44,1.32-.25,1.38-.31a5.15,5.15,0,0,0,.54-.56,16.67,16.67,0,0,0,.57-1.82c.08-.31.21-.93.23-1,1.48-4.81,3.37-10,6.44-14.15a9.47,9.47,0,0,1,3.82-2.77c.73-.3,2.2-.8,2.28-.8a17.32,17.32,0,0,1,5.6.53,13.76,13.76,0,0,1,2.22,1,18,18,0,0,1,5.56,8.8c.4,1.32.61,2.75.87,4.06.07.32.18,1,.22,1,1.4,2,2.31-.51,3.17-2a15.85,15.85,0,0,1,2.37-2.89,11.29,11.29,0,0,1,1.51-1.43c.63-.45,1.89-1.34,2-1.36a17.57,17.57,0,0,1,3.08-.64,4.42,4.42,0,0,1,1.52.39c2.31,2.28,2.45,5.07,1.21,8A16.09,16.09,0,0,1,92.15,35a6.87,6.87,0,0,0-.79,1.46c0,.2.47.4.55.39,4.75-.51,12.47-1.57,15.87,2.66a6.82,6.82,0,0,1,.85,5.83c-.17.55-.83,1.49-.72,1.88.22.87-2,1.82-2.06,1.84-2.21.93-4.23,2.24-6.63,2.59-5.15.76-10.45.54-15.63,1.09s-10.37.65-15.46,1.44a43.65,43.65,0,0,1-5.65.8c-3.73.14-7.5-.73-11.25-.72-5.4,0-11-1.29-16.11-1.76-2.26-.21-4.48-.28-6.75-.3-.66,0-1.31-.08-2-.14a5.09,5.09,0,0,1-1.09-.2,8.29,8.29,0,0,0-2.71-.66,7.4,7.4,0,0,1-1.45-.33c-.2-.29-.34-.63-.52-.93s-.73-1-.54-1.25c.33-.46.62-1.28,1-1.82,1.64-2.22,4.83-3.08,7.48-3,1.78,0,4,1,5.8,1.21l2.43.3A6.3,6.3,0,0,1,38,45.7c1,.17-.35-1.67-.46-2.08a11.87,11.87,0,0,1-.3-2.38c.69-1.18.93-1.81,2.34-2.11a21.38,21.38,0,0,1,2.15-.4c2.06.39,5.2,1,6.91,2.22a19.13,19.13,0,0,1,2.22,1.91c.33.33.95,1,1,1.1.6.56,1.42-2,1.51-2.28,1.09-3,2-6.23,3.65-9.11a20.4,20.4,0,0,1,7.19-7.92c1.12-.8,3-.68,4-.67.74,0,2.23,0,2.31.07,3.84,1.7,5.33,4.48,6.45,8.41a21.31,21.31,0,0,1,.7,3.61c.07.65,1.26,1.49,1.26,1.49s1.51-.86,1.57-.91c1.24-1.28,2-3,3.36-4.14.79-.71,2.35-1,2.38-2.1,0-.52,1.5-.39,1.56-.32,1.62,2,1.1,4.44-.4,6.49a8.15,8.15,0,0,0-1.22,1.66c-.1.28.26.85.2.92s0,.08,0,.15.53.33.62.35c3.11.53,6.25-.08,9.66.05a10.39,10.39,0,0,1,4.22,1.91,4.79,4.79,0,0,1,1.06,1.55c.31,4.21-7.49,4.39-10.17,4.9-3.39.64-7,.48-10.47.54-8.6.16-17,.7-25.68.33-1.88-.08-3.8.41-5.68.47-6.21.21-12.49-.41-18.65,0a9.48,9.48,0,0,1-1.62-.32c-1.41-.12-2.16.41-3.44,0a12.06,12.06,0,0,1-1.51-.5s.51,0,.57-.06a4.72,4.72,0,0,1,2.42-1.63c3.16-.79,6.8.23,9.8.36,1.35.06,5.53-.15,6.39-.83.54-.44-.79-1.33-1-1.69a2.31,2.31,0,0,1,.1-1.55,3.33,3.33,0,0,1,2-.45c1.26.11,1.23.27,1.29-.06s.44.23.66.35c.53.28,1.63.76,1.69.81.84.72,1.68,1.38,2.45,2.14a5,5,0,0,0,1.24.71,2.7,2.7,0,0,0,1.52-.23,33.71,33.71,0,0,0,4.45-7.81,23.34,23.34,0,0,1,1.66-3,3.61,3.61,0,0,1,.31-.46c.64-.68,1.29-1.34,1.94-2a5.51,5.51,0,0,1,.49-.45,7.9,7.9,0,0,1,3.13-1.52c.68-.17,2-.5,2.12-.49l.16,0a5,5,0,0,1,2.47.7c.42.39,1.4,1,1.45,1.08.63.9,1.75,1.62,2.17,2.71.24.6.93,1.68,1,1.77a22.9,22.9,0,0,1,1,3.7,8,8,0,0,0,.53,1.77c.11.22.69.28.77.25,1.35-.41,2.35-1.81,3.48-3.11.4-.45,1.2-1.33,1.25-1.4a3,3,0,0,1,.65-.74c.21-.1.68-.24.73-.15.6,1.17-.18,2.32-.71,3.32a15.21,15.21,0,0,0-.66,1.51c-.16,1,3.62.18,4.3.15a48.93,48.93,0,0,1,6.39.57,4,4,0,0,1,1.81.84c-1.21,1.66-4.49,1.09-6.17,1.33a119.43,119.43,0,0,1-19.38.87c-2.16,0-6.12.31-7.38.09-.73-.12-1.46.34-2.14.39-.46,0-1.33.3-1.49.27a2.52,2.52,0,0,0-1-.09,18,18,0,0,1,4.17-8.25,11.76,11.76,0,0,1,2.87-2.33,4.74,4.74,0,0,1,1.47-.38,4.38,4.38,0,0,1,2.42.39c.42.25,1.33.66,1.39.71l.9.83,0,.07a27.9,27.9,0,0,1,1.54,2.9,11.43,11.43,0,0,0,.76,1.83c.11-.15.1.58,0,.59a1.44,1.44,0,0,1-.33.08,8.91,8.91,0,0,0-2.94.23c-.2,0-.63,0-.71,0-1.61.1-3.23.26-4.85.29-.85,0-2.55-.05-2.71-.07l0-.08a20,20,0,0,1,1.24-2c.2-.31.59-.94.65-1,.56-.38,1.3-1.17,2-1.28.34-.06,1.54.12,1.53-.06s.28.25.43.38.73.3.85.56,0,2.38.74,1.72c1-.85-.64-2.5-1.4-3a4,4,0,0,0-2-.23C63,38.92,62,40.57,61,42.25c-.27.49-1,1.25-.67,1.59s1.36.39,1.85.38c2,0,4-.16,6.06-.28l1-.07a25.83,25.83,0,0,0,2.87-.34c.06-.38,1.13-.05,1.13-.05.23,0,.42-.57.37-.66-.84-1.92-1.83-5.54-4-6.93a6,6,0,0,0-3.25-1.08,8.36,8.36,0,0,0-1.95.24c-.56.29-1.68.86-1.75.91a17.48,17.48,0,0,0-5.12,7.55c-.41,1-1.18,2.19-1.15,3.25,0,.68,2,.42,2.08.47s.17-.09.26-.1c1-.07,2.09-.56,3.06-.57,6.39-.07,12.89.38,19.29-.11,2.86-.21,6.06-.73,9-.85a13,13,0,0,0,3.31-.47,8.14,8.14,0,0,0,1.63-.66c1.61-3-5.33-2.75-7-2.91-.63-.06-1.27-.05-1.9-.08s-1.31.23-2,.26c-.35,0-1,.06-1,0,.24-.47.43-1,.71-1.48.13-.21.49-.55.51-.63a2.92,2.92,0,0,0-.73-3.25c-.58-.5-2,1.31-2.24,1.59-.88,1-1.8,2-2.64,3.07a4,4,0,0,1-1.52,1c-.07-.07-.31-.19-.21-.22s.26.23.28.2-.41-1.16-.43-1.35c-.08-.54-.26-1.64-.27-1.73a18.32,18.32,0,0,0-2.12-4.76,9.46,9.46,0,0,0-1-1.27,4.83,4.83,0,0,0-.58-.63,10.4,10.4,0,0,1-1.27-1c-.2-.17-.63-.47-.7-.52a6.5,6.5,0,0,0-1.8-.71,3.42,3.42,0,0,0-.88,0c-1-.18-2.05.37-3.08.58a2.51,2.51,0,0,0-.54.13c-.76.47-2.26,1.4-2.33,1.46-2.67,1.88-4.14,4.74-5.33,7.67-.44,1.07-1.18,2.47-1.55,3.26-.13.27-.35.81-.4.88-.42.5-.82,1-1.23,1.51-.22.24-.64.74-.72.72s-.37-.14-.45-.15a4.73,4.73,0,0,1-1.72-1.21c-.55-.51-1.65-1.53-1.73-1.57a8.12,8.12,0,0,0-2.92-1.18c-.65,0-2-.11-2-.09a5.81,5.81,0,0,0-1,.26c-.73.69-1.08.87-1.15,1.82a3,3,0,0,0,.56,1.35c.16.17.48.51.4.54a10.35,10.35,0,0,1-2.54.35c-4.1.31-7.34-.35-11.38-.37A9.4,9.4,0,0,0,26,46.6c-.64.24-1.38,1.53-1.43,1.6-.91,1.24,2,1.95,3,1.95,5.71,0,11.5-.09,17.31-.08,3.41,0,6.68-.25,10.06-.36,5.46-.18,10.92.45,16.39.16,3.46-.2,7.11-.59,10.57-.51a62.62,62.62,0,0,0,12.23-.88,19.59,19.59,0,0,0,3.8-.64c.74-.3,2.16-1,2.23-1a8.91,8.91,0,0,0,2.44-2.88c.32-.49-.19-1.72-.22-1.8-.16-.52-2.38-1.75-2.36-1.85.11-.66-1.26-.48-1.88-.71a15.24,15.24,0,0,0-6.6-.74,19.32,19.32,0,0,1-2.84.24c-.5,0-1.5-.1-1.58-.11s-.08,0-.07-.09-.11-.26-.19-.28c-.37-.52.71-1.08,1.09-1.61a8.58,8.58,0,0,0,1.44-2.68,5.27,5.27,0,0,0-.07-3.24,13,13,0,0,0-.93-1.41c0-.21-.49-.4-.58-.39a10.36,10.36,0,0,0-6.2,4.9c-.4.64-1.06,1.78-1.78,2-.32.11-.76.67-.84.66l0-.08c-.15-.26-.54-.74-.54-.82a16.57,16.57,0,0,0-4.93-11.33,6.59,6.59,0,0,0-3.61-1.33c-.75,0-2.25,0-2.36,0a8.76,8.76,0,0,0-3.37.75,11.76,11.76,0,0,0-3.65,2.3,14,14,0,0,0-1.11,1.2l-.82,1c-1.86,3.1-3.08,6.41-4.72,9.59a18.94,18.94,0,0,0-1,3.28c-.19.56-.64,1.65-.66,1.72l0-.07c-1.85-2.62-4.26-3.1-7-4a23,23,0,0,0-3.43-1s.29.15.28.21-.51-.25-.6-.23c-1.77.41-4.27.76-4.74,2.92a7.61,7.61,0,0,0,.27,2.68c.08.39.44,1.12.36,1.11-4.69-.69-8.9-2.21-13.56-.72a7.23,7.23,0,0,0-3.44,3,7.39,7.39,0,0,0-.72,1.62l-.05.29a6.06,6.06,0,0,0,.85,1.6,10.1,10.1,0,0,1,.59,1c.08.26,1.13.27,1.43.32.83.15,1.64.41,2.45.62,3.08.84,8.1.54,11.91,1,3.21.4,6.49,1,9.7,1.36s6.42-.22,9.58.12,6.26,1,9.42.64c2.18-.25,3.87-.76,6.09-1,4-.34,8-.57,12-1.09,1.44-.19,3-.18,4.36-.25a12.18,12.18,0,0,0,1.32-.3c3.57-.23,9.43.36,12.86-1.27,1.66-.78,3.76-1.45,5-2.61.38-.37,1.53-1.14,1.74-1.88.15-.52.62-1.49.64-1.59a9.9,9.9,0,0,0,.1-4,14.52,14.52,0,0,0-.72-2c-2.25-3.18-6.43-3.84-10.09-3.84a31.46,31.46,0,0,0-3.22.06c-.54.06-1.64.24-1.72.24a7.19,7.19,0,0,1-1.4,0L93,35a6.33,6.33,0,0,0,.69-1c.22-1.29,1.29-2.59,1.59-4a9.19,9.19,0,0,0,.3-1.87c-.57,0-.31-1.09-.47-1.63a11.41,11.41,0,0,0-1-2.1c-2.84-2.83-7.39-.95-9.69,1.85a33.13,33.13,0,0,0-2.81,3.49c-.39.66-1.16,2-1.22,2.05s-.24.27-.29.2c-1.11-1.56-.89-4.69-1.62-6.54-1.91-4.8-4.72-8.91-10.17-9.82-3.33-.55-7.49,1.23-9.89,3.51a13,13,0,0,0-2.24,3.22c-.28.56-.84,1.7-.87,1.78-.72,1.63-1.37,3.17-2,4.86-.27.71-.93,2.08-1,2.15a28.37,28.37,0,0,0-1.12,3.76A7.8,7.8,0,0,1,50.57,37c-.67.21-2,.58-2,.58a.18.18,0,0,0-.16,0c-.53.27-1.32-.41-2.84-1.67-.41-.34-2.76-1.66-2.69-2.06,0-.05-1.61-.47-1.68-.49a9.08,9.08,0,0,0-3.83,0,6.56,6.56,0,0,0-1.91,1,5.71,5.71,0,0,0-1.84,2.58,16.74,16.74,0,0,0-.22,1.89,12.67,12.67,0,0,1-.11,2A19.74,19.74,0,0,0,30,40.14c-.61-.07-1.81-.21-1.89-.19-.57.12-3.65.27-3.7.54a9.52,9.52,0,0,1-1,.43l-2.47,1.24a13.1,13.1,0,0,0-4.11,3.91,9.16,9.16,0,0,0-1.7,5.31,3.1,3.1,0,0,0,.82,1.42l.66.79.06,0c.1-.54,0,.42.14.58a4.22,4.22,0,0,0,1.31.74c1.53,1,1.81,1,3.85,1.42.79.16,2.41.42,2.48.47.39.29,4.07,0,5.12,0,.33,0,.49.23.72.45.56.52,1.52.12,2.29.19,1.21.1,2.41.36,3.6.49,2.06.23,4.1.09,6.18.34,7.2.86,14.39.66,21.7.91,11.93.4,24.53.19,36.17-2.78,5.07-1.29,12.71-3.23,15.8-8.11A9.92,9.92,0,0,0,117.19,43C117.05,42.08,116.78,40.2,116.76,40.11Zm-30.3-.91-.06-.11.11,0S86.46,39.2,86.46,39.2Zm-38.6-.88s0,0,0,0S47.87,38.32,47.86,38.32Z"/><path class="cls-2" d="M48.69,45.21c-.36-.51-1.72-.7-1.72-.7a2.43,2.43,0,0,0-.93,0,1.91,1.91,0,0,0-.46,1.07c.29.17.87.51,1,.53s.33-.51.26-.54a4.66,4.66,0,0,0-.6-.24c0-.06-.06-.17,0-.24a.51.51,0,0,1,.41-.05c.33.21,1.17.16,1.21.23a4,4,0,0,0,.35.45c.11.1.36.25.42.3.26.23,1.53,1.5,2,1.1C51.25,46.56,48.75,45.3,48.69,45.21Z"/><path class="cls-2" d="M88.49,43.21c-1-.76-2.58.06-3.87.11a9,9,0,0,1-1.93.09c-1-.17-1.93-1-2.78-1-.45,0-1.46,1.16-1.16,1.64.11.18.6-.22.6-.22l.11-.22,0,.08a1.35,1.35,0,0,1,.83-.54c1.66,1.22,3.62.91,5.55.78.8,0,2.42-.1,2.42-.1A.33.33,0,0,0,88.49,43.21Z"/></g></g></svg>