<svg xmlns="http://www.w3.org/2000/svg" viewBox="0 0 139.02 86.07"><defs><style>.cls-1{fill:#29a0ad;}</style></defs><g id="Layer_2" data-name="Layer 2"><g id="Header"><path class="cls-1" d="M117.23,25.9c-7-1.58-15.26.06-19.27,6,3.59-10.28-1.78-22.48-11.15-28S65.12-1,55.61,4.31,39.27,19,35.54,29.21c-2.8,7.68-3.82,16.79.68,23.61C30.29,49,23.27,45,16.56,47.2c-6.25,2.07-9.77,9.4-8.81,15.92s5.6,12,11.16,15.58c16.79,10.67,41.55,6.23,60.74,7,20.49.87,47.62,1.67,57.36-21C143.55,49.51,133.39,29.56,117.23,25.9Z"/><path d="M129.23,35.41a.34.34,0,0,0,0-.14c0-.08-.12-.12-.24-.13l-.55-.69c-.44-.51-1.83-1.84-1.72-2.12S124,30,123.12,29.43c-3.58-2.48-8.14-3.17-12.31-3.95a27,27,0,0,0-4.31-.14c-1.93.37-3.74.72-5.63,1.23A17,17,0,0,0,98,27.9,31.38,31.38,0,0,1,95.37,30c.5-5.85-2.28-11.91-5.94-16.41a13.24,13.24,0,0,0-1.93-2.16l-.24-.2c-.84-.66-1.67-1.31-2.5-1.94a.36.36,0,0,0,0-.1l.71.57-.71-.57v0a.2.2,0,0,0-.12-.08l-.91-.74-.31-.24,1.22,1H84.5A46.5,46.5,0,0,0,72.16,2.17.73.73,0,0,0,71.88,2a.15.15,0,0,0-.17.06A32.74,32.74,0,0,0,67.82,1c-2.74-.57-5.9.24-8.55.72-.93.18-1.94.31-2.86.54-.44.11-1.28.45-1.39.47l-2.24.56a6.91,6.91,0,0,0-1.15.4C48.51,5.79,43.55,9,41.16,12.27l-3.84,5.24c-.12.17-.37.51-.42.62a38.81,38.81,0,0,0-2.78,6.09c-.2.69-.4,1.38-.64,2.05s-.61,1.69-.62,1.8c0,.7-.09,1.41-.18,2.12a3.23,3.23,0,0,0-.37,1.22c0,.08.09.11.18.12-.35,2.19-.85,4.39-1.13,6.57-.12,1-.13,1.93-.17,2.92,0,.25,0,.76-.12.7A18,18,0,0,0,26,39.61l-.12,0-.08,0c-.94-.27-2.52-.62-2.61-.63-.71,0-1.4,0-2.11,0L18.23,39a15.57,15.57,0,0,0-6.23.63c-.21.08-2.55.64-2.57,1s-.26.66-.44.51.48-.3.34-.4a10.05,10.05,0,0,0-1.85,1.5c.06.23-1.08,1.31-1.4,1.72a30.19,30.19,0,0,0-4.4,7.62A19.35,19.35,0,0,0,.22,58.12c-.07,1.67-.14,3.35-.2,5a6.48,6.48,0,0,0,0,.75c.52,2.46.78,4.22,1.88,6,0,.21,0,.41.26.43h0c.11.16.23.33.36.49,1.28,1.56,2.54,3.12,3.81,4.68a4,4,0,0,0,.49.54,16.29,16.29,0,0,0,2.89,1.85c.54.22,1.66.59,1.75.65,3.17,2.08,7,2.51,10.61,3.22a150.76,150.76,0,0,0,18.12,2C44.76,84,49.16,85,53.74,85c3.59,0,7.19-.31,10.8-.5a.32.32,0,0,0,.25.21c.12,0,.3-.08.51-.25,1.7-.09,3.39-.15,5.08-.16h7.28c.12.24.82.12.82.23a.31.31,0,0,1,.11-.21v0a157.76,157.76,0,0,0,23.83-1.33c5.68-.86,12.61-1.24,17.81-3.93,2.48-1.28,5.34-4.26,7.63-6.54,7.12-7.07,8.84-20.44,5.81-29.74A24.36,24.36,0,0,0,129.23,35.41Zm-94.7-9.1a46,46,0,0,1,2.61-6.44c.19-.39.52-1.19.58-1.28,1-1.36,1.89-2.75,2.9-4.08.5-.65,1.49-2,1.57-2a47.68,47.68,0,0,1,4.23-3.64l5.09-4a2.07,2.07,0,0,1,.6-.39,17.05,17.05,0,0,0,2.55-.77c.4-.12,1.19-.75,1.18-.34a9.89,9.89,0,0,0,1.55-.23A189.22,189.22,0,0,0,39.26,22.23c-1.54,1.91-3.74,3.86-5.31,5.93C34.12,27.53,34.32,26.91,34.53,26.31Zm-2,11.78s0,0,.06.06c.31.16.86-.6.93-.68l1.11-1.32c7.22-7.4,14-15.42,21-23,2.86-3.06,6.33-5.79,9.47-8.6.47-.42,2.54-1.68,2.12-2.46-.26-.51-1.5.78-1.61.88C62.37,6,59,8.52,55.71,11.73,51,16.31,46.94,21.44,42.32,26.08a89.63,89.63,0,0,0-6.57,7.23c-.67.85-1.4,1.65-2,2.52-.31.44-1,1.28-1.1,1.38s0,0,0,.06c.14-2,.36-4,.69-5.93h0l.05-.09c1.53-2.95,4.26-5.37,6.43-8.16,1.47-1.88,2.76-3.9,4.38-5.62,1.46-1.55,3.37-2.69,4.78-4.3,1.81-2.06,3.6-4.17,5.52-6.12,1-1,3-2.83,3.07-2.9a3.4,3.4,0,0,0,.87-1.24l2.56-.48a19.57,19.57,0,0,1,4.34-.62c.76.06,2.3.19,2.41.22.69.21,1.38.42,2.08.6l1.4.35c-.94,1-1.57,1.75-2.58,2.8S65.61,8.86,65.5,9C53.92,19.65,43,31.5,32.55,43.28c-.13-.15-.28-.33-.28-.41C32.34,41.31,32.41,39.71,32.51,38.09ZM2.52,52.4c0-.2.16-.61.19-.71.23-.63.68-1.87.72-2a20.39,20.39,0,0,1,3.66-5.4,21,21,0,0,1,1.59-1.92,10.69,10.69,0,0,1,1-.9c.95-.37,1.91-.75,2.88-1.07.5-.17,1.5-.5,1.6-.51,1.2,0,2.39,0,3.57.06-.36.32-1.25,1-1.2,1.2.18.54-2.53,2.54-3.39,3.34-2.21,2-4.72,4.63-6.78,6.72-1.56,1.58-3,3.35-4.44,5L1.23,57A27.77,27.77,0,0,1,2.52,52.4ZM1,63.4c.07-1.65.13-3.29.2-4.94C2.62,57.41,6.06,53,6.23,52.85c2.13-2.4,4.65-4.76,6.78-6.92,1.33-1.34,2.88-2.47,4.15-3.87.56-.62,1.63-1.76,2-2.07.94,0,2.63-.06,2.74-.11a5.12,5.12,0,0,1,3,.13,1.44,1.44,0,0,0-.36.34c-1.29,2.73-4.57,3.93-6.92,5.83-2.91,2.35-5.79,6-8.16,8.8S5,60,2.55,62.66c-.51.55-1,1.11-1.52,1.67C1,63.81,1,63.43,1,63.4ZM4.71,72C4.1,71.23,3.55,70.49,3,69.71l.21-.23c.59-.63,1.56-2,1.67-2.14.74-.68,5-4.47,5-4.43.22.32.9-.73.9-.73l0,0c-.23,0,.11-.63.34-.62s-.23.31-.12.31c.6,0,1.31-1.21,1.39-1.31,3.33-4.6,7.54-8.66,11.39-12.84,1-1.11,2.21-2.11,3.31-3.13.56-.51,1.7-1.47,1.78-1.54.29-.27.73-.7.5-1.16-.12-.24-.75.28-.86.33-1.27.57-3.67,3.24-4.45,4-2.54,2.35-4.89,5.13-7.23,7.67-1.39,1.49-2.77,3.19-4,4.66-.39.44-1.09,1.39-1.16,1.48-.43.43-1.24,1.33-1.33,1.42-.89.81-2.47,1.94-3.8,3.06-.77.66-2.21,2.08-2.28,2.16a16.42,16.42,0,0,1-1.59,1.85.72.72,0,0,0-.26.19l-.5-.86a8.31,8.31,0,0,1-.68-2.31c5.16-6,10.4-12.59,16.06-18,1.87-1.78,4.11-3,6-4.81.64-.62,1.33-1.2,2-1.81.17-.16.39-.42.57-.63a21.11,21.11,0,0,1,3.44,1.44,12.42,12.42,0,0,1,2.24,1.75,2.22,2.22,0,0,0,.37.6c-2.44,2.57-5.37,4.51-7.77,7.07-5.18,5.5-10.58,10.72-15.6,16.37C7.26,68.87,6.14,70.29,5,71.68Zm14.44,8.17-.67-.09a13.36,13.36,0,0,1-4.3-1.36c.39-.4.76-.91,1-1.09,2-1.95,3.31-4.46,5.41-6.44A209,209,0,0,0,39.92,50.1c1.8-2.23,3.81-5.2,6-7A22.85,22.85,0,0,0,48.22,41c.43-.47,1.23-1.46,1.3-1.53L64.9,24.25C67.15,22,68.42,21,70,18.85c.72-1,2.31-2.89,2.4-3,1.71-1.32,2.94-2.93,4.5-4.37.8-.74,2.33-2.26,2.33-2.26l.08-.07c.2-.25,1-1.43.81-2-.14-.36-1-.09-.53.29s-.59.63-.87,1A20.82,20.82,0,0,1,77.2,10c-.35.3-1,.9-1.13,1-.48.57-1,1.1-1.46,1.64a12.17,12.17,0,0,1-.78,1A7.92,7.92,0,0,0,72,15.09c-4.72,5.26-9.26,11.19-14.71,15.74-2.13,1.79-3.89,3.58-5.87,5.49-.7.66-1.48,1.37-2.17,2.08-.35.36-.89,1.22-1,1.29-8.67,7.76-14.78,18-23.25,26-2.66,2.54-5.68,4.83-8,7.71-.47.57-.83,1.24-1.26,1.84-.63.85-1.86,2.56-2,2.63a4.09,4.09,0,0,0-.45.49,27.87,27.87,0,0,0-2.8-1.22,9.74,9.74,0,0,1-1.26-.54A28,28,0,0,0,12.4,73c3-3.71,6.29-7.14,9.35-10.82,2.88-3.49,6.88-7,10.07-10.53,6.07-6.76,12.6-14,19.3-20.55,6-5.85,12-11.62,18.06-17.37,2-1.91,3.64-3.72,5.52-5.87.52-.6,2.08-1.58,1.77-2.5-.12-.37-1.07.48-1.18.58-2.07,1.44-3.91,4.36-5.6,6.09C66.21,15.65,62.32,18.79,59,22.48c-2.68,2.94-6,5.3-8.74,8.17-6.61,6.84-13,14-19.55,20.85-5.07,5.33-9.94,10.82-15.08,16.08-1.69,1.73-2.93,3.89-4.59,5.66a14.08,14.08,0,0,1-1.64,1.88,7.1,7.1,0,0,1-1.12.77l-.06,0a7.86,7.86,0,0,1-1-.9L5.38,72.85C7,71.29,8.83,68.54,9.64,67.6A169.26,169.26,0,0,1,22,54.45c3.5-3.24,6.82-6.59,10.11-10l.26.29a6.44,6.44,0,0,1,.82,1.72c.41.91.84,0,.82-.6s-.78-1.51-.78-1.61a1.17,1.17,0,0,0-.17-.3c-.05-.07-.12-.18-.2-.28,2.35-2.43,4.69-4.87,7.07-7.3,5.36-5.5,10.8-10.7,15.63-16.67,3-3.76,7.45-6.47,10.61-10.11C67.3,8.36,69,5.81,70.6,5c.34-.19.9-1.27,1.36-1.78l.29.07c.27.06.83.12.94.17a58.7,58.7,0,0,1,10.5,6.14l0,0-.11.07c-2.88,1.75-6.36,7.25-8.91,9.88C70.36,24,66.32,28.62,62.12,33.12c-6,6.41-12.83,12-18.61,18.58-7,8.11-9.88,11.26-17.19,19.06a57.74,57.74,0,0,0-4.67,5.46l-2.07,2.86C19.33,79.19,18.74,80,19.15,80.17Zm5.61.69a.52.52,0,0,0-.11.13c-1.69-.3-3.38-.56-5.08-.77,1.44-.2,2.76-3.5,3.59-4.44C27.28,71.12,31.82,66.7,35.85,62,46.65,49.4,58.64,38.07,69.78,25.81c3.12-3.43,6.61-7.14,9.55-10.33.83-.91,3.92-4.14,3.76-4.45s.94-.74,1.08-.79c0,.13.12.06.25-.11a30.09,30.09,0,0,1,3.35,3.14c-.45-.27-1.55-.14-1.73.19-.08.16.3.43.21.5a24.24,24.24,0,0,0-3.19,3l-.51.54C74.63,27.35,65.64,36,56.8,45c-4.81,4.92-9,10.26-13.94,15.07A144.26,144.26,0,0,0,31,73.64a40.45,40.45,0,0,1-4,4.68A15.93,15.93,0,0,0,25.51,80C25.3,80.29,24.87,80.87,24.76,80.86Zm1,.32c.56-.61,1.14-1.38,1.3-1.55,1.84-2,3.19-3.44,4.86-5.54.62-.78,1.84-2.34,1.85-2.44.71-1.59,3.16-2.73,4-4.37,1.58-3.2,6.66-7.12,9.33-9.83A76.32,76.32,0,0,0,52.36,51c5.22-6.47,12-11.78,17.64-17.85,3.66-3.92,7.62-7.67,10.85-11.95a34.63,34.63,0,0,1,3.3-4.12c.64-.63,1.92-1.87,2-1.93.42-.27,2-1.09,1.78-1.73a26.84,26.84,0,0,1,3,4.1,27.1,27.1,0,0,0-3.62,4.06c-.27.34-.54.67-.82,1-3.26,3.69-6.51,7.27-9.91,10.85q-8.67,9.07-17.55,18c-4.16,4.17-7.64,8.94-11.9,13-3.65,3.52-6.46,6.7-9.85,10.47a47.45,47.45,0,0,0-4,4.55c-.57.84-1.68,2.48-1.86,2.69C29.55,81.85,27.65,81.51,25.75,81.18Zm12.64,1.57a34,34,0,0,1-3.91-.19l-1.8-.23c1.74-2,4.71-6,5.46-6.86,3.48-3.89,7-7.38,10.53-11.18C56,56.44,62.93,48,70.66,40.51c3.77-3.67,7.66-7.21,11.15-11.2,2.6-3,5.26-5.87,7.69-9a17.74,17.74,0,0,0,1.9-2,31.42,31.42,0,0,1,2.11,4.62l-.17,0V23c-.1.05-.22.23-.33.3C88.55,26,84.56,31.5,81.47,35.68c-1.64,2.23-4.35,4.53-6.36,6.65-5.88,6.19-11.84,12.31-17.67,18.54-4.52,4.83-8.64,9.84-12.78,14.39-1.55,1.7-3,3.48-4.45,5.27-.57.69-1.73,2-1.78,2.14A.59.59,0,0,0,38.39,82.75Zm5.13-.19c-.1,0-.25.22-.25.22l.18-.15a.55.55,0,0,0-.22.36,30.59,30.59,0,0,0-3.58-.23,35.25,35.25,0,0,0,3.42-4.54c1.91-2.65,5-5.62,6.94-8,2.41-3,5.55-5.79,8.14-8.66,6.12-6.71,12.49-13.19,18.77-19.76C80.55,38,84,34.07,87.57,30.18c1.12-1.25,2.23-2.56,3.44-3.73l1.79-1.71c.24-.23.84-.69.82-.77s0-.19.14-.28a17.07,17.07,0,0,1,.62,2.52,9.76,9.76,0,0,1,.19,2.21c0,.22,0,.5-.06.79l-.05.05c-.65.59-2.07,1.6-2.14,1.67A16.68,16.68,0,0,0,91,32.07C88.5,35.9,83.2,40.61,79.77,44.3c-3.23,3.47-6.53,6.62-9.77,10.07-3.49,3.71-6.68,8-10.61,11.26A78.78,78.78,0,0,0,47.9,77.38C46.66,79,45.33,80.45,44,82,43.89,82.16,43.63,82.56,43.52,82.56Zm.82.59c1.27-.81,3.15-3.79,3.63-4.35a89.59,89.59,0,0,1,9.56-10.28c8.81-8.4,17.29-17.27,25.38-26.39,2.62-3,5.33-5.67,8.11-8.56.78-.82,1.5-1.61,2.34-2.38a9.9,9.9,0,0,1,1.07-.82c0,.33,0,.57,0,.57-.06.28-.25.83.17.95a1.17,1.17,0,0,0,.72-.25,19.34,19.34,0,0,1,3.39-2.9c.68-.37,2.06-1.12,2.15-1.15a24.84,24.84,0,0,1,3.15-.75c-.71,1.06-1.27,1.16-2.52,2.26a22.32,22.32,0,0,0-1.78,2c-3.36,2.84-6,6.23-9.13,9.34C81.66,49.17,73.46,58.4,65,67.57c-4.34,4.74-9.23,9.14-13.77,13.67-.79.79-1.47,1.68-2.28,2.43C47.44,83.56,45.89,83.39,44.34,83.15Zm12.77.65h0l.15-.23a1.06,1.06,0,0,0-.17.23c-2.29,0-4.57,0-6.85-.07C58.81,75.61,67,66.94,74.69,58,78.27,53.9,82.4,50.36,86,46.19A156.79,156.79,0,0,1,98.43,33.38c.37-.34,4.9-4.4,4.78-4.82-.22-.77,1.75-1.62,1.86-1.69a.42.42,0,0,0,.15-.24,25.87,25.87,0,0,1,5.35-.11A33.61,33.61,0,0,0,105.14,33c-.9,1.48-2.64,2.5-3.93,3.73-3.28,3.12-6.89,6-10.15,9.17C84.75,51.91,79,59.36,73.39,66.1,70,70.21,66,74.29,62.42,78.23,60.85,80,59.5,81.38,57.83,83A10.74,10.74,0,0,0,57.11,83.8Zm7.77-.39a.3.3,0,0,0-.09.13h0v0s0,0,0,0l-1.51.08-4.57.14c1.22-1.12,2.71-2.89,3.29-3.53,3.28-3.67,6.57-7.32,9.86-11,6.66-7.43,12.77-16,20-22.83,1.78-1.68,3.89-3.09,5.7-4.76,2.92-2.69,6.48-5.78,8.83-9a22.1,22.1,0,0,1,2.82-3.08,15.65,15.65,0,0,0,1.43-1.65c.33-.53.93-.89,1.11-1.27a26.08,26.08,0,0,1,3.8.76c-1.23.8-2.36,2.61-3.24,3.82S110,34.4,110,34.48c-5.86,6.46-12.69,12.19-18.35,18.86-4,4.68-8,9.37-12.22,13.88-3.36,3.6-6.51,7.32-9.8,11-1.21,1.35-2.4,2.64-3.54,4C65.64,82.73,65.12,83.1,64.88,83.41ZM72,82.92a1.34,1.34,0,0,0-.35.36c-1.61-.06-3.6,0-5.43.17l.72-.88c3.6-4.13,7.09-8.3,10.82-12.32,6.8-7.35,13.27-14.87,20.33-21.91,2-2,3.76-4.35,5.91-6.12a45.61,45.61,0,0,0,7.65-8.59A29.69,29.69,0,0,1,114.42,30l1.75-1.76a1.67,1.67,0,0,0,.46-.51A27,27,0,0,1,121.77,30c-.16.05-.32.37-.32.37s-.3.31-.44.47c-1.21,1.28-2.4,2.5-3.54,3.83-2.41,2.76-4.69,5.46-7.33,8C102,50.61,94.78,59.32,86.82,67.4c-2.86,2.91-5.9,5.89-8.74,8.91-1.4,1.49-2.81,3-4.2,4.46C73.26,81.43,72.12,82.85,72,82.92Zm5.79.85Zm.51-.56c-.23-.06-.47.42-.53.56a26.13,26.13,0,0,1-4.53-.34c-.13,0-.28,0-.42-.06.56-.55,1.13-1.25,1.31-1.44,4.4-4.71,8.41-8.87,13-13.57,7.93-8.2,15-17.72,23.78-25.1,3.1-2.62,5.25-5.92,8-8.91a36.19,36.19,0,0,1,2.88-3.06,10.8,10.8,0,0,0,1-.78,25.29,25.29,0,0,1,2.93,2.11,4.17,4.17,0,0,0-.88.05l-.07.09c-2.47,2.89-5.66,5.45-8,8.43A201,201,0,0,1,95.08,65.6c-5.3,5-7.57,7.32-12.89,12.87a46.6,46.6,0,0,0-2.94,3.63A7.71,7.71,0,0,1,78.32,83.21Zm47-50s-.11.05-.11.05S125.12,33.22,125.33,33.22ZM84.86,83.46l-2.56.17c-1,.05-2.13.1-3.25.13,9.44-10.65,20.13-20.14,29.37-31,3.16-3.7,6.1-8.07,9.44-11.48,1.1-1.12,3-2.57,4-3.9.59-.74,1.77-2.23,1.85-2.31.6-.64,1.79-1.95,1.9-2l.11-.1v-.16h0a25.12,25.12,0,0,1,2.49,2.46l-.39.27c-2.4,1.46-5.17,6.39-7.51,9-3.18,3.52-6,7.35-9.17,10.89-4.46,5-9,9.32-13.42,14.33-3,3.39-6.39,6.4-9.41,9.76L85.22,83A5.44,5.44,0,0,0,84.86,83.46Zm8.74-.7c-2.49.25-5,.45-7.53.63,2.3-2.7,4.87-5.19,7.38-7.68a303.63,303.63,0,0,0,21.26-23.25c2.89-3.56,6-6.9,8.76-10.58.8-1.08,1.69-2.08,2.56-3.09.41-.49,1.34-1.38,1.41-1.46.2-.25.59-.74.69-.63s.55-.3.8-.69a23.62,23.62,0,0,1,2.93,4.74,4.1,4.1,0,0,0-.65.49l-.1-.11c-.76-.26-2.8,2.5-3.35,3.06-3.67,3.73-6.36,7.81-9.55,11.89-4.79,6.11-10.58,11.42-15.82,17.11l-.1.1.39-.42c-1.88,2-3.77,4.06-5.64,6.11l-.72.78c-.31.34-.73.8-1.14,1.27S94.13,82.19,93.6,82.76Zm1.65-.18,0,0c1.57-1.74,3.12-3.51,4.71-5.22,7.34-8,15.49-15.54,21.57-24.55a79.78,79.78,0,0,1,7.3-8.39c.63-.67.87-1,1.42-1.54.32-.34,1-.95,1.1-1l.09-.06a4.62,4.62,0,0,0,.62-.43c.11.25.24.48.34.74a19.76,19.76,0,0,1,1.19,6,12.4,12.4,0,0,0-1.16,1.26c-1.41,1.43-3.16,4-4.54,5.51-4.62,4.9-8.71,10.4-13.34,15.24l-9.11,9.52c-.56.59-1.62,1.5-2.16,2Q99.27,82.15,95.25,82.58Zm26.32-5.66,5.93-7.54c.79-1,1.93-2.09,3-3.17A31.33,31.33,0,0,1,121.57,76.92Zm12-18.23c-.16.7-.49,2.09-.53,2.18-.19.43-.37.85-.56,1.27l-.08,0a.85.85,0,0,0-.22.23c-2.84,3.3-5.45,6.57-8.23,10-1.06,1.31-2.08,2.65-3.11,4a2.1,2.1,0,0,0-.39.61l-.11.1a.2.2,0,0,1,.06.21c-.06.16.24.14.49.12-.43.31-.88.61-1.34.9a17.15,17.15,0,0,1-6,2,12.69,12.69,0,0,1,.93-1.11c1.44-1.48,2.78-3.13,4.12-4.66,3.49-4,6.77-8.2,10.27-12.22.92-1.06,1.87-2.11,2.8-3.16.49-.54,1.36-1.69,1.47-1.74a2.93,2.93,0,0,0,.75-.56A12.89,12.89,0,0,1,133.55,58.69Zm.34-3.67a10.76,10.76,0,0,1,0,1.27,2.78,2.78,0,0,0-.43-.23c-.22.42-1.19.79-1.24.89-3.24,4.79-7.8,8.93-11.5,13.41-1.68,2-3.4,4.28-5.21,6.3l-2.66,3a10.4,10.4,0,0,0-.74,1c-2.55.36-5.13.52-7.19.8,7.49-5.3,12.46-14.14,18.79-20.6,4.09-4.18,5.1-6.08,8.53-9.88.19-.22.89-.83,1.47-1.46C133.77,51.3,133.76,53.17,133.89,55Z"/></g></g></svg>