<?xml version="1.0" encoding="utf-8"?>
<!-- Generator: Adobe Illustrator 24.1.2, SVG Export Plug-In . SVG Version: 6.00 Build 0)  -->
<svg version="1.1" id="Layer_1" xmlns="http://www.w3.org/2000/svg" xmlns:xlink="http://www.w3.org/1999/xlink" x="0px" y="0px"
	 viewBox="0 0 121.43 61.97" style="enable-background:new 0 0 121.43 61.97;" xml:space="preserve">
<style type="text/css">
	.st0{fill:#F3F3F5;}
	.st1{clip-path:url(#SVGID_2_);}
	.st2{fill:#00ABC8;}
	.st3{fill:#0075A3;}
	.st4{clip-path:url(#SVGID_4_);}
</style>
<g>
	<g>
		<g>
			<g>
				<path class="st0" d="M45.11,57.69v-9.71l16.93-18.37c1.77-1.97,2.36-3.15,2.36-4.92c0-2.76-1.57-4.4-4.2-4.4
					c-2.82,0-4.2,1.45-4.33,4.53H45.11c0.13-2.89,0.33-4.07,1.05-5.77c2.23-5.32,7.48-8.47,14.11-8.47
					c8.86,0,14.89,5.64,14.89,14.04c0,4.33-1.18,6.69-5.77,11.55L58.23,47.98h16.93v9.71H45.11z"/>
			</g>
		</g>
		<g>
			<defs>
				<path id="SVGID_1_" d="M40.78,53.36v-9.71l16.93-18.37c1.77-1.97,2.36-3.15,2.36-4.92c0-2.76-1.57-4.4-4.2-4.4
					c-2.82,0-4.2,1.45-4.33,4.53H40.78c0.13-2.89,0.33-4.07,1.05-5.77c2.23-5.32,7.48-8.47,14.11-8.47
					c8.86,0,14.89,5.64,14.89,14.04c0,4.33-1.18,6.69-5.77,11.55L53.9,43.65h16.93v9.71H40.78z"/>
			</defs>
			<clipPath id="SVGID_2_">
				<use xlink:href="#SVGID_1_"  style="overflow:visible;"/>
			</clipPath>
			<g class="st1">
				<rect x="65.64" y="3.1" class="st2" width="5.47" height="5.47"/>
				<path class="st2" d="M66.18,3.1c0,0.27-0.27,0.55-0.55,0.55V3.1H66.18z"/>
				<path class="st2" d="M71.11,3.1v0.55c-0.33,0-0.55-0.27-0.55-0.55H71.11z"/>
				<path class="st2" d="M66.18,8.57h-0.55V8.02C65.91,8.02,66.18,8.24,66.18,8.57z"/>
				<path class="st2" d="M71.11,8.02v0.55h-0.55C70.56,8.24,70.78,8.02,71.11,8.02z"/>
				<path class="st2" d="M68.91,5.82c0,0.3-0.24,0.55-0.55,0.55c-0.3,0-0.55-0.24-0.55-0.55c0-0.3,0.24-0.55,0.55-0.55
					C68.66,5.27,68.91,5.52,68.91,5.82z"/>
			</g>
			<g class="st1">
				<rect x="65.64" y="8.57" class="st2" width="5.47" height="5.47"/>
				<path class="st2" d="M66.18,8.57c0,0.27-0.27,0.55-0.55,0.55V8.57H66.18z"/>
				<path class="st2" d="M71.11,8.57v0.55c-0.33,0-0.55-0.27-0.55-0.55H71.11z"/>
				<path class="st2" d="M66.18,14.04h-0.55v-0.55C65.91,13.49,66.18,13.71,66.18,14.04z"/>
				<path class="st2" d="M71.11,13.49v0.55h-0.55C70.56,13.71,70.78,13.49,71.11,13.49z"/>
				<path class="st2" d="M68.91,11.29c0,0.3-0.24,0.55-0.55,0.55c-0.3,0-0.55-0.24-0.55-0.55s0.24-0.55,0.55-0.55
					C68.66,10.74,68.91,10.99,68.91,11.29z"/>
			</g>
			<g class="st1">
				<rect x="65.64" y="14.04" class="st2" width="5.47" height="5.47"/>
				<path class="st2" d="M66.18,14.04c0,0.27-0.27,0.55-0.55,0.55v-0.55H66.18z"/>
				<path class="st2" d="M71.11,14.04v0.55c-0.33,0-0.55-0.27-0.55-0.55H71.11z"/>
				<path class="st2" d="M66.18,19.51h-0.55v-0.55C65.91,18.96,66.18,19.18,66.18,19.51z"/>
				<path class="st2" d="M71.11,18.96v0.55h-0.55C70.56,19.18,70.78,18.96,71.11,18.96z"/>
				<path class="st2" d="M68.91,16.76c0,0.3-0.24,0.55-0.55,0.55c-0.3,0-0.55-0.24-0.55-0.55c0-0.3,0.24-0.55,0.55-0.55
					C68.66,16.22,68.91,16.46,68.91,16.76z"/>
			</g>
			<g class="st1">
				<rect x="65.64" y="19.51" class="st2" width="5.47" height="5.47"/>
				<path class="st2" d="M66.18,19.51c0,0.27-0.27,0.55-0.55,0.55v-0.55H66.18z"/>
				<path class="st2" d="M71.11,19.51v0.55c-0.33,0-0.55-0.27-0.55-0.55H71.11z"/>
				<path class="st2" d="M66.18,24.98h-0.55v-0.55C65.91,24.44,66.18,24.66,66.18,24.98z"/>
				<path class="st2" d="M71.11,24.44v0.55h-0.55C70.56,24.66,70.78,24.44,71.11,24.44z"/>
				<path class="st2" d="M68.91,22.23c0,0.3-0.24,0.55-0.55,0.55c-0.3,0-0.55-0.24-0.55-0.55s0.24-0.55,0.55-0.55
					C68.66,21.69,68.91,21.93,68.91,22.23z"/>
			</g>
			<g class="st1">
				<rect x="65.64" y="24.98" class="st2" width="5.47" height="5.47"/>
				<path class="st2" d="M66.18,24.98c0,0.27-0.27,0.55-0.55,0.55v-0.55H66.18z"/>
				<path class="st2" d="M71.11,24.98v0.55c-0.33,0-0.55-0.27-0.55-0.55H71.11z"/>
				<path class="st2" d="M66.18,30.45h-0.55v-0.55C65.91,29.91,66.18,30.13,66.18,30.45z"/>
				<path class="st2" d="M71.11,29.91v0.55h-0.55C70.56,30.13,70.78,29.91,71.11,29.91z"/>
				<path class="st2" d="M68.91,27.71c0,0.3-0.24,0.55-0.55,0.55c-0.3,0-0.55-0.24-0.55-0.55s0.24-0.55,0.55-0.55
					C68.66,27.16,68.91,27.4,68.91,27.71z"/>
			</g>
			<g class="st1">
				<rect x="65.64" y="30.45" class="st2" width="5.47" height="5.47"/>
				<path class="st2" d="M66.18,30.45c0,0.27-0.27,0.55-0.55,0.55v-0.55H66.18z"/>
				<path class="st2" d="M71.11,30.45V31c-0.33,0-0.55-0.27-0.55-0.55H71.11z"/>
				<path class="st2" d="M66.18,35.93h-0.55v-0.55C65.91,35.38,66.18,35.6,66.18,35.93z"/>
				<path class="st2" d="M71.11,35.38v0.55h-0.55C70.56,35.6,70.78,35.38,71.11,35.38z"/>
				<path class="st2" d="M68.91,33.18c0,0.3-0.24,0.55-0.55,0.55c-0.3,0-0.55-0.24-0.55-0.55s0.24-0.55,0.55-0.55
					C68.66,32.63,68.91,32.87,68.91,33.18z"/>
			</g>
			<g class="st1">
				<rect x="65.64" y="35.93" class="st2" width="5.47" height="5.47"/>
				<path class="st2" d="M66.18,35.93c0,0.27-0.27,0.55-0.55,0.55v-0.55H66.18z"/>
				<path class="st2" d="M71.11,35.93v0.55c-0.33,0-0.55-0.27-0.55-0.55H71.11z"/>
				<path class="st2" d="M66.18,41.4h-0.55v-0.55C65.91,40.85,66.18,41.07,66.18,41.4z"/>
				<path class="st2" d="M71.11,40.85v0.55h-0.55C70.56,41.07,70.78,40.85,71.11,40.85z"/>
				<path class="st2" d="M68.91,38.65c0,0.3-0.24,0.55-0.55,0.55c-0.3,0-0.55-0.24-0.55-0.55s0.24-0.55,0.55-0.55
					C68.66,38.1,68.91,38.35,68.91,38.65z"/>
			</g>
			<g class="st1">
				<rect x="65.64" y="41.4" class="st2" width="5.47" height="5.47"/>
				<path class="st2" d="M66.18,41.4c0,0.27-0.27,0.55-0.55,0.55V41.4H66.18z"/>
				<path class="st2" d="M71.11,41.4v0.55c-0.33,0-0.55-0.27-0.55-0.55H71.11z"/>
				<path class="st2" d="M66.18,46.87h-0.55v-0.55C65.91,46.32,66.18,46.54,66.18,46.87z"/>
				<path class="st2" d="M71.11,46.32v0.55h-0.55C70.56,46.54,70.78,46.32,71.11,46.32z"/>
				<path class="st2" d="M68.91,44.12c0,0.3-0.24,0.55-0.55,0.55c-0.3,0-0.55-0.24-0.55-0.55c0-0.3,0.24-0.55,0.55-0.55
					C68.66,43.57,68.91,43.82,68.91,44.12z"/>
			</g>
			<g class="st1">
				<rect x="65.64" y="46.87" class="st2" width="5.47" height="5.47"/>
				<path class="st2" d="M66.18,46.87c0,0.27-0.27,0.55-0.55,0.55v-0.55H66.18z"/>
				<path class="st2" d="M71.11,46.87v0.55c-0.33,0-0.55-0.27-0.55-0.55H71.11z"/>
				<path class="st2" d="M66.18,52.34h-0.55v-0.55C65.91,51.79,66.18,52.01,66.18,52.34z"/>
				<path class="st2" d="M71.11,51.79v0.55h-0.55C70.56,52.01,70.78,51.79,71.11,51.79z"/>
				<path class="st2" d="M68.91,49.59c0,0.3-0.24,0.55-0.55,0.55c-0.3,0-0.55-0.24-0.55-0.55s0.24-0.55,0.55-0.55
					C68.66,49.04,68.91,49.29,68.91,49.59z"/>
			</g>
			<g class="st1">
				<rect x="65.64" y="52.34" class="st2" width="5.47" height="5.47"/>
				<path class="st2" d="M66.18,52.34c0,0.27-0.27,0.55-0.55,0.55v-0.55H66.18z"/>
				<path class="st2" d="M71.11,52.34v0.55c-0.33,0-0.55-0.27-0.55-0.55H71.11z"/>
				<path class="st2" d="M66.18,57.81h-0.55v-0.55C65.91,57.26,66.18,57.48,66.18,57.81z"/>
				<path class="st2" d="M71.11,57.26v0.55h-0.55C70.56,57.48,70.78,57.26,71.11,57.26z"/>
				<path class="st2" d="M68.91,55.06c0,0.3-0.24,0.55-0.55,0.55c-0.3,0-0.55-0.24-0.55-0.55c0-0.3,0.24-0.55,0.55-0.55
					C68.66,54.51,68.91,54.76,68.91,55.06z"/>
			</g>
			<g class="st1">
				<rect x="60.16" y="3.1" class="st2" width="5.47" height="5.47"/>
				<path class="st2" d="M60.71,3.1c0,0.27-0.27,0.55-0.55,0.55V3.1H60.71z"/>
				<path class="st2" d="M65.64,3.1v0.55c-0.33,0-0.55-0.27-0.55-0.55H65.64z"/>
				<path class="st2" d="M60.71,8.57h-0.55V8.02C60.44,8.02,60.71,8.24,60.71,8.57z"/>
				<path class="st2" d="M65.64,8.02v0.55h-0.55C65.09,8.24,65.31,8.02,65.64,8.02z"/>
				<path class="st2" d="M63.44,5.82c0,0.3-0.24,0.55-0.55,0.55s-0.55-0.24-0.55-0.55c0-0.3,0.24-0.55,0.55-0.55
					S63.44,5.52,63.44,5.82z"/>
			</g>
			<g class="st1">
				<rect x="60.16" y="8.57" class="st2" width="5.47" height="5.47"/>
				<path class="st2" d="M60.71,8.57c0,0.27-0.27,0.55-0.55,0.55V8.57H60.71z"/>
				<path class="st2" d="M65.64,8.57v0.55c-0.33,0-0.55-0.27-0.55-0.55H65.64z"/>
				<path class="st2" d="M60.71,14.04h-0.55v-0.55C60.44,13.49,60.71,13.71,60.71,14.04z"/>
				<path class="st2" d="M65.64,13.49v0.55h-0.55C65.09,13.71,65.31,13.49,65.64,13.49z"/>
				<path class="st2" d="M63.44,11.29c0,0.3-0.24,0.55-0.55,0.55s-0.55-0.24-0.55-0.55s0.24-0.55,0.55-0.55S63.44,10.99,63.44,11.29
					z"/>
			</g>
			<g class="st1">
				<rect x="60.16" y="14.04" class="st2" width="5.47" height="5.47"/>
				<path class="st2" d="M60.71,14.04c0,0.27-0.27,0.55-0.55,0.55v-0.55H60.71z"/>
				<path class="st2" d="M65.64,14.04v0.55c-0.33,0-0.55-0.27-0.55-0.55H65.64z"/>
				<path class="st2" d="M60.71,19.51h-0.55v-0.55C60.44,18.96,60.71,19.18,60.71,19.51z"/>
				<path class="st2" d="M65.64,18.96v0.55h-0.55C65.09,19.18,65.31,18.96,65.64,18.96z"/>
				<path class="st2" d="M63.44,16.76c0,0.3-0.24,0.55-0.55,0.55s-0.55-0.24-0.55-0.55c0-0.3,0.24-0.55,0.55-0.55
					S63.44,16.46,63.44,16.76z"/>
			</g>
			<g class="st1">
				<rect x="60.16" y="19.51" class="st2" width="5.47" height="5.47"/>
				<path class="st2" d="M60.71,19.51c0,0.27-0.27,0.55-0.55,0.55v-0.55H60.71z"/>
				<path class="st2" d="M65.64,19.51v0.55c-0.33,0-0.55-0.27-0.55-0.55H65.64z"/>
				<path class="st2" d="M60.71,24.98h-0.55v-0.55C60.44,24.44,60.71,24.66,60.71,24.98z"/>
				<path class="st2" d="M65.64,24.44v0.55h-0.55C65.09,24.66,65.31,24.44,65.64,24.44z"/>
				<path class="st2" d="M63.44,22.23c0,0.3-0.24,0.55-0.55,0.55s-0.55-0.24-0.55-0.55s0.24-0.55,0.55-0.55S63.44,21.93,63.44,22.23
					z"/>
			</g>
			<g class="st1">
				<rect x="60.16" y="24.98" class="st2" width="5.47" height="5.47"/>
				<path class="st2" d="M60.71,24.98c0,0.27-0.27,0.55-0.55,0.55v-0.55H60.71z"/>
				<path class="st2" d="M65.64,24.98v0.55c-0.33,0-0.55-0.27-0.55-0.55H65.64z"/>
				<path class="st2" d="M60.71,30.45h-0.55v-0.55C60.44,29.91,60.71,30.13,60.71,30.45z"/>
				<path class="st2" d="M65.64,29.91v0.55h-0.55C65.09,30.13,65.31,29.91,65.64,29.91z"/>
				<path class="st2" d="M63.44,27.71c0,0.3-0.24,0.55-0.55,0.55s-0.55-0.24-0.55-0.55s0.24-0.55,0.55-0.55S63.44,27.4,63.44,27.71z
					"/>
			</g>
			<g class="st1">
				<rect x="60.16" y="30.45" class="st2" width="5.47" height="5.47"/>
				<path class="st2" d="M60.71,30.45c0,0.27-0.27,0.55-0.55,0.55v-0.55H60.71z"/>
				<path class="st2" d="M65.64,30.45V31c-0.33,0-0.55-0.27-0.55-0.55H65.64z"/>
				<path class="st2" d="M60.71,35.93h-0.55v-0.55C60.44,35.38,60.71,35.6,60.71,35.93z"/>
				<path class="st2" d="M65.64,35.38v0.55h-0.55C65.09,35.6,65.31,35.38,65.64,35.38z"/>
				<path class="st2" d="M63.44,33.18c0,0.3-0.24,0.55-0.55,0.55s-0.55-0.24-0.55-0.55s0.24-0.55,0.55-0.55S63.44,32.87,63.44,33.18
					z"/>
			</g>
			<g class="st1">
				<rect x="60.16" y="35.93" class="st2" width="5.47" height="5.47"/>
				<path class="st2" d="M60.71,35.93c0,0.27-0.27,0.55-0.55,0.55v-0.55H60.71z"/>
				<path class="st2" d="M65.64,35.93v0.55c-0.33,0-0.55-0.27-0.55-0.55H65.64z"/>
				<path class="st2" d="M60.71,41.4h-0.55v-0.55C60.44,40.85,60.71,41.07,60.71,41.4z"/>
				<path class="st2" d="M65.64,40.85v0.55h-0.55C65.09,41.07,65.31,40.85,65.64,40.85z"/>
				<path class="st2" d="M63.44,38.65c0,0.3-0.24,0.55-0.55,0.55s-0.55-0.24-0.55-0.55s0.24-0.55,0.55-0.55S63.44,38.35,63.44,38.65
					z"/>
			</g>
			<g class="st1">
				<rect x="60.16" y="41.4" class="st2" width="5.47" height="5.47"/>
				<path class="st2" d="M60.71,41.4c0,0.27-0.27,0.55-0.55,0.55V41.4H60.71z"/>
				<path class="st2" d="M65.64,41.4v0.55c-0.33,0-0.55-0.27-0.55-0.55H65.64z"/>
				<path class="st2" d="M60.71,46.87h-0.55v-0.55C60.44,46.32,60.71,46.54,60.71,46.87z"/>
				<path class="st2" d="M65.64,46.32v0.55h-0.55C65.09,46.54,65.31,46.32,65.64,46.32z"/>
				<path class="st2" d="M63.44,44.12c0,0.3-0.24,0.55-0.55,0.55s-0.55-0.24-0.55-0.55c0-0.3,0.24-0.55,0.55-0.55
					S63.44,43.82,63.44,44.12z"/>
			</g>
			<g class="st1">
				<rect x="60.16" y="46.87" class="st2" width="5.47" height="5.47"/>
				<path class="st2" d="M60.71,46.87c0,0.27-0.27,0.55-0.55,0.55v-0.55H60.71z"/>
				<path class="st2" d="M65.64,46.87v0.55c-0.33,0-0.55-0.27-0.55-0.55H65.64z"/>
				<path class="st2" d="M60.71,52.34h-0.55v-0.55C60.44,51.79,60.71,52.01,60.71,52.34z"/>
				<path class="st2" d="M65.64,51.79v0.55h-0.55C65.09,52.01,65.31,51.79,65.64,51.79z"/>
				<path class="st2" d="M63.44,49.59c0,0.3-0.24,0.55-0.55,0.55s-0.55-0.24-0.55-0.55s0.24-0.55,0.55-0.55S63.44,49.29,63.44,49.59
					z"/>
			</g>
			<g class="st1">
				<rect x="60.16" y="52.34" class="st2" width="5.47" height="5.47"/>
				<path class="st2" d="M60.71,52.34c0,0.27-0.27,0.55-0.55,0.55v-0.55H60.71z"/>
				<path class="st2" d="M65.64,52.34v0.55c-0.33,0-0.55-0.27-0.55-0.55H65.64z"/>
				<path class="st2" d="M60.71,57.81h-0.55v-0.55C60.44,57.26,60.71,57.48,60.71,57.81z"/>
				<path class="st2" d="M65.64,57.26v0.55h-0.55C65.09,57.48,65.31,57.26,65.64,57.26z"/>
				<path class="st2" d="M63.44,55.06c0,0.3-0.24,0.55-0.55,0.55s-0.55-0.24-0.55-0.55c0-0.3,0.24-0.55,0.55-0.55
					S63.44,54.76,63.44,55.06z"/>
			</g>
			<g class="st1">
				<rect x="54.69" y="3.1" class="st2" width="5.47" height="5.47"/>
				<path class="st2" d="M55.24,3.1c0,0.27-0.27,0.55-0.55,0.55V3.1H55.24z"/>
				<path class="st2" d="M60.16,3.1v0.55c-0.33,0-0.55-0.27-0.55-0.55H60.16z"/>
				<path class="st2" d="M55.24,8.57h-0.55V8.02C54.97,8.02,55.24,8.24,55.24,8.57z"/>
				<path class="st2" d="M60.16,8.02v0.55h-0.55C59.62,8.24,59.84,8.02,60.16,8.02z"/>
				<path class="st2" d="M57.96,5.82c0,0.3-0.24,0.55-0.55,0.55s-0.55-0.24-0.55-0.55c0-0.3,0.24-0.55,0.55-0.55
					S57.96,5.52,57.96,5.82z"/>
			</g>
			<g class="st1">
				<rect x="54.69" y="8.57" class="st2" width="5.47" height="5.47"/>
				<path class="st2" d="M55.24,8.57c0,0.27-0.27,0.55-0.55,0.55V8.57H55.24z"/>
				<path class="st2" d="M60.16,8.57v0.55c-0.33,0-0.55-0.27-0.55-0.55H60.16z"/>
				<path class="st2" d="M55.24,14.04h-0.55v-0.55C54.97,13.49,55.24,13.71,55.24,14.04z"/>
				<path class="st2" d="M60.16,13.49v0.55h-0.55C59.62,13.71,59.84,13.49,60.16,13.49z"/>
				<circle class="st2" cx="57.42" cy="11.29" r="0.55"/>
			</g>
			<g class="st1">
				<rect x="54.69" y="14.04" class="st2" width="5.47" height="5.47"/>
				<path class="st2" d="M55.24,14.04c0,0.27-0.27,0.55-0.55,0.55v-0.55H55.24z"/>
				<path class="st2" d="M60.16,14.04v0.55c-0.33,0-0.55-0.27-0.55-0.55H60.16z"/>
				<path class="st2" d="M55.24,19.51h-0.55v-0.55C54.97,18.96,55.24,19.18,55.24,19.51z"/>
				<path class="st2" d="M60.16,18.96v0.55h-0.55C59.62,19.18,59.84,18.96,60.16,18.96z"/>
				<path class="st2" d="M57.96,16.76c0,0.3-0.24,0.55-0.55,0.55s-0.55-0.24-0.55-0.55c0-0.3,0.24-0.55,0.55-0.55
					S57.96,16.46,57.96,16.76z"/>
			</g>
			<g class="st1">
				<rect x="54.69" y="19.51" class="st2" width="5.47" height="5.47"/>
				<path class="st2" d="M55.24,19.51c0,0.27-0.27,0.55-0.55,0.55v-0.55H55.24z"/>
				<path class="st2" d="M60.16,19.51v0.55c-0.33,0-0.55-0.27-0.55-0.55H60.16z"/>
				<path class="st2" d="M55.24,24.98h-0.55v-0.55C54.97,24.44,55.24,24.66,55.24,24.98z"/>
				<path class="st2" d="M60.16,24.44v0.55h-0.55C59.62,24.66,59.84,24.44,60.16,24.44z"/>
				<path class="st2" d="M57.96,22.23c0,0.3-0.24,0.55-0.55,0.55s-0.55-0.24-0.55-0.55s0.24-0.55,0.55-0.55S57.96,21.93,57.96,22.23
					z"/>
			</g>
			<g class="st1">
				<rect x="54.69" y="24.98" class="st2" width="5.47" height="5.47"/>
				<path class="st2" d="M55.24,24.98c0,0.27-0.27,0.55-0.55,0.55v-0.55H55.24z"/>
				<path class="st2" d="M60.16,24.98v0.55c-0.33,0-0.55-0.27-0.55-0.55H60.16z"/>
				<path class="st2" d="M55.24,30.45h-0.55v-0.55C54.97,29.91,55.24,30.13,55.24,30.45z"/>
				<path class="st2" d="M60.16,29.91v0.55h-0.55C59.62,30.13,59.84,29.91,60.16,29.91z"/>
				<path class="st2" d="M57.96,27.71c0,0.3-0.24,0.55-0.55,0.55s-0.55-0.24-0.55-0.55s0.24-0.55,0.55-0.55S57.96,27.4,57.96,27.71z
					"/>
			</g>
			<g class="st1">
				<rect x="54.69" y="30.45" class="st2" width="5.47" height="5.47"/>
				<path class="st2" d="M55.24,30.45c0,0.27-0.27,0.55-0.55,0.55v-0.55H55.24z"/>
				<path class="st2" d="M60.16,30.45V31c-0.33,0-0.55-0.27-0.55-0.55H60.16z"/>
				<path class="st2" d="M55.24,35.93h-0.55v-0.55C54.97,35.38,55.24,35.6,55.24,35.93z"/>
				<path class="st2" d="M60.16,35.38v0.55h-0.55C59.62,35.6,59.84,35.38,60.16,35.38z"/>
				<path class="st2" d="M57.96,33.18c0,0.3-0.24,0.55-0.55,0.55s-0.55-0.24-0.55-0.55s0.24-0.55,0.55-0.55S57.96,32.87,57.96,33.18
					z"/>
			</g>
			<g class="st1">
				<rect x="54.69" y="35.93" class="st2" width="5.47" height="5.47"/>
				<path class="st2" d="M55.24,35.93c0,0.27-0.27,0.55-0.55,0.55v-0.55H55.24z"/>
				<path class="st2" d="M60.16,35.93v0.55c-0.33,0-0.55-0.27-0.55-0.55H60.16z"/>
				<path class="st2" d="M55.24,41.4h-0.55v-0.55C54.97,40.85,55.24,41.07,55.24,41.4z"/>
				<path class="st2" d="M60.16,40.85v0.55h-0.55C59.62,41.07,59.84,40.85,60.16,40.85z"/>
				<circle class="st2" cx="57.42" cy="38.65" r="0.55"/>
			</g>
			<g class="st1">
				<rect x="54.69" y="41.4" class="st2" width="5.47" height="5.47"/>
				<path class="st2" d="M55.24,41.4c0,0.27-0.27,0.55-0.55,0.55V41.4H55.24z"/>
				<path class="st2" d="M60.16,41.4v0.55c-0.33,0-0.55-0.27-0.55-0.55H60.16z"/>
				<path class="st2" d="M55.24,46.87h-0.55v-0.55C54.97,46.32,55.24,46.54,55.24,46.87z"/>
				<path class="st2" d="M60.16,46.32v0.55h-0.55C59.62,46.54,59.84,46.32,60.16,46.32z"/>
				<path class="st2" d="M57.96,44.12c0,0.3-0.24,0.55-0.55,0.55s-0.55-0.24-0.55-0.55c0-0.3,0.24-0.55,0.55-0.55
					S57.96,43.82,57.96,44.12z"/>
			</g>
			<g class="st1">
				<rect x="54.69" y="46.87" class="st2" width="5.47" height="5.47"/>
				<path class="st2" d="M55.24,46.87c0,0.27-0.27,0.55-0.55,0.55v-0.55H55.24z"/>
				<path class="st2" d="M60.16,46.87v0.55c-0.33,0-0.55-0.27-0.55-0.55H60.16z"/>
				<path class="st2" d="M55.24,52.34h-0.55v-0.55C54.97,51.79,55.24,52.01,55.24,52.34z"/>
				<path class="st2" d="M60.16,51.79v0.55h-0.55C59.62,52.01,59.84,51.79,60.16,51.79z"/>
				<circle class="st2" cx="57.42" cy="49.59" r="0.55"/>
			</g>
			<g class="st1">
				<rect x="54.69" y="52.34" class="st2" width="5.47" height="5.47"/>
				<path class="st2" d="M55.24,52.34c0,0.27-0.27,0.55-0.55,0.55v-0.55H55.24z"/>
				<path class="st2" d="M60.16,52.34v0.55c-0.33,0-0.55-0.27-0.55-0.55H60.16z"/>
				<path class="st2" d="M55.24,57.81h-0.55v-0.55C54.97,57.26,55.24,57.48,55.24,57.81z"/>
				<path class="st2" d="M60.16,57.26v0.55h-0.55C59.62,57.48,59.84,57.26,60.16,57.26z"/>
				<path class="st2" d="M57.96,55.06c0,0.3-0.24,0.55-0.55,0.55s-0.55-0.24-0.55-0.55c0-0.3,0.24-0.55,0.55-0.55
					S57.96,54.76,57.96,55.06z"/>
			</g>
			<g class="st1">
				<rect x="49.22" y="3.1" class="st2" width="5.47" height="5.47"/>
				<path class="st2" d="M49.77,3.1c0,0.27-0.27,0.55-0.55,0.55V3.1H49.77z"/>
				<path class="st2" d="M54.69,3.1v0.55c-0.33,0-0.55-0.27-0.55-0.55H54.69z"/>
				<path class="st2" d="M49.77,8.57h-0.55V8.02C49.5,8.02,49.77,8.24,49.77,8.57z"/>
				<path class="st2" d="M54.69,8.02v0.55h-0.55C54.15,8.24,54.37,8.02,54.69,8.02z"/>
				<path class="st2" d="M52.49,5.82c0,0.3-0.24,0.55-0.55,0.55c-0.3,0-0.55-0.24-0.55-0.55c0-0.3,0.24-0.55,0.55-0.55
					C52.25,5.27,52.49,5.52,52.49,5.82z"/>
			</g>
			<g class="st1">
				<rect x="49.22" y="8.57" class="st2" width="5.47" height="5.47"/>
				<path class="st2" d="M49.77,8.57c0,0.27-0.27,0.55-0.55,0.55V8.57H49.77z"/>
				<path class="st2" d="M54.69,8.57v0.55c-0.33,0-0.55-0.27-0.55-0.55H54.69z"/>
				<path class="st2" d="M49.77,14.04h-0.55v-0.55C49.5,13.49,49.77,13.71,49.77,14.04z"/>
				<path class="st2" d="M54.69,13.49v0.55h-0.55C54.15,13.71,54.37,13.49,54.69,13.49z"/>
				<path class="st2" d="M52.49,11.29c0,0.3-0.24,0.55-0.55,0.55c-0.3,0-0.55-0.24-0.55-0.55s0.24-0.55,0.55-0.55
					C52.25,10.74,52.49,10.99,52.49,11.29z"/>
			</g>
			<g class="st1">
				<rect x="49.22" y="14.04" class="st2" width="5.47" height="5.47"/>
				<path class="st2" d="M49.77,14.04c0,0.27-0.27,0.55-0.55,0.55v-0.55H49.77z"/>
				<path class="st2" d="M54.69,14.04v0.55c-0.33,0-0.55-0.27-0.55-0.55H54.69z"/>
				<path class="st2" d="M49.77,19.51h-0.55v-0.55C49.5,18.96,49.77,19.18,49.77,19.51z"/>
				<path class="st2" d="M54.69,18.96v0.55h-0.55C54.15,19.18,54.37,18.96,54.69,18.96z"/>
				<path class="st2" d="M52.49,16.76c0,0.3-0.24,0.55-0.55,0.55c-0.3,0-0.55-0.24-0.55-0.55c0-0.3,0.24-0.55,0.55-0.55
					C52.25,16.22,52.49,16.46,52.49,16.76z"/>
			</g>
			<g class="st1">
				<rect x="49.22" y="19.51" class="st2" width="5.47" height="5.47"/>
				<path class="st2" d="M49.77,19.51c0,0.27-0.27,0.55-0.55,0.55v-0.55H49.77z"/>
				<path class="st2" d="M54.69,19.51v0.55c-0.33,0-0.55-0.27-0.55-0.55H54.69z"/>
				<path class="st2" d="M49.77,24.98h-0.55v-0.55C49.5,24.44,49.77,24.66,49.77,24.98z"/>
				<path class="st2" d="M54.69,24.44v0.55h-0.55C54.15,24.66,54.37,24.44,54.69,24.44z"/>
				<path class="st2" d="M52.49,22.23c0,0.3-0.24,0.55-0.55,0.55c-0.3,0-0.55-0.24-0.55-0.55s0.24-0.55,0.55-0.55
					C52.25,21.69,52.49,21.93,52.49,22.23z"/>
			</g>
			<g class="st1">
				<rect x="49.22" y="24.98" class="st2" width="5.47" height="5.47"/>
				<path class="st2" d="M49.77,24.98c0,0.27-0.27,0.55-0.55,0.55v-0.55H49.77z"/>
				<path class="st2" d="M54.69,24.98v0.55c-0.33,0-0.55-0.27-0.55-0.55H54.69z"/>
				<path class="st2" d="M49.77,30.45h-0.55v-0.55C49.5,29.91,49.77,30.13,49.77,30.45z"/>
				<path class="st2" d="M54.69,29.91v0.55h-0.55C54.15,30.13,54.37,29.91,54.69,29.91z"/>
				<path class="st2" d="M52.49,27.71c0,0.3-0.24,0.55-0.55,0.55c-0.3,0-0.55-0.24-0.55-0.55s0.24-0.55,0.55-0.55
					C52.25,27.16,52.49,27.4,52.49,27.71z"/>
			</g>
			<g class="st1">
				<rect x="49.22" y="30.45" class="st2" width="5.47" height="5.47"/>
				<path class="st2" d="M49.77,30.45c0,0.27-0.27,0.55-0.55,0.55v-0.55H49.77z"/>
				<path class="st2" d="M54.69,30.45V31c-0.33,0-0.55-0.27-0.55-0.55H54.69z"/>
				<path class="st2" d="M49.77,35.93h-0.55v-0.55C49.5,35.38,49.77,35.6,49.77,35.93z"/>
				<path class="st2" d="M54.69,35.38v0.55h-0.55C54.15,35.6,54.37,35.38,54.69,35.38z"/>
				<path class="st2" d="M52.49,33.18c0,0.3-0.24,0.55-0.55,0.55c-0.3,0-0.55-0.24-0.55-0.55s0.24-0.55,0.55-0.55
					C52.25,32.63,52.49,32.87,52.49,33.18z"/>
			</g>
			<g class="st1">
				<rect x="49.22" y="35.93" class="st2" width="5.47" height="5.47"/>
				<path class="st2" d="M49.77,35.93c0,0.27-0.27,0.55-0.55,0.55v-0.55H49.77z"/>
				<path class="st2" d="M54.69,35.93v0.55c-0.33,0-0.55-0.27-0.55-0.55H54.69z"/>
				<path class="st2" d="M49.77,41.4h-0.55v-0.55C49.5,40.85,49.77,41.07,49.77,41.4z"/>
				<path class="st2" d="M54.69,40.85v0.55h-0.55C54.15,41.07,54.37,40.85,54.69,40.85z"/>
				<path class="st2" d="M52.49,38.65c0,0.3-0.24,0.55-0.55,0.55c-0.3,0-0.55-0.24-0.55-0.55s0.24-0.55,0.55-0.55
					C52.25,38.1,52.49,38.35,52.49,38.65z"/>
			</g>
			<g class="st1">
				<rect x="49.22" y="41.4" class="st2" width="5.47" height="5.47"/>
				<path class="st2" d="M49.77,41.4c0,0.27-0.27,0.55-0.55,0.55V41.4H49.77z"/>
				<path class="st2" d="M54.69,41.4v0.55c-0.33,0-0.55-0.27-0.55-0.55H54.69z"/>
				<path class="st2" d="M49.77,46.87h-0.55v-0.55C49.5,46.32,49.77,46.54,49.77,46.87z"/>
				<path class="st2" d="M54.69,46.32v0.55h-0.55C54.15,46.54,54.37,46.32,54.69,46.32z"/>
				<path class="st2" d="M52.49,44.12c0,0.3-0.24,0.55-0.55,0.55c-0.3,0-0.55-0.24-0.55-0.55c0-0.3,0.24-0.55,0.55-0.55
					C52.25,43.57,52.49,43.82,52.49,44.12z"/>
			</g>
			<g class="st1">
				<rect x="49.22" y="46.87" class="st2" width="5.47" height="5.47"/>
				<path class="st2" d="M49.77,46.87c0,0.27-0.27,0.55-0.55,0.55v-0.55H49.77z"/>
				<path class="st2" d="M54.69,46.87v0.55c-0.33,0-0.55-0.27-0.55-0.55H54.69z"/>
				<path class="st2" d="M49.77,52.34h-0.55v-0.55C49.5,51.79,49.77,52.01,49.77,52.34z"/>
				<path class="st2" d="M54.69,51.79v0.55h-0.55C54.15,52.01,54.37,51.79,54.69,51.79z"/>
				<path class="st2" d="M52.49,49.59c0,0.3-0.24,0.55-0.55,0.55c-0.3,0-0.55-0.24-0.55-0.55s0.24-0.55,0.55-0.55
					C52.25,49.04,52.49,49.29,52.49,49.59z"/>
			</g>
			<g class="st1">
				<rect x="49.22" y="52.34" class="st2" width="5.47" height="5.47"/>
				<path class="st2" d="M49.77,52.34c0,0.27-0.27,0.55-0.55,0.55v-0.55H49.77z"/>
				<path class="st2" d="M54.69,52.34v0.55c-0.33,0-0.55-0.27-0.55-0.55H54.69z"/>
				<path class="st2" d="M49.77,57.81h-0.55v-0.55C49.5,57.26,49.77,57.48,49.77,57.81z"/>
				<path class="st2" d="M54.69,57.26v0.55h-0.55C54.15,57.48,54.37,57.26,54.69,57.26z"/>
				<path class="st2" d="M52.49,55.06c0,0.3-0.24,0.55-0.55,0.55c-0.3,0-0.55-0.24-0.55-0.55c0-0.3,0.24-0.55,0.55-0.55
					C52.25,54.51,52.49,54.76,52.49,55.06z"/>
			</g>
			<g class="st1">
				<rect x="43.75" y="3.1" class="st2" width="5.47" height="5.47"/>
				<path class="st2" d="M44.3,3.1c0,0.27-0.27,0.55-0.55,0.55V3.1H44.3z"/>
				<path class="st2" d="M49.22,3.1v0.55c-0.33,0-0.55-0.27-0.55-0.55H49.22z"/>
				<path class="st2" d="M44.3,8.57h-0.55V8.02C44.02,8.02,44.3,8.24,44.3,8.57z"/>
				<path class="st2" d="M49.22,8.02v0.55h-0.55C48.68,8.24,48.89,8.02,49.22,8.02z"/>
				<path class="st2" d="M47.02,5.82c0,0.3-0.24,0.55-0.55,0.55s-0.55-0.24-0.55-0.55c0-0.3,0.24-0.55,0.55-0.55
					S47.02,5.52,47.02,5.82z"/>
			</g>
			<g class="st1">
				<rect x="43.75" y="8.57" class="st2" width="5.47" height="5.47"/>
				<path class="st2" d="M44.3,8.57c0,0.27-0.27,0.55-0.55,0.55V8.57H44.3z"/>
				<path class="st2" d="M49.22,8.57v0.55c-0.33,0-0.55-0.27-0.55-0.55H49.22z"/>
				<path class="st2" d="M44.3,14.04h-0.55v-0.55C44.02,13.49,44.3,13.71,44.3,14.04z"/>
				<path class="st2" d="M49.22,13.49v0.55h-0.55C48.68,13.71,48.89,13.49,49.22,13.49z"/>
				<circle class="st2" cx="46.48" cy="11.29" r="0.55"/>
			</g>
			<g class="st1">
				<rect x="43.75" y="14.04" class="st2" width="5.47" height="5.47"/>
				<path class="st2" d="M44.3,14.04c0,0.27-0.27,0.55-0.55,0.55v-0.55H44.3z"/>
				<path class="st2" d="M49.22,14.04v0.55c-0.33,0-0.55-0.27-0.55-0.55H49.22z"/>
				<path class="st2" d="M44.3,19.51h-0.55v-0.55C44.02,18.96,44.3,19.18,44.3,19.51z"/>
				<path class="st2" d="M49.22,18.96v0.55h-0.55C48.68,19.18,48.89,18.96,49.22,18.96z"/>
				<path class="st2" d="M47.02,16.76c0,0.3-0.24,0.55-0.55,0.55s-0.55-0.24-0.55-0.55c0-0.3,0.24-0.55,0.55-0.55
					S47.02,16.46,47.02,16.76z"/>
			</g>
			<g class="st1">
				<rect x="43.75" y="19.51" class="st2" width="5.47" height="5.47"/>
				<path class="st2" d="M44.3,19.51c0,0.27-0.27,0.55-0.55,0.55v-0.55H44.3z"/>
				<path class="st2" d="M49.22,19.51v0.55c-0.33,0-0.55-0.27-0.55-0.55H49.22z"/>
				<path class="st2" d="M44.3,24.98h-0.55v-0.55C44.02,24.44,44.3,24.66,44.3,24.98z"/>
				<path class="st2" d="M49.22,24.44v0.55h-0.55C48.68,24.66,48.89,24.44,49.22,24.44z"/>
				<path class="st2" d="M47.02,22.23c0,0.3-0.24,0.55-0.55,0.55s-0.55-0.24-0.55-0.55s0.24-0.55,0.55-0.55S47.02,21.93,47.02,22.23
					z"/>
			</g>
			<g class="st1">
				<rect x="43.75" y="24.98" class="st2" width="5.47" height="5.47"/>
				<path class="st2" d="M44.3,24.98c0,0.27-0.27,0.55-0.55,0.55v-0.55H44.3z"/>
				<path class="st2" d="M49.22,24.98v0.55c-0.33,0-0.55-0.27-0.55-0.55H49.22z"/>
				<path class="st2" d="M44.3,30.45h-0.55v-0.55C44.02,29.91,44.3,30.13,44.3,30.45z"/>
				<path class="st2" d="M49.22,29.91v0.55h-0.55C48.68,30.13,48.89,29.91,49.22,29.91z"/>
				<path class="st2" d="M47.02,27.71c0,0.3-0.24,0.55-0.55,0.55s-0.55-0.24-0.55-0.55s0.24-0.55,0.55-0.55S47.02,27.4,47.02,27.71z
					"/>
			</g>
			<g class="st1">
				<rect x="43.75" y="30.45" class="st2" width="5.47" height="5.47"/>
				<path class="st2" d="M44.3,30.45c0,0.27-0.27,0.55-0.55,0.55v-0.55H44.3z"/>
				<path class="st2" d="M49.22,30.45V31c-0.33,0-0.55-0.27-0.55-0.55H49.22z"/>
				<path class="st2" d="M44.3,35.93h-0.55v-0.55C44.02,35.38,44.3,35.6,44.3,35.93z"/>
				<path class="st2" d="M49.22,35.38v0.55h-0.55C48.68,35.6,48.89,35.38,49.22,35.38z"/>
				<path class="st2" d="M47.02,33.18c0,0.3-0.24,0.55-0.55,0.55s-0.55-0.24-0.55-0.55s0.24-0.55,0.55-0.55S47.02,32.87,47.02,33.18
					z"/>
			</g>
			<g class="st1">
				<rect x="43.75" y="35.93" class="st2" width="5.47" height="5.47"/>
				<path class="st2" d="M44.3,35.93c0,0.27-0.27,0.55-0.55,0.55v-0.55H44.3z"/>
				<path class="st2" d="M49.22,35.93v0.55c-0.33,0-0.55-0.27-0.55-0.55H49.22z"/>
				<path class="st2" d="M44.3,41.4h-0.55v-0.55C44.02,40.85,44.3,41.07,44.3,41.4z"/>
				<path class="st2" d="M49.22,40.85v0.55h-0.55C48.68,41.07,48.89,40.85,49.22,40.85z"/>
				<circle class="st2" cx="46.48" cy="38.65" r="0.55"/>
			</g>
			<g class="st1">
				<rect x="43.75" y="41.4" class="st2" width="5.47" height="5.47"/>
				<path class="st2" d="M44.3,41.4c0,0.27-0.27,0.55-0.55,0.55V41.4H44.3z"/>
				<path class="st2" d="M49.22,41.4v0.55c-0.33,0-0.55-0.27-0.55-0.55H49.22z"/>
				<path class="st2" d="M44.3,46.87h-0.55v-0.55C44.02,46.32,44.3,46.54,44.3,46.87z"/>
				<path class="st2" d="M49.22,46.32v0.55h-0.55C48.68,46.54,48.89,46.32,49.22,46.32z"/>
				<path class="st2" d="M47.02,44.12c0,0.3-0.24,0.55-0.55,0.55s-0.55-0.24-0.55-0.55c0-0.3,0.24-0.55,0.55-0.55
					S47.02,43.82,47.02,44.12z"/>
			</g>
			<g class="st1">
				<rect x="43.75" y="46.87" class="st2" width="5.47" height="5.47"/>
				<path class="st2" d="M44.3,46.87c0,0.27-0.27,0.55-0.55,0.55v-0.55H44.3z"/>
				<path class="st2" d="M49.22,46.87v0.55c-0.33,0-0.55-0.27-0.55-0.55H49.22z"/>
				<path class="st2" d="M44.3,52.34h-0.55v-0.55C44.02,51.79,44.3,52.01,44.3,52.34z"/>
				<path class="st2" d="M49.22,51.79v0.55h-0.55C48.68,52.01,48.89,51.79,49.22,51.79z"/>
				<circle class="st2" cx="46.48" cy="49.59" r="0.55"/>
			</g>
			<g class="st1">
				<rect x="43.75" y="52.34" class="st2" width="5.47" height="5.47"/>
				<path class="st2" d="M44.3,52.34c0,0.27-0.27,0.55-0.55,0.55v-0.55H44.3z"/>
				<path class="st2" d="M49.22,52.34v0.55c-0.33,0-0.55-0.27-0.55-0.55H49.22z"/>
				<path class="st2" d="M44.3,57.81h-0.55v-0.55C44.02,57.26,44.3,57.48,44.3,57.81z"/>
				<path class="st2" d="M49.22,57.26v0.55h-0.55C48.68,57.48,48.89,57.26,49.22,57.26z"/>
				<path class="st2" d="M47.02,55.06c0,0.3-0.24,0.55-0.55,0.55s-0.55-0.24-0.55-0.55c0-0.3,0.24-0.55,0.55-0.55
					S47.02,54.76,47.02,55.06z"/>
			</g>
			<g class="st1">
				<rect x="38.28" y="3.1" class="st2" width="5.47" height="5.47"/>
				<path class="st2" d="M38.83,3.1c0,0.27-0.27,0.55-0.55,0.55V3.1H38.83z"/>
				<path class="st2" d="M43.75,3.1v0.55c-0.33,0-0.55-0.27-0.55-0.55H43.75z"/>
				<path class="st2" d="M38.83,8.57h-0.55V8.02C38.55,8.02,38.83,8.24,38.83,8.57z"/>
				<path class="st2" d="M43.75,8.02v0.55H43.2C43.2,8.24,43.42,8.02,43.75,8.02z"/>
				<path class="st2" d="M41.55,5.82c0,0.3-0.24,0.55-0.55,0.55c-0.3,0-0.55-0.24-0.55-0.55c0-0.3,0.24-0.55,0.55-0.55
					C41.31,5.27,41.55,5.52,41.55,5.82z"/>
			</g>
			<g class="st1">
				<rect x="38.28" y="8.57" class="st2" width="5.47" height="5.47"/>
				<path class="st2" d="M38.83,8.57c0,0.27-0.27,0.55-0.55,0.55V8.57H38.83z"/>
				<path class="st2" d="M43.75,8.57v0.55c-0.33,0-0.55-0.27-0.55-0.55H43.75z"/>
				<path class="st2" d="M38.83,14.04h-0.55v-0.55C38.55,13.49,38.83,13.71,38.83,14.04z"/>
				<path class="st2" d="M43.75,13.49v0.55H43.2C43.2,13.71,43.42,13.49,43.75,13.49z"/>
				<path class="st2" d="M41.55,11.29c0,0.3-0.24,0.55-0.55,0.55c-0.3,0-0.55-0.24-0.55-0.55s0.24-0.55,0.55-0.55
					C41.31,10.74,41.55,10.99,41.55,11.29z"/>
			</g>
			<g class="st1">
				<rect x="38.28" y="14.04" class="st2" width="5.47" height="5.47"/>
				<path class="st2" d="M38.83,14.04c0,0.27-0.27,0.55-0.55,0.55v-0.55H38.83z"/>
				<path class="st2" d="M43.75,14.04v0.55c-0.33,0-0.55-0.27-0.55-0.55H43.75z"/>
				<path class="st2" d="M38.83,19.51h-0.55v-0.55C38.55,18.96,38.83,19.18,38.83,19.51z"/>
				<path class="st2" d="M43.75,18.96v0.55H43.2C43.2,19.18,43.42,18.96,43.75,18.96z"/>
				<path class="st2" d="M41.55,16.76c0,0.3-0.24,0.55-0.55,0.55c-0.3,0-0.55-0.24-0.55-0.55c0-0.3,0.24-0.55,0.55-0.55
					C41.31,16.22,41.55,16.46,41.55,16.76z"/>
			</g>
			<g class="st1">
				<rect x="38.28" y="19.51" class="st2" width="5.47" height="5.47"/>
				<path class="st2" d="M38.83,19.51c0,0.27-0.27,0.55-0.55,0.55v-0.55H38.83z"/>
				<path class="st2" d="M43.75,19.51v0.55c-0.33,0-0.55-0.27-0.55-0.55H43.75z"/>
				<path class="st2" d="M38.83,24.98h-0.55v-0.55C38.55,24.44,38.83,24.66,38.83,24.98z"/>
				<path class="st2" d="M43.75,24.44v0.55H43.2C43.2,24.66,43.42,24.44,43.75,24.44z"/>
				<path class="st2" d="M41.55,22.23c0,0.3-0.24,0.55-0.55,0.55c-0.3,0-0.55-0.24-0.55-0.55s0.24-0.55,0.55-0.55
					C41.31,21.69,41.55,21.93,41.55,22.23z"/>
			</g>
			<g class="st1">
				<rect x="38.28" y="24.98" class="st2" width="5.47" height="5.47"/>
				<path class="st2" d="M38.83,24.98c0,0.27-0.27,0.55-0.55,0.55v-0.55H38.83z"/>
				<path class="st2" d="M43.75,24.98v0.55c-0.33,0-0.55-0.27-0.55-0.55H43.75z"/>
				<path class="st2" d="M38.83,30.45h-0.55v-0.55C38.55,29.91,38.83,30.13,38.83,30.45z"/>
				<path class="st2" d="M43.75,29.91v0.55H43.2C43.2,30.13,43.42,29.91,43.75,29.91z"/>
				<path class="st2" d="M41.55,27.71c0,0.3-0.24,0.55-0.55,0.55c-0.3,0-0.55-0.24-0.55-0.55s0.24-0.55,0.55-0.55
					C41.31,27.16,41.55,27.4,41.55,27.71z"/>
			</g>
			<g class="st1">
				<rect x="38.28" y="30.45" class="st2" width="5.47" height="5.47"/>
				<path class="st2" d="M38.83,30.45c0,0.27-0.27,0.55-0.55,0.55v-0.55H38.83z"/>
				<path class="st2" d="M43.75,30.45V31c-0.33,0-0.55-0.27-0.55-0.55H43.75z"/>
				<path class="st2" d="M38.83,35.93h-0.55v-0.55C38.55,35.38,38.83,35.6,38.83,35.93z"/>
				<path class="st2" d="M43.75,35.38v0.55H43.2C43.2,35.6,43.42,35.38,43.75,35.38z"/>
				<path class="st2" d="M41.55,33.18c0,0.3-0.24,0.55-0.55,0.55c-0.3,0-0.55-0.24-0.55-0.55s0.24-0.55,0.55-0.55
					C41.31,32.63,41.55,32.87,41.55,33.18z"/>
			</g>
			<g class="st1">
				<rect x="38.28" y="35.93" class="st2" width="5.47" height="5.47"/>
				<path class="st2" d="M38.83,35.93c0,0.27-0.27,0.55-0.55,0.55v-0.55H38.83z"/>
				<path class="st2" d="M43.75,35.93v0.55c-0.33,0-0.55-0.27-0.55-0.55H43.75z"/>
				<path class="st2" d="M38.83,41.4h-0.55v-0.55C38.55,40.85,38.83,41.07,38.83,41.4z"/>
				<path class="st2" d="M43.75,40.85v0.55H43.2C43.2,41.07,43.42,40.85,43.75,40.85z"/>
				<path class="st2" d="M41.55,38.65c0,0.3-0.24,0.55-0.55,0.55c-0.3,0-0.55-0.24-0.55-0.55S40.7,38.1,41,38.1
					C41.31,38.1,41.55,38.35,41.55,38.65z"/>
			</g>
			<g class="st1">
				<rect x="38.28" y="41.4" class="st2" width="5.47" height="5.47"/>
				<path class="st2" d="M38.83,41.4c0,0.27-0.27,0.55-0.55,0.55V41.4H38.83z"/>
				<path class="st2" d="M43.75,41.4v0.55c-0.33,0-0.55-0.27-0.55-0.55H43.75z"/>
				<path class="st2" d="M38.83,46.87h-0.55v-0.55C38.55,46.32,38.83,46.54,38.83,46.87z"/>
				<path class="st2" d="M43.75,46.32v0.55H43.2C43.2,46.54,43.42,46.32,43.75,46.32z"/>
				<path class="st2" d="M41.55,44.12c0,0.3-0.24,0.55-0.55,0.55c-0.3,0-0.55-0.24-0.55-0.55c0-0.3,0.24-0.55,0.55-0.55
					C41.31,43.57,41.55,43.82,41.55,44.12z"/>
			</g>
			<g class="st1">
				<rect x="38.28" y="46.87" class="st2" width="5.47" height="5.47"/>
				<path class="st2" d="M38.83,46.87c0,0.27-0.27,0.55-0.55,0.55v-0.55H38.83z"/>
				<path class="st2" d="M43.75,46.87v0.55c-0.33,0-0.55-0.27-0.55-0.55H43.75z"/>
				<path class="st2" d="M38.83,52.34h-0.55v-0.55C38.55,51.79,38.83,52.01,38.83,52.34z"/>
				<path class="st2" d="M43.75,51.79v0.55H43.2C43.2,52.01,43.42,51.79,43.75,51.79z"/>
				<path class="st2" d="M41.55,49.59c0,0.3-0.24,0.55-0.55,0.55c-0.3,0-0.55-0.24-0.55-0.55s0.24-0.55,0.55-0.55
					C41.31,49.04,41.55,49.29,41.55,49.59z"/>
			</g>
			<g class="st1">
				<rect x="38.28" y="52.34" class="st2" width="5.47" height="5.47"/>
				<path class="st2" d="M38.83,52.34c0,0.27-0.27,0.55-0.55,0.55v-0.55H38.83z"/>
				<path class="st2" d="M43.75,52.34v0.55c-0.33,0-0.55-0.27-0.55-0.55H43.75z"/>
				<path class="st2" d="M38.83,57.81h-0.55v-0.55C38.55,57.26,38.83,57.48,38.83,57.81z"/>
				<path class="st2" d="M43.75,57.26v0.55H43.2C43.2,57.48,43.42,57.26,43.75,57.26z"/>
				<path class="st2" d="M41.55,55.06c0,0.3-0.24,0.55-0.55,0.55c-0.3,0-0.55-0.24-0.55-0.55c0-0.3,0.24-0.55,0.55-0.55
					C41.31,54.51,41.55,54.76,41.55,55.06z"/>
			</g>
		</g>
		<path class="st3" d="M71.65,54.18H39.96V43.33l0.22-0.24L57.1,24.72c1.66-1.85,2.14-2.83,2.14-4.37c0-2.31-1.2-3.58-3.38-3.58
			c-2.38,0-3.4,1.08-3.51,3.74l-0.03,0.79H39.92l0.04-0.86c0.12-2.83,0.31-4.17,1.11-6.06c2.36-5.61,7.91-8.97,14.86-8.97
			c9.4,0,15.71,5.97,15.71,14.86c0,4.58-1.23,7.08-5.99,12.12l-9.85,10.43h15.85V54.18z M41.6,52.54h28.4v-8.07H52l12.46-13.19
			c4.46-4.72,5.55-6.87,5.55-10.99c0-7.91-5.65-13.22-14.07-13.22c-6.27,0-11.26,2.98-13.35,7.96c-0.59,1.4-0.81,2.41-0.94,4.64
			h9.14c0.36-3.01,2.07-4.53,5.09-4.53c3.1,0,5.02,2,5.02,5.22c0,1.96-0.65,3.34-2.58,5.47L41.6,43.97V52.54z"/>
	</g>
	<g>
		<g>
			<g>
				<path class="st0" d="M86.84,57.69v-9.71l16.93-18.37c1.77-1.97,2.36-3.15,2.36-4.92c0-2.76-1.57-4.4-4.2-4.4
					c-2.82,0-4.2,1.45-4.33,4.53H86.84c0.13-2.89,0.33-4.07,1.05-5.77c2.23-5.32,7.48-8.47,14.11-8.47
					c8.86,0,14.89,5.64,14.89,14.04c0,4.33-1.18,6.69-5.77,11.55L99.96,47.98h16.93v9.71H86.84z"/>
			</g>
		</g>
		<g>
			<defs>
				<path id="SVGID_3_" d="M82.51,53.36v-9.71l16.93-18.37c1.77-1.97,2.36-3.15,2.36-4.92c0-2.76-1.57-4.4-4.2-4.4
					c-2.82,0-4.2,1.45-4.33,4.53H82.51c0.13-2.89,0.33-4.07,1.05-5.77c2.23-5.32,7.48-8.47,14.11-8.47
					c8.86,0,14.89,5.64,14.89,14.04c0,4.33-1.18,6.69-5.77,11.55L95.63,43.65h16.93v9.71H82.51z"/>
			</defs>
			<clipPath id="SVGID_4_">
				<use xlink:href="#SVGID_3_"  style="overflow:visible;"/>
			</clipPath>
			<g class="st4">
				<rect x="107.36" y="3.1" class="st2" width="5.47" height="5.47"/>
				<path class="st2" d="M107.91,3.1c0,0.27-0.27,0.55-0.55,0.55V3.1H107.91z"/>
				<path class="st2" d="M112.83,3.1v0.55c-0.33,0-0.55-0.27-0.55-0.55H112.83z"/>
				<path class="st2" d="M107.91,8.57h-0.55V8.02C107.64,8.02,107.91,8.24,107.91,8.57z"/>
				<path class="st2" d="M112.83,8.02v0.55h-0.55C112.29,8.24,112.51,8.02,112.83,8.02z"/>
				<path class="st2" d="M110.63,5.82c0,0.3-0.24,0.55-0.55,0.55s-0.55-0.24-0.55-0.55c0-0.3,0.24-0.55,0.55-0.55
					S110.63,5.52,110.63,5.82z"/>
			</g>
			<g class="st4">
				<rect x="107.36" y="8.57" class="st2" width="5.47" height="5.47"/>
				<path class="st2" d="M107.91,8.57c0,0.27-0.27,0.55-0.55,0.55V8.57H107.91z"/>
				<path class="st2" d="M112.83,8.57v0.55c-0.33,0-0.55-0.27-0.55-0.55H112.83z"/>
				<path class="st2" d="M107.91,14.04h-0.55v-0.55C107.64,13.49,107.91,13.71,107.91,14.04z"/>
				<path class="st2" d="M112.83,13.49v0.55h-0.55C112.29,13.71,112.51,13.49,112.83,13.49z"/>
				<path class="st2" d="M110.63,11.29c0,0.3-0.24,0.55-0.55,0.55s-0.55-0.24-0.55-0.55s0.24-0.55,0.55-0.55
					S110.63,10.99,110.63,11.29z"/>
			</g>
			<g class="st4">
				<rect x="107.36" y="14.04" class="st2" width="5.47" height="5.47"/>
				<path class="st2" d="M107.91,14.04c0,0.27-0.27,0.55-0.55,0.55v-0.55H107.91z"/>
				<path class="st2" d="M112.83,14.04v0.55c-0.33,0-0.55-0.27-0.55-0.55H112.83z"/>
				<path class="st2" d="M107.91,19.51h-0.55v-0.55C107.64,18.96,107.91,19.18,107.91,19.51z"/>
				<path class="st2" d="M112.83,18.96v0.55h-0.55C112.29,19.18,112.51,18.96,112.83,18.96z"/>
				<path class="st2" d="M110.63,16.76c0,0.3-0.24,0.55-0.55,0.55s-0.55-0.24-0.55-0.55c0-0.3,0.24-0.55,0.55-0.55
					S110.63,16.46,110.63,16.76z"/>
			</g>
			<g class="st4">
				<rect x="107.36" y="19.51" class="st2" width="5.47" height="5.47"/>
				<path class="st2" d="M107.91,19.51c0,0.27-0.27,0.55-0.55,0.55v-0.55H107.91z"/>
				<path class="st2" d="M112.83,19.51v0.55c-0.33,0-0.55-0.27-0.55-0.55H112.83z"/>
				<path class="st2" d="M107.91,24.98h-0.55v-0.55C107.64,24.44,107.91,24.66,107.91,24.98z"/>
				<path class="st2" d="M112.83,24.44v0.55h-0.55C112.29,24.66,112.51,24.44,112.83,24.44z"/>
				<path class="st2" d="M110.63,22.23c0,0.3-0.24,0.55-0.55,0.55s-0.55-0.24-0.55-0.55s0.24-0.55,0.55-0.55
					S110.63,21.93,110.63,22.23z"/>
			</g>
			<g class="st4">
				<rect x="107.36" y="24.98" class="st2" width="5.47" height="5.47"/>
				<path class="st2" d="M107.91,24.98c0,0.27-0.27,0.55-0.55,0.55v-0.55H107.91z"/>
				<path class="st2" d="M112.83,24.98v0.55c-0.33,0-0.55-0.27-0.55-0.55H112.83z"/>
				<path class="st2" d="M107.91,30.45h-0.55v-0.55C107.64,29.91,107.91,30.13,107.91,30.45z"/>
				<path class="st2" d="M112.83,29.91v0.55h-0.55C112.29,30.13,112.51,29.91,112.83,29.91z"/>
				<path class="st2" d="M110.63,27.71c0,0.3-0.24,0.55-0.55,0.55s-0.55-0.24-0.55-0.55s0.24-0.55,0.55-0.55
					S110.63,27.4,110.63,27.71z"/>
			</g>
			<g class="st4">
				<rect x="107.36" y="30.45" class="st2" width="5.47" height="5.47"/>
				<path class="st2" d="M107.91,30.45c0,0.27-0.27,0.55-0.55,0.55v-0.55H107.91z"/>
				<path class="st2" d="M112.83,30.45V31c-0.33,0-0.55-0.27-0.55-0.55H112.83z"/>
				<path class="st2" d="M107.91,35.93h-0.55v-0.55C107.64,35.38,107.91,35.6,107.91,35.93z"/>
				<path class="st2" d="M112.83,35.38v0.55h-0.55C112.29,35.6,112.51,35.38,112.83,35.38z"/>
				<path class="st2" d="M110.63,33.18c0,0.3-0.24,0.55-0.55,0.55s-0.55-0.24-0.55-0.55s0.24-0.55,0.55-0.55
					S110.63,32.87,110.63,33.18z"/>
			</g>
			<g class="st4">
				<rect x="107.36" y="35.93" class="st2" width="5.47" height="5.47"/>
				<path class="st2" d="M107.91,35.93c0,0.27-0.27,0.55-0.55,0.55v-0.55H107.91z"/>
				<path class="st2" d="M112.83,35.93v0.55c-0.33,0-0.55-0.27-0.55-0.55H112.83z"/>
				<path class="st2" d="M107.91,41.4h-0.55v-0.55C107.64,40.85,107.91,41.07,107.91,41.4z"/>
				<path class="st2" d="M112.83,40.85v0.55h-0.55C112.29,41.07,112.51,40.85,112.83,40.85z"/>
				<path class="st2" d="M110.63,38.65c0,0.3-0.24,0.55-0.55,0.55s-0.55-0.24-0.55-0.55s0.24-0.55,0.55-0.55
					S110.63,38.35,110.63,38.65z"/>
			</g>
			<g class="st4">
				<rect x="107.36" y="41.4" class="st2" width="5.47" height="5.47"/>
				<path class="st2" d="M107.91,41.4c0,0.27-0.27,0.55-0.55,0.55V41.4H107.91z"/>
				<path class="st2" d="M112.83,41.4v0.55c-0.33,0-0.55-0.27-0.55-0.55H112.83z"/>
				<path class="st2" d="M107.91,46.87h-0.55v-0.55C107.64,46.32,107.91,46.54,107.91,46.87z"/>
				<path class="st2" d="M112.83,46.32v0.55h-0.55C112.29,46.54,112.51,46.32,112.83,46.32z"/>
				<path class="st2" d="M110.63,44.12c0,0.3-0.24,0.55-0.55,0.55s-0.55-0.24-0.55-0.55c0-0.3,0.24-0.55,0.55-0.55
					S110.63,43.82,110.63,44.12z"/>
			</g>
			<g class="st4">
				<rect x="107.36" y="46.87" class="st2" width="5.47" height="5.47"/>
				<path class="st2" d="M107.91,46.87c0,0.27-0.27,0.55-0.55,0.55v-0.55H107.91z"/>
				<path class="st2" d="M112.83,46.87v0.55c-0.33,0-0.55-0.27-0.55-0.55H112.83z"/>
				<path class="st2" d="M107.91,52.34h-0.55v-0.55C107.64,51.79,107.91,52.01,107.91,52.34z"/>
				<path class="st2" d="M112.83,51.79v0.55h-0.55C112.29,52.01,112.51,51.79,112.83,51.79z"/>
				<path class="st2" d="M110.63,49.59c0,0.3-0.24,0.55-0.55,0.55s-0.55-0.24-0.55-0.55s0.24-0.55,0.55-0.55
					S110.63,49.29,110.63,49.59z"/>
			</g>
			<g class="st4">
				<rect x="107.36" y="52.34" class="st2" width="5.47" height="5.47"/>
				<path class="st2" d="M107.91,52.34c0,0.27-0.27,0.55-0.55,0.55v-0.55H107.91z"/>
				<path class="st2" d="M112.83,52.34v0.55c-0.33,0-0.55-0.27-0.55-0.55H112.83z"/>
				<path class="st2" d="M107.91,57.81h-0.55v-0.55C107.64,57.26,107.91,57.48,107.91,57.81z"/>
				<path class="st2" d="M112.83,57.26v0.55h-0.55C112.29,57.48,112.51,57.26,112.83,57.26z"/>
				<path class="st2" d="M110.63,55.06c0,0.3-0.24,0.55-0.55,0.55s-0.55-0.24-0.55-0.55c0-0.3,0.24-0.55,0.55-0.55
					S110.63,54.76,110.63,55.06z"/>
			</g>
			<g class="st4">
				<rect x="101.89" y="3.1" class="st2" width="5.47" height="5.47"/>
				<path class="st2" d="M102.44,3.1c0,0.27-0.27,0.55-0.55,0.55V3.1H102.44z"/>
				<path class="st2" d="M107.36,3.1v0.55c-0.33,0-0.55-0.27-0.55-0.55H107.36z"/>
				<path class="st2" d="M102.44,8.57h-0.55V8.02C102.17,8.02,102.44,8.24,102.44,8.57z"/>
				<path class="st2" d="M107.36,8.02v0.55h-0.55C106.82,8.24,107.04,8.02,107.36,8.02z"/>
				<path class="st2" d="M105.16,5.82c0,0.3-0.24,0.55-0.55,0.55c-0.3,0-0.55-0.24-0.55-0.55c0-0.3,0.24-0.55,0.55-0.55
					C104.92,5.27,105.16,5.52,105.16,5.82z"/>
			</g>
			<g class="st4">
				<rect x="101.89" y="8.57" class="st2" width="5.47" height="5.47"/>
				<path class="st2" d="M102.44,8.57c0,0.27-0.27,0.55-0.55,0.55V8.57H102.44z"/>
				<path class="st2" d="M107.36,8.57v0.55c-0.33,0-0.55-0.27-0.55-0.55H107.36z"/>
				<path class="st2" d="M102.44,14.04h-0.55v-0.55C102.17,13.49,102.44,13.71,102.44,14.04z"/>
				<path class="st2" d="M107.36,13.49v0.55h-0.55C106.82,13.71,107.04,13.49,107.36,13.49z"/>
				<path class="st2" d="M105.16,11.29c0,0.3-0.24,0.55-0.55,0.55c-0.3,0-0.55-0.24-0.55-0.55s0.24-0.55,0.55-0.55
					C104.92,10.74,105.16,10.99,105.16,11.29z"/>
			</g>
			<g class="st4">
				<rect x="101.89" y="14.04" class="st2" width="5.47" height="5.47"/>
				<path class="st2" d="M102.44,14.04c0,0.27-0.27,0.55-0.55,0.55v-0.55H102.44z"/>
				<path class="st2" d="M107.36,14.04v0.55c-0.33,0-0.55-0.27-0.55-0.55H107.36z"/>
				<path class="st2" d="M102.44,19.51h-0.55v-0.55C102.17,18.96,102.44,19.18,102.44,19.51z"/>
				<path class="st2" d="M107.36,18.96v0.55h-0.55C106.82,19.18,107.04,18.96,107.36,18.96z"/>
				<path class="st2" d="M105.16,16.76c0,0.3-0.24,0.55-0.55,0.55c-0.3,0-0.55-0.24-0.55-0.55c0-0.3,0.24-0.55,0.55-0.55
					C104.92,16.22,105.16,16.46,105.16,16.76z"/>
			</g>
			<g class="st4">
				<rect x="101.89" y="19.51" class="st2" width="5.47" height="5.47"/>
				<path class="st2" d="M102.44,19.51c0,0.27-0.27,0.55-0.55,0.55v-0.55H102.44z"/>
				<path class="st2" d="M107.36,19.51v0.55c-0.33,0-0.55-0.27-0.55-0.55H107.36z"/>
				<path class="st2" d="M102.44,24.98h-0.55v-0.55C102.17,24.44,102.44,24.66,102.44,24.98z"/>
				<path class="st2" d="M107.36,24.44v0.55h-0.55C106.82,24.66,107.04,24.44,107.36,24.44z"/>
				<path class="st2" d="M105.16,22.23c0,0.3-0.24,0.55-0.55,0.55c-0.3,0-0.55-0.24-0.55-0.55s0.24-0.55,0.55-0.55
					C104.92,21.69,105.16,21.93,105.16,22.23z"/>
			</g>
			<g class="st4">
				<rect x="101.89" y="24.98" class="st2" width="5.47" height="5.47"/>
				<path class="st2" d="M102.44,24.98c0,0.27-0.27,0.55-0.55,0.55v-0.55H102.44z"/>
				<path class="st2" d="M107.36,24.98v0.55c-0.33,0-0.55-0.27-0.55-0.55H107.36z"/>
				<path class="st2" d="M102.44,30.45h-0.55v-0.55C102.17,29.91,102.44,30.13,102.44,30.45z"/>
				<path class="st2" d="M107.36,29.91v0.55h-0.55C106.82,30.13,107.04,29.91,107.36,29.91z"/>
				<path class="st2" d="M105.16,27.71c0,0.3-0.24,0.55-0.55,0.55c-0.3,0-0.55-0.24-0.55-0.55s0.24-0.55,0.55-0.55
					C104.92,27.16,105.16,27.4,105.16,27.71z"/>
			</g>
			<g class="st4">
				<rect x="101.89" y="30.45" class="st2" width="5.47" height="5.47"/>
				<path class="st2" d="M102.44,30.45c0,0.27-0.27,0.55-0.55,0.55v-0.55H102.44z"/>
				<path class="st2" d="M107.36,30.45V31c-0.33,0-0.55-0.27-0.55-0.55H107.36z"/>
				<path class="st2" d="M102.44,35.93h-0.55v-0.55C102.17,35.38,102.44,35.6,102.44,35.93z"/>
				<path class="st2" d="M107.36,35.38v0.55h-0.55C106.82,35.6,107.04,35.38,107.36,35.38z"/>
				<path class="st2" d="M105.16,33.18c0,0.3-0.24,0.55-0.55,0.55c-0.3,0-0.55-0.24-0.55-0.55s0.24-0.55,0.55-0.55
					C104.92,32.63,105.16,32.87,105.16,33.18z"/>
			</g>
			<g class="st4">
				<rect x="101.89" y="35.93" class="st2" width="5.47" height="5.47"/>
				<path class="st2" d="M102.44,35.93c0,0.27-0.27,0.55-0.55,0.55v-0.55H102.44z"/>
				<path class="st2" d="M107.36,35.93v0.55c-0.33,0-0.55-0.27-0.55-0.55H107.36z"/>
				<path class="st2" d="M102.44,41.4h-0.55v-0.55C102.17,40.85,102.44,41.07,102.44,41.4z"/>
				<path class="st2" d="M107.36,40.85v0.55h-0.55C106.82,41.07,107.04,40.85,107.36,40.85z"/>
				<path class="st2" d="M105.16,38.65c0,0.3-0.24,0.55-0.55,0.55c-0.3,0-0.55-0.24-0.55-0.55s0.24-0.55,0.55-0.55
					C104.92,38.1,105.16,38.35,105.16,38.65z"/>
			</g>
			<g class="st4">
				<rect x="101.89" y="41.4" class="st2" width="5.47" height="5.47"/>
				<path class="st2" d="M102.44,41.4c0,0.27-0.27,0.55-0.55,0.55V41.4H102.44z"/>
				<path class="st2" d="M107.36,41.4v0.55c-0.33,0-0.55-0.27-0.55-0.55H107.36z"/>
				<path class="st2" d="M102.44,46.87h-0.55v-0.55C102.17,46.32,102.44,46.54,102.44,46.87z"/>
				<path class="st2" d="M107.36,46.32v0.55h-0.55C106.82,46.54,107.04,46.32,107.36,46.32z"/>
				<path class="st2" d="M105.16,44.12c0,0.3-0.24,0.55-0.55,0.55c-0.3,0-0.55-0.24-0.55-0.55c0-0.3,0.24-0.55,0.55-0.55
					C104.92,43.57,105.16,43.82,105.16,44.12z"/>
			</g>
			<g class="st4">
				<rect x="101.89" y="46.87" class="st2" width="5.47" height="5.47"/>
				<path class="st2" d="M102.44,46.87c0,0.27-0.27,0.55-0.55,0.55v-0.55H102.44z"/>
				<path class="st2" d="M107.36,46.87v0.55c-0.33,0-0.55-0.27-0.55-0.55H107.36z"/>
				<path class="st2" d="M102.44,52.34h-0.55v-0.55C102.17,51.79,102.44,52.01,102.44,52.34z"/>
				<path class="st2" d="M107.36,51.79v0.55h-0.55C106.82,52.01,107.04,51.79,107.36,51.79z"/>
				<path class="st2" d="M105.16,49.59c0,0.3-0.24,0.55-0.55,0.55c-0.3,0-0.55-0.24-0.55-0.55s0.24-0.55,0.55-0.55
					C104.92,49.04,105.16,49.29,105.16,49.59z"/>
			</g>
			<g class="st4">
				<rect x="101.89" y="52.34" class="st2" width="5.47" height="5.47"/>
				<path class="st2" d="M102.44,52.34c0,0.27-0.27,0.55-0.55,0.55v-0.55H102.44z"/>
				<path class="st2" d="M107.36,52.34v0.55c-0.33,0-0.55-0.27-0.55-0.55H107.36z"/>
				<path class="st2" d="M102.44,57.81h-0.55v-0.55C102.17,57.26,102.44,57.48,102.44,57.81z"/>
				<path class="st2" d="M107.36,57.26v0.55h-0.55C106.82,57.48,107.04,57.26,107.36,57.26z"/>
				<path class="st2" d="M105.16,55.06c0,0.3-0.24,0.55-0.55,0.55c-0.3,0-0.55-0.24-0.55-0.55c0-0.3,0.24-0.55,0.55-0.55
					C104.92,54.51,105.16,54.76,105.16,55.06z"/>
			</g>
			<g class="st4">
				<rect x="96.42" y="3.1" class="st2" width="5.47" height="5.47"/>
				<path class="st2" d="M96.97,3.1c0,0.27-0.27,0.55-0.55,0.55V3.1H96.97z"/>
				<path class="st2" d="M101.89,3.1v0.55c-0.33,0-0.55-0.27-0.55-0.55H101.89z"/>
				<path class="st2" d="M96.97,8.57h-0.55V8.02C96.69,8.02,96.97,8.24,96.97,8.57z"/>
				<path class="st2" d="M101.89,8.02v0.55h-0.55C101.35,8.24,101.56,8.02,101.89,8.02z"/>
				<path class="st2" d="M99.69,5.82c0,0.3-0.24,0.55-0.55,0.55c-0.3,0-0.55-0.24-0.55-0.55c0-0.3,0.24-0.55,0.55-0.55
					C99.45,5.27,99.69,5.52,99.69,5.82z"/>
			</g>
			<g class="st4">
				<rect x="96.42" y="8.57" class="st2" width="5.47" height="5.47"/>
				<path class="st2" d="M96.97,8.57c0,0.27-0.27,0.55-0.55,0.55V8.57H96.97z"/>
				<path class="st2" d="M101.89,8.57v0.55c-0.33,0-0.55-0.27-0.55-0.55H101.89z"/>
				<path class="st2" d="M96.97,14.04h-0.55v-0.55C96.69,13.49,96.97,13.71,96.97,14.04z"/>
				<path class="st2" d="M101.89,13.49v0.55h-0.55C101.35,13.71,101.56,13.49,101.89,13.49z"/>
				<circle class="st2" cx="99.15" cy="11.29" r="0.55"/>
			</g>
			<g class="st4">
				<rect x="96.42" y="14.04" class="st2" width="5.47" height="5.47"/>
				<path class="st2" d="M96.97,14.04c0,0.27-0.27,0.55-0.55,0.55v-0.55H96.97z"/>
				<path class="st2" d="M101.89,14.04v0.55c-0.33,0-0.55-0.27-0.55-0.55H101.89z"/>
				<path class="st2" d="M96.97,19.51h-0.55v-0.55C96.69,18.96,96.97,19.18,96.97,19.51z"/>
				<path class="st2" d="M101.89,18.96v0.55h-0.55C101.35,19.18,101.56,18.96,101.89,18.96z"/>
				<path class="st2" d="M99.69,16.76c0,0.3-0.24,0.55-0.55,0.55c-0.3,0-0.55-0.24-0.55-0.55c0-0.3,0.24-0.55,0.55-0.55
					C99.45,16.22,99.69,16.46,99.69,16.76z"/>
			</g>
			<g class="st4">
				<rect x="96.42" y="19.51" class="st2" width="5.47" height="5.47"/>
				<path class="st2" d="M96.97,19.51c0,0.27-0.27,0.55-0.55,0.55v-0.55H96.97z"/>
				<path class="st2" d="M101.89,19.51v0.55c-0.33,0-0.55-0.27-0.55-0.55H101.89z"/>
				<path class="st2" d="M96.97,24.98h-0.55v-0.55C96.69,24.44,96.97,24.66,96.97,24.98z"/>
				<path class="st2" d="M101.89,24.44v0.55h-0.55C101.35,24.66,101.56,24.44,101.89,24.44z"/>
				<path class="st2" d="M99.69,22.23c0,0.3-0.24,0.55-0.55,0.55c-0.3,0-0.55-0.24-0.55-0.55s0.24-0.55,0.55-0.55
					C99.45,21.69,99.69,21.93,99.69,22.23z"/>
			</g>
			<g class="st4">
				<rect x="96.42" y="24.98" class="st2" width="5.47" height="5.47"/>
				<path class="st2" d="M96.97,24.98c0,0.27-0.27,0.55-0.55,0.55v-0.55H96.97z"/>
				<path class="st2" d="M101.89,24.98v0.55c-0.33,0-0.55-0.27-0.55-0.55H101.89z"/>
				<path class="st2" d="M96.97,30.45h-0.55v-0.55C96.69,29.91,96.97,30.13,96.97,30.45z"/>
				<path class="st2" d="M101.89,29.91v0.55h-0.55C101.35,30.13,101.56,29.91,101.89,29.91z"/>
				<path class="st2" d="M99.69,27.71c0,0.3-0.24,0.55-0.55,0.55c-0.3,0-0.55-0.24-0.55-0.55s0.24-0.55,0.55-0.55
					C99.45,27.16,99.69,27.4,99.69,27.71z"/>
			</g>
			<g class="st4">
				<rect x="96.42" y="30.45" class="st2" width="5.47" height="5.47"/>
				<path class="st2" d="M96.97,30.45c0,0.27-0.27,0.55-0.55,0.55v-0.55H96.97z"/>
				<path class="st2" d="M101.89,30.45V31c-0.33,0-0.55-0.27-0.55-0.55H101.89z"/>
				<path class="st2" d="M96.97,35.93h-0.55v-0.55C96.69,35.38,96.97,35.6,96.97,35.93z"/>
				<path class="st2" d="M101.89,35.38v0.55h-0.55C101.35,35.6,101.56,35.38,101.89,35.38z"/>
				<path class="st2" d="M99.69,33.18c0,0.3-0.24,0.55-0.55,0.55c-0.3,0-0.55-0.24-0.55-0.55s0.24-0.55,0.55-0.55
					C99.45,32.63,99.69,32.87,99.69,33.18z"/>
			</g>
			<g class="st4">
				<rect x="96.42" y="35.93" class="st2" width="5.47" height="5.47"/>
				<path class="st2" d="M96.97,35.93c0,0.27-0.27,0.55-0.55,0.55v-0.55H96.97z"/>
				<path class="st2" d="M101.89,35.93v0.55c-0.33,0-0.55-0.27-0.55-0.55H101.89z"/>
				<path class="st2" d="M96.97,41.4h-0.55v-0.55C96.69,40.85,96.97,41.07,96.97,41.4z"/>
				<path class="st2" d="M101.89,40.85v0.55h-0.55C101.35,41.07,101.56,40.85,101.89,40.85z"/>
				<circle class="st2" cx="99.15" cy="38.65" r="0.55"/>
			</g>
			<g class="st4">
				<rect x="96.42" y="41.4" class="st2" width="5.47" height="5.47"/>
				<path class="st2" d="M96.97,41.4c0,0.27-0.27,0.55-0.55,0.55V41.4H96.97z"/>
				<path class="st2" d="M101.89,41.4v0.55c-0.33,0-0.55-0.27-0.55-0.55H101.89z"/>
				<path class="st2" d="M96.97,46.87h-0.55v-0.55C96.69,46.32,96.97,46.54,96.97,46.87z"/>
				<path class="st2" d="M101.89,46.32v0.55h-0.55C101.35,46.54,101.56,46.32,101.89,46.32z"/>
				<path class="st2" d="M99.69,44.12c0,0.3-0.24,0.55-0.55,0.55c-0.3,0-0.55-0.24-0.55-0.55c0-0.3,0.24-0.55,0.55-0.55
					C99.45,43.57,99.69,43.82,99.69,44.12z"/>
			</g>
			<g class="st4">
				<rect x="96.42" y="46.87" class="st2" width="5.47" height="5.47"/>
				<path class="st2" d="M96.97,46.87c0,0.27-0.27,0.55-0.55,0.55v-0.55H96.97z"/>
				<path class="st2" d="M101.89,46.87v0.55c-0.33,0-0.55-0.27-0.55-0.55H101.89z"/>
				<path class="st2" d="M96.97,52.34h-0.55v-0.55C96.69,51.79,96.97,52.01,96.97,52.34z"/>
				<path class="st2" d="M101.89,51.79v0.55h-0.55C101.35,52.01,101.56,51.79,101.89,51.79z"/>
				<circle class="st2" cx="99.15" cy="49.59" r="0.55"/>
			</g>
			<g class="st4">
				<rect x="96.42" y="52.34" class="st2" width="5.47" height="5.47"/>
				<path class="st2" d="M96.97,52.34c0,0.27-0.27,0.55-0.55,0.55v-0.55H96.97z"/>
				<path class="st2" d="M101.89,52.34v0.55c-0.33,0-0.55-0.27-0.55-0.55H101.89z"/>
				<path class="st2" d="M96.97,57.81h-0.55v-0.55C96.69,57.26,96.97,57.48,96.97,57.81z"/>
				<path class="st2" d="M101.89,57.26v0.55h-0.55C101.35,57.48,101.56,57.26,101.89,57.26z"/>
				<path class="st2" d="M99.69,55.06c0,0.3-0.24,0.55-0.55,0.55c-0.3,0-0.55-0.24-0.55-0.55c0-0.3,0.24-0.55,0.55-0.55
					C99.45,54.51,99.69,54.76,99.69,55.06z"/>
			</g>
			<g class="st4">
				<rect x="90.95" y="3.1" class="st2" width="5.47" height="5.47"/>
				<path class="st2" d="M91.5,3.1c0,0.27-0.27,0.55-0.55,0.55V3.1H91.5z"/>
				<path class="st2" d="M96.42,3.1v0.55c-0.33,0-0.55-0.27-0.55-0.55H96.42z"/>
				<path class="st2" d="M91.5,8.57h-0.55V8.02C91.22,8.02,91.5,8.24,91.5,8.57z"/>
				<path class="st2" d="M96.42,8.02v0.55h-0.55C95.87,8.24,96.09,8.02,96.42,8.02z"/>
				<path class="st2" d="M94.22,5.82c0,0.3-0.24,0.55-0.55,0.55c-0.3,0-0.55-0.24-0.55-0.55c0-0.3,0.24-0.55,0.55-0.55
					C93.98,5.27,94.22,5.52,94.22,5.82z"/>
			</g>
			<g class="st4">
				<rect x="90.95" y="8.57" class="st2" width="5.47" height="5.47"/>
				<path class="st2" d="M91.5,8.57c0,0.27-0.27,0.55-0.55,0.55V8.57H91.5z"/>
				<path class="st2" d="M96.42,8.57v0.55c-0.33,0-0.55-0.27-0.55-0.55H96.42z"/>
				<path class="st2" d="M91.5,14.04h-0.55v-0.55C91.22,13.49,91.5,13.71,91.5,14.04z"/>
				<path class="st2" d="M96.42,13.49v0.55h-0.55C95.87,13.71,96.09,13.49,96.42,13.49z"/>
				<path class="st2" d="M94.22,11.29c0,0.3-0.24,0.55-0.55,0.55c-0.3,0-0.55-0.24-0.55-0.55s0.24-0.55,0.55-0.55
					C93.98,10.74,94.22,10.99,94.22,11.29z"/>
			</g>
			<g class="st4">
				<rect x="90.95" y="14.04" class="st2" width="5.47" height="5.47"/>
				<path class="st2" d="M91.5,14.04c0,0.27-0.27,0.55-0.55,0.55v-0.55H91.5z"/>
				<path class="st2" d="M96.42,14.04v0.55c-0.33,0-0.55-0.27-0.55-0.55H96.42z"/>
				<path class="st2" d="M91.5,19.51h-0.55v-0.55C91.22,18.96,91.5,19.18,91.5,19.51z"/>
				<path class="st2" d="M96.42,18.96v0.55h-0.55C95.87,19.18,96.09,18.96,96.42,18.96z"/>
				<path class="st2" d="M94.22,16.76c0,0.3-0.24,0.55-0.55,0.55c-0.3,0-0.55-0.24-0.55-0.55c0-0.3,0.24-0.55,0.55-0.55
					C93.98,16.22,94.22,16.46,94.22,16.76z"/>
			</g>
			<g class="st4">
				<rect x="90.95" y="19.51" class="st2" width="5.47" height="5.47"/>
				<path class="st2" d="M91.5,19.51c0,0.27-0.27,0.55-0.55,0.55v-0.55H91.5z"/>
				<path class="st2" d="M96.42,19.51v0.55c-0.33,0-0.55-0.27-0.55-0.55H96.42z"/>
				<path class="st2" d="M91.5,24.98h-0.55v-0.55C91.22,24.44,91.5,24.66,91.5,24.98z"/>
				<path class="st2" d="M96.42,24.44v0.55h-0.55C95.87,24.66,96.09,24.44,96.42,24.44z"/>
				<path class="st2" d="M94.22,22.23c0,0.3-0.24,0.55-0.55,0.55c-0.3,0-0.55-0.24-0.55-0.55s0.24-0.55,0.55-0.55
					C93.98,21.69,94.22,21.93,94.22,22.23z"/>
			</g>
			<g class="st4">
				<rect x="90.95" y="24.98" class="st2" width="5.47" height="5.47"/>
				<path class="st2" d="M91.5,24.98c0,0.27-0.27,0.55-0.55,0.55v-0.55H91.5z"/>
				<path class="st2" d="M96.42,24.98v0.55c-0.33,0-0.55-0.27-0.55-0.55H96.42z"/>
				<path class="st2" d="M91.5,30.45h-0.55v-0.55C91.22,29.91,91.5,30.13,91.5,30.45z"/>
				<path class="st2" d="M96.42,29.91v0.55h-0.55C95.87,30.13,96.09,29.91,96.42,29.91z"/>
				<path class="st2" d="M94.22,27.71c0,0.3-0.24,0.55-0.55,0.55c-0.3,0-0.55-0.24-0.55-0.55s0.24-0.55,0.55-0.55
					C93.98,27.16,94.22,27.4,94.22,27.71z"/>
			</g>
			<g class="st4">
				<rect x="90.95" y="30.45" class="st2" width="5.47" height="5.47"/>
				<path class="st2" d="M91.5,30.45c0,0.27-0.27,0.55-0.55,0.55v-0.55H91.5z"/>
				<path class="st2" d="M96.42,30.45V31c-0.33,0-0.55-0.27-0.55-0.55H96.42z"/>
				<path class="st2" d="M91.5,35.93h-0.55v-0.55C91.22,35.38,91.5,35.6,91.5,35.93z"/>
				<path class="st2" d="M96.42,35.38v0.55h-0.55C95.87,35.6,96.09,35.38,96.42,35.38z"/>
				<path class="st2" d="M94.22,33.18c0,0.3-0.24,0.55-0.55,0.55c-0.3,0-0.55-0.24-0.55-0.55s0.24-0.55,0.55-0.55
					C93.98,32.63,94.22,32.87,94.22,33.18z"/>
			</g>
			<g class="st4">
				<rect x="90.95" y="35.93" class="st2" width="5.47" height="5.47"/>
				<path class="st2" d="M91.5,35.93c0,0.27-0.27,0.55-0.55,0.55v-0.55H91.5z"/>
				<path class="st2" d="M96.42,35.93v0.55c-0.33,0-0.55-0.27-0.55-0.55H96.42z"/>
				<path class="st2" d="M91.5,41.4h-0.55v-0.55C91.22,40.85,91.5,41.07,91.5,41.4z"/>
				<path class="st2" d="M96.42,40.85v0.55h-0.55C95.87,41.07,96.09,40.85,96.42,40.85z"/>
				<path class="st2" d="M94.22,38.65c0,0.3-0.24,0.55-0.55,0.55c-0.3,0-0.55-0.24-0.55-0.55s0.24-0.55,0.55-0.55
					C93.98,38.1,94.22,38.35,94.22,38.65z"/>
			</g>
			<g class="st4">
				<rect x="90.95" y="41.4" class="st2" width="5.47" height="5.47"/>
				<path class="st2" d="M91.5,41.4c0,0.27-0.27,0.55-0.55,0.55V41.4H91.5z"/>
				<path class="st2" d="M96.42,41.4v0.55c-0.33,0-0.55-0.27-0.55-0.55H96.42z"/>
				<path class="st2" d="M91.5,46.87h-0.55v-0.55C91.22,46.32,91.5,46.54,91.5,46.87z"/>
				<path class="st2" d="M96.42,46.32v0.55h-0.55C95.87,46.54,96.09,46.32,96.42,46.32z"/>
				<path class="st2" d="M94.22,44.12c0,0.3-0.24,0.55-0.55,0.55c-0.3,0-0.55-0.24-0.55-0.55c0-0.3,0.24-0.55,0.55-0.55
					C93.98,43.57,94.22,43.82,94.22,44.12z"/>
			</g>
			<g class="st4">
				<rect x="90.95" y="46.87" class="st2" width="5.47" height="5.47"/>
				<path class="st2" d="M91.5,46.87c0,0.27-0.27,0.55-0.55,0.55v-0.55H91.5z"/>
				<path class="st2" d="M96.42,46.87v0.55c-0.33,0-0.55-0.27-0.55-0.55H96.42z"/>
				<path class="st2" d="M91.5,52.34h-0.55v-0.55C91.22,51.79,91.5,52.01,91.5,52.34z"/>
				<path class="st2" d="M96.42,51.79v0.55h-0.55C95.87,52.01,96.09,51.79,96.42,51.79z"/>
				<path class="st2" d="M94.22,49.59c0,0.3-0.24,0.55-0.55,0.55c-0.3,0-0.55-0.24-0.55-0.55s0.24-0.55,0.55-0.55
					C93.98,49.04,94.22,49.29,94.22,49.59z"/>
			</g>
			<g class="st4">
				<rect x="90.95" y="52.34" class="st2" width="5.47" height="5.47"/>
				<path class="st2" d="M91.5,52.34c0,0.27-0.27,0.55-0.55,0.55v-0.55H91.5z"/>
				<path class="st2" d="M96.42,52.34v0.55c-0.33,0-0.55-0.27-0.55-0.55H96.42z"/>
				<path class="st2" d="M91.5,57.81h-0.55v-0.55C91.22,57.26,91.5,57.48,91.5,57.81z"/>
				<path class="st2" d="M96.42,57.26v0.55h-0.55C95.87,57.48,96.09,57.26,96.42,57.26z"/>
				<path class="st2" d="M94.22,55.06c0,0.3-0.24,0.55-0.55,0.55c-0.3,0-0.55-0.24-0.55-0.55c0-0.3,0.24-0.55,0.55-0.55
					C93.98,54.51,94.22,54.76,94.22,55.06z"/>
			</g>
			<g class="st4">
				<rect x="85.48" y="3.1" class="st2" width="5.47" height="5.47"/>
				<path class="st2" d="M86.03,3.1c0,0.27-0.27,0.55-0.55,0.55V3.1H86.03z"/>
				<path class="st2" d="M90.95,3.1v0.55c-0.33,0-0.55-0.27-0.55-0.55H90.95z"/>
				<path class="st2" d="M86.03,8.57h-0.55V8.02C85.75,8.02,86.03,8.24,86.03,8.57z"/>
				<path class="st2" d="M90.95,8.02v0.55H90.4C90.4,8.24,90.62,8.02,90.95,8.02z"/>
				<path class="st2" d="M88.75,5.82c0,0.3-0.24,0.55-0.55,0.55c-0.3,0-0.55-0.24-0.55-0.55c0-0.3,0.24-0.55,0.55-0.55
					C88.5,5.27,88.75,5.52,88.75,5.82z"/>
			</g>
			<g class="st4">
				<rect x="85.48" y="8.57" class="st2" width="5.47" height="5.47"/>
				<path class="st2" d="M86.03,8.57c0,0.27-0.27,0.55-0.55,0.55V8.57H86.03z"/>
				<path class="st2" d="M90.95,8.57v0.55c-0.33,0-0.55-0.27-0.55-0.55H90.95z"/>
				<path class="st2" d="M86.03,14.04h-0.55v-0.55C85.75,13.49,86.03,13.71,86.03,14.04z"/>
				<path class="st2" d="M90.95,13.49v0.55H90.4C90.4,13.71,90.62,13.49,90.95,13.49z"/>
				<circle class="st2" cx="88.2" cy="11.29" r="0.55"/>
			</g>
			<g class="st4">
				<rect x="85.48" y="14.04" class="st2" width="5.47" height="5.47"/>
				<path class="st2" d="M86.03,14.04c0,0.27-0.27,0.55-0.55,0.55v-0.55H86.03z"/>
				<path class="st2" d="M90.95,14.04v0.55c-0.33,0-0.55-0.27-0.55-0.55H90.95z"/>
				<path class="st2" d="M86.03,19.51h-0.55v-0.55C85.75,18.96,86.03,19.18,86.03,19.51z"/>
				<path class="st2" d="M90.95,18.96v0.55H90.4C90.4,19.18,90.62,18.96,90.95,18.96z"/>
				<path class="st2" d="M88.75,16.76c0,0.3-0.24,0.55-0.55,0.55c-0.3,0-0.55-0.24-0.55-0.55c0-0.3,0.24-0.55,0.55-0.55
					C88.5,16.22,88.75,16.46,88.75,16.76z"/>
			</g>
			<g class="st4">
				<rect x="85.48" y="19.51" class="st2" width="5.47" height="5.47"/>
				<path class="st2" d="M86.03,19.51c0,0.27-0.27,0.55-0.55,0.55v-0.55H86.03z"/>
				<path class="st2" d="M90.95,19.51v0.55c-0.33,0-0.55-0.27-0.55-0.55H90.95z"/>
				<path class="st2" d="M86.03,24.98h-0.55v-0.55C85.75,24.44,86.03,24.66,86.03,24.98z"/>
				<path class="st2" d="M90.95,24.44v0.55H90.4C90.4,24.66,90.62,24.44,90.95,24.44z"/>
				<path class="st2" d="M88.75,22.23c0,0.3-0.24,0.55-0.55,0.55c-0.3,0-0.55-0.24-0.55-0.55s0.24-0.55,0.55-0.55
					C88.5,21.69,88.75,21.93,88.75,22.23z"/>
			</g>
			<g class="st4">
				<rect x="85.48" y="24.98" class="st2" width="5.47" height="5.47"/>
				<path class="st2" d="M86.03,24.98c0,0.27-0.27,0.55-0.55,0.55v-0.55H86.03z"/>
				<path class="st2" d="M90.95,24.98v0.55c-0.33,0-0.55-0.27-0.55-0.55H90.95z"/>
				<path class="st2" d="M86.03,30.45h-0.55v-0.55C85.75,29.91,86.03,30.13,86.03,30.45z"/>
				<path class="st2" d="M90.95,29.91v0.55H90.4C90.4,30.13,90.62,29.91,90.95,29.91z"/>
				<path class="st2" d="M88.75,27.71c0,0.3-0.24,0.55-0.55,0.55c-0.3,0-0.55-0.24-0.55-0.55s0.24-0.55,0.55-0.55
					C88.5,27.16,88.75,27.4,88.75,27.71z"/>
			</g>
			<g class="st4">
				<rect x="85.48" y="30.45" class="st2" width="5.47" height="5.47"/>
				<path class="st2" d="M86.03,30.45c0,0.27-0.27,0.55-0.55,0.55v-0.55H86.03z"/>
				<path class="st2" d="M90.95,30.45V31c-0.33,0-0.55-0.27-0.55-0.55H90.95z"/>
				<path class="st2" d="M86.03,35.93h-0.55v-0.55C85.75,35.38,86.03,35.6,86.03,35.93z"/>
				<path class="st2" d="M90.95,35.38v0.55H90.4C90.4,35.6,90.62,35.38,90.95,35.38z"/>
				<path class="st2" d="M88.75,33.18c0,0.3-0.24,0.55-0.55,0.55c-0.3,0-0.55-0.24-0.55-0.55s0.24-0.55,0.55-0.55
					C88.5,32.63,88.75,32.87,88.75,33.18z"/>
			</g>
			<g class="st4">
				<rect x="85.48" y="35.93" class="st2" width="5.47" height="5.47"/>
				<path class="st2" d="M86.03,35.93c0,0.27-0.27,0.55-0.55,0.55v-0.55H86.03z"/>
				<path class="st2" d="M90.95,35.93v0.55c-0.33,0-0.55-0.27-0.55-0.55H90.95z"/>
				<path class="st2" d="M86.03,41.4h-0.55v-0.55C85.75,40.85,86.03,41.07,86.03,41.4z"/>
				<path class="st2" d="M90.95,40.85v0.55H90.4C90.4,41.07,90.62,40.85,90.95,40.85z"/>
				<circle class="st2" cx="88.2" cy="38.65" r="0.55"/>
			</g>
			<g class="st4">
				<rect x="85.48" y="41.4" class="st2" width="5.47" height="5.47"/>
				<path class="st2" d="M86.03,41.4c0,0.27-0.27,0.55-0.55,0.55V41.4H86.03z"/>
				<path class="st2" d="M90.95,41.4v0.55c-0.33,0-0.55-0.27-0.55-0.55H90.95z"/>
				<path class="st2" d="M86.03,46.87h-0.55v-0.55C85.75,46.32,86.03,46.54,86.03,46.87z"/>
				<path class="st2" d="M90.95,46.32v0.55H90.4C90.4,46.54,90.62,46.32,90.95,46.32z"/>
				<path class="st2" d="M88.75,44.12c0,0.3-0.24,0.55-0.55,0.55c-0.3,0-0.55-0.24-0.55-0.55c0-0.3,0.24-0.55,0.55-0.55
					C88.5,43.57,88.75,43.82,88.75,44.12z"/>
			</g>
			<g class="st4">
				<rect x="85.48" y="46.87" class="st2" width="5.47" height="5.47"/>
				<path class="st2" d="M86.03,46.87c0,0.27-0.27,0.55-0.55,0.55v-0.55H86.03z"/>
				<path class="st2" d="M90.95,46.87v0.55c-0.33,0-0.55-0.27-0.55-0.55H90.95z"/>
				<path class="st2" d="M86.03,52.34h-0.55v-0.55C85.75,51.79,86.03,52.01,86.03,52.34z"/>
				<path class="st2" d="M90.95,51.79v0.55H90.4C90.4,52.01,90.62,51.79,90.95,51.79z"/>
				<circle class="st2" cx="88.2" cy="49.59" r="0.55"/>
			</g>
			<g class="st4">
				<rect x="85.48" y="52.34" class="st2" width="5.47" height="5.47"/>
				<path class="st2" d="M86.03,52.34c0,0.27-0.27,0.55-0.55,0.55v-0.55H86.03z"/>
				<path class="st2" d="M90.95,52.34v0.55c-0.33,0-0.55-0.27-0.55-0.55H90.95z"/>
				<path class="st2" d="M86.03,57.81h-0.55v-0.55C85.75,57.26,86.03,57.48,86.03,57.81z"/>
				<path class="st2" d="M90.95,57.26v0.55H90.4C90.4,57.48,90.62,57.26,90.95,57.26z"/>
				<path class="st2" d="M88.75,55.06c0,0.3-0.24,0.55-0.55,0.55c-0.3,0-0.55-0.24-0.55-0.55c0-0.3,0.24-0.55,0.55-0.55
					C88.5,54.51,88.75,54.76,88.75,55.06z"/>
			</g>
			<g class="st4">
				<rect x="80.01" y="3.1" class="st2" width="5.47" height="5.47"/>
				<path class="st2" d="M80.55,3.1c0,0.27-0.27,0.55-0.55,0.55V3.1H80.55z"/>
				<path class="st2" d="M85.48,3.1v0.55c-0.33,0-0.55-0.27-0.55-0.55H85.48z"/>
				<path class="st2" d="M80.55,8.57h-0.55V8.02C80.28,8.02,80.55,8.24,80.55,8.57z"/>
				<path class="st2" d="M85.48,8.02v0.55h-0.55C84.93,8.24,85.15,8.02,85.48,8.02z"/>
				<path class="st2" d="M83.28,5.82c0,0.3-0.24,0.55-0.55,0.55c-0.3,0-0.55-0.24-0.55-0.55c0-0.3,0.24-0.55,0.55-0.55
					C83.03,5.27,83.28,5.52,83.28,5.82z"/>
			</g>
			<g class="st4">
				<rect x="80.01" y="8.57" class="st2" width="5.47" height="5.47"/>
				<path class="st2" d="M80.55,8.57c0,0.27-0.27,0.55-0.55,0.55V8.57H80.55z"/>
				<path class="st2" d="M85.48,8.57v0.55c-0.33,0-0.55-0.27-0.55-0.55H85.48z"/>
				<path class="st2" d="M80.55,14.04h-0.55v-0.55C80.28,13.49,80.55,13.71,80.55,14.04z"/>
				<path class="st2" d="M85.48,13.49v0.55h-0.55C84.93,13.71,85.15,13.49,85.48,13.49z"/>
				<path class="st2" d="M83.28,11.29c0,0.3-0.24,0.55-0.55,0.55c-0.3,0-0.55-0.24-0.55-0.55s0.24-0.55,0.55-0.55
					C83.03,10.74,83.28,10.99,83.28,11.29z"/>
			</g>
			<g class="st4">
				<rect x="80.01" y="14.04" class="st2" width="5.47" height="5.47"/>
				<path class="st2" d="M80.55,14.04c0,0.27-0.27,0.55-0.55,0.55v-0.55H80.55z"/>
				<path class="st2" d="M85.48,14.04v0.55c-0.33,0-0.55-0.27-0.55-0.55H85.48z"/>
				<path class="st2" d="M80.55,19.51h-0.55v-0.55C80.28,18.96,80.55,19.18,80.55,19.51z"/>
				<path class="st2" d="M85.48,18.96v0.55h-0.55C84.93,19.18,85.15,18.96,85.48,18.96z"/>
				<path class="st2" d="M83.28,16.76c0,0.3-0.24,0.55-0.55,0.55c-0.3,0-0.55-0.24-0.55-0.55c0-0.3,0.24-0.55,0.55-0.55
					C83.03,16.22,83.28,16.46,83.28,16.76z"/>
			</g>
			<g class="st4">
				<rect x="80.01" y="19.51" class="st2" width="5.47" height="5.47"/>
				<path class="st2" d="M80.55,19.51c0,0.27-0.27,0.55-0.55,0.55v-0.55H80.55z"/>
				<path class="st2" d="M85.48,19.51v0.55c-0.33,0-0.55-0.27-0.55-0.55H85.48z"/>
				<path class="st2" d="M80.55,24.98h-0.55v-0.55C80.28,24.44,80.55,24.66,80.55,24.98z"/>
				<path class="st2" d="M85.48,24.44v0.55h-0.55C84.93,24.66,85.15,24.44,85.48,24.44z"/>
				<path class="st2" d="M83.28,22.23c0,0.3-0.24,0.55-0.55,0.55c-0.3,0-0.55-0.24-0.55-0.55s0.24-0.55,0.55-0.55
					C83.03,21.69,83.28,21.93,83.28,22.23z"/>
			</g>
			<g class="st4">
				<rect x="80.01" y="24.98" class="st2" width="5.47" height="5.47"/>
				<path class="st2" d="M80.55,24.98c0,0.27-0.27,0.55-0.55,0.55v-0.55H80.55z"/>
				<path class="st2" d="M85.48,24.98v0.55c-0.33,0-0.55-0.27-0.55-0.55H85.48z"/>
				<path class="st2" d="M80.55,30.45h-0.55v-0.55C80.28,29.91,80.55,30.13,80.55,30.45z"/>
				<path class="st2" d="M85.48,29.91v0.55h-0.55C84.93,30.13,85.15,29.91,85.48,29.91z"/>
				<path class="st2" d="M83.28,27.71c0,0.3-0.24,0.55-0.55,0.55c-0.3,0-0.55-0.24-0.55-0.55s0.24-0.55,0.55-0.55
					C83.03,27.16,83.28,27.4,83.28,27.71z"/>
			</g>
			<g class="st4">
				<rect x="80.01" y="30.45" class="st2" width="5.47" height="5.47"/>
				<path class="st2" d="M80.55,30.45c0,0.27-0.27,0.55-0.55,0.55v-0.55H80.55z"/>
				<path class="st2" d="M85.48,30.45V31c-0.33,0-0.55-0.27-0.55-0.55H85.48z"/>
				<path class="st2" d="M80.55,35.93h-0.55v-0.55C80.28,35.38,80.55,35.6,80.55,35.93z"/>
				<path class="st2" d="M85.48,35.38v0.55h-0.55C84.93,35.6,85.15,35.38,85.48,35.38z"/>
				<path class="st2" d="M83.28,33.18c0,0.3-0.24,0.55-0.55,0.55c-0.3,0-0.55-0.24-0.55-0.55s0.24-0.55,0.55-0.55
					C83.03,32.63,83.28,32.87,83.28,33.18z"/>
			</g>
			<g class="st4">
				<rect x="80.01" y="35.93" class="st2" width="5.47" height="5.47"/>
				<path class="st2" d="M80.55,35.93c0,0.27-0.27,0.55-0.55,0.55v-0.55H80.55z"/>
				<path class="st2" d="M85.48,35.93v0.55c-0.33,0-0.55-0.27-0.55-0.55H85.48z"/>
				<path class="st2" d="M80.55,41.4h-0.55v-0.55C80.28,40.85,80.55,41.07,80.55,41.4z"/>
				<path class="st2" d="M85.48,40.85v0.55h-0.55C84.93,41.07,85.15,40.85,85.48,40.85z"/>
				<path class="st2" d="M83.28,38.65c0,0.3-0.24,0.55-0.55,0.55c-0.3,0-0.55-0.24-0.55-0.55s0.24-0.55,0.55-0.55
					C83.03,38.1,83.28,38.35,83.28,38.65z"/>
			</g>
			<g class="st4">
				<rect x="80.01" y="41.4" class="st2" width="5.47" height="5.47"/>
				<path class="st2" d="M80.55,41.4c0,0.27-0.27,0.55-0.55,0.55V41.4H80.55z"/>
				<path class="st2" d="M85.48,41.4v0.55c-0.33,0-0.55-0.27-0.55-0.55H85.48z"/>
				<path class="st2" d="M80.55,46.87h-0.55v-0.55C80.28,46.32,80.55,46.54,80.55,46.87z"/>
				<path class="st2" d="M85.48,46.32v0.55h-0.55C84.93,46.54,85.15,46.32,85.48,46.32z"/>
				<path class="st2" d="M83.28,44.12c0,0.3-0.24,0.55-0.55,0.55c-0.3,0-0.55-0.24-0.55-0.55c0-0.3,0.24-0.55,0.55-0.55
					C83.03,43.57,83.28,43.82,83.28,44.12z"/>
			</g>
			<g class="st4">
				<rect x="80.01" y="46.87" class="st2" width="5.47" height="5.47"/>
				<path class="st2" d="M80.55,46.87c0,0.27-0.27,0.55-0.55,0.55v-0.55H80.55z"/>
				<path class="st2" d="M85.48,46.87v0.55c-0.33,0-0.55-0.27-0.55-0.55H85.48z"/>
				<path class="st2" d="M80.55,52.34h-0.55v-0.55C80.28,51.79,80.55,52.01,80.55,52.34z"/>
				<path class="st2" d="M85.48,51.79v0.55h-0.55C84.93,52.01,85.15,51.79,85.48,51.79z"/>
				<path class="st2" d="M83.28,49.59c0,0.3-0.24,0.55-0.55,0.55c-0.3,0-0.55-0.24-0.55-0.55s0.24-0.55,0.55-0.55
					C83.03,49.04,83.28,49.29,83.28,49.59z"/>
			</g>
			<g class="st4">
				<rect x="80.01" y="52.34" class="st2" width="5.47" height="5.47"/>
				<path class="st2" d="M80.55,52.34c0,0.27-0.27,0.55-0.55,0.55v-0.55H80.55z"/>
				<path class="st2" d="M85.48,52.34v0.55c-0.33,0-0.55-0.27-0.55-0.55H85.48z"/>
				<path class="st2" d="M80.55,57.81h-0.55v-0.55C80.28,57.26,80.55,57.48,80.55,57.81z"/>
				<path class="st2" d="M85.48,57.26v0.55h-0.55C84.93,57.48,85.15,57.26,85.48,57.26z"/>
				<path class="st2" d="M83.28,55.06c0,0.3-0.24,0.55-0.55,0.55c-0.3,0-0.55-0.24-0.55-0.55c0-0.3,0.24-0.55,0.55-0.55
					C83.03,54.51,83.28,54.76,83.28,55.06z"/>
			</g>
		</g>
		<path class="st3" d="M113.38,54.18H81.69V43.33l0.22-0.24l16.93-18.37c1.66-1.85,2.14-2.83,2.14-4.37c0-2.31-1.2-3.58-3.38-3.58
			c-2.38,0-3.4,1.08-3.51,3.74l-0.03,0.79H81.65l0.04-0.86c0.12-2.83,0.31-4.17,1.11-6.06c2.36-5.61,7.91-8.97,14.86-8.97
			c9.4,0,15.71,5.97,15.71,14.86c0,4.58-1.23,7.08-5.99,12.12l-9.85,10.43h15.85V54.18z M83.33,52.54h28.4v-8.07H93.73l12.46-13.19
			c4.46-4.72,5.55-6.87,5.55-10.99c0-7.91-5.65-13.22-14.07-13.22c-6.27,0-11.26,2.98-13.35,7.96c-0.59,1.4-0.81,2.41-0.94,4.64
			h9.14c0.36-3.01,2.07-4.53,5.09-4.53c3.1,0,5.02,2,5.02,5.22c0,1.96-0.65,3.34-2.58,5.47L83.33,43.97V52.54z"/>
	</g>
</g>
</svg>
