<?xml version="1.0" encoding="utf-8"?>
<!-- Generator: Adobe Illustrator 24.1.2, SVG Export Plug-In . SVG Version: 6.00 Build 0)  -->
<svg version="1.1" id="Layer_1" xmlns="http://www.w3.org/2000/svg" xmlns:xlink="http://www.w3.org/1999/xlink" x="0px" y="0px"
	 viewBox="0 0 121.43 61.97" style="enable-background:new 0 0 121.43 61.97;" xml:space="preserve">
<style type="text/css">
	.st0{fill:#F3F3F5;}
	.st1{clip-path:url(#SVGID_2_);}
	.st2{fill:#00ABC8;}
	.st3{fill:#0075A3;}
</style>
<g>
	<g>
		<g>
			<path class="st0" d="M113.41,51.13v6.17h-10.23v-6.17H83.82V40.89L99.3,10.58h11.81L95.63,40.89h7.55v-6.17h10.23v6.17h3.48
				v10.24H113.41z"/>
		</g>
	</g>
	<g>
		<defs>
			<path id="SVGID_1_" d="M109.08,46.8v6.17H98.85V46.8H79.49V36.56L94.97,6.25h11.81L91.3,36.56h7.55v-6.17h10.23v6.17h3.48V46.8
				H109.08z"/>
		</defs>
		<clipPath id="SVGID_2_">
			<use xlink:href="#SVGID_1_"  style="overflow:visible;"/>
		</clipPath>
		<g class="st1">
			<rect x="108.44" y="5.71" class="st2" width="5.47" height="5.47"/>
			<path class="st2" d="M108.98,5.71c0,0.27-0.27,0.55-0.55,0.55V5.71H108.98z"/>
			<path class="st2" d="M113.91,5.71v0.55c-0.33,0-0.55-0.27-0.55-0.55H113.91z"/>
			<path class="st2" d="M108.98,11.18h-0.55v-0.55C108.71,10.63,108.98,10.85,108.98,11.18z"/>
			<path class="st2" d="M113.91,10.63v0.55h-0.55C113.36,10.85,113.58,10.63,113.91,10.63z"/>
			<path class="st2" d="M111.71,8.43c0,0.3-0.24,0.55-0.55,0.55c-0.3,0-0.55-0.24-0.55-0.55s0.24-0.55,0.55-0.55
				C111.46,7.89,111.71,8.13,111.71,8.43z"/>
		</g>
		<g class="st1">
			<rect x="108.44" y="11.18" class="st2" width="5.47" height="5.47"/>
			<path class="st2" d="M108.98,11.18c0,0.27-0.27,0.55-0.55,0.55v-0.55H108.98z"/>
			<path class="st2" d="M113.91,11.18v0.55c-0.33,0-0.55-0.27-0.55-0.55H113.91z"/>
			<path class="st2" d="M108.98,16.65h-0.55v-0.55C108.71,16.11,108.98,16.33,108.98,16.65z"/>
			<path class="st2" d="M113.91,16.11v0.55h-0.55C113.36,16.33,113.58,16.11,113.91,16.11z"/>
			<path class="st2" d="M111.71,13.9c0,0.3-0.24,0.55-0.55,0.55c-0.3,0-0.55-0.24-0.55-0.55c0-0.3,0.24-0.55,0.55-0.55
				C111.46,13.36,111.71,13.6,111.71,13.9z"/>
		</g>
		<g class="st1">
			<rect x="108.44" y="16.65" class="st2" width="5.47" height="5.47"/>
			<path class="st2" d="M108.98,16.65c0,0.27-0.27,0.55-0.55,0.55v-0.55H108.98z"/>
			<path class="st2" d="M113.91,16.65v0.55c-0.33,0-0.55-0.27-0.55-0.55H113.91z"/>
			<path class="st2" d="M108.98,22.12h-0.55v-0.55C108.71,21.58,108.98,21.8,108.98,22.12z"/>
			<path class="st2" d="M113.91,21.58v0.55h-0.55C113.36,21.8,113.58,21.58,113.91,21.58z"/>
			<path class="st2" d="M111.71,19.38c0,0.3-0.24,0.55-0.55,0.55c-0.3,0-0.55-0.24-0.55-0.55s0.24-0.55,0.55-0.55
				C111.46,18.83,111.71,19.07,111.71,19.38z"/>
		</g>
		<g class="st1">
			<rect x="108.44" y="22.12" class="st2" width="5.47" height="5.47"/>
			<path class="st2" d="M108.98,22.12c0,0.27-0.27,0.55-0.55,0.55v-0.55H108.98z"/>
			<path class="st2" d="M113.91,22.12v0.55c-0.33,0-0.55-0.27-0.55-0.55H113.91z"/>
			<path class="st2" d="M108.98,27.6h-0.55v-0.55C108.71,27.05,108.98,27.27,108.98,27.6z"/>
			<path class="st2" d="M113.91,27.05v0.55h-0.55C113.36,27.27,113.58,27.05,113.91,27.05z"/>
			<path class="st2" d="M111.71,24.85c0,0.3-0.24,0.55-0.55,0.55c-0.3,0-0.55-0.24-0.55-0.55c0-0.3,0.24-0.55,0.55-0.55
				C111.46,24.3,111.71,24.54,111.71,24.85z"/>
		</g>
		<g class="st1">
			<rect x="108.44" y="27.6" class="st2" width="5.47" height="5.47"/>
			<path class="st2" d="M108.98,27.6c0,0.27-0.27,0.55-0.55,0.55V27.6H108.98z"/>
			<path class="st2" d="M113.91,27.6v0.55c-0.33,0-0.55-0.27-0.55-0.55H113.91z"/>
			<path class="st2" d="M108.98,33.07h-0.55v-0.55C108.71,32.52,108.98,32.74,108.98,33.07z"/>
			<path class="st2" d="M113.91,32.52v0.55h-0.55C113.36,32.74,113.58,32.52,113.91,32.52z"/>
			<path class="st2" d="M111.71,30.32c0,0.3-0.24,0.55-0.55,0.55c-0.3,0-0.55-0.24-0.55-0.55s0.24-0.55,0.55-0.55
				C111.46,29.77,111.71,30.02,111.71,30.32z"/>
		</g>
		<g class="st1">
			<rect x="108.44" y="33.07" class="st2" width="5.47" height="5.47"/>
			<path class="st2" d="M108.98,33.07c0,0.27-0.27,0.55-0.55,0.55v-0.55H108.98z"/>
			<path class="st2" d="M113.91,33.07v0.55c-0.33,0-0.55-0.27-0.55-0.55H113.91z"/>
			<path class="st2" d="M108.98,38.54h-0.55v-0.55C108.71,37.99,108.98,38.21,108.98,38.54z"/>
			<path class="st2" d="M113.91,37.99v0.55h-0.55C113.36,38.21,113.58,37.99,113.91,37.99z"/>
			<path class="st2" d="M111.71,35.79c0,0.3-0.24,0.55-0.55,0.55c-0.3,0-0.55-0.24-0.55-0.55s0.24-0.55,0.55-0.55
				C111.46,35.24,111.71,35.49,111.71,35.79z"/>
		</g>
		<g class="st1">
			<rect x="108.44" y="38.54" class="st2" width="5.47" height="5.47"/>
			<path class="st2" d="M108.98,38.54c0,0.27-0.27,0.55-0.55,0.55v-0.55H108.98z"/>
			<path class="st2" d="M113.91,38.54v0.55c-0.33,0-0.55-0.27-0.55-0.55H113.91z"/>
			<path class="st2" d="M108.98,44.01h-0.55v-0.55C108.71,43.46,108.98,43.68,108.98,44.01z"/>
			<path class="st2" d="M113.91,43.46v0.55h-0.55C113.36,43.68,113.58,43.46,113.91,43.46z"/>
			<path class="st2" d="M111.71,41.26c0,0.3-0.24,0.55-0.55,0.55c-0.3,0-0.55-0.24-0.55-0.55s0.24-0.55,0.55-0.55
				C111.46,40.71,111.71,40.96,111.71,41.26z"/>
		</g>
		<g class="st1">
			<rect x="108.44" y="44.01" class="st2" width="5.47" height="5.47"/>
			<path class="st2" d="M108.98,44.01c0,0.27-0.27,0.55-0.55,0.55v-0.55H108.98z"/>
			<path class="st2" d="M113.91,44.01v0.55c-0.33,0-0.55-0.27-0.55-0.55H113.91z"/>
			<path class="st2" d="M108.98,49.48h-0.55v-0.55C108.71,48.93,108.98,49.15,108.98,49.48z"/>
			<path class="st2" d="M113.91,48.93v0.55h-0.55C113.36,49.15,113.58,48.93,113.91,48.93z"/>
			<path class="st2" d="M111.71,46.73c0,0.3-0.24,0.55-0.55,0.55c-0.3,0-0.55-0.24-0.55-0.55s0.24-0.55,0.55-0.55
				C111.46,46.18,111.71,46.43,111.71,46.73z"/>
		</g>
		<g class="st1">
			<rect x="108.44" y="49.48" class="st2" width="5.47" height="5.47"/>
			<path class="st2" d="M108.98,49.48c0,0.27-0.27,0.55-0.55,0.55v-0.55H108.98z"/>
			<path class="st2" d="M113.91,49.48v0.55c-0.33,0-0.55-0.27-0.55-0.55H113.91z"/>
			<path class="st2" d="M108.98,54.95h-0.55V54.4C108.71,54.4,108.98,54.62,108.98,54.95z"/>
			<path class="st2" d="M113.91,54.4v0.55h-0.55C113.36,54.62,113.58,54.4,113.91,54.4z"/>
			<path class="st2" d="M111.71,52.2c0,0.3-0.24,0.55-0.55,0.55c-0.3,0-0.55-0.24-0.55-0.55c0-0.3,0.24-0.55,0.55-0.55
				C111.46,51.66,111.71,51.9,111.71,52.2z"/>
		</g>
		<g class="st1">
			<rect x="102.97" y="5.71" class="st2" width="5.47" height="5.47"/>
			<path class="st2" d="M103.51,5.71c0,0.27-0.27,0.55-0.55,0.55V5.71H103.51z"/>
			<path class="st2" d="M108.44,5.71v0.55c-0.33,0-0.55-0.27-0.55-0.55H108.44z"/>
			<path class="st2" d="M103.51,11.18h-0.55v-0.55C103.24,10.63,103.51,10.85,103.51,11.18z"/>
			<path class="st2" d="M108.44,10.63v0.55h-0.55C107.89,10.85,108.11,10.63,108.44,10.63z"/>
			<circle class="st2" cx="105.69" cy="8.43" r="0.55"/>
		</g>
		<g class="st1">
			<rect x="102.97" y="11.18" class="st2" width="5.47" height="5.47"/>
			<path class="st2" d="M103.51,11.18c0,0.27-0.27,0.55-0.55,0.55v-0.55H103.51z"/>
			<path class="st2" d="M108.44,11.18v0.55c-0.33,0-0.55-0.27-0.55-0.55H108.44z"/>
			<path class="st2" d="M103.51,16.65h-0.55v-0.55C103.24,16.11,103.51,16.33,103.51,16.65z"/>
			<path class="st2" d="M108.44,16.11v0.55h-0.55C107.89,16.33,108.11,16.11,108.44,16.11z"/>
			<path class="st2" d="M106.24,13.9c0,0.3-0.24,0.55-0.55,0.55c-0.3,0-0.55-0.24-0.55-0.55c0-0.3,0.24-0.55,0.55-0.55
				C105.99,13.36,106.24,13.6,106.24,13.9z"/>
		</g>
		<g class="st1">
			<rect x="102.97" y="16.65" class="st2" width="5.47" height="5.47"/>
			<path class="st2" d="M103.51,16.65c0,0.27-0.27,0.55-0.55,0.55v-0.55H103.51z"/>
			<path class="st2" d="M108.44,16.65v0.55c-0.33,0-0.55-0.27-0.55-0.55H108.44z"/>
			<path class="st2" d="M103.51,22.12h-0.55v-0.55C103.24,21.58,103.51,21.8,103.51,22.12z"/>
			<path class="st2" d="M108.44,21.58v0.55h-0.55C107.89,21.8,108.11,21.58,108.44,21.58z"/>
			<path class="st2" d="M106.24,19.38c0,0.3-0.24,0.55-0.55,0.55c-0.3,0-0.55-0.24-0.55-0.55s0.24-0.55,0.55-0.55
				C105.99,18.83,106.24,19.07,106.24,19.38z"/>
		</g>
		<g class="st1">
			<rect x="102.97" y="22.12" class="st2" width="5.47" height="5.47"/>
			<path class="st2" d="M103.51,22.12c0,0.27-0.27,0.55-0.55,0.55v-0.55H103.51z"/>
			<path class="st2" d="M108.44,22.12v0.55c-0.33,0-0.55-0.27-0.55-0.55H108.44z"/>
			<path class="st2" d="M103.51,27.6h-0.55v-0.55C103.24,27.05,103.51,27.27,103.51,27.6z"/>
			<path class="st2" d="M108.44,27.05v0.55h-0.55C107.89,27.27,108.11,27.05,108.44,27.05z"/>
			<path class="st2" d="M106.24,24.85c0,0.3-0.24,0.55-0.55,0.55c-0.3,0-0.55-0.24-0.55-0.55c0-0.3,0.24-0.55,0.55-0.55
				C105.99,24.3,106.24,24.54,106.24,24.85z"/>
		</g>
		<g class="st1">
			<rect x="102.97" y="27.6" class="st2" width="5.47" height="5.47"/>
			<path class="st2" d="M103.51,27.6c0,0.27-0.27,0.55-0.55,0.55V27.6H103.51z"/>
			<path class="st2" d="M108.44,27.6v0.55c-0.33,0-0.55-0.27-0.55-0.55H108.44z"/>
			<path class="st2" d="M103.51,33.07h-0.55v-0.55C103.24,32.52,103.51,32.74,103.51,33.07z"/>
			<path class="st2" d="M108.44,32.52v0.55h-0.55C107.89,32.74,108.11,32.52,108.44,32.52z"/>
			<path class="st2" d="M106.24,30.32c0,0.3-0.24,0.55-0.55,0.55c-0.3,0-0.55-0.24-0.55-0.55s0.24-0.55,0.55-0.55
				C105.99,29.77,106.24,30.02,106.24,30.32z"/>
		</g>
		<g class="st1">
			<rect x="102.97" y="33.07" class="st2" width="5.47" height="5.47"/>
			<path class="st2" d="M103.51,33.07c0,0.27-0.27,0.55-0.55,0.55v-0.55H103.51z"/>
			<path class="st2" d="M108.44,33.07v0.55c-0.33,0-0.55-0.27-0.55-0.55H108.44z"/>
			<path class="st2" d="M103.51,38.54h-0.55v-0.55C103.24,37.99,103.51,38.21,103.51,38.54z"/>
			<path class="st2" d="M108.44,37.99v0.55h-0.55C107.89,38.21,108.11,37.99,108.44,37.99z"/>
			<path class="st2" d="M106.24,35.79c0,0.3-0.24,0.55-0.55,0.55c-0.3,0-0.55-0.24-0.55-0.55s0.24-0.55,0.55-0.55
				C105.99,35.24,106.24,35.49,106.24,35.79z"/>
		</g>
		<g class="st1">
			<rect x="102.97" y="38.54" class="st2" width="5.47" height="5.47"/>
			<path class="st2" d="M103.51,38.54c0,0.27-0.27,0.55-0.55,0.55v-0.55H103.51z"/>
			<path class="st2" d="M108.44,38.54v0.55c-0.33,0-0.55-0.27-0.55-0.55H108.44z"/>
			<path class="st2" d="M103.51,44.01h-0.55v-0.55C103.24,43.46,103.51,43.68,103.51,44.01z"/>
			<path class="st2" d="M108.44,43.46v0.55h-0.55C107.89,43.68,108.11,43.46,108.44,43.46z"/>
			<path class="st2" d="M106.24,41.26c0,0.3-0.24,0.55-0.55,0.55c-0.3,0-0.55-0.24-0.55-0.55s0.24-0.55,0.55-0.55
				C105.99,40.71,106.24,40.96,106.24,41.26z"/>
		</g>
		<g class="st1">
			<rect x="102.97" y="44.01" class="st2" width="5.47" height="5.47"/>
			<path class="st2" d="M103.51,44.01c0,0.27-0.27,0.55-0.55,0.55v-0.55H103.51z"/>
			<path class="st2" d="M108.44,44.01v0.55c-0.33,0-0.55-0.27-0.55-0.55H108.44z"/>
			<path class="st2" d="M103.51,49.48h-0.55v-0.55C103.24,48.93,103.51,49.15,103.51,49.48z"/>
			<path class="st2" d="M108.44,48.93v0.55h-0.55C107.89,49.15,108.11,48.93,108.44,48.93z"/>
			<circle class="st2" cx="105.69" cy="46.73" r="0.55"/>
		</g>
		<g class="st1">
			<rect x="102.97" y="49.48" class="st2" width="5.47" height="5.47"/>
			<path class="st2" d="M103.51,49.48c0,0.27-0.27,0.55-0.55,0.55v-0.55H103.51z"/>
			<path class="st2" d="M108.44,49.48v0.55c-0.33,0-0.55-0.27-0.55-0.55H108.44z"/>
			<path class="st2" d="M103.51,54.95h-0.55V54.4C103.24,54.4,103.51,54.62,103.51,54.95z"/>
			<path class="st2" d="M108.44,54.4v0.55h-0.55C107.89,54.62,108.11,54.4,108.44,54.4z"/>
			<path class="st2" d="M106.24,52.2c0,0.3-0.24,0.55-0.55,0.55c-0.3,0-0.55-0.24-0.55-0.55c0-0.3,0.24-0.55,0.55-0.55
				C105.99,51.66,106.24,51.9,106.24,52.2z"/>
		</g>
		<g class="st1">
			<rect x="97.5" y="5.71" class="st2" width="5.47" height="5.47"/>
			<path class="st2" d="M98.04,5.71c0,0.27-0.27,0.55-0.55,0.55V5.71H98.04z"/>
			<path class="st2" d="M102.97,5.71v0.55c-0.33,0-0.55-0.27-0.55-0.55H102.97z"/>
			<path class="st2" d="M98.04,11.18H97.5v-0.55C97.77,10.63,98.04,10.85,98.04,11.18z"/>
			<path class="st2" d="M102.97,10.63v0.55h-0.55C102.42,10.85,102.64,10.63,102.97,10.63z"/>
			<path class="st2" d="M100.77,8.43c0,0.3-0.24,0.55-0.55,0.55c-0.3,0-0.55-0.24-0.55-0.55s0.24-0.55,0.55-0.55
				C100.52,7.89,100.77,8.13,100.77,8.43z"/>
		</g>
		<g class="st1">
			<rect x="97.5" y="11.18" class="st2" width="5.47" height="5.47"/>
			<path class="st2" d="M98.04,11.18c0,0.27-0.27,0.55-0.55,0.55v-0.55H98.04z"/>
			<path class="st2" d="M102.97,11.18v0.55c-0.33,0-0.55-0.27-0.55-0.55H102.97z"/>
			<path class="st2" d="M98.04,16.65H97.5v-0.55C97.77,16.11,98.04,16.33,98.04,16.65z"/>
			<path class="st2" d="M102.97,16.11v0.55h-0.55C102.42,16.33,102.64,16.11,102.97,16.11z"/>
			<path class="st2" d="M100.77,13.9c0,0.3-0.24,0.55-0.55,0.55c-0.3,0-0.55-0.24-0.55-0.55c0-0.3,0.24-0.55,0.55-0.55
				C100.52,13.36,100.77,13.6,100.77,13.9z"/>
		</g>
		<g class="st1">
			<rect x="97.5" y="16.65" class="st2" width="5.47" height="5.47"/>
			<path class="st2" d="M98.04,16.65c0,0.27-0.27,0.55-0.55,0.55v-0.55H98.04z"/>
			<path class="st2" d="M102.97,16.65v0.55c-0.33,0-0.55-0.27-0.55-0.55H102.97z"/>
			<path class="st2" d="M98.04,22.12H97.5v-0.55C97.77,21.58,98.04,21.8,98.04,22.12z"/>
			<path class="st2" d="M102.97,21.58v0.55h-0.55C102.42,21.8,102.64,21.58,102.97,21.58z"/>
			<path class="st2" d="M100.77,19.38c0,0.3-0.24,0.55-0.55,0.55c-0.3,0-0.55-0.24-0.55-0.55s0.24-0.55,0.55-0.55
				C100.52,18.83,100.77,19.07,100.77,19.38z"/>
		</g>
		<g class="st1">
			<rect x="97.5" y="22.12" class="st2" width="5.47" height="5.47"/>
			<path class="st2" d="M98.04,22.12c0,0.27-0.27,0.55-0.55,0.55v-0.55H98.04z"/>
			<path class="st2" d="M102.97,22.12v0.55c-0.33,0-0.55-0.27-0.55-0.55H102.97z"/>
			<path class="st2" d="M98.04,27.6H97.5v-0.55C97.77,27.05,98.04,27.27,98.04,27.6z"/>
			<path class="st2" d="M102.97,27.05v0.55h-0.55C102.42,27.27,102.64,27.05,102.97,27.05z"/>
			<path class="st2" d="M100.77,24.85c0,0.3-0.24,0.55-0.55,0.55c-0.3,0-0.55-0.24-0.55-0.55c0-0.3,0.24-0.55,0.55-0.55
				C100.52,24.3,100.77,24.54,100.77,24.85z"/>
		</g>
		<g class="st1">
			<rect x="97.5" y="27.6" class="st2" width="5.47" height="5.47"/>
			<path class="st2" d="M98.04,27.6c0,0.27-0.27,0.55-0.55,0.55V27.6H98.04z"/>
			<path class="st2" d="M102.97,27.6v0.55c-0.33,0-0.55-0.27-0.55-0.55H102.97z"/>
			<path class="st2" d="M98.04,33.07H97.5v-0.55C97.77,32.52,98.04,32.74,98.04,33.07z"/>
			<path class="st2" d="M102.97,32.52v0.55h-0.55C102.42,32.74,102.64,32.52,102.97,32.52z"/>
			<path class="st2" d="M100.77,30.32c0,0.3-0.24,0.55-0.55,0.55c-0.3,0-0.55-0.24-0.55-0.55s0.24-0.55,0.55-0.55
				C100.52,29.77,100.77,30.02,100.77,30.32z"/>
		</g>
		<g class="st1">
			<rect x="97.5" y="33.07" class="st2" width="5.47" height="5.47"/>
			<path class="st2" d="M98.04,33.07c0,0.27-0.27,0.55-0.55,0.55v-0.55H98.04z"/>
			<path class="st2" d="M102.97,33.07v0.55c-0.33,0-0.55-0.27-0.55-0.55H102.97z"/>
			<path class="st2" d="M98.04,38.54H97.5v-0.55C97.77,37.99,98.04,38.21,98.04,38.54z"/>
			<path class="st2" d="M102.97,37.99v0.55h-0.55C102.42,38.21,102.64,37.99,102.97,37.99z"/>
			<path class="st2" d="M100.77,35.79c0,0.3-0.24,0.55-0.55,0.55c-0.3,0-0.55-0.24-0.55-0.55s0.24-0.55,0.55-0.55
				C100.52,35.24,100.77,35.49,100.77,35.79z"/>
		</g>
		<g class="st1">
			<rect x="97.5" y="38.54" class="st2" width="5.47" height="5.47"/>
			<path class="st2" d="M98.04,38.54c0,0.27-0.27,0.55-0.55,0.55v-0.55H98.04z"/>
			<path class="st2" d="M102.97,38.54v0.55c-0.33,0-0.55-0.27-0.55-0.55H102.97z"/>
			<path class="st2" d="M98.04,44.01H97.5v-0.55C97.77,43.46,98.04,43.68,98.04,44.01z"/>
			<path class="st2" d="M102.97,43.46v0.55h-0.55C102.42,43.68,102.64,43.46,102.97,43.46z"/>
			<path class="st2" d="M100.77,41.26c0,0.3-0.24,0.55-0.55,0.55c-0.3,0-0.55-0.24-0.55-0.55s0.24-0.55,0.55-0.55
				C100.52,40.71,100.77,40.96,100.77,41.26z"/>
		</g>
		<g class="st1">
			<rect x="97.5" y="44.01" class="st2" width="5.47" height="5.47"/>
			<path class="st2" d="M98.04,44.01c0,0.27-0.27,0.55-0.55,0.55v-0.55H98.04z"/>
			<path class="st2" d="M102.97,44.01v0.55c-0.33,0-0.55-0.27-0.55-0.55H102.97z"/>
			<path class="st2" d="M98.04,49.48H97.5v-0.55C97.77,48.93,98.04,49.15,98.04,49.48z"/>
			<path class="st2" d="M102.97,48.93v0.55h-0.55C102.42,49.15,102.64,48.93,102.97,48.93z"/>
			<path class="st2" d="M100.77,46.73c0,0.3-0.24,0.55-0.55,0.55c-0.3,0-0.55-0.24-0.55-0.55s0.24-0.55,0.55-0.55
				C100.52,46.18,100.77,46.43,100.77,46.73z"/>
		</g>
		<g class="st1">
			<rect x="97.5" y="49.48" class="st2" width="5.47" height="5.47"/>
			<path class="st2" d="M98.04,49.48c0,0.27-0.27,0.55-0.55,0.55v-0.55H98.04z"/>
			<path class="st2" d="M102.97,49.48v0.55c-0.33,0-0.55-0.27-0.55-0.55H102.97z"/>
			<path class="st2" d="M98.04,54.95H97.5V54.4C97.77,54.4,98.04,54.62,98.04,54.95z"/>
			<path class="st2" d="M102.97,54.4v0.55h-0.55C102.42,54.62,102.64,54.4,102.97,54.4z"/>
			<path class="st2" d="M100.77,52.2c0,0.3-0.24,0.55-0.55,0.55c-0.3,0-0.55-0.24-0.55-0.55c0-0.3,0.24-0.55,0.55-0.55
				C100.52,51.66,100.77,51.9,100.77,52.2z"/>
		</g>
		<g class="st1">
			<rect x="92.02" y="5.71" class="st2" width="5.47" height="5.47"/>
			<path class="st2" d="M92.57,5.71c0,0.27-0.27,0.55-0.55,0.55V5.71H92.57z"/>
			<path class="st2" d="M97.5,5.71v0.55c-0.33,0-0.55-0.27-0.55-0.55H97.5z"/>
			<path class="st2" d="M92.57,11.18h-0.55v-0.55C92.3,10.63,92.57,10.85,92.57,11.18z"/>
			<path class="st2" d="M97.5,10.63v0.55h-0.55C96.95,10.85,97.17,10.63,97.5,10.63z"/>
			<path class="st2" d="M95.29,8.43c0,0.3-0.24,0.55-0.55,0.55c-0.3,0-0.55-0.24-0.55-0.55s0.24-0.55,0.55-0.55
				C95.05,7.89,95.29,8.13,95.29,8.43z"/>
		</g>
		<g class="st1">
			<rect x="92.02" y="11.18" class="st2" width="5.47" height="5.47"/>
			<path class="st2" d="M92.57,11.18c0,0.27-0.27,0.55-0.55,0.55v-0.55H92.57z"/>
			<path class="st2" d="M97.5,11.18v0.55c-0.33,0-0.55-0.27-0.55-0.55H97.5z"/>
			<path class="st2" d="M92.57,16.65h-0.55v-0.55C92.3,16.11,92.57,16.33,92.57,16.65z"/>
			<path class="st2" d="M97.5,16.11v0.55h-0.55C96.95,16.33,97.17,16.11,97.5,16.11z"/>
			<path class="st2" d="M95.29,13.9c0,0.3-0.24,0.55-0.55,0.55c-0.3,0-0.55-0.24-0.55-0.55c0-0.3,0.24-0.55,0.55-0.55
				C95.05,13.36,95.29,13.6,95.29,13.9z"/>
		</g>
		<g class="st1">
			<rect x="92.02" y="16.65" class="st2" width="5.47" height="5.47"/>
			<path class="st2" d="M92.57,16.65c0,0.27-0.27,0.55-0.55,0.55v-0.55H92.57z"/>
			<path class="st2" d="M97.5,16.65v0.55c-0.33,0-0.55-0.27-0.55-0.55H97.5z"/>
			<path class="st2" d="M92.57,22.12h-0.55v-0.55C92.3,21.58,92.57,21.8,92.57,22.12z"/>
			<path class="st2" d="M97.5,21.58v0.55h-0.55C96.95,21.8,97.17,21.58,97.5,21.58z"/>
			<path class="st2" d="M95.29,19.38c0,0.3-0.24,0.55-0.55,0.55c-0.3,0-0.55-0.24-0.55-0.55s0.24-0.55,0.55-0.55
				C95.05,18.83,95.29,19.07,95.29,19.38z"/>
		</g>
		<g class="st1">
			<rect x="92.02" y="22.12" class="st2" width="5.47" height="5.47"/>
			<path class="st2" d="M92.57,22.12c0,0.27-0.27,0.55-0.55,0.55v-0.55H92.57z"/>
			<path class="st2" d="M97.5,22.12v0.55c-0.33,0-0.55-0.27-0.55-0.55H97.5z"/>
			<path class="st2" d="M92.57,27.6h-0.55v-0.55C92.3,27.05,92.57,27.27,92.57,27.6z"/>
			<path class="st2" d="M97.5,27.05v0.55h-0.55C96.95,27.27,97.17,27.05,97.5,27.05z"/>
			<path class="st2" d="M95.29,24.85c0,0.3-0.24,0.55-0.55,0.55c-0.3,0-0.55-0.24-0.55-0.55c0-0.3,0.24-0.55,0.55-0.55
				C95.05,24.3,95.29,24.54,95.29,24.85z"/>
		</g>
		<g class="st1">
			<rect x="92.02" y="27.6" class="st2" width="5.47" height="5.47"/>
			<path class="st2" d="M92.57,27.6c0,0.27-0.27,0.55-0.55,0.55V27.6H92.57z"/>
			<path class="st2" d="M97.5,27.6v0.55c-0.33,0-0.55-0.27-0.55-0.55H97.5z"/>
			<path class="st2" d="M92.57,33.07h-0.55v-0.55C92.3,32.52,92.57,32.74,92.57,33.07z"/>
			<path class="st2" d="M97.5,32.52v0.55h-0.55C96.95,32.74,97.17,32.52,97.5,32.52z"/>
			<path class="st2" d="M95.29,30.32c0,0.3-0.24,0.55-0.55,0.55c-0.3,0-0.55-0.24-0.55-0.55s0.24-0.55,0.55-0.55
				C95.05,29.77,95.29,30.02,95.29,30.32z"/>
		</g>
		<g class="st1">
			<rect x="92.02" y="33.07" class="st2" width="5.47" height="5.47"/>
			<path class="st2" d="M92.57,33.07c0,0.27-0.27,0.55-0.55,0.55v-0.55H92.57z"/>
			<path class="st2" d="M97.5,33.07v0.55c-0.33,0-0.55-0.27-0.55-0.55H97.5z"/>
			<path class="st2" d="M92.57,38.54h-0.55v-0.55C92.3,37.99,92.57,38.21,92.57,38.54z"/>
			<path class="st2" d="M97.5,37.99v0.55h-0.55C96.95,38.21,97.17,37.99,97.5,37.99z"/>
			<path class="st2" d="M95.29,35.79c0,0.3-0.24,0.55-0.55,0.55c-0.3,0-0.55-0.24-0.55-0.55s0.24-0.55,0.55-0.55
				C95.05,35.24,95.29,35.49,95.29,35.79z"/>
		</g>
		<g class="st1">
			<rect x="92.02" y="38.54" class="st2" width="5.47" height="5.47"/>
			<path class="st2" d="M92.57,38.54c0,0.27-0.27,0.55-0.55,0.55v-0.55H92.57z"/>
			<path class="st2" d="M97.5,38.54v0.55c-0.33,0-0.55-0.27-0.55-0.55H97.5z"/>
			<path class="st2" d="M92.57,44.01h-0.55v-0.55C92.3,43.46,92.57,43.68,92.57,44.01z"/>
			<path class="st2" d="M97.5,43.46v0.55h-0.55C96.95,43.68,97.17,43.46,97.5,43.46z"/>
			<path class="st2" d="M95.29,41.26c0,0.3-0.24,0.55-0.55,0.55c-0.3,0-0.55-0.24-0.55-0.55s0.24-0.55,0.55-0.55
				C95.05,40.71,95.29,40.96,95.29,41.26z"/>
		</g>
		<g class="st1">
			<rect x="92.02" y="44.01" class="st2" width="5.47" height="5.47"/>
			<path class="st2" d="M92.57,44.01c0,0.27-0.27,0.55-0.55,0.55v-0.55H92.57z"/>
			<path class="st2" d="M97.5,44.01v0.55c-0.33,0-0.55-0.27-0.55-0.55H97.5z"/>
			<path class="st2" d="M92.57,49.48h-0.55v-0.55C92.3,48.93,92.57,49.15,92.57,49.48z"/>
			<path class="st2" d="M97.5,48.93v0.55h-0.55C96.95,49.15,97.17,48.93,97.5,48.93z"/>
			<path class="st2" d="M95.29,46.73c0,0.3-0.24,0.55-0.55,0.55c-0.3,0-0.55-0.24-0.55-0.55s0.24-0.55,0.55-0.55
				C95.05,46.18,95.29,46.43,95.29,46.73z"/>
		</g>
		<g class="st1">
			<rect x="92.02" y="49.48" class="st2" width="5.47" height="5.47"/>
			<path class="st2" d="M92.57,49.48c0,0.27-0.27,0.55-0.55,0.55v-0.55H92.57z"/>
			<path class="st2" d="M97.5,49.48v0.55c-0.33,0-0.55-0.27-0.55-0.55H97.5z"/>
			<path class="st2" d="M92.57,54.95h-0.55V54.4C92.3,54.4,92.57,54.62,92.57,54.95z"/>
			<path class="st2" d="M97.5,54.4v0.55h-0.55C96.95,54.62,97.17,54.4,97.5,54.4z"/>
			<path class="st2" d="M95.29,52.2c0,0.3-0.24,0.55-0.55,0.55c-0.3,0-0.55-0.24-0.55-0.55c0-0.3,0.24-0.55,0.55-0.55
				C95.05,51.66,95.29,51.9,95.29,52.2z"/>
		</g>
		<g class="st1">
			<rect x="86.55" y="5.71" class="st2" width="5.47" height="5.47"/>
			<path class="st2" d="M87.1,5.71c0,0.27-0.27,0.55-0.55,0.55V5.71H87.1z"/>
			<path class="st2" d="M92.02,5.71v0.55c-0.33,0-0.55-0.27-0.55-0.55H92.02z"/>
			<path class="st2" d="M87.1,11.18h-0.55v-0.55C86.83,10.63,87.1,10.85,87.1,11.18z"/>
			<path class="st2" d="M92.02,10.63v0.55h-0.55C91.48,10.85,91.7,10.63,92.02,10.63z"/>
			<path class="st2" d="M89.82,8.43c0,0.3-0.24,0.55-0.55,0.55c-0.3,0-0.55-0.24-0.55-0.55s0.24-0.55,0.55-0.55
				C89.58,7.89,89.82,8.13,89.82,8.43z"/>
		</g>
		<g class="st1">
			<rect x="86.55" y="11.18" class="st2" width="5.47" height="5.47"/>
			<path class="st2" d="M87.1,11.18c0,0.27-0.27,0.55-0.55,0.55v-0.55H87.1z"/>
			<path class="st2" d="M92.02,11.18v0.55c-0.33,0-0.55-0.27-0.55-0.55H92.02z"/>
			<path class="st2" d="M87.1,16.65h-0.55v-0.55C86.83,16.11,87.1,16.33,87.1,16.65z"/>
			<path class="st2" d="M92.02,16.11v0.55h-0.55C91.48,16.33,91.7,16.11,92.02,16.11z"/>
			<path class="st2" d="M89.82,13.9c0,0.3-0.24,0.55-0.55,0.55c-0.3,0-0.55-0.24-0.55-0.55c0-0.3,0.24-0.55,0.55-0.55
				C89.58,13.36,89.82,13.6,89.82,13.9z"/>
		</g>
		<g class="st1">
			<rect x="86.55" y="16.65" class="st2" width="5.47" height="5.47"/>
			<path class="st2" d="M87.1,16.65c0,0.27-0.27,0.55-0.55,0.55v-0.55H87.1z"/>
			<path class="st2" d="M92.02,16.65v0.55c-0.33,0-0.55-0.27-0.55-0.55H92.02z"/>
			<path class="st2" d="M87.1,22.12h-0.55v-0.55C86.83,21.58,87.1,21.8,87.1,22.12z"/>
			<path class="st2" d="M92.02,21.58v0.55h-0.55C91.48,21.8,91.7,21.58,92.02,21.58z"/>
			<path class="st2" d="M89.82,19.38c0,0.3-0.24,0.55-0.55,0.55c-0.3,0-0.55-0.24-0.55-0.55s0.24-0.55,0.55-0.55
				C89.58,18.83,89.82,19.07,89.82,19.38z"/>
		</g>
		<g class="st1">
			<rect x="86.55" y="22.12" class="st2" width="5.47" height="5.47"/>
			<path class="st2" d="M87.1,22.12c0,0.27-0.27,0.55-0.55,0.55v-0.55H87.1z"/>
			<path class="st2" d="M92.02,22.12v0.55c-0.33,0-0.55-0.27-0.55-0.55H92.02z"/>
			<path class="st2" d="M87.1,27.6h-0.55v-0.55C86.83,27.05,87.1,27.27,87.1,27.6z"/>
			<path class="st2" d="M92.02,27.05v0.55h-0.55C91.48,27.27,91.7,27.05,92.02,27.05z"/>
			<path class="st2" d="M89.82,24.85c0,0.3-0.24,0.55-0.55,0.55c-0.3,0-0.55-0.24-0.55-0.55c0-0.3,0.24-0.55,0.55-0.55
				C89.58,24.3,89.82,24.54,89.82,24.85z"/>
		</g>
		<g class="st1">
			<rect x="86.55" y="27.6" class="st2" width="5.47" height="5.47"/>
			<path class="st2" d="M87.1,27.6c0,0.27-0.27,0.55-0.55,0.55V27.6H87.1z"/>
			<path class="st2" d="M92.02,27.6v0.55c-0.33,0-0.55-0.27-0.55-0.55H92.02z"/>
			<path class="st2" d="M87.1,33.07h-0.55v-0.55C86.83,32.52,87.1,32.74,87.1,33.07z"/>
			<path class="st2" d="M92.02,32.52v0.55h-0.55C91.48,32.74,91.7,32.52,92.02,32.52z"/>
			<path class="st2" d="M89.82,30.32c0,0.3-0.24,0.55-0.55,0.55c-0.3,0-0.55-0.24-0.55-0.55s0.24-0.55,0.55-0.55
				C89.58,29.77,89.82,30.02,89.82,30.32z"/>
		</g>
		<g class="st1">
			<rect x="86.55" y="33.07" class="st2" width="5.47" height="5.47"/>
			<path class="st2" d="M87.1,33.07c0,0.27-0.27,0.55-0.55,0.55v-0.55H87.1z"/>
			<path class="st2" d="M92.02,33.07v0.55c-0.33,0-0.55-0.27-0.55-0.55H92.02z"/>
			<path class="st2" d="M87.1,38.54h-0.55v-0.55C86.83,37.99,87.1,38.21,87.1,38.54z"/>
			<path class="st2" d="M92.02,37.99v0.55h-0.55C91.48,38.21,91.7,37.99,92.02,37.99z"/>
			<path class="st2" d="M89.82,35.79c0,0.3-0.24,0.55-0.55,0.55c-0.3,0-0.55-0.24-0.55-0.55s0.24-0.55,0.55-0.55
				C89.58,35.24,89.82,35.49,89.82,35.79z"/>
		</g>
		<g class="st1">
			<rect x="86.55" y="38.54" class="st2" width="5.47" height="5.47"/>
			<path class="st2" d="M87.1,38.54c0,0.27-0.27,0.55-0.55,0.55v-0.55H87.1z"/>
			<path class="st2" d="M92.02,38.54v0.55c-0.33,0-0.55-0.27-0.55-0.55H92.02z"/>
			<path class="st2" d="M87.1,44.01h-0.55v-0.55C86.83,43.46,87.1,43.68,87.1,44.01z"/>
			<path class="st2" d="M92.02,43.46v0.55h-0.55C91.48,43.68,91.7,43.46,92.02,43.46z"/>
			<path class="st2" d="M89.82,41.26c0,0.3-0.24,0.55-0.55,0.55c-0.3,0-0.55-0.24-0.55-0.55s0.24-0.55,0.55-0.55
				C89.58,40.71,89.82,40.96,89.82,41.26z"/>
		</g>
		<g class="st1">
			<rect x="86.55" y="44.01" class="st2" width="5.47" height="5.47"/>
			<path class="st2" d="M87.1,44.01c0,0.27-0.27,0.55-0.55,0.55v-0.55H87.1z"/>
			<path class="st2" d="M92.02,44.01v0.55c-0.33,0-0.55-0.27-0.55-0.55H92.02z"/>
			<path class="st2" d="M87.1,49.48h-0.55v-0.55C86.83,48.93,87.1,49.15,87.1,49.48z"/>
			<path class="st2" d="M92.02,48.93v0.55h-0.55C91.48,49.15,91.7,48.93,92.02,48.93z"/>
			<path class="st2" d="M89.82,46.73c0,0.3-0.24,0.55-0.55,0.55c-0.3,0-0.55-0.24-0.55-0.55s0.24-0.55,0.55-0.55
				C89.58,46.18,89.82,46.43,89.82,46.73z"/>
		</g>
		<g class="st1">
			<rect x="86.55" y="49.48" class="st2" width="5.47" height="5.47"/>
			<path class="st2" d="M87.1,49.48c0,0.27-0.27,0.55-0.55,0.55v-0.55H87.1z"/>
			<path class="st2" d="M92.02,49.48v0.55c-0.33,0-0.55-0.27-0.55-0.55H92.02z"/>
			<path class="st2" d="M87.1,54.95h-0.55V54.4C86.83,54.4,87.1,54.62,87.1,54.95z"/>
			<path class="st2" d="M92.02,54.4v0.55h-0.55C91.48,54.62,91.7,54.4,92.02,54.4z"/>
			<path class="st2" d="M89.82,52.2c0,0.3-0.24,0.55-0.55,0.55c-0.3,0-0.55-0.24-0.55-0.55c0-0.3,0.24-0.55,0.55-0.55
				C89.58,51.66,89.82,51.9,89.82,52.2z"/>
		</g>
		<g class="st1">
			<rect x="81.08" y="5.71" class="st2" width="5.47" height="5.47"/>
			<path class="st2" d="M81.63,5.71c0,0.27-0.27,0.55-0.55,0.55V5.71H81.63z"/>
			<path class="st2" d="M86.55,5.71v0.55c-0.33,0-0.55-0.27-0.55-0.55H86.55z"/>
			<path class="st2" d="M81.63,11.18h-0.55v-0.55C81.35,10.63,81.63,10.85,81.63,11.18z"/>
			<path class="st2" d="M86.55,10.63v0.55h-0.55C86.01,10.85,86.22,10.63,86.55,10.63z"/>
			<path class="st2" d="M84.35,8.43c0,0.3-0.24,0.55-0.55,0.55c-0.3,0-0.55-0.24-0.55-0.55s0.24-0.55,0.55-0.55
				C84.11,7.89,84.35,8.13,84.35,8.43z"/>
		</g>
		<g class="st1">
			<rect x="81.08" y="11.18" class="st2" width="5.47" height="5.47"/>
			<path class="st2" d="M81.63,11.18c0,0.27-0.27,0.55-0.55,0.55v-0.55H81.63z"/>
			<path class="st2" d="M86.55,11.18v0.55c-0.33,0-0.55-0.27-0.55-0.55H86.55z"/>
			<path class="st2" d="M81.63,16.65h-0.55v-0.55C81.35,16.11,81.63,16.33,81.63,16.65z"/>
			<path class="st2" d="M86.55,16.11v0.55h-0.55C86.01,16.33,86.22,16.11,86.55,16.11z"/>
			<path class="st2" d="M84.35,13.9c0,0.3-0.24,0.55-0.55,0.55c-0.3,0-0.55-0.24-0.55-0.55c0-0.3,0.24-0.55,0.55-0.55
				C84.11,13.36,84.35,13.6,84.35,13.9z"/>
		</g>
		<g class="st1">
			<rect x="81.08" y="16.65" class="st2" width="5.47" height="5.47"/>
			<path class="st2" d="M81.63,16.65c0,0.27-0.27,0.55-0.55,0.55v-0.55H81.63z"/>
			<path class="st2" d="M86.55,16.65v0.55c-0.33,0-0.55-0.27-0.55-0.55H86.55z"/>
			<path class="st2" d="M81.63,22.12h-0.55v-0.55C81.35,21.58,81.63,21.8,81.63,22.12z"/>
			<path class="st2" d="M86.55,21.58v0.55h-0.55C86.01,21.8,86.22,21.58,86.55,21.58z"/>
			<path class="st2" d="M84.35,19.38c0,0.3-0.24,0.55-0.55,0.55c-0.3,0-0.55-0.24-0.55-0.55s0.24-0.55,0.55-0.55
				C84.11,18.83,84.35,19.07,84.35,19.38z"/>
		</g>
		<g class="st1">
			<rect x="81.08" y="22.12" class="st2" width="5.47" height="5.47"/>
			<path class="st2" d="M81.63,22.12c0,0.27-0.27,0.55-0.55,0.55v-0.55H81.63z"/>
			<path class="st2" d="M86.55,22.12v0.55c-0.33,0-0.55-0.27-0.55-0.55H86.55z"/>
			<path class="st2" d="M81.63,27.6h-0.55v-0.55C81.35,27.05,81.63,27.27,81.63,27.6z"/>
			<path class="st2" d="M86.55,27.05v0.55h-0.55C86.01,27.27,86.22,27.05,86.55,27.05z"/>
			<path class="st2" d="M84.35,24.85c0,0.3-0.24,0.55-0.55,0.55c-0.3,0-0.55-0.24-0.55-0.55c0-0.3,0.24-0.55,0.55-0.55
				C84.11,24.3,84.35,24.54,84.35,24.85z"/>
		</g>
		<g class="st1">
			<rect x="81.08" y="27.6" class="st2" width="5.47" height="5.47"/>
			<path class="st2" d="M81.63,27.6c0,0.27-0.27,0.55-0.55,0.55V27.6H81.63z"/>
			<path class="st2" d="M86.55,27.6v0.55c-0.33,0-0.55-0.27-0.55-0.55H86.55z"/>
			<path class="st2" d="M81.63,33.07h-0.55v-0.55C81.35,32.52,81.63,32.74,81.63,33.07z"/>
			<path class="st2" d="M86.55,32.52v0.55h-0.55C86.01,32.74,86.22,32.52,86.55,32.52z"/>
			<path class="st2" d="M84.35,30.32c0,0.3-0.24,0.55-0.55,0.55c-0.3,0-0.55-0.24-0.55-0.55s0.24-0.55,0.55-0.55
				C84.11,29.77,84.35,30.02,84.35,30.32z"/>
		</g>
		<g class="st1">
			<rect x="81.08" y="33.07" class="st2" width="5.47" height="5.47"/>
			<path class="st2" d="M81.63,33.07c0,0.27-0.27,0.55-0.55,0.55v-0.55H81.63z"/>
			<path class="st2" d="M86.55,33.07v0.55c-0.33,0-0.55-0.27-0.55-0.55H86.55z"/>
			<path class="st2" d="M81.63,38.54h-0.55v-0.55C81.35,37.99,81.63,38.21,81.63,38.54z"/>
			<path class="st2" d="M86.55,37.99v0.55h-0.55C86.01,38.21,86.22,37.99,86.55,37.99z"/>
			<path class="st2" d="M84.35,35.79c0,0.3-0.24,0.55-0.55,0.55c-0.3,0-0.55-0.24-0.55-0.55s0.24-0.55,0.55-0.55
				C84.11,35.24,84.35,35.49,84.35,35.79z"/>
		</g>
		<g class="st1">
			<rect x="81.08" y="38.54" class="st2" width="5.47" height="5.47"/>
			<path class="st2" d="M81.63,38.54c0,0.27-0.27,0.55-0.55,0.55v-0.55H81.63z"/>
			<path class="st2" d="M86.55,38.54v0.55c-0.33,0-0.55-0.27-0.55-0.55H86.55z"/>
			<path class="st2" d="M81.63,44.01h-0.55v-0.55C81.35,43.46,81.63,43.68,81.63,44.01z"/>
			<path class="st2" d="M86.55,43.46v0.55h-0.55C86.01,43.68,86.22,43.46,86.55,43.46z"/>
			<path class="st2" d="M84.35,41.26c0,0.3-0.24,0.55-0.55,0.55c-0.3,0-0.55-0.24-0.55-0.55s0.24-0.55,0.55-0.55
				C84.11,40.71,84.35,40.96,84.35,41.26z"/>
		</g>
		<g class="st1">
			<rect x="81.08" y="44.01" class="st2" width="5.47" height="5.47"/>
			<path class="st2" d="M81.63,44.01c0,0.27-0.27,0.55-0.55,0.55v-0.55H81.63z"/>
			<path class="st2" d="M86.55,44.01v0.55c-0.33,0-0.55-0.27-0.55-0.55H86.55z"/>
			<path class="st2" d="M81.63,49.48h-0.55v-0.55C81.35,48.93,81.63,49.15,81.63,49.48z"/>
			<path class="st2" d="M86.55,48.93v0.55h-0.55C86.01,49.15,86.22,48.93,86.55,48.93z"/>
			<path class="st2" d="M84.35,46.73c0,0.3-0.24,0.55-0.55,0.55c-0.3,0-0.55-0.24-0.55-0.55s0.24-0.55,0.55-0.55
				C84.11,46.18,84.35,46.43,84.35,46.73z"/>
		</g>
		<g class="st1">
			<rect x="81.08" y="49.48" class="st2" width="5.47" height="5.47"/>
			<path class="st2" d="M81.63,49.48c0,0.27-0.27,0.55-0.55,0.55v-0.55H81.63z"/>
			<path class="st2" d="M86.55,49.48v0.55c-0.33,0-0.55-0.27-0.55-0.55H86.55z"/>
			<path class="st2" d="M81.63,54.95h-0.55V54.4C81.35,54.4,81.63,54.62,81.63,54.95z"/>
			<path class="st2" d="M86.55,54.4v0.55h-0.55C86.01,54.62,86.22,54.4,86.55,54.4z"/>
			<path class="st2" d="M84.35,52.2c0,0.3-0.24,0.55-0.55,0.55c-0.3,0-0.55-0.24-0.55-0.55c0-0.3,0.24-0.55,0.55-0.55
				C84.11,51.66,84.35,51.9,84.35,52.2z"/>
		</g>
		<g class="st1">
			<rect x="75.61" y="5.71" class="st2" width="5.47" height="5.47"/>
			<path class="st2" d="M76.16,5.71c0,0.27-0.27,0.55-0.55,0.55V5.71H76.16z"/>
			<path class="st2" d="M81.08,5.71v0.55c-0.33,0-0.55-0.27-0.55-0.55H81.08z"/>
			<path class="st2" d="M76.16,11.18h-0.55v-0.55C75.88,10.63,76.16,10.85,76.16,11.18z"/>
			<path class="st2" d="M81.08,10.63v0.55h-0.55C80.53,10.85,80.75,10.63,81.08,10.63z"/>
			<circle class="st2" cx="78.33" cy="8.43" r="0.55"/>
		</g>
		<g class="st1">
			<rect x="75.61" y="11.18" class="st2" width="5.47" height="5.47"/>
			<path class="st2" d="M76.16,11.18c0,0.27-0.27,0.55-0.55,0.55v-0.55H76.16z"/>
			<path class="st2" d="M81.08,11.18v0.55c-0.33,0-0.55-0.27-0.55-0.55H81.08z"/>
			<path class="st2" d="M76.16,16.65h-0.55v-0.55C75.88,16.11,76.16,16.33,76.16,16.65z"/>
			<path class="st2" d="M81.08,16.11v0.55h-0.55C80.53,16.33,80.75,16.11,81.08,16.11z"/>
			<path class="st2" d="M78.88,13.9c0,0.3-0.24,0.55-0.55,0.55c-0.3,0-0.55-0.24-0.55-0.55c0-0.3,0.24-0.55,0.55-0.55
				C78.64,13.36,78.88,13.6,78.88,13.9z"/>
		</g>
		<g class="st1">
			<rect x="75.61" y="16.65" class="st2" width="5.47" height="5.47"/>
			<path class="st2" d="M76.16,16.65c0,0.27-0.27,0.55-0.55,0.55v-0.55H76.16z"/>
			<path class="st2" d="M81.08,16.65v0.55c-0.33,0-0.55-0.27-0.55-0.55H81.08z"/>
			<path class="st2" d="M76.16,22.12h-0.55v-0.55C75.88,21.58,76.16,21.8,76.16,22.12z"/>
			<path class="st2" d="M81.08,21.58v0.55h-0.55C80.53,21.8,80.75,21.58,81.08,21.58z"/>
			<path class="st2" d="M78.88,19.38c0,0.3-0.24,0.55-0.55,0.55c-0.3,0-0.55-0.24-0.55-0.55s0.24-0.55,0.55-0.55
				C78.64,18.83,78.88,19.07,78.88,19.38z"/>
		</g>
		<g class="st1">
			<rect x="75.61" y="22.12" class="st2" width="5.47" height="5.47"/>
			<path class="st2" d="M76.16,22.12c0,0.27-0.27,0.55-0.55,0.55v-0.55H76.16z"/>
			<path class="st2" d="M81.08,22.12v0.55c-0.33,0-0.55-0.27-0.55-0.55H81.08z"/>
			<path class="st2" d="M76.16,27.6h-0.55v-0.55C75.88,27.05,76.16,27.27,76.16,27.6z"/>
			<path class="st2" d="M81.08,27.05v0.55h-0.55C80.53,27.27,80.75,27.05,81.08,27.05z"/>
			<path class="st2" d="M78.88,24.85c0,0.3-0.24,0.55-0.55,0.55c-0.3,0-0.55-0.24-0.55-0.55c0-0.3,0.24-0.55,0.55-0.55
				C78.64,24.3,78.88,24.54,78.88,24.85z"/>
		</g>
		<g class="st1">
			<rect x="75.61" y="27.6" class="st2" width="5.47" height="5.47"/>
			<path class="st2" d="M76.16,27.6c0,0.27-0.27,0.55-0.55,0.55V27.6H76.16z"/>
			<path class="st2" d="M81.08,27.6v0.55c-0.33,0-0.55-0.27-0.55-0.55H81.08z"/>
			<path class="st2" d="M76.16,33.07h-0.55v-0.55C75.88,32.52,76.16,32.74,76.16,33.07z"/>
			<path class="st2" d="M81.08,32.52v0.55h-0.55C80.53,32.74,80.75,32.52,81.08,32.52z"/>
			<path class="st2" d="M78.88,30.32c0,0.3-0.24,0.55-0.55,0.55c-0.3,0-0.55-0.24-0.55-0.55s0.24-0.55,0.55-0.55
				C78.64,29.77,78.88,30.02,78.88,30.32z"/>
		</g>
		<g class="st1">
			<rect x="75.61" y="33.07" class="st2" width="5.47" height="5.47"/>
			<path class="st2" d="M76.16,33.07c0,0.27-0.27,0.55-0.55,0.55v-0.55H76.16z"/>
			<path class="st2" d="M81.08,33.07v0.55c-0.33,0-0.55-0.27-0.55-0.55H81.08z"/>
			<path class="st2" d="M76.16,38.54h-0.55v-0.55C75.88,37.99,76.16,38.21,76.16,38.54z"/>
			<path class="st2" d="M81.08,37.99v0.55h-0.55C80.53,38.21,80.75,37.99,81.08,37.99z"/>
			<path class="st2" d="M78.88,35.79c0,0.3-0.24,0.55-0.55,0.55c-0.3,0-0.55-0.24-0.55-0.55s0.24-0.55,0.55-0.55
				C78.64,35.24,78.88,35.49,78.88,35.79z"/>
		</g>
		<g class="st1">
			<rect x="75.61" y="38.54" class="st2" width="5.47" height="5.47"/>
			<path class="st2" d="M76.16,38.54c0,0.27-0.27,0.55-0.55,0.55v-0.55H76.16z"/>
			<path class="st2" d="M81.08,38.54v0.55c-0.33,0-0.55-0.27-0.55-0.55H81.08z"/>
			<path class="st2" d="M76.16,44.01h-0.55v-0.55C75.88,43.46,76.16,43.68,76.16,44.01z"/>
			<path class="st2" d="M81.08,43.46v0.55h-0.55C80.53,43.68,80.75,43.46,81.08,43.46z"/>
			<path class="st2" d="M78.88,41.26c0,0.3-0.24,0.55-0.55,0.55c-0.3,0-0.55-0.24-0.55-0.55s0.24-0.55,0.55-0.55
				C78.64,40.71,78.88,40.96,78.88,41.26z"/>
		</g>
		<g class="st1">
			<rect x="75.61" y="44.01" class="st2" width="5.47" height="5.47"/>
			<path class="st2" d="M76.16,44.01c0,0.27-0.27,0.55-0.55,0.55v-0.55H76.16z"/>
			<path class="st2" d="M81.08,44.01v0.55c-0.33,0-0.55-0.27-0.55-0.55H81.08z"/>
			<path class="st2" d="M76.16,49.48h-0.55v-0.55C75.88,48.93,76.16,49.15,76.16,49.48z"/>
			<path class="st2" d="M81.08,48.93v0.55h-0.55C80.53,49.15,80.75,48.93,81.08,48.93z"/>
			<circle class="st2" cx="78.33" cy="46.73" r="0.55"/>
		</g>
		<g class="st1">
			<rect x="75.61" y="49.48" class="st2" width="5.47" height="5.47"/>
			<path class="st2" d="M76.16,49.48c0,0.27-0.27,0.55-0.55,0.55v-0.55H76.16z"/>
			<path class="st2" d="M81.08,49.48v0.55c-0.33,0-0.55-0.27-0.55-0.55H81.08z"/>
			<path class="st2" d="M76.16,54.95h-0.55V54.4C75.88,54.4,76.16,54.62,76.16,54.95z"/>
			<path class="st2" d="M81.08,54.4v0.55h-0.55C80.53,54.62,80.75,54.4,81.08,54.4z"/>
			<path class="st2" d="M78.88,52.2c0,0.3-0.24,0.55-0.55,0.55c-0.3,0-0.55-0.24-0.55-0.55c0-0.3,0.24-0.55,0.55-0.55
				C78.64,51.66,78.88,51.9,78.88,52.2z"/>
		</g>
	</g>
	<path class="st3" d="M109.9,53.78H98.02v-6.17H78.67l0.09-11.43L94.47,5.43h13.66L92.64,35.74h5.39v-6.17h11.88v6.17h3.48v11.88
		h-3.48V53.78z M99.67,52.14h8.59v-6.17h3.48v-8.6h-3.48v-6.17h-8.59v6.17h-9.71l15.49-30.31h-9.97L80.31,36.76v9.22h19.36V52.14z"
		/>
</g>
</svg>
