<?xml version="1.0" encoding="utf-8"?>
<!-- Generator: Adobe Illustrator 24.1.2, SVG Export Plug-In . SVG Version: 6.00 Build 0)  -->
<svg version="1.1" id="Layer_1" xmlns="http://www.w3.org/2000/svg" xmlns:xlink="http://www.w3.org/1999/xlink" x="0px" y="0px"
	 viewBox="0 0 121.43 61.97" style="enable-background:new 0 0 121.43 61.97;" xml:space="preserve">
<style type="text/css">
	.st0{fill:#F3F3F5;}
	.st1{clip-path:url(#SVGID_2_);}
	.st2{fill:#00ABC8;}
	.st3{fill:#0075A3;}
	.st4{clip-path:url(#SVGID_4_);}
</style>
<g>
	<g>
		<g>
			<g>
				<path class="st0" d="M72.27,51.33v6.17H62.04v-6.17H42.68V41.09l15.48-30.31h11.81L54.49,41.09h7.55v-6.17h10.23v6.17h3.48
					v10.24H72.27z"/>
			</g>
		</g>
		<g>
			<defs>
				<path id="SVGID_1_" d="M67.94,46.99v6.17H57.71v-6.17H38.35V36.76L53.83,6.44h11.81L50.16,36.76h7.55v-6.17h10.23v6.17h3.48
					v10.24H67.94z"/>
			</defs>
			<clipPath id="SVGID_2_">
				<use xlink:href="#SVGID_1_"  style="overflow:visible;"/>
			</clipPath>
			<g class="st1">
				<rect x="67.3" y="5.91" class="st2" width="5.47" height="5.47"/>
				<path class="st2" d="M67.85,5.91c0,0.27-0.27,0.55-0.55,0.55V5.91H67.85z"/>
				<path class="st2" d="M72.77,5.91v0.55c-0.33,0-0.55-0.27-0.55-0.55H72.77z"/>
				<path class="st2" d="M67.85,11.38H67.3v-0.55C67.57,10.83,67.85,11.05,67.85,11.38z"/>
				<path class="st2" d="M72.77,10.83v0.55h-0.55C72.22,11.05,72.44,10.83,72.77,10.83z"/>
				<path class="st2" d="M70.57,8.63c0,0.3-0.24,0.55-0.55,0.55c-0.3,0-0.55-0.24-0.55-0.55c0-0.3,0.24-0.55,0.55-0.55
					C70.32,8.08,70.57,8.33,70.57,8.63z"/>
			</g>
			<g class="st1">
				<rect x="67.3" y="11.38" class="st2" width="5.47" height="5.47"/>
				<path class="st2" d="M67.85,11.38c0,0.27-0.27,0.55-0.55,0.55v-0.55H67.85z"/>
				<path class="st2" d="M72.77,11.38v0.55c-0.33,0-0.55-0.27-0.55-0.55H72.77z"/>
				<path class="st2" d="M67.85,16.85H67.3V16.3C67.57,16.3,67.85,16.52,67.85,16.85z"/>
				<path class="st2" d="M72.77,16.3v0.55h-0.55C72.22,16.52,72.44,16.3,72.77,16.3z"/>
				<path class="st2" d="M70.57,14.1c0,0.3-0.24,0.55-0.55,0.55c-0.3,0-0.55-0.24-0.55-0.55c0-0.3,0.24-0.55,0.55-0.55
					C70.32,13.55,70.57,13.8,70.57,14.1z"/>
			</g>
			<g class="st1">
				<rect x="67.3" y="16.85" class="st2" width="5.47" height="5.47"/>
				<path class="st2" d="M67.85,16.85c0,0.27-0.27,0.55-0.55,0.55v-0.55H67.85z"/>
				<path class="st2" d="M72.77,16.85v0.55c-0.33,0-0.55-0.27-0.55-0.55H72.77z"/>
				<path class="st2" d="M67.85,22.32H67.3v-0.55C67.57,21.77,67.85,21.99,67.85,22.32z"/>
				<path class="st2" d="M72.77,21.77v0.55h-0.55C72.22,21.99,72.44,21.77,72.77,21.77z"/>
				<path class="st2" d="M70.57,19.57c0,0.3-0.24,0.55-0.55,0.55c-0.3,0-0.55-0.24-0.55-0.55s0.24-0.55,0.55-0.55
					C70.32,19.03,70.57,19.27,70.57,19.57z"/>
			</g>
			<g class="st1">
				<rect x="67.3" y="22.32" class="st2" width="5.47" height="5.47"/>
				<path class="st2" d="M67.85,22.32c0,0.27-0.27,0.55-0.55,0.55v-0.55H67.85z"/>
				<path class="st2" d="M72.77,22.32v0.55c-0.33,0-0.55-0.27-0.55-0.55H72.77z"/>
				<path class="st2" d="M67.85,27.79H67.3v-0.55C67.57,27.25,67.85,27.46,67.85,27.79z"/>
				<path class="st2" d="M72.77,27.25v0.55h-0.55C72.22,27.46,72.44,27.25,72.77,27.25z"/>
				<path class="st2" d="M70.57,25.04c0,0.3-0.24,0.55-0.55,0.55c-0.3,0-0.55-0.24-0.55-0.55s0.24-0.55,0.55-0.55
					C70.32,24.5,70.57,24.74,70.57,25.04z"/>
			</g>
			<g class="st1">
				<rect x="67.3" y="27.79" class="st2" width="5.47" height="5.47"/>
				<path class="st2" d="M67.85,27.79c0,0.27-0.27,0.55-0.55,0.55v-0.55H67.85z"/>
				<path class="st2" d="M72.77,27.79v0.55c-0.33,0-0.55-0.27-0.55-0.55H72.77z"/>
				<path class="st2" d="M67.85,33.26H67.3v-0.55C67.57,32.72,67.85,32.94,67.85,33.26z"/>
				<path class="st2" d="M72.77,32.72v0.55h-0.55C72.22,32.94,72.44,32.72,72.77,32.72z"/>
				<path class="st2" d="M70.57,30.51c0,0.3-0.24,0.55-0.55,0.55c-0.3,0-0.55-0.24-0.55-0.55c0-0.3,0.24-0.55,0.55-0.55
					C70.32,29.97,70.57,30.21,70.57,30.51z"/>
			</g>
			<g class="st1">
				<rect x="67.3" y="33.26" class="st2" width="5.47" height="5.47"/>
				<path class="st2" d="M67.85,33.26c0,0.27-0.27,0.55-0.55,0.55v-0.55H67.85z"/>
				<path class="st2" d="M72.77,33.26v0.55c-0.33,0-0.55-0.27-0.55-0.55H72.77z"/>
				<path class="st2" d="M67.85,38.74H67.3v-0.55C67.57,38.19,67.85,38.41,67.85,38.74z"/>
				<path class="st2" d="M72.77,38.19v0.55h-0.55C72.22,38.41,72.44,38.19,72.77,38.19z"/>
				<path class="st2" d="M70.57,35.99c0,0.3-0.24,0.55-0.55,0.55c-0.3,0-0.55-0.24-0.55-0.55c0-0.3,0.24-0.55,0.55-0.55
					C70.32,35.44,70.57,35.68,70.57,35.99z"/>
			</g>
			<g class="st1">
				<rect x="67.3" y="38.74" class="st2" width="5.47" height="5.47"/>
				<path class="st2" d="M67.85,38.74c0,0.27-0.27,0.55-0.55,0.55v-0.55H67.85z"/>
				<path class="st2" d="M72.77,38.74v0.55c-0.33,0-0.55-0.27-0.55-0.55H72.77z"/>
				<path class="st2" d="M67.85,44.21H67.3v-0.55C67.57,43.66,67.85,43.88,67.85,44.21z"/>
				<path class="st2" d="M72.77,43.66v0.55h-0.55C72.22,43.88,72.44,43.66,72.77,43.66z"/>
				<path class="st2" d="M70.57,41.46c0,0.3-0.24,0.55-0.55,0.55c-0.3,0-0.55-0.24-0.55-0.55s0.24-0.55,0.55-0.55
					C70.32,40.91,70.57,41.16,70.57,41.46z"/>
			</g>
			<g class="st1">
				<rect x="67.3" y="44.21" class="st2" width="5.47" height="5.47"/>
				<path class="st2" d="M67.85,44.21c0,0.27-0.27,0.55-0.55,0.55v-0.55H67.85z"/>
				<path class="st2" d="M72.77,44.21v0.55c-0.33,0-0.55-0.27-0.55-0.55H72.77z"/>
				<path class="st2" d="M67.85,49.68H67.3v-0.55C67.57,49.13,67.85,49.35,67.85,49.68z"/>
				<path class="st2" d="M72.77,49.13v0.55h-0.55C72.22,49.35,72.44,49.13,72.77,49.13z"/>
				<path class="st2" d="M70.57,46.93c0,0.3-0.24,0.55-0.55,0.55c-0.3,0-0.55-0.24-0.55-0.55s0.24-0.55,0.55-0.55
					C70.32,46.38,70.57,46.63,70.57,46.93z"/>
			</g>
			<g class="st1">
				<rect x="67.3" y="49.68" class="st2" width="5.47" height="5.47"/>
				<path class="st2" d="M67.85,49.68c0,0.27-0.27,0.55-0.55,0.55v-0.55H67.85z"/>
				<path class="st2" d="M72.77,49.68v0.55c-0.33,0-0.55-0.27-0.55-0.55H72.77z"/>
				<path class="st2" d="M67.85,55.15H67.3V54.6C67.57,54.6,67.85,54.82,67.85,55.15z"/>
				<path class="st2" d="M72.77,54.6v0.55h-0.55C72.22,54.82,72.44,54.6,72.77,54.6z"/>
				<path class="st2" d="M70.57,52.4c0,0.3-0.24,0.55-0.55,0.55c-0.3,0-0.55-0.24-0.55-0.55c0-0.3,0.24-0.55,0.55-0.55
					C70.32,51.85,70.57,52.1,70.57,52.4z"/>
			</g>
			<g class="st1">
				<rect x="61.83" y="5.91" class="st2" width="5.47" height="5.47"/>
				<path class="st2" d="M62.37,5.91c0,0.27-0.27,0.55-0.55,0.55V5.91H62.37z"/>
				<path class="st2" d="M67.3,5.91v0.55c-0.33,0-0.55-0.27-0.55-0.55H67.3z"/>
				<path class="st2" d="M62.37,11.38h-0.55v-0.55C62.1,10.83,62.37,11.05,62.37,11.38z"/>
				<path class="st2" d="M67.3,10.83v0.55h-0.55C66.75,11.05,66.97,10.83,67.3,10.83z"/>
				<circle class="st2" cx="64.55" cy="8.63" r="0.55"/>
			</g>
			<g class="st1">
				<rect x="61.83" y="11.38" class="st2" width="5.47" height="5.47"/>
				<path class="st2" d="M62.37,11.38c0,0.27-0.27,0.55-0.55,0.55v-0.55H62.37z"/>
				<path class="st2" d="M67.3,11.38v0.55c-0.33,0-0.55-0.27-0.55-0.55H67.3z"/>
				<path class="st2" d="M62.37,16.85h-0.55V16.3C62.1,16.3,62.37,16.52,62.37,16.85z"/>
				<path class="st2" d="M67.3,16.3v0.55h-0.55C66.75,16.52,66.97,16.3,67.3,16.3z"/>
				<path class="st2" d="M65.1,14.1c0,0.3-0.24,0.55-0.55,0.55c-0.3,0-0.55-0.24-0.55-0.55c0-0.3,0.24-0.55,0.55-0.55
					C64.85,13.55,65.1,13.8,65.1,14.1z"/>
			</g>
			<g class="st1">
				<rect x="61.83" y="16.85" class="st2" width="5.47" height="5.47"/>
				<path class="st2" d="M62.37,16.85c0,0.27-0.27,0.55-0.55,0.55v-0.55H62.37z"/>
				<path class="st2" d="M67.3,16.85v0.55c-0.33,0-0.55-0.27-0.55-0.55H67.3z"/>
				<path class="st2" d="M62.37,22.32h-0.55v-0.55C62.1,21.77,62.37,21.99,62.37,22.32z"/>
				<path class="st2" d="M67.3,21.77v0.55h-0.55C66.75,21.99,66.97,21.77,67.3,21.77z"/>
				<path class="st2" d="M65.1,19.57c0,0.3-0.24,0.55-0.55,0.55c-0.3,0-0.55-0.24-0.55-0.55s0.24-0.55,0.55-0.55
					C64.85,19.03,65.1,19.27,65.1,19.57z"/>
			</g>
			<g class="st1">
				<rect x="61.83" y="22.32" class="st2" width="5.47" height="5.47"/>
				<path class="st2" d="M62.37,22.32c0,0.27-0.27,0.55-0.55,0.55v-0.55H62.37z"/>
				<path class="st2" d="M67.3,22.32v0.55c-0.33,0-0.55-0.27-0.55-0.55H67.3z"/>
				<path class="st2" d="M62.37,27.79h-0.55v-0.55C62.1,27.25,62.37,27.46,62.37,27.79z"/>
				<path class="st2" d="M67.3,27.25v0.55h-0.55C66.75,27.46,66.97,27.25,67.3,27.25z"/>
				<path class="st2" d="M65.1,25.04c0,0.3-0.24,0.55-0.55,0.55c-0.3,0-0.55-0.24-0.55-0.55s0.24-0.55,0.55-0.55
					C64.85,24.5,65.1,24.74,65.1,25.04z"/>
			</g>
			<g class="st1">
				<rect x="61.83" y="27.79" class="st2" width="5.47" height="5.47"/>
				<path class="st2" d="M62.37,27.79c0,0.27-0.27,0.55-0.55,0.55v-0.55H62.37z"/>
				<path class="st2" d="M67.3,27.79v0.55c-0.33,0-0.55-0.27-0.55-0.55H67.3z"/>
				<path class="st2" d="M62.37,33.26h-0.55v-0.55C62.1,32.72,62.37,32.94,62.37,33.26z"/>
				<path class="st2" d="M67.3,32.72v0.55h-0.55C66.75,32.94,66.97,32.72,67.3,32.72z"/>
				<path class="st2" d="M65.1,30.51c0,0.3-0.24,0.55-0.55,0.55c-0.3,0-0.55-0.24-0.55-0.55c0-0.3,0.24-0.55,0.55-0.55
					C64.85,29.97,65.1,30.21,65.1,30.51z"/>
			</g>
			<g class="st1">
				<rect x="61.83" y="33.26" class="st2" width="5.47" height="5.47"/>
				<path class="st2" d="M62.37,33.26c0,0.27-0.27,0.55-0.55,0.55v-0.55H62.37z"/>
				<path class="st2" d="M67.3,33.26v0.55c-0.33,0-0.55-0.27-0.55-0.55H67.3z"/>
				<path class="st2" d="M62.37,38.74h-0.55v-0.55C62.1,38.19,62.37,38.41,62.37,38.74z"/>
				<path class="st2" d="M67.3,38.19v0.55h-0.55C66.75,38.41,66.97,38.19,67.3,38.19z"/>
				<path class="st2" d="M65.1,35.99c0,0.3-0.24,0.55-0.55,0.55c-0.3,0-0.55-0.24-0.55-0.55c0-0.3,0.24-0.55,0.55-0.55
					C64.85,35.44,65.1,35.68,65.1,35.99z"/>
			</g>
			<g class="st1">
				<rect x="61.83" y="38.74" class="st2" width="5.47" height="5.47"/>
				<path class="st2" d="M62.37,38.74c0,0.27-0.27,0.55-0.55,0.55v-0.55H62.37z"/>
				<path class="st2" d="M67.3,38.74v0.55c-0.33,0-0.55-0.27-0.55-0.55H67.3z"/>
				<path class="st2" d="M62.37,44.21h-0.55v-0.55C62.1,43.66,62.37,43.88,62.37,44.21z"/>
				<path class="st2" d="M67.3,43.66v0.55h-0.55C66.75,43.88,66.97,43.66,67.3,43.66z"/>
				<path class="st2" d="M65.1,41.46c0,0.3-0.24,0.55-0.55,0.55c-0.3,0-0.55-0.24-0.55-0.55s0.24-0.55,0.55-0.55
					C64.85,40.91,65.1,41.16,65.1,41.46z"/>
			</g>
			<g class="st1">
				<rect x="61.83" y="44.21" class="st2" width="5.47" height="5.47"/>
				<path class="st2" d="M62.37,44.21c0,0.27-0.27,0.55-0.55,0.55v-0.55H62.37z"/>
				<path class="st2" d="M67.3,44.21v0.55c-0.33,0-0.55-0.27-0.55-0.55H67.3z"/>
				<path class="st2" d="M62.37,49.68h-0.55v-0.55C62.1,49.13,62.37,49.35,62.37,49.68z"/>
				<path class="st2" d="M67.3,49.13v0.55h-0.55C66.75,49.35,66.97,49.13,67.3,49.13z"/>
				<circle class="st2" cx="64.55" cy="46.93" r="0.55"/>
			</g>
			<g class="st1">
				<rect x="61.83" y="49.68" class="st2" width="5.47" height="5.47"/>
				<path class="st2" d="M62.37,49.68c0,0.27-0.27,0.55-0.55,0.55v-0.55H62.37z"/>
				<path class="st2" d="M67.3,49.68v0.55c-0.33,0-0.55-0.27-0.55-0.55H67.3z"/>
				<path class="st2" d="M62.37,55.15h-0.55V54.6C62.1,54.6,62.37,54.82,62.37,55.15z"/>
				<path class="st2" d="M67.3,54.6v0.55h-0.55C66.75,54.82,66.97,54.6,67.3,54.6z"/>
				<path class="st2" d="M65.1,52.4c0,0.3-0.24,0.55-0.55,0.55c-0.3,0-0.55-0.24-0.55-0.55c0-0.3,0.24-0.55,0.55-0.55
					C64.85,51.85,65.1,52.1,65.1,52.4z"/>
			</g>
			<g class="st1">
				<rect x="56.36" y="5.91" class="st2" width="5.47" height="5.47"/>
				<path class="st2" d="M56.9,5.91c0,0.27-0.27,0.55-0.55,0.55V5.91H56.9z"/>
				<path class="st2" d="M61.83,5.91v0.55c-0.33,0-0.55-0.27-0.55-0.55H61.83z"/>
				<path class="st2" d="M56.9,11.38h-0.55v-0.55C56.63,10.83,56.9,11.05,56.9,11.38z"/>
				<path class="st2" d="M61.83,10.83v0.55h-0.55C61.28,11.05,61.5,10.83,61.83,10.83z"/>
				<path class="st2" d="M59.63,8.63c0,0.3-0.24,0.55-0.55,0.55s-0.55-0.24-0.55-0.55c0-0.3,0.24-0.55,0.55-0.55
					S59.63,8.33,59.63,8.63z"/>
			</g>
			<g class="st1">
				<rect x="56.36" y="11.38" class="st2" width="5.47" height="5.47"/>
				<path class="st2" d="M56.9,11.38c0,0.27-0.27,0.55-0.55,0.55v-0.55H56.9z"/>
				<path class="st2" d="M61.83,11.38v0.55c-0.33,0-0.55-0.27-0.55-0.55H61.83z"/>
				<path class="st2" d="M56.9,16.85h-0.55V16.3C56.63,16.3,56.9,16.52,56.9,16.85z"/>
				<path class="st2" d="M61.83,16.3v0.55h-0.55C61.28,16.52,61.5,16.3,61.83,16.3z"/>
				<path class="st2" d="M59.63,14.1c0,0.3-0.24,0.55-0.55,0.55s-0.55-0.24-0.55-0.55c0-0.3,0.24-0.55,0.55-0.55
					S59.63,13.8,59.63,14.1z"/>
			</g>
			<g class="st1">
				<rect x="56.36" y="16.85" class="st2" width="5.47" height="5.47"/>
				<path class="st2" d="M56.9,16.85c0,0.27-0.27,0.55-0.55,0.55v-0.55H56.9z"/>
				<path class="st2" d="M61.83,16.85v0.55c-0.33,0-0.55-0.27-0.55-0.55H61.83z"/>
				<path class="st2" d="M56.9,22.32h-0.55v-0.55C56.63,21.77,56.9,21.99,56.9,22.32z"/>
				<path class="st2" d="M61.83,21.77v0.55h-0.55C61.28,21.99,61.5,21.77,61.83,21.77z"/>
				<path class="st2" d="M59.63,19.57c0,0.3-0.24,0.55-0.55,0.55s-0.55-0.24-0.55-0.55s0.24-0.55,0.55-0.55S59.63,19.27,59.63,19.57
					z"/>
			</g>
			<g class="st1">
				<rect x="56.36" y="22.32" class="st2" width="5.47" height="5.47"/>
				<path class="st2" d="M56.9,22.32c0,0.27-0.27,0.55-0.55,0.55v-0.55H56.9z"/>
				<path class="st2" d="M61.83,22.32v0.55c-0.33,0-0.55-0.27-0.55-0.55H61.83z"/>
				<path class="st2" d="M56.9,27.79h-0.55v-0.55C56.63,27.25,56.9,27.46,56.9,27.79z"/>
				<path class="st2" d="M61.83,27.25v0.55h-0.55C61.28,27.46,61.5,27.25,61.83,27.25z"/>
				<path class="st2" d="M59.63,25.04c0,0.3-0.24,0.55-0.55,0.55s-0.55-0.24-0.55-0.55s0.24-0.55,0.55-0.55S59.63,24.74,59.63,25.04
					z"/>
			</g>
			<g class="st1">
				<rect x="56.36" y="27.79" class="st2" width="5.47" height="5.47"/>
				<path class="st2" d="M56.9,27.79c0,0.27-0.27,0.55-0.55,0.55v-0.55H56.9z"/>
				<path class="st2" d="M61.83,27.79v0.55c-0.33,0-0.55-0.27-0.55-0.55H61.83z"/>
				<path class="st2" d="M56.9,33.26h-0.55v-0.55C56.63,32.72,56.9,32.94,56.9,33.26z"/>
				<path class="st2" d="M61.83,32.72v0.55h-0.55C61.28,32.94,61.5,32.72,61.83,32.72z"/>
				<path class="st2" d="M59.63,30.51c0,0.3-0.24,0.55-0.55,0.55s-0.55-0.24-0.55-0.55c0-0.3,0.24-0.55,0.55-0.55
					S59.63,30.21,59.63,30.51z"/>
			</g>
			<g class="st1">
				<rect x="56.36" y="33.26" class="st2" width="5.47" height="5.47"/>
				<path class="st2" d="M56.9,33.26c0,0.27-0.27,0.55-0.55,0.55v-0.55H56.9z"/>
				<path class="st2" d="M61.83,33.26v0.55c-0.33,0-0.55-0.27-0.55-0.55H61.83z"/>
				<path class="st2" d="M56.9,38.74h-0.55v-0.55C56.63,38.19,56.9,38.41,56.9,38.74z"/>
				<path class="st2" d="M61.83,38.19v0.55h-0.55C61.28,38.41,61.5,38.19,61.83,38.19z"/>
				<path class="st2" d="M59.63,35.99c0,0.3-0.24,0.55-0.55,0.55s-0.55-0.24-0.55-0.55c0-0.3,0.24-0.55,0.55-0.55
					S59.63,35.68,59.63,35.99z"/>
			</g>
			<g class="st1">
				<rect x="56.36" y="38.74" class="st2" width="5.47" height="5.47"/>
				<path class="st2" d="M56.9,38.74c0,0.27-0.27,0.55-0.55,0.55v-0.55H56.9z"/>
				<path class="st2" d="M61.83,38.74v0.55c-0.33,0-0.55-0.27-0.55-0.55H61.83z"/>
				<path class="st2" d="M56.9,44.21h-0.55v-0.55C56.63,43.66,56.9,43.88,56.9,44.21z"/>
				<path class="st2" d="M61.83,43.66v0.55h-0.55C61.28,43.88,61.5,43.66,61.83,43.66z"/>
				<path class="st2" d="M59.63,41.46c0,0.3-0.24,0.55-0.55,0.55s-0.55-0.24-0.55-0.55s0.24-0.55,0.55-0.55S59.63,41.16,59.63,41.46
					z"/>
			</g>
			<g class="st1">
				<rect x="56.36" y="44.21" class="st2" width="5.47" height="5.47"/>
				<path class="st2" d="M56.9,44.21c0,0.27-0.27,0.55-0.55,0.55v-0.55H56.9z"/>
				<path class="st2" d="M61.83,44.21v0.55c-0.33,0-0.55-0.27-0.55-0.55H61.83z"/>
				<path class="st2" d="M56.9,49.68h-0.55v-0.55C56.63,49.13,56.9,49.35,56.9,49.68z"/>
				<path class="st2" d="M61.83,49.13v0.55h-0.55C61.28,49.35,61.5,49.13,61.83,49.13z"/>
				<path class="st2" d="M59.63,46.93c0,0.3-0.24,0.55-0.55,0.55s-0.55-0.24-0.55-0.55s0.24-0.55,0.55-0.55S59.63,46.63,59.63,46.93
					z"/>
			</g>
			<g class="st1">
				<rect x="56.36" y="49.68" class="st2" width="5.47" height="5.47"/>
				<path class="st2" d="M56.9,49.68c0,0.27-0.27,0.55-0.55,0.55v-0.55H56.9z"/>
				<path class="st2" d="M61.83,49.68v0.55c-0.33,0-0.55-0.27-0.55-0.55H61.83z"/>
				<path class="st2" d="M56.9,55.15h-0.55V54.6C56.63,54.6,56.9,54.82,56.9,55.15z"/>
				<path class="st2" d="M61.83,54.6v0.55h-0.55C61.28,54.82,61.5,54.6,61.83,54.6z"/>
				<path class="st2" d="M59.63,52.4c0,0.3-0.24,0.55-0.55,0.55s-0.55-0.24-0.55-0.55c0-0.3,0.24-0.55,0.55-0.55
					S59.63,52.1,59.63,52.4z"/>
			</g>
			<g class="st1">
				<rect x="50.88" y="5.91" class="st2" width="5.47" height="5.47"/>
				<path class="st2" d="M51.43,5.91c0,0.27-0.27,0.55-0.55,0.55V5.91H51.43z"/>
				<path class="st2" d="M56.36,5.91v0.55c-0.33,0-0.55-0.27-0.55-0.55H56.36z"/>
				<path class="st2" d="M51.43,11.38h-0.55v-0.55C51.16,10.83,51.43,11.05,51.43,11.38z"/>
				<path class="st2" d="M56.36,10.83v0.55h-0.55C55.81,11.05,56.03,10.83,56.36,10.83z"/>
				<path class="st2" d="M54.16,8.63c0,0.3-0.24,0.55-0.55,0.55s-0.55-0.24-0.55-0.55c0-0.3,0.24-0.55,0.55-0.55
					S54.16,8.33,54.16,8.63z"/>
			</g>
			<g class="st1">
				<rect x="50.88" y="11.38" class="st2" width="5.47" height="5.47"/>
				<path class="st2" d="M51.43,11.38c0,0.27-0.27,0.55-0.55,0.55v-0.55H51.43z"/>
				<path class="st2" d="M56.36,11.38v0.55c-0.33,0-0.55-0.27-0.55-0.55H56.36z"/>
				<path class="st2" d="M51.43,16.85h-0.55V16.3C51.16,16.3,51.43,16.52,51.43,16.85z"/>
				<path class="st2" d="M56.36,16.3v0.55h-0.55C55.81,16.52,56.03,16.3,56.36,16.3z"/>
				<path class="st2" d="M54.16,14.1c0,0.3-0.24,0.55-0.55,0.55s-0.55-0.24-0.55-0.55c0-0.3,0.24-0.55,0.55-0.55
					S54.16,13.8,54.16,14.1z"/>
			</g>
			<g class="st1">
				<rect x="50.88" y="16.85" class="st2" width="5.47" height="5.47"/>
				<path class="st2" d="M51.43,16.85c0,0.27-0.27,0.55-0.55,0.55v-0.55H51.43z"/>
				<path class="st2" d="M56.36,16.85v0.55c-0.33,0-0.55-0.27-0.55-0.55H56.36z"/>
				<path class="st2" d="M51.43,22.32h-0.55v-0.55C51.16,21.77,51.43,21.99,51.43,22.32z"/>
				<path class="st2" d="M56.36,21.77v0.55h-0.55C55.81,21.99,56.03,21.77,56.36,21.77z"/>
				<path class="st2" d="M54.16,19.57c0,0.3-0.24,0.55-0.55,0.55s-0.55-0.24-0.55-0.55s0.24-0.55,0.55-0.55S54.16,19.27,54.16,19.57
					z"/>
			</g>
			<g class="st1">
				<rect x="50.88" y="22.32" class="st2" width="5.47" height="5.47"/>
				<path class="st2" d="M51.43,22.32c0,0.27-0.27,0.55-0.55,0.55v-0.55H51.43z"/>
				<path class="st2" d="M56.36,22.32v0.55c-0.33,0-0.55-0.27-0.55-0.55H56.36z"/>
				<path class="st2" d="M51.43,27.79h-0.55v-0.55C51.16,27.25,51.43,27.46,51.43,27.79z"/>
				<path class="st2" d="M56.36,27.25v0.55h-0.55C55.81,27.46,56.03,27.25,56.36,27.25z"/>
				<path class="st2" d="M54.16,25.04c0,0.3-0.24,0.55-0.55,0.55s-0.55-0.24-0.55-0.55s0.24-0.55,0.55-0.55S54.16,24.74,54.16,25.04
					z"/>
			</g>
			<g class="st1">
				<rect x="50.88" y="27.79" class="st2" width="5.47" height="5.47"/>
				<path class="st2" d="M51.43,27.79c0,0.27-0.27,0.55-0.55,0.55v-0.55H51.43z"/>
				<path class="st2" d="M56.36,27.79v0.55c-0.33,0-0.55-0.27-0.55-0.55H56.36z"/>
				<path class="st2" d="M51.43,33.26h-0.55v-0.55C51.16,32.72,51.43,32.94,51.43,33.26z"/>
				<path class="st2" d="M56.36,32.72v0.55h-0.55C55.81,32.94,56.03,32.72,56.36,32.72z"/>
				<path class="st2" d="M54.16,30.51c0,0.3-0.24,0.55-0.55,0.55s-0.55-0.24-0.55-0.55c0-0.3,0.24-0.55,0.55-0.55
					S54.16,30.21,54.16,30.51z"/>
			</g>
			<g class="st1">
				<rect x="50.88" y="33.26" class="st2" width="5.47" height="5.47"/>
				<path class="st2" d="M51.43,33.26c0,0.27-0.27,0.55-0.55,0.55v-0.55H51.43z"/>
				<path class="st2" d="M56.36,33.26v0.55c-0.33,0-0.55-0.27-0.55-0.55H56.36z"/>
				<path class="st2" d="M51.43,38.74h-0.55v-0.55C51.16,38.19,51.43,38.41,51.43,38.74z"/>
				<path class="st2" d="M56.36,38.19v0.55h-0.55C55.81,38.41,56.03,38.19,56.36,38.19z"/>
				<path class="st2" d="M54.16,35.99c0,0.3-0.24,0.55-0.55,0.55s-0.55-0.24-0.55-0.55c0-0.3,0.24-0.55,0.55-0.55
					S54.16,35.68,54.16,35.99z"/>
			</g>
			<g class="st1">
				<rect x="50.88" y="38.74" class="st2" width="5.47" height="5.47"/>
				<path class="st2" d="M51.43,38.74c0,0.27-0.27,0.55-0.55,0.55v-0.55H51.43z"/>
				<path class="st2" d="M56.36,38.74v0.55c-0.33,0-0.55-0.27-0.55-0.55H56.36z"/>
				<path class="st2" d="M51.43,44.21h-0.55v-0.55C51.16,43.66,51.43,43.88,51.43,44.21z"/>
				<path class="st2" d="M56.36,43.66v0.55h-0.55C55.81,43.88,56.03,43.66,56.36,43.66z"/>
				<path class="st2" d="M54.16,41.46c0,0.3-0.24,0.55-0.55,0.55s-0.55-0.24-0.55-0.55s0.24-0.55,0.55-0.55S54.16,41.16,54.16,41.46
					z"/>
			</g>
			<g class="st1">
				<rect x="50.88" y="44.21" class="st2" width="5.47" height="5.47"/>
				<path class="st2" d="M51.43,44.21c0,0.27-0.27,0.55-0.55,0.55v-0.55H51.43z"/>
				<path class="st2" d="M56.36,44.21v0.55c-0.33,0-0.55-0.27-0.55-0.55H56.36z"/>
				<path class="st2" d="M51.43,49.68h-0.55v-0.55C51.16,49.13,51.43,49.35,51.43,49.68z"/>
				<path class="st2" d="M56.36,49.13v0.55h-0.55C55.81,49.35,56.03,49.13,56.36,49.13z"/>
				<path class="st2" d="M54.16,46.93c0,0.3-0.24,0.55-0.55,0.55s-0.55-0.24-0.55-0.55s0.24-0.55,0.55-0.55S54.16,46.63,54.16,46.93
					z"/>
			</g>
			<g class="st1">
				<rect x="50.88" y="49.68" class="st2" width="5.47" height="5.47"/>
				<path class="st2" d="M51.43,49.68c0,0.27-0.27,0.55-0.55,0.55v-0.55H51.43z"/>
				<path class="st2" d="M56.36,49.68v0.55c-0.33,0-0.55-0.27-0.55-0.55H56.36z"/>
				<path class="st2" d="M51.43,55.15h-0.55V54.6C51.16,54.6,51.43,54.82,51.43,55.15z"/>
				<path class="st2" d="M56.36,54.6v0.55h-0.55C55.81,54.82,56.03,54.6,56.36,54.6z"/>
				<path class="st2" d="M54.16,52.4c0,0.3-0.24,0.55-0.55,0.55s-0.55-0.24-0.55-0.55c0-0.3,0.24-0.55,0.55-0.55
					S54.16,52.1,54.16,52.4z"/>
			</g>
			<g class="st1">
				<rect x="45.41" y="5.91" class="st2" width="5.47" height="5.47"/>
				<path class="st2" d="M45.96,5.91c0,0.27-0.27,0.55-0.55,0.55V5.91H45.96z"/>
				<path class="st2" d="M50.88,5.91v0.55c-0.33,0-0.55-0.27-0.55-0.55H50.88z"/>
				<path class="st2" d="M45.96,11.38h-0.55v-0.55C45.69,10.83,45.96,11.05,45.96,11.38z"/>
				<path class="st2" d="M50.88,10.83v0.55h-0.55C50.34,11.05,50.56,10.83,50.88,10.83z"/>
				<path class="st2" d="M48.68,8.63c0,0.3-0.24,0.55-0.55,0.55s-0.55-0.24-0.55-0.55c0-0.3,0.24-0.55,0.55-0.55
					S48.68,8.33,48.68,8.63z"/>
			</g>
			<g class="st1">
				<rect x="45.41" y="11.38" class="st2" width="5.47" height="5.47"/>
				<path class="st2" d="M45.96,11.38c0,0.27-0.27,0.55-0.55,0.55v-0.55H45.96z"/>
				<path class="st2" d="M50.88,11.38v0.55c-0.33,0-0.55-0.27-0.55-0.55H50.88z"/>
				<path class="st2" d="M45.96,16.85h-0.55V16.3C45.69,16.3,45.96,16.52,45.96,16.85z"/>
				<path class="st2" d="M50.88,16.3v0.55h-0.55C50.34,16.52,50.56,16.3,50.88,16.3z"/>
				<path class="st2" d="M48.68,14.1c0,0.3-0.24,0.55-0.55,0.55s-0.55-0.24-0.55-0.55c0-0.3,0.24-0.55,0.55-0.55
					S48.68,13.8,48.68,14.1z"/>
			</g>
			<g class="st1">
				<rect x="45.41" y="16.85" class="st2" width="5.47" height="5.47"/>
				<path class="st2" d="M45.96,16.85c0,0.27-0.27,0.55-0.55,0.55v-0.55H45.96z"/>
				<path class="st2" d="M50.88,16.85v0.55c-0.33,0-0.55-0.27-0.55-0.55H50.88z"/>
				<path class="st2" d="M45.96,22.32h-0.55v-0.55C45.69,21.77,45.96,21.99,45.96,22.32z"/>
				<path class="st2" d="M50.88,21.77v0.55h-0.55C50.34,21.99,50.56,21.77,50.88,21.77z"/>
				<path class="st2" d="M48.68,19.57c0,0.3-0.24,0.55-0.55,0.55s-0.55-0.24-0.55-0.55s0.24-0.55,0.55-0.55S48.68,19.27,48.68,19.57
					z"/>
			</g>
			<g class="st1">
				<rect x="45.41" y="22.32" class="st2" width="5.47" height="5.47"/>
				<path class="st2" d="M45.96,22.32c0,0.27-0.27,0.55-0.55,0.55v-0.55H45.96z"/>
				<path class="st2" d="M50.88,22.32v0.55c-0.33,0-0.55-0.27-0.55-0.55H50.88z"/>
				<path class="st2" d="M45.96,27.79h-0.55v-0.55C45.69,27.25,45.96,27.46,45.96,27.79z"/>
				<path class="st2" d="M50.88,27.25v0.55h-0.55C50.34,27.46,50.56,27.25,50.88,27.25z"/>
				<path class="st2" d="M48.68,25.04c0,0.3-0.24,0.55-0.55,0.55s-0.55-0.24-0.55-0.55s0.24-0.55,0.55-0.55S48.68,24.74,48.68,25.04
					z"/>
			</g>
			<g class="st1">
				<rect x="45.41" y="27.79" class="st2" width="5.47" height="5.47"/>
				<path class="st2" d="M45.96,27.79c0,0.27-0.27,0.55-0.55,0.55v-0.55H45.96z"/>
				<path class="st2" d="M50.88,27.79v0.55c-0.33,0-0.55-0.27-0.55-0.55H50.88z"/>
				<path class="st2" d="M45.96,33.26h-0.55v-0.55C45.69,32.72,45.96,32.94,45.96,33.26z"/>
				<path class="st2" d="M50.88,32.72v0.55h-0.55C50.34,32.94,50.56,32.72,50.88,32.72z"/>
				<path class="st2" d="M48.68,30.51c0,0.3-0.24,0.55-0.55,0.55s-0.55-0.24-0.55-0.55c0-0.3,0.24-0.55,0.55-0.55
					S48.68,30.21,48.68,30.51z"/>
			</g>
			<g class="st1">
				<rect x="45.41" y="33.26" class="st2" width="5.47" height="5.47"/>
				<path class="st2" d="M45.96,33.26c0,0.27-0.27,0.55-0.55,0.55v-0.55H45.96z"/>
				<path class="st2" d="M50.88,33.26v0.55c-0.33,0-0.55-0.27-0.55-0.55H50.88z"/>
				<path class="st2" d="M45.96,38.74h-0.55v-0.55C45.69,38.19,45.96,38.41,45.96,38.74z"/>
				<path class="st2" d="M50.88,38.19v0.55h-0.55C50.34,38.41,50.56,38.19,50.88,38.19z"/>
				<path class="st2" d="M48.68,35.99c0,0.3-0.24,0.55-0.55,0.55s-0.55-0.24-0.55-0.55c0-0.3,0.24-0.55,0.55-0.55
					S48.68,35.68,48.68,35.99z"/>
			</g>
			<g class="st1">
				<rect x="45.41" y="38.74" class="st2" width="5.47" height="5.47"/>
				<path class="st2" d="M45.96,38.74c0,0.27-0.27,0.55-0.55,0.55v-0.55H45.96z"/>
				<path class="st2" d="M50.88,38.74v0.55c-0.33,0-0.55-0.27-0.55-0.55H50.88z"/>
				<path class="st2" d="M45.96,44.21h-0.55v-0.55C45.69,43.66,45.96,43.88,45.96,44.21z"/>
				<path class="st2" d="M50.88,43.66v0.55h-0.55C50.34,43.88,50.56,43.66,50.88,43.66z"/>
				<path class="st2" d="M48.68,41.46c0,0.3-0.24,0.55-0.55,0.55s-0.55-0.24-0.55-0.55s0.24-0.55,0.55-0.55S48.68,41.16,48.68,41.46
					z"/>
			</g>
			<g class="st1">
				<rect x="45.41" y="44.21" class="st2" width="5.47" height="5.47"/>
				<path class="st2" d="M45.96,44.21c0,0.27-0.27,0.55-0.55,0.55v-0.55H45.96z"/>
				<path class="st2" d="M50.88,44.21v0.55c-0.33,0-0.55-0.27-0.55-0.55H50.88z"/>
				<path class="st2" d="M45.96,49.68h-0.55v-0.55C45.69,49.13,45.96,49.35,45.96,49.68z"/>
				<path class="st2" d="M50.88,49.13v0.55h-0.55C50.34,49.35,50.56,49.13,50.88,49.13z"/>
				<path class="st2" d="M48.68,46.93c0,0.3-0.24,0.55-0.55,0.55s-0.55-0.24-0.55-0.55s0.24-0.55,0.55-0.55S48.68,46.63,48.68,46.93
					z"/>
			</g>
			<g class="st1">
				<rect x="45.41" y="49.68" class="st2" width="5.47" height="5.47"/>
				<path class="st2" d="M45.96,49.68c0,0.27-0.27,0.55-0.55,0.55v-0.55H45.96z"/>
				<path class="st2" d="M50.88,49.68v0.55c-0.33,0-0.55-0.27-0.55-0.55H50.88z"/>
				<path class="st2" d="M45.96,55.15h-0.55V54.6C45.69,54.6,45.96,54.82,45.96,55.15z"/>
				<path class="st2" d="M50.88,54.6v0.55h-0.55C50.34,54.82,50.56,54.6,50.88,54.6z"/>
				<path class="st2" d="M48.68,52.4c0,0.3-0.24,0.55-0.55,0.55s-0.55-0.24-0.55-0.55c0-0.3,0.24-0.55,0.55-0.55
					S48.68,52.1,48.68,52.4z"/>
			</g>
			<g class="st1">
				<rect x="39.94" y="5.91" class="st2" width="5.47" height="5.47"/>
				<path class="st2" d="M40.49,5.91c0,0.27-0.27,0.55-0.55,0.55V5.91H40.49z"/>
				<path class="st2" d="M45.41,5.91v0.55c-0.33,0-0.55-0.27-0.55-0.55H45.41z"/>
				<path class="st2" d="M40.49,11.38h-0.55v-0.55C40.22,10.83,40.49,11.05,40.49,11.38z"/>
				<path class="st2" d="M45.41,10.83v0.55h-0.55C44.87,11.05,45.08,10.83,45.41,10.83z"/>
				<path class="st2" d="M43.21,8.63c0,0.3-0.24,0.55-0.55,0.55s-0.55-0.24-0.55-0.55c0-0.3,0.24-0.55,0.55-0.55
					S43.21,8.33,43.21,8.63z"/>
			</g>
			<g class="st1">
				<rect x="39.94" y="11.38" class="st2" width="5.47" height="5.47"/>
				<path class="st2" d="M40.49,11.38c0,0.27-0.27,0.55-0.55,0.55v-0.55H40.49z"/>
				<path class="st2" d="M45.41,11.38v0.55c-0.33,0-0.55-0.27-0.55-0.55H45.41z"/>
				<path class="st2" d="M40.49,16.85h-0.55V16.3C40.22,16.3,40.49,16.52,40.49,16.85z"/>
				<path class="st2" d="M45.41,16.3v0.55h-0.55C44.87,16.52,45.08,16.3,45.41,16.3z"/>
				<path class="st2" d="M43.21,14.1c0,0.3-0.24,0.55-0.55,0.55s-0.55-0.24-0.55-0.55c0-0.3,0.24-0.55,0.55-0.55
					S43.21,13.8,43.21,14.1z"/>
			</g>
			<g class="st1">
				<rect x="39.94" y="16.85" class="st2" width="5.47" height="5.47"/>
				<path class="st2" d="M40.49,16.85c0,0.27-0.27,0.55-0.55,0.55v-0.55H40.49z"/>
				<path class="st2" d="M45.41,16.85v0.55c-0.33,0-0.55-0.27-0.55-0.55H45.41z"/>
				<path class="st2" d="M40.49,22.32h-0.55v-0.55C40.22,21.77,40.49,21.99,40.49,22.32z"/>
				<path class="st2" d="M45.41,21.77v0.55h-0.55C44.87,21.99,45.08,21.77,45.41,21.77z"/>
				<path class="st2" d="M43.21,19.57c0,0.3-0.24,0.55-0.55,0.55s-0.55-0.24-0.55-0.55s0.24-0.55,0.55-0.55S43.21,19.27,43.21,19.57
					z"/>
			</g>
			<g class="st1">
				<rect x="39.94" y="22.32" class="st2" width="5.47" height="5.47"/>
				<path class="st2" d="M40.49,22.32c0,0.27-0.27,0.55-0.55,0.55v-0.55H40.49z"/>
				<path class="st2" d="M45.41,22.32v0.55c-0.33,0-0.55-0.27-0.55-0.55H45.41z"/>
				<path class="st2" d="M40.49,27.79h-0.55v-0.55C40.22,27.25,40.49,27.46,40.49,27.79z"/>
				<path class="st2" d="M45.41,27.25v0.55h-0.55C44.87,27.46,45.08,27.25,45.41,27.25z"/>
				<path class="st2" d="M43.21,25.04c0,0.3-0.24,0.55-0.55,0.55s-0.55-0.24-0.55-0.55s0.24-0.55,0.55-0.55S43.21,24.74,43.21,25.04
					z"/>
			</g>
			<g class="st1">
				<rect x="39.94" y="27.79" class="st2" width="5.47" height="5.47"/>
				<path class="st2" d="M40.49,27.79c0,0.27-0.27,0.55-0.55,0.55v-0.55H40.49z"/>
				<path class="st2" d="M45.41,27.79v0.55c-0.33,0-0.55-0.27-0.55-0.55H45.41z"/>
				<path class="st2" d="M40.49,33.26h-0.55v-0.55C40.22,32.72,40.49,32.94,40.49,33.26z"/>
				<path class="st2" d="M45.41,32.72v0.55h-0.55C44.87,32.94,45.08,32.72,45.41,32.72z"/>
				<path class="st2" d="M43.21,30.51c0,0.3-0.24,0.55-0.55,0.55s-0.55-0.24-0.55-0.55c0-0.3,0.24-0.55,0.55-0.55
					S43.21,30.21,43.21,30.51z"/>
			</g>
			<g class="st1">
				<rect x="39.94" y="33.26" class="st2" width="5.47" height="5.47"/>
				<path class="st2" d="M40.49,33.26c0,0.27-0.27,0.55-0.55,0.55v-0.55H40.49z"/>
				<path class="st2" d="M45.41,33.26v0.55c-0.33,0-0.55-0.27-0.55-0.55H45.41z"/>
				<path class="st2" d="M40.49,38.74h-0.55v-0.55C40.22,38.19,40.49,38.41,40.49,38.74z"/>
				<path class="st2" d="M45.41,38.19v0.55h-0.55C44.87,38.41,45.08,38.19,45.41,38.19z"/>
				<path class="st2" d="M43.21,35.99c0,0.3-0.24,0.55-0.55,0.55s-0.55-0.24-0.55-0.55c0-0.3,0.24-0.55,0.55-0.55
					S43.21,35.68,43.21,35.99z"/>
			</g>
			<g class="st1">
				<rect x="39.94" y="38.74" class="st2" width="5.47" height="5.47"/>
				<path class="st2" d="M40.49,38.74c0,0.27-0.27,0.55-0.55,0.55v-0.55H40.49z"/>
				<path class="st2" d="M45.41,38.74v0.55c-0.33,0-0.55-0.27-0.55-0.55H45.41z"/>
				<path class="st2" d="M40.49,44.21h-0.55v-0.55C40.22,43.66,40.49,43.88,40.49,44.21z"/>
				<path class="st2" d="M45.41,43.66v0.55h-0.55C44.87,43.88,45.08,43.66,45.41,43.66z"/>
				<path class="st2" d="M43.21,41.46c0,0.3-0.24,0.55-0.55,0.55s-0.55-0.24-0.55-0.55s0.24-0.55,0.55-0.55S43.21,41.16,43.21,41.46
					z"/>
			</g>
			<g class="st1">
				<rect x="39.94" y="44.21" class="st2" width="5.47" height="5.47"/>
				<path class="st2" d="M40.49,44.21c0,0.27-0.27,0.55-0.55,0.55v-0.55H40.49z"/>
				<path class="st2" d="M45.41,44.21v0.55c-0.33,0-0.55-0.27-0.55-0.55H45.41z"/>
				<path class="st2" d="M40.49,49.68h-0.55v-0.55C40.22,49.13,40.49,49.35,40.49,49.68z"/>
				<path class="st2" d="M45.41,49.13v0.55h-0.55C44.87,49.35,45.08,49.13,45.41,49.13z"/>
				<path class="st2" d="M43.21,46.93c0,0.3-0.24,0.55-0.55,0.55s-0.55-0.24-0.55-0.55s0.24-0.55,0.55-0.55S43.21,46.63,43.21,46.93
					z"/>
			</g>
			<g class="st1">
				<rect x="39.94" y="49.68" class="st2" width="5.47" height="5.47"/>
				<path class="st2" d="M40.49,49.68c0,0.27-0.27,0.55-0.55,0.55v-0.55H40.49z"/>
				<path class="st2" d="M45.41,49.68v0.55c-0.33,0-0.55-0.27-0.55-0.55H45.41z"/>
				<path class="st2" d="M40.49,55.15h-0.55V54.6C40.22,54.6,40.49,54.82,40.49,55.15z"/>
				<path class="st2" d="M45.41,54.6v0.55h-0.55C44.87,54.82,45.08,54.6,45.41,54.6z"/>
				<path class="st2" d="M43.21,52.4c0,0.3-0.24,0.55-0.55,0.55s-0.55-0.24-0.55-0.55c0-0.3,0.24-0.55,0.55-0.55
					S43.21,52.1,43.21,52.4z"/>
			</g>
			<g class="st1">
				<rect x="34.47" y="5.91" class="st2" width="5.47" height="5.47"/>
				<path class="st2" d="M35.02,5.91c0,0.27-0.27,0.55-0.55,0.55V5.91H35.02z"/>
				<path class="st2" d="M39.94,5.91v0.55c-0.33,0-0.55-0.27-0.55-0.55H39.94z"/>
				<path class="st2" d="M35.02,11.38h-0.55v-0.55C34.74,10.83,35.02,11.05,35.02,11.38z"/>
				<path class="st2" d="M39.94,10.83v0.55h-0.55C39.39,11.05,39.61,10.83,39.94,10.83z"/>
				<circle class="st2" cx="37.19" cy="8.63" r="0.55"/>
			</g>
			<g class="st1">
				<rect x="34.47" y="11.38" class="st2" width="5.47" height="5.47"/>
				<path class="st2" d="M35.02,11.38c0,0.27-0.27,0.55-0.55,0.55v-0.55H35.02z"/>
				<path class="st2" d="M39.94,11.38v0.55c-0.33,0-0.55-0.27-0.55-0.55H39.94z"/>
				<path class="st2" d="M35.02,16.85h-0.55V16.3C34.74,16.3,35.02,16.52,35.02,16.85z"/>
				<path class="st2" d="M39.94,16.3v0.55h-0.55C39.39,16.52,39.61,16.3,39.94,16.3z"/>
				<path class="st2" d="M37.74,14.1c0,0.3-0.24,0.55-0.55,0.55s-0.55-0.24-0.55-0.55c0-0.3,0.24-0.55,0.55-0.55
					S37.74,13.8,37.74,14.1z"/>
			</g>
			<g class="st1">
				<rect x="34.47" y="16.85" class="st2" width="5.47" height="5.47"/>
				<path class="st2" d="M35.02,16.85c0,0.27-0.27,0.55-0.55,0.55v-0.55H35.02z"/>
				<path class="st2" d="M39.94,16.85v0.55c-0.33,0-0.55-0.27-0.55-0.55H39.94z"/>
				<path class="st2" d="M35.02,22.32h-0.55v-0.55C34.74,21.77,35.02,21.99,35.02,22.32z"/>
				<path class="st2" d="M39.94,21.77v0.55h-0.55C39.39,21.99,39.61,21.77,39.94,21.77z"/>
				<path class="st2" d="M37.74,19.57c0,0.3-0.24,0.55-0.55,0.55s-0.55-0.24-0.55-0.55s0.24-0.55,0.55-0.55S37.74,19.27,37.74,19.57
					z"/>
			</g>
			<g class="st1">
				<rect x="34.47" y="22.32" class="st2" width="5.47" height="5.47"/>
				<path class="st2" d="M35.02,22.32c0,0.27-0.27,0.55-0.55,0.55v-0.55H35.02z"/>
				<path class="st2" d="M39.94,22.32v0.55c-0.33,0-0.55-0.27-0.55-0.55H39.94z"/>
				<path class="st2" d="M35.02,27.79h-0.55v-0.55C34.74,27.25,35.02,27.46,35.02,27.79z"/>
				<path class="st2" d="M39.94,27.25v0.55h-0.55C39.39,27.46,39.61,27.25,39.94,27.25z"/>
				<path class="st2" d="M37.74,25.04c0,0.3-0.24,0.55-0.55,0.55s-0.55-0.24-0.55-0.55s0.24-0.55,0.55-0.55S37.74,24.74,37.74,25.04
					z"/>
			</g>
			<g class="st1">
				<rect x="34.47" y="27.79" class="st2" width="5.47" height="5.47"/>
				<path class="st2" d="M35.02,27.79c0,0.27-0.27,0.55-0.55,0.55v-0.55H35.02z"/>
				<path class="st2" d="M39.94,27.79v0.55c-0.33,0-0.55-0.27-0.55-0.55H39.94z"/>
				<path class="st2" d="M35.02,33.26h-0.55v-0.55C34.74,32.72,35.02,32.94,35.02,33.26z"/>
				<path class="st2" d="M39.94,32.72v0.55h-0.55C39.39,32.94,39.61,32.72,39.94,32.72z"/>
				<path class="st2" d="M37.74,30.51c0,0.3-0.24,0.55-0.55,0.55s-0.55-0.24-0.55-0.55c0-0.3,0.24-0.55,0.55-0.55
					S37.74,30.21,37.74,30.51z"/>
			</g>
			<g class="st1">
				<rect x="34.47" y="33.26" class="st2" width="5.47" height="5.47"/>
				<path class="st2" d="M35.02,33.26c0,0.27-0.27,0.55-0.55,0.55v-0.55H35.02z"/>
				<path class="st2" d="M39.94,33.26v0.55c-0.33,0-0.55-0.27-0.55-0.55H39.94z"/>
				<path class="st2" d="M35.02,38.74h-0.55v-0.55C34.74,38.19,35.02,38.41,35.02,38.74z"/>
				<path class="st2" d="M39.94,38.19v0.55h-0.55C39.39,38.41,39.61,38.19,39.94,38.19z"/>
				<path class="st2" d="M37.74,35.99c0,0.3-0.24,0.55-0.55,0.55s-0.55-0.24-0.55-0.55c0-0.3,0.24-0.55,0.55-0.55
					S37.74,35.68,37.74,35.99z"/>
			</g>
			<g class="st1">
				<rect x="34.47" y="38.74" class="st2" width="5.47" height="5.47"/>
				<path class="st2" d="M35.02,38.74c0,0.27-0.27,0.55-0.55,0.55v-0.55H35.02z"/>
				<path class="st2" d="M39.94,38.74v0.55c-0.33,0-0.55-0.27-0.55-0.55H39.94z"/>
				<path class="st2" d="M35.02,44.21h-0.55v-0.55C34.74,43.66,35.02,43.88,35.02,44.21z"/>
				<path class="st2" d="M39.94,43.66v0.55h-0.55C39.39,43.88,39.61,43.66,39.94,43.66z"/>
				<path class="st2" d="M37.74,41.46c0,0.3-0.24,0.55-0.55,0.55s-0.55-0.24-0.55-0.55s0.24-0.55,0.55-0.55S37.74,41.16,37.74,41.46
					z"/>
			</g>
			<g class="st1">
				<rect x="34.47" y="44.21" class="st2" width="5.47" height="5.47"/>
				<path class="st2" d="M35.02,44.21c0,0.27-0.27,0.55-0.55,0.55v-0.55H35.02z"/>
				<path class="st2" d="M39.94,44.21v0.55c-0.33,0-0.55-0.27-0.55-0.55H39.94z"/>
				<path class="st2" d="M35.02,49.68h-0.55v-0.55C34.74,49.13,35.02,49.35,35.02,49.68z"/>
				<path class="st2" d="M39.94,49.13v0.55h-0.55C39.39,49.35,39.61,49.13,39.94,49.13z"/>
				<circle class="st2" cx="37.19" cy="46.93" r="0.55"/>
			</g>
			<g class="st1">
				<rect x="34.47" y="49.68" class="st2" width="5.47" height="5.47"/>
				<path class="st2" d="M35.02,49.68c0,0.27-0.27,0.55-0.55,0.55v-0.55H35.02z"/>
				<path class="st2" d="M39.94,49.68v0.55c-0.33,0-0.55-0.27-0.55-0.55H39.94z"/>
				<path class="st2" d="M35.02,55.15h-0.55V54.6C34.74,54.6,35.02,54.82,35.02,55.15z"/>
				<path class="st2" d="M39.94,54.6v0.55h-0.55C39.39,54.82,39.61,54.6,39.94,54.6z"/>
				<path class="st2" d="M37.74,52.4c0,0.3-0.24,0.55-0.55,0.55s-0.55-0.24-0.55-0.55c0-0.3,0.24-0.55,0.55-0.55
					S37.74,52.1,37.74,52.4z"/>
			</g>
		</g>
		<path class="st3" d="M68.76,53.98H56.88v-6.17H37.53l0.09-11.43L53.33,5.62h13.66L51.5,35.94h5.39v-6.17h11.88v6.17h3.48v11.88
			h-3.48V53.98z M58.53,52.34h8.59v-6.17h3.48v-8.6h-3.48v-6.17h-8.59v6.17h-9.71L64.31,7.26h-9.97L39.17,36.95v9.22h19.36V52.34z"
			/>
	</g>
	<g>
		<g>
			<g>
				<path class="st0" d="M86.84,57.69v-9.71l16.93-18.37c1.77-1.97,2.36-3.15,2.36-4.92c0-2.76-1.57-4.4-4.2-4.4
					c-2.82,0-4.2,1.45-4.33,4.53H86.84c0.13-2.89,0.33-4.07,1.05-5.77c2.23-5.32,7.48-8.47,14.11-8.47
					c8.86,0,14.89,5.64,14.89,14.04c0,4.33-1.18,6.69-5.77,11.55L99.96,47.98h16.93v9.71H86.84z"/>
			</g>
		</g>
		<g>
			<defs>
				<path id="SVGID_3_" d="M82.51,53.36v-9.71l16.93-18.37c1.77-1.97,2.36-3.15,2.36-4.92c0-2.76-1.57-4.4-4.2-4.4
					c-2.82,0-4.2,1.45-4.33,4.53H82.51c0.13-2.89,0.33-4.07,1.05-5.77c2.23-5.32,7.48-8.47,14.11-8.47
					c8.86,0,14.89,5.64,14.89,14.04c0,4.33-1.18,6.69-5.77,11.55L95.63,43.65h16.93v9.71H82.51z"/>
			</defs>
			<clipPath id="SVGID_4_">
				<use xlink:href="#SVGID_3_"  style="overflow:visible;"/>
			</clipPath>
			<g class="st4">
				<rect x="107.36" y="3.1" class="st2" width="5.47" height="5.47"/>
				<path class="st2" d="M107.91,3.1c0,0.27-0.27,0.55-0.55,0.55V3.1H107.91z"/>
				<path class="st2" d="M112.83,3.1v0.55c-0.33,0-0.55-0.27-0.55-0.55H112.83z"/>
				<path class="st2" d="M107.91,8.57h-0.55V8.02C107.64,8.02,107.91,8.24,107.91,8.57z"/>
				<path class="st2" d="M112.83,8.02v0.55h-0.55C112.29,8.24,112.51,8.02,112.83,8.02z"/>
				<path class="st2" d="M110.63,5.82c0,0.3-0.24,0.55-0.55,0.55s-0.55-0.24-0.55-0.55c0-0.3,0.24-0.55,0.55-0.55
					S110.63,5.52,110.63,5.82z"/>
			</g>
			<g class="st4">
				<rect x="107.36" y="8.57" class="st2" width="5.47" height="5.47"/>
				<path class="st2" d="M107.91,8.57c0,0.27-0.27,0.55-0.55,0.55V8.57H107.91z"/>
				<path class="st2" d="M112.83,8.57v0.55c-0.33,0-0.55-0.27-0.55-0.55H112.83z"/>
				<path class="st2" d="M107.91,14.04h-0.55v-0.55C107.64,13.49,107.91,13.71,107.91,14.04z"/>
				<path class="st2" d="M112.83,13.49v0.55h-0.55C112.29,13.71,112.51,13.49,112.83,13.49z"/>
				<path class="st2" d="M110.63,11.29c0,0.3-0.24,0.55-0.55,0.55s-0.55-0.24-0.55-0.55s0.24-0.55,0.55-0.55
					S110.63,10.99,110.63,11.29z"/>
			</g>
			<g class="st4">
				<rect x="107.36" y="14.04" class="st2" width="5.47" height="5.47"/>
				<path class="st2" d="M107.91,14.04c0,0.27-0.27,0.55-0.55,0.55v-0.55H107.91z"/>
				<path class="st2" d="M112.83,14.04v0.55c-0.33,0-0.55-0.27-0.55-0.55H112.83z"/>
				<path class="st2" d="M107.91,19.51h-0.55v-0.55C107.64,18.96,107.91,19.18,107.91,19.51z"/>
				<path class="st2" d="M112.83,18.96v0.55h-0.55C112.29,19.18,112.51,18.96,112.83,18.96z"/>
				<path class="st2" d="M110.63,16.76c0,0.3-0.24,0.55-0.55,0.55s-0.55-0.24-0.55-0.55c0-0.3,0.24-0.55,0.55-0.55
					S110.63,16.46,110.63,16.76z"/>
			</g>
			<g class="st4">
				<rect x="107.36" y="19.51" class="st2" width="5.47" height="5.47"/>
				<path class="st2" d="M107.91,19.51c0,0.27-0.27,0.55-0.55,0.55v-0.55H107.91z"/>
				<path class="st2" d="M112.83,19.51v0.55c-0.33,0-0.55-0.27-0.55-0.55H112.83z"/>
				<path class="st2" d="M107.91,24.98h-0.55v-0.55C107.64,24.44,107.91,24.66,107.91,24.98z"/>
				<path class="st2" d="M112.83,24.44v0.55h-0.55C112.29,24.66,112.51,24.44,112.83,24.44z"/>
				<path class="st2" d="M110.63,22.23c0,0.3-0.24,0.55-0.55,0.55s-0.55-0.24-0.55-0.55s0.24-0.55,0.55-0.55
					S110.63,21.93,110.63,22.23z"/>
			</g>
			<g class="st4">
				<rect x="107.36" y="24.98" class="st2" width="5.47" height="5.47"/>
				<path class="st2" d="M107.91,24.98c0,0.27-0.27,0.55-0.55,0.55v-0.55H107.91z"/>
				<path class="st2" d="M112.83,24.98v0.55c-0.33,0-0.55-0.27-0.55-0.55H112.83z"/>
				<path class="st2" d="M107.91,30.45h-0.55v-0.55C107.64,29.91,107.91,30.13,107.91,30.45z"/>
				<path class="st2" d="M112.83,29.91v0.55h-0.55C112.29,30.13,112.51,29.91,112.83,29.91z"/>
				<path class="st2" d="M110.63,27.71c0,0.3-0.24,0.55-0.55,0.55s-0.55-0.24-0.55-0.55s0.24-0.55,0.55-0.55
					S110.63,27.4,110.63,27.71z"/>
			</g>
			<g class="st4">
				<rect x="107.36" y="30.45" class="st2" width="5.47" height="5.47"/>
				<path class="st2" d="M107.91,30.45c0,0.27-0.27,0.55-0.55,0.55v-0.55H107.91z"/>
				<path class="st2" d="M112.83,30.45V31c-0.33,0-0.55-0.27-0.55-0.55H112.83z"/>
				<path class="st2" d="M107.91,35.93h-0.55v-0.55C107.64,35.38,107.91,35.6,107.91,35.93z"/>
				<path class="st2" d="M112.83,35.38v0.55h-0.55C112.29,35.6,112.51,35.38,112.83,35.38z"/>
				<path class="st2" d="M110.63,33.18c0,0.3-0.24,0.55-0.55,0.55s-0.55-0.24-0.55-0.55s0.24-0.55,0.55-0.55
					S110.63,32.87,110.63,33.18z"/>
			</g>
			<g class="st4">
				<rect x="107.36" y="35.93" class="st2" width="5.47" height="5.47"/>
				<path class="st2" d="M107.91,35.93c0,0.27-0.27,0.55-0.55,0.55v-0.55H107.91z"/>
				<path class="st2" d="M112.83,35.93v0.55c-0.33,0-0.55-0.27-0.55-0.55H112.83z"/>
				<path class="st2" d="M107.91,41.4h-0.55v-0.55C107.64,40.85,107.91,41.07,107.91,41.4z"/>
				<path class="st2" d="M112.83,40.85v0.55h-0.55C112.29,41.07,112.51,40.85,112.83,40.85z"/>
				<path class="st2" d="M110.63,38.65c0,0.3-0.24,0.55-0.55,0.55s-0.55-0.24-0.55-0.55s0.24-0.55,0.55-0.55
					S110.63,38.35,110.63,38.65z"/>
			</g>
			<g class="st4">
				<rect x="107.36" y="41.4" class="st2" width="5.47" height="5.47"/>
				<path class="st2" d="M107.91,41.4c0,0.27-0.27,0.55-0.55,0.55V41.4H107.91z"/>
				<path class="st2" d="M112.83,41.4v0.55c-0.33,0-0.55-0.27-0.55-0.55H112.83z"/>
				<path class="st2" d="M107.91,46.87h-0.55v-0.55C107.64,46.32,107.91,46.54,107.91,46.87z"/>
				<path class="st2" d="M112.83,46.32v0.55h-0.55C112.29,46.54,112.51,46.32,112.83,46.32z"/>
				<path class="st2" d="M110.63,44.12c0,0.3-0.24,0.55-0.55,0.55s-0.55-0.24-0.55-0.55c0-0.3,0.24-0.55,0.55-0.55
					S110.63,43.82,110.63,44.12z"/>
			</g>
			<g class="st4">
				<rect x="107.36" y="46.87" class="st2" width="5.47" height="5.47"/>
				<path class="st2" d="M107.91,46.87c0,0.27-0.27,0.55-0.55,0.55v-0.55H107.91z"/>
				<path class="st2" d="M112.83,46.87v0.55c-0.33,0-0.55-0.27-0.55-0.55H112.83z"/>
				<path class="st2" d="M107.91,52.34h-0.55v-0.55C107.64,51.79,107.91,52.01,107.91,52.34z"/>
				<path class="st2" d="M112.83,51.79v0.55h-0.55C112.29,52.01,112.51,51.79,112.83,51.79z"/>
				<path class="st2" d="M110.63,49.59c0,0.3-0.24,0.55-0.55,0.55s-0.55-0.24-0.55-0.55s0.24-0.55,0.55-0.55
					S110.63,49.29,110.63,49.59z"/>
			</g>
			<g class="st4">
				<rect x="107.36" y="52.34" class="st2" width="5.47" height="5.47"/>
				<path class="st2" d="M107.91,52.34c0,0.27-0.27,0.55-0.55,0.55v-0.55H107.91z"/>
				<path class="st2" d="M112.83,52.34v0.55c-0.33,0-0.55-0.27-0.55-0.55H112.83z"/>
				<path class="st2" d="M107.91,57.81h-0.55v-0.55C107.64,57.26,107.91,57.48,107.91,57.81z"/>
				<path class="st2" d="M112.83,57.26v0.55h-0.55C112.29,57.48,112.51,57.26,112.83,57.26z"/>
				<path class="st2" d="M110.63,55.06c0,0.3-0.24,0.55-0.55,0.55s-0.55-0.24-0.55-0.55c0-0.3,0.24-0.55,0.55-0.55
					S110.63,54.76,110.63,55.06z"/>
			</g>
			<g class="st4">
				<rect x="101.89" y="3.1" class="st2" width="5.47" height="5.47"/>
				<path class="st2" d="M102.44,3.1c0,0.27-0.27,0.55-0.55,0.55V3.1H102.44z"/>
				<path class="st2" d="M107.36,3.1v0.55c-0.33,0-0.55-0.27-0.55-0.55H107.36z"/>
				<path class="st2" d="M102.44,8.57h-0.55V8.02C102.17,8.02,102.44,8.24,102.44,8.57z"/>
				<path class="st2" d="M107.36,8.02v0.55h-0.55C106.82,8.24,107.04,8.02,107.36,8.02z"/>
				<path class="st2" d="M105.16,5.82c0,0.3-0.24,0.55-0.55,0.55c-0.3,0-0.55-0.24-0.55-0.55c0-0.3,0.24-0.55,0.55-0.55
					C104.92,5.27,105.16,5.52,105.16,5.82z"/>
			</g>
			<g class="st4">
				<rect x="101.89" y="8.57" class="st2" width="5.47" height="5.47"/>
				<path class="st2" d="M102.44,8.57c0,0.27-0.27,0.55-0.55,0.55V8.57H102.44z"/>
				<path class="st2" d="M107.36,8.57v0.55c-0.33,0-0.55-0.27-0.55-0.55H107.36z"/>
				<path class="st2" d="M102.44,14.04h-0.55v-0.55C102.17,13.49,102.44,13.71,102.44,14.04z"/>
				<path class="st2" d="M107.36,13.49v0.55h-0.55C106.82,13.71,107.04,13.49,107.36,13.49z"/>
				<path class="st2" d="M105.16,11.29c0,0.3-0.24,0.55-0.55,0.55c-0.3,0-0.55-0.24-0.55-0.55s0.24-0.55,0.55-0.55
					C104.92,10.74,105.16,10.99,105.16,11.29z"/>
			</g>
			<g class="st4">
				<rect x="101.89" y="14.04" class="st2" width="5.47" height="5.47"/>
				<path class="st2" d="M102.44,14.04c0,0.27-0.27,0.55-0.55,0.55v-0.55H102.44z"/>
				<path class="st2" d="M107.36,14.04v0.55c-0.33,0-0.55-0.27-0.55-0.55H107.36z"/>
				<path class="st2" d="M102.44,19.51h-0.55v-0.55C102.17,18.96,102.44,19.18,102.44,19.51z"/>
				<path class="st2" d="M107.36,18.96v0.55h-0.55C106.82,19.18,107.04,18.96,107.36,18.96z"/>
				<path class="st2" d="M105.16,16.76c0,0.3-0.24,0.55-0.55,0.55c-0.3,0-0.55-0.24-0.55-0.55c0-0.3,0.24-0.55,0.55-0.55
					C104.92,16.22,105.16,16.46,105.16,16.76z"/>
			</g>
			<g class="st4">
				<rect x="101.89" y="19.51" class="st2" width="5.47" height="5.47"/>
				<path class="st2" d="M102.44,19.51c0,0.27-0.27,0.55-0.55,0.55v-0.55H102.44z"/>
				<path class="st2" d="M107.36,19.51v0.55c-0.33,0-0.55-0.27-0.55-0.55H107.36z"/>
				<path class="st2" d="M102.44,24.98h-0.55v-0.55C102.17,24.44,102.44,24.66,102.44,24.98z"/>
				<path class="st2" d="M107.36,24.44v0.55h-0.55C106.82,24.66,107.04,24.44,107.36,24.44z"/>
				<path class="st2" d="M105.16,22.23c0,0.3-0.24,0.55-0.55,0.55c-0.3,0-0.55-0.24-0.55-0.55s0.24-0.55,0.55-0.55
					C104.92,21.69,105.16,21.93,105.16,22.23z"/>
			</g>
			<g class="st4">
				<rect x="101.89" y="24.98" class="st2" width="5.47" height="5.47"/>
				<path class="st2" d="M102.44,24.98c0,0.27-0.27,0.55-0.55,0.55v-0.55H102.44z"/>
				<path class="st2" d="M107.36,24.98v0.55c-0.33,0-0.55-0.27-0.55-0.55H107.36z"/>
				<path class="st2" d="M102.44,30.45h-0.55v-0.55C102.17,29.91,102.44,30.13,102.44,30.45z"/>
				<path class="st2" d="M107.36,29.91v0.55h-0.55C106.82,30.13,107.04,29.91,107.36,29.91z"/>
				<path class="st2" d="M105.16,27.71c0,0.3-0.24,0.55-0.55,0.55c-0.3,0-0.55-0.24-0.55-0.55s0.24-0.55,0.55-0.55
					C104.92,27.16,105.16,27.4,105.16,27.71z"/>
			</g>
			<g class="st4">
				<rect x="101.89" y="30.45" class="st2" width="5.47" height="5.47"/>
				<path class="st2" d="M102.44,30.45c0,0.27-0.27,0.55-0.55,0.55v-0.55H102.44z"/>
				<path class="st2" d="M107.36,30.45V31c-0.33,0-0.55-0.27-0.55-0.55H107.36z"/>
				<path class="st2" d="M102.44,35.93h-0.55v-0.55C102.17,35.38,102.44,35.6,102.44,35.93z"/>
				<path class="st2" d="M107.36,35.38v0.55h-0.55C106.82,35.6,107.04,35.38,107.36,35.38z"/>
				<path class="st2" d="M105.16,33.18c0,0.3-0.24,0.55-0.55,0.55c-0.3,0-0.55-0.24-0.55-0.55s0.24-0.55,0.55-0.55
					C104.92,32.63,105.16,32.87,105.16,33.18z"/>
			</g>
			<g class="st4">
				<rect x="101.89" y="35.93" class="st2" width="5.47" height="5.47"/>
				<path class="st2" d="M102.44,35.93c0,0.27-0.27,0.55-0.55,0.55v-0.55H102.44z"/>
				<path class="st2" d="M107.36,35.93v0.55c-0.33,0-0.55-0.27-0.55-0.55H107.36z"/>
				<path class="st2" d="M102.44,41.4h-0.55v-0.55C102.17,40.85,102.44,41.07,102.44,41.4z"/>
				<path class="st2" d="M107.36,40.85v0.55h-0.55C106.82,41.07,107.04,40.85,107.36,40.85z"/>
				<path class="st2" d="M105.16,38.65c0,0.3-0.24,0.55-0.55,0.55c-0.3,0-0.55-0.24-0.55-0.55s0.24-0.55,0.55-0.55
					C104.92,38.1,105.16,38.35,105.16,38.65z"/>
			</g>
			<g class="st4">
				<rect x="101.89" y="41.4" class="st2" width="5.47" height="5.47"/>
				<path class="st2" d="M102.44,41.4c0,0.27-0.27,0.55-0.55,0.55V41.4H102.44z"/>
				<path class="st2" d="M107.36,41.4v0.55c-0.33,0-0.55-0.27-0.55-0.55H107.36z"/>
				<path class="st2" d="M102.44,46.87h-0.55v-0.55C102.17,46.32,102.44,46.54,102.44,46.87z"/>
				<path class="st2" d="M107.36,46.32v0.55h-0.55C106.82,46.54,107.04,46.32,107.36,46.32z"/>
				<path class="st2" d="M105.16,44.12c0,0.3-0.24,0.55-0.55,0.55c-0.3,0-0.55-0.24-0.55-0.55c0-0.3,0.24-0.55,0.55-0.55
					C104.92,43.57,105.16,43.82,105.16,44.12z"/>
			</g>
			<g class="st4">
				<rect x="101.89" y="46.87" class="st2" width="5.47" height="5.47"/>
				<path class="st2" d="M102.44,46.87c0,0.27-0.27,0.55-0.55,0.55v-0.55H102.44z"/>
				<path class="st2" d="M107.36,46.87v0.55c-0.33,0-0.55-0.27-0.55-0.55H107.36z"/>
				<path class="st2" d="M102.44,52.34h-0.55v-0.55C102.17,51.79,102.44,52.01,102.44,52.34z"/>
				<path class="st2" d="M107.36,51.79v0.55h-0.55C106.82,52.01,107.04,51.79,107.36,51.79z"/>
				<path class="st2" d="M105.16,49.59c0,0.3-0.24,0.55-0.55,0.55c-0.3,0-0.55-0.24-0.55-0.55s0.24-0.55,0.55-0.55
					C104.92,49.04,105.16,49.29,105.16,49.59z"/>
			</g>
			<g class="st4">
				<rect x="101.89" y="52.34" class="st2" width="5.47" height="5.47"/>
				<path class="st2" d="M102.44,52.34c0,0.27-0.27,0.55-0.55,0.55v-0.55H102.44z"/>
				<path class="st2" d="M107.36,52.34v0.55c-0.33,0-0.55-0.27-0.55-0.55H107.36z"/>
				<path class="st2" d="M102.44,57.81h-0.55v-0.55C102.17,57.26,102.44,57.48,102.44,57.81z"/>
				<path class="st2" d="M107.36,57.26v0.55h-0.55C106.82,57.48,107.04,57.26,107.36,57.26z"/>
				<path class="st2" d="M105.16,55.06c0,0.3-0.24,0.55-0.55,0.55c-0.3,0-0.55-0.24-0.55-0.55c0-0.3,0.24-0.55,0.55-0.55
					C104.92,54.51,105.16,54.76,105.16,55.06z"/>
			</g>
			<g class="st4">
				<rect x="96.42" y="3.1" class="st2" width="5.47" height="5.47"/>
				<path class="st2" d="M96.97,3.1c0,0.27-0.27,0.55-0.55,0.55V3.1H96.97z"/>
				<path class="st2" d="M101.89,3.1v0.55c-0.33,0-0.55-0.27-0.55-0.55H101.89z"/>
				<path class="st2" d="M96.97,8.57h-0.55V8.02C96.69,8.02,96.97,8.24,96.97,8.57z"/>
				<path class="st2" d="M101.89,8.02v0.55h-0.55C101.35,8.24,101.56,8.02,101.89,8.02z"/>
				<path class="st2" d="M99.69,5.82c0,0.3-0.24,0.55-0.55,0.55c-0.3,0-0.55-0.24-0.55-0.55c0-0.3,0.24-0.55,0.55-0.55
					C99.45,5.27,99.69,5.52,99.69,5.82z"/>
			</g>
			<g class="st4">
				<rect x="96.42" y="8.57" class="st2" width="5.47" height="5.47"/>
				<path class="st2" d="M96.97,8.57c0,0.27-0.27,0.55-0.55,0.55V8.57H96.97z"/>
				<path class="st2" d="M101.89,8.57v0.55c-0.33,0-0.55-0.27-0.55-0.55H101.89z"/>
				<path class="st2" d="M96.97,14.04h-0.55v-0.55C96.69,13.49,96.97,13.71,96.97,14.04z"/>
				<path class="st2" d="M101.89,13.49v0.55h-0.55C101.35,13.71,101.56,13.49,101.89,13.49z"/>
				<circle class="st2" cx="99.15" cy="11.29" r="0.55"/>
			</g>
			<g class="st4">
				<rect x="96.42" y="14.04" class="st2" width="5.47" height="5.47"/>
				<path class="st2" d="M96.97,14.04c0,0.27-0.27,0.55-0.55,0.55v-0.55H96.97z"/>
				<path class="st2" d="M101.89,14.04v0.55c-0.33,0-0.55-0.27-0.55-0.55H101.89z"/>
				<path class="st2" d="M96.97,19.51h-0.55v-0.55C96.69,18.96,96.97,19.18,96.97,19.51z"/>
				<path class="st2" d="M101.89,18.96v0.55h-0.55C101.35,19.18,101.56,18.96,101.89,18.96z"/>
				<path class="st2" d="M99.69,16.76c0,0.3-0.24,0.55-0.55,0.55c-0.3,0-0.55-0.24-0.55-0.55c0-0.3,0.24-0.55,0.55-0.55
					C99.45,16.22,99.69,16.46,99.69,16.76z"/>
			</g>
			<g class="st4">
				<rect x="96.42" y="19.51" class="st2" width="5.47" height="5.47"/>
				<path class="st2" d="M96.97,19.51c0,0.27-0.27,0.55-0.55,0.55v-0.55H96.97z"/>
				<path class="st2" d="M101.89,19.51v0.55c-0.33,0-0.55-0.27-0.55-0.55H101.89z"/>
				<path class="st2" d="M96.97,24.98h-0.55v-0.55C96.69,24.44,96.97,24.66,96.97,24.98z"/>
				<path class="st2" d="M101.89,24.44v0.55h-0.55C101.35,24.66,101.56,24.44,101.89,24.44z"/>
				<path class="st2" d="M99.69,22.23c0,0.3-0.24,0.55-0.55,0.55c-0.3,0-0.55-0.24-0.55-0.55s0.24-0.55,0.55-0.55
					C99.45,21.69,99.69,21.93,99.69,22.23z"/>
			</g>
			<g class="st4">
				<rect x="96.42" y="24.98" class="st2" width="5.47" height="5.47"/>
				<path class="st2" d="M96.97,24.98c0,0.27-0.27,0.55-0.55,0.55v-0.55H96.97z"/>
				<path class="st2" d="M101.89,24.98v0.55c-0.33,0-0.55-0.27-0.55-0.55H101.89z"/>
				<path class="st2" d="M96.97,30.45h-0.55v-0.55C96.69,29.91,96.97,30.13,96.97,30.45z"/>
				<path class="st2" d="M101.89,29.91v0.55h-0.55C101.35,30.13,101.56,29.91,101.89,29.91z"/>
				<path class="st2" d="M99.69,27.71c0,0.3-0.24,0.55-0.55,0.55c-0.3,0-0.55-0.24-0.55-0.55s0.24-0.55,0.55-0.55
					C99.45,27.16,99.69,27.4,99.69,27.71z"/>
			</g>
			<g class="st4">
				<rect x="96.42" y="30.45" class="st2" width="5.47" height="5.47"/>
				<path class="st2" d="M96.97,30.45c0,0.27-0.27,0.55-0.55,0.55v-0.55H96.97z"/>
				<path class="st2" d="M101.89,30.45V31c-0.33,0-0.55-0.27-0.55-0.55H101.89z"/>
				<path class="st2" d="M96.97,35.93h-0.55v-0.55C96.69,35.38,96.97,35.6,96.97,35.93z"/>
				<path class="st2" d="M101.89,35.38v0.55h-0.55C101.35,35.6,101.56,35.38,101.89,35.38z"/>
				<path class="st2" d="M99.69,33.18c0,0.3-0.24,0.55-0.55,0.55c-0.3,0-0.55-0.24-0.55-0.55s0.24-0.55,0.55-0.55
					C99.45,32.63,99.69,32.87,99.69,33.18z"/>
			</g>
			<g class="st4">
				<rect x="96.42" y="35.93" class="st2" width="5.47" height="5.47"/>
				<path class="st2" d="M96.97,35.93c0,0.27-0.27,0.55-0.55,0.55v-0.55H96.97z"/>
				<path class="st2" d="M101.89,35.93v0.55c-0.33,0-0.55-0.27-0.55-0.55H101.89z"/>
				<path class="st2" d="M96.97,41.4h-0.55v-0.55C96.69,40.85,96.97,41.07,96.97,41.4z"/>
				<path class="st2" d="M101.89,40.85v0.55h-0.55C101.35,41.07,101.56,40.85,101.89,40.85z"/>
				<circle class="st2" cx="99.15" cy="38.65" r="0.55"/>
			</g>
			<g class="st4">
				<rect x="96.42" y="41.4" class="st2" width="5.47" height="5.47"/>
				<path class="st2" d="M96.97,41.4c0,0.27-0.27,0.55-0.55,0.55V41.4H96.97z"/>
				<path class="st2" d="M101.89,41.4v0.55c-0.33,0-0.55-0.27-0.55-0.55H101.89z"/>
				<path class="st2" d="M96.97,46.87h-0.55v-0.55C96.69,46.32,96.97,46.54,96.97,46.87z"/>
				<path class="st2" d="M101.89,46.32v0.55h-0.55C101.35,46.54,101.56,46.32,101.89,46.32z"/>
				<path class="st2" d="M99.69,44.12c0,0.3-0.24,0.55-0.55,0.55c-0.3,0-0.55-0.24-0.55-0.55c0-0.3,0.24-0.55,0.55-0.55
					C99.45,43.57,99.69,43.82,99.69,44.12z"/>
			</g>
			<g class="st4">
				<rect x="96.42" y="46.87" class="st2" width="5.47" height="5.47"/>
				<path class="st2" d="M96.97,46.87c0,0.27-0.27,0.55-0.55,0.55v-0.55H96.97z"/>
				<path class="st2" d="M101.89,46.87v0.55c-0.33,0-0.55-0.27-0.55-0.55H101.89z"/>
				<path class="st2" d="M96.97,52.34h-0.55v-0.55C96.69,51.79,96.97,52.01,96.97,52.34z"/>
				<path class="st2" d="M101.89,51.79v0.55h-0.55C101.35,52.01,101.56,51.79,101.89,51.79z"/>
				<circle class="st2" cx="99.15" cy="49.59" r="0.55"/>
			</g>
			<g class="st4">
				<rect x="96.42" y="52.34" class="st2" width="5.47" height="5.47"/>
				<path class="st2" d="M96.97,52.34c0,0.27-0.27,0.55-0.55,0.55v-0.55H96.97z"/>
				<path class="st2" d="M101.89,52.34v0.55c-0.33,0-0.55-0.27-0.55-0.55H101.89z"/>
				<path class="st2" d="M96.97,57.81h-0.55v-0.55C96.69,57.26,96.97,57.48,96.97,57.81z"/>
				<path class="st2" d="M101.89,57.26v0.55h-0.55C101.35,57.48,101.56,57.26,101.89,57.26z"/>
				<path class="st2" d="M99.69,55.06c0,0.3-0.24,0.55-0.55,0.55c-0.3,0-0.55-0.24-0.55-0.55c0-0.3,0.24-0.55,0.55-0.55
					C99.45,54.51,99.69,54.76,99.69,55.06z"/>
			</g>
			<g class="st4">
				<rect x="90.95" y="3.1" class="st2" width="5.47" height="5.47"/>
				<path class="st2" d="M91.5,3.1c0,0.27-0.27,0.55-0.55,0.55V3.1H91.5z"/>
				<path class="st2" d="M96.42,3.1v0.55c-0.33,0-0.55-0.27-0.55-0.55H96.42z"/>
				<path class="st2" d="M91.5,8.57h-0.55V8.02C91.22,8.02,91.5,8.24,91.5,8.57z"/>
				<path class="st2" d="M96.42,8.02v0.55h-0.55C95.87,8.24,96.09,8.02,96.42,8.02z"/>
				<path class="st2" d="M94.22,5.82c0,0.3-0.24,0.55-0.55,0.55c-0.3,0-0.55-0.24-0.55-0.55c0-0.3,0.24-0.55,0.55-0.55
					C93.98,5.27,94.22,5.52,94.22,5.82z"/>
			</g>
			<g class="st4">
				<rect x="90.95" y="8.57" class="st2" width="5.47" height="5.47"/>
				<path class="st2" d="M91.5,8.57c0,0.27-0.27,0.55-0.55,0.55V8.57H91.5z"/>
				<path class="st2" d="M96.42,8.57v0.55c-0.33,0-0.55-0.27-0.55-0.55H96.42z"/>
				<path class="st2" d="M91.5,14.04h-0.55v-0.55C91.22,13.49,91.5,13.71,91.5,14.04z"/>
				<path class="st2" d="M96.42,13.49v0.55h-0.55C95.87,13.71,96.09,13.49,96.42,13.49z"/>
				<path class="st2" d="M94.22,11.29c0,0.3-0.24,0.55-0.55,0.55c-0.3,0-0.55-0.24-0.55-0.55s0.24-0.55,0.55-0.55
					C93.98,10.74,94.22,10.99,94.22,11.29z"/>
			</g>
			<g class="st4">
				<rect x="90.95" y="14.04" class="st2" width="5.47" height="5.47"/>
				<path class="st2" d="M91.5,14.04c0,0.27-0.27,0.55-0.55,0.55v-0.55H91.5z"/>
				<path class="st2" d="M96.42,14.04v0.55c-0.33,0-0.55-0.27-0.55-0.55H96.42z"/>
				<path class="st2" d="M91.5,19.51h-0.55v-0.55C91.22,18.96,91.5,19.18,91.5,19.51z"/>
				<path class="st2" d="M96.42,18.96v0.55h-0.55C95.87,19.18,96.09,18.96,96.42,18.96z"/>
				<path class="st2" d="M94.22,16.76c0,0.3-0.24,0.55-0.55,0.55c-0.3,0-0.55-0.24-0.55-0.55c0-0.3,0.24-0.55,0.55-0.55
					C93.98,16.22,94.22,16.46,94.22,16.76z"/>
			</g>
			<g class="st4">
				<rect x="90.95" y="19.51" class="st2" width="5.47" height="5.47"/>
				<path class="st2" d="M91.5,19.51c0,0.27-0.27,0.55-0.55,0.55v-0.55H91.5z"/>
				<path class="st2" d="M96.42,19.51v0.55c-0.33,0-0.55-0.27-0.55-0.55H96.42z"/>
				<path class="st2" d="M91.5,24.98h-0.55v-0.55C91.22,24.44,91.5,24.66,91.5,24.98z"/>
				<path class="st2" d="M96.42,24.44v0.55h-0.55C95.87,24.66,96.09,24.44,96.42,24.44z"/>
				<path class="st2" d="M94.22,22.23c0,0.3-0.24,0.55-0.55,0.55c-0.3,0-0.55-0.24-0.55-0.55s0.24-0.55,0.55-0.55
					C93.98,21.69,94.22,21.93,94.22,22.23z"/>
			</g>
			<g class="st4">
				<rect x="90.95" y="24.98" class="st2" width="5.47" height="5.47"/>
				<path class="st2" d="M91.5,24.98c0,0.27-0.27,0.55-0.55,0.55v-0.55H91.5z"/>
				<path class="st2" d="M96.42,24.98v0.55c-0.33,0-0.55-0.27-0.55-0.55H96.42z"/>
				<path class="st2" d="M91.5,30.45h-0.55v-0.55C91.22,29.91,91.5,30.13,91.5,30.45z"/>
				<path class="st2" d="M96.42,29.91v0.55h-0.55C95.87,30.13,96.09,29.91,96.42,29.91z"/>
				<path class="st2" d="M94.22,27.71c0,0.3-0.24,0.55-0.55,0.55c-0.3,0-0.55-0.24-0.55-0.55s0.24-0.55,0.55-0.55
					C93.98,27.16,94.22,27.4,94.22,27.71z"/>
			</g>
			<g class="st4">
				<rect x="90.95" y="30.45" class="st2" width="5.47" height="5.47"/>
				<path class="st2" d="M91.5,30.45c0,0.27-0.27,0.55-0.55,0.55v-0.55H91.5z"/>
				<path class="st2" d="M96.42,30.45V31c-0.33,0-0.55-0.27-0.55-0.55H96.42z"/>
				<path class="st2" d="M91.5,35.93h-0.55v-0.55C91.22,35.38,91.5,35.6,91.5,35.93z"/>
				<path class="st2" d="M96.42,35.38v0.55h-0.55C95.87,35.6,96.09,35.38,96.42,35.38z"/>
				<path class="st2" d="M94.22,33.18c0,0.3-0.24,0.55-0.55,0.55c-0.3,0-0.55-0.24-0.55-0.55s0.24-0.55,0.55-0.55
					C93.98,32.63,94.22,32.87,94.22,33.18z"/>
			</g>
			<g class="st4">
				<rect x="90.95" y="35.93" class="st2" width="5.47" height="5.47"/>
				<path class="st2" d="M91.5,35.93c0,0.27-0.27,0.55-0.55,0.55v-0.55H91.5z"/>
				<path class="st2" d="M96.42,35.93v0.55c-0.33,0-0.55-0.27-0.55-0.55H96.42z"/>
				<path class="st2" d="M91.5,41.4h-0.55v-0.55C91.22,40.85,91.5,41.07,91.5,41.4z"/>
				<path class="st2" d="M96.42,40.85v0.55h-0.55C95.87,41.07,96.09,40.85,96.42,40.85z"/>
				<path class="st2" d="M94.22,38.65c0,0.3-0.24,0.55-0.55,0.55c-0.3,0-0.55-0.24-0.55-0.55s0.24-0.55,0.55-0.55
					C93.98,38.1,94.22,38.35,94.22,38.65z"/>
			</g>
			<g class="st4">
				<rect x="90.95" y="41.4" class="st2" width="5.47" height="5.47"/>
				<path class="st2" d="M91.5,41.4c0,0.27-0.27,0.55-0.55,0.55V41.4H91.5z"/>
				<path class="st2" d="M96.42,41.4v0.55c-0.33,0-0.55-0.27-0.55-0.55H96.42z"/>
				<path class="st2" d="M91.5,46.87h-0.55v-0.55C91.22,46.32,91.5,46.54,91.5,46.87z"/>
				<path class="st2" d="M96.42,46.32v0.55h-0.55C95.87,46.54,96.09,46.32,96.42,46.32z"/>
				<path class="st2" d="M94.22,44.12c0,0.3-0.24,0.55-0.55,0.55c-0.3,0-0.55-0.24-0.55-0.55c0-0.3,0.24-0.55,0.55-0.55
					C93.98,43.57,94.22,43.82,94.22,44.12z"/>
			</g>
			<g class="st4">
				<rect x="90.95" y="46.87" class="st2" width="5.47" height="5.47"/>
				<path class="st2" d="M91.5,46.87c0,0.27-0.27,0.55-0.55,0.55v-0.55H91.5z"/>
				<path class="st2" d="M96.42,46.87v0.55c-0.33,0-0.55-0.27-0.55-0.55H96.42z"/>
				<path class="st2" d="M91.5,52.34h-0.55v-0.55C91.22,51.79,91.5,52.01,91.5,52.34z"/>
				<path class="st2" d="M96.42,51.79v0.55h-0.55C95.87,52.01,96.09,51.79,96.42,51.79z"/>
				<path class="st2" d="M94.22,49.59c0,0.3-0.24,0.55-0.55,0.55c-0.3,0-0.55-0.24-0.55-0.55s0.24-0.55,0.55-0.55
					C93.98,49.04,94.22,49.29,94.22,49.59z"/>
			</g>
			<g class="st4">
				<rect x="90.95" y="52.34" class="st2" width="5.47" height="5.47"/>
				<path class="st2" d="M91.5,52.34c0,0.27-0.27,0.55-0.55,0.55v-0.55H91.5z"/>
				<path class="st2" d="M96.42,52.34v0.55c-0.33,0-0.55-0.27-0.55-0.55H96.42z"/>
				<path class="st2" d="M91.5,57.81h-0.55v-0.55C91.22,57.26,91.5,57.48,91.5,57.81z"/>
				<path class="st2" d="M96.42,57.26v0.55h-0.55C95.87,57.48,96.09,57.26,96.42,57.26z"/>
				<path class="st2" d="M94.22,55.06c0,0.3-0.24,0.55-0.55,0.55c-0.3,0-0.55-0.24-0.55-0.55c0-0.3,0.24-0.55,0.55-0.55
					C93.98,54.51,94.22,54.76,94.22,55.06z"/>
			</g>
			<g class="st4">
				<rect x="85.48" y="3.1" class="st2" width="5.47" height="5.47"/>
				<path class="st2" d="M86.03,3.1c0,0.27-0.27,0.55-0.55,0.55V3.1H86.03z"/>
				<path class="st2" d="M90.95,3.1v0.55c-0.33,0-0.55-0.27-0.55-0.55H90.95z"/>
				<path class="st2" d="M86.03,8.57h-0.55V8.02C85.75,8.02,86.03,8.24,86.03,8.57z"/>
				<path class="st2" d="M90.95,8.02v0.55H90.4C90.4,8.24,90.62,8.02,90.95,8.02z"/>
				<path class="st2" d="M88.75,5.82c0,0.3-0.24,0.55-0.55,0.55c-0.3,0-0.55-0.24-0.55-0.55c0-0.3,0.24-0.55,0.55-0.55
					C88.5,5.27,88.75,5.52,88.75,5.82z"/>
			</g>
			<g class="st4">
				<rect x="85.48" y="8.57" class="st2" width="5.47" height="5.47"/>
				<path class="st2" d="M86.03,8.57c0,0.27-0.27,0.55-0.55,0.55V8.57H86.03z"/>
				<path class="st2" d="M90.95,8.57v0.55c-0.33,0-0.55-0.27-0.55-0.55H90.95z"/>
				<path class="st2" d="M86.03,14.04h-0.55v-0.55C85.75,13.49,86.03,13.71,86.03,14.04z"/>
				<path class="st2" d="M90.95,13.49v0.55H90.4C90.4,13.71,90.62,13.49,90.95,13.49z"/>
				<circle class="st2" cx="88.2" cy="11.29" r="0.55"/>
			</g>
			<g class="st4">
				<rect x="85.48" y="14.04" class="st2" width="5.47" height="5.47"/>
				<path class="st2" d="M86.03,14.04c0,0.27-0.27,0.55-0.55,0.55v-0.55H86.03z"/>
				<path class="st2" d="M90.95,14.04v0.55c-0.33,0-0.55-0.27-0.55-0.55H90.95z"/>
				<path class="st2" d="M86.03,19.51h-0.55v-0.55C85.75,18.96,86.03,19.18,86.03,19.51z"/>
				<path class="st2" d="M90.95,18.96v0.55H90.4C90.4,19.18,90.62,18.96,90.95,18.96z"/>
				<path class="st2" d="M88.75,16.76c0,0.3-0.24,0.55-0.55,0.55c-0.3,0-0.55-0.24-0.55-0.55c0-0.3,0.24-0.55,0.55-0.55
					C88.5,16.22,88.75,16.46,88.75,16.76z"/>
			</g>
			<g class="st4">
				<rect x="85.48" y="19.51" class="st2" width="5.47" height="5.47"/>
				<path class="st2" d="M86.03,19.51c0,0.27-0.27,0.55-0.55,0.55v-0.55H86.03z"/>
				<path class="st2" d="M90.95,19.51v0.55c-0.33,0-0.55-0.27-0.55-0.55H90.95z"/>
				<path class="st2" d="M86.03,24.98h-0.55v-0.55C85.75,24.44,86.03,24.66,86.03,24.98z"/>
				<path class="st2" d="M90.95,24.44v0.55H90.4C90.4,24.66,90.62,24.44,90.95,24.44z"/>
				<path class="st2" d="M88.75,22.23c0,0.3-0.24,0.55-0.55,0.55c-0.3,0-0.55-0.24-0.55-0.55s0.24-0.55,0.55-0.55
					C88.5,21.69,88.75,21.93,88.75,22.23z"/>
			</g>
			<g class="st4">
				<rect x="85.48" y="24.98" class="st2" width="5.47" height="5.47"/>
				<path class="st2" d="M86.03,24.98c0,0.27-0.27,0.55-0.55,0.55v-0.55H86.03z"/>
				<path class="st2" d="M90.95,24.98v0.55c-0.33,0-0.55-0.27-0.55-0.55H90.95z"/>
				<path class="st2" d="M86.03,30.45h-0.55v-0.55C85.75,29.91,86.03,30.13,86.03,30.45z"/>
				<path class="st2" d="M90.95,29.91v0.55H90.4C90.4,30.13,90.62,29.91,90.95,29.91z"/>
				<path class="st2" d="M88.75,27.71c0,0.3-0.24,0.55-0.55,0.55c-0.3,0-0.55-0.24-0.55-0.55s0.24-0.55,0.55-0.55
					C88.5,27.16,88.75,27.4,88.75,27.71z"/>
			</g>
			<g class="st4">
				<rect x="85.48" y="30.45" class="st2" width="5.47" height="5.47"/>
				<path class="st2" d="M86.03,30.45c0,0.27-0.27,0.55-0.55,0.55v-0.55H86.03z"/>
				<path class="st2" d="M90.95,30.45V31c-0.33,0-0.55-0.27-0.55-0.55H90.95z"/>
				<path class="st2" d="M86.03,35.93h-0.55v-0.55C85.75,35.38,86.03,35.6,86.03,35.93z"/>
				<path class="st2" d="M90.95,35.38v0.55H90.4C90.4,35.6,90.62,35.38,90.95,35.38z"/>
				<path class="st2" d="M88.75,33.18c0,0.3-0.24,0.55-0.55,0.55c-0.3,0-0.55-0.24-0.55-0.55s0.24-0.55,0.55-0.55
					C88.5,32.63,88.75,32.87,88.75,33.18z"/>
			</g>
			<g class="st4">
				<rect x="85.48" y="35.93" class="st2" width="5.47" height="5.47"/>
				<path class="st2" d="M86.03,35.93c0,0.27-0.27,0.55-0.55,0.55v-0.55H86.03z"/>
				<path class="st2" d="M90.95,35.93v0.55c-0.33,0-0.55-0.27-0.55-0.55H90.95z"/>
				<path class="st2" d="M86.03,41.4h-0.55v-0.55C85.75,40.85,86.03,41.07,86.03,41.4z"/>
				<path class="st2" d="M90.95,40.85v0.55H90.4C90.4,41.07,90.62,40.85,90.95,40.85z"/>
				<circle class="st2" cx="88.2" cy="38.65" r="0.55"/>
			</g>
			<g class="st4">
				<rect x="85.48" y="41.4" class="st2" width="5.47" height="5.47"/>
				<path class="st2" d="M86.03,41.4c0,0.27-0.27,0.55-0.55,0.55V41.4H86.03z"/>
				<path class="st2" d="M90.95,41.4v0.55c-0.33,0-0.55-0.27-0.55-0.55H90.95z"/>
				<path class="st2" d="M86.03,46.87h-0.55v-0.55C85.75,46.32,86.03,46.54,86.03,46.87z"/>
				<path class="st2" d="M90.95,46.32v0.55H90.4C90.4,46.54,90.62,46.32,90.95,46.32z"/>
				<path class="st2" d="M88.75,44.12c0,0.3-0.24,0.55-0.55,0.55c-0.3,0-0.55-0.24-0.55-0.55c0-0.3,0.24-0.55,0.55-0.55
					C88.5,43.57,88.75,43.82,88.75,44.12z"/>
			</g>
			<g class="st4">
				<rect x="85.48" y="46.87" class="st2" width="5.47" height="5.47"/>
				<path class="st2" d="M86.03,46.87c0,0.27-0.27,0.55-0.55,0.55v-0.55H86.03z"/>
				<path class="st2" d="M90.95,46.87v0.55c-0.33,0-0.55-0.27-0.55-0.55H90.95z"/>
				<path class="st2" d="M86.03,52.34h-0.55v-0.55C85.75,51.79,86.03,52.01,86.03,52.34z"/>
				<path class="st2" d="M90.95,51.79v0.55H90.4C90.4,52.01,90.62,51.79,90.95,51.79z"/>
				<circle class="st2" cx="88.2" cy="49.59" r="0.55"/>
			</g>
			<g class="st4">
				<rect x="85.48" y="52.34" class="st2" width="5.47" height="5.47"/>
				<path class="st2" d="M86.03,52.34c0,0.27-0.27,0.55-0.55,0.55v-0.55H86.03z"/>
				<path class="st2" d="M90.95,52.34v0.55c-0.33,0-0.55-0.27-0.55-0.55H90.95z"/>
				<path class="st2" d="M86.03,57.81h-0.55v-0.55C85.75,57.26,86.03,57.48,86.03,57.81z"/>
				<path class="st2" d="M90.95,57.26v0.55H90.4C90.4,57.48,90.62,57.26,90.95,57.26z"/>
				<path class="st2" d="M88.75,55.06c0,0.3-0.24,0.55-0.55,0.55c-0.3,0-0.55-0.24-0.55-0.55c0-0.3,0.24-0.55,0.55-0.55
					C88.5,54.51,88.75,54.76,88.75,55.06z"/>
			</g>
			<g class="st4">
				<rect x="80.01" y="3.1" class="st2" width="5.47" height="5.47"/>
				<path class="st2" d="M80.55,3.1c0,0.27-0.27,0.55-0.55,0.55V3.1H80.55z"/>
				<path class="st2" d="M85.48,3.1v0.55c-0.33,0-0.55-0.27-0.55-0.55H85.48z"/>
				<path class="st2" d="M80.55,8.57h-0.55V8.02C80.28,8.02,80.55,8.24,80.55,8.57z"/>
				<path class="st2" d="M85.48,8.02v0.55h-0.55C84.93,8.24,85.15,8.02,85.48,8.02z"/>
				<path class="st2" d="M83.28,5.82c0,0.3-0.24,0.55-0.55,0.55c-0.3,0-0.55-0.24-0.55-0.55c0-0.3,0.24-0.55,0.55-0.55
					C83.03,5.27,83.28,5.52,83.28,5.82z"/>
			</g>
			<g class="st4">
				<rect x="80.01" y="8.57" class="st2" width="5.47" height="5.47"/>
				<path class="st2" d="M80.55,8.57c0,0.27-0.27,0.55-0.55,0.55V8.57H80.55z"/>
				<path class="st2" d="M85.48,8.57v0.55c-0.33,0-0.55-0.27-0.55-0.55H85.48z"/>
				<path class="st2" d="M80.55,14.04h-0.55v-0.55C80.28,13.49,80.55,13.71,80.55,14.04z"/>
				<path class="st2" d="M85.48,13.49v0.55h-0.55C84.93,13.71,85.15,13.49,85.48,13.49z"/>
				<path class="st2" d="M83.28,11.29c0,0.3-0.24,0.55-0.55,0.55c-0.3,0-0.55-0.24-0.55-0.55s0.24-0.55,0.55-0.55
					C83.03,10.74,83.28,10.99,83.28,11.29z"/>
			</g>
			<g class="st4">
				<rect x="80.01" y="14.04" class="st2" width="5.47" height="5.47"/>
				<path class="st2" d="M80.55,14.04c0,0.27-0.27,0.55-0.55,0.55v-0.55H80.55z"/>
				<path class="st2" d="M85.48,14.04v0.55c-0.33,0-0.55-0.27-0.55-0.55H85.48z"/>
				<path class="st2" d="M80.55,19.51h-0.55v-0.55C80.28,18.96,80.55,19.18,80.55,19.51z"/>
				<path class="st2" d="M85.48,18.96v0.55h-0.55C84.93,19.18,85.15,18.96,85.48,18.96z"/>
				<path class="st2" d="M83.28,16.76c0,0.3-0.24,0.55-0.55,0.55c-0.3,0-0.55-0.24-0.55-0.55c0-0.3,0.24-0.55,0.55-0.55
					C83.03,16.22,83.28,16.46,83.28,16.76z"/>
			</g>
			<g class="st4">
				<rect x="80.01" y="19.51" class="st2" width="5.47" height="5.47"/>
				<path class="st2" d="M80.55,19.51c0,0.27-0.27,0.55-0.55,0.55v-0.55H80.55z"/>
				<path class="st2" d="M85.48,19.51v0.55c-0.33,0-0.55-0.27-0.55-0.55H85.48z"/>
				<path class="st2" d="M80.55,24.98h-0.55v-0.55C80.28,24.44,80.55,24.66,80.55,24.98z"/>
				<path class="st2" d="M85.48,24.44v0.55h-0.55C84.93,24.66,85.15,24.44,85.48,24.44z"/>
				<path class="st2" d="M83.28,22.23c0,0.3-0.24,0.55-0.55,0.55c-0.3,0-0.55-0.24-0.55-0.55s0.24-0.55,0.55-0.55
					C83.03,21.69,83.28,21.93,83.28,22.23z"/>
			</g>
			<g class="st4">
				<rect x="80.01" y="24.98" class="st2" width="5.47" height="5.47"/>
				<path class="st2" d="M80.55,24.98c0,0.27-0.27,0.55-0.55,0.55v-0.55H80.55z"/>
				<path class="st2" d="M85.48,24.98v0.55c-0.33,0-0.55-0.27-0.55-0.55H85.48z"/>
				<path class="st2" d="M80.55,30.45h-0.55v-0.55C80.28,29.91,80.55,30.13,80.55,30.45z"/>
				<path class="st2" d="M85.48,29.91v0.55h-0.55C84.93,30.13,85.15,29.91,85.48,29.91z"/>
				<path class="st2" d="M83.28,27.71c0,0.3-0.24,0.55-0.55,0.55c-0.3,0-0.55-0.24-0.55-0.55s0.24-0.55,0.55-0.55
					C83.03,27.16,83.28,27.4,83.28,27.71z"/>
			</g>
			<g class="st4">
				<rect x="80.01" y="30.45" class="st2" width="5.47" height="5.47"/>
				<path class="st2" d="M80.55,30.45c0,0.27-0.27,0.55-0.55,0.55v-0.55H80.55z"/>
				<path class="st2" d="M85.48,30.45V31c-0.33,0-0.55-0.27-0.55-0.55H85.48z"/>
				<path class="st2" d="M80.55,35.93h-0.55v-0.55C80.28,35.38,80.55,35.6,80.55,35.93z"/>
				<path class="st2" d="M85.48,35.38v0.55h-0.55C84.93,35.6,85.15,35.38,85.48,35.38z"/>
				<path class="st2" d="M83.28,33.18c0,0.3-0.24,0.55-0.55,0.55c-0.3,0-0.55-0.24-0.55-0.55s0.24-0.55,0.55-0.55
					C83.03,32.63,83.28,32.87,83.28,33.18z"/>
			</g>
			<g class="st4">
				<rect x="80.01" y="35.93" class="st2" width="5.47" height="5.47"/>
				<path class="st2" d="M80.55,35.93c0,0.27-0.27,0.55-0.55,0.55v-0.55H80.55z"/>
				<path class="st2" d="M85.48,35.93v0.55c-0.33,0-0.55-0.27-0.55-0.55H85.48z"/>
				<path class="st2" d="M80.55,41.4h-0.55v-0.55C80.28,40.85,80.55,41.07,80.55,41.4z"/>
				<path class="st2" d="M85.48,40.85v0.55h-0.55C84.93,41.07,85.15,40.85,85.48,40.85z"/>
				<path class="st2" d="M83.28,38.65c0,0.3-0.24,0.55-0.55,0.55c-0.3,0-0.55-0.24-0.55-0.55s0.24-0.55,0.55-0.55
					C83.03,38.1,83.28,38.35,83.28,38.65z"/>
			</g>
			<g class="st4">
				<rect x="80.01" y="41.4" class="st2" width="5.47" height="5.47"/>
				<path class="st2" d="M80.55,41.4c0,0.27-0.27,0.55-0.55,0.55V41.4H80.55z"/>
				<path class="st2" d="M85.48,41.4v0.55c-0.33,0-0.55-0.27-0.55-0.55H85.48z"/>
				<path class="st2" d="M80.55,46.87h-0.55v-0.55C80.28,46.32,80.55,46.54,80.55,46.87z"/>
				<path class="st2" d="M85.48,46.32v0.55h-0.55C84.93,46.54,85.15,46.32,85.48,46.32z"/>
				<path class="st2" d="M83.28,44.12c0,0.3-0.24,0.55-0.55,0.55c-0.3,0-0.55-0.24-0.55-0.55c0-0.3,0.24-0.55,0.55-0.55
					C83.03,43.57,83.28,43.82,83.28,44.12z"/>
			</g>
			<g class="st4">
				<rect x="80.01" y="46.87" class="st2" width="5.47" height="5.47"/>
				<path class="st2" d="M80.55,46.87c0,0.27-0.27,0.55-0.55,0.55v-0.55H80.55z"/>
				<path class="st2" d="M85.48,46.87v0.55c-0.33,0-0.55-0.27-0.55-0.55H85.48z"/>
				<path class="st2" d="M80.55,52.34h-0.55v-0.55C80.28,51.79,80.55,52.01,80.55,52.34z"/>
				<path class="st2" d="M85.48,51.79v0.55h-0.55C84.93,52.01,85.15,51.79,85.48,51.79z"/>
				<path class="st2" d="M83.28,49.59c0,0.3-0.24,0.55-0.55,0.55c-0.3,0-0.55-0.24-0.55-0.55s0.24-0.55,0.55-0.55
					C83.03,49.04,83.28,49.29,83.28,49.59z"/>
			</g>
			<g class="st4">
				<rect x="80.01" y="52.34" class="st2" width="5.47" height="5.47"/>
				<path class="st2" d="M80.55,52.34c0,0.27-0.27,0.55-0.55,0.55v-0.55H80.55z"/>
				<path class="st2" d="M85.48,52.34v0.55c-0.33,0-0.55-0.27-0.55-0.55H85.48z"/>
				<path class="st2" d="M80.55,57.81h-0.55v-0.55C80.28,57.26,80.55,57.48,80.55,57.81z"/>
				<path class="st2" d="M85.48,57.26v0.55h-0.55C84.93,57.48,85.15,57.26,85.48,57.26z"/>
				<path class="st2" d="M83.28,55.06c0,0.3-0.24,0.55-0.55,0.55c-0.3,0-0.55-0.24-0.55-0.55c0-0.3,0.24-0.55,0.55-0.55
					C83.03,54.51,83.28,54.76,83.28,55.06z"/>
			</g>
		</g>
		<path class="st3" d="M113.38,54.18H81.69V43.33l0.22-0.24l16.93-18.37c1.66-1.85,2.14-2.83,2.14-4.37c0-2.31-1.2-3.58-3.38-3.58
			c-2.38,0-3.4,1.08-3.51,3.74l-0.03,0.79H81.65l0.04-0.86c0.12-2.83,0.31-4.17,1.11-6.06c2.36-5.61,7.91-8.97,14.86-8.97
			c9.4,0,15.71,5.97,15.71,14.86c0,4.58-1.23,7.08-5.99,12.12l-9.85,10.43h15.85V54.18z M83.33,52.54h28.4v-8.07H93.73l12.46-13.19
			c4.46-4.72,5.55-6.87,5.55-10.99c0-7.91-5.65-13.22-14.07-13.22c-6.27,0-11.26,2.98-13.35,7.96c-0.59,1.4-0.81,2.41-0.94,4.64
			h9.14c0.36-3.01,2.07-4.53,5.09-4.53c3.1,0,5.02,2,5.02,5.22c0,1.96-0.65,3.34-2.58,5.47L83.33,43.97V52.54z"/>
	</g>
</g>
</svg>
