<svg xmlns="http://www.w3.org/2000/svg" xmlns:xlink="http://www.w3.org/1999/xlink" viewBox="0 0 53.11 77.45"><defs><style>.cls-1{fill:none;}.cls-2{fill:#f3f3f5;}.cls-3{clip-path:url(#clip-path);}.cls-4{fill:#00abc8;}.cls-5{fill:#0075a2;}</style><clipPath id="clip-path" transform="translate(3.49 5.91)"><path class="cls-1" d="M43.73,46.41c0,11.68-8.37,19.25-21.3,19.25S1.12,58.09,1.12,46.49a15.92,15.92,0,0,1,3-9.89,19.3,19.3,0,0,1,4.1-4.1c-4.73-4.1-6.51-7.58-6.51-12.93C1.74,9,10.48,1.12,22.43,1.12S43.11,9,43.11,19.57c0,5.35-1.78,8.83-6.51,12.93C41.86,36.78,43.73,40.52,43.73,46.41ZM22.43,39.1a6.69,6.69,0,1,0,6.68,6.77A6.73,6.73,0,0,0,22.43,39.1Zm0-24.79a6.07,6.07,0,1,0,6.06,6.15A6,6,0,0,0,22.43,14.31Z"/></clipPath></defs><g id="Layer_2" data-name="Layer 2"><g id="Section_2" data-name="Section 2"><path class="cls-2" d="M49.62,52.29c0,11.68-8.38,19.26-21.31,19.26S7,64,7,52.38a16,16,0,0,1,3-9.89,20,20,0,0,1,4.1-4.11c-4.72-4.1-6.5-7.58-6.5-12.92C7.63,14.85,16.36,7,28.31,7S49,14.85,49,25.46c0,5.34-1.77,8.82-6.5,12.92C47.75,42.66,49.62,46.41,49.62,52.29ZM28.31,45A6.69,6.69,0,1,0,35,51.76,6.73,6.73,0,0,0,28.31,45Zm0-24.79a6.07,6.07,0,1,0,6.06,6.16A6,6,0,0,0,28.31,20.19Z" transform="translate(3.49 5.91)"/><g class="cls-3"><rect class="cls-4" x="44.6" width="7.43" height="7.43"/><path class="cls-4" d="M41.85-5.91a.8.8,0,0,1-.74.75v-.75Z" transform="translate(3.49 5.91)"/><path class="cls-4" d="M48.54-5.91v.75a.75.75,0,0,1-.74-.75Z" transform="translate(3.49 5.91)"/><path class="cls-4" d="M41.85,1.53h-.74V.78A.75.75,0,0,1,41.85,1.53Z" transform="translate(3.49 5.91)"/><path class="cls-4" d="M48.54.78v.75H47.8A.71.71,0,0,1,48.54.78Z" transform="translate(3.49 5.91)"/><path class="cls-4" d="M45.55-2.21a.75.75,0,0,1-.74.75.75.75,0,0,1-.74-.75.74.74,0,0,1,.74-.74A.74.74,0,0,1,45.55-2.21Z" transform="translate(3.49 5.91)"/><rect class="cls-4" x="44.6" y="7.43" width="7.43" height="7.43"/><path class="cls-4" d="M41.85,1.53a.8.8,0,0,1-.74.74V1.53Z" transform="translate(3.49 5.91)"/><path class="cls-4" d="M48.54,1.53v.74a.74.74,0,0,1-.74-.74Z" transform="translate(3.49 5.91)"/><path class="cls-4" d="M41.85,9h-.74V8.22A.74.74,0,0,1,41.85,9Z" transform="translate(3.49 5.91)"/><path class="cls-4" d="M48.54,8.22V9H47.8A.7.7,0,0,1,48.54,8.22Z" transform="translate(3.49 5.91)"/><path class="cls-4" d="M45.55,5.23a.74.74,0,0,1-1.48,0,.74.74,0,1,1,1.48,0Z" transform="translate(3.49 5.91)"/><rect class="cls-4" x="44.6" y="14.87" width="7.43" height="7.43"/><path class="cls-4" d="M41.85,9a.81.81,0,0,1-.74.75V9Z" transform="translate(3.49 5.91)"/><path class="cls-4" d="M48.54,9v.75A.75.75,0,0,1,47.8,9Z" transform="translate(3.49 5.91)"/><path class="cls-4" d="M41.85,16.4h-.74v-.75A.75.75,0,0,1,41.85,16.4Z" transform="translate(3.49 5.91)"/><path class="cls-4" d="M48.54,15.65v.75H47.8A.71.71,0,0,1,48.54,15.65Z" transform="translate(3.49 5.91)"/><path class="cls-4" d="M45.55,12.66a.74.74,0,1,1-.74-.74A.74.74,0,0,1,45.55,12.66Z" transform="translate(3.49 5.91)"/><rect class="cls-4" x="44.6" y="22.3" width="7.43" height="7.43"/><path class="cls-4" d="M41.85,16.4a.8.8,0,0,1-.74.74V16.4Z" transform="translate(3.49 5.91)"/><path class="cls-4" d="M48.54,16.4v.74a.74.74,0,0,1-.74-.74Z" transform="translate(3.49 5.91)"/><path class="cls-4" d="M41.85,23.83h-.74v-.74A.74.74,0,0,1,41.85,23.83Z" transform="translate(3.49 5.91)"/><path class="cls-4" d="M48.54,23.09v.74H47.8A.7.7,0,0,1,48.54,23.09Z" transform="translate(3.49 5.91)"/><path class="cls-4" d="M45.55,20.09a.74.74,0,1,1-1.48,0,.74.74,0,0,1,1.48,0Z" transform="translate(3.49 5.91)"/><rect class="cls-4" x="44.6" y="29.73" width="7.43" height="7.43"/><path class="cls-4" d="M41.85,23.83a.8.8,0,0,1-.74.74v-.74Z" transform="translate(3.49 5.91)"/><path class="cls-4" d="M48.54,23.83v.74a.74.74,0,0,1-.74-.74Z" transform="translate(3.49 5.91)"/><path class="cls-4" d="M41.85,31.26h-.74v-.74A.74.74,0,0,1,41.85,31.26Z" transform="translate(3.49 5.91)"/><path class="cls-4" d="M48.54,30.52v.74H47.8A.7.7,0,0,1,48.54,30.52Z" transform="translate(3.49 5.91)"/><path class="cls-4" d="M45.55,27.53a.74.74,0,1,1-1.48,0,.74.74,0,1,1,1.48,0Z" transform="translate(3.49 5.91)"/><rect class="cls-4" x="44.6" y="37.17" width="7.43" height="7.43"/><path class="cls-4" d="M41.85,31.26a.81.81,0,0,1-.74.75v-.75Z" transform="translate(3.49 5.91)"/><path class="cls-4" d="M48.54,31.26V32a.75.75,0,0,1-.74-.75Z" transform="translate(3.49 5.91)"/><path class="cls-4" d="M41.85,38.7h-.74V38A.75.75,0,0,1,41.85,38.7Z" transform="translate(3.49 5.91)"/><path class="cls-4" d="M48.54,38v.75H47.8A.71.71,0,0,1,48.54,38Z" transform="translate(3.49 5.91)"/><path class="cls-4" d="M45.55,35a.74.74,0,1,1-.74-.74A.74.74,0,0,1,45.55,35Z" transform="translate(3.49 5.91)"/><rect class="cls-4" x="44.6" y="44.6" width="7.43" height="7.43"/><path class="cls-4" d="M41.85,38.7a.8.8,0,0,1-.74.74V38.7Z" transform="translate(3.49 5.91)"/><path class="cls-4" d="M48.54,38.7v.74a.74.74,0,0,1-.74-.74Z" transform="translate(3.49 5.91)"/><path class="cls-4" d="M41.85,46.13h-.74v-.74A.74.74,0,0,1,41.85,46.13Z" transform="translate(3.49 5.91)"/><path class="cls-4" d="M48.54,45.39v.74H47.8A.7.7,0,0,1,48.54,45.39Z" transform="translate(3.49 5.91)"/><path class="cls-4" d="M45.55,42.4a.74.74,0,1,1-.74-.75A.74.74,0,0,1,45.55,42.4Z" transform="translate(3.49 5.91)"/><rect class="cls-4" x="44.6" y="52.04" width="7.43" height="7.43"/><path class="cls-4" d="M41.85,46.13a.8.8,0,0,1-.74.74v-.74Z" transform="translate(3.49 5.91)"/><path class="cls-4" d="M48.54,46.13v.74a.74.74,0,0,1-.74-.74Z" transform="translate(3.49 5.91)"/><path class="cls-4" d="M41.85,53.56h-.74v-.74A.74.74,0,0,1,41.85,53.56Z" transform="translate(3.49 5.91)"/><path class="cls-4" d="M48.54,52.82v.74H47.8A.7.7,0,0,1,48.54,52.82Z" transform="translate(3.49 5.91)"/><path class="cls-4" d="M45.55,49.83a.74.74,0,1,1-.74-.74A.74.74,0,0,1,45.55,49.83Z" transform="translate(3.49 5.91)"/><rect class="cls-4" x="44.6" y="59.47" width="7.43" height="7.43"/><path class="cls-4" d="M41.85,53.56a.8.8,0,0,1-.74.75v-.75Z" transform="translate(3.49 5.91)"/><path class="cls-4" d="M48.54,53.56v.75a.75.75,0,0,1-.74-.75Z" transform="translate(3.49 5.91)"/><path class="cls-4" d="M41.85,61h-.74v-.75A.75.75,0,0,1,41.85,61Z" transform="translate(3.49 5.91)"/><path class="cls-4" d="M48.54,60.25V61H47.8A.71.71,0,0,1,48.54,60.25Z" transform="translate(3.49 5.91)"/><path class="cls-4" d="M45.55,57.26a.74.74,0,1,1-1.48,0,.74.74,0,1,1,1.48,0Z" transform="translate(3.49 5.91)"/><rect class="cls-4" x="44.6" y="66.9" width="7.43" height="7.43"/><path class="cls-4" d="M41.85,61a.8.8,0,0,1-.74.74V61Z" transform="translate(3.49 5.91)"/><path class="cls-4" d="M48.54,61v.74A.74.74,0,0,1,47.8,61Z" transform="translate(3.49 5.91)"/><path class="cls-4" d="M41.85,68.43h-.74v-.74A.74.74,0,0,1,41.85,68.43Z" transform="translate(3.49 5.91)"/><path class="cls-4" d="M48.54,67.69v.74H47.8A.7.7,0,0,1,48.54,67.69Z" transform="translate(3.49 5.91)"/><path class="cls-4" d="M45.55,64.7a.74.74,0,0,1-1.48,0,.74.74,0,1,1,1.48,0Z" transform="translate(3.49 5.91)"/><rect class="cls-4" x="37.17" width="7.43" height="7.43"/><path class="cls-4" d="M34.42-5.91a.8.8,0,0,1-.74.75v-.75Z" transform="translate(3.49 5.91)"/><path class="cls-4" d="M41.11-5.91v.75a.74.74,0,0,1-.74-.75Z" transform="translate(3.49 5.91)"/><path class="cls-4" d="M34.42,1.53h-.74V.78A.75.75,0,0,1,34.42,1.53Z" transform="translate(3.49 5.91)"/><path class="cls-4" d="M41.11.78v.75h-.74A.7.7,0,0,1,41.11.78Z" transform="translate(3.49 5.91)"/><circle class="cls-4" cx="40.87" cy="3.7" r="0.74"/><rect class="cls-4" x="37.17" y="7.43" width="7.43" height="7.43"/><path class="cls-4" d="M34.42,1.53a.8.8,0,0,1-.74.74V1.53Z" transform="translate(3.49 5.91)"/><path class="cls-4" d="M41.11,1.53v.74a.74.74,0,0,1-.74-.74Z" transform="translate(3.49 5.91)"/><path class="cls-4" d="M34.42,9h-.74V8.22A.74.74,0,0,1,34.42,9Z" transform="translate(3.49 5.91)"/><path class="cls-4" d="M41.11,8.22V9h-.74A.7.7,0,0,1,41.11,8.22Z" transform="translate(3.49 5.91)"/><path class="cls-4" d="M38.12,5.23a.74.74,0,0,1-.74.74.75.75,0,0,1-.75-.74.76.76,0,0,1,.75-.75A.75.75,0,0,1,38.12,5.23Z" transform="translate(3.49 5.91)"/><rect class="cls-4" x="37.17" y="14.87" width="7.43" height="7.43"/><path class="cls-4" d="M34.42,9a.81.81,0,0,1-.74.75V9Z" transform="translate(3.49 5.91)"/><path class="cls-4" d="M41.11,9v.75A.75.75,0,0,1,40.37,9Z" transform="translate(3.49 5.91)"/><path class="cls-4" d="M34.42,16.4h-.74v-.75A.75.75,0,0,1,34.42,16.4Z" transform="translate(3.49 5.91)"/><path class="cls-4" d="M41.11,15.65v.75h-.74A.7.7,0,0,1,41.11,15.65Z" transform="translate(3.49 5.91)"/><circle class="cls-4" cx="40.87" cy="18.57" r="0.74"/><rect class="cls-4" x="37.17" y="22.3" width="7.43" height="7.43"/><path class="cls-4" d="M34.42,16.4a.8.8,0,0,1-.74.74V16.4Z" transform="translate(3.49 5.91)"/><path class="cls-4" d="M41.11,16.4v.74a.74.74,0,0,1-.74-.74Z" transform="translate(3.49 5.91)"/><path class="cls-4" d="M34.42,23.83h-.74v-.74A.74.74,0,0,1,34.42,23.83Z" transform="translate(3.49 5.91)"/><path class="cls-4" d="M41.11,23.09v.74h-.74A.69.69,0,0,1,41.11,23.09Z" transform="translate(3.49 5.91)"/><path class="cls-4" d="M38.12,20.09a.75.75,0,0,1-.74.75.76.76,0,0,1-.75-.75.75.75,0,0,1,.75-.74A.74.74,0,0,1,38.12,20.09Z" transform="translate(3.49 5.91)"/><rect class="cls-4" x="37.17" y="29.73" width="7.43" height="7.43"/><path class="cls-4" d="M34.42,23.83a.8.8,0,0,1-.74.74v-.74Z" transform="translate(3.49 5.91)"/><path class="cls-4" d="M41.11,23.83v.74a.74.74,0,0,1-.74-.74Z" transform="translate(3.49 5.91)"/><path class="cls-4" d="M34.42,31.26h-.74v-.74A.74.74,0,0,1,34.42,31.26Z" transform="translate(3.49 5.91)"/><path class="cls-4" d="M41.11,30.52v.74h-.74A.7.7,0,0,1,41.11,30.52Z" transform="translate(3.49 5.91)"/><path class="cls-4" d="M38.12,27.53a.74.74,0,0,1-.74.74.75.75,0,0,1-.75-.74.76.76,0,0,1,.75-.75A.75.75,0,0,1,38.12,27.53Z" transform="translate(3.49 5.91)"/><rect class="cls-4" x="37.17" y="37.17" width="7.43" height="7.43"/><path class="cls-4" d="M34.42,31.26a.81.81,0,0,1-.74.75v-.75Z" transform="translate(3.49 5.91)"/><path class="cls-4" d="M41.11,31.26V32a.75.75,0,0,1-.74-.75Z" transform="translate(3.49 5.91)"/><path class="cls-4" d="M34.42,38.7h-.74V38A.75.75,0,0,1,34.42,38.7Z" transform="translate(3.49 5.91)"/><path class="cls-4" d="M41.11,38v.75h-.74A.7.7,0,0,1,41.11,38Z" transform="translate(3.49 5.91)"/><path class="cls-4" d="M38.12,35a.74.74,0,0,1-.74.74.74.74,0,1,1,0-1.48A.74.74,0,0,1,38.12,35Z" transform="translate(3.49 5.91)"/><rect class="cls-4" x="37.17" y="44.6" width="7.43" height="7.43"/><path class="cls-4" d="M34.42,38.7a.8.8,0,0,1-.74.74V38.7Z" transform="translate(3.49 5.91)"/><path class="cls-4" d="M41.11,38.7v.74a.74.74,0,0,1-.74-.74Z" transform="translate(3.49 5.91)"/><path class="cls-4" d="M34.42,46.13h-.74v-.74A.74.74,0,0,1,34.42,46.13Z" transform="translate(3.49 5.91)"/><path class="cls-4" d="M41.11,45.39v.74h-.74A.69.69,0,0,1,41.11,45.39Z" transform="translate(3.49 5.91)"/><path class="cls-4" d="M38.12,42.4a.74.74,0,0,1-.74.74.75.75,0,1,1,.74-.74Z" transform="translate(3.49 5.91)"/><rect class="cls-4" x="37.17" y="52.04" width="7.43" height="7.43"/><path class="cls-4" d="M34.42,46.13a.8.8,0,0,1-.74.74v-.74Z" transform="translate(3.49 5.91)"/><path class="cls-4" d="M41.11,46.13v.74a.74.74,0,0,1-.74-.74Z" transform="translate(3.49 5.91)"/><path class="cls-4" d="M34.42,53.56h-.74v-.74A.74.74,0,0,1,34.42,53.56Z" transform="translate(3.49 5.91)"/><path class="cls-4" d="M41.11,52.82v.74h-.74A.7.7,0,0,1,41.11,52.82Z" transform="translate(3.49 5.91)"/><circle class="cls-4" cx="40.87" cy="55.73" r="0.74"/><rect class="cls-4" x="37.17" y="59.47" width="7.43" height="7.43"/><path class="cls-4" d="M34.42,53.56a.8.8,0,0,1-.74.75v-.75Z" transform="translate(3.49 5.91)"/><path class="cls-4" d="M41.11,53.56v.75a.74.74,0,0,1-.74-.75Z" transform="translate(3.49 5.91)"/><path class="cls-4" d="M34.42,61h-.74v-.75A.75.75,0,0,1,34.42,61Z" transform="translate(3.49 5.91)"/><path class="cls-4" d="M41.11,60.25V61h-.74A.7.7,0,0,1,41.11,60.25Z" transform="translate(3.49 5.91)"/><path class="cls-4" d="M38.12,57.26a.75.75,0,0,1-.74.75.76.76,0,0,1-.75-.75.75.75,0,0,1,.75-.74A.74.74,0,0,1,38.12,57.26Z" transform="translate(3.49 5.91)"/><rect class="cls-4" x="37.17" y="66.9" width="7.43" height="7.43"/><path class="cls-4" d="M34.42,61a.8.8,0,0,1-.74.74V61Z" transform="translate(3.49 5.91)"/><path class="cls-4" d="M41.11,61v.74a.74.74,0,0,1-.74-.74Z" transform="translate(3.49 5.91)"/><path class="cls-4" d="M34.42,68.43h-.74v-.74A.74.74,0,0,1,34.42,68.43Z" transform="translate(3.49 5.91)"/><path class="cls-4" d="M41.11,67.69v.74h-.74A.7.7,0,0,1,41.11,67.69Z" transform="translate(3.49 5.91)"/><circle class="cls-4" cx="40.87" cy="70.6" r="0.74"/><rect class="cls-4" x="29.73" width="7.43" height="7.43"/><path class="cls-4" d="M27-5.91a.81.81,0,0,1-.75.75v-.75Z" transform="translate(3.49 5.91)"/><path class="cls-4" d="M33.68-5.91v.75a.75.75,0,0,1-.75-.75Z" transform="translate(3.49 5.91)"/><path class="cls-4" d="M27,1.53h-.75V.78A.75.75,0,0,1,27,1.53Z" transform="translate(3.49 5.91)"/><path class="cls-4" d="M33.68.78v.75h-.75A.71.71,0,0,1,33.68.78Z" transform="translate(3.49 5.91)"/><path class="cls-4" d="M30.69-2.21a.76.76,0,0,1-.75.75.75.75,0,0,1-.74-.75.74.74,0,0,1,.74-.74A.75.75,0,0,1,30.69-2.21Z" transform="translate(3.49 5.91)"/><rect class="cls-4" x="29.73" y="7.43" width="7.43" height="7.43"/><path class="cls-4" d="M27,1.53a.81.81,0,0,1-.75.74V1.53Z" transform="translate(3.49 5.91)"/><path class="cls-4" d="M33.68,1.53v.74a.75.75,0,0,1-.75-.74Z" transform="translate(3.49 5.91)"/><path class="cls-4" d="M27,9h-.75V8.22A.75.75,0,0,1,27,9Z" transform="translate(3.49 5.91)"/><path class="cls-4" d="M33.68,8.22V9h-.75A.71.71,0,0,1,33.68,8.22Z" transform="translate(3.49 5.91)"/><path class="cls-4" d="M30.69,5.23a.75.75,0,0,1-.75.74.74.74,0,0,1-.74-.74.75.75,0,0,1,.74-.75A.76.76,0,0,1,30.69,5.23Z" transform="translate(3.49 5.91)"/><rect class="cls-4" x="29.73" y="14.87" width="7.43" height="7.43"/><path class="cls-4" d="M27,9a.81.81,0,0,1-.75.75V9Z" transform="translate(3.49 5.91)"/><path class="cls-4" d="M33.68,9v.75A.75.75,0,0,1,32.93,9Z" transform="translate(3.49 5.91)"/><path class="cls-4" d="M27,16.4h-.75v-.75A.75.75,0,0,1,27,16.4Z" transform="translate(3.49 5.91)"/><path class="cls-4" d="M33.68,15.65v.75h-.75A.71.71,0,0,1,33.68,15.65Z" transform="translate(3.49 5.91)"/><path class="cls-4" d="M30.69,12.66a.75.75,0,0,1-.75.74.74.74,0,0,1,0-1.48A.75.75,0,0,1,30.69,12.66Z" transform="translate(3.49 5.91)"/><rect class="cls-4" x="29.73" y="22.3" width="7.43" height="7.43"/><path class="cls-4" d="M27,16.4a.81.81,0,0,1-.75.74V16.4Z" transform="translate(3.49 5.91)"/><path class="cls-4" d="M33.68,16.4v.74a.75.75,0,0,1-.75-.74Z" transform="translate(3.49 5.91)"/><path class="cls-4" d="M27,23.83h-.75v-.74A.75.75,0,0,1,27,23.83Z" transform="translate(3.49 5.91)"/><path class="cls-4" d="M33.68,23.09v.74h-.75A.7.7,0,0,1,33.68,23.09Z" transform="translate(3.49 5.91)"/><path class="cls-4" d="M30.69,20.09a.76.76,0,0,1-.75.75.75.75,0,0,1-.74-.75.74.74,0,0,1,.74-.74A.75.75,0,0,1,30.69,20.09Z" transform="translate(3.49 5.91)"/><rect class="cls-4" x="29.73" y="29.73" width="7.43" height="7.43"/><path class="cls-4" d="M27,23.83a.81.81,0,0,1-.75.74v-.74Z" transform="translate(3.49 5.91)"/><path class="cls-4" d="M33.68,23.83v.74a.75.75,0,0,1-.75-.74Z" transform="translate(3.49 5.91)"/><path class="cls-4" d="M27,31.26h-.75v-.74A.75.75,0,0,1,27,31.26Z" transform="translate(3.49 5.91)"/><path class="cls-4" d="M33.68,30.52v.74h-.75A.71.71,0,0,1,33.68,30.52Z" transform="translate(3.49 5.91)"/><path class="cls-4" d="M30.69,27.53a.75.75,0,0,1-.75.74.74.74,0,0,1-.74-.74.75.75,0,0,1,.74-.75A.76.76,0,0,1,30.69,27.53Z" transform="translate(3.49 5.91)"/><rect class="cls-4" x="29.73" y="37.17" width="7.43" height="7.43"/><path class="cls-4" d="M27,31.26a.81.81,0,0,1-.75.75v-.75Z" transform="translate(3.49 5.91)"/><path class="cls-4" d="M33.68,31.26V32a.75.75,0,0,1-.75-.75Z" transform="translate(3.49 5.91)"/><path class="cls-4" d="M27,38.7h-.75V38A.75.75,0,0,1,27,38.7Z" transform="translate(3.49 5.91)"/><path class="cls-4" d="M33.68,38v.75h-.75A.71.71,0,0,1,33.68,38Z" transform="translate(3.49 5.91)"/><path class="cls-4" d="M30.69,35a.75.75,0,0,1-.75.74.74.74,0,0,1,0-1.48A.75.75,0,0,1,30.69,35Z" transform="translate(3.49 5.91)"/><rect class="cls-4" x="29.73" y="44.6" width="7.43" height="7.43"/><path class="cls-4" d="M27,38.7a.81.81,0,0,1-.75.74V38.7Z" transform="translate(3.49 5.91)"/><path class="cls-4" d="M33.68,38.7v.74a.75.75,0,0,1-.75-.74Z" transform="translate(3.49 5.91)"/><path class="cls-4" d="M27,46.13h-.75v-.74A.75.75,0,0,1,27,46.13Z" transform="translate(3.49 5.91)"/><path class="cls-4" d="M33.68,45.39v.74h-.75A.7.7,0,0,1,33.68,45.39Z" transform="translate(3.49 5.91)"/><path class="cls-4" d="M30.69,42.4a.75.75,0,0,1-.75.74.75.75,0,0,1,0-1.49A.75.75,0,0,1,30.69,42.4Z" transform="translate(3.49 5.91)"/><rect class="cls-4" x="29.73" y="52.04" width="7.43" height="7.43"/><path class="cls-4" d="M27,46.13a.81.81,0,0,1-.75.74v-.74Z" transform="translate(3.49 5.91)"/><path class="cls-4" d="M33.68,46.13v.74a.75.75,0,0,1-.75-.74Z" transform="translate(3.49 5.91)"/><path class="cls-4" d="M27,53.56h-.75v-.74A.75.75,0,0,1,27,53.56Z" transform="translate(3.49 5.91)"/><path class="cls-4" d="M33.68,52.82v.74h-.75A.71.71,0,0,1,33.68,52.82Z" transform="translate(3.49 5.91)"/><path class="cls-4" d="M30.69,49.83a.75.75,0,0,1-.75.74.74.74,0,1,1,0-1.48A.75.75,0,0,1,30.69,49.83Z" transform="translate(3.49 5.91)"/><rect class="cls-4" x="29.73" y="59.47" width="7.43" height="7.43"/><path class="cls-4" d="M27,53.56a.81.81,0,0,1-.75.75v-.75Z" transform="translate(3.49 5.91)"/><path class="cls-4" d="M33.68,53.56v.75a.75.75,0,0,1-.75-.75Z" transform="translate(3.49 5.91)"/><path class="cls-4" d="M27,61h-.75v-.75A.75.75,0,0,1,27,61Z" transform="translate(3.49 5.91)"/><path class="cls-4" d="M33.68,60.25V61h-.75A.71.71,0,0,1,33.68,60.25Z" transform="translate(3.49 5.91)"/><path class="cls-4" d="M30.69,57.26a.76.76,0,0,1-.75.75.75.75,0,0,1-.74-.75.74.74,0,0,1,.74-.74A.75.75,0,0,1,30.69,57.26Z" transform="translate(3.49 5.91)"/><rect class="cls-4" x="29.73" y="66.9" width="7.43" height="7.43"/><path class="cls-4" d="M27,61a.81.81,0,0,1-.75.74V61Z" transform="translate(3.49 5.91)"/><path class="cls-4" d="M33.68,61v.74a.75.75,0,0,1-.75-.74Z" transform="translate(3.49 5.91)"/><path class="cls-4" d="M27,68.43h-.75v-.74A.75.75,0,0,1,27,68.43Z" transform="translate(3.49 5.91)"/><path class="cls-4" d="M33.68,67.69v.74h-.75A.71.71,0,0,1,33.68,67.69Z" transform="translate(3.49 5.91)"/><path class="cls-4" d="M30.69,64.7a.75.75,0,0,1-.75.74.74.74,0,0,1-.74-.74.75.75,0,0,1,.74-.75A.76.76,0,0,1,30.69,64.7Z" transform="translate(3.49 5.91)"/><rect class="cls-4" x="22.3" width="7.43" height="7.43"/><path class="cls-4" d="M19.55-5.91a.8.8,0,0,1-.74.75v-.75Z" transform="translate(3.49 5.91)"/><path class="cls-4" d="M26.24-5.91v.75a.75.75,0,0,1-.74-.75Z" transform="translate(3.49 5.91)"/><path class="cls-4" d="M19.55,1.53h-.74V.78A.75.75,0,0,1,19.55,1.53Z" transform="translate(3.49 5.91)"/><path class="cls-4" d="M26.24.78v.75H25.5A.71.71,0,0,1,26.24.78Z" transform="translate(3.49 5.91)"/><path class="cls-4" d="M23.25-2.21a.75.75,0,0,1-.74.75.75.75,0,0,1-.74-.75.74.74,0,0,1,.74-.74A.74.74,0,0,1,23.25-2.21Z" transform="translate(3.49 5.91)"/><rect class="cls-4" x="22.3" y="7.43" width="7.43" height="7.43"/><path class="cls-4" d="M19.55,1.53a.8.8,0,0,1-.74.74V1.53Z" transform="translate(3.49 5.91)"/><path class="cls-4" d="M26.24,1.53v.74a.74.74,0,0,1-.74-.74Z" transform="translate(3.49 5.91)"/><path class="cls-4" d="M19.55,9h-.74V8.22A.74.74,0,0,1,19.55,9Z" transform="translate(3.49 5.91)"/><path class="cls-4" d="M26.24,8.22V9H25.5A.7.7,0,0,1,26.24,8.22Z" transform="translate(3.49 5.91)"/><path class="cls-4" d="M23.25,5.23a.74.74,0,1,1-1.48,0,.74.74,0,1,1,1.48,0Z" transform="translate(3.49 5.91)"/><rect class="cls-4" x="22.3" y="14.87" width="7.43" height="7.43"/><path class="cls-4" d="M19.55,9a.81.81,0,0,1-.74.75V9Z" transform="translate(3.49 5.91)"/><path class="cls-4" d="M26.24,9v.75A.75.75,0,0,1,25.5,9Z" transform="translate(3.49 5.91)"/><path class="cls-4" d="M19.55,16.4h-.74v-.75A.75.75,0,0,1,19.55,16.4Z" transform="translate(3.49 5.91)"/><path class="cls-4" d="M26.24,15.65v.75H25.5A.71.71,0,0,1,26.24,15.65Z" transform="translate(3.49 5.91)"/><path class="cls-4" d="M23.25,12.66a.74.74,0,1,1-.74-.74A.74.74,0,0,1,23.25,12.66Z" transform="translate(3.49 5.91)"/><rect class="cls-4" x="22.3" y="22.3" width="7.43" height="7.43"/><path class="cls-4" d="M19.55,16.4a.8.8,0,0,1-.74.74V16.4Z" transform="translate(3.49 5.91)"/><path class="cls-4" d="M26.24,16.4v.74a.74.74,0,0,1-.74-.74Z" transform="translate(3.49 5.91)"/><path class="cls-4" d="M19.55,23.83h-.74v-.74A.74.74,0,0,1,19.55,23.83Z" transform="translate(3.49 5.91)"/><path class="cls-4" d="M26.24,23.09v.74H25.5A.7.7,0,0,1,26.24,23.09Z" transform="translate(3.49 5.91)"/><path class="cls-4" d="M23.25,20.09a.74.74,0,1,1-1.48,0,.74.74,0,0,1,1.48,0Z" transform="translate(3.49 5.91)"/><rect class="cls-4" x="22.3" y="29.73" width="7.43" height="7.43"/><path class="cls-4" d="M19.55,23.83a.8.8,0,0,1-.74.74v-.74Z" transform="translate(3.49 5.91)"/><path class="cls-4" d="M26.24,23.83v.74a.74.74,0,0,1-.74-.74Z" transform="translate(3.49 5.91)"/><path class="cls-4" d="M19.55,31.26h-.74v-.74A.74.74,0,0,1,19.55,31.26Z" transform="translate(3.49 5.91)"/><path class="cls-4" d="M26.24,30.52v.74H25.5A.7.7,0,0,1,26.24,30.52Z" transform="translate(3.49 5.91)"/><path class="cls-4" d="M23.25,27.53a.74.74,0,0,1-1.48,0,.74.74,0,1,1,1.48,0Z" transform="translate(3.49 5.91)"/><rect class="cls-4" x="22.3" y="37.17" width="7.43" height="7.43"/><path class="cls-4" d="M19.55,31.26a.81.81,0,0,1-.74.75v-.75Z" transform="translate(3.49 5.91)"/><path class="cls-4" d="M26.24,31.26V32a.75.75,0,0,1-.74-.75Z" transform="translate(3.49 5.91)"/><path class="cls-4" d="M19.55,38.7h-.74V38A.75.75,0,0,1,19.55,38.7Z" transform="translate(3.49 5.91)"/><path class="cls-4" d="M26.24,38v.75H25.5A.71.71,0,0,1,26.24,38Z" transform="translate(3.49 5.91)"/><path class="cls-4" d="M23.25,35a.74.74,0,1,1-.74-.74A.74.74,0,0,1,23.25,35Z" transform="translate(3.49 5.91)"/><rect class="cls-4" x="22.3" y="44.6" width="7.43" height="7.43"/><path class="cls-4" d="M19.55,38.7a.8.8,0,0,1-.74.74V38.7Z" transform="translate(3.49 5.91)"/><path class="cls-4" d="M26.24,38.7v.74a.74.74,0,0,1-.74-.74Z" transform="translate(3.49 5.91)"/><path class="cls-4" d="M19.55,46.13h-.74v-.74A.74.74,0,0,1,19.55,46.13Z" transform="translate(3.49 5.91)"/><path class="cls-4" d="M26.24,45.39v.74H25.5A.7.7,0,0,1,26.24,45.39Z" transform="translate(3.49 5.91)"/><path class="cls-4" d="M23.25,42.4a.74.74,0,1,1-.74-.75A.74.74,0,0,1,23.25,42.4Z" transform="translate(3.49 5.91)"/><rect class="cls-4" x="22.3" y="52.04" width="7.43" height="7.43"/><path class="cls-4" d="M19.55,46.13a.8.8,0,0,1-.74.74v-.74Z" transform="translate(3.49 5.91)"/><path class="cls-4" d="M26.24,46.13v.74a.74.74,0,0,1-.74-.74Z" transform="translate(3.49 5.91)"/><path class="cls-4" d="M19.55,53.56h-.74v-.74A.74.74,0,0,1,19.55,53.56Z" transform="translate(3.49 5.91)"/><path class="cls-4" d="M26.24,52.82v.74H25.5A.7.7,0,0,1,26.24,52.82Z" transform="translate(3.49 5.91)"/><path class="cls-4" d="M23.25,49.83a.74.74,0,1,1-.74-.74A.74.74,0,0,1,23.25,49.83Z" transform="translate(3.49 5.91)"/><rect class="cls-4" x="22.3" y="59.47" width="7.43" height="7.43"/><path class="cls-4" d="M19.55,53.56a.8.8,0,0,1-.74.75v-.75Z" transform="translate(3.49 5.91)"/><path class="cls-4" d="M26.24,53.56v.75a.75.75,0,0,1-.74-.75Z" transform="translate(3.49 5.91)"/><path class="cls-4" d="M19.55,61h-.74v-.75A.75.75,0,0,1,19.55,61Z" transform="translate(3.49 5.91)"/><path class="cls-4" d="M26.24,60.25V61H25.5A.71.71,0,0,1,26.24,60.25Z" transform="translate(3.49 5.91)"/><path class="cls-4" d="M23.25,57.26a.74.74,0,1,1-1.48,0,.74.74,0,0,1,1.48,0Z" transform="translate(3.49 5.91)"/><rect class="cls-4" x="22.3" y="66.9" width="7.43" height="7.43"/><path class="cls-4" d="M19.55,61a.8.8,0,0,1-.74.74V61Z" transform="translate(3.49 5.91)"/><path class="cls-4" d="M26.24,61v.74A.74.74,0,0,1,25.5,61Z" transform="translate(3.49 5.91)"/><path class="cls-4" d="M19.55,68.43h-.74v-.74A.74.74,0,0,1,19.55,68.43Z" transform="translate(3.49 5.91)"/><path class="cls-4" d="M26.24,67.69v.74H25.5A.7.7,0,0,1,26.24,67.69Z" transform="translate(3.49 5.91)"/><path class="cls-4" d="M23.25,64.7a.74.74,0,0,1-1.48,0,.74.74,0,1,1,1.48,0Z" transform="translate(3.49 5.91)"/><rect class="cls-4" x="14.87" width="7.43" height="7.43"/><path class="cls-4" d="M12.12-5.91a.8.8,0,0,1-.74.75v-.75Z" transform="translate(3.49 5.91)"/><path class="cls-4" d="M18.81-5.91v.75a.74.74,0,0,1-.74-.75Z" transform="translate(3.49 5.91)"/><path class="cls-4" d="M12.12,1.53h-.74V.78A.75.75,0,0,1,12.12,1.53Z" transform="translate(3.49 5.91)"/><path class="cls-4" d="M18.81.78v.75h-.74A.7.7,0,0,1,18.81.78Z" transform="translate(3.49 5.91)"/><path class="cls-4" d="M15.82-2.21a.75.75,0,0,1-.74.75.76.76,0,0,1-.75-.75.75.75,0,0,1,.75-.74A.74.74,0,0,1,15.82-2.21Z" transform="translate(3.49 5.91)"/><rect class="cls-4" x="14.87" y="7.43" width="7.43" height="7.43"/><path class="cls-4" d="M12.12,1.53a.8.8,0,0,1-.74.74V1.53Z" transform="translate(3.49 5.91)"/><path class="cls-4" d="M18.81,1.53v.74a.74.74,0,0,1-.74-.74Z" transform="translate(3.49 5.91)"/><path class="cls-4" d="M12.12,9h-.74V8.22A.74.74,0,0,1,12.12,9Z" transform="translate(3.49 5.91)"/><path class="cls-4" d="M18.81,8.22V9h-.74A.7.7,0,0,1,18.81,8.22Z" transform="translate(3.49 5.91)"/><path class="cls-4" d="M15.82,5.23a.74.74,0,0,1-.74.74.75.75,0,0,1-.75-.74.76.76,0,0,1,.75-.75A.75.75,0,0,1,15.82,5.23Z" transform="translate(3.49 5.91)"/><rect class="cls-4" x="14.87" y="14.87" width="7.43" height="7.43"/><path class="cls-4" d="M12.12,9a.81.81,0,0,1-.74.75V9Z" transform="translate(3.49 5.91)"/><path class="cls-4" d="M18.81,9v.75A.75.75,0,0,1,18.07,9Z" transform="translate(3.49 5.91)"/><path class="cls-4" d="M12.12,16.4h-.74v-.75A.75.75,0,0,1,12.12,16.4Z" transform="translate(3.49 5.91)"/><path class="cls-4" d="M18.81,15.65v.75h-.74A.7.7,0,0,1,18.81,15.65Z" transform="translate(3.49 5.91)"/><path class="cls-4" d="M15.82,12.66a.74.74,0,0,1-.74.74.74.74,0,1,1,0-1.48A.74.74,0,0,1,15.82,12.66Z" transform="translate(3.49 5.91)"/><rect class="cls-4" x="14.87" y="22.3" width="7.43" height="7.43"/><path class="cls-4" d="M12.12,16.4a.8.8,0,0,1-.74.74V16.4Z" transform="translate(3.49 5.91)"/><path class="cls-4" d="M18.81,16.4v.74a.74.74,0,0,1-.74-.74Z" transform="translate(3.49 5.91)"/><path class="cls-4" d="M12.12,23.83h-.74v-.74A.74.74,0,0,1,12.12,23.83Z" transform="translate(3.49 5.91)"/><path class="cls-4" d="M18.81,23.09v.74h-.74A.69.69,0,0,1,18.81,23.09Z" transform="translate(3.49 5.91)"/><path class="cls-4" d="M15.82,20.09a.75.75,0,0,1-.74.75.76.76,0,0,1-.75-.75.75.75,0,0,1,.75-.74A.74.74,0,0,1,15.82,20.09Z" transform="translate(3.49 5.91)"/><rect class="cls-4" x="14.87" y="29.73" width="7.43" height="7.43"/><path class="cls-4" d="M12.12,23.83a.8.8,0,0,1-.74.74v-.74Z" transform="translate(3.49 5.91)"/><path class="cls-4" d="M18.81,23.83v.74a.74.74,0,0,1-.74-.74Z" transform="translate(3.49 5.91)"/><path class="cls-4" d="M12.12,31.26h-.74v-.74A.74.74,0,0,1,12.12,31.26Z" transform="translate(3.49 5.91)"/><path class="cls-4" d="M18.81,30.52v.74h-.74A.7.7,0,0,1,18.81,30.52Z" transform="translate(3.49 5.91)"/><path class="cls-4" d="M15.82,27.53a.74.74,0,0,1-.74.74.75.75,0,0,1-.75-.74.76.76,0,0,1,.75-.75A.75.75,0,0,1,15.82,27.53Z" transform="translate(3.49 5.91)"/><rect class="cls-4" x="14.87" y="37.17" width="7.43" height="7.43"/><path class="cls-4" d="M12.12,31.26a.81.81,0,0,1-.74.75v-.75Z" transform="translate(3.49 5.91)"/><path class="cls-4" d="M18.81,31.26V32a.75.75,0,0,1-.74-.75Z" transform="translate(3.49 5.91)"/><path class="cls-4" d="M12.12,38.7h-.74V38A.75.75,0,0,1,12.12,38.7Z" transform="translate(3.49 5.91)"/><path class="cls-4" d="M18.81,38v.75h-.74A.7.7,0,0,1,18.81,38Z" transform="translate(3.49 5.91)"/><path class="cls-4" d="M15.82,35a.74.74,0,0,1-.74.74.74.74,0,1,1,0-1.48A.74.74,0,0,1,15.82,35Z" transform="translate(3.49 5.91)"/><rect class="cls-4" x="14.87" y="44.6" width="7.43" height="7.43"/><path class="cls-4" d="M12.12,38.7a.8.8,0,0,1-.74.74V38.7Z" transform="translate(3.49 5.91)"/><path class="cls-4" d="M18.81,38.7v.74a.74.74,0,0,1-.74-.74Z" transform="translate(3.49 5.91)"/><path class="cls-4" d="M12.12,46.13h-.74v-.74A.74.74,0,0,1,12.12,46.13Z" transform="translate(3.49 5.91)"/><path class="cls-4" d="M18.81,45.39v.74h-.74A.69.69,0,0,1,18.81,45.39Z" transform="translate(3.49 5.91)"/><path class="cls-4" d="M15.82,42.4a.74.74,0,0,1-.74.74.75.75,0,1,1,.74-.74Z" transform="translate(3.49 5.91)"/><rect class="cls-4" x="14.87" y="52.04" width="7.43" height="7.43"/><path class="cls-4" d="M12.12,46.13a.8.8,0,0,1-.74.74v-.74Z" transform="translate(3.49 5.91)"/><path class="cls-4" d="M18.81,46.13v.74a.74.74,0,0,1-.74-.74Z" transform="translate(3.49 5.91)"/><path class="cls-4" d="M12.12,53.56h-.74v-.74A.74.74,0,0,1,12.12,53.56Z" transform="translate(3.49 5.91)"/><path class="cls-4" d="M18.81,52.82v.74h-.74A.7.7,0,0,1,18.81,52.82Z" transform="translate(3.49 5.91)"/><path class="cls-4" d="M15.82,49.83a.74.74,0,0,1-.74.74.74.74,0,1,1,0-1.48A.74.74,0,0,1,15.82,49.83Z" transform="translate(3.49 5.91)"/><rect class="cls-4" x="14.87" y="59.47" width="7.43" height="7.43"/><path class="cls-4" d="M12.12,53.56a.8.8,0,0,1-.74.75v-.75Z" transform="translate(3.49 5.91)"/><path class="cls-4" d="M18.81,53.56v.75a.74.74,0,0,1-.74-.75Z" transform="translate(3.49 5.91)"/><path class="cls-4" d="M12.12,61h-.74v-.75A.75.75,0,0,1,12.12,61Z" transform="translate(3.49 5.91)"/><path class="cls-4" d="M18.81,60.25V61h-.74A.7.7,0,0,1,18.81,60.25Z" transform="translate(3.49 5.91)"/><path class="cls-4" d="M15.82,57.26a.75.75,0,0,1-.74.75.76.76,0,0,1-.75-.75.75.75,0,0,1,.75-.74A.74.74,0,0,1,15.82,57.26Z" transform="translate(3.49 5.91)"/><rect class="cls-4" x="14.87" y="66.9" width="7.43" height="7.43"/><path class="cls-4" d="M12.12,61a.8.8,0,0,1-.74.74V61Z" transform="translate(3.49 5.91)"/><path class="cls-4" d="M18.81,61v.74a.74.74,0,0,1-.74-.74Z" transform="translate(3.49 5.91)"/><path class="cls-4" d="M12.12,68.43h-.74v-.74A.74.74,0,0,1,12.12,68.43Z" transform="translate(3.49 5.91)"/><path class="cls-4" d="M18.81,67.69v.74h-.74A.7.7,0,0,1,18.81,67.69Z" transform="translate(3.49 5.91)"/><path class="cls-4" d="M15.82,64.7a.74.74,0,0,1-.74.74.75.75,0,0,1-.75-.74.76.76,0,0,1,.75-.75A.75.75,0,0,1,15.82,64.7Z" transform="translate(3.49 5.91)"/><rect class="cls-4" x="7.43" width="7.43" height="7.43"/><path class="cls-4" d="M4.69-5.91a.81.81,0,0,1-.75.75v-.75Z" transform="translate(3.49 5.91)"/><path class="cls-4" d="M11.38-5.91v.75a.75.75,0,0,1-.75-.75Z" transform="translate(3.49 5.91)"/><path class="cls-4" d="M4.69,1.53H3.94V.78A.75.75,0,0,1,4.69,1.53Z" transform="translate(3.49 5.91)"/><path class="cls-4" d="M11.38.78v.75h-.75A.71.71,0,0,1,11.38.78Z" transform="translate(3.49 5.91)"/><path class="cls-4" d="M8.39-2.21a.76.76,0,0,1-.75.75.75.75,0,0,1-.74-.75.74.74,0,0,1,.74-.74A.75.75,0,0,1,8.39-2.21Z" transform="translate(3.49 5.91)"/><rect class="cls-4" x="7.43" y="7.43" width="7.43" height="7.43"/><path class="cls-4" d="M4.69,1.53a.81.81,0,0,1-.75.74V1.53Z" transform="translate(3.49 5.91)"/><path class="cls-4" d="M11.38,1.53v.74a.75.75,0,0,1-.75-.74Z" transform="translate(3.49 5.91)"/><path class="cls-4" d="M4.69,9H3.94V8.22A.75.75,0,0,1,4.69,9Z" transform="translate(3.49 5.91)"/><path class="cls-4" d="M11.38,8.22V9h-.75A.71.71,0,0,1,11.38,8.22Z" transform="translate(3.49 5.91)"/><path class="cls-4" d="M8.39,5.23A.75.75,0,0,1,7.64,6a.74.74,0,0,1-.74-.74.75.75,0,0,1,.74-.75A.76.76,0,0,1,8.39,5.23Z" transform="translate(3.49 5.91)"/><rect class="cls-4" x="7.43" y="14.87" width="7.43" height="7.43"/><path class="cls-4" d="M4.69,9a.81.81,0,0,1-.75.75V9Z" transform="translate(3.49 5.91)"/><path class="cls-4" d="M11.38,9v.75A.75.75,0,0,1,10.63,9Z" transform="translate(3.49 5.91)"/><path class="cls-4" d="M4.69,16.4H3.94v-.75A.75.75,0,0,1,4.69,16.4Z" transform="translate(3.49 5.91)"/><path class="cls-4" d="M11.38,15.65v.75h-.75A.71.71,0,0,1,11.38,15.65Z" transform="translate(3.49 5.91)"/><path class="cls-4" d="M8.39,12.66a.75.75,0,0,1-.75.74.74.74,0,1,1,0-1.48A.75.75,0,0,1,8.39,12.66Z" transform="translate(3.49 5.91)"/><rect class="cls-4" x="7.43" y="22.3" width="7.43" height="7.43"/><path class="cls-4" d="M4.69,16.4a.81.81,0,0,1-.75.74V16.4Z" transform="translate(3.49 5.91)"/><path class="cls-4" d="M11.38,16.4v.74a.75.75,0,0,1-.75-.74Z" transform="translate(3.49 5.91)"/><path class="cls-4" d="M4.69,23.83H3.94v-.74A.75.75,0,0,1,4.69,23.83Z" transform="translate(3.49 5.91)"/><path class="cls-4" d="M11.38,23.09v.74h-.75A.7.7,0,0,1,11.38,23.09Z" transform="translate(3.49 5.91)"/><path class="cls-4" d="M8.39,20.09a.76.76,0,0,1-.75.75.75.75,0,0,1-.74-.75.74.74,0,0,1,.74-.74A.75.75,0,0,1,8.39,20.09Z" transform="translate(3.49 5.91)"/><rect class="cls-4" x="7.43" y="29.73" width="7.43" height="7.43"/><path class="cls-4" d="M4.69,23.83a.81.81,0,0,1-.75.74v-.74Z" transform="translate(3.49 5.91)"/><path class="cls-4" d="M11.38,23.83v.74a.75.75,0,0,1-.75-.74Z" transform="translate(3.49 5.91)"/><path class="cls-4" d="M4.69,31.26H3.94v-.74A.75.75,0,0,1,4.69,31.26Z" transform="translate(3.49 5.91)"/><path class="cls-4" d="M11.38,30.52v.74h-.75A.71.71,0,0,1,11.38,30.52Z" transform="translate(3.49 5.91)"/><path class="cls-4" d="M8.39,27.53a.75.75,0,0,1-.75.74.74.74,0,0,1-.74-.74.75.75,0,0,1,.74-.75A.76.76,0,0,1,8.39,27.53Z" transform="translate(3.49 5.91)"/><rect class="cls-4" x="7.43" y="37.17" width="7.43" height="7.43"/><path class="cls-4" d="M4.69,31.26a.81.81,0,0,1-.75.75v-.75Z" transform="translate(3.49 5.91)"/><path class="cls-4" d="M11.38,31.26V32a.75.75,0,0,1-.75-.75Z" transform="translate(3.49 5.91)"/><path class="cls-4" d="M4.69,38.7H3.94V38A.75.75,0,0,1,4.69,38.7Z" transform="translate(3.49 5.91)"/><path class="cls-4" d="M11.38,38v.75h-.75A.71.71,0,0,1,11.38,38Z" transform="translate(3.49 5.91)"/><path class="cls-4" d="M8.39,35a.75.75,0,0,1-.75.74.74.74,0,0,1,0-1.48A.75.75,0,0,1,8.39,35Z" transform="translate(3.49 5.91)"/><rect class="cls-4" x="7.43" y="44.6" width="7.43" height="7.43"/><path class="cls-4" d="M4.69,38.7a.81.81,0,0,1-.75.74V38.7Z" transform="translate(3.49 5.91)"/><path class="cls-4" d="M11.38,38.7v.74a.75.75,0,0,1-.75-.74Z" transform="translate(3.49 5.91)"/><path class="cls-4" d="M4.69,46.13H3.94v-.74A.75.75,0,0,1,4.69,46.13Z" transform="translate(3.49 5.91)"/><path class="cls-4" d="M11.38,45.39v.74h-.75A.7.7,0,0,1,11.38,45.39Z" transform="translate(3.49 5.91)"/><path class="cls-4" d="M8.39,42.4a.75.75,0,0,1-.75.74.75.75,0,0,1,0-1.49A.75.75,0,0,1,8.39,42.4Z" transform="translate(3.49 5.91)"/><rect class="cls-4" x="7.43" y="52.04" width="7.43" height="7.43"/><path class="cls-4" d="M4.69,46.13a.81.81,0,0,1-.75.74v-.74Z" transform="translate(3.49 5.91)"/><path class="cls-4" d="M11.38,46.13v.74a.75.75,0,0,1-.75-.74Z" transform="translate(3.49 5.91)"/><path class="cls-4" d="M4.69,53.56H3.94v-.74A.75.75,0,0,1,4.69,53.56Z" transform="translate(3.49 5.91)"/><path class="cls-4" d="M11.38,52.82v.74h-.75A.71.71,0,0,1,11.38,52.82Z" transform="translate(3.49 5.91)"/><path class="cls-4" d="M8.39,49.83a.75.75,0,0,1-.75.74.74.74,0,0,1,0-1.48A.75.75,0,0,1,8.39,49.83Z" transform="translate(3.49 5.91)"/><rect class="cls-4" x="7.43" y="59.47" width="7.43" height="7.43"/><path class="cls-4" d="M4.69,53.56a.81.81,0,0,1-.75.75v-.75Z" transform="translate(3.49 5.91)"/><path class="cls-4" d="M11.38,53.56v.75a.75.75,0,0,1-.75-.75Z" transform="translate(3.49 5.91)"/><path class="cls-4" d="M4.69,61H3.94v-.75A.75.75,0,0,1,4.69,61Z" transform="translate(3.49 5.91)"/><path class="cls-4" d="M11.38,60.25V61h-.75A.71.71,0,0,1,11.38,60.25Z" transform="translate(3.49 5.91)"/><path class="cls-4" d="M8.39,57.26a.76.76,0,0,1-.75.75.75.75,0,0,1-.74-.75.74.74,0,0,1,.74-.74A.75.75,0,0,1,8.39,57.26Z" transform="translate(3.49 5.91)"/><rect class="cls-4" x="7.43" y="66.9" width="7.43" height="7.43"/><path class="cls-4" d="M4.69,61a.81.81,0,0,1-.75.74V61Z" transform="translate(3.49 5.91)"/><path class="cls-4" d="M11.38,61v.74a.75.75,0,0,1-.75-.74Z" transform="translate(3.49 5.91)"/><path class="cls-4" d="M4.69,68.43H3.94v-.74A.75.75,0,0,1,4.69,68.43Z" transform="translate(3.49 5.91)"/><path class="cls-4" d="M11.38,67.69v.74h-.75A.71.71,0,0,1,11.38,67.69Z" transform="translate(3.49 5.91)"/><path class="cls-4" d="M8.39,64.7a.75.75,0,0,1-.75.74.74.74,0,0,1-.74-.74A.75.75,0,0,1,7.64,64,.76.76,0,0,1,8.39,64.7Z" transform="translate(3.49 5.91)"/><rect class="cls-4" width="7.43" height="7.43"/><path class="cls-4" d="M-2.75-5.91a.8.8,0,0,1-.74.75v-.75Z" transform="translate(3.49 5.91)"/><path class="cls-4" d="M3.94-5.91v.75a.75.75,0,0,1-.74-.75Z" transform="translate(3.49 5.91)"/><path class="cls-4" d="M-2.75,1.53h-.74V.78A.75.75,0,0,1-2.75,1.53Z" transform="translate(3.49 5.91)"/><path class="cls-4" d="M3.94.78v.75H3.2A.71.71,0,0,1,3.94.78Z" transform="translate(3.49 5.91)"/><path class="cls-4" d="M1-2.21a.75.75,0,0,1-.74.75.75.75,0,0,1-.74-.75.74.74,0,0,1,.74-.74A.74.74,0,0,1,1-2.21Z" transform="translate(3.49 5.91)"/><rect class="cls-4" y="7.43" width="7.43" height="7.43"/><path class="cls-4" d="M-2.75,1.53a.8.8,0,0,1-.74.74V1.53Z" transform="translate(3.49 5.91)"/><path class="cls-4" d="M3.94,1.53v.74a.74.74,0,0,1-.74-.74Z" transform="translate(3.49 5.91)"/><path class="cls-4" d="M-2.75,9h-.74V8.22A.74.74,0,0,1-2.75,9Z" transform="translate(3.49 5.91)"/><path class="cls-4" d="M3.94,8.22V9H3.2A.7.7,0,0,1,3.94,8.22Z" transform="translate(3.49 5.91)"/><path class="cls-4" d="M1,5.23A.74.74,0,0,1,.21,6a.74.74,0,0,1-.74-.74.75.75,0,0,1,.74-.75A.75.75,0,0,1,1,5.23Z" transform="translate(3.49 5.91)"/><rect class="cls-4" y="14.87" width="7.43" height="7.43"/><path class="cls-4" d="M-2.75,9a.81.81,0,0,1-.74.75V9Z" transform="translate(3.49 5.91)"/><path class="cls-4" d="M3.94,9v.75A.75.75,0,0,1,3.2,9Z" transform="translate(3.49 5.91)"/><path class="cls-4" d="M-2.75,16.4h-.74v-.75A.75.75,0,0,1-2.75,16.4Z" transform="translate(3.49 5.91)"/><path class="cls-4" d="M3.94,15.65v.75H3.2A.71.71,0,0,1,3.94,15.65Z" transform="translate(3.49 5.91)"/><path class="cls-4" d="M1,12.66a.74.74,0,0,1-.74.74.74.74,0,0,1,0-1.48A.74.74,0,0,1,1,12.66Z" transform="translate(3.49 5.91)"/><rect class="cls-4" y="22.3" width="7.43" height="7.43"/><path class="cls-4" d="M-2.75,16.4a.8.8,0,0,1-.74.74V16.4Z" transform="translate(3.49 5.91)"/><path class="cls-4" d="M3.94,16.4v.74a.74.74,0,0,1-.74-.74Z" transform="translate(3.49 5.91)"/><path class="cls-4" d="M-2.75,23.83h-.74v-.74A.74.74,0,0,1-2.75,23.83Z" transform="translate(3.49 5.91)"/><path class="cls-4" d="M3.94,23.09v.74H3.2A.7.7,0,0,1,3.94,23.09Z" transform="translate(3.49 5.91)"/><path class="cls-4" d="M1,20.09a.75.75,0,0,1-.74.75.75.75,0,0,1-.74-.75.74.74,0,0,1,.74-.74A.74.74,0,0,1,1,20.09Z" transform="translate(3.49 5.91)"/><rect class="cls-4" y="29.73" width="7.43" height="7.43"/><path class="cls-4" d="M-2.75,23.83a.8.8,0,0,1-.74.74v-.74Z" transform="translate(3.49 5.91)"/><path class="cls-4" d="M3.94,23.83v.74a.74.74,0,0,1-.74-.74Z" transform="translate(3.49 5.91)"/><path class="cls-4" d="M-2.75,31.26h-.74v-.74A.74.74,0,0,1-2.75,31.26Z" transform="translate(3.49 5.91)"/><path class="cls-4" d="M3.94,30.52v.74H3.2A.7.7,0,0,1,3.94,30.52Z" transform="translate(3.49 5.91)"/><path class="cls-4" d="M1,27.53a.74.74,0,0,1-.74.74.74.74,0,0,1-.74-.74.75.75,0,0,1,.74-.75A.75.75,0,0,1,1,27.53Z" transform="translate(3.49 5.91)"/><rect class="cls-4" y="37.17" width="7.43" height="7.43"/><path class="cls-4" d="M-2.75,31.26a.81.81,0,0,1-.74.75v-.75Z" transform="translate(3.49 5.91)"/><path class="cls-4" d="M3.94,31.26V32a.75.75,0,0,1-.74-.75Z" transform="translate(3.49 5.91)"/><path class="cls-4" d="M-2.75,38.7h-.74V38A.75.75,0,0,1-2.75,38.7Z" transform="translate(3.49 5.91)"/><path class="cls-4" d="M3.94,38v.75H3.2A.71.71,0,0,1,3.94,38Z" transform="translate(3.49 5.91)"/><path class="cls-4" d="M1,35a.74.74,0,0,1-.74.74.74.74,0,0,1,0-1.48A.74.74,0,0,1,1,35Z" transform="translate(3.49 5.91)"/><rect class="cls-4" y="44.6" width="7.43" height="7.43"/><path class="cls-4" d="M-2.75,38.7a.8.8,0,0,1-.74.74V38.7Z" transform="translate(3.49 5.91)"/><path class="cls-4" d="M3.94,38.7v.74a.74.74,0,0,1-.74-.74Z" transform="translate(3.49 5.91)"/><path class="cls-4" d="M-2.75,46.13h-.74v-.74A.74.74,0,0,1-2.75,46.13Z" transform="translate(3.49 5.91)"/><path class="cls-4" d="M3.94,45.39v.74H3.2A.7.7,0,0,1,3.94,45.39Z" transform="translate(3.49 5.91)"/><path class="cls-4" d="M1,42.4a.74.74,0,0,1-.74.74.74.74,0,0,1-.74-.74A.74.74,0,1,1,1,42.4Z" transform="translate(3.49 5.91)"/><rect class="cls-4" y="52.04" width="7.43" height="7.43"/><path class="cls-4" d="M-2.75,46.13a.8.8,0,0,1-.74.74v-.74Z" transform="translate(3.49 5.91)"/><path class="cls-4" d="M3.94,46.13v.74a.74.74,0,0,1-.74-.74Z" transform="translate(3.49 5.91)"/><path class="cls-4" d="M-2.75,53.56h-.74v-.74A.74.74,0,0,1-2.75,53.56Z" transform="translate(3.49 5.91)"/><path class="cls-4" d="M3.94,52.82v.74H3.2A.7.7,0,0,1,3.94,52.82Z" transform="translate(3.49 5.91)"/><path class="cls-4" d="M1,49.83a.74.74,0,0,1-.74.74.74.74,0,0,1,0-1.48A.74.74,0,0,1,1,49.83Z" transform="translate(3.49 5.91)"/><rect class="cls-4" y="59.47" width="7.43" height="7.43"/><path class="cls-4" d="M-2.75,53.56a.8.8,0,0,1-.74.75v-.75Z" transform="translate(3.49 5.91)"/><path class="cls-4" d="M3.94,53.56v.75a.75.75,0,0,1-.74-.75Z" transform="translate(3.49 5.91)"/><path class="cls-4" d="M-2.75,61h-.74v-.75A.75.75,0,0,1-2.75,61Z" transform="translate(3.49 5.91)"/><path class="cls-4" d="M3.94,60.25V61H3.2A.71.71,0,0,1,3.94,60.25Z" transform="translate(3.49 5.91)"/><path class="cls-4" d="M1,57.26A.75.75,0,0,1,.21,58a.75.75,0,0,1-.74-.75.74.74,0,0,1,.74-.74A.74.74,0,0,1,1,57.26Z" transform="translate(3.49 5.91)"/><rect class="cls-4" y="66.9" width="7.43" height="7.43"/><path class="cls-4" d="M-2.75,61a.8.8,0,0,1-.74.74V61Z" transform="translate(3.49 5.91)"/><path class="cls-4" d="M3.94,61v.74A.74.74,0,0,1,3.2,61Z" transform="translate(3.49 5.91)"/><path class="cls-4" d="M-2.75,68.43h-.74v-.74A.74.74,0,0,1-2.75,68.43Z" transform="translate(3.49 5.91)"/><path class="cls-4" d="M3.94,67.69v.74H3.2A.7.7,0,0,1,3.94,67.69Z" transform="translate(3.49 5.91)"/><path class="cls-4" d="M1,64.7a.74.74,0,0,1-.74.74.74.74,0,0,1-.74-.74A.75.75,0,0,1,.21,64,.75.75,0,0,1,1,64.7Z" transform="translate(3.49 5.91)"/><rect class="cls-4" x="29.73" y="44.6" width="7.43" height="7.43"/><path class="cls-4" d="M27,38.7a.81.81,0,0,1-.75.74V38.7Z" transform="translate(3.49 5.91)"/><path class="cls-4" d="M33.68,38.7v.74a.75.75,0,0,1-.75-.74Z" transform="translate(3.49 5.91)"/><path class="cls-4" d="M27,46.13h-.75v-.74A.75.75,0,0,1,27,46.13Z" transform="translate(3.49 5.91)"/><path class="cls-4" d="M33.68,45.39v.74h-.75A.7.7,0,0,1,33.68,45.39Z" transform="translate(3.49 5.91)"/><path class="cls-4" d="M30.69,42.4a.75.75,0,0,1-.75.74.75.75,0,0,1,0-1.49A.75.75,0,0,1,30.69,42.4Z" transform="translate(3.49 5.91)"/><rect class="cls-4" x="29.73" y="52.04" width="7.43" height="7.43"/><path class="cls-4" d="M27,46.13a.81.81,0,0,1-.75.74v-.74Z" transform="translate(3.49 5.91)"/><path class="cls-4" d="M33.68,46.13v.74a.75.75,0,0,1-.75-.74Z" transform="translate(3.49 5.91)"/><path class="cls-4" d="M27,53.56h-.75v-.74A.75.75,0,0,1,27,53.56Z" transform="translate(3.49 5.91)"/><path class="cls-4" d="M33.68,52.82v.74h-.75A.71.71,0,0,1,33.68,52.82Z" transform="translate(3.49 5.91)"/><path class="cls-4" d="M30.69,49.83a.75.75,0,0,1-.75.74.74.74,0,1,1,0-1.48A.75.75,0,0,1,30.69,49.83Z" transform="translate(3.49 5.91)"/><rect class="cls-4" x="22.3" y="44.6" width="7.43" height="7.43"/><path class="cls-4" d="M19.55,38.7a.8.8,0,0,1-.74.74V38.7Z" transform="translate(3.49 5.91)"/><path class="cls-4" d="M26.24,38.7v.74a.74.74,0,0,1-.74-.74Z" transform="translate(3.49 5.91)"/><path class="cls-4" d="M19.55,46.13h-.74v-.74A.74.74,0,0,1,19.55,46.13Z" transform="translate(3.49 5.91)"/><path class="cls-4" d="M26.24,45.39v.74H25.5A.7.7,0,0,1,26.24,45.39Z" transform="translate(3.49 5.91)"/><path class="cls-4" d="M23.25,42.4a.74.74,0,1,1-.74-.75A.74.74,0,0,1,23.25,42.4Z" transform="translate(3.49 5.91)"/><rect class="cls-4" x="22.3" y="52.04" width="7.43" height="7.43"/><path class="cls-4" d="M19.55,46.13a.8.8,0,0,1-.74.74v-.74Z" transform="translate(3.49 5.91)"/><path class="cls-4" d="M26.24,46.13v.74a.74.74,0,0,1-.74-.74Z" transform="translate(3.49 5.91)"/><path class="cls-4" d="M19.55,53.56h-.74v-.74A.74.74,0,0,1,19.55,53.56Z" transform="translate(3.49 5.91)"/><path class="cls-4" d="M26.24,52.82v.74H25.5A.7.7,0,0,1,26.24,52.82Z" transform="translate(3.49 5.91)"/><path class="cls-4" d="M23.25,49.83a.74.74,0,1,1-.74-.74A.74.74,0,0,1,23.25,49.83Z" transform="translate(3.49 5.91)"/><rect class="cls-4" x="14.87" y="44.6" width="7.43" height="7.43"/><path class="cls-4" d="M12.12,38.7a.8.8,0,0,1-.74.74V38.7Z" transform="translate(3.49 5.91)"/><path class="cls-4" d="M18.81,38.7v.74a.74.74,0,0,1-.74-.74Z" transform="translate(3.49 5.91)"/><path class="cls-4" d="M12.12,46.13h-.74v-.74A.74.74,0,0,1,12.12,46.13Z" transform="translate(3.49 5.91)"/><path class="cls-4" d="M18.81,45.39v.74h-.74A.69.69,0,0,1,18.81,45.39Z" transform="translate(3.49 5.91)"/><path class="cls-4" d="M15.82,42.4a.74.74,0,0,1-.74.74.75.75,0,1,1,.74-.74Z" transform="translate(3.49 5.91)"/><rect class="cls-4" x="14.87" y="52.04" width="7.43" height="7.43"/><path class="cls-4" d="M12.12,46.13a.8.8,0,0,1-.74.74v-.74Z" transform="translate(3.49 5.91)"/><path class="cls-4" d="M18.81,46.13v.74a.74.74,0,0,1-.74-.74Z" transform="translate(3.49 5.91)"/><path class="cls-4" d="M12.12,53.56h-.74v-.74A.74.74,0,0,1,12.12,53.56Z" transform="translate(3.49 5.91)"/><path class="cls-4" d="M18.81,52.82v.74h-.74A.7.7,0,0,1,18.81,52.82Z" transform="translate(3.49 5.91)"/><path class="cls-4" d="M15.82,49.83a.74.74,0,0,1-.74.74.74.74,0,1,1,0-1.48A.74.74,0,0,1,15.82,49.83Z" transform="translate(3.49 5.91)"/><rect class="cls-4" x="29.73" y="14.87" width="7.43" height="7.43"/><path class="cls-4" d="M27,9a.81.81,0,0,1-.75.75V9Z" transform="translate(3.49 5.91)"/><path class="cls-4" d="M33.68,9v.75A.75.75,0,0,1,32.93,9Z" transform="translate(3.49 5.91)"/><path class="cls-4" d="M27,16.4h-.75v-.75A.75.75,0,0,1,27,16.4Z" transform="translate(3.49 5.91)"/><path class="cls-4" d="M33.68,15.65v.75h-.75A.71.71,0,0,1,33.68,15.65Z" transform="translate(3.49 5.91)"/><path class="cls-4" d="M30.69,12.66a.75.75,0,0,1-.75.74.74.74,0,0,1,0-1.48A.75.75,0,0,1,30.69,12.66Z" transform="translate(3.49 5.91)"/><rect class="cls-4" x="29.73" y="22.3" width="7.43" height="7.43"/><path class="cls-4" d="M27,16.4a.81.81,0,0,1-.75.74V16.4Z" transform="translate(3.49 5.91)"/><path class="cls-4" d="M33.68,16.4v.74a.75.75,0,0,1-.75-.74Z" transform="translate(3.49 5.91)"/><path class="cls-4" d="M27,23.83h-.75v-.74A.75.75,0,0,1,27,23.83Z" transform="translate(3.49 5.91)"/><path class="cls-4" d="M33.68,23.09v.74h-.75A.7.7,0,0,1,33.68,23.09Z" transform="translate(3.49 5.91)"/><path class="cls-4" d="M30.69,20.09a.76.76,0,0,1-.75.75.75.75,0,0,1-.74-.75.74.74,0,0,1,.74-.74A.75.75,0,0,1,30.69,20.09Z" transform="translate(3.49 5.91)"/><rect class="cls-4" x="29.73" y="29.73" width="7.43" height="7.43"/><path class="cls-4" d="M27,23.83a.81.81,0,0,1-.75.74v-.74Z" transform="translate(3.49 5.91)"/><path class="cls-4" d="M33.68,23.83v.74a.75.75,0,0,1-.75-.74Z" transform="translate(3.49 5.91)"/><path class="cls-4" d="M27,31.26h-.75v-.74A.75.75,0,0,1,27,31.26Z" transform="translate(3.49 5.91)"/><path class="cls-4" d="M33.68,30.52v.74h-.75A.71.71,0,0,1,33.68,30.52Z" transform="translate(3.49 5.91)"/><path class="cls-4" d="M30.69,27.53a.75.75,0,0,1-.75.74.74.74,0,0,1-.74-.74.75.75,0,0,1,.74-.75A.76.76,0,0,1,30.69,27.53Z" transform="translate(3.49 5.91)"/><rect class="cls-4" x="22.3" y="14.87" width="7.43" height="7.43"/><path class="cls-4" d="M19.55,9a.81.81,0,0,1-.74.75V9Z" transform="translate(3.49 5.91)"/><path class="cls-4" d="M26.24,9v.75A.75.75,0,0,1,25.5,9Z" transform="translate(3.49 5.91)"/><path class="cls-4" d="M19.55,16.4h-.74v-.75A.75.75,0,0,1,19.55,16.4Z" transform="translate(3.49 5.91)"/><path class="cls-4" d="M26.24,15.65v.75H25.5A.71.71,0,0,1,26.24,15.65Z" transform="translate(3.49 5.91)"/><path class="cls-4" d="M23.25,12.66a.74.74,0,1,1-.74-.74A.74.74,0,0,1,23.25,12.66Z" transform="translate(3.49 5.91)"/><rect class="cls-4" x="22.3" y="22.3" width="7.43" height="7.43"/><path class="cls-4" d="M19.55,16.4a.8.8,0,0,1-.74.74V16.4Z" transform="translate(3.49 5.91)"/><path class="cls-4" d="M26.24,16.4v.74a.74.74,0,0,1-.74-.74Z" transform="translate(3.49 5.91)"/><path class="cls-4" d="M19.55,23.83h-.74v-.74A.74.74,0,0,1,19.55,23.83Z" transform="translate(3.49 5.91)"/><path class="cls-4" d="M26.24,23.09v.74H25.5A.7.7,0,0,1,26.24,23.09Z" transform="translate(3.49 5.91)"/><path class="cls-4" d="M23.25,20.09a.74.74,0,1,1-1.48,0,.74.74,0,0,1,1.48,0Z" transform="translate(3.49 5.91)"/><rect class="cls-4" x="22.3" y="29.73" width="7.43" height="7.43"/><path class="cls-4" d="M19.55,23.83a.8.8,0,0,1-.74.74v-.74Z" transform="translate(3.49 5.91)"/><path class="cls-4" d="M26.24,23.83v.74a.74.74,0,0,1-.74-.74Z" transform="translate(3.49 5.91)"/><path class="cls-4" d="M19.55,31.26h-.74v-.74A.74.74,0,0,1,19.55,31.26Z" transform="translate(3.49 5.91)"/><path class="cls-4" d="M26.24,30.52v.74H25.5A.7.7,0,0,1,26.24,30.52Z" transform="translate(3.49 5.91)"/><path class="cls-4" d="M23.25,27.53a.74.74,0,0,1-1.48,0,.74.74,0,1,1,1.48,0Z" transform="translate(3.49 5.91)"/><rect class="cls-4" x="14.87" y="14.87" width="7.43" height="7.43"/><path class="cls-4" d="M12.12,9a.81.81,0,0,1-.74.75V9Z" transform="translate(3.49 5.91)"/><path class="cls-4" d="M18.81,9v.75A.75.75,0,0,1,18.07,9Z" transform="translate(3.49 5.91)"/><path class="cls-4" d="M12.12,16.4h-.74v-.75A.75.75,0,0,1,12.12,16.4Z" transform="translate(3.49 5.91)"/><path class="cls-4" d="M18.81,15.65v.75h-.74A.7.7,0,0,1,18.81,15.65Z" transform="translate(3.49 5.91)"/><path class="cls-4" d="M15.82,12.66a.74.74,0,0,1-.74.74.74.74,0,1,1,0-1.48A.74.74,0,0,1,15.82,12.66Z" transform="translate(3.49 5.91)"/><rect class="cls-4" x="14.87" y="22.3" width="7.43" height="7.43"/><path class="cls-4" d="M12.12,16.4a.8.8,0,0,1-.74.74V16.4Z" transform="translate(3.49 5.91)"/><path class="cls-4" d="M18.81,16.4v.74a.74.74,0,0,1-.74-.74Z" transform="translate(3.49 5.91)"/><path class="cls-4" d="M12.12,23.83h-.74v-.74A.74.74,0,0,1,12.12,23.83Z" transform="translate(3.49 5.91)"/><path class="cls-4" d="M18.81,23.09v.74h-.74A.69.69,0,0,1,18.81,23.09Z" transform="translate(3.49 5.91)"/><path class="cls-4" d="M15.82,20.09a.75.75,0,0,1-.74.75.76.76,0,0,1-.75-.75.75.75,0,0,1,.75-.74A.74.74,0,0,1,15.82,20.09Z" transform="translate(3.49 5.91)"/><rect class="cls-4" x="14.87" y="29.73" width="7.43" height="7.43"/><path class="cls-4" d="M12.12,23.83a.8.8,0,0,1-.74.74v-.74Z" transform="translate(3.49 5.91)"/><path class="cls-4" d="M18.81,23.83v.74a.74.74,0,0,1-.74-.74Z" transform="translate(3.49 5.91)"/><path class="cls-4" d="M12.12,31.26h-.74v-.74A.74.74,0,0,1,12.12,31.26Z" transform="translate(3.49 5.91)"/><path class="cls-4" d="M18.81,30.52v.74h-.74A.7.7,0,0,1,18.81,30.52Z" transform="translate(3.49 5.91)"/><path class="cls-4" d="M15.82,27.53a.74.74,0,0,1-.74.74.75.75,0,0,1-.75-.74.76.76,0,0,1,.75-.75A.75.75,0,0,1,15.82,27.53Z" transform="translate(3.49 5.91)"/></g><path class="cls-5" d="M22.42,66.78C8.81,66.78,0,58.82,0,46.49A17.14,17.14,0,0,1,3.25,35.93a19.28,19.28,0,0,1,3.28-3.47c-4.28-4-5.91-7.6-5.91-12.89C.62,8.23,9.79,0,22.42,0s21.8,8.23,21.8,19.57c0,5.3-1.62,8.9-5.92,12.9,4.75,4.15,6.55,8,6.55,13.94C44.85,58.78,36,66.78,22.42,66.78Zm0-64.55C11.09,2.23,2.86,9.52,2.86,19.57c0,5,1.6,8.16,6.12,12.09l1,.87-1.05.84A18,18,0,0,0,5,37.27a14.88,14.88,0,0,0-2.8,9.22c0,11,7.92,18.06,20.18,18.06s20.19-7.12,20.19-18.14c0-5.6-1.75-9-6.71-13l-1-.83,1-.87C40.39,27.73,42,24.57,42,19.57,42,9.52,33.76,2.23,22.42,2.23Zm0,51.35a7.8,7.8,0,1,1,7.81-7.71A7.81,7.81,0,0,1,22.42,53.58Zm0-13.37A5.57,5.57,0,1,0,28,45.87,5.55,5.55,0,0,0,22.42,40.21Zm0-12.66a7.18,7.18,0,1,1,7.18-7.09A7.11,7.11,0,0,1,22.42,27.55Zm0-12.13a5,5,0,1,0,4.95,5A4.9,4.9,0,0,0,22.42,15.42Z" transform="translate(3.49 5.91)"/></g></g></svg>