<svg xmlns="http://www.w3.org/2000/svg" xmlns:xlink="http://www.w3.org/1999/xlink" viewBox="0 0 56.08 70.48"><defs><style>.cls-1{fill:none;}.cls-2{fill:#f3f3f5;}.cls-3{clip-path:url(#clip-path);}.cls-4{fill:#00abc8;}.cls-5{fill:#0075a2;}</style><clipPath id="clip-path" transform="translate(4.15)"><path class="cls-1" d="M41.32,56.21v8.38H27.42V56.21H1.12V42.3l21-41.18H38.2l-21,41.18H27.42V33.92h13.9V42.3H46V56.21Z"/></clipPath></defs><g id="Layer_2" data-name="Layer 2"><g id="Section_2" data-name="Section 2"><path class="cls-2" d="M47.2,62.1v8.38H33.3V62.1H7V48.19L28,7H44.09L23,48.19H33.3V39.81H47.2v8.38h4.73V62.1Z" transform="translate(4.15)"/><g class="cls-3"><rect class="cls-4" x="44.6" y="0.39" width="7.43" height="7.43"/><path class="cls-4" d="M41.19.39a.8.8,0,0,1-.74.74V.39Z" transform="translate(4.15)"/><path class="cls-4" d="M47.88.39v.74a.74.74,0,0,1-.74-.74Z" transform="translate(4.15)"/><path class="cls-4" d="M41.19,7.82h-.74V7.08A.74.74,0,0,1,41.19,7.82Z" transform="translate(4.15)"/><path class="cls-4" d="M47.88,7.08v.74h-.74A.7.7,0,0,1,47.88,7.08Z" transform="translate(4.15)"/><path class="cls-4" d="M44.89,4.09a.74.74,0,1,1-1.48,0,.74.74,0,1,1,1.48,0Z" transform="translate(4.15)"/><rect class="cls-4" x="44.6" y="7.82" width="7.43" height="7.43"/><path class="cls-4" d="M41.19,7.82a.81.81,0,0,1-.74.75V7.82Z" transform="translate(4.15)"/><path class="cls-4" d="M47.88,7.82v.75a.75.75,0,0,1-.74-.75Z" transform="translate(4.15)"/><path class="cls-4" d="M41.19,15.26h-.74v-.75A.75.75,0,0,1,41.19,15.26Z" transform="translate(4.15)"/><path class="cls-4" d="M47.88,14.51v.75h-.74A.71.71,0,0,1,47.88,14.51Z" transform="translate(4.15)"/><path class="cls-4" d="M44.89,11.52a.74.74,0,1,1-.74-.74A.74.74,0,0,1,44.89,11.52Z" transform="translate(4.15)"/><rect class="cls-4" x="44.6" y="15.26" width="7.43" height="7.43"/><path class="cls-4" d="M41.19,15.26a.8.8,0,0,1-.74.74v-.74Z" transform="translate(4.15)"/><path class="cls-4" d="M47.88,15.26V16a.74.74,0,0,1-.74-.74Z" transform="translate(4.15)"/><path class="cls-4" d="M41.19,22.69h-.74V22A.74.74,0,0,1,41.19,22.69Z" transform="translate(4.15)"/><path class="cls-4" d="M47.88,22v.74h-.74A.7.7,0,0,1,47.88,22Z" transform="translate(4.15)"/><path class="cls-4" d="M44.89,19a.74.74,0,1,1-1.48,0,.74.74,0,1,1,1.48,0Z" transform="translate(4.15)"/><rect class="cls-4" x="44.6" y="22.69" width="7.43" height="7.43"/><path class="cls-4" d="M41.19,22.69a.8.8,0,0,1-.74.74v-.74Z" transform="translate(4.15)"/><path class="cls-4" d="M47.88,22.69v.74a.74.74,0,0,1-.74-.74Z" transform="translate(4.15)"/><path class="cls-4" d="M41.19,30.12h-.74v-.74A.74.74,0,0,1,41.19,30.12Z" transform="translate(4.15)"/><path class="cls-4" d="M47.88,29.38v.74h-.74A.7.7,0,0,1,47.88,29.38Z" transform="translate(4.15)"/><path class="cls-4" d="M44.89,26.39a.74.74,0,1,1-1.48,0,.74.74,0,1,1,1.48,0Z" transform="translate(4.15)"/><rect class="cls-4" x="44.6" y="30.12" width="7.43" height="7.43"/><path class="cls-4" d="M41.19,30.12a.81.81,0,0,1-.74.75v-.75Z" transform="translate(4.15)"/><path class="cls-4" d="M47.88,30.12v.75a.75.75,0,0,1-.74-.75Z" transform="translate(4.15)"/><path class="cls-4" d="M41.19,37.56h-.74v-.75A.75.75,0,0,1,41.19,37.56Z" transform="translate(4.15)"/><path class="cls-4" d="M47.88,36.81v.75h-.74A.71.71,0,0,1,47.88,36.81Z" transform="translate(4.15)"/><path class="cls-4" d="M44.89,33.82a.74.74,0,1,1-1.48,0,.74.74,0,0,1,1.48,0Z" transform="translate(4.15)"/><rect class="cls-4" x="44.6" y="37.56" width="7.43" height="7.43"/><path class="cls-4" d="M41.19,37.56a.8.8,0,0,1-.74.74v-.74Z" transform="translate(4.15)"/><path class="cls-4" d="M47.88,37.56v.74a.74.74,0,0,1-.74-.74Z" transform="translate(4.15)"/><path class="cls-4" d="M41.19,45h-.74v-.74A.74.74,0,0,1,41.19,45Z" transform="translate(4.15)"/><path class="cls-4" d="M47.88,44.25V45h-.74A.7.7,0,0,1,47.88,44.25Z" transform="translate(4.15)"/><path class="cls-4" d="M44.89,41.26a.74.74,0,1,1-.74-.75A.74.74,0,0,1,44.89,41.26Z" transform="translate(4.15)"/><rect class="cls-4" x="44.6" y="44.99" width="7.43" height="7.43"/><path class="cls-4" d="M41.19,45a.8.8,0,0,1-.74.74V45Z" transform="translate(4.15)"/><path class="cls-4" d="M47.88,45v.74a.74.74,0,0,1-.74-.74Z" transform="translate(4.15)"/><path class="cls-4" d="M41.19,52.42h-.74v-.74A.74.74,0,0,1,41.19,52.42Z" transform="translate(4.15)"/><path class="cls-4" d="M47.88,51.68v.74h-.74A.7.7,0,0,1,47.88,51.68Z" transform="translate(4.15)"/><path class="cls-4" d="M44.89,48.69a.74.74,0,1,1-.74-.74A.74.74,0,0,1,44.89,48.69Z" transform="translate(4.15)"/><rect class="cls-4" x="44.6" y="52.42" width="7.43" height="7.43"/><path class="cls-4" d="M41.19,52.42a.8.8,0,0,1-.74.75v-.75Z" transform="translate(4.15)"/><path class="cls-4" d="M47.88,52.42v.75a.75.75,0,0,1-.74-.75Z" transform="translate(4.15)"/><path class="cls-4" d="M41.19,59.86h-.74v-.75A.75.75,0,0,1,41.19,59.86Z" transform="translate(4.15)"/><path class="cls-4" d="M47.88,59.11v.75h-.74A.71.71,0,0,1,47.88,59.11Z" transform="translate(4.15)"/><path class="cls-4" d="M44.89,56.12a.74.74,0,1,1-1.48,0,.74.74,0,1,1,1.48,0Z" transform="translate(4.15)"/><rect class="cls-4" x="44.6" y="59.86" width="7.43" height="7.43"/><path class="cls-4" d="M41.19,59.86a.8.8,0,0,1-.74.74v-.74Z" transform="translate(4.15)"/><path class="cls-4" d="M47.88,59.86v.74a.74.74,0,0,1-.74-.74Z" transform="translate(4.15)"/><path class="cls-4" d="M41.19,67.29h-.74v-.74A.74.74,0,0,1,41.19,67.29Z" transform="translate(4.15)"/><path class="cls-4" d="M47.88,66.55v.74h-.74A.7.7,0,0,1,47.88,66.55Z" transform="translate(4.15)"/><path class="cls-4" d="M44.89,63.56a.74.74,0,0,1-1.48,0,.74.74,0,1,1,1.48,0Z" transform="translate(4.15)"/><rect class="cls-4" x="37.17" y="0.39" width="7.43" height="7.43"/><path class="cls-4" d="M33.76.39a.8.8,0,0,1-.74.74V.39Z" transform="translate(4.15)"/><path class="cls-4" d="M40.45.39v.74a.74.74,0,0,1-.74-.74Z" transform="translate(4.15)"/><path class="cls-4" d="M33.76,7.82H33V7.08A.74.74,0,0,1,33.76,7.82Z" transform="translate(4.15)"/><path class="cls-4" d="M40.45,7.08v.74h-.74A.7.7,0,0,1,40.45,7.08Z" transform="translate(4.15)"/><circle class="cls-4" cx="40.87" cy="4.09" r="0.74"/><rect class="cls-4" x="37.17" y="7.82" width="7.43" height="7.43"/><path class="cls-4" d="M33.76,7.82a.81.81,0,0,1-.74.75V7.82Z" transform="translate(4.15)"/><path class="cls-4" d="M40.45,7.82v.75a.75.75,0,0,1-.74-.75Z" transform="translate(4.15)"/><path class="cls-4" d="M33.76,15.26H33v-.75A.75.75,0,0,1,33.76,15.26Z" transform="translate(4.15)"/><path class="cls-4" d="M40.45,14.51v.75h-.74A.7.7,0,0,1,40.45,14.51Z" transform="translate(4.15)"/><path class="cls-4" d="M37.46,11.52a.74.74,0,0,1-.74.74.74.74,0,1,1,0-1.48A.74.74,0,0,1,37.46,11.52Z" transform="translate(4.15)"/><rect class="cls-4" x="37.17" y="15.26" width="7.43" height="7.43"/><path class="cls-4" d="M33.76,15.26A.8.8,0,0,1,33,16v-.74Z" transform="translate(4.15)"/><path class="cls-4" d="M40.45,15.26V16a.74.74,0,0,1-.74-.74Z" transform="translate(4.15)"/><path class="cls-4" d="M33.76,22.69H33V22A.74.74,0,0,1,33.76,22.69Z" transform="translate(4.15)"/><path class="cls-4" d="M40.45,22v.74h-.74A.69.69,0,0,1,40.45,22Z" transform="translate(4.15)"/><path class="cls-4" d="M37.46,19a.75.75,0,0,1-.74.75A.76.76,0,0,1,36,19a.75.75,0,0,1,.75-.74A.74.74,0,0,1,37.46,19Z" transform="translate(4.15)"/><rect class="cls-4" x="37.17" y="22.69" width="7.43" height="7.43"/><path class="cls-4" d="M33.76,22.69a.8.8,0,0,1-.74.74v-.74Z" transform="translate(4.15)"/><path class="cls-4" d="M40.45,22.69v.74a.74.74,0,0,1-.74-.74Z" transform="translate(4.15)"/><path class="cls-4" d="M33.76,30.12H33v-.74A.74.74,0,0,1,33.76,30.12Z" transform="translate(4.15)"/><path class="cls-4" d="M40.45,29.38v.74h-.74A.7.7,0,0,1,40.45,29.38Z" transform="translate(4.15)"/><path class="cls-4" d="M37.46,26.39a.74.74,0,0,1-.74.74.75.75,0,0,1-.75-.74.76.76,0,0,1,.75-.75A.75.75,0,0,1,37.46,26.39Z" transform="translate(4.15)"/><rect class="cls-4" x="37.17" y="30.12" width="7.43" height="7.43"/><path class="cls-4" d="M33.76,30.12a.81.81,0,0,1-.74.75v-.75Z" transform="translate(4.15)"/><path class="cls-4" d="M40.45,30.12v.75a.75.75,0,0,1-.74-.75Z" transform="translate(4.15)"/><path class="cls-4" d="M33.76,37.56H33v-.75A.75.75,0,0,1,33.76,37.56Z" transform="translate(4.15)"/><path class="cls-4" d="M40.45,36.81v.75h-.74A.7.7,0,0,1,40.45,36.81Z" transform="translate(4.15)"/><path class="cls-4" d="M37.46,33.82a.75.75,0,0,1-.74.75.76.76,0,0,1-.75-.75.75.75,0,0,1,.75-.74A.74.74,0,0,1,37.46,33.82Z" transform="translate(4.15)"/><rect class="cls-4" x="37.17" y="37.56" width="7.43" height="7.43"/><path class="cls-4" d="M33.76,37.56a.8.8,0,0,1-.74.74v-.74Z" transform="translate(4.15)"/><path class="cls-4" d="M40.45,37.56v.74a.74.74,0,0,1-.74-.74Z" transform="translate(4.15)"/><path class="cls-4" d="M33.76,45H33v-.74A.74.74,0,0,1,33.76,45Z" transform="translate(4.15)"/><path class="cls-4" d="M40.45,44.25V45h-.74A.69.69,0,0,1,40.45,44.25Z" transform="translate(4.15)"/><path class="cls-4" d="M37.46,41.26a.74.74,0,0,1-.74.74.75.75,0,1,1,.74-.74Z" transform="translate(4.15)"/><rect class="cls-4" x="37.17" y="44.99" width="7.43" height="7.43"/><path class="cls-4" d="M33.76,45a.8.8,0,0,1-.74.74V45Z" transform="translate(4.15)"/><path class="cls-4" d="M40.45,45v.74a.74.74,0,0,1-.74-.74Z" transform="translate(4.15)"/><path class="cls-4" d="M33.76,52.42H33v-.74A.74.74,0,0,1,33.76,52.42Z" transform="translate(4.15)"/><path class="cls-4" d="M40.45,51.68v.74h-.74A.7.7,0,0,1,40.45,51.68Z" transform="translate(4.15)"/><path class="cls-4" d="M37.46,48.69a.74.74,0,0,1-.74.74.74.74,0,1,1,0-1.48A.74.74,0,0,1,37.46,48.69Z" transform="translate(4.15)"/><rect class="cls-4" x="37.17" y="52.42" width="7.43" height="7.43"/><path class="cls-4" d="M33.76,52.42a.8.8,0,0,1-.74.75v-.75Z" transform="translate(4.15)"/><path class="cls-4" d="M40.45,52.42v.75a.74.74,0,0,1-.74-.75Z" transform="translate(4.15)"/><path class="cls-4" d="M33.76,59.86H33v-.75A.75.75,0,0,1,33.76,59.86Z" transform="translate(4.15)"/><path class="cls-4" d="M40.45,59.11v.75h-.74A.7.7,0,0,1,40.45,59.11Z" transform="translate(4.15)"/><circle class="cls-4" cx="40.87" cy="56.12" r="0.74"/><rect class="cls-4" x="37.17" y="59.86" width="7.43" height="7.43"/><path class="cls-4" d="M33.76,59.86a.8.8,0,0,1-.74.74v-.74Z" transform="translate(4.15)"/><path class="cls-4" d="M40.45,59.86v.74a.74.74,0,0,1-.74-.74Z" transform="translate(4.15)"/><path class="cls-4" d="M33.76,67.29H33v-.74A.74.74,0,0,1,33.76,67.29Z" transform="translate(4.15)"/><path class="cls-4" d="M40.45,66.55v.74h-.74A.7.7,0,0,1,40.45,66.55Z" transform="translate(4.15)"/><path class="cls-4" d="M37.46,63.56a.74.74,0,0,1-.74.74.75.75,0,0,1-.75-.74.76.76,0,0,1,.75-.75A.75.75,0,0,1,37.46,63.56Z" transform="translate(4.15)"/><rect class="cls-4" x="29.73" y="0.39" width="7.43" height="7.43"/><path class="cls-4" d="M26.33.39a.81.81,0,0,1-.75.74V.39Z" transform="translate(4.15)"/><path class="cls-4" d="M33,.39v.74a.75.75,0,0,1-.75-.74Z" transform="translate(4.15)"/><path class="cls-4" d="M26.33,7.82h-.75V7.08A.75.75,0,0,1,26.33,7.82Z" transform="translate(4.15)"/><path class="cls-4" d="M33,7.08v.74h-.75A.71.71,0,0,1,33,7.08Z" transform="translate(4.15)"/><path class="cls-4" d="M30,4.09a.75.75,0,0,1-.75.74.74.74,0,0,1-.74-.74.75.75,0,0,1,.74-.75A.76.76,0,0,1,30,4.09Z" transform="translate(4.15)"/><rect class="cls-4" x="29.73" y="7.82" width="7.43" height="7.43"/><path class="cls-4" d="M26.33,7.82a.81.81,0,0,1-.75.75V7.82Z" transform="translate(4.15)"/><path class="cls-4" d="M33,7.82v.75a.75.75,0,0,1-.75-.75Z" transform="translate(4.15)"/><path class="cls-4" d="M26.33,15.26h-.75v-.75A.75.75,0,0,1,26.33,15.26Z" transform="translate(4.15)"/><path class="cls-4" d="M33,14.51v.75h-.75A.71.71,0,0,1,33,14.51Z" transform="translate(4.15)"/><path class="cls-4" d="M30,11.52a.75.75,0,0,1-.75.74.74.74,0,0,1,0-1.48A.75.75,0,0,1,30,11.52Z" transform="translate(4.15)"/><rect class="cls-4" x="29.73" y="15.26" width="7.43" height="7.43"/><path class="cls-4" d="M26.33,15.26a.81.81,0,0,1-.75.74v-.74Z" transform="translate(4.15)"/><path class="cls-4" d="M33,15.26V16a.75.75,0,0,1-.75-.74Z" transform="translate(4.15)"/><path class="cls-4" d="M26.33,22.69h-.75V22A.75.75,0,0,1,26.33,22.69Z" transform="translate(4.15)"/><path class="cls-4" d="M33,22v.74h-.75A.7.7,0,0,1,33,22Z" transform="translate(4.15)"/><path class="cls-4" d="M30,19a.76.76,0,0,1-.75.75.75.75,0,0,1-.74-.75.74.74,0,0,1,.74-.74A.75.75,0,0,1,30,19Z" transform="translate(4.15)"/><rect class="cls-4" x="29.73" y="22.69" width="7.43" height="7.43"/><path class="cls-4" d="M26.33,22.69a.81.81,0,0,1-.75.74v-.74Z" transform="translate(4.15)"/><path class="cls-4" d="M33,22.69v.74a.75.75,0,0,1-.75-.74Z" transform="translate(4.15)"/><path class="cls-4" d="M26.33,30.12h-.75v-.74A.75.75,0,0,1,26.33,30.12Z" transform="translate(4.15)"/><path class="cls-4" d="M33,29.38v.74h-.75A.71.71,0,0,1,33,29.38Z" transform="translate(4.15)"/><path class="cls-4" d="M30,26.39a.75.75,0,0,1-.75.74.74.74,0,0,1-.74-.74.75.75,0,0,1,.74-.75A.76.76,0,0,1,30,26.39Z" transform="translate(4.15)"/><rect class="cls-4" x="29.73" y="30.12" width="7.43" height="7.43"/><path class="cls-4" d="M26.33,30.12a.81.81,0,0,1-.75.75v-.75Z" transform="translate(4.15)"/><path class="cls-4" d="M33,30.12v.75a.75.75,0,0,1-.75-.75Z" transform="translate(4.15)"/><path class="cls-4" d="M26.33,37.56h-.75v-.75A.75.75,0,0,1,26.33,37.56Z" transform="translate(4.15)"/><path class="cls-4" d="M33,36.81v.75h-.75A.71.71,0,0,1,33,36.81Z" transform="translate(4.15)"/><path class="cls-4" d="M30,33.82a.76.76,0,0,1-.75.75.75.75,0,0,1-.74-.75.74.74,0,0,1,.74-.74A.75.75,0,0,1,30,33.82Z" transform="translate(4.15)"/><rect class="cls-4" x="29.73" y="37.56" width="7.43" height="7.43"/><path class="cls-4" d="M26.33,37.56a.81.81,0,0,1-.75.74v-.74Z" transform="translate(4.15)"/><path class="cls-4" d="M33,37.56v.74a.75.75,0,0,1-.75-.74Z" transform="translate(4.15)"/><path class="cls-4" d="M26.33,45h-.75v-.74A.75.75,0,0,1,26.33,45Z" transform="translate(4.15)"/><path class="cls-4" d="M33,44.25V45h-.75A.7.7,0,0,1,33,44.25Z" transform="translate(4.15)"/><path class="cls-4" d="M30,41.26a.75.75,0,0,1-.75.74.75.75,0,0,1,0-1.49A.75.75,0,0,1,30,41.26Z" transform="translate(4.15)"/><rect class="cls-4" x="29.73" y="44.99" width="7.43" height="7.43"/><path class="cls-4" d="M26.33,45a.81.81,0,0,1-.75.74V45Z" transform="translate(4.15)"/><path class="cls-4" d="M33,45v.74a.75.75,0,0,1-.75-.74Z" transform="translate(4.15)"/><path class="cls-4" d="M26.33,52.42h-.75v-.74A.75.75,0,0,1,26.33,52.42Z" transform="translate(4.15)"/><path class="cls-4" d="M33,51.68v.74h-.75A.71.71,0,0,1,33,51.68Z" transform="translate(4.15)"/><path class="cls-4" d="M30,48.69a.75.75,0,0,1-.75.74.74.74,0,1,1,0-1.48A.75.75,0,0,1,30,48.69Z" transform="translate(4.15)"/><rect class="cls-4" x="29.73" y="52.42" width="7.43" height="7.43"/><path class="cls-4" d="M26.33,52.42a.81.81,0,0,1-.75.75v-.75Z" transform="translate(4.15)"/><path class="cls-4" d="M33,52.42v.75a.75.75,0,0,1-.75-.75Z" transform="translate(4.15)"/><path class="cls-4" d="M26.33,59.86h-.75v-.75A.75.75,0,0,1,26.33,59.86Z" transform="translate(4.15)"/><path class="cls-4" d="M33,59.11v.75h-.75A.71.71,0,0,1,33,59.11Z" transform="translate(4.15)"/><path class="cls-4" d="M30,56.12a.76.76,0,0,1-.75.75.75.75,0,0,1-.74-.75.74.74,0,0,1,.74-.74A.75.75,0,0,1,30,56.12Z" transform="translate(4.15)"/><rect class="cls-4" x="29.73" y="59.86" width="7.43" height="7.43"/><path class="cls-4" d="M26.33,59.86a.81.81,0,0,1-.75.74v-.74Z" transform="translate(4.15)"/><path class="cls-4" d="M33,59.86v.74a.75.75,0,0,1-.75-.74Z" transform="translate(4.15)"/><path class="cls-4" d="M26.33,67.29h-.75v-.74A.75.75,0,0,1,26.33,67.29Z" transform="translate(4.15)"/><path class="cls-4" d="M33,66.55v.74h-.75A.71.71,0,0,1,33,66.55Z" transform="translate(4.15)"/><path class="cls-4" d="M30,63.56a.75.75,0,0,1-.75.74.74.74,0,0,1-.74-.74.75.75,0,0,1,.74-.75A.76.76,0,0,1,30,63.56Z" transform="translate(4.15)"/><rect class="cls-4" x="22.3" y="0.39" width="7.43" height="7.43"/><path class="cls-4" d="M18.89.39a.8.8,0,0,1-.74.74V.39Z" transform="translate(4.15)"/><path class="cls-4" d="M25.58.39v.74a.74.74,0,0,1-.74-.74Z" transform="translate(4.15)"/><path class="cls-4" d="M18.89,7.82h-.74V7.08A.74.74,0,0,1,18.89,7.82Z" transform="translate(4.15)"/><path class="cls-4" d="M25.58,7.08v.74h-.74A.7.7,0,0,1,25.58,7.08Z" transform="translate(4.15)"/><path class="cls-4" d="M22.59,4.09a.74.74,0,0,1-1.48,0,.74.74,0,1,1,1.48,0Z" transform="translate(4.15)"/><rect class="cls-4" x="22.3" y="7.82" width="7.43" height="7.43"/><path class="cls-4" d="M18.89,7.82a.81.81,0,0,1-.74.75V7.82Z" transform="translate(4.15)"/><path class="cls-4" d="M25.58,7.82v.75a.75.75,0,0,1-.74-.75Z" transform="translate(4.15)"/><path class="cls-4" d="M18.89,15.26h-.74v-.75A.75.75,0,0,1,18.89,15.26Z" transform="translate(4.15)"/><path class="cls-4" d="M25.58,14.51v.75h-.74A.71.71,0,0,1,25.58,14.51Z" transform="translate(4.15)"/><path class="cls-4" d="M22.59,11.52a.74.74,0,1,1-.74-.74A.74.74,0,0,1,22.59,11.52Z" transform="translate(4.15)"/><rect class="cls-4" x="22.3" y="15.26" width="7.43" height="7.43"/><path class="cls-4" d="M18.89,15.26a.8.8,0,0,1-.74.74v-.74Z" transform="translate(4.15)"/><path class="cls-4" d="M25.58,15.26V16a.74.74,0,0,1-.74-.74Z" transform="translate(4.15)"/><path class="cls-4" d="M18.89,22.69h-.74V22A.74.74,0,0,1,18.89,22.69Z" transform="translate(4.15)"/><path class="cls-4" d="M25.58,22v.74h-.74A.7.7,0,0,1,25.58,22Z" transform="translate(4.15)"/><path class="cls-4" d="M22.59,19a.74.74,0,1,1-1.48,0,.74.74,0,0,1,1.48,0Z" transform="translate(4.15)"/><rect class="cls-4" x="22.3" y="22.69" width="7.43" height="7.43"/><path class="cls-4" d="M18.89,22.69a.8.8,0,0,1-.74.74v-.74Z" transform="translate(4.15)"/><path class="cls-4" d="M25.58,22.69v.74a.74.74,0,0,1-.74-.74Z" transform="translate(4.15)"/><path class="cls-4" d="M18.89,30.12h-.74v-.74A.74.74,0,0,1,18.89,30.12Z" transform="translate(4.15)"/><path class="cls-4" d="M25.58,29.38v.74h-.74A.7.7,0,0,1,25.58,29.38Z" transform="translate(4.15)"/><path class="cls-4" d="M22.59,26.39a.74.74,0,0,1-1.48,0,.74.74,0,1,1,1.48,0Z" transform="translate(4.15)"/><rect class="cls-4" x="22.3" y="30.12" width="7.43" height="7.43"/><path class="cls-4" d="M18.89,30.12a.81.81,0,0,1-.74.75v-.75Z" transform="translate(4.15)"/><path class="cls-4" d="M25.58,30.12v.75a.75.75,0,0,1-.74-.75Z" transform="translate(4.15)"/><path class="cls-4" d="M18.89,37.56h-.74v-.75A.75.75,0,0,1,18.89,37.56Z" transform="translate(4.15)"/><path class="cls-4" d="M25.58,36.81v.75h-.74A.71.71,0,0,1,25.58,36.81Z" transform="translate(4.15)"/><path class="cls-4" d="M22.59,33.82a.74.74,0,1,1-1.48,0,.74.74,0,0,1,1.48,0Z" transform="translate(4.15)"/><rect class="cls-4" x="22.3" y="37.56" width="7.43" height="7.43"/><path class="cls-4" d="M18.89,37.56a.8.8,0,0,1-.74.74v-.74Z" transform="translate(4.15)"/><path class="cls-4" d="M25.58,37.56v.74a.74.74,0,0,1-.74-.74Z" transform="translate(4.15)"/><path class="cls-4" d="M18.89,45h-.74v-.74A.74.74,0,0,1,18.89,45Z" transform="translate(4.15)"/><path class="cls-4" d="M25.58,44.25V45h-.74A.7.7,0,0,1,25.58,44.25Z" transform="translate(4.15)"/><path class="cls-4" d="M22.59,41.26a.74.74,0,1,1-.74-.75A.74.74,0,0,1,22.59,41.26Z" transform="translate(4.15)"/><rect class="cls-4" x="22.3" y="44.99" width="7.43" height="7.43"/><path class="cls-4" d="M18.89,45a.8.8,0,0,1-.74.74V45Z" transform="translate(4.15)"/><path class="cls-4" d="M25.58,45v.74a.74.74,0,0,1-.74-.74Z" transform="translate(4.15)"/><path class="cls-4" d="M18.89,52.42h-.74v-.74A.74.74,0,0,1,18.89,52.42Z" transform="translate(4.15)"/><path class="cls-4" d="M25.58,51.68v.74h-.74A.7.7,0,0,1,25.58,51.68Z" transform="translate(4.15)"/><path class="cls-4" d="M22.59,48.69a.74.74,0,1,1-.74-.74A.74.74,0,0,1,22.59,48.69Z" transform="translate(4.15)"/><rect class="cls-4" x="22.3" y="52.42" width="7.43" height="7.43"/><path class="cls-4" d="M18.89,52.42a.8.8,0,0,1-.74.75v-.75Z" transform="translate(4.15)"/><path class="cls-4" d="M25.58,52.42v.75a.75.75,0,0,1-.74-.75Z" transform="translate(4.15)"/><path class="cls-4" d="M18.89,59.86h-.74v-.75A.75.75,0,0,1,18.89,59.86Z" transform="translate(4.15)"/><path class="cls-4" d="M25.58,59.11v.75h-.74A.71.71,0,0,1,25.58,59.11Z" transform="translate(4.15)"/><path class="cls-4" d="M22.59,56.12a.74.74,0,1,1-1.48,0,.74.74,0,0,1,1.48,0Z" transform="translate(4.15)"/><rect class="cls-4" x="22.3" y="59.86" width="7.43" height="7.43"/><path class="cls-4" d="M18.89,59.86a.8.8,0,0,1-.74.74v-.74Z" transform="translate(4.15)"/><path class="cls-4" d="M25.58,59.86v.74a.74.74,0,0,1-.74-.74Z" transform="translate(4.15)"/><path class="cls-4" d="M18.89,67.29h-.74v-.74A.74.74,0,0,1,18.89,67.29Z" transform="translate(4.15)"/><path class="cls-4" d="M25.58,66.55v.74h-.74A.7.7,0,0,1,25.58,66.55Z" transform="translate(4.15)"/><path class="cls-4" d="M22.59,63.56a.74.74,0,0,1-1.48,0,.74.74,0,1,1,1.48,0Z" transform="translate(4.15)"/><rect class="cls-4" x="14.87" y="0.39" width="7.43" height="7.43"/><path class="cls-4" d="M11.46.39a.8.8,0,0,1-.74.74V.39Z" transform="translate(4.15)"/><path class="cls-4" d="M18.15.39v.74a.74.74,0,0,1-.74-.74Z" transform="translate(4.15)"/><path class="cls-4" d="M11.46,7.82h-.74V7.08A.74.74,0,0,1,11.46,7.82Z" transform="translate(4.15)"/><path class="cls-4" d="M18.15,7.08v.74h-.74A.7.7,0,0,1,18.15,7.08Z" transform="translate(4.15)"/><path class="cls-4" d="M15.16,4.09a.74.74,0,0,1-.74.74.75.75,0,0,1-.75-.74.76.76,0,0,1,.75-.75A.75.75,0,0,1,15.16,4.09Z" transform="translate(4.15)"/><rect class="cls-4" x="14.87" y="7.82" width="7.43" height="7.43"/><path class="cls-4" d="M11.46,7.82a.81.81,0,0,1-.74.75V7.82Z" transform="translate(4.15)"/><path class="cls-4" d="M18.15,7.82v.75a.75.75,0,0,1-.74-.75Z" transform="translate(4.15)"/><path class="cls-4" d="M11.46,15.26h-.74v-.75A.75.75,0,0,1,11.46,15.26Z" transform="translate(4.15)"/><path class="cls-4" d="M18.15,14.51v.75h-.74A.7.7,0,0,1,18.15,14.51Z" transform="translate(4.15)"/><path class="cls-4" d="M15.16,11.52a.74.74,0,0,1-.74.74.74.74,0,1,1,0-1.48A.74.74,0,0,1,15.16,11.52Z" transform="translate(4.15)"/><rect class="cls-4" x="14.87" y="15.26" width="7.43" height="7.43"/><path class="cls-4" d="M11.46,15.26a.8.8,0,0,1-.74.74v-.74Z" transform="translate(4.15)"/><path class="cls-4" d="M18.15,15.26V16a.74.74,0,0,1-.74-.74Z" transform="translate(4.15)"/><path class="cls-4" d="M11.46,22.69h-.74V22A.74.74,0,0,1,11.46,22.69Z" transform="translate(4.15)"/><path class="cls-4" d="M18.15,22v.74h-.74A.69.69,0,0,1,18.15,22Z" transform="translate(4.15)"/><path class="cls-4" d="M15.16,19a.75.75,0,0,1-.74.75.76.76,0,0,1-.75-.75.75.75,0,0,1,.75-.74A.74.74,0,0,1,15.16,19Z" transform="translate(4.15)"/><rect class="cls-4" x="14.87" y="22.69" width="7.43" height="7.43"/><path class="cls-4" d="M11.46,22.69a.8.8,0,0,1-.74.74v-.74Z" transform="translate(4.15)"/><path class="cls-4" d="M18.15,22.69v.74a.74.74,0,0,1-.74-.74Z" transform="translate(4.15)"/><path class="cls-4" d="M11.46,30.12h-.74v-.74A.74.74,0,0,1,11.46,30.12Z" transform="translate(4.15)"/><path class="cls-4" d="M18.15,29.38v.74h-.74A.7.7,0,0,1,18.15,29.38Z" transform="translate(4.15)"/><path class="cls-4" d="M15.16,26.39a.74.74,0,0,1-.74.74.75.75,0,0,1-.75-.74.76.76,0,0,1,.75-.75A.75.75,0,0,1,15.16,26.39Z" transform="translate(4.15)"/><rect class="cls-4" x="14.87" y="30.12" width="7.43" height="7.43"/><path class="cls-4" d="M11.46,30.12a.81.81,0,0,1-.74.75v-.75Z" transform="translate(4.15)"/><path class="cls-4" d="M18.15,30.12v.75a.75.75,0,0,1-.74-.75Z" transform="translate(4.15)"/><path class="cls-4" d="M11.46,37.56h-.74v-.75A.75.75,0,0,1,11.46,37.56Z" transform="translate(4.15)"/><path class="cls-4" d="M18.15,36.81v.75h-.74A.7.7,0,0,1,18.15,36.81Z" transform="translate(4.15)"/><path class="cls-4" d="M15.16,33.82a.75.75,0,0,1-.74.75.76.76,0,0,1-.75-.75.75.75,0,0,1,.75-.74A.74.74,0,0,1,15.16,33.82Z" transform="translate(4.15)"/><rect class="cls-4" x="14.87" y="37.56" width="7.43" height="7.43"/><path class="cls-4" d="M11.46,37.56a.8.8,0,0,1-.74.74v-.74Z" transform="translate(4.15)"/><path class="cls-4" d="M18.15,37.56v.74a.74.74,0,0,1-.74-.74Z" transform="translate(4.15)"/><path class="cls-4" d="M11.46,45h-.74v-.74A.74.74,0,0,1,11.46,45Z" transform="translate(4.15)"/><path class="cls-4" d="M18.15,44.25V45h-.74A.69.69,0,0,1,18.15,44.25Z" transform="translate(4.15)"/><path class="cls-4" d="M15.16,41.26a.74.74,0,0,1-.74.74.75.75,0,1,1,.74-.74Z" transform="translate(4.15)"/><rect class="cls-4" x="14.87" y="44.99" width="7.43" height="7.43"/><path class="cls-4" d="M11.46,45a.8.8,0,0,1-.74.74V45Z" transform="translate(4.15)"/><path class="cls-4" d="M18.15,45v.74a.74.74,0,0,1-.74-.74Z" transform="translate(4.15)"/><path class="cls-4" d="M11.46,52.42h-.74v-.74A.74.74,0,0,1,11.46,52.42Z" transform="translate(4.15)"/><path class="cls-4" d="M18.15,51.68v.74h-.74A.7.7,0,0,1,18.15,51.68Z" transform="translate(4.15)"/><path class="cls-4" d="M15.16,48.69a.74.74,0,0,1-.74.74.74.74,0,1,1,0-1.48A.74.74,0,0,1,15.16,48.69Z" transform="translate(4.15)"/><rect class="cls-4" x="14.87" y="52.42" width="7.43" height="7.43"/><path class="cls-4" d="M11.46,52.42a.8.8,0,0,1-.74.75v-.75Z" transform="translate(4.15)"/><path class="cls-4" d="M18.15,52.42v.75a.74.74,0,0,1-.74-.75Z" transform="translate(4.15)"/><path class="cls-4" d="M11.46,59.86h-.74v-.75A.75.75,0,0,1,11.46,59.86Z" transform="translate(4.15)"/><path class="cls-4" d="M18.15,59.11v.75h-.74A.7.7,0,0,1,18.15,59.11Z" transform="translate(4.15)"/><path class="cls-4" d="M15.16,56.12a.75.75,0,0,1-.74.75.76.76,0,0,1-.75-.75.75.75,0,0,1,.75-.74A.74.74,0,0,1,15.16,56.12Z" transform="translate(4.15)"/><rect class="cls-4" x="14.87" y="59.86" width="7.43" height="7.43"/><path class="cls-4" d="M11.46,59.86a.8.8,0,0,1-.74.74v-.74Z" transform="translate(4.15)"/><path class="cls-4" d="M18.15,59.86v.74a.74.74,0,0,1-.74-.74Z" transform="translate(4.15)"/><path class="cls-4" d="M11.46,67.29h-.74v-.74A.74.74,0,0,1,11.46,67.29Z" transform="translate(4.15)"/><path class="cls-4" d="M18.15,66.55v.74h-.74A.7.7,0,0,1,18.15,66.55Z" transform="translate(4.15)"/><path class="cls-4" d="M15.16,63.56a.74.74,0,0,1-.74.74.75.75,0,0,1-.75-.74.76.76,0,0,1,.75-.75A.75.75,0,0,1,15.16,63.56Z" transform="translate(4.15)"/><rect class="cls-4" x="7.43" y="0.39" width="7.43" height="7.43"/><path class="cls-4" d="M4,.39a.8.8,0,0,1-.74.74V.39Z" transform="translate(4.15)"/><path class="cls-4" d="M10.72.39v.74A.75.75,0,0,1,10,.39Z" transform="translate(4.15)"/><path class="cls-4" d="M4,7.82H3.28V7.08A.74.74,0,0,1,4,7.82Z" transform="translate(4.15)"/><path class="cls-4" d="M10.72,7.08v.74H10A.71.71,0,0,1,10.72,7.08Z" transform="translate(4.15)"/><path class="cls-4" d="M7.73,4.09A.75.75,0,0,1,7,4.83a.74.74,0,0,1-.74-.74A.75.75,0,0,1,7,3.34.76.76,0,0,1,7.73,4.09Z" transform="translate(4.15)"/><rect class="cls-4" x="7.43" y="7.82" width="7.43" height="7.43"/><path class="cls-4" d="M4,7.82a.81.81,0,0,1-.74.75V7.82Z" transform="translate(4.15)"/><path class="cls-4" d="M10.72,7.82v.75A.75.75,0,0,1,10,7.82Z" transform="translate(4.15)"/><path class="cls-4" d="M4,15.26H3.28v-.75A.75.75,0,0,1,4,15.26Z" transform="translate(4.15)"/><path class="cls-4" d="M10.72,14.51v.75H10A.71.71,0,0,1,10.72,14.51Z" transform="translate(4.15)"/><path class="cls-4" d="M7.73,11.52a.75.75,0,0,1-.75.74.74.74,0,0,1,0-1.48A.75.75,0,0,1,7.73,11.52Z" transform="translate(4.15)"/><rect class="cls-4" x="7.43" y="15.26" width="7.43" height="7.43"/><path class="cls-4" d="M4,15.26a.8.8,0,0,1-.74.74v-.74Z" transform="translate(4.15)"/><path class="cls-4" d="M10.72,15.26V16a.75.75,0,0,1-.75-.74Z" transform="translate(4.15)"/><path class="cls-4" d="M4,22.69H3.28V22A.74.74,0,0,1,4,22.69Z" transform="translate(4.15)"/><path class="cls-4" d="M10.72,22v.74H10A.7.7,0,0,1,10.72,22Z" transform="translate(4.15)"/><path class="cls-4" d="M7.73,19A.76.76,0,0,1,7,19.7.75.75,0,0,1,6.24,19,.74.74,0,0,1,7,18.21.75.75,0,0,1,7.73,19Z" transform="translate(4.15)"/><rect class="cls-4" x="7.43" y="22.69" width="7.43" height="7.43"/><path class="cls-4" d="M4,22.69a.8.8,0,0,1-.74.74v-.74Z" transform="translate(4.15)"/><path class="cls-4" d="M10.72,22.69v.74a.75.75,0,0,1-.75-.74Z" transform="translate(4.15)"/><path class="cls-4" d="M4,30.12H3.28v-.74A.74.74,0,0,1,4,30.12Z" transform="translate(4.15)"/><path class="cls-4" d="M10.72,29.38v.74H10A.71.71,0,0,1,10.72,29.38Z" transform="translate(4.15)"/><path class="cls-4" d="M7.73,26.39a.75.75,0,0,1-.75.74.74.74,0,0,1-.74-.74A.75.75,0,0,1,7,25.64.76.76,0,0,1,7.73,26.39Z" transform="translate(4.15)"/><rect class="cls-4" x="7.43" y="30.12" width="7.43" height="7.43"/><path class="cls-4" d="M4,30.12a.81.81,0,0,1-.74.75v-.75Z" transform="translate(4.15)"/><path class="cls-4" d="M10.72,30.12v.75a.75.75,0,0,1-.75-.75Z" transform="translate(4.15)"/><path class="cls-4" d="M4,37.56H3.28v-.75A.75.75,0,0,1,4,37.56Z" transform="translate(4.15)"/><path class="cls-4" d="M10.72,36.81v.75H10A.71.71,0,0,1,10.72,36.81Z" transform="translate(4.15)"/><path class="cls-4" d="M7.73,33.82a.76.76,0,0,1-.75.75.75.75,0,0,1-.74-.75A.74.74,0,0,1,7,33.08.75.75,0,0,1,7.73,33.82Z" transform="translate(4.15)"/><rect class="cls-4" x="7.43" y="37.56" width="7.43" height="7.43"/><path class="cls-4" d="M4,37.56a.8.8,0,0,1-.74.74v-.74Z" transform="translate(4.15)"/><path class="cls-4" d="M10.72,37.56v.74a.75.75,0,0,1-.75-.74Z" transform="translate(4.15)"/><path class="cls-4" d="M4,45H3.28v-.74A.74.74,0,0,1,4,45Z" transform="translate(4.15)"/><path class="cls-4" d="M10.72,44.25V45H10A.7.7,0,0,1,10.72,44.25Z" transform="translate(4.15)"/><path class="cls-4" d="M7.73,41.26A.75.75,0,0,1,7,42a.75.75,0,0,1,0-1.49A.75.75,0,0,1,7.73,41.26Z" transform="translate(4.15)"/><rect class="cls-4" x="7.43" y="44.99" width="7.43" height="7.43"/><path class="cls-4" d="M4,45a.8.8,0,0,1-.74.74V45Z" transform="translate(4.15)"/><path class="cls-4" d="M10.72,45v.74A.75.75,0,0,1,10,45Z" transform="translate(4.15)"/><path class="cls-4" d="M4,52.42H3.28v-.74A.74.74,0,0,1,4,52.42Z" transform="translate(4.15)"/><path class="cls-4" d="M10.72,51.68v.74H10A.71.71,0,0,1,10.72,51.68Z" transform="translate(4.15)"/><path class="cls-4" d="M7.73,48.69a.75.75,0,0,1-.75.74A.74.74,0,1,1,7,48,.75.75,0,0,1,7.73,48.69Z" transform="translate(4.15)"/><rect class="cls-4" x="7.43" y="52.42" width="7.43" height="7.43"/><path class="cls-4" d="M4,52.42a.8.8,0,0,1-.74.75v-.75Z" transform="translate(4.15)"/><path class="cls-4" d="M10.72,52.42v.75a.75.75,0,0,1-.75-.75Z" transform="translate(4.15)"/><path class="cls-4" d="M4,59.86H3.28v-.75A.75.75,0,0,1,4,59.86Z" transform="translate(4.15)"/><path class="cls-4" d="M10.72,59.11v.75H10A.71.71,0,0,1,10.72,59.11Z" transform="translate(4.15)"/><path class="cls-4" d="M7.73,56.12a.76.76,0,0,1-.75.75.75.75,0,0,1-.74-.75A.74.74,0,0,1,7,55.38.75.75,0,0,1,7.73,56.12Z" transform="translate(4.15)"/><rect class="cls-4" x="7.43" y="59.86" width="7.43" height="7.43"/><path class="cls-4" d="M4,59.86a.8.8,0,0,1-.74.74v-.74Z" transform="translate(4.15)"/><path class="cls-4" d="M10.72,59.86v.74a.75.75,0,0,1-.75-.74Z" transform="translate(4.15)"/><path class="cls-4" d="M4,67.29H3.28v-.74A.74.74,0,0,1,4,67.29Z" transform="translate(4.15)"/><path class="cls-4" d="M10.72,66.55v.74H10A.71.71,0,0,1,10.72,66.55Z" transform="translate(4.15)"/><path class="cls-4" d="M7.73,63.56A.75.75,0,0,1,7,64.3a.74.74,0,0,1-.74-.74A.75.75,0,0,1,7,62.81.76.76,0,0,1,7.73,63.56Z" transform="translate(4.15)"/><rect class="cls-4" y="0.39" width="7.43" height="7.43"/><path class="cls-4" d="M-3.41.39a.8.8,0,0,1-.74.74V.39Z" transform="translate(4.15)"/><path class="cls-4" d="M3.28.39v.74A.74.74,0,0,1,2.54.39Z" transform="translate(4.15)"/><path class="cls-4" d="M-3.41,7.82h-.74V7.08A.74.74,0,0,1-3.41,7.82Z" transform="translate(4.15)"/><path class="cls-4" d="M3.28,7.08v.74H2.54A.7.7,0,0,1,3.28,7.08Z" transform="translate(4.15)"/><circle class="cls-4" cx="3.7" cy="4.09" r="0.74"/><rect class="cls-4" y="7.82" width="7.43" height="7.43"/><path class="cls-4" d="M-3.41,7.82a.81.81,0,0,1-.74.75V7.82Z" transform="translate(4.15)"/><path class="cls-4" d="M3.28,7.82v.75a.75.75,0,0,1-.74-.75Z" transform="translate(4.15)"/><path class="cls-4" d="M-3.41,15.26h-.74v-.75A.75.75,0,0,1-3.41,15.26Z" transform="translate(4.15)"/><path class="cls-4" d="M3.28,14.51v.75H2.54A.71.71,0,0,1,3.28,14.51Z" transform="translate(4.15)"/><path class="cls-4" d="M.29,11.52a.74.74,0,0,1-.74.74.74.74,0,0,1-.74-.74.74.74,0,0,1,.74-.74A.74.74,0,0,1,.29,11.52Z" transform="translate(4.15)"/><rect class="cls-4" y="15.26" width="7.43" height="7.43"/><path class="cls-4" d="M-3.41,15.26a.8.8,0,0,1-.74.74v-.74Z" transform="translate(4.15)"/><path class="cls-4" d="M3.28,15.26V16a.74.74,0,0,1-.74-.74Z" transform="translate(4.15)"/><path class="cls-4" d="M-3.41,22.69h-.74V22A.74.74,0,0,1-3.41,22.69Z" transform="translate(4.15)"/><path class="cls-4" d="M3.28,22v.74H2.54A.7.7,0,0,1,3.28,22Z" transform="translate(4.15)"/><path class="cls-4" d="M.29,19a.75.75,0,0,1-.74.75A.75.75,0,0,1-1.19,19a.74.74,0,0,1,.74-.74A.74.74,0,0,1,.29,19Z" transform="translate(4.15)"/><rect class="cls-4" y="22.69" width="7.43" height="7.43"/><path class="cls-4" d="M-3.41,22.69a.8.8,0,0,1-.74.74v-.74Z" transform="translate(4.15)"/><path class="cls-4" d="M3.28,22.69v.74a.74.74,0,0,1-.74-.74Z" transform="translate(4.15)"/><path class="cls-4" d="M-3.41,30.12h-.74v-.74A.74.74,0,0,1-3.41,30.12Z" transform="translate(4.15)"/><path class="cls-4" d="M3.28,29.38v.74H2.54A.7.7,0,0,1,3.28,29.38Z" transform="translate(4.15)"/><path class="cls-4" d="M.29,26.39a.74.74,0,0,1-.74.74.74.74,0,0,1-.74-.74.75.75,0,0,1,.74-.75A.75.75,0,0,1,.29,26.39Z" transform="translate(4.15)"/><rect class="cls-4" y="30.12" width="7.43" height="7.43"/><path class="cls-4" d="M-3.41,30.12a.81.81,0,0,1-.74.75v-.75Z" transform="translate(4.15)"/><path class="cls-4" d="M3.28,30.12v.75a.75.75,0,0,1-.74-.75Z" transform="translate(4.15)"/><path class="cls-4" d="M-3.41,37.56h-.74v-.75A.75.75,0,0,1-3.41,37.56Z" transform="translate(4.15)"/><path class="cls-4" d="M3.28,36.81v.75H2.54A.71.71,0,0,1,3.28,36.81Z" transform="translate(4.15)"/><path class="cls-4" d="M.29,33.82a.75.75,0,0,1-.74.75.75.75,0,0,1-.74-.75.74.74,0,0,1,.74-.74A.74.74,0,0,1,.29,33.82Z" transform="translate(4.15)"/><rect class="cls-4" y="37.56" width="7.43" height="7.43"/><path class="cls-4" d="M-3.41,37.56a.8.8,0,0,1-.74.74v-.74Z" transform="translate(4.15)"/><path class="cls-4" d="M3.28,37.56v.74a.74.74,0,0,1-.74-.74Z" transform="translate(4.15)"/><path class="cls-4" d="M-3.41,45h-.74v-.74A.74.74,0,0,1-3.41,45Z" transform="translate(4.15)"/><path class="cls-4" d="M3.28,44.25V45H2.54A.7.7,0,0,1,3.28,44.25Z" transform="translate(4.15)"/><path class="cls-4" d="M.29,41.26A.74.74,0,0,1-.45,42a.74.74,0,0,1-.74-.74.74.74,0,0,1,.74-.75A.74.74,0,0,1,.29,41.26Z" transform="translate(4.15)"/><rect class="cls-4" y="44.99" width="7.43" height="7.43"/><path class="cls-4" d="M-3.41,45a.8.8,0,0,1-.74.74V45Z" transform="translate(4.15)"/><path class="cls-4" d="M3.28,45v.74A.74.74,0,0,1,2.54,45Z" transform="translate(4.15)"/><path class="cls-4" d="M-3.41,52.42h-.74v-.74A.74.74,0,0,1-3.41,52.42Z" transform="translate(4.15)"/><path class="cls-4" d="M3.28,51.68v.74H2.54A.7.7,0,0,1,3.28,51.68Z" transform="translate(4.15)"/><path class="cls-4" d="M.29,48.69a.74.74,0,0,1-.74.74.74.74,0,0,1-.74-.74A.74.74,0,0,1-.45,48,.74.74,0,0,1,.29,48.69Z" transform="translate(4.15)"/><rect class="cls-4" y="52.42" width="7.43" height="7.43"/><path class="cls-4" d="M-3.41,52.42a.8.8,0,0,1-.74.75v-.75Z" transform="translate(4.15)"/><path class="cls-4" d="M3.28,52.42v.75a.75.75,0,0,1-.74-.75Z" transform="translate(4.15)"/><path class="cls-4" d="M-3.41,59.86h-.74v-.75A.75.75,0,0,1-3.41,59.86Z" transform="translate(4.15)"/><path class="cls-4" d="M3.28,59.11v.75H2.54A.71.71,0,0,1,3.28,59.11Z" transform="translate(4.15)"/><circle class="cls-4" cx="3.7" cy="56.12" r="0.74"/><rect class="cls-4" y="59.86" width="7.43" height="7.43"/><path class="cls-4" d="M-3.41,59.86a.8.8,0,0,1-.74.74v-.74Z" transform="translate(4.15)"/><path class="cls-4" d="M3.28,59.86v.74a.74.74,0,0,1-.74-.74Z" transform="translate(4.15)"/><path class="cls-4" d="M-3.41,67.29h-.74v-.74A.74.74,0,0,1-3.41,67.29Z" transform="translate(4.15)"/><path class="cls-4" d="M3.28,66.55v.74H2.54A.7.7,0,0,1,3.28,66.55Z" transform="translate(4.15)"/><path class="cls-4" d="M.29,63.56a.74.74,0,0,1-.74.74.74.74,0,0,1-.74-.74.75.75,0,0,1,.74-.75A.75.75,0,0,1,.29,63.56Z" transform="translate(4.15)"/></g><path class="cls-5" d="M42.44,65.71H26.3V57.32H0L.12,41.79,21.47,0H40L19,41.19H26.3V32.81H42.44v8.38h4.73V57.32H42.44Zm-13.9-2.23H40.2V55.1h4.73V43.42H40.2V35H28.54v8.39H15.34l21-41.19H22.84L2.24,42.57V55.1h26.3Z" transform="translate(4.15)"/></g></g></svg>