<svg xmlns="http://www.w3.org/2000/svg" viewBox="0 0 1156.57 751.08"><defs><style>.cls-1{isolation:isolate;}.cls-2{mix-blend-mode:soft-light;}.cls-3,.cls-5{fill:#00abc8;}.cls-3,.cls-4{opacity:0.88;}</style></defs><g class="cls-1"><g id="Layer_2" data-name="Layer 2"><g id="Section_3" data-name="Section 3"><g class="cls-2"><path class="cls-3" d="M198.47,615.48C128.63,615.48,34,560.33,0,499.77l3.39-1.91c33.45,59.52,126.43,113.73,195.08,113.73,19.28,0,42.3-5.57,64.58-11s45.3-11,64.66-11c21.48,0,41.47,4.29,60.79,8.44,18.79,4,38.21,8.2,58.51,8.2,43.35,0,58.21-22.37,72.57-44,13.54-20.4,27.54-41.49,64.93-41.49,30.61,0,59.49,20.7,87.42,40.71,27.21,19.5,52.91,37.92,79.27,37.92,23.45,0,35.42-12.33,48.11-25.38,7-7.15,14.13-14.54,23.49-20.31,15.52-9.55,32.25-13.19,48.43-16.71,11.3-2.46,23-5,34-9.55,21.19-8.72,31.77-19.38,41.1-28.78,10.06-10.14,18.75-18.89,37.26-20.52,31.39-2.77,74.33,29.11,93.49,51.51l-3,2.53c-18.63-21.79-60.17-52.81-90.19-50.16-17.1,1.5-24.92,9.39-34.84,19.38-9.11,9.19-20.46,20.62-42.38,29.64-11.36,4.67-23.22,7.25-34.68,9.75-15.86,3.45-32.26,7-47.22,16.23-9,5.5-16,12.72-22.74,19.7-13.27,13.66-25.81,26.56-50.9,26.56-27.61,0-53.8-18.77-81.54-38.65-27.43-19.65-55.79-40-85.15-40-35.3,0-48.12,19.31-61.69,39.75C507.89,586.94,492.45,610.2,447,610.2c-20.72,0-40.34-4.21-59.32-8.28s-38.91-8.36-60-8.36c-18.89,0-41.7,5.52-63.75,10.85C241.47,609.85,218.21,615.48,198.47,615.48Z"/><path class="cls-3" d="M1076.48,476.64C1044.69,459,1006.25,448.8,971,448.8c-22,0-39.68,7.74-56.83,15.22-14.32,6.25-27.84,12.15-41.83,12.15-12.88,0-21.2-8.33-21.2-21.24,0-30,24.8-72.18,79.93-72.18,21.81,0,43.19,6.29,63.87,12.37,20.23,6,41.15,12.11,62,12.11a106.06,106.06,0,0,0,28.79-4l1.06,3.74a109.88,109.88,0,0,1-29.85,4.11c-21.42,0-42.61-6.23-63.11-12.26s-41.52-12.22-62.77-12.22c-52.45,0-76,39.93-76,68.29,0,10.7,6.63,17.35,17.31,17.35,13.18,0,26.34-5.74,40.27-11.82,16.7-7.29,35.62-15.55,58.39-15.55,35.87,0,75,10.33,107.34,28.34Z"/><path class="cls-3" d="M207.3,449.47c-20.08,0-42.54-11.42-60.06-30.55a114.63,114.63,0,0,1-30.19-77.65c0-26.45,12.37-84.45,49.15-84.45,14.85,0,29.82,7.64,43,14.37,3.27,1.67,6.35,3.24,9.34,4.66,38.78,18.37,61,53,61,95.1C279.56,417.92,242.2,449.47,207.3,449.47ZM166.2,260.71c-33.86,0-45.26,55.33-45.26,80.56,0,63.68,51.15,104.31,86.36,104.31,33,0,68.37-30,68.37-74.63,0-40.51-21.42-73.89-58.78-91.58-3-1.45-6.15-3-9.44-4.71C194.64,268.12,180.12,260.71,166.2,260.71Z"/><path class="cls-3" d="M721.94,233.93c-34.66,0-67.43-34.42-67.43-70.84,0-25.11,15.75-46.59,44.36-60.49a32.8,32.8,0,0,1,14.3-3.54c31,0,47.47,50.94,47.47,87.72C760.64,211.27,756,233.93,721.94,233.93Zm-8.77-131a28.94,28.94,0,0,0-12.6,3.15c-27.2,13.22-42.17,33.45-42.17,57,0,33.79,31.47,66.95,63.54,66.95,28.89,0,34.81-17.29,34.81-43.26C756.75,152.52,741.23,103,713.17,103Z"/><path class="cls-3" d="M1097.84,318.65c-40.36-5.3-142.75-38.89-142.3-85.46.2-20.87,17.74-38.33,50.74-50.48,29.93-11,64.06-14.72,86-14.51l0,3.89c-46.11-.44-132.41,17-132.83,61.14-.41,42.46,97.48,76.12,138.92,81.56Z"/><path class="cls-3" d="M1091.22,369.26c-17.6-4.14-39.75-7.47-63.19-11-61.11-9.18-130.37-19.59-151.39-49.43-5.76-8.18-7.66-17.53-5.64-27.79,8.22-41.7,28.34-77.37,58.17-103.15,35-30.26,82.09-46.48,140-48.24l.12,3.89c-150,4.55-186,105.19-194.44,148.25-1.83,9.31-.2,17.42,5,24.8,20.06,28.48,88.45,38.76,148.79,47.82,23.52,3.53,45.74,6.87,63.51,11.06Z"/><path class="cls-3" d="M744.36,323.46c-18.8,0-38.55-5.59-59-16.72-23.05-12.53-46.7-31.66-72.31-58.49-5.78-6.05-11.27-11.64-16.58-17.05-27.1-27.6-46.68-47.54-46.68-71.66,0-17.95,11.16-31.28,24.09-46.71C592.19,91,615,63.73,619.65,10.11l3.87.34c-4.75,54.84-28,82.58-46.67,104.88-13,15.46-23.18,27.67-23.18,44.21,0,22.53,19.11,42,45.56,68.93,5.33,5.42,10.83,11,16.62,17.1,47.39,49.63,89.54,74.08,128,74.09a88.85,88.85,0,0,0,24-3.29c60.89-17,111.26-114.3,111.26-156.78,0-13.82-14.24-36.6-38.1-61-22.71-23.18-49.31-42.46-67.76-49.12l1.32-3.66C814.83,60.38,883,127.39,883,159.59c0,22.06-13.21,57.94-32.87,89.28-13.8,22-42.7,60.49-81.23,71.24A90.92,90.92,0,0,1,744.36,323.46Z"/><path class="cls-3" d="M753.41,257.07c-26.48,0-125.08-23.76-125.08-95,0-14.31,9.41-31.33,25.8-46.68C669.35,101.13,688,91,702.78,89c29.8-4.12,53.49,1.28,70.43,16,21.83,19,32.9,54.14,32.9,104.38C806.11,241.47,788.87,257.07,753.41,257.07ZM721.27,91.52a130.94,130.94,0,0,0-18,1.3c-29.36,4.05-71.09,40.55-71.09,69.24,0,36.65,27.93,58.93,51.36,71.17,26.35,13.76,56.7,20,69.83,20,33.3,0,48.81-13.92,48.81-43.8,0-49.07-10.62-83.2-31.56-101.44C758.12,97,741.56,91.52,721.27,91.52Z"/><path class="cls-3" d="M753.25,555.53c-20.17,0-60-18.21-96.93-44.27-19.92-14.07-66.25-50.11-66.25-80.77,0-28.14,30-45.56,57.75-45.56,23.12,0,118.79,24.62,154.81,33.89l8.22,2.12c23.63,6,32,30.07,32,48.84C842.86,508.38,801.51,555.53,753.25,555.53ZM647.82,388.82c-25.9,0-53.86,15.93-53.86,41.67,0,20,24.15,49,64.6,77.59,35.73,25.24,75.56,43.56,94.69,43.56,46.17,0,85.72-45,85.72-81.86,0-17.37-7.62-39.61-29.08-45.08l-8.23-2.11C769.21,414.24,670.45,388.82,647.82,388.82Z"/><g class="cls-4"><path class="cls-5" d="M402.94,751.08l-3.69-1.22c9.73-29.52,43.23-33.8,72.79-37.58,12.92-1.65,25.11-3.21,34.73-6.64,19.53-7,35.77-19.29,51.48-31.2,24.42-18.52,49.68-37.67,88-37.67,18.62,0,36.69,4.18,55.82,8.61,19.73,4.56,40.13,9.28,61.82,9.28,40.47,0,53.2-15.66,68-33.79,6.86-8.44,14-17.17,24.34-25.26,12.81-10,28.39-13,43.46-16,10.72-2.09,21.8-4.25,31.6-8.91s18.14-12.76,26.15-20.57c12.36-12,25.14-24.49,43.83-24.49,32,0,63.61,35.87,77,60l-3.4,1.9c-12.48-22.42-43.5-58-73.63-58-17.1,0-28.77,11.36-41.11,23.39-8.24,8-16.76,16.32-27.19,21.29-10.25,4.87-21.58,7.08-32.53,9.21-15.3,3-29.74,5.8-41.82,15.21-10,7.83-17,16.38-23.71,24.65-15.37,18.9-28.65,35.23-71,35.23-22.13,0-42.75-4.77-62.7-9.38-18.91-4.38-36.77-8.51-54.94-8.51-37,0-60.62,17.92-85.63,36.88-16,12.09-32.43,24.59-52.53,31.76-10,3.57-22.41,5.16-35.54,6.84C442.73,720,411.91,723.89,402.94,751.08Z"/></g><g class="cls-4"><path class="cls-5" d="M753.76,577.78a73.69,73.69,0,0,1-20.86-3.26c-10.12-3-19.84-10-34.54-20.72a636.72,636.72,0,0,0-57.4-38c-12.12-7.09-25-13.17-37.39-19-35.87-17-66.85-31.66-66.85-62.78,0-23.79,9.28-43.33,26.84-56.51C577.51,367,596.19,361,614.8,361s45.7,7.24,71.84,14.24c25.91,6.94,52.7,14.11,70.87,14.11,30.9,0,58-5.67,86.58-11.67s58.35-12.23,92.26-12.23c26.33,0,54.9,7.55,82.53,14.85,22,5.82,44.79,11.84,65.61,13.71l-.35,3.87c-21.15-1.9-44.08-8-66.26-13.82-27.39-7.24-55.71-14.72-81.53-14.72-33.5,0-63,6.17-91.47,12.15-27.56,5.78-56.06,11.75-87.37,11.75-18.69,0-45.72-7.24-71.87-14.25-25.9-6.93-52.68-14.1-70.84-14.1-25.66,0-74.19,14.43-74.19,69.08,0,28.66,29.95,42.84,64.63,59.26,12.49,5.92,25.41,12,37.69,19.21a650.93,650.93,0,0,1,57.72,38.23C715,561.09,724.52,568,734,570.78c33.12,9.78,49.76-5.12,67.36-20.89,8.52-7.63,17.32-15.51,28.16-20.54,13.68-6.36,25.35-11.06,35.66-15.22,14.95-6,26.76-10.79,36.8-17.45,5.52-3.67,10.61-7.46,15.54-11.13,17.2-12.83,33.46-24.95,60.93-24.95,40,0,77.19,19.8,111.4,41.19l-2.06,3.3c-33.72-21.09-70.3-40.6-109.34-40.6-26.18,0-41.21,11.21-58.61,24.17-5,3.71-10.1,7.53-15.71,11.26-10.37,6.88-22.34,11.71-37.5,17.82-10.26,4.14-21.88,8.82-35.48,15.14-10.3,4.78-18.89,12.47-27.19,19.91C790.2,565.12,776.06,577.78,753.76,577.78Z"/></g><g class="cls-4"><path class="cls-5" d="M177.51,571.77c-69.7,0-143.07-67.2-163.9-87.8l2.74-2.76c20.56,20.33,92.95,86.67,161.16,86.67,37.59,0,79.74-11.36,124.36-23.39l12.59-3.38c19-5.08,37.45-6.69,55.3-8.25,27-2.36,52.52-4.59,74.57-18.88,30.21-19.58,39-55,47.44-89.15,3.44-13.87,6.69-27,11.28-38.67,9.43-24,19.79-39.24,28.11-51.5,10.43-15.37,18-26.47,18-45.59,0-73.47-42.62-81.87-107.14-94.58C363.49,179,256,157.83,167,1.93L170.41,0C258.47,154.35,365,175.34,442.74,190.67c64,12.62,110.28,21.73,110.28,98.4,0,20.32-8.23,32.43-18.64,47.78-8.21,12.09-18.44,27.15-27.71,50.73C502.17,399,499,412,495.55,425.77c-8.25,33.3-17.6,71.06-49.11,91.48-22.85,14.81-48.84,17.08-76.35,19.48-17.68,1.55-36,3.15-54.63,8.14l-12.57,3.38C258,560.34,215.61,571.77,177.51,571.77Z"/></g><g class="cls-4"><path class="cls-5" d="M208.82,500.17C90.22,500.17,51.31,395,25.56,325.46c-3.65-9.87-7.1-19.19-10.46-27.35l3.6-1.48c3.38,8.23,6.84,17.58,10.51,27.48,25.37,68.56,63.71,172.17,179.61,172.17C304.1,496.28,361,426.46,361,309.51c0-52.11-36.4-69.14-86.79-92.71C216.7,189.9,138,153.06,79.13,42.35l3.44-1.82c58.21,109.56,133.1,144.59,193.28,172.75,51.69,24.18,89,41.65,89,96.23,0,55.15-13.1,101.87-37.9,135.11C299.88,481,259,500.17,208.82,500.17Z"/></g><g class="cls-4"><path class="cls-5" d="M747.21,347.54c-80.64,0-117.93-44.62-145.16-77.2-3.74-4.48-7.28-8.71-10.7-12.55C517.5,175,453.76,160.46,392.11,146.44,332.84,133,276.86,120.23,223.24,43.25L226.43,41c52.76,75.75,108,88.32,166.55,101.62,59.34,13.5,126.59,28.79,201.28,112.56,3.46,3.89,7,8.14,10.78,12.64,26.73,32,63.35,75.81,142.17,75.81,73.09,0,93.48-43.07,117.08-92.93,4-8.42,8.11-17.13,12.56-25.71,27.8-53.72,67.88-106.17,222.47-106.17,17.22,0,35.41.71,57.25,2.22l-.27,3.89c-21.74-1.52-39.85-2.22-57-2.22-152.41,0-191.77,51.41-219,104.06-4.41,8.53-8.52,17.2-12.49,25.59C844.64,301.32,822.76,347.54,747.21,347.54Z"/></g><g class="cls-4"><path class="cls-5" d="M279.07,738.44l-3.26-2.12c26-40,65.42-47.65,97.12-53.83,25.57-5,44-8.58,44-27.38,0-28.08-84.77-39.42-120.12-39.42-16,0-31.33,3.78-47.54,7.78-16.6,4.1-33.77,8.34-52.13,8.34-77.54,0-127.33-43.75-175.48-86.06l2.57-2.92c47.61,41.83,96.84,85.09,172.91,85.09,17.89,0,34.82-4.18,51.2-8.22s32-7.9,48.47-7.9c33.11,0,124,10.26,124,43.31,0,22-20.82,26.06-47.19,31.2C342.7,692.34,304.15,699.85,279.07,738.44Z"/></g><g class="cls-4"><path class="cls-5" d="M191.05,517.56c-42.8,0-81.43-15.61-114.79-46.4-29-26.74-52.93-64.42-69.29-109l3.65-1.34C27.5,406.79,78.87,513.67,191.05,513.67c78.83,0,131-37.52,161-69,38.32-40.32,55.48-87.4,55.48-116.18,0-61.24-55.25-92.29-119.21-128.25-61.8-34.74-131.84-74.11-170.2-149.78l3.47-1.76c37.83,74.62,107.32,113.68,168.63,148.15,65,36.55,121.2,68.12,121.2,131.64,0,36.06-22.2,82.72-56.55,118.86C324.38,479.39,271.26,517.56,191.05,517.56Z"/></g><g class="cls-4"><path class="cls-5" d="M205.07,465.36c-34.78,0-58.34-10.26-74.15-32.27-14.18-19.76-20.83-47.43-27.87-76.73-13.29-55.32-28.35-118-96.11-163l2.15-3.24c69,45.85,84.29,109.34,97.74,165.35,14.24,59.23,25.48,106,98.24,106,56.85,0,96.56-44.57,96.56-108.39,0-34.89-8.49-58.51-26.71-74.32-16.72-14.52-39.93-21.51-66.8-29.62C145.56,230.27,67.71,206.8,18.14,73l3.64-1.35c48.91,132,125.73,155.19,187.46,173.81,53.79,16.22,96.28,29,96.28,107.66,0,31-9.63,59.24-27.11,79.57C260,454.05,234.65,465.36,205.07,465.36Z"/></g><path class="cls-5" d="M938.63,342.36a2.41,2.41,0,0,1-1.91-1.87h1.91Z"/></g></g></g></g></svg>