<svg xmlns="http://www.w3.org/2000/svg" xmlns:xlink="http://www.w3.org/1999/xlink" viewBox="0 0 50.23 71.88"><defs><style>.cls-1{fill:none;}.cls-2{fill:#f3f3f5;}.cls-3{clip-path:url(#clip-path);}.cls-4{fill:#00abc8;}.cls-5{fill:#0075a2;}</style><clipPath id="clip-path" transform="translate(2.4 0.33)"><path class="cls-1" d="M21.53,65.66c-12,0-20.41-8.11-20.41-19.79v-25C1.12,9.23,9.5,1.12,21.53,1.12S42,9.23,42,20.91v25C42,57.55,33.57,65.66,21.53,65.66Zm0-13.19c3.57,0,5.79-2.5,5.79-6.51v-25c0-4-2.31-6.6-5.79-6.6s-5.79,2.59-5.79,6.6V46C15.74,50,18,52.47,21.53,52.47Z"/></clipPath></defs><g id="Layer_2" data-name="Layer 2"><g id="Section_2" data-name="Section 2"><path class="cls-2" d="M27.42,71.55C15.38,71.55,7,63.44,7,51.76v-25C7,15.11,15.38,7,27.42,7s20.41,8.11,20.41,19.79v25C47.83,63.44,39.45,71.55,27.42,71.55Zm0-13.2c3.56,0,5.79-2.49,5.79-6.5V26.79c0-4-2.32-6.6-5.79-6.6s-5.8,2.59-5.8,6.6V51.85C21.62,55.86,23.85,58.35,27.42,58.35Z" transform="translate(2.4 0.33)"/><g class="cls-3"><rect class="cls-4" x="37.17" width="7.43" height="7.43"/><path class="cls-4" d="M35.52-.33a.81.81,0,0,1-.75.74V-.33Z" transform="translate(2.4 0.33)"/><path class="cls-4" d="M42.21-.33V.41a.75.75,0,0,1-.75-.74Z" transform="translate(2.4 0.33)"/><path class="cls-4" d="M35.52,7.1h-.75V6.36A.75.75,0,0,1,35.52,7.1Z" transform="translate(2.4 0.33)"/><path class="cls-4" d="M42.21,6.36V7.1h-.75A.71.71,0,0,1,42.21,6.36Z" transform="translate(2.4 0.33)"/><path class="cls-4" d="M39.22,3.37a.75.75,0,0,1-.75.74.74.74,0,0,1-.74-.74.75.75,0,0,1,.74-.75A.76.76,0,0,1,39.22,3.37Z" transform="translate(2.4 0.33)"/><rect class="cls-4" x="37.17" y="7.43" width="7.43" height="7.43"/><path class="cls-4" d="M35.52,7.1a.81.81,0,0,1-.75.75V7.1Z" transform="translate(2.4 0.33)"/><path class="cls-4" d="M42.21,7.1v.75a.75.75,0,0,1-.75-.75Z" transform="translate(2.4 0.33)"/><path class="cls-4" d="M35.52,14.54h-.75v-.75A.75.75,0,0,1,35.52,14.54Z" transform="translate(2.4 0.33)"/><path class="cls-4" d="M42.21,13.79v.75h-.75A.71.71,0,0,1,42.21,13.79Z" transform="translate(2.4 0.33)"/><path class="cls-4" d="M39.22,10.8a.76.76,0,0,1-.75.75.75.75,0,0,1-.74-.75.74.74,0,0,1,.74-.74A.75.75,0,0,1,39.22,10.8Z" transform="translate(2.4 0.33)"/><rect class="cls-4" x="37.17" y="14.87" width="7.43" height="7.43"/><path class="cls-4" d="M35.52,14.54a.81.81,0,0,1-.75.74v-.74Z" transform="translate(2.4 0.33)"/><path class="cls-4" d="M42.21,14.54v.74a.75.75,0,0,1-.75-.74Z" transform="translate(2.4 0.33)"/><path class="cls-4" d="M35.52,22h-.75v-.74A.75.75,0,0,1,35.52,22Z" transform="translate(2.4 0.33)"/><path class="cls-4" d="M42.21,21.23V22h-.75A.7.7,0,0,1,42.21,21.23Z" transform="translate(2.4 0.33)"/><path class="cls-4" d="M39.22,18.24a.75.75,0,0,1-.75.74.75.75,0,0,1,0-1.49A.75.75,0,0,1,39.22,18.24Z" transform="translate(2.4 0.33)"/><rect class="cls-4" x="37.17" y="22.3" width="7.43" height="7.43"/><path class="cls-4" d="M35.52,22a.81.81,0,0,1-.75.74V22Z" transform="translate(2.4 0.33)"/><path class="cls-4" d="M42.21,22v.74a.75.75,0,0,1-.75-.74Z" transform="translate(2.4 0.33)"/><path class="cls-4" d="M35.52,29.4h-.75v-.74A.75.75,0,0,1,35.52,29.4Z" transform="translate(2.4 0.33)"/><path class="cls-4" d="M42.21,28.66v.74h-.75A.71.71,0,0,1,42.21,28.66Z" transform="translate(2.4 0.33)"/><path class="cls-4" d="M39.22,25.67a.75.75,0,0,1-.75.74.74.74,0,1,1,0-1.48A.75.75,0,0,1,39.22,25.67Z" transform="translate(2.4 0.33)"/><rect class="cls-4" x="37.17" y="29.73" width="7.43" height="7.43"/><path class="cls-4" d="M35.52,29.4a.81.81,0,0,1-.75.75V29.4Z" transform="translate(2.4 0.33)"/><path class="cls-4" d="M42.21,29.4v.75a.75.75,0,0,1-.75-.75Z" transform="translate(2.4 0.33)"/><path class="cls-4" d="M35.52,36.84h-.75v-.75A.75.75,0,0,1,35.52,36.84Z" transform="translate(2.4 0.33)"/><path class="cls-4" d="M42.21,36.09v.75h-.75A.71.71,0,0,1,42.21,36.09Z" transform="translate(2.4 0.33)"/><path class="cls-4" d="M39.22,33.1a.76.76,0,0,1-.75.75.75.75,0,0,1-.74-.75.74.74,0,0,1,.74-.74A.75.75,0,0,1,39.22,33.1Z" transform="translate(2.4 0.33)"/><rect class="cls-4" x="37.17" y="37.17" width="7.43" height="7.43"/><path class="cls-4" d="M35.52,36.84a.81.81,0,0,1-.75.74v-.74Z" transform="translate(2.4 0.33)"/><path class="cls-4" d="M42.21,36.84v.74a.75.75,0,0,1-.75-.74Z" transform="translate(2.4 0.33)"/><path class="cls-4" d="M35.52,44.27h-.75v-.74A.75.75,0,0,1,35.52,44.27Z" transform="translate(2.4 0.33)"/><path class="cls-4" d="M42.21,43.53v.74h-.75A.71.71,0,0,1,42.21,43.53Z" transform="translate(2.4 0.33)"/><path class="cls-4" d="M39.22,40.54a.75.75,0,0,1-.75.74.74.74,0,0,1-.74-.74.75.75,0,0,1,.74-.75A.76.76,0,0,1,39.22,40.54Z" transform="translate(2.4 0.33)"/><rect class="cls-4" x="37.17" y="44.6" width="7.43" height="7.43"/><path class="cls-4" d="M35.52,44.27a.81.81,0,0,1-.75.75v-.75Z" transform="translate(2.4 0.33)"/><path class="cls-4" d="M42.21,44.27V45a.75.75,0,0,1-.75-.75Z" transform="translate(2.4 0.33)"/><path class="cls-4" d="M35.52,51.71h-.75V51A.75.75,0,0,1,35.52,51.71Z" transform="translate(2.4 0.33)"/><path class="cls-4" d="M42.21,51v.75h-.75A.71.71,0,0,1,42.21,51Z" transform="translate(2.4 0.33)"/><path class="cls-4" d="M39.22,48a.75.75,0,0,1-.75.74.74.74,0,0,1,0-1.48A.75.75,0,0,1,39.22,48Z" transform="translate(2.4 0.33)"/><rect class="cls-4" x="37.17" y="52.04" width="7.43" height="7.43"/><path class="cls-4" d="M35.52,51.71a.81.81,0,0,1-.75.74v-.74Z" transform="translate(2.4 0.33)"/><path class="cls-4" d="M42.21,51.71v.74a.75.75,0,0,1-.75-.74Z" transform="translate(2.4 0.33)"/><path class="cls-4" d="M35.52,59.14h-.75V58.4A.75.75,0,0,1,35.52,59.14Z" transform="translate(2.4 0.33)"/><path class="cls-4" d="M42.21,58.4v.74h-.75A.7.7,0,0,1,42.21,58.4Z" transform="translate(2.4 0.33)"/><path class="cls-4" d="M39.22,55.4a.76.76,0,0,1-.75.75.75.75,0,0,1-.74-.75.74.74,0,0,1,.74-.74A.75.75,0,0,1,39.22,55.4Z" transform="translate(2.4 0.33)"/><rect class="cls-4" x="37.17" y="59.47" width="7.43" height="7.43"/><path class="cls-4" d="M35.52,59.14a.81.81,0,0,1-.75.74v-.74Z" transform="translate(2.4 0.33)"/><path class="cls-4" d="M42.21,59.14v.74a.75.75,0,0,1-.75-.74Z" transform="translate(2.4 0.33)"/><path class="cls-4" d="M35.52,66.57h-.75v-.74A.75.75,0,0,1,35.52,66.57Z" transform="translate(2.4 0.33)"/><path class="cls-4" d="M42.21,65.83v.74h-.75A.71.71,0,0,1,42.21,65.83Z" transform="translate(2.4 0.33)"/><path class="cls-4" d="M39.22,62.84a.75.75,0,0,1-.75.74.74.74,0,0,1-.74-.74.75.75,0,0,1,.74-.75A.76.76,0,0,1,39.22,62.84Z" transform="translate(2.4 0.33)"/><rect class="cls-4" x="29.73" width="7.43" height="7.43"/><path class="cls-4" d="M28.08-.33a.8.8,0,0,1-.74.74V-.33Z" transform="translate(2.4 0.33)"/><path class="cls-4" d="M34.77-.33V.41A.74.74,0,0,1,34-.33Z" transform="translate(2.4 0.33)"/><path class="cls-4" d="M28.08,7.1h-.74V6.36A.74.74,0,0,1,28.08,7.1Z" transform="translate(2.4 0.33)"/><path class="cls-4" d="M34.77,6.36V7.1H34A.7.7,0,0,1,34.77,6.36Z" transform="translate(2.4 0.33)"/><path class="cls-4" d="M31.78,3.37a.74.74,0,0,1-1.48,0,.74.74,0,1,1,1.48,0Z" transform="translate(2.4 0.33)"/><rect class="cls-4" x="29.73" y="7.43" width="7.43" height="7.43"/><path class="cls-4" d="M28.08,7.1a.8.8,0,0,1-.74.75V7.1Z" transform="translate(2.4 0.33)"/><path class="cls-4" d="M34.77,7.1v.75A.75.75,0,0,1,34,7.1Z" transform="translate(2.4 0.33)"/><path class="cls-4" d="M28.08,14.54h-.74v-.75A.75.75,0,0,1,28.08,14.54Z" transform="translate(2.4 0.33)"/><path class="cls-4" d="M34.77,13.79v.75H34A.71.71,0,0,1,34.77,13.79Z" transform="translate(2.4 0.33)"/><path class="cls-4" d="M31.78,10.8a.74.74,0,1,1-1.48,0,.74.74,0,0,1,1.48,0Z" transform="translate(2.4 0.33)"/><rect class="cls-4" x="29.73" y="14.87" width="7.43" height="7.43"/><path class="cls-4" d="M28.08,14.54a.8.8,0,0,1-.74.74v-.74Z" transform="translate(2.4 0.33)"/><path class="cls-4" d="M34.77,14.54v.74a.74.74,0,0,1-.74-.74Z" transform="translate(2.4 0.33)"/><path class="cls-4" d="M28.08,22h-.74v-.74A.74.74,0,0,1,28.08,22Z" transform="translate(2.4 0.33)"/><path class="cls-4" d="M34.77,21.23V22H34A.7.7,0,0,1,34.77,21.23Z" transform="translate(2.4 0.33)"/><path class="cls-4" d="M31.78,18.24a.74.74,0,1,1-.74-.75A.74.74,0,0,1,31.78,18.24Z" transform="translate(2.4 0.33)"/><rect class="cls-4" x="29.73" y="22.3" width="7.43" height="7.43"/><path class="cls-4" d="M28.08,22a.8.8,0,0,1-.74.74V22Z" transform="translate(2.4 0.33)"/><path class="cls-4" d="M34.77,22v.74A.74.74,0,0,1,34,22Z" transform="translate(2.4 0.33)"/><path class="cls-4" d="M28.08,29.4h-.74v-.74A.74.74,0,0,1,28.08,29.4Z" transform="translate(2.4 0.33)"/><path class="cls-4" d="M34.77,28.66v.74H34A.7.7,0,0,1,34.77,28.66Z" transform="translate(2.4 0.33)"/><path class="cls-4" d="M31.78,25.67a.74.74,0,1,1-.74-.74A.74.74,0,0,1,31.78,25.67Z" transform="translate(2.4 0.33)"/><rect class="cls-4" x="29.73" y="29.73" width="7.43" height="7.43"/><path class="cls-4" d="M28.08,29.4a.8.8,0,0,1-.74.75V29.4Z" transform="translate(2.4 0.33)"/><path class="cls-4" d="M34.77,29.4v.75A.75.75,0,0,1,34,29.4Z" transform="translate(2.4 0.33)"/><path class="cls-4" d="M28.08,36.84h-.74v-.75A.75.75,0,0,1,28.08,36.84Z" transform="translate(2.4 0.33)"/><path class="cls-4" d="M34.77,36.09v.75H34A.71.71,0,0,1,34.77,36.09Z" transform="translate(2.4 0.33)"/><path class="cls-4" d="M31.78,33.1a.74.74,0,1,1-1.48,0,.74.74,0,1,1,1.48,0Z" transform="translate(2.4 0.33)"/><rect class="cls-4" x="29.73" y="37.17" width="7.43" height="7.43"/><path class="cls-4" d="M28.08,36.84a.8.8,0,0,1-.74.74v-.74Z" transform="translate(2.4 0.33)"/><path class="cls-4" d="M34.77,36.84v.74a.74.74,0,0,1-.74-.74Z" transform="translate(2.4 0.33)"/><path class="cls-4" d="M28.08,44.27h-.74v-.74A.74.74,0,0,1,28.08,44.27Z" transform="translate(2.4 0.33)"/><path class="cls-4" d="M34.77,43.53v.74H34A.7.7,0,0,1,34.77,43.53Z" transform="translate(2.4 0.33)"/><path class="cls-4" d="M31.78,40.54a.74.74,0,0,1-1.48,0,.74.74,0,1,1,1.48,0Z" transform="translate(2.4 0.33)"/><rect class="cls-4" x="29.73" y="44.6" width="7.43" height="7.43"/><path class="cls-4" d="M28.08,44.27a.81.81,0,0,1-.74.75v-.75Z" transform="translate(2.4 0.33)"/><path class="cls-4" d="M34.77,44.27V45a.75.75,0,0,1-.74-.75Z" transform="translate(2.4 0.33)"/><path class="cls-4" d="M28.08,51.71h-.74V51A.75.75,0,0,1,28.08,51.71Z" transform="translate(2.4 0.33)"/><path class="cls-4" d="M34.77,51v.75H34A.71.71,0,0,1,34.77,51Z" transform="translate(2.4 0.33)"/><path class="cls-4" d="M31.78,48a.74.74,0,1,1-.74-.74A.74.74,0,0,1,31.78,48Z" transform="translate(2.4 0.33)"/><rect class="cls-4" x="29.73" y="52.04" width="7.43" height="7.43"/><path class="cls-4" d="M28.08,51.71a.8.8,0,0,1-.74.74v-.74Z" transform="translate(2.4 0.33)"/><path class="cls-4" d="M34.77,51.71v.74a.74.74,0,0,1-.74-.74Z" transform="translate(2.4 0.33)"/><path class="cls-4" d="M28.08,59.14h-.74V58.4A.74.74,0,0,1,28.08,59.14Z" transform="translate(2.4 0.33)"/><path class="cls-4" d="M34.77,58.4v.74H34A.7.7,0,0,1,34.77,58.4Z" transform="translate(2.4 0.33)"/><path class="cls-4" d="M31.78,55.4a.74.74,0,1,1-1.48,0,.74.74,0,0,1,1.48,0Z" transform="translate(2.4 0.33)"/><rect class="cls-4" x="29.73" y="59.47" width="7.43" height="7.43"/><path class="cls-4" d="M28.08,59.14a.8.8,0,0,1-.74.74v-.74Z" transform="translate(2.4 0.33)"/><path class="cls-4" d="M34.77,59.14v.74a.74.74,0,0,1-.74-.74Z" transform="translate(2.4 0.33)"/><path class="cls-4" d="M28.08,66.57h-.74v-.74A.74.74,0,0,1,28.08,66.57Z" transform="translate(2.4 0.33)"/><path class="cls-4" d="M34.77,65.83v.74H34A.7.7,0,0,1,34.77,65.83Z" transform="translate(2.4 0.33)"/><path class="cls-4" d="M31.78,62.84a.74.74,0,1,1-1.48,0,.74.74,0,1,1,1.48,0Z" transform="translate(2.4 0.33)"/><rect class="cls-4" x="22.3" width="7.43" height="7.43"/><path class="cls-4" d="M20.65-.33a.8.8,0,0,1-.74.74V-.33Z" transform="translate(2.4 0.33)"/><path class="cls-4" d="M27.34-.33V.41a.74.74,0,0,1-.74-.74Z" transform="translate(2.4 0.33)"/><path class="cls-4" d="M20.65,7.1h-.74V6.36A.74.74,0,0,1,20.65,7.1Z" transform="translate(2.4 0.33)"/><path class="cls-4" d="M27.34,6.36V7.1H26.6A.7.7,0,0,1,27.34,6.36Z" transform="translate(2.4 0.33)"/><path class="cls-4" d="M24.35,3.37a.74.74,0,0,1-.74.74.75.75,0,0,1-.75-.74.76.76,0,0,1,.75-.75A.75.75,0,0,1,24.35,3.37Z" transform="translate(2.4 0.33)"/><rect class="cls-4" x="22.3" y="7.43" width="7.43" height="7.43"/><path class="cls-4" d="M20.65,7.1a.8.8,0,0,1-.74.75V7.1Z" transform="translate(2.4 0.33)"/><path class="cls-4" d="M27.34,7.1v.75a.74.74,0,0,1-.74-.75Z" transform="translate(2.4 0.33)"/><path class="cls-4" d="M20.65,14.54h-.74v-.75A.75.75,0,0,1,20.65,14.54Z" transform="translate(2.4 0.33)"/><path class="cls-4" d="M27.34,13.79v.75H26.6A.7.7,0,0,1,27.34,13.79Z" transform="translate(2.4 0.33)"/><path class="cls-4" d="M24.35,10.8a.75.75,0,0,1-.74.75.76.76,0,0,1-.75-.75.75.75,0,0,1,.75-.74A.74.74,0,0,1,24.35,10.8Z" transform="translate(2.4 0.33)"/><rect class="cls-4" x="22.3" y="14.87" width="7.43" height="7.43"/><path class="cls-4" d="M20.65,14.54a.8.8,0,0,1-.74.74v-.74Z" transform="translate(2.4 0.33)"/><path class="cls-4" d="M27.34,14.54v.74a.74.74,0,0,1-.74-.74Z" transform="translate(2.4 0.33)"/><path class="cls-4" d="M20.65,22h-.74v-.74A.74.74,0,0,1,20.65,22Z" transform="translate(2.4 0.33)"/><path class="cls-4" d="M27.34,21.23V22H26.6A.69.69,0,0,1,27.34,21.23Z" transform="translate(2.4 0.33)"/><path class="cls-4" d="M24.35,18.24a.74.74,0,0,1-.74.74.75.75,0,1,1,.74-.74Z" transform="translate(2.4 0.33)"/><rect class="cls-4" x="22.3" y="22.3" width="7.43" height="7.43"/><path class="cls-4" d="M20.65,22a.8.8,0,0,1-.74.74V22Z" transform="translate(2.4 0.33)"/><path class="cls-4" d="M27.34,22v.74A.74.74,0,0,1,26.6,22Z" transform="translate(2.4 0.33)"/><path class="cls-4" d="M20.65,29.4h-.74v-.74A.74.74,0,0,1,20.65,29.4Z" transform="translate(2.4 0.33)"/><path class="cls-4" d="M27.34,28.66v.74H26.6A.7.7,0,0,1,27.34,28.66Z" transform="translate(2.4 0.33)"/><path class="cls-4" d="M24.35,25.67a.74.74,0,0,1-.74.74.74.74,0,1,1,0-1.48A.74.74,0,0,1,24.35,25.67Z" transform="translate(2.4 0.33)"/><rect class="cls-4" x="22.3" y="29.73" width="7.43" height="7.43"/><path class="cls-4" d="M20.65,29.4a.8.8,0,0,1-.74.75V29.4Z" transform="translate(2.4 0.33)"/><path class="cls-4" d="M27.34,29.4v.75a.74.74,0,0,1-.74-.75Z" transform="translate(2.4 0.33)"/><path class="cls-4" d="M20.65,36.84h-.74v-.75A.75.75,0,0,1,20.65,36.84Z" transform="translate(2.4 0.33)"/><path class="cls-4" d="M27.34,36.09v.75H26.6A.7.7,0,0,1,27.34,36.09Z" transform="translate(2.4 0.33)"/><path class="cls-4" d="M24.35,33.1a.75.75,0,0,1-.74.75.76.76,0,0,1-.75-.75.75.75,0,0,1,.75-.74A.74.74,0,0,1,24.35,33.1Z" transform="translate(2.4 0.33)"/><rect class="cls-4" x="22.3" y="37.17" width="7.43" height="7.43"/><path class="cls-4" d="M20.65,36.84a.8.8,0,0,1-.74.74v-.74Z" transform="translate(2.4 0.33)"/><path class="cls-4" d="M27.34,36.84v.74a.74.74,0,0,1-.74-.74Z" transform="translate(2.4 0.33)"/><path class="cls-4" d="M20.65,44.27h-.74v-.74A.74.74,0,0,1,20.65,44.27Z" transform="translate(2.4 0.33)"/><path class="cls-4" d="M27.34,43.53v.74H26.6A.7.7,0,0,1,27.34,43.53Z" transform="translate(2.4 0.33)"/><path class="cls-4" d="M24.35,40.54a.74.74,0,0,1-.74.74.75.75,0,0,1-.75-.74.76.76,0,0,1,.75-.75A.75.75,0,0,1,24.35,40.54Z" transform="translate(2.4 0.33)"/><rect class="cls-4" x="22.3" y="44.6" width="7.43" height="7.43"/><path class="cls-4" d="M20.65,44.27a.81.81,0,0,1-.74.75v-.75Z" transform="translate(2.4 0.33)"/><path class="cls-4" d="M27.34,44.27V45a.75.75,0,0,1-.74-.75Z" transform="translate(2.4 0.33)"/><path class="cls-4" d="M20.65,51.71h-.74V51A.75.75,0,0,1,20.65,51.71Z" transform="translate(2.4 0.33)"/><path class="cls-4" d="M27.34,51v.75H26.6A.7.7,0,0,1,27.34,51Z" transform="translate(2.4 0.33)"/><path class="cls-4" d="M24.35,48a.74.74,0,0,1-.74.74.74.74,0,1,1,0-1.48A.74.74,0,0,1,24.35,48Z" transform="translate(2.4 0.33)"/><rect class="cls-4" x="22.3" y="52.04" width="7.43" height="7.43"/><path class="cls-4" d="M20.65,51.71a.8.8,0,0,1-.74.74v-.74Z" transform="translate(2.4 0.33)"/><path class="cls-4" d="M27.34,51.71v.74a.74.74,0,0,1-.74-.74Z" transform="translate(2.4 0.33)"/><path class="cls-4" d="M20.65,59.14h-.74V58.4A.74.74,0,0,1,20.65,59.14Z" transform="translate(2.4 0.33)"/><path class="cls-4" d="M27.34,58.4v.74H26.6A.69.69,0,0,1,27.34,58.4Z" transform="translate(2.4 0.33)"/><path class="cls-4" d="M24.35,55.4a.75.75,0,0,1-.74.75.76.76,0,0,1-.75-.75.75.75,0,0,1,.75-.74A.74.74,0,0,1,24.35,55.4Z" transform="translate(2.4 0.33)"/><rect class="cls-4" x="22.3" y="59.47" width="7.43" height="7.43"/><path class="cls-4" d="M20.65,59.14a.8.8,0,0,1-.74.74v-.74Z" transform="translate(2.4 0.33)"/><path class="cls-4" d="M27.34,59.14v.74a.74.74,0,0,1-.74-.74Z" transform="translate(2.4 0.33)"/><path class="cls-4" d="M20.65,66.57h-.74v-.74A.74.74,0,0,1,20.65,66.57Z" transform="translate(2.4 0.33)"/><path class="cls-4" d="M27.34,65.83v.74H26.6A.7.7,0,0,1,27.34,65.83Z" transform="translate(2.4 0.33)"/><path class="cls-4" d="M24.35,62.84a.74.74,0,0,1-.74.74.75.75,0,0,1-.75-.74.76.76,0,0,1,.75-.75A.75.75,0,0,1,24.35,62.84Z" transform="translate(2.4 0.33)"/><rect class="cls-4" x="14.87" width="7.43" height="7.43"/><path class="cls-4" d="M13.22-.33a.81.81,0,0,1-.75.74V-.33Z" transform="translate(2.4 0.33)"/><path class="cls-4" d="M19.91-.33V.41a.75.75,0,0,1-.75-.74Z" transform="translate(2.4 0.33)"/><path class="cls-4" d="M13.22,7.1h-.75V6.36A.75.75,0,0,1,13.22,7.1Z" transform="translate(2.4 0.33)"/><path class="cls-4" d="M19.91,6.36V7.1h-.75A.71.71,0,0,1,19.91,6.36Z" transform="translate(2.4 0.33)"/><path class="cls-4" d="M16.92,3.37a.75.75,0,0,1-.75.74.74.74,0,0,1-.74-.74.75.75,0,0,1,.74-.75A.76.76,0,0,1,16.92,3.37Z" transform="translate(2.4 0.33)"/><rect class="cls-4" x="14.87" y="7.43" width="7.43" height="7.43"/><path class="cls-4" d="M13.22,7.1a.81.81,0,0,1-.75.75V7.1Z" transform="translate(2.4 0.33)"/><path class="cls-4" d="M19.91,7.1v.75a.75.75,0,0,1-.75-.75Z" transform="translate(2.4 0.33)"/><path class="cls-4" d="M13.22,14.54h-.75v-.75A.75.75,0,0,1,13.22,14.54Z" transform="translate(2.4 0.33)"/><path class="cls-4" d="M19.91,13.79v.75h-.75A.71.71,0,0,1,19.91,13.79Z" transform="translate(2.4 0.33)"/><path class="cls-4" d="M16.92,10.8a.76.76,0,0,1-.75.75.75.75,0,0,1-.74-.75.74.74,0,0,1,.74-.74A.75.75,0,0,1,16.92,10.8Z" transform="translate(2.4 0.33)"/><rect class="cls-4" x="14.87" y="14.87" width="7.43" height="7.43"/><path class="cls-4" d="M13.22,14.54a.81.81,0,0,1-.75.74v-.74Z" transform="translate(2.4 0.33)"/><path class="cls-4" d="M19.91,14.54v.74a.75.75,0,0,1-.75-.74Z" transform="translate(2.4 0.33)"/><path class="cls-4" d="M13.22,22h-.75v-.74A.75.75,0,0,1,13.22,22Z" transform="translate(2.4 0.33)"/><path class="cls-4" d="M19.91,21.23V22h-.75A.7.7,0,0,1,19.91,21.23Z" transform="translate(2.4 0.33)"/><path class="cls-4" d="M16.92,18.24a.75.75,0,0,1-.75.74.75.75,0,0,1,0-1.49A.75.75,0,0,1,16.92,18.24Z" transform="translate(2.4 0.33)"/><rect class="cls-4" x="14.87" y="22.3" width="7.43" height="7.43"/><path class="cls-4" d="M13.22,22a.81.81,0,0,1-.75.74V22Z" transform="translate(2.4 0.33)"/><path class="cls-4" d="M19.91,22v.74a.75.75,0,0,1-.75-.74Z" transform="translate(2.4 0.33)"/><path class="cls-4" d="M13.22,29.4h-.75v-.74A.75.75,0,0,1,13.22,29.4Z" transform="translate(2.4 0.33)"/><path class="cls-4" d="M19.91,28.66v.74h-.75A.71.71,0,0,1,19.91,28.66Z" transform="translate(2.4 0.33)"/><path class="cls-4" d="M16.92,25.67a.75.75,0,0,1-.75.74.74.74,0,1,1,0-1.48A.75.75,0,0,1,16.92,25.67Z" transform="translate(2.4 0.33)"/><rect class="cls-4" x="14.87" y="29.73" width="7.43" height="7.43"/><path class="cls-4" d="M13.22,29.4a.81.81,0,0,1-.75.75V29.4Z" transform="translate(2.4 0.33)"/><path class="cls-4" d="M19.91,29.4v.75a.75.75,0,0,1-.75-.75Z" transform="translate(2.4 0.33)"/><path class="cls-4" d="M13.22,36.84h-.75v-.75A.75.75,0,0,1,13.22,36.84Z" transform="translate(2.4 0.33)"/><path class="cls-4" d="M19.91,36.09v.75h-.75A.71.71,0,0,1,19.91,36.09Z" transform="translate(2.4 0.33)"/><path class="cls-4" d="M16.92,33.1a.76.76,0,0,1-.75.75.75.75,0,0,1-.74-.75.74.74,0,0,1,.74-.74A.75.75,0,0,1,16.92,33.1Z" transform="translate(2.4 0.33)"/><rect class="cls-4" x="14.87" y="37.17" width="7.43" height="7.43"/><path class="cls-4" d="M13.22,36.84a.81.81,0,0,1-.75.74v-.74Z" transform="translate(2.4 0.33)"/><path class="cls-4" d="M19.91,36.84v.74a.75.75,0,0,1-.75-.74Z" transform="translate(2.4 0.33)"/><path class="cls-4" d="M13.22,44.27h-.75v-.74A.75.75,0,0,1,13.22,44.27Z" transform="translate(2.4 0.33)"/><path class="cls-4" d="M19.91,43.53v.74h-.75A.71.71,0,0,1,19.91,43.53Z" transform="translate(2.4 0.33)"/><path class="cls-4" d="M16.92,40.54a.75.75,0,0,1-.75.74.74.74,0,0,1-.74-.74.75.75,0,0,1,.74-.75A.76.76,0,0,1,16.92,40.54Z" transform="translate(2.4 0.33)"/><rect class="cls-4" x="14.87" y="44.6" width="7.43" height="7.43"/><path class="cls-4" d="M13.22,44.27a.81.81,0,0,1-.75.75v-.75Z" transform="translate(2.4 0.33)"/><path class="cls-4" d="M19.91,44.27V45a.75.75,0,0,1-.75-.75Z" transform="translate(2.4 0.33)"/><path class="cls-4" d="M13.22,51.71h-.75V51A.75.75,0,0,1,13.22,51.71Z" transform="translate(2.4 0.33)"/><path class="cls-4" d="M19.91,51v.75h-.75A.71.71,0,0,1,19.91,51Z" transform="translate(2.4 0.33)"/><path class="cls-4" d="M16.92,48a.75.75,0,0,1-.75.74.74.74,0,1,1,0-1.48A.75.75,0,0,1,16.92,48Z" transform="translate(2.4 0.33)"/><rect class="cls-4" x="14.87" y="52.04" width="7.43" height="7.43"/><path class="cls-4" d="M13.22,51.71a.81.81,0,0,1-.75.74v-.74Z" transform="translate(2.4 0.33)"/><path class="cls-4" d="M19.91,51.71v.74a.75.75,0,0,1-.75-.74Z" transform="translate(2.4 0.33)"/><path class="cls-4" d="M13.22,59.14h-.75V58.4A.75.75,0,0,1,13.22,59.14Z" transform="translate(2.4 0.33)"/><path class="cls-4" d="M19.91,58.4v.74h-.75A.7.7,0,0,1,19.91,58.4Z" transform="translate(2.4 0.33)"/><path class="cls-4" d="M16.92,55.4a.76.76,0,0,1-.75.75.75.75,0,0,1-.74-.75.74.74,0,0,1,.74-.74A.75.75,0,0,1,16.92,55.4Z" transform="translate(2.4 0.33)"/><rect class="cls-4" x="14.87" y="59.47" width="7.43" height="7.43"/><path class="cls-4" d="M13.22,59.14a.81.81,0,0,1-.75.74v-.74Z" transform="translate(2.4 0.33)"/><path class="cls-4" d="M19.91,59.14v.74a.75.75,0,0,1-.75-.74Z" transform="translate(2.4 0.33)"/><path class="cls-4" d="M13.22,66.57h-.75v-.74A.75.75,0,0,1,13.22,66.57Z" transform="translate(2.4 0.33)"/><path class="cls-4" d="M19.91,65.83v.74h-.75A.71.71,0,0,1,19.91,65.83Z" transform="translate(2.4 0.33)"/><path class="cls-4" d="M16.92,62.84a.75.75,0,0,1-.75.74.74.74,0,0,1-.74-.74.75.75,0,0,1,.74-.75A.76.76,0,0,1,16.92,62.84Z" transform="translate(2.4 0.33)"/><rect class="cls-4" x="7.43" width="7.43" height="7.43"/><path class="cls-4" d="M5.78-.33A.8.8,0,0,1,5,.41V-.33Z" transform="translate(2.4 0.33)"/><path class="cls-4" d="M12.47-.33V.41a.74.74,0,0,1-.74-.74Z" transform="translate(2.4 0.33)"/><path class="cls-4" d="M5.78,7.1H5V6.36A.74.74,0,0,1,5.78,7.1Z" transform="translate(2.4 0.33)"/><path class="cls-4" d="M12.47,6.36V7.1h-.74A.7.7,0,0,1,12.47,6.36Z" transform="translate(2.4 0.33)"/><path class="cls-4" d="M9.48,3.37A.74.74,0,1,1,8,3.37a.74.74,0,1,1,1.48,0Z" transform="translate(2.4 0.33)"/><rect class="cls-4" x="7.43" y="7.43" width="7.43" height="7.43"/><path class="cls-4" d="M5.78,7.1A.8.8,0,0,1,5,7.85V7.1Z" transform="translate(2.4 0.33)"/><path class="cls-4" d="M12.47,7.1v.75a.75.75,0,0,1-.74-.75Z" transform="translate(2.4 0.33)"/><path class="cls-4" d="M5.78,14.54H5v-.75A.75.75,0,0,1,5.78,14.54Z" transform="translate(2.4 0.33)"/><path class="cls-4" d="M12.47,13.79v.75h-.74A.71.71,0,0,1,12.47,13.79Z" transform="translate(2.4 0.33)"/><path class="cls-4" d="M9.48,10.8A.74.74,0,1,1,8,10.8a.74.74,0,1,1,1.48,0Z" transform="translate(2.4 0.33)"/><rect class="cls-4" x="7.43" y="14.87" width="7.43" height="7.43"/><path class="cls-4" d="M5.78,14.54a.8.8,0,0,1-.74.74v-.74Z" transform="translate(2.4 0.33)"/><path class="cls-4" d="M12.47,14.54v.74a.74.74,0,0,1-.74-.74Z" transform="translate(2.4 0.33)"/><path class="cls-4" d="M5.78,22H5v-.74A.74.74,0,0,1,5.78,22Z" transform="translate(2.4 0.33)"/><path class="cls-4" d="M12.47,21.23V22h-.74A.7.7,0,0,1,12.47,21.23Z" transform="translate(2.4 0.33)"/><path class="cls-4" d="M9.48,18.24a.74.74,0,1,1-.74-.75A.74.74,0,0,1,9.48,18.24Z" transform="translate(2.4 0.33)"/><rect class="cls-4" x="7.43" y="22.3" width="7.43" height="7.43"/><path class="cls-4" d="M5.78,22a.8.8,0,0,1-.74.74V22Z" transform="translate(2.4 0.33)"/><path class="cls-4" d="M12.47,22v.74a.74.74,0,0,1-.74-.74Z" transform="translate(2.4 0.33)"/><path class="cls-4" d="M5.78,29.4H5v-.74A.74.74,0,0,1,5.78,29.4Z" transform="translate(2.4 0.33)"/><path class="cls-4" d="M12.47,28.66v.74h-.74A.7.7,0,0,1,12.47,28.66Z" transform="translate(2.4 0.33)"/><path class="cls-4" d="M9.48,25.67a.74.74,0,1,1-.74-.74A.74.74,0,0,1,9.48,25.67Z" transform="translate(2.4 0.33)"/><rect class="cls-4" x="7.43" y="29.73" width="7.43" height="7.43"/><path class="cls-4" d="M5.78,29.4a.8.8,0,0,1-.74.75V29.4Z" transform="translate(2.4 0.33)"/><path class="cls-4" d="M12.47,29.4v.75a.75.75,0,0,1-.74-.75Z" transform="translate(2.4 0.33)"/><path class="cls-4" d="M5.78,36.84H5v-.75A.75.75,0,0,1,5.78,36.84Z" transform="translate(2.4 0.33)"/><path class="cls-4" d="M12.47,36.09v.75h-.74A.71.71,0,0,1,12.47,36.09Z" transform="translate(2.4 0.33)"/><path class="cls-4" d="M9.48,33.1A.74.74,0,1,1,8,33.1a.74.74,0,1,1,1.48,0Z" transform="translate(2.4 0.33)"/><rect class="cls-4" x="7.43" y="37.17" width="7.43" height="7.43"/><path class="cls-4" d="M5.78,36.84a.8.8,0,0,1-.74.74v-.74Z" transform="translate(2.4 0.33)"/><path class="cls-4" d="M12.47,36.84v.74a.74.74,0,0,1-.74-.74Z" transform="translate(2.4 0.33)"/><path class="cls-4" d="M5.78,44.27H5v-.74A.74.74,0,0,1,5.78,44.27Z" transform="translate(2.4 0.33)"/><path class="cls-4" d="M12.47,43.53v.74h-.74A.7.7,0,0,1,12.47,43.53Z" transform="translate(2.4 0.33)"/><path class="cls-4" d="M9.48,40.54a.74.74,0,0,1-1.48,0,.74.74,0,1,1,1.48,0Z" transform="translate(2.4 0.33)"/><rect class="cls-4" x="7.43" y="44.6" width="7.43" height="7.43"/><path class="cls-4" d="M5.78,44.27A.81.81,0,0,1,5,45v-.75Z" transform="translate(2.4 0.33)"/><path class="cls-4" d="M12.47,44.27V45a.75.75,0,0,1-.74-.75Z" transform="translate(2.4 0.33)"/><path class="cls-4" d="M5.78,51.71H5V51A.75.75,0,0,1,5.78,51.71Z" transform="translate(2.4 0.33)"/><path class="cls-4" d="M12.47,51v.75h-.74A.71.71,0,0,1,12.47,51Z" transform="translate(2.4 0.33)"/><path class="cls-4" d="M9.48,48a.74.74,0,1,1-.74-.74A.74.74,0,0,1,9.48,48Z" transform="translate(2.4 0.33)"/><rect class="cls-4" x="7.43" y="52.04" width="7.43" height="7.43"/><path class="cls-4" d="M5.78,51.71a.8.8,0,0,1-.74.74v-.74Z" transform="translate(2.4 0.33)"/><path class="cls-4" d="M12.47,51.71v.74a.74.74,0,0,1-.74-.74Z" transform="translate(2.4 0.33)"/><path class="cls-4" d="M5.78,59.14H5V58.4A.74.74,0,0,1,5.78,59.14Z" transform="translate(2.4 0.33)"/><path class="cls-4" d="M12.47,58.4v.74h-.74A.7.7,0,0,1,12.47,58.4Z" transform="translate(2.4 0.33)"/><path class="cls-4" d="M9.48,55.4A.74.74,0,1,1,8,55.4a.74.74,0,0,1,1.48,0Z" transform="translate(2.4 0.33)"/><rect class="cls-4" x="7.43" y="59.47" width="7.43" height="7.43"/><path class="cls-4" d="M5.78,59.14a.8.8,0,0,1-.74.74v-.74Z" transform="translate(2.4 0.33)"/><path class="cls-4" d="M12.47,59.14v.74a.74.74,0,0,1-.74-.74Z" transform="translate(2.4 0.33)"/><path class="cls-4" d="M5.78,66.57H5v-.74A.74.74,0,0,1,5.78,66.57Z" transform="translate(2.4 0.33)"/><path class="cls-4" d="M12.47,65.83v.74h-.74A.7.7,0,0,1,12.47,65.83Z" transform="translate(2.4 0.33)"/><path class="cls-4" d="M9.48,62.84a.74.74,0,0,1-1.48,0,.74.74,0,1,1,1.48,0Z" transform="translate(2.4 0.33)"/><rect class="cls-4" width="7.43" height="7.43"/><path class="cls-4" d="M-1.65-.33A.8.8,0,0,1-2.4.41V-.33Z" transform="translate(2.4 0.33)"/><path class="cls-4" d="M5-.33V.41a.75.75,0,0,1-.75-.74Z" transform="translate(2.4 0.33)"/><path class="cls-4" d="M-1.65,7.1H-2.4V6.36A.75.75,0,0,1-1.65,7.1Z" transform="translate(2.4 0.33)"/><path class="cls-4" d="M5,6.36V7.1H4.29A.71.71,0,0,1,5,6.36Z" transform="translate(2.4 0.33)"/><path class="cls-4" d="M2.05,3.37a.75.75,0,0,1-1.49,0,.75.75,0,1,1,1.49,0Z" transform="translate(2.4 0.33)"/><rect class="cls-4" y="7.43" width="7.43" height="7.43"/><path class="cls-4" d="M-1.65,7.1a.8.8,0,0,1-.75.75V7.1Z" transform="translate(2.4 0.33)"/><path class="cls-4" d="M5,7.1v.75a.75.75,0,0,1-.75-.75Z" transform="translate(2.4 0.33)"/><path class="cls-4" d="M-1.65,14.54H-2.4v-.75A.75.75,0,0,1-1.65,14.54Z" transform="translate(2.4 0.33)"/><path class="cls-4" d="M5,13.79v.75H4.29A.71.71,0,0,1,5,13.79Z" transform="translate(2.4 0.33)"/><path class="cls-4" d="M2.05,10.8a.75.75,0,1,1-.74-.74A.74.74,0,0,1,2.05,10.8Z" transform="translate(2.4 0.33)"/><rect class="cls-4" y="14.87" width="7.43" height="7.43"/><path class="cls-4" d="M-1.65,14.54a.8.8,0,0,1-.75.74v-.74Z" transform="translate(2.4 0.33)"/><path class="cls-4" d="M5,14.54v.74a.75.75,0,0,1-.75-.74Z" transform="translate(2.4 0.33)"/><path class="cls-4" d="M-1.65,22H-2.4v-.74A.74.74,0,0,1-1.65,22Z" transform="translate(2.4 0.33)"/><path class="cls-4" d="M5,21.23V22H4.29A.7.7,0,0,1,5,21.23Z" transform="translate(2.4 0.33)"/><path class="cls-4" d="M2.05,18.24a.75.75,0,1,1-.74-.75A.74.74,0,0,1,2.05,18.24Z" transform="translate(2.4 0.33)"/><rect class="cls-4" y="22.3" width="7.43" height="7.43"/><path class="cls-4" d="M-1.65,22a.8.8,0,0,1-.75.74V22Z" transform="translate(2.4 0.33)"/><path class="cls-4" d="M5,22v.74A.75.75,0,0,1,4.29,22Z" transform="translate(2.4 0.33)"/><path class="cls-4" d="M-1.65,29.4H-2.4v-.74A.75.75,0,0,1-1.65,29.4Z" transform="translate(2.4 0.33)"/><path class="cls-4" d="M5,28.66v.74H4.29A.71.71,0,0,1,5,28.66Z" transform="translate(2.4 0.33)"/><path class="cls-4" d="M2.05,25.67a.75.75,0,1,1-.74-.74A.74.74,0,0,1,2.05,25.67Z" transform="translate(2.4 0.33)"/><rect class="cls-4" y="29.73" width="7.43" height="7.43"/><path class="cls-4" d="M-1.65,29.4a.8.8,0,0,1-.75.75V29.4Z" transform="translate(2.4 0.33)"/><path class="cls-4" d="M5,29.4v.75a.75.75,0,0,1-.75-.75Z" transform="translate(2.4 0.33)"/><path class="cls-4" d="M-1.65,36.84H-2.4v-.75A.75.75,0,0,1-1.65,36.84Z" transform="translate(2.4 0.33)"/><path class="cls-4" d="M5,36.09v.75H4.29A.71.71,0,0,1,5,36.09Z" transform="translate(2.4 0.33)"/><circle class="cls-4" cx="3.7" cy="33.43" r="0.74"/><rect class="cls-4" y="37.17" width="7.43" height="7.43"/><path class="cls-4" d="M-1.65,36.84a.8.8,0,0,1-.75.74v-.74Z" transform="translate(2.4 0.33)"/><path class="cls-4" d="M5,36.84v.74a.75.75,0,0,1-.75-.74Z" transform="translate(2.4 0.33)"/><path class="cls-4" d="M-1.65,44.27H-2.4v-.74A.75.75,0,0,1-1.65,44.27Z" transform="translate(2.4 0.33)"/><path class="cls-4" d="M5,43.53v.74H4.29A.71.71,0,0,1,5,43.53Z" transform="translate(2.4 0.33)"/><path class="cls-4" d="M2.05,40.54a.75.75,0,0,1-1.49,0,.75.75,0,1,1,1.49,0Z" transform="translate(2.4 0.33)"/><rect class="cls-4" y="44.6" width="7.43" height="7.43"/><path class="cls-4" d="M-1.65,44.27A.81.81,0,0,1-2.4,45v-.75Z" transform="translate(2.4 0.33)"/><path class="cls-4" d="M5,44.27V45a.75.75,0,0,1-.75-.75Z" transform="translate(2.4 0.33)"/><path class="cls-4" d="M-1.65,51.71H-2.4V51A.75.75,0,0,1-1.65,51.71Z" transform="translate(2.4 0.33)"/><path class="cls-4" d="M5,51v.75H4.29A.71.71,0,0,1,5,51Z" transform="translate(2.4 0.33)"/><circle class="cls-4" cx="3.7" cy="48.3" r="0.74"/><rect class="cls-4" y="52.04" width="7.43" height="7.43"/><path class="cls-4" d="M-1.65,51.71a.8.8,0,0,1-.75.74v-.74Z" transform="translate(2.4 0.33)"/><path class="cls-4" d="M5,51.71v.74a.75.75,0,0,1-.75-.74Z" transform="translate(2.4 0.33)"/><path class="cls-4" d="M-1.65,59.14H-2.4V58.4A.74.74,0,0,1-1.65,59.14Z" transform="translate(2.4 0.33)"/><path class="cls-4" d="M5,58.4v.74H4.29A.7.7,0,0,1,5,58.4Z" transform="translate(2.4 0.33)"/><path class="cls-4" d="M2.05,55.4a.75.75,0,1,1-.74-.74A.74.74,0,0,1,2.05,55.4Z" transform="translate(2.4 0.33)"/><rect class="cls-4" y="59.47" width="7.43" height="7.43"/><path class="cls-4" d="M-1.65,59.14a.8.8,0,0,1-.75.74v-.74Z" transform="translate(2.4 0.33)"/><path class="cls-4" d="M5,59.14v.74a.75.75,0,0,1-.75-.74Z" transform="translate(2.4 0.33)"/><path class="cls-4" d="M-1.65,66.57H-2.4v-.74A.75.75,0,0,1-1.65,66.57Z" transform="translate(2.4 0.33)"/><path class="cls-4" d="M5,65.83v.74H4.29A.71.71,0,0,1,5,65.83Z" transform="translate(2.4 0.33)"/><circle class="cls-4" cx="3.7" cy="63.17" r="0.74"/><rect class="cls-4" x="22.3" y="7.43" width="7.43" height="7.43"/><path class="cls-4" d="M20.65,7.1a.8.8,0,0,1-.74.75V7.1Z" transform="translate(2.4 0.33)"/><path class="cls-4" d="M27.34,7.1v.75a.74.74,0,0,1-.74-.75Z" transform="translate(2.4 0.33)"/><path class="cls-4" d="M20.65,14.54h-.74v-.75A.75.75,0,0,1,20.65,14.54Z" transform="translate(2.4 0.33)"/><path class="cls-4" d="M27.34,13.79v.75H26.6A.7.7,0,0,1,27.34,13.79Z" transform="translate(2.4 0.33)"/><path class="cls-4" d="M24.35,10.8a.75.75,0,0,1-.74.75.76.76,0,0,1-.75-.75.75.75,0,0,1,.75-.74A.74.74,0,0,1,24.35,10.8Z" transform="translate(2.4 0.33)"/><rect class="cls-4" x="22.3" y="14.87" width="7.43" height="7.43"/><path class="cls-4" d="M20.65,14.54a.8.8,0,0,1-.74.74v-.74Z" transform="translate(2.4 0.33)"/><path class="cls-4" d="M27.34,14.54v.74a.74.74,0,0,1-.74-.74Z" transform="translate(2.4 0.33)"/><path class="cls-4" d="M20.65,22h-.74v-.74A.74.74,0,0,1,20.65,22Z" transform="translate(2.4 0.33)"/><path class="cls-4" d="M27.34,21.23V22H26.6A.69.69,0,0,1,27.34,21.23Z" transform="translate(2.4 0.33)"/><path class="cls-4" d="M24.35,18.24a.74.74,0,0,1-.74.74.75.75,0,1,1,.74-.74Z" transform="translate(2.4 0.33)"/><rect class="cls-4" x="22.3" y="22.3" width="7.43" height="7.43"/><path class="cls-4" d="M20.65,22a.8.8,0,0,1-.74.74V22Z" transform="translate(2.4 0.33)"/><path class="cls-4" d="M27.34,22v.74A.74.74,0,0,1,26.6,22Z" transform="translate(2.4 0.33)"/><path class="cls-4" d="M20.65,29.4h-.74v-.74A.74.74,0,0,1,20.65,29.4Z" transform="translate(2.4 0.33)"/><path class="cls-4" d="M27.34,28.66v.74H26.6A.7.7,0,0,1,27.34,28.66Z" transform="translate(2.4 0.33)"/><path class="cls-4" d="M24.35,25.67a.74.74,0,0,1-.74.74.74.74,0,1,1,0-1.48A.74.74,0,0,1,24.35,25.67Z" transform="translate(2.4 0.33)"/><rect class="cls-4" x="22.3" y="29.73" width="7.43" height="7.43"/><path class="cls-4" d="M20.65,29.4a.8.8,0,0,1-.74.75V29.4Z" transform="translate(2.4 0.33)"/><path class="cls-4" d="M27.34,29.4v.75a.74.74,0,0,1-.74-.75Z" transform="translate(2.4 0.33)"/><path class="cls-4" d="M20.65,36.84h-.74v-.75A.75.75,0,0,1,20.65,36.84Z" transform="translate(2.4 0.33)"/><path class="cls-4" d="M27.34,36.09v.75H26.6A.7.7,0,0,1,27.34,36.09Z" transform="translate(2.4 0.33)"/><path class="cls-4" d="M24.35,33.1a.75.75,0,0,1-.74.75.76.76,0,0,1-.75-.75.75.75,0,0,1,.75-.74A.74.74,0,0,1,24.35,33.1Z" transform="translate(2.4 0.33)"/><rect class="cls-4" x="22.3" y="37.17" width="7.43" height="7.43"/><path class="cls-4" d="M20.65,36.84a.8.8,0,0,1-.74.74v-.74Z" transform="translate(2.4 0.33)"/><path class="cls-4" d="M27.34,36.84v.74a.74.74,0,0,1-.74-.74Z" transform="translate(2.4 0.33)"/><path class="cls-4" d="M20.65,44.27h-.74v-.74A.74.74,0,0,1,20.65,44.27Z" transform="translate(2.4 0.33)"/><path class="cls-4" d="M27.34,43.53v.74H26.6A.7.7,0,0,1,27.34,43.53Z" transform="translate(2.4 0.33)"/><path class="cls-4" d="M24.35,40.54a.74.74,0,0,1-.74.74.75.75,0,0,1-.75-.74.76.76,0,0,1,.75-.75A.75.75,0,0,1,24.35,40.54Z" transform="translate(2.4 0.33)"/><rect class="cls-4" x="22.3" y="44.6" width="7.43" height="7.43"/><path class="cls-4" d="M20.65,44.27a.81.81,0,0,1-.74.75v-.75Z" transform="translate(2.4 0.33)"/><path class="cls-4" d="M27.34,44.27V45a.75.75,0,0,1-.74-.75Z" transform="translate(2.4 0.33)"/><path class="cls-4" d="M20.65,51.71h-.74V51A.75.75,0,0,1,20.65,51.71Z" transform="translate(2.4 0.33)"/><path class="cls-4" d="M27.34,51v.75H26.6A.7.7,0,0,1,27.34,51Z" transform="translate(2.4 0.33)"/><path class="cls-4" d="M24.35,48a.74.74,0,0,1-.74.74.74.74,0,1,1,0-1.48A.74.74,0,0,1,24.35,48Z" transform="translate(2.4 0.33)"/><rect class="cls-4" x="22.3" y="52.04" width="7.43" height="7.43"/><path class="cls-4" d="M20.65,51.71a.8.8,0,0,1-.74.74v-.74Z" transform="translate(2.4 0.33)"/><path class="cls-4" d="M27.34,51.71v.74a.74.74,0,0,1-.74-.74Z" transform="translate(2.4 0.33)"/><path class="cls-4" d="M20.65,59.14h-.74V58.4A.74.74,0,0,1,20.65,59.14Z" transform="translate(2.4 0.33)"/><path class="cls-4" d="M27.34,58.4v.74H26.6A.69.69,0,0,1,27.34,58.4Z" transform="translate(2.4 0.33)"/><path class="cls-4" d="M24.35,55.4a.75.75,0,0,1-.74.75.76.76,0,0,1-.75-.75.75.75,0,0,1,.75-.74A.74.74,0,0,1,24.35,55.4Z" transform="translate(2.4 0.33)"/><rect class="cls-4" x="14.87" y="7.43" width="7.43" height="7.43"/><path class="cls-4" d="M13.22,7.1a.81.81,0,0,1-.75.75V7.1Z" transform="translate(2.4 0.33)"/><path class="cls-4" d="M19.91,7.1v.75a.75.75,0,0,1-.75-.75Z" transform="translate(2.4 0.33)"/><path class="cls-4" d="M13.22,14.54h-.75v-.75A.75.75,0,0,1,13.22,14.54Z" transform="translate(2.4 0.33)"/><path class="cls-4" d="M19.91,13.79v.75h-.75A.71.71,0,0,1,19.91,13.79Z" transform="translate(2.4 0.33)"/><path class="cls-4" d="M16.92,10.8a.76.76,0,0,1-.75.75.75.75,0,0,1-.74-.75.74.74,0,0,1,.74-.74A.75.75,0,0,1,16.92,10.8Z" transform="translate(2.4 0.33)"/><rect class="cls-4" x="14.87" y="14.87" width="7.43" height="7.43"/><path class="cls-4" d="M13.22,14.54a.81.81,0,0,1-.75.74v-.74Z" transform="translate(2.4 0.33)"/><path class="cls-4" d="M19.91,14.54v.74a.75.75,0,0,1-.75-.74Z" transform="translate(2.4 0.33)"/><path class="cls-4" d="M13.22,22h-.75v-.74A.75.75,0,0,1,13.22,22Z" transform="translate(2.4 0.33)"/><path class="cls-4" d="M19.91,21.23V22h-.75A.7.7,0,0,1,19.91,21.23Z" transform="translate(2.4 0.33)"/><path class="cls-4" d="M16.92,18.24a.75.75,0,0,1-.75.74.75.75,0,0,1,0-1.49A.75.75,0,0,1,16.92,18.24Z" transform="translate(2.4 0.33)"/><rect class="cls-4" x="14.87" y="22.3" width="7.43" height="7.43"/><path class="cls-4" d="M13.22,22a.81.81,0,0,1-.75.74V22Z" transform="translate(2.4 0.33)"/><path class="cls-4" d="M19.91,22v.74a.75.75,0,0,1-.75-.74Z" transform="translate(2.4 0.33)"/><path class="cls-4" d="M13.22,29.4h-.75v-.74A.75.75,0,0,1,13.22,29.4Z" transform="translate(2.4 0.33)"/><path class="cls-4" d="M19.91,28.66v.74h-.75A.71.71,0,0,1,19.91,28.66Z" transform="translate(2.4 0.33)"/><path class="cls-4" d="M16.92,25.67a.75.75,0,0,1-.75.74.74.74,0,1,1,0-1.48A.75.75,0,0,1,16.92,25.67Z" transform="translate(2.4 0.33)"/><rect class="cls-4" x="14.87" y="29.73" width="7.43" height="7.43"/><path class="cls-4" d="M13.22,29.4a.81.81,0,0,1-.75.75V29.4Z" transform="translate(2.4 0.33)"/><path class="cls-4" d="M19.91,29.4v.75a.75.75,0,0,1-.75-.75Z" transform="translate(2.4 0.33)"/><path class="cls-4" d="M13.22,36.84h-.75v-.75A.75.75,0,0,1,13.22,36.84Z" transform="translate(2.4 0.33)"/><path class="cls-4" d="M19.91,36.09v.75h-.75A.71.71,0,0,1,19.91,36.09Z" transform="translate(2.4 0.33)"/><path class="cls-4" d="M16.92,33.1a.76.76,0,0,1-.75.75.75.75,0,0,1-.74-.75.74.74,0,0,1,.74-.74A.75.75,0,0,1,16.92,33.1Z" transform="translate(2.4 0.33)"/><rect class="cls-4" x="14.87" y="37.17" width="7.43" height="7.43"/><path class="cls-4" d="M13.22,36.84a.81.81,0,0,1-.75.74v-.74Z" transform="translate(2.4 0.33)"/><path class="cls-4" d="M19.91,36.84v.74a.75.75,0,0,1-.75-.74Z" transform="translate(2.4 0.33)"/><path class="cls-4" d="M13.22,44.27h-.75v-.74A.75.75,0,0,1,13.22,44.27Z" transform="translate(2.4 0.33)"/><path class="cls-4" d="M19.91,43.53v.74h-.75A.71.71,0,0,1,19.91,43.53Z" transform="translate(2.4 0.33)"/><path class="cls-4" d="M16.92,40.54a.75.75,0,0,1-.75.74.74.74,0,0,1-.74-.74.75.75,0,0,1,.74-.75A.76.76,0,0,1,16.92,40.54Z" transform="translate(2.4 0.33)"/><rect class="cls-4" x="14.87" y="44.6" width="7.43" height="7.43"/><path class="cls-4" d="M13.22,44.27a.81.81,0,0,1-.75.75v-.75Z" transform="translate(2.4 0.33)"/><path class="cls-4" d="M19.91,44.27V45a.75.75,0,0,1-.75-.75Z" transform="translate(2.4 0.33)"/><path class="cls-4" d="M13.22,51.71h-.75V51A.75.75,0,0,1,13.22,51.71Z" transform="translate(2.4 0.33)"/><path class="cls-4" d="M19.91,51v.75h-.75A.71.71,0,0,1,19.91,51Z" transform="translate(2.4 0.33)"/><path class="cls-4" d="M16.92,48a.75.75,0,0,1-.75.74.74.74,0,1,1,0-1.48A.75.75,0,0,1,16.92,48Z" transform="translate(2.4 0.33)"/><rect class="cls-4" x="14.87" y="52.04" width="7.43" height="7.43"/><path class="cls-4" d="M13.22,51.71a.81.81,0,0,1-.75.74v-.74Z" transform="translate(2.4 0.33)"/><path class="cls-4" d="M19.91,51.71v.74a.75.75,0,0,1-.75-.74Z" transform="translate(2.4 0.33)"/><path class="cls-4" d="M13.22,59.14h-.75V58.4A.75.75,0,0,1,13.22,59.14Z" transform="translate(2.4 0.33)"/><path class="cls-4" d="M19.91,58.4v.74h-.75A.7.7,0,0,1,19.91,58.4Z" transform="translate(2.4 0.33)"/><path class="cls-4" d="M16.92,55.4a.76.76,0,0,1-.75.75.75.75,0,0,1-.74-.75.74.74,0,0,1,.74-.74A.75.75,0,0,1,16.92,55.4Z" transform="translate(2.4 0.33)"/></g><path class="cls-5" d="M21.53,66.78C8.86,66.78,0,58.18,0,45.87v-25C0,8.6,8.86,0,21.53,0S43.06,8.6,43.06,20.91v25C43.06,58.18,34.21,66.78,21.53,66.78Zm0-64.55C10.17,2.23,2.24,9.91,2.24,20.91v25c0,11,7.93,18.68,19.29,18.68s19.3-7.68,19.3-18.68v-25C40.83,9.91,32.89,2.23,21.53,2.23Zm0,51.35c-4.19,0-6.91-3-6.91-7.62v-25c0-4.69,2.72-7.72,6.91-7.72s6.91,3.1,6.91,7.72V46C28.44,50.59,25.73,53.58,21.53,53.58Zm0-38.16c-2.93,0-4.67,2-4.67,5.49V46c0,3.38,1.74,5.39,4.67,5.39s4.68-2,4.68-5.39v-25C26.21,17.52,24.41,15.42,21.53,15.42Z" transform="translate(2.4 0.33)"/></g></g></svg>