<?xml version="1.0" encoding="UTF-8"?><svg id="Layer_1" xmlns="http://www.w3.org/2000/svg" xmlns:xlink="http://www.w3.org/1999/xlink" viewBox="0 0 576.96 377.48"><defs><style>.cls-1{fill:url(#linear-gradient-75);}.cls-2{fill:url(#linear-gradient-2);}.cls-3{fill:url(#linear-gradient-51);}.cls-4{fill:#fff;}.cls-5{fill:url(#linear-gradient-17);}.cls-6{fill:url(#linear-gradient-87);}.cls-7{fill:url(#linear-gradient-93);}.cls-8{fill:url(#linear-gradient-92);}.cls-9{fill:url(#linear-gradient-80);}.cls-10{fill:url(#linear-gradient-43);}.cls-11{fill:url(#linear-gradient-15);}.cls-12{fill:url(#linear-gradient-58);}.cls-13{fill:url(#linear-gradient-69);}.cls-14{fill:url(#linear-gradient-81);}.cls-15{fill:url(#linear-gradient-18);}.cls-16{fill:url(#linear-gradient-56);}.cls-17{fill:url(#linear-gradient-40);}.cls-18{fill:url(#linear-gradient-52);}.cls-19{fill:url(#linear-gradient-28);}.cls-20{fill:url(#linear-gradient-14);}.cls-21{fill:url(#linear-gradient-36);}.cls-22{fill:url(#linear-gradient-78);}.cls-23{fill:url(#linear-gradient-20);}.cls-24{fill:url(#linear-gradient-6);}.cls-25{fill:url(#linear-gradient-53);}.cls-26{fill:url(#linear-gradient-91);}.cls-27{fill:url(#linear-gradient-60);}.cls-28{fill:url(#linear-gradient-84);}.cls-29{fill:url(#linear-gradient-35);}.cls-30{fill:url(#linear-gradient-48);}.cls-31{fill:url(#linear-gradient-32);}.cls-32{fill:url(#linear-gradient-97);}.cls-33{fill:url(#linear-gradient-11);}.cls-34{fill:url(#linear-gradient-50);}.cls-35{fill:url(#linear-gradient-63);}.cls-36{fill:url(#linear-gradient-67);}.cls-37{fill:url(#linear-gradient-95);}.cls-38{fill:url(#linear-gradient-86);}.cls-39{fill:url(#linear-gradient-39);}.cls-40{fill:url(#linear-gradient-10);}.cls-41{fill:url(#linear-gradient-59);}.cls-42{fill:url(#linear-gradient-49);}.cls-43{fill:url(#linear-gradient-37);}.cls-44{fill:url(#linear-gradient-82);}.cls-45{fill:url(#linear-gradient-16);}.cls-46{fill:url(#linear-gradient-31);}.cls-47{fill:url(#linear-gradient-85);}.cls-48{fill:url(#linear-gradient-61);}.cls-49{fill:url(#linear-gradient-68);}.cls-50{fill:#2a3a6a;}.cls-51{fill:url(#linear-gradient-62);}.cls-52{fill:url(#linear-gradient-41);}.cls-53{fill:url(#linear-gradient-76);}.cls-54{fill:url(#linear-gradient-98);}.cls-55{fill:url(#linear-gradient-21);}.cls-56{fill:url(#linear-gradient-72);}.cls-57{fill:url(#linear-gradient-25);}.cls-58{fill:url(#linear-gradient-89);}.cls-59{fill:url(#linear-gradient-5);}.cls-60{fill:url(#linear-gradient-64);}.cls-61{fill:url(#linear-gradient-83);}.cls-62{fill:url(#linear-gradient-54);}.cls-63{fill:url(#linear-gradient-45);}.cls-64{fill:url(#linear-gradient-55);}.cls-65{fill:url(#linear-gradient-34);}.cls-66{fill:url(#linear-gradient-65);}.cls-67{fill:url(#linear-gradient-70);}.cls-68{fill:url(#linear-gradient-79);}.cls-69{fill:url(#linear-gradient-88);}.cls-70{fill:url(#linear-gradient-7);}.cls-71{fill:url(#linear-gradient-66);}.cls-72{fill:url(#linear-gradient-96);}.cls-73{fill:url(#linear-gradient-24);}.cls-74{fill:url(#linear-gradient-73);}.cls-75{fill:url(#linear-gradient-9);}.cls-76{fill:url(#linear-gradient-22);}.cls-77{fill:url(#linear-gradient-74);}.cls-78{fill:url(#linear-gradient-42);}.cls-79{fill:url(#linear-gradient-99);}.cls-80{fill:url(#linear-gradient-3);}.cls-81{fill:url(#linear-gradient);}.cls-82{fill:url(#linear-gradient-27);}.cls-83{fill:url(#linear-gradient-33);}.cls-84{fill:url(#linear-gradient-38);}.cls-85{fill:url(#linear-gradient-94);}.cls-86{fill:url(#linear-gradient-29);}.cls-87{fill:url(#linear-gradient-30);}.cls-88{fill:url(#linear-gradient-23);}.cls-89{fill:url(#linear-gradient-19);}.cls-90{fill:url(#linear-gradient-71);}.cls-91{fill:url(#linear-gradient-4);}.cls-92{fill:url(#linear-gradient-77);}.cls-93{fill:url(#linear-gradient-8);}.cls-94{fill:url(#linear-gradient-90);}.cls-95{fill:url(#linear-gradient-44);}.cls-96{fill:url(#linear-gradient-57);}.cls-97{fill:url(#linear-gradient-47);}.cls-98{fill:url(#linear-gradient-46);}.cls-99{fill:url(#linear-gradient-12);}.cls-100{fill:url(#linear-gradient-13);}.cls-101{fill:url(#linear-gradient-26);}</style><linearGradient id="linear-gradient" x1="1149.09" y1="-109.21" x2="1296.68" y2="-80.53" gradientTransform="translate(-967.88 131.34) scale(1 -1)" gradientUnits="userSpaceOnUse"><stop offset="0" stop-color="#5bc7d5"/><stop offset=".37" stop-color="#648fca"/><stop offset="1" stop-color="#7f61aa"/></linearGradient><linearGradient id="linear-gradient-2" x1="1181.16" y1="-119.53" x2="1375.73" y2="-17.05" xlink:href="#linear-gradient"/><linearGradient id="linear-gradient-3" x1="1063.22" y1="-251.39" x2="1086.66" y2="-196.59" xlink:href="#linear-gradient"/><linearGradient id="linear-gradient-4" x1="1480.88" y1="-192.67" x2="1471.3" y2="-247.97" xlink:href="#linear-gradient"/><linearGradient id="linear-gradient-5" x1="1547.39" y1="100.96" x2="1436.77" y2="-20.61" xlink:href="#linear-gradient"/><linearGradient id="linear-gradient-6" x1="975.57" y1="-275.41" x2="1537.09" y2="56.44" xlink:href="#linear-gradient"/><linearGradient id="linear-gradient-7" x1="1247.71" y1="-122.3" x2="1128.5" y2="-242.18" xlink:href="#linear-gradient"/><linearGradient id="linear-gradient-8" x1="1009.47" y1="-332.78" x2="1570.99" y2="-.92" xlink:href="#linear-gradient"/><linearGradient id="linear-gradient-9" x1="952.32" y1="-236.07" x2="1513.84" y2="95.79" xlink:href="#linear-gradient"/><linearGradient id="linear-gradient-10" x1="1404.49" y1="67.03" x2="1537.43" y2="109.85" xlink:href="#linear-gradient"/><linearGradient id="linear-gradient-11" x1="1418.92" y1="41.5" x2="1506.22" y2="-47.7" xlink:href="#linear-gradient"/><linearGradient id="linear-gradient-12" x1="1308.47" y1="-216.74" x2="1365.86" y2="-153.47" xlink:href="#linear-gradient"/><linearGradient id="linear-gradient-13" x1="1205.34" y1="-186.63" x2="1201.08" y2="-240.65" xlink:href="#linear-gradient"/><linearGradient id="linear-gradient-14" x1="1387.84" y1="23.16" x2="1342.08" y2="-91.11" xlink:href="#linear-gradient"/><linearGradient id="linear-gradient-15" x1="1037.52" y1="-380.23" x2="1599.04" y2="-48.37" xlink:href="#linear-gradient"/><linearGradient id="linear-gradient-16" x1="1439.97" y1="-108.71" x2="1523.78" y2="-108.71" xlink:href="#linear-gradient"/><linearGradient id="linear-gradient-17" x1="1312.71" y1="-220.59" x2="1370.1" y2="-157.32" xlink:href="#linear-gradient"/><linearGradient id="linear-gradient-18" x1="1473.89" y1="-191.46" x2="1464.31" y2="-246.76" xlink:href="#linear-gradient"/><linearGradient id="linear-gradient-19" x1="1406.54" y1="-71.52" x2="1298.17" y2="-77.97" xlink:href="#linear-gradient"/><linearGradient id="linear-gradient-20" x1="1050.23" y1="-423.56" x2="1614.42" y2="-57.92" xlink:href="#linear-gradient"/><linearGradient id="linear-gradient-21" x1="1028.93" y1="-378.15" x2="1593.12" y2="-12.52" xlink:href="#linear-gradient"/><linearGradient id="linear-gradient-22" x1="936.37" y1="-235.33" x2="1500.56" y2="130.3" xlink:href="#linear-gradient"/><linearGradient id="linear-gradient-23" x1="954.35" y1="-263.07" x2="1518.53" y2="102.56" xlink:href="#linear-gradient"/><linearGradient id="linear-gradient-24" x1="998.38" y1="-317.57" x2="1562.57" y2="48.06" xlink:href="#linear-gradient"/><linearGradient id="linear-gradient-25" x1="974.33" y1="-293.9" x2="1538.51" y2="71.73" xlink:href="#linear-gradient"/><linearGradient id="linear-gradient-26" x1="944.13" y1="-247.3" x2="1508.31" y2="118.33" xlink:href="#linear-gradient"/><linearGradient id="linear-gradient-27" x1="963.65" y1="-277.42" x2="1527.84" y2="88.21" xlink:href="#linear-gradient"/><linearGradient id="linear-gradient-28" x1="945.59" y1="-249.55" x2="1509.77" y2="116.08" xlink:href="#linear-gradient"/><linearGradient id="linear-gradient-29" x1="952.03" y1="-259.49" x2="1516.22" y2="106.14" xlink:href="#linear-gradient"/><linearGradient id="linear-gradient-30" x1="958.8" y1="-269.94" x2="1522.99" y2="95.7" xlink:href="#linear-gradient"/><linearGradient id="linear-gradient-31" x1="955.98" y1="-265.59" x2="1520.17" y2="100.04" xlink:href="#linear-gradient"/><linearGradient id="linear-gradient-32" x1="939.65" y1="-240.4" x2="1503.84" y2="125.24" xlink:href="#linear-gradient"/><linearGradient id="linear-gradient-33" x1="872.55" y1="-231.97" x2="1436.73" y2="133.66" xlink:href="#linear-gradient"/><linearGradient id="linear-gradient-34" x1="955.96" y1="-265.56" x2="1520.15" y2="100.07" xlink:href="#linear-gradient"/><linearGradient id="linear-gradient-35" x1="989.66" y1="-317.55" x2="1553.84" y2="48.08" xlink:href="#linear-gradient"/><linearGradient id="linear-gradient-36" x1="940.59" y1="-241.83" x2="1504.77" y2="123.8" xlink:href="#linear-gradient"/><linearGradient id="linear-gradient-37" x1="921.64" y1="-224.88" x2="1485.82" y2="140.76" xlink:href="#linear-gradient"/><linearGradient id="linear-gradient-38" x1="1019.46" y1="-220.93" x2="1514.16" y2="90.71" xlink:href="#linear-gradient"/><linearGradient id="linear-gradient-39" x1="937.93" y1="-237.73" x2="1502.11" y2="127.9" xlink:href="#linear-gradient"/><linearGradient id="linear-gradient-40" x1="1034" y1="-385.97" x2="1598.19" y2="-20.34" xlink:href="#linear-gradient"/><linearGradient id="linear-gradient-41" x1="1038.76" y1="-393.32" x2="1602.95" y2="-27.69" xlink:href="#linear-gradient"/><linearGradient id="linear-gradient-42" x1="1022.79" y1="-368.68" x2="1586.98" y2="-3.04" xlink:href="#linear-gradient"/><linearGradient id="linear-gradient-43" x1="1029.16" y1="-378.5" x2="1593.34" y2="-12.87" xlink:href="#linear-gradient"/><linearGradient id="linear-gradient-44" x1="1044.85" y1="-402.72" x2="1609.04" y2="-37.08" xlink:href="#linear-gradient"/><linearGradient id="linear-gradient-45" x1="919.08" y1="-208.64" x2="1483.26" y2="156.99" xlink:href="#linear-gradient"/><linearGradient id="linear-gradient-46" x1="925.41" y1="-218.42" x2="1489.6" y2="147.21" xlink:href="#linear-gradient"/><linearGradient id="linear-gradient-47" x1="913.23" y1="-199.62" x2="1477.41" y2="166.02" xlink:href="#linear-gradient"/><linearGradient id="linear-gradient-48" x1="925.89" y1="-219.16" x2="1490.08" y2="146.47" xlink:href="#linear-gradient"/><linearGradient id="linear-gradient-49" x1="946.64" y1="-203.84" x2="1510.82" y2="161.8" xlink:href="#linear-gradient"/><linearGradient id="linear-gradient-50" x1="910.98" y1="-196.15" x2="1475.16" y2="169.49" xlink:href="#linear-gradient"/><linearGradient id="linear-gradient-51" x1="915.04" y1="-202.41" x2="1479.22" y2="163.22" xlink:href="#linear-gradient"/><linearGradient id="linear-gradient-52" x1="978.02" y1="-299.59" x2="1542.2" y2="66.04" xlink:href="#linear-gradient"/><linearGradient id="linear-gradient-53" x1="1014.6" y1="-356.03" x2="1578.78" y2="9.6" xlink:href="#linear-gradient"/><linearGradient id="linear-gradient-54" x1="1021.01" y1="-365.93" x2="1585.2" y2="-.3" xlink:href="#linear-gradient"/><linearGradient id="linear-gradient-55" x1="1013.32" y1="-354.07" x2="1577.51" y2="11.57" xlink:href="#linear-gradient"/><linearGradient id="linear-gradient-56" x1="1005.91" y1="-342.63" x2="1570.09" y2="23" xlink:href="#linear-gradient"/><linearGradient id="linear-gradient-57" x1="999.19" y1="-332.26" x2="1563.38" y2="33.37" xlink:href="#linear-gradient"/><linearGradient id="linear-gradient-58" x1="983.64" y1="-308.27" x2="1547.83" y2="57.36" xlink:href="#linear-gradient"/><linearGradient id="linear-gradient-59" x1="1019.55" y1="-363.68" x2="1583.74" y2="1.95" xlink:href="#linear-gradient"/><linearGradient id="linear-gradient-60" x1="1049.75" y1="-410.28" x2="1613.94" y2="-44.64" xlink:href="#linear-gradient"/><linearGradient id="linear-gradient-61" x1="1043.96" y1="-402.49" x2="1608.14" y2="-36.86" xlink:href="#linear-gradient"/><linearGradient id="linear-gradient-62" x1="1065.15" y1="-402.49" x2="1629.34" y2="-36.86" xlink:href="#linear-gradient"/><linearGradient id="linear-gradient-63" x1="1069.51" y1="-440.77" x2="1633.7" y2="-75.14" xlink:href="#linear-gradient"/><linearGradient id="linear-gradient-64" x1="1083.29" y1="-462.03" x2="1647.48" y2="-96.4" xlink:href="#linear-gradient"/><linearGradient id="linear-gradient-65" x1="982.54" y1="-306.57" x2="1546.73" y2="59.06" xlink:href="#linear-gradient"/><linearGradient id="linear-gradient-66" x1="994.69" y1="-325.31" x2="1558.87" y2="40.32" xlink:href="#linear-gradient"/><linearGradient id="linear-gradient-67" x1="1001.82" y1="-336.32" x2="1566.01" y2="29.31" xlink:href="#linear-gradient"/><linearGradient id="linear-gradient-68" x1="1034.93" y1="-387.4" x2="1599.11" y2="-21.77" xlink:href="#linear-gradient"/><linearGradient id="linear-gradient-69" x1="989.01" y1="-316.56" x2="1553.2" y2="49.08" xlink:href="#linear-gradient"/><linearGradient id="linear-gradient-70" x1="945.31" y1="-249.12" x2="1509.49" y2="116.52" xlink:href="#linear-gradient"/><linearGradient id="linear-gradient-71" x1="1024.62" y1="-229.11" x2="1519.31" y2="82.53" xlink:href="#linear-gradient"/><linearGradient id="linear-gradient-72" x1="940.31" y1="-241.4" x2="1504.49" y2="124.23" xlink:href="#linear-gradient"/><linearGradient id="linear-gradient-73" x1="1005.86" y1="-342.55" x2="1570.04" y2="23.09" xlink:href="#linear-gradient"/><linearGradient id="linear-gradient-74" x1="1072.53" y1="-445.43" x2="1636.71" y2="-79.79" xlink:href="#linear-gradient"/><linearGradient id="linear-gradient-75" x1="1063.15" y1="-430.95" x2="1627.33" y2="-65.32" xlink:href="#linear-gradient"/><linearGradient id="linear-gradient-76" x1="1055.46" y1="-419.09" x2="1619.65" y2="-53.45" xlink:href="#linear-gradient"/><linearGradient id="linear-gradient-77" x1="951.86" y1="-259.23" x2="1516.04" y2="106.41" xlink:href="#linear-gradient"/><linearGradient id="linear-gradient-78" x1="957.39" y1="-264.77" x2="1521.58" y2="100.87" xlink:href="#linear-gradient"/><linearGradient id="linear-gradient-79" x1="915.76" y1="-203.53" x2="1479.94" y2="162.11" xlink:href="#linear-gradient"/><linearGradient id="linear-gradient-80" x1="942.79" y1="-245.24" x2="1506.98" y2="120.4" xlink:href="#linear-gradient"/><linearGradient id="linear-gradient-81" x1="948.71" y1="-224.27" x2="1512.89" y2="141.37" xlink:href="#linear-gradient"/><linearGradient id="linear-gradient-82" x1="1002.33" y1="-337.1" x2="1566.51" y2="28.53" xlink:href="#linear-gradient"/><linearGradient id="linear-gradient-83" x1="996.91" y1="-328.74" x2="1561.09" y2="36.89" xlink:href="#linear-gradient"/><linearGradient id="linear-gradient-84" x1="951.82" y1="-259.16" x2="1516" y2="106.47" xlink:href="#linear-gradient"/><linearGradient id="linear-gradient-85" x1="964.32" y1="-278.45" x2="1528.5" y2="87.18" xlink:href="#linear-gradient"/><linearGradient id="linear-gradient-86" x1="975.01" y1="-294.96" x2="1539.2" y2="70.68" xlink:href="#linear-gradient"/><linearGradient id="linear-gradient-87" x1="1019.94" y1="-364.28" x2="1584.13" y2="1.35" xlink:href="#linear-gradient"/><linearGradient id="linear-gradient-88" x1="1010.11" y1="-349.16" x2="1574.33" y2="16.5" xlink:href="#linear-gradient"/><linearGradient id="linear-gradient-89" x1="993.03" y1="-322.75" x2="1557.21" y2="42.88" xlink:href="#linear-gradient"/><linearGradient id="linear-gradient-90" x1="1017.04" y1="-358.92" x2="1581.22" y2="6.72" xlink:href="#linear-gradient"/><linearGradient id="linear-gradient-91" x1="1047.63" y1="-407" x2="1611.81" y2="-41.37" xlink:href="#linear-gradient"/><linearGradient id="linear-gradient-92" x1="982.96" y1="-307.21" x2="1547.14" y2="58.42" xlink:href="#linear-gradient"/><linearGradient id="linear-gradient-93" x1="1016.12" y1="-358.39" x2="1580.31" y2="7.25" xlink:href="#linear-gradient"/><linearGradient id="linear-gradient-94" x1="936.06" y1="-234.85" x2="1500.25" y2="130.78" xlink:href="#linear-gradient"/><linearGradient id="linear-gradient-95" x1="960.02" y1="-271.82" x2="1524.21" y2="93.81" xlink:href="#linear-gradient"/><linearGradient id="linear-gradient-96" x1="912.31" y1="-198.19" x2="1476.49" y2="167.44" xlink:href="#linear-gradient"/><linearGradient id="linear-gradient-97" x1="943.98" y1="-247.07" x2="1508.17" y2="118.56" xlink:href="#linear-gradient"/><linearGradient id="linear-gradient-98" x1="959.29" y1="-270.7" x2="1523.48" y2="94.93" xlink:href="#linear-gradient"/><linearGradient id="linear-gradient-99" x1="925.52" y1="-218.58" x2="1489.7" y2="147.05" xlink:href="#linear-gradient"/></defs><path class="cls-50" d="m44.53,336.91c-2.33,0-4.21,1.89-4.21,4.21v18.53c0,2.33,1.89,4.21,4.21,4.21s4.21-1.89,4.21-4.21v-18.53c0-2.33-1.89-4.21-4.21-4.21Z"/><path class="cls-50" d="m549.42,16.84h-42.37c-2.33,0-4.21,1.89-4.21,4.21s1.89,4.21,4.21,4.21h42.37c2.33,0,4.21-1.89,4.21-4.21,0-2.33-1.89-4.21-4.21-4.21Z"/><path class="cls-50" d="m463.5,58.02c-.85,0-1.7.25-2.44.78-7.88,5.62-17.17,8.58-26.86,8.58-2.72,0-5.45-.24-8.11-.71-2.29-.4-4.48,1.12-4.88,3.41-.41,2.29,1.12,4.48,3.41,4.88,3.14.56,6.36.84,9.58.84,11.46,0,22.44-3.51,31.75-10.15,1.89-1.35,2.34-3.98.99-5.87-.82-1.15-2.12-1.77-3.43-1.77Z"/><path class="cls-50" d="m211.83,160.03c-2.33,0-4.21,1.89-4.21,4.21,0,10.11-3.93,19.61-11.07,26.76-1.64,1.65-1.64,4.31,0,5.96,1.65,1.64,4.31,1.64,5.96,0,8.73-8.74,13.53-20.36,13.53-32.71,0-2.33-1.89-4.21-4.21-4.21Z"/><path class="cls-50" d="m194.99,160.03c-2.33,0-4.21,1.89-4.21,4.21,0,11.61-9.45,21.06-21.06,21.06-2.33,0-4.21,1.89-4.21,4.21,0,2.33,1.89,4.21,4.21,4.21,16.25,0,29.48-13.22,29.48-29.48,0-2.33-1.89-4.21-4.21-4.21Z"/><path class="cls-50" d="m443.74,117.92h-83.67c-2.33,0-4.21,1.89-4.21,4.21,0,2.33,1.89,4.21,4.21,4.21h83.67c2.32,0,4.21,1.89,4.21,4.21s-1.89,4.21-4.21,4.21h-39.45c-2.33,0-4.21,1.89-4.21,4.21,0,2.33,1.89,4.21,4.21,4.21h39.45c6.97,0,12.63-5.67,12.63-12.63s-5.67-12.63-12.63-12.63Z"/><path class="cls-50" d="m446.41,235.84h-93.62c-2.33,0-4.21,1.89-4.21,4.21,0,2.33,1.89,4.21,4.21,4.21h93.62c2.33,0,4.21-1.89,4.21-4.21,0-2.33-1.89-4.21-4.21-4.21Z"/><path class="cls-50" d="m546.22,202.15h-53.06c-10.87,0-21.24,4.68-28.43,12.84-1.54,1.74-1.37,4.41.37,5.94,1.74,1.54,4.41,1.37,5.94-.37,5.6-6.35,13.66-9.99,22.12-9.99h53.06c2.33,0,4.21-1.89,4.21-4.21,0-2.33-1.89-4.21-4.21-4.21Z"/><path class="cls-50" d="m467.41,257.5c-.94,0-1.9.32-2.68.96-1.79,1.48-2.05,4.14-.56,5.93,2.84,3.44,6.27,6.32,10.17,8.56,4.22,2.42,8.8,3.98,13.61,4.64,2.31.32,4.43-1.29,4.75-3.6.32-2.3-1.29-4.43-3.6-4.75-3.74-.51-7.3-1.73-10.57-3.6-3.02-1.73-5.67-3.96-7.87-6.62-.83-1.01-2.03-1.53-3.25-1.53Z"/><path class="cls-50" d="m546.22,320.07h-36.64c-2.33,0-4.21,1.89-4.21,4.21,0,2.33,1.89,4.21,4.21,4.21h36.64c2.33,0,4.21-1.89,4.21-4.21,0-2.33-1.89-4.21-4.21-4.21Z"/><path class="cls-50" d="m344.07,320.07h-150.35c-2.33,0-4.21,1.89-4.21,4.21,0,2.33,1.89,4.21,4.21,4.21h150.35c2.33,0,4.21-1.89,4.21-4.21,0-2.33-1.89-4.21-4.21-4.21Z"/><path class="cls-50" d="m315.85,252.68h-48.52c-2.33,0-4.21,1.89-4.21,4.21,0,2.33,1.89,4.21,4.21,4.21h48.52c2.33,0,4.21-1.89,4.21-4.21,0-2.33-1.89-4.21-4.21-4.21Z"/><path class="cls-50" d="m223.53,245.8c-2.33,0-4.21,1.89-4.21,4.21v15.3c0,2.32-1.89,4.21-4.21,4.21h-37.23c-2.33,0-4.21,1.89-4.21,4.21,0,2.33,1.89,4.21,4.21,4.21h37.23c6.97,0,12.63-5.67,12.63-12.63v-15.3c0-2.33-1.89-4.21-4.21-4.21Z"/><path class="cls-50" d="m383.24,269.53h-130.55c-2.33,0-4.21,1.89-4.21,4.21,0,2.33,1.89,4.21,4.21,4.21h130.55v-8.42Z"/><path class="cls-50" d="m391.24,336.91h-50.12c-2.33,0-4.21,1.89-4.21,4.21,0,2.33,1.89,4.21,4.21,4.21h50.12c2.33,0,4.21-1.89,4.21-4.21s-1.89-4.21-4.21-4.21Z"/><path class="cls-50" d="m341.12,303.22h-42.75c-2.33,0-4.21,1.89-4.21,4.21,0,2.33,1.89,4.21,4.21,4.21h42.75c2.33,0,4.21-1.89,4.21-4.21s-1.89-4.21-4.21-4.21Z"/><path class="cls-50" d="m446.62,303.22h-21.2c-2.33,0-4.21,1.89-4.21,4.21,0,2.33,1.89,4.21,4.21,4.21h21.2c2.33,0,4.21-1.89,4.21-4.21,0-2.33-1.89-4.21-4.21-4.21Z"/><path class="cls-50" d="m562.22,286.37h-95.18c-6.97,0-12.63,5.67-12.63,12.63,0,6.97,5.67,12.63,12.63,12.63h43c2.33,0,4.21-1.89,4.21-4.21,0-2.33-1.89-4.21-4.21-4.21h-43c-2.32,0-4.21-1.89-4.21-4.21,0-2.32,1.89-4.21,4.21-4.21h95.18c2.33,0,4.21-1.89,4.21-4.21,0-2.33-1.89-4.21-4.21-4.21Z"/><path class="cls-50" d="m103.58,288.98c-1.05,0-2.09.39-2.91,1.17-1.68,1.61-1.74,4.27-.13,5.95.75.79,1.17,1.82,1.17,2.91,0,2.32-1.89,4.21-4.21,4.21h-37.59c-2.33,0-4.21,1.89-4.21,4.21,0,2.33,1.89,4.21,4.21,4.21h37.59c6.97,0,12.63-5.67,12.63-12.63,0-3.27-1.24-6.37-3.5-8.73-.83-.86-1.93-1.3-3.04-1.3Z"/><path class="cls-50" d="m563.06,235.84h-69.11c-2.33,0-4.21,1.89-4.21,4.21,0,2.33,1.89,4.21,4.21,4.21h69.11c2.33,0,4.21-1.89,4.21-4.21,0-2.33-1.89-4.21-4.21-4.21Z"/><path class="cls-50" d="m345.97,218.99h-126.97c-2.33,0-4.21,1.89-4.21,4.21,0,2.33,1.89,4.21,4.21,4.21h126.98c2.33,0,4.21-1.89,4.21-4.21,0-2.33-1.89-4.21-4.21-4.21Z"/><path class="cls-50" d="m387.03,218.99h-41.06c-2.33,0-4.21,1.89-4.21,4.21,0,2.33,1.89,4.21,4.21,4.21h41.06c2.33,0,4.21-1.89,4.21-4.21,0-2.33-1.89-4.21-4.21-4.21Z"/><path class="cls-50" d="m433.35,168.46h-73.28c-2.33,0-4.21,1.89-4.21,4.21,0,2.33,1.89,4.21,4.21,4.21h73.28c5.62,0,10.91,2.19,14.89,6.17,2.91,2.91,4.89,6.57,5.73,10.59.47,2.28,2.7,3.74,4.98,3.27,2.28-.47,3.74-2.7,3.27-4.98-1.17-5.63-3.94-10.76-8.02-14.83-5.57-5.57-12.97-8.63-20.84-8.63Z"/><path class="cls-50" d="m546.22,151.61h-72.23c-2.33,0-4.21,1.89-4.21,4.21,0,2.33,1.89,4.21,4.21,4.21h72.23c2.33,0,4.21-1.89,4.21-4.21,0-2.33-1.89-4.21-4.21-4.21Z"/><path class="cls-50" d="m473.99,151.61h-113.92c-2.33,0-4.21,1.89-4.21,4.21,0,2.33,1.89,4.21,4.21,4.21h113.92c2.33,0,4.21-1.89,4.21-4.21,0-2.33-1.89-4.21-4.21-4.21Z"/><path class="cls-50" d="m404.29,101.07h-63.17c-2.33,0-4.21,1.89-4.21,4.21,0,2.33,1.89,4.21,4.21,4.21h63.17c2.33,0,4.21-1.89,4.21-4.21,0-2.33-1.89-4.21-4.21-4.21Z"/><path class="cls-50" d="m320.07,151.61h-62.75c-11.61,0-21.06,9.45-21.06,21.06,0,11.61,9.45,21.06,21.06,21.06h132.03c2.33,0,4.21-1.89,4.21-4.21,0-2.33-1.89-4.21-4.21-4.21h-132.03c-6.97,0-12.63-5.67-12.63-12.63,0-6.97,5.67-12.63,12.63-12.63h62.75c2.33,0,4.21-1.89,4.21-4.21s-1.89-4.21-4.21-4.21Z"/><path class="cls-50" d="m404.29,185.3h-34.11c-2.33,0-4.21,1.89-4.21,4.21,0,2.33,1.89,4.21,4.21,4.21h34.11c2.33,0,4.21-1.89,4.21-4.21s-1.89-4.21-4.21-4.21Z"/><path class="cls-50" d="m310.82,202.15h-64.75c-2.33,0-4.21,1.89-4.21,4.21,0,2.33,1.89,4.21,4.21,4.21h64.75c2.33,0,4.21-1.89,4.21-4.21,0-2.33-1.89-4.21-4.21-4.21Z"/><path class="cls-50" d="m320.07,168.46h-41.13c-2.33,0-4.21,1.89-4.21,4.21,0,2.33,1.89,4.21,4.21,4.21h41.13c2.33,0,4.21-1.89,4.21-4.21,0-2.33-1.89-4.21-4.21-4.21Z"/><path class="cls-50" d="m241.87,160.03h-46.89c-2.33,0-4.21,1.89-4.21,4.21,0,2.33,1.89,4.21,4.21,4.21h46.89c2.33,0,4.21-1.89,4.21-4.21,0-2.33-1.89-4.21-4.21-4.21Z"/><path class="cls-50" d="m551.69,82.26c-2.33,0-4.21,1.89-4.21,4.21v25.46c0,12.94-5.04,25.1-14.18,34.25-2.28,2.28-4.79,4.34-7.48,6.12-1.94,1.29-2.47,3.9-1.18,5.84,1.29,1.94,3.9,2.47,5.84,1.18,3.15-2.09,6.1-4.51,8.77-7.18,10.74-10.74,16.65-25.02,16.65-40.2v-25.46c0-2.33-1.89-4.21-4.21-4.21Z"/><path class="cls-50" d="m572.75,0c-2.33,0-4.21,1.89-4.21,4.21,0,21.37-8.32,41.47-23.44,56.58-15.11,15.11-35.21,23.44-56.58,23.44-2.33,0-4.21,1.89-4.21,4.21s1.89,4.21,4.21,4.21c23.62,0,45.83-9.2,62.54-25.9,16.7-16.7,25.9-38.91,25.9-62.54,0-2.33-1.89-4.21-4.21-4.21Z"/><path class="cls-50" d="m446.41,0c-2.33,0-4.21,1.89-4.21,4.21,0,25.54,20.78,46.33,46.33,46.33,2.33,0,4.21-1.89,4.21-4.21,0-2.33-1.89-4.21-4.21-4.21-20.9,0-37.9-17-37.9-37.9,0-2.33-1.89-4.21-4.21-4.21Z"/><path class="cls-50" d="m530.64,296.48c-2.33,0-4.21,1.36-4.21,3.05v74.91c0,1.68,1.89,3.05,4.21,3.05s4.21-1.36,4.21-3.05v-74.91c0-1.68-1.89-3.05-4.21-3.05Z"/><path class="cls-50" d="m425.35,151.05c-2.33,0-4.21,1.89-4.21,4.21v51.1c0,2.33,1.89,4.21,4.21,4.21s4.21-1.89,4.21-4.21v-51.1c0-2.33-1.89-4.21-4.21-4.21Z"/><path class="cls-50" d="m383.24,296.48c-2.33,0-4.21,1.89-4.21,4.21v23.58c0,2.33,1.89,4.21,4.21,4.21s4.21-1.89,4.21-4.21v-23.58c0-2.33-1.89-4.21-4.21-4.21Z"/><path class="cls-50" d="m413.25,235.84c-1.5,0-2.95.8-3.71,2.21-1.11,2.05-.34,4.6,1.7,5.71,5.04,2.72,9.64,6.15,13.68,10.19,11.14,11.14,17.27,25.94,17.27,41.69v9.31c0,13.93,11.34,25.27,25.27,25.27,13.93,0,25.27-11.34,25.27-25.27v-48.06c0-2.33-1.89-4.21-4.21-4.21s-4.21,1.89-4.21,4.21v48.06c0,9.29-7.56,16.85-16.85,16.85-9.29,0-16.85-7.56-16.85-16.85v-9.31c0-18-7.01-34.92-19.74-47.65-4.62-4.62-9.88-8.54-15.63-11.65-.64-.34-1.32-.51-2-.51Z"/><path class="cls-50" d="m425.35,315.85c-2.33,0-4.21,1.89-4.21,4.21v32.85c0,2.33,1.89,4.21,4.21,4.21s4.21-1.89,4.21-4.21v-32.85c0-2.33-1.89-4.21-4.21-4.21Z"/><path class="cls-50" d="m383.24,249.31c-12.37,0-24.01,4.82-32.76,13.57-8.75,8.75-13.57,20.38-13.57,32.76v77.63c0,2.33,1.89,4.21,4.21,4.21s4.21-1.89,4.21-4.21v-77.63c0-10.12,3.94-19.64,11.1-26.8,7.16-7.16,16.68-11.1,26.8-11.1s19.64,3.94,26.8,11.1c7.16,7.16,11.1,16.68,11.1,26.8v36.97c0,2.33,1.89,4.21,4.21,4.21s4.21-1.89,4.21-4.21v-36.97c0-12.37-4.82-24.01-13.57-32.76-8.75-8.75-20.38-13.57-32.76-13.57Z"/><path class="cls-50" d="m383.24,269.54c-2.33,0-4.21,1.89-4.21,4.21,0,2.33,1.89,4.21,4.21,4.21,9.29,0,16.85,7.56,16.85,16.85v65.2c0,2.33,1.89,4.21,4.21,4.21s4.21-1.89,4.21-4.21v-65.2c0-13.93-11.34-25.27-25.27-25.27Z"/><path class="cls-50" d="m320.07,168.46c-2.33,0-4.21,1.89-4.21,4.21,0,11.16-3.14,22.04-9.08,31.44-1.24,1.97-.65,4.57,1.31,5.81,1.97,1.24,4.57.65,5.81-1.31,6.79-10.76,10.38-23.18,10.38-35.94,0-2.33-1.89-4.21-4.21-4.21Z"/><path class="cls-81" d="m218.99,218.99c-1.28,0-2.54.58-3.37,1.68-1.4,1.86-1.02,4.5.84,5.9,11.74,8.82,25.73,13.48,40.43,13.48,2.33,0,4.21-1.89,4.21-4.21,0-2.33-1.89-4.21-4.21-4.21-12.87,0-25.1-4.08-35.38-11.79-.76-.57-1.65-.84-2.53-.84Z"/><path class="cls-2" d="m341.12,139.3c-2.33,0-4.21,1.89-4.21,4.21v29.15c0,21.37-8.32,41.47-23.44,56.58-15.11,15.11-35.21,23.44-56.58,23.44s-41.47-8.32-56.58-23.44c-1.64-1.65-4.31-1.64-5.96,0-1.64,1.64-1.64,4.31,0,5.96,16.7,16.7,38.91,25.9,62.54,25.9s45.83-9.2,62.54-25.9c16.7-16.7,25.9-38.91,25.9-62.54v-29.15c0-2.33-1.89-4.21-4.21-4.21Z"/><path class="cls-50" d="m256.9,303.22c-2.33,0-4.21,1.89-4.21,4.21v45.48c0,2.33,1.89,4.21,4.21,4.21s4.21-1.89,4.21-4.21v-45.48c0-2.33-1.89-4.21-4.21-4.21Z"/><path class="cls-50" d="m211.1,286.37c-.64,0-1.29.14-1.9.45-12.15,6.13-19.69,18.38-19.69,31.98v34.11c0,2.33,1.89,4.21,4.21,4.21,2.33,0,4.21-1.89,4.21-4.21v-34.11c0-10.4,5.77-19.77,15.06-24.46,2.08-1.05,2.91-3.58,1.86-5.66-.74-1.47-2.22-2.31-3.76-2.31Z"/><path class="cls-50" d="m172.67,206.36c-2.33,0-4.21,1.89-4.21,4.21v96.86c0,2.33,1.89,4.21,4.21,4.21s4.21-1.89,4.21-4.21v-96.86c0-2.33-1.89-4.21-4.21-4.21Z"/><path class="cls-50" d="m299.01,168.46c-2.33,0-4.21,1.89-4.21,4.21,0,12.03-5.53,23.09-15.16,30.32-1.86,1.4-2.23,4.04-.84,5.9,1.4,1.86,4.04,2.23,5.9.84,11.77-8.84,18.52-22.35,18.52-37.06,0-2.33-1.89-4.21-4.21-4.21Z"/><path class="cls-80" d="m109.5,321.8c-2.33,0-4.21,1.41-4.21,3.15v49.37c0,1.74,1.89,3.15,4.21,3.15s4.21-1.41,4.21-3.15v-49.37c0-1.74-1.89-3.15-4.21-3.15Z"/><path class="cls-50" d="m338.57,246.76c-1.08,0-2.16.41-2.98,1.23-12.73,12.73-19.74,29.65-19.74,47.65v37.27c0,3.48-2.83,6.32-6.32,6.32-3.48,0-6.32-2.83-6.32-6.32v-47.8c0-2.33-1.89-4.21-4.21-4.21s-4.21,1.89-4.21,4.21v47.8c0,8.13,6.61,14.74,14.74,14.74s14.74-6.61,14.74-14.74v-37.27c0-15.75,6.13-30.55,17.27-41.69,1.65-1.64,1.65-4.31,0-5.96-.82-.82-1.9-1.23-2.98-1.23Z"/><path class="cls-50" d="m49.94,264.51c-1.08,0-2.16.41-2.98,1.23-1.64,1.64-1.64,4.31,0,5.96,16.7,16.7,38.91,25.9,62.54,25.9,14.64,0,29.16-3.67,42-10.6,2.05-1.11,2.81-3.66,1.7-5.71-1.11-2.05-3.66-2.81-5.71-1.7-11.61,6.27-24.75,9.59-38,9.59-21.37,0-41.47-8.32-56.58-23.44-.82-.82-1.9-1.23-2.98-1.23Z"/><path class="cls-50" d="m64.83,249.62c-1.08,0-2.16.41-2.98,1.23-1.64,1.64-1.64,4.31,0,5.96,12.73,12.73,29.65,19.74,47.65,19.74,15.71,0,31.01-5.53,43.08-15.57,1.79-1.49,2.03-4.14.54-5.93-1.49-1.79-4.14-2.03-5.93-.54-10.56,8.78-23.95,13.62-37.69,13.62-15.75,0-30.55-6.13-41.69-17.27-.82-.82-1.9-1.23-2.98-1.23Z"/><path class="cls-50" d="m151.61,204.95c-2.33,0-4.21,1.89-4.21,4.21,0,20.9-17,37.9-37.9,37.9-2.33,0-4.21,1.89-4.21,4.21s1.89,4.21,4.21,4.21c25.54,0,46.33-20.78,46.33-46.33,0-2.33-1.89-4.21-4.21-4.21Z"/><path class="cls-50" d="m425.35,65.7c-2.33,0-4.21,1.89-4.21,4.21v52.5c0,2.33,1.89,4.21,4.21,4.21s4.21-1.89,4.21-4.21v-52.5c0-2.33-1.89-4.21-4.21-4.21Z"/><path class="cls-50" d="m488.52,42.11c-2.33,0-4.21,1.89-4.21,4.21v42.11c0,2.33,1.89,4.21,4.21,4.21s4.21-1.89,4.21-4.21v-42.11c0-2.33-1.89-4.21-4.21-4.21Z"/><path class="cls-50" d="m505.89,168.47c-1.41,0-2.79.71-3.58,2-1.22,1.98-.61,4.57,1.36,5.8,3.34,2.07,6.42,4.56,9.18,7.41,8.76,9.07,13.58,21.02,13.58,33.63v45.48c0,3.48-2.83,6.32-6.32,6.32s-6.32-2.83-6.32-6.32v-45.48c0-19.74-16.06-35.8-35.8-35.8-19.74,0-35.8,16.06-35.8,35.8v22.75c0,2.33,1.89,4.21,4.21,4.21s4.21-1.89,4.21-4.21v-22.75c0-15.09,12.28-27.37,27.37-27.37s27.37,12.28,27.37,27.37v45.48c0,8.13,6.61,14.74,14.74,14.74,8.13,0,14.74-6.61,14.74-14.74v-45.48c0-14.8-5.66-28.82-15.94-39.47-3.24-3.36-6.87-6.29-10.81-8.73-.69-.43-1.46-.63-2.21-.63Z"/><path class="cls-91" d="m509.58,320.07c-2.33,0-4.21,1.89-4.21,4.21v39.03c0,2.33,1.89,4.21,4.21,4.21s4.21-1.89,4.21-4.21v-39.03c0-2.33-1.89-4.21-4.21-4.21Z"/><path class="cls-50" d="m14.74,336.91c-3.94,0-7.64,1.53-10.42,4.32C1.53,344.01,0,347.71,0,351.65v10.81c0,2.33,1.89,4.21,4.21,4.21s4.21-1.89,4.21-4.21v-10.81c0-1.71.64-3.26,1.85-4.47s2.76-1.85,4.47-1.85,3.26.64,4.47,1.85c1.21,1.21,1.85,2.76,1.85,4.47v10.81c0,2.33,1.89,4.21,4.21,4.21s4.21-1.89,4.21-4.21v-10.81c0-3.94-1.53-7.64-4.32-10.42s-6.49-4.32-10.42-4.32Z"/><path class="cls-50" d="m130.55,307.66c-2.33,0-4.21,1.89-4.21,4.21h8.42c0-2.33-1.89-4.21-4.21-4.21Z"/><path class="cls-50" d="m109.5,247.07c-2.33,0-4.21,1.89-4.21,4.21v21.06c0,2.33,1.89,4.21,4.21,4.21s4.21-1.89,4.21-4.21v-21.06c0-2.33-1.89-4.21-4.21-4.21Z"/><path class="cls-59" d="m523.88,52.35c-1.75,0-3.38,1.1-3.98,2.84-.76,2.2.42,4.6,2.62,5.35,4.22,1.45,8.12,3.88,11.28,7.05,5.57,5.57,8.63,12.97,8.63,20.85,0,7.87-3.07,15.28-8.63,20.85-5.57,5.57-12.97,8.63-20.85,8.63h-43.79c-2.33,0-4.21,1.89-4.21,4.21,0,2.33,1.89,4.21,4.21,4.21h43.79c10.12,0,19.64-3.94,26.8-11.1,7.16-7.16,11.1-16.68,11.1-26.8,0-10.12-3.94-19.64-11.1-26.8-4.06-4.06-9.08-7.2-14.5-9.06-.45-.16-.91-.23-1.37-.23Z"/><path class="cls-50" d="m502.84,84.23h-34.96c-2.33,0-4.21,1.89-4.21,4.21,0,2.33,1.89,4.21,4.21,4.21h34.96c2.32,0,4.21,1.89,4.21,4.21,0,2.32-1.89,4.21-4.21,4.21h-59.19c-2.33,0-4.21,1.89-4.21,4.21,0,2.33,1.89,4.21,4.21,4.21h59.19c6.97,0,12.63-5.67,12.63-12.63s-5.67-12.63-12.63-12.63Z"/><path class="cls-24" d="m235.84,286.37h-63.17c-2.33,0-4.21,1.89-4.21,4.21,0,2.33,1.89,4.21,4.21,4.21h63.17c2.33,0,4.21-1.89,4.21-4.21,0-2.33-1.89-4.21-4.21-4.21Z"/><path class="cls-70" d="m298.38,303.22h-137.08c-11.61,0-21.06,9.45-21.06,21.06,0,11.61,9.45,21.06,21.06,21.06h74.54c2.33,0,4.21-1.89,4.21-4.21,0-2.33-1.89-4.21-4.21-4.21h-74.54c-6.97,0-12.63-5.67-12.63-12.63,0-6.97,5.67-12.63,12.63-12.63h137.08c2.33,0,4.21-1.89,4.21-4.21,0-2.33-1.89-4.21-4.21-4.21Z"/><path class="cls-93" d="m563.58,168.46h-57.68c-2.33,0-4.21,1.89-4.21,4.21,0,2.33,1.89,4.21,4.21,4.21h57.68c2.33,0,4.21-1.89,4.21-4.21,0-2.33-1.89-4.21-4.21-4.21Z"/><path class="cls-75" d="m62.57,320.07H21.48c-2.33,0-4.21,1.89-4.21,4.21,0,2.33,1.89,4.21,4.21,4.21h41.09c2.32,0,4.21,1.89,4.21,4.21,0,2.32-1.89,4.21-4.21,4.21h-18.04c-2.33,0-4.21,1.89-4.21,4.21s1.89,4.21,4.21,4.21h18.04c6.97,0,12.63-5.67,12.63-12.63s-5.67-12.63-12.63-12.63Z"/><path class="cls-40" d="m551.69,0c-2.33,0-4.21,1.89-4.21,4.21,0,15.75-6.13,30.55-17.27,41.69-11.14,11.14-25.94,17.27-41.69,17.27s-30.55-6.13-41.69-17.27c-1.64-1.65-4.31-1.65-5.96,0-1.65,1.64-1.65,4.31,0,5.96,12.73,12.73,29.65,19.74,47.65,19.74,18,0,34.92-7.01,47.65-19.74,12.73-12.73,19.74-29.65,19.74-47.65,0-2.33-1.89-4.21-4.21-4.21Z"/><path class="cls-33" d="m467.47,84.23c-2.33,0-4.21,1.89-4.21,4.21v23.49c0,19.74,16.06,35.8,35.8,35.8,2.33,0,4.21-1.89,4.21-4.21,0-2.33-1.89-4.21-4.21-4.21-15.09,0-27.37-12.28-27.37-27.37v-23.49c0-2.33-1.89-4.21-4.21-4.21Z"/><path class="cls-99" d="m362.18,291.43c-2.33,0-4.21,1.89-4.21,4.21v57.28c0,2.33,1.89,4.21,4.21,4.21s4.21-1.89,4.21-4.21v-57.28c0-2.33-1.89-4.21-4.21-4.21Z"/><path class="cls-100" d="m235.84,320.07c-2.33,0-4.21,1.89-4.21,4.21v28.64c0,2.33,1.89,4.21,4.21,4.21s4.21-1.89,4.21-4.21v-28.64c0-2.33-1.89-4.21-4.21-4.21Z"/><path class="cls-20" d="m404.29,101.07c-2.33,0-4.21,1.89-4.21,4.21v80.02c0,9.29-7.56,16.85-16.85,16.85-2.33,0-4.21,1.89-4.21,4.21,0,2.33,1.89,4.21,4.21,4.21,13.93,0,25.27-11.34,25.27-25.27v-80.02c0-2.33-1.89-4.21-4.21-4.21Z"/><path class="cls-11" d="m467.47,258.12c-2.33,0-4.21,1.89-4.21,4.21v28.26c0,2.33,1.89,4.21,4.21,4.21,2.33,0,4.21-1.89,4.21-4.21v-28.26c0-2.33-1.89-4.21-4.21-4.21Z"/><path class="cls-50" d="m88.44,328.53c-2.33,0-4.21,1.41-4.21,3.15v42.64c0,1.74,1.89,3.15,4.21,3.15s4.21-1.41,4.21-3.15v-42.64c0-1.74-1.89-3.15-4.21-3.15Z"/><path class="cls-45" d="m546.22,218.99h-53.06c-5.62,0-10.91,2.19-14.89,6.17-3.98,3.98-6.17,9.27-6.17,14.89,0,5.62,2.19,10.91,6.17,14.89,3.98,3.98,9.27,6.17,14.89,6.17h58.54c2.33,0,4.21-1.89,4.21-4.21,0-2.33-1.89-4.21-4.21-4.21h-58.54c-3.37,0-6.55-1.31-8.93-3.7-2.39-2.39-3.7-5.56-3.7-8.93,0-3.37,1.31-6.55,3.7-8.93,2.39-2.39,5.56-3.7,8.93-3.7h53.06c2.33,0,4.21-1.89,4.21-4.21,0-2.33-1.89-4.21-4.21-4.21Z"/><path class="cls-5" d="m404.3,313.87c-1.22,0-2.43.53-3.26,1.54-.27.33-.56.65-.87.96-2.39,2.38-5.56,3.7-8.93,3.7h-50.12c-2.33,0-4.21,1.89-4.21,4.21,0,2.33,1.89,4.21,4.21,4.21h50.12c5.62,0,10.91-2.19,14.89-6.17.5-.5.98-1.03,1.42-1.57,1.47-1.8,1.21-4.45-.59-5.93-.78-.64-1.73-.95-2.67-.95Z"/><path class="cls-15" d="m546.22,336.91h-86.75c-2.33,0-4.21,1.89-4.21,4.21,0,2.33,1.89,4.21,4.21,4.21h86.75c2.33,0,4.21-1.89,4.21-4.21,0-2.33-1.89-4.21-4.21-4.21Z"/><path class="cls-89" d="m425.35,202.15h-90.99c-2.33,0-4.21,1.89-4.21,4.21,0,2.33,1.89,4.21,4.21,4.21h90.99c2.33,0,4.21-1.89,4.21-4.21s-1.89-4.21-4.21-4.21Z"/><circle class="cls-23" cx="425.35" cy="332.61" r="4.21"/><circle class="cls-55" cx="383.24" cy="300.69" r="4.21"/><circle class="cls-4" cx="44.53" cy="341.12" r="4.21"/><circle class="cls-4" cx="21.48" cy="324.28" r="4.21"/><circle class="cls-76" cx="59.91" cy="307.43" r="4.21"/><circle class="cls-88" cx="172.67" cy="273.74" r="4.21"/><circle class="cls-4" cx="197.34" cy="232.22" r="4.21"/><circle class="cls-73" cx="352.78" cy="240.05" r="4.21"/><circle class="cls-57" cx="370.18" cy="189.51" r="4.21"/><circle class="cls-4" cx="383.24" cy="206.36" r="4.21"/><circle class="cls-101" cx="320.07" cy="155.82" r="4.21"/><circle class="cls-82" cx="360.07" cy="172.67" r="4.21"/><circle class="cls-19" cx="299.01" cy="172.67" r="4.21"/><circle class="cls-86" cx="294.8" cy="189.51" r="4.21"/><circle class="cls-87" cx="317.68" cy="189.51" r="4.21"/><circle class="cls-46" cx="282.17" cy="206.36" r="4.21"/><path class="cls-31" d="m283.15,172.67c0-2.33-1.89-4.21-4.21-4.21s-4.21,1.89-4.21,4.21c0,2.33,1.89,4.21,4.21,4.21s4.21-1.89,4.21-4.21Z"/><circle class="cls-83" cx="211.83" cy="164.24" r="4.21"/><circle class="cls-65" cx="360.07" cy="155.82" r="4.21"/><circle class="cls-29" cx="473.99" cy="155.82" r="4.21"/><circle class="cls-4" cx="469.15" cy="122.41" r="4.21"/><circle class="cls-21" cx="360.07" cy="122.13" r="4.21"/><circle class="cls-43" cx="341.12" cy="105.17" r="4.21"/><path class="cls-84" d="m447.86,105.28c0-2.33-1.89-4.21-4.21-4.21s-4.21,1.89-4.21,4.21c0,2.33,1.89,4.21,4.21,4.21s4.21-1.89,4.21-4.21Z"/><circle class="cls-4" cx="467.47" cy="105.28" r="4.21"/><path class="cls-4" d="m528.09,56.56c0-2.33-1.89-4.21-4.21-4.21s-4.21,1.89-4.21,4.21c0,2.33,1.89,4.21,4.21,4.21s4.21-1.89,4.21-4.21Z"/><circle class="cls-4" cx="540.98" cy="69.91" r="4.21"/><path class="cls-39" d="m511.26,21.06c0-2.33-1.89-4.21-4.21-4.21s-4.21,1.89-4.21,4.21,1.89,4.21,4.21,4.21,4.21-1.89,4.21-4.21Z"/><circle class="cls-4" cx="549.42" cy="21.06" r="4.21"/><circle class="cls-4" cx="404.29" cy="138.98" r="4.21"/><circle class="cls-17" cx="493.95" cy="240.05" r="4.21"/><circle class="cls-52" cx="510.05" cy="240.05" r="4.21"/><circle class="cls-78" cx="508.04" cy="206.36" r="4.21"/><circle class="cls-10" cx="529.56" cy="206.36" r="4.21"/><circle class="cls-95" cx="530.64" cy="240.05" r="4.21"/><circle class="cls-63" cx="151.61" cy="210.1" r="4.21"/><circle class="cls-98" cx="109.5" cy="251.28" r="4.21"/><circle class="cls-97" cx="64.83" cy="253.53" r="4.21"/><circle class="cls-4" cx="218.93" cy="223.22" r="4.21"/><circle class="cls-30" cx="199.53" cy="193.98" r="4.21"/><circle class="cls-42" cx="242.51" cy="164.24" r="4.21"/><circle class="cls-34" cx="194.99" cy="164.24" r="4.21"/><circle class="cls-3" cx="169.72" cy="189.51" r="4.21"/><path class="cls-4" d="m271.54,256.89c0-2.33-1.89-4.21-4.21-4.21s-4.21,1.89-4.21,4.21c0,2.33,1.89,4.21,4.21,4.21s4.21-1.89,4.21-4.21Z"/><circle class="cls-18" cx="252.68" cy="273.74" r="4.21"/><circle class="cls-4" cx="298.38" cy="307.43" r="4.21"/><circle class="cls-25" cx="298.38" cy="324.28" r="4.21"/><circle class="cls-62" cx="320.07" cy="324.28" r="4.21"/><circle class="cls-64" cx="320.07" cy="307.43" r="4.21"/><circle class="cls-16" cx="346.99" cy="273.74" r="4.21"/><circle class="cls-96" cx="324.28" cy="273.74" r="4.21"/><circle class="cls-12" cx="193.72" cy="324.28" r="4.21"/><circle class="cls-4" cx="193.72" cy="341.12" r="4.21"/><path class="cls-4" d="m215.31,290.59c0-2.33-1.89-4.21-4.21-4.21s-4.21,1.89-4.21,4.21c0,2.33,1.89,4.21,4.21,4.21s4.21-1.89,4.21-4.21Z"/><circle class="cls-4" cx="235.84" cy="290.59" r="4.21"/><circle class="cls-4" cx="195.64" cy="307.66" r="4.21"/><path class="cls-4" d="m227.74,250.02c0-2.33-1.89-4.21-4.21-4.21s-4.21,1.89-4.21,4.21c0,2.33,1.89,4.21,4.21,4.21s4.21-1.89,4.21-4.21Z"/><circle class="cls-41" cx="341.12" cy="307.43" r="4.21"/><circle class="cls-4" cx="341.12" cy="324.28" r="4.21"/><circle class="cls-4" cx="235.84" cy="341.12" r="4.21"/><circle class="cls-27" cx="391.24" cy="341.12" r="4.21"/><circle class="cls-48" cx="425.42" cy="307.43" r="4.21"/><circle class="cls-51" cx="446.62" cy="307.43" r="4.21"/><path class="cls-4" d="m471.62,261.71c0-2.33-1.89-4.21-4.21-4.21s-4.21,1.89-4.21,4.21c0,2.33,1.89,4.21,4.21,4.21s4.21-1.89,4.21-4.21Z"/><circle class="cls-4" cx="467.41" cy="290.59" r="4.21"/><circle class="cls-35" cx="510.05" cy="307.43" r="4.21"/><circle class="cls-4" cx="459.46" cy="341.12" r="4.21"/><circle class="cls-4" cx="509.58" cy="341.12" r="4.21"/><circle class="cls-4" cx="530.64" cy="341.12" r="4.21"/><circle class="cls-60" cx="530.64" cy="324.28" r="4.21"/><path class="cls-66" d="m350.18,223.2c0-2.33-1.89-4.21-4.21-4.21s-4.21,1.89-4.21,4.21c0,2.33,1.89,4.21,4.21,4.21s4.21-1.89,4.21-4.21Z"/><path class="cls-71" d="m391.24,223.2c0-2.33-1.89-4.21-4.21-4.21s-4.21,1.89-4.21,4.21c0,2.33,1.89,4.21,4.21,4.21s4.21-1.89,4.21-4.21Z"/><circle class="cls-36" cx="458.09" cy="192.78" r="4.21"/><path class="cls-4" d="m338.57,206.36c0-2.33-1.89-4.21-4.21-4.21s-4.21,1.89-4.21,4.21c0,2.33,1.89,4.21,4.21,4.21s4.21-1.89,4.21-4.21Z"/><circle class="cls-49" cx="341.12" cy="341.12" r="4.21"/><circle class="cls-4" cx="362.18" cy="341.12" r="4.21"/><circle class="cls-13" cx="315.85" cy="256.89" r="4.21"/><circle class="cls-67" cx="246.07" cy="206.36" r="4.21"/><circle class="cls-4" cx="510.05" cy="223.2" r="4.21"/><circle class="cls-4" cx="530.64" cy="223.2" r="4.21"/><circle class="cls-4" cx="509.58" cy="256.89" r="4.21"/><circle class="cls-4" cx="530.64" cy="256.89" r="4.21"/><path class="cls-4" d="m408.51,318.08c0-2.33-1.88-4.21-4.21-4.21s-4.21,1.89-4.21,4.21c0,2.33,1.89,4.21,4.21,4.21s4.21-1.89,4.21-4.21Z"/><circle class="cls-4" cx="383.24" cy="324.28" r="4.21"/><circle class="cls-4" cx="362.23" cy="324.28" r="4.21"/><circle class="cls-4" cx="362.18" cy="295.64" r="4.21"/><circle class="cls-4" cx="488.52" cy="256.33" r="4.21"/><path class="cls-4" d="m471.68,88.44c0-2.33-1.89-4.21-4.21-4.21s-4.21,1.89-4.21,4.21c0,2.33,1.89,4.21,4.21,4.21s4.21-1.89,4.21-4.21Z"/><circle class="cls-90" cx="488.52" cy="88.44" r="4.21"/><circle class="cls-4" cx="488.52" cy="67.31" r="4.21"/><circle class="cls-4" cx="443.85" cy="48.88" r="4.21"/><circle class="cls-56" cx="149.88" cy="257.74" r="4.21"/><circle class="cls-4" cx="404.29" cy="105.28" r="4.21"/><circle class="cls-4" cx="499.05" cy="143.52" r="4.21"/><circle class="cls-74" cx="528.76" cy="155.82" r="4.21"/><path class="cls-4" d="m510.11,172.67c0-2.33-1.89-4.21-4.21-4.21s-4.21,1.89-4.21,4.21c0,2.33,1.89,4.21,4.21,4.21s4.21-1.89,4.21-4.21Z"/><circle class="cls-77" cx="530.64" cy="300.69" r="4.21"/><circle class="cls-1" cx="488.52" cy="307.43" r="4.21"/><circle class="cls-53" cx="488.52" cy="290.59" r="4.21"/><circle class="cls-92" cx="149.49" cy="283.3" r="4.21"/><circle class="cls-4" cx="172.67" cy="290.59" r="4.21"/><circle class="cls-4" cx="172.67" cy="307.43" r="4.21"/><path class="cls-4" d="m113.71,323.01c0-2.33-1.89-4.21-4.21-4.21s-4.21,1.89-4.21,4.21c0,2.33,1.89,4.21,4.21,4.21s4.21-1.89,4.21-4.21Z"/><path class="cls-22" d="m92.65,332c0-2.33-1.89-4.21-4.21-4.21s-4.21,1.89-4.21,4.21c0,2.33,1.89,4.21,4.21,4.21s4.21-1.89,4.21-4.21Z"/><path class="cls-68" d="m54.15,268.72c0-2.33-1.89-4.21-4.21-4.21s-4.21,1.89-4.21,4.21c0,2.33,1.89,4.21,4.21,4.21s4.21-1.89,4.21-4.21Z"/><path class="cls-9" d="m107.79,293.19c0-2.33-1.89-4.21-4.21-4.21s-4.21,1.89-4.21,4.21,1.89,4.21,4.21,4.21,4.21-1.89,4.21-4.21Z"/><circle class="cls-14" cx="109.5" cy="272.22" r="4.21"/><circle class="cls-4" cx="235.84" cy="324.28" r="4.21"/><circle class="cls-44" cx="256.9" cy="324.28" r="4.21"/><circle class="cls-4" cx="256.9" cy="307.66" r="4.21"/><circle class="cls-61" cx="299.01" cy="285.11" r="4.21"/><circle class="cls-4" cx="256.9" cy="235.84" r="4.21"/><circle class="cls-28" cx="320.07" cy="172.67" r="4.21"/><circle class="cls-47" cx="310.34" cy="206.36" r="4.21"/><path class="cls-38" d="m429.56,155.26c0-2.33-1.89-4.21-4.21-4.21s-4.21,1.89-4.21,4.21c0,2.33,1.89,4.21,4.21,4.21s4.21-1.89,4.21-4.21Z"/><circle class="cls-4" cx="425.35" cy="206.36" r="4.21"/><circle class="cls-4" cx="404.29" cy="189.51" r="4.21"/><circle class="cls-6" cx="446.41" cy="240.06" r="4.21"/><path class="cls-69" d="m417.46,240.05c0-2.33-1.88-4.21-4.21-4.21s-4.21,1.89-4.21,4.21c0,2.33,1.89,4.21,4.21,4.21s4.21-1.89,4.21-4.21Z"/><path class="cls-58" d="m342.78,250.97c0-2.33-1.89-4.21-4.21-4.21s-4.21,1.89-4.21,4.21c0,2.33,1.89,4.21,4.21,4.21s4.21-1.89,4.21-4.21Z"/><circle class="cls-94" cx="383.26" cy="273.73" r="4.21"/><circle class="cls-26" cx="488.52" cy="273.42" r="4.21"/><circle class="cls-8" cx="425.35" cy="172.67" r="4.21"/><circle class="cls-4" cx="404.29" cy="172.67" r="4.21"/><circle class="cls-4" cx="467.47" cy="290.59" r="4.21"/><circle class="cls-7" cx="467.88" cy="217.77" r="4.21"/><circle class="cls-4" cx="509.58" cy="324.28" r="4.21"/><circle class="cls-85" cx="425.35" cy="69.91" r="4.21"/><path class="cls-37" d="m429.56,122.41c0-2.33-1.89-4.21-4.21-4.21s-4.21,1.89-4.21,4.21c0,2.33,1.89,4.21,4.21,4.21s4.21-1.89,4.21-4.21Z"/><circle class="cls-4" cx="341.12" cy="143.52" r="4.21"/><path class="cls-72" d="m450.62,4.21c0-2.33-1.89-4.21-4.21-4.21s-4.21,1.89-4.21,4.21c0,2.33,1.89,4.21,4.21,4.21s4.21-1.89,4.21-4.21Z"/><circle class="cls-32" cx="488.52" cy="46.33" r="4.21"/><path class="cls-4" d="m467.72,62.23c0-2.33-1.89-4.21-4.21-4.21s-4.21,1.89-4.21,4.21c0,2.33,1.89,4.21,4.21,4.21s4.21-1.89,4.21-4.21Z"/><circle class="cls-4" cx="443.85" cy="48.88" r="4.21"/><circle class="cls-54" cx="130.55" cy="311.87" r="4.21"/><circle class="cls-79" cx="172.67" cy="210.57" r="4.21"/></svg>