<svg id="Try_10web_pro_icon" data-name="Try 10web pro_icon" xmlns="http://www.w3.org/2000/svg" width="40" height="40" viewBox="0 0 40 40">
  <rect id="Rectangle_49337" data-name="Rectangle 49337" width="40" height="40" fill="none"/>
  <g id="Group_96022" data-name="Group 96022" transform="translate(6.428 10.874)" opacity="0.9">
    <path id="Path_170301" data-name="Path 170301" d="M15.024,41.561,9.2,28H3.5Z" transform="translate(-3.5 -20.882)" fill="#22b339"/>
    <path id="Path_170302" data-name="Path 170302" d="M30.553,18.227,26.4,12H23.05L18.9,18.227Z" transform="translate(-11.155 -12)" fill="#22b339"/>
    <path id="Path_170303" data-name="Path 170303" d="M30.509,28H18.5l6,13.992Z" transform="translate(-10.933 -20.882)" fill="#22b339"/>
    <path id="Path_170304" data-name="Path 170304" d="M40.412,28,34.59,41.561,46.114,28Z" transform="translate(-18.971 -20.882)" fill="#22b339"/>
    <path id="Path_170305" data-name="Path 170305" d="M9.712,18.227,14.155,12H8.85a.489.489,0,0,0-.376.173L3.54,18.227Zm14.763,0h6.191l-4.953-6.053A.489.489,0,0,0,25.336,12H20.031Z" transform="translate(-3.522 -12)" fill="#22b339"/>
  </g>
</svg>
