<svg xmlns="http://www.w3.org/2000/svg" width="21.169" height="19.999" viewBox="0 0 21.169 19.999">
  <g id="Group_103320" data-name="Group 103320" transform="translate(-5940.411 -12098)">
    <path id="Union_847" data-name="Union 847" d="M4.53,13.693a.1.1,0,0,1,0-.135L8.507,8.052a.1.1,0,0,0,.019-.06.1.1,0,0,0-.1-.106H5.236a.1.1,0,0,1-.081-.042.1.1,0,0,1,.024-.139L15.332.029a.093.093,0,0,1,.133,0,.1.1,0,0,1,0,.135L11.488,5.668a.108.108,0,0,0-.02.06.105.105,0,0,0,.1.106h3.187a.1.1,0,0,1,.081.042.1.1,0,0,1-.024.139L4.662,13.691a.093.093,0,0,1-.067.029A.091.091,0,0,1,4.53,13.693Zm7.453-3.2a.1.1,0,0,1,.025-.138l5.177-3.934-1.326-1.29a1.144,1.144,0,0,1-.029-1.6A1.114,1.114,0,0,1,17.418,3.5h0l2.207,2.156c.018.016.037.032.055.05h0l.007.008.042.044.03.036a1.09,1.09,0,0,1-.126,1.486,1.071,1.071,0,0,1-.307.192L16.707,8.583l.006-.005L12.1,10.532a.1.1,0,0,1-.04.009A.1.1,0,0,1,11.983,10.5Zm-9.4-.277,0,0L.355,8.05.328,8.025.314,8.013.268,7.965A1.089,1.089,0,0,1,.36,6.439a1.064,1.064,0,0,1,.308-.193l2.62-1.109-.008.007L7.9,3.189a.1.1,0,0,1,.122.034A.1.1,0,0,1,8,3.36L2.81,7.3,4.134,8.584a1.146,1.146,0,0,1,.03,1.606,1.113,1.113,0,0,1-1.586.03Z" transform="translate(5941.004 12100.976)" fill="#f0f0f1" stroke="rgba(0,0,0,0)" stroke-width="1"/>
    <rect id="Rectangle_51703" data-name="Rectangle 51703" width="19.683" height="19.999" transform="translate(5941 12098)" fill="none"/>
  </g>
</svg>
