<?xml version="1.0" encoding="utf-8"?>
<!-- Generator: Adobe Illustrator 24.1.2, SVG Export Plug-In . SVG Version: 6.00 Build 0)  -->
<svg version="1.1" id="Layer_1" xmlns="http://www.w3.org/2000/svg" xmlns:xlink="http://www.w3.org/1999/xlink" x="0px" y="0px"
	 viewBox="0 0 324 154" style="enable-background:new 0 0 324 154;" xml:space="preserve">
<style type="text/css">
	.st0{fill:#00ACC8;}
	.st1{fill:#354F60;}
	.st2{fill:#FFFFFF;}
	.st3{fill:none;}
	.st4{enable-background:new    ;}
	.st5{fill:#263746;}
	.st6{opacity:0.9;fill:none;stroke:#FFFFFF;stroke-width:0.7;stroke-miterlimit:10;enable-background:new    ;}
	.st7{opacity:0.55;fill:none;stroke:#FFFFFF;stroke-width:0.7;stroke-miterlimit:10;enable-background:new    ;}
	.st8{clip-path:url(#SVGID_2_);fill:#00ABC8;}
	.st9{clip-path:url(#SVGID_4_);fill:#59C6D0;}
	.st10{fill:#FFFFFF;stroke:#FFFFFF;stroke-width:0.3;stroke-miterlimit:10;}
	.st11{fill:#59C6D0;}
	.st12{fill:none;stroke:#FFFFFF;stroke-width:0.7;stroke-miterlimit:10;}
</style>
<rect class="st0" width="324" height="154"/>
<circle class="st1" cx="162.8" cy="44.8" r="18.1"/>
<g>
	<path class="st2" d="M148.5,119.5c0,2.3-1.6,3.9-3.9,3.9c-2.2,0-3.8-1.7-3.8-3.9c0-2.3,1.6-3.9,3.8-3.9
		C146.8,115.6,148.5,117.3,148.5,119.5z M146.7,119.5c0-1.5-1-2.3-2.1-2.3c-1.1,0-2.1,0.8-2.1,2.3s1,2.4,2.1,2.4
		C145.7,121.9,146.7,121.1,146.7,119.5z"/>
	<path class="st2" d="M156.9,121.9c0,0.7,0.1,1.2,0.1,1.3h-1.7c0-0.2-0.1-0.7-0.1-1c-0.4,0.6-1.1,1.1-2.2,1.1
		c-2.1,0-3.6-1.7-3.6-3.9c0-2.1,1.4-3.9,3.5-3.9c1.3,0,1.9,0.6,2.2,1.1v-4.5h1.7V121.9z M153.3,121.9c1.2,0,2-1,2-2.4
		s-0.8-2.3-1.9-2.3s-2,0.9-2,2.3C151.3,120.9,152.1,121.9,153.3,121.9z"/>
	<path class="st2" d="M165.3,121.1c-0.4,1.3-1.6,2.3-3.4,2.3c-2,0-3.8-1.5-3.8-4c0-2.3,1.7-3.9,3.6-3.9c2.3,0,3.6,1.5,3.6,3.8
		c0,0.3,0,0.5-0.1,0.6H160c0.1,1.1,0.9,1.9,2,1.9c1.1,0,1.6-0.6,1.9-1.3L165.3,121.1z M163.6,118.7c0-0.9-0.6-1.6-1.8-1.6
		c-1.1,0-1.8,0.8-1.8,1.6H163.6z"/>
	<path class="st2" d="M168,120.8c0.1,0.7,0.6,1.3,1.5,1.3c0.7,0,1.1-0.4,1.1-0.8c0-0.4-0.3-0.7-0.9-0.8l-1.1-0.2
		c-1.3-0.3-2-1.1-2-2.2c0-1.3,1.2-2.4,2.7-2.4c2.1,0,2.7,1.3,2.9,2.1l-1.5,0.4c-0.1-0.4-0.4-1.1-1.4-1.1c-0.6,0-1.1,0.4-1.1,0.8
		c0,0.4,0.3,0.7,0.8,0.8l1.1,0.2c1.4,0.3,2.1,1.2,2.1,2.3c0,1.1-0.9,2.4-2.8,2.4c-2.1,0-3-1.4-3.1-2.2L168,120.8z"/>
	<path class="st2" d="M174.9,120.8c0.1,0.7,0.6,1.3,1.5,1.3c0.7,0,1.1-0.4,1.1-0.8c0-0.4-0.3-0.7-0.9-0.8l-1.1-0.2
		c-1.3-0.3-2-1.1-2-2.2c0-1.3,1.2-2.4,2.7-2.4c2.1,0,2.7,1.3,2.9,2.1l-1.5,0.4c-0.1-0.4-0.4-1.1-1.4-1.1c-0.6,0-1.1,0.4-1.1,0.8
		c0,0.4,0.3,0.7,0.8,0.8l1.1,0.2c1.4,0.3,2.1,1.2,2.1,2.3c0,1.1-0.9,2.4-2.8,2.4c-2.1,0-3-1.4-3.1-2.2L174.9,120.8z"/>
	<path class="st2" d="M182.7,119l1.9-0.3c0.4-0.1,0.6-0.3,0.6-0.5c0-0.6-0.4-1.1-1.4-1.1c-0.9,0-1.4,0.6-1.5,1.3l-1.6-0.4
		c0.1-1.3,1.3-2.4,3.1-2.4c2.3,0,3.1,1.3,3.1,2.8v3.7c0,0.7,0.1,1.1,0.1,1.2h-1.6c0-0.1-0.1-0.3-0.1-0.9c-0.4,0.6-1.1,1.2-2.3,1.2
		c-1.6,0-2.5-1.1-2.5-2.2C180.4,119.9,181.4,119.2,182.7,119z M185.1,120.2v-0.3l-1.9,0.3c-0.6,0.1-1,0.4-1,1c0,0.5,0.4,1,1.1,1
		C184.3,122.1,185.1,121.6,185.1,120.2z"/>
	<rect x="141.2" y="125.4" class="st2" width="6.9" height="1.2"/>
</g>
<rect x="31.2" y="74.3" class="st3" width="263.2" height="20.7"/>
<g class="st4">
	<path class="st5" d="M143.5,78.3h-1.9l-0.3,0.8h-0.8l1.7-4.6h0.8l1.7,4.6h-0.8L143.5,78.3z M143.2,77.6l-0.7-2h0l-0.7,2H143.2z"/>
	<path class="st5" d="M145.1,74.5h0.9l1.7,3.2h0v-3.2h0.8v4.6h-0.9l-1.7-3.2h0v3.2h-0.8V74.5z"/>
	<path class="st5" d="M149.5,74.5h0.9l1.7,3.2h0v-3.2h0.8v4.6h-0.9l-1.7-3.2h0v3.2h-0.8V74.5z"/>
	<path class="st5" d="M153.7,76.8c0-1.5,0.8-2.4,2-2.4c1.2,0,2,1,2,2.4c0,1.4-0.8,2.4-2,2.4C154.5,79.2,153.7,78.2,153.7,76.8z
		 M156.9,76.8c0-1-0.4-1.6-1.2-1.6c-0.7,0-1.2,0.6-1.2,1.6c0,1,0.4,1.6,1.2,1.6C156.4,78.4,156.9,77.8,156.9,76.8z"/>
	<path class="st5" d="M158.4,77.6v-3.1h0.8v3c0,0.6,0.3,0.9,0.9,0.9c0.6,0,0.9-0.3,0.9-0.9v-3.1h0.8v3.1c0,1-0.6,1.6-1.7,1.6
		C159,79.2,158.4,78.6,158.4,77.6z"/>
	<path class="st5" d="M162.8,74.5h0.9l1.7,3.2h0v-3.2h0.8v4.6h-0.9l-1.7-3.2h0v3.2h-0.8V74.5z"/>
	<path class="st5" d="M167,76.8c0-1.5,0.8-2.4,2-2.4c1,0,1.7,0.7,1.8,1.6l-0.8,0.1c-0.1-0.7-0.5-1-1-1c-0.7,0-1.2,0.6-1.2,1.6
		c0,1,0.4,1.6,1.2,1.6c0.6,0,0.9-0.4,1-1.1l0.8,0.1c-0.1,1.1-0.8,1.7-1.8,1.7C167.8,79.2,167,78.3,167,76.8z"/>
	<path class="st5" d="M171.5,74.5h0.8v4.6h-0.8V74.5z"/>
	<path class="st5" d="M173.3,74.5h0.9l1.7,3.2h0v-3.2h0.8v4.6h-0.9l-1.7-3.2h0v3.2h-0.8V74.5z"/>
	<path class="st5" d="M177.5,76.8c0-1.5,0.8-2.4,2-2.4c0.9,0,1.7,0.6,1.8,1.6l-0.8,0.1c-0.1-0.6-0.5-0.9-1-0.9
		c-0.7,0-1.2,0.6-1.2,1.6c0,1,0.4,1.6,1.2,1.6c0.6,0,1-0.4,1-1h-0.9v-0.7h1.7v0.6c0,1.2-0.7,1.9-1.8,1.9
		C178.3,79.2,177.5,78.3,177.5,76.8z"/>
	<path class="st5" d="M182.3,78.2h1v0.9h-1V78.2z M182.4,74.5h0.8v3.1h-0.8V74.5z"/>
</g>
<g class="st4">
	<path class="st2" d="M104.4,86.8c0-2.3,1.3-3.9,3.2-3.9c1.6,0,2.7,1,2.9,2.6l-1.3,0.2c-0.2-1-0.7-1.6-1.6-1.6c-1.2,0-1.9,1-1.9,2.6
		c0,1.6,0.7,2.6,1.9,2.6c0.9,0,1.5-0.6,1.6-1.8l1.3,0.2c-0.2,1.7-1.3,2.8-2.9,2.8C105.6,90.7,104.4,89.2,104.4,86.8z"/>
	<path class="st2" d="M111.1,87.7c0-1.8,1.1-3,2.7-3c1.6,0,2.7,1.2,2.7,3c0,1.8-1.1,3-2.7,3C112.2,90.7,111.1,89.5,111.1,87.7z
		 M115.3,87.7c0-1.1-0.5-1.8-1.5-1.8c-0.9,0-1.4,0.7-1.4,1.8s0.5,1.8,1.4,1.8C114.8,89.5,115.3,88.9,115.3,87.7z"/>
	<path class="st2" d="M117.5,82.8h1.3v7.7h-1.3V82.8z"/>
	<path class="st2" d="M119.9,82.8h1.3v7.7h-1.3V82.8z"/>
	<path class="st2" d="M122.2,89c0-0.9,0.6-1.4,2-1.8c0.9-0.2,1.2-0.4,1.2-0.8c0-0.4-0.3-0.6-0.9-0.6c-0.6,0-1.1,0.4-1.2,1l-1.2-0.3
		c0.2-1.1,1.1-1.8,2.4-1.8c1.4,0,2.2,0.8,2.2,2v3.7h-1.2V90h0c-0.3,0.4-0.8,0.6-1.5,0.6C122.9,90.7,122.2,90,122.2,89z M125.5,88.6
		v-1h0c-0.1,0.2-0.4,0.3-1,0.5c-0.8,0.2-1.1,0.4-1.1,0.8c0,0.4,0.3,0.6,0.8,0.6C125,89.6,125.5,89.2,125.5,88.6z"/>
	<path class="st2" d="M129,90L129,90l0,0.5h-1.2v-7.7h1.3v2.5h0c0.4-0.4,0.9-0.6,1.5-0.6c1.5,0,2.5,1.2,2.5,3c0,1.7-1,3-2.5,3
		C130,90.7,129.4,90.4,129,90z M131.9,87.7c0-1.1-0.5-1.8-1.4-1.8c-0.8,0-1.3,0.6-1.3,1.3v0.9c0,0.8,0.6,1.4,1.3,1.4
		C131.3,89.5,131.9,88.8,131.9,87.7z"/>
	<path class="st2" d="M133.9,87.7c0-1.8,1.1-3,2.7-3c1.6,0,2.7,1.2,2.7,3c0,1.8-1.1,3-2.7,3C135,90.7,133.9,89.5,133.9,87.7z
		 M138,87.7c0-1.1-0.5-1.8-1.5-1.8c-0.9,0-1.4,0.7-1.4,1.8s0.5,1.8,1.4,1.8C137.5,89.5,138,88.9,138,87.7z"/>
	<path class="st2" d="M140.3,84.9h1.2v0.5h0c0.2-0.4,0.6-0.6,1.2-0.6c0.3,0,0.5,0,0.7,0.1l-0.2,1.2c-0.2-0.1-0.4-0.1-0.6-0.1
		c-0.6,0-1,0.4-1,1.3v3.1h-1.3V84.9z"/>
	<path class="st2" d="M143.6,89c0-0.9,0.6-1.4,2-1.8c0.9-0.2,1.2-0.4,1.2-0.8c0-0.4-0.3-0.6-0.9-0.6c-0.6,0-1.1,0.4-1.2,1l-1.2-0.3
		c0.2-1.1,1.1-1.8,2.4-1.8c1.4,0,2.2,0.8,2.2,2v3.7h-1.2V90h0c-0.3,0.4-0.8,0.6-1.5,0.6C144.3,90.7,143.6,90,143.6,89z M146.8,88.6
		v-1h0c-0.1,0.2-0.4,0.3-1,0.5c-0.8,0.2-1.1,0.4-1.1,0.8c0,0.4,0.3,0.6,0.8,0.6C146.3,89.6,146.8,89.2,146.8,88.6z"/>
	<path class="st2" d="M150.8,86.1v2.8c0,0.4,0.1,0.5,0.6,0.5h0.6v1.2h-0.7c-1.3,0-1.7-0.4-1.7-1.6v-2.8h-0.9v-1.1h0.9v-1.4h1.3v1.4
		h1.4v1.1H150.8z"/>
	<path class="st2" d="M153,82.7h1.3V84H153V82.7z M153,84.9h1.3v5.6H153V84.9z"/>
	<path class="st2" d="M155.2,87.7c0-1.8,1.1-3,2.7-3c1.6,0,2.7,1.2,2.7,3c0,1.8-1.1,3-2.7,3C156.3,90.7,155.2,89.5,155.2,87.7z
		 M159.4,87.7c0-1.1-0.5-1.8-1.5-1.8c-0.9,0-1.4,0.7-1.4,1.8s0.5,1.8,1.4,1.8C158.8,89.5,159.4,88.9,159.4,87.7z"/>
	<path class="st2" d="M161.6,84.9h1.2v0.5h0c0.3-0.4,0.9-0.7,1.5-0.7c1.3,0,2.1,0.8,2.1,2.2v3.6h-1.3v-3.4c0-0.7-0.4-1.2-1.2-1.2
		s-1.2,0.5-1.2,1.2v3.4h-1.3V84.9z"/>
	<path class="st2" d="M169.7,84.9h1.3l0.8,3.8h0l1.3-3.8h1.1l1.3,3.8h0l0.8-3.8h1.3l-1.3,5.6h-1.2l-1.4-4.1h0l-1.4,4.1H171
		L169.7,84.9z"/>
	<path class="st2" d="M178.3,82.7h1.3V84h-1.3V82.7z M178.4,84.9h1.3v5.6h-1.3V84.9z"/>
	<path class="st2" d="M182.5,86.1v2.8c0,0.4,0.1,0.5,0.6,0.5h0.6v1.2H183c-1.3,0-1.7-0.4-1.7-1.6v-2.8h-0.9v-1.1h0.9v-1.4h1.3v1.4
		h1.4v1.1H182.5z"/>
	<path class="st2" d="M184.7,82.8h1.3v2.6h0c0.3-0.4,0.9-0.7,1.5-0.7c1.3,0,2.1,0.8,2.1,2.1v3.7h-1.3v-3.4c0-0.7-0.4-1.2-1.2-1.2
		s-1.2,0.5-1.2,1.2v3.4h-1.3V82.8z"/>
	<path class="st2" d="M193,86.8c0-2.3,1.3-3.9,3.2-3.9c1.6,0,2.7,1,2.9,2.6l-1.3,0.2c-0.2-1-0.7-1.6-1.6-1.6c-1.2,0-1.9,1-1.9,2.6
		c0,1.6,0.7,2.6,1.9,2.6c0.9,0,1.5-0.6,1.6-1.8l1.3,0.2c-0.2,1.7-1.3,2.8-2.9,2.8C194.3,90.7,193,89.2,193,86.8z"/>
	<path class="st2" d="M200.2,83.1h1.3v6.2h3.2v1.2h-4.5V83.1z"/>
	<path class="st2" d="M205.8,83.1h4.6v1.2h-3.3v2.1h3.1v1.2h-3.1v2.9h-1.3V83.1z"/>
	<path class="st2" d="M211.6,83.1h3c1.6,0,2.5,0.9,2.5,2.4c0,1.5-1,2.4-2.5,2.4H213v2.7h-1.3V83.1z M214.6,86.7
		c0.8,0,1.2-0.4,1.2-1.2c0-0.8-0.4-1.2-1.2-1.2H213v2.3H214.6z"/>
</g>
<rect x="31.2" y="95" class="st3" width="263.2" height="8.6"/>
<g class="st4">
	<path class="st2" d="M83.1,97.9v3.7c0,0.4,0.2,0.5,0.6,0.5h0.5v0.8h-0.5c-1,0-1.4-0.3-1.4-1.3v-3.6h-0.9v-0.8h0.9v-1.3h0.8v1.3h1.4
		v0.8H83.1z"/>
	<path class="st2" d="M85,100c0-1.8,1.1-3,2.7-3c1.6,0,2.7,1.2,2.7,3c0,1.8-1.1,3-2.7,3C86.1,103,85,101.8,85,100z M89.6,100
		c0-1.4-0.7-2.2-1.9-2.2c-1.1,0-1.8,0.9-1.8,2.2s0.7,2.2,1.8,2.2C88.8,102.2,89.6,101.4,89.6,100z"/>
	<path class="st2" d="M94.7,95.3h2.3c1.9,0,3.3,1.4,3.3,3.8c0,2.7-1.3,3.8-3.3,3.8h-2.3V95.3z M96.9,102c1.5,0,2.5-0.8,2.5-2.9
		c0-1.9-0.9-2.9-2.4-2.9h-1.4v5.9H96.9z"/>
	<path class="st2" d="M101.5,97.2h0.8v0.5h0c0.2-0.4,0.6-0.6,1.2-0.6c0.2,0,0.4,0,0.6,0.1l-0.2,0.9c-0.2-0.1-0.4-0.1-0.6-0.1
		c-0.7,0-1,0.4-1,1.5v3.4h-0.8V97.2z"/>
	<path class="st2" d="M105,95.2h1v0.9h-1V95.2z M105,97.2h0.8v5.7H105V97.2z"/>
	<path class="st2" d="M106.7,97.2h0.9l1.9,4.6h0l1.9-4.6h0.9l-2.4,5.7h-0.7L106.7,97.2z"/>
	<path class="st2" d="M112.5,100c0-1.8,1.1-3,2.6-3c1.5,0,2.6,1.1,2.6,2.8v0.4h-4.3c0,1.1,0.7,2,1.8,2c0.8,0,1.3-0.3,1.7-1.1
		l0.7,0.4c-0.5,1-1.3,1.5-2.4,1.5C113.6,103,112.5,101.8,112.5,100z M116.8,99.6c0-1-0.7-1.8-1.7-1.8c-1,0-1.7,0.9-1.8,1.8H116.8z"
		/>
	<path class="st2" d="M122,95.3h0.9v7.5H122V95.3z"/>
	<path class="st2" d="M124.5,97.2h0.8v0.5h0c0.3-0.4,1-0.7,1.6-0.7c1.3,0,2.2,0.9,2.2,2.2v3.7h-0.8v-3.6c0-0.9-0.5-1.5-1.4-1.5
		c-0.9,0-1.5,0.6-1.5,1.5v3.6h-0.8V97.2z"/>
	<path class="st2" d="M130.5,97.2h0.8v0.5h0c0.3-0.4,1-0.7,1.6-0.7c1.3,0,2.2,0.9,2.2,2.2v3.7h-0.8v-3.6c0-0.9-0.5-1.5-1.4-1.5
		c-0.9,0-1.5,0.6-1.5,1.5v3.6h-0.8V97.2z"/>
	<path class="st2" d="M136.3,100c0-1.8,1.1-3,2.7-3c1.6,0,2.7,1.2,2.7,3c0,1.8-1.1,3-2.7,3C137.4,103,136.3,101.8,136.3,100z
		 M140.8,100c0-1.4-0.7-2.2-1.9-2.2c-1.1,0-1.8,0.9-1.8,2.2s0.7,2.2,1.8,2.2C140.1,102.2,140.8,101.4,140.8,100z"/>
	<path class="st2" d="M141.9,97.2h0.9l1.9,4.6h0l1.9-4.6h0.9l-2.4,5.7h-0.7L141.9,97.2z"/>
	<path class="st2" d="M147.9,101.4c0-1,0.6-1.5,2-1.8c1.1-0.3,1.5-0.5,1.5-1c0-0.5-0.5-0.9-1.2-0.9c-0.8,0-1.3,0.5-1.4,1.2l-0.9-0.2
		c0.2-1.1,1.1-1.8,2.3-1.8c1.3,0,2.1,0.7,2.1,1.9v4h-0.8v-0.6h0c-0.3,0.5-0.9,0.8-1.7,0.8C148.6,103,147.9,102.4,147.9,101.4z
		 M151.4,100.9v-1.3h0c-0.1,0.3-0.5,0.5-1.2,0.7c-1,0.3-1.4,0.5-1.4,1c0,0.6,0.4,0.9,1.1,0.9C150.7,102.2,151.4,101.7,151.4,100.9z"
		/>
	<path class="st2" d="M154.7,97.9v3.7c0,0.4,0.2,0.5,0.6,0.5h0.5v0.8h-0.5c-1,0-1.4-0.3-1.4-1.3v-3.6H153v-0.8h0.9v-1.3h0.8v1.3h1.4
		v0.8H154.7z"/>
	<path class="st2" d="M157.1,95.2h1v0.9h-1V95.2z M157.1,97.2h0.8v5.7h-0.8V97.2z"/>
	<path class="st2" d="M159.2,100c0-1.8,1.1-3,2.7-3c1.6,0,2.7,1.2,2.7,3c0,1.8-1.1,3-2.7,3C160.2,103,159.2,101.8,159.2,100z
		 M163.7,100c0-1.4-0.7-2.2-1.9-2.2c-1.1,0-1.8,0.9-1.8,2.2s0.7,2.2,1.8,2.2C163,102.2,163.7,101.4,163.7,100z"/>
	<path class="st2" d="M165.7,97.2h0.8v0.5h0c0.3-0.4,1-0.7,1.6-0.7c1.3,0,2.2,0.9,2.2,2.2v3.7h-0.8v-3.6c0-0.9-0.5-1.5-1.4-1.5
		c-0.9,0-1.5,0.6-1.5,1.5v3.6h-0.8V97.2z"/>
	<path class="st2" d="M174.6,95.2h1v0.9h-1V95.2z M174.6,97.2h0.8v5.7h-0.8V97.2z"/>
	<path class="st2" d="M176.9,97.2h0.8v0.5h0c0.3-0.4,1-0.7,1.6-0.7c1.3,0,2.2,0.9,2.2,2.2v3.7h-0.8v-3.6c0-0.9-0.5-1.5-1.4-1.5
		c-0.9,0-1.5,0.6-1.5,1.5v3.6h-0.8V97.2z"/>
	<path class="st2" d="M185.3,99.1c0-2.4,1.3-3.9,3.2-3.9c1.6,0,2.7,1,2.9,2.6l-0.9,0.2c-0.2-1.3-0.9-1.9-2-1.9
		c-1.4,0-2.3,1.2-2.3,3.1c0,1.9,0.9,3.1,2.3,3.1c1.2,0,1.9-0.7,2-2.1l0.9,0.1c-0.1,1.8-1.2,2.8-2.9,2.8
		C186.6,103,185.3,101.5,185.3,99.1z"/>
	<path class="st2" d="M192.3,100c0-1.8,1.1-3,2.6-3c1.5,0,2.6,1.1,2.6,2.8v0.4h-4.3c0,1.1,0.7,2,1.8,2c0.8,0,1.3-0.3,1.7-1.1
		l0.7,0.4c-0.5,1-1.3,1.5-2.4,1.5C193.3,103,192.3,101.8,192.3,100z M196.6,99.6c0-1-0.7-1.8-1.7-1.8c-1,0-1.7,0.9-1.8,1.8H196.6z"
		/>
	<path class="st2" d="M198.7,97.2h0.8v0.5h0c0.2-0.4,0.6-0.6,1.2-0.6c0.2,0,0.4,0,0.6,0.1l-0.2,0.9c-0.2-0.1-0.4-0.1-0.6-0.1
		c-0.7,0-1,0.4-1,1.5v3.4h-0.8V97.2z"/>
	<path class="st2" d="M203.4,97.9v3.7c0,0.4,0.2,0.5,0.6,0.5h0.5v0.8h-0.5c-1,0-1.4-0.3-1.4-1.3v-3.6h-0.9v-0.8h0.9v-1.3h0.8v1.3
		h1.4v0.8H203.4z"/>
	<path class="st2" d="M205.8,95.2h1v0.9h-1V95.2z M205.8,97.2h0.8v5.7h-0.8V97.2z"/>
	<path class="st2" d="M212.4,97.2v5.7h-0.8v-5h-2.2v5h-0.8v-5h-1v-0.8h1v-0.6c0-0.7,0.5-1.2,1.3-1.2h0.8v0.8h-0.7
		c-0.4,0-0.5,0.2-0.5,0.5v0.5H212.4z M212.5,95.2v0.9h-1v-0.9H212.5z"/>
	<path class="st2" d="M213.6,100c0-1.8,1.1-3,2.6-3c1.3,0,2.3,0.8,2.5,2.1l-0.8,0.2c-0.2-0.9-0.8-1.5-1.7-1.5
		c-1.1,0-1.8,0.9-1.8,2.2s0.7,2.2,1.8,2.2c0.9,0,1.5-0.5,1.7-1.5l0.8,0.2c-0.2,1.3-1.2,2.1-2.5,2.1C214.7,103,213.6,101.8,213.6,100
		z"/>
	<path class="st2" d="M219.6,101.4c0-1,0.6-1.5,2-1.8c1.1-0.3,1.5-0.5,1.5-1c0-0.5-0.5-0.9-1.2-0.9c-0.8,0-1.3,0.5-1.4,1.2l-0.9-0.2
		c0.2-1.1,1.1-1.8,2.3-1.8c1.3,0,2.1,0.7,2.1,1.9v4h-0.8v-0.6h0c-0.3,0.5-0.9,0.8-1.7,0.8C220.3,103,219.6,102.4,219.6,101.4z
		 M223.1,100.9v-1.3h0c-0.1,0.3-0.5,0.5-1.3,0.7c-1,0.3-1.4,0.5-1.4,1c0,0.6,0.4,0.9,1.1,0.9C222.4,102.2,223.1,101.7,223.1,100.9z"
		/>
	<path class="st2" d="M226.4,97.9v3.7c0,0.4,0.2,0.5,0.6,0.5h0.5v0.8h-0.5c-1,0-1.4-0.3-1.4-1.3v-3.6h-0.9v-0.8h0.9v-1.3h0.8v1.3
		h1.4v0.8H226.4z"/>
	<path class="st2" d="M228.8,95.2h1v0.9h-1V95.2z M228.8,97.2h0.8v5.7h-0.8V97.2z"/>
	<path class="st2" d="M230.9,100c0-1.8,1.1-3,2.7-3s2.7,1.2,2.7,3c0,1.8-1.1,3-2.7,3S230.9,101.8,230.9,100z M235.4,100
		c0-1.4-0.7-2.2-1.9-2.2s-1.8,0.9-1.8,2.2s0.7,2.2,1.8,2.2S235.4,101.4,235.4,100z"/>
	<path class="st2" d="M237.4,97.2h0.8v0.5h0c0.3-0.4,1-0.7,1.6-0.7c1.3,0,2.2,0.9,2.2,2.2v3.7h-0.8v-3.6c0-0.9-0.5-1.5-1.4-1.5
		c-0.9,0-1.5,0.6-1.5,1.5v3.6h-0.8V97.2z"/>
</g>
<circle class="st6" cx="39.2" cy="19.7" r="2.8"/>
<circle class="st7" cx="32.4" cy="28.9" r="2.8"/>
<circle class="st7" cx="53.5" cy="30" r="2.8"/>
<circle class="st7" cx="12.9" cy="8.8" r="2.9"/>
<circle class="st7" cx="46.2" cy="74.5" r="2.8"/>
<circle class="st6" cx="37.1" cy="123.9" r="2.8"/>
<circle class="st7" cx="280.7" cy="39.4" r="2.9"/>
<circle class="st7" cx="274.4" cy="31.4" r="2.9"/>
<circle class="st7" cx="24.8" cy="113.4" r="2.8"/>
<circle class="st7" cx="18.5" cy="100.1" r="2.8"/>
<circle class="st7" cx="16.5" cy="129.3" r="2.9"/>
<circle class="st7" cx="52.8" cy="136.8" r="2.9"/>
<circle class="st6" cx="301.1" cy="31.8" r="2.9"/>
<circle class="st7" cx="289" cy="14.4" r="2.9"/>
<circle class="st7" cx="312.7" cy="54.5" r="2.9"/>
<circle class="st6" cx="315" cy="16.5" r="2.9"/>
<circle class="st6" cx="286.9" cy="133.2" r="2.9"/>
<circle class="st6" cx="303.6" cy="70.6" r="2.9"/>
<circle class="st7" cx="304.2" cy="139.7" r="2.9"/>
<circle class="st6" cx="10.1" cy="142.9" r="2.9"/>
<g>
	<g>
		<defs>
			<rect id="SVGID_1_" x="155.7" y="31.4" width="16.3" height="27.1"/>
		</defs>
		<clipPath id="SVGID_2_">
			<use xlink:href="#SVGID_1_"  style="overflow:visible;"/>
		</clipPath>
		<path class="st8" d="M166.2,34h-10.9c-0.2,0-0.4,0.2-0.4,0.4v20c0,0.2,0.2,0.4,0.4,0.4h13.6c0.2,0,0.4-0.2,0.4-0.4V37.2L166.2,34z
			"/>
	</g>
</g>
<g>
	<g>
		<defs>
			<rect id="SVGID_3_" x="155.5" y="30.9" width="3.2" height="31.8"/>
		</defs>
		<clipPath id="SVGID_4_">
			<use xlink:href="#SVGID_3_"  style="overflow:visible;"/>
		</clipPath>
		<path class="st9" d="M167.4,34.1h-11.2c-0.2,0-0.4,0.2-0.4,0.4v20c0,0.2,0.2,0.4,0.4,0.4h14c0.2,0,0.4-0.2,0.4-0.4V37.3
			L167.4,34.1z"/>
	</g>
</g>
<path class="st10" d="M159.9,40.5c-0.1,0-0.2,0-0.2,0l-1.4,1.7l-0.5-0.7c-0.1-0.1-0.1-0.1-0.2,0c-0.1,0-0.1,0.2,0,0.2l0.6,0.8
	c0,0,0,0,0,0l0,0l0,0c0,0,0,0,0,0c0,0,0,0,0,0l0,0c0.1,0,0.1,0,0.2,0l1.5-1.9C160,40.7,159.9,40.6,159.9,40.5z"/>
<path class="st10" d="M159.9,43.8c-0.1,0-0.2,0-0.2,0l-1.4,1.7l-0.5-0.7c-0.1-0.1-0.1-0.1-0.2,0c-0.1,0-0.1,0.2,0,0.2l0.6,0.8
	c0,0,0,0,0,0l0,0l0,0c0,0,0,0,0,0c0,0,0,0,0,0l0,0c0.1,0,0.1,0,0.2,0l1.5-1.9C160,44,159.9,43.9,159.9,43.8z"/>
<path class="st10" d="M159.9,47.2c-0.1,0-0.2,0-0.2,0l-1.4,1.7l-0.5-0.7c-0.1-0.1-0.1-0.1-0.2,0c-0.1,0-0.1,0.2,0,0.2l0.6,0.8
	c0,0,0,0,0,0l0,0l0,0c0,0,0,0,0,0c0,0,0,0,0,0l0,0c0.1,0,0.1,0,0.2,0l1.5-1.9C160,47.3,159.9,47.2,159.9,47.2z"/>
<path class="st2" d="M167.1,41.4h-4.8c-0.2,0-0.3-0.1-0.3-0.3l0,0c0-0.2,0.1-0.3,0.3-0.3h4.8c0.2,0,0.3,0.1,0.3,0.3l0,0
	C167.4,41.3,167.2,41.4,167.1,41.4z"/>
<path class="st2" d="M167.1,45.2h-4.8c-0.2,0-0.3-0.1-0.3-0.3l0,0c0-0.2,0.1-0.3,0.3-0.3h4.8c0.2,0,0.3,0.1,0.3,0.3l0,0
	C167.4,45.1,167.2,45.2,167.1,45.2z"/>
<path class="st2" d="M167.1,43.3h-4.8c-0.2,0-0.3-0.1-0.3-0.3l0,0c0-0.2,0.1-0.3,0.3-0.3h4.8c0.2,0,0.3,0.1,0.3,0.3l0,0
	C167.4,43.2,167.2,43.3,167.1,43.3z"/>
<path class="st2" d="M167.1,47.1h-4.8c-0.2,0-0.3-0.1-0.3-0.3l0,0c0-0.2,0.1-0.3,0.3-0.3h4.8c0.2,0,0.3,0.1,0.3,0.3l0,0
	C167.4,47,167.2,47.1,167.1,47.1z"/>
<path class="st2" d="M167.1,49h-4.8c-0.2,0-0.3-0.1-0.3-0.3l0,0c0-0.2,0.1-0.3,0.3-0.3h4.8c0.2,0,0.3,0.1,0.3,0.3l0,0
	C167.4,48.8,167.2,49,167.1,49z"/>
<polygon class="st11" points="169.3,37.2 166.1,37.2 166.1,34 "/>
<path class="st12" d="M167.1,34.1H156c-0.2,0-0.4,0.2-0.4,0.4v20c0,0.2,0.2,0.4,0.4,0.4h14c0.2,0,0.4-0.2,0.4-0.4V37.3L167.1,34.1z"
	/>
</svg>
