<?xml version="1.0" encoding="utf-8"?>
<!-- Generator: Adobe Illustrator 24.1.2, SVG Export Plug-In . SVG Version: 6.00 Build 0)  -->
<svg version="1.1" id="Layer_1" xmlns="http://www.w3.org/2000/svg" xmlns:xlink="http://www.w3.org/1999/xlink" x="0px" y="0px"
	 viewBox="0 0 324 154" style="enable-background:new 0 0 324 154;" xml:space="preserve">
<style type="text/css">
	.st0{fill:#F3F3F5;}
	.st1{fill:url(#SVGID_1_);}
	.st2{fill:#2F4454;}
	.st3{fill:#F04C5E;}
	.st4{fill:url(#SVGID_2_);}
	.st5{clip-path:url(#SVGID_4_);fill:#FFFFFF;}
	.st6{fill:#FAB188;}
	.st7{fill:#C1425A;}
	.st8{fill:#273846;}
	.st9{fill:#111C35;}
	.st10{fill:#02ACC8;}
	.st11{fill:#046972;}
	.st12{fill:#CFCFCE;}
	.st13{fill:#F27968;}
	.st14{fill:#4B1318;}
	.st15{fill:#385163;}
	.st16{fill:#F4B61D;}
	.st17{fill:none;}
	.st18{clip-path:url(#SVGID_10_);fill:#FFFFFF;}
	.st19{clip-path:url(#SVGID_12_);fill:#FFFFFF;}
	.st20{fill:url(#SVGID_13_);}
	.st21{fill:#0C8B99;}
	.st22{fill:#F04D5E;}
	.st23{fill:#F8A582;}
	.st24{fill:#F58469;}
	.st25{fill:#EE846B;}
	.st26{fill:#1D2B59;}
	.st27{fill:#A11D2E;}
	.st28{fill:#0B878C;}
	.st29{clip-path:url(#SVGID_16_);fill:#FFFFFF;}
	.st30{clip-path:url(#SVGID_18_);fill:#FFFFFF;}
</style>
<g>
	<path class="st0" d="M-1.09,153.79c0,0.55,0.45,1,1,1H324c0.55,0,1-0.45,1-1V0c0-0.55-0.45-1-1-1H-0.09c-0.55,0-1,0.45-1,1V153.79z
		"/>
</g>
<g>
	<linearGradient id="SVGID_1_" gradientUnits="userSpaceOnUse" x1="220.7302" y1="105.8422" x2="273.5129" y2="105.8422">
		<stop  offset="0.0488" style="stop-color:#00ACC8"/>
		<stop  offset="0.722" style="stop-color:#2F4454"/>
	</linearGradient>
	<path class="st1" d="M220.73,111.6c19.46-1.44,34.92-8.22,35.04-30.13h17.74c0.14,32.78-22.08,47.76-52.78,48.73V111.6
		L220.73,111.6z"/>
	<path class="st2" d="M255.77,81.76c0.21-18.74-14.09-28.57-31.68-28.57c-20.4,0-32.58,14.35-44.17,29.23
		c-4.2-5.48-8.2-11.05-12.07-15.98c14.85-18.85,30.41-31.78,55.4-31.78c28.84,0,50.27,17.21,50.27,47.09L255.77,81.76L255.77,81.76z
		"/>
	<path class="st3" d="M62.18,83.85h17.74c-0.11-22.71,15.96-29.14,35.91-30.44V34.74C115.98,34.75,61.64,32.66,62.18,83.85
		L62.18,83.85z"/>
	<linearGradient id="SVGID_2_" gradientUnits="userSpaceOnUse" x1="62.1818" y1="106.3557" x2="167.8441" y2="106.3557">
		<stop  offset="0.0537" style="stop-color:#F04C5E"/>
		<stop  offset="0.1613" style="stop-color:#E84C5E"/>
		<stop  offset="0.284" style="stop-color:#D84D5D"/>
		<stop  offset="0.4143" style="stop-color:#C34E5D"/>
		<stop  offset="0.5497" style="stop-color:#A64F5C"/>
		<stop  offset="0.6891" style="stop-color:#824E5B"/>
		<stop  offset="0.8298" style="stop-color:#5B4A58"/>
		<stop  offset="0.9512" style="stop-color:#2F4454"/>
	</linearGradient>
	<path class="st4" d="M62.18,83.85c0.31,29.55,21.77,46.4,50.26,46.4c24.93,0,40.62-12.94,55.4-31.78
		c-4.14-5.25-8.05-10.68-12.08-16.01c-11.27,14.91-24.04,29.26-44.16,29.26c-17.19,0-31.61-9.51-31.69-27.88L62.18,83.85
		L62.18,83.85z"/>
	<g>
		<defs>
			
				<rect id="SVGID_3_" x="152.59" y="72.54" transform="matrix(-0.7959 0.6054 -0.6054 -0.7959 343.3033 69.0232)" width="14.85" height="39.67"/>
		</defs>
		<clipPath id="SVGID_4_">
			<use xlink:href="#SVGID_3_"  style="overflow:visible;"/>
		</clipPath>
		<path class="st5" d="M154.93,96.66l2.11-24.8l24.8,2.11l-2.11,24.8L154.93,96.66z M182.13,96.74l2.11-24.8l-24.8-2.11l-2.11,24.8
			L182.13,96.74z"/>
	</g>
	<path id="XMLID_3_" class="st6" d="M81.4,21.53c-0.03-0.11-0.52,0.27-0.52,0.27s0.39-0.39,0.33-0.56c-0.06-0.16-0.5,0.38-0.5,0.38
		c0.27-0.31,0.51-0.72,0.38-0.75c-0.13-0.04-0.65,0.58-0.65,0.58s0.18-0.28,0.3-0.46c0.12-0.18-0.07-0.23-0.18-0.13
		c-0.09,0.09-0.52,0.72-0.52,0.72s0.05-0.22,0.04-0.41c-0.01-0.18-0.22-0.16-0.26-0.06c-0.04,0.1-0.17,0.53-0.2,0.69
		c-0.03,0.14,0.07,0.38,0.07,0.42l-0.16,0.23l0.6,0.38l0.18-0.25c0.09-0.05,0.3-0.28,0.67-0.58C81.37,21.67,81.43,21.64,81.4,21.53z
		"/>
	<polygon class="st7" points="82.98,42.92 80.11,55.9 84.1,52.96 85.86,41.45 	"/>
	<polygon class="st7" points="70.66,54.02 67.99,65.77 72.34,62.48 74.39,49.77 	"/>
	<path class="st8" d="M65.44,33.39c0,0-0.07,2.09,0.53,3.65c0.6,1.56,0.85,3.61,0.85,3.61l-6.56,0.34L60,42.21
		c0,0,7.05,2.3,9.9,1.13c1.09-0.4-0.87-9.97-0.87-9.97L65.44,33.39z"/>
	<path class="st9" d="M66.08,37.33c0,0,2.36,0.72,3.77,0.73l0.08,0.53c0,0-2.58,0.13-3.59-0.44L66.08,37.33z"/>
	<path class="st10" d="M70.98,23.65c0,0,0.62,0.03,1.47,0.53c0.85,0.5,3.64,2.24,3.64,2.24l3.37-4.21l0.85,0.63
		c0,0-2.38,4.74-3.52,5.55c-1.14,0.81-5.04-1.59-5.04-1.59L70.98,23.65z"/>
	<path class="st11" d="M62.08,36.78c0,0,1.25-1.33,3.31-2.41l0.19-3.08L62.08,36.78z"/>
	<path class="st8" d="M64.81,33.19c-0.34,1.19-1.67,3.48,1.31,4.54c2.98,1.06,9.47-0.05,9.47-0.05s7.06,3.64,7.69,3.87l1-1.16
		c0,0-5.5-4.45-7.03-5.27c-1.54-0.83-7.49-1.71-7.49-1.71L64.81,33.19z"/>
	<path class="st12" d="M71.78,23.79c0,0-1.85-0.34-2.21-0.36c-0.37-0.02-1.63-0.17-3.02,2.43c-1.4,2.6-2.1,4.42-1.71,7.48l5.5,0.15
		l-0.09-1.79C70.23,31.7,74,27.35,71.78,23.79z"/>
	<g>
		<path id="XMLID_5_" class="st13" d="M70.53,23.33c-0.17,0.03-0.81-0.17-1.03-0.09l0.4,1.35c1.29,0.88,1.8,0.04,1.8,0.04
			l-0.15-1.37l0.03-0.56c-0.02,0.06-0.06,0.12-0.1,0.18C71.25,23.18,70.79,23.29,70.53,23.33z"/>
		<path id="XMLID_4_" class="st6" d="M71.67,22.75c-0.07-0.6-0.02-1.01-0.37-1.65c-0.23-0.42-2.03,0.15-2.29,0.74
			c0,0,0.24,0.71,0.35,1.05c0.03,0.11,0.09,0.29,0.19,0.34c0.21,0.11,1.25,0.56,1.62,0.53c0.07-0.01,0.14-0.02,0.2-0.05
			C71.61,23.61,71.74,23.35,71.67,22.75z"/>
		<path id="XMLID_2_" class="st14" d="M69.51,20.63c-1.62,0.62-0.02,2.61-0.02,2.61l0.14,0.03c0.03-0.14,0.09-0.67,0.09-0.67
			c-0.03-0.02-0.1-0.11-0.12-0.25c-0.02-0.1,0.02-0.18,0.18-0.21c0.12-0.02,0.22,0.13,0.29,0.25c0.08-0.04,0.14-0.09,0.13-0.14
			c-0.07-0.18-0.18-0.43-0.19-0.47c0,0-0.81,0.15-0.81,0.15c0,0,2.16-0.56,2.19-0.69C71.27,20.38,70.59,20.22,69.51,20.63z"/>
	</g>
	<polygon class="st8" points="57.58,31.14 56.77,31.98 57.07,32.15 57.6,31.59 58.66,32.21 58.13,32.76 58.42,32.93 59.23,32.09 	
		"/>
	<polygon class="st11" points="55.68,30.69 52.97,34.3 57.29,37.84 60.06,33.34 	"/>
	<polygon class="st8" points="60.06,33.34 60.52,33.69 58.18,37.79 57.29,37.84 	"/>
	<polygon class="st15" points="55.68,30.69 54.07,32.36 58.23,35.34 60.06,33.34 	"/>
	<polygon class="st16" points="55.94,33.52 55.61,33.79 56.21,34.23 56.54,33.94 	"/>
	<path class="st6" d="M58.84,30.49l-0.11,0.13c0,0-0.63,0.21-1.01,0.83c0,0-0.12,0.17,0.06,0.27c0,0-0.05,0.18,0.11,0.19
		c0,0-0.06,0.22,0.12,0.24c0,0,0.16,0.27,0.33,0.08c0.07-0.09,0.05-0.15,0.05-0.15s-0.21-0.24,0.06-0.36
		c0.27-0.13,0.22,0.07,0.22,0.07s-0.01,0.38,0.13,0.43c0.13,0.05,0.24-0.01,0.19-0.25c-0.05-0.24,0.19-0.99,0.24-1.11L58.84,30.49z"
		/>
	<path class="st10" d="M69.56,23.43c0,0,1.84,2.61-0.08,5.08c-1.92,2.47-6.8,7.03-7.41,8.26c0,0-2.35-2.2,0.01-4.08
		c1.63-1.31,2.4-1.45,2.4-1.45S66.17,22.91,69.56,23.43z"/>
	<path class="st10" d="M69.18,23.43c0,0-3.44-0.11-5.42,0.61c-1.98,0.72-5.09,6.42-5.09,6.42l0.82,0.73c0,0,4.1-4.3,4.51-4.79
		c0.41-0.49,3.44,0.45,4.84-0.84C70.25,24.27,69.18,23.43,69.18,23.43z"/>
	<g id="XMLID_8_">
		<path id="XMLID_9_" class="st8" d="M83.35,41.6c0,0,0.2,0.74,0.48,0.96c0,0,0.45-0.22,0.56-0.26l-0.01-0.32
			c0,0,0.17-0.11,0.35-0.15c0.18-0.04,0.98-0.06,1.36-0.63c0,0-0.02-0.31-0.13-0.32C85.76,40.86,83.35,41.6,83.35,41.6z"/>
	</g>
	<g id="XMLID_6_">
		<path id="XMLID_7_" class="st8" d="M59.91,40.93c0,0-0.75-0.14-1.08,0.02c0,0,0,0.5-0.01,0.61l0.3,0.14c0,0,0.02,0.2-0.02,0.38
			c-0.04,0.18-0.37,0.91-0.02,1.5c0,0,0.29,0.11,0.35,0.02C59.54,43.42,59.91,40.93,59.91,40.93z"/>
	</g>
	<path class="st11" d="M66.08,26.29c0,0,1.28,0.2,2.28-0.39c0,0-1.6,1.24-2.67,1.29L66.08,26.29z"/>
	<path id="SVGID_x5F_5_x5F_" class="st17" d="M57.66,78.87L57.66,78.87h17.74c-0.11-22.71,15.96-29.14,35.91-30.44V29.77
		C111.46,29.77,57.11,27.68,57.66,78.87z"/>
	<text>	<textPath  xlink:href="#SVGID_x5F_5_x5F_" startOffset="1427.7345%">
<tspan  style="fill:#FFFFFF; font-family:'MaisonNeue-Medium'; font-size:8.1457px; letter-spacing:16;">Develop</tspan>	</textPath>
</text>
	<g>
		<path id="SVGID_x5F_6_x5F_" class="st17" d="M214.39,107.08c19.46-1.44,34.92-8.22,35.04-30.13h17.74
			c0.14,32.78-22.08,47.76-52.78,48.73V107.08L214.39,107.08z"/>
		<text>		<textPath  xlink:href="#SVGID_x5F_6_x5F_" startOffset="5681.3218%">
<tspan  style="fill:#FFFFFF; font-family:'MaisonNeue-Medium'; font-size:8.1457px; letter-spacing:16;">Test</tspan>		</textPath>
</text>
	</g>
	<g>
		<path id="SVGID_x5F_7_x5F_" class="st17" d="M255.1,94.08c0.02-18.74-14.38-28.42-31.97-28.24c-20.4,0.21-32.43,14.68-43.87,29.68
			c-4.26-5.44-8.32-10.97-12.23-15.86c14.66-19,30.08-32.09,55.08-32.35c28.84-0.29,50.44,16.7,50.74,46.58L255.1,94.08L255.1,94.08
			z"/>
		<text>		<textPath  xlink:href="#SVGID_x5F_7_x5F_" startOffset="1461.7222%">
<tspan  style="fill:#FFFFFF; font-family:'MaisonNeue-Medium'; font-size:8.1457px; letter-spacing:16;">Analyze</tspan>		</textPath>
</text>
	</g>
	<g>
		<path id="SVGID_x5F_8_x5F_" class="st17" d="M63.77,77.29l17.74-0.01c0.07,18.37,14.49,27.88,31.69,27.88
			c20.12,0,32.89-14.34,44.16-29.26c4.03,5.33,7.94,10.76,12.08,16.01c-14.78,18.85-30.47,31.78-55.4,31.78
			C85.54,123.69,64.08,106.84,63.77,77.29L63.77,77.29z"/>
		<text>		<textPath  xlink:href="#SVGID_x5F_8_x5F_" startOffset="1128.7061%">
<tspan  style="fill:#FFFFFF; font-family:'MaisonNeue-Medium'; font-size:8.1457px; letter-spacing:16;">Deploy</tspan>		</textPath>
</text>
	</g>
	<g>
		<defs>
			
				<rect id="SVGID_9_" x="255.37" y="59.06" transform="matrix(-0.1809 -0.9835 0.9835 -0.1809 243.3808 338.848)" width="14.85" height="18.03"/>
		</defs>
		<clipPath id="SVGID_10_">
			<use xlink:href="#SVGID_9_"  style="overflow:visible;"/>
		</clipPath>
		<path class="st18" d="M261.22,61.61l21.18,13.08l-13.08,21.18l-21.18-13.08L261.22,61.61z M248.87,85.85l21.18,13.08l13.08-21.18
			l-21.18-13.08L248.87,85.85z"/>
	</g>
	<g>
		<defs>
			
				<rect id="SVGID_11_" x="67.68" y="91.6" transform="matrix(-0.4739 -0.8806 0.8806 -0.4739 21.8198 214.9041)" width="14.85" height="18.67"/>
		</defs>
		<clipPath id="SVGID_12_">
			<use xlink:href="#SVGID_11_"  style="overflow:visible;"/>
		</clipPath>
		<path class="st19" d="M71.61,95.27l24.17,5.95l-5.95,24.17l-24.17-5.95L71.61,95.27z M67.28,122.13l24.17,5.95l5.95-24.17
			l-24.17-5.95L67.28,122.13z"/>
	</g>
	<linearGradient id="SVGID_13_" gradientUnits="userSpaceOnUse" x1="115.8274" y1="82.4763" x2="220.7302" y2="82.4763">
		<stop  offset="0.0537" style="stop-color:#F04C5E"/>
		<stop  offset="0.6146" style="stop-color:#00ACC8"/>
	</linearGradient>
	<path class="st20" d="M220.73,111.59c-25.52-2.01-39.75-28.82-54.22-46.82c-13.73-16.92-28.14-28.92-50.68-30.02v18.66
		c17.46,1.74,28.33,14.45,38.65,27.36c4.91,6.43,9.65,13.09,14.71,19.39c13.98,17.22,28.57,29.23,51.55,30.05V111.59L220.73,111.59z
		"/>
	<polygon class="st21" points="226.2,111.32 220.1,118.09 216.67,118.82 224.24,111.22 	"/>
	<path class="st22" d="M229.79,89.61l2.8-0.59c-0.12-0.22-0.19-0.34-0.19-0.34s-0.67-1.81-0.77-2.35c-0.1-0.54,0.14-0.61,0.31-1.47
		c0.17-0.87-0.81-1.03-1.02-1.14c-0.21-0.11-1.33-1.01-1.33-1.01l-1.95-0.41c0,0-1.03,0.77-0.95,1.58c0.07,0.82,3.22,5.49,3.22,5.49
		C229.87,89.45,229.83,89.53,229.79,89.61z"/>
	<path class="st23" d="M233.73,80.04c0,0-0.37-1.1-0.41-1.19c-0.04-0.1-0.14-0.01-0.11,0.05c0,0-0.08-0.21-0.19-0.19
		c-0.05,0.01-0.05,0.12-0.05,0.12s-0.12-0.13-0.19-0.09c-0.06,0.05-0.01,0.12,0,0.15c0,0-0.08-0.05-0.13,0.02
		c-0.05,0.07,0.05,0.29,0.17,0.47c0.11,0.18,0.14,0.47,0.13,0.52c-0.01,0.05-0.09,0-0.09,0l-0.37-0.27c0,0-0.16,0.06-0.07,0.19
		c0.09,0.13,0.37,0.27,0.41,0.31c0.04,0.03,0.35,0.22,0.46,0.25C233.4,80.42,233.73,80.04,233.73,80.04z"/>
	<path class="st22" d="M228.42,83.42c0,0,4.39-0.14,5-0.36c1.07-0.39-0.12-2.67-0.12-2.67l0.44-0.34c0,0,2.53,2.91,0.7,4.23
		c-0.94,0.68-5.52,1.23-5.52,1.23L228.42,83.42z"/>
	<polygon class="st24" points="228.84,81.61 228.84,82.6 227.85,82.56 227.9,81.51 	"/>
	<path class="st23" d="M232.97,96.52c0,0-1.53,2.44-1.98,3.1c0,0-4.66,1.86-6.55,3.79l0.22,0.57c0,0,4.7-2.01,6.51-2.7
		c1.82-0.7,4.87-2.49,4.87-2.49L232.97,96.52z"/>
	<path class="st23" d="M234.67,94.21c0,0,2.02,2.33,2.88,3.65c0.86,1.32,4.59,7.35,4.59,7.35l-0.48,0.38c0,0-4.04-4.19-5.23-6.03
		c-1.18-1.84-4.33-3.17-4.39-3.25C231.99,96.23,234.67,94.21,234.67,94.21z"/>
	<path class="st23" d="M228.32,78.74c0,0,0.52,0.2,0.62,0.65c0.1,0.45,0.5,1.47,0.37,2.19c-0.11,0.53-1.23,0.26-1.23,0.26
		s-0.47-0.49-0.5-0.74C227.54,80.85,227.03,79.1,228.32,78.74z"/>
	<path class="st23" d="M224.8,90.9c0,0-0.81,0.83-0.88,0.91c-0.07,0.08,0.06,0.13,0.09,0.08c0,0-0.15,0.17-0.08,0.25
		c0.03,0.04,0.13-0.01,0.13-0.01s-0.06,0.17,0.01,0.2c0.07,0.04,0.12-0.04,0.13-0.07c0,0-0.01,0.1,0.08,0.11
		c0.08,0.01,0.23-0.18,0.34-0.36c0.11-0.18,0.36-0.34,0.41-0.35c0.05-0.01,0.04,0.07,0.04,0.07L225,92.19c0,0,0.13,0.11,0.2-0.02
		c0.07-0.14,0.08-0.45,0.09-0.5c0.01-0.05,0.04-0.41,0.02-0.52C225.29,91.03,224.8,90.9,224.8,90.9z"/>
	<path class="st22" d="M230.62,84.24c0,0-3.27,2.92-3.64,3.45c-0.37,0.53-1.61,3.49-1.61,3.49l-0.7-0.24c0,0,0.73-2.91,1.24-3.94
		c0.51-1.04,2.87-3.87,2.87-3.87L230.62,84.24z"/>
	<path class="st25" d="M232.96,98.7l0.32,0.64c0,0,1.88-0.21,2.18-0.88l-0.08-0.5C235.37,97.96,233.59,98.6,232.96,98.7z"/>
	<path class="st25" d="M233.19,99.17c0,0-1.21,0.64-2.17,0.33l-0.21-0.61c0,0,1.07,0.03,2.14-0.19L233.19,99.17z"/>
	<path class="st26" d="M242.52,105.42C242.52,105.42,242.53,105.42,242.52,105.42C242.53,105.42,242.52,105.42,242.52,105.42z"/>
	<path class="st27" d="M241.81,105.85c0.11-0.01,0.95-0.09,1.27-0.24c0.21-0.1,0.21-0.25,0.18-0.35c-0.3,0.07-0.65,0.17-0.73,0.16
		c0.12,0,0.92-0.23,1.15-0.24c0.23-0.01,0.27,0.26,0.1,0.38c-0.17,0.12-0.76,0.43-0.76,0.43s-0.61,0.4-0.79,0.33
		C242.04,106.23,241.81,105.85,241.81,105.85z"/>
	<path class="st23" d="M242.53,105.42C242.53,105.42,242.53,105.42,242.53,105.42C242.53,105.42,242.53,105.42,242.53,105.42z"/>
	<path class="st23" d="M243.08,105.61c-0.32,0.16-1.16,0.23-1.27,0.24l-0.29-0.42l0.49-0.43c0,0,0.25,0.45,0.52,0.41c0,0,0,0,0.01,0
		c0,0,0,0,0,0c0.08,0,0.43-0.09,0.73-0.16C243.29,105.36,243.29,105.51,243.08,105.61z"/>
	<path class="st27" d="M224.06,103.61c0,0.11,0.01,0.95,0.14,1.29c0.08,0.22,0.23,0.23,0.34,0.21c-0.05-0.31-0.11-0.67-0.1-0.74
		c-0.01,0.12,0.15,0.94,0.15,1.16c-0.01,0.23-0.28,0.25-0.38,0.07c-0.11-0.18-0.36-0.79-0.36-0.79s-0.35-0.64-0.26-0.82
		C223.67,103.81,224.06,103.61,224.06,103.61z"/>
	<path class="st23" d="M224.2,104.89c-0.13-0.34-0.14-1.18-0.14-1.29l0.59-0.41l0.24,0.68c0,0-0.46,0.22-0.45,0.48c0,0,0,0,0,0.01
		c0,0,0,0,0,0c-0.01,0.07,0.05,0.43,0.1,0.74C224.43,105.13,224.28,105.11,224.2,104.89z"/>
	<path class="st14" d="M228.47,78.71c0,0-0.46-0.43-1.26-0.01c-0.8,0.42-0.97,1.05-1.1,1.65c-0.13,0.6-0.98,0.5-0.97,1.2
		c0.01,0.69,0.48,0.79,0.14,1.42c-0.34,0.63-1.13,2.54,0.21,2.83c1.34,0.29,2.68-0.02,2.63-1.07c-0.05-1.04-0.04-2.3,0.33-2.71
		c0.37-0.41-0.11-1.22-0.68-1.14c-0.57,0.09-0.15-0.62,0.31-0.9C228.53,79.71,228.95,78.8,228.47,78.71z"/>
	<path class="st27" d="M228.09,86.55l1.59-1.47c0,0-1.07,1.59-0.81,2.71L228.09,86.55z"/>
	<polygon class="st28" points="243.73,105.47 237.1,112.82 233.67,113.55 240.01,107.18 	"/>
	<path class="st22" d="M229.76,89.62c0,0-3.71,8.59-6.53,10.78c1.02,0.89,9.24,7.89,16.77-3.17c-1-1.96-6.08-7.11-7.41-8.21
		L229.76,89.62z"/>
	<g>
		<path id="SVGID_x5F_14_x5F_" class="st17" d="M226.61,107.81v18.62c-22.97-0.82-37.57-12.83-51.55-30.05
			c-5.06-6.3-9.8-12.96-14.71-19.39c-10.32-12.9-21.19-25.61-38.65-27.36V30.97c22.54,1.1,36.95,13.09,50.68,30.02
			C186.86,79,201.1,105.81,226.61,107.81L226.61,107.81z"/>
		<text>		<textPath  xlink:href="#SVGID_x5F_14_x5F_" startOffset="8826.6201%">
<tspan  style="fill:#FFFFFF; font-family:'MaisonNeue-Medium'; font-size:8.1457px; letter-spacing:16;">Build</tspan>		</textPath>
</text>
	</g>
	<g>
		<defs>
			
				<rect id="SVGID_15_" x="128.32" y="40.02" transform="matrix(0.914 0.4057 -0.4057 0.914 31.82 -50.8058)" width="14.85" height="19.26"/>
		</defs>
		<clipPath id="SVGID_16_">
			<use xlink:href="#SVGID_15_"  style="overflow:visible;"/>
		</clipPath>
		<path class="st29" d="M141.94,52.08l-22.75,10.1l-10.1-22.75l22.75-10.1L141.94,52.08z M128.9,28.2l-22.75,10.1l10.1,22.75
			L139,50.95L128.9,28.2z"/>
	</g>
	<g>
		<defs>
			
				<rect id="SVGID_17_" x="183.99" y="99.54" transform="matrix(0.7529 0.6581 -0.6581 0.7529 119.2282 -98.9645)" width="14.85" height="19.54"/>
		</defs>
		<clipPath id="SVGID_18_">
			<use xlink:href="#SVGID_17_"  style="overflow:visible;"/>
		</clipPath>
		<path class="st30" d="M197.07,112.94l-24.72,2.91l-2.91-24.72l24.72-2.91L197.07,112.94z M191.68,86.27l-24.72,2.91l2.91,24.72
			l24.72-2.91L191.68,86.27z"/>
	</g>
</g>
</svg>
